<?xml version="1.0" encoding="UTF-8" standalone="no"?>
<!DOCTYPE svg PUBLIC "-//W3C//DTD SVG 1.1//EN"
 "http://www.w3.org/Graphics/SVG/1.1/DTD/svg11.dtd">
<!-- Generated by graphviz version 13.1.0 (20250701.0955)
 -->
<!-- Title: SDL_SetClipboardData Pages: 1 -->
<svg width="440pt" height="47pt"
 viewBox="0.00 0.00 440.00 47.00" xmlns="http://www.w3.org/2000/svg" xmlns:xlink="http://www.w3.org/1999/xlink">

<svg id="main" version="1.1" xmlns="http://www.w3.org/2000/svg" xmlns:xlink="http://www.w3.org/1999/xlink" xml:space="preserve">

<style type="text/css"><![CDATA[
.node, .edge {opacity: 0.7;}
.node.selected, .edge.selected {opacity: 1;}
.edge:hover path { stroke: red; }
.edge:hover polygon { stroke: red; fill: red; }
]]></style>
<script type="application/ecmascript" xlink:href="../../svg.min.js"/>
<svg id="graph" class="graph">
<g id="graph0" class="graph" transform="scale(1 1) rotate(0) translate(4 43)">
<title>SDL_SetClipboardData</title>
<!-- Node1 -->
<g id="Node000001" class="node">
<title>Node1</title>
<g id="a_Node000001"><a xlink:title=" ">
<polygon fill="#999999" stroke="#666666" points="432,-39 314,-39 314,-19 432,-19 432,-39"/>
<text xml:space="preserve" text-anchor="middle" x="373" y="-25.5" font-family="Helvetica,sans-Serif" font-size="10.00">SDL_SetClipboardData</text>
</a>
</g>
</g>
<!-- Node2 -->
<g id="Node000002" class="node">
<title>Node2</title>
<g id="a_Node000002"><a xlink:href="../../d6/da1/SDL__clipboard_8c.html#a9aa3cee0f84da11fa491ad40ba57a5c0" target="_top" xlink:title=" ">
<polygon fill="white" stroke="#666666" points="278,-39 151.75,-39 151.75,-19 278,-19 278,-39"/>
<text xml:space="preserve" text-anchor="middle" x="214.88" y="-25.5" font-family="Helvetica,sans-Serif" font-size="10.00">SDL_ClearClipboardData</text>
</a>
</g>
</g>
<!-- Node1&#45;&gt;Node2 -->
<g id="edge1_Node000001_Node000002" class="edge">
<title>Node1&#45;&gt;Node2</title>
<g id="a_edge1_Node000001_Node000002"><a xlink:title=" ">
<path fill="none" stroke="#63b8ff" d="M302.54,-22.29C294.45,-22.22 286.23,-22.25 278.25,-22.37"/>
<polygon fill="#63b8ff" stroke="#63b8ff" points="302.3,-25.78 312.35,-22.43 302.4,-18.78 302.3,-25.78"/>
</a>
</g>
</g>
<!-- Node3 -->
<g id="Node000003" class="node">
<title>Node3</title>
<g id="a_Node000003"><a xlink:href="../../d6/da1/SDL__clipboard_8c.html#ab4ab3c8cbbd94aef84dd792c7518de2f" target="_top" xlink:title=" ">
<polygon fill="white" stroke="#666666" points="115.75,-20 0,-20 0,0 115.75,0 115.75,-20"/>
<text xml:space="preserve" text-anchor="middle" x="57.88" y="-6.5" font-family="Helvetica,sans-Serif" font-size="10.00">SDL_SetClipboardText</text>
</a>
</g>
</g>
<!-- Node1&#45;&gt;Node3 -->
<g id="edge4_Node000001_Node000003" class="edge">
<title>Node1&#45;&gt;Node3</title>
<g id="a_edge4_Node000001_Node000003"><a xlink:title=" ">
<path fill="none" stroke="#63b8ff" d="M318.43,-16.25C305.28,-13.66 291.2,-11.32 278,-10 223.3,-4.53 160.54,-5.23 116.24,-6.89"/>
<polygon fill="#63b8ff" stroke="#63b8ff" points="317.71,-19.68 328.21,-18.28 319.12,-12.82 317.71,-19.68"/>
</a>
</g>
</g>
<!-- Node2&#45;&gt;Node1 -->
<g id="edge2_Node000002_Node000001" class="edge">
<title>Node2&#45;&gt;Node1</title>
<g id="a_edge2_Node000002_Node000001"><a xlink:title=" ">
<path fill="none" stroke="#63b8ff" d="M289.66,-35.74C297.78,-35.78 305.97,-35.71 313.86,-35.55"/>
<polygon fill="#63b8ff" stroke="#63b8ff" points="289.79,-32.24 279.76,-35.64 289.72,-39.24 289.79,-32.24"/>
</a>
</g>
</g>
<!-- Node2&#45;&gt;Node3 -->
<g id="edge3_Node000002_Node000003" class="edge">
<title>Node2&#45;&gt;Node3</title>
<g id="a_edge3_Node000002_Node000003"><a xlink:title=" ">
<path fill="none" stroke="#63b8ff" d="M140.03,-19.95C132.02,-18.97 123.96,-17.98 116.2,-17.03"/>
<polygon fill="#63b8ff" stroke="#63b8ff" points="139.42,-23.4 149.78,-21.14 140.28,-16.45 139.42,-23.4"/>
</a>
</g>
</g>
</g>
</svg>
</svg>

<style type='text/css'>
<![CDATA[
[data-mouse-over-selected='false'] { opacity: 0.7; }
[data-mouse-over-selected='true']  { opacity: 1.0; }
]]>
</style>
<script type="application/ecmascript"><![CDATA[
document.addEventListener('DOMContentLoaded', (event) => {
  highlightEdges();
  highlightAdjacentNodes();
});
]]></script>
</svg>
