<?xml version="1.0" encoding="UTF-8" standalone="no"?>
<!DOCTYPE svg PUBLIC "-//W3C//DTD SVG 1.1//EN"
 "http://www.w3.org/Graphics/SVG/1.1/DTD/svg11.dtd">
<!-- Generated by graphviz version 13.1.0 (20250701.0955)
 -->
<!-- Title: SDL&#45;main/src/main/SDL_main_callbacks.h Pages: 1 -->
<svg width="729pt" height="108pt"
 viewBox="0.00 0.00 729.00 108.00" xmlns="http://www.w3.org/2000/svg" xmlns:xlink="http://www.w3.org/1999/xlink">
<g id="graph0" class="graph" transform="scale(1 1) rotate(0) translate(4 104)">
<title>SDL&#45;main/src/main/SDL_main_callbacks.h</title>
<!-- Node1 -->
<g id="Node000001" class="node">
<title>Node1</title>
<g id="a_Node000001"><a xlink:title=" ">
<polygon fill="#999999" stroke="#666666" points="438.5,-100 316,-100 316,-68 438.5,-68 438.5,-100"/>
<text xml:space="preserve" text-anchor="start" x="324" y="-86.5" font-family="Helvetica,sans-Serif" font-size="10.00">SDL&#45;main/src/main/SDL</text>
<text xml:space="preserve" text-anchor="middle" x="377.25" y="-74.5" font-family="Helvetica,sans-Serif" font-size="10.00">_main_callbacks.h</text>
</a>
</g>
</g>
<!-- Node2 -->
<g id="Node000002" class="node">
<title>Node2</title>
<g id="a_Node000002"><a xlink:href="../../d9/d78/SDL__main__callbacks_8c.html" target="_top" xlink:title=" ">
<polygon fill="white" stroke="#666666" points="122.5,-32 0,-32 0,0 122.5,0 122.5,-32"/>
<text xml:space="preserve" text-anchor="start" x="8" y="-18.5" font-family="Helvetica,sans-Serif" font-size="10.00">SDL&#45;main/src/main/SDL</text>
<text xml:space="preserve" text-anchor="middle" x="61.25" y="-6.5" font-family="Helvetica,sans-Serif" font-size="10.00">_main_callbacks.c</text>
</a>
</g>
</g>
<!-- Node1&#45;&gt;Node2 -->
<g id="edge1_Node000001_Node000002" class="edge">
<title>Node1&#45;&gt;Node2</title>
<g id="a_edge1_Node000001_Node000002"><a xlink:title=" ">
<path fill="none" stroke="#63b8ff" d="M304.43,-68.04C255.46,-57.94 189.45,-44.27 131.25,-32 128.45,-31.41 125.59,-30.81 122.71,-30.19"/>
<polygon fill="#63b8ff" stroke="#63b8ff" points="303.57,-71.43 314.07,-70.02 304.99,-64.58 303.57,-71.43"/>
</a>
</g>
</g>
<!-- Node3 -->
<g id="Node000003" class="node">
<title>Node3</title>
<g id="a_Node000003"><a xlink:href="../../d0/d72/emscripten_2SDL__sysmain__callbacks_8c.html" target="_top" xlink:title=" ">
<polygon fill="white" stroke="#666666" points="291.75,-32 140.75,-32 140.75,0 291.75,0 291.75,-32"/>
<text xml:space="preserve" text-anchor="start" x="148.75" y="-18.5" font-family="Helvetica,sans-Serif" font-size="10.00">SDL&#45;main/src/main/emscripten</text>
<text xml:space="preserve" text-anchor="middle" x="216.25" y="-6.5" font-family="Helvetica,sans-Serif" font-size="10.00">/SDL_sysmain_callbacks.c</text>
</a>
</g>
</g>
<!-- Node1&#45;&gt;Node3 -->
<g id="edge2_Node000001_Node000003" class="edge">
<title>Node1&#45;&gt;Node3</title>
<g id="a_edge2_Node000001_Node000003"><a xlink:title=" ">
<path fill="none" stroke="#63b8ff" d="M329.17,-63.29C305.14,-53.44 276.47,-41.69 254.04,-32.49"/>
<polygon fill="#63b8ff" stroke="#63b8ff" points="327.52,-66.4 338.1,-66.95 330.18,-59.92 327.52,-66.4"/>
</a>
</g>
</g>
<!-- Node4 -->
<g id="Node000004" class="node">
<title>Node4</title>
<g id="a_Node000004"><a xlink:href="../../dd/db5/generic_2SDL__sysmain__callbacks_8c.html" target="_top" xlink:title=" ">
<polygon fill="white" stroke="#666666" points="444.88,-32 309.62,-32 309.62,0 444.88,0 444.88,-32"/>
<text xml:space="preserve" text-anchor="start" x="317.62" y="-18.5" font-family="Helvetica,sans-Serif" font-size="10.00">SDL&#45;main/src/main/generic</text>
<text xml:space="preserve" text-anchor="middle" x="377.25" y="-6.5" font-family="Helvetica,sans-Serif" font-size="10.00">/SDL_sysmain_callbacks.c</text>
</a>
</g>
</g>
<!-- Node1&#45;&gt;Node4 -->
<g id="edge3_Node000001_Node000004" class="edge">
<title>Node1&#45;&gt;Node4</title>
<g id="a_edge3_Node000001_Node000004"><a xlink:title=" ">
<path fill="none" stroke="#63b8ff" d="M377.25,-56.31C377.25,-48.12 377.25,-39.38 377.25,-32.22"/>
<polygon fill="#63b8ff" stroke="#63b8ff" points="373.75,-56.18 377.25,-66.18 380.75,-56.18 373.75,-56.18"/>
</a>
</g>
</g>
<!-- Node5 -->
<g id="Node000005" class="node">
<title>Node5</title>
<g id="a_Node000005"><a xlink:href="../../dd/d4a/SDL__sysmain__callbacks_8m.html" target="_top" xlink:title=" ">
<polygon fill="white" stroke="#666666" points="601.38,-32 463.12,-32 463.12,0 601.38,0 601.38,-32"/>
<text xml:space="preserve" text-anchor="start" x="471.12" y="-18.5" font-family="Helvetica,sans-Serif" font-size="10.00">SDL&#45;main/src/main/ios</text>
<text xml:space="preserve" text-anchor="middle" x="532.25" y="-6.5" font-family="Helvetica,sans-Serif" font-size="10.00">/SDL_sysmain_callbacks.m</text>
</a>
</g>
</g>
<!-- Node1&#45;&gt;Node5 -->
<g id="edge4_Node000001_Node000005" class="edge">
<title>Node1&#45;&gt;Node5</title>
<g id="a_edge4_Node000001_Node000005"><a xlink:title=" ">
<path fill="none" stroke="#63b8ff" d="M424.16,-63.03C447.17,-53.23 474.46,-41.61 495.87,-32.49"/>
<polygon fill="#63b8ff" stroke="#63b8ff" points="422.81,-59.79 414.98,-66.93 425.56,-66.24 422.81,-59.79"/>
</a>
</g>
</g>
<!-- Node6 -->
<g id="Node000006" class="node">
<title>Node6</title>
<g id="a_Node000006"><a xlink:href="../../d6/d3d/SDL__video_8c.html" target="_top" xlink:title=" ">
<polygon fill="white" stroke="#666666" points="721.38,-32 619.12,-32 619.12,0 721.38,0 721.38,-32"/>
<text xml:space="preserve" text-anchor="start" x="627.12" y="-18.5" font-family="Helvetica,sans-Serif" font-size="10.00">SDL&#45;main/src/video</text>
<text xml:space="preserve" text-anchor="middle" x="670.25" y="-6.5" font-family="Helvetica,sans-Serif" font-size="10.00">/SDL_video.c</text>
</a>
</g>
</g>
<!-- Node1&#45;&gt;Node6 -->
<g id="edge5_Node000001_Node000006" class="edge">
<title>Node1&#45;&gt;Node6</title>
<g id="a_edge5_Node000001_Node000006"><a xlink:title=" ">
<path fill="none" stroke="#63b8ff" d="M449.76,-67.7C495.81,-57.85 556.62,-44.57 610.25,-32 613.07,-31.34 615.97,-30.65 618.89,-29.95"/>
<polygon fill="#63b8ff" stroke="#63b8ff" points="449.21,-64.24 440.16,-69.75 450.67,-71.09 449.21,-64.24"/>
</a>
</g>
</g>
</g>
</svg>
