<?xml version="1.0" encoding="UTF-8" standalone="no"?>
<!DOCTYPE svg PUBLIC "-//W3C//DTD SVG 1.1//EN"
 "http://www.w3.org/Graphics/SVG/1.1/DTD/svg11.dtd">
<!-- Generated by graphviz version 13.1.0 (20250701.0955)
 -->
<!-- Title: SDL&#45;main/src/main/SDL_main_callbacks.h Pages: 1 -->
<!--zoomable 108 -->

<svg id="main" version="1.1" xmlns="http://www.w3.org/2000/svg" xmlns:xlink="http://www.w3.org/1999/xlink" xml:space="preserve" onload="init(evt)">

<style type="text/css"><![CDATA[
.node, .edge {opacity: 0.7;}
.node.selected, .edge.selected {opacity: 1;}
.edge:hover path { stroke: red; }
.edge:hover polygon { stroke: red; fill: red; }
]]></style>

<defs>
  <circle id="rim" cx="0" cy="0" r="7"/>
  <circle id="rim2" cx="0" cy="0" r="3.5"/>
  <g id="zoomPlus">
    <use xlink:href="#rim" fill="#404040"><set attributeName="fill" to="#808080" begin="zoomplus.mouseover" end="zoomplus.mouseout"/></use>
    <path d="M-4,0h8M0,-4v8" fill="none" stroke="white" stroke-width="1.5" pointer-events="none"/>
  </g>
  <g id="zoomMin">
    <use xlink:href="#rim" fill="#404040"><set attributeName="fill" to="#808080" begin="zoomminus.mouseover" end="zoomminus.mouseout"/></use>
    <path d="M-4,0h8" fill="none" stroke="white" stroke-width="1.5" pointer-events="none"/>
  </g>
  <g id="arrowUp" transform="translate(30 24)">
    <use xlink:href="#rim"/>
    <path pointer-events="none" fill="none" stroke="white" stroke-width="1.5" d="M0,-3.0v7 M-2.5,-0.5L0,-3.0L2.5,-0.5"/>
  </g>
  <g id="arrowRight" transform="rotate(90) translate(36 -43)">
    <use xlink:href="#rim"/>
    <path pointer-events="none" fill="none" stroke="white" stroke-width="1.5" d="M0,-3.0v7 M-2.5,-0.5L0,-3.0L2.5,-0.5"/>
  </g>
  <g id="arrowDown" transform="rotate(180) translate(-30 -48)">
    <use xlink:href="#rim"/>
    <path pointer-events="none" fill="none" stroke="white" stroke-width="1.5" d="M0,-3.0v7 M-2.5,-0.5L0,-3.0L2.5,-0.5"/>
  </g>
  <g id="arrowLeft" transform="rotate(270) translate(-36 17)">
    <use xlink:href="#rim"/>
    <path pointer-events="none" fill="none" stroke="white" stroke-width="1.5" d="M0,-3.0v7 M-2.5,-0.5L0,-3.0L2.5,-0.5"/>
  </g>
  <g id="resetDef">
    <use xlink:href="#rim2" fill="#404040"><set attributeName="fill" to="#808080" begin="reset.mouseover" end="reset.mouseout"/></use>
  </g>
</defs>
<script type="application/ecmascript">
var viewWidth = 729;
var viewHeight = 108;
var sectionId = 'dynsection-0';
</script>
<script type="application/ecmascript" xlink:href="../../svg.min.js"/>
<svg id="graph" class="graph">
<g id="viewport">
<title>SDL&#45;main/src/main/SDL_main_callbacks.h</title>
<!-- Node1 -->
<g id="Node000001" class="node">
<title>Node1</title>
<g id="a_Node000001"><a xlink:title=" ">
<polygon fill="#999999" stroke="#666666" points="438.5,-100 316,-100 316,-68 438.5,-68 438.5,-100"/>
<text xml:space="preserve" text-anchor="start" x="324" y="-86.5" font-family="Helvetica,sans-Serif" font-size="10.00">SDL&#45;main/src/main/SDL</text>
<text xml:space="preserve" text-anchor="middle" x="377.25" y="-74.5" font-family="Helvetica,sans-Serif" font-size="10.00">_main_callbacks.h</text>
</a>
</g>
</g>
<!-- Node2 -->
<g id="Node000002" class="node">
<title>Node2</title>
<g id="a_Node000002"><a xlink:href="../../d9/d78/SDL__main__callbacks_8c.html" target="_top" xlink:title=" ">
<polygon fill="white" stroke="#666666" points="122.5,-32 0,-32 0,0 122.5,0 122.5,-32"/>
<text xml:space="preserve" text-anchor="start" x="8" y="-18.5" font-family="Helvetica,sans-Serif" font-size="10.00">SDL&#45;main/src/main/SDL</text>
<text xml:space="preserve" text-anchor="middle" x="61.25" y="-6.5" font-family="Helvetica,sans-Serif" font-size="10.00">_main_callbacks.c</text>
</a>
</g>
</g>
<!-- Node1&#45;&gt;Node2 -->
<g id="edge1_Node000001_Node000002" class="edge">
<title>Node1&#45;&gt;Node2</title>
<g id="a_edge1_Node000001_Node000002"><a xlink:title=" ">
<path fill="none" stroke="#63b8ff" d="M304.43,-68.04C255.46,-57.94 189.45,-44.27 131.25,-32 128.45,-31.41 125.59,-30.81 122.71,-30.19"/>
<polygon fill="#63b8ff" stroke="#63b8ff" points="303.57,-71.43 314.07,-70.02 304.99,-64.58 303.57,-71.43"/>
</a>
</g>
</g>
<!-- Node3 -->
<g id="Node000003" class="node">
<title>Node3</title>
<g id="a_Node000003"><a xlink:href="../../d0/d72/emscripten_2SDL__sysmain__callbacks_8c.html" target="_top" xlink:title=" ">
<polygon fill="white" stroke="#666666" points="291.75,-32 140.75,-32 140.75,0 291.75,0 291.75,-32"/>
<text xml:space="preserve" text-anchor="start" x="148.75" y="-18.5" font-family="Helvetica,sans-Serif" font-size="10.00">SDL&#45;main/src/main/emscripten</text>
<text xml:space="preserve" text-anchor="middle" x="216.25" y="-6.5" font-family="Helvetica,sans-Serif" font-size="10.00">/SDL_sysmain_callbacks.c</text>
</a>
</g>
</g>
<!-- Node1&#45;&gt;Node3 -->
<g id="edge2_Node000001_Node000003" class="edge">
<title>Node1&#45;&gt;Node3</title>
<g id="a_edge2_Node000001_Node000003"><a xlink:title=" ">
<path fill="none" stroke="#63b8ff" d="M329.17,-63.29C305.14,-53.44 276.47,-41.69 254.04,-32.49"/>
<polygon fill="#63b8ff" stroke="#63b8ff" points="327.52,-66.4 338.1,-66.95 330.18,-59.92 327.52,-66.4"/>
</a>
</g>
</g>
<!-- Node4 -->
<g id="Node000004" class="node">
<title>Node4</title>
<g id="a_Node000004"><a xlink:href="../../dd/db5/generic_2SDL__sysmain__callbacks_8c.html" target="_top" xlink:title=" ">
<polygon fill="white" stroke="#666666" points="444.88,-32 309.62,-32 309.62,0 444.88,0 444.88,-32"/>
<text xml:space="preserve" text-anchor="start" x="317.62" y="-18.5" font-family="Helvetica,sans-Serif" font-size="10.00">SDL&#45;main/src/main/generic</text>
<text xml:space="preserve" text-anchor="middle" x="377.25" y="-6.5" font-family="Helvetica,sans-Serif" font-size="10.00">/SDL_sysmain_callbacks.c</text>
</a>
</g>
</g>
<!-- Node1&#45;&gt;Node4 -->
<g id="edge3_Node000001_Node000004" class="edge">
<title>Node1&#45;&gt;Node4</title>
<g id="a_edge3_Node000001_Node000004"><a xlink:title=" ">
<path fill="none" stroke="#63b8ff" d="M377.25,-56.31C377.25,-48.12 377.25,-39.38 377.25,-32.22"/>
<polygon fill="#63b8ff" stroke="#63b8ff" points="373.75,-56.18 377.25,-66.18 380.75,-56.18 373.75,-56.18"/>
</a>
</g>
</g>
<!-- Node5 -->
<g id="Node000005" class="node">
<title>Node5</title>
<g id="a_Node000005"><a xlink:href="../../dd/d4a/SDL__sysmain__callbacks_8m.html" target="_top" xlink:title=" ">
<polygon fill="white" stroke="#666666" points="601.38,-32 463.12,-32 463.12,0 601.38,0 601.38,-32"/>
<text xml:space="preserve" text-anchor="start" x="471.12" y="-18.5" font-family="Helvetica,sans-Serif" font-size="10.00">SDL&#45;main/src/main/ios</text>
<text xml:space="preserve" text-anchor="middle" x="532.25" y="-6.5" font-family="Helvetica,sans-Serif" font-size="10.00">/SDL_sysmain_callbacks.m</text>
</a>
</g>
</g>
<!-- Node1&#45;&gt;Node5 -->
<g id="edge4_Node000001_Node000005" class="edge">
<title>Node1&#45;&gt;Node5</title>
<g id="a_edge4_Node000001_Node000005"><a xlink:title=" ">
<path fill="none" stroke="#63b8ff" d="M424.16,-63.03C447.17,-53.23 474.46,-41.61 495.87,-32.49"/>
<polygon fill="#63b8ff" stroke="#63b8ff" points="422.81,-59.79 414.98,-66.93 425.56,-66.24 422.81,-59.79"/>
</a>
</g>
</g>
<!-- Node6 -->
<g id="Node000006" class="node">
<title>Node6</title>
<g id="a_Node000006"><a xlink:href="../../d6/d3d/SDL__video_8c.html" target="_top" xlink:title=" ">
<polygon fill="white" stroke="#666666" points="721.38,-32 619.12,-32 619.12,0 721.38,0 721.38,-32"/>
<text xml:space="preserve" text-anchor="start" x="627.12" y="-18.5" font-family="Helvetica,sans-Serif" font-size="10.00">SDL&#45;main/src/video</text>
<text xml:space="preserve" text-anchor="middle" x="670.25" y="-6.5" font-family="Helvetica,sans-Serif" font-size="10.00">/SDL_video.c</text>
</a>
</g>
</g>
<!-- Node1&#45;&gt;Node6 -->
<g id="edge5_Node000001_Node000006" class="edge">
<title>Node1&#45;&gt;Node6</title>
<g id="a_edge5_Node000001_Node000006"><a xlink:title=" ">
<path fill="none" stroke="#63b8ff" d="M449.76,-67.7C495.81,-57.85 556.62,-44.57 610.25,-32 613.07,-31.34 615.97,-30.65 618.89,-29.95"/>
<polygon fill="#63b8ff" stroke="#63b8ff" points="449.21,-64.24 440.16,-69.75 450.67,-71.09 449.21,-64.24"/>
</a>
</g>
</g>
</g>
</svg>

<g id="navigator" transform="translate(0 0)" fill="#404254">
  <rect fill="#f2f5e9" fill-opacity="0.5" stroke="#606060" stroke-width=".5" x="0" y="0" width="60" height="60"/>
  <use id="zoomplus" xlink:href="#zoomPlus" x="17" y="9" onmousedown="handleZoom(evt,'in')"/>
  <use id="zoomminus" xlink:href="#zoomMin" x="42" y="9" onmousedown="handleZoom(evt,'out')"/>
  <use id="reset" xlink:href="#resetDef" x="30" y="36" onmousedown="handleReset()"/>
   <use id="arrowup" xlink:href="#arrowUp" x="0" y="0" onmousedown="handlePan(0,-1)"/>
  <use id="arrowright" xlink:href="#arrowRight" x="0" y="0" onmousedown="handlePan(1,0)"/>
  <use id="arrowdown" xlink:href="#arrowDown" x="0" y="0" onmousedown="handlePan(0,1)"/>
  <use id="arrowleft" xlink:href="#arrowLeft" x="0" y="0" onmousedown="handlePan(-1,0)"/>
</g>
<svg viewBox="0 0 15 15" width="100%" height="30px" preserveAspectRatio="xMaxYMin meet">
 <g id="arrow_out" transform="scale(0.3 0.3)">
  <a xlink:href="SDL__main__callbacks_8h__dep__incl_org.svg" target="_base">
   <rect id="button" ry="5" rx="5" y="6" x="6" height="38" width="38"
        fill="#f2f5e9" fill-opacity="0.5" stroke="#606060" stroke-width="1.0"/>
   <path id="arrow"
     d="M 11.500037,31.436501 C 11.940474,20.09759 22.043105,11.32322 32.158766,21.979434 L 37.068811,17.246167 C 37.068811,17.246167 37.088388,32 37.088388,32 L 22.160133,31.978069 C 22.160133,31.978069 26.997745,27.140456 26.997745,27.140456 C 18.528582,18.264221 13.291696,25.230495 11.500037,31.436501 z"
     style="fill:#404040;"/>
  </a>
 </g>
</svg>

<style type='text/css'>
<![CDATA[
[data-mouse-over-selected='false'] { opacity: 0.7; }
[data-mouse-over-selected='true']  { opacity: 1.0; }
]]>
</style>
<script type="application/ecmascript"><![CDATA[
document.addEventListener('DOMContentLoaded', (event) => {
  highlightEdges();
  highlightAdjacentNodes();
});
]]></script>
</svg>
