<?xml version="1.0" encoding="UTF-8" standalone="no"?>
<!DOCTYPE svg PUBLIC "-//W3C//DTD SVG 1.1//EN"
 "http://www.w3.org/Graphics/SVG/1.1/DTD/svg11.dtd">
<!-- Generated by graphviz version 13.1.0 (20250701.0955)
 -->
<!-- Title: crc16_for_byte Pages: 1 -->
<svg width="566pt" height="28pt"
 viewBox="0.00 0.00 566.00 28.00" xmlns="http://www.w3.org/2000/svg" xmlns:xlink="http://www.w3.org/1999/xlink">
<g id="graph0" class="graph" transform="scale(1 1) rotate(0) translate(4 24)">
<title>crc16_for_byte</title>
<!-- Node1 -->
<g id="Node000001" class="node">
<title>Node1</title>
<g id="a_Node000001"><a xlink:title=" ">
<polygon fill="#999999" stroke="#666666" points="558.25,-20 477.75,-20 477.75,0 558.25,0 558.25,-20"/>
<text xml:space="preserve" text-anchor="middle" x="518" y="-6.5" font-family="Helvetica,sans-Serif" font-size="10.00">crc16_for_byte</text>
</a>
</g>
</g>
<!-- Node2 -->
<g id="Node000002" class="node">
<title>Node2</title>
<g id="a_Node000002"><a xlink:href="../../d2/da2/SDL__crc16_8c.html#ae6965b5d695f8e80c10cba6dace190aa" target="_top" xlink:title=" ">
<polygon fill="white" stroke="#666666" points="441.75,-20 377,-20 377,0 441.75,0 441.75,-20"/>
<text xml:space="preserve" text-anchor="middle" x="409.38" y="-6.5" font-family="Helvetica,sans-Serif" font-size="10.00">SDL_crc16</text>
</a>
</g>
</g>
<!-- Node1&#45;&gt;Node2 -->
<g id="edge1_Node000001_Node000002" class="edge">
<title>Node1&#45;&gt;Node2</title>
<g id="a_edge1_Node000001_Node000002"><a xlink:title=" ">
<path fill="none" stroke="#63b8ff" d="M465.94,-10C457.82,-10 449.63,-10 442.12,-10"/>
<polygon fill="#63b8ff" stroke="#63b8ff" points="465.78,-13.5 475.78,-10 465.78,-6.5 465.78,-13.5"/>
</a>
</g>
</g>
<!-- Node3 -->
<g id="Node000003" class="node">
<title>Node3</title>
<g id="a_Node000003"><a xlink:href="../../d6/df9/SDL__joystick_8c.html#a45ba5e03bfa4c026cf2616439d98219f" target="_top" xlink:title=" ">
<polygon fill="white" stroke="#666666" points="341,-20 208.75,-20 208.75,0 341,0 341,-20"/>
<text xml:space="preserve" text-anchor="middle" x="274.88" y="-6.5" font-family="Helvetica,sans-Serif" font-size="10.00">SDL_CreateJoystickGUID</text>
</a>
</g>
</g>
<!-- Node2&#45;&gt;Node3 -->
<g id="edge2_Node000002_Node000003" class="edge">
<title>Node2&#45;&gt;Node3</title>
<g id="a_edge2_Node000002_Node000003"><a xlink:title=" ">
<path fill="none" stroke="#63b8ff" d="M365.15,-10C357.55,-10 349.49,-10 341.45,-10"/>
<polygon fill="#63b8ff" stroke="#63b8ff" points="365.12,-13.5 375.12,-10 365.12,-6.5 365.12,-13.5"/>
</a>
</g>
</g>
<!-- Node4 -->
<g id="Node000004" class="node">
<title>Node4</title>
<g id="a_Node000004"><a xlink:href="../../d6/df9/SDL__joystick_8c.html#aabcff6e0958f737963d8797cab849242" target="_top" xlink:title=" ">
<polygon fill="white" stroke="#666666" points="172.75,-20 0,-20 0,0 172.75,0 172.75,-20"/>
<text xml:space="preserve" text-anchor="middle" x="86.38" y="-6.5" font-family="Helvetica,sans-Serif" font-size="10.00">SDL_CreateJoystickGUIDForName</text>
</a>
</g>
</g>
<!-- Node3&#45;&gt;Node4 -->
<g id="edge3_Node000003_Node000004" class="edge">
<title>Node3&#45;&gt;Node4</title>
<g id="a_edge3_Node000003_Node000004"><a xlink:title=" ">
<path fill="none" stroke="#63b8ff" d="M196.95,-10C189.05,-10 180.99,-10 173,-10"/>
<polygon fill="#63b8ff" stroke="#63b8ff" points="196.87,-13.5 206.87,-10 196.87,-6.5 196.87,-13.5"/>
</a>
</g>
</g>
</g>
</svg>
