<?xml version="1.0" encoding="UTF-8" standalone="no"?>
<!DOCTYPE svg PUBLIC "-//W3C//DTD SVG 1.1//EN"
 "http://www.w3.org/Graphics/SVG/1.1/DTD/svg11.dtd">
<!-- Generated by graphviz version 13.1.0 (20250701.0955)
 -->
<!-- Title: ApplyTonemap Pages: 1 -->
<svg width="382pt" height="85pt"
 viewBox="0.00 0.00 382.00 85.00" xmlns="http://www.w3.org/2000/svg" xmlns:xlink="http://www.w3.org/1999/xlink">
<g id="graph0" class="graph" transform="scale(1 1) rotate(0) translate(4 81)">
<title>ApplyTonemap</title>
<!-- Node1 -->
<g id="Node000001" class="node">
<title>Node1</title>
<g id="a_Node000001"><a xlink:title=" ">
<polygon fill="#999999" stroke="#666666" points="80.5,-39 0,-39 0,-19 80.5,-19 80.5,-39"/>
<text xml:space="preserve" text-anchor="middle" x="40.25" y="-25.5" font-family="Helvetica,sans-Serif" font-size="10.00">ApplyTonemap</text>
</a>
</g>
</g>
<!-- Node2 -->
<g id="Node000002" class="node">
<title>Node2</title>
<g id="a_Node000002"><a xlink:href="../../d0/d74/SDL__pixels_8c.html#a4f1d517df7ab06a64b4c30571022de8c" target="_top" xlink:title=" ">
<polygon fill="white" stroke="#666666" points="256.25,-77 116.5,-77 116.5,-57 256.25,-57 256.25,-77"/>
<text xml:space="preserve" text-anchor="middle" x="186.38" y="-63.5" font-family="Helvetica,sans-Serif" font-size="10.00">SDL_ConvertColorPrimaries</text>
</a>
</g>
</g>
<!-- Node1&#45;&gt;Node2 -->
<g id="edge1_Node000001_Node000002" class="edge">
<title>Node1&#45;&gt;Node2</title>
<g id="a_edge1_Node000001_Node000002"><a xlink:title=" ">
<path fill="none" stroke="#63b8ff" d="M80.63,-39.38C97.33,-43.78 116.99,-48.97 134.74,-53.65"/>
<polygon fill="#63b8ff" stroke="#63b8ff" points="133.76,-57.01 144.33,-56.18 135.55,-50.24 133.76,-57.01"/>
</a>
</g>
</g>
<!-- Node3 -->
<g id="Node000003" class="node">
<title>Node3</title>
<g id="a_Node000003"><a xlink:href="../../d7/d52/SDL__blit__slow_8c.html#a053495dc1e4f53da3e87fef7a9bd8da3" target="_top" xlink:title=" ">
<polygon fill="white" stroke="#666666" points="231.5,-39 141.25,-39 141.25,-19 231.5,-19 231.5,-39"/>
<text xml:space="preserve" text-anchor="middle" x="186.38" y="-25.5" font-family="Helvetica,sans-Serif" font-size="10.00">TonemapChrome</text>
</a>
</g>
</g>
<!-- Node1&#45;&gt;Node3 -->
<g id="edge2_Node000001_Node000003" class="edge">
<title>Node1&#45;&gt;Node3</title>
<g id="a_edge2_Node000001_Node000003"><a xlink:title=" ">
<path fill="none" stroke="#63b8ff" d="M80.63,-29C95.8,-29 113.42,-29 129.83,-29"/>
<polygon fill="#63b8ff" stroke="#63b8ff" points="129.44,-32.5 139.44,-29 129.44,-25.5 129.44,-32.5"/>
</a>
</g>
</g>
<!-- Node4 -->
<g id="Node000004" class="node">
<title>Node4</title>
<g id="a_Node000004"><a xlink:href="../../d7/d52/SDL__blit__slow_8c.html#a81bc55db7f027fe352148b2ad28c86f7" target="_top" xlink:title=" ">
<polygon fill="white" stroke="#666666" points="374.25,-20 292.25,-20 292.25,0 374.25,0 374.25,-20"/>
<text xml:space="preserve" text-anchor="middle" x="333.25" y="-6.5" font-family="Helvetica,sans-Serif" font-size="10.00">TonemapLinear</text>
</a>
</g>
</g>
<!-- Node1&#45;&gt;Node4 -->
<g id="edge4_Node000001_Node000004" class="edge">
<title>Node1&#45;&gt;Node4</title>
<g id="a_edge4_Node000001_Node000004"><a xlink:title=" ">
<path fill="none" stroke="#63b8ff" d="M75,-18.59C87.86,-15.12 102.73,-11.71 116.5,-10 172.29,-3.07 236.82,-4.26 280.67,-6.44"/>
<polygon fill="#63b8ff" stroke="#63b8ff" points="280.22,-9.92 290.39,-6.96 280.6,-2.93 280.22,-9.92"/>
</a>
</g>
</g>
<!-- Node3&#45;&gt;Node4 -->
<g id="edge3_Node000003_Node000004" class="edge">
<title>Node3&#45;&gt;Node4</title>
<g id="a_edge3_Node000003_Node000004"><a xlink:title=" ">
<path fill="none" stroke="#63b8ff" d="M231.63,-23.2C247.16,-21.16 264.75,-18.85 280.82,-16.74"/>
<polygon fill="#63b8ff" stroke="#63b8ff" points="281.25,-20.22 290.71,-15.45 280.34,-13.28 281.25,-20.22"/>
</a>
</g>
</g>
</g>
</svg>
