<?xml version="1.0" encoding="UTF-8" standalone="no"?>
<!DOCTYPE svg PUBLIC "-//W3C//DTD SVG 1.1//EN"
 "http://www.w3.org/Graphics/SVG/1.1/DTD/svg11.dtd">
<!-- Generated by graphviz version 13.1.0 (20250701.0955)
 -->
<!-- Title: ReadFloatPixel Pages: 1 -->
<svg width="547pt" height="104pt"
 viewBox="0.00 0.00 547.00 104.00" xmlns="http://www.w3.org/2000/svg" xmlns:xlink="http://www.w3.org/1999/xlink">
<g id="graph0" class="graph" transform="scale(1 1) rotate(0) translate(4 100)">
<title>ReadFloatPixel</title>
<!-- Node1 -->
<g id="Node000001" class="node">
<title>Node1</title>
<g id="a_Node000001"><a xlink:title=" ">
<polygon fill="#999999" stroke="#666666" points="82.75,-58 0,-58 0,-38 82.75,-38 82.75,-58"/>
<text xml:space="preserve" text-anchor="middle" x="41.38" y="-44.5" font-family="Helvetica,sans-Serif" font-size="10.00">ReadFloatPixel</text>
</a>
</g>
</g>
<!-- Node2 -->
<g id="Node000002" class="node">
<title>Node2</title>
<g id="a_Node000002"><a xlink:href="../../d7/d52/SDL__blit__slow_8c.html#af3fe6a2cabe6169b6fdc4cf6bf0b5482" target="_top" xlink:title=" ">
<polygon fill="white" stroke="#666666" points="204.5,-96 135.25,-96 135.25,-76 204.5,-76 204.5,-96"/>
<text xml:space="preserve" text-anchor="middle" x="169.88" y="-82.5" font-family="Helvetica,sans-Serif" font-size="10.00">half_to_float</text>
</a>
</g>
</g>
<!-- Node1&#45;&gt;Node2 -->
<g id="edge1_Node000001_Node000002" class="edge">
<title>Node1&#45;&gt;Node2</title>
<g id="a_edge1_Node000001_Node000002"><a xlink:title=" ">
<path fill="none" stroke="#63b8ff" d="M77.28,-58.48C91.75,-62.83 108.73,-67.93 124.1,-72.55"/>
<polygon fill="#63b8ff" stroke="#63b8ff" points="122.93,-75.85 133.51,-75.38 124.94,-69.15 122.93,-75.85"/>
</a>
</g>
</g>
<!-- Node3 -->
<g id="Node000003" class="node">
<title>Node3</title>
<g id="a_Node000003"><a xlink:href="../../d0/d74/SDL__pixels_8c.html#ad1b14f0e80bf351e189476e8d2c626fd" target="_top" xlink:title=" ">
<polygon fill="white" stroke="#666666" points="210.5,-58 129.25,-58 129.25,-38 210.5,-38 210.5,-58"/>
<text xml:space="preserve" text-anchor="middle" x="169.88" y="-44.5" font-family="Helvetica,sans-Serif" font-size="10.00">SDL_PQtoNits</text>
</a>
</g>
</g>
<!-- Node1&#45;&gt;Node3 -->
<g id="edge2_Node000001_Node000003" class="edge">
<title>Node1&#45;&gt;Node3</title>
<g id="a_edge2_Node000001_Node000003"><a xlink:title=" ">
<path fill="none" stroke="#63b8ff" d="M83.1,-48C94.15,-48 106.25,-48 117.8,-48"/>
<polygon fill="#63b8ff" stroke="#63b8ff" points="117.58,-51.5 127.58,-48 117.58,-44.5 117.58,-51.5"/>
</a>
</g>
</g>
<!-- Node7 -->
<g id="Node000007" class="node">
<title>Node7</title>
<g id="a_Node000007"><a xlink:href="../../d0/d74/SDL__pixels_8c.html#a1ba7592e3ade26a072f69dc911e25c35" target="_top" xlink:title=" ">
<polygon fill="white" stroke="#666666" points="221,-20 118.75,-20 118.75,0 221,0 221,-20"/>
<text xml:space="preserve" text-anchor="middle" x="169.88" y="-6.5" font-family="Helvetica,sans-Serif" font-size="10.00">SDL_sRGBtoLinear</text>
</a>
</g>
</g>
<!-- Node1&#45;&gt;Node7 -->
<g id="edge6_Node000001_Node000007" class="edge">
<title>Node1&#45;&gt;Node7</title>
<g id="a_edge6_Node000001_Node000007"><a xlink:title=" ">
<path fill="none" stroke="#63b8ff" d="M77.28,-37.52C91.52,-33.24 108.18,-28.23 123.35,-23.67"/>
<polygon fill="#63b8ff" stroke="#63b8ff" points="124.07,-27.11 132.64,-20.89 122.05,-20.41 124.07,-27.11"/>
</a>
</g>
</g>
<!-- Node4 -->
<g id="Node000004" class="node">
<title>Node4</title>
<g id="a_Node000004"><a xlink:href="../../d3/d02/SDL__stdlib_8c.html#ae19105f921d6c5e69d8ca7c9e7f88866" target="_top" xlink:title=" ">
<polygon fill="white" stroke="#666666" points="318.75,-39 257,-39 257,-19 318.75,-19 318.75,-39"/>
<text xml:space="preserve" text-anchor="middle" x="287.88" y="-25.5" font-family="Helvetica,sans-Serif" font-size="10.00">SDL_powf</text>
</a>
</g>
</g>
<!-- Node3&#45;&gt;Node4 -->
<g id="edge3_Node000003_Node000004" class="edge">
<title>Node3&#45;&gt;Node4</title>
<g id="a_edge3_Node000003_Node000004"><a xlink:title=" ">
<path fill="none" stroke="#63b8ff" d="M210.8,-41.46C221.98,-39.63 234.17,-37.63 245.44,-35.79"/>
<polygon fill="#63b8ff" stroke="#63b8ff" points="245.98,-39.24 255.28,-34.17 244.85,-32.34 245.98,-39.24"/>
</a>
</g>
</g>
<!-- Node5 -->
<g id="Node000005" class="node">
<title>Node5</title>
<g id="a_Node000005"><a xlink:href="../../d3/d02/SDL__stdlib_8c.html#a5ad148d1a87a4eda6008114e627f61da" target="_top" xlink:title=" ">
<polygon fill="white" stroke="#666666" points="413.5,-39 354.75,-39 354.75,-19 413.5,-19 413.5,-39"/>
<text xml:space="preserve" text-anchor="middle" x="384.12" y="-25.5" font-family="Helvetica,sans-Serif" font-size="10.00">SDL_pow</text>
</a>
</g>
</g>
<!-- Node4&#45;&gt;Node5 -->
<g id="edge4_Node000004_Node000005" class="edge">
<title>Node4&#45;&gt;Node5</title>
<g id="a_edge4_Node000004_Node000005"><a xlink:title=" ">
<path fill="none" stroke="#63b8ff" d="M319.22,-29C326.81,-29 335.07,-29 343.05,-29"/>
<polygon fill="#63b8ff" stroke="#63b8ff" points="342.93,-32.5 352.93,-29 342.93,-25.5 342.93,-32.5"/>
</a>
</g>
</g>
<!-- Node6 -->
<g id="Node000006" class="node">
<title>Node6</title>
<g id="a_Node000006"><a xlink:href="../../de/d5e/e__pow_8c.html#a59c4e50110dd57aa627494f79c8f37d5" target="_top" xlink:title=" ">
<polygon fill="white" stroke="#666666" points="539,-39 449.5,-39 449.5,-19 539,-19 539,-39"/>
<text xml:space="preserve" text-anchor="middle" x="494.25" y="-25.5" font-family="Helvetica,sans-Serif" font-size="10.00">SDL_uclibc_pow</text>
</a>
</g>
</g>
<!-- Node5&#45;&gt;Node6 -->
<g id="edge5_Node000005_Node000006" class="edge">
<title>Node5&#45;&gt;Node6</title>
<g id="a_edge5_Node000005_Node000006"><a xlink:title=" ">
<path fill="none" stroke="#63b8ff" d="M413.82,-29C421.3,-29 429.62,-29 437.99,-29"/>
<polygon fill="#63b8ff" stroke="#63b8ff" points="437.82,-32.5 447.82,-29 437.82,-25.5 437.82,-32.5"/>
</a>
</g>
</g>
<!-- Node7&#45;&gt;Node4 -->
<g id="edge7_Node000007_Node000004" class="edge">
<title>Node7&#45;&gt;Node4</title>
<g id="a_edge7_Node000007_Node000004"><a xlink:title=" ">
<path fill="none" stroke="#63b8ff" d="M221.42,-18.28C229.36,-19.58 237.5,-20.91 245.22,-22.18"/>
<polygon fill="#63b8ff" stroke="#63b8ff" points="244.6,-25.62 255.03,-23.78 245.73,-18.71 244.6,-25.62"/>
</a>
</g>
</g>
</g>
</svg>
