<?xml version="1.0" encoding="UTF-8" standalone="no"?>
<!DOCTYPE svg PUBLIC "-//W3C//DTD SVG 1.1//EN"
 "http://www.w3.org/Graphics/SVG/1.1/DTD/svg11.dtd">
<!-- Generated by graphviz version 13.1.0 (20250701.0955)
 -->
<!-- Title: SDL&#45;main/include/SDL3/SDL_touch.h Pages: 1 -->
<svg width="1262pt" height="488pt"
 viewBox="0.00 0.00 1262.00 488.00" xmlns="http://www.w3.org/2000/svg" xmlns:xlink="http://www.w3.org/1999/xlink">
<g id="graph0" class="graph" transform="scale(1 1) rotate(0) translate(4 484)">
<title>SDL&#45;main/include/SDL3/SDL_touch.h</title>
<!-- Node1 -->
<g id="Node000001" class="node">
<title>Node1</title>
<g id="a_Node000001"><a xlink:title=" ">
<polygon fill="#999999" stroke="#666666" points="1200.5,-480 1079.5,-480 1079.5,-448 1200.5,-448 1200.5,-480"/>
<text xml:space="preserve" text-anchor="start" x="1087.5" y="-466.5" font-family="Helvetica,sans-Serif" font-size="10.00">SDL&#45;main/include/SDL3</text>
<text xml:space="preserve" text-anchor="middle" x="1140" y="-454.5" font-family="Helvetica,sans-Serif" font-size="10.00">/SDL_touch.h</text>
</a>
</g>
</g>
<!-- Node2 -->
<g id="Node000002" class="node">
<title>Node2</title>
<g id="a_Node000002"><a xlink:href="../../d2/d5b/SDL__stdinc_8h.html" target="_top" xlink:title=" ">
<polygon fill="white" stroke="#666666" points="655.5,-76 552.5,-76 552.5,-56 655.5,-56 655.5,-76"/>
<text xml:space="preserve" text-anchor="middle" x="604" y="-62.5" font-family="Helvetica,sans-Serif" font-size="10.00">SDL3/SDL_stdinc.h</text>
</a>
</g>
</g>
<!-- Node1&#45;&gt;Node2 -->
<g id="edge1_Node000001_Node000002" class="edge">
<title>Node1&#45;&gt;Node2</title>
<g id="a_edge1_Node000001_Node000002"><a xlink:title=" ">
<path fill="none" stroke="#63b8ff" d="M1140.79,-447.78C1142.87,-389.46 1141.3,-180.1 1017,-112 958.28,-79.83 767.53,-70.65 667.12,-68.04"/>
<polygon fill="#63b8ff" stroke="#63b8ff" points="667.23,-64.54 657.15,-67.8 667.06,-71.54 667.23,-64.54"/>
</a>
</g>
</g>
<!-- Node8 -->
<g id="Node000008" class="node">
<title>Node8</title>
<g id="a_Node000008"><a xlink:href="../../d8/d5f/SDL__begin__code_8h.html" target="_top" xlink:title=" ">
<polygon fill="white" stroke="#666666" points="975.12,-20 848.88,-20 848.88,0 975.12,0 975.12,-20"/>
<text xml:space="preserve" text-anchor="middle" x="912" y="-6.5" font-family="Helvetica,sans-Serif" font-size="10.00">SDL3/SDL_begin_code.h</text>
</a>
</g>
</g>
<!-- Node1&#45;&gt;Node8 -->
<g id="edge61_Node000001_Node000008" class="edge">
<title>Node1&#45;&gt;Node8</title>
<g id="a_edge61_Node000001_Node000008"><a xlink:title=" ">
<path fill="none" stroke="#63b8ff" d="M1172.06,-447.62C1205.78,-428.94 1254,-394.01 1254,-347 1254,-347 1254,-347 1254,-121 1254,-82.28 1229.98,-74.55 1196,-56 1160.91,-36.84 1058.54,-24.04 986.83,-17.14"/>
<polygon fill="#63b8ff" stroke="#63b8ff" points="987.39,-13.68 977.1,-16.23 986.73,-20.65 987.39,-13.68"/>
</a>
</g>
</g>
<!-- Node9 -->
<g id="Node000009" class="node">
<title>Node9</title>
<g id="a_Node000009"><a xlink:href="../../d9/d73/SDL__close__code_8h.html" target="_top" xlink:title=" ">
<polygon fill="white" stroke="#666666" points="272.12,-20 145.88,-20 145.88,0 272.12,0 272.12,-20"/>
<text xml:space="preserve" text-anchor="middle" x="209" y="-6.5" font-family="Helvetica,sans-Serif" font-size="10.00">SDL3/SDL_close_code.h</text>
</a>
</g>
</g>
<!-- Node1&#45;&gt;Node9 -->
<g id="edge62_Node000001_Node000009" class="edge">
<title>Node1&#45;&gt;Node9</title>
<g id="a_edge62_Node000001_Node000009"><a xlink:title=" ">
<path fill="none" stroke="#63b8ff" d="M1079.11,-463.25C842.88,-463.45 0,-456.48 0,-347 0,-347 0,-347 0,-121 0,-58.37 74.4,-31.32 134.42,-19.68"/>
<polygon fill="#63b8ff" stroke="#63b8ff" points="134.74,-23.18 143.95,-17.96 133.49,-16.3 134.74,-23.18"/>
</a>
</g>
</g>
<!-- Node10 -->
<g id="Node000010" class="node">
<title>Node10</title>
<g id="a_Node000010"><a xlink:href="../../da/d16/SDL__error_8h.html" target="_top" xlink:title=" ">
<polygon fill="white" stroke="#666666" points="884.12,-132 787.88,-132 787.88,-112 884.12,-112 884.12,-132"/>
<text xml:space="preserve" text-anchor="middle" x="836" y="-118.5" font-family="Helvetica,sans-Serif" font-size="10.00">SDL3/SDL_error.h</text>
</a>
</g>
</g>
<!-- Node1&#45;&gt;Node10 -->
<g id="edge9_Node000001_Node000010" class="edge">
<title>Node1&#45;&gt;Node10</title>
<g id="a_edge9_Node000001_Node000010"><a xlink:title=" ">
<path fill="none" stroke="#63b8ff" d="M1126.5,-447.53C1088.02,-403.49 974.38,-273.86 878,-168 869.65,-158.83 860.24,-148.73 852.45,-140.42"/>
<polygon fill="#63b8ff" stroke="#63b8ff" points="855.19,-138.23 845.79,-133.35 850.1,-143.03 855.19,-138.23"/>
</a>
</g>
</g>
<!-- Node11 -->
<g id="Node000011" class="node">
<title>Node11</title>
<g id="a_Node000011"><a xlink:href="../../d9/dc7/SDL__mouse_8h.html" target="_top" xlink:title=" ">
<polygon fill="white" stroke="#666666" points="833,-412 727,-412 727,-392 833,-392 833,-412"/>
<text xml:space="preserve" text-anchor="middle" x="780" y="-398.5" font-family="Helvetica,sans-Serif" font-size="10.00">SDL3/SDL_mouse.h</text>
</a>
</g>
</g>
<!-- Node1&#45;&gt;Node11 -->
<g id="edge13_Node000001_Node000011" class="edge">
<title>Node1&#45;&gt;Node11</title>
<g id="a_edge13_Node000001_Node000011"><a xlink:title=" ">
<path fill="none" stroke="#63b8ff" d="M1079.34,-452.89C1014.18,-442.03 911.04,-424.84 844.45,-413.74"/>
<polygon fill="#63b8ff" stroke="#63b8ff" points="845.2,-410.32 834.76,-412.13 844.05,-417.22 845.2,-410.32"/>
</a>
</g>
</g>
<!-- Node3 -->
<g id="Node000003" class="node">
<title>Node3</title>
<g id="a_Node000003"><a xlink:href="../../d3/d8b/SDL__platform__defines_8h.html" target="_top" xlink:title=" ">
<polygon fill="white" stroke="#666666" points="761.38,-20 612.62,-20 612.62,0 761.38,0 761.38,-20"/>
<text xml:space="preserve" text-anchor="middle" x="687" y="-6.5" font-family="Helvetica,sans-Serif" font-size="10.00">SDL3/SDL_platform_defines.h</text>
</a>
</g>
</g>
<!-- Node2&#45;&gt;Node3 -->
<g id="edge2_Node000002_Node000003" class="edge">
<title>Node2&#45;&gt;Node3</title>
<g id="a_edge2_Node000002_Node000003"><a xlink:title=" ">
<path fill="none" stroke="#63b8ff" d="M618.46,-55.59C630.76,-47.59 648.68,-35.93 663.11,-26.54"/>
<polygon fill="#63b8ff" stroke="#63b8ff" points="664.69,-29.69 671.16,-21.3 660.87,-23.82 664.69,-29.69"/>
</a>
</g>
</g>
<!-- Node4 -->
<g id="Node000004" class="node">
<title>Node4</title>
<g id="a_Node000004"><a xlink:title=" ">
<polygon fill="#e0e0e0" stroke="#999999" points="830.62,-20 779.38,-20 779.38,0 830.62,0 830.62,-20"/>
<text xml:space="preserve" text-anchor="middle" x="805" y="-6.5" font-family="Helvetica,sans-Serif" font-size="10.00">stdarg.h</text>
</a>
</g>
</g>
<!-- Node2&#45;&gt;Node4 -->
<g id="edge3_Node000002_Node000004" class="edge">
<title>Node2&#45;&gt;Node4</title>
<g id="a_edge3_Node000002_Node000004"><a xlink:title=" ">
<path fill="none" stroke="#63b8ff" d="M639.01,-55.59C675.2,-45.87 731.45,-30.76 768.26,-20.87"/>
<polygon fill="#63b8ff" stroke="#63b8ff" points="768.8,-24.35 777.55,-18.37 766.98,-17.59 768.8,-24.35"/>
</a>
</g>
</g>
<!-- Node5 -->
<g id="Node000005" class="node">
<title>Node5</title>
<g id="a_Node000005"><a xlink:title=" ">
<polygon fill="#e0e0e0" stroke="#999999" points="460.12,-20 411.88,-20 411.88,0 460.12,0 460.12,-20"/>
<text xml:space="preserve" text-anchor="middle" x="436" y="-6.5" font-family="Helvetica,sans-Serif" font-size="10.00">stdint.h</text>
</a>
</g>
</g>
<!-- Node2&#45;&gt;Node5 -->
<g id="edge4_Node000002_Node000005" class="edge">
<title>Node2&#45;&gt;Node5</title>
<g id="a_edge4_Node000002_Node000005"><a xlink:title=" ">
<path fill="none" stroke="#63b8ff" d="M574.74,-55.59C545.93,-46.34 501.92,-32.19 471.22,-22.32"/>
<polygon fill="#63b8ff" stroke="#63b8ff" points="472.6,-19.09 462,-19.36 470.45,-25.75 472.6,-19.09"/>
</a>
</g>
</g>
<!-- Node6 -->
<g id="Node000006" class="node">
<title>Node6</title>
<g id="a_Node000006"><a xlink:title=" ">
<polygon fill="#e0e0e0" stroke="#999999" points="526.12,-20 477.88,-20 477.88,0 526.12,0 526.12,-20"/>
<text xml:space="preserve" text-anchor="middle" x="502" y="-6.5" font-family="Helvetica,sans-Serif" font-size="10.00">string.h</text>
</a>
</g>
</g>
<!-- Node2&#45;&gt;Node6 -->
<g id="edge5_Node000002_Node000006" class="edge">
<title>Node2&#45;&gt;Node6</title>
<g id="a_edge5_Node000002_Node000006"><a xlink:title=" ">
<path fill="none" stroke="#63b8ff" d="M586.23,-55.59C570.68,-47.36 547.82,-35.26 529.84,-25.74"/>
<polygon fill="#63b8ff" stroke="#63b8ff" points="531.72,-22.77 521.24,-21.19 528.44,-28.96 531.72,-22.77"/>
</a>
</g>
</g>
<!-- Node7 -->
<g id="Node000007" class="node">
<title>Node7</title>
<g id="a_Node000007"><a xlink:title=" ">
<polygon fill="#e0e0e0" stroke="#999999" points="594.25,-20 543.75,-20 543.75,0 594.25,0 594.25,-20"/>
<text xml:space="preserve" text-anchor="middle" x="569" y="-6.5" font-family="Helvetica,sans-Serif" font-size="10.00">wchar.h</text>
</a>
</g>
</g>
<!-- Node2&#45;&gt;Node7 -->
<g id="edge6_Node000002_Node000007" class="edge">
<title>Node2&#45;&gt;Node7</title>
<g id="a_edge6_Node000002_Node000007"><a xlink:title=" ">
<path fill="none" stroke="#63b8ff" d="M597.9,-55.59C593.29,-48.47 586.79,-38.45 581.13,-29.72"/>
<polygon fill="#63b8ff" stroke="#63b8ff" points="584.23,-28.06 575.85,-21.57 578.35,-31.86 584.23,-28.06"/>
</a>
</g>
</g>
<!-- Node2&#45;&gt;Node8 -->
<g id="edge7_Node000002_Node000008" class="edge">
<title>Node2&#45;&gt;Node8</title>
<g id="a_edge7_Node000002_Node000008"><a xlink:title=" ">
<path fill="none" stroke="#63b8ff" d="M655.9,-55.9C708.54,-46.67 790.14,-32.37 847.04,-22.39"/>
<polygon fill="#63b8ff" stroke="#63b8ff" points="847.34,-25.89 856.58,-20.72 846.13,-19 847.34,-25.89"/>
</a>
</g>
</g>
<!-- Node2&#45;&gt;Node9 -->
<g id="edge8_Node000002_Node000009" class="edge">
<title>Node2&#45;&gt;Node9</title>
<g id="a_edge8_Node000002_Node000009"><a xlink:title=" ">
<path fill="none" stroke="#63b8ff" d="M552.36,-57.94C483.8,-48.57 362.24,-31.95 283.68,-21.21"/>
<polygon fill="#63b8ff" stroke="#63b8ff" points="284.29,-17.76 273.91,-19.87 283.34,-24.7 284.29,-17.76"/>
</a>
</g>
</g>
<!-- Node10&#45;&gt;Node2 -->
<g id="edge10_Node000010_Node000002" class="edge">
<title>Node10&#45;&gt;Node2</title>
<g id="a_edge10_Node000010_Node000002"><a xlink:title=" ">
<path fill="none" stroke="#63b8ff" d="M795.32,-111.53C756.52,-102.5 697.89,-88.85 655.77,-79.05"/>
<polygon fill="#63b8ff" stroke="#63b8ff" points="656.64,-75.66 646.1,-76.8 655.05,-82.48 656.64,-75.66"/>
</a>
</g>
</g>
<!-- Node10&#45;&gt;Node8 -->
<g id="edge11_Node000010_Node000008" class="edge">
<title>Node10&#45;&gt;Node8</title>
<g id="a_edge11_Node000010_Node000008"><a xlink:title=" ">
<path fill="none" stroke="#63b8ff" d="M842.48,-111.62C854.99,-93.52 882.67,-53.45 899.08,-29.7"/>
<polygon fill="#63b8ff" stroke="#63b8ff" points="901.87,-31.82 904.68,-21.6 896.11,-27.84 901.87,-31.82"/>
</a>
</g>
</g>
<!-- Node10&#45;&gt;Node9 -->
<g id="edge12_Node000010_Node000009" class="edge">
<title>Node10&#45;&gt;Node9</title>
<g id="a_edge12_Node000010_Node000009"><a xlink:title=" ">
<path fill="none" stroke="#63b8ff" d="M787.49,-115.46C723.65,-107.91 608.04,-93.33 510,-76 421.22,-60.31 318.8,-37.09 259.23,-23.06"/>
<polygon fill="#63b8ff" stroke="#63b8ff" points="260.27,-19.71 249.73,-20.82 258.66,-26.52 260.27,-19.71"/>
</a>
</g>
</g>
<!-- Node11&#45;&gt;Node2 -->
<g id="edge14_Node000011_Node000002" class="edge">
<title>Node11&#45;&gt;Node2</title>
<g id="a_edge14_Node000011_Node000002"><a xlink:title=" ">
<path fill="none" stroke="#63b8ff" d="M726.54,-400.54C596.83,-398 276,-382.46 276,-291 276,-291 276,-291 276,-233 276,-139.9 363.06,-152.28 447,-112 477.71,-97.26 514.18,-86.44 544.24,-79.11"/>
<polygon fill="#63b8ff" stroke="#63b8ff" points="545.01,-82.53 553.94,-76.82 543.4,-75.71 545.01,-82.53"/>
</a>
</g>
</g>
<!-- Node11&#45;&gt;Node8 -->
<g id="edge59_Node000011_Node000008" class="edge">
<title>Node11&#45;&gt;Node8</title>
<g id="a_edge59_Node000011_Node000008"><a xlink:title=" ">
<path fill="none" stroke="#63b8ff" d="M833.46,-392.27C949.89,-371.75 1216,-316 1216,-235 1216,-235 1216,-235 1216,-121 1216,-85.09 1198.53,-74.9 1168,-56 1138.37,-37.65 1051.28,-25.06 986.87,-17.96"/>
<polygon fill="#63b8ff" stroke="#63b8ff" points="987.35,-14.49 977.04,-16.9 986.61,-21.45 987.35,-14.49"/>
</a>
</g>
</g>
<!-- Node11&#45;&gt;Node9 -->
<g id="edge60_Node000011_Node000009" class="edge">
<title>Node11&#45;&gt;Node9</title>
<g id="a_edge60_Node000011_Node000009"><a xlink:title=" ">
<path fill="none" stroke="#63b8ff" d="M726.64,-398.72C556.5,-390.73 38,-360.67 38,-291 38,-291 38,-291 38,-121 38,-66.36 100.52,-37.58 149.95,-23.36"/>
<polygon fill="#63b8ff" stroke="#63b8ff" points="150.72,-26.78 159.45,-20.78 148.88,-20.03 150.72,-26.78"/>
</a>
</g>
</g>
<!-- Node11&#45;&gt;Node10 -->
<g id="edge15_Node000011_Node000010" class="edge">
<title>Node11&#45;&gt;Node10</title>
<g id="a_edge15_Node000011_Node000010"><a xlink:title=" ">
<path fill="none" stroke="#63b8ff" d="M797.16,-391.66C824.78,-375.25 876,-338.4 876,-291 876,-291 876,-291 876,-233 876,-199.43 859.34,-163.38 847.53,-142.03"/>
<polygon fill="#63b8ff" stroke="#63b8ff" points="850.69,-140.51 842.66,-133.6 844.63,-144.01 850.69,-140.51"/>
</a>
</g>
</g>
<!-- Node12 -->
<g id="Node000012" class="node">
<title>Node12</title>
<g id="a_Node000012"><a xlink:href="../../db/dac/SDL__surface_8h.html" target="_top" xlink:title=" ">
<polygon fill="white" stroke="#666666" points="695.5,-300 586.5,-300 586.5,-280 695.5,-280 695.5,-300"/>
<text xml:space="preserve" text-anchor="middle" x="641" y="-286.5" font-family="Helvetica,sans-Serif" font-size="10.00">SDL3/SDL_surface.h</text>
</a>
</g>
</g>
<!-- Node11&#45;&gt;Node12 -->
<g id="edge16_Node000011_Node000012" class="edge">
<title>Node11&#45;&gt;Node12</title>
<g id="a_edge16_Node000011_Node000012"><a xlink:title=" ">
<path fill="none" stroke="#63b8ff" d="M767.71,-391.8C755.72,-382.78 736.99,-368.59 721,-356 700.31,-339.71 676.98,-320.68 660.88,-307.43"/>
<polygon fill="#63b8ff" stroke="#63b8ff" points="663.42,-304.99 653.47,-301.33 658.96,-310.39 663.42,-304.99"/>
</a>
</g>
</g>
<!-- Node19 -->
<g id="Node000019" class="node">
<title>Node19</title>
<g id="a_Node000019"><a xlink:href="../../d3/d91/SDL__video_8h.html" target="_top" xlink:title=" ">
<polygon fill="white" stroke="#666666" points="830,-356 730,-356 730,-336 830,-336 830,-356"/>
<text xml:space="preserve" text-anchor="middle" x="780" y="-342.5" font-family="Helvetica,sans-Serif" font-size="10.00">SDL3/SDL_video.h</text>
</a>
</g>
</g>
<!-- Node11&#45;&gt;Node19 -->
<g id="edge50_Node000011_Node000019" class="edge">
<title>Node11&#45;&gt;Node19</title>
<g id="a_edge50_Node000011_Node000019"><a xlink:title=" ">
<path fill="none" stroke="#63b8ff" d="M780,-391.59C780,-385.01 780,-375.96 780,-367.73"/>
<polygon fill="#63b8ff" stroke="#63b8ff" points="783.5,-367.81 780,-357.81 776.5,-367.81 783.5,-367.81"/>
</a>
</g>
</g>
<!-- Node12&#45;&gt;Node2 -->
<g id="edge17_Node000012_Node000002" class="edge">
<title>Node12&#45;&gt;Node2</title>
<g id="a_edge17_Node000012_Node000002"><a xlink:title=" ">
<path fill="none" stroke="#63b8ff" d="M586.27,-281.86C534.23,-271.58 460.77,-246.84 439,-188 426.22,-153.46 443.45,-135.25 472,-112 491.77,-95.9 517.62,-85.43 541.19,-78.68"/>
<polygon fill="#63b8ff" stroke="#63b8ff" points="541.97,-82.1 550.73,-76.14 540.16,-75.33 541.97,-82.1"/>
</a>
</g>
</g>
<!-- Node12&#45;&gt;Node8 -->
<g id="edge48_Node000012_Node000008" class="edge">
<title>Node12&#45;&gt;Node8</title>
<g id="a_edge48_Node000012_Node000008"><a xlink:title=" ">
<path fill="none" stroke="#63b8ff" d="M695.77,-283.55C795.98,-272.33 1002.47,-242.96 1045,-188 1090.88,-128.7 989.63,-57.01 938.82,-26.23"/>
<polygon fill="#63b8ff" stroke="#63b8ff" points="940.79,-23.33 930.4,-21.25 937.22,-29.36 940.79,-23.33"/>
</a>
</g>
</g>
<!-- Node12&#45;&gt;Node9 -->
<g id="edge49_Node000012_Node000009" class="edge">
<title>Node12&#45;&gt;Node9</title>
<g id="a_edge49_Node000012_Node000009"><a xlink:title=" ">
<path fill="none" stroke="#63b8ff" d="M586.09,-289.04C451.12,-287.68 114,-274.68 114,-179 114,-179 114,-179 114,-121 114,-78.97 154.21,-45.07 182.31,-26.51"/>
<polygon fill="#63b8ff" stroke="#63b8ff" points="184.15,-29.49 190.74,-21.19 180.41,-23.57 184.15,-29.49"/>
</a>
</g>
</g>
<!-- Node12&#45;&gt;Node10 -->
<g id="edge18_Node000012_Node000010" class="edge">
<title>Node12&#45;&gt;Node10</title>
<g id="a_edge18_Node000012_Node000010"><a xlink:title=" ">
<path fill="none" stroke="#63b8ff" d="M652.04,-279.6C683.82,-252.55 775.79,-174.26 816.37,-139.71"/>
<polygon fill="#63b8ff" stroke="#63b8ff" points="818.58,-142.43 823.93,-133.28 814.04,-137.1 818.58,-142.43"/>
</a>
</g>
</g>
<!-- Node13 -->
<g id="Node000013" class="node">
<title>Node13</title>
<g id="a_Node000013"><a xlink:href="../../d0/dad/SDL__blendmode_8h.html" target="_top" xlink:title=" ">
<polygon fill="white" stroke="#666666" points="380,-132 256,-132 256,-112 380,-112 380,-132"/>
<text xml:space="preserve" text-anchor="middle" x="318" y="-118.5" font-family="Helvetica,sans-Serif" font-size="10.00">SDL3/SDL_blendmode.h</text>
</a>
</g>
</g>
<!-- Node12&#45;&gt;Node13 -->
<g id="edge19_Node000012_Node000013" class="edge">
<title>Node12&#45;&gt;Node13</title>
<g id="a_edge19_Node000012_Node000013"><a xlink:title=" ">
<path fill="none" stroke="#63b8ff" d="M586.25,-285.58C518.56,-280.38 408.32,-268.37 376,-244 343.09,-219.19 327.97,-170.89 321.76,-143.41"/>
<polygon fill="#63b8ff" stroke="#63b8ff" points="325.25,-142.98 319.81,-133.89 318.39,-144.39 325.25,-142.98"/>
</a>
</g>
</g>
<!-- Node14 -->
<g id="Node000014" class="node">
<title>Node14</title>
<g id="a_Node000014"><a xlink:href="../../d9/d3f/SDL__pixels_8h.html" target="_top" xlink:title=" ">
<polygon fill="white" stroke="#666666" points="696.12,-188 593.88,-188 593.88,-168 696.12,-168 696.12,-188"/>
<text xml:space="preserve" text-anchor="middle" x="645" y="-174.5" font-family="Helvetica,sans-Serif" font-size="10.00">SDL3/SDL_pixels.h</text>
</a>
</g>
</g>
<!-- Node12&#45;&gt;Node14 -->
<g id="edge23_Node000012_Node000014" class="edge">
<title>Node12&#45;&gt;Node14</title>
<g id="a_edge23_Node000012_Node000014"><a xlink:title=" ">
<path fill="none" stroke="#63b8ff" d="M641.34,-279.62C641.98,-262.01 643.38,-223.59 644.25,-199.65"/>
<polygon fill="#63b8ff" stroke="#63b8ff" points="647.74,-199.99 644.6,-189.87 640.74,-199.73 647.74,-199.99"/>
</a>
</g>
</g>
<!-- Node16 -->
<g id="Node000016" class="node">
<title>Node16</title>
<g id="a_Node000016"><a xlink:href="../../d6/d40/SDL__properties_8h.html" target="_top" xlink:title=" ">
<polygon fill="white" stroke="#666666" points="575.75,-188 456.25,-188 456.25,-168 575.75,-168 575.75,-188"/>
<text xml:space="preserve" text-anchor="middle" x="516" y="-174.5" font-family="Helvetica,sans-Serif" font-size="10.00">SDL3/SDL_properties.h</text>
</a>
</g>
</g>
<!-- Node12&#45;&gt;Node16 -->
<g id="edge32_Node000012_Node000016" class="edge">
<title>Node12&#45;&gt;Node16</title>
<g id="a_edge32_Node000012_Node000016"><a xlink:title=" ">
<path fill="none" stroke="#63b8ff" d="M586.06,-287.22C554.26,-283.02 516.56,-271.91 496,-244 485.96,-230.37 493.45,-211.6 501.97,-197.74"/>
<polygon fill="#63b8ff" stroke="#63b8ff" points="504.84,-199.75 507.57,-189.51 499.05,-195.81 504.84,-199.75"/>
</a>
</g>
</g>
<!-- Node17 -->
<g id="Node000017" class="node">
<title>Node17</title>
<g id="a_Node000017"><a xlink:href="../../d0/d18/SDL__rect_8h.html" target="_top" xlink:title=" ">
<polygon fill="white" stroke="#666666" points="1035.62,-188 942.38,-188 942.38,-168 1035.62,-168 1035.62,-188"/>
<text xml:space="preserve" text-anchor="middle" x="989" y="-174.5" font-family="Helvetica,sans-Serif" font-size="10.00">SDL3/SDL_rect.h</text>
</a>
</g>
</g>
<!-- Node12&#45;&gt;Node17 -->
<g id="edge37_Node000012_Node000017" class="edge">
<title>Node12&#45;&gt;Node17</title>
<g id="a_edge37_Node000012_Node000017"><a xlink:title=" ">
<path fill="none" stroke="#63b8ff" d="M670.97,-279.53C733.41,-259.79 877.5,-214.24 948.27,-191.87"/>
<polygon fill="#63b8ff" stroke="#63b8ff" points="949.05,-195.3 957.53,-188.95 946.94,-188.62 949.05,-195.3"/>
</a>
</g>
</g>
<!-- Node18 -->
<g id="Node000018" class="node">
<title>Node18</title>
<g id="a_Node000018"><a xlink:href="../../d8/d35/SDL__iostream_8h.html" target="_top" xlink:title=" ">
<polygon fill="white" stroke="#666666" points="619.12,-244 504.88,-244 504.88,-224 619.12,-224 619.12,-244"/>
<text xml:space="preserve" text-anchor="middle" x="562" y="-230.5" font-family="Helvetica,sans-Serif" font-size="10.00">SDL3/SDL_iostream.h</text>
</a>
</g>
</g>
<!-- Node12&#45;&gt;Node18 -->
<g id="edge42_Node000012_Node000018" class="edge">
<title>Node12&#45;&gt;Node18</title>
<g id="a_edge42_Node000012_Node000018"><a xlink:title=" ">
<path fill="none" stroke="#63b8ff" d="M627.24,-279.59C615.64,-271.67 598.8,-260.16 585.14,-250.82"/>
<polygon fill="#63b8ff" stroke="#63b8ff" points="587.35,-248.09 577.12,-245.33 583.4,-253.87 587.35,-248.09"/>
</a>
</g>
</g>
<!-- Node13&#45;&gt;Node2 -->
<g id="edge20_Node000013_Node000002" class="edge">
<title>Node13&#45;&gt;Node2</title>
<g id="a_edge20_Node000013_Node000002"><a xlink:title=" ">
<path fill="none" stroke="#63b8ff" d="M368.14,-111.53C416.8,-102.35 490.72,-88.39 542.82,-78.55"/>
<polygon fill="#63b8ff" stroke="#63b8ff" points="543.25,-82.03 552.43,-76.74 541.95,-75.15 543.25,-82.03"/>
</a>
</g>
</g>
<!-- Node13&#45;&gt;Node8 -->
<g id="edge21_Node000013_Node000008" class="edge">
<title>Node13&#45;&gt;Node8</title>
<g id="a_edge21_Node000013_Node000008"><a xlink:title=" ">
<path fill="none" stroke="#63b8ff" d="M345.36,-111.55C387.36,-97.39 470.49,-70.77 543,-56 669.73,-30.19 706.06,-35.9 837.12,-20.33"/>
<polygon fill="#63b8ff" stroke="#63b8ff" points="837.39,-23.82 846.9,-19.15 836.55,-16.87 837.39,-23.82"/>
</a>
</g>
</g>
<!-- Node13&#45;&gt;Node9 -->
<g id="edge22_Node000013_Node000009" class="edge">
<title>Node13&#45;&gt;Node9</title>
<g id="a_edge22_Node000013_Node000009"><a xlink:title=" ">
<path fill="none" stroke="#63b8ff" d="M308.71,-111.62C290.45,-93.19 249.64,-52.01 226.28,-28.44"/>
<polygon fill="#63b8ff" stroke="#63b8ff" points="228.86,-26.07 219.34,-21.43 223.89,-31 228.86,-26.07"/>
</a>
</g>
</g>
<!-- Node14&#45;&gt;Node2 -->
<g id="edge24_Node000014_Node000002" class="edge">
<title>Node14&#45;&gt;Node2</title>
<g id="a_edge24_Node000014_Node000002"><a xlink:title=" ">
<path fill="none" stroke="#63b8ff" d="M620.9,-167.6C605.89,-160.33 587.81,-148.68 579,-132 570.99,-116.84 579.53,-98.52 588.74,-85.2"/>
<polygon fill="#63b8ff" stroke="#63b8ff" points="591.46,-87.41 594.73,-77.33 585.89,-83.17 591.46,-87.41"/>
</a>
</g>
</g>
<!-- Node14&#45;&gt;Node8 -->
<g id="edge30_Node000014_Node000008" class="edge">
<title>Node14&#45;&gt;Node8</title>
<g id="a_edge30_Node000014_Node000008"><a xlink:title=" ">
<path fill="none" stroke="#63b8ff" d="M666.05,-167.64C684.78,-159.06 712.74,-145.65 736,-132 793.96,-97.98 858.07,-51.48 890.57,-27.22"/>
<polygon fill="#63b8ff" stroke="#63b8ff" points="892.49,-30.16 898.39,-21.36 888.29,-24.56 892.49,-30.16"/>
</a>
</g>
</g>
<!-- Node14&#45;&gt;Node9 -->
<g id="edge31_Node000014_Node000009" class="edge">
<title>Node14&#45;&gt;Node9</title>
<g id="a_edge31_Node000014_Node000009"><a xlink:title=" ">
<path fill="none" stroke="#63b8ff" d="M593.63,-169.15C590.71,-168.75 587.82,-168.36 585,-168 510.08,-158.4 305.43,-179.87 247,-132 217,-107.43 210.29,-59.4 209.03,-31.82"/>
<polygon fill="#63b8ff" stroke="#63b8ff" points="212.53,-31.86 208.8,-21.94 205.53,-32.02 212.53,-31.86"/>
</a>
</g>
</g>
<!-- Node14&#45;&gt;Node10 -->
<g id="edge25_Node000014_Node000010" class="edge">
<title>Node14&#45;&gt;Node10</title>
<g id="a_edge25_Node000014_Node000010"><a xlink:title=" ">
<path fill="none" stroke="#63b8ff" d="M678.27,-167.59C709.71,-158.71 757.09,-145.31 791.71,-135.52"/>
<polygon fill="#63b8ff" stroke="#63b8ff" points="792.34,-138.98 801.01,-132.89 790.44,-132.24 792.34,-138.98"/>
</a>
</g>
</g>
<!-- Node15 -->
<g id="Node000015" class="node">
<title>Node15</title>
<g id="a_Node000015"><a xlink:href="../../d6/de1/SDL__endian_8h.html" target="_top" xlink:title=" ">
<polygon fill="white" stroke="#666666" points="693.62,-132 588.38,-132 588.38,-112 693.62,-112 693.62,-132"/>
<text xml:space="preserve" text-anchor="middle" x="641" y="-118.5" font-family="Helvetica,sans-Serif" font-size="10.00">SDL3/SDL_endian.h</text>
</a>
</g>
</g>
<!-- Node14&#45;&gt;Node15 -->
<g id="edge26_Node000014_Node000015" class="edge">
<title>Node14&#45;&gt;Node15</title>
<g id="a_edge26_Node000014_Node000015"><a xlink:title=" ">
<path fill="none" stroke="#63b8ff" d="M644.3,-167.59C643.82,-161.01 643.15,-151.96 642.54,-143.73"/>
<polygon fill="#63b8ff" stroke="#63b8ff" points="646.03,-143.52 641.8,-133.81 639.05,-144.04 646.03,-143.52"/>
</a>
</g>
</g>
<!-- Node15&#45;&gt;Node2 -->
<g id="edge27_Node000015_Node000002" class="edge">
<title>Node15&#45;&gt;Node2</title>
<g id="a_edge27_Node000015_Node000002"><a xlink:title=" ">
<path fill="none" stroke="#63b8ff" d="M634.56,-111.59C629.67,-104.47 622.81,-94.45 616.82,-85.72"/>
<polygon fill="#63b8ff" stroke="#63b8ff" points="619.77,-83.82 611.23,-77.55 613.99,-87.77 619.77,-83.82"/>
</a>
</g>
</g>
<!-- Node15&#45;&gt;Node8 -->
<g id="edge28_Node000015_Node000008" class="edge">
<title>Node15&#45;&gt;Node8</title>
<g id="a_edge28_Node000015_Node000008"><a xlink:title=" ">
<path fill="none" stroke="#63b8ff" d="M647.69,-111.82C658.62,-97.53 681.74,-70.13 708,-56 730.81,-43.72 791.7,-31.13 841.06,-22.4"/>
<polygon fill="#63b8ff" stroke="#63b8ff" points="841.62,-25.86 850.87,-20.7 840.42,-18.96 841.62,-25.86"/>
</a>
</g>
</g>
<!-- Node15&#45;&gt;Node9 -->
<g id="edge29_Node000015_Node000009" class="edge">
<title>Node15&#45;&gt;Node9</title>
<g id="a_edge29_Node000015_Node000009"><a xlink:title=" ">
<path fill="none" stroke="#63b8ff" d="M587.88,-112.19C541.63,-104.12 472.95,-91.14 414,-76 354.67,-60.76 287.18,-38.36 246.36,-24.23"/>
<polygon fill="#63b8ff" stroke="#63b8ff" points="247.61,-20.96 237.02,-20.98 245.31,-27.57 247.61,-20.96"/>
</a>
</g>
</g>
<!-- Node16&#45;&gt;Node2 -->
<g id="edge33_Node000016_Node000002" class="edge">
<title>Node16&#45;&gt;Node2</title>
<g id="a_edge33_Node000016_Node000002"><a xlink:title=" ">
<path fill="none" stroke="#63b8ff" d="M523.5,-167.62C538.12,-149.36 570.61,-108.73 589.55,-85.07"/>
<polygon fill="#63b8ff" stroke="#63b8ff" points="592.06,-87.53 595.57,-77.54 586.59,-83.16 592.06,-87.53"/>
</a>
</g>
</g>
<!-- Node16&#45;&gt;Node8 -->
<g id="edge35_Node000016_Node000008" class="edge">
<title>Node16&#45;&gt;Node8</title>
<g id="a_edge35_Node000016_Node000008"><a xlink:title=" ">
<path fill="none" stroke="#63b8ff" d="M576.19,-167.89C613.69,-160.92 662.35,-149.48 703,-132 717.24,-125.88 806.51,-63.64 820,-56 839.69,-44.84 862.55,-33.65 880.55,-25.22"/>
<polygon fill="#63b8ff" stroke="#63b8ff" points="881.82,-28.49 889.43,-21.12 878.88,-22.14 881.82,-28.49"/>
</a>
</g>
</g>
<!-- Node16&#45;&gt;Node9 -->
<g id="edge36_Node000016_Node000009" class="edge">
<title>Node16&#45;&gt;Node9</title>
<g id="a_edge36_Node000016_Node000009"><a xlink:title=" ">
<path fill="none" stroke="#63b8ff" d="M455.82,-172.12C372.37,-164.74 229.92,-149.72 214,-132 189.37,-104.6 196.12,-58.01 202.83,-31.34"/>
<polygon fill="#63b8ff" stroke="#63b8ff" points="206.18,-32.36 205.48,-21.79 199.43,-30.49 206.18,-32.36"/>
</a>
</g>
</g>
<!-- Node16&#45;&gt;Node10 -->
<g id="edge34_Node000016_Node000010" class="edge">
<title>Node16&#45;&gt;Node10</title>
<g id="a_edge34_Node000016_Node000010"><a xlink:title=" ">
<path fill="none" stroke="#63b8ff" d="M572.11,-167.53C629.33,-157.88 717.78,-142.95 776.27,-133.08"/>
<polygon fill="#63b8ff" stroke="#63b8ff" points="776.78,-136.54 786.06,-131.43 775.62,-129.64 776.78,-136.54"/>
</a>
</g>
</g>
<!-- Node17&#45;&gt;Node2 -->
<g id="edge38_Node000017_Node000002" class="edge">
<title>Node17&#45;&gt;Node2</title>
<g id="a_edge38_Node000017_Node000002"><a xlink:title=" ">
<path fill="none" stroke="#63b8ff" d="M988.34,-167.72C986.77,-153.29 981.52,-125.71 964,-112 919.11,-76.87 757.72,-68.92 667.02,-67.28"/>
<polygon fill="#63b8ff" stroke="#63b8ff" points="667.35,-63.78 657.3,-67.12 667.24,-70.78 667.35,-63.78"/>
</a>
</g>
</g>
<!-- Node17&#45;&gt;Node8 -->
<g id="edge40_Node000017_Node000008" class="edge">
<title>Node17&#45;&gt;Node8</title>
<g id="a_edge40_Node000017_Node000008"><a xlink:title=" ">
<path fill="none" stroke="#63b8ff" d="M990,-167.85C991.07,-154.97 991.78,-130.95 985,-112 973.22,-79.09 947.24,-47.49 929.67,-28.66"/>
<polygon fill="#63b8ff" stroke="#63b8ff" points="932.32,-26.36 922.86,-21.58 927.27,-31.21 932.32,-26.36"/>
</a>
</g>
</g>
<!-- Node17&#45;&gt;Node9 -->
<g id="edge41_Node000017_Node000009" class="edge">
<title>Node17&#45;&gt;Node9</title>
<g id="a_edge41_Node000017_Node000009"><a xlink:title=" ">
<path fill="none" stroke="#63b8ff" d="M979.02,-167.71C962.54,-153 927.99,-124.73 893,-112 746.04,-58.55 696.49,-105.89 543,-76 511.66,-69.9 505.12,-63.13 474,-56 410.3,-41.41 336.99,-29.32 283.65,-21.35"/>
<polygon fill="#63b8ff" stroke="#63b8ff" points="284.48,-17.94 274.08,-19.94 283.46,-24.86 284.48,-17.94"/>
</a>
</g>
</g>
<!-- Node17&#45;&gt;Node10 -->
<g id="edge39_Node000017_Node000010" class="edge">
<title>Node17&#45;&gt;Node10</title>
<g id="a_edge39_Node000017_Node000010"><a xlink:title=" ">
<path fill="none" stroke="#63b8ff" d="M962.35,-167.59C937.82,-158.94 901.17,-146 873.66,-136.29"/>
<polygon fill="#63b8ff" stroke="#63b8ff" points="874.88,-133.01 864.29,-132.98 872.55,-139.61 874.88,-133.01"/>
</a>
</g>
</g>
<!-- Node18&#45;&gt;Node2 -->
<g id="edge43_Node000018_Node000002" class="edge">
<title>Node18&#45;&gt;Node2</title>
<g id="a_edge43_Node000018_Node000002"><a xlink:title=" ">
<path fill="none" stroke="#63b8ff" d="M507.66,-223.59C470.62,-214.4 430.96,-197.39 447,-168 471.45,-123.2 525.21,-95.3 562.99,-80.46"/>
<polygon fill="#63b8ff" stroke="#63b8ff" points="564.12,-83.78 572.24,-76.98 561.65,-77.23 564.12,-83.78"/>
</a>
</g>
</g>
<!-- Node18&#45;&gt;Node8 -->
<g id="edge46_Node000018_Node000008" class="edge">
<title>Node18&#45;&gt;Node8</title>
<g id="a_edge46_Node000018_Node000008"><a xlink:title=" ">
<path fill="none" stroke="#63b8ff" d="M619.42,-233.5C694.97,-230.75 825.96,-213.58 893,-132 916.44,-103.48 916.82,-58 914.65,-31.68"/>
<polygon fill="#63b8ff" stroke="#63b8ff" points="918.15,-31.53 913.62,-21.96 911.19,-32.27 918.15,-31.53"/>
</a>
</g>
</g>
<!-- Node18&#45;&gt;Node9 -->
<g id="edge47_Node000018_Node000009" class="edge">
<title>Node18&#45;&gt;Node9</title>
<g id="a_edge47_Node000018_Node000009"><a xlink:title=" ">
<path fill="none" stroke="#63b8ff" d="M504.74,-225.1C412.44,-211.12 237.14,-178.99 198,-132 174.13,-103.34 188.48,-56.54 199.64,-30.34"/>
<polygon fill="#63b8ff" stroke="#63b8ff" points="202.68,-32.11 203.63,-21.56 196.31,-29.22 202.68,-32.11"/>
</a>
</g>
</g>
<!-- Node18&#45;&gt;Node10 -->
<g id="edge44_Node000018_Node000010" class="edge">
<title>Node18&#45;&gt;Node10</title>
<g id="a_edge44_Node000018_Node000010"><a xlink:title=" ">
<path fill="none" stroke="#63b8ff" d="M597.21,-223.58C626.49,-215.35 669.03,-202.48 705,-188 724.89,-179.99 775.56,-154.26 807.74,-137.67"/>
<polygon fill="#63b8ff" stroke="#63b8ff" points="809.25,-140.83 816.52,-133.13 806.03,-134.61 809.25,-140.83"/>
</a>
</g>
</g>
<!-- Node18&#45;&gt;Node16 -->
<g id="edge45_Node000018_Node000016" class="edge">
<title>Node18&#45;&gt;Node16</title>
<g id="a_edge45_Node000018_Node000016"><a xlink:title=" ">
<path fill="none" stroke="#63b8ff" d="M553.99,-223.59C547.72,-216.24 538.83,-205.8 531.22,-196.87"/>
<polygon fill="#63b8ff" stroke="#63b8ff" points="534.05,-194.79 524.9,-189.45 528.72,-199.33 534.05,-194.79"/>
</a>
</g>
</g>
<!-- Node19&#45;&gt;Node2 -->
<g id="edge51_Node000019_Node000002" class="edge">
<title>Node19&#45;&gt;Node2</title>
<g id="a_edge51_Node000019_Node000002"><a xlink:title=" ">
<path fill="none" stroke="#63b8ff" d="M829.69,-335.54C917.55,-316.14 1087.28,-265.3 1045,-168 1030.46,-134.55 1018.09,-127.35 985,-112 929.97,-86.48 760.36,-74.49 667.08,-69.7"/>
<polygon fill="#63b8ff" stroke="#63b8ff" points="667.5,-66.22 657.34,-69.22 667.15,-73.21 667.5,-66.22"/>
</a>
</g>
</g>
<!-- Node19&#45;&gt;Node8 -->
<g id="edge57_Node000019_Node000008" class="edge">
<title>Node19&#45;&gt;Node8</title>
<g id="a_edge57_Node000019_Node000008"><a xlink:title=" ">
<path fill="none" stroke="#63b8ff" d="M830.38,-338.55C872.11,-332.1 932.41,-320.16 982,-300 1076.84,-261.44 1178,-281.37 1178,-179 1178,-179 1178,-179 1178,-121 1178,-37.76 1065.4,-16.27 986.72,-11.42"/>
<polygon fill="#63b8ff" stroke="#63b8ff" points="987.06,-7.93 976.89,-10.9 986.69,-14.92 987.06,-7.93"/>
</a>
</g>
</g>
<!-- Node19&#45;&gt;Node9 -->
<g id="edge58_Node000019_Node000009" class="edge">
<title>Node19&#45;&gt;Node9</title>
<g id="a_edge58_Node000019_Node000009"><a xlink:title=" ">
<path fill="none" stroke="#63b8ff" d="M729.65,-343.92C568.52,-339.12 76,-313.44 76,-179 76,-179 76,-179 76,-121 76,-72.11 130.03,-40.86 169.21,-24.62"/>
<polygon fill="#63b8ff" stroke="#63b8ff" points="170.39,-27.92 178.4,-20.99 167.82,-21.41 170.39,-27.92"/>
</a>
</g>
</g>
<!-- Node19&#45;&gt;Node10 -->
<g id="edge52_Node000019_Node000010" class="edge">
<title>Node19&#45;&gt;Node10</title>
<g id="a_edge52_Node000019_Node000010"><a xlink:title=" ">
<path fill="none" stroke="#63b8ff" d="M782.33,-335.74C790.68,-302.67 819.14,-189.83 830.88,-143.31"/>
<polygon fill="#63b8ff" stroke="#63b8ff" points="834.23,-144.32 833.28,-133.76 827.45,-142.6 834.23,-144.32"/>
</a>
</g>
</g>
<!-- Node19&#45;&gt;Node12 -->
<g id="edge56_Node000019_Node000012" class="edge">
<title>Node19&#45;&gt;Node12</title>
<g id="a_edge56_Node000019_Node000012"><a xlink:title=" ">
<path fill="none" stroke="#63b8ff" d="M755.79,-335.59C733.7,-327.01 700.8,-314.23 675.88,-304.55"/>
<polygon fill="#63b8ff" stroke="#63b8ff" points="677.4,-301.39 666.81,-301.03 674.87,-307.91 677.4,-301.39"/>
</a>
</g>
</g>
<!-- Node19&#45;&gt;Node14 -->
<g id="edge53_Node000019_Node000014" class="edge">
<title>Node19&#45;&gt;Node14</title>
<g id="a_edge53_Node000019_Node000014"><a xlink:title=" ">
<path fill="none" stroke="#63b8ff" d="M779.17,-335.6C776.75,-313.49 767.86,-257.56 738,-224 725.26,-209.68 706.96,-199.48 689.96,-192.45"/>
<polygon fill="#63b8ff" stroke="#63b8ff" points="691.6,-189.33 681.01,-189.02 689.09,-195.87 691.6,-189.33"/>
</a>
</g>
</g>
<!-- Node19&#45;&gt;Node16 -->
<g id="edge54_Node000019_Node000016" class="edge">
<title>Node19&#45;&gt;Node16</title>
<g id="a_edge54_Node000019_Node000016"><a xlink:title=" ">
<path fill="none" stroke="#63b8ff" d="M769.87,-335.93C755.49,-323.14 728.2,-299.22 704,-280 671.15,-253.9 664.65,-244.43 628,-224 604.98,-211.17 577.55,-200.09 555.6,-192.13"/>
<polygon fill="#63b8ff" stroke="#63b8ff" points="557.01,-188.92 546.42,-188.88 554.67,-195.51 557.01,-188.92"/>
</a>
</g>
</g>
<!-- Node19&#45;&gt;Node17 -->
<g id="edge55_Node000019_Node000017" class="edge">
<title>Node19&#45;&gt;Node17</title>
<g id="a_edge55_Node000019_Node000017"><a xlink:title=" ">
<path fill="none" stroke="#63b8ff" d="M791.84,-335.6C826.04,-308.44 925.3,-229.6 968.51,-195.28"/>
<polygon fill="#63b8ff" stroke="#63b8ff" points="970.46,-198.2 976.11,-189.24 966.1,-192.72 970.46,-198.2"/>
</a>
</g>
</g>
</g>
</svg>
