<?xml version="1.0" encoding="UTF-8" standalone="no"?>
<!DOCTYPE svg PUBLIC "-//W3C//DTD SVG 1.1//EN"
 "http://www.w3.org/Graphics/SVG/1.1/DTD/svg11.dtd">
<!-- Generated by graphviz version 13.1.0 (20250701.0955)
 -->
<!-- Title: SDL_SteamVirtualGamepadEnabled Pages: 1 -->
<svg width="511pt" height="28pt"
 viewBox="0.00 0.00 511.00 28.00" xmlns="http://www.w3.org/2000/svg" xmlns:xlink="http://www.w3.org/1999/xlink">
<g id="graph0" class="graph" transform="scale(1 1) rotate(0) translate(4 24)">
<title>SDL_SteamVirtualGamepadEnabled</title>
<!-- Node1 -->
<g id="Node000001" class="node">
<title>Node1</title>
<g id="a_Node000001"><a xlink:title=" ">
<polygon fill="#999999" stroke="#666666" points="174.25,-20 0,-20 0,0 174.25,0 174.25,-20"/>
<text xml:space="preserve" text-anchor="middle" x="87.12" y="-6.5" font-family="Helvetica,sans-Serif" font-size="10.00">SDL_SteamVirtualGamepadEnabled</text>
</a>
</g>
</g>
<!-- Node2 -->
<g id="Node000002" class="node">
<title>Node2</title>
<g id="a_Node000002"><a xlink:href="../../d6/df9/SDL__joystick_8c.html#a3444cbed488af750d2a3512e3da2f2e6" target="_top" xlink:title=" ">
<polygon fill="white" stroke="#666666" points="353,-20 210.25,-20 210.25,0 353,0 353,-20"/>
<text xml:space="preserve" text-anchor="middle" x="281.62" y="-6.5" font-family="Helvetica,sans-Serif" font-size="10.00">SDL_AssertJoysticksLocked</text>
</a>
</g>
</g>
<!-- Node1&#45;&gt;Node2 -->
<g id="edge1_Node000001_Node000002" class="edge">
<title>Node1&#45;&gt;Node2</title>
<g id="a_edge1_Node000001_Node000002"><a xlink:title=" ">
<path fill="none" stroke="#63b8ff" d="M174.52,-10C182.45,-10 190.46,-10 198.35,-10"/>
<polygon fill="#63b8ff" stroke="#63b8ff" points="198.27,-13.5 208.27,-10 198.27,-6.5 198.27,-13.5"/>
</a>
</g>
</g>
<!-- Node3 -->
<g id="Node000003" class="node">
<title>Node3</title>
<g id="a_Node000003"><a xlink:href="../../d6/df9/SDL__joystick_8c.html#aafbb2f9f58c8c2ac2dfe1bf8eb5723a7" target="_top" xlink:title=" ">
<polygon fill="white" stroke="#666666" points="503.25,-20 389,-20 389,0 503.25,0 503.25,-20"/>
<text xml:space="preserve" text-anchor="middle" x="446.12" y="-6.5" font-family="Helvetica,sans-Serif" font-size="10.00">SDL_JoysticksLocked</text>
</a>
</g>
</g>
<!-- Node2&#45;&gt;Node3 -->
<g id="edge2_Node000002_Node000003" class="edge">
<title>Node2&#45;&gt;Node3</title>
<g id="a_edge2_Node000002_Node000003"><a xlink:title=" ">
<path fill="none" stroke="#63b8ff" d="M353.43,-10C361.36,-10 369.42,-10 377.31,-10"/>
<polygon fill="#63b8ff" stroke="#63b8ff" points="377.2,-13.5 387.2,-10 377.2,-6.5 377.2,-13.5"/>
</a>
</g>
</g>
</g>
</svg>
