<?xml version="1.0" encoding="UTF-8" standalone="no"?>
<!DOCTYPE svg PUBLIC "-//W3C//DTD SVG 1.1//EN"
 "http://www.w3.org/Graphics/SVG/1.1/DTD/svg11.dtd">
<!-- Generated by graphviz version 13.1.0 (20250701.0955)
 -->
<!-- Title: SDL_FreeSteamVirtualGamepadInfo Pages: 1 -->
<svg width="512pt" height="66pt"
 viewBox="0.00 0.00 512.00 66.00" xmlns="http://www.w3.org/2000/svg" xmlns:xlink="http://www.w3.org/1999/xlink">
<g id="graph0" class="graph" transform="scale(1 1) rotate(0) translate(4 62)">
<title>SDL_FreeSteamVirtualGamepadInfo</title>
<!-- Node1 -->
<g id="Node000001" class="node">
<title>Node1</title>
<g id="a_Node000001"><a xlink:title=" ">
<polygon fill="#999999" stroke="#666666" points="175,-39 0,-39 0,-19 175,-19 175,-39"/>
<text xml:space="preserve" text-anchor="middle" x="87.5" y="-25.5" font-family="Helvetica,sans-Serif" font-size="10.00">SDL_FreeSteamVirtualGamepadInfo</text>
</a>
</g>
</g>
<!-- Node2 -->
<g id="Node000002" class="node">
<title>Node2</title>
<g id="a_Node000002"><a xlink:href="../../d6/df9/SDL__joystick_8c.html#a3444cbed488af750d2a3512e3da2f2e6" target="_top" xlink:title=" ">
<polygon fill="white" stroke="#666666" points="353.75,-58 211,-58 211,-38 353.75,-38 353.75,-58"/>
<text xml:space="preserve" text-anchor="middle" x="282.38" y="-44.5" font-family="Helvetica,sans-Serif" font-size="10.00">SDL_AssertJoysticksLocked</text>
</a>
</g>
</g>
<!-- Node1&#45;&gt;Node2 -->
<g id="edge1_Node000001_Node000002" class="edge">
<title>Node1&#45;&gt;Node2</title>
<g id="a_edge1_Node000001_Node000002"><a xlink:title=" ">
<path fill="none" stroke="#63b8ff" d="M175.35,-37.56C183.27,-38.34 191.29,-39.13 199.17,-39.9"/>
<polygon fill="#63b8ff" stroke="#63b8ff" points="198.8,-43.38 209.1,-40.88 199.49,-36.42 198.8,-43.38"/>
</a>
</g>
</g>
<!-- Node4 -->
<g id="Node000004" class="node">
<title>Node4</title>
<g id="a_Node000004"><a xlink:href="../../d4/d23/SDL__malloc_8c.html#a883d5d0a9ce20246045f385a6b99ebf2" target="_top" xlink:title=" ">
<polygon fill="white" stroke="#666666" points="311,-20 253.75,-20 253.75,0 311,0 311,-20"/>
<text xml:space="preserve" text-anchor="middle" x="282.38" y="-6.5" font-family="Helvetica,sans-Serif" font-size="10.00">SDL_free</text>
</a>
</g>
</g>
<!-- Node1&#45;&gt;Node4 -->
<g id="edge3_Node000001_Node000004" class="edge">
<title>Node1&#45;&gt;Node4</title>
<g id="a_edge3_Node000001_Node000004"><a xlink:title=" ">
<path fill="none" stroke="#63b8ff" d="M175.35,-20.44C198.7,-18.14 222.8,-15.77 242.12,-13.87"/>
<polygon fill="#63b8ff" stroke="#63b8ff" points="242.36,-17.36 251.97,-12.9 241.68,-10.39 242.36,-17.36"/>
</a>
</g>
</g>
<!-- Node3 -->
<g id="Node000003" class="node">
<title>Node3</title>
<g id="a_Node000003"><a xlink:href="../../d6/df9/SDL__joystick_8c.html#aafbb2f9f58c8c2ac2dfe1bf8eb5723a7" target="_top" xlink:title=" ">
<polygon fill="white" stroke="#666666" points="504,-58 389.75,-58 389.75,-38 504,-38 504,-58"/>
<text xml:space="preserve" text-anchor="middle" x="446.88" y="-44.5" font-family="Helvetica,sans-Serif" font-size="10.00">SDL_JoysticksLocked</text>
</a>
</g>
</g>
<!-- Node2&#45;&gt;Node3 -->
<g id="edge2_Node000002_Node000003" class="edge">
<title>Node2&#45;&gt;Node3</title>
<g id="a_edge2_Node000002_Node000003"><a xlink:title=" ">
<path fill="none" stroke="#63b8ff" d="M354.18,-48C362.11,-48 370.17,-48 378.06,-48"/>
<polygon fill="#63b8ff" stroke="#63b8ff" points="377.95,-51.5 387.95,-48 377.95,-44.5 377.95,-51.5"/>
</a>
</g>
</g>
</g>
</svg>
