<?xml version="1.0" encoding="UTF-8" standalone="no"?>
<!DOCTYPE svg PUBLIC "-//W3C//DTD SVG 1.1//EN"
 "http://www.w3.org/Graphics/SVG/1.1/DTD/svg11.dtd">
<!-- Generated by graphviz version 13.1.0 (20250701.0955)
 -->
<!-- Title: SDL&#45;main/src/video/openvr/SDL_openvrvideo.h Pages: 1 -->
<!--zoomable 264 -->

<svg id="main" version="1.1" xmlns="http://www.w3.org/2000/svg" xmlns:xlink="http://www.w3.org/1999/xlink" xml:space="preserve" onload="init(evt)">

<style type="text/css"><![CDATA[
.node, .edge {opacity: 0.7;}
.node.selected, .edge.selected {opacity: 1;}
.edge:hover path { stroke: red; }
.edge:hover polygon { stroke: red; fill: red; }
]]></style>

<defs>
  <circle id="rim" cx="0" cy="0" r="7"/>
  <circle id="rim2" cx="0" cy="0" r="3.5"/>
  <g id="zoomPlus">
    <use xlink:href="#rim" fill="#404040"><set attributeName="fill" to="#808080" begin="zoomplus.mouseover" end="zoomplus.mouseout"/></use>
    <path d="M-4,0h8M0,-4v8" fill="none" stroke="white" stroke-width="1.5" pointer-events="none"/>
  </g>
  <g id="zoomMin">
    <use xlink:href="#rim" fill="#404040"><set attributeName="fill" to="#808080" begin="zoomminus.mouseover" end="zoomminus.mouseout"/></use>
    <path d="M-4,0h8" fill="none" stroke="white" stroke-width="1.5" pointer-events="none"/>
  </g>
  <g id="arrowUp" transform="translate(30 24)">
    <use xlink:href="#rim"/>
    <path pointer-events="none" fill="none" stroke="white" stroke-width="1.5" d="M0,-3.0v7 M-2.5,-0.5L0,-3.0L2.5,-0.5"/>
  </g>
  <g id="arrowRight" transform="rotate(90) translate(36 -43)">
    <use xlink:href="#rim"/>
    <path pointer-events="none" fill="none" stroke="white" stroke-width="1.5" d="M0,-3.0v7 M-2.5,-0.5L0,-3.0L2.5,-0.5"/>
  </g>
  <g id="arrowDown" transform="rotate(180) translate(-30 -48)">
    <use xlink:href="#rim"/>
    <path pointer-events="none" fill="none" stroke="white" stroke-width="1.5" d="M0,-3.0v7 M-2.5,-0.5L0,-3.0L2.5,-0.5"/>
  </g>
  <g id="arrowLeft" transform="rotate(270) translate(-36 17)">
    <use xlink:href="#rim"/>
    <path pointer-events="none" fill="none" stroke="white" stroke-width="1.5" d="M0,-3.0v7 M-2.5,-0.5L0,-3.0L2.5,-0.5"/>
  </g>
  <g id="resetDef">
    <use xlink:href="#rim2" fill="#404040"><set attributeName="fill" to="#808080" begin="reset.mouseover" end="reset.mouseout"/></use>
  </g>
</defs>
<script type="application/ecmascript">
var viewWidth = 635;
var viewHeight = 264;
var sectionId = 'dynsection-0';
</script>
<script type="application/ecmascript" xlink:href="../../svg.min.js"/>
<svg id="graph" class="graph">
<g id="viewport">
<title>SDL&#45;main/src/video/openvr/SDL_openvrvideo.h</title>
<!-- Node1 -->
<g id="Node000001" class="node">
<title>Node1</title>
<g id="a_Node000001"><a xlink:title=" ">
<polygon fill="#999999" stroke="#666666" points="350.75,-256 214,-256 214,-224 350.75,-224 350.75,-256"/>
<text xml:space="preserve" text-anchor="start" x="222" y="-242.5" font-family="Helvetica,sans-Serif" font-size="10.00">SDL&#45;main/src/video</text>
<text xml:space="preserve" text-anchor="middle" x="282.38" y="-230.5" font-family="Helvetica,sans-Serif" font-size="10.00">/openvr/SDL_openvrvideo.h</text>
</a>
</g>
</g>
<!-- Node2 -->
<g id="Node000002" class="node">
<title>Node2</title>
<g id="a_Node000002"><a xlink:href="../../df/d68/openvr__capi_8h.html" target="_top" xlink:title=" ">
<polygon fill="white" stroke="#666666" points="76.75,-188 0,-188 0,-168 76.75,-168 76.75,-188"/>
<text xml:space="preserve" text-anchor="middle" x="38.38" y="-174.5" font-family="Helvetica,sans-Serif" font-size="10.00">openvr_capi.h</text>
</a>
</g>
</g>
<!-- Node1&#45;&gt;Node2 -->
<g id="edge1_Node000001_Node000002" class="edge">
<title>Node1&#45;&gt;Node2</title>
<g id="a_edge1_Node000001_Node000002"><a xlink:title=" ">
<path fill="none" stroke="#63b8ff" d="M219.54,-223.55C178.54,-213.47 125.79,-200.49 87.79,-191.15"/>
<polygon fill="#63b8ff" stroke="#63b8ff" points="89.01,-187.85 78.46,-188.86 87.34,-194.64 89.01,-187.85"/>
</a>
</g>
</g>
<!-- Node3 -->
<g id="Node000003" class="node">
<title>Node3</title>
<g id="a_Node000003"><a xlink:title=" ">
<polygon fill="#e0e0e0" stroke="#999999" points="128.5,-20 80.25,-20 80.25,0 128.5,0 128.5,-20"/>
<text xml:space="preserve" text-anchor="middle" x="104.38" y="-6.5" font-family="Helvetica,sans-Serif" font-size="10.00">stdint.h</text>
</a>
</g>
</g>
<!-- Node1&#45;&gt;Node3 -->
<g id="edge4_Node000001_Node000003" class="edge">
<title>Node1&#45;&gt;Node3</title>
<g id="a_edge4_Node000001_Node000003"><a xlink:title=" ">
<path fill="none" stroke="#63b8ff" d="M213.62,-227.49C188.93,-220.08 162.88,-207.92 145.38,-188 106.06,-143.27 102.43,-68.23 103.24,-31.93"/>
<polygon fill="#63b8ff" stroke="#63b8ff" points="106.74,-32.08 103.62,-21.95 99.74,-31.81 106.74,-32.08"/>
</a>
</g>
</g>
<!-- Node5 -->
<g id="Node000005" class="node">
<title>Node5</title>
<g id="a_Node000005"><a xlink:href="../../da/d62/gl3_8h.html" target="_top" xlink:title=" ">
<polygon fill="white" stroke="#666666" points="226.12,-188 154.62,-188 154.62,-168 226.12,-168 226.12,-188"/>
<text xml:space="preserve" text-anchor="middle" x="190.38" y="-174.5" font-family="Helvetica,sans-Serif" font-size="10.00">GLES3/gl3.h</text>
</a>
</g>
</g>
<!-- Node1&#45;&gt;Node5 -->
<g id="edge5_Node000001_Node000005" class="edge">
<title>Node1&#45;&gt;Node5</title>
<g id="a_edge5_Node000001_Node000005"><a xlink:title=" ">
<path fill="none" stroke="#63b8ff" d="M258.68,-223.55C244.97,-214.61 227.78,-203.39 214.07,-194.45"/>
<polygon fill="#63b8ff" stroke="#63b8ff" points="216.36,-191.77 206.07,-189.23 212.53,-197.63 216.36,-191.77"/>
</a>
</g>
</g>
<!-- Node8 -->
<g id="Node000008" class="node">
<title>Node8</title>
<g id="a_Node000008"><a xlink:href="../../d8/d5d/gl32_8h.html" target="_top" xlink:title=" ">
<polygon fill="white" stroke="#666666" points="320.75,-188 244,-188 244,-168 320.75,-168 320.75,-188"/>
<text xml:space="preserve" text-anchor="middle" x="282.38" y="-174.5" font-family="Helvetica,sans-Serif" font-size="10.00">GLES3/gl32.h</text>
</a>
</g>
</g>
<!-- Node1&#45;&gt;Node8 -->
<g id="edge10_Node000001_Node000008" class="edge">
<title>Node1&#45;&gt;Node8</title>
<g id="a_edge10_Node000001_Node000008"><a xlink:title=" ">
<path fill="none" stroke="#63b8ff" d="M282.38,-223.55C282.38,-216.34 282.38,-207.66 282.38,-199.88"/>
<polygon fill="#63b8ff" stroke="#63b8ff" points="285.88,-199.92 282.38,-189.92 278.88,-199.92 285.88,-199.92"/>
</a>
</g>
</g>
<!-- Node9 -->
<g id="Node000009" class="node">
<title>Node9</title>
<g id="a_Node000009"><a xlink:href="../../da/de2/egl_8h.html" target="_top" xlink:title=" ">
<polygon fill="white" stroke="#666666" points="398.12,-188 338.62,-188 338.62,-168 398.12,-168 398.12,-188"/>
<text xml:space="preserve" text-anchor="middle" x="368.38" y="-174.5" font-family="Helvetica,sans-Serif" font-size="10.00">EGL/egl.h</text>
</a>
</g>
</g>
<!-- Node1&#45;&gt;Node9 -->
<g id="edge13_Node000001_Node000009" class="edge">
<title>Node1&#45;&gt;Node9</title>
<g id="a_edge13_Node000001_Node000009"><a xlink:title=" ">
<path fill="none" stroke="#63b8ff" d="M304.52,-223.55C317.09,-214.78 332.79,-203.83 345.48,-194.97"/>
<polygon fill="#63b8ff" stroke="#63b8ff" points="347.45,-197.87 353.65,-189.27 343.44,-192.13 347.45,-197.87"/>
</a>
</g>
</g>
<!-- Node11 -->
<g id="Node000011" class="node">
<title>Node11</title>
<g id="a_Node000011"><a xlink:href="../../de/dc1/gl2_8h.html" target="_top" xlink:title=" ">
<polygon fill="white" stroke="#666666" points="508.12,-188 436.62,-188 436.62,-168 508.12,-168 508.12,-188"/>
<text xml:space="preserve" text-anchor="middle" x="472.38" y="-174.5" font-family="Helvetica,sans-Serif" font-size="10.00">GLES2/gl2.h</text>
</a>
</g>
</g>
<!-- Node1&#45;&gt;Node11 -->
<g id="edge17_Node000001_Node000011" class="edge">
<title>Node1&#45;&gt;Node11</title>
<g id="a_edge17_Node000001_Node000011"><a xlink:title=" ">
<path fill="none" stroke="#63b8ff" d="M331.3,-223.55C362.41,-213.73 402.2,-201.16 431.59,-191.88"/>
<polygon fill="#63b8ff" stroke="#63b8ff" points="432.38,-195.3 440.86,-188.95 430.27,-188.63 432.38,-195.3"/>
</a>
</g>
</g>
<!-- Node13 -->
<g id="Node000013" class="node">
<title>Node13</title>
<g id="a_Node000013"><a xlink:href="../../d0/d62/gl2ext_8h.html" target="_top" xlink:title=" ">
<polygon fill="white" stroke="#666666" points="610.88,-188 525.88,-188 525.88,-168 610.88,-168 610.88,-188"/>
<text xml:space="preserve" text-anchor="middle" x="568.38" y="-174.5" font-family="Helvetica,sans-Serif" font-size="10.00">GLES2/gl2ext.h</text>
</a>
</g>
</g>
<!-- Node1&#45;&gt;Node13 -->
<g id="edge21_Node000001_Node000013" class="edge">
<title>Node1&#45;&gt;Node13</title>
<g id="a_edge21_Node000001_Node000013"><a xlink:title=" ">
<path fill="none" stroke="#63b8ff" d="M351.24,-224.55C401.33,-214.04 468.18,-200.02 514.41,-190.32"/>
<polygon fill="#63b8ff" stroke="#63b8ff" points="514.86,-193.8 523.93,-188.32 513.42,-186.95 514.86,-193.8"/>
</a>
</g>
</g>
<!-- Node2&#45;&gt;Node3 -->
<g id="edge2_Node000002_Node000003" class="edge">
<title>Node2&#45;&gt;Node3</title>
<g id="a_edge2_Node000002_Node000003"><a xlink:title=" ">
<path fill="none" stroke="#63b8ff" d="M29.82,-167.79C19.25,-155.24 3.56,-132.03 11.38,-112 25.48,-75.86 59.24,-44.85 81.96,-27.06"/>
<polygon fill="#63b8ff" stroke="#63b8ff" points="83.87,-30 89.73,-21.17 79.64,-24.42 83.87,-30"/>
</a>
</g>
</g>
<!-- Node4 -->
<g id="Node000004" class="node">
<title>Node4</title>
<g id="a_Node000004"><a xlink:title=" ">
<polygon fill="#e0e0e0" stroke="#999999" points="76.25,-132 20.5,-132 20.5,-112 76.25,-112 76.25,-132"/>
<text xml:space="preserve" text-anchor="middle" x="48.38" y="-118.5" font-family="Helvetica,sans-Serif" font-size="10.00">stdbool.h</text>
</a>
</g>
</g>
<!-- Node2&#45;&gt;Node4 -->
<g id="edge3_Node000002_Node000004" class="edge">
<title>Node2&#45;&gt;Node4</title>
<g id="a_edge3_Node000002_Node000004"><a xlink:title=" ">
<path fill="none" stroke="#63b8ff" d="M40.12,-167.59C41.35,-160.93 43.05,-151.75 44.59,-143.44"/>
<polygon fill="#63b8ff" stroke="#63b8ff" points="48,-144.26 46.38,-133.79 41.12,-142.98 48,-144.26"/>
</a>
</g>
</g>
<!-- Node6 -->
<g id="Node000006" class="node">
<title>Node6</title>
<g id="a_Node000006"><a xlink:href="../../da/d4c/gl3platform_8h.html" target="_top" xlink:title=" ">
<polygon fill="white" stroke="#666666" points="276.75,-132 170,-132 170,-112 276.75,-112 276.75,-132"/>
<text xml:space="preserve" text-anchor="middle" x="223.38" y="-118.5" font-family="Helvetica,sans-Serif" font-size="10.00">GLES3/gl3platform.h</text>
</a>
</g>
</g>
<!-- Node5&#45;&gt;Node6 -->
<g id="edge6_Node000005_Node000006" class="edge">
<title>Node5&#45;&gt;Node6</title>
<g id="a_edge6_Node000005_Node000006"><a xlink:title=" ">
<path fill="none" stroke="#63b8ff" d="M196.12,-167.59C200.43,-160.55 206.47,-150.67 211.76,-142"/>
<polygon fill="#63b8ff" stroke="#63b8ff" points="214.68,-143.95 216.9,-133.59 208.7,-140.3 214.68,-143.95"/>
</a>
</g>
</g>
<!-- Node7 -->
<g id="Node000007" class="node">
<title>Node7</title>
<g id="a_Node000007"><a xlink:href="../../d7/d3a/khrplatform_8h.html" target="_top" xlink:title=" ">
<polygon fill="white" stroke="#666666" points="372.25,-76 274.5,-76 274.5,-56 372.25,-56 372.25,-76"/>
<text xml:space="preserve" text-anchor="middle" x="323.38" y="-62.5" font-family="Helvetica,sans-Serif" font-size="10.00">KHR/khrplatform.h</text>
</a>
</g>
</g>
<!-- Node5&#45;&gt;Node7 -->
<g id="edge9_Node000005_Node000007" class="edge">
<title>Node5&#45;&gt;Node7</title>
<g id="a_edge9_Node000005_Node000007"><a xlink:title=" ">
<path fill="none" stroke="#63b8ff" d="M180.67,-167.9C167.72,-154.65 147.92,-129.71 161.38,-112 173.89,-95.54 222.17,-83.51 262.8,-76.06"/>
<polygon fill="#63b8ff" stroke="#63b8ff" points="263.29,-79.53 272.53,-74.34 262.07,-72.63 263.29,-79.53"/>
</a>
</g>
</g>
<!-- Node6&#45;&gt;Node7 -->
<g id="edge7_Node000006_Node000007" class="edge">
<title>Node6&#45;&gt;Node7</title>
<g id="a_edge7_Node000006_Node000007"><a xlink:title=" ">
<path fill="none" stroke="#63b8ff" d="M240.79,-111.59C256.04,-103.36 278.45,-91.26 296.08,-81.74"/>
<polygon fill="#63b8ff" stroke="#63b8ff" points="297.35,-85.03 304.49,-77.2 294.03,-78.87 297.35,-85.03"/>
</a>
</g>
</g>
<!-- Node7&#45;&gt;Node3 -->
<g id="edge8_Node000007_Node000003" class="edge">
<title>Node7&#45;&gt;Node3</title>
<g id="a_edge8_Node000007_Node000003"><a xlink:title=" ">
<path fill="none" stroke="#63b8ff" d="M284.98,-55.53C244,-45.43 179.62,-29.55 139.82,-19.74"/>
<polygon fill="#63b8ff" stroke="#63b8ff" points="140.81,-16.38 130.26,-17.38 139.13,-23.18 140.81,-16.38"/>
</a>
</g>
</g>
<!-- Node8&#45;&gt;Node6 -->
<g id="edge11_Node000008_Node000006" class="edge">
<title>Node8&#45;&gt;Node6</title>
<g id="a_edge11_Node000008_Node000006"><a xlink:title=" ">
<path fill="none" stroke="#63b8ff" d="M272.1,-167.59C263.81,-160.01 251.93,-149.13 241.97,-140.02"/>
<polygon fill="#63b8ff" stroke="#63b8ff" points="244.39,-137.49 234.65,-133.32 239.66,-142.65 244.39,-137.49"/>
</a>
</g>
</g>
<!-- Node8&#45;&gt;Node7 -->
<g id="edge12_Node000008_Node000007" class="edge">
<title>Node8&#45;&gt;Node7</title>
<g id="a_edge12_Node000008_Node000007"><a xlink:title=" ">
<path fill="none" stroke="#63b8ff" d="M285.87,-167.62C292.5,-149.84 307.02,-110.88 315.92,-87"/>
<polygon fill="#63b8ff" stroke="#63b8ff" points="319.15,-88.37 319.36,-77.77 312.59,-85.92 319.15,-88.37"/>
</a>
</g>
</g>
<!-- Node9&#45;&gt;Node7 -->
<g id="edge16_Node000009_Node000007" class="edge">
<title>Node9&#45;&gt;Node7</title>
<g id="a_edge16_Node000009_Node000007"><a xlink:title=" ">
<path fill="none" stroke="#63b8ff" d="M364.54,-167.62C357.27,-149.84 341.33,-110.88 331.56,-87"/>
<polygon fill="#63b8ff" stroke="#63b8ff" points="334.8,-85.69 327.78,-77.76 328.32,-88.34 334.8,-85.69"/>
</a>
</g>
</g>
<!-- Node10 -->
<g id="Node000010" class="node">
<title>Node10</title>
<g id="a_Node000010"><a xlink:href="../../d4/d35/eglplatform_8h.html" target="_top" xlink:title=" ">
<polygon fill="white" stroke="#666666" points="464.75,-132 370,-132 370,-112 464.75,-112 464.75,-132"/>
<text xml:space="preserve" text-anchor="middle" x="417.38" y="-118.5" font-family="Helvetica,sans-Serif" font-size="10.00">EGL/eglplatform.h</text>
</a>
</g>
</g>
<!-- Node9&#45;&gt;Node10 -->
<g id="edge14_Node000009_Node000010" class="edge">
<title>Node9&#45;&gt;Node10</title>
<g id="a_edge14_Node000009_Node000010"><a xlink:title=" ">
<path fill="none" stroke="#63b8ff" d="M376.91,-167.59C383.66,-160.16 393.26,-149.58 401.42,-140.58"/>
<polygon fill="#63b8ff" stroke="#63b8ff" points="403.79,-143.18 407.92,-133.42 398.61,-138.47 403.79,-143.18"/>
</a>
</g>
</g>
<!-- Node10&#45;&gt;Node7 -->
<g id="edge15_Node000010_Node000007" class="edge">
<title>Node10&#45;&gt;Node7</title>
<g id="a_edge15_Node000010_Node000007"><a xlink:title=" ">
<path fill="none" stroke="#63b8ff" d="M401,-111.59C386.8,-103.44 365.99,-91.48 349.49,-82"/>
<polygon fill="#63b8ff" stroke="#63b8ff" points="351.6,-79.18 341.19,-77.23 348.12,-85.25 351.6,-79.18"/>
</a>
</g>
</g>
<!-- Node11&#45;&gt;Node7 -->
<g id="edge20_Node000011_Node000007" class="edge">
<title>Node11&#45;&gt;Node7</title>
<g id="a_edge20_Node000011_Node000007"><a xlink:title=" ">
<path fill="none" stroke="#63b8ff" d="M475.79,-167.52C480.08,-153.81 485.5,-128.3 473.38,-112 452.76,-84.29 415.67,-73 383.53,-68.66"/>
<polygon fill="#63b8ff" stroke="#63b8ff" points="384.24,-65.22 373.91,-67.57 383.45,-72.17 384.24,-65.22"/>
</a>
</g>
</g>
<!-- Node12 -->
<g id="Node000012" class="node">
<title>Node12</title>
<g id="a_Node000012"><a xlink:href="../../df/d39/gl2platform_8h.html" target="_top" xlink:title=" ">
<polygon fill="white" stroke="#666666" points="626.75,-132 520,-132 520,-112 626.75,-112 626.75,-132"/>
<text xml:space="preserve" text-anchor="middle" x="573.38" y="-118.5" font-family="Helvetica,sans-Serif" font-size="10.00">GLES2/gl2platform.h</text>
</a>
</g>
</g>
<!-- Node11&#45;&gt;Node12 -->
<g id="edge18_Node000011_Node000012" class="edge">
<title>Node11&#45;&gt;Node12</title>
<g id="a_edge18_Node000011_Node000012"><a xlink:title=" ">
<path fill="none" stroke="#63b8ff" d="M489.97,-167.59C505.3,-159.4 527.79,-147.37 545.56,-137.87"/>
<polygon fill="#63b8ff" stroke="#63b8ff" points="547.14,-140.99 554.31,-133.19 543.84,-134.82 547.14,-140.99"/>
</a>
</g>
</g>
<!-- Node12&#45;&gt;Node7 -->
<g id="edge19_Node000012_Node000007" class="edge">
<title>Node12&#45;&gt;Node7</title>
<g id="a_edge19_Node000012_Node000007"><a xlink:title=" ">
<path fill="none" stroke="#63b8ff" d="M529.54,-111.53C487.46,-102.44 423.74,-88.68 378.29,-78.86"/>
<polygon fill="#63b8ff" stroke="#63b8ff" points="379.15,-75.47 368.64,-76.78 377.67,-82.31 379.15,-75.47"/>
</a>
</g>
</g>
</g>
</svg>

<g id="navigator" transform="translate(0 0)" fill="#404254">
  <rect fill="#f2f5e9" fill-opacity="0.5" stroke="#606060" stroke-width=".5" x="0" y="0" width="60" height="60"/>
  <use id="zoomplus" xlink:href="#zoomPlus" x="17" y="9" onmousedown="handleZoom(evt,'in')"/>
  <use id="zoomminus" xlink:href="#zoomMin" x="42" y="9" onmousedown="handleZoom(evt,'out')"/>
  <use id="reset" xlink:href="#resetDef" x="30" y="36" onmousedown="handleReset()"/>
   <use id="arrowup" xlink:href="#arrowUp" x="0" y="0" onmousedown="handlePan(0,-1)"/>
  <use id="arrowright" xlink:href="#arrowRight" x="0" y="0" onmousedown="handlePan(1,0)"/>
  <use id="arrowdown" xlink:href="#arrowDown" x="0" y="0" onmousedown="handlePan(0,1)"/>
  <use id="arrowleft" xlink:href="#arrowLeft" x="0" y="0" onmousedown="handlePan(-1,0)"/>
</g>
<svg viewBox="0 0 15 15" width="100%" height="30px" preserveAspectRatio="xMaxYMin meet">
 <g id="arrow_out" transform="scale(0.3 0.3)">
  <a xlink:href="SDL__openvrvideo_8h__incl_org.svg" target="_base">
   <rect id="button" ry="5" rx="5" y="6" x="6" height="38" width="38"
        fill="#f2f5e9" fill-opacity="0.5" stroke="#606060" stroke-width="1.0"/>
   <path id="arrow"
     d="M 11.500037,31.436501 C 11.940474,20.09759 22.043105,11.32322 32.158766,21.979434 L 37.068811,17.246167 C 37.068811,17.246167 37.088388,32 37.088388,32 L 22.160133,31.978069 C 22.160133,31.978069 26.997745,27.140456 26.997745,27.140456 C 18.528582,18.264221 13.291696,25.230495 11.500037,31.436501 z"
     style="fill:#404040;"/>
  </a>
 </g>
</svg>

<style type='text/css'>
<![CDATA[
[data-mouse-over-selected='false'] { opacity: 0.7; }
[data-mouse-over-selected='true']  { opacity: 1.0; }
]]>
</style>
<script type="application/ecmascript"><![CDATA[
document.addEventListener('DOMContentLoaded', (event) => {
  highlightEdges();
  highlightAdjacentNodes();
});
]]></script>
</svg>
