<?xml version="1.0" encoding="UTF-8" standalone="no"?>
<!DOCTYPE svg PUBLIC "-//W3C//DTD SVG 1.1//EN"
 "http://www.w3.org/Graphics/SVG/1.1/DTD/svg11.dtd">
<!-- Generated by graphviz version 13.1.0 (20250701.0955)
 -->
<!-- Title: SDL_TimerMap Pages: 1 -->
<svg width="135pt" height="176pt"
 viewBox="0.00 0.00 135.00 176.00" xmlns="http://www.w3.org/2000/svg" xmlns:xlink="http://www.w3.org/1999/xlink">

<svg id="main" version="1.1" xmlns="http://www.w3.org/2000/svg" xmlns:xlink="http://www.w3.org/1999/xlink" xml:space="preserve">

<style type="text/css"><![CDATA[
.node, .edge {opacity: 0.7;}
.node.selected, .edge.selected {opacity: 1;}
.edge:hover path { stroke: red; }
.edge:hover polygon { stroke: red; fill: red; }
]]></style>
<script type="application/ecmascript" xlink:href="../../svg.min.js"/>
<svg id="graph" class="graph">
<g id="graph0" class="graph" transform="scale(1 1) rotate(0) translate(4 172)">
<title>SDL_TimerMap</title>
<!-- Node1 -->
<g id="Node000001" class="node">
<title>Node1</title>
<g id="a_Node000001"><a xlink:title=" ">
<polygon fill="#999999" stroke="#666666" points="84.25,-20 0,-20 0,0 84.25,0 84.25,-20"/>
<text xml:space="preserve" text-anchor="middle" x="42.12" y="-6.5" font-family="Helvetica,sans-Serif" font-size="10.00">SDL_TimerMap</text>
</a>
</g>
</g>
<!-- Node1&#45;&gt;Node1 -->
<g id="edge4_Node000001_Node000001" class="edge">
<title>Node1&#45;&gt;Node1</title>
<g id="a_edge4_Node000001_Node000001"><a xlink:title=" ">
<path fill="none" stroke="#9a32cd" stroke-dasharray="5,2" d="M95.64,-15.21C99.73,-14.06 102.25,-12.32 102.25,-10 102.25,-5.99 94.71,-3.72 84.54,-3.18"/>
<polygon fill="#9a32cd" stroke="#9a32cd" points="95.44,-11.71 86.04,-16.6 96.44,-18.63 95.44,-11.71"/>
</a>
</g>
<text xml:space="preserve" text-anchor="start" x="105.25" y="-6.5" font-family="Helvetica,sans-Serif" font-size="10.00" fill="grey">next</text>
</g>
<!-- Node2 -->
<g id="Node000002" class="node">
<title>Node2</title>
<g id="a_Node000002"><a xlink:href="../../dc/df3/structSDL__Timer.html" target="_top" xlink:title=" ">
<polygon fill="white" stroke="#666666" points="74.88,-94 9.38,-94 9.38,-74 74.88,-74 74.88,-94"/>
<text xml:space="preserve" text-anchor="middle" x="42.12" y="-80.5" font-family="Helvetica,sans-Serif" font-size="10.00">SDL_Timer</text>
</a>
</g>
</g>
<!-- Node2&#45;&gt;Node1 -->
<g id="edge1_Node000001_Node000002" class="edge">
<title>Node2&#45;&gt;Node1</title>
<g id="a_edge1_Node000001_Node000002"><a xlink:title=" ">
<path fill="none" stroke="#9a32cd" stroke-dasharray="5,2" d="M42.12,-62.18C42.12,-48.29 42.12,-30.71 42.12,-20.19"/>
<polygon fill="#9a32cd" stroke="#9a32cd" points="38.63,-62.07 42.13,-72.07 45.63,-62.07 38.63,-62.07"/>
</a>
</g>
<text xml:space="preserve" text-anchor="start" x="45.12" y="-43.5" font-family="Helvetica,sans-Serif" font-size="10.00" fill="grey">timer</text>
</g>
<!-- Node2&#45;&gt;Node2 -->
<g id="edge3_Node000002_Node000002" class="edge">
<title>Node2&#45;&gt;Node2</title>
<g id="a_edge3_Node000002_Node000002"><a xlink:title=" ">
<path fill="none" stroke="#9a32cd" stroke-dasharray="5,2" d="M86.56,-89.44C90.44,-88.29 92.88,-86.48 92.88,-84 92.88,-79.59 85.19,-77.28 75.32,-77.08"/>
<polygon fill="#9a32cd" stroke="#9a32cd" points="86.28,-85.95 76.82,-90.73 87.19,-92.89 86.28,-85.95"/>
</a>
</g>
<text xml:space="preserve" text-anchor="start" x="95.88" y="-80.5" font-family="Helvetica,sans-Serif" font-size="10.00" fill="grey">next</text>
</g>
<!-- Node3 -->
<g id="Node000003" class="node">
<title>Node3</title>
<g id="a_Node000003"><a xlink:href="../../d1/dbc/structSDL__AtomicInt.html" target="_top" xlink:title=" ">
<polygon fill="white" stroke="#666666" points="83.5,-168 0.75,-168 0.75,-148 83.5,-148 83.5,-168"/>
<text xml:space="preserve" text-anchor="middle" x="42.12" y="-154.5" font-family="Helvetica,sans-Serif" font-size="10.00">SDL_AtomicInt</text>
</a>
</g>
</g>
<!-- Node3&#45;&gt;Node2 -->
<g id="edge2_Node000002_Node000003" class="edge">
<title>Node3&#45;&gt;Node2</title>
<g id="a_edge2_Node000002_Node000003"><a xlink:title=" ">
<path fill="none" stroke="#9a32cd" stroke-dasharray="5,2" d="M42.12,-136.18C42.12,-122.29 42.12,-104.71 42.12,-94.19"/>
<polygon fill="#9a32cd" stroke="#9a32cd" points="38.63,-136.07 42.13,-146.07 45.63,-136.07 38.63,-136.07"/>
</a>
</g>
<text xml:space="preserve" text-anchor="start" x="45.12" y="-117.5" font-family="Helvetica,sans-Serif" font-size="10.00" fill="grey">canceled</text>
</g>
</g>
</svg>
</svg>

<style type='text/css'>
<![CDATA[
[data-mouse-over-selected='false'] { opacity: 0.7; }
[data-mouse-over-selected='true']  { opacity: 1.0; }
]]>
</style>
<script type="application/ecmascript"><![CDATA[
document.addEventListener('DOMContentLoaded', (event) => {
  highlightEdges();
  highlightAdjacentNodes();
});
]]></script>
</svg>
