<?xml version="1.0" encoding="UTF-8" standalone="no"?>
<!DOCTYPE svg PUBLIC "-//W3C//DTD SVG 1.1//EN"
 "http://www.w3.org/Graphics/SVG/1.1/DTD/svg11.dtd">
<!-- Generated by graphviz version 13.1.0 (20250701.0955)
 -->
<!-- Title: SDL_RenderAssertMessage Pages: 1 -->
<svg width="1247pt" height="142pt"
 viewBox="0.00 0.00 1247.00 142.00" xmlns="http://www.w3.org/2000/svg" xmlns:xlink="http://www.w3.org/1999/xlink">
<g id="graph0" class="graph" transform="scale(1 1) rotate(0) translate(4 138)">
<title>SDL_RenderAssertMessage</title>
<!-- Node1 -->
<g id="Node000001" class="node">
<title>Node1</title>
<g id="a_Node000001"><a xlink:title=" ">
<polygon fill="#999999" stroke="#666666" points="1238.75,-58 1098.25,-58 1098.25,-38 1238.75,-38 1238.75,-58"/>
<text xml:space="preserve" text-anchor="middle" x="1168.5" y="-44.5" font-family="Helvetica,sans-Serif" font-size="10.00">SDL_RenderAssertMessage</text>
</a>
</g>
</g>
<!-- Node2 -->
<g id="Node000002" class="node">
<title>Node2</title>
<g id="a_Node000002"><a xlink:href="../../d3/d6c/SDL__assert_8c.html#a3af85a0e9a1d38712ea2827dc42c96e3" target="_top" xlink:title=" ">
<polygon fill="white" stroke="#666666" points="1062.25,-58 948.75,-58 948.75,-38 1062.25,-38 1062.25,-58"/>
<text xml:space="preserve" text-anchor="middle" x="1005.5" y="-44.5" font-family="Helvetica,sans-Serif" font-size="10.00">SDL_PromptAssertion</text>
</a>
</g>
</g>
<!-- Node1&#45;&gt;Node2 -->
<g id="edge1_Node000001_Node000002" class="edge">
<title>Node1&#45;&gt;Node2</title>
<g id="a_edge1_Node000001_Node000002"><a xlink:title=" ">
<path fill="none" stroke="#63b8ff" d="M1086.49,-48C1078.45,-48 1070.42,-48 1062.72,-48"/>
<polygon fill="#63b8ff" stroke="#63b8ff" points="1086.31,-51.5 1096.31,-48 1086.31,-44.5 1086.31,-51.5"/>
</a>
</g>
</g>
<!-- Node3 -->
<g id="Node000003" class="node">
<title>Node3</title>
<g id="a_Node000003"><a xlink:href="../../d3/d6c/SDL__assert_8c.html#ac9a17a64b90ccec712fee6826e899721" target="_top" xlink:title=" ">
<polygon fill="white" stroke="#666666" points="906.75,-96 755.75,-96 755.75,-76 906.75,-76 906.75,-96"/>
<text xml:space="preserve" text-anchor="middle" x="831.25" y="-82.5" font-family="Helvetica,sans-Serif" font-size="10.00">SDL_GenerateAssertionReport</text>
</a>
</g>
</g>
<!-- Node2&#45;&gt;Node3 -->
<g id="edge2_Node000002_Node000003" class="edge">
<title>Node2&#45;&gt;Node3</title>
<g id="a_edge2_Node000002_Node000003"><a xlink:title=" ">
<path fill="none" stroke="#63b8ff" d="M945.94,-60.92C924.33,-65.69 900.12,-71.03 879.62,-75.55"/>
<polygon fill="#63b8ff" stroke="#63b8ff" points="946.49,-64.38 955.5,-58.81 944.98,-57.55 946.49,-64.38"/>
</a>
</g>
</g>
<!-- Node12 -->
<g id="Node000012" class="node">
<title>Node12</title>
<g id="a_Node000012"><a xlink:href="../../d3/d6c/SDL__assert_8c.html#aa2e8e2dec8b48cbb4f333b9004ce719e" target="_top" xlink:title=" ">
<polygon fill="white" stroke="#666666" points="912.75,-58 749.75,-58 749.75,-38 912.75,-38 912.75,-58"/>
<text xml:space="preserve" text-anchor="middle" x="831.25" y="-44.5" font-family="Helvetica,sans-Serif" font-size="10.00">SDL_GetDefaultAssertionHandler</text>
</a>
</g>
</g>
<!-- Node2&#45;&gt;Node12 -->
<g id="edge12_Node000002_Node000012" class="edge">
<title>Node2&#45;&gt;Node12</title>
<g id="a_edge12_Node000002_Node000012"><a xlink:title=" ">
<path fill="none" stroke="#63b8ff" d="M937.23,-48C929.36,-48 921.26,-48 913.23,-48"/>
<polygon fill="#63b8ff" stroke="#63b8ff" points="937.06,-51.5 947.06,-48 937.06,-44.5 937.06,-51.5"/>
</a>
</g>
</g>
<!-- Node13 -->
<g id="Node000013" class="node">
<title>Node13</title>
<g id="a_Node000013"><a xlink:href="../../d3/d6c/SDL__assert_8c.html#a4f35537f919f74fb363ef1bf285fad37" target="_top" xlink:title=" ">
<polygon fill="white" stroke="#666666" points="896.62,-20 765.88,-20 765.88,0 896.62,0 896.62,-20"/>
<text xml:space="preserve" text-anchor="middle" x="831.25" y="-6.5" font-family="Helvetica,sans-Serif" font-size="10.00">SDL_SetAssertionHandler</text>
</a>
</g>
</g>
<!-- Node2&#45;&gt;Node13 -->
<g id="edge13_Node000002_Node000013" class="edge">
<title>Node2&#45;&gt;Node13</title>
<g id="a_edge13_Node000002_Node000013"><a xlink:title=" ">
<path fill="none" stroke="#63b8ff" d="M945.94,-35.08C924.33,-30.31 900.12,-24.97 879.62,-20.45"/>
<polygon fill="#63b8ff" stroke="#63b8ff" points="944.98,-38.45 955.5,-37.19 946.49,-31.62 944.98,-38.45"/>
</a>
</g>
</g>
<!-- Node4 -->
<g id="Node000004" class="node">
<title>Node4</title>
<g id="a_Node000004"><a xlink:href="../../d3/d6c/SDL__assert_8c.html#a7d820602db52458de241b45061682b93" target="_top" xlink:title=" ">
<polygon fill="white" stroke="#666666" points="713.75,-96 608.5,-96 608.5,-76 713.75,-76 713.75,-96"/>
<text xml:space="preserve" text-anchor="middle" x="661.12" y="-82.5" font-family="Helvetica,sans-Serif" font-size="10.00">SDL_AssertionsQuit</text>
</a>
</g>
</g>
<!-- Node3&#45;&gt;Node4 -->
<g id="edge3_Node000003_Node000004" class="edge">
<title>Node3&#45;&gt;Node4</title>
<g id="a_edge3_Node000003_Node000004"><a xlink:title=" ">
<path fill="none" stroke="#63b8ff" d="M744.3,-86C733.94,-86 723.62,-86 713.97,-86"/>
<polygon fill="#63b8ff" stroke="#63b8ff" points="744.02,-89.5 754.02,-86 744.02,-82.5 744.02,-89.5"/>
</a>
</g>
</g>
<!-- Node5 -->
<g id="Node000005" class="node">
<title>Node5</title>
<g id="a_Node000005"><a xlink:href="../../df/d78/SDL_8c.html#abf064fcc4a657a30db8eace18633f362" target="_top" xlink:title=" ">
<polygon fill="white" stroke="#666666" points="572.5,-96 513.75,-96 513.75,-76 572.5,-76 572.5,-96"/>
<text xml:space="preserve" text-anchor="middle" x="543.12" y="-82.5" font-family="Helvetica,sans-Serif" font-size="10.00">SDL_Quit</text>
</a>
</g>
</g>
<!-- Node4&#45;&gt;Node5 -->
<g id="edge4_Node000004_Node000005" class="edge">
<title>Node4&#45;&gt;Node5</title>
<g id="a_edge4_Node000004_Node000005"><a xlink:title=" ">
<path fill="none" stroke="#63b8ff" d="M596.77,-86C588.38,-86 580.15,-86 572.77,-86"/>
<polygon fill="#63b8ff" stroke="#63b8ff" points="596.72,-89.5 606.72,-86 596.72,-82.5 596.72,-89.5"/>
</a>
</g>
</g>
<!-- Node6 -->
<g id="Node000006" class="node">
<title>Node6</title>
<g id="a_Node000006"><a xlink:href="../../de/daf/classCSDLmain.html#a73bd9c42ac6916974009e508257e44ff" target="_top" xlink:title=" ">
<polygon fill="white" stroke="#666666" points="462.75,-134 369.5,-134 369.5,-114 462.75,-114 462.75,-134"/>
<text xml:space="preserve" text-anchor="middle" x="416.12" y="-120.5" font-family="Helvetica,sans-Serif" font-size="10.00">CSDLmain::RunL</text>
</a>
</g>
</g>
<!-- Node5&#45;&gt;Node6 -->
<g id="edge5_Node000005_Node000006" class="edge">
<title>Node5&#45;&gt;Node6</title>
<g id="a_edge5_Node000005_Node000006"><a xlink:title=" ">
<path fill="none" stroke="#63b8ff" d="M502.54,-98.03C486.13,-103.02 467.26,-108.76 451.45,-113.57"/>
<polygon fill="#63b8ff" stroke="#63b8ff" points="503.45,-101.42 512,-95.16 501.41,-94.72 503.45,-101.42"/>
</a>
</g>
</g>
<!-- Node7 -->
<g id="Node000007" class="node">
<title>Node7</title>
<g id="a_Node000007"><a xlink:href="../../d3/d6c/SDL__assert_8c.html#af146e7f66c4e41a24337c5b6943af0b0" target="_top" xlink:title=" ">
<polygon fill="white" stroke="#666666" points="468.75,-96 363.5,-96 363.5,-76 468.75,-76 468.75,-96"/>
<text xml:space="preserve" text-anchor="middle" x="416.12" y="-82.5" font-family="Helvetica,sans-Serif" font-size="10.00">SDL_AbortAssertion</text>
</a>
</g>
</g>
<!-- Node5&#45;&gt;Node7 -->
<g id="edge6_Node000005_Node000007" class="edge">
<title>Node5&#45;&gt;Node7</title>
<g id="a_edge6_Node000005_Node000007"><a xlink:title=" ">
<path fill="none" stroke="#63b8ff" d="M502.12,-86C491.66,-86 480.23,-86 469.24,-86"/>
<polygon fill="#63b8ff" stroke="#63b8ff" points="501.93,-89.5 511.93,-86 501.93,-82.5 501.93,-89.5"/>
</a>
</g>
</g>
<!-- Node9 -->
<g id="Node000009" class="node">
<title>Node9</title>
<g id="a_Node000009"><a xlink:href="../../d9/d78/SDL__main__callbacks_8c.html#a2e8bd250bb597fdf72c9da9d001181e7" target="_top" xlink:title=" ">
<polygon fill="white" stroke="#666666" points="477.75,-58 354.5,-58 354.5,-38 477.75,-38 477.75,-58"/>
<text xml:space="preserve" text-anchor="middle" x="416.12" y="-44.5" font-family="Helvetica,sans-Serif" font-size="10.00">SDL_QuitMainCallbacks</text>
</a>
</g>
</g>
<!-- Node5&#45;&gt;Node9 -->
<g id="edge8_Node000005_Node000009" class="edge">
<title>Node5&#45;&gt;Node9</title>
<g id="a_edge8_Node000005_Node000009"><a xlink:title=" ">
<path fill="none" stroke="#63b8ff" d="M502.54,-73.97C486.13,-68.98 467.26,-63.24 451.45,-58.43"/>
<polygon fill="#63b8ff" stroke="#63b8ff" points="501.41,-77.28 512,-76.84 503.45,-70.58 501.41,-77.28"/>
</a>
</g>
</g>
<!-- Node8 -->
<g id="Node000008" class="node">
<title>Node8</title>
<g id="a_Node000008"><a xlink:href="../../d3/d6c/SDL__assert_8c.html#a0c9a208493d6e9212cff2ab400242102" target="_top" xlink:title=" ">
<polygon fill="white" stroke="#666666" points="305.75,-96 194.5,-96 194.5,-76 305.75,-76 305.75,-96"/>
<text xml:space="preserve" text-anchor="middle" x="250.12" y="-82.5" font-family="Helvetica,sans-Serif" font-size="10.00">SDL_ReportAssertion</text>
</a>
</g>
</g>
<!-- Node7&#45;&gt;Node8 -->
<g id="edge7_Node000007_Node000008" class="edge">
<title>Node7&#45;&gt;Node8</title>
<g id="a_edge7_Node000007_Node000008"><a xlink:title=" ">
<path fill="none" stroke="#63b8ff" d="M351.89,-86C336.78,-86 320.78,-86 306.08,-86"/>
<polygon fill="#63b8ff" stroke="#63b8ff" points="351.72,-89.5 361.72,-86 351.72,-82.5 351.72,-89.5"/>
</a>
</g>
</g>
<!-- Node10 -->
<g id="Node000010" class="node">
<title>Node10</title>
<g id="a_Node000010"><a xlink:href="../../d0/d72/emscripten_2SDL__sysmain__callbacks_8c.html#ad2e127e4f44ae815197361e79da5bf88" target="_top" xlink:title=" ">
<polygon fill="white" stroke="#666666" points="318.5,-58 181.75,-58 181.75,-38 318.5,-38 318.5,-58"/>
<text xml:space="preserve" text-anchor="middle" x="250.12" y="-44.5" font-family="Helvetica,sans-Serif" font-size="10.00">EmscriptenInternalMainloop</text>
</a>
</g>
</g>
<!-- Node9&#45;&gt;Node10 -->
<g id="edge9_Node000009_Node000010" class="edge">
<title>Node9&#45;&gt;Node10</title>
<g id="a_edge9_Node000009_Node000010"><a xlink:title=" ">
<path fill="none" stroke="#63b8ff" d="M342.61,-48C334.71,-48 326.69,-48 318.86,-48"/>
<polygon fill="#63b8ff" stroke="#63b8ff" points="342.54,-51.5 352.54,-48 342.54,-44.5 342.54,-51.5"/>
</a>
</g>
</g>
<!-- Node11 -->
<g id="Node000011" class="node">
<title>Node11</title>
<g id="a_Node000011"><a xlink:href="../../dd/db5/generic_2SDL__sysmain__callbacks_8c.html#aa50e1897a91f2547b5f31125020220e2" target="_top" xlink:title=" ">
<polygon fill="white" stroke="#666666" points="145.75,-39 0,-39 0,-19 145.75,-19 145.75,-39"/>
<text xml:space="preserve" text-anchor="middle" x="72.88" y="-25.5" font-family="Helvetica,sans-Serif" font-size="10.00">SDL_EnterAppMainCallbacks</text>
</a>
</g>
</g>
<!-- Node9&#45;&gt;Node11 -->
<g id="edge11_Node000009_Node000011" class="edge">
<title>Node9&#45;&gt;Node11</title>
<g id="a_edge11_Node000009_Node000011"><a xlink:title=" ">
<path fill="none" stroke="#63b8ff" d="M360.45,-35.33C346.82,-32.71 332.19,-30.33 318.5,-29 260.7,-23.37 194.84,-23.76 146.04,-25.34"/>
<polygon fill="#63b8ff" stroke="#63b8ff" points="359.64,-38.74 370.14,-37.28 361.02,-31.88 359.64,-38.74"/>
</a>
</g>
</g>
<!-- Node10&#45;&gt;Node11 -->
<g id="edge10_Node000010_Node000011" class="edge">
<title>Node10&#45;&gt;Node11</title>
<g id="a_edge10_Node000010_Node000011"><a xlink:title=" ">
<path fill="none" stroke="#63b8ff" d="M170.14,-39.44C162.13,-38.57 154.03,-37.69 146.1,-36.83"/>
<polygon fill="#63b8ff" stroke="#63b8ff" points="169.55,-42.89 179.86,-40.49 170.3,-35.93 169.55,-42.89"/>
</a>
</g>
</g>
</g>
</svg>
