<?xml version="1.0" encoding="UTF-8" standalone="no"?>
<!DOCTYPE svg PUBLIC "-//W3C//DTD SVG 1.1//EN"
 "http://www.w3.org/Graphics/SVG/1.1/DTD/svg11.dtd">
<!-- Generated by graphviz version 13.1.0 (20250701.0955)
 -->
<!-- Title: SDL_hid_device Pages: 1 -->
<svg width="261pt" height="176pt"
 viewBox="0.00 0.00 261.00 176.00" xmlns="http://www.w3.org/2000/svg" xmlns:xlink="http://www.w3.org/1999/xlink">
<g id="graph0" class="graph" transform="scale(1 1) rotate(0) translate(4 172)">
<title>SDL_hid_device</title>
<!-- Node1 -->
<g id="Node000001" class="node">
<title>Node1</title>
<g id="a_Node000001"><a xlink:title=" ">
<polygon fill="#999999" stroke="#666666" points="142.38,-20 55.12,-20 55.12,0 142.38,0 142.38,-20"/>
<text xml:space="preserve" text-anchor="middle" x="98.75" y="-6.5" font-family="Helvetica,sans-Serif" font-size="10.00">SDL_hid_device</text>
</a>
</g>
</g>
<!-- Node2 -->
<g id="Node000002" class="node">
<title>Node2</title>
<g id="a_Node000002"><a xlink:href="../../d2/df8/structhidapi__backend.html" target="_top" xlink:title=" ">
<polygon fill="white" stroke="#666666" points="83.5,-94 0,-94 0,-74 83.5,-74 83.5,-94"/>
<text xml:space="preserve" text-anchor="middle" x="41.75" y="-80.5" font-family="Helvetica,sans-Serif" font-size="10.00">hidapi_backend</text>
</a>
</g>
</g>
<!-- Node2&#45;&gt;Node1 -->
<g id="edge1_Node000001_Node000002" class="edge">
<title>Node2&#45;&gt;Node1</title>
<g id="a_edge1_Node000001_Node000002"><a xlink:title=" ">
<path fill="none" stroke="#9a32cd" stroke-dasharray="5,2" d="M56.25,-64.68C67.5,-50.47 82.64,-31.36 91.48,-20.19"/>
<polygon fill="#9a32cd" stroke="#9a32cd" points="53.6,-62.39 50.14,-72.4 59.09,-66.73 53.6,-62.39"/>
</a>
</g>
<text xml:space="preserve" text-anchor="start" x="80.03" y="-43.5" font-family="Helvetica,sans-Serif" font-size="10.00" fill="grey">backend</text>
</g>
<!-- Node3 -->
<g id="Node000003" class="node">
<title>Node3</title>
<g id="a_Node000003"><a xlink:href="../../d9/d11/structhid__device__info.html" target="_top" xlink:title=" ">
<polygon fill="white" stroke="#666666" points="83.5,-168 0,-168 0,-148 83.5,-148 83.5,-168"/>
<text xml:space="preserve" text-anchor="middle" x="41.75" y="-154.5" font-family="Helvetica,sans-Serif" font-size="10.00">hid_device_info</text>
</a>
</g>
</g>
<!-- Node3&#45;&gt;Node2 -->
<g id="edge2_Node000002_Node000003" class="edge">
<title>Node3&#45;&gt;Node2</title>
<g id="a_edge2_Node000002_Node000003"><a xlink:title=" ">
<path fill="none" stroke="#9a32cd" stroke-dasharray="5,2" d="M41.75,-136.18C41.75,-122.29 41.75,-104.71 41.75,-94.19"/>
<polygon fill="#9a32cd" stroke="#9a32cd" points="38.25,-136.07 41.75,-146.07 45.25,-136.07 38.25,-136.07"/>
</a>
</g>
<text xml:space="preserve" text-anchor="start" x="44.75" y="-117.5" font-family="Helvetica,sans-Serif" font-size="10.00" fill="grey">hid_get_device_info</text>
</g>
<!-- Node3&#45;&gt;Node3 -->
<g id="edge3_Node000003_Node000003" class="edge">
<title>Node3&#45;&gt;Node3</title>
<g id="a_edge3_Node000003_Node000003"><a xlink:title=" ">
<path fill="none" stroke="#9a32cd" stroke-dasharray="5,2" d="M95.26,-163.12C99.13,-161.96 101.5,-160.26 101.5,-158 101.5,-153.99 94.01,-151.72 83.9,-151.18"/>
<polygon fill="#9a32cd" stroke="#9a32cd" points="94.77,-159.65 85.4,-164.59 95.81,-166.57 94.77,-159.65"/>
</a>
</g>
<text xml:space="preserve" text-anchor="start" x="104.5" y="-154.5" font-family="Helvetica,sans-Serif" font-size="10.00" fill="grey">next</text>
</g>
<!-- Node4 -->
<g id="Node000004" class="node">
<title>Node4</title>
<g id="a_Node000004"><a xlink:href="../../d5/dc9/structSDL__hid__device__info.html" target="_top" xlink:title=" ">
<polygon fill="white" stroke="#666666" points="209.88,-94 101.62,-94 101.62,-74 209.88,-74 209.88,-94"/>
<text xml:space="preserve" text-anchor="middle" x="155.75" y="-80.5" font-family="Helvetica,sans-Serif" font-size="10.00">SDL_hid_device_info</text>
</a>
</g>
</g>
<!-- Node4&#45;&gt;Node1 -->
<g id="edge4_Node000001_Node000004" class="edge">
<title>Node4&#45;&gt;Node1</title>
<g id="a_edge4_Node000001_Node000004"><a xlink:title=" ">
<path fill="none" stroke="#9a32cd" stroke-dasharray="5,2" d="M142.15,-64.49C136.02,-56.29 128.63,-46.58 121.75,-38 116.97,-32.05 111.43,-25.52 106.98,-20.38"/>
<polygon fill="#9a32cd" stroke="#9a32cd" points="139.21,-66.4 147.97,-72.35 144.83,-62.24 139.21,-66.4"/>
</a>
</g>
<text xml:space="preserve" text-anchor="start" x="138.09" y="-43.5" font-family="Helvetica,sans-Serif" font-size="10.00" fill="grey">info</text>
</g>
<!-- Node4&#45;&gt;Node4 -->
<g id="edge5_Node000004_Node000004" class="edge">
<title>Node4&#45;&gt;Node4</title>
<g id="a_edge5_Node000004_Node000004"><a xlink:title=" ">
<path fill="none" stroke="#9a32cd" stroke-dasharray="5,2" d="M221.35,-88.85C225.42,-87.71 227.88,-86.09 227.88,-84 227.88,-80.39 220.54,-78.18 210.16,-77.39"/>
<polygon fill="#9a32cd" stroke="#9a32cd" points="221,-85.36 211.66,-90.37 222.08,-92.28 221,-85.36"/>
</a>
</g>
<text xml:space="preserve" text-anchor="start" x="230.88" y="-80.5" font-family="Helvetica,sans-Serif" font-size="10.00" fill="grey">next</text>
</g>
</g>
</svg>
