<?xml version="1.0" encoding="UTF-8" standalone="no"?>
<!DOCTYPE svg PUBLIC "-//W3C//DTD SVG 1.1//EN"
 "http://www.w3.org/Graphics/SVG/1.1/DTD/svg11.dtd">
<!-- Generated by graphviz version 13.1.0 (20250701.0955)
 -->
<!-- Title: SDL&#45;main/src/cpuinfo/SDL_cpuinfo_c.h Pages: 1 -->
<svg width="244pt" height="108pt"
 viewBox="0.00 0.00 244.00 108.00" xmlns="http://www.w3.org/2000/svg" xmlns:xlink="http://www.w3.org/1999/xlink">
<g id="graph0" class="graph" transform="scale(1 1) rotate(0) translate(4 104)">
<title>SDL&#45;main/src/cpuinfo/SDL_cpuinfo_c.h</title>
<!-- Node1 -->
<g id="Node000001" class="node">
<title>Node1</title>
<g id="a_Node000001"><a xlink:title=" ">
<polygon fill="#999999" stroke="#666666" points="171.62,-100 61.12,-100 61.12,-68 171.62,-68 171.62,-100"/>
<text xml:space="preserve" text-anchor="start" x="69.12" y="-86.5" font-family="Helvetica,sans-Serif" font-size="10.00">SDL&#45;main/src/cpuinfo</text>
<text xml:space="preserve" text-anchor="middle" x="116.38" y="-74.5" font-family="Helvetica,sans-Serif" font-size="10.00">/SDL_cpuinfo_c.h</text>
</a>
</g>
</g>
<!-- Node2 -->
<g id="Node000002" class="node">
<title>Node2</title>
<g id="a_Node000002"><a xlink:href="../../df/d78/SDL_8c.html" target="_top" xlink:title=" ">
<polygon fill="white" stroke="#666666" points="106.75,-26 0,-26 0,-6 106.75,-6 106.75,-26"/>
<text xml:space="preserve" text-anchor="middle" x="53.38" y="-12.5" font-family="Helvetica,sans-Serif" font-size="10.00">SDL&#45;main/src/SDL.c</text>
</a>
</g>
</g>
<!-- Node1&#45;&gt;Node2 -->
<g id="edge1_Node000001_Node000002" class="edge">
<title>Node1&#45;&gt;Node2</title>
<g id="a_edge1_Node000001_Node000002"><a xlink:title=" ">
<path fill="none" stroke="#63b8ff" d="M93.82,-59.37C82.91,-47.95 70.44,-34.88 62.27,-26.32"/>
<polygon fill="#63b8ff" stroke="#63b8ff" points="91.28,-61.78 100.72,-66.6 96.35,-56.95 91.28,-61.78"/>
</a>
</g>
</g>
<!-- Node3 -->
<g id="Node000003" class="node">
<title>Node3</title>
<g id="a_Node000003"><a xlink:href="../../d8/d58/SDL__cpuinfo_8c.html" target="_top" xlink:title=" ">
<polygon fill="white" stroke="#666666" points="235.62,-32 125.12,-32 125.12,0 235.62,0 235.62,-32"/>
<text xml:space="preserve" text-anchor="start" x="133.12" y="-18.5" font-family="Helvetica,sans-Serif" font-size="10.00">SDL&#45;main/src/cpuinfo</text>
<text xml:space="preserve" text-anchor="middle" x="180.38" y="-6.5" font-family="Helvetica,sans-Serif" font-size="10.00">/SDL_cpuinfo.c</text>
</a>
</g>
</g>
<!-- Node1&#45;&gt;Node3 -->
<g id="edge2_Node000001_Node000003" class="edge">
<title>Node1&#45;&gt;Node3</title>
<g id="a_edge2_Node000001_Node000003"><a xlink:title=" ">
<path fill="none" stroke="#63b8ff" d="M139.23,-59.43C148.01,-50.38 157.79,-40.29 165.61,-32.22"/>
<polygon fill="#63b8ff" stroke="#63b8ff" points="136.72,-56.99 132.27,-66.61 141.75,-61.86 136.72,-56.99"/>
</a>
</g>
</g>
</g>
</svg>
