<?xml version="1.0" encoding="UTF-8" standalone="no"?>
<!DOCTYPE svg PUBLIC "-//W3C//DTD SVG 1.1//EN"
 "http://www.w3.org/Graphics/SVG/1.1/DTD/svg11.dtd">
<!-- Generated by graphviz version 13.1.0 (20250701.0955)
 -->
<!-- Title: SDL_HIDAPI_Device Pages: 1 -->
<svg width="711pt" height="280pt"
 viewBox="0.00 0.00 711.00 280.00" xmlns="http://www.w3.org/2000/svg" xmlns:xlink="http://www.w3.org/1999/xlink">
<g id="graph0" class="graph" transform="scale(1 1) rotate(0) translate(4 276)">
<title>SDL_HIDAPI_Device</title>
<!-- Node1 -->
<g id="Node000001" class="node">
<title>Node1</title>
<g id="a_Node000001"><a xlink:title=" ">
<polygon fill="#999999" stroke="#666666" points="338.75,-35 227.5,-35 227.5,-15 338.75,-15 338.75,-35"/>
<text xml:space="preserve" text-anchor="middle" x="283.12" y="-21.5" font-family="Helvetica,sans-Serif" font-size="10.00">SDL_HIDAPI_Device</text>
</a>
</g>
</g>
<!-- Node1&#45;&gt;Node1 -->
<g id="edge14_Node000001_Node000001" class="edge">
<title>Node1&#45;&gt;Node1</title>
<g id="a_edge14_Node000001_Node000001"><a xlink:title=" ">
<path fill="none" stroke="#9a32cd" stroke-dasharray="5,2" d="M350.21,-31.77C354.3,-30.16 356.75,-27.91 356.75,-25 356.75,-19.97 349.41,-16.89 338.99,-15.75"/>
<polygon fill="#9a32cd" stroke="#9a32cd" points="349.47,-28.35 340.46,-33.92 350.98,-35.18 349.47,-28.35"/>
</a>
</g>
<text xml:space="preserve" text-anchor="start" x="359.75" y="-37.5" font-family="Helvetica,sans-Serif" font-size="10.00" fill="grey">children</text>
<text xml:space="preserve" text-anchor="start" x="359.75" y="-21.5" font-family="Helvetica,sans-Serif" font-size="10.00" fill="grey">next</text>
<text xml:space="preserve" text-anchor="start" x="359.75" y="-5.5" font-family="Helvetica,sans-Serif" font-size="10.00" fill="grey">parent</text>
</g>
<!-- Node2 -->
<g id="Node000002" class="node">
<title>Node2</title>
<g id="a_Node000002"><a xlink:href="../../dd/d35/structSDL__GUID.html" target="_top" xlink:title=" ">
<polygon fill="white" stroke="#666666" points="66.25,-124 0,-124 0,-104 66.25,-104 66.25,-124"/>
<text xml:space="preserve" text-anchor="middle" x="33.12" y="-110.5" font-family="Helvetica,sans-Serif" font-size="10.00">SDL_GUID</text>
</a>
</g>
</g>
<!-- Node2&#45;&gt;Node1 -->
<g id="edge1_Node000001_Node000002" class="edge">
<title>Node2&#45;&gt;Node1</title>
<g id="a_edge1_Node000001_Node000002"><a xlink:title=" ">
<path fill="none" stroke="#9a32cd" stroke-dasharray="5,2" d="M71.22,-99.74C122.17,-82.01 211.24,-51.02 255.93,-35.46"/>
<polygon fill="#9a32cd" stroke="#9a32cd" points="70.08,-96.43 61.78,-103.03 72.38,-103.05 70.08,-96.43"/>
</a>
</g>
<text xml:space="preserve" text-anchor="start" x="161.12" y="-73.5" font-family="Helvetica,sans-Serif" font-size="10.00" fill="grey">guid</text>
</g>
<!-- Node3 -->
<g id="Node000003" class="node">
<title>Node3</title>
<g id="a_Node000003"><a xlink:href="../../dd/ddb/structSDL__HIDAPI__DeviceDriver.html" target="_top" xlink:title=" ">
<polygon fill="white" stroke="#666666" points="221.88,-124 84.38,-124 84.38,-104 221.88,-104 221.88,-124"/>
<text xml:space="preserve" text-anchor="middle" x="153.12" y="-110.5" font-family="Helvetica,sans-Serif" font-size="10.00">SDL_HIDAPI_DeviceDriver</text>
</a>
</g>
</g>
<!-- Node3&#45;&gt;Node1 -->
<g id="edge2_Node000001_Node000003" class="edge">
<title>Node3&#45;&gt;Node1</title>
<g id="a_edge2_Node000001_Node000003"><a xlink:title=" ">
<path fill="none" stroke="#9a32cd" stroke-dasharray="5,2" d="M176.73,-97.2C203.66,-79.18 246.82,-50.3 268.98,-35.46"/>
<polygon fill="#9a32cd" stroke="#9a32cd" points="174.91,-94.21 168.54,-102.68 178.8,-100.03 174.91,-94.21"/>
</a>
</g>
<text xml:space="preserve" text-anchor="start" x="221.12" y="-73.5" font-family="Helvetica,sans-Serif" font-size="10.00" fill="grey">driver</text>
</g>
<!-- Node4 -->
<g id="Node000004" class="node">
<title>Node4</title>
<g id="a_Node000004"><a xlink:href="../../d0/df2/structSDL__Mutex.html" target="_top" xlink:title=" ">
<polygon fill="white" stroke="#666666" points="556,-124 488.25,-124 488.25,-104 556,-104 556,-124"/>
<text xml:space="preserve" text-anchor="middle" x="522.12" y="-110.5" font-family="Helvetica,sans-Serif" font-size="10.00">SDL_Mutex</text>
</a>
</g>
</g>
<!-- Node4&#45;&gt;Node1 -->
<g id="edge3_Node000001_Node000004" class="edge">
<title>Node4&#45;&gt;Node1</title>
<g id="a_edge3_Node000001_Node000004"><a xlink:title=" ">
<path fill="none" stroke="#9a32cd" stroke-dasharray="5,2" d="M491.97,-98.64C483.58,-94.59 474.48,-90.16 466.12,-86 450.47,-78.2 447.4,-74.42 431.12,-68 396.09,-54.18 354.75,-42.84 324.68,-35.44"/>
<polygon fill="#9a32cd" stroke="#9a32cd" points="490.21,-101.68 500.74,-102.85 493.24,-95.36 490.21,-101.68"/>
</a>
</g>
<text xml:space="preserve" text-anchor="start" x="469.12" y="-73.5" font-family="Helvetica,sans-Serif" font-size="10.00" fill="grey">dev_lock</text>
</g>
<!-- Node5 -->
<g id="Node000005" class="node">
<title>Node5</title>
<g id="a_Node000005"><a xlink:href="../../d8/d0b/structSDL__Semaphore.html" target="_top" xlink:title=" ">
<polygon fill="white" stroke="#666666" points="643.25,-35 553,-35 553,-15 643.25,-15 643.25,-35"/>
<text xml:space="preserve" text-anchor="middle" x="598.12" y="-21.5" font-family="Helvetica,sans-Serif" font-size="10.00">SDL_Semaphore</text>
</a>
</g>
</g>
<!-- Node4&#45;&gt;Node5 -->
<g id="edge5_Node000005_Node000004" class="edge">
<title>Node4&#45;&gt;Node5</title>
<g id="a_edge5_Node000005_Node000004"><a xlink:title=" ">
<path fill="none" stroke="#9a32cd" stroke-dasharray="5,2" d="M515.78,-92.73C514.41,-84.53 514.48,-75.3 518.88,-68 528.51,-51.99 546.53,-41.76 562.95,-35.41"/>
<polygon fill="#9a32cd" stroke="#9a32cd" points="512.32,-93.32 518.12,-102.18 519.12,-91.63 512.32,-93.32"/>
</a>
</g>
<text xml:space="preserve" text-anchor="start" x="521.88" y="-73.5" font-family="Helvetica,sans-Serif" font-size="10.00" fill="grey">count_lock</text>
</g>
<!-- Node5&#45;&gt;Node4 -->
<g id="edge4_Node000004_Node000005" class="edge">
<title>Node5&#45;&gt;Node4</title>
<g id="a_edge4_Node000004_Node000005"><a xlink:title=" ">
<path fill="none" stroke="#9a32cd" stroke-dasharray="5,2" d="M594.61,-46.48C591.55,-59.11 585.99,-74.96 576.12,-86 569.28,-93.66 559.76,-99.41 550.62,-103.59"/>
<polygon fill="#9a32cd" stroke="#9a32cd" points="598.04,-47.2 596.61,-36.7 591.18,-45.8 598.04,-47.2"/>
</a>
</g>
<text xml:space="preserve" text-anchor="start" x="590.19" y="-73.5" font-family="Helvetica,sans-Serif" font-size="10.00" fill="grey">sem</text>
</g>
<!-- Node6 -->
<g id="Node000006" class="node">
<title>Node6</title>
<g id="a_Node000006"><a xlink:href="../../d0/d07/structSDL__Condition.html" target="_top" xlink:title=" ">
<polygon fill="white" stroke="#666666" points="687.12,-124 605.12,-124 605.12,-104 687.12,-104 687.12,-124"/>
<text xml:space="preserve" text-anchor="middle" x="646.12" y="-110.5" font-family="Helvetica,sans-Serif" font-size="10.00">SDL_Condition</text>
</a>
</g>
</g>
<!-- Node6&#45;&gt;Node5 -->
<g id="edge6_Node000005_Node000006" class="edge">
<title>Node6&#45;&gt;Node5</title>
<g id="a_edge6_Node000005_Node000006"><a xlink:title=" ">
<path fill="none" stroke="#9a32cd" stroke-dasharray="5,2" d="M637.05,-93.38C633.24,-85.41 628.64,-76.18 624.12,-68 617.74,-56.44 609.63,-43.59 604.18,-35.18"/>
<polygon fill="#9a32cd" stroke="#9a32cd" points="633.77,-94.62 641.2,-102.18 640.11,-91.65 633.77,-94.62"/>
</a>
</g>
<text xml:space="preserve" text-anchor="start" x="636.02" y="-73.5" font-family="Helvetica,sans-Serif" font-size="10.00" fill="grey">count_nonzero</text>
</g>
<!-- Node7 -->
<g id="Node000007" class="node">
<title>Node7</title>
<g id="a_Node000007"><a xlink:href="../../d5/db5/structSDL__hid__device.html" target="_top" xlink:title=" ">
<polygon fill="white" stroke="#666666" points="326.75,-124 239.5,-124 239.5,-104 326.75,-104 326.75,-124"/>
<text xml:space="preserve" text-anchor="middle" x="283.12" y="-110.5" font-family="Helvetica,sans-Serif" font-size="10.00">SDL_hid_device</text>
</a>
</g>
</g>
<!-- Node7&#45;&gt;Node1 -->
<g id="edge7_Node000001_Node000007" class="edge">
<title>Node7&#45;&gt;Node1</title>
<g id="a_edge7_Node000001_Node000007"><a xlink:title=" ">
<path fill="none" stroke="#9a32cd" stroke-dasharray="5,2" d="M283.12,-92.32C283.12,-74.21 283.12,-48.74 283.12,-35.24"/>
<polygon fill="#9a32cd" stroke="#9a32cd" points="279.63,-92.18 283.13,-102.18 286.63,-92.18 279.63,-92.18"/>
</a>
</g>
<text xml:space="preserve" text-anchor="start" x="286.12" y="-73.5" font-family="Helvetica,sans-Serif" font-size="10.00" fill="grey">dev</text>
</g>
<!-- Node8 -->
<g id="Node000008" class="node">
<title>Node8</title>
<g id="a_Node000008"><a xlink:href="../../d2/df8/structhidapi__backend.html" target="_top" xlink:title=" ">
<polygon fill="white" stroke="#666666" points="261.88,-198 178.38,-198 178.38,-178 261.88,-178 261.88,-198"/>
<text xml:space="preserve" text-anchor="middle" x="220.12" y="-184.5" font-family="Helvetica,sans-Serif" font-size="10.00">hidapi_backend</text>
</a>
</g>
</g>
<!-- Node8&#45;&gt;Node7 -->
<g id="edge8_Node000007_Node000008" class="edge">
<title>Node8&#45;&gt;Node7</title>
<g id="a_edge8_Node000007_Node000008"><a xlink:title=" ">
<path fill="none" stroke="#9a32cd" stroke-dasharray="5,2" d="M233.69,-168.54C240.03,-160.22 247.83,-150.4 255.38,-142 260.85,-135.9 267.41,-129.48 272.78,-124.43"/>
<polygon fill="#9a32cd" stroke="#9a32cd" points="230.9,-166.43 227.71,-176.53 236.5,-170.63 230.9,-166.43"/>
</a>
</g>
<text xml:space="preserve" text-anchor="start" x="258.38" y="-147.5" font-family="Helvetica,sans-Serif" font-size="10.00" fill="grey">backend</text>
</g>
<!-- Node9 -->
<g id="Node000009" class="node">
<title>Node9</title>
<g id="a_Node000009"><a xlink:href="../../d9/d11/structhid__device__info.html" target="_top" xlink:title=" ">
<polygon fill="white" stroke="#666666" points="261.88,-272 178.38,-272 178.38,-252 261.88,-252 261.88,-272"/>
<text xml:space="preserve" text-anchor="middle" x="220.12" y="-258.5" font-family="Helvetica,sans-Serif" font-size="10.00">hid_device_info</text>
</a>
</g>
</g>
<!-- Node9&#45;&gt;Node8 -->
<g id="edge9_Node000008_Node000009" class="edge">
<title>Node9&#45;&gt;Node8</title>
<g id="a_edge9_Node000008_Node000009"><a xlink:title=" ">
<path fill="none" stroke="#9a32cd" stroke-dasharray="5,2" d="M220.12,-240.18C220.12,-226.29 220.12,-208.71 220.12,-198.19"/>
<polygon fill="#9a32cd" stroke="#9a32cd" points="216.63,-240.07 220.13,-250.07 223.63,-240.07 216.63,-240.07"/>
</a>
</g>
<text xml:space="preserve" text-anchor="start" x="223.12" y="-221.5" font-family="Helvetica,sans-Serif" font-size="10.00" fill="grey">hid_get_device_info</text>
</g>
<!-- Node9&#45;&gt;Node9 -->
<g id="edge10_Node000009_Node000009" class="edge">
<title>Node9&#45;&gt;Node9</title>
<g id="a_edge10_Node000009_Node000009"><a xlink:title=" ">
<path fill="none" stroke="#9a32cd" stroke-dasharray="5,2" d="M273.63,-267.12C277.51,-265.96 279.88,-264.26 279.88,-262 279.88,-257.99 272.39,-255.72 262.28,-255.18"/>
<polygon fill="#9a32cd" stroke="#9a32cd" points="273.15,-263.65 263.78,-268.59 274.18,-270.57 273.15,-263.65"/>
</a>
</g>
<text xml:space="preserve" text-anchor="start" x="282.88" y="-258.5" font-family="Helvetica,sans-Serif" font-size="10.00" fill="grey">next</text>
</g>
<!-- Node10 -->
<g id="Node000010" class="node">
<title>Node10</title>
<g id="a_Node000010"><a xlink:href="../../d5/dc9/structSDL__hid__device__info.html" target="_top" xlink:title=" ">
<polygon fill="white" stroke="#666666" points="388.25,-198 280,-198 280,-178 388.25,-178 388.25,-198"/>
<text xml:space="preserve" text-anchor="middle" x="334.12" y="-184.5" font-family="Helvetica,sans-Serif" font-size="10.00">SDL_hid_device_info</text>
</a>
</g>
</g>
<!-- Node10&#45;&gt;Node7 -->
<g id="edge11_Node000007_Node000010" class="edge">
<title>Node10&#45;&gt;Node7</title>
<g id="a_edge11_Node000007_Node000010"><a xlink:title=" ">
<path fill="none" stroke="#9a32cd" stroke-dasharray="5,2" d="M320.86,-168.27C310.82,-154.1 297.47,-135.25 289.63,-124.19"/>
<polygon fill="#9a32cd" stroke="#9a32cd" points="317.95,-170.21 326.58,-176.35 323.66,-166.17 317.95,-170.21"/>
</a>
</g>
<text xml:space="preserve" text-anchor="start" x="317.69" y="-147.5" font-family="Helvetica,sans-Serif" font-size="10.00" fill="grey">info</text>
</g>
<!-- Node10&#45;&gt;Node10 -->
<g id="edge12_Node000010_Node000010" class="edge">
<title>Node10&#45;&gt;Node10</title>
<g id="a_edge12_Node000010_Node000010"><a xlink:title=" ">
<path fill="none" stroke="#9a32cd" stroke-dasharray="5,2" d="M399.72,-192.85C403.8,-191.71 406.25,-190.09 406.25,-188 406.25,-184.39 398.91,-182.18 388.54,-181.39"/>
<polygon fill="#9a32cd" stroke="#9a32cd" points="399.37,-189.36 390.03,-194.37 400.45,-196.28 399.37,-189.36"/>
</a>
</g>
<text xml:space="preserve" text-anchor="start" x="409.25" y="-184.5" font-family="Helvetica,sans-Serif" font-size="10.00" fill="grey">next</text>
</g>
<!-- Node11 -->
<g id="Node000011" class="node">
<title>Node11</title>
<g id="a_Node000011"><a xlink:href="../../d1/dbc/structSDL__AtomicInt.html" target="_top" xlink:title=" ">
<polygon fill="white" stroke="#666666" points="427.5,-124 344.75,-124 344.75,-104 427.5,-104 427.5,-124"/>
<text xml:space="preserve" text-anchor="middle" x="386.12" y="-110.5" font-family="Helvetica,sans-Serif" font-size="10.00">SDL_AtomicInt</text>
</a>
</g>
</g>
<!-- Node11&#45;&gt;Node1 -->
<g id="edge13_Node000001_Node000011" class="edge">
<title>Node11&#45;&gt;Node1</title>
<g id="a_edge13_Node000001_Node000011"><a xlink:title=" ">
<path fill="none" stroke="#9a32cd" stroke-dasharray="5,2" d="M366.45,-96.38C344.95,-78.22 311.29,-49.79 294.07,-35.24"/>
<polygon fill="#9a32cd" stroke="#9a32cd" points="364.05,-98.93 373.95,-102.71 368.56,-93.59 364.05,-98.93"/>
</a>
</g>
<text xml:space="preserve" text-anchor="start" x="355.81" y="-73.5" font-family="Helvetica,sans-Serif" font-size="10.00" fill="grey">rumble_pending</text>
</g>
</g>
</svg>
