<?xml version="1.0" encoding="UTF-8" standalone="no"?>
<!DOCTYPE svg PUBLIC "-//W3C//DTD SVG 1.1//EN"
 "http://www.w3.org/Graphics/SVG/1.1/DTD/svg11.dtd">
<!-- Generated by graphviz version 13.1.0 (20250701.0955)
 -->
<!-- Title: VkVideoEncodeH264DpbSlotInfoKHR Pages: 1 -->
<svg width="183pt" height="200pt"
 viewBox="0.00 0.00 183.00 200.00" xmlns="http://www.w3.org/2000/svg" xmlns:xlink="http://www.w3.org/1999/xlink">
<g id="graph0" class="graph" transform="scale(1 1) rotate(0) translate(4 196)">
<title>VkVideoEncodeH264DpbSlotInfoKHR</title>
<!-- Node1 -->
<g id="Node000001" class="node">
<title>Node1</title>
<g id="a_Node000001"><a xlink:title=" ">
<polygon fill="#999999" stroke="#666666" points="158.88,-32 14.62,-32 14.62,0 158.88,0 158.88,-32"/>
<text xml:space="preserve" text-anchor="start" x="22.62" y="-18.5" font-family="Helvetica,sans-Serif" font-size="10.00">VkVideoEncodeH264DpbSlot</text>
<text xml:space="preserve" text-anchor="middle" x="86.75" y="-6.5" font-family="Helvetica,sans-Serif" font-size="10.00">InfoKHR</text>
</a>
</g>
</g>
<!-- Node2 -->
<g id="Node000002" class="node">
<title>Node2</title>
<g id="a_Node000002"><a xlink:href="../../d2/d57/structStdVideoEncodeH264ReferenceInfo.html" target="_top" xlink:title=" ">
<polygon fill="white" stroke="#666666" points="173.5,-106 0,-106 0,-86 173.5,-86 173.5,-106"/>
<text xml:space="preserve" text-anchor="middle" x="86.75" y="-92.5" font-family="Helvetica,sans-Serif" font-size="10.00">StdVideoEncodeH264ReferenceInfo</text>
</a>
</g>
</g>
<!-- Node2&#45;&gt;Node1 -->
<g id="edge1_Node000001_Node000002" class="edge">
<title>Node2&#45;&gt;Node1</title>
<g id="a_edge1_Node000001_Node000002"><a xlink:title=" ">
<path fill="none" stroke="#9a32cd" stroke-dasharray="5,2" d="M86.75,-74.51C86.75,-61.32 86.75,-44.47 86.75,-32.42"/>
<polygon fill="#9a32cd" stroke="#9a32cd" points="83.25,-74.23 86.75,-84.23 90.25,-74.23 83.25,-74.23"/>
</a>
</g>
<text xml:space="preserve" text-anchor="start" x="89.75" y="-55.5" font-family="Helvetica,sans-Serif" font-size="10.00" fill="grey">pStdReferenceInfo</text>
</g>
<!-- Node3 -->
<g id="Node000003" class="node">
<title>Node3</title>
<g id="a_Node000003"><a xlink:href="../../d5/d4f/structStdVideoEncodeH264ReferenceInfoFlags.html" target="_top" xlink:title=" ">
<polygon fill="white" stroke="#666666" points="165.25,-192 8.25,-192 8.25,-160 165.25,-160 165.25,-192"/>
<text xml:space="preserve" text-anchor="start" x="16.25" y="-178.5" font-family="Helvetica,sans-Serif" font-size="10.00">StdVideoEncodeH264Reference</text>
<text xml:space="preserve" text-anchor="middle" x="86.75" y="-166.5" font-family="Helvetica,sans-Serif" font-size="10.00">InfoFlags</text>
</a>
</g>
</g>
<!-- Node3&#45;&gt;Node2 -->
<g id="edge2_Node000002_Node000003" class="edge">
<title>Node3&#45;&gt;Node2</title>
<g id="a_edge2_Node000002_Node000003"><a xlink:title=" ">
<path fill="none" stroke="#9a32cd" stroke-dasharray="5,2" d="M86.75,-148.23C86.75,-133.77 86.75,-116.81 86.75,-106.49"/>
<polygon fill="#9a32cd" stroke="#9a32cd" points="83.25,-148.08 86.75,-158.08 90.25,-148.08 83.25,-148.08"/>
</a>
</g>
<text xml:space="preserve" text-anchor="start" x="89.75" y="-129.5" font-family="Helvetica,sans-Serif" font-size="10.00" fill="grey">flags</text>
</g>
</g>
</svg>
