<?xml version="1.0" encoding="UTF-8" standalone="no"?>
<!DOCTYPE svg PUBLIC "-//W3C//DTD SVG 1.1//EN"
 "http://www.w3.org/Graphics/SVG/1.1/DTD/svg11.dtd">
<!-- Generated by graphviz version 13.1.0 (20250701.0955)
 -->
<!-- Title: SDL&#45;main/src/video/khronos/vk_video/vulkan_video_codec_av1std.h Pages: 1 -->
<svg width="284pt" height="348pt"
 viewBox="0.00 0.00 284.00 348.00" xmlns="http://www.w3.org/2000/svg" xmlns:xlink="http://www.w3.org/1999/xlink">
<g id="graph0" class="graph" transform="scale(1 1) rotate(0) translate(4 344)">
<title>SDL&#45;main/src/video/khronos/vk_video/vulkan_video_codec_av1std.h</title>
<!-- Node1 -->
<g id="Node000001" class="node">
<title>Node1</title>
<g id="a_Node000001"><a xlink:title=" ">
<polygon fill="#999999" stroke="#666666" points="203,-340 76,-340 76,-296 203,-296 203,-340"/>
<text xml:space="preserve" text-anchor="start" x="84" y="-326.5" font-family="Helvetica,sans-Serif" font-size="10.00">SDL&#45;main/src/video</text>
<text xml:space="preserve" text-anchor="start" x="84" y="-314.5" font-family="Helvetica,sans-Serif" font-size="10.00">/khronos/vk_video/vulkan</text>
<text xml:space="preserve" text-anchor="middle" x="139.5" y="-302.5" font-family="Helvetica,sans-Serif" font-size="10.00">_video_codec_av1std.h</text>
</a>
</g>
</g>
<!-- Node2 -->
<g id="Node000002" class="node">
<title>Node2</title>
<g id="a_Node000002"><a xlink:href="../../dc/d65/vulkan__video__codec__av1std__decode_8h.html" target="_top" xlink:title=" ">
<polygon fill="white" stroke="#666666" points="164.25,-260 8.75,-260 8.75,-216 164.25,-216 164.25,-260"/>
<text xml:space="preserve" text-anchor="start" x="16.75" y="-246.5" font-family="Helvetica,sans-Serif" font-size="10.00">SDL&#45;main/src/video</text>
<text xml:space="preserve" text-anchor="start" x="16.75" y="-234.5" font-family="Helvetica,sans-Serif" font-size="10.00">/khronos/vk_video/vulkan</text>
<text xml:space="preserve" text-anchor="middle" x="86.5" y="-222.5" font-family="Helvetica,sans-Serif" font-size="10.00">_video_codec_av1std_decode.h</text>
</a>
</g>
</g>
<!-- Node1&#45;&gt;Node2 -->
<g id="edge1_Node000001_Node000002" class="edge">
<title>Node1&#45;&gt;Node2</title>
<g id="a_edge1_Node000001_Node000002"><a xlink:title=" ">
<path fill="none" stroke="#63b8ff" d="M118.59,-286.22C112.68,-277.54 106.4,-268.28 100.96,-260.29"/>
<polygon fill="#63b8ff" stroke="#63b8ff" points="115.65,-288.13 124.17,-294.43 121.44,-284.2 115.65,-288.13"/>
</a>
</g>
</g>
<!-- Node3 -->
<g id="Node000003" class="node">
<title>Node3</title>
<g id="a_Node000003"><a xlink:href="../../de/d3d/vulkan__core_8h.html" target="_top" xlink:title=" ">
<polygon fill="white" stroke="#666666" points="197.75,-180 81.25,-180 81.25,-136 197.75,-136 197.75,-180"/>
<text xml:space="preserve" text-anchor="start" x="89.25" y="-166.5" font-family="Helvetica,sans-Serif" font-size="10.00">SDL&#45;main/src/video</text>
<text xml:space="preserve" text-anchor="start" x="89.25" y="-154.5" font-family="Helvetica,sans-Serif" font-size="10.00">/khronos/vulkan/vulkan</text>
<text xml:space="preserve" text-anchor="middle" x="139.5" y="-142.5" font-family="Helvetica,sans-Serif" font-size="10.00">_core.h</text>
</a>
</g>
</g>
<!-- Node1&#45;&gt;Node3 -->
<g id="edge6_Node000001_Node000003" class="edge">
<title>Node1&#45;&gt;Node3</title>
<g id="a_edge6_Node000001_Node000003"><a xlink:title=" ">
<path fill="none" stroke="#63b8ff" d="M162.11,-285.87C166.8,-277.82 171.05,-268.9 173.5,-260 178.7,-241.15 178.7,-234.85 173.5,-216 170.01,-203.34 162.89,-190.65 156.06,-180.47"/>
<polygon fill="#63b8ff" stroke="#63b8ff" points="159.21,-283.92 156.86,-294.25 165.14,-287.64 159.21,-283.92"/>
</a>
</g>
</g>
<!-- Node2&#45;&gt;Node3 -->
<g id="edge2_Node000002_Node000003" class="edge">
<title>Node2&#45;&gt;Node3</title>
<g id="a_edge2_Node000002_Node000003"><a xlink:title=" ">
<path fill="none" stroke="#63b8ff" d="M107.41,-206.22C113.32,-197.54 119.6,-188.28 125.04,-180.29"/>
<polygon fill="#63b8ff" stroke="#63b8ff" points="104.56,-204.2 101.83,-214.43 110.35,-208.13 104.56,-204.2"/>
</a>
</g>
</g>
<!-- Node4 -->
<g id="Node000004" class="node">
<title>Node4</title>
<g id="a_Node000004"><a xlink:href="../../d6/d8f/vk__layer_8h.html" target="_top" xlink:title=" ">
<polygon fill="white" stroke="#666666" points="133,-100 0,-100 0,-68 133,-68 133,-100"/>
<text xml:space="preserve" text-anchor="start" x="8" y="-86.5" font-family="Helvetica,sans-Serif" font-size="10.00">SDL&#45;main/src/video</text>
<text xml:space="preserve" text-anchor="middle" x="66.5" y="-74.5" font-family="Helvetica,sans-Serif" font-size="10.00">/khronos/vulkan/vk_layer.h</text>
</a>
</g>
</g>
<!-- Node3&#45;&gt;Node4 -->
<g id="edge3_Node000003_Node000004" class="edge">
<title>Node3&#45;&gt;Node4</title>
<g id="a_edge3_Node000003_Node000004"><a xlink:title=" ">
<path fill="none" stroke="#63b8ff" d="M109.8,-127.7C100.2,-118.24 89.95,-108.13 81.84,-100.13"/>
<polygon fill="#63b8ff" stroke="#63b8ff" points="107.34,-130.19 116.91,-134.72 112.25,-125.21 107.34,-130.19"/>
</a>
</g>
</g>
<!-- Node5 -->
<g id="Node000005" class="node">
<title>Node5</title>
<g id="a_Node000005"><a xlink:href="../../d8/d55/vulkan_8h.html" target="_top" xlink:title=" ">
<polygon fill="white" stroke="#666666" points="275.88,-100 151.12,-100 151.12,-68 275.88,-68 275.88,-100"/>
<text xml:space="preserve" text-anchor="start" x="159.12" y="-86.5" font-family="Helvetica,sans-Serif" font-size="10.00">SDL&#45;main/src/video</text>
<text xml:space="preserve" text-anchor="middle" x="213.5" y="-74.5" font-family="Helvetica,sans-Serif" font-size="10.00">/khronos/vulkan/vulkan.h</text>
</a>
</g>
</g>
<!-- Node3&#45;&gt;Node5 -->
<g id="edge4_Node000003_Node000005" class="edge">
<title>Node3&#45;&gt;Node5</title>
<g id="a_edge4_Node000003_Node000005"><a xlink:title=" ">
<path fill="none" stroke="#63b8ff" d="M169.32,-127.99C179.13,-118.44 189.64,-108.21 197.95,-100.13"/>
<polygon fill="#63b8ff" stroke="#63b8ff" points="167.11,-125.25 162.39,-134.73 172,-130.27 167.11,-125.25"/>
</a>
</g>
</g>
<!-- Node6 -->
<g id="Node000006" class="node">
<title>Node6</title>
<g id="a_Node000006"><a xlink:href="../../dc/d5e/vk__icd_8h.html" target="_top" xlink:title=" ">
<polygon fill="white" stroke="#666666" points="275.88,-32 151.12,-32 151.12,0 275.88,0 275.88,-32"/>
<text xml:space="preserve" text-anchor="start" x="159.12" y="-18.5" font-family="Helvetica,sans-Serif" font-size="10.00">SDL&#45;main/src/video</text>
<text xml:space="preserve" text-anchor="middle" x="213.5" y="-6.5" font-family="Helvetica,sans-Serif" font-size="10.00">/khronos/vulkan/vk_icd.h</text>
</a>
</g>
</g>
<!-- Node5&#45;&gt;Node6 -->
<g id="edge5_Node000005_Node000006" class="edge">
<title>Node5&#45;&gt;Node6</title>
<g id="a_edge5_Node000005_Node000006"><a xlink:title=" ">
<path fill="none" stroke="#63b8ff" d="M213.5,-56.31C213.5,-48.12 213.5,-39.38 213.5,-32.22"/>
<polygon fill="#63b8ff" stroke="#63b8ff" points="210,-56.18 213.5,-66.18 217,-56.18 210,-56.18"/>
</a>
</g>
</g>
</g>
</svg>
