<?xml version="1.0" encoding="UTF-8" standalone="no"?>
<!DOCTYPE svg PUBLIC "-//W3C//DTD SVG 1.1//EN"
 "http://www.w3.org/Graphics/SVG/1.1/DTD/svg11.dtd">
<!-- Generated by graphviz version 13.1.0 (20250701.0955)
 -->
<!-- Title: SDL_QuitTimers Pages: 1 -->
<svg width="731pt" height="180pt"
 viewBox="0.00 0.00 731.00 180.00" xmlns="http://www.w3.org/2000/svg" xmlns:xlink="http://www.w3.org/1999/xlink">
<g id="graph0" class="graph" transform="scale(1 1) rotate(0) translate(4 176)">
<title>SDL_QuitTimers</title>
<!-- Node1 -->
<g id="Node000001" class="node">
<title>Node1</title>
<g id="a_Node000001"><a xlink:title=" ">
<polygon fill="#999999" stroke="#666666" points="722.75,-115 634,-115 634,-95 722.75,-95 722.75,-115"/>
<text xml:space="preserve" text-anchor="middle" x="678.38" y="-101.5" font-family="Helvetica,sans-Serif" font-size="10.00">SDL_QuitTimers</text>
</a>
</g>
</g>
<!-- Node2 -->
<g id="Node000002" class="node">
<title>Node2</title>
<g id="a_Node000002"><a xlink:href="../../d7/d6c/SDL__timer_8c.html#a1fa564f8f53956683659fc79e0d03e22" target="_top" xlink:title=" ">
<polygon fill="white" stroke="#666666" points="598,-143 513.75,-143 513.75,-123 598,-123 598,-143"/>
<text xml:space="preserve" text-anchor="middle" x="555.88" y="-129.5" font-family="Helvetica,sans-Serif" font-size="10.00">SDL_InitTimers</text>
</a>
</g>
</g>
<!-- Node1&#45;&gt;Node2 -->
<g id="edge1_Node000001_Node000002" class="edge">
<title>Node1&#45;&gt;Node2</title>
<g id="a_edge1_Node000001_Node000002"><a xlink:title=" ">
<path fill="none" stroke="#63b8ff" d="M622.34,-117.79C614.32,-119.65 606.17,-121.55 598.48,-123.33"/>
<polygon fill="#63b8ff" stroke="#63b8ff" points="623.11,-121.2 632.06,-115.53 621.52,-114.38 623.11,-121.2"/>
</a>
</g>
</g>
<!-- Node7 -->
<g id="Node000007" class="node">
<title>Node7</title>
<g id="a_Node000007"><a xlink:href="../../df/d78/SDL_8c.html#abf064fcc4a657a30db8eace18633f362" target="_top" xlink:title=" ">
<polygon fill="white" stroke="#666666" points="585.25,-96 526.5,-96 526.5,-76 585.25,-76 585.25,-96"/>
<text xml:space="preserve" text-anchor="middle" x="555.88" y="-82.5" font-family="Helvetica,sans-Serif" font-size="10.00">SDL_Quit</text>
</a>
</g>
</g>
<!-- Node1&#45;&gt;Node7 -->
<g id="edge6_Node000001_Node000007" class="edge">
<title>Node1&#45;&gt;Node7</title>
<g id="a_edge6_Node000001_Node000007"><a xlink:title=" ">
<path fill="none" stroke="#63b8ff" d="M622.45,-96.34C609.67,-94.32 596.57,-92.26 585.48,-90.51"/>
<polygon fill="#63b8ff" stroke="#63b8ff" points="621.61,-99.75 632.04,-97.85 622.7,-92.84 621.61,-99.75"/>
</a>
</g>
</g>
<!-- Node3 -->
<g id="Node000003" class="node">
<title>Node3</title>
<g id="a_Node000003"><a xlink:href="../../d7/d6c/SDL__timer_8c.html#a15fc4e05c135f7df5bf3578f9bef04f6" target="_top" xlink:title=" ">
<polygon fill="white" stroke="#666666" points="472.5,-153 359.75,-153 359.75,-133 472.5,-133 472.5,-153"/>
<text xml:space="preserve" text-anchor="middle" x="416.12" y="-139.5" font-family="Helvetica,sans-Serif" font-size="10.00">SDL_CheckInitTimers</text>
</a>
</g>
</g>
<!-- Node2&#45;&gt;Node3 -->
<g id="edge2_Node000002_Node000003" class="edge">
<title>Node2&#45;&gt;Node3</title>
<g id="a_edge2_Node000002_Node000003"><a xlink:title=" ">
<path fill="none" stroke="#63b8ff" d="M502.16,-136.83C492.6,-137.52 482.6,-138.25 472.95,-138.95"/>
<polygon fill="#63b8ff" stroke="#63b8ff" points="502.32,-140.32 512.04,-136.11 501.81,-133.34 502.32,-140.32"/>
</a>
</g>
</g>
<!-- Node4 -->
<g id="Node000004" class="node">
<title>Node4</title>
<g id="a_Node000004"><a xlink:href="../../d7/d6c/SDL__timer_8c.html#a6fc565810341c701296a428dd94163f6" target="_top" xlink:title=" ">
<polygon fill="white" stroke="#666666" points="297.5,-153 202.75,-153 202.75,-133 297.5,-133 297.5,-153"/>
<text xml:space="preserve" text-anchor="middle" x="250.12" y="-139.5" font-family="Helvetica,sans-Serif" font-size="10.00">SDL_CreateTimer</text>
</a>
</g>
</g>
<!-- Node3&#45;&gt;Node4 -->
<g id="edge3_Node000003_Node000004" class="edge">
<title>Node3&#45;&gt;Node4</title>
<g id="a_edge3_Node000003_Node000004"><a xlink:title=" ">
<path fill="none" stroke="#63b8ff" d="M348.1,-143C331.23,-143 313.48,-143 297.85,-143"/>
<polygon fill="#63b8ff" stroke="#63b8ff" points="348.09,-146.5 358.09,-143 348.09,-139.5 348.09,-146.5"/>
</a>
</g>
</g>
<!-- Node5 -->
<g id="Node000005" class="node">
<title>Node5</title>
<g id="a_Node000005"><a xlink:href="../../d7/d6c/SDL__timer_8c.html#a78f99eebc89b56ee71175b6d538f99b5" target="_top" xlink:title=" ">
<polygon fill="white" stroke="#666666" points="114.25,-172 31.5,-172 31.5,-152 114.25,-152 114.25,-172"/>
<text xml:space="preserve" text-anchor="middle" x="72.88" y="-158.5" font-family="Helvetica,sans-Serif" font-size="10.00">SDL_AddTimer</text>
</a>
</g>
</g>
<!-- Node4&#45;&gt;Node5 -->
<g id="edge4_Node000004_Node000005" class="edge">
<title>Node4&#45;&gt;Node5</title>
<g id="a_edge4_Node000004_Node000005"><a xlink:title=" ">
<path fill="none" stroke="#63b8ff" d="M191.38,-149.26C166.27,-151.98 137.44,-155.11 114.62,-157.58"/>
<polygon fill="#63b8ff" stroke="#63b8ff" points="191.55,-152.76 201.12,-148.2 190.8,-145.8 191.55,-152.76"/>
</a>
</g>
</g>
<!-- Node6 -->
<g id="Node000006" class="node">
<title>Node6</title>
<g id="a_Node000006"><a xlink:href="../../d7/d6c/SDL__timer_8c.html#ac059d3ffea13029340b702f91960e447" target="_top" xlink:title=" ">
<polygon fill="white" stroke="#666666" points="121.38,-134 24.38,-134 24.38,-114 121.38,-114 121.38,-134"/>
<text xml:space="preserve" text-anchor="middle" x="72.88" y="-120.5" font-family="Helvetica,sans-Serif" font-size="10.00">SDL_AddTimerNS</text>
</a>
</g>
</g>
<!-- Node4&#45;&gt;Node6 -->
<g id="edge5_Node000004_Node000006" class="edge">
<title>Node4&#45;&gt;Node6</title>
<g id="a_edge5_Node000004_Node000006"><a xlink:title=" ">
<path fill="none" stroke="#63b8ff" d="M191.48,-136.75C168.92,-134.3 143.34,-131.53 121.82,-129.2"/>
<polygon fill="#63b8ff" stroke="#63b8ff" points="190.8,-140.2 201.12,-137.8 191.55,-133.24 190.8,-140.2"/>
</a>
</g>
</g>
<!-- Node8 -->
<g id="Node000008" class="node">
<title>Node8</title>
<g id="a_Node000008"><a xlink:href="../../de/daf/classCSDLmain.html#a73bd9c42ac6916974009e508257e44ff" target="_top" xlink:title=" ">
<polygon fill="white" stroke="#666666" points="462.75,-115 369.5,-115 369.5,-95 462.75,-95 462.75,-115"/>
<text xml:space="preserve" text-anchor="middle" x="416.12" y="-101.5" font-family="Helvetica,sans-Serif" font-size="10.00">CSDLmain::RunL</text>
</a>
</g>
</g>
<!-- Node7&#45;&gt;Node8 -->
<g id="edge7_Node000007_Node000008" class="edge">
<title>Node7&#45;&gt;Node8</title>
<g id="a_edge7_Node000007_Node000008"><a xlink:title=" ">
<path fill="none" stroke="#63b8ff" d="M515.02,-91.5C498.74,-93.74 479.83,-96.35 462.98,-98.67"/>
<polygon fill="#63b8ff" stroke="#63b8ff" points="515.41,-94.98 524.83,-90.14 514.45,-88.04 515.41,-94.98"/>
</a>
</g>
</g>
<!-- Node9 -->
<g id="Node000009" class="node">
<title>Node9</title>
<g id="a_Node000009"><a xlink:href="../../d3/d6c/SDL__assert_8c.html#af146e7f66c4e41a24337c5b6943af0b0" target="_top" xlink:title=" ">
<polygon fill="white" stroke="#666666" points="468.75,-77 363.5,-77 363.5,-57 468.75,-57 468.75,-77"/>
<text xml:space="preserve" text-anchor="middle" x="416.12" y="-63.5" font-family="Helvetica,sans-Serif" font-size="10.00">SDL_AbortAssertion</text>
</a>
</g>
</g>
<!-- Node7&#45;&gt;Node9 -->
<g id="edge8_Node000007_Node000009" class="edge">
<title>Node7&#45;&gt;Node9</title>
<g id="a_edge8_Node000007_Node000009"><a xlink:title=" ">
<path fill="none" stroke="#63b8ff" d="M515.28,-80.54C500.86,-78.55 484.34,-76.27 469.02,-74.16"/>
<polygon fill="#63b8ff" stroke="#63b8ff" points="514.45,-83.96 524.83,-81.86 515.41,-77.02 514.45,-83.96"/>
</a>
</g>
</g>
<!-- Node11 -->
<g id="Node000011" class="node">
<title>Node11</title>
<g id="a_Node000011"><a xlink:href="../../d9/d78/SDL__main__callbacks_8c.html#a2e8bd250bb597fdf72c9da9d001181e7" target="_top" xlink:title=" ">
<polygon fill="white" stroke="#666666" points="477.75,-39 354.5,-39 354.5,-19 477.75,-19 477.75,-39"/>
<text xml:space="preserve" text-anchor="middle" x="416.12" y="-25.5" font-family="Helvetica,sans-Serif" font-size="10.00">SDL_QuitMainCallbacks</text>
</a>
</g>
</g>
<!-- Node7&#45;&gt;Node11 -->
<g id="edge10_Node000007_Node000011" class="edge">
<title>Node7&#45;&gt;Node11</title>
<g id="a_edge10_Node000007_Node000011"><a xlink:title=" ">
<path fill="none" stroke="#63b8ff" d="M525.75,-70.32C511.51,-63.01 493.98,-54.5 477.75,-48 470.07,-44.93 461.69,-42.02 453.67,-39.45"/>
<polygon fill="#63b8ff" stroke="#63b8ff" points="524.09,-73.41 534.57,-74.93 527.33,-67.2 524.09,-73.41"/>
</a>
</g>
</g>
<!-- Node10 -->
<g id="Node000010" class="node">
<title>Node10</title>
<g id="a_Node000010"><a xlink:href="../../d3/d6c/SDL__assert_8c.html#a0c9a208493d6e9212cff2ab400242102" target="_top" xlink:title=" ">
<polygon fill="white" stroke="#666666" points="305.75,-77 194.5,-77 194.5,-57 305.75,-57 305.75,-77"/>
<text xml:space="preserve" text-anchor="middle" x="250.12" y="-63.5" font-family="Helvetica,sans-Serif" font-size="10.00">SDL_ReportAssertion</text>
</a>
</g>
</g>
<!-- Node9&#45;&gt;Node10 -->
<g id="edge9_Node000009_Node000010" class="edge">
<title>Node9&#45;&gt;Node10</title>
<g id="a_edge9_Node000009_Node000010"><a xlink:title=" ">
<path fill="none" stroke="#63b8ff" d="M351.89,-67C336.78,-67 320.78,-67 306.08,-67"/>
<polygon fill="#63b8ff" stroke="#63b8ff" points="351.72,-70.5 361.72,-67 351.72,-63.5 351.72,-70.5"/>
</a>
</g>
</g>
<!-- Node12 -->
<g id="Node000012" class="node">
<title>Node12</title>
<g id="a_Node000012"><a xlink:href="../../d0/d72/emscripten_2SDL__sysmain__callbacks_8c.html#ad2e127e4f44ae815197361e79da5bf88" target="_top" xlink:title=" ">
<polygon fill="white" stroke="#666666" points="318.5,-39 181.75,-39 181.75,-19 318.5,-19 318.5,-39"/>
<text xml:space="preserve" text-anchor="middle" x="250.12" y="-25.5" font-family="Helvetica,sans-Serif" font-size="10.00">EmscriptenInternalMainloop</text>
</a>
</g>
</g>
<!-- Node11&#45;&gt;Node12 -->
<g id="edge11_Node000011_Node000012" class="edge">
<title>Node11&#45;&gt;Node12</title>
<g id="a_edge11_Node000011_Node000012"><a xlink:title=" ">
<path fill="none" stroke="#63b8ff" d="M342.61,-29C334.71,-29 326.69,-29 318.86,-29"/>
<polygon fill="#63b8ff" stroke="#63b8ff" points="342.54,-32.5 352.54,-29 342.54,-25.5 342.54,-32.5"/>
</a>
</g>
</g>
<!-- Node13 -->
<g id="Node000013" class="node">
<title>Node13</title>
<g id="a_Node000013"><a xlink:href="../../dd/db5/generic_2SDL__sysmain__callbacks_8c.html#aa50e1897a91f2547b5f31125020220e2" target="_top" xlink:title=" ">
<polygon fill="white" stroke="#666666" points="145.75,-20 0,-20 0,0 145.75,0 145.75,-20"/>
<text xml:space="preserve" text-anchor="middle" x="72.88" y="-6.5" font-family="Helvetica,sans-Serif" font-size="10.00">SDL_EnterAppMainCallbacks</text>
</a>
</g>
</g>
<!-- Node11&#45;&gt;Node13 -->
<g id="edge13_Node000011_Node000013" class="edge">
<title>Node11&#45;&gt;Node13</title>
<g id="a_edge13_Node000011_Node000013"><a xlink:title=" ">
<path fill="none" stroke="#63b8ff" d="M360.45,-16.33C346.82,-13.71 332.19,-11.33 318.5,-10 260.7,-4.37 194.84,-4.76 146.04,-6.34"/>
<polygon fill="#63b8ff" stroke="#63b8ff" points="359.64,-19.74 370.14,-18.28 361.02,-12.88 359.64,-19.74"/>
</a>
</g>
</g>
<!-- Node12&#45;&gt;Node13 -->
<g id="edge12_Node000012_Node000013" class="edge">
<title>Node12&#45;&gt;Node13</title>
<g id="a_edge12_Node000012_Node000013"><a xlink:title=" ">
<path fill="none" stroke="#63b8ff" d="M170.14,-20.44C162.13,-19.57 154.03,-18.69 146.1,-17.83"/>
<polygon fill="#63b8ff" stroke="#63b8ff" points="169.55,-23.89 179.86,-21.49 170.3,-16.93 169.55,-23.89"/>
</a>
</g>
</g>
</g>
</svg>
