<?xml version="1.0" encoding="UTF-8" standalone="no"?>
<!DOCTYPE svg PUBLIC "-//W3C//DTD SVG 1.1//EN"
 "http://www.w3.org/Graphics/SVG/1.1/DTD/svg11.dtd">
<!-- Generated by graphviz version 13.1.0 (20250701.0955)
 -->
<!-- Title: SDL_TryLockMutex Pages: 1 -->
<svg width="511pt" height="90pt"
 viewBox="0.00 0.00 511.00 90.00" xmlns="http://www.w3.org/2000/svg" xmlns:xlink="http://www.w3.org/1999/xlink">
<g id="graph0" class="graph" transform="scale(1 1) rotate(0) translate(4 86)">
<title>SDL_TryLockMutex</title>
<!-- Node1 -->
<g id="Node000001" class="node">
<title>Node1</title>
<g id="a_Node000001"><a xlink:title=" ">
<polygon fill="#999999" stroke="#666666" points="502.5,-51 399.5,-51 399.5,-31 502.5,-31 502.5,-51"/>
<text xml:space="preserve" text-anchor="middle" x="451" y="-37.5" font-family="Helvetica,sans-Serif" font-size="10.00">SDL_TryLockMutex</text>
</a>
</g>
</g>
<!-- Node2 -->
<g id="Node000002" class="node">
<title>Node2</title>
<g id="a_Node000002"><a xlink:href="../../d3/d02/generic_2SDL__sysrwlock_8c.html#a5275d1c00dc5ef8c5071455b7b7b1de1" target="_top" xlink:title=" ">
<polygon fill="white" stroke="#666666" points="363.5,-82 199.75,-82 199.75,-50 363.5,-50 363.5,-82"/>
<text xml:space="preserve" text-anchor="start" x="207.75" y="-68.5" font-family="Helvetica,sans-Serif" font-size="10.00">SDL_TryLockRWLockForReading</text>
<text xml:space="preserve" text-anchor="middle" x="281.62" y="-56.5" font-family="Helvetica,sans-Serif" font-size="10.00">_generic</text>
</a>
</g>
</g>
<!-- Node1&#45;&gt;Node2 -->
<g id="edge1_Node000001_Node000002" class="edge">
<title>Node1&#45;&gt;Node2</title>
<g id="a_edge1_Node000001_Node000002"><a xlink:title=" ">
<path fill="none" stroke="#63b8ff" d="M387.98,-50.26C380.07,-51.45 371.88,-52.67 363.73,-53.89"/>
<polygon fill="#63b8ff" stroke="#63b8ff" points="388.46,-53.73 397.83,-48.79 387.42,-46.81 388.46,-53.73"/>
</a>
</g>
</g>
<!-- Node4 -->
<g id="Node000004" class="node">
<title>Node4</title>
<g id="a_Node000004"><a xlink:href="../../d3/d02/generic_2SDL__sysrwlock_8c.html#a1fa08afdaeee8753ce23b83a99dfc724" target="_top" xlink:title=" ">
<polygon fill="white" stroke="#666666" points="360.5,-32 202.75,-32 202.75,0 360.5,0 360.5,-32"/>
<text xml:space="preserve" text-anchor="start" x="210.75" y="-18.5" font-family="Helvetica,sans-Serif" font-size="10.00">SDL_TryLockRWLockForWriting</text>
<text xml:space="preserve" text-anchor="middle" x="281.62" y="-6.5" font-family="Helvetica,sans-Serif" font-size="10.00">_generic</text>
</a>
</g>
</g>
<!-- Node1&#45;&gt;Node4 -->
<g id="edge3_Node000001_Node000004" class="edge">
<title>Node1&#45;&gt;Node4</title>
<g id="a_edge3_Node000001_Node000004"><a xlink:title=" ">
<path fill="none" stroke="#63b8ff" d="M387.98,-31.74C379.16,-30.42 370,-29.05 360.93,-27.7"/>
<polygon fill="#63b8ff" stroke="#63b8ff" points="387.42,-35.19 397.83,-33.21 388.46,-28.27 387.42,-35.19"/>
</a>
</g>
</g>
<!-- Node3 -->
<g id="Node000003" class="node">
<title>Node3</title>
<g id="a_Node000003"><a xlink:href="../../d3/da4/SDL__sysrwlock__srw_8c.html#a573bc309404d2532008655949f3d518d" target="_top" xlink:title=" ">
<polygon fill="white" stroke="#666666" points="163.75,-76 0,-76 0,-56 163.75,-56 163.75,-76"/>
<text xml:space="preserve" text-anchor="middle" x="81.88" y="-62.5" font-family="Helvetica,sans-Serif" font-size="10.00">SDL_TryLockRWLockForReading</text>
</a>
</g>
</g>
<!-- Node2&#45;&gt;Node3 -->
<g id="edge2_Node000002_Node000003" class="edge">
<title>Node2&#45;&gt;Node3</title>
<g id="a_edge2_Node000002_Node000003"><a xlink:title=" ">
<path fill="none" stroke="#63b8ff" d="M188.1,-66C180.11,-66 172.06,-66 164.17,-66"/>
<polygon fill="#63b8ff" stroke="#63b8ff" points="187.82,-69.5 197.82,-66 187.82,-62.5 187.82,-69.5"/>
</a>
</g>
</g>
<!-- Node5 -->
<g id="Node000005" class="node">
<title>Node5</title>
<g id="a_Node000005"><a xlink:href="../../d3/da4/SDL__sysrwlock__srw_8c.html#aa4714d8657311036bd02405316bb4141" target="_top" xlink:title=" ">
<polygon fill="white" stroke="#666666" points="160.75,-26 3,-26 3,-6 160.75,-6 160.75,-26"/>
<text xml:space="preserve" text-anchor="middle" x="81.88" y="-12.5" font-family="Helvetica,sans-Serif" font-size="10.00">SDL_TryLockRWLockForWriting</text>
</a>
</g>
</g>
<!-- Node4&#45;&gt;Node5 -->
<g id="edge4_Node000004_Node000005" class="edge">
<title>Node4&#45;&gt;Node5</title>
<g id="a_edge4_Node000004_Node000005"><a xlink:title=" ">
<path fill="none" stroke="#63b8ff" d="M191.21,-16C181.17,-16 171,-16 161.11,-16"/>
<polygon fill="#63b8ff" stroke="#63b8ff" points="190.96,-19.5 200.96,-16 190.96,-12.5 190.96,-19.5"/>
</a>
</g>
</g>
</g>
</svg>
