<?xml version="1.0" encoding="UTF-8" standalone="no"?>
<!DOCTYPE svg PUBLIC "-//W3C//DTD SVG 1.1//EN"
 "http://www.w3.org/Graphics/SVG/1.1/DTD/svg11.dtd">
<!-- Generated by graphviz version 13.1.0 (20250701.0955)
 -->
<!-- Title: SDL_isalpha Pages: 1 -->
<svg width="188pt" height="66pt"
 viewBox="0.00 0.00 188.00 66.00" xmlns="http://www.w3.org/2000/svg" xmlns:xlink="http://www.w3.org/1999/xlink">
<g id="graph0" class="graph" transform="scale(1 1) rotate(0) translate(4 62)">
<title>SDL_isalpha</title>
<!-- Node1 -->
<g id="Node000001" class="node">
<title>Node1</title>
<g id="a_Node000001"><a xlink:title=" ">
<polygon fill="#999999" stroke="#666666" points="71.5,-39 0,-39 0,-19 71.5,-19 71.5,-39"/>
<text xml:space="preserve" text-anchor="middle" x="35.75" y="-25.5" font-family="Helvetica,sans-Serif" font-size="10.00">SDL_isalpha</text>
</a>
</g>
</g>
<!-- Node2 -->
<g id="Node000002" class="node">
<title>Node2</title>
<g id="a_Node000002"><a xlink:href="../../d3/d02/SDL__stdlib_8c.html#a9568b6eef014b2b9d5278fbaf7281017" target="_top" xlink:title=" ">
<polygon fill="white" stroke="#666666" points="179.38,-58 107.88,-58 107.88,-38 179.38,-38 179.38,-58"/>
<text xml:space="preserve" text-anchor="middle" x="143.62" y="-44.5" font-family="Helvetica,sans-Serif" font-size="10.00">SDL_islower</text>
</a>
</g>
</g>
<!-- Node1&#45;&gt;Node2 -->
<g id="edge1_Node000001_Node000002" class="edge">
<title>Node1&#45;&gt;Node2</title>
<g id="a_edge1_Node000001_Node000002"><a xlink:title=" ">
<path fill="none" stroke="#63b8ff" d="M71.71,-35.27C79.66,-36.7 88.23,-38.24 96.56,-39.73"/>
<polygon fill="#63b8ff" stroke="#63b8ff" points="95.75,-43.14 106.21,-41.47 96.99,-36.25 95.75,-43.14"/>
</a>
</g>
</g>
<!-- Node3 -->
<g id="Node000003" class="node">
<title>Node3</title>
<g id="a_Node000003"><a xlink:href="../../d3/d02/SDL__stdlib_8c.html#abdaa125b219e19c55774217eb60f3ff1" target="_top" xlink:title=" ">
<polygon fill="white" stroke="#666666" points="179.75,-20 107.5,-20 107.5,0 179.75,0 179.75,-20"/>
<text xml:space="preserve" text-anchor="middle" x="143.62" y="-6.5" font-family="Helvetica,sans-Serif" font-size="10.00">SDL_isupper</text>
</a>
</g>
</g>
<!-- Node1&#45;&gt;Node3 -->
<g id="edge2_Node000001_Node000003" class="edge">
<title>Node1&#45;&gt;Node3</title>
<g id="a_edge2_Node000001_Node000003"><a xlink:title=" ">
<path fill="none" stroke="#63b8ff" d="M71.71,-22.73C79.49,-21.33 87.86,-19.83 96.02,-18.36"/>
<polygon fill="#63b8ff" stroke="#63b8ff" points="96.62,-21.81 105.85,-16.6 95.39,-14.92 96.62,-21.81"/>
</a>
</g>
</g>
</g>
</svg>
