<?xml version="1.0" encoding="UTF-8" standalone="no"?>
<!DOCTYPE svg PUBLIC "-//W3C//DTD SVG 1.1//EN"
 "http://www.w3.org/Graphics/SVG/1.1/DTD/svg11.dtd">
<!-- Generated by graphviz version 13.1.0 (20250701.0955)
 -->
<!-- Title: SDL_scalbnf Pages: 1 -->
<svg width="322pt" height="28pt"
 viewBox="0.00 0.00 322.00 28.00" xmlns="http://www.w3.org/2000/svg" xmlns:xlink="http://www.w3.org/1999/xlink">
<g id="graph0" class="graph" transform="scale(1 1) rotate(0) translate(4 24)">
<title>SDL_scalbnf</title>
<!-- Node1 -->
<g id="Node000001" class="node">
<title>Node1</title>
<g id="a_Node000001"><a xlink:title=" ">
<polygon fill="#999999" stroke="#666666" points="72.25,-20 0,-20 0,0 72.25,0 72.25,-20"/>
<text xml:space="preserve" text-anchor="middle" x="36.12" y="-6.5" font-family="Helvetica,sans-Serif" font-size="10.00">SDL_scalbnf</text>
</a>
</g>
</g>
<!-- Node2 -->
<g id="Node000002" class="node">
<title>Node2</title>
<g id="a_Node000002"><a xlink:href="../../d3/d02/SDL__stdlib_8c.html#a7cccd56c0fe176ed80d7eabf6572eead" target="_top" xlink:title=" ">
<polygon fill="white" stroke="#666666" points="177.5,-20 108.25,-20 108.25,0 177.5,0 177.5,-20"/>
<text xml:space="preserve" text-anchor="middle" x="142.88" y="-6.5" font-family="Helvetica,sans-Serif" font-size="10.00">SDL_scalbn</text>
</a>
</g>
</g>
<!-- Node1&#45;&gt;Node2 -->
<g id="edge1_Node000001_Node000002" class="edge">
<title>Node1&#45;&gt;Node2</title>
<g id="a_edge1_Node000001_Node000002"><a xlink:title=" ">
<path fill="none" stroke="#63b8ff" d="M72.59,-10C80.25,-10 88.44,-10 96.42,-10"/>
<polygon fill="#63b8ff" stroke="#63b8ff" points="96.35,-13.5 106.35,-10 96.35,-6.5 96.35,-13.5"/>
</a>
</g>
</g>
<!-- Node3 -->
<g id="Node000003" class="node">
<title>Node3</title>
<g id="a_Node000003"><a xlink:href="../../dd/d39/s__scalbn_8c.html#a90b7157fb3c5720dcaf368aa6d3b7595" target="_top" xlink:title=" ">
<polygon fill="white" stroke="#666666" points="313.5,-20 213.5,-20 213.5,0 313.5,0 313.5,-20"/>
<text xml:space="preserve" text-anchor="middle" x="263.5" y="-6.5" font-family="Helvetica,sans-Serif" font-size="10.00">SDL_uclibc_scalbn</text>
</a>
</g>
</g>
<!-- Node2&#45;&gt;Node3 -->
<g id="edge2_Node000002_Node000003" class="edge">
<title>Node2&#45;&gt;Node3</title>
<g id="a_edge2_Node000002_Node000003"><a xlink:title=" ">
<path fill="none" stroke="#63b8ff" d="M177.87,-10C185.31,-10 193.41,-10 201.56,-10"/>
<polygon fill="#63b8ff" stroke="#63b8ff" points="201.52,-13.5 211.52,-10 201.52,-6.5 201.52,-13.5"/>
</a>
</g>
</g>
</g>
</svg>
