<?xml version="1.0" encoding="UTF-8" standalone="no"?>
<!DOCTYPE svg PUBLIC "-//W3C//DTD SVG 1.1//EN"
 "http://www.w3.org/Graphics/SVG/1.1/DTD/svg11.dtd">
<!-- Generated by graphviz version 13.1.0 (20250701.0955)
 -->
<!-- Title: SDL_sin Pages: 1 -->
<svg width="457pt" height="104pt"
 viewBox="0.00 0.00 457.00 104.00" xmlns="http://www.w3.org/2000/svg" xmlns:xlink="http://www.w3.org/1999/xlink">
<g id="graph0" class="graph" transform="scale(1 1) rotate(0) translate(4 100)">
<title>SDL_sin</title>
<!-- Node1 -->
<g id="Node000001" class="node">
<title>Node1</title>
<g id="a_Node000001"><a xlink:title=" ">
<polygon fill="#999999" stroke="#666666" points="53.5,-58 0,-58 0,-38 53.5,-38 53.5,-58"/>
<text xml:space="preserve" text-anchor="middle" x="26.75" y="-44.5" font-family="Helvetica,sans-Serif" font-size="10.00">SDL_sin</text>
</a>
</g>
</g>
<!-- Node2 -->
<g id="Node000002" class="node">
<title>Node2</title>
<g id="a_Node000002"><a xlink:href="../../de/d0d/s__sin_8c.html#ab2daeb832f8f35bc2237cfca8f0a187a" target="_top" xlink:title=" ">
<polygon fill="white" stroke="#666666" points="173.75,-58 89.5,-58 89.5,-38 173.75,-38 173.75,-58"/>
<text xml:space="preserve" text-anchor="middle" x="131.62" y="-44.5" font-family="Helvetica,sans-Serif" font-size="10.00">SDL_uclibc_sin</text>
</a>
</g>
</g>
<!-- Node1&#45;&gt;Node2 -->
<g id="edge1_Node000001_Node000002" class="edge">
<title>Node1&#45;&gt;Node2</title>
<g id="a_edge1_Node000001_Node000002"><a xlink:title=" ">
<path fill="none" stroke="#63b8ff" d="M53.98,-48C61.34,-48 69.63,-48 77.95,-48"/>
<polygon fill="#63b8ff" stroke="#63b8ff" points="77.74,-51.5 87.74,-48 77.74,-44.5 77.74,-51.5"/>
</a>
</g>
</g>
<!-- Node3 -->
<g id="Node000003" class="node">
<title>Node3</title>
<g id="a_Node000003"><a xlink:href="../../d6/d16/e__rem__pio2_8c.html#abb840868a6f0a5a076ee3ac86992db6a" target="_top" xlink:title=" ">
<polygon fill="white" stroke="#666666" points="315,-96 209.75,-96 209.75,-76 315,-76 315,-96"/>
<text xml:space="preserve" text-anchor="middle" x="262.38" y="-82.5" font-family="Helvetica,sans-Serif" font-size="10.00">__ieee754_rem_pio2</text>
</a>
</g>
</g>
<!-- Node2&#45;&gt;Node3 -->
<g id="edge2_Node000002_Node000003" class="edge">
<title>Node2&#45;&gt;Node3</title>
<g id="a_edge2_Node000002_Node000003"><a xlink:title=" ">
<path fill="none" stroke="#63b8ff" d="M168.15,-58.48C182.64,-62.76 199.6,-67.77 215.04,-72.33"/>
<polygon fill="#63b8ff" stroke="#63b8ff" points="213.94,-75.65 224.52,-75.12 215.92,-68.93 213.94,-75.65"/>
</a>
</g>
</g>
<!-- Node5 -->
<g id="Node000005" class="node">
<title>Node5</title>
<g id="a_Node000005"><a xlink:href="../../d5/dfd/k__cos_8c.html#a5468a5a3c3d5d5e34e73fac9d6bc0122" target="_top" xlink:title=" ">
<polygon fill="white" stroke="#666666" points="299.25,-58 225.5,-58 225.5,-38 299.25,-38 299.25,-58"/>
<text xml:space="preserve" text-anchor="middle" x="262.38" y="-44.5" font-family="Helvetica,sans-Serif" font-size="10.00">__kernel_cos</text>
</a>
</g>
</g>
<!-- Node2&#45;&gt;Node5 -->
<g id="edge4_Node000002_Node000005" class="edge">
<title>Node2&#45;&gt;Node5</title>
<g id="a_edge4_Node000002_Node000005"><a xlink:title=" ">
<path fill="none" stroke="#63b8ff" d="M174.07,-48C186.81,-48 200.92,-48 214.02,-48"/>
<polygon fill="#63b8ff" stroke="#63b8ff" points="213.7,-51.5 223.7,-48 213.7,-44.5 213.7,-51.5"/>
</a>
</g>
</g>
<!-- Node6 -->
<g id="Node000006" class="node">
<title>Node6</title>
<g id="a_Node000006"><a xlink:href="../../d0/d13/k__sin_8c.html#adcc3cb89edf47f34f1e8058e198be293" target="_top" xlink:title=" ">
<polygon fill="white" stroke="#666666" points="297.75,-20 227,-20 227,0 297.75,0 297.75,-20"/>
<text xml:space="preserve" text-anchor="middle" x="262.38" y="-6.5" font-family="Helvetica,sans-Serif" font-size="10.00">__kernel_sin</text>
</a>
</g>
</g>
<!-- Node2&#45;&gt;Node6 -->
<g id="edge5_Node000002_Node000006" class="edge">
<title>Node2&#45;&gt;Node6</title>
<g id="a_edge5_Node000002_Node000006"><a xlink:title=" ">
<path fill="none" stroke="#63b8ff" d="M168.15,-37.52C183.02,-33.12 200.49,-27.97 216.26,-23.31"/>
<polygon fill="#63b8ff" stroke="#63b8ff" points="216.81,-26.8 225.41,-20.62 214.82,-20.09 216.81,-26.8"/>
</a>
</g>
</g>
<!-- Node4 -->
<g id="Node000004" class="node">
<title>Node4</title>
<g id="a_Node000004"><a xlink:href="../../d8/d6e/k__rem__pio2_8c.html#a96906e13fc34f043f809bacb48ed7454" target="_top" xlink:title=" ">
<polygon fill="white" stroke="#666666" points="448.75,-96 351,-96 351,-76 448.75,-76 448.75,-96"/>
<text xml:space="preserve" text-anchor="middle" x="399.88" y="-82.5" font-family="Helvetica,sans-Serif" font-size="10.00">__kernel_rem_pio2</text>
</a>
</g>
</g>
<!-- Node3&#45;&gt;Node4 -->
<g id="edge3_Node000003_Node000004" class="edge">
<title>Node3&#45;&gt;Node4</title>
<g id="a_edge3_Node000003_Node000004"><a xlink:title=" ">
<path fill="none" stroke="#63b8ff" d="M315.38,-86C323.2,-86 331.32,-86 339.28,-86"/>
<polygon fill="#63b8ff" stroke="#63b8ff" points="339.28,-89.5 349.28,-86 339.28,-82.5 339.28,-89.5"/>
</a>
</g>
</g>
</g>
</svg>
