<?xml version="1.0" encoding="UTF-8" standalone="no"?>
<!DOCTYPE svg PUBLIC "-//W3C//DTD SVG 1.1//EN"
 "http://www.w3.org/Graphics/SVG/1.1/DTD/svg11.dtd">
<!-- Generated by graphviz version 13.1.0 (20250701.0955)
 -->
<!-- Title: SDL_tan Pages: 1 -->
<svg width="458pt" height="66pt"
 viewBox="0.00 0.00 458.00 66.00" xmlns="http://www.w3.org/2000/svg" xmlns:xlink="http://www.w3.org/1999/xlink">

<svg id="main" version="1.1" xmlns="http://www.w3.org/2000/svg" xmlns:xlink="http://www.w3.org/1999/xlink" xml:space="preserve">

<style type="text/css"><![CDATA[
.node, .edge {opacity: 0.7;}
.node.selected, .edge.selected {opacity: 1;}
.edge:hover path { stroke: red; }
.edge:hover polygon { stroke: red; fill: red; }
]]></style>
<script type="application/ecmascript" xlink:href="../../svg.min.js"/>
<svg id="graph" class="graph">
<g id="graph0" class="graph" transform="scale(1 1) rotate(0) translate(4 62)">
<title>SDL_tan</title>
<!-- Node1 -->
<g id="Node000001" class="node">
<title>Node1</title>
<g id="a_Node000001"><a xlink:title=" ">
<polygon fill="#999999" stroke="#666666" points="54.25,-39 0,-39 0,-19 54.25,-19 54.25,-39"/>
<text xml:space="preserve" text-anchor="middle" x="27.12" y="-25.5" font-family="Helvetica,sans-Serif" font-size="10.00">SDL_tan</text>
</a>
</g>
</g>
<!-- Node2 -->
<g id="Node000002" class="node">
<title>Node2</title>
<g id="a_Node000002"><a xlink:href="../../d1/d78/s__tan_8c.html#a64c668b3ebe987acff63466fe6e14190" target="_top" xlink:title=" ">
<polygon fill="white" stroke="#666666" points="175.25,-39 90.25,-39 90.25,-19 175.25,-19 175.25,-39"/>
<text xml:space="preserve" text-anchor="middle" x="132.75" y="-25.5" font-family="Helvetica,sans-Serif" font-size="10.00">SDL_uclibc_tan</text>
</a>
</g>
</g>
<!-- Node1&#45;&gt;Node2 -->
<g id="edge1_Node000001_Node000002" class="edge">
<title>Node1&#45;&gt;Node2</title>
<g id="a_edge1_Node000001_Node000002"><a xlink:title=" ">
<path fill="none" stroke="#63b8ff" d="M54.54,-29C61.96,-29 70.31,-29 78.69,-29"/>
<polygon fill="#63b8ff" stroke="#63b8ff" points="78.56,-32.5 88.56,-29 78.56,-25.5 78.56,-32.5"/>
</a>
</g>
</g>
<!-- Node3 -->
<g id="Node000003" class="node">
<title>Node3</title>
<g id="a_Node000003"><a xlink:href="../../d6/d16/e__rem__pio2_8c.html#abb840868a6f0a5a076ee3ac86992db6a" target="_top" xlink:title=" ">
<polygon fill="white" stroke="#666666" points="316.5,-58 211.25,-58 211.25,-38 316.5,-38 316.5,-58"/>
<text xml:space="preserve" text-anchor="middle" x="263.88" y="-44.5" font-family="Helvetica,sans-Serif" font-size="10.00">__ieee754_rem_pio2</text>
</a>
</g>
</g>
<!-- Node2&#45;&gt;Node3 -->
<g id="edge2_Node000002_Node000003" class="edge">
<title>Node2&#45;&gt;Node3</title>
<g id="a_edge2_Node000002_Node000003"><a xlink:title=" ">
<path fill="none" stroke="#63b8ff" d="M175.67,-35.17C183.28,-36.29 191.37,-37.48 199.43,-38.67"/>
<polygon fill="#63b8ff" stroke="#63b8ff" points="198.87,-42.12 209.27,-40.11 199.89,-35.19 198.87,-42.12"/>
</a>
</g>
</g>
<!-- Node5 -->
<g id="Node000005" class="node">
<title>Node5</title>
<g id="a_Node000005"><a xlink:href="../../d3/d0d/k__tan_8c.html#a5f1c9e105e0dbca8a88407dd899043c6" target="_top" xlink:title=" ">
<polygon fill="white" stroke="#666666" points="299.62,-20 228.12,-20 228.12,0 299.62,0 299.62,-20"/>
<text xml:space="preserve" text-anchor="middle" x="263.88" y="-6.5" font-family="Helvetica,sans-Serif" font-size="10.00">__kernel_tan</text>
</a>
</g>
</g>
<!-- Node2&#45;&gt;Node5 -->
<g id="edge4_Node000002_Node000005" class="edge">
<title>Node2&#45;&gt;Node5</title>
<g id="a_edge4_Node000002_Node000005"><a xlink:title=" ">
<path fill="none" stroke="#63b8ff" d="M175.67,-22.83C188.66,-20.92 203.04,-18.8 216.32,-16.85"/>
<polygon fill="#63b8ff" stroke="#63b8ff" points="216.77,-20.32 226.15,-15.4 215.75,-13.4 216.77,-20.32"/>
</a>
</g>
</g>
<!-- Node4 -->
<g id="Node000004" class="node">
<title>Node4</title>
<g id="a_Node000004"><a xlink:href="../../d8/d6e/k__rem__pio2_8c.html#a96906e13fc34f043f809bacb48ed7454" target="_top" xlink:title=" ">
<polygon fill="white" stroke="#666666" points="450.25,-58 352.5,-58 352.5,-38 450.25,-38 450.25,-58"/>
<text xml:space="preserve" text-anchor="middle" x="401.38" y="-44.5" font-family="Helvetica,sans-Serif" font-size="10.00">__kernel_rem_pio2</text>
</a>
</g>
</g>
<!-- Node3&#45;&gt;Node4 -->
<g id="edge3_Node000003_Node000004" class="edge">
<title>Node3&#45;&gt;Node4</title>
<g id="a_edge3_Node000003_Node000004"><a xlink:title=" ">
<path fill="none" stroke="#63b8ff" d="M316.88,-48C324.7,-48 332.82,-48 340.78,-48"/>
<polygon fill="#63b8ff" stroke="#63b8ff" points="340.78,-51.5 350.78,-48 340.78,-44.5 340.78,-51.5"/>
</a>
</g>
</g>
</g>
</svg>
</svg>

<style type='text/css'>
<![CDATA[
[data-mouse-over-selected='false'] { opacity: 0.7; }
[data-mouse-over-selected='true']  { opacity: 1.0; }
]]>
</style>
<script type="application/ecmascript"><![CDATA[
document.addEventListener('DOMContentLoaded', (event) => {
  highlightEdges();
  highlightAdjacentNodes();
});
]]></script>
</svg>
