<?xml version="1.0" encoding="UTF-8" standalone="no"?>
<!DOCTYPE svg PUBLIC "-//W3C//DTD SVG 1.1//EN"
 "http://www.w3.org/Graphics/SVG/1.1/DTD/svg11.dtd">
<!-- Generated by graphviz version 13.1.0 (20250701.0955)
 -->
<!-- Title: SDL_iscntrl Pages: 1 -->
<svg width="987pt" height="142pt"
 viewBox="0.00 0.00 987.00 142.00" xmlns="http://www.w3.org/2000/svg" xmlns:xlink="http://www.w3.org/1999/xlink">
<g id="graph0" class="graph" transform="scale(1 1) rotate(0) translate(4 138)">
<title>SDL_iscntrl</title>
<!-- Node1 -->
<g id="Node000001" class="node">
<title>Node1</title>
<g id="a_Node000001"><a xlink:title=" ">
<polygon fill="#999999" stroke="#666666" points="979,-86 912,-86 912,-66 979,-66 979,-86"/>
<text xml:space="preserve" text-anchor="middle" x="945.5" y="-72.5" font-family="Helvetica,sans-Serif" font-size="10.00">SDL_iscntrl</text>
</a>
</g>
</g>
<!-- Node2 -->
<g id="Node000002" class="node">
<title>Node2</title>
<g id="a_Node000002"><a xlink:href="../../d3/d13/SDL__keyboard_8c.html#a132b6f6d7dcb790806e918894c0e8c35" target="_top" xlink:title=" ">
<polygon fill="white" stroke="#666666" points="876,-86 752.75,-86 752.75,-66 876,-66 876,-86"/>
<text xml:space="preserve" text-anchor="middle" x="814.38" y="-72.5" font-family="Helvetica,sans-Serif" font-size="10.00">SDL_SendKeyboardText</text>
</a>
</g>
</g>
<!-- Node1&#45;&gt;Node2 -->
<g id="edge1_Node000001_Node000002" class="edge">
<title>Node1&#45;&gt;Node2</title>
<g id="a_edge1_Node000001_Node000002"><a xlink:title=" ">
<path fill="none" stroke="#63b8ff" d="M900.28,-76C892.57,-76 884.42,-76 876.36,-76"/>
<polygon fill="#63b8ff" stroke="#63b8ff" points="900.07,-79.5 910.07,-76 900.07,-72.5 900.07,-79.5"/>
</a>
</g>
</g>
<!-- Node3 -->
<g id="Node000003" class="node">
<title>Node3</title>
<g id="a_Node000003"><a xlink:href="../../df/d50/classSDL__BLooper.html#a6ff5e937d923adbb4b8dd1f4be46367d" target="_top" xlink:title=" ">
<polygon fill="white" stroke="#666666" points="716.75,-129 580.75,-129 580.75,-109 716.75,-109 716.75,-129"/>
<text xml:space="preserve" text-anchor="middle" x="648.75" y="-115.5" font-family="Helvetica,sans-Serif" font-size="10.00">SDL_BLooper::_HandleKey</text>
</a>
</g>
</g>
<!-- Node2&#45;&gt;Node3 -->
<g id="edge2_Node000002_Node000003" class="edge">
<title>Node2&#45;&gt;Node3</title>
<g id="a_edge2_Node000002_Node000003"><a xlink:title=" ">
<path fill="none" stroke="#63b8ff" d="M762.91,-89.26C739.32,-95.46 711.64,-102.74 689.56,-108.54"/>
<polygon fill="#63b8ff" stroke="#63b8ff" points="763.52,-92.72 772.3,-86.79 761.74,-85.95 763.52,-92.72"/>
</a>
</g>
</g>
<!-- Node5 -->
<g id="Node000005" class="node">
<title>Node5</title>
<g id="a_Node000005"><a xlink:href="../../d8/d3d/SDL__fcitx_8c.html#ae2a17a5e6962c20316702ab6938a04d7" target="_top" xlink:title=" ">
<polygon fill="white" stroke="#666666" points="702.5,-86 595,-86 595,-66 702.5,-66 702.5,-86"/>
<text xml:space="preserve" text-anchor="middle" x="648.75" y="-72.5" font-family="Helvetica,sans-Serif" font-size="10.00">DBus_MessageFilter</text>
</a>
</g>
</g>
<!-- Node2&#45;&gt;Node5 -->
<g id="edge4_Node000002_Node000005" class="edge">
<title>Node2&#45;&gt;Node5</title>
<g id="a_edge4_Node000002_Node000005"><a xlink:title=" ">
<path fill="none" stroke="#63b8ff" d="M741.24,-76C728.36,-76 715.16,-76 702.93,-76"/>
<polygon fill="#63b8ff" stroke="#63b8ff" points="740.93,-79.5 750.93,-76 740.93,-72.5 740.93,-79.5"/>
</a>
</g>
</g>
<!-- Node11 -->
<g id="Node000011" class="node">
<title>Node11</title>
<g id="a_Node000011"><a xlink:href="../../d7/da0/SDL__wscons__kbd_8c.html#a49472edcab1c5099653ad47d5dcc7af6" target="_top" xlink:title=" ">
<polygon fill="white" stroke="#666666" points="694.62,-39 602.88,-39 602.88,-19 694.62,-19 694.62,-39"/>
<text xml:space="preserve" text-anchor="middle" x="648.75" y="-25.5" font-family="Helvetica,sans-Serif" font-size="10.00">Translate_to_text</text>
</a>
</g>
</g>
<!-- Node2&#45;&gt;Node11 -->
<g id="edge10_Node000002_Node000011" class="edge">
<title>Node2&#45;&gt;Node11</title>
<g id="a_edge10_Node000002_Node000011"><a xlink:title=" ">
<path fill="none" stroke="#63b8ff" d="M766.17,-62.44C740.73,-55.13 709.82,-46.25 686.24,-39.48"/>
<polygon fill="#63b8ff" stroke="#63b8ff" points="765.03,-65.75 775.61,-65.15 766.96,-59.03 765.03,-65.75"/>
</a>
</g>
</g>
<!-- Node4 -->
<g id="Node000004" class="node">
<title>Node4</title>
<g id="a_Node000004"><a xlink:href="../../df/d50/classSDL__BLooper.html#a5af46ad176704d2ad29595213710d8af" target="_top" xlink:title=" ">
<polygon fill="white" stroke="#666666" points="544.75,-134 381,-134 381,-114 544.75,-114 544.75,-134"/>
<text xml:space="preserve" text-anchor="middle" x="462.88" y="-120.5" font-family="Helvetica,sans-Serif" font-size="10.00">SDL_BLooper::MessageReceived</text>
</a>
</g>
</g>
<!-- Node3&#45;&gt;Node4 -->
<g id="edge3_Node000003_Node000004" class="edge">
<title>Node3&#45;&gt;Node4</title>
<g id="a_edge3_Node000003_Node000004"><a xlink:title=" ">
<path fill="none" stroke="#63b8ff" d="M568.88,-121.14C560.98,-121.36 552.95,-121.58 545.03,-121.79"/>
<polygon fill="#63b8ff" stroke="#63b8ff" points="568.91,-124.65 578.81,-120.87 568.72,-117.65 568.91,-124.65"/>
</a>
</g>
</g>
<!-- Node6 -->
<g id="Node000006" class="node">
<title>Node6</title>
<g id="a_Node000006"><a xlink:href="../../d8/d3d/SDL__fcitx_8c.html#a66b7c030eae52c5b2def477c77be1630" target="_top" xlink:title=" ">
<polygon fill="white" stroke="#666666" points="514.38,-96 411.38,-96 411.38,-76 514.38,-76 514.38,-96"/>
<text xml:space="preserve" text-anchor="middle" x="462.88" y="-82.5" font-family="Helvetica,sans-Serif" font-size="10.00">FcitxClientCreateIC</text>
</a>
</g>
</g>
<!-- Node5&#45;&gt;Node6 -->
<g id="edge5_Node000005_Node000006" class="edge">
<title>Node5&#45;&gt;Node6</title>
<g id="a_edge5_Node000005_Node000006"><a xlink:title=" ">
<path fill="none" stroke="#63b8ff" d="M583.09,-79.52C560.67,-80.74 535.87,-82.08 514.73,-83.23"/>
<polygon fill="#63b8ff" stroke="#63b8ff" points="583.26,-83.01 593.05,-78.97 582.88,-76.02 583.26,-83.01"/>
</a>
</g>
</g>
<!-- Node10 -->
<g id="Node000010" class="node">
<title>Node10</title>
<g id="a_Node000010"><a xlink:href="../../d4/d9f/SDL__system__theme_8c.html#a57eec74b9111f621d99a4b9e9ac939cd" target="_top" xlink:title=" ">
<polygon fill="white" stroke="#666666" points="524.5,-58 401.25,-58 401.25,-38 524.5,-38 524.5,-58"/>
<text xml:space="preserve" text-anchor="middle" x="462.88" y="-44.5" font-family="Helvetica,sans-Serif" font-size="10.00">SDL_SystemTheme_Init</text>
</a>
</g>
</g>
<!-- Node5&#45;&gt;Node10 -->
<g id="edge9_Node000005_Node000010" class="edge">
<title>Node5&#45;&gt;Node10</title>
<g id="a_edge9_Node000005_Node000010"><a xlink:title=" ">
<path fill="none" stroke="#63b8ff" d="M583.28,-66.18C564.26,-63.29 543.5,-60.12 524.71,-57.26"/>
<polygon fill="#63b8ff" stroke="#63b8ff" points="582.66,-69.63 593.07,-67.67 583.71,-62.71 582.66,-69.63"/>
</a>
</g>
</g>
<!-- Node7 -->
<g id="Node000007" class="node">
<title>Node7</title>
<g id="a_Node000007"><a xlink:href="../../d8/d3d/SDL__fcitx_8c.html#a9599338ba69d63761b97538897945a2b" target="_top" xlink:title=" ">
<polygon fill="white" stroke="#666666" points="311.62,-96 230.38,-96 230.38,-76 311.62,-76 311.62,-96"/>
<text xml:space="preserve" text-anchor="middle" x="271" y="-82.5" font-family="Helvetica,sans-Serif" font-size="10.00">SDL_Fcitx_Init</text>
</a>
</g>
</g>
<!-- Node6&#45;&gt;Node7 -->
<g id="edge6_Node000006_Node000007" class="edge">
<title>Node6&#45;&gt;Node7</title>
<g id="a_edge6_Node000006_Node000007"><a xlink:title=" ">
<path fill="none" stroke="#63b8ff" d="M399.76,-86C370.86,-86 337.34,-86 311.89,-86"/>
<polygon fill="#63b8ff" stroke="#63b8ff" points="399.48,-89.5 409.48,-86 399.48,-82.5 399.48,-89.5"/>
</a>
</g>
</g>
<!-- Node8 -->
<g id="Node000008" class="node">
<title>Node8</title>
<g id="a_Node000008"><a xlink:href="../../d6/dca/SDL__ime_8c.html#a43c3ce1b3fb7c51d28e85239d2df465f" target="_top" xlink:title=" ">
<polygon fill="white" stroke="#666666" points="161,-96 113.5,-96 113.5,-76 161,-76 161,-96"/>
<text xml:space="preserve" text-anchor="middle" x="137.25" y="-82.5" font-family="Helvetica,sans-Serif" font-size="10.00">InitIME</text>
</a>
</g>
</g>
<!-- Node7&#45;&gt;Node8 -->
<g id="edge7_Node000007_Node000008" class="edge">
<title>Node7&#45;&gt;Node8</title>
<g id="a_edge7_Node000007_Node000008"><a xlink:title=" ">
<path fill="none" stroke="#63b8ff" d="M218.67,-86C198.77,-86 177.01,-86 161.15,-86"/>
<polygon fill="#63b8ff" stroke="#63b8ff" points="218.6,-89.5 228.6,-86 218.6,-82.5 218.6,-89.5"/>
</a>
</g>
</g>
<!-- Node9 -->
<g id="Node000009" class="node">
<title>Node9</title>
<g id="a_Node000009"><a xlink:href="../../d6/dca/SDL__ime_8c.html#aad8672e65d5ef336bee91410b6d6cebf" target="_top" xlink:title=" ">
<polygon fill="white" stroke="#666666" points="77.5,-96 0,-96 0,-76 77.5,-76 77.5,-96"/>
<text xml:space="preserve" text-anchor="middle" x="38.75" y="-82.5" font-family="Helvetica,sans-Serif" font-size="10.00">SDL_IME_Init</text>
</a>
</g>
</g>
<!-- Node8&#45;&gt;Node9 -->
<g id="edge8_Node000008_Node000009" class="edge">
<title>Node8&#45;&gt;Node9</title>
<g id="a_edge8_Node000008_Node000009"><a xlink:title=" ">
<path fill="none" stroke="#63b8ff" d="M102.06,-86C94.24,-86 85.89,-86 77.92,-86"/>
<polygon fill="#63b8ff" stroke="#63b8ff" points="101.87,-89.5 111.87,-86 101.87,-82.5 101.87,-89.5"/>
</a>
</g>
</g>
<!-- Node12 -->
<g id="Node000012" class="node">
<title>Node12</title>
<g id="a_Node000012"><a xlink:href="../../d7/da0/SDL__wscons__kbd_8c.html#a700441e2ee60bd7d263d63f160698df3" target="_top" xlink:title=" ">
<polygon fill="white" stroke="#666666" points="506.12,-20 419.62,-20 419.62,0 506.12,0 506.12,-20"/>
<text xml:space="preserve" text-anchor="middle" x="462.88" y="-6.5" font-family="Helvetica,sans-Serif" font-size="10.00">updateKeyboard</text>
</a>
</g>
</g>
<!-- Node11&#45;&gt;Node12 -->
<g id="edge11_Node000011_Node000012" class="edge">
<title>Node11&#45;&gt;Node12</title>
<g id="a_edge11_Node000011_Node000012"><a xlink:title=" ">
<path fill="none" stroke="#63b8ff" d="M591.39,-23.18C564.05,-20.35 531.75,-17.01 506.5,-14.4"/>
<polygon fill="#63b8ff" stroke="#63b8ff" points="590.96,-26.65 601.26,-24.2 591.68,-19.69 590.96,-26.65"/>
</a>
</g>
</g>
<!-- Node13 -->
<g id="Node000013" class="node">
<title>Node13</title>
<g id="a_Node000013"><a xlink:href="../../d7/da0/SDL__wscons__kbd_8c.html#a8c541b9db4e4dab29285b65e025d386c" target="_top" xlink:title=" ">
<polygon fill="white" stroke="#666666" points="345,-20 197,-20 197,0 345,0 345,-20"/>
<text xml:space="preserve" text-anchor="middle" x="271" y="-6.5" font-family="Helvetica,sans-Serif" font-size="10.00">SDL_WSCONS_PumpEvents</text>
</a>
</g>
</g>
<!-- Node12&#45;&gt;Node13 -->
<g id="edge12_Node000012_Node000013" class="edge">
<title>Node12&#45;&gt;Node13</title>
<g id="a_edge12_Node000012_Node000013"><a xlink:title=" ">
<path fill="none" stroke="#63b8ff" d="M407.88,-10C388.46,-10 366.22,-10 345.42,-10"/>
<polygon fill="#63b8ff" stroke="#63b8ff" points="407.75,-13.5 417.75,-10 407.75,-6.5 407.75,-13.5"/>
</a>
</g>
</g>
</g>
</svg>
