<?xml version="1.0" encoding="UTF-8" standalone="no"?>
<!DOCTYPE svg PUBLIC "-//W3C//DTD SVG 1.1//EN"
 "http://www.w3.org/Graphics/SVG/1.1/DTD/svg11.dtd">
<!-- Generated by graphviz version 13.1.0 (20250701.0955)
 -->
<!-- Title: hidapi_thread_state Pages: 1 -->
<svg width="605pt" height="176pt"
 viewBox="0.00 0.00 605.00 176.00" xmlns="http://www.w3.org/2000/svg" xmlns:xlink="http://www.w3.org/1999/xlink">
<g id="graph0" class="graph" transform="scale(1 1) rotate(0) translate(4 172)">
<title>hidapi_thread_state</title>
<!-- Node1 -->
<g id="Node000001" class="node">
<title>Node1</title>
<g id="a_Node000001"><a xlink:title=" ">
<polygon fill="#999999" stroke="#666666" points="426.5,-20 325.75,-20 325.75,0 426.5,0 426.5,-20"/>
<text xml:space="preserve" text-anchor="middle" x="376.12" y="-6.5" font-family="Helvetica,sans-Serif" font-size="10.00">hidapi_thread_state</text>
</a>
</g>
</g>
<!-- Node2 -->
<g id="Node000002" class="node">
<title>Node2</title>
<g id="a_Node000002"><a xlink:href="../../d4/d4a/structSDL__Thread.html" target="_top" xlink:title=" ">
<polygon fill="white" stroke="#666666" points="141.5,-94 70.75,-94 70.75,-74 141.5,-74 141.5,-94"/>
<text xml:space="preserve" text-anchor="middle" x="106.12" y="-80.5" font-family="Helvetica,sans-Serif" font-size="10.00">SDL_Thread</text>
</a>
</g>
</g>
<!-- Node2&#45;&gt;Node1 -->
<g id="edge1_Node000001_Node000002" class="edge">
<title>Node2&#45;&gt;Node1</title>
<g id="a_edge1_Node000001_Node000002"><a xlink:title=" ">
<path fill="none" stroke="#9a32cd" stroke-dasharray="5,2" d="M111.97,-63C115.69,-53.9 121.46,-43.86 130.12,-38 160.95,-17.14 262.72,-12.15 325.29,-11.1"/>
<polygon fill="#9a32cd" stroke="#9a32cd" points="108.74,-61.63 108.81,-72.23 115.36,-63.91 108.74,-61.63"/>
</a>
</g>
<text xml:space="preserve" text-anchor="start" x="133.12" y="-43.5" font-family="Helvetica,sans-Serif" font-size="10.00" fill="grey">thread</text>
</g>
<!-- Node3 -->
<g id="Node000003" class="node">
<title>Node3</title>
<g id="a_Node000003"><a xlink:href="../../d1/dbc/structSDL__AtomicInt.html" target="_top" xlink:title=" ">
<polygon fill="white" stroke="#666666" points="161.5,-168 78.75,-168 78.75,-148 161.5,-148 161.5,-168"/>
<text xml:space="preserve" text-anchor="middle" x="120.12" y="-154.5" font-family="Helvetica,sans-Serif" font-size="10.00">SDL_AtomicInt</text>
</a>
</g>
</g>
<!-- Node3&#45;&gt;Node2 -->
<g id="edge2_Node000002_Node000003" class="edge">
<title>Node3&#45;&gt;Node2</title>
<g id="a_edge2_Node000002_Node000003"><a xlink:title=" ">
<path fill="none" stroke="#9a32cd" stroke-dasharray="5,2" d="M116.16,-136.6C113.45,-122.65 109.98,-104.82 107.91,-94.19"/>
<polygon fill="#9a32cd" stroke="#9a32cd" points="112.66,-136.95 118.01,-146.1 119.53,-135.62 112.66,-136.95"/>
</a>
</g>
<text xml:space="preserve" text-anchor="start" x="117.79" y="-117.5" font-family="Helvetica,sans-Serif" font-size="10.00" fill="grey">state</text>
</g>
<!-- Node4 -->
<g id="Node000004" class="node">
<title>Node4</title>
<g id="a_Node000004"><a xlink:href="../../dc/dd9/structSDL__error.html" target="_top" xlink:title=" ">
<polygon fill="white" stroke="#666666" points="60.25,-168 0,-168 0,-148 60.25,-148 60.25,-168"/>
<text xml:space="preserve" text-anchor="middle" x="30.12" y="-154.5" font-family="Helvetica,sans-Serif" font-size="10.00">SDL_error</text>
</a>
</g>
</g>
<!-- Node4&#45;&gt;Node2 -->
<g id="edge3_Node000002_Node000004" class="edge">
<title>Node4&#45;&gt;Node2</title>
<g id="a_edge3_Node000002_Node000004"><a xlink:title=" ">
<path fill="none" stroke="#9a32cd" stroke-dasharray="5,2" d="M47.72,-139.6C56.29,-131.19 66.8,-121 76.38,-112 82.68,-106.08 89.85,-99.56 95.58,-94.41"/>
<polygon fill="#9a32cd" stroke="#9a32cd" points="45.35,-137.02 40.68,-146.53 50.26,-142.01 45.35,-137.02"/>
</a>
</g>
<text xml:space="preserve" text-anchor="start" x="79.38" y="-117.5" font-family="Helvetica,sans-Serif" font-size="10.00" fill="grey">errbuf</text>
</g>
<!-- Node5 -->
<g id="Node000005" class="node">
<title>Node5</title>
<g id="a_Node000005"><a xlink:href="../../d0/df2/structSDL__Mutex.html" target="_top" xlink:title=" ">
<polygon fill="white" stroke="#666666" points="283,-168 215.25,-168 215.25,-148 283,-148 283,-168"/>
<text xml:space="preserve" text-anchor="middle" x="249.12" y="-154.5" font-family="Helvetica,sans-Serif" font-size="10.00">SDL_Mutex</text>
</a>
</g>
</g>
<!-- Node5&#45;&gt;Node1 -->
<g id="edge4_Node000001_Node000005" class="edge">
<title>Node5&#45;&gt;Node1</title>
<g id="a_edge4_Node000001_Node000005"><a xlink:title=" ">
<path fill="none" stroke="#9a32cd" stroke-dasharray="5,2" d="M223.21,-141.44C198.98,-124.89 168.91,-97.85 186.12,-74 217.66,-30.33 280.66,-16.44 325.46,-12.29"/>
<polygon fill="#9a32cd" stroke="#9a32cd" points="221.19,-144.31 231.49,-146.82 225.01,-138.44 221.19,-144.31"/>
</a>
</g>
<text xml:space="preserve" text-anchor="start" x="189.12" y="-80.5" font-family="Helvetica,sans-Serif" font-size="10.00" fill="grey">mutex</text>
</g>
<!-- Node6 -->
<g id="Node000006" class="node">
<title>Node6</title>
<g id="a_Node000006"><a xlink:href="../../d8/d0b/structSDL__Semaphore.html" target="_top" xlink:title=" ">
<polygon fill="white" stroke="#666666" points="318.25,-94 228,-94 228,-74 318.25,-74 318.25,-94"/>
<text xml:space="preserve" text-anchor="middle" x="273.12" y="-80.5" font-family="Helvetica,sans-Serif" font-size="10.00">SDL_Semaphore</text>
</a>
</g>
</g>
<!-- Node5&#45;&gt;Node6 -->
<g id="edge6_Node000006_Node000005" class="edge">
<title>Node5&#45;&gt;Node6</title>
<g id="a_edge6_Node000006_Node000005"><a xlink:title=" ">
<path fill="none" stroke="#9a32cd" stroke-dasharray="5,2" d="M255.78,-137.02C260.46,-123.01 266.48,-104.93 270.06,-94.19"/>
<polygon fill="#9a32cd" stroke="#9a32cd" points="252.58,-135.56 252.74,-146.15 259.22,-137.77 252.58,-135.56"/>
</a>
</g>
<text xml:space="preserve" text-anchor="start" x="266.98" y="-117.5" font-family="Helvetica,sans-Serif" font-size="10.00" fill="grey">count_lock</text>
</g>
<!-- Node9 -->
<g id="Node000009" class="node">
<title>Node9</title>
<g id="a_Node000009"><a xlink:href="../../d0/ddb/struct__SDL__ThreadBarrier.html" target="_top" xlink:title=" ">
<polygon fill="white" stroke="#666666" points="539.38,-94 434.88,-94 434.88,-74 539.38,-74 539.38,-94"/>
<text xml:space="preserve" text-anchor="middle" x="487.12" y="-80.5" font-family="Helvetica,sans-Serif" font-size="10.00">_SDL_ThreadBarrier</text>
</a>
</g>
</g>
<!-- Node5&#45;&gt;Node9 -->
<g id="edge11_Node000009_Node000005" class="edge">
<title>Node5&#45;&gt;Node9</title>
<g id="a_edge11_Node000009_Node000005"><a xlink:title=" ">
<path fill="none" stroke="#9a32cd" stroke-dasharray="5,2" d="M290.5,-143.63C300.75,-139.74 311.53,-135.13 321.12,-130 333.2,-123.54 333.55,-117.41 346.12,-112 361.86,-105.22 401.37,-97.94 434.58,-92.64"/>
<polygon fill="#9a32cd" stroke="#9a32cd" points="289.31,-140.34 281.1,-147.04 291.7,-146.92 289.31,-140.34"/>
</a>
</g>
<text xml:space="preserve" text-anchor="start" x="349.12" y="-117.5" font-family="Helvetica,sans-Serif" font-size="10.00" fill="grey">mutex</text>
</g>
<!-- Node6&#45;&gt;Node5 -->
<g id="edge5_Node000005_Node000006" class="edge">
<title>Node6&#45;&gt;Node5</title>
<g id="a_edge5_Node000005_Node000006"><a xlink:title=" ">
<path fill="none" stroke="#9a32cd" stroke-dasharray="5,2" d="M236.8,-100.45C232.65,-103.67 228.98,-107.49 226.38,-112 219.46,-123.98 229.75,-138.31 238.64,-147.53"/>
<polygon fill="#9a32cd" stroke="#9a32cd" points="238.6,-103.46 245.16,-95.14 234.84,-97.55 238.6,-103.46"/>
</a>
</g>
<text xml:space="preserve" text-anchor="start" x="229.38" y="-117.5" font-family="Helvetica,sans-Serif" font-size="10.00" fill="grey">sem</text>
</g>
<!-- Node7 -->
<g id="Node000007" class="node">
<title>Node7</title>
<g id="a_Node000007"><a xlink:href="../../d0/d07/structSDL__Condition.html" target="_top" xlink:title=" ">
<polygon fill="white" stroke="#666666" points="539.12,-168 457.12,-168 457.12,-148 539.12,-148 539.12,-168"/>
<text xml:space="preserve" text-anchor="middle" x="498.12" y="-154.5" font-family="Helvetica,sans-Serif" font-size="10.00">SDL_Condition</text>
</a>
</g>
</g>
<!-- Node7&#45;&gt;Node1 -->
<g id="edge8_Node000001_Node000007" class="edge">
<title>Node7&#45;&gt;Node1</title>
<g id="a_edge8_Node000001_Node000007"><a xlink:title=" ">
<path fill="none" stroke="#9a32cd" stroke-dasharray="5,2" d="M519.85,-140.41C538.98,-123.68 561.84,-97.1 548.12,-74 523.61,-32.71 468.18,-18.21 426.82,-13.26"/>
<polygon fill="#9a32cd" stroke="#9a32cd" points="517.84,-137.53 512.36,-146.6 522.3,-142.92 517.84,-137.53"/>
</a>
</g>
<text xml:space="preserve" text-anchor="start" x="555.3" y="-80.5" font-family="Helvetica,sans-Serif" font-size="10.00" fill="grey">condition</text>
</g>
<!-- Node7&#45;&gt;Node6 -->
<g id="edge7_Node000006_Node000007" class="edge">
<title>Node7&#45;&gt;Node6</title>
<g id="a_edge7_Node000006_Node000007"><a xlink:title=" ">
<path fill="none" stroke="#9a32cd" stroke-dasharray="5,2" d="M454.92,-143.98C442.63,-139.9 429.35,-135.11 417.38,-130 401.56,-123.25 399.21,-118.09 383.12,-112 362.44,-104.16 338.69,-98 318.57,-93.55"/>
<polygon fill="#9a32cd" stroke="#9a32cd" points="453.82,-147.3 464.41,-147.06 455.98,-140.64 453.82,-147.3"/>
</a>
</g>
<text xml:space="preserve" text-anchor="start" x="420.38" y="-117.5" font-family="Helvetica,sans-Serif" font-size="10.00" fill="grey">count_nonzero</text>
</g>
<!-- Node7&#45;&gt;Node9 -->
<g id="edge12_Node000009_Node000007" class="edge">
<title>Node7&#45;&gt;Node9</title>
<g id="a_edge12_Node000009_Node000007"><a xlink:title=" ">
<path fill="none" stroke="#9a32cd" stroke-dasharray="5,2" d="M495.01,-136.6C492.88,-122.65 490.15,-104.82 488.53,-94.19"/>
<polygon fill="#9a32cd" stroke="#9a32cd" points="491.49,-136.73 496.46,-146.09 498.41,-135.68 491.49,-136.73"/>
</a>
</g>
<text xml:space="preserve" text-anchor="start" x="496.93" y="-117.5" font-family="Helvetica,sans-Serif" font-size="10.00" fill="grey">cond</text>
</g>
<!-- Node8 -->
<g id="Node000008" class="node">
<title>Node8</title>
<g id="a_Node000008"><a xlink:href="../../d7/dea/structpthread__barrier.html" target="_top" xlink:title=" ">
<polygon fill="white" stroke="#666666" points="416.38,-94 335.88,-94 335.88,-74 416.38,-74 416.38,-94"/>
<text xml:space="preserve" text-anchor="middle" x="376.12" y="-80.5" font-family="Helvetica,sans-Serif" font-size="10.00">pthread_barrier</text>
</a>
</g>
</g>
<!-- Node8&#45;&gt;Node1 -->
<g id="edge9_Node000001_Node000008" class="edge">
<title>Node8&#45;&gt;Node1</title>
<g id="a_edge9_Node000001_Node000008"><a xlink:title=" ">
<path fill="none" stroke="#9a32cd" stroke-dasharray="5,2" d="M376.12,-62.18C376.12,-48.29 376.12,-30.71 376.12,-20.19"/>
<polygon fill="#9a32cd" stroke="#9a32cd" points="372.63,-62.07 376.13,-72.07 379.63,-62.07 372.63,-62.07"/>
</a>
</g>
<text xml:space="preserve" text-anchor="start" x="379.12" y="-43.5" font-family="Helvetica,sans-Serif" font-size="10.00" fill="grey">barrier</text>
</g>
<!-- Node9&#45;&gt;Node1 -->
<g id="edge10_Node000001_Node000009" class="edge">
<title>Node9&#45;&gt;Node1</title>
<g id="a_edge10_Node000001_Node000009"><a xlink:title=" ">
<path fill="none" stroke="#9a32cd" stroke-dasharray="5,2" d="M462.96,-67.33C440.9,-53.02 409.01,-32.33 390.64,-20.42"/>
<polygon fill="#9a32cd" stroke="#9a32cd" points="461.05,-70.26 471.34,-72.76 464.86,-64.39 461.05,-70.26"/>
</a>
</g>
<text xml:space="preserve" text-anchor="start" x="447.83" y="-43.5" font-family="Helvetica,sans-Serif" font-size="10.00" fill="grey">barrier</text>
</g>
</g>
</svg>
