<?xml version="1.0" encoding="UTF-8" standalone="no"?>
<!DOCTYPE svg PUBLIC "-//W3C//DTD SVG 1.1//EN"
 "http://www.w3.org/Graphics/SVG/1.1/DTD/svg11.dtd">
<!-- Generated by graphviz version 13.1.0 (20250701.0955)
 -->
<!-- Title: SDL_UpdateSurfaceLockFlag Pages: 1 -->
<svg width="433pt" height="28pt"
 viewBox="0.00 0.00 433.00 28.00" xmlns="http://www.w3.org/2000/svg" xmlns:xlink="http://www.w3.org/1999/xlink">
<g id="graph0" class="graph" transform="scale(1 1) rotate(0) translate(4 24)">
<title>SDL_UpdateSurfaceLockFlag</title>
<!-- Node1 -->
<g id="Node000001" class="node">
<title>Node1</title>
<g id="a_Node000001"><a xlink:title=" ">
<polygon fill="#999999" stroke="#666666" points="145.75,-20 0,-20 0,0 145.75,0 145.75,-20"/>
<text xml:space="preserve" text-anchor="middle" x="72.88" y="-6.5" font-family="Helvetica,sans-Serif" font-size="10.00">SDL_UpdateSurfaceLockFlag</text>
</a>
</g>
</g>
<!-- Node2 -->
<g id="Node000002" class="node">
<title>Node2</title>
<g id="a_Node000002"><a xlink:href="../../d4/d8e/SDL__surface_8c.html#a71cf85c479a84d02ae06710db79a1f91" target="_top" xlink:title=" ">
<polygon fill="white" stroke="#666666" points="293.75,-20 181.75,-20 181.75,0 293.75,0 293.75,-20"/>
<text xml:space="preserve" text-anchor="middle" x="237.75" y="-6.5" font-family="Helvetica,sans-Serif" font-size="10.00">SDL_SurfaceHasRLE</text>
</a>
</g>
</g>
<!-- Node1&#45;&gt;Node2 -->
<g id="edge1_Node000001_Node000002" class="edge">
<title>Node1&#45;&gt;Node2</title>
<g id="a_edge1_Node000001_Node000002"><a xlink:title=" ">
<path fill="none" stroke="#63b8ff" d="M145.79,-10C153.8,-10 161.95,-10 169.89,-10"/>
<polygon fill="#63b8ff" stroke="#63b8ff" points="169.85,-13.5 179.85,-10 169.85,-6.5 169.85,-13.5"/>
</a>
</g>
</g>
<!-- Node3 -->
<g id="Node000003" class="node">
<title>Node3</title>
<g id="a_Node000003"><a xlink:href="../../d4/d8e/SDL__surface_8c.html#a4a47e8e6c37116eac3ae2c575b24dd5c" target="_top" xlink:title=" ">
<polygon fill="white" stroke="#666666" points="425.25,-20 329.75,-20 329.75,0 425.25,0 425.25,-20"/>
<text xml:space="preserve" text-anchor="middle" x="377.5" y="-6.5" font-family="Helvetica,sans-Serif" font-size="10.00">SDL_SurfaceValid</text>
</a>
</g>
</g>
<!-- Node2&#45;&gt;Node3 -->
<g id="edge2_Node000002_Node000003" class="edge">
<title>Node2&#45;&gt;Node3</title>
<g id="a_edge2_Node000002_Node000003"><a xlink:title=" ">
<path fill="none" stroke="#63b8ff" d="M293.98,-10C302.02,-10 310.32,-10 318.41,-10"/>
<polygon fill="#63b8ff" stroke="#63b8ff" points="318.16,-13.5 328.16,-10 318.16,-6.5 318.16,-13.5"/>
</a>
</g>
</g>
</g>
</svg>
