<?xml version="1.0" encoding="UTF-8" standalone="no"?>
<!DOCTYPE svg PUBLIC "-//W3C//DTD SVG 1.1//EN"
 "http://www.w3.org/Graphics/SVG/1.1/DTD/svg11.dtd">
<!-- Generated by graphviz version 13.1.0 (20250701.0955)
 -->
<!-- Title: SDL_ConvertSurface Pages: 1 -->
<!--zoomable 445 -->

<svg id="main" version="1.1" xmlns="http://www.w3.org/2000/svg" xmlns:xlink="http://www.w3.org/1999/xlink" xml:space="preserve" onload="init(evt)">

<style type="text/css"><![CDATA[
.node, .edge {opacity: 0.7;}
.node.selected, .edge.selected {opacity: 1;}
.edge:hover path { stroke: red; }
.edge:hover polygon { stroke: red; fill: red; }
]]></style>

<defs>
  <circle id="rim" cx="0" cy="0" r="7"/>
  <circle id="rim2" cx="0" cy="0" r="3.5"/>
  <g id="zoomPlus">
    <use xlink:href="#rim" fill="#404040"><set attributeName="fill" to="#808080" begin="zoomplus.mouseover" end="zoomplus.mouseout"/></use>
    <path d="M-4,0h8M0,-4v8" fill="none" stroke="white" stroke-width="1.5" pointer-events="none"/>
  </g>
  <g id="zoomMin">
    <use xlink:href="#rim" fill="#404040"><set attributeName="fill" to="#808080" begin="zoomminus.mouseover" end="zoomminus.mouseout"/></use>
    <path d="M-4,0h8" fill="none" stroke="white" stroke-width="1.5" pointer-events="none"/>
  </g>
  <g id="arrowUp" transform="translate(30 24)">
    <use xlink:href="#rim"/>
    <path pointer-events="none" fill="none" stroke="white" stroke-width="1.5" d="M0,-3.0v7 M-2.5,-0.5L0,-3.0L2.5,-0.5"/>
  </g>
  <g id="arrowRight" transform="rotate(90) translate(36 -43)">
    <use xlink:href="#rim"/>
    <path pointer-events="none" fill="none" stroke="white" stroke-width="1.5" d="M0,-3.0v7 M-2.5,-0.5L0,-3.0L2.5,-0.5"/>
  </g>
  <g id="arrowDown" transform="rotate(180) translate(-30 -48)">
    <use xlink:href="#rim"/>
    <path pointer-events="none" fill="none" stroke="white" stroke-width="1.5" d="M0,-3.0v7 M-2.5,-0.5L0,-3.0L2.5,-0.5"/>
  </g>
  <g id="arrowLeft" transform="rotate(270) translate(-36 17)">
    <use xlink:href="#rim"/>
    <path pointer-events="none" fill="none" stroke="white" stroke-width="1.5" d="M0,-3.0v7 M-2.5,-0.5L0,-3.0L2.5,-0.5"/>
  </g>
  <g id="resetDef">
    <use xlink:href="#rim2" fill="#404040"><set attributeName="fill" to="#808080" begin="reset.mouseover" end="reset.mouseout"/></use>
  </g>
</defs>
<script type="application/ecmascript">
var viewWidth = 1534;
var viewHeight = 445;
var sectionId = 'dynsection-27';
</script>
<script type="application/ecmascript" xlink:href="../../svg.min.js"/>
<svg id="graph" class="graph">
<g id="viewport">
<title>SDL_ConvertSurface</title>
<!-- Node1 -->
<g id="Node000001" class="node">
<title>Node1</title>
<g id="a_Node000001"><a xlink:title=" ">
<polygon fill="#999999" stroke="#666666" points="1525.5,-191 1416.5,-191 1416.5,-171 1525.5,-171 1525.5,-191"/>
<text xml:space="preserve" text-anchor="middle" x="1471" y="-177.5" font-family="Helvetica,sans-Serif" font-size="10.00">SDL_ConvertSurface</text>
</a>
</g>
</g>
<!-- Node2 -->
<g id="Node000002" class="node">
<title>Node2</title>
<g id="a_Node000002"><a xlink:href="../../d7/dcf/SDL__surface__utils_8c.html#a8b351e80fcc26a222127946a116e8332" target="_top" xlink:title=" ">
<polygon fill="white" stroke="#666666" points="1379.38,-361 1259.12,-361 1259.12,-341 1379.38,-341 1379.38,-361"/>
<text xml:space="preserve" text-anchor="middle" x="1319.25" y="-347.5" font-family="Helvetica,sans-Serif" font-size="10.00">CreateIconFromSurface</text>
</a>
</g>
</g>
<!-- Node1&#45;&gt;Node2 -->
<g id="edge1_Node000001_Node000002" class="edge">
<title>Node1&#45;&gt;Node2</title>
<g id="a_edge1_Node000001_Node000002"><a xlink:title=" ">
<path fill="none" stroke="#63b8ff" d="M1463.24,-201.65C1451.55,-234.15 1424.52,-297.08 1380.5,-332 1376.2,-335.41 1371.29,-338.21 1366.16,-340.51"/>
<polygon fill="#63b8ff" stroke="#63b8ff" points="1466.41,-203.2 1466.36,-192.6 1459.79,-200.91 1466.41,-203.2"/>
</a>
</g>
</g>
<!-- Node5 -->
<g id="Node000005" class="node">
<title>Node5</title>
<g id="a_Node000005"><a xlink:href="../../d4/d8e/SDL__surface_8c.html#a70a8f09bcea477ab3da4030650caf69e" target="_top" xlink:title=" ">
<polygon fill="white" stroke="#666666" points="1220.5,-166 1082.25,-166 1082.25,-134 1220.5,-134 1220.5,-166"/>
<text xml:space="preserve" text-anchor="start" x="1090.25" y="-152.5" font-family="Helvetica,sans-Serif" font-size="10.00">SDL_BlitSurfaceUnchecked</text>
<text xml:space="preserve" text-anchor="middle" x="1151.38" y="-140.5" font-family="Helvetica,sans-Serif" font-size="10.00">Scaled</text>
</a>
</g>
</g>
<!-- Node1&#45;&gt;Node5 -->
<g id="edge4_Node000001_Node000005" class="edge">
<title>Node1&#45;&gt;Node5</title>
<g id="a_edge4_Node000001_Node000005"><a xlink:title=" ">
<path fill="none" stroke="#63b8ff" d="M1404.93,-175.57C1362.96,-171.97 1307.23,-167 1258,-162 1245.97,-160.78 1233.19,-159.4 1220.82,-158.02"/>
<polygon fill="#63b8ff" stroke="#63b8ff" points="1404.61,-179.06 1414.87,-176.42 1405.21,-172.08 1404.61,-179.06"/>
</a>
</g>
</g>
<!-- Node12 -->
<g id="Node000012" class="node">
<title>Node12</title>
<g id="a_Node000012"><a xlink:href="../../d5/d73/SDL__mouse_8c.html#a7d7064c56c3f83488a286589a777f2eb" target="_top" xlink:title=" ">
<polygon fill="white" stroke="#666666" points="1380.5,-323 1258,-323 1258,-303 1380.5,-303 1380.5,-323"/>
<text xml:space="preserve" text-anchor="middle" x="1319.25" y="-309.5" font-family="Helvetica,sans-Serif" font-size="10.00">SDL_CreateColorCursor</text>
</a>
</g>
</g>
<!-- Node1&#45;&gt;Node12 -->
<g id="edge14_Node000001_Node000012" class="edge">
<title>Node1&#45;&gt;Node12</title>
<g id="a_edge14_Node000001_Node000012"><a xlink:title=" ">
<path fill="none" stroke="#63b8ff" d="M1457.81,-201.14C1442.45,-225.03 1413.97,-264.65 1380.5,-289 1372.85,-294.56 1363.74,-299.06 1354.94,-302.59"/>
<polygon fill="#63b8ff" stroke="#63b8ff" points="1460.77,-203.01 1463.11,-192.67 1454.84,-199.29 1460.77,-203.01"/>
</a>
</g>
</g>
<!-- Node32 -->
<g id="Node000032" class="node">
<title>Node32</title>
<g id="a_Node000032"><a xlink:href="../../d4/d8e/SDL__surface_8c.html#a25a1d998317267296f4f69a95a3e23d3" target="_top" xlink:title=" ">
<polygon fill="white" stroke="#666666" points="1379,-229 1259.5,-229 1259.5,-209 1379,-209 1379,-229"/>
<text xml:space="preserve" text-anchor="middle" x="1319.25" y="-215.5" font-family="Helvetica,sans-Serif" font-size="10.00">SDL_ReadSurfacePixel</text>
</a>
</g>
</g>
<!-- Node1&#45;&gt;Node32 -->
<g id="edge39_Node000001_Node000032" class="edge">
<title>Node1&#45;&gt;Node32</title>
<g id="a_edge39_Node000001_Node000032"><a xlink:title=" ">
<path fill="none" stroke="#63b8ff" d="M1417.53,-194.31C1399.14,-198.98 1378.77,-204.15 1361.43,-208.55"/>
<polygon fill="#63b8ff" stroke="#63b8ff" points="1418.38,-197.71 1427.22,-191.86 1416.66,-190.92 1418.38,-197.71"/>
</a>
</g>
</g>
<!-- Node33 -->
<g id="Node000033" class="node">
<title>Node33</title>
<g id="a_Node000033"><a xlink:href="../../d4/d8e/SDL__surface_8c.html#a50534ba6c59465395afef9cf74bdc111" target="_top" xlink:title=" ">
<polygon fill="white" stroke="#666666" points="1222,-229 1080.75,-229 1080.75,-209 1222,-209 1222,-229"/>
<text xml:space="preserve" text-anchor="middle" x="1151.38" y="-215.5" font-family="Helvetica,sans-Serif" font-size="10.00">SDL_ReadSurfacePixelFloat</text>
</a>
</g>
</g>
<!-- Node1&#45;&gt;Node33 -->
<g id="edge43_Node000001_Node000033" class="edge">
<title>Node1&#45;&gt;Node33</title>
<g id="a_edge43_Node000001_Node000033"><a xlink:title=" ">
<path fill="none" stroke="#63b8ff" d="M1454.57,-200.02C1438.36,-218.36 1411,-244.91 1380.5,-256 1307.72,-282.46 1215.02,-247.99 1173.8,-229.43"/>
<polygon fill="#63b8ff" stroke="#63b8ff" points="1457.19,-202.34 1461.01,-192.46 1451.86,-197.8 1457.19,-202.34"/>
</a>
</g>
</g>
<!-- Node34 -->
<g id="Node000034" class="node">
<title>Node34</title>
<g id="a_Node000034"><a xlink:href="../../d8/dc3/SDL__bmp_8c.html#af0a2eb4b50ca5db2da58753f5c52708f" target="_top" xlink:title=" ">
<polygon fill="white" stroke="#666666" points="1369.62,-21 1268.88,-21 1268.88,-1 1369.62,-1 1369.62,-21"/>
<text xml:space="preserve" text-anchor="middle" x="1319.25" y="-7.5" font-family="Helvetica,sans-Serif" font-size="10.00">SDL_SaveBMP_IO</text>
</a>
</g>
</g>
<!-- Node1&#45;&gt;Node34 -->
<g id="edge44_Node000001_Node000034" class="edge">
<title>Node1&#45;&gt;Node34</title>
<g id="a_edge44_Node000001_Node000034"><a xlink:title=" ">
<path fill="none" stroke="#63b8ff" d="M1463.24,-160.35C1451.55,-127.85 1424.52,-64.92 1380.5,-30 1376.2,-26.59 1371.29,-23.79 1366.16,-21.49"/>
<polygon fill="#63b8ff" stroke="#63b8ff" points="1459.79,-161.09 1466.36,-169.4 1466.41,-158.8 1459.79,-161.09"/>
</a>
</g>
</g>
<!-- Node38 -->
<g id="Node000038" class="node">
<title>Node38</title>
<g id="a_Node000038"><a xlink:href="../../d6/d3d/SDL__video_8c.html#a1c44cf03762fcc303f87bad6f4d88508" target="_top" xlink:title=" ">
<polygon fill="white" stroke="#666666" points="1374.12,-97 1264.38,-97 1264.38,-77 1374.12,-77 1374.12,-97"/>
<text xml:space="preserve" text-anchor="middle" x="1319.25" y="-83.5" font-family="Helvetica,sans-Serif" font-size="10.00">SDL_SetWindowIcon</text>
</a>
</g>
</g>
<!-- Node1&#45;&gt;Node38 -->
<g id="edge48_Node000001_Node000038" class="edge">
<title>Node1&#45;&gt;Node38</title>
<g id="a_edge48_Node000001_Node000038"><a xlink:title=" ">
<path fill="none" stroke="#63b8ff" d="M1452.34,-162.51C1435.34,-145.68 1408.2,-121.19 1380.5,-106 1374.44,-102.68 1367.72,-99.84 1361.02,-97.45"/>
<polygon fill="#63b8ff" stroke="#63b8ff" points="1449.67,-164.8 1459.19,-169.46 1454.66,-159.88 1449.67,-164.8"/>
</a>
</g>
</g>
<!-- Node39 -->
<g id="Node000039" class="node">
<title>Node39</title>
<g id="a_Node000039"><a xlink:href="../../d6/d3d/SDL__video_8c.html#a0cf57d6a9a24c0ad18c970218e11f8a5" target="_top" xlink:title=" ">
<polygon fill="white" stroke="#666666" points="1378.62,-59 1259.88,-59 1259.88,-39 1378.62,-39 1378.62,-59"/>
<text xml:space="preserve" text-anchor="middle" x="1319.25" y="-45.5" font-family="Helvetica,sans-Serif" font-size="10.00">SDL_SetWindowShape</text>
</a>
</g>
</g>
<!-- Node1&#45;&gt;Node39 -->
<g id="edge49_Node000001_Node000039" class="edge">
<title>Node1&#45;&gt;Node39</title>
<g id="a_edge49_Node000001_Node000039"><a xlink:title=" ">
<path fill="none" stroke="#63b8ff" d="M1458.99,-160.58C1444.32,-135.27 1416.05,-92.49 1380.5,-68 1375.53,-64.58 1369.92,-61.75 1364.16,-59.42"/>
<polygon fill="#63b8ff" stroke="#63b8ff" points="1455.9,-162.23 1463.84,-169.24 1462,-158.8 1455.9,-162.23"/>
</a>
</g>
</g>
<!-- Node40 -->
<g id="Node000040" class="node">
<title>Node40</title>
<g id="a_Node000040"><a xlink:href="../../d8/df3/SDL__stretch_8c.html#aeec58d3c570af646ad324984ed303e8a" target="_top" xlink:title=" ">
<polygon fill="white" stroke="#666666" points="1372.25,-135 1266.25,-135 1266.25,-115 1372.25,-115 1372.25,-135"/>
<text xml:space="preserve" text-anchor="middle" x="1319.25" y="-121.5" font-family="Helvetica,sans-Serif" font-size="10.00">SDL_StretchSurface</text>
</a>
</g>
</g>
<!-- Node1&#45;&gt;Node40 -->
<g id="edge50_Node000001_Node000040" class="edge">
<title>Node1&#45;&gt;Node40</title>
<g id="a_edge50_Node000001_Node000040"><a xlink:title=" ">
<path fill="none" stroke="#63b8ff" d="M1431.55,-166.62C1405.49,-156.88 1371.66,-144.23 1348.17,-135.44"/>
<polygon fill="#63b8ff" stroke="#63b8ff" points="1430.17,-169.84 1440.77,-170.07 1432.63,-163.29 1430.17,-169.84"/>
</a>
</g>
</g>
<!-- Node3 -->
<g id="Node000003" class="node">
<title>Node3</title>
<g id="a_Node000003"><a xlink:href="../../d1/d09/windows_2SDL__tray_8c.html#a206a4c41714798d7da6da4c129f0973b" target="_top" xlink:title=" ">
<polygon fill="white" stroke="#666666" points="1196.12,-399 1106.62,-399 1106.62,-379 1196.12,-379 1196.12,-399"/>
<text xml:space="preserve" text-anchor="middle" x="1151.38" y="-385.5" font-family="Helvetica,sans-Serif" font-size="10.00">SDL_CreateTray</text>
</a>
</g>
</g>
<!-- Node2&#45;&gt;Node3 -->
<g id="edge2_Node000002_Node000003" class="edge">
<title>Node2&#45;&gt;Node3</title>
<g id="a_edge2_Node000002_Node000003"><a xlink:title=" ">
<path fill="none" stroke="#63b8ff" d="M1261.34,-364.04C1240.15,-368.89 1216.44,-374.32 1196.56,-378.88"/>
<polygon fill="#63b8ff" stroke="#63b8ff" points="1262.04,-367.47 1271.01,-361.82 1260.48,-360.64 1262.04,-367.47"/>
</a>
</g>
</g>
<!-- Node4 -->
<g id="Node000004" class="node">
<title>Node4</title>
<g id="a_Node000004"><a xlink:href="../../d1/d09/windows_2SDL__tray_8c.html#a2372c5e3d0c864715dbeb77d23cbca03" target="_top" xlink:title=" ">
<polygon fill="white" stroke="#666666" points="1198.38,-361 1104.38,-361 1104.38,-341 1198.38,-341 1198.38,-361"/>
<text xml:space="preserve" text-anchor="middle" x="1151.38" y="-347.5" font-family="Helvetica,sans-Serif" font-size="10.00">SDL_SetTrayIcon</text>
</a>
</g>
</g>
<!-- Node2&#45;&gt;Node4 -->
<g id="edge3_Node000002_Node000004" class="edge">
<title>Node2&#45;&gt;Node4</title>
<g id="a_edge3_Node000002_Node000004"><a xlink:title=" ">
<path fill="none" stroke="#63b8ff" d="M1247.52,-351C1230.99,-351 1213.79,-351 1198.63,-351"/>
<polygon fill="#63b8ff" stroke="#63b8ff" points="1247.32,-354.5 1257.32,-351 1247.32,-347.5 1247.32,-354.5"/>
</a>
</g>
</g>
<!-- Node5&#45;&gt;Node5 -->
<g id="edge13_Node000005_Node000005" class="edge">
<title>Node5&#45;&gt;Node5</title>
<g id="a_edge13_Node000005_Node000005"><a xlink:title=" ">
<path fill="none" stroke="#63b8ff" d="M1179.35,-177.71C1174.69,-181.48 1165.36,-184 1151.38,-184 1125.8,-184 1115.81,-175.58 1121.4,-166.44"/>
<polygon fill="#63b8ff" stroke="#63b8ff" points="1182.78,-178.39 1181.08,-167.93 1175.89,-177.17 1182.78,-178.39"/>
</a>
</g>
</g>
<!-- Node6 -->
<g id="Node000006" class="node">
<title>Node6</title>
<g id="a_Node000006"><a xlink:href="../../d4/d8e/SDL__surface_8c.html#ad03c3bf7986461a0cdc686217bd73682" target="_top" xlink:title=" ">
<polygon fill="white" stroke="#666666" points="1039.12,-148 920.38,-148 920.38,-128 1039.12,-128 1039.12,-148"/>
<text xml:space="preserve" text-anchor="middle" x="979.75" y="-134.5" font-family="Helvetica,sans-Serif" font-size="10.00">SDL_BlitSurfaceScaled</text>
</a>
</g>
</g>
<!-- Node5&#45;&gt;Node6 -->
<g id="edge5_Node000005_Node000006" class="edge">
<title>Node5&#45;&gt;Node6</title>
<g id="a_edge5_Node000005_Node000006"><a xlink:title=" ">
<path fill="none" stroke="#63b8ff" d="M1070.56,-144.35C1060.07,-143.61 1049.48,-142.86 1039.43,-142.15"/>
<polygon fill="#63b8ff" stroke="#63b8ff" points="1070.14,-147.83 1080.36,-145.05 1070.63,-140.85 1070.14,-147.83"/>
</a>
</g>
</g>
<!-- Node11 -->
<g id="Node000011" class="node">
<title>Node11</title>
<g id="a_Node000011"><a xlink:href="../../d4/d8e/SDL__surface_8c.html#ac272f372110e77bff24f3bf5aba3e467" target="_top" xlink:title=" ">
<polygon fill="white" stroke="#666666" points="1044.75,-198 914.75,-198 914.75,-166 1044.75,-166 1044.75,-198"/>
<text xml:space="preserve" text-anchor="start" x="922.75" y="-184.5" font-family="Helvetica,sans-Serif" font-size="10.00">SDL_BlitSurfaceTiledWith</text>
<text xml:space="preserve" text-anchor="middle" x="979.75" y="-172.5" font-family="Helvetica,sans-Serif" font-size="10.00">Scale</text>
</a>
</g>
</g>
<!-- Node5&#45;&gt;Node11 -->
<g id="edge12_Node000005_Node000011" class="edge">
<title>Node5&#45;&gt;Node11</title>
<g id="a_edge12_Node000005_Node000011"><a xlink:title=" ">
<path fill="none" stroke="#63b8ff" d="M1070.68,-165.04C1062.11,-166.65 1053.47,-168.28 1045.12,-169.86"/>
<polygon fill="#63b8ff" stroke="#63b8ff" points="1071.21,-168.5 1080.38,-163.2 1069.91,-161.62 1071.21,-168.5"/>
</a>
</g>
</g>
<!-- Node7 -->
<g id="Node000007" class="node">
<title>Node7</title>
<g id="a_Node000007"><a xlink:href="../../d4/d8e/SDL__surface_8c.html#a5158f541548d706c129d2fb600a1036f" target="_top" xlink:title=" ">
<polygon fill="white" stroke="#666666" points="878.75,-148 766.75,-148 766.75,-128 878.75,-128 878.75,-148"/>
<text xml:space="preserve" text-anchor="middle" x="822.75" y="-134.5" font-family="Helvetica,sans-Serif" font-size="10.00">SDL_BlitSurface9Grid</text>
</a>
</g>
</g>
<!-- Node6&#45;&gt;Node7 -->
<g id="edge6_Node000006_Node000007" class="edge">
<title>Node6&#45;&gt;Node7</title>
<g id="a_edge6_Node000006_Node000007"><a xlink:title=" ">
<path fill="none" stroke="#63b8ff" d="M908.64,-138C898.74,-138 888.68,-138 879.11,-138"/>
<polygon fill="#63b8ff" stroke="#63b8ff" points="908.64,-141.5 918.64,-138 908.64,-134.5 908.64,-141.5"/>
</a>
</g>
</g>
<!-- Node8 -->
<g id="Node000008" class="node">
<title>Node8</title>
<g id="a_Node000008"><a xlink:href="../../d4/d8e/SDL__surface_8c.html#af5aa021ea1c9fde2c52baa1363327d87" target="_top" xlink:title=" ">
<polygon fill="white" stroke="#666666" points="871.62,-92 773.88,-92 773.88,-72 871.62,-72 871.62,-92"/>
<text xml:space="preserve" text-anchor="middle" x="822.75" y="-78.5" font-family="Helvetica,sans-Serif" font-size="10.00">SDL_ClearSurface</text>
</a>
</g>
</g>
<!-- Node6&#45;&gt;Node8 -->
<g id="edge7_Node000006_Node000008" class="edge">
<title>Node6&#45;&gt;Node8</title>
<g id="a_edge7_Node000006_Node000008"><a xlink:title=" ">
<path fill="none" stroke="#63b8ff" d="M939.31,-123.75C912.3,-113.99 877.07,-101.27 852.65,-92.44"/>
<polygon fill="#63b8ff" stroke="#63b8ff" points="937.94,-126.98 948.54,-127.08 940.32,-120.39 937.94,-126.98"/>
</a>
</g>
</g>
<!-- Node9 -->
<g id="Node000009" class="node">
<title>Node9</title>
<g id="a_Node000009"><a xlink:href="../../d4/d8e/SDL__surface_8c.html#aa16878687639cda1ecd63fbf62d1c6bf" target="_top" xlink:title=" ">
<polygon fill="white" stroke="#666666" points="872.38,-186 773.12,-186 773.12,-166 872.38,-166 872.38,-186"/>
<text xml:space="preserve" text-anchor="middle" x="822.75" y="-172.5" font-family="Helvetica,sans-Serif" font-size="10.00">SDL_ScaleSurface</text>
</a>
</g>
</g>
<!-- Node6&#45;&gt;Node9 -->
<g id="edge9_Node000006_Node000009" class="edge">
<title>Node6&#45;&gt;Node9</title>
<g id="a_edge9_Node000006_Node000009"><a xlink:title=" ">
<path fill="none" stroke="#63b8ff" d="M924.98,-151.18C905.81,-155.88 884.49,-161.11 866.38,-165.55"/>
<polygon fill="#63b8ff" stroke="#63b8ff" points="925.64,-154.63 934.52,-148.84 923.97,-147.83 925.64,-154.63"/>
</a>
</g>
</g>
<!-- Node8&#45;&gt;Node8 -->
<g id="edge8_Node000008_Node000008" class="edge">
<title>Node8&#45;&gt;Node8</title>
<g id="a_edge8_Node000008_Node000008"><a xlink:title=" ">
<path fill="none" stroke="#63b8ff" d="M850.5,-103.44C846.92,-107.3 837.67,-110 822.75,-110 795.46,-110 787.14,-100.98 797.8,-92.34"/>
<polygon fill="#63b8ff" stroke="#63b8ff" points="853.91,-102.65 848.07,-93.81 847.12,-104.36 853.91,-102.65"/>
</a>
</g>
</g>
<!-- Node9&#45;&gt;Node9 -->
<g id="edge11_Node000009_Node000009" class="edge">
<title>Node9&#45;&gt;Node9</title>
<g id="a_edge11_Node000009_Node000009"><a xlink:title=" ">
<path fill="none" stroke="#63b8ff" d="M850.5,-197.44C846.92,-201.3 837.67,-204 822.75,-204 795.46,-204 787.14,-194.98 797.8,-186.34"/>
<polygon fill="#63b8ff" stroke="#63b8ff" points="853.91,-196.65 848.07,-187.81 847.12,-198.36 853.91,-196.65"/>
</a>
</g>
</g>
<!-- Node10 -->
<g id="Node000010" class="node">
<title>Node10</title>
<g id="a_Node000010"><a xlink:href="../../d4/d8e/SDL__surface_8c.html#acb7a1f4494f58df920f4739ee788ff49" target="_top" xlink:title=" ">
<polygon fill="white" stroke="#666666" points="710.5,-171 593.25,-171 593.25,-151 710.5,-151 710.5,-171"/>
<text xml:space="preserve" text-anchor="middle" x="651.88" y="-157.5" font-family="Helvetica,sans-Serif" font-size="10.00">SDL_GetSurfaceImage</text>
</a>
</g>
</g>
<!-- Node9&#45;&gt;Node10 -->
<g id="edge10_Node000009_Node000010" class="edge">
<title>Node9&#45;&gt;Node10</title>
<g id="a_edge10_Node000009_Node000010"><a xlink:title=" ">
<path fill="none" stroke="#63b8ff" d="M761.71,-170.67C745.18,-169.2 727.28,-167.61 710.87,-166.15"/>
<polygon fill="#63b8ff" stroke="#63b8ff" points="761.13,-174.13 771.4,-171.53 761.75,-167.16 761.13,-174.13"/>
</a>
</g>
</g>
<!-- Node13 -->
<g id="Node000013" class="node">
<title>Node13</title>
<g id="a_Node000013"><a xlink:href="../../d5/d73/SDL__mouse_8c.html#aac342fdbf78395fec8b9b68249a1991b" target="_top" xlink:title=" ">
<polygon fill="white" stroke="#666666" points="1201,-323 1101.75,-323 1101.75,-303 1201,-303 1201,-323"/>
<text xml:space="preserve" text-anchor="middle" x="1151.38" y="-309.5" font-family="Helvetica,sans-Serif" font-size="10.00">SDL_CreateCursor</text>
</a>
</g>
</g>
<!-- Node12&#45;&gt;Node13 -->
<g id="edge15_Node000012_Node000013" class="edge">
<title>Node12&#45;&gt;Node13</title>
<g id="a_edge15_Node000012_Node000013"><a xlink:title=" ">
<path fill="none" stroke="#63b8ff" d="M1246.83,-313C1231.46,-313 1215.55,-313 1201.27,-313"/>
<polygon fill="#63b8ff" stroke="#63b8ff" points="1246.38,-316.5 1256.38,-313 1246.38,-309.5 1246.38,-316.5"/>
</a>
</g>
</g>
<!-- Node14 -->
<g id="Node000014" class="node">
<title>Node14</title>
<g id="a_Node000014"><a xlink:href="../../d5/d73/SDL__mouse_8c.html#a523bb770a44b47006305e19ae932f089" target="_top" xlink:title=" ">
<polygon fill="white" stroke="#666666" points="1203.25,-285 1099.5,-285 1099.5,-265 1203.25,-265 1203.25,-285"/>
<text xml:space="preserve" text-anchor="middle" x="1151.38" y="-271.5" font-family="Helvetica,sans-Serif" font-size="10.00">SDL_PostInitMouse</text>
</a>
</g>
</g>
<!-- Node12&#45;&gt;Node14 -->
<g id="edge16_Node000012_Node000014" class="edge">
<title>Node12&#45;&gt;Node14</title>
<g id="a_edge16_Node000012_Node000014"><a xlink:title=" ">
<path fill="none" stroke="#63b8ff" d="M1261.29,-299.95C1240.62,-295.22 1217.55,-289.93 1197.99,-285.45"/>
<polygon fill="#63b8ff" stroke="#63b8ff" points="1260.48,-303.36 1271.01,-302.18 1262.04,-296.53 1260.48,-303.36"/>
</a>
</g>
</g>
<!-- Node15 -->
<g id="Node000015" class="node">
<title>Node15</title>
<g id="a_Node000015"><a xlink:href="../../d6/d3d/SDL__video_8c.html#ac61dc66ab71d039f9b681916d0fcbc6e" target="_top" xlink:title=" ">
<polygon fill="white" stroke="#666666" points="1019.25,-285 940.25,-285 940.25,-265 1019.25,-265 1019.25,-285"/>
<text xml:space="preserve" text-anchor="middle" x="979.75" y="-271.5" font-family="Helvetica,sans-Serif" font-size="10.00">SDL_VideoInit</text>
</a>
</g>
</g>
<!-- Node14&#45;&gt;Node15 -->
<g id="edge17_Node000014_Node000015" class="edge">
<title>Node14&#45;&gt;Node15</title>
<g id="a_edge17_Node000014_Node000015"><a xlink:title=" ">
<path fill="none" stroke="#63b8ff" d="M1087.68,-275C1064.84,-275 1039.7,-275 1019.53,-275"/>
<polygon fill="#63b8ff" stroke="#63b8ff" points="1087.51,-278.5 1097.51,-275 1087.51,-271.5 1087.51,-278.5"/>
</a>
</g>
</g>
<!-- Node16 -->
<g id="Node000016" class="node">
<title>Node16</title>
<g id="a_Node000016"><a xlink:href="../../df/d78/SDL_8c.html#aa33d2b8c0a69b16651f78c26f391b6ef" target="_top" xlink:title=" ">
<polygon fill="white" stroke="#666666" points="875.38,-285 770.12,-285 770.12,-265 875.38,-265 875.38,-285"/>
<text xml:space="preserve" text-anchor="middle" x="822.75" y="-271.5" font-family="Helvetica,sans-Serif" font-size="10.00">SDL_InitSubSystem</text>
</a>
</g>
</g>
<!-- Node15&#45;&gt;Node16 -->
<g id="edge18_Node000015_Node000016" class="edge">
<title>Node15&#45;&gt;Node16</title>
<g id="a_edge18_Node000015_Node000016"><a xlink:title=" ">
<path fill="none" stroke="#63b8ff" d="M928.68,-268.64C911.73,-268.14 892.78,-268.12 875.7,-268.59"/>
<polygon fill="#63b8ff" stroke="#63b8ff" points="928.4,-272.13 938.52,-269.01 928.66,-265.14 928.4,-272.13"/>
</a>
</g>
</g>
<!-- Node16&#45;&gt;Node15 -->
<g id="edge38_Node000016_Node000015" class="edge">
<title>Node16&#45;&gt;Node15</title>
<g id="a_edge38_Node000016_Node000015"><a xlink:title=" ">
<path fill="none" stroke="#63b8ff" d="M887.01,-281.65C904.98,-281.91 924,-281.67 940.04,-280.93"/>
<polygon fill="#63b8ff" stroke="#63b8ff" points="887.28,-278.15 877.21,-281.44 887.14,-285.15 887.28,-278.15"/>
</a>
</g>
</g>
<!-- Node17 -->
<g id="Node000017" class="node">
<title>Node17</title>
<g id="a_Node000017"><a xlink:href="../../d6/df9/SDL__joystick_8c.html#a7d2531dc4fbc8de52a29ac3ec171a495" target="_top" xlink:title=" ">
<polygon fill="white" stroke="#666666" points="507.38,-399 396.88,-399 396.88,-379 507.38,-379 507.38,-399"/>
<text xml:space="preserve" text-anchor="middle" x="452.12" y="-385.5" font-family="Helvetica,sans-Serif" font-size="10.00">AttemptSensorFusion</text>
</a>
</g>
</g>
<!-- Node16&#45;&gt;Node17 -->
<g id="edge19_Node000016_Node000017" class="edge">
<title>Node16&#45;&gt;Node17</title>
<g id="a_edge19_Node000016_Node000017"><a xlink:title=" ">
<path fill="none" stroke="#63b8ff" d="M809.5,-294.75C794.2,-317.44 765.73,-353.63 730.75,-370 659.2,-403.47 565.8,-401.94 507.65,-396.46"/>
<polygon fill="#63b8ff" stroke="#63b8ff" points="812.24,-296.96 814.76,-286.67 806.37,-293.14 812.24,-296.96"/>
</a>
</g>
</g>
<!-- Node20 -->
<g id="Node000020" class="node">
<title>Node20</title>
<g id="a_Node000020"><a xlink:href="../../d6/df9/SDL__joystick_8c.html#a94fd638a34a769ff6a7a01738257215c" target="_top" xlink:title=" ">
<polygon fill="white" stroke="#666666" points="683.5,-361 620.25,-361 620.25,-341 683.5,-341 683.5,-361"/>
<text xml:space="preserve" text-anchor="middle" x="651.88" y="-347.5" font-family="Helvetica,sans-Serif" font-size="10.00">IsROGAlly</text>
</a>
</g>
</g>
<!-- Node16&#45;&gt;Node20 -->
<g id="edge22_Node000016_Node000020" class="edge">
<title>Node16&#45;&gt;Node20</title>
<g id="a_edge22_Node000016_Node000020"><a xlink:title=" ">
<path fill="none" stroke="#63b8ff" d="M799.35,-291.89C781.58,-304.57 755.67,-321.48 730.75,-332 715.88,-338.28 698.49,-342.77 683.93,-345.8"/>
<polygon fill="#63b8ff" stroke="#63b8ff" points="801.08,-294.96 807.1,-286.25 796.96,-289.31 801.08,-294.96"/>
</a>
</g>
</g>
<!-- Node22 -->
<g id="Node000022" class="node">
<title>Node22</title>
<g id="a_Node000022"><a xlink:href="../../df/d78/SDL_8c.html#ac25d0ce460db43ca8c7681eb8e7c5007" target="_top" xlink:title=" ">
<polygon fill="white" stroke="#666666" points="679,-323 624.75,-323 624.75,-303 679,-303 679,-323"/>
<text xml:space="preserve" text-anchor="middle" x="651.88" y="-309.5" font-family="Helvetica,sans-Serif" font-size="10.00">SDL_Init</text>
</a>
</g>
</g>
<!-- Node16&#45;&gt;Node22 -->
<g id="edge25_Node000016_Node000022" class="edge">
<title>Node16&#45;&gt;Node22</title>
<g id="a_edge25_Node000016_Node000022"><a xlink:title=" ">
<path fill="none" stroke="#63b8ff" d="M764,-288C735.27,-294.46 701.96,-301.96 679.35,-307.04"/>
<polygon fill="#63b8ff" stroke="#63b8ff" points="764.69,-291.43 773.68,-285.82 763.16,-284.6 764.69,-291.43"/>
</a>
</g>
</g>
<!-- Node27 -->
<g id="Node000027" class="node">
<title>Node27</title>
<g id="a_Node000027"><a xlink:href="../../d6/df9/SDL__joystick_8c.html#a9340afa4acb6b0fad4affbb99d4fa014" target="_top" xlink:title=" ">
<polygon fill="white" stroke="#666666" points="700,-285 603.75,-285 603.75,-265 700,-265 700,-285"/>
<text xml:space="preserve" text-anchor="middle" x="651.88" y="-271.5" font-family="Helvetica,sans-Serif" font-size="10.00">SDL_InitJoysticks</text>
</a>
</g>
</g>
<!-- Node16&#45;&gt;Node27 -->
<g id="edge30_Node000016_Node000027" class="edge">
<title>Node16&#45;&gt;Node27</title>
<g id="a_edge30_Node000016_Node000027"><a xlink:title=" ">
<path fill="none" stroke="#63b8ff" d="M758.31,-268.44C739.13,-268.09 718.4,-268.23 700.44,-268.86"/>
<polygon fill="#63b8ff" stroke="#63b8ff" points="758.11,-271.94 768.19,-268.68 758.28,-264.94 758.11,-271.94"/>
</a>
</g>
</g>
<!-- Node28 -->
<g id="Node000028" class="node">
<title>Node28</title>
<g id="a_Node000028"><a xlink:href="../../d9/d78/SDL__main__callbacks_8c.html#a3d21b5bf7aa441418de48c5b2856336a" target="_top" xlink:title=" ">
<polygon fill="white" stroke="#666666" points="711.25,-247 592.5,-247 592.5,-227 711.25,-227 711.25,-247"/>
<text xml:space="preserve" text-anchor="middle" x="651.88" y="-233.5" font-family="Helvetica,sans-Serif" font-size="10.00">SDL_InitMainCallbacks</text>
</a>
</g>
</g>
<!-- Node16&#45;&gt;Node28 -->
<g id="edge32_Node000016_Node000028" class="edge">
<title>Node16&#45;&gt;Node28</title>
<g id="a_edge32_Node000016_Node000028"><a xlink:title=" ">
<path fill="none" stroke="#63b8ff" d="M764.05,-262.02C742.93,-257.26 719.32,-251.95 699.32,-247.45"/>
<polygon fill="#63b8ff" stroke="#63b8ff" points="763.16,-265.4 773.68,-264.18 764.69,-258.57 763.16,-265.4"/>
</a>
</g>
</g>
<!-- Node30 -->
<g id="Node000030" class="node">
<title>Node30</title>
<g id="a_Node000030"><a xlink:href="../../df/d78/SDL_8c.html#a8f0bf712ad7ba759f5b6e04e683c67d4" target="_top" xlink:title=" ">
<polygon fill="white" stroke="#666666" points="730.75,-209 573,-209 573,-189 730.75,-189 730.75,-209"/>
<text xml:space="preserve" text-anchor="middle" x="651.88" y="-195.5" font-family="Helvetica,sans-Serif" font-size="10.00">SDL_InitOrIncrementSubsystem</text>
</a>
</g>
</g>
<!-- Node16&#45;&gt;Node30 -->
<g id="edge34_Node000016_Node000030" class="edge">
<title>Node16&#45;&gt;Node30</title>
<g id="a_edge34_Node000016_Node000030"><a xlink:title=" ">
<path fill="none" stroke="#63b8ff" d="M806.86,-257.06C789.56,-241.79 759.74,-221.31 731.15,-209.17"/>
<polygon fill="#63b8ff" stroke="#63b8ff" points="804.35,-259.5 814,-263.88 809.18,-254.44 804.35,-259.5"/>
</a>
</g>
</g>
<!-- Node31 -->
<g id="Node000031" class="node">
<title>Node31</title>
<g id="a_Node000031"><a xlink:href="../../dc/de1/SDL__sensor_8c.html#abdb7d6b73a301a2c8558ba80edb32331" target="_top" xlink:title=" ">
<polygon fill="white" stroke="#666666" points="697,-437 606.75,-437 606.75,-417 697,-417 697,-437"/>
<text xml:space="preserve" text-anchor="middle" x="651.88" y="-423.5" font-family="Helvetica,sans-Serif" font-size="10.00">SDL_InitSensors</text>
</a>
</g>
</g>
<!-- Node16&#45;&gt;Node31 -->
<g id="edge36_Node000016_Node000031" class="edge">
<title>Node16&#45;&gt;Node31</title>
<g id="a_edge36_Node000016_Node000031"><a xlink:title=" ">
<path fill="none" stroke="#63b8ff" d="M809.55,-294.91C794.84,-321.47 767.46,-367.47 730.75,-394 714.35,-405.85 691.98,-411.95 675.42,-416.6"/>
<polygon fill="#63b8ff" stroke="#63b8ff" points="812.44,-296.91 814.17,-286.46 806.3,-293.55 812.44,-296.91"/>
</a>
</g>
</g>
<!-- Node18 -->
<g id="Node000018" class="node">
<title>Node18</title>
<g id="a_Node000018"><a xlink:href="../../d6/df9/SDL__joystick_8c.html#a0c867d96ec6bc9c3aca87c8ee6b53ade" target="_top" xlink:title=" ">
<polygon fill="white" stroke="#666666" points="315.12,-380 214.38,-380 214.38,-360 315.12,-360 315.12,-380"/>
<text xml:space="preserve" text-anchor="middle" x="264.75" y="-366.5" font-family="Helvetica,sans-Serif" font-size="10.00">SDL_OpenJoystick</text>
</a>
</g>
</g>
<!-- Node17&#45;&gt;Node18 -->
<g id="edge20_Node000017_Node000018" class="edge">
<title>Node17&#45;&gt;Node18</title>
<g id="a_edge20_Node000017_Node000018"><a xlink:title=" ">
<path fill="none" stroke="#63b8ff" d="M385.13,-382.24C362.22,-379.89 336.93,-377.3 315.55,-375.1"/>
<polygon fill="#63b8ff" stroke="#63b8ff" points="384.7,-385.71 395,-383.25 385.41,-378.75 384.7,-385.71"/>
</a>
</g>
</g>
<!-- Node19 -->
<g id="Node000019" class="node">
<title>Node19</title>
<g id="a_Node000019"><a xlink:href="../../d0/d82/SDL__gamepad_8c.html#a011496690758b66ec0f7098f030b6d85" target="_top" xlink:title=" ">
<polygon fill="white" stroke="#666666" points="134.12,-380 28.12,-380 28.12,-360 134.12,-360 134.12,-380"/>
<text xml:space="preserve" text-anchor="middle" x="81.12" y="-366.5" font-family="Helvetica,sans-Serif" font-size="10.00">SDL_OpenGamepad</text>
</a>
</g>
</g>
<!-- Node18&#45;&gt;Node19 -->
<g id="edge21_Node000018_Node000019" class="edge">
<title>Node18&#45;&gt;Node19</title>
<g id="a_edge21_Node000018_Node000019"><a xlink:title=" ">
<path fill="none" stroke="#63b8ff" d="M202.82,-370C180.69,-370 155.89,-370 134.55,-370"/>
<polygon fill="#63b8ff" stroke="#63b8ff" points="202.61,-373.5 212.61,-370 202.61,-366.5 202.61,-373.5"/>
</a>
</g>
</g>
<!-- Node21 -->
<g id="Node000021" class="node">
<title>Node21</title>
<g id="a_Node000021"><a xlink:href="../../d6/df9/SDL__joystick_8c.html#a497945f75b33dbfcde319992145025c5" target="_top" xlink:title=" ">
<polygon fill="white" stroke="#666666" points="522.38,-361 381.88,-361 381.88,-341 522.38,-341 522.38,-361"/>
<text xml:space="preserve" text-anchor="middle" x="452.12" y="-347.5" font-family="Helvetica,sans-Serif" font-size="10.00">ShouldAttemptSensorFusion</text>
</a>
</g>
</g>
<!-- Node20&#45;&gt;Node21 -->
<g id="edge23_Node000020_Node000021" class="edge">
<title>Node20&#45;&gt;Node21</title>
<g id="a_edge23_Node000020_Node000021"><a xlink:title=" ">
<path fill="none" stroke="#63b8ff" d="M608.69,-351C583.69,-351 551.39,-351 522.71,-351"/>
<polygon fill="#63b8ff" stroke="#63b8ff" points="608.46,-354.5 618.46,-351 608.46,-347.5 608.46,-354.5"/>
</a>
</g>
</g>
<!-- Node21&#45;&gt;Node18 -->
<g id="edge24_Node000021_Node000018" class="edge">
<title>Node21&#45;&gt;Node18</title>
<g id="a_edge24_Node000021_Node000018"><a xlink:title=" ">
<path fill="none" stroke="#63b8ff" d="M370.36,-359.28C351.68,-361.19 332.33,-363.18 315.44,-364.91"/>
<polygon fill="#63b8ff" stroke="#63b8ff" points="370.47,-362.78 380.07,-358.28 369.76,-355.82 370.47,-362.78"/>
</a>
</g>
</g>
<!-- Node23 -->
<g id="Node000023" class="node">
<title>Node23</title>
<g id="a_Node000023"><a xlink:href="../../d6/d3d/SDL__video_8c.html#a9f3d88531134e2c3e575a3c2db7f8488" target="_top" xlink:title=" ">
<polygon fill="white" stroke="#666666" points="537,-323 367.25,-323 367.25,-303 537,-303 537,-323"/>
<text xml:space="preserve" text-anchor="middle" x="452.12" y="-309.5" font-family="Helvetica,sans-Serif" font-size="10.00">SDL_CreateWindowWithProperties</text>
</a>
</g>
</g>
<!-- Node22&#45;&gt;Node23 -->
<g id="edge26_Node000022_Node000023" class="edge">
<title>Node22&#45;&gt;Node23</title>
<g id="a_edge26_Node000022_Node000023"><a xlink:title=" ">
<path fill="none" stroke="#63b8ff" d="M613.37,-313C591.84,-313 563.89,-313 537.38,-313"/>
<polygon fill="#63b8ff" stroke="#63b8ff" points="613.1,-316.5 623.1,-313 613.1,-309.5 613.1,-316.5"/>
</a>
</g>
</g>
<!-- Node24 -->
<g id="Node000024" class="node">
<title>Node24</title>
<g id="a_Node000024"><a xlink:href="../../d6/d3d/SDL__video_8c.html#acc26de39ce1bd675446e4d6c05ebf4b0" target="_top" xlink:title=" ">
<polygon fill="white" stroke="#666666" points="331.25,-304 198.25,-304 198.25,-284 331.25,-284 331.25,-304"/>
<text xml:space="preserve" text-anchor="middle" x="264.75" y="-290.5" font-family="Helvetica,sans-Serif" font-size="10.00">SDL_CreatePopupWindow</text>
</a>
</g>
</g>
<!-- Node23&#45;&gt;Node24 -->
<g id="edge27_Node000023_Node000024" class="edge">
<title>Node23&#45;&gt;Node24</title>
<g id="a_edge27_Node000023_Node000024"><a xlink:title=" ">
<path fill="none" stroke="#63b8ff" d="M355.42,-303.19C347.33,-302.36 339.27,-301.54 331.5,-300.74"/>
<polygon fill="#63b8ff" stroke="#63b8ff" points="355.03,-306.67 365.34,-304.21 355.75,-299.71 355.03,-306.67"/>
</a>
</g>
</g>
<!-- Node25 -->
<g id="Node000025" class="node">
<title>Node25</title>
<g id="a_Node000025"><a xlink:href="../../d6/d3d/SDL__video_8c.html#a83103c86f9e5c33ab9e1fb6dfa904b7f" target="_top" xlink:title=" ">
<polygon fill="white" stroke="#666666" points="317.38,-342 212.12,-342 212.12,-322 317.38,-322 317.38,-342"/>
<text xml:space="preserve" text-anchor="middle" x="264.75" y="-328.5" font-family="Helvetica,sans-Serif" font-size="10.00">SDL_CreateWindow</text>
</a>
</g>
</g>
<!-- Node23&#45;&gt;Node25 -->
<g id="edge28_Node000023_Node000025" class="edge">
<title>Node23&#45;&gt;Node25</title>
<g id="a_edge28_Node000023_Node000025"><a xlink:title=" ">
<path fill="none" stroke="#63b8ff" d="M355.44,-322.81C342.45,-324.14 329.54,-325.46 317.73,-326.67"/>
<polygon fill="#63b8ff" stroke="#63b8ff" points="355.75,-326.29 365.34,-321.79 355.03,-319.33 355.75,-326.29"/>
</a>
</g>
</g>
<!-- Node26 -->
<g id="Node000026" class="node">
<title>Node26</title>
<g id="a_Node000026"><a xlink:href="../../dd/df3/SDL__render_8c.html#a36f859fae15e4277ba052f9ecfb2816d" target="_top" xlink:title=" ">
<polygon fill="white" stroke="#666666" points="162.25,-342 0,-342 0,-322 162.25,-322 162.25,-342"/>
<text xml:space="preserve" text-anchor="middle" x="81.12" y="-328.5" font-family="Helvetica,sans-Serif" font-size="10.00">SDL_CreateWindowAndRenderer</text>
</a>
</g>
</g>
<!-- Node25&#45;&gt;Node26 -->
<g id="edge29_Node000025_Node000026" class="edge">
<title>Node25&#45;&gt;Node26</title>
<g id="a_edge29_Node000025_Node000026"><a xlink:title=" ">
<path fill="none" stroke="#63b8ff" d="M200.3,-332C188.14,-332 175.26,-332 162.64,-332"/>
<polygon fill="#63b8ff" stroke="#63b8ff" points="200.19,-335.5 210.19,-332 200.19,-328.5 200.19,-335.5"/>
</a>
</g>
</g>
<!-- Node27&#45;&gt;Node16 -->
<g id="edge31_Node000027_Node000016" class="edge">
<title>Node27&#45;&gt;Node16</title>
<g id="a_edge31_Node000027_Node000016"><a xlink:title=" ">
<path fill="none" stroke="#63b8ff" d="M711.89,-281.47C730.72,-281.9 751.41,-281.84 769.7,-281.29"/>
<polygon fill="#63b8ff" stroke="#63b8ff" points="712.05,-277.97 701.95,-281.19 711.85,-284.97 712.05,-277.97"/>
</a>
</g>
</g>
<!-- Node29 -->
<g id="Node000029" class="node">
<title>Node29</title>
<g id="a_Node000029"><a xlink:href="../../dd/db5/generic_2SDL__sysmain__callbacks_8c.html#aa50e1897a91f2547b5f31125020220e2" target="_top" xlink:title=" ">
<polygon fill="white" stroke="#666666" points="525,-247 379.25,-247 379.25,-227 525,-227 525,-247"/>
<text xml:space="preserve" text-anchor="middle" x="452.12" y="-233.5" font-family="Helvetica,sans-Serif" font-size="10.00">SDL_EnterAppMainCallbacks</text>
</a>
</g>
</g>
<!-- Node28&#45;&gt;Node29 -->
<g id="edge33_Node000028_Node000029" class="edge">
<title>Node28&#45;&gt;Node29</title>
<g id="a_edge33_Node000028_Node000029"><a xlink:title=" ">
<path fill="none" stroke="#63b8ff" d="M580.79,-237C562.81,-237 543.44,-237 525.35,-237"/>
<polygon fill="#63b8ff" stroke="#63b8ff" points="580.57,-240.5 590.57,-237 580.57,-233.5 580.57,-240.5"/>
</a>
</g>
</g>
<!-- Node30&#45;&gt;Node16 -->
<g id="edge35_Node000030_Node000016" class="edge">
<title>Node30&#45;&gt;Node16</title>
<g id="a_edge35_Node000030_Node000016"><a xlink:title=" ">
<path fill="none" stroke="#63b8ff" d="M684.23,-212.44C698.73,-216.29 715.98,-220.76 730.75,-227 754.97,-237.22 780.11,-253.48 797.82,-264.51"/>
<polygon fill="#63b8ff" stroke="#63b8ff" points="685.31,-209.11 674.75,-209.86 683.48,-215.86 685.31,-209.11"/>
</a>
</g>
</g>
<!-- Node31&#45;&gt;Node16 -->
<g id="edge37_Node000031_Node000016" class="edge">
<title>Node31&#45;&gt;Node16</title>
<g id="a_edge37_Node000031_Node000016"><a xlink:title=" ">
<path fill="none" stroke="#63b8ff" d="M708.18,-423.83C716.17,-420.82 723.97,-416.9 730.75,-412 778.04,-377.82 809.86,-311.34 819.02,-285.19"/>
<polygon fill="#63b8ff" stroke="#63b8ff" points="707.11,-420.5 698.68,-426.92 709.28,-427.16 707.11,-420.5"/>
</a>
</g>
</g>
<!-- Node32&#45;&gt;Node32 -->
<g id="edge40_Node000032_Node000032" class="edge">
<title>Node32&#45;&gt;Node32</title>
<g id="a_edge40_Node000032_Node000032"><a xlink:title=" ">
<path fill="none" stroke="#63b8ff" d="M1346.07,-240.44C1342.62,-244.3 1333.68,-247 1319.25,-247 1292.87,-247 1284.83,-237.98 1295.14,-229.34"/>
<polygon fill="#63b8ff" stroke="#63b8ff" points="1349.49,-239.69 1343.72,-230.81 1342.69,-241.35 1349.49,-239.69"/>
</a>
</g>
</g>
<!-- Node32&#45;&gt;Node33 -->
<g id="edge41_Node000032_Node000033" class="edge">
<title>Node32&#45;&gt;Node33</title>
<g id="a_edge41_Node000032_Node000033"><a xlink:title=" ">
<path fill="none" stroke="#63b8ff" d="M1247.95,-219C1239.52,-219 1230.91,-219 1222.48,-219"/>
<polygon fill="#63b8ff" stroke="#63b8ff" points="1247.79,-222.5 1257.79,-219 1247.79,-215.5 1247.79,-222.5"/>
</a>
</g>
</g>
<!-- Node33&#45;&gt;Node33 -->
<g id="edge42_Node000033_Node000033" class="edge">
<title>Node33&#45;&gt;Node33</title>
<g id="a_edge42_Node000033_Node000033"><a xlink:title=" ">
<path fill="none" stroke="#63b8ff" d="M1181.05,-240.44C1177.22,-244.3 1167.33,-247 1151.38,-247 1122.19,-247 1113.3,-237.98 1124.7,-229.34"/>
<polygon fill="#63b8ff" stroke="#63b8ff" points="1184.43,-239.54 1178.44,-230.8 1177.67,-241.37 1184.43,-239.54"/>
</a>
</g>
</g>
<!-- Node35 -->
<g id="Node000035" class="node">
<title>Node35</title>
<g id="a_Node000035"><a xlink:href="../../d8/dc3/SDL__bmp_8c.html#a2ec09df87ef99ab18dc7ba5e61be57d1" target="_top" xlink:title=" ">
<polygon fill="white" stroke="#666666" points="1193.88,-21 1108.88,-21 1108.88,-1 1193.88,-1 1193.88,-21"/>
<text xml:space="preserve" text-anchor="middle" x="1151.38" y="-7.5" font-family="Helvetica,sans-Serif" font-size="10.00">SDL_SaveBMP</text>
</a>
</g>
</g>
<!-- Node34&#45;&gt;Node35 -->
<g id="edge45_Node000034_Node000035" class="edge">
<title>Node34&#45;&gt;Node35</title>
<g id="a_edge45_Node000034_Node000035"><a xlink:title=" ">
<path fill="none" stroke="#63b8ff" d="M1257.11,-11C1236.2,-11 1213.31,-11 1194.27,-11"/>
<polygon fill="#63b8ff" stroke="#63b8ff" points="1256.97,-14.5 1266.97,-11 1256.97,-7.5 1256.97,-14.5"/>
</a>
</g>
</g>
<!-- Node36 -->
<g id="Node000036" class="node">
<title>Node36</title>
<g id="a_Node000036"><a xlink:href="../../d4/d03/unix_2SDL__tray_8c.html#a206a4c41714798d7da6da4c129f0973b" target="_top" xlink:title=" ">
<polygon fill="white" stroke="#666666" points="1024.5,-58 935,-58 935,-38 1024.5,-38 1024.5,-58"/>
<text xml:space="preserve" text-anchor="middle" x="979.75" y="-44.5" font-family="Helvetica,sans-Serif" font-size="10.00">SDL_CreateTray</text>
</a>
</g>
</g>
<!-- Node35&#45;&gt;Node36 -->
<g id="edge46_Node000035_Node000036" class="edge">
<title>Node35&#45;&gt;Node36</title>
<g id="a_edge46_Node000035_Node000036"><a xlink:title=" ">
<path fill="none" stroke="#63b8ff" d="M1097.35,-22.57C1074.06,-27.65 1047.03,-33.54 1024.86,-38.38"/>
<polygon fill="#63b8ff" stroke="#63b8ff" points="1097.94,-26.02 1106.97,-20.47 1096.45,-19.18 1097.94,-26.02"/>
</a>
</g>
</g>
<!-- Node37 -->
<g id="Node000037" class="node">
<title>Node37</title>
<g id="a_Node000037"><a xlink:href="../../d4/d03/unix_2SDL__tray_8c.html#a2372c5e3d0c864715dbeb77d23cbca03" target="_top" xlink:title=" ">
<polygon fill="white" stroke="#666666" points="1026.75,-20 932.75,-20 932.75,0 1026.75,0 1026.75,-20"/>
<text xml:space="preserve" text-anchor="middle" x="979.75" y="-6.5" font-family="Helvetica,sans-Serif" font-size="10.00">SDL_SetTrayIcon</text>
</a>
</g>
</g>
<!-- Node35&#45;&gt;Node37 -->
<g id="edge47_Node000035_Node000037" class="edge">
<title>Node35&#45;&gt;Node37</title>
<g id="a_edge47_Node000035_Node000037"><a xlink:title=" ">
<path fill="none" stroke="#63b8ff" d="M1097.04,-10.69C1074.55,-10.55 1048.63,-10.4 1026.97,-10.27"/>
<polygon fill="#63b8ff" stroke="#63b8ff" points="1096.91,-14.18 1106.93,-10.74 1096.95,-7.18 1096.91,-14.18"/>
</a>
</g>
</g>
<!-- Node40&#45;&gt;Node5 -->
<g id="edge51_Node000040_Node000005" class="edge">
<title>Node40&#45;&gt;Node5</title>
<g id="a_edge51_Node000040_Node000005"><a xlink:title=" ">
<path fill="none" stroke="#63b8ff" d="M1254.51,-134.61C1243.51,-136.26 1232.04,-137.99 1220.92,-139.67"/>
<polygon fill="#63b8ff" stroke="#63b8ff" points="1254.9,-138.09 1264.27,-133.14 1253.86,-131.17 1254.9,-138.09"/>
</a>
</g>
</g>
<!-- Node40&#45;&gt;Node40 -->
<g id="edge55_Node000040_Node000040" class="edge">
<title>Node40&#45;&gt;Node40</title>
<g id="a_edge55_Node000040_Node000040"><a xlink:title=" ">
<path fill="none" stroke="#63b8ff" d="M1346.07,-146.44C1342.62,-150.3 1333.68,-153 1319.25,-153 1292.87,-153 1284.83,-143.98 1295.14,-135.34"/>
<polygon fill="#63b8ff" stroke="#63b8ff" points="1349.49,-145.69 1343.72,-136.81 1342.69,-147.35 1349.49,-145.69"/>
</a>
</g>
</g>
<!-- Node41 -->
<g id="Node000041" class="node">
<title>Node41</title>
<g id="a_Node000041"><a xlink:href="../../db/d6b/SDL__camera_8c.html#aada59aeebd93ce01f07435a3741fc972" target="_top" xlink:title=" ">
<polygon fill="white" stroke="#666666" points="1217.88,-103 1084.88,-103 1084.88,-83 1217.88,-83 1217.88,-103"/>
<text xml:space="preserve" text-anchor="middle" x="1151.38" y="-89.5" font-family="Helvetica,sans-Serif" font-size="10.00">SDL_CameraThreadIterate</text>
</a>
</g>
</g>
<!-- Node40&#45;&gt;Node41 -->
<g id="edge52_Node000040_Node000041" class="edge">
<title>Node40&#45;&gt;Node41</title>
<g id="a_edge52_Node000040_Node000041"><a xlink:title=" ">
<path fill="none" stroke="#63b8ff" d="M1254.91,-112.78C1238.96,-109.7 1221.98,-106.43 1206.52,-103.44"/>
<polygon fill="#63b8ff" stroke="#63b8ff" points="1253.8,-116.13 1264.28,-114.59 1255.12,-109.26 1253.8,-116.13"/>
</a>
</g>
</g>
<!-- Node42 -->
<g id="Node000042" class="node">
<title>Node42</title>
<g id="a_Node000042"><a xlink:href="../../db/d6b/SDL__camera_8c.html#a03e068ea12aee6918e95902871cb3523" target="_top" xlink:title=" ">
<polygon fill="white" stroke="#666666" points="1020,-99 939.5,-99 939.5,-79 1020,-79 1020,-99"/>
<text xml:space="preserve" text-anchor="middle" x="979.75" y="-85.5" font-family="Helvetica,sans-Serif" font-size="10.00">CameraThread</text>
</a>
</g>
</g>
<!-- Node41&#45;&gt;Node42 -->
<g id="edge53_Node000041_Node000042" class="edge">
<title>Node41&#45;&gt;Node42</title>
<g id="a_edge53_Node000041_Node000042"><a xlink:title=" ">
<path fill="none" stroke="#63b8ff" d="M1073.42,-91.19C1054.99,-90.75 1036.07,-90.3 1020.17,-89.93"/>
<polygon fill="#63b8ff" stroke="#63b8ff" points="1073.2,-94.68 1083.28,-91.42 1073.37,-87.68 1073.2,-94.68"/>
</a>
</g>
</g>
<!-- Node43 -->
<g id="Node000043" class="node">
<title>Node43</title>
<g id="a_Node000043"><a xlink:href="../../db/d6b/SDL__camera_8c.html#a52469fec975f103f2456d9e03a868fba" target="_top" xlink:title=" ">
<polygon fill="white" stroke="#666666" points="872,-54 773.5,-54 773.5,-34 872,-34 872,-54"/>
<text xml:space="preserve" text-anchor="middle" x="822.75" y="-40.5" font-family="Helvetica,sans-Serif" font-size="10.00">SDL_OpenCamera</text>
</a>
</g>
</g>
<!-- Node42&#45;&gt;Node43 -->
<g id="edge54_Node000042_Node000043" class="edge">
<title>Node42&#45;&gt;Node43</title>
<g id="a_edge54_Node000042_Node000043"><a xlink:title=" ">
<path fill="none" stroke="#63b8ff" d="M931.84,-75.38C908.7,-68.66 881.23,-60.69 859.77,-54.46"/>
<polygon fill="#63b8ff" stroke="#63b8ff" points="930.77,-78.71 941.35,-78.14 932.72,-71.99 930.77,-78.71"/>
</a>
</g>
</g>
</g>
</svg>

<g id="navigator" transform="translate(0 0)" fill="#404254">
  <rect fill="#f2f5e9" fill-opacity="0.5" stroke="#606060" stroke-width=".5" x="0" y="0" width="60" height="60"/>
  <use id="zoomplus" xlink:href="#zoomPlus" x="17" y="9" onmousedown="handleZoom(evt,'in')"/>
  <use id="zoomminus" xlink:href="#zoomMin" x="42" y="9" onmousedown="handleZoom(evt,'out')"/>
  <use id="reset" xlink:href="#resetDef" x="30" y="36" onmousedown="handleReset()"/>
   <use id="arrowup" xlink:href="#arrowUp" x="0" y="0" onmousedown="handlePan(0,-1)"/>
  <use id="arrowright" xlink:href="#arrowRight" x="0" y="0" onmousedown="handlePan(1,0)"/>
  <use id="arrowdown" xlink:href="#arrowDown" x="0" y="0" onmousedown="handlePan(0,1)"/>
  <use id="arrowleft" xlink:href="#arrowLeft" x="0" y="0" onmousedown="handlePan(-1,0)"/>
</g>
<svg viewBox="0 0 15 15" width="100%" height="30px" preserveAspectRatio="xMaxYMin meet">
 <g id="arrow_out" transform="scale(0.3 0.3)">
  <a xlink:href="SDL__surface_8c_a6f3eaf83c89bdf8307704bbce1763803_icgraph_org.svg" target="_base">
   <rect id="button" ry="5" rx="5" y="6" x="6" height="38" width="38"
        fill="#f2f5e9" fill-opacity="0.5" stroke="#606060" stroke-width="1.0"/>
   <path id="arrow"
     d="M 11.500037,31.436501 C 11.940474,20.09759 22.043105,11.32322 32.158766,21.979434 L 37.068811,17.246167 C 37.068811,17.246167 37.088388,32 37.088388,32 L 22.160133,31.978069 C 22.160133,31.978069 26.997745,27.140456 26.997745,27.140456 C 18.528582,18.264221 13.291696,25.230495 11.500037,31.436501 z"
     style="fill:#404040;"/>
  </a>
 </g>
</svg>

<style type='text/css'>
<![CDATA[
[data-mouse-over-selected='false'] { opacity: 0.7; }
[data-mouse-over-selected='true']  { opacity: 1.0; }
]]>
</style>
<script type="application/ecmascript"><![CDATA[
document.addEventListener('DOMContentLoaded', (event) => {
  highlightEdges();
  highlightAdjacentNodes();
});
]]></script>
</svg>
