<?xml version="1.0" encoding="UTF-8" standalone="no"?>
<!DOCTYPE svg PUBLIC "-//W3C//DTD SVG 1.1//EN"
 "http://www.w3.org/Graphics/SVG/1.1/DTD/svg11.dtd">
<!-- Generated by graphviz version 13.1.0 (20250701.0955)
 -->
<!-- Title: WaveFreeChunkData Pages: 1 -->
<svg width="797pt" height="146pt"
 viewBox="0.00 0.00 797.00 146.00" xmlns="http://www.w3.org/2000/svg" xmlns:xlink="http://www.w3.org/1999/xlink">
<g id="graph0" class="graph" transform="scale(1 1) rotate(0) translate(4 141.75)">
<title>WaveFreeChunkData</title>
<!-- Node1 -->
<g id="Node000001" class="node">
<title>Node1</title>
<g id="a_Node000001"><a xlink:title=" ">
<polygon fill="#999999" stroke="#666666" points="789,-115 679.25,-115 679.25,-95 789,-95 789,-115"/>
<text xml:space="preserve" text-anchor="middle" x="734.12" y="-101.5" font-family="Helvetica,sans-Serif" font-size="10.00">WaveFreeChunkData</text>
</a>
</g>
</g>
<!-- Node2 -->
<g id="Node000002" class="node">
<title>Node2</title>
<g id="a_Node000002"><a xlink:href="../../d4/dac/SDL__wave_8c.html#afeaef077e6cb8f35303b234139713b6d" target="_top" xlink:title=" ">
<polygon fill="white" stroke="#666666" points="218.75,-134 119.5,-134 119.5,-114 218.75,-114 218.75,-134"/>
<text xml:space="preserve" text-anchor="middle" x="169.12" y="-120.5" font-family="Helvetica,sans-Serif" font-size="10.00">SDL_LoadWAV_IO</text>
</a>
</g>
</g>
<!-- Node1&#45;&gt;Node2 -->
<g id="edge1_Node000001_Node000002" class="edge">
<title>Node1&#45;&gt;Node2</title>
<g id="a_edge1_Node000001_Node000002"><a xlink:title=" ">
<path fill="none" stroke="#63b8ff" d="M687.94,-118.3C673.77,-121.87 657.97,-125.22 643.25,-127 489.32,-145.57 305.18,-135.12 219.05,-128.36"/>
<polygon fill="#63b8ff" stroke="#63b8ff" points="688.66,-121.73 697.45,-115.81 686.89,-114.96 688.66,-121.73"/>
</a>
</g>
</g>
<!-- Node4 -->
<g id="Node000004" class="node">
<title>Node4</title>
<g id="a_Node000004"><a xlink:href="../../d4/dac/SDL__wave_8c.html#a74a2f92d8c663adf2d70ed3fc458c1b5" target="_top" xlink:title=" ">
<polygon fill="white" stroke="#666666" points="316.5,-96 254.75,-96 254.75,-76 316.5,-76 316.5,-96"/>
<text xml:space="preserve" text-anchor="middle" x="285.62" y="-82.5" font-family="Helvetica,sans-Serif" font-size="10.00">WaveLoad</text>
</a>
</g>
</g>
<!-- Node1&#45;&gt;Node4 -->
<g id="edge3_Node000001_Node000004" class="edge">
<title>Node1&#45;&gt;Node4</title>
<g id="a_edge3_Node000001_Node000004"><a xlink:title=" ">
<path fill="none" stroke="#63b8ff" d="M667.51,-109.07C659.35,-109.46 651.11,-109.78 643.25,-110 514.06,-113.59 480.15,-125.22 352.5,-105 340.63,-103.12 327.87,-99.76 316.77,-96.39"/>
<polygon fill="#63b8ff" stroke="#63b8ff" points="667.64,-112.57 677.45,-108.58 667.29,-105.58 667.64,-112.57"/>
</a>
</g>
</g>
<!-- Node5 -->
<g id="Node000005" class="node">
<title>Node5</title>
<g id="a_Node000005"><a xlink:href="../../d4/dac/SDL__wave_8c.html#a7ef1a477aa6ccd8189d0185626978535" target="_top" xlink:title=" ">
<polygon fill="white" stroke="#666666" points="454.38,-96 364.12,-96 364.12,-76 454.38,-76 454.38,-96"/>
<text xml:space="preserve" text-anchor="middle" x="409.25" y="-82.5" font-family="Helvetica,sans-Serif" font-size="10.00">WaveNextChunk</text>
</a>
</g>
</g>
<!-- Node1&#45;&gt;Node5 -->
<g id="edge5_Node000001_Node000005" class="edge">
<title>Node1&#45;&gt;Node5</title>
<g id="a_edge5_Node000001_Node000005"><a xlink:title=" ">
<path fill="none" stroke="#63b8ff" d="M667.63,-101.15C604.27,-97.42 509.97,-91.87 454.84,-88.62"/>
<polygon fill="#63b8ff" stroke="#63b8ff" points="667.38,-104.64 677.57,-101.73 667.79,-97.65 667.38,-104.64"/>
</a>
</g>
</g>
<!-- Node6 -->
<g id="Node000006" class="node">
<title>Node6</title>
<g id="a_Node000006"><a xlink:href="../../d4/dac/SDL__wave_8c.html#ac89e76af4a69b7011354078ab804ae5b" target="_top" xlink:title=" ">
<polygon fill="white" stroke="#666666" points="643.25,-58 502,-58 502,-38 643.25,-38 643.25,-58"/>
<text xml:space="preserve" text-anchor="middle" x="572.62" y="-44.5" font-family="Helvetica,sans-Serif" font-size="10.00">WaveReadPartialChunkData</text>
</a>
</g>
</g>
<!-- Node1&#45;&gt;Node6 -->
<g id="edge7_Node000001_Node000006" class="edge">
<title>Node1&#45;&gt;Node6</title>
<g id="a_edge7_Node000001_Node000006"><a xlink:title=" ">
<path fill="none" stroke="#63b8ff" d="M694.73,-90.71C678.82,-84.84 660.17,-78.02 643.25,-72 630.48,-67.46 616.35,-62.56 604.17,-58.38"/>
<polygon fill="#63b8ff" stroke="#63b8ff" points="693.23,-93.89 703.82,-94.07 695.66,-87.32 693.23,-93.89"/>
</a>
</g>
</g>
<!-- Node3 -->
<g id="Node000003" class="node">
<title>Node3</title>
<g id="a_Node000003"><a xlink:href="../../d4/dac/SDL__wave_8c.html#a8f44fee5faff8eeca26f48be1e66141f" target="_top" xlink:title=" ">
<polygon fill="white" stroke="#666666" points="83.5,-134 0,-134 0,-114 83.5,-114 83.5,-134"/>
<text xml:space="preserve" text-anchor="middle" x="41.75" y="-120.5" font-family="Helvetica,sans-Serif" font-size="10.00">SDL_LoadWAV</text>
</a>
</g>
</g>
<!-- Node2&#45;&gt;Node3 -->
<g id="edge2_Node000002_Node000003" class="edge">
<title>Node2&#45;&gt;Node3</title>
<g id="a_edge2_Node000002_Node000003"><a xlink:title=" ">
<path fill="none" stroke="#63b8ff" d="M107.91,-124C99.79,-124 91.62,-124 83.94,-124"/>
<polygon fill="#63b8ff" stroke="#63b8ff" points="107.78,-127.5 117.78,-124 107.78,-120.5 107.78,-127.5"/>
</a>
</g>
</g>
<!-- Node4&#45;&gt;Node2 -->
<g id="edge4_Node000004_Node000002" class="edge">
<title>Node4&#45;&gt;Node2</title>
<g id="a_edge4_Node000004_Node000002"><a xlink:title=" ">
<path fill="none" stroke="#63b8ff" d="M243.79,-99.55C229.91,-104.16 214.63,-109.23 201.61,-113.55"/>
<polygon fill="#63b8ff" stroke="#63b8ff" points="244.72,-102.93 253.1,-96.46 242.51,-96.29 244.72,-102.93"/>
</a>
</g>
</g>
<!-- Node5&#45;&gt;Node4 -->
<g id="edge6_Node000005_Node000004" class="edge">
<title>Node5&#45;&gt;Node4</title>
<g id="a_edge6_Node000005_Node000004"><a xlink:title=" ">
<path fill="none" stroke="#63b8ff" d="M352.49,-86C340.19,-86 327.62,-86 316.79,-86"/>
<polygon fill="#63b8ff" stroke="#63b8ff" points="352.14,-89.5 362.14,-86 352.14,-82.5 352.14,-89.5"/>
</a>
</g>
</g>
<!-- Node6&#45;&gt;Node4 -->
<g id="edge8_Node000006_Node000004" class="edge">
<title>Node6&#45;&gt;Node4</title>
<g id="a_edge8_Node000006_Node000004"><a xlink:title=" ">
<path fill="none" stroke="#63b8ff" d="M490.16,-51.29C448.68,-53.92 397.63,-58.62 352.5,-67 340.68,-69.2 327.93,-72.62 316.83,-75.95"/>
<polygon fill="#63b8ff" stroke="#63b8ff" points="490.3,-54.79 500.07,-50.69 489.88,-47.8 490.3,-54.79"/>
</a>
</g>
</g>
<!-- Node7 -->
<g id="Node000007" class="node">
<title>Node7</title>
<g id="a_Node000007"><a xlink:href="../../d4/dac/SDL__wave_8c.html#ab3836c42ce28e16317272b590c79190c" target="_top" xlink:title=" ">
<polygon fill="white" stroke="#666666" points="466,-20 352.5,-20 352.5,0 466,0 466,-20"/>
<text xml:space="preserve" text-anchor="middle" x="409.25" y="-6.5" font-family="Helvetica,sans-Serif" font-size="10.00">WaveReadChunkData</text>
</a>
</g>
</g>
<!-- Node6&#45;&gt;Node7 -->
<g id="edge9_Node000006_Node000007" class="edge">
<title>Node6&#45;&gt;Node7</title>
<g id="a_edge9_Node000006_Node000007"><a xlink:title=" ">
<path fill="none" stroke="#63b8ff" d="M515.93,-34.88C495.89,-30.17 473.57,-24.91 454.63,-20.45"/>
<polygon fill="#63b8ff" stroke="#63b8ff" points="515.09,-38.28 525.63,-37.17 516.7,-31.47 515.09,-38.28"/>
</a>
</g>
</g>
<!-- Node7&#45;&gt;Node4 -->
<g id="edge10_Node000007_Node000004" class="edge">
<title>Node7&#45;&gt;Node4</title>
<g id="a_edge10_Node000007_Node000004"><a xlink:title=" ">
<path fill="none" stroke="#63b8ff" d="M369.62,-25.06C363.76,-27.79 357.87,-30.8 352.5,-34 331.72,-46.38 310.19,-64.57 297.62,-75.83"/>
<polygon fill="#63b8ff" stroke="#63b8ff" points="370.92,-28.31 378.65,-21.07 368.09,-21.91 370.92,-28.31"/>
</a>
</g>
</g>
</g>
</svg>
