<?xml version="1.0" encoding="UTF-8" standalone="no"?>
<!DOCTYPE svg PUBLIC "-//W3C//DTD SVG 1.1//EN"
 "http://www.w3.org/Graphics/SVG/1.1/DTD/svg11.dtd">
<!-- Generated by graphviz version 13.1.0 (20250701.0955)
 -->
<!-- Title: LAW_Init Pages: 1 -->
<svg width="552pt" height="28pt"
 viewBox="0.00 0.00 552.00 28.00" xmlns="http://www.w3.org/2000/svg" xmlns:xlink="http://www.w3.org/1999/xlink">
<g id="graph0" class="graph" transform="scale(1 1) rotate(0) translate(4 24)">
<title>LAW_Init</title>
<!-- Node1 -->
<g id="Node000001" class="node">
<title>Node1</title>
<g id="a_Node000001"><a xlink:title=" ">
<polygon fill="#999999" stroke="#666666" points="544.25,-20 488.5,-20 488.5,0 544.25,0 544.25,-20"/>
<text xml:space="preserve" text-anchor="middle" x="516.38" y="-6.5" font-family="Helvetica,sans-Serif" font-size="10.00">LAW_Init</text>
</a>
</g>
</g>
<!-- Node2 -->
<g id="Node000002" class="node">
<title>Node2</title>
<g id="a_Node000002"><a xlink:href="../../d4/dac/SDL__wave_8c.html#a7ccff187951fea33da0b5a17e2786a44" target="_top" xlink:title=" ">
<polygon fill="white" stroke="#666666" points="452.5,-20 352.5,-20 352.5,0 452.5,0 452.5,-20"/>
<text xml:space="preserve" text-anchor="middle" x="402.5" y="-6.5" font-family="Helvetica,sans-Serif" font-size="10.00">WaveCheckFormat</text>
</a>
</g>
</g>
<!-- Node1&#45;&gt;Node2 -->
<g id="edge1_Node000001_Node000002" class="edge">
<title>Node1&#45;&gt;Node2</title>
<g id="a_edge1_Node000001_Node000002"><a xlink:title=" ">
<path fill="none" stroke="#63b8ff" d="M476.5,-10C468.87,-10 460.77,-10 452.85,-10"/>
<polygon fill="#63b8ff" stroke="#63b8ff" points="476.49,-13.5 486.49,-10 476.49,-6.5 476.49,-13.5"/>
</a>
</g>
</g>
<!-- Node3 -->
<g id="Node000003" class="node">
<title>Node3</title>
<g id="a_Node000003"><a xlink:href="../../d4/dac/SDL__wave_8c.html#a74a2f92d8c663adf2d70ed3fc458c1b5" target="_top" xlink:title=" ">
<polygon fill="white" stroke="#666666" points="316.5,-20 254.75,-20 254.75,0 316.5,0 316.5,-20"/>
<text xml:space="preserve" text-anchor="middle" x="285.62" y="-6.5" font-family="Helvetica,sans-Serif" font-size="10.00">WaveLoad</text>
</a>
</g>
</g>
<!-- Node2&#45;&gt;Node3 -->
<g id="edge2_Node000002_Node000003" class="edge">
<title>Node2&#45;&gt;Node3</title>
<g id="a_edge2_Node000002_Node000003"><a xlink:title=" ">
<path fill="none" stroke="#63b8ff" d="M340.75,-10C332.41,-10 324.17,-10 316.72,-10"/>
<polygon fill="#63b8ff" stroke="#63b8ff" points="340.6,-13.5 350.6,-10 340.6,-6.5 340.6,-13.5"/>
</a>
</g>
</g>
<!-- Node4 -->
<g id="Node000004" class="node">
<title>Node4</title>
<g id="a_Node000004"><a xlink:href="../../d4/dac/SDL__wave_8c.html#afeaef077e6cb8f35303b234139713b6d" target="_top" xlink:title=" ">
<polygon fill="white" stroke="#666666" points="218.75,-20 119.5,-20 119.5,0 218.75,0 218.75,-20"/>
<text xml:space="preserve" text-anchor="middle" x="169.12" y="-6.5" font-family="Helvetica,sans-Serif" font-size="10.00">SDL_LoadWAV_IO</text>
</a>
</g>
</g>
<!-- Node3&#45;&gt;Node4 -->
<g id="edge3_Node000003_Node000004" class="edge">
<title>Node3&#45;&gt;Node4</title>
<g id="a_edge3_Node000003_Node000004"><a xlink:title=" ">
<path fill="none" stroke="#63b8ff" d="M243.1,-10C235.29,-10 227.06,-10 219.05,-10"/>
<polygon fill="#63b8ff" stroke="#63b8ff" points="243.03,-13.5 253.03,-10 243.03,-6.5 243.03,-13.5"/>
</a>
</g>
</g>
<!-- Node5 -->
<g id="Node000005" class="node">
<title>Node5</title>
<g id="a_Node000005"><a xlink:href="../../d4/dac/SDL__wave_8c.html#a8f44fee5faff8eeca26f48be1e66141f" target="_top" xlink:title=" ">
<polygon fill="white" stroke="#666666" points="83.5,-20 0,-20 0,0 83.5,0 83.5,-20"/>
<text xml:space="preserve" text-anchor="middle" x="41.75" y="-6.5" font-family="Helvetica,sans-Serif" font-size="10.00">SDL_LoadWAV</text>
</a>
</g>
</g>
<!-- Node4&#45;&gt;Node5 -->
<g id="edge4_Node000004_Node000005" class="edge">
<title>Node4&#45;&gt;Node5</title>
<g id="a_edge4_Node000004_Node000005"><a xlink:title=" ">
<path fill="none" stroke="#63b8ff" d="M107.91,-10C99.79,-10 91.62,-10 83.94,-10"/>
<polygon fill="#63b8ff" stroke="#63b8ff" points="107.78,-13.5 117.78,-10 107.78,-6.5 107.78,-13.5"/>
</a>
</g>
</g>
</g>
</svg>
