<?xml version="1.0" encoding="UTF-8" standalone="no"?>
<!DOCTYPE svg PUBLIC "-//W3C//DTD SVG 1.1//EN"
 "http://www.w3.org/Graphics/SVG/1.1/DTD/svg11.dtd">
<!-- Generated by graphviz version 13.1.0 (20250701.0955)
 -->
<!-- Title: SDL&#45;main/include/SDL3/SDL_pen.h Pages: 1 -->
<svg width="1338pt" height="544pt"
 viewBox="0.00 0.00 1338.00 544.00" xmlns="http://www.w3.org/2000/svg" xmlns:xlink="http://www.w3.org/1999/xlink">
<g id="graph0" class="graph" transform="scale(1 1) rotate(0) translate(4 540)">
<title>SDL&#45;main/include/SDL3/SDL_pen.h</title>
<!-- Node1 -->
<g id="Node000001" class="node">
<title>Node1</title>
<g id="a_Node000001"><a xlink:title=" ">
<polygon fill="#999999" stroke="#666666" points="1200.5,-536 1079.5,-536 1079.5,-504 1200.5,-504 1200.5,-536"/>
<text xml:space="preserve" text-anchor="start" x="1087.5" y="-522.5" font-family="Helvetica,sans-Serif" font-size="10.00">SDL&#45;main/include/SDL3</text>
<text xml:space="preserve" text-anchor="middle" x="1140" y="-510.5" font-family="Helvetica,sans-Serif" font-size="10.00">/SDL_pen.h</text>
</a>
</g>
</g>
<!-- Node2 -->
<g id="Node000002" class="node">
<title>Node2</title>
<g id="a_Node000002"><a xlink:href="../../d2/d5b/SDL__stdinc_8h.html" target="_top" xlink:title=" ">
<polygon fill="white" stroke="#666666" points="1081.5,-76 978.5,-76 978.5,-56 1081.5,-56 1081.5,-76"/>
<text xml:space="preserve" text-anchor="middle" x="1030" y="-62.5" font-family="Helvetica,sans-Serif" font-size="10.00">SDL3/SDL_stdinc.h</text>
</a>
</g>
</g>
<!-- Node1&#45;&gt;Node2 -->
<g id="edge1_Node000001_Node000002" class="edge">
<title>Node1&#45;&gt;Node2</title>
<g id="a_edge1_Node000001_Node000002"><a xlink:title=" ">
<path fill="none" stroke="#63b8ff" d="M1200.9,-508.19C1256.48,-494.41 1330,-464.55 1330,-403 1330,-403 1330,-403 1330,-177 1330,-129.09 1287.6,-131.85 1244,-112 1195.95,-90.12 1136.95,-78.73 1093.08,-72.9"/>
<polygon fill="#63b8ff" stroke="#63b8ff" points="1093.56,-69.43 1083.2,-71.65 1092.68,-76.37 1093.56,-69.43"/>
</a>
</g>
</g>
<!-- Node10 -->
<g id="Node000010" class="node">
<title>Node10</title>
<g id="a_Node000010"><a xlink:href="../../d9/dc7/SDL__mouse_8h.html" target="_top" xlink:title=" ">
<polygon fill="white" stroke="#666666" points="1002,-412 896,-412 896,-392 1002,-392 1002,-412"/>
<text xml:space="preserve" text-anchor="middle" x="949" y="-398.5" font-family="Helvetica,sans-Serif" font-size="10.00">SDL3/SDL_mouse.h</text>
</a>
</g>
</g>
<!-- Node1&#45;&gt;Node10 -->
<g id="edge9_Node000001_Node000010" class="edge">
<title>Node1&#45;&gt;Node10</title>
<g id="a_edge9_Node000001_Node000010"><a xlink:title=" ">
<path fill="none" stroke="#63b8ff" d="M1114.64,-503.6C1077.91,-481.29 1010.32,-440.24 973.87,-418.1"/>
<polygon fill="#63b8ff" stroke="#63b8ff" points="976.12,-415.38 965.76,-413.18 972.49,-421.36 976.12,-415.38"/>
</a>
</g>
</g>
<!-- Node20 -->
<g id="Node000020" class="node">
<title>Node20</title>
<g id="a_Node000020"><a xlink:href="../../d4/da8/SDL__touch_8h.html" target="_top" xlink:title=" ">
<polygon fill="white" stroke="#666666" points="1190.38,-468 1089.62,-468 1089.62,-448 1190.38,-448 1190.38,-468"/>
<text xml:space="preserve" text-anchor="middle" x="1140" y="-454.5" font-family="Helvetica,sans-Serif" font-size="10.00">SDL3/SDL_touch.h</text>
</a>
</g>
</g>
<!-- Node1&#45;&gt;Node20 -->
<g id="edge60_Node000001_Node000020" class="edge">
<title>Node1&#45;&gt;Node20</title>
<g id="a_edge60_Node000001_Node000020"><a xlink:title=" ">
<path fill="none" stroke="#63b8ff" d="M1140,-503.55C1140,-496.34 1140,-487.66 1140,-479.88"/>
<polygon fill="#63b8ff" stroke="#63b8ff" points="1143.5,-479.92 1140,-469.92 1136.5,-479.92 1143.5,-479.92"/>
</a>
</g>
</g>
<!-- Node3 -->
<g id="Node000003" class="node">
<title>Node3</title>
<g id="a_Node000003"><a xlink:href="../../d3/d8b/SDL__platform__defines_8h.html" target="_top" xlink:title=" ">
<polygon fill="white" stroke="#666666" points="986.38,-20 837.62,-20 837.62,0 986.38,0 986.38,-20"/>
<text xml:space="preserve" text-anchor="middle" x="912" y="-6.5" font-family="Helvetica,sans-Serif" font-size="10.00">SDL3/SDL_platform_defines.h</text>
</a>
</g>
</g>
<!-- Node2&#45;&gt;Node3 -->
<g id="edge2_Node000002_Node000003" class="edge">
<title>Node2&#45;&gt;Node3</title>
<g id="a_edge2_Node000002_Node000003"><a xlink:title=" ">
<path fill="none" stroke="#63b8ff" d="M1009.45,-55.59C991.12,-47.21 964.01,-34.8 943.04,-25.21"/>
<polygon fill="#63b8ff" stroke="#63b8ff" points="944.64,-22.09 934.09,-21.11 941.73,-28.45 944.64,-22.09"/>
</a>
</g>
</g>
<!-- Node4 -->
<g id="Node000004" class="node">
<title>Node4</title>
<g id="a_Node000004"><a xlink:title=" ">
<polygon fill="#e0e0e0" stroke="#999999" points="1055.62,-20 1004.38,-20 1004.38,0 1055.62,0 1055.62,-20"/>
<text xml:space="preserve" text-anchor="middle" x="1030" y="-6.5" font-family="Helvetica,sans-Serif" font-size="10.00">stdarg.h</text>
</a>
</g>
</g>
<!-- Node2&#45;&gt;Node4 -->
<g id="edge3_Node000002_Node000004" class="edge">
<title>Node2&#45;&gt;Node4</title>
<g id="a_edge3_Node000002_Node000004"><a xlink:title=" ">
<path fill="none" stroke="#63b8ff" d="M1030,-55.59C1030,-49.01 1030,-39.96 1030,-31.73"/>
<polygon fill="#63b8ff" stroke="#63b8ff" points="1033.5,-31.81 1030,-21.81 1026.5,-31.81 1033.5,-31.81"/>
</a>
</g>
</g>
<!-- Node5 -->
<g id="Node000005" class="node">
<title>Node5</title>
<g id="a_Node000005"><a xlink:title=" ">
<polygon fill="#e0e0e0" stroke="#999999" points="1122.12,-20 1073.88,-20 1073.88,0 1122.12,0 1122.12,-20"/>
<text xml:space="preserve" text-anchor="middle" x="1098" y="-6.5" font-family="Helvetica,sans-Serif" font-size="10.00">stdint.h</text>
</a>
</g>
</g>
<!-- Node2&#45;&gt;Node5 -->
<g id="edge4_Node000002_Node000005" class="edge">
<title>Node2&#45;&gt;Node5</title>
<g id="a_edge4_Node000002_Node000005"><a xlink:title=" ">
<path fill="none" stroke="#63b8ff" d="M1041.84,-55.59C1051.69,-47.77 1065.93,-36.46 1077.61,-27.19"/>
<polygon fill="#63b8ff" stroke="#63b8ff" points="1079.45,-30.2 1085.11,-21.24 1075.1,-24.72 1079.45,-30.2"/>
</a>
</g>
</g>
<!-- Node6 -->
<g id="Node000006" class="node">
<title>Node6</title>
<g id="a_Node000006"><a xlink:title=" ">
<polygon fill="#e0e0e0" stroke="#999999" points="1188.12,-20 1139.88,-20 1139.88,0 1188.12,0 1188.12,-20"/>
<text xml:space="preserve" text-anchor="middle" x="1164" y="-6.5" font-family="Helvetica,sans-Serif" font-size="10.00">string.h</text>
</a>
</g>
</g>
<!-- Node2&#45;&gt;Node6 -->
<g id="edge5_Node000002_Node000006" class="edge">
<title>Node2&#45;&gt;Node6</title>
<g id="a_edge5_Node000002_Node000006"><a xlink:title=" ">
<path fill="none" stroke="#63b8ff" d="M1053.34,-55.59C1074.54,-47.05 1106.07,-34.35 1130.05,-24.68"/>
<polygon fill="#63b8ff" stroke="#63b8ff" points="1131.11,-28.03 1139.07,-21.05 1128.49,-21.54 1131.11,-28.03"/>
</a>
</g>
</g>
<!-- Node7 -->
<g id="Node000007" class="node">
<title>Node7</title>
<g id="a_Node000007"><a xlink:title=" ">
<polygon fill="#e0e0e0" stroke="#999999" points="819.25,-20 768.75,-20 768.75,0 819.25,0 819.25,-20"/>
<text xml:space="preserve" text-anchor="middle" x="794" y="-6.5" font-family="Helvetica,sans-Serif" font-size="10.00">wchar.h</text>
</a>
</g>
</g>
<!-- Node2&#45;&gt;Node7 -->
<g id="edge6_Node000002_Node000007" class="edge">
<title>Node2&#45;&gt;Node7</title>
<g id="a_edge6_Node000002_Node000007"><a xlink:title=" ">
<path fill="none" stroke="#63b8ff" d="M985.99,-55.56C947.6,-47.24 890.12,-34.55 830.7,-20.35"/>
<polygon fill="#63b8ff" stroke="#63b8ff" points="831.6,-16.97 821.06,-18.03 829.97,-23.77 831.6,-16.97"/>
</a>
</g>
</g>
<!-- Node8 -->
<g id="Node000008" class="node">
<title>Node8</title>
<g id="a_Node000008"><a xlink:href="../../d8/d5f/SDL__begin__code_8h.html" target="_top" xlink:title=" ">
<polygon fill="white" stroke="#666666" points="739.12,-20 612.88,-20 612.88,0 739.12,0 739.12,-20"/>
<text xml:space="preserve" text-anchor="middle" x="676" y="-6.5" font-family="Helvetica,sans-Serif" font-size="10.00">SDL3/SDL_begin_code.h</text>
</a>
</g>
</g>
<!-- Node2&#45;&gt;Node8 -->
<g id="edge7_Node000002_Node000008" class="edge">
<title>Node2&#45;&gt;Node8</title>
<g id="a_edge7_Node000002_Node000008"><a xlink:title=" ">
<path fill="none" stroke="#63b8ff" d="M978.15,-57.09C917.75,-47.88 817.55,-32.59 749.23,-22.17"/>
<polygon fill="#63b8ff" stroke="#63b8ff" points="750.04,-18.75 739.63,-20.71 748.99,-25.67 750.04,-18.75"/>
</a>
</g>
</g>
<!-- Node9 -->
<g id="Node000009" class="node">
<title>Node9</title>
<g id="a_Node000009"><a xlink:href="../../d9/d73/SDL__close__code_8h.html" target="_top" xlink:title=" ">
<polygon fill="white" stroke="#666666" points="310.12,-20 183.88,-20 183.88,0 310.12,0 310.12,-20"/>
<text xml:space="preserve" text-anchor="middle" x="247" y="-6.5" font-family="Helvetica,sans-Serif" font-size="10.00">SDL3/SDL_close_code.h</text>
</a>
</g>
</g>
<!-- Node2&#45;&gt;Node9 -->
<g id="edge8_Node000002_Node000009" class="edge">
<title>Node2&#45;&gt;Node9</title>
<g id="a_edge8_Node000002_Node000009"><a xlink:title=" ">
<path fill="none" stroke="#63b8ff" d="M978.17,-60.31C961.52,-58.86 942.99,-57.3 926,-56 706.39,-39.22 446.54,-23.02 321.53,-15.45"/>
<polygon fill="#63b8ff" stroke="#63b8ff" points="321.92,-11.96 311.73,-14.85 321.5,-18.95 321.92,-11.96"/>
</a>
</g>
</g>
<!-- Node10&#45;&gt;Node2 -->
<g id="edge10_Node000010_Node000002" class="edge">
<title>Node10&#45;&gt;Node2</title>
<g id="a_edge10_Node000010_Node000002"><a xlink:title=" ">
<path fill="none" stroke="#63b8ff" d="M957.52,-391.76C982.71,-363.76 1056.67,-276.34 1083,-188 1092.65,-155.63 1098.33,-142.59 1084,-112 1078.43,-100.11 1068,-90.26 1057.78,-82.84"/>
<polygon fill="#63b8ff" stroke="#63b8ff" points="1059.74,-79.94 1049.48,-77.32 1055.87,-85.77 1059.74,-79.94"/>
</a>
</g>
</g>
<!-- Node10&#45;&gt;Node8 -->
<g id="edge58_Node000010_Node000008" class="edge">
<title>Node10&#45;&gt;Node8</title>
<g id="a_edge58_Node000010_Node000008"><a xlink:title=" ">
<path fill="none" stroke="#63b8ff" d="M1002.39,-401.63C1080.31,-399.44 1216,-382.49 1216,-291 1216,-291 1216,-291 1216,-121 1216,44.55 1075.49,-52.13 760,-20 756.96,-19.69 753.86,-19.37 750.72,-19.05"/>
<polygon fill="#63b8ff" stroke="#63b8ff" points="751.1,-15.57 740.79,-18.01 750.38,-22.53 751.1,-15.57"/>
</a>
</g>
</g>
<!-- Node10&#45;&gt;Node9 -->
<g id="edge59_Node000010_Node000009" class="edge">
<title>Node10&#45;&gt;Node9</title>
<g id="a_edge59_Node000010_Node000009"><a xlink:title=" ">
<path fill="none" stroke="#63b8ff" d="M895.75,-400.21C700.89,-396.61 38,-377.97 38,-291 38,-291 38,-291 38,-121 38,-58.37 112.4,-31.32 172.42,-19.68"/>
<polygon fill="#63b8ff" stroke="#63b8ff" points="172.74,-23.18 181.95,-17.96 171.49,-16.3 172.74,-23.18"/>
</a>
</g>
</g>
<!-- Node11 -->
<g id="Node000011" class="node">
<title>Node11</title>
<g id="a_Node000011"><a xlink:href="../../da/d16/SDL__error_8h.html" target="_top" xlink:title=" ">
<polygon fill="white" stroke="#666666" points="884.12,-132 787.88,-132 787.88,-112 884.12,-112 884.12,-132"/>
<text xml:space="preserve" text-anchor="middle" x="836" y="-118.5" font-family="Helvetica,sans-Serif" font-size="10.00">SDL3/SDL_error.h</text>
</a>
</g>
</g>
<!-- Node10&#45;&gt;Node11 -->
<g id="edge11_Node000010_Node000011" class="edge">
<title>Node10&#45;&gt;Node11</title>
<g id="a_edge11_Node000010_Node000011"><a xlink:title=" ">
<path fill="none" stroke="#63b8ff" d="M945.24,-391.75C929.22,-352.34 866.46,-197.94 844.03,-142.75"/>
<polygon fill="#63b8ff" stroke="#63b8ff" points="847.35,-141.63 840.34,-133.69 840.87,-144.27 847.35,-141.63"/>
</a>
</g>
</g>
<!-- Node12 -->
<g id="Node000012" class="node">
<title>Node12</title>
<g id="a_Node000012"><a xlink:href="../../db/dac/SDL__surface_8h.html" target="_top" xlink:title=" ">
<polygon fill="white" stroke="#666666" points="657.5,-300 548.5,-300 548.5,-280 657.5,-280 657.5,-300"/>
<text xml:space="preserve" text-anchor="middle" x="603" y="-286.5" font-family="Helvetica,sans-Serif" font-size="10.00">SDL3/SDL_surface.h</text>
</a>
</g>
</g>
<!-- Node10&#45;&gt;Node12 -->
<g id="edge15_Node000010_Node000012" class="edge">
<title>Node10&#45;&gt;Node12</title>
<g id="a_edge15_Node000010_Node000012"><a xlink:title=" ">
<path fill="none" stroke="#63b8ff" d="M895.75,-397.47C844.54,-392.66 765.74,-381.5 702,-356 672.25,-344.1 642.04,-322.6 622.94,-307.6"/>
<polygon fill="#63b8ff" stroke="#63b8ff" points="625.2,-304.92 615.22,-301.38 620.81,-310.38 625.2,-304.92"/>
</a>
</g>
</g>
<!-- Node19 -->
<g id="Node000019" class="node">
<title>Node19</title>
<g id="a_Node000019"><a xlink:href="../../d3/d91/SDL__video_8h.html" target="_top" xlink:title=" ">
<polygon fill="white" stroke="#666666" points="811,-356 711,-356 711,-336 811,-336 811,-356"/>
<text xml:space="preserve" text-anchor="middle" x="761" y="-342.5" font-family="Helvetica,sans-Serif" font-size="10.00">SDL3/SDL_video.h</text>
</a>
</g>
</g>
<!-- Node10&#45;&gt;Node19 -->
<g id="edge49_Node000010_Node000019" class="edge">
<title>Node10&#45;&gt;Node19</title>
<g id="a_edge49_Node000010_Node000019"><a xlink:title=" ">
<path fill="none" stroke="#63b8ff" d="M916.25,-391.59C885.44,-382.74 839.08,-369.43 805.03,-359.65"/>
<polygon fill="#63b8ff" stroke="#63b8ff" points="806.03,-356.29 795.46,-356.9 804.1,-363.02 806.03,-356.29"/>
</a>
</g>
</g>
<!-- Node11&#45;&gt;Node2 -->
<g id="edge12_Node000011_Node000002" class="edge">
<title>Node11&#45;&gt;Node2</title>
<g id="a_edge12_Node000011_Node000002"><a xlink:title=" ">
<path fill="none" stroke="#63b8ff" d="M869.79,-111.59C901.73,-102.71 949.85,-89.31 985.02,-79.52"/>
<polygon fill="#63b8ff" stroke="#63b8ff" points="985.79,-82.94 994.49,-76.89 983.91,-76.2 985.79,-82.94"/>
</a>
</g>
</g>
<!-- Node11&#45;&gt;Node8 -->
<g id="edge13_Node000011_Node000008" class="edge">
<title>Node11&#45;&gt;Node8</title>
<g id="a_edge13_Node000011_Node000008"><a xlink:title=" ">
<path fill="none" stroke="#63b8ff" d="M822.36,-111.62C794.85,-92.71 732.46,-49.82 698.7,-26.61"/>
<polygon fill="#63b8ff" stroke="#63b8ff" points="701.08,-23.99 690.85,-21.21 697.11,-29.76 701.08,-23.99"/>
</a>
</g>
</g>
<!-- Node11&#45;&gt;Node9 -->
<g id="edge14_Node000011_Node000009" class="edge">
<title>Node11&#45;&gt;Node9</title>
<g id="a_edge14_Node000011_Node000009"><a xlink:title=" ">
<path fill="none" stroke="#63b8ff" d="M787.55,-111.95C681.02,-92.06 426.58,-44.54 308.78,-22.54"/>
<polygon fill="#63b8ff" stroke="#63b8ff" points="309.44,-19.1 298.97,-20.71 308.16,-25.98 309.44,-19.1"/>
</a>
</g>
</g>
<!-- Node12&#45;&gt;Node2 -->
<g id="edge16_Node000012_Node000002" class="edge">
<title>Node12&#45;&gt;Node2</title>
<g id="a_edge16_Node000012_Node000002"><a xlink:title=" ">
<path fill="none" stroke="#63b8ff" d="M657.81,-284.82C765.28,-275.37 997.38,-248.31 1045,-188 1068.08,-158.77 1052.35,-112.56 1040.25,-86.52"/>
<polygon fill="#63b8ff" stroke="#63b8ff" points="1043.49,-85.18 1035.93,-77.76 1037.22,-88.27 1043.49,-85.18"/>
</a>
</g>
</g>
<!-- Node12&#45;&gt;Node8 -->
<g id="edge47_Node000012_Node000008" class="edge">
<title>Node12&#45;&gt;Node8</title>
<g id="a_edge47_Node000012_Node000008"><a xlink:title=" ">
<path fill="none" stroke="#63b8ff" d="M551.33,-279.56C455.31,-259.57 264.18,-206.8 323,-112 352.43,-64.57 506.8,-34.77 601.39,-20.67"/>
<polygon fill="#63b8ff" stroke="#63b8ff" points="601.73,-24.16 611.12,-19.25 600.72,-17.23 601.73,-24.16"/>
</a>
</g>
</g>
<!-- Node12&#45;&gt;Node9 -->
<g id="edge48_Node000012_Node000009" class="edge">
<title>Node12&#45;&gt;Node9</title>
<g id="a_edge48_Node000012_Node000009"><a xlink:title=" ">
<path fill="none" stroke="#63b8ff" d="M548.15,-287.1C427.96,-281.45 152,-259.69 152,-179 152,-179 152,-179 152,-121 152,-78.97 192.21,-45.07 220.31,-26.51"/>
<polygon fill="#63b8ff" stroke="#63b8ff" points="222.15,-29.49 228.74,-21.19 218.41,-23.57 222.15,-29.49"/>
</a>
</g>
</g>
<!-- Node12&#45;&gt;Node11 -->
<g id="edge17_Node000012_Node000011" class="edge">
<title>Node12&#45;&gt;Node11</title>
<g id="a_edge17_Node000012_Node000011"><a xlink:title=" ">
<path fill="none" stroke="#63b8ff" d="M616.19,-279.6C654.48,-252.32 765.92,-172.93 813.76,-138.85"/>
<polygon fill="#63b8ff" stroke="#63b8ff" points="815.6,-141.83 821.72,-133.18 811.54,-136.13 815.6,-141.83"/>
</a>
</g>
</g>
<!-- Node13 -->
<g id="Node000013" class="node">
<title>Node13</title>
<g id="a_Node000013"><a xlink:href="../../d0/dad/SDL__blendmode_8h.html" target="_top" xlink:title=" ">
<polygon fill="white" stroke="#666666" points="456,-132 332,-132 332,-112 456,-112 456,-132"/>
<text xml:space="preserve" text-anchor="middle" x="394" y="-118.5" font-family="Helvetica,sans-Serif" font-size="10.00">SDL3/SDL_blendmode.h</text>
</a>
</g>
</g>
<!-- Node12&#45;&gt;Node13 -->
<g id="edge18_Node000012_Node000013" class="edge">
<title>Node12&#45;&gt;Node13</title>
<g id="a_edge18_Node000012_Node000013"><a xlink:title=" ">
<path fill="none" stroke="#63b8ff" d="M548.23,-282.22C517.31,-276.21 479.31,-264.96 451,-244 417.99,-219.55 403.38,-171.11 397.51,-143.51"/>
<polygon fill="#63b8ff" stroke="#63b8ff" points="400.99,-143.11 395.67,-133.95 394.12,-144.43 400.99,-143.11"/>
</a>
</g>
</g>
<!-- Node14 -->
<g id="Node000014" class="node">
<title>Node14</title>
<g id="a_Node000014"><a xlink:href="../../d9/d3f/SDL__pixels_8h.html" target="_top" xlink:title=" ">
<polygon fill="white" stroke="#666666" points="696.12,-188 593.88,-188 593.88,-168 696.12,-168 696.12,-188"/>
<text xml:space="preserve" text-anchor="middle" x="645" y="-174.5" font-family="Helvetica,sans-Serif" font-size="10.00">SDL3/SDL_pixels.h</text>
</a>
</g>
</g>
<!-- Node12&#45;&gt;Node14 -->
<g id="edge22_Node000012_Node000014" class="edge">
<title>Node12&#45;&gt;Node14</title>
<g id="a_edge22_Node000012_Node000014"><a xlink:title=" ">
<path fill="none" stroke="#63b8ff" d="M606.58,-279.62C613.37,-261.84 628.24,-222.88 637.36,-199"/>
<polygon fill="#63b8ff" stroke="#63b8ff" points="640.59,-200.36 640.89,-189.77 634.05,-197.86 640.59,-200.36"/>
</a>
</g>
</g>
<!-- Node16 -->
<g id="Node000016" class="node">
<title>Node16</title>
<g id="a_Node000016"><a xlink:href="../../d6/d40/SDL__properties_8h.html" target="_top" xlink:title=" ">
<polygon fill="white" stroke="#666666" points="575.75,-188 456.25,-188 456.25,-168 575.75,-168 575.75,-188"/>
<text xml:space="preserve" text-anchor="middle" x="516" y="-174.5" font-family="Helvetica,sans-Serif" font-size="10.00">SDL3/SDL_properties.h</text>
</a>
</g>
</g>
<!-- Node12&#45;&gt;Node16 -->
<g id="edge31_Node000012_Node000016" class="edge">
<title>Node12&#45;&gt;Node16</title>
<g id="a_edge31_Node000012_Node000016"><a xlink:title=" ">
<path fill="none" stroke="#63b8ff" d="M602.11,-279.73C600.41,-266.26 595.67,-241.06 583,-224 573.7,-211.49 559.83,-201.35 547.12,-193.89"/>
<polygon fill="#63b8ff" stroke="#63b8ff" points="549.06,-190.96 538.61,-189.21 545.69,-197.09 549.06,-190.96"/>
</a>
</g>
</g>
<!-- Node17 -->
<g id="Node000017" class="node">
<title>Node17</title>
<g id="a_Node000017"><a xlink:href="../../d0/d18/SDL__rect_8h.html" target="_top" xlink:title=" ">
<polygon fill="white" stroke="#666666" points="1035.62,-188 942.38,-188 942.38,-168 1035.62,-168 1035.62,-188"/>
<text xml:space="preserve" text-anchor="middle" x="989" y="-174.5" font-family="Helvetica,sans-Serif" font-size="10.00">SDL3/SDL_rect.h</text>
</a>
</g>
</g>
<!-- Node12&#45;&gt;Node17 -->
<g id="edge36_Node000012_Node000017" class="edge">
<title>Node12&#45;&gt;Node17</title>
<g id="a_edge36_Node000012_Node000017"><a xlink:title=" ">
<path fill="none" stroke="#63b8ff" d="M636.24,-279.53C705.79,-259.71 866.64,-213.87 944.79,-191.6"/>
<polygon fill="#63b8ff" stroke="#63b8ff" points="945.59,-195.01 954.24,-188.9 943.67,-188.28 945.59,-195.01"/>
</a>
</g>
</g>
<!-- Node18 -->
<g id="Node000018" class="node">
<title>Node18</title>
<g id="a_Node000018"><a xlink:href="../../d8/d35/SDL__iostream_8h.html" target="_top" xlink:title=" ">
<polygon fill="white" stroke="#666666" points="574.12,-244 459.88,-244 459.88,-224 574.12,-224 574.12,-244"/>
<text xml:space="preserve" text-anchor="middle" x="517" y="-230.5" font-family="Helvetica,sans-Serif" font-size="10.00">SDL3/SDL_iostream.h</text>
</a>
</g>
</g>
<!-- Node12&#45;&gt;Node18 -->
<g id="edge41_Node000012_Node000018" class="edge">
<title>Node12&#45;&gt;Node18</title>
<g id="a_edge41_Node000012_Node000018"><a xlink:title=" ">
<path fill="none" stroke="#63b8ff" d="M588.02,-279.59C575.27,-271.59 556.71,-259.93 541.76,-250.54"/>
<polygon fill="#63b8ff" stroke="#63b8ff" points="543.71,-247.64 533.38,-245.28 539.99,-253.57 543.71,-247.64"/>
</a>
</g>
</g>
<!-- Node13&#45;&gt;Node2 -->
<g id="edge19_Node000013_Node000002" class="edge">
<title>Node13&#45;&gt;Node2</title>
<g id="a_edge19_Node000013_Node000002"><a xlink:title=" ">
<path fill="none" stroke="#63b8ff" d="M456.43,-115.7C577.86,-105.39 844.62,-82.74 966.72,-72.37"/>
<polygon fill="#63b8ff" stroke="#63b8ff" points="966.9,-75.87 976.57,-71.54 966.31,-68.9 966.9,-75.87"/>
</a>
</g>
</g>
<!-- Node13&#45;&gt;Node8 -->
<g id="edge20_Node000013_Node000008" class="edge">
<title>Node13&#45;&gt;Node8</title>
<g id="a_edge20_Node000013_Node000008"><a xlink:title=" ">
<path fill="none" stroke="#63b8ff" d="M401.87,-111.84C414.65,-97.58 441.39,-70.22 470,-56 510.9,-35.67 560.87,-24.47 601.34,-18.32"/>
<polygon fill="#63b8ff" stroke="#63b8ff" points="601.6,-21.82 611,-16.94 600.6,-14.9 601.6,-21.82"/>
</a>
</g>
</g>
<!-- Node13&#45;&gt;Node9 -->
<g id="edge21_Node000013_Node000009" class="edge">
<title>Node13&#45;&gt;Node9</title>
<g id="a_edge21_Node000013_Node000009"><a xlink:title=" ">
<path fill="none" stroke="#63b8ff" d="M379.61,-111.66C366.09,-102.77 345.39,-88.87 328,-76 306.56,-60.13 282.84,-40.89 266.65,-27.48"/>
<polygon fill="#63b8ff" stroke="#63b8ff" points="269.14,-25 259.22,-21.29 264.66,-30.38 269.14,-25"/>
</a>
</g>
</g>
<!-- Node14&#45;&gt;Node2 -->
<g id="edge23_Node000014_Node000002" class="edge">
<title>Node14&#45;&gt;Node2</title>
<g id="a_edge23_Node000014_Node000002"><a xlink:title=" ">
<path fill="none" stroke="#63b8ff" d="M664,-167.61C699.54,-150.08 773.05,-113.93 779,-112 841.23,-91.76 915.28,-79.89 966.76,-73.47"/>
<polygon fill="#63b8ff" stroke="#63b8ff" points="967.02,-76.96 976.53,-72.29 966.18,-70.01 967.02,-76.96"/>
</a>
</g>
</g>
<!-- Node14&#45;&gt;Node8 -->
<g id="edge29_Node000014_Node000008" class="edge">
<title>Node14&#45;&gt;Node8</title>
<g id="a_edge29_Node000014_Node000008"><a xlink:title=" ">
<path fill="none" stroke="#63b8ff" d="M620.9,-167.6C605.89,-160.33 587.81,-148.68 579,-132 574.85,-124.14 575.68,-120.25 579,-112 593.76,-75.33 628.9,-44.5 652.58,-26.88"/>
<polygon fill="#63b8ff" stroke="#63b8ff" points="654.33,-29.93 660.4,-21.25 650.24,-24.25 654.33,-29.93"/>
</a>
</g>
</g>
<!-- Node14&#45;&gt;Node9 -->
<g id="edge30_Node000014_Node000009" class="edge">
<title>Node14&#45;&gt;Node9</title>
<g id="a_edge30_Node000014_Node000009"><a xlink:title=" ">
<path fill="none" stroke="#63b8ff" d="M593.62,-169.25C590.7,-168.82 587.82,-168.4 585,-168 468.66,-151.28 421.75,-195.75 323,-132 285.78,-107.97 263.51,-58.59 253.44,-30.92"/>
<polygon fill="#63b8ff" stroke="#63b8ff" points="256.81,-29.96 250.25,-21.64 250.19,-32.24 256.81,-29.96"/>
</a>
</g>
</g>
<!-- Node14&#45;&gt;Node11 -->
<g id="edge24_Node000014_Node000011" class="edge">
<title>Node14&#45;&gt;Node11</title>
<g id="a_edge24_Node000014_Node000011"><a xlink:title=" ">
<path fill="none" stroke="#63b8ff" d="M678.27,-167.59C709.71,-158.71 757.09,-145.31 791.71,-135.52"/>
<polygon fill="#63b8ff" stroke="#63b8ff" points="792.34,-138.98 801.01,-132.89 790.44,-132.24 792.34,-138.98"/>
</a>
</g>
</g>
<!-- Node15 -->
<g id="Node000015" class="node">
<title>Node15</title>
<g id="a_Node000015"><a xlink:href="../../d6/de1/SDL__endian_8h.html" target="_top" xlink:title=" ">
<polygon fill="white" stroke="#666666" points="693.62,-132 588.38,-132 588.38,-112 693.62,-112 693.62,-132"/>
<text xml:space="preserve" text-anchor="middle" x="641" y="-118.5" font-family="Helvetica,sans-Serif" font-size="10.00">SDL3/SDL_endian.h</text>
</a>
</g>
</g>
<!-- Node14&#45;&gt;Node15 -->
<g id="edge25_Node000014_Node000015" class="edge">
<title>Node14&#45;&gt;Node15</title>
<g id="a_edge25_Node000014_Node000015"><a xlink:title=" ">
<path fill="none" stroke="#63b8ff" d="M644.3,-167.59C643.82,-161.01 643.15,-151.96 642.54,-143.73"/>
<polygon fill="#63b8ff" stroke="#63b8ff" points="646.03,-143.52 641.8,-133.81 639.05,-144.04 646.03,-143.52"/>
</a>
</g>
</g>
<!-- Node15&#45;&gt;Node2 -->
<g id="edge26_Node000015_Node000002" class="edge">
<title>Node15&#45;&gt;Node2</title>
<g id="a_edge26_Node000015_Node000002"><a xlink:title=" ">
<path fill="none" stroke="#63b8ff" d="M693.87,-113.66C764.9,-103.8 890.98,-86.3 966.9,-75.76"/>
<polygon fill="#63b8ff" stroke="#63b8ff" points="967.26,-79.24 976.68,-74.4 966.29,-72.31 967.26,-79.24"/>
</a>
</g>
</g>
<!-- Node15&#45;&gt;Node8 -->
<g id="edge27_Node000015_Node000008" class="edge">
<title>Node15&#45;&gt;Node8</title>
<g id="a_edge27_Node000015_Node000008"><a xlink:title=" ">
<path fill="none" stroke="#63b8ff" d="M643.98,-111.62C649.62,-93.92 661.92,-55.24 669.53,-31.32"/>
<polygon fill="#63b8ff" stroke="#63b8ff" points="672.87,-32.39 672.56,-21.8 666.2,-30.27 672.87,-32.39"/>
</a>
</g>
</g>
<!-- Node15&#45;&gt;Node9 -->
<g id="edge28_Node000015_Node000009" class="edge">
<title>Node15&#45;&gt;Node9</title>
<g id="a_edge28_Node000015_Node000009"><a xlink:title=" ">
<path fill="none" stroke="#63b8ff" d="M607.07,-111.53C535.93,-91.67 371.22,-45.68 291.64,-23.46"/>
<polygon fill="#63b8ff" stroke="#63b8ff" points="293.02,-20.21 282.45,-20.9 291.14,-26.96 293.02,-20.21"/>
</a>
</g>
</g>
<!-- Node16&#45;&gt;Node2 -->
<g id="edge32_Node000016_Node000002" class="edge">
<title>Node16&#45;&gt;Node2</title>
<g id="a_edge32_Node000016_Node000002"><a xlink:title=" ">
<path fill="none" stroke="#63b8ff" d="M575.58,-167.53C613.06,-160.39 661.93,-148.91 703,-132 718.86,-125.47 719.88,-117.85 736,-112 812.37,-84.26 905.94,-73.62 966.7,-69.54"/>
<polygon fill="#63b8ff" stroke="#63b8ff" points="966.76,-73.04 976.52,-68.92 966.32,-66.06 966.76,-73.04"/>
</a>
</g>
</g>
<!-- Node16&#45;&gt;Node8 -->
<g id="edge34_Node000016_Node000008" class="edge">
<title>Node16&#45;&gt;Node8</title>
<g id="a_edge34_Node000016_Node000008"><a xlink:title=" ">
<path fill="none" stroke="#63b8ff" d="M520.3,-167.76C530.8,-146.01 559.61,-90.78 597,-56 610.52,-43.42 628.18,-32.94 643.38,-25.27"/>
<polygon fill="#63b8ff" stroke="#63b8ff" points="644.58,-28.57 652.06,-21.07 641.53,-22.27 644.58,-28.57"/>
</a>
</g>
</g>
<!-- Node16&#45;&gt;Node9 -->
<g id="edge35_Node000016_Node000009" class="edge">
<title>Node16&#45;&gt;Node9</title>
<g id="a_edge35_Node000016_Node000009"><a xlink:title=" ">
<path fill="none" stroke="#63b8ff" d="M455.78,-175.24C386.28,-171.81 278.15,-161.71 252,-132 227.66,-104.34 234.3,-57.85 240.91,-31.27"/>
<polygon fill="#63b8ff" stroke="#63b8ff" points="244.25,-32.32 243.53,-21.75 237.5,-30.47 244.25,-32.32"/>
</a>
</g>
</g>
<!-- Node16&#45;&gt;Node11 -->
<g id="edge33_Node000016_Node000011" class="edge">
<title>Node16&#45;&gt;Node11</title>
<g id="a_edge33_Node000016_Node000011"><a xlink:title=" ">
<path fill="none" stroke="#63b8ff" d="M572.11,-167.53C629.33,-157.88 717.78,-142.95 776.27,-133.08"/>
<polygon fill="#63b8ff" stroke="#63b8ff" points="776.78,-136.54 786.06,-131.43 775.62,-129.64 776.78,-136.54"/>
</a>
</g>
</g>
<!-- Node17&#45;&gt;Node2 -->
<g id="edge37_Node000017_Node000002" class="edge">
<title>Node17&#45;&gt;Node2</title>
<g id="a_edge37_Node000017_Node000002"><a xlink:title=" ">
<path fill="none" stroke="#63b8ff" d="M992.5,-167.62C999.12,-149.84 1013.64,-110.88 1022.55,-87"/>
<polygon fill="#63b8ff" stroke="#63b8ff" points="1025.77,-88.37 1025.98,-77.77 1019.21,-85.92 1025.77,-88.37"/>
</a>
</g>
</g>
<!-- Node17&#45;&gt;Node8 -->
<g id="edge39_Node000017_Node000008" class="edge">
<title>Node17&#45;&gt;Node8</title>
<g id="a_edge39_Node000017_Node000008"><a xlink:title=" ">
<path fill="none" stroke="#63b8ff" d="M987.07,-167.6C981.81,-144.47 964.91,-84.64 926,-56 911.89,-45.62 818.97,-30.79 750.52,-21.03"/>
<polygon fill="#63b8ff" stroke="#63b8ff" points="751.22,-17.59 740.83,-19.66 750.24,-24.52 751.22,-17.59"/>
</a>
</g>
</g>
<!-- Node17&#45;&gt;Node9 -->
<g id="edge40_Node000017_Node000009" class="edge">
<title>Node17&#45;&gt;Node9</title>
<g id="a_edge40_Node000017_Node000009"><a xlink:title=" ">
<path fill="none" stroke="#63b8ff" d="M978.65,-167.72C961.94,-153.3 927.4,-125.73 893,-112 696.96,-33.77 444.89,-15.9 321.61,-11.98"/>
<polygon fill="#63b8ff" stroke="#63b8ff" points="322.06,-8.49 311.96,-11.69 321.85,-15.48 322.06,-8.49"/>
</a>
</g>
</g>
<!-- Node17&#45;&gt;Node11 -->
<g id="edge38_Node000017_Node000011" class="edge">
<title>Node17&#45;&gt;Node11</title>
<g id="a_edge38_Node000017_Node000011"><a xlink:title=" ">
<path fill="none" stroke="#63b8ff" d="M962.35,-167.59C937.82,-158.94 901.17,-146 873.66,-136.29"/>
<polygon fill="#63b8ff" stroke="#63b8ff" points="874.88,-133.01 864.29,-132.98 872.55,-139.61 874.88,-133.01"/>
</a>
</g>
</g>
<!-- Node18&#45;&gt;Node2 -->
<g id="edge42_Node000018_Node000002" class="edge">
<title>Node18&#45;&gt;Node2</title>
<g id="a_edge42_Node000018_Node000002"><a xlink:title=" ">
<path fill="none" stroke="#63b8ff" d="M574.4,-223.89C619.78,-216.09 684.5,-203.66 740,-188 809.69,-168.34 826.22,-159.99 893,-132 931.15,-116.01 974.09,-95.16 1001.56,-81.44"/>
<polygon fill="#63b8ff" stroke="#63b8ff" points="1002.91,-84.67 1010.28,-77.06 999.77,-78.42 1002.91,-84.67"/>
</a>
</g>
</g>
<!-- Node18&#45;&gt;Node8 -->
<g id="edge45_Node000018_Node000008" class="edge">
<title>Node18&#45;&gt;Node8</title>
<g id="a_edge45_Node000018_Node000008"><a xlink:title=" ">
<path fill="none" stroke="#63b8ff" d="M492.47,-223.65C468.04,-212.72 435.69,-192.92 447,-168 482.39,-90.02 578.94,-44.66 634.73,-24.2"/>
<polygon fill="#63b8ff" stroke="#63b8ff" points="635.64,-27.59 643.89,-20.95 633.29,-21 635.64,-27.59"/>
</a>
</g>
</g>
<!-- Node18&#45;&gt;Node9 -->
<g id="edge46_Node000018_Node000009" class="edge">
<title>Node18&#45;&gt;Node9</title>
<g id="a_edge46_Node000018_Node000009"><a xlink:title=" ">
<path fill="none" stroke="#63b8ff" d="M459.5,-229.61C394.45,-222.44 290.62,-200.28 237,-132 214.2,-102.96 227.28,-57.01 237.82,-30.88"/>
<polygon fill="#63b8ff" stroke="#63b8ff" points="240.99,-32.37 241.74,-21.8 234.56,-29.59 240.99,-32.37"/>
</a>
</g>
</g>
<!-- Node18&#45;&gt;Node11 -->
<g id="edge43_Node000018_Node000011" class="edge">
<title>Node18&#45;&gt;Node11</title>
<g id="a_edge43_Node000018_Node000011"><a xlink:title=" ">
<path fill="none" stroke="#63b8ff" d="M570.61,-223.52C608.74,-215.97 660.83,-204.01 705,-188 715.38,-184.24 772.17,-155.56 807.48,-137.58"/>
<polygon fill="#63b8ff" stroke="#63b8ff" points="809.01,-140.73 816.33,-133.07 805.83,-134.49 809.01,-140.73"/>
</a>
</g>
</g>
<!-- Node18&#45;&gt;Node16 -->
<g id="edge44_Node000018_Node000016" class="edge">
<title>Node18&#45;&gt;Node16</title>
<g id="a_edge44_Node000018_Node000016"><a xlink:title=" ">
<path fill="none" stroke="#63b8ff" d="M516.83,-223.59C516.7,-217.01 516.54,-207.96 516.38,-199.73"/>
<polygon fill="#63b8ff" stroke="#63b8ff" points="519.88,-199.75 516.2,-189.81 512.89,-199.87 519.88,-199.75"/>
</a>
</g>
</g>
<!-- Node19&#45;&gt;Node2 -->
<g id="edge50_Node000019_Node000002" class="edge">
<title>Node19&#45;&gt;Node2</title>
<g id="a_edge50_Node000019_Node000002"><a xlink:title=" ">
<path fill="none" stroke="#63b8ff" d="M811.33,-335.74C882.29,-319.67 1009.22,-279.15 1064,-188 1081.41,-159.03 1078.4,-143.82 1067,-112 1063.32,-101.73 1056.18,-92.13 1049.14,-84.46"/>
<polygon fill="#63b8ff" stroke="#63b8ff" points="1051.74,-82.11 1042.21,-77.48 1046.78,-87.04 1051.74,-82.11"/>
</a>
</g>
</g>
<!-- Node19&#45;&gt;Node8 -->
<g id="edge56_Node000019_Node000008" class="edge">
<title>Node19&#45;&gt;Node8</title>
<g id="a_edge56_Node000019_Node000008"><a xlink:title=" ">
<path fill="none" stroke="#63b8ff" d="M811.3,-342.32C922.21,-335.02 1178,-310.06 1178,-235 1178,-235 1178,-235 1178,-121 1178,-72.73 1135.92,-73.67 1091,-56 1090.02,-55.61 869.68,-31.85 750.5,-19.02"/>
<polygon fill="#63b8ff" stroke="#63b8ff" points="751.12,-15.56 740.8,-17.97 750.37,-22.52 751.12,-15.56"/>
</a>
</g>
</g>
<!-- Node19&#45;&gt;Node9 -->
<g id="edge57_Node000019_Node000009" class="edge">
<title>Node19&#45;&gt;Node9</title>
<g id="a_edge57_Node000019_Node000009"><a xlink:title=" ">
<path fill="none" stroke="#63b8ff" d="M710.63,-342.23C552.44,-332.85 76,-299.29 76,-235 76,-235 76,-235 76,-121 76,-90.2 77.62,-77.15 100,-56 119.6,-37.48 146.63,-26.57 172.17,-20.14"/>
<polygon fill="#63b8ff" stroke="#63b8ff" points="172.94,-23.56 181.91,-17.91 171.38,-16.73 172.94,-23.56"/>
</a>
</g>
</g>
<!-- Node19&#45;&gt;Node11 -->
<g id="edge51_Node000019_Node000011" class="edge">
<title>Node19&#45;&gt;Node11</title>
<g id="a_edge51_Node000019_Node000011"><a xlink:title=" ">
<path fill="none" stroke="#63b8ff" d="M764.13,-335.74C775.32,-302.6 813.58,-189.35 829.24,-143.01"/>
<polygon fill="#63b8ff" stroke="#63b8ff" points="832.49,-144.32 832.38,-133.73 825.86,-142.08 832.49,-144.32"/>
</a>
</g>
</g>
<!-- Node19&#45;&gt;Node12 -->
<g id="edge55_Node000019_Node000012" class="edge">
<title>Node19&#45;&gt;Node12</title>
<g id="a_edge55_Node000019_Node000012"><a xlink:title=" ">
<path fill="none" stroke="#63b8ff" d="M733.48,-335.59C708.03,-326.9 669.97,-313.89 641.51,-304.16"/>
<polygon fill="#63b8ff" stroke="#63b8ff" points="642.76,-300.89 632.17,-300.97 640.5,-307.52 642.76,-300.89"/>
</a>
</g>
</g>
<!-- Node19&#45;&gt;Node14 -->
<g id="edge52_Node000019_Node000014" class="edge">
<title>Node19&#45;&gt;Node14</title>
<g id="a_edge52_Node000019_Node000014"><a xlink:title=" ">
<path fill="none" stroke="#63b8ff" d="M757.86,-335.75C750.32,-314.44 729.59,-260.89 700,-224 691.13,-212.95 679.15,-202.76 668.64,-194.88"/>
<polygon fill="#63b8ff" stroke="#63b8ff" points="670.92,-192.2 660.75,-189.21 666.84,-197.89 670.92,-192.2"/>
</a>
</g>
</g>
<!-- Node19&#45;&gt;Node16 -->
<g id="edge53_Node000019_Node000016" class="edge">
<title>Node19&#45;&gt;Node16</title>
<g id="a_edge53_Node000019_Node000016"><a xlink:title=" ">
<path fill="none" stroke="#63b8ff" d="M749.91,-335.51C724.66,-314.14 660.55,-261.22 602,-224 584.27,-212.73 563.41,-201.76 546.67,-193.48"/>
<polygon fill="#63b8ff" stroke="#63b8ff" points="548.23,-190.34 537.71,-189.11 545.16,-196.63 548.23,-190.34"/>
</a>
</g>
</g>
<!-- Node19&#45;&gt;Node17 -->
<g id="edge54_Node000019_Node000017" class="edge">
<title>Node19&#45;&gt;Node17</title>
<g id="a_edge54_Node000019_Node000017"><a xlink:title=" ">
<path fill="none" stroke="#63b8ff" d="M773.91,-335.6C811.3,-308.38 919.96,-229.26 966.94,-195.06"/>
<polygon fill="#63b8ff" stroke="#63b8ff" points="968.98,-197.9 975.01,-189.19 964.86,-192.24 968.98,-197.9"/>
</a>
</g>
</g>
<!-- Node20&#45;&gt;Node2 -->
<g id="edge61_Node000020_Node000002" class="edge">
<title>Node20&#45;&gt;Node2</title>
<g id="a_edge61_Node000020_Node000002"><a xlink:title=" ">
<path fill="none" stroke="#63b8ff" d="M1162.52,-447.55C1195.75,-431.91 1254,-397.33 1254,-347 1254,-347 1254,-347 1254,-177 1254,-104.92 1159.39,-80.07 1093.14,-71.5"/>
<polygon fill="#63b8ff" stroke="#63b8ff" points="1093.8,-68.06 1083.46,-70.35 1092.97,-75.01 1093.8,-68.06"/>
</a>
</g>
</g>
<!-- Node20&#45;&gt;Node8 -->
<g id="edge64_Node000020_Node000008" class="edge">
<title>Node20&#45;&gt;Node8</title>
<g id="a_edge64_Node000020_Node000008"><a xlink:title=" ">
<path fill="none" stroke="#63b8ff" d="M1177.57,-447.58C1222.58,-433.78 1292,-403.35 1292,-347 1292,-347 1292,-347 1292,-121 1292,-78.22 1260.24,-73.04 1221,-56 1126.74,-15.08 862.32,-29.47 760,-20 756.96,-19.72 753.85,-19.42 750.71,-19.12"/>
<polygon fill="#63b8ff" stroke="#63b8ff" points="751.08,-15.64 740.78,-18.13 750.39,-22.6 751.08,-15.64"/>
</a>
</g>
</g>
<!-- Node20&#45;&gt;Node9 -->
<g id="edge65_Node000020_Node000009" class="edge">
<title>Node20&#45;&gt;Node9</title>
<g id="a_edge65_Node000020_Node000009"><a xlink:title=" ">
<path fill="none" stroke="#63b8ff" d="M1089.17,-457.51C867.95,-459.05 0,-458.04 0,-347 0,-347 0,-347 0,-289 0,-162.36 69.39,-140.18 164,-56 178.36,-43.22 196.99,-32.7 212.96,-25.06"/>
<polygon fill="#63b8ff" stroke="#63b8ff" points="213.99,-28.44 221.62,-21.09 211.07,-22.07 213.99,-28.44"/>
</a>
</g>
</g>
<!-- Node20&#45;&gt;Node10 -->
<g id="edge63_Node000020_Node000010" class="edge">
<title>Node20&#45;&gt;Node10</title>
<g id="a_edge63_Node000020_Node000010"><a xlink:title=" ">
<path fill="none" stroke="#63b8ff" d="M1106.73,-447.59C1075.29,-438.71 1027.91,-425.31 993.29,-415.52"/>
<polygon fill="#63b8ff" stroke="#63b8ff" points="994.56,-412.24 983.99,-412.89 992.66,-418.98 994.56,-412.24"/>
</a>
</g>
</g>
<!-- Node20&#45;&gt;Node11 -->
<g id="edge62_Node000020_Node000011" class="edge">
<title>Node20&#45;&gt;Node11</title>
<g id="a_edge62_Node000020_Node000011"><a xlink:title=" ">
<path fill="none" stroke="#63b8ff" d="M1131.55,-447.72C1090.05,-402.12 907.54,-201.6 852.06,-140.64"/>
<polygon fill="#63b8ff" stroke="#63b8ff" points="854.89,-138.55 845.57,-133.51 849.71,-143.27 854.89,-138.55"/>
</a>
</g>
</g>
</g>
</svg>
