<?xml version="1.0" encoding="UTF-8" standalone="no"?>
<!DOCTYPE svg PUBLIC "-//W3C//DTD SVG 1.1//EN"
 "http://www.w3.org/Graphics/SVG/1.1/DTD/svg11.dtd">
<!-- Generated by graphviz version 13.1.0 (20250701.0955)
 -->
<!-- Title: generic_asyncio_size Pages: 1 -->
<svg width="770pt" height="40pt"
 viewBox="0.00 0.00 770.00 40.00" xmlns="http://www.w3.org/2000/svg" xmlns:xlink="http://www.w3.org/1999/xlink">
<g id="graph0" class="graph" transform="scale(1 1) rotate(0) translate(4 36)">
<title>generic_asyncio_size</title>
<!-- Node1 -->
<g id="Node000001" class="node">
<title>Node1</title>
<g id="a_Node000001"><a xlink:title=" ">
<polygon fill="#999999" stroke="#666666" points="761.75,-26 652,-26 652,-6 761.75,-6 761.75,-26"/>
<text xml:space="preserve" text-anchor="middle" x="706.88" y="-12.5" font-family="Helvetica,sans-Serif" font-size="10.00">generic_asyncio_size</text>
</a>
</g>
</g>
<!-- Node2 -->
<g id="Node000002" class="node">
<title>Node2</title>
<g id="a_Node000002"><a xlink:href="../../d7/dbe/SDL__asyncio__generic_8c.html#a41faeffd8a29f7267b598152744241c0" target="_top" xlink:title=" ">
<polygon fill="white" stroke="#666666" points="616,-32 473.25,-32 473.25,0 616,0 616,-32"/>
<text xml:space="preserve" text-anchor="start" x="481.25" y="-18.5" font-family="Helvetica,sans-Serif" font-size="10.00">SDL_SYS_AsyncIOFromFile</text>
<text xml:space="preserve" text-anchor="middle" x="544.62" y="-6.5" font-family="Helvetica,sans-Serif" font-size="10.00">_Generic</text>
</a>
</g>
</g>
<!-- Node1&#45;&gt;Node2 -->
<g id="edge1_Node000001_Node000002" class="edge">
<title>Node1&#45;&gt;Node2</title>
<g id="a_edge1_Node000001_Node000002"><a xlink:title=" ">
<path fill="none" stroke="#63b8ff" d="M640.24,-16C632.34,-16 624.26,-16 616.3,-16"/>
<polygon fill="#63b8ff" stroke="#63b8ff" points="640.11,-19.5 650.11,-16 640.11,-12.5 640.11,-19.5"/>
</a>
</g>
</g>
<!-- Node3 -->
<g id="Node000003" class="node">
<title>Node3</title>
<g id="a_Node000003"><a xlink:href="../../d7/dbe/SDL__asyncio__generic_8c.html#ac8fbedefc1ac37b54a5eca1bb4b27440" target="_top" xlink:title=" ">
<polygon fill="white" stroke="#666666" points="437.25,-26 294.5,-26 294.5,-6 437.25,-6 437.25,-26"/>
<text xml:space="preserve" text-anchor="middle" x="365.88" y="-12.5" font-family="Helvetica,sans-Serif" font-size="10.00">SDL_SYS_AsyncIOFromFile</text>
</a>
</g>
</g>
<!-- Node2&#45;&gt;Node3 -->
<g id="edge2_Node000002_Node000003" class="edge">
<title>Node2&#45;&gt;Node3</title>
<g id="a_edge2_Node000002_Node000003"><a xlink:title=" ">
<path fill="none" stroke="#63b8ff" d="M461.48,-16C453.46,-16 445.37,-16 437.48,-16"/>
<polygon fill="#63b8ff" stroke="#63b8ff" points="461.24,-19.5 471.24,-16 461.24,-12.5 461.24,-19.5"/>
</a>
</g>
</g>
<!-- Node4 -->
<g id="Node000004" class="node">
<title>Node4</title>
<g id="a_Node000004"><a xlink:href="../../d7/d30/SDL__asyncio_8c.html#a6e41d5e1d667caa69f53c74f2c69b777" target="_top" xlink:title=" ">
<polygon fill="white" stroke="#666666" points="258.5,-26 141.25,-26 141.25,-6 258.5,-6 258.5,-26"/>
<text xml:space="preserve" text-anchor="middle" x="199.88" y="-12.5" font-family="Helvetica,sans-Serif" font-size="10.00">SDL_AsyncIOFromFile</text>
</a>
</g>
</g>
<!-- Node3&#45;&gt;Node4 -->
<g id="edge3_Node000003_Node000004" class="edge">
<title>Node3&#45;&gt;Node4</title>
<g id="a_edge3_Node000003_Node000004"><a xlink:title=" ">
<path fill="none" stroke="#63b8ff" d="M282.96,-16C274.86,-16 266.77,-16 258.98,-16"/>
<polygon fill="#63b8ff" stroke="#63b8ff" points="282.86,-19.5 292.86,-16 282.86,-12.5 282.86,-19.5"/>
</a>
</g>
</g>
<!-- Node5 -->
<g id="Node000005" class="node">
<title>Node5</title>
<g id="a_Node000005"><a xlink:href="../../d7/d30/SDL__asyncio_8c.html#a50a8195e1a954b27f3bacbe37e66f8e3" target="_top" xlink:title=" ">
<polygon fill="white" stroke="#666666" points="105.25,-26 0,-26 0,-6 105.25,-6 105.25,-26"/>
<text xml:space="preserve" text-anchor="middle" x="52.62" y="-12.5" font-family="Helvetica,sans-Serif" font-size="10.00">SDL_LoadFileAsync</text>
</a>
</g>
</g>
<!-- Node4&#45;&gt;Node5 -->
<g id="edge4_Node000004_Node000005" class="edge">
<title>Node4&#45;&gt;Node5</title>
<g id="a_edge4_Node000004_Node000005"><a xlink:title=" ">
<path fill="none" stroke="#63b8ff" d="M129.68,-16C121.58,-16 113.42,-16 105.61,-16"/>
<polygon fill="#63b8ff" stroke="#63b8ff" points="129.54,-19.5 139.54,-16 129.54,-12.5 129.54,-19.5"/>
</a>
</g>
</g>
</g>
</svg>
