<?xml version="1.0" encoding="UTF-8" standalone="no"?>
<!DOCTYPE svg PUBLIC "-//W3C//DTD SVG 1.1//EN"
 "http://www.w3.org/Graphics/SVG/1.1/DTD/svg11.dtd">
<!-- Generated by graphviz version 13.1.0 (20250701.0955)
 -->
<!-- Title: dynamic_mem_seek Pages: 1 -->
<svg width="624pt" height="66pt"
 viewBox="0.00 0.00 624.00 66.00" xmlns="http://www.w3.org/2000/svg" xmlns:xlink="http://www.w3.org/1999/xlink">
<g id="graph0" class="graph" transform="scale(1 1) rotate(0) translate(4 62)">
<title>dynamic_mem_seek</title>
<!-- Node1 -->
<g id="Node000001" class="node">
<title>Node1</title>
<g id="a_Node000001"><a xlink:title=" ">
<polygon fill="#999999" stroke="#666666" points="616,-39 510,-39 510,-19 616,-19 616,-39"/>
<text xml:space="preserve" text-anchor="middle" x="563" y="-25.5" font-family="Helvetica,sans-Serif" font-size="10.00">dynamic_mem_seek</text>
</a>
</g>
</g>
<!-- Node2 -->
<g id="Node000002" class="node">
<title>Node2</title>
<g id="a_Node000002"><a xlink:href="../../d3/d3d/SDL__iostream_8c.html#aa1a9300a7bdb16613f9eebef43a8d622" target="_top" xlink:title=" ">
<polygon fill="white" stroke="#666666" points="474,-39 339.5,-39 339.5,-19 474,-19 474,-39"/>
<text xml:space="preserve" text-anchor="middle" x="406.75" y="-25.5" font-family="Helvetica,sans-Serif" font-size="10.00">SDL_IOFromDynamicMem</text>
</a>
</g>
</g>
<!-- Node1&#45;&gt;Node2 -->
<g id="edge1_Node000001_Node000002" class="edge">
<title>Node1&#45;&gt;Node2</title>
<g id="a_edge1_Node000001_Node000002"><a xlink:title=" ">
<path fill="none" stroke="#63b8ff" d="M498.37,-29C490.47,-29 482.36,-29 474.41,-29"/>
<polygon fill="#63b8ff" stroke="#63b8ff" points="498.26,-32.5 508.26,-29 498.26,-25.5 498.26,-32.5"/>
</a>
</g>
</g>
<!-- Node3 -->
<g id="Node000003" class="node">
<title>Node3</title>
<g id="a_Node000003"><a xlink:href="../../d4/db9/SDL__filesystem_8c.html#a8827e4b44e92aea5f7bc09f81e69138f" target="_top" xlink:title=" ">
<polygon fill="white" stroke="#666666" points="303.5,-39 170.5,-39 170.5,-19 303.5,-19 303.5,-39"/>
<text xml:space="preserve" text-anchor="middle" x="237" y="-25.5" font-family="Helvetica,sans-Serif" font-size="10.00">SDL_InternalGlobDirectory</text>
</a>
</g>
</g>
<!-- Node2&#45;&gt;Node3 -->
<g id="edge2_Node000002_Node000003" class="edge">
<title>Node2&#45;&gt;Node3</title>
<g id="a_edge2_Node000002_Node000003"><a xlink:title=" ">
<path fill="none" stroke="#63b8ff" d="M328.07,-29C319.96,-29 311.78,-29 303.82,-29"/>
<polygon fill="#63b8ff" stroke="#63b8ff" points="327.94,-32.5 337.94,-29 327.94,-25.5 327.94,-32.5"/>
</a>
</g>
</g>
<!-- Node4 -->
<g id="Node000004" class="node">
<title>Node4</title>
<g id="a_Node000004"><a xlink:href="../../d4/db9/SDL__filesystem_8c.html#a0d455f8ab2f61032712ea43081093ae7" target="_top" xlink:title=" ">
<polygon fill="white" stroke="#666666" points="117.62,-58 16.88,-58 16.88,-38 117.62,-38 117.62,-58"/>
<text xml:space="preserve" text-anchor="middle" x="67.25" y="-44.5" font-family="Helvetica,sans-Serif" font-size="10.00">SDL_GlobDirectory</text>
</a>
</g>
</g>
<!-- Node3&#45;&gt;Node4 -->
<g id="edge3_Node000003_Node000004" class="edge">
<title>Node3&#45;&gt;Node4</title>
<g id="a_edge3_Node000003_Node000004"><a xlink:title=" ">
<path fill="none" stroke="#63b8ff" d="M159.09,-37.71C145.15,-39.29 130.96,-40.9 118.05,-42.36"/>
<polygon fill="#63b8ff" stroke="#63b8ff" points="159.14,-41.23 168.68,-36.63 158.35,-34.27 159.14,-41.23"/>
</a>
</g>
</g>
<!-- Node5 -->
<g id="Node000005" class="node">
<title>Node5</title>
<g id="a_Node000005"><a xlink:href="../../d1/deb/SDL__storage_8c.html#a119d70dc377e31f7bf1c434a7676e349" target="_top" xlink:title=" ">
<polygon fill="white" stroke="#666666" points="134.5,-20 0,-20 0,0 134.5,0 134.5,-20"/>
<text xml:space="preserve" text-anchor="middle" x="67.25" y="-6.5" font-family="Helvetica,sans-Serif" font-size="10.00">SDL_GlobStorageDirectory</text>
</a>
</g>
</g>
<!-- Node3&#45;&gt;Node5 -->
<g id="edge4_Node000003_Node000005" class="edge">
<title>Node3&#45;&gt;Node5</title>
<g id="a_edge4_Node000003_Node000005"><a xlink:title=" ">
<path fill="none" stroke="#63b8ff" d="M158.95,-20.27C150.95,-19.37 142.86,-18.45 134.98,-17.56"/>
<polygon fill="#63b8ff" stroke="#63b8ff" points="158.35,-23.73 168.68,-21.37 159.14,-16.77 158.35,-23.73"/>
</a>
</g>
</g>
</g>
</svg>
