<?xml version="1.0" encoding="UTF-8" standalone="no"?>
<!DOCTYPE svg PUBLIC "-//W3C//DTD SVG 1.1//EN"
 "http://www.w3.org/Graphics/SVG/1.1/DTD/svg11.dtd">
<!-- Generated by graphviz version 13.1.0 (20250701.0955)
 -->
<!-- Title: SDL_fdatasync Pages: 1 -->
<svg width="301pt" height="28pt"
 viewBox="0.00 0.00 301.00 28.00" xmlns="http://www.w3.org/2000/svg" xmlns:xlink="http://www.w3.org/1999/xlink">
<g id="graph0" class="graph" transform="scale(1 1) rotate(0) translate(4 24)">
<title>SDL_fdatasync</title>
<!-- Node1 -->
<g id="Node000001" class="node">
<title>Node1</title>
<g id="a_Node000001"><a xlink:title=" ">
<polygon fill="#999999" stroke="#666666" points="293.25,-20 209.75,-20 209.75,0 293.25,0 293.25,-20"/>
<text xml:space="preserve" text-anchor="middle" x="251.5" y="-6.5" font-family="Helvetica,sans-Serif" font-size="10.00">SDL_fdatasync</text>
</a>
</g>
</g>
<!-- Node2 -->
<g id="Node000002" class="node">
<title>Node2</title>
<g id="a_Node000002"><a xlink:href="../../d3/d3d/SDL__iostream_8c.html#a821ae035460f7d2e46500e1209d76d74" target="_top" xlink:title=" ">
<polygon fill="white" stroke="#666666" points="173.75,-20 123.25,-20 123.25,0 173.75,0 173.75,-20"/>
<text xml:space="preserve" text-anchor="middle" x="148.5" y="-6.5" font-family="Helvetica,sans-Serif" font-size="10.00">fd_flush</text>
</a>
</g>
</g>
<!-- Node1&#45;&gt;Node2 -->
<g id="edge1_Node000001_Node000002" class="edge">
<title>Node1&#45;&gt;Node2</title>
<g id="a_edge1_Node000001_Node000002"><a xlink:title=" ">
<path fill="none" stroke="#63b8ff" d="M198.03,-10C189.64,-10 181.33,-10 174.01,-10"/>
<polygon fill="#63b8ff" stroke="#63b8ff" points="197.91,-13.5 207.91,-10 197.91,-6.5 197.91,-13.5"/>
</a>
</g>
</g>
<!-- Node3 -->
<g id="Node000003" class="node">
<title>Node3</title>
<g id="a_Node000003"><a xlink:href="../../d3/d3d/SDL__iostream_8c.html#ac61a5d095d561cc7b4f6eac8293d2d43" target="_top" xlink:title=" ">
<polygon fill="white" stroke="#666666" points="87.25,-20 0,-20 0,0 87.25,0 87.25,-20"/>
<text xml:space="preserve" text-anchor="middle" x="43.62" y="-6.5" font-family="Helvetica,sans-Serif" font-size="10.00">SDL_IOFromFD</text>
</a>
</g>
</g>
<!-- Node2&#45;&gt;Node3 -->
<g id="edge2_Node000002_Node000003" class="edge">
<title>Node2&#45;&gt;Node3</title>
<g id="a_edge2_Node000002_Node000003"><a xlink:title=" ">
<path fill="none" stroke="#63b8ff" d="M111.59,-10C103.83,-10 95.55,-10 87.56,-10"/>
<polygon fill="#63b8ff" stroke="#63b8ff" points="111.35,-13.5 121.35,-10 111.35,-6.5 111.35,-13.5"/>
</a>
</g>
</g>
</g>
</svg>
