<?xml version="1.0" encoding="UTF-8" standalone="no"?>
<!DOCTYPE svg PUBLIC "-//W3C//DTD SVG 1.1//EN"
 "http://www.w3.org/Graphics/SVG/1.1/DTD/svg11.dtd">
<!-- Generated by graphviz version 13.1.0 (20250701.0955)
 -->
<!-- Title: SDL&#45;main/include/SDL3/SDL_joystick.h Pages: 1 -->
<!--zoomable 376 -->

<svg id="main" version="1.1" xmlns="http://www.w3.org/2000/svg" xmlns:xlink="http://www.w3.org/1999/xlink" xml:space="preserve" onload="init(evt)">

<style type="text/css"><![CDATA[
.node, .edge {opacity: 0.7;}
.node.selected, .edge.selected {opacity: 1;}
.edge:hover path { stroke: red; }
.edge:hover polygon { stroke: red; fill: red; }
]]></style>

<defs>
  <circle id="rim" cx="0" cy="0" r="7"/>
  <circle id="rim2" cx="0" cy="0" r="3.5"/>
  <g id="zoomPlus">
    <use xlink:href="#rim" fill="#404040"><set attributeName="fill" to="#808080" begin="zoomplus.mouseover" end="zoomplus.mouseout"/></use>
    <path d="M-4,0h8M0,-4v8" fill="none" stroke="white" stroke-width="1.5" pointer-events="none"/>
  </g>
  <g id="zoomMin">
    <use xlink:href="#rim" fill="#404040"><set attributeName="fill" to="#808080" begin="zoomminus.mouseover" end="zoomminus.mouseout"/></use>
    <path d="M-4,0h8" fill="none" stroke="white" stroke-width="1.5" pointer-events="none"/>
  </g>
  <g id="arrowUp" transform="translate(30 24)">
    <use xlink:href="#rim"/>
    <path pointer-events="none" fill="none" stroke="white" stroke-width="1.5" d="M0,-3.0v7 M-2.5,-0.5L0,-3.0L2.5,-0.5"/>
  </g>
  <g id="arrowRight" transform="rotate(90) translate(36 -43)">
    <use xlink:href="#rim"/>
    <path pointer-events="none" fill="none" stroke="white" stroke-width="1.5" d="M0,-3.0v7 M-2.5,-0.5L0,-3.0L2.5,-0.5"/>
  </g>
  <g id="arrowDown" transform="rotate(180) translate(-30 -48)">
    <use xlink:href="#rim"/>
    <path pointer-events="none" fill="none" stroke="white" stroke-width="1.5" d="M0,-3.0v7 M-2.5,-0.5L0,-3.0L2.5,-0.5"/>
  </g>
  <g id="arrowLeft" transform="rotate(270) translate(-36 17)">
    <use xlink:href="#rim"/>
    <path pointer-events="none" fill="none" stroke="white" stroke-width="1.5" d="M0,-3.0v7 M-2.5,-0.5L0,-3.0L2.5,-0.5"/>
  </g>
  <g id="resetDef">
    <use xlink:href="#rim2" fill="#404040"><set attributeName="fill" to="#808080" begin="reset.mouseover" end="reset.mouseout"/></use>
  </g>
</defs>
<script type="application/ecmascript">
var viewWidth = 1102;
var viewHeight = 376;
var sectionId = 'dynsection-0';
</script>
<script type="application/ecmascript" xlink:href="../../svg.min.js"/>
<svg id="graph" class="graph">
<g id="viewport">
<title>SDL&#45;main/include/SDL3/SDL_joystick.h</title>
<!-- Node1 -->
<g id="Node000001" class="node">
<title>Node1</title>
<g id="a_Node000001"><a xlink:title=" ">
<polygon fill="#999999" stroke="#666666" points="782.62,-368 661.62,-368 661.62,-336 782.62,-336 782.62,-368"/>
<text xml:space="preserve" text-anchor="start" x="669.62" y="-354.5" font-family="Helvetica,sans-Serif" font-size="10.00">SDL&#45;main/include/SDL3</text>
<text xml:space="preserve" text-anchor="middle" x="722.12" y="-342.5" font-family="Helvetica,sans-Serif" font-size="10.00">/SDL_joystick.h</text>
</a>
</g>
</g>
<!-- Node2 -->
<g id="Node000002" class="node">
<title>Node2</title>
<g id="a_Node000002"><a xlink:href="../../d2/d5b/SDL__stdinc_8h.html" target="_top" xlink:title=" ">
<polygon fill="white" stroke="#666666" points="242.62,-76 139.62,-76 139.62,-56 242.62,-56 242.62,-76"/>
<text xml:space="preserve" text-anchor="middle" x="191.12" y="-62.5" font-family="Helvetica,sans-Serif" font-size="10.00">SDL3/SDL_stdinc.h</text>
</a>
</g>
</g>
<!-- Node1&#45;&gt;Node2 -->
<g id="edge1_Node000001_Node000002" class="edge">
<title>Node1&#45;&gt;Node2</title>
<g id="a_edge1_Node000001_Node000002"><a xlink:title=" ">
<path fill="none" stroke="#63b8ff" d="M661.25,-347.09C493.36,-335.49 36.12,-298.11 36.12,-235 36.12,-235 36.12,-235 36.12,-177 36.12,-124.57 95.84,-94.85 141.14,-79.84"/>
<polygon fill="#63b8ff" stroke="#63b8ff" points="142.08,-83.22 150.57,-76.88 139.98,-76.54 142.08,-83.22"/>
</a>
</g>
</g>
<!-- Node8 -->
<g id="Node000008" class="node">
<title>Node8</title>
<g id="a_Node000008"><a xlink:href="../../d8/d5f/SDL__begin__code_8h.html" target="_top" xlink:title=" ">
<polygon fill="white" stroke="#666666" points="924.25,-20 798,-20 798,0 924.25,0 924.25,-20"/>
<text xml:space="preserve" text-anchor="middle" x="861.12" y="-6.5" font-family="Helvetica,sans-Serif" font-size="10.00">SDL3/SDL_begin_code.h</text>
</a>
</g>
</g>
<!-- Node1&#45;&gt;Node8 -->
<g id="edge50_Node000001_Node000008" class="edge">
<title>Node1&#45;&gt;Node8</title>
<g id="a_edge50_Node000001_Node000008"><a xlink:title=" ">
<path fill="none" stroke="#63b8ff" d="M782.83,-347.63C865.93,-342.03 1009.73,-328.46 1053.12,-300 1081.69,-281.27 1094.12,-269.16 1094.12,-235 1094.12,-235 1094.12,-235 1094.12,-121 1094.12,-49.71 1003.82,-24.55 935.65,-15.71"/>
<polygon fill="#63b8ff" stroke="#63b8ff" points="936.33,-12.27 925.99,-14.56 935.5,-19.22 936.33,-12.27"/>
</a>
</g>
</g>
<!-- Node9 -->
<g id="Node000009" class="node">
<title>Node9</title>
<g id="a_Node000009"><a xlink:href="../../d9/d73/SDL__close__code_8h.html" target="_top" xlink:title=" ">
<polygon fill="white" stroke="#666666" points="583.25,-20 457,-20 457,0 583.25,0 583.25,-20"/>
<text xml:space="preserve" text-anchor="middle" x="520.12" y="-6.5" font-family="Helvetica,sans-Serif" font-size="10.00">SDL3/SDL_close_code.h</text>
</a>
</g>
</g>
<!-- Node1&#45;&gt;Node9 -->
<g id="edge51_Node000001_Node000009" class="edge">
<title>Node1&#45;&gt;Node9</title>
<g id="a_edge51_Node000001_Node000009"><a xlink:title=" ">
<path fill="none" stroke="#63b8ff" d="M744.69,-335.61C788.41,-303.86 876.9,-228.99 836.12,-168 812.87,-133.21 786.2,-151.41 749.12,-132 693.86,-103.07 686.49,-84.73 631.12,-56 607.44,-43.71 579.61,-32.43 557.74,-24.24"/>
<polygon fill="#63b8ff" stroke="#63b8ff" points="559.23,-21.06 548.64,-20.89 556.81,-27.63 559.23,-21.06"/>
</a>
</g>
</g>
<!-- Node10 -->
<g id="Node000010" class="node">
<title>Node10</title>
<g id="a_Node000010"><a xlink:href="../../da/d16/SDL__error_8h.html" target="_top" xlink:title=" ">
<polygon fill="white" stroke="#666666" points="626.25,-132 530,-132 530,-112 626.25,-112 626.25,-132"/>
<text xml:space="preserve" text-anchor="middle" x="578.12" y="-118.5" font-family="Helvetica,sans-Serif" font-size="10.00">SDL3/SDL_error.h</text>
</a>
</g>
</g>
<!-- Node1&#45;&gt;Node10 -->
<g id="edge9_Node000001_Node000010" class="edge">
<title>Node1&#45;&gt;Node10</title>
<g id="a_edge9_Node000001_Node000010"><a xlink:title=" ">
<path fill="none" stroke="#63b8ff" d="M712.45,-335.69C686.94,-295.29 617.85,-185.9 590,-141.8"/>
<polygon fill="#63b8ff" stroke="#63b8ff" points="593.11,-140.17 584.81,-133.58 587.19,-143.91 593.11,-140.17"/>
</a>
</g>
</g>
<!-- Node11 -->
<g id="Node000011" class="node">
<title>Node11</title>
<g id="a_Node000011"><a xlink:href="../../dc/d28/SDL__guid_8h.html" target="_top" xlink:title=" ">
<polygon fill="white" stroke="#666666" points="852.5,-132 757.75,-132 757.75,-112 852.5,-112 852.5,-132"/>
<text xml:space="preserve" text-anchor="middle" x="805.12" y="-118.5" font-family="Helvetica,sans-Serif" font-size="10.00">SDL3/SDL_guid.h</text>
</a>
</g>
</g>
<!-- Node1&#45;&gt;Node11 -->
<g id="edge13_Node000001_Node000011" class="edge">
<title>Node1&#45;&gt;Node11</title>
<g id="a_edge13_Node000001_Node000011"><a xlink:title=" ">
<path fill="none" stroke="#63b8ff" d="M782.86,-349.96C863.88,-347.15 1000.8,-336.9 1032.12,-300 1070.09,-255.28 1069.36,-213.34 1032.12,-168 1011.26,-142.59 924.26,-131.27 864.23,-126.42"/>
<polygon fill="#63b8ff" stroke="#63b8ff" points="864.74,-122.95 854.5,-125.68 864.2,-129.93 864.74,-122.95"/>
</a>
</g>
</g>
<!-- Node12 -->
<g id="Node000012" class="node">
<title>Node12</title>
<g id="a_Node000012"><a xlink:href="../../df/dd9/SDL__mutex_8h.html" target="_top" xlink:title=" ">
<polygon fill="white" stroke="#666666" points="487,-300 383.25,-300 383.25,-280 487,-280 487,-300"/>
<text xml:space="preserve" text-anchor="middle" x="435.12" y="-286.5" font-family="Helvetica,sans-Serif" font-size="10.00">SDL3/SDL_mutex.h</text>
</a>
</g>
</g>
<!-- Node1&#45;&gt;Node12 -->
<g id="edge17_Node000001_Node000012" class="edge">
<title>Node1&#45;&gt;Node12</title>
<g id="a_edge17_Node000001_Node000012"><a xlink:title=" ">
<path fill="none" stroke="#63b8ff" d="M661.26,-338.28C611.04,-327.78 540.33,-312.99 491.41,-302.77"/>
<polygon fill="#63b8ff" stroke="#63b8ff" points="492.38,-299.39 481.87,-300.77 490.95,-306.25 492.38,-299.39"/>
</a>
</g>
</g>
<!-- Node15 -->
<g id="Node000015" class="node">
<title>Node15</title>
<g id="a_Node000015"><a xlink:href="../../d6/d40/SDL__properties_8h.html" target="_top" xlink:title=" ">
<polygon fill="white" stroke="#666666" points="536.88,-188 417.38,-188 417.38,-168 536.88,-168 536.88,-188"/>
<text xml:space="preserve" text-anchor="middle" x="477.12" y="-174.5" font-family="Helvetica,sans-Serif" font-size="10.00">SDL3/SDL_properties.h</text>
</a>
</g>
</g>
<!-- Node1&#45;&gt;Node15 -->
<g id="edge43_Node000001_Node000015" class="edge">
<title>Node1&#45;&gt;Node15</title>
<g id="a_edge43_Node000001_Node000015"><a xlink:title=" ">
<path fill="none" stroke="#63b8ff" d="M690.04,-335.66C671.21,-326.2 647.25,-313.35 627.12,-300 576.78,-266.6 522.82,-220.11 495.4,-195.62"/>
<polygon fill="#63b8ff" stroke="#63b8ff" points="498.06,-193.31 488.29,-189.22 493.38,-198.51 498.06,-193.31"/>
</a>
</g>
</g>
<!-- Node16 -->
<g id="Node000016" class="node">
<title>Node16</title>
<g id="a_Node000016"><a xlink:href="../../de/d91/SDL__power_8h.html" target="_top" xlink:title=" ">
<polygon fill="white" stroke="#666666" points="810.62,-188 707.62,-188 707.62,-168 810.62,-168 810.62,-188"/>
<text xml:space="preserve" text-anchor="middle" x="759.12" y="-174.5" font-family="Helvetica,sans-Serif" font-size="10.00">SDL3/SDL_power.h</text>
</a>
</g>
</g>
<!-- Node1&#45;&gt;Node16 -->
<g id="edge38_Node000001_Node000016" class="edge">
<title>Node1&#45;&gt;Node16</title>
<g id="a_edge38_Node000001_Node000016"><a xlink:title=" ">
<path fill="none" stroke="#63b8ff" d="M734.67,-335.52C749.85,-315.7 774.54,-279.66 784.12,-244 788.39,-228.13 781.08,-210.78 773.28,-198.01"/>
<polygon fill="#63b8ff" stroke="#63b8ff" points="776.2,-196.07 767.7,-189.74 770.39,-199.98 776.2,-196.07"/>
</a>
</g>
</g>
<!-- Node17 -->
<g id="Node000017" class="node">
<title>Node17</title>
<g id="a_Node000017"><a xlink:href="../../d9/d6e/SDL__sensor_8h.html" target="_top" xlink:title=" ">
<polygon fill="white" stroke="#666666" points="775.12,-244 669.12,-244 669.12,-224 775.12,-224 775.12,-244"/>
<text xml:space="preserve" text-anchor="middle" x="722.12" y="-230.5" font-family="Helvetica,sans-Serif" font-size="10.00">SDL3/SDL_sensor.h</text>
</a>
</g>
</g>
<!-- Node1&#45;&gt;Node17 -->
<g id="edge44_Node000001_Node000017" class="edge">
<title>Node1&#45;&gt;Node17</title>
<g id="a_edge44_Node000001_Node000017"><a xlink:title=" ">
<path fill="none" stroke="#63b8ff" d="M722.12,-335.84C722.12,-315.41 722.12,-278.97 722.12,-255.95"/>
<polygon fill="#63b8ff" stroke="#63b8ff" points="725.63,-255.95 722.13,-245.95 718.63,-255.95 725.63,-255.95"/>
</a>
</g>
</g>
<!-- Node3 -->
<g id="Node000003" class="node">
<title>Node3</title>
<g id="a_Node000003"><a xlink:href="../../d3/d8b/SDL__platform__defines_8h.html" target="_top" xlink:title=" ">
<polygon fill="white" stroke="#666666" points="418.5,-20 269.75,-20 269.75,0 418.5,0 418.5,-20"/>
<text xml:space="preserve" text-anchor="middle" x="344.12" y="-6.5" font-family="Helvetica,sans-Serif" font-size="10.00">SDL3/SDL_platform_defines.h</text>
</a>
</g>
</g>
<!-- Node2&#45;&gt;Node3 -->
<g id="edge2_Node000002_Node000003" class="edge">
<title>Node2&#45;&gt;Node3</title>
<g id="a_edge2_Node000002_Node000003"><a xlink:title=" ">
<path fill="none" stroke="#63b8ff" d="M217.78,-55.59C242.31,-46.94 278.95,-34 306.47,-24.29"/>
<polygon fill="#63b8ff" stroke="#63b8ff" points="307.57,-27.61 315.84,-20.98 305.24,-21.01 307.57,-27.61"/>
</a>
</g>
</g>
<!-- Node4 -->
<g id="Node000004" class="node">
<title>Node4</title>
<g id="a_Node000004"><a xlink:title=" ">
<polygon fill="#e0e0e0" stroke="#999999" points="251.75,-20 200.5,-20 200.5,0 251.75,0 251.75,-20"/>
<text xml:space="preserve" text-anchor="middle" x="226.12" y="-6.5" font-family="Helvetica,sans-Serif" font-size="10.00">stdarg.h</text>
</a>
</g>
</g>
<!-- Node2&#45;&gt;Node4 -->
<g id="edge3_Node000002_Node000004" class="edge">
<title>Node2&#45;&gt;Node4</title>
<g id="a_edge3_Node000002_Node000004"><a xlink:title=" ">
<path fill="none" stroke="#63b8ff" d="M197.22,-55.59C201.84,-48.47 208.33,-38.45 213.99,-29.72"/>
<polygon fill="#63b8ff" stroke="#63b8ff" points="216.77,-31.86 219.28,-21.57 210.9,-28.06 216.77,-31.86"/>
</a>
</g>
</g>
<!-- Node5 -->
<g id="Node000005" class="node">
<title>Node5</title>
<g id="a_Node000005"><a xlink:title=" ">
<polygon fill="#e0e0e0" stroke="#999999" points="48.25,-20 0,-20 0,0 48.25,0 48.25,-20"/>
<text xml:space="preserve" text-anchor="middle" x="24.12" y="-6.5" font-family="Helvetica,sans-Serif" font-size="10.00">stdint.h</text>
</a>
</g>
</g>
<!-- Node2&#45;&gt;Node5 -->
<g id="edge4_Node000002_Node000005" class="edge">
<title>Node2&#45;&gt;Node5</title>
<g id="a_edge4_Node000002_Node000005"><a xlink:title=" ">
<path fill="none" stroke="#63b8ff" d="M162.04,-55.59C133.4,-46.34 89.66,-32.19 59.14,-22.32"/>
<polygon fill="#63b8ff" stroke="#63b8ff" points="60.57,-19.11 49.98,-19.36 58.42,-25.77 60.57,-19.11"/>
</a>
</g>
</g>
<!-- Node6 -->
<g id="Node000006" class="node">
<title>Node6</title>
<g id="a_Node000006"><a xlink:title=" ">
<polygon fill="#e0e0e0" stroke="#999999" points="114.25,-20 66,-20 66,0 114.25,0 114.25,-20"/>
<text xml:space="preserve" text-anchor="middle" x="90.12" y="-6.5" font-family="Helvetica,sans-Serif" font-size="10.00">string.h</text>
</a>
</g>
</g>
<!-- Node2&#45;&gt;Node6 -->
<g id="edge5_Node000002_Node000006" class="edge">
<title>Node2&#45;&gt;Node6</title>
<g id="a_edge5_Node000002_Node000006"><a xlink:title=" ">
<path fill="none" stroke="#63b8ff" d="M173.53,-55.59C158.2,-47.4 135.71,-35.37 117.94,-25.87"/>
<polygon fill="#63b8ff" stroke="#63b8ff" points="119.66,-22.82 109.19,-21.19 116.36,-28.99 119.66,-22.82"/>
</a>
</g>
</g>
<!-- Node7 -->
<g id="Node000007" class="node">
<title>Node7</title>
<g id="a_Node000007"><a xlink:title=" ">
<polygon fill="#e0e0e0" stroke="#999999" points="182.38,-20 131.88,-20 131.88,0 182.38,0 182.38,-20"/>
<text xml:space="preserve" text-anchor="middle" x="157.12" y="-6.5" font-family="Helvetica,sans-Serif" font-size="10.00">wchar.h</text>
</a>
</g>
</g>
<!-- Node2&#45;&gt;Node7 -->
<g id="edge6_Node000002_Node000007" class="edge">
<title>Node2&#45;&gt;Node7</title>
<g id="a_edge6_Node000002_Node000007"><a xlink:title=" ">
<path fill="none" stroke="#63b8ff" d="M185.2,-55.59C180.77,-48.55 174.55,-38.67 169.09,-30"/>
<polygon fill="#63b8ff" stroke="#63b8ff" points="172.08,-28.18 163.79,-21.58 166.15,-31.91 172.08,-28.18"/>
</a>
</g>
</g>
<!-- Node2&#45;&gt;Node8 -->
<g id="edge7_Node000002_Node000008" class="edge">
<title>Node2&#45;&gt;Node8</title>
<g id="a_edge7_Node000002_Node000008"><a xlink:title=" ">
<path fill="none" stroke="#63b8ff" d="M242.86,-60.83C360.64,-51.34 649.14,-28.09 786.31,-17.03"/>
<polygon fill="#63b8ff" stroke="#63b8ff" points="786.32,-20.54 796.01,-16.25 785.76,-13.56 786.32,-20.54"/>
</a>
</g>
</g>
<!-- Node2&#45;&gt;Node9 -->
<g id="edge8_Node000002_Node000009" class="edge">
<title>Node2&#45;&gt;Node9</title>
<g id="a_edge8_Node000002_Node000009"><a xlink:title=" ">
<path fill="none" stroke="#63b8ff" d="M242.89,-56.5C299.03,-47.29 388.9,-32.54 451.03,-22.34"/>
<polygon fill="#63b8ff" stroke="#63b8ff" points="451.5,-25.81 460.8,-20.74 450.36,-18.9 451.5,-25.81"/>
</a>
</g>
</g>
<!-- Node10&#45;&gt;Node2 -->
<g id="edge10_Node000010_Node000002" class="edge">
<title>Node10&#45;&gt;Node2</title>
<g id="a_edge10_Node000010_Node000002"><a xlink:title=" ">
<path fill="none" stroke="#63b8ff" d="M529.5,-114.22C459.65,-104.47 330.87,-86.5 253.9,-75.76"/>
<polygon fill="#63b8ff" stroke="#63b8ff" points="254.82,-72.35 244.44,-74.44 253.86,-79.29 254.82,-72.35"/>
</a>
</g>
</g>
<!-- Node10&#45;&gt;Node8 -->
<g id="edge11_Node000010_Node000008" class="edge">
<title>Node10&#45;&gt;Node8</title>
<g id="a_edge11_Node000010_Node000008"><a xlink:title=" ">
<path fill="none" stroke="#63b8ff" d="M602.25,-111.62C652.48,-92.1 768.43,-47.03 826.57,-24.43"/>
<polygon fill="#63b8ff" stroke="#63b8ff" points="827.59,-27.79 835.65,-20.9 825.06,-21.26 827.59,-27.79"/>
</a>
</g>
</g>
<!-- Node10&#45;&gt;Node9 -->
<g id="edge12_Node000010_Node000009" class="edge">
<title>Node10&#45;&gt;Node9</title>
<g id="a_edge12_Node000010_Node000009"><a xlink:title=" ">
<path fill="none" stroke="#63b8ff" d="M573.18,-111.62C563.72,-93.68 542.89,-54.17 530.33,-30.35"/>
<polygon fill="#63b8ff" stroke="#63b8ff" points="533.52,-28.91 525.76,-21.69 527.33,-32.17 533.52,-28.91"/>
</a>
</g>
</g>
<!-- Node11&#45;&gt;Node2 -->
<g id="edge14_Node000011_Node000002" class="edge">
<title>Node11&#45;&gt;Node2</title>
<g id="a_edge14_Node000011_Node000002"><a xlink:title=" ">
<path fill="none" stroke="#63b8ff" d="M757.46,-116.81C647.75,-107.16 377.4,-83.38 254.17,-72.54"/>
<polygon fill="#63b8ff" stroke="#63b8ff" points="254.84,-69.09 244.58,-71.7 254.23,-76.06 254.84,-69.09"/>
</a>
</g>
</g>
<!-- Node11&#45;&gt;Node8 -->
<g id="edge15_Node000011_Node000008" class="edge">
<title>Node11&#45;&gt;Node8</title>
<g id="a_edge15_Node000011_Node000008"><a xlink:title=" ">
<path fill="none" stroke="#63b8ff" d="M809.9,-111.62C819.03,-93.68 839.15,-54.17 851.28,-30.35"/>
<polygon fill="#63b8ff" stroke="#63b8ff" points="854.26,-32.2 855.68,-21.7 848.02,-29.03 854.26,-32.2"/>
</a>
</g>
</g>
<!-- Node11&#45;&gt;Node9 -->
<g id="edge16_Node000011_Node000009" class="edge">
<title>Node11&#45;&gt;Node9</title>
<g id="a_edge16_Node000011_Node000009"><a xlink:title=" ">
<path fill="none" stroke="#63b8ff" d="M804.38,-111.82C802.71,-97.52 797.32,-70.12 780.12,-56 752.43,-33.26 661.48,-21.51 594.93,-15.81"/>
<polygon fill="#63b8ff" stroke="#63b8ff" points="595.41,-12.33 585.16,-15 594.83,-19.31 595.41,-12.33"/>
</a>
</g>
</g>
<!-- Node12&#45;&gt;Node2 -->
<g id="edge18_Node000012_Node000002" class="edge">
<title>Node12&#45;&gt;Node2</title>
<g id="a_edge18_Node000012_Node000002"><a xlink:title=" ">
<path fill="none" stroke="#63b8ff" d="M382.97,-285.48C317.69,-278.23 206.84,-256.01 144.12,-188 120.66,-162.56 111.17,-142.72 127.12,-112 133.83,-99.1 146.11,-89.12 158.14,-81.87"/>
<polygon fill="#63b8ff" stroke="#63b8ff" points="159.65,-85.04 166.73,-77.15 156.28,-78.9 159.65,-85.04"/>
</a>
</g>
</g>
<!-- Node12&#45;&gt;Node8 -->
<g id="edge36_Node000012_Node000008" class="edge">
<title>Node12&#45;&gt;Node8</title>
<g id="a_edge36_Node000012_Node000008"><a xlink:title=" ">
<path fill="none" stroke="#63b8ff" d="M487.2,-285.38C602.54,-276.31 874.49,-248.88 940.12,-188 983.29,-147.97 987.96,-101.92 951.12,-56 939.65,-41.69 922.44,-31.55 906.14,-24.57"/>
<polygon fill="#63b8ff" stroke="#63b8ff" points="907.63,-21.39 897.04,-20.97 905.06,-27.9 907.63,-21.39"/>
</a>
</g>
</g>
<!-- Node12&#45;&gt;Node9 -->
<g id="edge37_Node000012_Node000009" class="edge">
<title>Node12&#45;&gt;Node9</title>
<g id="a_edge37_Node000012_Node000009"><a xlink:title=" ">
<path fill="none" stroke="#63b8ff" d="M413.71,-279.63C399.65,-272.19 382.37,-260.33 374.12,-244 370.12,-236.07 372.44,-232.73 374.12,-224 389.86,-142.62 397.52,-115.61 455.12,-56 466.26,-44.47 480.77,-34.1 493.25,-26.22"/>
<polygon fill="#63b8ff" stroke="#63b8ff" points="494.69,-29.44 501.42,-21.26 491.06,-23.46 494.69,-29.44"/>
</a>
</g>
</g>
<!-- Node12&#45;&gt;Node10 -->
<g id="edge24_Node000012_Node000010" class="edge">
<title>Node12&#45;&gt;Node10</title>
<g id="a_edge24_Node000012_Node000010"><a xlink:title=" ">
<path fill="none" stroke="#63b8ff" d="M455.62,-279.64C485.53,-264.81 540.48,-232.92 567.12,-188 575.09,-174.57 577.69,-157 578.38,-143.51"/>
<polygon fill="#63b8ff" stroke="#63b8ff" points="581.88,-143.67 578.55,-133.61 574.88,-143.55 581.88,-143.67"/>
</a>
</g>
</g>
<!-- Node13 -->
<g id="Node000013" class="node">
<title>Node13</title>
<g id="a_Node000013"><a xlink:href="../../d2/dd2/SDL__atomic_8h.html" target="_top" xlink:title=" ">
<polygon fill="white" stroke="#666666" points="360.12,-132 254.12,-132 254.12,-112 360.12,-112 360.12,-132"/>
<text xml:space="preserve" text-anchor="middle" x="307.12" y="-118.5" font-family="Helvetica,sans-Serif" font-size="10.00">SDL3/SDL_atomic.h</text>
</a>
</g>
</g>
<!-- Node12&#45;&gt;Node13 -->
<g id="edge19_Node000012_Node000013" class="edge">
<title>Node12&#45;&gt;Node13</title>
<g id="a_edge19_Node000012_Node000013"><a xlink:title=" ">
<path fill="none" stroke="#63b8ff" d="M382.82,-286.13C353.1,-281.49 318.13,-270.31 299.12,-244 277.63,-214.24 289.13,-168.88 298.65,-142.98"/>
<polygon fill="#63b8ff" stroke="#63b8ff" points="301.9,-144.27 302.33,-133.69 295.39,-141.7 301.9,-144.27"/>
</a>
</g>
</g>
<!-- Node14 -->
<g id="Node000014" class="node">
<title>Node14</title>
<g id="a_Node000014"><a xlink:href="../../dd/d1d/SDL__thread_8h.html" target="_top" xlink:title=" ">
<polygon fill="white" stroke="#666666" points="487,-244 383.25,-244 383.25,-224 487,-224 487,-244"/>
<text xml:space="preserve" text-anchor="middle" x="435.12" y="-230.5" font-family="Helvetica,sans-Serif" font-size="10.00">SDL3/SDL_thread.h</text>
</a>
</g>
</g>
<!-- Node12&#45;&gt;Node14 -->
<g id="edge25_Node000012_Node000014" class="edge">
<title>Node12&#45;&gt;Node14</title>
<g id="a_edge25_Node000012_Node000014"><a xlink:title=" ">
<path fill="none" stroke="#63b8ff" d="M435.12,-279.59C435.12,-273.01 435.12,-263.96 435.12,-255.73"/>
<polygon fill="#63b8ff" stroke="#63b8ff" points="438.63,-255.81 435.13,-245.81 431.63,-255.81 438.63,-255.81"/>
</a>
</g>
</g>
<!-- Node13&#45;&gt;Node2 -->
<g id="edge20_Node000013_Node000002" class="edge">
<title>Node13&#45;&gt;Node2</title>
<g id="a_edge20_Node000013_Node000002"><a xlink:title=" ">
<path fill="none" stroke="#63b8ff" d="M286.92,-111.59C268.9,-103.21 242.26,-90.8 221.64,-81.21"/>
<polygon fill="#63b8ff" stroke="#63b8ff" points="223.4,-78.17 212.86,-77.12 220.45,-84.51 223.4,-78.17"/>
</a>
</g>
</g>
<!-- Node13&#45;&gt;Node3 -->
<g id="edge21_Node000013_Node000003" class="edge">
<title>Node13&#45;&gt;Node3</title>
<g id="a_edge21_Node000013_Node000003"><a xlink:title=" ">
<path fill="none" stroke="#63b8ff" d="M302.94,-111.78C297.68,-98.82 290.26,-74.69 298.12,-56 302.82,-44.84 311.78,-35.07 320.56,-27.5"/>
<polygon fill="#63b8ff" stroke="#63b8ff" points="322.6,-30.35 328.26,-21.4 318.25,-24.87 322.6,-30.35"/>
</a>
</g>
</g>
<!-- Node13&#45;&gt;Node8 -->
<g id="edge22_Node000013_Node000008" class="edge">
<title>Node13&#45;&gt;Node8</title>
<g id="a_edge22_Node000013_Node000008"><a xlink:title=" ">
<path fill="none" stroke="#63b8ff" d="M328.38,-111.59C361.72,-97.24 428.67,-70.07 488.12,-56 589.85,-31.92 710.41,-20.35 786.34,-15.07"/>
<polygon fill="#63b8ff" stroke="#63b8ff" points="786.42,-18.57 796.16,-14.41 785.95,-11.59 786.42,-18.57"/>
</a>
</g>
</g>
<!-- Node13&#45;&gt;Node9 -->
<g id="edge23_Node000013_Node000009" class="edge">
<title>Node13&#45;&gt;Node9</title>
<g id="a_edge23_Node000013_Node000009"><a xlink:title=" ">
<path fill="none" stroke="#63b8ff" d="M308.57,-111.92C311.32,-97.77 318.67,-70.57 336.12,-56 352.96,-41.95 402.21,-30.32 445.52,-22.41"/>
<polygon fill="#63b8ff" stroke="#63b8ff" points="445.95,-25.89 455.18,-20.69 444.72,-19 445.95,-25.89"/>
</a>
</g>
</g>
<!-- Node14&#45;&gt;Node2 -->
<g id="edge26_Node000014_Node000002" class="edge">
<title>Node14&#45;&gt;Node2</title>
<g id="a_edge26_Node000014_Node000002"><a xlink:title=" ">
<path fill="none" stroke="#63b8ff" d="M382.86,-228.83C316.86,-222.75 207.84,-209.74 174.12,-188 142.39,-167.54 119.95,-146.13 136.12,-112 141.87,-99.88 152.65,-89.94 163.16,-82.51"/>
<polygon fill="#63b8ff" stroke="#63b8ff" points="164.82,-85.6 171.31,-77.23 161.02,-79.73 164.82,-85.6"/>
</a>
</g>
</g>
<!-- Node14&#45;&gt;Node8 -->
<g id="edge34_Node000014_Node000008" class="edge">
<title>Node14&#45;&gt;Node8</title>
<g id="a_edge34_Node000014_Node000008"><a xlink:title=" ">
<path fill="none" stroke="#63b8ff" d="M487.15,-230.97C578.2,-226.76 762.22,-215.11 820.12,-188 852.87,-172.67 862.54,-164.12 879.12,-132 894.71,-101.82 895.92,-88.81 887.12,-56 884.65,-46.77 879.78,-37.48 874.91,-29.76"/>
<polygon fill="#63b8ff" stroke="#63b8ff" points="877.88,-27.9 869.36,-21.6 872.09,-31.83 877.88,-27.9"/>
</a>
</g>
</g>
<!-- Node14&#45;&gt;Node9 -->
<g id="edge35_Node000014_Node000009" class="edge">
<title>Node14&#45;&gt;Node9</title>
<g id="a_edge35_Node000014_Node000009"><a xlink:title=" ">
<path fill="none" stroke="#63b8ff" d="M426.76,-223.55C416.8,-211.11 402.2,-188.42 408.12,-168 425.14,-109.39 474.7,-54.65 501.84,-27.98"/>
<polygon fill="#63b8ff" stroke="#63b8ff" points="503.92,-30.84 508.7,-21.39 499.07,-25.79 503.92,-30.84"/>
</a>
</g>
</g>
<!-- Node14&#45;&gt;Node10 -->
<g id="edge27_Node000014_Node000010" class="edge">
<title>Node14&#45;&gt;Node10</title>
<g id="a_edge27_Node000014_Node000010"><a xlink:title=" ">
<path fill="none" stroke="#63b8ff" d="M477.9,-223.53C500.4,-216.76 527.17,-205.63 546.12,-188 559.22,-175.82 567.64,-157.12 572.54,-142.9"/>
<polygon fill="#63b8ff" stroke="#63b8ff" points="575.77,-144.28 575.4,-133.69 569.09,-142.2 575.77,-144.28"/>
</a>
</g>
</g>
<!-- Node14&#45;&gt;Node13 -->
<g id="edge33_Node000014_Node000013" class="edge">
<title>Node14&#45;&gt;Node13</title>
<g id="a_edge33_Node000014_Node000013"><a xlink:title=" ">
<path fill="none" stroke="#63b8ff" d="M421.9,-223.78C409.51,-214.97 390.62,-201.13 375.12,-188 356.94,-172.58 337.37,-153.6 323.92,-140.15"/>
<polygon fill="#63b8ff" stroke="#63b8ff" points="326.63,-137.91 317.11,-133.27 321.66,-142.83 326.63,-137.91"/>
</a>
</g>
</g>
<!-- Node14&#45;&gt;Node15 -->
<g id="edge28_Node000014_Node000015" class="edge">
<title>Node14&#45;&gt;Node15</title>
<g id="a_edge28_Node000014_Node000015"><a xlink:title=" ">
<path fill="none" stroke="#63b8ff" d="M442.44,-223.59C448.1,-216.32 456.11,-206.02 463.01,-197.15"/>
<polygon fill="#63b8ff" stroke="#63b8ff" points="465.59,-199.54 468.96,-189.49 460.06,-195.24 465.59,-199.54"/>
</a>
</g>
</g>
<!-- Node15&#45;&gt;Node2 -->
<g id="edge29_Node000015_Node000002" class="edge">
<title>Node15&#45;&gt;Node2</title>
<g id="a_edge29_Node000015_Node000002"><a xlink:title=" ">
<path fill="none" stroke="#63b8ff" d="M417.05,-173.92C348.51,-169.21 242.03,-157.88 212.12,-132 199.36,-120.96 194.3,-102.1 192.32,-87.54"/>
<polygon fill="#63b8ff" stroke="#63b8ff" points="195.81,-87.28 191.4,-77.65 188.84,-87.93 195.81,-87.28"/>
</a>
</g>
</g>
<!-- Node15&#45;&gt;Node8 -->
<g id="edge31_Node000015_Node000008" class="edge">
<title>Node15&#45;&gt;Node8</title>
<g id="a_edge31_Node000015_Node000008"><a xlink:title=" ">
<path fill="none" stroke="#63b8ff" d="M481.07,-167.6C487.45,-153.51 501.35,-126.97 521.12,-112 599.7,-52.53 712.91,-27.94 786.74,-17.87"/>
<polygon fill="#63b8ff" stroke="#63b8ff" points="786.82,-21.39 796.29,-16.62 785.92,-14.44 786.82,-21.39"/>
</a>
</g>
</g>
<!-- Node15&#45;&gt;Node9 -->
<g id="edge32_Node000015_Node000009" class="edge">
<title>Node15&#45;&gt;Node9</title>
<g id="a_edge32_Node000015_Node000009"><a xlink:title=" ">
<path fill="none" stroke="#63b8ff" d="M476.35,-167.53C474.99,-146.65 473.56,-95.37 488.12,-56 491.68,-46.39 497.84,-36.96 503.82,-29.24"/>
<polygon fill="#63b8ff" stroke="#63b8ff" points="506.43,-31.58 510.11,-21.65 501.04,-27.11 506.43,-31.58"/>
</a>
</g>
</g>
<!-- Node15&#45;&gt;Node10 -->
<g id="edge30_Node000015_Node000010" class="edge">
<title>Node15&#45;&gt;Node10</title>
<g id="a_edge30_Node000015_Node000010"><a xlink:title=" ">
<path fill="none" stroke="#63b8ff" d="M494.72,-167.59C510.05,-159.4 532.54,-147.37 550.31,-137.87"/>
<polygon fill="#63b8ff" stroke="#63b8ff" points="551.89,-140.99 559.06,-133.19 548.59,-134.82 551.89,-140.99"/>
</a>
</g>
</g>
<!-- Node16&#45;&gt;Node2 -->
<g id="edge39_Node000016_Node000002" class="edge">
<title>Node16&#45;&gt;Node2</title>
<g id="a_edge39_Node000016_Node000002"><a xlink:title=" ">
<path fill="none" stroke="#63b8ff" d="M707.33,-174.72C585,-169.03 285.4,-153.09 245.12,-132 225.67,-121.81 210.51,-101.32 201.27,-86.05"/>
<polygon fill="#63b8ff" stroke="#63b8ff" points="204.33,-84.37 196.35,-77.4 198.25,-87.82 204.33,-84.37"/>
</a>
</g>
</g>
<!-- Node16&#45;&gt;Node8 -->
<g id="edge41_Node000016_Node000008" class="edge">
<title>Node16&#45;&gt;Node8</title>
<g id="a_edge41_Node000016_Node000008"><a xlink:title=" ">
<path fill="none" stroke="#63b8ff" d="M808.4,-167.54C828.28,-161.04 849.29,-150.16 861.12,-132 880.94,-101.6 874.01,-57.14 867.41,-31.43"/>
<polygon fill="#63b8ff" stroke="#63b8ff" points="870.81,-30.59 864.73,-21.91 864.08,-32.49 870.81,-30.59"/>
</a>
</g>
</g>
<!-- Node16&#45;&gt;Node9 -->
<g id="edge42_Node000016_Node000009" class="edge">
<title>Node16&#45;&gt;Node9</title>
<g id="a_edge42_Node000016_Node000009"><a xlink:title=" ">
<path fill="none" stroke="#63b8ff" d="M740.34,-167.56C723.62,-158.93 698.71,-145.5 678.12,-132 626.21,-97.96 569.33,-52.09 540.03,-27.77"/>
<polygon fill="#63b8ff" stroke="#63b8ff" points="542.28,-25.09 532.36,-21.37 537.8,-30.46 542.28,-25.09"/>
</a>
</g>
</g>
<!-- Node16&#45;&gt;Node10 -->
<g id="edge40_Node000016_Node000010" class="edge">
<title>Node16&#45;&gt;Node10</title>
<g id="a_edge40_Node000016_Node000010"><a xlink:title=" ">
<path fill="none" stroke="#63b8ff" d="M727.6,-167.59C697.93,-158.74 653.29,-145.43 620.52,-135.65"/>
<polygon fill="#63b8ff" stroke="#63b8ff" points="621.93,-132.42 611.35,-132.91 619.93,-139.13 621.93,-132.42"/>
</a>
</g>
</g>
<!-- Node17&#45;&gt;Node2 -->
<g id="edge45_Node000017_Node000002" class="edge">
<title>Node17&#45;&gt;Node2</title>
<g id="a_edge45_Node000017_Node000002"><a xlink:title=" ">
<path fill="none" stroke="#63b8ff" d="M668.74,-231.08C546.99,-225.46 254.69,-204.53 195.12,-132 185.02,-119.7 184.82,-101.27 186.69,-87.18"/>
<polygon fill="#63b8ff" stroke="#63b8ff" points="190.07,-88.12 188.39,-77.66 183.18,-86.88 190.07,-88.12"/>
</a>
</g>
</g>
<!-- Node17&#45;&gt;Node8 -->
<g id="edge48_Node000017_Node000008" class="edge">
<title>Node17&#45;&gt;Node8</title>
<g id="a_edge48_Node000017_Node000008"><a xlink:title=" ">
<path fill="none" stroke="#63b8ff" d="M775.25,-227.08C826.16,-220.33 898.12,-207.62 918.12,-188 960.24,-146.69 960.56,-107.69 932.12,-56 924.67,-42.45 911.22,-32.4 898.01,-25.29"/>
<polygon fill="#63b8ff" stroke="#63b8ff" points="899.94,-22.34 889.43,-21.07 896.86,-28.62 899.94,-22.34"/>
</a>
</g>
</g>
<!-- Node17&#45;&gt;Node9 -->
<g id="edge49_Node000017_Node000009" class="edge">
<title>Node17&#45;&gt;Node9</title>
<g id="a_edge49_Node000017_Node000009"><a xlink:title=" ">
<path fill="none" stroke="#63b8ff" d="M761.45,-223.56C796.32,-213.23 839.01,-194.53 820.12,-168 791.75,-128.16 759.94,-153.74 716.12,-132 661.58,-104.93 654.2,-87.57 602.12,-56 584.47,-45.3 564.12,-34.12 548.11,-25.59"/>
<polygon fill="#63b8ff" stroke="#63b8ff" points="550.11,-22.68 539.63,-21.1 546.83,-28.87 550.11,-22.68"/>
</a>
</g>
</g>
<!-- Node17&#45;&gt;Node10 -->
<g id="edge46_Node000017_Node000010" class="edge">
<title>Node17&#45;&gt;Node10</title>
<g id="a_edge46_Node000017_Node000010"><a xlink:title=" ">
<path fill="none" stroke="#63b8ff" d="M714.06,-223.88C702.04,-210.61 678.36,-185.64 655.12,-168 640,-156.51 621.68,-145.7 606.71,-137.55"/>
<polygon fill="#63b8ff" stroke="#63b8ff" points="608.77,-134.68 598.3,-133.07 605.48,-140.86 608.77,-134.68"/>
</a>
</g>
</g>
<!-- Node17&#45;&gt;Node15 -->
<g id="edge47_Node000017_Node000015" class="edge">
<title>Node17&#45;&gt;Node15</title>
<g id="a_edge47_Node000017_Node000015"><a xlink:title=" ">
<path fill="none" stroke="#63b8ff" d="M679.17,-223.53C638.01,-214.46 575.75,-200.74 531.23,-190.93"/>
<polygon fill="#63b8ff" stroke="#63b8ff" points="532.03,-187.52 521.51,-188.78 530.52,-194.35 532.03,-187.52"/>
</a>
</g>
</g>
</g>
</svg>

<g id="navigator" transform="translate(0 0)" fill="#404254">
  <rect fill="#f2f5e9" fill-opacity="0.5" stroke="#606060" stroke-width=".5" x="0" y="0" width="60" height="60"/>
  <use id="zoomplus" xlink:href="#zoomPlus" x="17" y="9" onmousedown="handleZoom(evt,'in')"/>
  <use id="zoomminus" xlink:href="#zoomMin" x="42" y="9" onmousedown="handleZoom(evt,'out')"/>
  <use id="reset" xlink:href="#resetDef" x="30" y="36" onmousedown="handleReset()"/>
   <use id="arrowup" xlink:href="#arrowUp" x="0" y="0" onmousedown="handlePan(0,-1)"/>
  <use id="arrowright" xlink:href="#arrowRight" x="0" y="0" onmousedown="handlePan(1,0)"/>
  <use id="arrowdown" xlink:href="#arrowDown" x="0" y="0" onmousedown="handlePan(0,1)"/>
  <use id="arrowleft" xlink:href="#arrowLeft" x="0" y="0" onmousedown="handlePan(-1,0)"/>
</g>
<svg viewBox="0 0 15 15" width="100%" height="30px" preserveAspectRatio="xMaxYMin meet">
 <g id="arrow_out" transform="scale(0.3 0.3)">
  <a xlink:href="SDL__joystick_8h__incl_org.svg" target="_base">
   <rect id="button" ry="5" rx="5" y="6" x="6" height="38" width="38"
        fill="#f2f5e9" fill-opacity="0.5" stroke="#606060" stroke-width="1.0"/>
   <path id="arrow"
     d="M 11.500037,31.436501 C 11.940474,20.09759 22.043105,11.32322 32.158766,21.979434 L 37.068811,17.246167 C 37.068811,17.246167 37.088388,32 37.088388,32 L 22.160133,31.978069 C 22.160133,31.978069 26.997745,27.140456 26.997745,27.140456 C 18.528582,18.264221 13.291696,25.230495 11.500037,31.436501 z"
     style="fill:#404040;"/>
  </a>
 </g>
</svg>

<style type='text/css'>
<![CDATA[
[data-mouse-over-selected='false'] { opacity: 0.7; }
[data-mouse-over-selected='true']  { opacity: 1.0; }
]]>
</style>
<script type="application/ecmascript"><![CDATA[
document.addEventListener('DOMContentLoaded', (event) => {
  highlightEdges();
  highlightAdjacentNodes();
});
]]></script>
</svg>
