<?xml version="1.0" encoding="UTF-8" standalone="no"?>
<!DOCTYPE svg PUBLIC "-//W3C//DTD SVG 1.1//EN"
 "http://www.w3.org/Graphics/SVG/1.1/DTD/svg11.dtd">
<!-- Generated by graphviz version 13.1.0 (20250701.0955)
 -->
<!-- Title: _XSettingsList Pages: 1 -->
<svg width="138pt" height="176pt"
 viewBox="0.00 0.00 138.00 176.00" xmlns="http://www.w3.org/2000/svg" xmlns:xlink="http://www.w3.org/1999/xlink">
<g id="graph0" class="graph" transform="scale(1 1) rotate(0) translate(4 172)">
<title>_XSettingsList</title>
<!-- Node1 -->
<g id="Node000001" class="node">
<title>Node1</title>
<g id="a_Node000001"><a xlink:title=" ">
<polygon fill="#999999" stroke="#666666" points="87.25,-20 7.5,-20 7.5,0 87.25,0 87.25,-20"/>
<text xml:space="preserve" text-anchor="middle" x="47.38" y="-6.5" font-family="Helvetica,sans-Serif" font-size="10.00">_XSettingsList</text>
</a>
</g>
</g>
<!-- Node1&#45;&gt;Node1 -->
<g id="edge3_Node000001_Node000001" class="edge">
<title>Node1&#45;&gt;Node1</title>
<g id="a_edge3_Node000001_Node000001"><a xlink:title=" ">
<path fill="none" stroke="#9a32cd" stroke-dasharray="5,2" d="M99,-15.18C102.87,-14.02 105.25,-12.3 105.25,-10 105.25,-5.92 97.73,-3.64 87.67,-3.16"/>
<polygon fill="#9a32cd" stroke="#9a32cd" points="98.56,-11.71 89.17,-16.62 99.57,-18.63 98.56,-11.71"/>
</a>
</g>
<text xml:space="preserve" text-anchor="start" x="108.25" y="-6.5" font-family="Helvetica,sans-Serif" font-size="10.00" fill="grey">next</text>
</g>
<!-- Node2 -->
<g id="Node000002" class="node">
<title>Node2</title>
<g id="a_Node000002"><a xlink:href="../../d5/d8e/struct__XSettingsSetting.html" target="_top" xlink:title=" ">
<polygon fill="white" stroke="#666666" points="94.75,-94 0,-94 0,-74 94.75,-74 94.75,-94"/>
<text xml:space="preserve" text-anchor="middle" x="47.38" y="-80.5" font-family="Helvetica,sans-Serif" font-size="10.00">_XSettingsSetting</text>
</a>
</g>
</g>
<!-- Node2&#45;&gt;Node1 -->
<g id="edge1_Node000001_Node000002" class="edge">
<title>Node2&#45;&gt;Node1</title>
<g id="a_edge1_Node000001_Node000002"><a xlink:title=" ">
<path fill="none" stroke="#9a32cd" stroke-dasharray="5,2" d="M47.38,-62.18C47.38,-48.29 47.38,-30.71 47.38,-20.19"/>
<polygon fill="#9a32cd" stroke="#9a32cd" points="43.88,-62.07 47.38,-72.07 50.88,-62.07 43.88,-62.07"/>
</a>
</g>
<text xml:space="preserve" text-anchor="start" x="50.38" y="-43.5" font-family="Helvetica,sans-Serif" font-size="10.00" fill="grey">setting</text>
</g>
<!-- Node3 -->
<g id="Node000003" class="node">
<title>Node3</title>
<g id="a_Node000003"><a xlink:href="../../df/de9/struct__XSettingsColor.html" target="_top" xlink:title=" ">
<polygon fill="white" stroke="#666666" points="91,-168 3.75,-168 3.75,-148 91,-148 91,-168"/>
<text xml:space="preserve" text-anchor="middle" x="47.38" y="-154.5" font-family="Helvetica,sans-Serif" font-size="10.00">_XSettingsColor</text>
</a>
</g>
</g>
<!-- Node3&#45;&gt;Node2 -->
<g id="edge2_Node000002_Node000003" class="edge">
<title>Node3&#45;&gt;Node2</title>
<g id="a_edge2_Node000002_Node000003"><a xlink:title=" ">
<path fill="none" stroke="#9a32cd" stroke-dasharray="5,2" d="M47.38,-136.18C47.38,-122.29 47.38,-104.71 47.38,-94.19"/>
<polygon fill="#9a32cd" stroke="#9a32cd" points="43.88,-136.07 47.38,-146.07 50.88,-136.07 43.88,-136.07"/>
</a>
</g>
<text xml:space="preserve" text-anchor="start" x="50.38" y="-117.5" font-family="Helvetica,sans-Serif" font-size="10.00" fill="grey">v_color</text>
</g>
</g>
</svg>
