<?xml version="1.0" encoding="UTF-8" standalone="no"?>
<!DOCTYPE svg PUBLIC "-//W3C//DTD SVG 1.1//EN"
 "http://www.w3.org/Graphics/SVG/1.1/DTD/svg11.dtd">
<!-- Generated by graphviz version 13.1.0 (20250701.0955)
 -->
<!-- Title: SDL_EventLoggingChanged Pages: 1 -->
<svg width="751pt" height="40pt"
 viewBox="0.00 0.00 751.00 40.00" xmlns="http://www.w3.org/2000/svg" xmlns:xlink="http://www.w3.org/1999/xlink">
<g id="graph0" class="graph" transform="scale(1 1) rotate(0) translate(4 36)">
<title>SDL_EventLoggingChanged</title>
<!-- Node1 -->
<g id="Node000001" class="node">
<title>Node1</title>
<g id="a_Node000001"><a xlink:title=" ">
<polygon fill="#999999" stroke="#666666" points="139,-26 0,-26 0,-6 139,-6 139,-26"/>
<text xml:space="preserve" text-anchor="middle" x="69.5" y="-12.5" font-family="Helvetica,sans-Serif" font-size="10.00">SDL_EventLoggingChanged</text>
</a>
</g>
</g>
<!-- Node2 -->
<g id="Node000002" class="node">
<title>Node2</title>
<g id="a_Node000002"><a xlink:href="../../d2/d23/SDL__string_8c.html#aeb781495f4470bec33217910d5353ac8" target="_top" xlink:title=" ">
<polygon fill="white" stroke="#666666" points="231.5,-26 175,-26 175,-6 231.5,-6 231.5,-26"/>
<text xml:space="preserve" text-anchor="middle" x="203.25" y="-12.5" font-family="Helvetica,sans-Serif" font-size="10.00">SDL_atoi</text>
</a>
</g>
</g>
<!-- Node1&#45;&gt;Node2 -->
<g id="edge1_Node000001_Node000002" class="edge">
<title>Node1&#45;&gt;Node2</title>
<g id="a_edge1_Node000001_Node000002"><a xlink:title=" ">
<path fill="none" stroke="#63b8ff" d="M139.46,-16C147.63,-16 155.74,-16 163.28,-16"/>
<polygon fill="#63b8ff" stroke="#63b8ff" points="163.08,-19.5 173.08,-16 163.08,-12.5 163.08,-19.5"/>
</a>
</g>
</g>
<!-- Node3 -->
<g id="Node000003" class="node">
<title>Node3</title>
<g id="a_Node000003"><a xlink:href="../../d2/d23/SDL__string_8c.html#a8291f282f96ea4c1948eb5a87696b873" target="_top" xlink:title=" ">
<polygon fill="white" stroke="#666666" points="330,-26 267.5,-26 267.5,-6 330,-6 330,-26"/>
<text xml:space="preserve" text-anchor="middle" x="298.75" y="-12.5" font-family="Helvetica,sans-Serif" font-size="10.00">SDL_strtol</text>
</a>
</g>
</g>
<!-- Node2&#45;&gt;Node3 -->
<g id="edge2_Node000002_Node000003" class="edge">
<title>Node2&#45;&gt;Node3</title>
<g id="a_edge2_Node000002_Node000003"><a xlink:title=" ">
<path fill="none" stroke="#63b8ff" d="M231.8,-16C239.34,-16 247.69,-16 255.84,-16"/>
<polygon fill="#63b8ff" stroke="#63b8ff" points="255.61,-19.5 265.61,-16 255.61,-12.5 255.61,-19.5"/>
</a>
</g>
</g>
<!-- Node4 -->
<g id="Node000004" class="node">
<title>Node4</title>
<g id="a_Node000004"><a xlink:href="../../d2/d23/SDL__string_8c.html#a1bed6e3ed5cfd4a6a39e5735a22168d1" target="_top" xlink:title=" ">
<polygon fill="white" stroke="#666666" points="450.25,-26 366,-26 366,-6 450.25,-6 450.25,-26"/>
<text xml:space="preserve" text-anchor="middle" x="408.12" y="-12.5" font-family="Helvetica,sans-Serif" font-size="10.00">SDL_ScanLong</text>
</a>
</g>
</g>
<!-- Node3&#45;&gt;Node4 -->
<g id="edge3_Node000003_Node000004" class="edge">
<title>Node3&#45;&gt;Node4</title>
<g id="a_edge3_Node000003_Node000004"><a xlink:title=" ">
<path fill="none" stroke="#63b8ff" d="M330.23,-16C337.82,-16 346.17,-16 354.49,-16"/>
<polygon fill="#63b8ff" stroke="#63b8ff" points="354.23,-19.5 364.23,-16 354.23,-12.5 354.23,-19.5"/>
</a>
</g>
</g>
<!-- Node5 -->
<g id="Node000005" class="node">
<title>Node5</title>
<g id="a_Node000005"><a xlink:href="../../d2/d23/SDL__string_8c.html#a7973bb641d19e0ed46f90e07e09b07ed" target="_top" xlink:title=" ">
<polygon fill="white" stroke="#666666" points="632.75,-32 486.25,-32 486.25,0 632.75,0 632.75,-32"/>
<text xml:space="preserve" text-anchor="start" x="494.25" y="-18.5" font-family="Helvetica,sans-Serif" font-size="10.00">SDL_ScanUnsignedLongLong</text>
<text xml:space="preserve" text-anchor="middle" x="559.5" y="-6.5" font-family="Helvetica,sans-Serif" font-size="10.00">Internal</text>
</a>
</g>
</g>
<!-- Node4&#45;&gt;Node5 -->
<g id="edge4_Node000004_Node000005" class="edge">
<title>Node4&#45;&gt;Node5</title>
<g id="a_edge4_Node000004_Node000005"><a xlink:title=" ">
<path fill="none" stroke="#63b8ff" d="M450.73,-16C458.27,-16 466.37,-16 474.62,-16"/>
<polygon fill="#63b8ff" stroke="#63b8ff" points="474.42,-19.5 484.42,-16 474.42,-12.5 474.42,-19.5"/>
</a>
</g>
</g>
<!-- Node6 -->
<g id="Node000006" class="node">
<title>Node6</title>
<g id="a_Node000006"><a xlink:href="../../d3/d02/SDL__stdlib_8c.html#a0f97bab0613d4633dfc9a13c1d8bd9f7" target="_top" xlink:title=" ">
<polygon fill="white" stroke="#666666" points="743.25,-26 668.75,-26 668.75,-6 743.25,-6 743.25,-26"/>
<text xml:space="preserve" text-anchor="middle" x="706" y="-12.5" font-family="Helvetica,sans-Serif" font-size="10.00">SDL_isspace</text>
</a>
</g>
</g>
<!-- Node5&#45;&gt;Node6 -->
<g id="edge5_Node000005_Node000006" class="edge">
<title>Node5&#45;&gt;Node6</title>
<g id="a_edge5_Node000005_Node000006"><a xlink:title=" ">
<path fill="none" stroke="#63b8ff" d="M633.17,-16C641.29,-16 649.41,-16 657.1,-16"/>
<polygon fill="#63b8ff" stroke="#63b8ff" points="656.9,-19.5 666.9,-16 656.9,-12.5 656.9,-19.5"/>
</a>
</g>
</g>
</g>
</svg>
