<?xml version="1.0" encoding="UTF-8" standalone="no"?>
<!DOCTYPE svg PUBLIC "-//W3C//DTD SVG 1.1//EN"
 "http://www.w3.org/Graphics/SVG/1.1/DTD/svg11.dtd">
<!-- Generated by graphviz version 13.1.0 (20250701.0955)
 -->
<!-- Title: SDL_AutoUpdateJoysticksChanged Pages: 1 -->
<svg width="463pt" height="28pt"
 viewBox="0.00 0.00 463.00 28.00" xmlns="http://www.w3.org/2000/svg" xmlns:xlink="http://www.w3.org/1999/xlink">
<g id="graph0" class="graph" transform="scale(1 1) rotate(0) translate(4 24)">
<title>SDL_AutoUpdateJoysticksChanged</title>
<!-- Node1 -->
<g id="Node000001" class="node">
<title>Node1</title>
<g id="a_Node000001"><a xlink:title=" ">
<polygon fill="#999999" stroke="#666666" points="173.5,-20 0,-20 0,0 173.5,0 173.5,-20"/>
<text xml:space="preserve" text-anchor="middle" x="86.75" y="-6.5" font-family="Helvetica,sans-Serif" font-size="10.00">SDL_AutoUpdateJoysticksChanged</text>
</a>
</g>
</g>
<!-- Node2 -->
<g id="Node000002" class="node">
<title>Node2</title>
<g id="a_Node000002"><a xlink:href="../../d4/d4a/SDL__hints_8c.html#a533d4b7b35eb20f6babfb98639111f5c" target="_top" xlink:title=" ">
<polygon fill="white" stroke="#666666" points="326.75,-20 209.5,-20 209.5,0 326.75,0 326.75,-20"/>
<text xml:space="preserve" text-anchor="middle" x="268.12" y="-6.5" font-family="Helvetica,sans-Serif" font-size="10.00">SDL_GetStringBoolean</text>
</a>
</g>
</g>
<!-- Node1&#45;&gt;Node2 -->
<g id="edge1_Node000001_Node000002" class="edge">
<title>Node1&#45;&gt;Node2</title>
<g id="a_edge1_Node000001_Node000002"><a xlink:title=" ">
<path fill="none" stroke="#63b8ff" d="M173.76,-10C181.79,-10 189.87,-10 197.72,-10"/>
<polygon fill="#63b8ff" stroke="#63b8ff" points="197.53,-13.5 207.53,-10 197.53,-6.5 197.53,-13.5"/>
</a>
</g>
</g>
<!-- Node3 -->
<g id="Node000003" class="node">
<title>Node3</title>
<g id="a_Node000003"><a xlink:href="../../d2/d23/SDL__string_8c.html#a6e2c58a61b519d6e8efb20bd3635f09b" target="_top" xlink:title=" ">
<polygon fill="white" stroke="#666666" points="454.5,-20 362.75,-20 362.75,0 454.5,0 454.5,-20"/>
<text xml:space="preserve" text-anchor="middle" x="408.62" y="-6.5" font-family="Helvetica,sans-Serif" font-size="10.00">SDL_strcasecmp</text>
</a>
</g>
</g>
<!-- Node2&#45;&gt;Node3 -->
<g id="edge2_Node000002_Node000003" class="edge">
<title>Node2&#45;&gt;Node3</title>
<g id="a_edge2_Node000002_Node000003"><a xlink:title=" ">
<path fill="none" stroke="#63b8ff" d="M327.06,-10C335.03,-10 343.2,-10 351.14,-10"/>
<polygon fill="#63b8ff" stroke="#63b8ff" points="351.05,-13.5 361.05,-10 351.05,-6.5 351.05,-13.5"/>
</a>
</g>
</g>
</g>
</svg>
