<?xml version="1.0" encoding="UTF-8" standalone="no"?>
<!DOCTYPE svg PUBLIC "-//W3C//DTD SVG 1.1//EN"
 "http://www.w3.org/Graphics/SVG/1.1/DTD/svg11.dtd">
<!-- Generated by graphviz version 13.1.0 (20250701.0955)
 -->
<!-- Title: SDL_SetKeymapEntry Pages: 1 -->
<svg width="463pt" height="66pt"
 viewBox="0.00 0.00 463.00 66.00" xmlns="http://www.w3.org/2000/svg" xmlns:xlink="http://www.w3.org/1999/xlink">
<g id="graph0" class="graph" transform="scale(1 1) rotate(0) translate(4 62)">
<title>SDL_SetKeymapEntry</title>
<!-- Node1 -->
<g id="Node000001" class="node">
<title>Node1</title>
<g id="a_Node000001"><a xlink:title=" ">
<polygon fill="#999999" stroke="#666666" points="454.5,-39 339.5,-39 339.5,-19 454.5,-19 454.5,-39"/>
<text xml:space="preserve" text-anchor="middle" x="397" y="-25.5" font-family="Helvetica,sans-Serif" font-size="10.00">SDL_SetKeymapEntry</text>
</a>
</g>
</g>
<!-- Node2 -->
<g id="Node000002" class="node">
<title>Node2</title>
<g id="a_Node000002"><a xlink:href="../../d3/d13/SDL__keyboard_8c.html#a24c8c830a8393af305aab964699004c3" target="_top" xlink:title=" ">
<polygon fill="white" stroke="#666666" points="303.5,-39 213.25,-39 213.25,-19 303.5,-19 303.5,-39"/>
<text xml:space="preserve" text-anchor="middle" x="258.38" y="-25.5" font-family="Helvetica,sans-Serif" font-size="10.00">SetKeymapEntry</text>
</a>
</g>
</g>
<!-- Node1&#45;&gt;Node2 -->
<g id="edge1_Node000001_Node000002" class="edge">
<title>Node1&#45;&gt;Node2</title>
<g id="a_edge1_Node000001_Node000002"><a xlink:title=" ">
<path fill="none" stroke="#63b8ff" d="M327.73,-29C319.56,-29 311.38,-29 303.67,-29"/>
<polygon fill="#63b8ff" stroke="#63b8ff" points="327.73,-32.5 337.73,-29 327.73,-25.5 327.73,-32.5"/>
</a>
</g>
</g>
<!-- Node3 -->
<g id="Node000003" class="node">
<title>Node3</title>
<g id="a_Node000003"><a xlink:href="../../d3/d13/SDL__keyboard_8c.html#aac81c1c129ef5257542232496d5489e4" target="_top" xlink:title=" ">
<polygon fill="white" stroke="#666666" points="177.25,-58 0,-58 0,-38 177.25,-38 177.25,-58"/>
<text xml:space="preserve" text-anchor="middle" x="88.62" y="-44.5" font-family="Helvetica,sans-Serif" font-size="10.00">SDL_SendKeyboardKeyAndKeycode</text>
</a>
</g>
</g>
<!-- Node2&#45;&gt;Node3 -->
<g id="edge2_Node000002_Node000003" class="edge">
<title>Node2&#45;&gt;Node3</title>
<g id="a_edge2_Node000002_Node000003"><a xlink:title=" ">
<path fill="none" stroke="#63b8ff" d="M201.45,-35.33C193.73,-36.21 185.65,-37.12 177.52,-38.04"/>
<polygon fill="#63b8ff" stroke="#63b8ff" points="201.82,-38.82 211.36,-34.21 201.03,-31.86 201.82,-38.82"/>
</a>
</g>
</g>
<!-- Node4 -->
<g id="Node000004" class="node">
<title>Node4</title>
<g id="a_Node000004"><a xlink:href="../../d3/d13/SDL__keyboard_8c.html#aef3fbf727a962d06f9b2ef312e14615a" target="_top" xlink:title=" ">
<polygon fill="white" stroke="#666666" points="167.5,-20 9.75,-20 9.75,0 167.5,0 167.5,-20"/>
<text xml:space="preserve" text-anchor="middle" x="88.62" y="-6.5" font-family="Helvetica,sans-Serif" font-size="10.00">SDL_SendKeyboardUnicodeKey</text>
</a>
</g>
</g>
<!-- Node2&#45;&gt;Node4 -->
<g id="edge3_Node000002_Node000004" class="edge">
<title>Node2&#45;&gt;Node4</title>
<g id="a_edge3_Node000002_Node000004"><a xlink:title=" ">
<path fill="none" stroke="#63b8ff" d="M201.45,-22.67C190.64,-21.44 179.13,-20.14 167.76,-18.85"/>
<polygon fill="#63b8ff" stroke="#63b8ff" points="201.03,-26.14 211.36,-23.79 201.82,-19.18 201.03,-26.14"/>
</a>
</g>
</g>
</g>
</svg>
