<?xml version="1.0" encoding="UTF-8" standalone="no"?>
<!DOCTYPE svg PUBLIC "-//W3C//DTD SVG 1.1//EN"
 "http://www.w3.org/Graphics/SVG/1.1/DTD/svg11.dtd">
<!-- Generated by graphviz version 13.1.0 (20250701.0955)
 -->
<!-- Title: SDL_acosf Pages: 1 -->
<svg width="392pt" height="66pt"
 viewBox="0.00 0.00 392.00 66.00" xmlns="http://www.w3.org/2000/svg" xmlns:xlink="http://www.w3.org/1999/xlink">
<g id="graph0" class="graph" transform="scale(1 1) rotate(0) translate(4 62)">
<title>SDL_acosf</title>
<!-- Node1 -->
<g id="Node000001" class="node">
<title>Node1</title>
<g id="a_Node000001"><a xlink:title=" ">
<polygon fill="#999999" stroke="#666666" points="64.75,-39 0,-39 0,-19 64.75,-19 64.75,-39"/>
<text xml:space="preserve" text-anchor="middle" x="32.38" y="-25.5" font-family="Helvetica,sans-Serif" font-size="10.00">SDL_acosf</text>
</a>
</g>
</g>
<!-- Node2 -->
<g id="Node000002" class="node">
<title>Node2</title>
<g id="a_Node000002"><a xlink:href="../../d3/d02/SDL__stdlib_8c.html#a8c9c050ae2636209aaa2bd1bb3ed3a14" target="_top" xlink:title=" ">
<polygon fill="white" stroke="#666666" points="162.5,-39 100.75,-39 100.75,-19 162.5,-19 162.5,-39"/>
<text xml:space="preserve" text-anchor="middle" x="131.62" y="-25.5" font-family="Helvetica,sans-Serif" font-size="10.00">SDL_acos</text>
</a>
</g>
</g>
<!-- Node1&#45;&gt;Node2 -->
<g id="edge1_Node000001_Node000002" class="edge">
<title>Node1&#45;&gt;Node2</title>
<g id="a_edge1_Node000001_Node000002"><a xlink:title=" ">
<path fill="none" stroke="#63b8ff" d="M65.22,-29C72.81,-29 81.03,-29 88.99,-29"/>
<polygon fill="#63b8ff" stroke="#63b8ff" points="88.85,-32.5 98.85,-29 88.85,-25.5 88.85,-32.5"/>
</a>
</g>
</g>
<!-- Node3 -->
<g id="Node000003" class="node">
<title>Node3</title>
<g id="a_Node000003"><a xlink:href="../../d3/d02/SDL__stdlib_8c.html#a788072ac8949a31b064fe7ae7058cebf" target="_top" xlink:title=" ">
<polygon fill="white" stroke="#666666" points="258,-58 198.5,-58 198.5,-38 258,-38 258,-58"/>
<text xml:space="preserve" text-anchor="middle" x="228.25" y="-44.5" font-family="Helvetica,sans-Serif" font-size="10.00">SDL_atan</text>
</a>
</g>
</g>
<!-- Node2&#45;&gt;Node3 -->
<g id="edge2_Node000002_Node000003" class="edge">
<title>Node2&#45;&gt;Node3</title>
<g id="a_edge2_Node000002_Node000003"><a xlink:title=" ">
<path fill="none" stroke="#63b8ff" d="M162.83,-35.06C170.55,-36.61 178.97,-38.31 187.1,-39.94"/>
<polygon fill="#63b8ff" stroke="#63b8ff" points="186.33,-43.35 196.82,-41.89 187.7,-36.49 186.33,-43.35"/>
</a>
</g>
</g>
<!-- Node5 -->
<g id="Node000005" class="node">
<title>Node5</title>
<g id="a_Node000005"><a xlink:href="../../d3/d02/SDL__stdlib_8c.html#a02d47ef45f0d5825cb809b30897ab34f" target="_top" xlink:title=" ">
<polygon fill="white" stroke="#666666" points="256.88,-20 199.62,-20 199.62,0 256.88,0 256.88,-20"/>
<text xml:space="preserve" text-anchor="middle" x="228.25" y="-6.5" font-family="Helvetica,sans-Serif" font-size="10.00">SDL_sqrt</text>
</a>
</g>
</g>
<!-- Node2&#45;&gt;Node5 -->
<g id="edge4_Node000002_Node000005" class="edge">
<title>Node2&#45;&gt;Node5</title>
<g id="a_edge4_Node000002_Node000005"><a xlink:title=" ">
<path fill="none" stroke="#63b8ff" d="M162.83,-22.94C170.86,-21.32 179.65,-19.56 188.09,-17.86"/>
<polygon fill="#63b8ff" stroke="#63b8ff" points="188.66,-21.32 197.78,-15.92 187.29,-14.45 188.66,-21.32"/>
</a>
</g>
</g>
<!-- Node4 -->
<g id="Node000004" class="node">
<title>Node4</title>
<g id="a_Node000004"><a xlink:href="../../dc/de5/s__atan_8c.html#aaf5f9baeb585f408278fd1453bb07854" target="_top" xlink:title=" ">
<polygon fill="white" stroke="#666666" points="384.25,-58 294,-58 294,-38 384.25,-38 384.25,-58"/>
<text xml:space="preserve" text-anchor="middle" x="339.12" y="-44.5" font-family="Helvetica,sans-Serif" font-size="10.00">SDL_uclibc_atan</text>
</a>
</g>
</g>
<!-- Node3&#45;&gt;Node4 -->
<g id="edge3_Node000003_Node000004" class="edge">
<title>Node3&#45;&gt;Node4</title>
<g id="a_edge3_Node000003_Node000004"><a xlink:title=" ">
<path fill="none" stroke="#63b8ff" d="M258.43,-48C265.87,-48 274.13,-48 282.43,-48"/>
<polygon fill="#63b8ff" stroke="#63b8ff" points="282.19,-51.5 292.19,-48 282.19,-44.5 282.19,-51.5"/>
</a>
</g>
</g>
<!-- Node6 -->
<g id="Node000006" class="node">
<title>Node6</title>
<g id="a_Node000006"><a xlink:href="../../df/dbb/e__sqrt_8c.html#ac9b2af84b69e7f80a48f5eec3abf1ae2" target="_top" xlink:title=" ">
<polygon fill="white" stroke="#666666" points="383.12,-20 295.12,-20 295.12,0 383.12,0 383.12,-20"/>
<text xml:space="preserve" text-anchor="middle" x="339.12" y="-6.5" font-family="Helvetica,sans-Serif" font-size="10.00">SDL_uclibc_sqrt</text>
</a>
</g>
</g>
<!-- Node5&#45;&gt;Node6 -->
<g id="edge5_Node000005_Node000006" class="edge">
<title>Node5&#45;&gt;Node6</title>
<g id="a_edge5_Node000005_Node000006"><a xlink:title=" ">
<path fill="none" stroke="#63b8ff" d="M257.29,-10C265.35,-10 274.43,-10 283.52,-10"/>
<polygon fill="#63b8ff" stroke="#63b8ff" points="283.45,-13.5 293.45,-10 283.45,-6.5 283.45,-13.5"/>
</a>
</g>
</g>
</g>
</svg>
