<?xml version="1.0" encoding="UTF-8" standalone="no"?>
<!DOCTYPE svg PUBLIC "-//W3C//DTD SVG 1.1//EN"
 "http://www.w3.org/Graphics/SVG/1.1/DTD/svg11.dtd">
<!-- Generated by graphviz version 13.1.0 (20250701.0955)
 -->
<!-- Title: SDL_atoi Pages: 1 -->
<svg width="576pt" height="40pt"
 viewBox="0.00 0.00 576.00 40.00" xmlns="http://www.w3.org/2000/svg" xmlns:xlink="http://www.w3.org/1999/xlink">
<g id="graph0" class="graph" transform="scale(1 1) rotate(0) translate(4 36)">
<title>SDL_atoi</title>
<!-- Node1 -->
<g id="Node000001" class="node">
<title>Node1</title>
<g id="a_Node000001"><a xlink:title=" ">
<polygon fill="#999999" stroke="#666666" points="56.5,-26 0,-26 0,-6 56.5,-6 56.5,-26"/>
<text xml:space="preserve" text-anchor="middle" x="28.25" y="-12.5" font-family="Helvetica,sans-Serif" font-size="10.00">SDL_atoi</text>
</a>
</g>
</g>
<!-- Node2 -->
<g id="Node000002" class="node">
<title>Node2</title>
<g id="a_Node000002"><a xlink:href="../../d2/d23/SDL__string_8c.html#a8291f282f96ea4c1948eb5a87696b873" target="_top" xlink:title=" ">
<polygon fill="white" stroke="#666666" points="155,-26 92.5,-26 92.5,-6 155,-6 155,-26"/>
<text xml:space="preserve" text-anchor="middle" x="123.75" y="-12.5" font-family="Helvetica,sans-Serif" font-size="10.00">SDL_strtol</text>
</a>
</g>
</g>
<!-- Node1&#45;&gt;Node2 -->
<g id="edge1_Node000001_Node000002" class="edge">
<title>Node1&#45;&gt;Node2</title>
<g id="a_edge1_Node000001_Node000002"><a xlink:title=" ">
<path fill="none" stroke="#63b8ff" d="M56.8,-16C64.34,-16 72.69,-16 80.84,-16"/>
<polygon fill="#63b8ff" stroke="#63b8ff" points="80.61,-19.5 90.61,-16 80.61,-12.5 80.61,-19.5"/>
</a>
</g>
</g>
<!-- Node3 -->
<g id="Node000003" class="node">
<title>Node3</title>
<g id="a_Node000003"><a xlink:href="../../d2/d23/SDL__string_8c.html#a1bed6e3ed5cfd4a6a39e5735a22168d1" target="_top" xlink:title=" ">
<polygon fill="white" stroke="#666666" points="275.25,-26 191,-26 191,-6 275.25,-6 275.25,-26"/>
<text xml:space="preserve" text-anchor="middle" x="233.12" y="-12.5" font-family="Helvetica,sans-Serif" font-size="10.00">SDL_ScanLong</text>
</a>
</g>
</g>
<!-- Node2&#45;&gt;Node3 -->
<g id="edge2_Node000002_Node000003" class="edge">
<title>Node2&#45;&gt;Node3</title>
<g id="a_edge2_Node000002_Node000003"><a xlink:title=" ">
<path fill="none" stroke="#63b8ff" d="M155.23,-16C162.82,-16 171.17,-16 179.49,-16"/>
<polygon fill="#63b8ff" stroke="#63b8ff" points="179.23,-19.5 189.23,-16 179.23,-12.5 179.23,-19.5"/>
</a>
</g>
</g>
<!-- Node4 -->
<g id="Node000004" class="node">
<title>Node4</title>
<g id="a_Node000004"><a xlink:href="../../d2/d23/SDL__string_8c.html#a7973bb641d19e0ed46f90e07e09b07ed" target="_top" xlink:title=" ">
<polygon fill="white" stroke="#666666" points="457.75,-32 311.25,-32 311.25,0 457.75,0 457.75,-32"/>
<text xml:space="preserve" text-anchor="start" x="319.25" y="-18.5" font-family="Helvetica,sans-Serif" font-size="10.00">SDL_ScanUnsignedLongLong</text>
<text xml:space="preserve" text-anchor="middle" x="384.5" y="-6.5" font-family="Helvetica,sans-Serif" font-size="10.00">Internal</text>
</a>
</g>
</g>
<!-- Node3&#45;&gt;Node4 -->
<g id="edge3_Node000003_Node000004" class="edge">
<title>Node3&#45;&gt;Node4</title>
<g id="a_edge3_Node000003_Node000004"><a xlink:title=" ">
<path fill="none" stroke="#63b8ff" d="M275.73,-16C283.27,-16 291.37,-16 299.62,-16"/>
<polygon fill="#63b8ff" stroke="#63b8ff" points="299.42,-19.5 309.42,-16 299.42,-12.5 299.42,-19.5"/>
</a>
</g>
</g>
<!-- Node5 -->
<g id="Node000005" class="node">
<title>Node5</title>
<g id="a_Node000005"><a xlink:href="../../d3/d02/SDL__stdlib_8c.html#a0f97bab0613d4633dfc9a13c1d8bd9f7" target="_top" xlink:title=" ">
<polygon fill="white" stroke="#666666" points="568.25,-26 493.75,-26 493.75,-6 568.25,-6 568.25,-26"/>
<text xml:space="preserve" text-anchor="middle" x="531" y="-12.5" font-family="Helvetica,sans-Serif" font-size="10.00">SDL_isspace</text>
</a>
</g>
</g>
<!-- Node4&#45;&gt;Node5 -->
<g id="edge4_Node000004_Node000005" class="edge">
<title>Node4&#45;&gt;Node5</title>
<g id="a_edge4_Node000004_Node000005"><a xlink:title=" ">
<path fill="none" stroke="#63b8ff" d="M458.17,-16C466.29,-16 474.41,-16 482.1,-16"/>
<polygon fill="#63b8ff" stroke="#63b8ff" points="481.9,-19.5 491.9,-16 481.9,-12.5 481.9,-19.5"/>
</a>
</g>
</g>
</g>
</svg>
