<?xml version="1.0" encoding="UTF-8" standalone="no"?>
<!DOCTYPE svg PUBLIC "-//W3C//DTD SVG 1.1//EN"
 "http://www.w3.org/Graphics/SVG/1.1/DTD/svg11.dtd">
<!-- Generated by graphviz version 13.1.0 (20250701.0955)
 -->
<!-- Title: SDL_tanf Pages: 1 -->
<svg width="552pt" height="66pt"
 viewBox="0.00 0.00 552.00 66.00" xmlns="http://www.w3.org/2000/svg" xmlns:xlink="http://www.w3.org/1999/xlink">
<g id="graph0" class="graph" transform="scale(1 1) rotate(0) translate(4 62)">
<title>SDL_tanf</title>
<!-- Node1 -->
<g id="Node000001" class="node">
<title>Node1</title>
<g id="a_Node000001"><a xlink:title=" ">
<polygon fill="#999999" stroke="#666666" points="57.25,-39 0,-39 0,-19 57.25,-19 57.25,-39"/>
<text xml:space="preserve" text-anchor="middle" x="28.62" y="-25.5" font-family="Helvetica,sans-Serif" font-size="10.00">SDL_tanf</text>
</a>
</g>
</g>
<!-- Node2 -->
<g id="Node000002" class="node">
<title>Node2</title>
<g id="a_Node000002"><a xlink:href="../../d3/d02/SDL__stdlib_8c.html#a271974b345b5fdaca4b1b0b92a959738" target="_top" xlink:title=" ">
<polygon fill="white" stroke="#666666" points="147.5,-39 93.25,-39 93.25,-19 147.5,-19 147.5,-39"/>
<text xml:space="preserve" text-anchor="middle" x="120.38" y="-25.5" font-family="Helvetica,sans-Serif" font-size="10.00">SDL_tan</text>
</a>
</g>
</g>
<!-- Node1&#45;&gt;Node2 -->
<g id="edge1_Node000001_Node000002" class="edge">
<title>Node1&#45;&gt;Node2</title>
<g id="a_edge1_Node000001_Node000002"><a xlink:title=" ">
<path fill="none" stroke="#63b8ff" d="M57.53,-29C65.14,-29 73.51,-29 81.56,-29"/>
<polygon fill="#63b8ff" stroke="#63b8ff" points="81.51,-32.5 91.51,-29 81.51,-25.5 81.51,-32.5"/>
</a>
</g>
</g>
<!-- Node3 -->
<g id="Node000003" class="node">
<title>Node3</title>
<g id="a_Node000003"><a xlink:href="../../d1/d78/s__tan_8c.html#a64c668b3ebe987acff63466fe6e14190" target="_top" xlink:title=" ">
<polygon fill="white" stroke="#666666" points="268.5,-39 183.5,-39 183.5,-19 268.5,-19 268.5,-39"/>
<text xml:space="preserve" text-anchor="middle" x="226" y="-25.5" font-family="Helvetica,sans-Serif" font-size="10.00">SDL_uclibc_tan</text>
</a>
</g>
</g>
<!-- Node2&#45;&gt;Node3 -->
<g id="edge2_Node000002_Node000003" class="edge">
<title>Node2&#45;&gt;Node3</title>
<g id="a_edge2_Node000002_Node000003"><a xlink:title=" ">
<path fill="none" stroke="#63b8ff" d="M147.79,-29C155.21,-29 163.56,-29 171.94,-29"/>
<polygon fill="#63b8ff" stroke="#63b8ff" points="171.81,-32.5 181.81,-29 171.81,-25.5 171.81,-32.5"/>
</a>
</g>
</g>
<!-- Node4 -->
<g id="Node000004" class="node">
<title>Node4</title>
<g id="a_Node000004"><a xlink:href="../../d6/d16/e__rem__pio2_8c.html#abb840868a6f0a5a076ee3ac86992db6a" target="_top" xlink:title=" ">
<polygon fill="white" stroke="#666666" points="409.75,-58 304.5,-58 304.5,-38 409.75,-38 409.75,-58"/>
<text xml:space="preserve" text-anchor="middle" x="357.12" y="-44.5" font-family="Helvetica,sans-Serif" font-size="10.00">__ieee754_rem_pio2</text>
</a>
</g>
</g>
<!-- Node3&#45;&gt;Node4 -->
<g id="edge3_Node000003_Node000004" class="edge">
<title>Node3&#45;&gt;Node4</title>
<g id="a_edge3_Node000003_Node000004"><a xlink:title=" ">
<path fill="none" stroke="#63b8ff" d="M268.92,-35.17C276.53,-36.29 284.62,-37.48 292.68,-38.67"/>
<polygon fill="#63b8ff" stroke="#63b8ff" points="292.12,-42.12 302.52,-40.11 293.14,-35.19 292.12,-42.12"/>
</a>
</g>
</g>
<!-- Node6 -->
<g id="Node000006" class="node">
<title>Node6</title>
<g id="a_Node000006"><a xlink:href="../../d3/d0d/k__tan_8c.html#a5f1c9e105e0dbca8a88407dd899043c6" target="_top" xlink:title=" ">
<polygon fill="white" stroke="#666666" points="392.88,-20 321.38,-20 321.38,0 392.88,0 392.88,-20"/>
<text xml:space="preserve" text-anchor="middle" x="357.12" y="-6.5" font-family="Helvetica,sans-Serif" font-size="10.00">__kernel_tan</text>
</a>
</g>
</g>
<!-- Node3&#45;&gt;Node6 -->
<g id="edge5_Node000003_Node000006" class="edge">
<title>Node3&#45;&gt;Node6</title>
<g id="a_edge5_Node000003_Node000006"><a xlink:title=" ">
<path fill="none" stroke="#63b8ff" d="M268.92,-22.83C281.91,-20.92 296.29,-18.8 309.57,-16.85"/>
<polygon fill="#63b8ff" stroke="#63b8ff" points="310.02,-20.32 319.4,-15.4 309,-13.4 310.02,-20.32"/>
</a>
</g>
</g>
<!-- Node5 -->
<g id="Node000005" class="node">
<title>Node5</title>
<g id="a_Node000005"><a xlink:href="../../d8/d6e/k__rem__pio2_8c.html#a96906e13fc34f043f809bacb48ed7454" target="_top" xlink:title=" ">
<polygon fill="white" stroke="#666666" points="543.5,-58 445.75,-58 445.75,-38 543.5,-38 543.5,-58"/>
<text xml:space="preserve" text-anchor="middle" x="494.62" y="-44.5" font-family="Helvetica,sans-Serif" font-size="10.00">__kernel_rem_pio2</text>
</a>
</g>
</g>
<!-- Node4&#45;&gt;Node5 -->
<g id="edge4_Node000004_Node000005" class="edge">
<title>Node4&#45;&gt;Node5</title>
<g id="a_edge4_Node000004_Node000005"><a xlink:title=" ">
<path fill="none" stroke="#63b8ff" d="M410.13,-48C417.95,-48 426.07,-48 434.03,-48"/>
<polygon fill="#63b8ff" stroke="#63b8ff" points="434.03,-51.5 444.03,-48 434.03,-44.5 434.03,-51.5"/>
</a>
</g>
</g>
</g>
</svg>
