<?xml version="1.0" encoding="UTF-8" standalone="no"?>
<!DOCTYPE svg PUBLIC "-//W3C//DTD SVG 1.1//EN"
 "http://www.w3.org/Graphics/SVG/1.1/DTD/svg11.dtd">
<!-- Generated by graphviz version 13.1.0 (20250701.0955)
 -->
<!-- Title: SDL_strcasestr Pages: 1 -->
<svg width="322pt" height="104pt"
 viewBox="0.00 0.00 322.00 104.00" xmlns="http://www.w3.org/2000/svg" xmlns:xlink="http://www.w3.org/1999/xlink">
<g id="graph0" class="graph" transform="scale(1 1) rotate(0) translate(4 100)">
<title>SDL_strcasestr</title>
<!-- Node1 -->
<g id="Node000001" class="node">
<title>Node1</title>
<g id="a_Node000001"><a xlink:title=" ">
<polygon fill="#999999" stroke="#666666" points="84.25,-58 0,-58 0,-38 84.25,-38 84.25,-58"/>
<text xml:space="preserve" text-anchor="middle" x="42.12" y="-44.5" font-family="Helvetica,sans-Serif" font-size="10.00">SDL_strcasestr</text>
</a>
</g>
</g>
<!-- Node2 -->
<g id="Node000002" class="node">
<title>Node2</title>
<g id="a_Node000002"><a xlink:href="../../d2/d23/SDL__string_8c.html#a2bdfca477ac9576eed2460f5d824c640" target="_top" xlink:title=" ">
<polygon fill="white" stroke="#666666" points="211.62,-96 125.88,-96 125.88,-76 211.62,-76 211.62,-96"/>
<text xml:space="preserve" text-anchor="middle" x="168.75" y="-82.5" font-family="Helvetica,sans-Serif" font-size="10.00">SDL_StepUTF8</text>
</a>
</g>
</g>
<!-- Node1&#45;&gt;Node2 -->
<g id="edge1_Node000001_Node000002" class="edge">
<title>Node1&#45;&gt;Node2</title>
<g id="a_edge1_Node000001_Node000002"><a xlink:title=" ">
<path fill="none" stroke="#63b8ff" d="M77.51,-58.48C91.4,-62.72 107.63,-67.67 122.47,-72.19"/>
<polygon fill="#63b8ff" stroke="#63b8ff" points="121.44,-75.54 132.03,-75.11 123.49,-68.84 121.44,-75.54"/>
</a>
</g>
</g>
<!-- Node4 -->
<g id="Node000004" class="node">
<title>Node4</title>
<g id="a_Node000004"><a xlink:href="../../d2/d23/SDL__string_8c.html#a38e76d86236f4a24cf0cc6863ec3ae9d" target="_top" xlink:title=" ">
<polygon fill="white" stroke="#666666" points="201.12,-58 136.38,-58 136.38,-38 201.12,-38 201.12,-58"/>
<text xml:space="preserve" text-anchor="middle" x="168.75" y="-44.5" font-family="Helvetica,sans-Serif" font-size="10.00">SDL_strlen</text>
</a>
</g>
</g>
<!-- Node1&#45;&gt;Node4 -->
<g id="edge3_Node000001_Node000004" class="edge">
<title>Node1&#45;&gt;Node4</title>
<g id="a_edge3_Node000001_Node000004"><a xlink:title=" ">
<path fill="none" stroke="#63b8ff" d="M84.62,-48C97.42,-48 111.53,-48 124.45,-48"/>
<polygon fill="#63b8ff" stroke="#63b8ff" points="124.38,-51.5 134.38,-48 124.38,-44.5 124.38,-51.5"/>
</a>
</g>
</g>
<!-- Node5 -->
<g id="Node000005" class="node">
<title>Node5</title>
<g id="a_Node000005"><a xlink:href="../../d2/d23/SDL__string_8c.html#aea0d26139be20c512bd5192017c827e6" target="_top" xlink:title=" ">
<polygon fill="white" stroke="#666666" points="217.25,-20 120.25,-20 120.25,0 217.25,0 217.25,-20"/>
<text xml:space="preserve" text-anchor="middle" x="168.75" y="-6.5" font-family="Helvetica,sans-Serif" font-size="10.00">SDL_strncasecmp</text>
</a>
</g>
</g>
<!-- Node1&#45;&gt;Node5 -->
<g id="edge4_Node000001_Node000005" class="edge">
<title>Node1&#45;&gt;Node5</title>
<g id="a_edge4_Node000001_Node000005"><a xlink:title=" ">
<path fill="none" stroke="#63b8ff" d="M77.51,-37.52C91.4,-33.28 107.63,-28.33 122.47,-23.81"/>
<polygon fill="#63b8ff" stroke="#63b8ff" points="123.49,-27.16 132.03,-20.89 121.44,-20.46 123.49,-27.16"/>
</a>
</g>
</g>
<!-- Node3 -->
<g id="Node000003" class="node">
<title>Node3</title>
<g id="a_Node000003"><a xlink:href="../../d2/d23/SDL__string_8c.html#a8d9b30860de906e69dd80fe1f4a318b5" target="_top" xlink:title=" ">
<polygon fill="white" stroke="#666666" points="314.25,-96 253.25,-96 253.25,-76 314.25,-76 314.25,-96"/>
<text xml:space="preserve" text-anchor="middle" x="283.75" y="-82.5" font-family="Helvetica,sans-Serif" font-size="10.00">StepUTF8</text>
</a>
</g>
</g>
<!-- Node2&#45;&gt;Node3 -->
<g id="edge2_Node000002_Node000003" class="edge">
<title>Node2&#45;&gt;Node3</title>
<g id="a_edge2_Node000002_Node000003"><a xlink:title=" ">
<path fill="none" stroke="#63b8ff" d="M211.83,-86C221.55,-86 231.89,-86 241.57,-86"/>
<polygon fill="#63b8ff" stroke="#63b8ff" points="241.47,-89.5 251.47,-86 241.47,-82.5 241.47,-89.5"/>
</a>
</g>
</g>
</g>
</svg>
