<?xml version="1.0" encoding="UTF-8" standalone="no"?>
<!DOCTYPE svg PUBLIC "-//W3C//DTD SVG 1.1//EN"
 "http://www.w3.org/Graphics/SVG/1.1/DTD/svg11.dtd">
<!-- Generated by graphviz version 13.1.0 (20250701.0955)
 -->
<!-- Title: SDL_ceilf Pages: 1 -->
<svg width="380pt" height="28pt"
 viewBox="0.00 0.00 380.00 28.00" xmlns="http://www.w3.org/2000/svg" xmlns:xlink="http://www.w3.org/1999/xlink">

<svg id="main" version="1.1" xmlns="http://www.w3.org/2000/svg" xmlns:xlink="http://www.w3.org/1999/xlink" xml:space="preserve">

<style type="text/css"><![CDATA[
.node, .edge {opacity: 0.7;}
.node.selected, .edge.selected {opacity: 1;}
.edge:hover path { stroke: red; }
.edge:hover polygon { stroke: red; fill: red; }
]]></style>
<script type="application/ecmascript" xlink:href="../../svg.min.js"/>
<svg id="graph" class="graph">
<g id="graph0" class="graph" transform="scale(1 1) rotate(0) translate(4 24)">
<title>SDL_ceilf</title>
<!-- Node1 -->
<g id="Node000001" class="node">
<title>Node1</title>
<g id="a_Node000001"><a xlink:title=" ">
<polygon fill="#999999" stroke="#666666" points="58.75,-20 0,-20 0,0 58.75,0 58.75,-20"/>
<text xml:space="preserve" text-anchor="middle" x="29.38" y="-6.5" font-family="Helvetica,sans-Serif" font-size="10.00">SDL_ceilf</text>
</a>
</g>
</g>
<!-- Node2 -->
<g id="Node000002" class="node">
<title>Node2</title>
<g id="a_Node000002"><a xlink:href="../../d3/d02/SDL__stdlib_8c.html#a697b0197d0b0798c81ee242f114aace8" target="_top" xlink:title=" ">
<polygon fill="white" stroke="#666666" points="150.5,-20 94.75,-20 94.75,0 150.5,0 150.5,-20"/>
<text xml:space="preserve" text-anchor="middle" x="122.62" y="-6.5" font-family="Helvetica,sans-Serif" font-size="10.00">SDL_ceil</text>
</a>
</g>
</g>
<!-- Node1&#45;&gt;Node2 -->
<g id="edge1_Node000001_Node000002" class="edge">
<title>Node1&#45;&gt;Node2</title>
<g id="a_edge1_Node000001_Node000002"><a xlink:title=" ">
<path fill="none" stroke="#63b8ff" d="M59.25,-10C66.82,-10 75.12,-10 83.11,-10"/>
<polygon fill="#63b8ff" stroke="#63b8ff" points="82.98,-13.5 92.98,-10 82.98,-6.5 82.98,-13.5"/>
</a>
</g>
</g>
<!-- Node3 -->
<g id="Node000003" class="node">
<title>Node3</title>
<g id="a_Node000003"><a xlink:href="../../d3/d02/SDL__stdlib_8c.html#a8c898f41276f7bc9cbd3e89c726c2d0a" target="_top" xlink:title=" ">
<polygon fill="white" stroke="#666666" points="246,-20 186.5,-20 186.5,0 246,0 246,-20"/>
<text xml:space="preserve" text-anchor="middle" x="216.25" y="-6.5" font-family="Helvetica,sans-Serif" font-size="10.00">SDL_floor</text>
</a>
</g>
</g>
<!-- Node2&#45;&gt;Node3 -->
<g id="edge2_Node000002_Node000003" class="edge">
<title>Node2&#45;&gt;Node3</title>
<g id="a_edge2_Node000002_Node000003"><a xlink:title=" ">
<path fill="none" stroke="#63b8ff" d="M150.62,-10C158.23,-10 166.67,-10 174.88,-10"/>
<polygon fill="#63b8ff" stroke="#63b8ff" points="174.7,-13.5 184.7,-10 174.7,-6.5 174.7,-13.5"/>
</a>
</g>
</g>
<!-- Node4 -->
<g id="Node000004" class="node">
<title>Node4</title>
<g id="a_Node000004"><a xlink:href="../../d3/dcc/s__floor_8c.html#a70f5eb094fdaee73475597eee76f67f1" target="_top" xlink:title=" ">
<polygon fill="white" stroke="#666666" points="372.25,-20 282,-20 282,0 372.25,0 372.25,-20"/>
<text xml:space="preserve" text-anchor="middle" x="327.12" y="-6.5" font-family="Helvetica,sans-Serif" font-size="10.00">SDL_uclibc_floor</text>
</a>
</g>
</g>
<!-- Node3&#45;&gt;Node4 -->
<g id="edge3_Node000003_Node000004" class="edge">
<title>Node3&#45;&gt;Node4</title>
<g id="a_edge3_Node000003_Node000004"><a xlink:title=" ">
<path fill="none" stroke="#63b8ff" d="M246.43,-10C253.87,-10 262.13,-10 270.43,-10"/>
<polygon fill="#63b8ff" stroke="#63b8ff" points="270.19,-13.5 280.19,-10 270.19,-6.5 270.19,-13.5"/>
</a>
</g>
</g>
</g>
</svg>
</svg>

<style type='text/css'>
<![CDATA[
[data-mouse-over-selected='false'] { opacity: 0.7; }
[data-mouse-over-selected='true']  { opacity: 1.0; }
]]>
</style>
<script type="application/ecmascript"><![CDATA[
document.addEventListener('DOMContentLoaded', (event) => {
  highlightEdges();
  highlightAdjacentNodes();
});
]]></script>
</svg>
