<?xml version="1.0" encoding="UTF-8" standalone="no"?>
<!DOCTYPE svg PUBLIC "-//W3C//DTD SVG 1.1//EN"
 "http://www.w3.org/Graphics/SVG/1.1/DTD/svg11.dtd">
<!-- Generated by graphviz version 13.1.0 (20250701.0955)
 -->
<!-- Title: SDL_randf_r Pages: 1 -->
<svg width="478pt" height="104pt"
 viewBox="0.00 0.00 478.00 104.00" xmlns="http://www.w3.org/2000/svg" xmlns:xlink="http://www.w3.org/1999/xlink">
<g id="graph0" class="graph" transform="scale(1 1) rotate(0) translate(4 100)">
<title>SDL_randf_r</title>
<!-- Node1 -->
<g id="Node000001" class="node">
<title>Node1</title>
<g id="a_Node000001"><a xlink:title=" ">
<polygon fill="#999999" stroke="#666666" points="469.75,-58 399,-58 399,-38 469.75,-38 469.75,-58"/>
<text xml:space="preserve" text-anchor="middle" x="434.38" y="-44.5" font-family="Helvetica,sans-Serif" font-size="10.00">SDL_randf_r</text>
</a>
</g>
</g>
<!-- Node2 -->
<g id="Node000002" class="node">
<title>Node2</title>
<g id="a_Node000002"><a xlink:href="../../d8/dcc/SDL__random_8c.html#a4e3f97b0f001ac189148cc3679a94348" target="_top" xlink:title=" ">
<polygon fill="white" stroke="#666666" points="363,-77 300.5,-77 300.5,-57 363,-57 363,-77"/>
<text xml:space="preserve" text-anchor="middle" x="331.75" y="-63.5" font-family="Helvetica,sans-Serif" font-size="10.00">SDL_randf</text>
</a>
</g>
</g>
<!-- Node1&#45;&gt;Node2 -->
<g id="edge1_Node000001_Node000002" class="edge">
<title>Node1&#45;&gt;Node2</title>
<g id="a_edge1_Node000001_Node000002"><a xlink:title=" ">
<path fill="none" stroke="#63b8ff" d="M387.71,-56.62C379.48,-58.18 371.08,-59.76 363.4,-61.21"/>
<polygon fill="#63b8ff" stroke="#63b8ff" points="388.08,-60.11 397.26,-54.82 386.78,-53.24 388.08,-60.11"/>
</a>
</g>
</g>
<!-- Node3 -->
<g id="Node000003" class="node">
<title>Node3</title>
<g id="a_Node000003"><a xlink:href="../../d2/d5b/SDL__stdinc_8h.html#a41411a3a79d1b763a8a5d0137ff4313c" target="_top" xlink:title=" ">
<polygon fill="white" stroke="#666666" points="264.5,-58 186.25,-58 186.25,-38 264.5,-38 264.5,-58"/>
<text xml:space="preserve" text-anchor="middle" x="225.38" y="-44.5" font-family="Helvetica,sans-Serif" font-size="10.00">SDL_vasprintf</text>
</a>
</g>
</g>
<!-- Node1&#45;&gt;Node3 -->
<g id="edge7_Node000001_Node000003" class="edge">
<title>Node1&#45;&gt;Node3</title>
<g id="a_edge7_Node000001_Node000003"><a xlink:title=" ">
<path fill="none" stroke="#63b8ff" d="M387.29,-48C350.41,-48 299.3,-48 264.65,-48"/>
<polygon fill="#63b8ff" stroke="#63b8ff" points="387.21,-51.5 397.21,-48 387.21,-44.5 387.21,-51.5"/>
</a>
</g>
</g>
<!-- Node2&#45;&gt;Node3 -->
<g id="edge2_Node000002_Node000003" class="edge">
<title>Node2&#45;&gt;Node3</title>
<g id="a_edge2_Node000002_Node000003"><a xlink:title=" ">
<path fill="none" stroke="#63b8ff" d="M288.96,-59.39C281.01,-57.94 272.72,-56.44 264.87,-55.01"/>
<polygon fill="#63b8ff" stroke="#63b8ff" points="288.33,-62.83 298.79,-61.18 289.58,-55.95 288.33,-62.83"/>
</a>
</g>
</g>
<!-- Node3&#45;&gt;Node3 -->
<g id="edge6_Node000003_Node000003" class="edge">
<title>Node3&#45;&gt;Node3</title>
<g id="a_edge6_Node000003_Node000003"><a xlink:title=" ">
<path fill="none" stroke="#63b8ff" d="M244.18,-69.44C241.75,-73.3 235.49,-76 225.38,-76 206.88,-76 201.25,-66.98 208.47,-58.34"/>
<polygon fill="#63b8ff" stroke="#63b8ff" points="247.67,-69.1 242.53,-59.83 240.77,-70.28 247.67,-69.1"/>
</a>
</g>
</g>
<!-- Node4 -->
<g id="Node000004" class="node">
<title>Node4</title>
<g id="a_Node000004"><a xlink:href="../../d3/d3d/SDL__iostream_8c.html#a1e26b322fe534c9b1a7b884aebb5a029" target="_top" xlink:title=" ">
<polygon fill="white" stroke="#666666" points="111.62,-96 38.62,-96 38.62,-76 111.62,-76 111.62,-96"/>
<text xml:space="preserve" text-anchor="middle" x="75.12" y="-82.5" font-family="Helvetica,sans-Serif" font-size="10.00">SDL_IOprintf</text>
</a>
</g>
</g>
<!-- Node3&#45;&gt;Node4 -->
<g id="edge3_Node000003_Node000004" class="edge">
<title>Node3&#45;&gt;Node4</title>
<g id="a_edge3_Node000003_Node000004"><a xlink:title=" ">
<path fill="none" stroke="#63b8ff" d="M174.73,-60.73C154.17,-65.99 130.79,-71.99 111.95,-76.82"/>
<polygon fill="#63b8ff" stroke="#63b8ff" points="175.53,-64.13 184.34,-58.26 173.79,-57.35 175.53,-64.13"/>
</a>
</g>
</g>
<!-- Node5 -->
<g id="Node000005" class="node">
<title>Node5</title>
<g id="a_Node000005"><a xlink:href="../../d3/d3d/SDL__iostream_8c.html#a9269a3d31b47aee1f1183ec8af88f629" target="_top" xlink:title=" ">
<polygon fill="white" stroke="#666666" points="114.25,-58 36,-58 36,-38 114.25,-38 114.25,-58"/>
<text xml:space="preserve" text-anchor="middle" x="75.12" y="-44.5" font-family="Helvetica,sans-Serif" font-size="10.00">SDL_IOvprintf</text>
</a>
</g>
</g>
<!-- Node3&#45;&gt;Node5 -->
<g id="edge4_Node000003_Node000005" class="edge">
<title>Node3&#45;&gt;Node5</title>
<g id="a_edge4_Node000003_Node000005"><a xlink:title=" ">
<path fill="none" stroke="#63b8ff" d="M174.33,-48C154.79,-48 132.74,-48 114.5,-48"/>
<polygon fill="#63b8ff" stroke="#63b8ff" points="174.3,-51.5 184.3,-48 174.3,-44.5 174.3,-51.5"/>
</a>
</g>
</g>
<!-- Node6 -->
<g id="Node000006" class="node">
<title>Node6</title>
<g id="a_Node000006"><a xlink:href="../../dd/df3/SDL__render_8c.html#a9088b0bec7523287068b9391ab923dc8" target="_top" xlink:title=" ">
<polygon fill="white" stroke="#666666" points="150.25,-20 0,-20 0,0 150.25,0 150.25,-20"/>
<text xml:space="preserve" text-anchor="middle" x="75.12" y="-6.5" font-family="Helvetica,sans-Serif" font-size="10.00">SDL_RenderDebugTextFormat</text>
</a>
</g>
</g>
<!-- Node3&#45;&gt;Node6 -->
<g id="edge5_Node000003_Node000006" class="edge">
<title>Node3&#45;&gt;Node6</title>
<g id="a_edge5_Node000003_Node000006"><a xlink:title=" ">
<path fill="none" stroke="#63b8ff" d="M174.75,-35.28C155.93,-30.46 134.73,-25.02 116.83,-20.43"/>
<polygon fill="#63b8ff" stroke="#63b8ff" points="173.79,-38.65 184.34,-37.74 175.53,-31.87 173.79,-38.65"/>
</a>
</g>
</g>
</g>
</svg>
