<?xml version="1.0" encoding="UTF-8" standalone="no"?>
<!DOCTYPE svg PUBLIC "-//W3C//DTD SVG 1.1//EN"
 "http://www.w3.org/Graphics/SVG/1.1/DTD/svg11.dtd">
<!-- Generated by graphviz version 13.1.0 (20250701.0955)
 -->
<!-- Title: SDL_ispunct Pages: 1 -->
<svg width="407pt" height="123pt"
 viewBox="0.00 0.00 407.00 123.00" xmlns="http://www.w3.org/2000/svg" xmlns:xlink="http://www.w3.org/1999/xlink">
<g id="graph0" class="graph" transform="scale(1 1) rotate(0) translate(4 119)">
<title>SDL_ispunct</title>
<!-- Node1 -->
<g id="Node000001" class="node">
<title>Node1</title>
<g id="a_Node000001"><a xlink:title=" ">
<polygon fill="#999999" stroke="#666666" points="72.25,-39 0,-39 0,-19 72.25,-19 72.25,-39"/>
<text xml:space="preserve" text-anchor="middle" x="36.12" y="-25.5" font-family="Helvetica,sans-Serif" font-size="10.00">SDL_ispunct</text>
</a>
</g>
</g>
<!-- Node2 -->
<g id="Node000002" class="node">
<title>Node2</title>
<g id="a_Node000002"><a xlink:href="../../d3/d02/SDL__stdlib_8c.html#a10c4b157f24d68f3e22a0bdc0f31f508" target="_top" xlink:title=" ">
<polygon fill="white" stroke="#666666" points="182.75,-58 108.25,-58 108.25,-38 182.75,-38 182.75,-58"/>
<text xml:space="preserve" text-anchor="middle" x="145.5" y="-44.5" font-family="Helvetica,sans-Serif" font-size="10.00">SDL_isalnum</text>
</a>
</g>
</g>
<!-- Node1&#45;&gt;Node2 -->
<g id="edge1_Node000001_Node000002" class="edge">
<title>Node1&#45;&gt;Node2</title>
<g id="a_edge1_Node000001_Node000002"><a xlink:title=" ">
<path fill="none" stroke="#63b8ff" d="M72.58,-35.27C80.3,-36.64 88.6,-38.11 96.71,-39.54"/>
<polygon fill="#63b8ff" stroke="#63b8ff" points="96.03,-42.98 106.49,-41.27 97.25,-36.08 96.03,-42.98"/>
</a>
</g>
</g>
<!-- Node7 -->
<g id="Node000007" class="node">
<title>Node7</title>
<g id="a_Node000007"><a xlink:href="../../d3/d02/SDL__stdlib_8c.html#af4615ced79f5a6d9db0e1d981bd78d58" target="_top" xlink:title=" ">
<polygon fill="white" stroke="#666666" points="181.62,-20 109.38,-20 109.38,0 181.62,0 181.62,-20"/>
<text xml:space="preserve" text-anchor="middle" x="145.5" y="-6.5" font-family="Helvetica,sans-Serif" font-size="10.00">SDL_isgraph</text>
</a>
</g>
</g>
<!-- Node1&#45;&gt;Node7 -->
<g id="edge6_Node000001_Node000007" class="edge">
<title>Node1&#45;&gt;Node7</title>
<g id="a_edge6_Node000001_Node000007"><a xlink:title=" ">
<path fill="none" stroke="#63b8ff" d="M72.58,-22.73C80.64,-21.3 89.33,-19.76 97.78,-18.27"/>
<polygon fill="#63b8ff" stroke="#63b8ff" points="98.35,-21.72 107.59,-16.53 97.13,-14.83 98.35,-21.72"/>
</a>
</g>
</g>
<!-- Node3 -->
<g id="Node000003" class="node">
<title>Node3</title>
<g id="a_Node000003"><a xlink:href="../../d3/d02/SDL__stdlib_8c.html#a5162297cca28260de33a149da8360322" target="_top" xlink:title=" ">
<polygon fill="white" stroke="#666666" points="290.25,-96 218.75,-96 218.75,-76 290.25,-76 290.25,-96"/>
<text xml:space="preserve" text-anchor="middle" x="254.5" y="-82.5" font-family="Helvetica,sans-Serif" font-size="10.00">SDL_isalpha</text>
</a>
</g>
</g>
<!-- Node2&#45;&gt;Node3 -->
<g id="edge2_Node000002_Node000003" class="edge">
<title>Node2&#45;&gt;Node3</title>
<g id="a_edge2_Node000002_Node000003"><a xlink:title=" ">
<path fill="none" stroke="#63b8ff" d="M176.02,-58.48C187.6,-62.6 201.07,-67.38 213.49,-71.79"/>
<polygon fill="#63b8ff" stroke="#63b8ff" points="212.05,-74.99 222.65,-75.04 214.4,-68.4 212.05,-74.99"/>
</a>
</g>
</g>
<!-- Node6 -->
<g id="Node000006" class="node">
<title>Node6</title>
<g id="a_Node000006"><a xlink:href="../../d3/d02/SDL__stdlib_8c.html#a527e6563dbef9c20dc9bf4804a9a80ed" target="_top" xlink:title=" ">
<polygon fill="white" stroke="#666666" points="287.62,-58 221.38,-58 221.38,-38 287.62,-38 287.62,-58"/>
<text xml:space="preserve" text-anchor="middle" x="254.5" y="-44.5" font-family="Helvetica,sans-Serif" font-size="10.00">SDL_isdigit</text>
</a>
</g>
</g>
<!-- Node2&#45;&gt;Node6 -->
<g id="edge5_Node000002_Node000006" class="edge">
<title>Node2&#45;&gt;Node6</title>
<g id="a_edge5_Node000002_Node000006"><a xlink:title=" ">
<path fill="none" stroke="#63b8ff" d="M183.02,-48C191.61,-48 200.85,-48 209.72,-48"/>
<polygon fill="#63b8ff" stroke="#63b8ff" points="209.57,-51.5 219.57,-48 209.57,-44.5 209.57,-51.5"/>
</a>
</g>
</g>
<!-- Node4 -->
<g id="Node000004" class="node">
<title>Node4</title>
<g id="a_Node000004"><a xlink:href="../../d3/d02/SDL__stdlib_8c.html#a9568b6eef014b2b9d5278fbaf7281017" target="_top" xlink:title=" ">
<polygon fill="white" stroke="#666666" points="398.12,-115 326.62,-115 326.62,-95 398.12,-95 398.12,-115"/>
<text xml:space="preserve" text-anchor="middle" x="362.38" y="-101.5" font-family="Helvetica,sans-Serif" font-size="10.00">SDL_islower</text>
</a>
</g>
</g>
<!-- Node3&#45;&gt;Node4 -->
<g id="edge3_Node000003_Node000004" class="edge">
<title>Node3&#45;&gt;Node4</title>
<g id="a_edge3_Node000003_Node000004"><a xlink:title=" ">
<path fill="none" stroke="#63b8ff" d="M290.46,-92.27C298.41,-93.7 306.98,-95.24 315.31,-96.73"/>
<polygon fill="#63b8ff" stroke="#63b8ff" points="314.5,-100.14 324.96,-98.47 315.74,-93.25 314.5,-100.14"/>
</a>
</g>
</g>
<!-- Node5 -->
<g id="Node000005" class="node">
<title>Node5</title>
<g id="a_Node000005"><a xlink:href="../../d3/d02/SDL__stdlib_8c.html#abdaa125b219e19c55774217eb60f3ff1" target="_top" xlink:title=" ">
<polygon fill="white" stroke="#666666" points="398.5,-77 326.25,-77 326.25,-57 398.5,-57 398.5,-77"/>
<text xml:space="preserve" text-anchor="middle" x="362.38" y="-63.5" font-family="Helvetica,sans-Serif" font-size="10.00">SDL_isupper</text>
</a>
</g>
</g>
<!-- Node3&#45;&gt;Node5 -->
<g id="edge4_Node000003_Node000005" class="edge">
<title>Node3&#45;&gt;Node5</title>
<g id="a_edge4_Node000003_Node000005"><a xlink:title=" ">
<path fill="none" stroke="#63b8ff" d="M290.46,-79.73C298.24,-78.33 306.61,-76.83 314.77,-75.36"/>
<polygon fill="#63b8ff" stroke="#63b8ff" points="315.37,-78.81 324.6,-73.6 314.14,-71.92 315.37,-78.81"/>
</a>
</g>
</g>
<!-- Node8 -->
<g id="Node000008" class="node">
<title>Node8</title>
<g id="a_Node000008"><a xlink:href="../../d3/d02/SDL__stdlib_8c.html#a3649d4ec2aa7abf05b8a3b186f063279" target="_top" xlink:title=" ">
<polygon fill="white" stroke="#666666" points="288,-20 221,-20 221,0 288,0 288,-20"/>
<text xml:space="preserve" text-anchor="middle" x="254.5" y="-6.5" font-family="Helvetica,sans-Serif" font-size="10.00">SDL_isprint</text>
</a>
</g>
</g>
<!-- Node7&#45;&gt;Node8 -->
<g id="edge7_Node000007_Node000008" class="edge">
<title>Node7&#45;&gt;Node8</title>
<g id="a_edge7_Node000007_Node000008"><a xlink:title=" ">
<path fill="none" stroke="#63b8ff" d="M181.83,-10C190.65,-10 200.21,-10 209.4,-10"/>
<polygon fill="#63b8ff" stroke="#63b8ff" points="209.23,-13.5 219.23,-10 209.23,-6.5 209.23,-13.5"/>
</a>
</g>
</g>
</g>
</svg>
