<?xml version="1.0" encoding="UTF-8" standalone="no"?>
<!DOCTYPE svg PUBLIC "-//W3C//DTD SVG 1.1//EN"
 "http://www.w3.org/Graphics/SVG/1.1/DTD/svg11.dtd">
<!-- Generated by graphviz version 13.1.0 (20250701.0955)
 -->
<!-- Title: SDL_vasprintf Pages: 1 -->
<svg width="273pt" height="104pt"
 viewBox="0.00 0.00 273.00 104.00" xmlns="http://www.w3.org/2000/svg" xmlns:xlink="http://www.w3.org/1999/xlink">
<g id="graph0" class="graph" transform="scale(1 1) rotate(0) translate(4 100)">
<title>SDL_vasprintf</title>
<!-- Node1 -->
<g id="Node000001" class="node">
<title>Node1</title>
<g id="a_Node000001"><a xlink:title=" ">
<polygon fill="#999999" stroke="#666666" points="264.5,-58 186.25,-58 186.25,-38 264.5,-38 264.5,-58"/>
<text xml:space="preserve" text-anchor="middle" x="225.38" y="-44.5" font-family="Helvetica,sans-Serif" font-size="10.00">SDL_vasprintf</text>
</a>
</g>
</g>
<!-- Node1&#45;&gt;Node1 -->
<g id="edge4_Node000001_Node000001" class="edge">
<title>Node1&#45;&gt;Node1</title>
<g id="a_edge4_Node000001_Node000001"><a xlink:title=" ">
<path fill="none" stroke="#63b8ff" d="M251.93,-69.44C248.51,-73.3 239.66,-76 225.38,-76 199.26,-76 191.3,-66.98 201.5,-58.34"/>
<polygon fill="#63b8ff" stroke="#63b8ff" points="255.35,-68.71 249.6,-59.81 248.55,-70.35 255.35,-68.71"/>
</a>
</g>
</g>
<!-- Node2 -->
<g id="Node000002" class="node">
<title>Node2</title>
<g id="a_Node000002"><a xlink:href="../../d3/d3d/SDL__iostream_8c.html#a1e26b322fe534c9b1a7b884aebb5a029" target="_top" xlink:title=" ">
<polygon fill="white" stroke="#666666" points="111.62,-96 38.62,-96 38.62,-76 111.62,-76 111.62,-96"/>
<text xml:space="preserve" text-anchor="middle" x="75.12" y="-82.5" font-family="Helvetica,sans-Serif" font-size="10.00">SDL_IOprintf</text>
</a>
</g>
</g>
<!-- Node1&#45;&gt;Node2 -->
<g id="edge1_Node000001_Node000002" class="edge">
<title>Node1&#45;&gt;Node2</title>
<g id="a_edge1_Node000001_Node000002"><a xlink:title=" ">
<path fill="none" stroke="#63b8ff" d="M174.73,-60.73C154.17,-65.99 130.79,-71.99 111.95,-76.82"/>
<polygon fill="#63b8ff" stroke="#63b8ff" points="175.53,-64.13 184.34,-58.26 173.79,-57.35 175.53,-64.13"/>
</a>
</g>
</g>
<!-- Node3 -->
<g id="Node000003" class="node">
<title>Node3</title>
<g id="a_Node000003"><a xlink:href="../../d3/d3d/SDL__iostream_8c.html#a9269a3d31b47aee1f1183ec8af88f629" target="_top" xlink:title=" ">
<polygon fill="white" stroke="#666666" points="114.25,-58 36,-58 36,-38 114.25,-38 114.25,-58"/>
<text xml:space="preserve" text-anchor="middle" x="75.12" y="-44.5" font-family="Helvetica,sans-Serif" font-size="10.00">SDL_IOvprintf</text>
</a>
</g>
</g>
<!-- Node1&#45;&gt;Node3 -->
<g id="edge2_Node000001_Node000003" class="edge">
<title>Node1&#45;&gt;Node3</title>
<g id="a_edge2_Node000001_Node000003"><a xlink:title=" ">
<path fill="none" stroke="#63b8ff" d="M174.33,-48C154.79,-48 132.74,-48 114.5,-48"/>
<polygon fill="#63b8ff" stroke="#63b8ff" points="174.3,-51.5 184.3,-48 174.3,-44.5 174.3,-51.5"/>
</a>
</g>
</g>
<!-- Node4 -->
<g id="Node000004" class="node">
<title>Node4</title>
<g id="a_Node000004"><a xlink:href="../../dd/df3/SDL__render_8c.html#a9088b0bec7523287068b9391ab923dc8" target="_top" xlink:title=" ">
<polygon fill="white" stroke="#666666" points="150.25,-20 0,-20 0,0 150.25,0 150.25,-20"/>
<text xml:space="preserve" text-anchor="middle" x="75.12" y="-6.5" font-family="Helvetica,sans-Serif" font-size="10.00">SDL_RenderDebugTextFormat</text>
</a>
</g>
</g>
<!-- Node1&#45;&gt;Node4 -->
<g id="edge3_Node000001_Node000004" class="edge">
<title>Node1&#45;&gt;Node4</title>
<g id="a_edge3_Node000001_Node000004"><a xlink:title=" ">
<path fill="none" stroke="#63b8ff" d="M174.75,-35.28C155.93,-30.46 134.73,-25.02 116.83,-20.43"/>
<polygon fill="#63b8ff" stroke="#63b8ff" points="173.79,-38.65 184.34,-37.74 175.53,-31.87 173.79,-38.65"/>
</a>
</g>
</g>
</g>
</svg>
