<?xml version="1.0" encoding="UTF-8" standalone="no"?>
<!DOCTYPE svg PUBLIC "-//W3C//DTD SVG 1.1//EN"
 "http://www.w3.org/Graphics/SVG/1.1/DTD/svg11.dtd">
<!-- Generated by graphviz version 13.1.0 (20250701.0955)
 -->
<!-- Title: SDL_utf8strnlen Pages: 1 -->
<svg width="313pt" height="28pt"
 viewBox="0.00 0.00 313.00 28.00" xmlns="http://www.w3.org/2000/svg" xmlns:xlink="http://www.w3.org/1999/xlink">
<g id="graph0" class="graph" transform="scale(1 1) rotate(0) translate(4 24)">
<title>SDL_utf8strnlen</title>
<!-- Node1 -->
<g id="Node000001" class="node">
<title>Node1</title>
<g id="a_Node000001"><a xlink:title=" ">
<polygon fill="#999999" stroke="#666666" points="86.5,-20 0,-20 0,0 86.5,0 86.5,-20"/>
<text xml:space="preserve" text-anchor="middle" x="43.25" y="-6.5" font-family="Helvetica,sans-Serif" font-size="10.00">SDL_utf8strnlen</text>
</a>
</g>
</g>
<!-- Node2 -->
<g id="Node000002" class="node">
<title>Node2</title>
<g id="a_Node000002"><a xlink:href="../../d2/d23/SDL__string_8c.html#a2bdfca477ac9576eed2460f5d824c640" target="_top" xlink:title=" ">
<polygon fill="white" stroke="#666666" points="208.25,-20 122.5,-20 122.5,0 208.25,0 208.25,-20"/>
<text xml:space="preserve" text-anchor="middle" x="165.38" y="-6.5" font-family="Helvetica,sans-Serif" font-size="10.00">SDL_StepUTF8</text>
</a>
</g>
</g>
<!-- Node1&#45;&gt;Node2 -->
<g id="edge1_Node000001_Node000002" class="edge">
<title>Node1&#45;&gt;Node2</title>
<g id="a_edge1_Node000001_Node000002"><a xlink:title=" ">
<path fill="none" stroke="#63b8ff" d="M86.94,-10C94.64,-10 102.76,-10 110.73,-10"/>
<polygon fill="#63b8ff" stroke="#63b8ff" points="110.71,-13.5 120.71,-10 110.71,-6.5 110.71,-13.5"/>
</a>
</g>
</g>
<!-- Node3 -->
<g id="Node000003" class="node">
<title>Node3</title>
<g id="a_Node000003"><a xlink:href="../../d2/d23/SDL__string_8c.html#a8d9b30860de906e69dd80fe1f4a318b5" target="_top" xlink:title=" ">
<polygon fill="white" stroke="#666666" points="305.25,-20 244.25,-20 244.25,0 305.25,0 305.25,-20"/>
<text xml:space="preserve" text-anchor="middle" x="274.75" y="-6.5" font-family="Helvetica,sans-Serif" font-size="10.00">StepUTF8</text>
</a>
</g>
</g>
<!-- Node2&#45;&gt;Node3 -->
<g id="edge2_Node000002_Node000003" class="edge">
<title>Node2&#45;&gt;Node3</title>
<g id="a_edge2_Node000002_Node000003"><a xlink:title=" ">
<path fill="none" stroke="#63b8ff" d="M208.5,-10C216.48,-10 224.81,-10 232.75,-10"/>
<polygon fill="#63b8ff" stroke="#63b8ff" points="232.5,-13.5 242.5,-10 232.5,-6.5 232.5,-13.5"/>
</a>
</g>
</g>
</g>
</svg>
