<?xml version="1.0" encoding="UTF-8" standalone="no"?>
<!DOCTYPE svg PUBLIC "-//W3C//DTD SVG 1.1//EN"
 "http://www.w3.org/Graphics/SVG/1.1/DTD/svg11.dtd">
<!-- Generated by graphviz version 13.1.0 (20250701.0955)
 -->
<!-- Title: SDL_cos Pages: 1 -->
<svg width="463pt" height="104pt"
 viewBox="0.00 0.00 463.00 104.00" xmlns="http://www.w3.org/2000/svg" xmlns:xlink="http://www.w3.org/1999/xlink">

<svg id="main" version="1.1" xmlns="http://www.w3.org/2000/svg" xmlns:xlink="http://www.w3.org/1999/xlink" xml:space="preserve">

<style type="text/css"><![CDATA[
.node, .edge {opacity: 0.7;}
.node.selected, .edge.selected {opacity: 1;}
.edge:hover path { stroke: red; }
.edge:hover polygon { stroke: red; fill: red; }
]]></style>
<script type="application/ecmascript" xlink:href="../../svg.min.js"/>
<svg id="graph" class="graph">
<g id="graph0" class="graph" transform="scale(1 1) rotate(0) translate(4 100)">
<title>SDL_cos</title>
<!-- Node1 -->
<g id="Node000001" class="node">
<title>Node1</title>
<g id="a_Node000001"><a xlink:title=" ">
<polygon fill="#999999" stroke="#666666" points="56.5,-58 0,-58 0,-38 56.5,-38 56.5,-58"/>
<text xml:space="preserve" text-anchor="middle" x="28.25" y="-44.5" font-family="Helvetica,sans-Serif" font-size="10.00">SDL_cos</text>
</a>
</g>
</g>
<!-- Node2 -->
<g id="Node000002" class="node">
<title>Node2</title>
<g id="a_Node000002"><a xlink:href="../../d0/d31/s__cos_8c.html#ac9dbdaf72120039a80a628bce8c83f15" target="_top" xlink:title=" ">
<polygon fill="white" stroke="#666666" points="179.75,-58 92.5,-58 92.5,-38 179.75,-38 179.75,-58"/>
<text xml:space="preserve" text-anchor="middle" x="136.12" y="-44.5" font-family="Helvetica,sans-Serif" font-size="10.00">SDL_uclibc_cos</text>
</a>
</g>
</g>
<!-- Node1&#45;&gt;Node2 -->
<g id="edge1_Node000001_Node000002" class="edge">
<title>Node1&#45;&gt;Node2</title>
<g id="a_edge1_Node000001_Node000002"><a xlink:title=" ">
<path fill="none" stroke="#63b8ff" d="M56.79,-48C64.2,-48 72.49,-48 80.82,-48"/>
<polygon fill="#63b8ff" stroke="#63b8ff" points="80.61,-51.5 90.61,-48 80.61,-44.5 80.61,-51.5"/>
</a>
</g>
</g>
<!-- Node3 -->
<g id="Node000003" class="node">
<title>Node3</title>
<g id="a_Node000003"><a xlink:href="../../d6/d16/e__rem__pio2_8c.html#abb840868a6f0a5a076ee3ac86992db6a" target="_top" xlink:title=" ">
<polygon fill="white" stroke="#666666" points="321,-96 215.75,-96 215.75,-76 321,-76 321,-96"/>
<text xml:space="preserve" text-anchor="middle" x="268.38" y="-82.5" font-family="Helvetica,sans-Serif" font-size="10.00">__ieee754_rem_pio2</text>
</a>
</g>
</g>
<!-- Node2&#45;&gt;Node3 -->
<g id="edge2_Node000002_Node000003" class="edge">
<title>Node2&#45;&gt;Node3</title>
<g id="a_edge2_Node000002_Node000003"><a xlink:title=" ">
<path fill="none" stroke="#63b8ff" d="M173.06,-58.48C187.72,-62.76 204.88,-67.77 220.5,-72.33"/>
<polygon fill="#63b8ff" stroke="#63b8ff" points="219.52,-75.69 230.1,-75.13 221.48,-68.97 219.52,-75.69"/>
</a>
</g>
</g>
<!-- Node5 -->
<g id="Node000005" class="node">
<title>Node5</title>
<g id="a_Node000005"><a xlink:href="../../d5/dfd/k__cos_8c.html#a5468a5a3c3d5d5e34e73fac9d6bc0122" target="_top" xlink:title=" ">
<polygon fill="white" stroke="#666666" points="305.25,-58 231.5,-58 231.5,-38 305.25,-38 305.25,-58"/>
<text xml:space="preserve" text-anchor="middle" x="268.38" y="-44.5" font-family="Helvetica,sans-Serif" font-size="10.00">__kernel_cos</text>
</a>
</g>
</g>
<!-- Node2&#45;&gt;Node5 -->
<g id="edge4_Node000002_Node000005" class="edge">
<title>Node2&#45;&gt;Node5</title>
<g id="a_edge4_Node000002_Node000005"><a xlink:title=" ">
<path fill="none" stroke="#63b8ff" d="M180.13,-48C192.97,-48 207.11,-48 220.2,-48"/>
<polygon fill="#63b8ff" stroke="#63b8ff" points="219.86,-51.5 229.86,-48 219.86,-44.5 219.86,-51.5"/>
</a>
</g>
</g>
<!-- Node6 -->
<g id="Node000006" class="node">
<title>Node6</title>
<g id="a_Node000006"><a xlink:href="../../d0/d13/k__sin_8c.html#adcc3cb89edf47f34f1e8058e198be293" target="_top" xlink:title=" ">
<polygon fill="white" stroke="#666666" points="303.75,-20 233,-20 233,0 303.75,0 303.75,-20"/>
<text xml:space="preserve" text-anchor="middle" x="268.38" y="-6.5" font-family="Helvetica,sans-Serif" font-size="10.00">__kernel_sin</text>
</a>
</g>
</g>
<!-- Node2&#45;&gt;Node6 -->
<g id="edge5_Node000002_Node000006" class="edge">
<title>Node2&#45;&gt;Node6</title>
<g id="a_edge5_Node000002_Node000006"><a xlink:title=" ">
<path fill="none" stroke="#63b8ff" d="M173.06,-37.52C188.23,-33.09 206.07,-27.88 222.13,-23.2"/>
<polygon fill="#63b8ff" stroke="#63b8ff" points="222.83,-26.64 231.45,-20.48 220.87,-19.92 222.83,-26.64"/>
</a>
</g>
</g>
<!-- Node4 -->
<g id="Node000004" class="node">
<title>Node4</title>
<g id="a_Node000004"><a xlink:href="../../d8/d6e/k__rem__pio2_8c.html#a96906e13fc34f043f809bacb48ed7454" target="_top" xlink:title=" ">
<polygon fill="white" stroke="#666666" points="454.75,-96 357,-96 357,-76 454.75,-76 454.75,-96"/>
<text xml:space="preserve" text-anchor="middle" x="405.88" y="-82.5" font-family="Helvetica,sans-Serif" font-size="10.00">__kernel_rem_pio2</text>
</a>
</g>
</g>
<!-- Node3&#45;&gt;Node4 -->
<g id="edge3_Node000003_Node000004" class="edge">
<title>Node3&#45;&gt;Node4</title>
<g id="a_edge3_Node000003_Node000004"><a xlink:title=" ">
<path fill="none" stroke="#63b8ff" d="M321.38,-86C329.2,-86 337.32,-86 345.28,-86"/>
<polygon fill="#63b8ff" stroke="#63b8ff" points="345.28,-89.5 355.28,-86 345.28,-82.5 345.28,-89.5"/>
</a>
</g>
</g>
</g>
</svg>
</svg>

<style type='text/css'>
<![CDATA[
[data-mouse-over-selected='false'] { opacity: 0.7; }
[data-mouse-over-selected='true']  { opacity: 1.0; }
]]>
</style>
<script type="application/ecmascript"><![CDATA[
document.addEventListener('DOMContentLoaded', (event) => {
  highlightEdges();
  highlightAdjacentNodes();
});
]]></script>
</svg>
