<?xml version="1.0" encoding="UTF-8" standalone="no"?>
<!DOCTYPE svg PUBLIC "-//W3C//DTD SVG 1.1//EN"
 "http://www.w3.org/Graphics/SVG/1.1/DTD/svg11.dtd">
<!-- Generated by graphviz version 13.1.0 (20250701.0955)
 -->
<!-- Title: SDL_round Pages: 1 -->
<svg width="386pt" height="47pt"
 viewBox="0.00 0.00 386.00 47.00" xmlns="http://www.w3.org/2000/svg" xmlns:xlink="http://www.w3.org/1999/xlink">

<svg id="main" version="1.1" xmlns="http://www.w3.org/2000/svg" xmlns:xlink="http://www.w3.org/1999/xlink" xml:space="preserve">

<style type="text/css"><![CDATA[
.node, .edge {opacity: 0.7;}
.node.selected, .edge.selected {opacity: 1;}
.edge:hover path { stroke: red; }
.edge:hover polygon { stroke: red; fill: red; }
]]></style>
<script type="application/ecmascript" xlink:href="../../svg.min.js"/>
<svg id="graph" class="graph">
<g id="graph0" class="graph" transform="scale(1 1) rotate(0) translate(4 43)">
<title>SDL_round</title>
<!-- Node1 -->
<g id="Node000001" class="node">
<title>Node1</title>
<g id="a_Node000001"><a xlink:title=" ">
<polygon fill="#999999" stroke="#666666" points="64.75,-20 0,-20 0,0 64.75,0 64.75,-20"/>
<text xml:space="preserve" text-anchor="middle" x="32.38" y="-6.5" font-family="Helvetica,sans-Serif" font-size="10.00">SDL_round</text>
</a>
</g>
</g>
<!-- Node2 -->
<g id="Node000002" class="node">
<title>Node2</title>
<g id="a_Node000002"><a xlink:href="../../d3/d02/SDL__stdlib_8c.html#a697b0197d0b0798c81ee242f114aace8" target="_top" xlink:title=" ">
<polygon fill="white" stroke="#666666" points="156.5,-39 100.75,-39 100.75,-19 156.5,-19 156.5,-39"/>
<text xml:space="preserve" text-anchor="middle" x="128.62" y="-25.5" font-family="Helvetica,sans-Serif" font-size="10.00">SDL_ceil</text>
</a>
</g>
</g>
<!-- Node1&#45;&gt;Node2 -->
<g id="edge1_Node000001_Node000002" class="edge">
<title>Node1&#45;&gt;Node2</title>
<g id="a_edge1_Node000001_Node000002"><a xlink:title=" ">
<path fill="none" stroke="#63b8ff" d="M65.02,-16.38C72.8,-17.95 81.21,-19.64 89.27,-21.27"/>
<polygon fill="#63b8ff" stroke="#63b8ff" points="88.34,-24.65 98.84,-23.2 89.72,-17.79 88.34,-24.65"/>
</a>
</g>
</g>
<!-- Node3 -->
<g id="Node000003" class="node">
<title>Node3</title>
<g id="a_Node000003"><a xlink:href="../../d3/d02/SDL__stdlib_8c.html#a8c898f41276f7bc9cbd3e89c726c2d0a" target="_top" xlink:title=" ">
<polygon fill="white" stroke="#666666" points="252,-20 192.5,-20 192.5,0 252,0 252,-20"/>
<text xml:space="preserve" text-anchor="middle" x="222.25" y="-6.5" font-family="Helvetica,sans-Serif" font-size="10.00">SDL_floor</text>
</a>
</g>
</g>
<!-- Node1&#45;&gt;Node3 -->
<g id="edge4_Node000001_Node000003" class="edge">
<title>Node1&#45;&gt;Node3</title>
<g id="a_edge4_Node000001_Node000003"><a xlink:title=" ">
<path fill="none" stroke="#63b8ff" d="M65.25,-10C97.13,-10 146.29,-10 180.88,-10"/>
<polygon fill="#63b8ff" stroke="#63b8ff" points="180.5,-13.5 190.5,-10 180.5,-6.5 180.5,-13.5"/>
</a>
</g>
</g>
<!-- Node2&#45;&gt;Node3 -->
<g id="edge2_Node000002_Node000003" class="edge">
<title>Node2&#45;&gt;Node3</title>
<g id="a_edge2_Node000002_Node000003"><a xlink:title=" ">
<path fill="none" stroke="#63b8ff" d="M156.62,-23.4C164.31,-21.81 172.86,-20.03 181.16,-18.31"/>
<polygon fill="#63b8ff" stroke="#63b8ff" points="181.65,-21.79 190.73,-16.33 180.23,-14.93 181.65,-21.79"/>
</a>
</g>
</g>
<!-- Node4 -->
<g id="Node000004" class="node">
<title>Node4</title>
<g id="a_Node000004"><a xlink:href="../../d3/dcc/s__floor_8c.html#a70f5eb094fdaee73475597eee76f67f1" target="_top" xlink:title=" ">
<polygon fill="white" stroke="#666666" points="378.25,-20 288,-20 288,0 378.25,0 378.25,-20"/>
<text xml:space="preserve" text-anchor="middle" x="333.12" y="-6.5" font-family="Helvetica,sans-Serif" font-size="10.00">SDL_uclibc_floor</text>
</a>
</g>
</g>
<!-- Node3&#45;&gt;Node4 -->
<g id="edge3_Node000003_Node000004" class="edge">
<title>Node3&#45;&gt;Node4</title>
<g id="a_edge3_Node000003_Node000004"><a xlink:title=" ">
<path fill="none" stroke="#63b8ff" d="M252.43,-10C259.87,-10 268.13,-10 276.43,-10"/>
<polygon fill="#63b8ff" stroke="#63b8ff" points="276.19,-13.5 286.19,-10 276.19,-6.5 276.19,-13.5"/>
</a>
</g>
</g>
</g>
</svg>
</svg>

<style type='text/css'>
<![CDATA[
[data-mouse-over-selected='false'] { opacity: 0.7; }
[data-mouse-over-selected='true']  { opacity: 1.0; }
]]>
</style>
<script type="application/ecmascript"><![CDATA[
document.addEventListener('DOMContentLoaded', (event) => {
  highlightEdges();
  highlightAdjacentNodes();
});
]]></script>
</svg>
