<?xml version="1.0" encoding="UTF-8" standalone="no"?>
<!DOCTYPE svg PUBLIC "-//W3C//DTD SVG 1.1//EN"
 "http://www.w3.org/Graphics/SVG/1.1/DTD/svg11.dtd">
<!-- Generated by graphviz version 13.1.0 (20250701.0955)
 -->
<!-- Title: SDL_trunc Pages: 1 -->
<svg width="384pt" height="47pt"
 viewBox="0.00 0.00 384.00 47.00" xmlns="http://www.w3.org/2000/svg" xmlns:xlink="http://www.w3.org/1999/xlink">
<g id="graph0" class="graph" transform="scale(1 1) rotate(0) translate(4 43)">
<title>SDL_trunc</title>
<!-- Node1 -->
<g id="Node000001" class="node">
<title>Node1</title>
<g id="a_Node000001"><a xlink:title=" ">
<polygon fill="#999999" stroke="#666666" points="62.5,-20 0,-20 0,0 62.5,0 62.5,-20"/>
<text xml:space="preserve" text-anchor="middle" x="31.25" y="-6.5" font-family="Helvetica,sans-Serif" font-size="10.00">SDL_trunc</text>
</a>
</g>
</g>
<!-- Node2 -->
<g id="Node000002" class="node">
<title>Node2</title>
<g id="a_Node000002"><a xlink:href="../../d3/d02/SDL__stdlib_8c.html#a697b0197d0b0798c81ee242f114aace8" target="_top" xlink:title=" ">
<polygon fill="white" stroke="#666666" points="154.25,-39 98.5,-39 98.5,-19 154.25,-19 154.25,-39"/>
<text xml:space="preserve" text-anchor="middle" x="126.38" y="-25.5" font-family="Helvetica,sans-Serif" font-size="10.00">SDL_ceil</text>
</a>
</g>
</g>
<!-- Node1&#45;&gt;Node2 -->
<g id="edge1_Node000001_Node000002" class="edge">
<title>Node1&#45;&gt;Node2</title>
<g id="a_edge1_Node000001_Node000002"><a xlink:title=" ">
<path fill="none" stroke="#63b8ff" d="M62.74,-16.22C70.53,-17.81 79,-19.54 87.12,-21.2"/>
<polygon fill="#63b8ff" stroke="#63b8ff" points="86.29,-24.6 96.78,-23.17 87.69,-17.74 86.29,-24.6"/>
</a>
</g>
</g>
<!-- Node3 -->
<g id="Node000003" class="node">
<title>Node3</title>
<g id="a_Node000003"><a xlink:href="../../d3/d02/SDL__stdlib_8c.html#a8c898f41276f7bc9cbd3e89c726c2d0a" target="_top" xlink:title=" ">
<polygon fill="white" stroke="#666666" points="249.75,-20 190.25,-20 190.25,0 249.75,0 249.75,-20"/>
<text xml:space="preserve" text-anchor="middle" x="220" y="-6.5" font-family="Helvetica,sans-Serif" font-size="10.00">SDL_floor</text>
</a>
</g>
</g>
<!-- Node1&#45;&gt;Node3 -->
<g id="edge4_Node000001_Node000003" class="edge">
<title>Node1&#45;&gt;Node3</title>
<g id="a_edge4_Node000001_Node000003"><a xlink:title=" ">
<path fill="none" stroke="#63b8ff" d="M62.67,-10C94.24,-10 143.79,-10 178.62,-10"/>
<polygon fill="#63b8ff" stroke="#63b8ff" points="178.31,-13.5 188.31,-10 178.31,-6.5 178.31,-13.5"/>
</a>
</g>
</g>
<!-- Node2&#45;&gt;Node3 -->
<g id="edge2_Node000002_Node000003" class="edge">
<title>Node2&#45;&gt;Node3</title>
<g id="a_edge2_Node000002_Node000003"><a xlink:title=" ">
<path fill="none" stroke="#63b8ff" d="M154.37,-23.4C162.06,-21.81 170.61,-20.03 178.91,-18.31"/>
<polygon fill="#63b8ff" stroke="#63b8ff" points="179.4,-21.79 188.48,-16.33 177.98,-14.93 179.4,-21.79"/>
</a>
</g>
</g>
<!-- Node4 -->
<g id="Node000004" class="node">
<title>Node4</title>
<g id="a_Node000004"><a xlink:href="../../d3/dcc/s__floor_8c.html#a70f5eb094fdaee73475597eee76f67f1" target="_top" xlink:title=" ">
<polygon fill="white" stroke="#666666" points="376,-20 285.75,-20 285.75,0 376,0 376,-20"/>
<text xml:space="preserve" text-anchor="middle" x="330.88" y="-6.5" font-family="Helvetica,sans-Serif" font-size="10.00">SDL_uclibc_floor</text>
</a>
</g>
</g>
<!-- Node3&#45;&gt;Node4 -->
<g id="edge3_Node000003_Node000004" class="edge">
<title>Node3&#45;&gt;Node4</title>
<g id="a_edge3_Node000003_Node000004"><a xlink:title=" ">
<path fill="none" stroke="#63b8ff" d="M250.18,-10C257.62,-10 265.88,-10 274.18,-10"/>
<polygon fill="#63b8ff" stroke="#63b8ff" points="273.94,-13.5 283.94,-10 273.94,-6.5 273.94,-13.5"/>
</a>
</g>
</g>
</g>
</svg>
