<?xml version="1.0" encoding="UTF-8" standalone="no"?>
<!DOCTYPE svg PUBLIC "-//W3C//DTD SVG 1.1//EN"
 "http://www.w3.org/Graphics/SVG/1.1/DTD/svg11.dtd">
<!-- Generated by graphviz version 13.1.0 (20250701.0955)
 -->
<!-- Title: SDL_DestroyEnvironment Pages: 1 -->
<svg width="1242pt" height="217pt"
 viewBox="0.00 0.00 1242.00 217.00" xmlns="http://www.w3.org/2000/svg" xmlns:xlink="http://www.w3.org/1999/xlink">
<g id="graph0" class="graph" transform="scale(1 1) rotate(0) translate(4 213)">
<title>SDL_DestroyEnvironment</title>
<!-- Node1 -->
<g id="Node000001" class="node">
<title>Node1</title>
<g id="a_Node000001"><a xlink:title=" ">
<polygon fill="#999999" stroke="#666666" points="1233.5,-96 1103.5,-96 1103.5,-76 1233.5,-76 1233.5,-96"/>
<text xml:space="preserve" text-anchor="middle" x="1168.5" y="-82.5" font-family="Helvetica,sans-Serif" font-size="10.00">SDL_DestroyEnvironment</text>
</a>
</g>
</g>
<!-- Node2 -->
<g id="Node000002" class="node">
<title>Node2</title>
<g id="a_Node000002"><a xlink:href="../../d1/dc1/SDL__zenitydialog_8c.html#a927bce72379567d80dea0d994264bb5f" target="_top" xlink:title=" ">
<polygon fill="white" stroke="#666666" points="862.12,-165 801.12,-165 801.12,-145 862.12,-145 862.12,-165"/>
<text xml:space="preserve" text-anchor="middle" x="831.62" y="-151.5" font-family="Helvetica,sans-Serif" font-size="10.00">run_zenity</text>
</a>
</g>
</g>
<!-- Node1&#45;&gt;Node2 -->
<g id="edge1_Node000001_Node000002" class="edge">
<title>Node1&#45;&gt;Node2</title>
<g id="a_edge1_Node000001_Node000002"><a xlink:title=" ">
<path fill="none" stroke="#63b8ff" d="M1144.62,-102.83C1125.18,-116.11 1095.97,-133.72 1067.5,-142 996.13,-162.75 907.52,-160.57 862.26,-157.57"/>
<polygon fill="#63b8ff" stroke="#63b8ff" points="1146.43,-105.83 1152.61,-97.22 1142.41,-100.11 1146.43,-105.83"/>
</a>
</g>
</g>
<!-- Node9 -->
<g id="Node000009" class="node">
<title>Node9</title>
<g id="a_Node000009"><a xlink:href="../../db/d88/SDL__getenv_8c.html#a63810fc6afaf7b476eced5561891c6e6" target="_top" xlink:title=" ">
<polygon fill="white" stroke="#666666" points="1051.75,-77 938.25,-77 938.25,-57 1051.75,-57 1051.75,-77"/>
<text xml:space="preserve" text-anchor="middle" x="995" y="-63.5" font-family="Helvetica,sans-Serif" font-size="10.00">SDL_QuitEnvironment</text>
</a>
</g>
</g>
<!-- Node1&#45;&gt;Node9 -->
<g id="edge9_Node000001_Node000009" class="edge">
<title>Node1&#45;&gt;Node9</title>
<g id="a_edge9_Node000001_Node000009"><a xlink:title=" ">
<path fill="none" stroke="#63b8ff" d="M1091.97,-77.63C1078.53,-76.14 1064.75,-74.62 1051.98,-73.2"/>
<polygon fill="#63b8ff" stroke="#63b8ff" points="1091.32,-81.08 1101.65,-78.7 1092.09,-74.12 1091.32,-81.08"/>
</a>
</g>
</g>
<!-- Node18 -->
<g id="Node000018" class="node">
<title>Node18</title>
<g id="a_Node000018"><a xlink:href="../../d2/d5b/SDL__stdinc_8h.html#a117ef96171c9e25e3e71f5187797ffd3" target="_top" xlink:title=" ">
<polygon fill="white" stroke="#666666" points="1067.5,-115 922.5,-115 922.5,-95 1067.5,-95 1067.5,-115"/>
<text xml:space="preserve" text-anchor="middle" x="995" y="-101.5" font-family="Helvetica,sans-Serif" font-size="10.00">SDL_SetEnvironmentVariable</text>
</a>
</g>
</g>
<!-- Node1&#45;&gt;Node18 -->
<g id="edge19_Node000001_Node000018" class="edge">
<title>Node1&#45;&gt;Node18</title>
<g id="a_edge19_Node000001_Node000018"><a xlink:title=" ">
<path fill="none" stroke="#63b8ff" d="M1091.96,-94.37C1083.97,-95.25 1075.86,-96.15 1067.91,-97.03"/>
<polygon fill="#63b8ff" stroke="#63b8ff" points="1092.09,-97.88 1101.65,-93.3 1091.32,-90.92 1092.09,-97.88"/>
</a>
</g>
</g>
<!-- Node19 -->
<g id="Node000019" class="node">
<title>Node19</title>
<g id="a_Node000019"><a xlink:href="../../d1/def/unix_2SDL__sysurl_8c.html#ae62f93b5e31af1f224e3d591000f5078" target="_top" xlink:title=" ">
<polygon fill="white" stroke="#666666" points="1049.88,-39 940.12,-39 940.12,-19 1049.88,-19 1049.88,-39"/>
<text xml:space="preserve" text-anchor="middle" x="995" y="-25.5" font-family="Helvetica,sans-Serif" font-size="10.00">SDL_SYS_OpenURL</text>
</a>
</g>
</g>
<!-- Node1&#45;&gt;Node19 -->
<g id="edge22_Node000001_Node000019" class="edge">
<title>Node1&#45;&gt;Node19</title>
<g id="a_edge22_Node000001_Node000019"><a xlink:title=" ">
<path fill="none" stroke="#63b8ff" d="M1131.74,-71.38C1112.81,-63.91 1089.08,-54.95 1067.5,-48 1058.09,-44.97 1047.87,-42.04 1038.18,-39.43"/>
<polygon fill="#63b8ff" stroke="#63b8ff" points="1130.28,-74.57 1140.87,-75.02 1132.88,-68.07 1130.28,-74.57"/>
</a>
</g>
</g>
<!-- Node3 -->
<g id="Node000003" class="node">
<title>Node3</title>
<g id="a_Node000003"><a xlink:href="../../d1/dc1/SDL__zenitydialog_8c.html#aa53ebe0861f0f67603e759f7d1b694b1" target="_top" xlink:title=" ">
<polygon fill="white" stroke="#666666" points="740.75,-165 647.5,-165 647.5,-145 740.75,-145 740.75,-165"/>
<text xml:space="preserve" text-anchor="middle" x="694.12" y="-151.5" font-family="Helvetica,sans-Serif" font-size="10.00">run_zenity_thread</text>
</a>
</g>
</g>
<!-- Node2&#45;&gt;Node3 -->
<g id="edge2_Node000002_Node000003" class="edge">
<title>Node2&#45;&gt;Node3</title>
<g id="a_edge2_Node000002_Node000003"><a xlink:title=" ">
<path fill="none" stroke="#63b8ff" d="M789.65,-155C774.32,-155 756.8,-155 741.04,-155"/>
<polygon fill="#63b8ff" stroke="#63b8ff" points="789.38,-158.5 799.38,-155 789.38,-151.5 789.38,-158.5"/>
</a>
</g>
</g>
<!-- Node4 -->
<g id="Node000004" class="node">
<title>Node4</title>
<g id="a_Node000004"><a xlink:href="../../d1/dc1/SDL__zenitydialog_8c.html#adec0ab89b8e1608f083d6bde91db76f8" target="_top" xlink:title=" ">
<polygon fill="white" stroke="#666666" points="611.5,-171 470.25,-171 470.25,-139 611.5,-139 611.5,-171"/>
<text xml:space="preserve" text-anchor="start" x="478.25" y="-157.5" font-family="Helvetica,sans-Serif" font-size="10.00">SDL_Zenity_ShowFileDialog</text>
<text xml:space="preserve" text-anchor="middle" x="540.88" y="-145.5" font-family="Helvetica,sans-Serif" font-size="10.00">WithProperties</text>
</a>
</g>
</g>
<!-- Node3&#45;&gt;Node4 -->
<g id="edge3_Node000003_Node000004" class="edge">
<title>Node3&#45;&gt;Node4</title>
<g id="a_edge3_Node000003_Node000004"><a xlink:title=" ">
<path fill="none" stroke="#63b8ff" d="M636,-155C628.09,-155 619.9,-155 611.8,-155"/>
<polygon fill="#63b8ff" stroke="#63b8ff" points="635.82,-158.5 645.82,-155 635.82,-151.5 635.82,-158.5"/>
</a>
</g>
</g>
<!-- Node5 -->
<g id="Node000005" class="node">
<title>Node5</title>
<g id="a_Node000005"><a xlink:href="../../d4/d8b/SDL__unixdialog_8c.html#ab2f9e0de0e94da023d667425d1320a1d" target="_top" xlink:title=" ">
<polygon fill="white" stroke="#666666" points="430.5,-165 301.25,-165 301.25,-145 430.5,-145 430.5,-165"/>
<text xml:space="preserve" text-anchor="middle" x="365.88" y="-151.5" font-family="Helvetica,sans-Serif" font-size="10.00">detect_available_methods</text>
</a>
</g>
</g>
<!-- Node4&#45;&gt;Node5 -->
<g id="edge4_Node000004_Node000005" class="edge">
<title>Node4&#45;&gt;Node5</title>
<g id="a_edge4_Node000004_Node000005"><a xlink:title=" ">
<path fill="none" stroke="#63b8ff" d="M458.69,-155C449.35,-155 439.92,-155 430.85,-155"/>
<polygon fill="#63b8ff" stroke="#63b8ff" points="458.49,-158.5 468.49,-155 458.49,-151.5 458.49,-158.5"/>
</a>
</g>
</g>
<!-- Node6 -->
<g id="Node000006" class="node">
<title>Node6</title>
<g id="a_Node000006"><a xlink:href="../../d4/d8b/SDL__unixdialog_8c.html#a925198d8e6633242b15a3b0e250a60c8" target="_top" xlink:title=" ">
<polygon fill="white" stroke="#666666" points="220.62,-209 147.62,-209 147.62,-189 220.62,-189 220.62,-209"/>
<text xml:space="preserve" text-anchor="middle" x="184.12" y="-195.5" font-family="Helvetica,sans-Serif" font-size="10.00">hint_callback</text>
</a>
</g>
</g>
<!-- Node5&#45;&gt;Node6 -->
<g id="edge5_Node000005_Node000006" class="edge">
<title>Node5&#45;&gt;Node6</title>
<g id="a_edge5_Node000005_Node000006"><a xlink:title=" ">
<path fill="none" stroke="#63b8ff" d="M311.43,-168.08C282.26,-175.22 246.93,-183.87 221.06,-190.2"/>
<polygon fill="#63b8ff" stroke="#63b8ff" points="311.93,-171.56 320.81,-165.79 310.26,-164.77 311.93,-171.56"/>
</a>
</g>
</g>
<!-- Node8 -->
<g id="Node000008" class="node">
<title>Node8</title>
<g id="a_Node000008"><a xlink:href="../../d4/d8b/SDL__unixdialog_8c.html#ac5e36f40c4a1019ab9545659a3637e8d" target="_top" xlink:title=" ">
<polygon fill="white" stroke="#666666" points="261.5,-171 106.75,-171 106.75,-139 261.5,-139 261.5,-171"/>
<text xml:space="preserve" text-anchor="start" x="114.75" y="-157.5" font-family="Helvetica,sans-Serif" font-size="10.00">SDL_SYS_ShowFileDialogWith</text>
<text xml:space="preserve" text-anchor="middle" x="184.12" y="-145.5" font-family="Helvetica,sans-Serif" font-size="10.00">Properties</text>
</a>
</g>
</g>
<!-- Node5&#45;&gt;Node8 -->
<g id="edge8_Node000005_Node000008" class="edge">
<title>Node5&#45;&gt;Node8</title>
<g id="a_edge8_Node000005_Node000008"><a xlink:title=" ">
<path fill="none" stroke="#63b8ff" d="M289.5,-155C280.31,-155 270.92,-155 261.72,-155"/>
<polygon fill="#63b8ff" stroke="#63b8ff" points="289.48,-158.5 299.48,-155 289.48,-151.5 289.48,-158.5"/>
</a>
</g>
</g>
<!-- Node7 -->
<g id="Node000007" class="node">
<title>Node7</title>
<g id="a_Node000007"><a xlink:href="../../d4/d8b/SDL__unixdialog_8c.html#a01eadec5086a813f0c8c2bc6baa38150" target="_top" xlink:title=" ">
<polygon fill="white" stroke="#666666" points="70.75,-165 0,-165 0,-145 70.75,-145 70.75,-165"/>
<text xml:space="preserve" text-anchor="middle" x="35.38" y="-151.5" font-family="Helvetica,sans-Serif" font-size="10.00">set_callback</text>
</a>
</g>
</g>
<!-- Node6&#45;&gt;Node7 -->
<g id="edge6_Node000006_Node000007" class="edge">
<title>Node6&#45;&gt;Node7</title>
<g id="a_edge6_Node000006_Node000007"><a xlink:title=" ">
<path fill="none" stroke="#63b8ff" d="M136.02,-188.05C126.3,-185.57 116.15,-182.83 106.75,-180 92.47,-175.7 76.82,-170.22 63.91,-165.48"/>
<polygon fill="#63b8ff" stroke="#63b8ff" points="135.16,-191.44 145.71,-190.46 136.85,-184.65 135.16,-191.44"/>
</a>
</g>
</g>
<!-- Node7&#45;&gt;Node5 -->
<g id="edge7_Node000007_Node000005" class="edge">
<title>Node7&#45;&gt;Node5</title>
<g id="a_edge7_Node000007_Node000005"><a xlink:title=" ">
<path fill="none" stroke="#63b8ff" d="M69.75,-140.52C81.25,-136.24 94.36,-132.14 106.75,-130 174.53,-118.32 193.21,-121.86 261.5,-130 284.97,-132.8 310.81,-139.05 330.79,-144.6"/>
<polygon fill="#63b8ff" stroke="#63b8ff" points="68.74,-137.16 60.71,-144.06 71.29,-143.68 68.74,-137.16"/>
</a>
</g>
</g>
<!-- Node10 -->
<g id="Node000010" class="node">
<title>Node10</title>
<g id="a_Node000010"><a xlink:href="../../df/d78/SDL_8c.html#a652101eb891907f7e2d79adad7e59a6e" target="_top" xlink:title=" ">
<polygon fill="white" stroke="#666666" points="886.5,-77 776.75,-77 776.75,-57 886.5,-57 886.5,-77"/>
<text xml:space="preserve" text-anchor="middle" x="831.62" y="-63.5" font-family="Helvetica,sans-Serif" font-size="10.00">SDL_QuitMainThread</text>
</a>
</g>
</g>
<!-- Node9&#45;&gt;Node10 -->
<g id="edge10_Node000009_Node000010" class="edge">
<title>Node9&#45;&gt;Node10</title>
<g id="a_edge10_Node000009_Node000010"><a xlink:title=" ">
<path fill="none" stroke="#63b8ff" d="M926.55,-67C913.32,-67 899.61,-67 886.88,-67"/>
<polygon fill="#63b8ff" stroke="#63b8ff" points="926.5,-70.5 936.5,-67 926.5,-63.5 926.5,-70.5"/>
</a>
</g>
</g>
<!-- Node11 -->
<g id="Node000011" class="node">
<title>Node11</title>
<g id="a_Node000011"><a xlink:href="../../df/d78/SDL_8c.html#abf064fcc4a657a30db8eace18633f362" target="_top" xlink:title=" ">
<polygon fill="white" stroke="#666666" points="723.5,-77 664.75,-77 664.75,-57 723.5,-57 723.5,-77"/>
<text xml:space="preserve" text-anchor="middle" x="694.12" y="-63.5" font-family="Helvetica,sans-Serif" font-size="10.00">SDL_Quit</text>
</a>
</g>
</g>
<!-- Node10&#45;&gt;Node11 -->
<g id="edge11_Node000010_Node000011" class="edge">
<title>Node10&#45;&gt;Node11</title>
<g id="a_edge11_Node000010_Node000011"><a xlink:title=" ">
<path fill="none" stroke="#63b8ff" d="M764.8,-67C750.37,-67 735.83,-67 723.79,-67"/>
<polygon fill="#63b8ff" stroke="#63b8ff" points="764.78,-70.5 774.78,-67 764.78,-63.5 764.78,-70.5"/>
</a>
</g>
</g>
<!-- Node12 -->
<g id="Node000012" class="node">
<title>Node12</title>
<g id="a_Node000012"><a xlink:href="../../de/daf/classCSDLmain.html#a73bd9c42ac6916974009e508257e44ff" target="_top" xlink:title=" ">
<polygon fill="white" stroke="#666666" points="587.5,-115 494.25,-115 494.25,-95 587.5,-95 587.5,-115"/>
<text xml:space="preserve" text-anchor="middle" x="540.88" y="-101.5" font-family="Helvetica,sans-Serif" font-size="10.00">CSDLmain::RunL</text>
</a>
</g>
</g>
<!-- Node11&#45;&gt;Node12 -->
<g id="edge12_Node000011_Node000012" class="edge">
<title>Node11&#45;&gt;Node12</title>
<g id="a_edge12_Node000011_Node000012"><a xlink:title=" ">
<path fill="none" stroke="#63b8ff" d="M653.26,-77.02C631.74,-82.42 605.21,-89.09 583.43,-94.56"/>
<polygon fill="#63b8ff" stroke="#63b8ff" points="654.01,-80.44 662.85,-74.61 652.3,-73.65 654.01,-80.44"/>
</a>
</g>
</g>
<!-- Node13 -->
<g id="Node000013" class="node">
<title>Node13</title>
<g id="a_Node000013"><a xlink:href="../../d3/d6c/SDL__assert_8c.html#af146e7f66c4e41a24337c5b6943af0b0" target="_top" xlink:title=" ">
<polygon fill="white" stroke="#666666" points="593.5,-77 488.25,-77 488.25,-57 593.5,-57 593.5,-77"/>
<text xml:space="preserve" text-anchor="middle" x="540.88" y="-63.5" font-family="Helvetica,sans-Serif" font-size="10.00">SDL_AbortAssertion</text>
</a>
</g>
</g>
<!-- Node11&#45;&gt;Node13 -->
<g id="edge13_Node000011_Node000013" class="edge">
<title>Node11&#45;&gt;Node13</title>
<g id="a_edge13_Node000011_Node000013"><a xlink:title=" ">
<path fill="none" stroke="#63b8ff" d="M652.97,-67C634.84,-67 613.19,-67 593.84,-67"/>
<polygon fill="#63b8ff" stroke="#63b8ff" points="652.81,-70.5 662.81,-67 652.81,-63.5 652.81,-70.5"/>
</a>
</g>
</g>
<!-- Node15 -->
<g id="Node000015" class="node">
<title>Node15</title>
<g id="a_Node000015"><a xlink:href="../../d9/d78/SDL__main__callbacks_8c.html#a2e8bd250bb597fdf72c9da9d001181e7" target="_top" xlink:title=" ">
<polygon fill="white" stroke="#666666" points="602.5,-39 479.25,-39 479.25,-19 602.5,-19 602.5,-39"/>
<text xml:space="preserve" text-anchor="middle" x="540.88" y="-25.5" font-family="Helvetica,sans-Serif" font-size="10.00">SDL_QuitMainCallbacks</text>
</a>
</g>
</g>
<!-- Node11&#45;&gt;Node15 -->
<g id="edge15_Node000011_Node000015" class="edge">
<title>Node11&#45;&gt;Node15</title>
<g id="a_edge15_Node000011_Node000015"><a xlink:title=" ">
<path fill="none" stroke="#63b8ff" d="M653.26,-56.98C631.74,-51.58 605.21,-44.91 583.43,-39.44"/>
<polygon fill="#63b8ff" stroke="#63b8ff" points="652.3,-60.35 662.85,-59.39 654.01,-53.56 652.3,-60.35"/>
</a>
</g>
</g>
<!-- Node14 -->
<g id="Node000014" class="node">
<title>Node14</title>
<g id="a_Node000014"><a xlink:href="../../d3/d6c/SDL__assert_8c.html#a0c9a208493d6e9212cff2ab400242102" target="_top" xlink:title=" ">
<polygon fill="white" stroke="#666666" points="421.5,-77 310.25,-77 310.25,-57 421.5,-57 421.5,-77"/>
<text xml:space="preserve" text-anchor="middle" x="365.88" y="-63.5" font-family="Helvetica,sans-Serif" font-size="10.00">SDL_ReportAssertion</text>
</a>
</g>
</g>
<!-- Node13&#45;&gt;Node14 -->
<g id="edge14_Node000013_Node000014" class="edge">
<title>Node13&#45;&gt;Node14</title>
<g id="a_edge14_Node000013_Node000014"><a xlink:title=" ">
<path fill="none" stroke="#63b8ff" d="M476.68,-67C458.68,-67 439.22,-67 421.75,-67"/>
<polygon fill="#63b8ff" stroke="#63b8ff" points="476.46,-70.5 486.46,-67 476.46,-63.5 476.46,-70.5"/>
</a>
</g>
</g>
<!-- Node16 -->
<g id="Node000016" class="node">
<title>Node16</title>
<g id="a_Node000016"><a xlink:href="../../d0/d72/emscripten_2SDL__sysmain__callbacks_8c.html#ad2e127e4f44ae815197361e79da5bf88" target="_top" xlink:title=" ">
<polygon fill="white" stroke="#666666" points="434.25,-39 297.5,-39 297.5,-19 434.25,-19 434.25,-39"/>
<text xml:space="preserve" text-anchor="middle" x="365.88" y="-25.5" font-family="Helvetica,sans-Serif" font-size="10.00">EmscriptenInternalMainloop</text>
</a>
</g>
</g>
<!-- Node15&#45;&gt;Node16 -->
<g id="edge16_Node000015_Node000016" class="edge">
<title>Node15&#45;&gt;Node16</title>
<g id="a_edge16_Node000015_Node000016"><a xlink:title=" ">
<path fill="none" stroke="#63b8ff" d="M467.65,-29C456.73,-29 445.5,-29 434.68,-29"/>
<polygon fill="#63b8ff" stroke="#63b8ff" points="467.37,-32.5 477.37,-29 467.37,-25.5 467.37,-32.5"/>
</a>
</g>
</g>
<!-- Node17 -->
<g id="Node000017" class="node">
<title>Node17</title>
<g id="a_Node000017"><a xlink:href="../../dd/db5/generic_2SDL__sysmain__callbacks_8c.html#aa50e1897a91f2547b5f31125020220e2" target="_top" xlink:title=" ">
<polygon fill="white" stroke="#666666" points="257,-20 111.25,-20 111.25,0 257,0 257,-20"/>
<text xml:space="preserve" text-anchor="middle" x="184.12" y="-6.5" font-family="Helvetica,sans-Serif" font-size="10.00">SDL_EnterAppMainCallbacks</text>
</a>
</g>
</g>
<!-- Node15&#45;&gt;Node17 -->
<g id="edge18_Node000015_Node000017" class="edge">
<title>Node15&#45;&gt;Node17</title>
<g id="a_edge18_Node000015_Node000017"><a xlink:title=" ">
<path fill="none" stroke="#63b8ff" d="M480.73,-16.45C465.65,-13.78 449.41,-11.35 434.25,-10 374.91,-4.71 307.3,-5.11 257.5,-6.61"/>
<polygon fill="#63b8ff" stroke="#63b8ff" points="480.05,-19.88 490.52,-18.25 481.32,-13 480.05,-19.88"/>
</a>
</g>
</g>
<!-- Node16&#45;&gt;Node17 -->
<g id="edge17_Node000016_Node000017" class="edge">
<title>Node16&#45;&gt;Node17</title>
<g id="a_edge17_Node000016_Node000017"><a xlink:title=" ">
<path fill="none" stroke="#63b8ff" d="M285.73,-20.63C276.26,-19.63 266.63,-18.62 257.27,-17.63"/>
<polygon fill="#63b8ff" stroke="#63b8ff" points="285.36,-24.11 295.67,-21.68 286.09,-17.15 285.36,-24.11"/>
</a>
</g>
</g>
<!-- Node18&#45;&gt;Node2 -->
<g id="edge20_Node000018_Node000002" class="edge">
<title>Node18&#45;&gt;Node2</title>
<g id="a_edge20_Node000018_Node000002"><a xlink:title=" ">
<path fill="none" stroke="#63b8ff" d="M949.2,-118.88C921.59,-127.44 886.93,-138.17 862.61,-145.71"/>
<polygon fill="#63b8ff" stroke="#63b8ff" points="950.21,-122.23 958.72,-115.93 948.14,-115.55 950.21,-122.23"/>
</a>
</g>
</g>
<!-- Node18&#45;&gt;Node18 -->
<g id="edge21_Node000018_Node000018" class="edge">
<title>Node18&#45;&gt;Node18</title>
<g id="a_edge21_Node000018_Node000018"><a xlink:title=" ">
<path fill="none" stroke="#63b8ff" d="M1023.88,-126.44C1020.16,-130.3 1010.53,-133 995,-133 966.6,-133 957.95,-123.98 969.04,-115.34"/>
<polygon fill="#63b8ff" stroke="#63b8ff" points="1027.27,-125.58 1021.34,-116.8 1020.5,-127.36 1027.27,-125.58"/>
</a>
</g>
</g>
</g>
</svg>
