<?xml version="1.0" encoding="UTF-8" standalone="no"?>
<!DOCTYPE svg PUBLIC "-//W3C//DTD SVG 1.1//EN"
 "http://www.w3.org/Graphics/SVG/1.1/DTD/svg11.dtd">
<!-- Generated by graphviz version 13.1.0 (20250701.0955)
 -->
<!-- Title: SDL_isprint Pages: 1 -->
<svg width="509pt" height="66pt"
 viewBox="0.00 0.00 509.00 66.00" xmlns="http://www.w3.org/2000/svg" xmlns:xlink="http://www.w3.org/1999/xlink">
<g id="graph0" class="graph" transform="scale(1 1) rotate(0) translate(4 62)">
<title>SDL_isprint</title>
<!-- Node1 -->
<g id="Node000001" class="node">
<title>Node1</title>
<g id="a_Node000001"><a xlink:title=" ">
<polygon fill="#999999" stroke="#666666" points="501.25,-39 434.25,-39 434.25,-19 501.25,-19 501.25,-39"/>
<text xml:space="preserve" text-anchor="middle" x="467.75" y="-25.5" font-family="Helvetica,sans-Serif" font-size="10.00">SDL_isprint</text>
</a>
</g>
</g>
<!-- Node2 -->
<g id="Node000002" class="node">
<title>Node2</title>
<g id="a_Node000002"><a xlink:href="../../d3/d02/SDL__stdlib_8c.html#af4615ced79f5a6d9db0e1d981bd78d58" target="_top" xlink:title=" ">
<polygon fill="white" stroke="#666666" points="388.5,-58 316.25,-58 316.25,-38 388.5,-38 388.5,-58"/>
<text xml:space="preserve" text-anchor="middle" x="352.38" y="-44.5" font-family="Helvetica,sans-Serif" font-size="10.00">SDL_isgraph</text>
</a>
</g>
</g>
<!-- Node1&#45;&gt;Node2 -->
<g id="edge1_Node000001_Node000002" class="edge">
<title>Node1&#45;&gt;Node2</title>
<g id="a_edge1_Node000001_Node000002"><a xlink:title=" ">
<path fill="none" stroke="#63b8ff" d="M422.63,-36.39C411.44,-38.27 399.57,-40.26 388.87,-42.05"/>
<polygon fill="#63b8ff" stroke="#63b8ff" points="423.18,-39.85 432.46,-34.75 422.02,-32.95 423.18,-39.85"/>
</a>
</g>
</g>
<!-- Node4 -->
<g id="Node000004" class="node">
<title>Node4</title>
<g id="a_Node000004"><a xlink:href="../../d7/da0/SDL__wscons__kbd_8c.html#a49472edcab1c5099653ad47d5dcc7af6" target="_top" xlink:title=" ">
<polygon fill="white" stroke="#666666" points="398.25,-20 306.5,-20 306.5,0 398.25,0 398.25,-20"/>
<text xml:space="preserve" text-anchor="middle" x="352.38" y="-6.5" font-family="Helvetica,sans-Serif" font-size="10.00">Translate_to_text</text>
</a>
</g>
</g>
<!-- Node1&#45;&gt;Node4 -->
<g id="edge3_Node000001_Node000004" class="edge">
<title>Node1&#45;&gt;Node4</title>
<g id="a_edge3_Node000001_Node000004"><a xlink:title=" ">
<path fill="none" stroke="#63b8ff" d="M422.74,-21.63C414.87,-20.31 406.65,-18.93 398.74,-17.6"/>
<polygon fill="#63b8ff" stroke="#63b8ff" points="422.02,-25.05 432.46,-23.25 423.18,-18.15 422.02,-25.05"/>
</a>
</g>
</g>
<!-- Node3 -->
<g id="Node000003" class="node">
<title>Node3</title>
<g id="a_Node000003"><a xlink:href="../../d3/d02/SDL__stdlib_8c.html#a83428f39cb9b9a0ac6fd2fea15103edc" target="_top" xlink:title=" ">
<polygon fill="white" stroke="#666666" points="263.38,-58 191.12,-58 191.12,-38 263.38,-38 263.38,-58"/>
<text xml:space="preserve" text-anchor="middle" x="227.25" y="-44.5" font-family="Helvetica,sans-Serif" font-size="10.00">SDL_ispunct</text>
</a>
</g>
</g>
<!-- Node2&#45;&gt;Node3 -->
<g id="edge2_Node000002_Node000003" class="edge">
<title>Node2&#45;&gt;Node3</title>
<g id="a_edge2_Node000002_Node000003"><a xlink:title=" ">
<path fill="none" stroke="#63b8ff" d="M304.27,-48C290.83,-48 276.41,-48 263.78,-48"/>
<polygon fill="#63b8ff" stroke="#63b8ff" points="304.25,-51.5 314.25,-48 304.25,-44.5 304.25,-51.5"/>
</a>
</g>
</g>
<!-- Node5 -->
<g id="Node000005" class="node">
<title>Node5</title>
<g id="a_Node000005"><a xlink:href="../../d7/da0/SDL__wscons__kbd_8c.html#a700441e2ee60bd7d263d63f160698df3" target="_top" xlink:title=" ">
<polygon fill="white" stroke="#666666" points="270.5,-20 184,-20 184,0 270.5,0 270.5,-20"/>
<text xml:space="preserve" text-anchor="middle" x="227.25" y="-6.5" font-family="Helvetica,sans-Serif" font-size="10.00">updateKeyboard</text>
</a>
</g>
</g>
<!-- Node4&#45;&gt;Node5 -->
<g id="edge4_Node000004_Node000005" class="edge">
<title>Node4&#45;&gt;Node5</title>
<g id="a_edge4_Node000004_Node000005"><a xlink:title=" ">
<path fill="none" stroke="#63b8ff" d="M294.95,-10C286.88,-10 278.69,-10 270.94,-10"/>
<polygon fill="#63b8ff" stroke="#63b8ff" points="294.71,-13.5 304.71,-10 294.71,-6.5 294.71,-13.5"/>
</a>
</g>
</g>
<!-- Node6 -->
<g id="Node000006" class="node">
<title>Node6</title>
<g id="a_Node000006"><a xlink:href="../../d7/da0/SDL__wscons__kbd_8c.html#a8c541b9db4e4dab29285b65e025d386c" target="_top" xlink:title=" ">
<polygon fill="white" stroke="#666666" points="148,-20 0,-20 0,0 148,0 148,-20"/>
<text xml:space="preserve" text-anchor="middle" x="74" y="-6.5" font-family="Helvetica,sans-Serif" font-size="10.00">SDL_WSCONS_PumpEvents</text>
</a>
</g>
</g>
<!-- Node5&#45;&gt;Node6 -->
<g id="edge5_Node000005_Node000006" class="edge">
<title>Node5&#45;&gt;Node6</title>
<g id="a_edge5_Node000005_Node000006"><a xlink:title=" ">
<path fill="none" stroke="#63b8ff" d="M172.27,-10C164.54,-10 156.47,-10 148.43,-10"/>
<polygon fill="#63b8ff" stroke="#63b8ff" points="172.2,-13.5 182.2,-10 172.2,-6.5 172.2,-13.5"/>
</a>
</g>
</g>
</g>
</svg>
