<?xml version="1.0" encoding="UTF-8" standalone="no"?>
<!DOCTYPE svg PUBLIC "-//W3C//DTD SVG 1.1//EN"
 "http://www.w3.org/Graphics/SVG/1.1/DTD/svg11.dtd">
<!-- Generated by graphviz version 13.1.0 (20250701.0955)
 -->
<!-- Title: SDL_rand Pages: 1 -->
<svg width="354pt" height="66pt"
 viewBox="0.00 0.00 354.00 66.00" xmlns="http://www.w3.org/2000/svg" xmlns:xlink="http://www.w3.org/1999/xlink">

<svg id="main" version="1.1" xmlns="http://www.w3.org/2000/svg" xmlns:xlink="http://www.w3.org/1999/xlink" xml:space="preserve">

<style type="text/css"><![CDATA[
.node, .edge {opacity: 0.7;}
.node.selected, .edge.selected {opacity: 1;}
.edge:hover path { stroke: red; }
.edge:hover polygon { stroke: red; fill: red; }
]]></style>
<script type="application/ecmascript" xlink:href="../../svg.min.js"/>
<svg id="graph" class="graph">
<g id="graph0" class="graph" transform="scale(1 1) rotate(0) translate(4 62)">
<title>SDL_rand</title>
<!-- Node1 -->
<g id="Node000001" class="node">
<title>Node1</title>
<g id="a_Node000001"><a xlink:title=" ">
<polygon fill="#999999" stroke="#666666" points="59.5,-39 0,-39 0,-19 59.5,-19 59.5,-39"/>
<text xml:space="preserve" text-anchor="middle" x="29.75" y="-25.5" font-family="Helvetica,sans-Serif" font-size="10.00">SDL_rand</text>
</a>
</g>
</g>
<!-- Node2 -->
<g id="Node000002" class="node">
<title>Node2</title>
<g id="a_Node000002"><a xlink:href="../../d8/dcc/SDL__random_8c.html#a249326d3801aa39159ac962047ad0a61" target="_top" xlink:title=" ">
<polygon fill="white" stroke="#666666" points="163.25,-58 95.5,-58 95.5,-38 163.25,-38 163.25,-58"/>
<text xml:space="preserve" text-anchor="middle" x="129.38" y="-44.5" font-family="Helvetica,sans-Serif" font-size="10.00">SDL_rand_r</text>
</a>
</g>
</g>
<!-- Node1&#45;&gt;Node2 -->
<g id="edge1_Node000001_Node000002" class="edge">
<title>Node1&#45;&gt;Node2</title>
<g id="a_edge1_Node000001_Node000002"><a xlink:title=" ">
<path fill="none" stroke="#63b8ff" d="M59.78,-34.65C67.43,-36.14 75.86,-37.78 84.12,-39.39"/>
<polygon fill="#63b8ff" stroke="#63b8ff" points="83.21,-42.77 93.69,-41.25 84.54,-35.9 83.21,-42.77"/>
</a>
</g>
</g>
<!-- Node4 -->
<g id="Node000004" class="node">
<title>Node4</title>
<g id="a_Node000004"><a xlink:href="../../d8/dcc/SDL__random_8c.html#a67364819aa32b62555b07bb87604df45" target="_top" xlink:title=" ">
<polygon fill="white" stroke="#666666" points="161.75,-20 97,-20 97,0 161.75,0 161.75,-20"/>
<text xml:space="preserve" text-anchor="middle" x="129.38" y="-6.5" font-family="Helvetica,sans-Serif" font-size="10.00">SDL_srand</text>
</a>
</g>
</g>
<!-- Node1&#45;&gt;Node4 -->
<g id="edge3_Node000001_Node000004" class="edge">
<title>Node1&#45;&gt;Node4</title>
<g id="a_edge3_Node000001_Node000004"><a xlink:title=" ">
<path fill="none" stroke="#63b8ff" d="M59.78,-23.35C67.83,-21.78 76.74,-20.05 85.41,-18.36"/>
<polygon fill="#63b8ff" stroke="#63b8ff" points="85.93,-21.83 95.08,-16.48 84.59,-14.96 85.93,-21.83"/>
</a>
</g>
</g>
<!-- Node3 -->
<g id="Node000003" class="node">
<title>Node3</title>
<g id="a_Node000003"><a xlink:href="../../d8/dcc/SDL__random_8c.html#a67788715662e391c972f55b36207d2bb" target="_top" xlink:title=" ">
<polygon fill="white" stroke="#666666" points="316.88,-58 228.12,-58 228.12,-38 316.88,-38 316.88,-58"/>
<text xml:space="preserve" text-anchor="middle" x="272.5" y="-44.5" font-family="Helvetica,sans-Serif" font-size="10.00">SDL_rand_bits_r</text>
</a>
</g>
</g>
<!-- Node2&#45;&gt;Node3 -->
<g id="edge2_Node000002_Node000003" class="edge">
<title>Node2&#45;&gt;Node3</title>
<g id="a_edge2_Node000002_Node000003"><a xlink:title=" ">
<path fill="none" stroke="#63b8ff" d="M163.46,-48C179.17,-48 198.36,-48 216.19,-48"/>
<polygon fill="#63b8ff" stroke="#63b8ff" points="216.15,-51.5 226.15,-48 216.15,-44.5 216.15,-51.5"/>
</a>
</g>
</g>
<!-- Node5 -->
<g id="Node000005" class="node">
<title>Node5</title>
<g id="a_Node000005"><a xlink:href="../../d9/d1f/SDL__systimer_8cpp.html#a9f6c5acc801d79510f6fb45b8e9e16bd" target="_top" xlink:title=" ">
<polygon fill="white" stroke="#666666" points="345.75,-20 199.25,-20 199.25,0 345.75,0 345.75,-20"/>
<text xml:space="preserve" text-anchor="middle" x="272.5" y="-6.5" font-family="Helvetica,sans-Serif" font-size="10.00">SDL_GetPerformanceCounter</text>
</a>
</g>
</g>
<!-- Node4&#45;&gt;Node5 -->
<g id="edge4_Node000004_Node000005" class="edge">
<title>Node4&#45;&gt;Node5</title>
<g id="a_edge4_Node000004_Node000005"><a xlink:title=" ">
<path fill="none" stroke="#63b8ff" d="M162.05,-10C169.82,-10 178.5,-10 187.49,-10"/>
<polygon fill="#63b8ff" stroke="#63b8ff" points="187.48,-13.5 197.48,-10 187.48,-6.5 187.48,-13.5"/>
</a>
</g>
</g>
</g>
</svg>
</svg>

<style type='text/css'>
<![CDATA[
[data-mouse-over-selected='false'] { opacity: 0.7; }
[data-mouse-over-selected='true']  { opacity: 1.0; }
]]>
</style>
<script type="application/ecmascript"><![CDATA[
document.addEventListener('DOMContentLoaded', (event) => {
  highlightEdges();
  highlightAdjacentNodes();
});
]]></script>
</svg>
