<?xml version="1.0" encoding="UTF-8" standalone="no"?>
<!DOCTYPE svg PUBLIC "-//W3C//DTD SVG 1.1//EN"
 "http://www.w3.org/Graphics/SVG/1.1/DTD/svg11.dtd">
<!-- Generated by graphviz version 13.1.0 (20250701.0955)
 -->
<!-- Title: VkCommandBufferInheritanceRenderPassTransformInfoQCOM Pages: 1 -->
<svg width="170pt" height="188pt"
 viewBox="0.00 0.00 170.00 188.00" xmlns="http://www.w3.org/2000/svg" xmlns:xlink="http://www.w3.org/1999/xlink">
<g id="graph0" class="graph" transform="scale(1 1) rotate(0) translate(4 184)">
<title>VkCommandBufferInheritanceRenderPassTransformInfoQCOM</title>
<!-- Node1 -->
<g id="Node000001" class="node">
<title>Node1</title>
<g id="a_Node000001"><a xlink:title=" ">
<polygon fill="#999999" stroke="#666666" points="161.5,-32 0,-32 0,0 161.5,0 161.5,-32"/>
<text xml:space="preserve" text-anchor="start" x="8" y="-18.5" font-family="Helvetica,sans-Serif" font-size="10.00">VkCommandBufferInheritance</text>
<text xml:space="preserve" text-anchor="middle" x="80.75" y="-6.5" font-family="Helvetica,sans-Serif" font-size="10.00">RenderPassTransformInfoQCOM</text>
</a>
</g>
</g>
<!-- Node2 -->
<g id="Node000002" class="node">
<title>Node2</title>
<g id="a_Node000002"><a xlink:href="../../d7/d2d/structVkRect2D.html" target="_top" xlink:title=" ">
<polygon fill="white" stroke="#666666" points="111.62,-106 49.88,-106 49.88,-86 111.62,-86 111.62,-106"/>
<text xml:space="preserve" text-anchor="middle" x="80.75" y="-92.5" font-family="Helvetica,sans-Serif" font-size="10.00">VkRect2D</text>
</a>
</g>
</g>
<!-- Node2&#45;&gt;Node1 -->
<g id="edge1_Node000001_Node000002" class="edge">
<title>Node2&#45;&gt;Node1</title>
<g id="a_edge1_Node000001_Node000002"><a xlink:title=" ">
<path fill="none" stroke="#9a32cd" stroke-dasharray="5,2" d="M80.75,-74.51C80.75,-61.32 80.75,-44.47 80.75,-32.42"/>
<polygon fill="#9a32cd" stroke="#9a32cd" points="77.25,-74.23 80.75,-84.23 84.25,-74.23 77.25,-74.23"/>
</a>
</g>
<text xml:space="preserve" text-anchor="start" x="83.75" y="-55.5" font-family="Helvetica,sans-Serif" font-size="10.00" fill="grey">renderArea</text>
</g>
<!-- Node3 -->
<g id="Node000003" class="node">
<title>Node3</title>
<g id="a_Node000003"><a xlink:href="../../d6/d3e/structVkOffset2D.html" target="_top" xlink:title=" ">
<polygon fill="white" stroke="#666666" points="71.25,-180 4.25,-180 4.25,-160 71.25,-160 71.25,-180"/>
<text xml:space="preserve" text-anchor="middle" x="37.75" y="-166.5" font-family="Helvetica,sans-Serif" font-size="10.00">VkOffset2D</text>
</a>
</g>
</g>
<!-- Node3&#45;&gt;Node2 -->
<g id="edge2_Node000002_Node000003" class="edge">
<title>Node3&#45;&gt;Node2</title>
<g id="a_edge2_Node000002_Node000003"><a xlink:title=" ">
<path fill="none" stroke="#9a32cd" stroke-dasharray="5,2" d="M49.18,-149.86C57.62,-135.74 68.72,-117.14 75.26,-106.19"/>
<polygon fill="#9a32cd" stroke="#9a32cd" points="46.27,-147.91 44.15,-158.29 52.28,-151.5 46.27,-147.91"/>
</a>
</g>
<text xml:space="preserve" text-anchor="start" x="67.37" y="-129.5" font-family="Helvetica,sans-Serif" font-size="10.00" fill="grey">offset</text>
</g>
<!-- Node4 -->
<g id="Node000004" class="node">
<title>Node4</title>
<g id="a_Node000004"><a xlink:href="../../d1/d79/structVkExtent2D.html" target="_top" xlink:title=" ">
<polygon fill="white" stroke="#666666" points="158.38,-180 89.12,-180 89.12,-160 158.38,-160 158.38,-180"/>
<text xml:space="preserve" text-anchor="middle" x="123.75" y="-166.5" font-family="Helvetica,sans-Serif" font-size="10.00">VkExtent2D</text>
</a>
</g>
</g>
<!-- Node4&#45;&gt;Node2 -->
<g id="edge3_Node000002_Node000004" class="edge">
<title>Node4&#45;&gt;Node2</title>
<g id="a_edge3_Node000002_Node000004"><a xlink:title=" ">
<path fill="none" stroke="#9a32cd" stroke-dasharray="5,2" d="M113.46,-149.67C109.07,-141.65 103.8,-132.29 98.75,-124 95.11,-118.04 90.78,-111.51 87.27,-106.38"/>
<polygon fill="#9a32cd" stroke="#9a32cd" points="110.25,-151.09 118.08,-158.23 116.41,-147.77 110.25,-151.09"/>
</a>
</g>
<text xml:space="preserve" text-anchor="start" x="111.72" y="-129.5" font-family="Helvetica,sans-Serif" font-size="10.00" fill="grey">extent</text>
</g>
</g>
</svg>
