<?xml version="1.0" encoding="UTF-8" standalone="no"?>
<!DOCTYPE svg PUBLIC "-//W3C//DTD SVG 1.1//EN"
 "http://www.w3.org/Graphics/SVG/1.1/DTD/svg11.dtd">
<!-- Generated by graphviz version 13.1.0 (20250701.0955)
 -->
<!-- Title: SDL_Camera Pages: 1 -->
<!--zoomable 686 -->

<svg id="main" version="1.1" xmlns="http://www.w3.org/2000/svg" xmlns:xlink="http://www.w3.org/1999/xlink" xml:space="preserve" onload="init(evt)">

<style type="text/css"><![CDATA[
.node, .edge {opacity: 0.7;}
.node.selected, .edge.selected {opacity: 1;}
.edge:hover path { stroke: red; }
.edge:hover polygon { stroke: red; fill: red; }
]]></style>

<defs>
  <circle id="rim" cx="0" cy="0" r="7"/>
  <circle id="rim2" cx="0" cy="0" r="3.5"/>
  <g id="zoomPlus">
    <use xlink:href="#rim" fill="#404040"><set attributeName="fill" to="#808080" begin="zoomplus.mouseover" end="zoomplus.mouseout"/></use>
    <path d="M-4,0h8M0,-4v8" fill="none" stroke="white" stroke-width="1.5" pointer-events="none"/>
  </g>
  <g id="zoomMin">
    <use xlink:href="#rim" fill="#404040"><set attributeName="fill" to="#808080" begin="zoomminus.mouseover" end="zoomminus.mouseout"/></use>
    <path d="M-4,0h8" fill="none" stroke="white" stroke-width="1.5" pointer-events="none"/>
  </g>
  <g id="arrowUp" transform="translate(30 24)">
    <use xlink:href="#rim"/>
    <path pointer-events="none" fill="none" stroke="white" stroke-width="1.5" d="M0,-3.0v7 M-2.5,-0.5L0,-3.0L2.5,-0.5"/>
  </g>
  <g id="arrowRight" transform="rotate(90) translate(36 -43)">
    <use xlink:href="#rim"/>
    <path pointer-events="none" fill="none" stroke="white" stroke-width="1.5" d="M0,-3.0v7 M-2.5,-0.5L0,-3.0L2.5,-0.5"/>
  </g>
  <g id="arrowDown" transform="rotate(180) translate(-30 -48)">
    <use xlink:href="#rim"/>
    <path pointer-events="none" fill="none" stroke="white" stroke-width="1.5" d="M0,-3.0v7 M-2.5,-0.5L0,-3.0L2.5,-0.5"/>
  </g>
  <g id="arrowLeft" transform="rotate(270) translate(-36 17)">
    <use xlink:href="#rim"/>
    <path pointer-events="none" fill="none" stroke="white" stroke-width="1.5" d="M0,-3.0v7 M-2.5,-0.5L0,-3.0L2.5,-0.5"/>
  </g>
  <g id="resetDef">
    <use xlink:href="#rim2" fill="#404040"><set attributeName="fill" to="#808080" begin="reset.mouseover" end="reset.mouseout"/></use>
  </g>
</defs>
<script type="application/ecmascript">
var viewWidth = 671;
var viewHeight = 686;
var sectionId = 'dynsection-0';
</script>
<script type="application/ecmascript" xlink:href="../../svg.min.js"/>
<svg id="graph" class="graph">
<g id="viewport">
<title>SDL_Camera</title>
<!-- Node1 -->
<g id="Node000001" class="node">
<title>Node1</title>
<g id="a_Node000001"><a xlink:title=" ">
<polygon fill="#999999" stroke="#666666" points="443.62,-20 368.38,-20 368.38,0 443.62,0 443.62,-20"/>
<text xml:space="preserve" text-anchor="middle" x="406" y="-6.5" font-family="Helvetica,sans-Serif" font-size="10.00">SDL_Camera</text>
</a>
</g>
</g>
<!-- Node2 -->
<g id="Node000002" class="node">
<title>Node2</title>
<g id="a_Node000002"><a xlink:href="../../d0/df2/structSDL__Mutex.html" target="_top" xlink:title=" ">
<polygon fill="white" stroke="#666666" points="121.88,-678 54.12,-678 54.12,-658 121.88,-658 121.88,-678"/>
<text xml:space="preserve" text-anchor="middle" x="88" y="-664.5" font-family="Helvetica,sans-Serif" font-size="10.00">SDL_Mutex</text>
</a>
</g>
</g>
<!-- Node2&#45;&gt;Node1 -->
<g id="edge1_Node000001_Node000002" class="edge">
<title>Node2&#45;&gt;Node1</title>
<g id="a_edge1_Node000001_Node000002"><a xlink:title=" ">
<path fill="none" stroke="#9a32cd" stroke-dasharray="5,2" d="M43.21,-655.2C35.02,-651.41 27.13,-646.46 21,-640 1.25,-619.21 0,-607.67 0,-579 0,-579 0,-579 0,-138 0,-61.28 267.38,-25.44 368.17,-14.66"/>
<polygon fill="#9a32cd" stroke="#9a32cd" points="41.66,-658.34 52.25,-658.83 44.27,-651.85 41.66,-658.34"/>
</a>
</g>
<text xml:space="preserve" text-anchor="start" x="3" y="-357.5" font-family="Helvetica,sans-Serif" font-size="10.00" fill="grey">lock</text>
</g>
<!-- Node3 -->
<g id="Node000003" class="node">
<title>Node3</title>
<g id="a_Node000003"><a xlink:href="../../d8/d0b/structSDL__Semaphore.html" target="_top" xlink:title=" ">
<polygon fill="white" stroke="#666666" points="118.12,-588 27.88,-588 27.88,-568 118.12,-568 118.12,-588"/>
<text xml:space="preserve" text-anchor="middle" x="73" y="-574.5" font-family="Helvetica,sans-Serif" font-size="10.00">SDL_Semaphore</text>
</a>
</g>
</g>
<!-- Node2&#45;&gt;Node3 -->
<g id="edge3_Node000003_Node000002" class="edge">
<title>Node2&#45;&gt;Node3</title>
<g id="a_edge3_Node000003_Node000002"><a xlink:title=" ">
<path fill="none" stroke="#9a32cd" stroke-dasharray="5,2" d="M43.87,-652.87C38.68,-649.45 34.06,-645.22 30.75,-640 22.66,-627.24 23.49,-619.25 30.75,-606 34.93,-598.37 42.29,-592.58 49.71,-588.35"/>
<polygon fill="#9a32cd" stroke="#9a32cd" points="41.89,-655.78 52.35,-657.48 45.24,-649.63 41.89,-655.78"/>
</a>
</g>
<text xml:space="preserve" text-anchor="start" x="33.75" y="-619.5" font-family="Helvetica,sans-Serif" font-size="10.00" fill="grey">count_lock</text>
</g>
<!-- Node15 -->
<g id="Node000015" class="node">
<title>Node15</title>
<g id="a_Node000015"><a xlink:href="../../db/ddc/structSDL__RWLock.html" target="_top" xlink:title=" ">
<polygon fill="white" stroke="#666666" points="398.12,-588 319.88,-588 319.88,-568 398.12,-568 398.12,-588"/>
<text xml:space="preserve" text-anchor="middle" x="359" y="-574.5" font-family="Helvetica,sans-Serif" font-size="10.00">SDL_RWLock</text>
</a>
</g>
</g>
<!-- Node2&#45;&gt;Node15 -->
<g id="edge21_Node000015_Node000002" class="edge">
<title>Node2&#45;&gt;Node15</title>
<g id="a_edge21_Node000015_Node000002"><a xlink:title=" ">
<path fill="none" stroke="#9a32cd" stroke-dasharray="5,2" d="M133.58,-659.43C175.96,-652.29 233.26,-642.35 238,-640 258.01,-630.07 255.7,-617.23 275,-606 288.64,-598.06 304.9,-592.14 319.46,-587.9"/>
<polygon fill="#9a32cd" stroke="#9a32cd" points="133.13,-655.96 123.85,-661.06 134.29,-662.86 133.13,-655.96"/>
</a>
</g>
<text xml:space="preserve" text-anchor="start" x="278" y="-619.5" font-family="Helvetica,sans-Serif" font-size="10.00" fill="grey">lock</text>
</g>
<!-- Node3&#45;&gt;Node2 -->
<g id="edge2_Node000002_Node000003" class="edge">
<title>Node3&#45;&gt;Node2</title>
<g id="a_edge2_Node000002_Node000003"><a xlink:title=" ">
<path fill="none" stroke="#9a32cd" stroke-dasharray="5,2" d="M85.29,-598.46C86.39,-600.92 87.34,-603.47 88,-606 92.62,-623.84 90.96,-645.61 89.42,-657.72"/>
<polygon fill="#9a32cd" stroke="#9a32cd" points="88.43,-596.91 80.56,-589.82 82.29,-600.27 88.43,-596.91"/>
</a>
</g>
<text xml:space="preserve" text-anchor="start" x="94.02" y="-619.5" font-family="Helvetica,sans-Serif" font-size="10.00" fill="grey">sem</text>
</g>
<!-- Node4 -->
<g id="Node000004" class="node">
<title>Node4</title>
<g id="a_Node000004"><a xlink:href="../../d0/d07/structSDL__Condition.html" target="_top" xlink:title=" ">
<polygon fill="white" stroke="#666666" points="237,-678 155,-678 155,-658 237,-658 237,-678"/>
<text xml:space="preserve" text-anchor="middle" x="196" y="-664.5" font-family="Helvetica,sans-Serif" font-size="10.00">SDL_Condition</text>
</a>
</g>
</g>
<!-- Node4&#45;&gt;Node3 -->
<g id="edge4_Node000003_Node000004" class="edge">
<title>Node4&#45;&gt;Node3</title>
<g id="a_edge4_Node000003_Node000004"><a xlink:title=" ">
<path fill="none" stroke="#9a32cd" stroke-dasharray="5,2" d="M176.93,-650.32C161.93,-637.54 140.25,-619.82 120,-606 110.67,-599.63 99.76,-593.3 90.8,-588.37"/>
<polygon fill="#9a32cd" stroke="#9a32cd" points="174.33,-652.7 184.19,-656.57 178.89,-647.39 174.33,-652.7"/>
</a>
</g>
<text xml:space="preserve" text-anchor="start" x="167.12" y="-619.5" font-family="Helvetica,sans-Serif" font-size="10.00" fill="grey">count_nonzero</text>
</g>
<!-- Node4&#45;&gt;Node15 -->
<g id="edge22_Node000015_Node000004" class="edge">
<title>Node4&#45;&gt;Node15</title>
<g id="a_edge22_Node000015_Node000004"><a xlink:title=" ">
<path fill="none" stroke="#9a32cd" stroke-dasharray="5,2" d="M248.62,-661.34C267.02,-657.47 287.04,-650.96 303,-640 318.25,-629.53 314.5,-619.63 327,-606 332.9,-599.57 340.3,-593.24 346.49,-588.32"/>
<polygon fill="#9a32cd" stroke="#9a32cd" points="248.1,-657.88 238.91,-663.15 249.38,-664.76 248.1,-657.88"/>
</a>
</g>
<text xml:space="preserve" text-anchor="start" x="330" y="-619.5" font-family="Helvetica,sans-Serif" font-size="10.00" fill="grey">condition</text>
</g>
<!-- Node5 -->
<g id="Node000005" class="node">
<title>Node5</title>
<g id="a_Node000005"><a xlink:href="../../d1/dbc/structSDL__AtomicInt.html" target="_top" xlink:title=" ">
<polygon fill="white" stroke="#666666" points="513.38,-678 430.62,-678 430.62,-658 513.38,-658 513.38,-678"/>
<text xml:space="preserve" text-anchor="middle" x="472" y="-664.5" font-family="Helvetica,sans-Serif" font-size="10.00">SDL_AtomicInt</text>
</a>
</g>
</g>
<!-- Node5&#45;&gt;Node1 -->
<g id="edge5_Node000001_Node000005" class="edge">
<title>Node5&#45;&gt;Node1</title>
<g id="a_edge5_Node000001_Node000005"><a xlink:title=" ">
<path fill="none" stroke="#9a32cd" stroke-dasharray="5,2" d="M472.73,-646.48C473.3,-628.64 474,-602.12 474,-579 474,-579 474,-579 474,-138 474,-93.12 486.19,-74.44 460,-38 454.37,-30.17 445.82,-24.48 437.16,-20.4"/>
<polygon fill="#9a32cd" stroke="#9a32cd" points="469.24,-646.13 472.4,-656.24 476.24,-646.36 469.24,-646.13"/>
</a>
</g>
<text xml:space="preserve" text-anchor="start" x="477" y="-373.5" font-family="Helvetica,sans-Serif" font-size="10.00" fill="grey">refcount</text>
<text xml:space="preserve" text-anchor="start" x="477" y="-357.5" font-family="Helvetica,sans-Serif" font-size="10.00" fill="grey">shutdown</text>
<text xml:space="preserve" text-anchor="start" x="477" y="-341.5" font-family="Helvetica,sans-Serif" font-size="10.00" fill="grey">zombie</text>
</g>
<!-- Node5&#45;&gt;Node15 -->
<g id="edge23_Node000015_Node000005" class="edge">
<title>Node5&#45;&gt;Node15</title>
<g id="a_edge23_Node000015_Node000005"><a xlink:title=" ">
<path fill="none" stroke="#9a32cd" stroke-dasharray="5,2" d="M420.89,-653.49C412.65,-649.93 404.59,-645.5 397.75,-640 393.1,-636.27 374.01,-604.47 364.47,-588.33"/>
<polygon fill="#9a32cd" stroke="#9a32cd" points="419.35,-656.65 429.94,-657 421.89,-650.12 419.35,-656.65"/>
</a>
</g>
<text xml:space="preserve" text-anchor="start" x="400.75" y="-627.5" font-family="Helvetica,sans-Serif" font-size="10.00" fill="grey">reader_count</text>
<text xml:space="preserve" text-anchor="start" x="400.75" y="-611.5" font-family="Helvetica,sans-Serif" font-size="10.00" fill="grey">writer_count</text>
</g>
<!-- Node18 -->
<g id="Node000018" class="node">
<title>Node18</title>
<g id="a_Node000018"><a xlink:href="../../d4/d4a/structSDL__Thread.html" target="_top" xlink:title=" ">
<polygon fill="white" stroke="#666666" points="572.38,-588 501.62,-588 501.62,-568 572.38,-568 572.38,-588"/>
<text xml:space="preserve" text-anchor="middle" x="537" y="-574.5" font-family="Helvetica,sans-Serif" font-size="10.00">SDL_Thread</text>
</a>
</g>
</g>
<!-- Node5&#45;&gt;Node18 -->
<g id="edge29_Node000018_Node000005" class="edge">
<title>Node5&#45;&gt;Node18</title>
<g id="a_edge29_Node000018_Node000005"><a xlink:title=" ">
<path fill="none" stroke="#9a32cd" stroke-dasharray="5,2" d="M483.94,-648.04C491.87,-635.77 502.73,-619.61 513.25,-606 517.98,-599.88 523.7,-593.35 528.34,-588.25"/>
<polygon fill="#9a32cd" stroke="#9a32cd" points="481.04,-646.06 478.61,-656.38 486.94,-649.83 481.04,-646.06"/>
</a>
</g>
<text xml:space="preserve" text-anchor="start" x="516.25" y="-619.5" font-family="Helvetica,sans-Serif" font-size="10.00" fill="grey">state</text>
</g>
<!-- Node6 -->
<g id="Node000006" class="node">
<title>Node6</title>
<g id="a_Node000006"><a xlink:href="../../d9/d2b/structSDL__CameraSpec.html" target="_top" xlink:title=" ">
<polygon fill="white" stroke="#666666" points="662.88,-149 565.12,-149 565.12,-129 662.88,-129 662.88,-149"/>
<text xml:space="preserve" text-anchor="middle" x="614" y="-135.5" font-family="Helvetica,sans-Serif" font-size="10.00">SDL_CameraSpec</text>
</a>
</g>
</g>
<!-- Node6&#45;&gt;Node1 -->
<g id="edge6_Node000001_Node000006" class="edge">
<title>Node6&#45;&gt;Node1</title>
<g id="a_edge6_Node000001_Node000006"><a xlink:title=" ">
<path fill="none" stroke="#9a32cd" stroke-dasharray="5,2" d="M607.13,-118.14C598.06,-95.02 579.77,-57.53 551,-38 533.94,-26.42 480.99,-18.73 444.04,-14.61"/>
<polygon fill="#9a32cd" stroke="#9a32cd" points="603.78,-119.16 610.52,-127.33 610.34,-116.73 603.78,-119.16"/>
</a>
</g>
<text xml:space="preserve" text-anchor="start" x="603.01" y="-83.5" font-family="Helvetica,sans-Serif" font-size="10.00" fill="grey">actual_spec</text>
<text xml:space="preserve" text-anchor="start" x="603.01" y="-67.5" font-family="Helvetica,sans-Serif" font-size="10.00" fill="grey">all_specs</text>
<text xml:space="preserve" text-anchor="start" x="603.01" y="-51.5" font-family="Helvetica,sans-Serif" font-size="10.00" fill="grey">spec</text>
</g>
<!-- Node7 -->
<g id="Node000007" class="node">
<title>Node7</title>
<g id="a_Node000007"><a xlink:href="../../d0/de5/structSDL__Surface.html" target="_top" xlink:title=" ">
<polygon fill="white" stroke="#666666" points="278.25,-230 203.75,-230 203.75,-210 278.25,-210 278.25,-230"/>
<text xml:space="preserve" text-anchor="middle" x="241" y="-216.5" font-family="Helvetica,sans-Serif" font-size="10.00">SDL_Surface</text>
</a>
</g>
</g>
<!-- Node7&#45;&gt;Node1 -->
<g id="edge7_Node000001_Node000007" class="edge">
<title>Node7&#45;&gt;Node1</title>
<g id="a_edge7_Node000001_Node000007"><a xlink:title=" ">
<path fill="none" stroke="#9a32cd" stroke-dasharray="5,2" d="M230.4,-199.52C220.9,-179.26 210.16,-147.04 222.25,-122 250.04,-64.44 323.06,-34.18 368.24,-20.48"/>
<polygon fill="#9a32cd" stroke="#9a32cd" points="227.22,-200.99 234.85,-208.33 233.47,-197.83 227.22,-200.99"/>
</a>
</g>
<text xml:space="preserve" text-anchor="start" x="225.25" y="-143.5" font-family="Helvetica,sans-Serif" font-size="10.00" fill="grey">acquire_surface</text>
<text xml:space="preserve" text-anchor="start" x="225.25" y="-127.5" font-family="Helvetica,sans-Serif" font-size="10.00" fill="grey">conversion_surface</text>
</g>
<!-- Node7&#45;&gt;Node7 -->
<g id="edge11_Node000007_Node000007" class="edge">
<title>Node7&#45;&gt;Node7</title>
<g id="a_edge11_Node000007_Node000007"><a xlink:title=" ">
<path fill="none" stroke="#9a32cd" stroke-dasharray="5,2" d="M289.99,-225.27C293.86,-224.11 296.25,-222.36 296.25,-220 296.25,-215.81 288.69,-213.52 278.7,-213.12"/>
<polygon fill="#9a32cd" stroke="#9a32cd" points="289.61,-221.79 280.2,-226.66 290.59,-228.72 289.61,-221.79"/>
</a>
</g>
<text xml:space="preserve" text-anchor="start" x="299.25" y="-216.5" font-family="Helvetica,sans-Serif" font-size="10.00" fill="grey">images</text>
</g>
<!-- Node12 -->
<g id="Node000012" class="node">
<title>Node12</title>
<g id="a_Node000012"><a xlink:href="../../d5/da9/structSDL__BlitMap.html" target="_top" xlink:title=" ">
<polygon fill="white" stroke="#666666" points="361.88,-311 288.12,-311 288.12,-291 361.88,-291 361.88,-311"/>
<text xml:space="preserve" text-anchor="middle" x="325" y="-297.5" font-family="Helvetica,sans-Serif" font-size="10.00">SDL_BlitMap</text>
</a>
</g>
</g>
<!-- Node7&#45;&gt;Node12 -->
<g id="edge14_Node000012_Node000007" class="edge">
<title>Node7&#45;&gt;Node12</title>
<g id="a_edge14_Node000012_Node000007"><a xlink:title=" ">
<path fill="none" stroke="#9a32cd" stroke-dasharray="5,2" d="M271.22,-235.78C277.11,-239.35 283,-243.46 288,-248 301.95,-260.66 313.69,-279.44 320,-290.62"/>
<polygon fill="#9a32cd" stroke="#9a32cd" points="273.23,-232.89 262.79,-231.04 269.8,-238.99 273.23,-232.89"/>
</a>
</g>
<text xml:space="preserve" text-anchor="start" x="306.17" y="-253.5" font-family="Helvetica,sans-Serif" font-size="10.00" fill="grey">blit</text>
</g>
<!-- Node13 -->
<g id="Node000013" class="node">
<title>Node13</title>
<g id="a_Node000013"><a xlink:href="../../d0/d1d/structSDL__BlitInfo.html" target="_top" xlink:title=" ">
<polygon fill="white" stroke="#666666" points="292.75,-424 221.25,-424 221.25,-404 292.75,-404 292.75,-424"/>
<text xml:space="preserve" text-anchor="middle" x="257" y="-410.5" font-family="Helvetica,sans-Serif" font-size="10.00">SDL_BlitInfo</text>
</a>
</g>
</g>
<!-- Node7&#45;&gt;Node13 -->
<g id="edge16_Node000013_Node000007" class="edge">
<title>Node7&#45;&gt;Node13</title>
<g id="a_edge16_Node000013_Node000007"><a xlink:title=" ">
<path fill="none" stroke="#9a32cd" stroke-dasharray="5,2" d="M233.35,-240.94C229.07,-253.17 224.18,-269.25 222,-284 219.79,-298.95 219.35,-303.12 222,-318 227.83,-350.7 244.13,-386.9 252.26,-403.6"/>
<polygon fill="#9a32cd" stroke="#9a32cd" points="236.61,-242.21 236.77,-231.62 230.04,-239.8 236.61,-242.21"/>
</a>
</g>
<text xml:space="preserve" text-anchor="start" x="225" y="-305.5" font-family="Helvetica,sans-Serif" font-size="10.00" fill="grey">dst_surface</text>
<text xml:space="preserve" text-anchor="start" x="225" y="-289.5" font-family="Helvetica,sans-Serif" font-size="10.00" fill="grey">src_surface</text>
</g>
<!-- Node17 -->
<g id="Node000017" class="node">
<title>Node17</title>
<g id="a_Node000017"><a xlink:href="../../d2/d22/structSurfaceList.html" target="_top" xlink:title=" ">
<polygon fill="white" stroke="#666666" points="387.75,-149 322.25,-149 322.25,-129 387.75,-129 387.75,-149"/>
<text xml:space="preserve" text-anchor="middle" x="355" y="-135.5" font-family="Helvetica,sans-Serif" font-size="10.00">SurfaceList</text>
</a>
</g>
</g>
<!-- Node7&#45;&gt;Node17 -->
<g id="edge26_Node000017_Node000007" class="edge">
<title>Node7&#45;&gt;Node17</title>
<g id="a_edge26_Node000017_Node000007"><a xlink:title=" ">
<path fill="none" stroke="#9a32cd" stroke-dasharray="5,2" d="M263.97,-203.08C287.22,-186.97 322.39,-162.6 341.49,-149.36"/>
<polygon fill="#9a32cd" stroke="#9a32cd" points="261.99,-200.19 255.77,-208.77 265.98,-205.95 261.99,-200.19"/>
</a>
</g>
<text xml:space="preserve" text-anchor="start" x="307.83" y="-179.5" font-family="Helvetica,sans-Serif" font-size="10.00" fill="grey">surface</text>
</g>
<!-- Node8 -->
<g id="Node000008" class="node">
<title>Node8</title>
<g id="a_Node000008"><a xlink:href="../../d3/d2d/structSDL__PixelFormatDetails.html" target="_top" xlink:title=" ">
<polygon fill="white" stroke="#666666" points="446,-514 322,-514 322,-494 446,-494 446,-514"/>
<text xml:space="preserve" text-anchor="middle" x="384" y="-500.5" font-family="Helvetica,sans-Serif" font-size="10.00">SDL_PixelFormatDetails</text>
</a>
</g>
</g>
<!-- Node8&#45;&gt;Node7 -->
<g id="edge8_Node000007_Node000008" class="edge">
<title>Node8&#45;&gt;Node7</title>
<g id="a_edge8_Node000007_Node000008"><a xlink:title=" ">
<path fill="none" stroke="#9a32cd" stroke-dasharray="5,2" d="M388.06,-482.23C394.92,-441.56 404.97,-349.62 371,-284 353.36,-249.92 310.37,-234.08 278.63,-226.84"/>
<polygon fill="#9a32cd" stroke="#9a32cd" points="384.62,-481.59 386.27,-492.05 391.51,-482.84 384.62,-481.59"/>
</a>
</g>
<text xml:space="preserve" text-anchor="start" x="397.6" y="-357.5" font-family="Helvetica,sans-Serif" font-size="10.00" fill="grey">fmt</text>
</g>
<!-- Node8&#45;&gt;Node13 -->
<g id="edge17_Node000013_Node000008" class="edge">
<title>Node8&#45;&gt;Node13</title>
<g id="a_edge17_Node000013_Node000008"><a xlink:title=" ">
<path fill="none" stroke="#9a32cd" stroke-dasharray="5,2" d="M355.25,-487.82C349.88,-484.32 344.53,-480.34 340,-476 326.82,-463.39 330.96,-453.75 317,-442 308.08,-434.5 296.75,-428.69 286.34,-424.41"/>
<polygon fill="#9a32cd" stroke="#9a32cd" points="353.11,-490.62 363.49,-492.79 356.73,-484.63 353.11,-490.62"/>
</a>
</g>
<text xml:space="preserve" text-anchor="start" x="343" y="-463.5" font-family="Helvetica,sans-Serif" font-size="10.00" fill="grey">dst_fmt</text>
<text xml:space="preserve" text-anchor="start" x="343" y="-447.5" font-family="Helvetica,sans-Serif" font-size="10.00" fill="grey">src_fmt</text>
</g>
<!-- Node9 -->
<g id="Node000009" class="node">
<title>Node9</title>
<g id="a_Node000009"><a xlink:href="../../d4/da3/structSDL__Palette.html" target="_top" xlink:title=" ">
<polygon fill="white" stroke="#666666" points="198.75,-514 127.25,-514 127.25,-494 198.75,-494 198.75,-514"/>
<text xml:space="preserve" text-anchor="middle" x="163" y="-500.5" font-family="Helvetica,sans-Serif" font-size="10.00">SDL_Palette</text>
</a>
</g>
</g>
<!-- Node9&#45;&gt;Node7 -->
<g id="edge9_Node000007_Node000009" class="edge">
<title>Node9&#45;&gt;Node7</title>
<g id="a_edge9_Node000007_Node000009"><a xlink:title=" ">
<path fill="none" stroke="#9a32cd" stroke-dasharray="5,2" d="M164.32,-482.54C166.74,-450.74 172.93,-387.72 186.75,-336 197.63,-295.3 201.91,-285.03 222,-248 225.39,-241.75 229.95,-235.22 233.76,-230.15"/>
<polygon fill="#9a32cd" stroke="#9a32cd" points="160.85,-482.06 163.64,-492.29 167.83,-482.56 160.85,-482.06"/>
</a>
</g>
<text xml:space="preserve" text-anchor="start" x="189.75" y="-357.5" font-family="Helvetica,sans-Serif" font-size="10.00" fill="grey">palette</text>
</g>
<!-- Node9&#45;&gt;Node13 -->
<g id="edge18_Node000013_Node000009" class="edge">
<title>Node9&#45;&gt;Node13</title>
<g id="a_edge18_Node000013_Node000009"><a xlink:title=" ">
<path fill="none" stroke="#9a32cd" stroke-dasharray="5,2" d="M176.45,-484.78C186.4,-471.97 200.75,-454.9 215.5,-442 223.14,-435.32 232.55,-429.07 240.48,-424.26"/>
<polygon fill="#9a32cd" stroke="#9a32cd" points="173.93,-482.31 170.67,-492.39 179.5,-486.54 173.93,-482.31"/>
</a>
</g>
<text xml:space="preserve" text-anchor="start" x="218.5" y="-463.5" font-family="Helvetica,sans-Serif" font-size="10.00" fill="grey">dst_pal</text>
<text xml:space="preserve" text-anchor="start" x="218.5" y="-447.5" font-family="Helvetica,sans-Serif" font-size="10.00" fill="grey">src_pal</text>
</g>
<!-- Node10 -->
<g id="Node000010" class="node">
<title>Node10</title>
<g id="a_Node000010"><a xlink:href="../../d7/d0a/structSDL__Color.html" target="_top" xlink:title=" ">
<polygon fill="white" stroke="#666666" points="200,-588 136,-588 136,-568 200,-568 200,-588"/>
<text xml:space="preserve" text-anchor="middle" x="168" y="-574.5" font-family="Helvetica,sans-Serif" font-size="10.00">SDL_Color</text>
</a>
</g>
</g>
<!-- Node10&#45;&gt;Node9 -->
<g id="edge10_Node000009_Node000010" class="edge">
<title>Node10&#45;&gt;Node9</title>
<g id="a_edge10_Node000009_Node000010"><a xlink:title=" ">
<path fill="none" stroke="#9a32cd" stroke-dasharray="5,2" d="M166.55,-556.18C165.59,-542.29 164.37,-524.71 163.64,-514.19"/>
<polygon fill="#9a32cd" stroke="#9a32cd" points="163.06,-556.34 167.24,-566.08 170.04,-555.86 163.06,-556.34"/>
</a>
</g>
<text xml:space="preserve" text-anchor="start" x="169.09" y="-537.5" font-family="Helvetica,sans-Serif" font-size="10.00" fill="grey">colors</text>
</g>
<!-- Node11 -->
<g id="Node000011" class="node">
<title>Node11</title>
<g id="a_Node000011"><a xlink:href="../../dd/da6/structSDL__Rect.html" target="_top" xlink:title=" ">
<polygon fill="white" stroke="#666666" points="134.88,-311 73.12,-311 73.12,-291 134.88,-291 134.88,-311"/>
<text xml:space="preserve" text-anchor="middle" x="104" y="-297.5" font-family="Helvetica,sans-Serif" font-size="10.00">SDL_Rect</text>
</a>
</g>
</g>
<!-- Node11&#45;&gt;Node7 -->
<g id="edge12_Node000007_Node000011" class="edge">
<title>Node11&#45;&gt;Node7</title>
<g id="a_edge12_Node000007_Node000011"><a xlink:title=" ">
<path fill="none" stroke="#9a32cd" stroke-dasharray="5,2" d="M99.35,-279.47C98.21,-268.9 98.98,-256.49 106.25,-248 118.63,-233.55 167.89,-226.62 203.27,-223.46"/>
<polygon fill="#9a32cd" stroke="#9a32cd" points="95.88,-279.95 101.04,-289.2 102.78,-278.75 95.88,-279.95"/>
</a>
</g>
<text xml:space="preserve" text-anchor="start" x="109.25" y="-253.5" font-family="Helvetica,sans-Serif" font-size="10.00" fill="grey">clip_rect</text>
</g>
<!-- Node12&#45;&gt;Node7 -->
<g id="edge13_Node000007_Node000012" class="edge">
<title>Node12&#45;&gt;Node7</title>
<g id="a_edge13_Node000007_Node000012"><a xlink:title=" ">
<path fill="none" stroke="#9a32cd" stroke-dasharray="5,2" d="M290.02,-285.49C280.51,-280.36 270.77,-273.86 263.25,-266 253.37,-255.67 247.02,-240.11 243.73,-230.26"/>
<polygon fill="#9a32cd" stroke="#9a32cd" points="288.27,-288.53 298.78,-289.86 291.39,-282.27 288.27,-288.53"/>
</a>
</g>
<text xml:space="preserve" text-anchor="start" x="266.25" y="-253.5" font-family="Helvetica,sans-Serif" font-size="10.00" fill="grey">map</text>
</g>
<!-- Node13&#45;&gt;Node12 -->
<g id="edge15_Node000012_Node000013" class="edge">
<title>Node13&#45;&gt;Node12</title>
<g id="a_edge15_Node000012_Node000013"><a xlink:title=" ">
<path fill="none" stroke="#9a32cd" stroke-dasharray="5,2" d="M268.78,-393.77C283.49,-369.75 308.09,-329.61 319.22,-311.44"/>
<polygon fill="#9a32cd" stroke="#9a32cd" points="265.83,-391.89 263.59,-402.25 271.8,-395.55 265.83,-391.89"/>
</a>
</g>
<text xml:space="preserve" text-anchor="start" x="306" y="-357.5" font-family="Helvetica,sans-Serif" font-size="10.00" fill="grey">info</text>
</g>
<!-- Node14 -->
<g id="Node000014" class="node">
<title>Node14</title>
<g id="a_Node000014"><a xlink:href="../../da/d27/structSDL__HashTable.html" target="_top" xlink:title=" ">
<polygon fill="white" stroke="#666666" points="303.62,-514 216.38,-514 216.38,-494 303.62,-494 303.62,-514"/>
<text xml:space="preserve" text-anchor="middle" x="260" y="-500.5" font-family="Helvetica,sans-Serif" font-size="10.00">SDL_HashTable</text>
</a>
</g>
</g>
<!-- Node14&#45;&gt;Node13 -->
<g id="edge19_Node000013_Node000014" class="edge">
<title>Node14&#45;&gt;Node13</title>
<g id="a_edge19_Node000013_Node000014"><a xlink:title=" ">
<path fill="none" stroke="#9a32cd" stroke-dasharray="5,2" d="M258.12,-482.17C257.97,-480.09 257.85,-478 257.75,-476 256.87,-457.59 256.84,-436.03 256.91,-424.1"/>
<polygon fill="#9a32cd" stroke="#9a32cd" points="254.62,-482.32 258.92,-492.01 261.59,-481.75 254.62,-482.32"/>
</a>
</g>
<text xml:space="preserve" text-anchor="start" x="260.75" y="-455.5" font-family="Helvetica,sans-Serif" font-size="10.00" fill="grey">palette_map</text>
</g>
<!-- Node15&#45;&gt;Node14 -->
<g id="edge20_Node000014_Node000015" class="edge">
<title>Node15&#45;&gt;Node14</title>
<g id="a_edge20_Node000014_Node000015"><a xlink:title=" ">
<path fill="none" stroke="#9a32cd" stroke-dasharray="5,2" d="M336.91,-560.94C317.26,-546.64 289.18,-526.22 272.95,-514.42"/>
<polygon fill="#9a32cd" stroke="#9a32cd" points="334.69,-563.65 344.83,-566.7 338.8,-557.98 334.69,-563.65"/>
</a>
</g>
<text xml:space="preserve" text-anchor="start" x="324.28" y="-537.5" font-family="Helvetica,sans-Serif" font-size="10.00" fill="grey">lock</text>
</g>
<!-- Node16 -->
<g id="Node000016" class="node">
<title>Node16</title>
<g id="a_Node000016"><a xlink:href="../../d7/dae/structSDL__HashItem.html" target="_top" xlink:title=" ">
<polygon fill="white" stroke="#666666" points="301.75,-588 218.25,-588 218.25,-568 301.75,-568 301.75,-588"/>
<text xml:space="preserve" text-anchor="middle" x="260" y="-574.5" font-family="Helvetica,sans-Serif" font-size="10.00">SDL_HashItem</text>
</a>
</g>
</g>
<!-- Node16&#45;&gt;Node14 -->
<g id="edge24_Node000014_Node000016" class="edge">
<title>Node16&#45;&gt;Node14</title>
<g id="a_edge24_Node000014_Node000016"><a xlink:title=" ">
<path fill="none" stroke="#9a32cd" stroke-dasharray="5,2" d="M260,-556.18C260,-542.29 260,-524.71 260,-514.19"/>
<polygon fill="#9a32cd" stroke="#9a32cd" points="256.5,-556.07 260,-566.07 263.5,-556.07 256.5,-556.07"/>
</a>
</g>
<text xml:space="preserve" text-anchor="start" x="263" y="-537.5" font-family="Helvetica,sans-Serif" font-size="10.00" fill="grey">table</text>
</g>
<!-- Node17&#45;&gt;Node1 -->
<g id="edge25_Node000001_Node000017" class="edge">
<title>Node17&#45;&gt;Node1</title>
<g id="a_edge25_Node000001_Node000017"><a xlink:title=" ">
<path fill="none" stroke="#9a32cd" stroke-dasharray="5,2" d="M344.59,-118.31C334.79,-96.76 323.83,-62.09 340,-38 346.49,-28.34 357.11,-22.13 367.95,-18.15"/>
<polygon fill="#9a32cd" stroke="#9a32cd" points="341.39,-119.72 348.93,-127.15 347.67,-116.64 341.39,-119.72"/>
</a>
</g>
<text xml:space="preserve" text-anchor="start" x="343" y="-91.5" font-family="Helvetica,sans-Serif" font-size="10.00" fill="grey">app_held_output_surfaces</text>
<text xml:space="preserve" text-anchor="start" x="343" y="-75.5" font-family="Helvetica,sans-Serif" font-size="10.00" fill="grey">empty_output_surfaces</text>
<text xml:space="preserve" text-anchor="start" x="343" y="-59.5" font-family="Helvetica,sans-Serif" font-size="10.00" fill="grey">filled_output_surfaces</text>
<text xml:space="preserve" text-anchor="start" x="343" y="-43.5" font-family="Helvetica,sans-Serif" font-size="10.00" fill="grey">output_surfaces</text>
</g>
<!-- Node17&#45;&gt;Node17 -->
<g id="edge27_Node000017_Node000017" class="edge">
<title>Node17&#45;&gt;Node17</title>
<g id="a_edge27_Node000017_Node000017"><a xlink:title=" ">
<path fill="none" stroke="#9a32cd" stroke-dasharray="5,2" d="M399.43,-145.47C403.32,-144.11 405.75,-141.95 405.75,-139 405.75,-133.76 398.07,-131.01 388.19,-130.77"/>
<polygon fill="#9a32cd" stroke="#9a32cd" points="399.03,-142 389.69,-147 400.11,-148.91 399.03,-142"/>
</a>
</g>
<text xml:space="preserve" text-anchor="start" x="408.75" y="-135.5" font-family="Helvetica,sans-Serif" font-size="10.00" fill="grey">next</text>
</g>
<!-- Node18&#45;&gt;Node1 -->
<g id="edge28_Node000001_Node000018" class="edge">
<title>Node18&#45;&gt;Node1</title>
<g id="a_edge28_Node000001_Node000018"><a xlink:title=" ">
<path fill="none" stroke="#9a32cd" stroke-dasharray="5,2" d="M537,-556.58C537,-542.17 537,-522.4 537,-505 537,-505 537,-505 537,-138 537,-88.51 525.32,-70.51 488,-38 475.68,-27.27 458.99,-20.78 443.88,-16.87"/>
<polygon fill="#9a32cd" stroke="#9a32cd" points="533.5,-556.17 537,-566.17 540.5,-556.17 533.5,-556.17"/>
</a>
</g>
<text xml:space="preserve" text-anchor="start" x="540" y="-297.5" font-family="Helvetica,sans-Serif" font-size="10.00" fill="grey">thread</text>
</g>
<!-- Node19 -->
<g id="Node000019" class="node">
<title>Node19</title>
<g id="a_Node000019"><a xlink:href="../../dc/dd9/structSDL__error.html" target="_top" xlink:title=" ">
<polygon fill="white" stroke="#666666" points="592.12,-678 531.88,-678 531.88,-658 592.12,-658 592.12,-678"/>
<text xml:space="preserve" text-anchor="middle" x="562" y="-664.5" font-family="Helvetica,sans-Serif" font-size="10.00">SDL_error</text>
</a>
</g>
</g>
<!-- Node19&#45;&gt;Node18 -->
<g id="edge30_Node000018_Node000019" class="edge">
<title>Node19&#45;&gt;Node18</title>
<g id="a_edge30_Node000018_Node000019"><a xlink:title=" ">
<path fill="none" stroke="#9a32cd" stroke-dasharray="5,2" d="M556.21,-646.61C551,-628.27 543.57,-602.14 539.66,-588.35"/>
<polygon fill="#9a32cd" stroke="#9a32cd" points="552.81,-647.46 558.91,-656.13 559.54,-645.55 552.81,-647.46"/>
</a>
</g>
<text xml:space="preserve" text-anchor="start" x="556.91" y="-619.5" font-family="Helvetica,sans-Serif" font-size="10.00" fill="grey">errbuf</text>
</g>
</g>
</svg>

<g id="navigator" transform="translate(0 0)" fill="#404254">
  <rect fill="#f2f5e9" fill-opacity="0.5" stroke="#606060" stroke-width=".5" x="0" y="0" width="60" height="60"/>
  <use id="zoomplus" xlink:href="#zoomPlus" x="17" y="9" onmousedown="handleZoom(evt,'in')"/>
  <use id="zoomminus" xlink:href="#zoomMin" x="42" y="9" onmousedown="handleZoom(evt,'out')"/>
  <use id="reset" xlink:href="#resetDef" x="30" y="36" onmousedown="handleReset()"/>
   <use id="arrowup" xlink:href="#arrowUp" x="0" y="0" onmousedown="handlePan(0,-1)"/>
  <use id="arrowright" xlink:href="#arrowRight" x="0" y="0" onmousedown="handlePan(1,0)"/>
  <use id="arrowdown" xlink:href="#arrowDown" x="0" y="0" onmousedown="handlePan(0,1)"/>
  <use id="arrowleft" xlink:href="#arrowLeft" x="0" y="0" onmousedown="handlePan(-1,0)"/>
</g>
<svg viewBox="0 0 15 15" width="100%" height="30px" preserveAspectRatio="xMaxYMin meet">
 <g id="arrow_out" transform="scale(0.3 0.3)">
  <a xlink:href="structSDL__Camera__coll__graph_org.svg" target="_base">
   <rect id="button" ry="5" rx="5" y="6" x="6" height="38" width="38"
        fill="#f2f5e9" fill-opacity="0.5" stroke="#606060" stroke-width="1.0"/>
   <path id="arrow"
     d="M 11.500037,31.436501 C 11.940474,20.09759 22.043105,11.32322 32.158766,21.979434 L 37.068811,17.246167 C 37.068811,17.246167 37.088388,32 37.088388,32 L 22.160133,31.978069 C 22.160133,31.978069 26.997745,27.140456 26.997745,27.140456 C 18.528582,18.264221 13.291696,25.230495 11.500037,31.436501 z"
     style="fill:#404040;"/>
  </a>
 </g>
</svg>

<style type='text/css'>
<![CDATA[
[data-mouse-over-selected='false'] { opacity: 0.7; }
[data-mouse-over-selected='true']  { opacity: 1.0; }
]]>
</style>
<script type="application/ecmascript"><![CDATA[
document.addEventListener('DOMContentLoaded', (event) => {
  highlightEdges();
  highlightAdjacentNodes();
});
]]></script>
</svg>
