<?xml version="1.0" encoding="UTF-8" standalone="no"?>
<!DOCTYPE svg PUBLIC "-//W3C//DTD SVG 1.1//EN"
 "http://www.w3.org/Graphics/SVG/1.1/DTD/svg11.dtd">
<!-- Generated by graphviz version 13.1.0 (20250701.0955)
 -->
<!-- Title: SDL&#45;main/src/main Pages: 1 -->
<!--zoomable 144 -->

<svg id="main" version="1.1" xmlns="http://www.w3.org/2000/svg" xmlns:xlink="http://www.w3.org/1999/xlink" xml:space="preserve" onload="init(evt)">

<style type="text/css"><![CDATA[
.node, .edge {opacity: 0.7;}
.node.selected, .edge.selected {opacity: 1;}
.edge:hover path { stroke: red; }
.edge:hover polygon { stroke: red; fill: red; }
]]></style>

<defs>
  <circle id="rim" cx="0" cy="0" r="7"/>
  <circle id="rim2" cx="0" cy="0" r="3.5"/>
  <g id="zoomPlus">
    <use xlink:href="#rim" fill="#404040"><set attributeName="fill" to="#808080" begin="zoomplus.mouseover" end="zoomplus.mouseout"/></use>
    <path d="M-4,0h8M0,-4v8" fill="none" stroke="white" stroke-width="1.5" pointer-events="none"/>
  </g>
  <g id="zoomMin">
    <use xlink:href="#rim" fill="#404040"><set attributeName="fill" to="#808080" begin="zoomminus.mouseover" end="zoomminus.mouseout"/></use>
    <path d="M-4,0h8" fill="none" stroke="white" stroke-width="1.5" pointer-events="none"/>
  </g>
  <g id="arrowUp" transform="translate(30 24)">
    <use xlink:href="#rim"/>
    <path pointer-events="none" fill="none" stroke="white" stroke-width="1.5" d="M0,-3.0v7 M-2.5,-0.5L0,-3.0L2.5,-0.5"/>
  </g>
  <g id="arrowRight" transform="rotate(90) translate(36 -43)">
    <use xlink:href="#rim"/>
    <path pointer-events="none" fill="none" stroke="white" stroke-width="1.5" d="M0,-3.0v7 M-2.5,-0.5L0,-3.0L2.5,-0.5"/>
  </g>
  <g id="arrowDown" transform="rotate(180) translate(-30 -48)">
    <use xlink:href="#rim"/>
    <path pointer-events="none" fill="none" stroke="white" stroke-width="1.5" d="M0,-3.0v7 M-2.5,-0.5L0,-3.0L2.5,-0.5"/>
  </g>
  <g id="arrowLeft" transform="rotate(270) translate(-36 17)">
    <use xlink:href="#rim"/>
    <path pointer-events="none" fill="none" stroke="white" stroke-width="1.5" d="M0,-3.0v7 M-2.5,-0.5L0,-3.0L2.5,-0.5"/>
  </g>
  <g id="resetDef">
    <use xlink:href="#rim2" fill="#404040"><set attributeName="fill" to="#808080" begin="reset.mouseover" end="reset.mouseout"/></use>
  </g>
</defs>
<script type="application/ecmascript">
var viewWidth = 626;
var viewHeight = 144;
var sectionId = 'dynsection-0';
</script>
<script type="application/ecmascript" xlink:href="svg.min.js"/>
<svg id="graph" class="graph">
<g id="viewport">
<title>SDL&#45;main/src/main</title>
<g id="clust1" class="cluster">
<title>clusterdir_93dff7e69d031a1b18a384e0d03ab66f</title>
<g id="a_clust1"><a xlink:href="dir_93dff7e69d031a1b18a384e0d03ab66f.html" target="_top" xlink:title="src">
<polygon fill="#edf0f7" stroke="#7f7f7f" stroke-dasharray="5,2" points="8,-8 8,-128 610,-128 610,-8 8,-8"/>
<text xml:space="preserve" text-anchor="middle" x="309" y="-114.5" font-family="Helvetica,sans-Serif" font-size="10.00">src</text>
</a>
</g>
</g>
<g id="clust2" class="cluster">
<title>clusterdir_518ef90232fcbd306a000f08e53de135</title>
<g id="a_clust2"><a xlink:href="dir_518ef90232fcbd306a000f08e53de135.html" target="_top">
<polygon fill="#edf0f7" stroke="#404040" stroke-width="2" points="16,-64 16,-100 602,-100 602,-64 16,-64"/>
</a>
</g>
</g>
<!-- dir_8f49861dc308d10bb2be7f717cd5c3ee -->
<g id="node1" class="node">
<title>dir_8f49861dc308d10bb2be7f717cd5c3ee</title>
<g id="a_node1"><a xlink:href="dir_8f49861dc308d10bb2be7f717cd5c3ee.html" target="_top" xlink:title="events">
<polygon fill="#a2b4d6" stroke="#404040" points="143.62,-36 98.38,-36 98.38,-16 143.62,-16 143.62,-36"/>
<text xml:space="preserve" text-anchor="middle" x="121" y="-22.5" font-family="Helvetica,sans-Serif" font-size="10.00">events</text>
</a>
</g>
</g>
<!-- dir_9737c3e3605f759e2a67737bf2c1e907 -->
<g id="node2" class="node">
<title>dir_9737c3e3605f759e2a67737bf2c1e907</title>
<g id="a_node2"><a xlink:href="dir_9737c3e3605f759e2a67737bf2c1e907.html" target="_top" xlink:title="core">
<polygon fill="#a2b4d6" stroke="red" points="196.38,-36 161.62,-36 161.62,-16 196.38,-16 196.38,-36"/>
<text xml:space="preserve" text-anchor="middle" x="179" y="-22.5" font-family="Helvetica,sans-Serif" font-size="10.00">core</text>
</a>
</g>
</g>
<!-- dir_b7b7438138b39ba7ca73db38a6ad36be -->
<g id="node3" class="node">
<title>dir_b7b7438138b39ba7ca73db38a6ad36be</title>
<g id="a_node3"><a xlink:href="dir_b7b7438138b39ba7ca73db38a6ad36be.html" target="_top" xlink:title="video">
<polygon fill="#a2b4d6" stroke="red" points="255.62,-36 216.38,-36 216.38,-16 255.62,-16 255.62,-36"/>
<text xml:space="preserve" text-anchor="middle" x="236" y="-22.5" font-family="Helvetica,sans-Serif" font-size="10.00">video</text>
</a>
</g>
</g>
<!-- dir_3c50f8c1dc91c41718d430096e8986ba -->
<g id="node4" class="node">
<title>dir_3c50f8c1dc91c41718d430096e8986ba</title>
<g id="a_node4"><a xlink:href="dir_3c50f8c1dc91c41718d430096e8986ba.html" target="_top" xlink:title="audio">
<polygon fill="#a2b4d6" stroke="red" points="390.62,-36 351.38,-36 351.38,-16 390.62,-16 390.62,-36"/>
<text xml:space="preserve" text-anchor="middle" x="371" y="-22.5" font-family="Helvetica,sans-Serif" font-size="10.00">audio</text>
</a>
</g>
</g>
<!-- dir_c6d3f9da83122488c81ea0f4c0bf936d -->
<g id="node5" class="node">
<title>dir_c6d3f9da83122488c81ea0f4c0bf936d</title>
<g id="a_node5"><a xlink:href="dir_c6d3f9da83122488c81ea0f4c0bf936d.html" target="_top" xlink:title="render">
<polygon fill="#a2b4d6" stroke="red" points="451.5,-36 408.5,-36 408.5,-16 451.5,-16 451.5,-36"/>
<text xml:space="preserve" text-anchor="middle" x="430" y="-22.5" font-family="Helvetica,sans-Serif" font-size="10.00">render</text>
</a>
</g>
</g>
<!-- dir_518ef90232fcbd306a000f08e53de135 -->
<g id="node6" class="node">
<title>dir_518ef90232fcbd306a000f08e53de135</title>
<text xml:space="preserve" text-anchor="middle" x="43" y="-78.5" font-family="Helvetica,sans-Serif" font-size="10.00">main</text>
</g>
<!-- dir_3781c35d908d04fcb6d8181e95540ee1 -->
<g id="node7" class="node">
<title>dir_3781c35d908d04fcb6d8181e95540ee1</title>
<g id="a_node7"><a xlink:href="dir_3781c35d908d04fcb6d8181e95540ee1.html" target="_top" xlink:title="emscripten">
<polygon fill="#a2b4d6" stroke="#404040" points="144,-92 80,-92 80,-72 144,-72 144,-92"/>
<text xml:space="preserve" text-anchor="middle" x="112" y="-78.5" font-family="Helvetica,sans-Serif" font-size="10.00">emscripten</text>
</a>
</g>
</g>
<!-- dir_21351e889d1dcfc6c07599f52e67abff -->
<g id="node8" class="node">
<title>dir_21351e889d1dcfc6c07599f52e67abff</title>
<g id="a_node8"><a xlink:href="dir_21351e889d1dcfc6c07599f52e67abff.html" target="_top" xlink:title="gdk">
<polygon fill="#a2b4d6" stroke="#404040" points="193.88,-92 162.12,-92 162.12,-72 193.88,-72 193.88,-92"/>
<text xml:space="preserve" text-anchor="middle" x="178" y="-78.5" font-family="Helvetica,sans-Serif" font-size="10.00">gdk</text>
</a>
</g>
</g>
<!-- dir_21351e889d1dcfc6c07599f52e67abff&#45;&gt;dir_8f49861dc308d10bb2be7f717cd5c3ee -->
<g id="edge1" class="edge">
<title>dir_21351e889d1dcfc6c07599f52e67abff&#45;&gt;dir_8f49861dc308d10bb2be7f717cd5c3ee</title>
<g id="a_edge1"><a xlink:href="dir_000069_000063.html" target="_top">
<path fill="none" stroke="#63b8ff" d="M168.07,-71.59C160.06,-64.01 148.58,-53.13 138.97,-44.02"/>
<polygon fill="#63b8ff" stroke="#63b8ff" points="141.58,-41.68 131.91,-37.34 136.77,-46.76 141.58,-41.68"/>
</a>
</g>
<g id="a_edge1&#45;headlabel"><a xlink:href="dir_000069_000063.html" target="_top" xlink:title="1">
<text xml:space="preserve" text-anchor="middle" x="145.04" y="-37.55" font-family="Helvetica,sans-Serif" font-size="10.00" fill="#63b8ff">1</text>
</a>
</g>
</g>
<!-- dir_21351e889d1dcfc6c07599f52e67abff&#45;&gt;dir_9737c3e3605f759e2a67737bf2c1e907 -->
<g id="edge2" class="edge">
<title>dir_21351e889d1dcfc6c07599f52e67abff&#45;&gt;dir_9737c3e3605f759e2a67737bf2c1e907</title>
<g id="a_edge2"><a xlink:href="dir_000069_000023.html" target="_top">
<path fill="none" stroke="#63b8ff" d="M178.17,-71.59C178.3,-65.01 178.46,-55.96 178.62,-47.73"/>
<polygon fill="#63b8ff" stroke="#63b8ff" points="182.11,-47.87 178.8,-37.81 175.12,-47.75 182.11,-47.87"/>
</a>
</g>
<g id="a_edge2&#45;headlabel"><a xlink:href="dir_000069_000023.html" target="_top" xlink:title="2">
<text xml:space="preserve" text-anchor="middle" x="184.91" y="-46.51" font-family="Helvetica,sans-Serif" font-size="10.00" fill="#63b8ff">2</text>
</a>
</g>
</g>
<!-- dir_dba1faa077cfb994b316370496ac7385 -->
<g id="node9" class="node">
<title>dir_dba1faa077cfb994b316370496ac7385</title>
<g id="a_node9"><a xlink:href="dir_dba1faa077cfb994b316370496ac7385.html" target="_top" xlink:title="generic">
<polygon fill="#a2b4d6" stroke="#404040" points="259.75,-92 212.25,-92 212.25,-72 259.75,-72 259.75,-92"/>
<text xml:space="preserve" text-anchor="middle" x="236" y="-78.5" font-family="Helvetica,sans-Serif" font-size="10.00">generic</text>
</a>
</g>
</g>
<!-- dir_dba1faa077cfb994b316370496ac7385&#45;&gt;dir_b7b7438138b39ba7ca73db38a6ad36be -->
<g id="edge3" class="edge">
<title>dir_dba1faa077cfb994b316370496ac7385&#45;&gt;dir_b7b7438138b39ba7ca73db38a6ad36be</title>
<g id="a_edge3"><a xlink:href="dir_000072_000215.html" target="_top">
<path fill="none" stroke="#63b8ff" d="M236,-71.59C236,-65.01 236,-55.96 236,-47.73"/>
<polygon fill="#63b8ff" stroke="#63b8ff" points="239.5,-47.81 236,-37.81 232.5,-47.81 239.5,-47.81"/>
</a>
</g>
<g id="a_edge3&#45;headlabel"><a xlink:href="dir_000072_000215.html" target="_top" xlink:title="1">
<text xml:space="preserve" text-anchor="middle" x="242.34" y="-46.39" font-family="Helvetica,sans-Serif" font-size="10.00" fill="#63b8ff">1</text>
</a>
</g>
</g>
<!-- dir_dc73e8d97ad67755368e230198dda1ba -->
<g id="node10" class="node">
<title>dir_dc73e8d97ad67755368e230198dda1ba</title>
<g id="a_node10"><a xlink:href="dir_dc73e8d97ad67755368e230198dda1ba.html" target="_top" xlink:title="ios">
<polygon fill="#a2b4d6" stroke="#404040" points="306.4,-92 277.6,-92 277.6,-72 306.4,-72 306.4,-92"/>
<text xml:space="preserve" text-anchor="middle" x="292" y="-78.5" font-family="Helvetica,sans-Serif" font-size="10.00">ios</text>
</a>
</g>
</g>
<!-- dir_e75275f9f2968735a31bb33bfc789208 -->
<g id="node11" class="node">
<title>dir_e75275f9f2968735a31bb33bfc789208</title>
<g id="a_node11"><a xlink:href="dir_e75275f9f2968735a31bb33bfc789208.html" target="_top" xlink:title="n3ds">
<polygon fill="#a2b4d6" stroke="#404040" points="361.5,-92 324.5,-92 324.5,-72 361.5,-72 361.5,-92"/>
<text xml:space="preserve" text-anchor="middle" x="343" y="-78.5" font-family="Helvetica,sans-Serif" font-size="10.00">n3ds</text>
</a>
</g>
</g>
<!-- dir_539ba16d1b8ae289aa030288a07de327 -->
<g id="node12" class="node">
<title>dir_539ba16d1b8ae289aa030288a07de327</title>
<g id="a_node12"><a xlink:href="dir_539ba16d1b8ae289aa030288a07de327.html" target="_top" xlink:title="ngage">
<polygon fill="#a2b4d6" stroke="#404040" points="422.12,-92 379.88,-92 379.88,-72 422.12,-72 422.12,-92"/>
<text xml:space="preserve" text-anchor="middle" x="401" y="-78.5" font-family="Helvetica,sans-Serif" font-size="10.00">ngage</text>
</a>
</g>
</g>
<!-- dir_539ba16d1b8ae289aa030288a07de327&#45;&gt;dir_3c50f8c1dc91c41718d430096e8986ba -->
<g id="edge4" class="edge">
<title>dir_539ba16d1b8ae289aa030288a07de327&#45;&gt;dir_3c50f8c1dc91c41718d430096e8986ba</title>
<g id="a_edge4"><a xlink:href="dir_000141_000016.html" target="_top">
<path fill="none" stroke="#63b8ff" d="M395.77,-71.59C391.9,-64.63 386.49,-54.89 381.72,-46.29"/>
<polygon fill="#63b8ff" stroke="#63b8ff" points="384.82,-44.66 376.9,-37.62 378.7,-48.06 384.82,-44.66"/>
</a>
</g>
<g id="a_edge4&#45;headlabel"><a xlink:href="dir_000141_000016.html" target="_top" xlink:title="1">
<text xml:space="preserve" text-anchor="middle" x="388.31" y="-41.6" font-family="Helvetica,sans-Serif" font-size="10.00" fill="#63b8ff">1</text>
</a>
</g>
</g>
<!-- dir_539ba16d1b8ae289aa030288a07de327&#45;&gt;dir_c6d3f9da83122488c81ea0f4c0bf936d -->
<g id="edge5" class="edge">
<title>dir_539ba16d1b8ae289aa030288a07de327&#45;&gt;dir_c6d3f9da83122488c81ea0f4c0bf936d</title>
<g id="a_edge5"><a xlink:href="dir_000141_000184.html" target="_top">
<path fill="none" stroke="#63b8ff" d="M406.05,-71.59C409.79,-64.63 415.02,-54.89 419.64,-46.29"/>
<polygon fill="#63b8ff" stroke="#63b8ff" points="422.64,-48.1 424.29,-37.63 416.48,-44.79 422.64,-48.1"/>
</a>
</g>
<g id="a_edge5&#45;headlabel"><a xlink:href="dir_000141_000184.html" target="_top" xlink:title="1">
<text xml:space="preserve" text-anchor="middle" x="424.16" y="-47.77" font-family="Helvetica,sans-Serif" font-size="10.00" fill="#63b8ff">1</text>
</a>
</g>
</g>
<!-- dir_0c5c868738a74228b64924a9c2bdd659 -->
<g id="node13" class="node">
<title>dir_0c5c868738a74228b64924a9c2bdd659</title>
<g id="a_node13"><a xlink:href="dir_0c5c868738a74228b64924a9c2bdd659.html" target="_top" xlink:title="ps2">
<polygon fill="#a2b4d6" stroke="#404040" points="471.88,-92 440.12,-92 440.12,-72 471.88,-72 471.88,-92"/>
<text xml:space="preserve" text-anchor="middle" x="456" y="-78.5" font-family="Helvetica,sans-Serif" font-size="10.00">ps2</text>
</a>
</g>
</g>
<!-- dir_2556bfc7594a879d7992262b99c72c77 -->
<g id="node14" class="node">
<title>dir_2556bfc7594a879d7992262b99c72c77</title>
<g id="a_node14"><a xlink:href="dir_2556bfc7594a879d7992262b99c72c77.html" target="_top" xlink:title="psp">
<polygon fill="#a2b4d6" stroke="#404040" points="521.88,-92 490.12,-92 490.12,-72 521.88,-72 521.88,-92"/>
<text xml:space="preserve" text-anchor="middle" x="506" y="-78.5" font-family="Helvetica,sans-Serif" font-size="10.00">psp</text>
</a>
</g>
</g>
<!-- dir_898e16bf3b22438e55aac32449e99e8a -->
<g id="node15" class="node">
<title>dir_898e16bf3b22438e55aac32449e99e8a</title>
<g id="a_node15"><a xlink:href="dir_898e16bf3b22438e55aac32449e99e8a.html" target="_top" xlink:title="windows">
<polygon fill="#a2b4d6" stroke="#404040" points="594.12,-92 539.88,-92 539.88,-72 594.12,-72 594.12,-92"/>
<text xml:space="preserve" text-anchor="middle" x="567" y="-78.5" font-family="Helvetica,sans-Serif" font-size="10.00">windows</text>
</a>
</g>
</g>
</g>
</svg>

<g id="navigator" transform="translate(0 0)" fill="#404254">
  <rect fill="#f2f5e9" fill-opacity="0.5" stroke="#606060" stroke-width=".5" x="0" y="0" width="60" height="60"/>
  <use id="zoomplus" xlink:href="#zoomPlus" x="17" y="9" onmousedown="handleZoom(evt,'in')"/>
  <use id="zoomminus" xlink:href="#zoomMin" x="42" y="9" onmousedown="handleZoom(evt,'out')"/>
  <use id="reset" xlink:href="#resetDef" x="30" y="36" onmousedown="handleReset()"/>
   <use id="arrowup" xlink:href="#arrowUp" x="0" y="0" onmousedown="handlePan(0,-1)"/>
  <use id="arrowright" xlink:href="#arrowRight" x="0" y="0" onmousedown="handlePan(1,0)"/>
  <use id="arrowdown" xlink:href="#arrowDown" x="0" y="0" onmousedown="handlePan(0,1)"/>
  <use id="arrowleft" xlink:href="#arrowLeft" x="0" y="0" onmousedown="handlePan(-1,0)"/>
</g>
<svg viewBox="0 0 15 15" width="100%" height="30px" preserveAspectRatio="xMaxYMin meet">
 <g id="arrow_out" transform="scale(0.3 0.3)">
  <a xlink:href="dir_518ef90232fcbd306a000f08e53de135_dep_org.svg" target="_base">
   <rect id="button" ry="5" rx="5" y="6" x="6" height="38" width="38"
        fill="#f2f5e9" fill-opacity="0.5" stroke="#606060" stroke-width="1.0"/>
   <path id="arrow"
     d="M 11.500037,31.436501 C 11.940474,20.09759 22.043105,11.32322 32.158766,21.979434 L 37.068811,17.246167 C 37.068811,17.246167 37.088388,32 37.088388,32 L 22.160133,31.978069 C 22.160133,31.978069 26.997745,27.140456 26.997745,27.140456 C 18.528582,18.264221 13.291696,25.230495 11.500037,31.436501 z"
     style="fill:#404040;"/>
  </a>
 </g>
</svg>

<style type='text/css'>
<![CDATA[
[data-mouse-over-selected='false'] { opacity: 0.7; }
[data-mouse-over-selected='true']  { opacity: 1.0; }
]]>
</style>
<script type="application/ecmascript"><![CDATA[
document.addEventListener('DOMContentLoaded', (event) => {
  highlightEdges();
  highlightAdjacentNodes();
});
]]></script>
</svg>
