<?xml version="1.0" encoding="UTF-8" standalone="no"?>
<!DOCTYPE svg PUBLIC "-//W3C//DTD SVG 1.1//EN"
 "http://www.w3.org/Graphics/SVG/1.1/DTD/svg11.dtd">
<!-- Generated by graphviz version 13.1.0 (20250701.0955)
 -->
<!-- Title: SDL&#45;main/src/filesystem Pages: 1 -->
<!--zoomable 144 -->

<svg id="main" version="1.1" xmlns="http://www.w3.org/2000/svg" xmlns:xlink="http://www.w3.org/1999/xlink" xml:space="preserve" onload="init(evt)">

<style type="text/css"><![CDATA[
.node, .edge {opacity: 0.7;}
.node.selected, .edge.selected {opacity: 1;}
.edge:hover path { stroke: red; }
.edge:hover polygon { stroke: red; fill: red; }
]]></style>

<defs>
  <circle id="rim" cx="0" cy="0" r="7"/>
  <circle id="rim2" cx="0" cy="0" r="3.5"/>
  <g id="zoomPlus">
    <use xlink:href="#rim" fill="#404040"><set attributeName="fill" to="#808080" begin="zoomplus.mouseover" end="zoomplus.mouseout"/></use>
    <path d="M-4,0h8M0,-4v8" fill="none" stroke="white" stroke-width="1.5" pointer-events="none"/>
  </g>
  <g id="zoomMin">
    <use xlink:href="#rim" fill="#404040"><set attributeName="fill" to="#808080" begin="zoomminus.mouseover" end="zoomminus.mouseout"/></use>
    <path d="M-4,0h8" fill="none" stroke="white" stroke-width="1.5" pointer-events="none"/>
  </g>
  <g id="arrowUp" transform="translate(30 24)">
    <use xlink:href="#rim"/>
    <path pointer-events="none" fill="none" stroke="white" stroke-width="1.5" d="M0,-3.0v7 M-2.5,-0.5L0,-3.0L2.5,-0.5"/>
  </g>
  <g id="arrowRight" transform="rotate(90) translate(36 -43)">
    <use xlink:href="#rim"/>
    <path pointer-events="none" fill="none" stroke="white" stroke-width="1.5" d="M0,-3.0v7 M-2.5,-0.5L0,-3.0L2.5,-0.5"/>
  </g>
  <g id="arrowDown" transform="rotate(180) translate(-30 -48)">
    <use xlink:href="#rim"/>
    <path pointer-events="none" fill="none" stroke="white" stroke-width="1.5" d="M0,-3.0v7 M-2.5,-0.5L0,-3.0L2.5,-0.5"/>
  </g>
  <g id="arrowLeft" transform="rotate(270) translate(-36 17)">
    <use xlink:href="#rim"/>
    <path pointer-events="none" fill="none" stroke="white" stroke-width="1.5" d="M0,-3.0v7 M-2.5,-0.5L0,-3.0L2.5,-0.5"/>
  </g>
  <g id="resetDef">
    <use xlink:href="#rim2" fill="#404040"><set attributeName="fill" to="#808080" begin="reset.mouseover" end="reset.mouseout"/></use>
  </g>
</defs>
<script type="application/ecmascript">
var viewWidth = 1052;
var viewHeight = 144;
var sectionId = 'dynsection-0';
</script>
<script type="application/ecmascript" xlink:href="svg.min.js"/>
<svg id="graph" class="graph">
<g id="viewport">
<title>SDL&#45;main/src/filesystem</title>
<g id="clust1" class="cluster">
<title>clusterdir_93dff7e69d031a1b18a384e0d03ab66f</title>
<g id="a_clust1"><a xlink:href="dir_93dff7e69d031a1b18a384e0d03ab66f.html" target="_top" xlink:title="src">
<polygon fill="#edf0f7" stroke="#7f7f7f" stroke-dasharray="5,2" points="8,-8 8,-128 990,-128 990,-8 8,-8"/>
<text xml:space="preserve" text-anchor="middle" x="499" y="-114.5" font-family="Helvetica,sans-Serif" font-size="10.00">src</text>
</a>
</g>
</g>
<g id="clust2" class="cluster">
<title>clusterdir_c7baafc405dcf9509f3d89cfae2c2d44</title>
<g id="a_clust2"><a xlink:href="dir_c7baafc405dcf9509f3d89cfae2c2d44.html" target="_top">
<polygon fill="#edf0f7" stroke="#404040" stroke-width="2" points="16,-64 16,-100 982,-100 982,-64 16,-64"/>
</a>
</g>
</g>
<!-- dir_aa68752ee0740d8afca2734b95315d10 -->
<g id="node1" class="node">
<title>dir_aa68752ee0740d8afca2734b95315d10</title>
<g id="a_node1"><a xlink:href="dir_aa68752ee0740d8afca2734b95315d10.html" target="_top" xlink:title="stdlib">
<polygon fill="#a2b4d6" stroke="#404040" points="74.62,-36 35.38,-36 35.38,-16 74.62,-16 74.62,-36"/>
<text xml:space="preserve" text-anchor="middle" x="55" y="-22.5" font-family="Helvetica,sans-Serif" font-size="10.00">stdlib</text>
</a>
</g>
</g>
<!-- dir_9737c3e3605f759e2a67737bf2c1e907 -->
<g id="node2" class="node">
<title>dir_9737c3e3605f759e2a67737bf2c1e907</title>
<g id="a_node2"><a xlink:href="dir_9737c3e3605f759e2a67737bf2c1e907.html" target="_top" xlink:title="core">
<polygon fill="#a2b4d6" stroke="red" points="410.38,-36 375.62,-36 375.62,-16 410.38,-16 410.38,-36"/>
<text xml:space="preserve" text-anchor="middle" x="393" y="-22.5" font-family="Helvetica,sans-Serif" font-size="10.00">core</text>
</a>
</g>
</g>
<!-- dir_c7baafc405dcf9509f3d89cfae2c2d44 -->
<g id="node3" class="node">
<title>dir_c7baafc405dcf9509f3d89cfae2c2d44</title>
<text xml:space="preserve" text-anchor="middle" x="55" y="-78.5" font-family="Helvetica,sans-Serif" font-size="10.00">filesystem</text>
</g>
<!-- dir_c7baafc405dcf9509f3d89cfae2c2d44&#45;&gt;dir_aa68752ee0740d8afca2734b95315d10 -->
<g id="edge1" class="edge">
<title>dir_c7baafc405dcf9509f3d89cfae2c2d44&#45;&gt;dir_aa68752ee0740d8afca2734b95315d10</title>
<g id="a_edge1"><a xlink:href="dir_000064_000195.html" target="_top">
<path fill="none" stroke="#63b8ff" d="M55,-72.08C55,-65.48 55,-56.21 55,-47.79"/>
<polygon fill="#63b8ff" stroke="#63b8ff" points="58.5,-47.99 55,-37.99 51.5,-47.99 58.5,-47.99"/>
</a>
</g>
<g id="a_edge1&#45;headlabel"><a xlink:href="dir_000064_000195.html" target="_top" xlink:title="1">
<text xml:space="preserve" text-anchor="middle" x="61.34" y="-46.57" font-family="Helvetica,sans-Serif" font-size="10.00" fill="#63b8ff">1</text>
</a>
</g>
</g>
<!-- dir_7ec127bdf741db168ad4431ca25237fc -->
<g id="node4" class="node">
<title>dir_7ec127bdf741db168ad4431ca25237fc</title>
<g id="a_node4"><a xlink:href="dir_7ec127bdf741db168ad4431ca25237fc.html" target="_top" xlink:title="android">
<polygon fill="#a2b4d6" stroke="#404040" points="150.75,-92 103.25,-92 103.25,-72 150.75,-72 150.75,-92"/>
<text xml:space="preserve" text-anchor="middle" x="127" y="-78.5" font-family="Helvetica,sans-Serif" font-size="10.00">android</text>
</a>
</g>
</g>
<!-- dir_49a4167ecdfc804b47e127b30ae7abff -->
<g id="node5" class="node">
<title>dir_49a4167ecdfc804b47e127b30ae7abff</title>
<g id="a_node5"><a xlink:href="dir_49a4167ecdfc804b47e127b30ae7abff.html" target="_top" xlink:title="cocoa">
<polygon fill="#a2b4d6" stroke="#404040" points="211.12,-92 168.88,-92 168.88,-72 211.12,-72 211.12,-92"/>
<text xml:space="preserve" text-anchor="middle" x="190" y="-78.5" font-family="Helvetica,sans-Serif" font-size="10.00">cocoa</text>
</a>
</g>
</g>
<!-- dir_124a7d7efc271d092092c66db1e4fa39 -->
<g id="node6" class="node">
<title>dir_124a7d7efc271d092092c66db1e4fa39</title>
<g id="a_node6"><a xlink:href="dir_124a7d7efc271d092092c66db1e4fa39.html" target="_top" xlink:title="dummy">
<polygon fill="#a2b4d6" stroke="#404040" points="277.12,-92 228.88,-92 228.88,-72 277.12,-72 277.12,-92"/>
<text xml:space="preserve" text-anchor="middle" x="253" y="-78.5" font-family="Helvetica,sans-Serif" font-size="10.00">dummy</text>
</a>
</g>
</g>
<!-- dir_b3a4a9eef5307facf654e36d30bb0a26 -->
<g id="node7" class="node">
<title>dir_b3a4a9eef5307facf654e36d30bb0a26</title>
<g id="a_node7"><a xlink:href="dir_b3a4a9eef5307facf654e36d30bb0a26.html" target="_top" xlink:title="emscripten">
<polygon fill="#a2b4d6" stroke="#404040" points="359,-92 295,-92 295,-72 359,-72 359,-92"/>
<text xml:space="preserve" text-anchor="middle" x="327" y="-78.5" font-family="Helvetica,sans-Serif" font-size="10.00">emscripten</text>
</a>
</g>
</g>
<!-- dir_732ee8fcd0f830dcfab6c9303e148637 -->
<g id="node8" class="node">
<title>dir_732ee8fcd0f830dcfab6c9303e148637</title>
<g id="a_node8"><a xlink:href="dir_732ee8fcd0f830dcfab6c9303e148637.html" target="_top" xlink:title="gdk">
<polygon fill="#a2b4d6" stroke="#404040" points="408.88,-92 377.12,-92 377.12,-72 408.88,-72 408.88,-92"/>
<text xml:space="preserve" text-anchor="middle" x="393" y="-78.5" font-family="Helvetica,sans-Serif" font-size="10.00">gdk</text>
</a>
</g>
</g>
<!-- dir_732ee8fcd0f830dcfab6c9303e148637&#45;&gt;dir_9737c3e3605f759e2a67737bf2c1e907 -->
<g id="edge2" class="edge">
<title>dir_732ee8fcd0f830dcfab6c9303e148637&#45;&gt;dir_9737c3e3605f759e2a67737bf2c1e907</title>
<g id="a_edge2"><a xlink:href="dir_000067_000023.html" target="_top">
<path fill="none" stroke="#63b8ff" d="M393,-71.59C393,-65.01 393,-55.96 393,-47.73"/>
<polygon fill="#63b8ff" stroke="#63b8ff" points="396.5,-47.81 393,-37.81 389.5,-47.81 396.5,-47.81"/>
</a>
</g>
<g id="a_edge2&#45;headlabel"><a xlink:href="dir_000067_000023.html" target="_top" xlink:title="1">
<text xml:space="preserve" text-anchor="middle" x="399.34" y="-46.39" font-family="Helvetica,sans-Serif" font-size="10.00" fill="#63b8ff">1</text>
</a>
</g>
</g>
<!-- dir_ebf95f20007d6bc6b45c448835273ca9 -->
<g id="node19" class="node">
<title>dir_ebf95f20007d6bc6b45c448835273ca9</title>
<g id="a_node19"><a xlink:href="dir_ebf95f20007d6bc6b45c448835273ca9.html" target="_top" xlink:title="include">
<polygon fill="#edf0f7" stroke="red" stroke-dasharray="5,2" points="1044.38,-36 997.62,-36 997.62,-16 1044.38,-16 1044.38,-36"/>
<text xml:space="preserve" text-anchor="middle" x="1021" y="-22.5" font-family="Helvetica,sans-Serif" font-size="10.00">include</text>
</a>
</g>
</g>
<!-- dir_732ee8fcd0f830dcfab6c9303e148637&#45;&gt;dir_ebf95f20007d6bc6b45c448835273ca9 -->
<g id="edge3" class="edge">
<title>dir_732ee8fcd0f830dcfab6c9303e148637&#45;&gt;dir_ebf95f20007d6bc6b45c448835273ca9</title>
<g id="a_edge3"><a xlink:href="dir_000067_000094.html" target="_top">
<path fill="none" stroke="#63b8ff" d="M403.99,-71.61C408.12,-68.62 413.02,-65.67 418,-64 536.21,-24.45 850.23,-57.67 986.2,-37.17"/>
<polygon fill="#63b8ff" stroke="#63b8ff" points="986.47,-40.67 995.75,-35.56 985.31,-33.77 986.47,-40.67"/>
</a>
</g>
<g id="a_edge3&#45;headlabel"><a xlink:href="dir_000067_000094.html" target="_top" xlink:title="3">
<text xml:space="preserve" text-anchor="middle" x="984.89" y="-40.32" font-family="Helvetica,sans-Serif" font-size="10.00" fill="#63b8ff">3</text>
</a>
</g>
</g>
<!-- dir_7904c4f5a0d48974f0eff429cbd0e60c -->
<g id="node9" class="node">
<title>dir_7904c4f5a0d48974f0eff429cbd0e60c</title>
<g id="a_node9"><a xlink:href="dir_7904c4f5a0d48974f0eff429cbd0e60c.html" target="_top" xlink:title="haiku">
<polygon fill="#a2b4d6" stroke="#404040" points="466.62,-92 427.38,-92 427.38,-72 466.62,-72 466.62,-92"/>
<text xml:space="preserve" text-anchor="middle" x="447" y="-78.5" font-family="Helvetica,sans-Serif" font-size="10.00">haiku</text>
</a>
</g>
</g>
<!-- dir_bcc941434ca3c1fc4fe8e79ea6b4606f -->
<g id="node10" class="node">
<title>dir_bcc941434ca3c1fc4fe8e79ea6b4606f</title>
<g id="a_node10"><a xlink:href="dir_bcc941434ca3c1fc4fe8e79ea6b4606f.html" target="_top" xlink:title="n3ds">
<polygon fill="#a2b4d6" stroke="#404040" points="521.5,-92 484.5,-92 484.5,-72 521.5,-72 521.5,-92"/>
<text xml:space="preserve" text-anchor="middle" x="503" y="-78.5" font-family="Helvetica,sans-Serif" font-size="10.00">n3ds</text>
</a>
</g>
</g>
<!-- dir_36d262ef7be901172536a9021cc1d796 -->
<g id="node11" class="node">
<title>dir_36d262ef7be901172536a9021cc1d796</title>
<g id="a_node11"><a xlink:href="dir_36d262ef7be901172536a9021cc1d796.html" target="_top" xlink:title="ngage">
<polygon fill="#a2b4d6" stroke="#404040" points="582.12,-92 539.88,-92 539.88,-72 582.12,-72 582.12,-92"/>
<text xml:space="preserve" text-anchor="middle" x="561" y="-78.5" font-family="Helvetica,sans-Serif" font-size="10.00">ngage</text>
</a>
</g>
</g>
<!-- dir_15c8f937bc531b6f3bc7fac818dd5ee5 -->
<g id="node12" class="node">
<title>dir_15c8f937bc531b6f3bc7fac818dd5ee5</title>
<g id="a_node12"><a xlink:href="dir_15c8f937bc531b6f3bc7fac818dd5ee5.html" target="_top" xlink:title="posix">
<polygon fill="#a2b4d6" stroke="#404040" points="639.62,-92 600.38,-92 600.38,-72 639.62,-72 639.62,-92"/>
<text xml:space="preserve" text-anchor="middle" x="620" y="-78.5" font-family="Helvetica,sans-Serif" font-size="10.00">posix</text>
</a>
</g>
</g>
<!-- dir_898b42e5ad7c13635a4aac1d381e9f49 -->
<g id="node13" class="node">
<title>dir_898b42e5ad7c13635a4aac1d381e9f49</title>
<g id="a_node13"><a xlink:href="dir_898b42e5ad7c13635a4aac1d381e9f49.html" target="_top" xlink:title="ps2">
<polygon fill="#a2b4d6" stroke="#404040" points="689.88,-92 658.12,-92 658.12,-72 689.88,-72 689.88,-92"/>
<text xml:space="preserve" text-anchor="middle" x="674" y="-78.5" font-family="Helvetica,sans-Serif" font-size="10.00">ps2</text>
</a>
</g>
</g>
<!-- dir_4574cd94b7a2fc12b0f400c42c762fc3 -->
<g id="node14" class="node">
<title>dir_4574cd94b7a2fc12b0f400c42c762fc3</title>
<g id="a_node14"><a xlink:href="dir_4574cd94b7a2fc12b0f400c42c762fc3.html" target="_top" xlink:title="psp">
<polygon fill="#a2b4d6" stroke="#404040" points="739.88,-92 708.12,-92 708.12,-72 739.88,-72 739.88,-92"/>
<text xml:space="preserve" text-anchor="middle" x="724" y="-78.5" font-family="Helvetica,sans-Serif" font-size="10.00">psp</text>
</a>
</g>
</g>
<!-- dir_d94c90bf76e21d84ba64e6677707a1fc -->
<g id="node15" class="node">
<title>dir_d94c90bf76e21d84ba64e6677707a1fc</title>
<g id="a_node15"><a xlink:href="dir_d94c90bf76e21d84ba64e6677707a1fc.html" target="_top" xlink:title="riscos">
<polygon fill="#a2b4d6" stroke="#404040" points="800.12,-92 757.88,-92 757.88,-72 800.12,-72 800.12,-92"/>
<text xml:space="preserve" text-anchor="middle" x="779" y="-78.5" font-family="Helvetica,sans-Serif" font-size="10.00">riscos</text>
</a>
</g>
</g>
<!-- dir_9f9779600381fedd865788431989c60a -->
<g id="node16" class="node">
<title>dir_9f9779600381fedd865788431989c60a</title>
<g id="a_node16"><a xlink:href="dir_9f9779600381fedd865788431989c60a.html" target="_top" xlink:title="unix">
<polygon fill="#a2b4d6" stroke="#404040" points="852,-92 818,-92 818,-72 852,-72 852,-92"/>
<text xml:space="preserve" text-anchor="middle" x="835" y="-78.5" font-family="Helvetica,sans-Serif" font-size="10.00">unix</text>
</a>
</g>
</g>
<!-- dir_e570616802b1726196942122ae0faf12 -->
<g id="node17" class="node">
<title>dir_e570616802b1726196942122ae0faf12</title>
<g id="a_node17"><a xlink:href="dir_e570616802b1726196942122ae0faf12.html" target="_top" xlink:title="vita">
<polygon fill="#a2b4d6" stroke="#404040" points="901.88,-92 870.12,-92 870.12,-72 901.88,-72 901.88,-92"/>
<text xml:space="preserve" text-anchor="middle" x="886" y="-78.5" font-family="Helvetica,sans-Serif" font-size="10.00">vita</text>
</a>
</g>
</g>
<!-- dir_0bcd050752c7a7bc6b2f69e19c052af3 -->
<g id="node18" class="node">
<title>dir_0bcd050752c7a7bc6b2f69e19c052af3</title>
<g id="a_node18"><a xlink:href="dir_0bcd050752c7a7bc6b2f69e19c052af3.html" target="_top" xlink:title="windows">
<polygon fill="#a2b4d6" stroke="#404040" points="974.12,-92 919.88,-92 919.88,-72 974.12,-72 974.12,-92"/>
<text xml:space="preserve" text-anchor="middle" x="947" y="-78.5" font-family="Helvetica,sans-Serif" font-size="10.00">windows</text>
</a>
</g>
</g>
</g>
</svg>

<g id="navigator" transform="translate(0 0)" fill="#404254">
  <rect fill="#f2f5e9" fill-opacity="0.5" stroke="#606060" stroke-width=".5" x="0" y="0" width="60" height="60"/>
  <use id="zoomplus" xlink:href="#zoomPlus" x="17" y="9" onmousedown="handleZoom(evt,'in')"/>
  <use id="zoomminus" xlink:href="#zoomMin" x="42" y="9" onmousedown="handleZoom(evt,'out')"/>
  <use id="reset" xlink:href="#resetDef" x="30" y="36" onmousedown="handleReset()"/>
   <use id="arrowup" xlink:href="#arrowUp" x="0" y="0" onmousedown="handlePan(0,-1)"/>
  <use id="arrowright" xlink:href="#arrowRight" x="0" y="0" onmousedown="handlePan(1,0)"/>
  <use id="arrowdown" xlink:href="#arrowDown" x="0" y="0" onmousedown="handlePan(0,1)"/>
  <use id="arrowleft" xlink:href="#arrowLeft" x="0" y="0" onmousedown="handlePan(-1,0)"/>
</g>
<svg viewBox="0 0 15 15" width="100%" height="30px" preserveAspectRatio="xMaxYMin meet">
 <g id="arrow_out" transform="scale(0.3 0.3)">
  <a xlink:href="dir_c7baafc405dcf9509f3d89cfae2c2d44_dep_org.svg" target="_base">
   <rect id="button" ry="5" rx="5" y="6" x="6" height="38" width="38"
        fill="#f2f5e9" fill-opacity="0.5" stroke="#606060" stroke-width="1.0"/>
   <path id="arrow"
     d="M 11.500037,31.436501 C 11.940474,20.09759 22.043105,11.32322 32.158766,21.979434 L 37.068811,17.246167 C 37.068811,17.246167 37.088388,32 37.088388,32 L 22.160133,31.978069 C 22.160133,31.978069 26.997745,27.140456 26.997745,27.140456 C 18.528582,18.264221 13.291696,25.230495 11.500037,31.436501 z"
     style="fill:#404040;"/>
  </a>
 </g>
</svg>

<style type='text/css'>
<![CDATA[
[data-mouse-over-selected='false'] { opacity: 0.7; }
[data-mouse-over-selected='true']  { opacity: 1.0; }
]]>
</style>
<script type="application/ecmascript"><![CDATA[
document.addEventListener('DOMContentLoaded', (event) => {
  highlightEdges();
  highlightAdjacentNodes();
});
]]></script>
</svg>
