<?xml version="1.0" encoding="UTF-8" standalone="no"?>
<!DOCTYPE svg PUBLIC "-//W3C//DTD SVG 1.1//EN"
 "http://www.w3.org/Graphics/SVG/1.1/DTD/svg11.dtd">
<!-- Generated by graphviz version 13.1.0 (20250701.0955)
 -->
<!-- Title: SDL&#45;main/src/hidapi Pages: 1 -->
<!--zoomable 208 -->

<svg id="main" version="1.1" xmlns="http://www.w3.org/2000/svg" xmlns:xlink="http://www.w3.org/1999/xlink" xml:space="preserve" onload="init(evt)">

<style type="text/css"><![CDATA[
.node, .edge {opacity: 0.7;}
.node.selected, .edge.selected {opacity: 1;}
.edge:hover path { stroke: red; }
.edge:hover polygon { stroke: red; fill: red; }
]]></style>

<defs>
  <circle id="rim" cx="0" cy="0" r="7"/>
  <circle id="rim2" cx="0" cy="0" r="3.5"/>
  <g id="zoomPlus">
    <use xlink:href="#rim" fill="#404040"><set attributeName="fill" to="#808080" begin="zoomplus.mouseover" end="zoomplus.mouseout"/></use>
    <path d="M-4,0h8M0,-4v8" fill="none" stroke="white" stroke-width="1.5" pointer-events="none"/>
  </g>
  <g id="zoomMin">
    <use xlink:href="#rim" fill="#404040"><set attributeName="fill" to="#808080" begin="zoomminus.mouseover" end="zoomminus.mouseout"/></use>
    <path d="M-4,0h8" fill="none" stroke="white" stroke-width="1.5" pointer-events="none"/>
  </g>
  <g id="arrowUp" transform="translate(30 24)">
    <use xlink:href="#rim"/>
    <path pointer-events="none" fill="none" stroke="white" stroke-width="1.5" d="M0,-3.0v7 M-2.5,-0.5L0,-3.0L2.5,-0.5"/>
  </g>
  <g id="arrowRight" transform="rotate(90) translate(36 -43)">
    <use xlink:href="#rim"/>
    <path pointer-events="none" fill="none" stroke="white" stroke-width="1.5" d="M0,-3.0v7 M-2.5,-0.5L0,-3.0L2.5,-0.5"/>
  </g>
  <g id="arrowDown" transform="rotate(180) translate(-30 -48)">
    <use xlink:href="#rim"/>
    <path pointer-events="none" fill="none" stroke="white" stroke-width="1.5" d="M0,-3.0v7 M-2.5,-0.5L0,-3.0L2.5,-0.5"/>
  </g>
  <g id="arrowLeft" transform="rotate(270) translate(-36 17)">
    <use xlink:href="#rim"/>
    <path pointer-events="none" fill="none" stroke="white" stroke-width="1.5" d="M0,-3.0v7 M-2.5,-0.5L0,-3.0L2.5,-0.5"/>
  </g>
  <g id="resetDef">
    <use xlink:href="#rim2" fill="#404040"><set attributeName="fill" to="#808080" begin="reset.mouseover" end="reset.mouseout"/></use>
  </g>
</defs>
<script type="application/ecmascript">
var viewWidth = 594;
var viewHeight = 208;
var sectionId = 'dynsection-0';
</script>
<script type="application/ecmascript" xlink:href="svg.min.js"/>
<svg id="graph" class="graph">
<g id="viewport">
<title>SDL&#45;main/src/hidapi</title>
<g id="clust1" class="cluster">
<title>clusterdir_93dff7e69d031a1b18a384e0d03ab66f</title>
<g id="a_clust1"><a xlink:href="dir_93dff7e69d031a1b18a384e0d03ab66f.html" target="_top" xlink:title="src">
<polygon fill="#edf0f7" stroke="#7f7f7f" stroke-dasharray="5,2" points="8,-8 8,-192 578,-192 578,-8 8,-8"/>
<text xml:space="preserve" text-anchor="middle" x="293" y="-178.5" font-family="Helvetica,sans-Serif" font-size="10.00">src</text>
</a>
</g>
</g>
<g id="clust2" class="cluster">
<title>clusterdir_8ccd3cc4d8357b9b91e4c7c89efa03b7</title>
<g id="a_clust2"><a xlink:href="dir_8ccd3cc4d8357b9b91e4c7c89efa03b7.html" target="_top">
<polygon fill="#edf0f7" stroke="#404040" stroke-width="2" points="16,-16 16,-164 466,-164 466,-16 16,-16"/>
</a>
</g>
</g>
<!-- dir_9737c3e3605f759e2a67737bf2c1e907 -->
<g id="node1" class="node">
<title>dir_9737c3e3605f759e2a67737bf2c1e907</title>
<g id="a_node1"><a xlink:href="dir_9737c3e3605f759e2a67737bf2c1e907.html" target="_top" xlink:title="core">
<polygon fill="#a2b4d6" stroke="red" points="570.38,-44 535.62,-44 535.62,-24 570.38,-24 570.38,-44"/>
<text xml:space="preserve" text-anchor="middle" x="553" y="-30.5" font-family="Helvetica,sans-Serif" font-size="10.00">core</text>
</a>
</g>
</g>
<!-- dir_a5ec7129e648c361df8742a75d968273 -->
<g id="node2" class="node">
<title>dir_a5ec7129e648c361df8742a75d968273</title>
<g id="a_node2"><a xlink:href="dir_a5ec7129e648c361df8742a75d968273.html" target="_top" xlink:title="thread">
<polygon fill="#a2b4d6" stroke="red" points="517.5,-44 474.5,-44 474.5,-24 517.5,-24 517.5,-44"/>
<text xml:space="preserve" text-anchor="middle" x="496" y="-30.5" font-family="Helvetica,sans-Serif" font-size="10.00">thread</text>
</a>
</g>
</g>
<!-- dir_f6f2eee406c47ee98e9bf0bf5d5793fa -->
<g id="node3" class="node">
<title>dir_f6f2eee406c47ee98e9bf0bf5d5793fa</title>
<g id="a_node3"><a xlink:href="dir_f6f2eee406c47ee98e9bf0bf5d5793fa.html" target="_top" xlink:title="joystick">
<polygon fill="#a2b4d6" stroke="red" points="545.88,-100 496.12,-100 496.12,-80 545.88,-80 545.88,-100"/>
<text xml:space="preserve" text-anchor="middle" x="521" y="-86.5" font-family="Helvetica,sans-Serif" font-size="10.00">joystick</text>
</a>
</g>
</g>
<!-- dir_8ccd3cc4d8357b9b91e4c7c89efa03b7 -->
<g id="node4" class="node">
<title>dir_8ccd3cc4d8357b9b91e4c7c89efa03b7</title>
<text xml:space="preserve" text-anchor="middle" x="331" y="-142.5" font-family="Helvetica,sans-Serif" font-size="10.00">hidapi</text>
</g>
<!-- dir_8ccd3cc4d8357b9b91e4c7c89efa03b7&#45;&gt;dir_9737c3e3605f759e2a67737bf2c1e907 -->
<g id="edge6" class="edge">
<title>dir_8ccd3cc4d8357b9b91e4c7c89efa03b7&#45;&gt;dir_9737c3e3605f759e2a67737bf2c1e907</title>
<g id="a_edge6"><a xlink:href="dir_000091_000023.html" target="_top">
<path fill="none" stroke="#63b8ff" d="M351.63,-141.29C379.43,-135.63 429.74,-122.97 467,-100 477.7,-93.4 477.32,-88.02 487,-80 499.89,-69.32 515.3,-58.7 527.99,-50.47"/>
<polygon fill="#63b8ff" stroke="#63b8ff" points="529.65,-53.56 536.2,-45.23 525.89,-47.66 529.65,-53.56"/>
</a>
</g>
<g id="a_edge6&#45;headlabel"><a xlink:href="dir_000091_000023.html" target="_top" xlink:title="2">
<text xml:space="preserve" text-anchor="middle" x="529.42" y="-53.57" font-family="Helvetica,sans-Serif" font-size="10.00" fill="#63b8ff">2</text>
</a>
</g>
</g>
<!-- dir_8ccd3cc4d8357b9b91e4c7c89efa03b7&#45;&gt;dir_f6f2eee406c47ee98e9bf0bf5d5793fa -->
<g id="edge7" class="edge">
<title>dir_8ccd3cc4d8357b9b91e4c7c89efa03b7&#45;&gt;dir_f6f2eee406c47ee98e9bf0bf5d5793fa</title>
<g id="a_edge7"><a xlink:href="dir_000091_000101.html" target="_top">
<path fill="none" stroke="#63b8ff" d="M351.7,-139.12C383.65,-130.04 445.41,-112.48 484.85,-101.27"/>
<polygon fill="#63b8ff" stroke="#63b8ff" points="485.71,-104.67 494.37,-98.57 483.8,-97.94 485.71,-104.67"/>
</a>
</g>
<g id="a_edge7&#45;headlabel"><a xlink:href="dir_000091_000101.html" target="_top" xlink:title="1">
<text xml:space="preserve" text-anchor="middle" x="484.48" y="-104.47" font-family="Helvetica,sans-Serif" font-size="10.00" fill="#63b8ff">1</text>
</a>
</g>
</g>
<!-- dir_291394a07e382a602259c2fb414fe598 -->
<g id="node6" class="node">
<title>dir_291394a07e382a602259c2fb414fe598</title>
<g id="a_node6"><a xlink:href="dir_291394a07e382a602259c2fb414fe598.html" target="_top" xlink:title="hidapi">
<polygon fill="#a2b4d6" stroke="#404040" points="277.75,-44 236.25,-44 236.25,-24 277.75,-24 277.75,-44"/>
<text xml:space="preserve" text-anchor="middle" x="257" y="-30.5" font-family="Helvetica,sans-Serif" font-size="10.00">hidapi</text>
</a>
</g>
</g>
<!-- dir_8ccd3cc4d8357b9b91e4c7c89efa03b7&#45;&gt;dir_291394a07e382a602259c2fb414fe598 -->
<g id="edge2" class="edge">
<title>dir_8ccd3cc4d8357b9b91e4c7c89efa03b7&#45;&gt;dir_291394a07e382a602259c2fb414fe598</title>
<g id="a_edge2"><a xlink:href="dir_000091_000092.html" target="_top">
<path fill="none" stroke="#63b8ff" d="M331.72,-136.27C332.39,-123.06 331.96,-97.66 321,-80 313.11,-67.29 300.16,-57.18 287.97,-49.8"/>
<polygon fill="#63b8ff" stroke="#63b8ff" points="289.79,-46.8 279.35,-44.97 286.37,-52.91 289.79,-46.8"/>
</a>
</g>
<g id="a_edge2&#45;headlabel"><a xlink:href="dir_000091_000092.html" target="_top" xlink:title="11">
<text xml:space="preserve" text-anchor="middle" x="292.99" y="-41.84" font-family="Helvetica,sans-Serif" font-size="10.00" fill="#63b8ff">11</text>
</a>
</g>
</g>
<!-- dir_8d2e4d0a3a829d1a9372622c1ccdc76d -->
<g id="node8" class="node">
<title>dir_8d2e4d0a3a829d1a9372622c1ccdc76d</title>
<g id="a_node8"><a xlink:href="dir_8d2e4d0a3a829d1a9372622c1ccdc76d.html" target="_top" xlink:title="libusb">
<polygon fill="#a2b4d6" stroke="#404040" points="391.75,-100 350.25,-100 350.25,-80 391.75,-80 391.75,-100"/>
<text xml:space="preserve" text-anchor="middle" x="371" y="-86.5" font-family="Helvetica,sans-Serif" font-size="10.00">libusb</text>
</a>
</g>
</g>
<!-- dir_8ccd3cc4d8357b9b91e4c7c89efa03b7&#45;&gt;dir_8d2e4d0a3a829d1a9372622c1ccdc76d -->
<g id="edge4" class="edge">
<title>dir_8ccd3cc4d8357b9b91e4c7c89efa03b7&#45;&gt;dir_8d2e4d0a3a829d1a9372622c1ccdc76d</title>
<g id="a_edge4"><a xlink:href="dir_000091_000106.html" target="_top">
<path fill="none" stroke="#63b8ff" d="M337.61,-136.08C342.95,-128.87 350.66,-118.46 357.32,-109.47"/>
<polygon fill="#63b8ff" stroke="#63b8ff" points="359.94,-111.81 363.08,-101.69 354.32,-107.64 359.94,-111.81"/>
</a>
</g>
<g id="a_edge4&#45;headlabel"><a xlink:href="dir_000091_000106.html" target="_top" xlink:title="1">
<text xml:space="preserve" text-anchor="middle" x="360.98" y="-111.67" font-family="Helvetica,sans-Serif" font-size="10.00" fill="#63b8ff">1</text>
</a>
</g>
</g>
<!-- dir_46de4c0be2b80d673c1e3d312f3ed8b9 -->
<g id="node10" class="node">
<title>dir_46de4c0be2b80d673c1e3d312f3ed8b9</title>
<g id="a_node10"><a xlink:href="dir_46de4c0be2b80d673c1e3d312f3ed8b9.html" target="_top" xlink:title="mac">
<polygon fill="#a2b4d6" stroke="#404040" points="58.38,-100 23.62,-100 23.62,-80 58.38,-80 58.38,-100"/>
<text xml:space="preserve" text-anchor="middle" x="41" y="-86.5" font-family="Helvetica,sans-Serif" font-size="10.00">mac</text>
</a>
</g>
</g>
<!-- dir_8ccd3cc4d8357b9b91e4c7c89efa03b7&#45;&gt;dir_46de4c0be2b80d673c1e3d312f3ed8b9 -->
<g id="edge3" class="edge">
<title>dir_8ccd3cc4d8357b9b91e4c7c89efa03b7&#45;&gt;dir_46de4c0be2b80d673c1e3d312f3ed8b9</title>
<g id="a_edge3"><a xlink:href="dir_000091_000114.html" target="_top">
<path fill="none" stroke="#63b8ff" d="M310.32,-142.55C267.3,-137.23 164.95,-123.38 69.59,-100.04"/>
<polygon fill="#63b8ff" stroke="#63b8ff" points="70.62,-96.69 60.07,-97.66 68.93,-103.48 70.62,-96.69"/>
</a>
</g>
<g id="a_edge3&#45;headlabel"><a xlink:href="dir_000091_000114.html" target="_top" xlink:title="1">
<text xml:space="preserve" text-anchor="middle" x="73.33" y="-90.94" font-family="Helvetica,sans-Serif" font-size="10.00" fill="#63b8ff">1</text>
</a>
</g>
</g>
<!-- dir_966a2048259dabaaa213038899081166 -->
<g id="node11" class="node">
<title>dir_966a2048259dabaaa213038899081166</title>
<g id="a_node11"><a xlink:href="dir_966a2048259dabaaa213038899081166.html" target="_top" xlink:title="netbsd">
<polygon fill="#a2b4d6" stroke="#404040" points="248.62,-100 203.38,-100 203.38,-80 248.62,-80 248.62,-100"/>
<text xml:space="preserve" text-anchor="middle" x="226" y="-86.5" font-family="Helvetica,sans-Serif" font-size="10.00">netbsd</text>
</a>
</g>
</g>
<!-- dir_8ccd3cc4d8357b9b91e4c7c89efa03b7&#45;&gt;dir_966a2048259dabaaa213038899081166 -->
<g id="edge5" class="edge">
<title>dir_8ccd3cc4d8357b9b91e4c7c89efa03b7&#45;&gt;dir_966a2048259dabaaa213038899081166</title>
<g id="a_edge5"><a xlink:href="dir_000091_000136.html" target="_top">
<path fill="none" stroke="#63b8ff" d="M313.66,-136.08C297.62,-127.83 273.46,-115.41 254.57,-105.69"/>
<polygon fill="#63b8ff" stroke="#63b8ff" points="256.26,-102.63 245.77,-101.17 253.06,-108.85 256.26,-102.63"/>
</a>
</g>
<g id="a_edge5&#45;headlabel"><a xlink:href="dir_000091_000136.html" target="_top" xlink:title="1">
<text xml:space="preserve" text-anchor="middle" x="259.41" y="-97.56" font-family="Helvetica,sans-Serif" font-size="10.00" fill="#63b8ff">1</text>
</a>
</g>
</g>
<!-- dir_1e222937167fda5e3af49cead53db1d0 -->
<g id="node13" class="node">
<title>dir_1e222937167fda5e3af49cead53db1d0</title>
<g id="a_node13"><a xlink:href="dir_1e222937167fda5e3af49cead53db1d0.html" target="_top" xlink:title="windows">
<polygon fill="#a2b4d6" stroke="#404040" points="131.12,-100 76.88,-100 76.88,-80 131.12,-80 131.12,-100"/>
<text xml:space="preserve" text-anchor="middle" x="104" y="-86.5" font-family="Helvetica,sans-Serif" font-size="10.00">windows</text>
</a>
</g>
</g>
<!-- dir_8ccd3cc4d8357b9b91e4c7c89efa03b7&#45;&gt;dir_1e222937167fda5e3af49cead53db1d0 -->
<g id="edge1" class="edge">
<title>dir_8ccd3cc4d8357b9b91e4c7c89efa03b7&#45;&gt;dir_1e222937167fda5e3af49cead53db1d0</title>
<g id="a_edge1"><a xlink:href="dir_000091_000241.html" target="_top">
<path fill="none" stroke="#63b8ff" d="M310.35,-140.23C277.14,-132.54 209.54,-116.81 142.66,-100.62"/>
<polygon fill="#63b8ff" stroke="#63b8ff" points="143.52,-97.23 132.98,-98.27 141.87,-104.03 143.52,-97.23"/>
</a>
</g>
<g id="a_edge1&#45;headlabel"><a xlink:href="dir_000091_000241.html" target="_top" xlink:title="1">
<text xml:space="preserve" text-anchor="middle" x="146.21" y="-91.46" font-family="Helvetica,sans-Serif" font-size="10.00" fill="#63b8ff">1</text>
</a>
</g>
</g>
<!-- dir_c86388e2f82fd9ae3a2a2863f79a1c00 -->
<g id="node5" class="node">
<title>dir_c86388e2f82fd9ae3a2a2863f79a1c00</title>
<g id="a_node5"><a xlink:href="dir_c86388e2f82fd9ae3a2a2863f79a1c00.html" target="_top" xlink:title="android">
<polygon fill="#a2b4d6" stroke="#404040" points="457.75,-100 410.25,-100 410.25,-80 457.75,-80 457.75,-100"/>
<text xml:space="preserve" text-anchor="middle" x="434" y="-86.5" font-family="Helvetica,sans-Serif" font-size="10.00">android</text>
</a>
</g>
</g>
<!-- dir_c86388e2f82fd9ae3a2a2863f79a1c00&#45;&gt;dir_9737c3e3605f759e2a67737bf2c1e907 -->
<g id="edge9" class="edge">
<title>dir_c86388e2f82fd9ae3a2a2863f79a1c00&#45;&gt;dir_9737c3e3605f759e2a67737bf2c1e907</title>
<g id="a_edge9"><a xlink:href="dir_000007_000023.html" target="_top">
<path fill="none" stroke="#63b8ff" d="M454.73,-79.59C474.12,-70.79 503.25,-57.58 524.76,-47.81"/>
<polygon fill="#63b8ff" stroke="#63b8ff" points="526.19,-51.01 533.85,-43.69 523.29,-44.64 526.19,-51.01"/>
</a>
</g>
<g id="a_edge9&#45;headlabel"><a xlink:href="dir_000007_000023.html" target="_top" xlink:title="1">
<text xml:space="preserve" text-anchor="middle" x="525.46" y="-50.96" font-family="Helvetica,sans-Serif" font-size="10.00" fill="#63b8ff">1</text>
</a>
</g>
</g>
<!-- dir_c86388e2f82fd9ae3a2a2863f79a1c00&#45;&gt;dir_291394a07e382a602259c2fb414fe598 -->
<g id="edge8" class="edge">
<title>dir_c86388e2f82fd9ae3a2a2863f79a1c00&#45;&gt;dir_291394a07e382a602259c2fb414fe598</title>
<g id="a_edge8"><a xlink:href="dir_000007_000092.html" target="_top">
<path fill="none" stroke="#63b8ff" d="M409.91,-82.33C382.06,-74.53 334.59,-60.92 289.13,-46.28"/>
<polygon fill="#63b8ff" stroke="#63b8ff" points="290.28,-42.97 279.69,-43.21 288.12,-49.63 290.28,-42.97"/>
</a>
</g>
<g id="a_edge8&#45;headlabel"><a xlink:href="dir_000007_000092.html" target="_top" xlink:title="1">
<text xml:space="preserve" text-anchor="middle" x="293.14" y="-37.42" font-family="Helvetica,sans-Serif" font-size="10.00" fill="#63b8ff">1</text>
</a>
</g>
</g>
<!-- dir_c2f7f1c1a4c96f0308388561e8d22e16 -->
<g id="node7" class="node">
<title>dir_c2f7f1c1a4c96f0308388561e8d22e16</title>
<g id="a_node7"><a xlink:href="dir_c2f7f1c1a4c96f0308388561e8d22e16.html" target="_top" xlink:title="ios">
<polygon fill="#a2b4d6" stroke="#404040" points="428.4,-156 399.6,-156 399.6,-136 428.4,-136 428.4,-156"/>
<text xml:space="preserve" text-anchor="middle" x="414" y="-142.5" font-family="Helvetica,sans-Serif" font-size="10.00">ios</text>
</a>
</g>
</g>
<!-- dir_8d2e4d0a3a829d1a9372622c1ccdc76d&#45;&gt;dir_a5ec7129e648c361df8742a75d968273 -->
<g id="edge11" class="edge">
<title>dir_8d2e4d0a3a829d1a9372622c1ccdc76d&#45;&gt;dir_a5ec7129e648c361df8742a75d968273</title>
<g id="a_edge11"><a xlink:href="dir_000106_000200.html" target="_top">
<path fill="none" stroke="#63b8ff" d="M392.2,-79.84C411.84,-71.36 441.31,-58.62 463.84,-48.89"/>
<polygon fill="#63b8ff" stroke="#63b8ff" points="465.09,-52.17 472.88,-44.99 462.31,-45.74 465.09,-52.17"/>
</a>
</g>
<g id="a_edge11&#45;headlabel"><a xlink:href="dir_000106_000200.html" target="_top" xlink:title="1">
<text xml:space="preserve" text-anchor="middle" x="464.31" y="-52.1" font-family="Helvetica,sans-Serif" font-size="10.00" fill="#63b8ff">1</text>
</a>
</g>
</g>
<!-- dir_8d2e4d0a3a829d1a9372622c1ccdc76d&#45;&gt;dir_291394a07e382a602259c2fb414fe598 -->
<g id="edge10" class="edge">
<title>dir_8d2e4d0a3a829d1a9372622c1ccdc76d&#45;&gt;dir_291394a07e382a602259c2fb414fe598</title>
<g id="a_edge10"><a xlink:href="dir_000106_000092.html" target="_top">
<path fill="none" stroke="#63b8ff" d="M351.14,-79.59C333.51,-71.24 307.49,-58.92 287.27,-49.34"/>
<polygon fill="#63b8ff" stroke="#63b8ff" points="288.92,-46.25 278.38,-45.13 285.92,-52.57 288.92,-46.25"/>
</a>
</g>
<g id="a_edge10&#45;headlabel"><a xlink:href="dir_000106_000092.html" target="_top" xlink:title="1">
<text xml:space="preserve" text-anchor="middle" x="292.01" y="-41.07" font-family="Helvetica,sans-Serif" font-size="10.00" fill="#63b8ff">1</text>
</a>
</g>
</g>
<!-- dir_aef512a6e5a3fd1ff9550046f19787d8 -->
<g id="node9" class="node">
<title>dir_aef512a6e5a3fd1ff9550046f19787d8</title>
<g id="a_node9"><a xlink:href="dir_aef512a6e5a3fd1ff9550046f19787d8.html" target="_top" xlink:title="linux">
<polygon fill="#a2b4d6" stroke="#404040" points="185.12,-100 148.88,-100 148.88,-80 185.12,-80 185.12,-100"/>
<text xml:space="preserve" text-anchor="middle" x="167" y="-86.5" font-family="Helvetica,sans-Serif" font-size="10.00">linux</text>
</a>
</g>
</g>
<!-- dir_aef512a6e5a3fd1ff9550046f19787d8&#45;&gt;dir_291394a07e382a602259c2fb414fe598 -->
<g id="edge12" class="edge">
<title>dir_aef512a6e5a3fd1ff9550046f19787d8&#45;&gt;dir_291394a07e382a602259c2fb414fe598</title>
<g id="a_edge12"><a xlink:href="dir_000109_000092.html" target="_top">
<path fill="none" stroke="#63b8ff" d="M182.68,-79.59C196.14,-71.51 215.82,-59.71 231.54,-50.27"/>
<polygon fill="#63b8ff" stroke="#63b8ff" points="233.13,-53.4 239.9,-45.26 229.53,-47.4 233.13,-53.4"/>
</a>
</g>
<g id="a_edge12&#45;headlabel"><a xlink:href="dir_000109_000092.html" target="_top" xlink:title="1">
<text xml:space="preserve" text-anchor="middle" x="232.81" y="-53.41" font-family="Helvetica,sans-Serif" font-size="10.00" fill="#63b8ff">1</text>
</a>
</g>
</g>
<!-- dir_46de4c0be2b80d673c1e3d312f3ed8b9&#45;&gt;dir_291394a07e382a602259c2fb414fe598 -->
<g id="edge13" class="edge">
<title>dir_46de4c0be2b80d673c1e3d312f3ed8b9&#45;&gt;dir_291394a07e382a602259c2fb414fe598</title>
<g id="a_edge13"><a xlink:href="dir_000114_000092.html" target="_top">
<path fill="none" stroke="#63b8ff" d="M58.65,-82.87C61.75,-81.86 64.96,-80.87 68,-80 122.68,-64.41 187.29,-49.84 225.05,-41.71"/>
<polygon fill="#63b8ff" stroke="#63b8ff" points="225.34,-45.22 234.39,-39.71 223.88,-38.38 225.34,-45.22"/>
</a>
</g>
<g id="a_edge13&#45;headlabel"><a xlink:href="dir_000114_000092.html" target="_top" xlink:title="1">
<text xml:space="preserve" text-anchor="middle" x="223.9" y="-44.94" font-family="Helvetica,sans-Serif" font-size="10.00" fill="#63b8ff">1</text>
</a>
</g>
</g>
<!-- dir_966a2048259dabaaa213038899081166&#45;&gt;dir_291394a07e382a602259c2fb414fe598 -->
<g id="edge14" class="edge">
<title>dir_966a2048259dabaaa213038899081166&#45;&gt;dir_291394a07e382a602259c2fb414fe598</title>
<g id="a_edge14"><a xlink:href="dir_000136_000092.html" target="_top">
<path fill="none" stroke="#63b8ff" d="M231.4,-79.59C235.44,-72.55 241.12,-62.67 246.09,-54"/>
<polygon fill="#63b8ff" stroke="#63b8ff" points="248.97,-56.03 250.91,-45.61 242.89,-52.54 248.97,-56.03"/>
</a>
</g>
<g id="a_edge14&#45;headlabel"><a xlink:href="dir_000136_000092.html" target="_top" xlink:title="1">
<text xml:space="preserve" text-anchor="middle" x="250.39" y="-55.74" font-family="Helvetica,sans-Serif" font-size="10.00" fill="#63b8ff">1</text>
</a>
</g>
</g>
<!-- dir_5da0ff6070f53ddd774bf93e266e36ce -->
<g id="node12" class="node">
<title>dir_5da0ff6070f53ddd774bf93e266e36ce</title>
<g id="a_node12"><a xlink:href="dir_5da0ff6070f53ddd774bf93e266e36ce.html" target="_top" xlink:title="testgui">
<polygon fill="#a2b4d6" stroke="#404040" points="311.62,-100 266.38,-100 266.38,-80 311.62,-80 311.62,-100"/>
<text xml:space="preserve" text-anchor="middle" x="289" y="-86.5" font-family="Helvetica,sans-Serif" font-size="10.00">testgui</text>
</a>
</g>
</g>
<!-- dir_5da0ff6070f53ddd774bf93e266e36ce&#45;&gt;dir_291394a07e382a602259c2fb414fe598 -->
<g id="edge15" class="edge">
<title>dir_5da0ff6070f53ddd774bf93e266e36ce&#45;&gt;dir_291394a07e382a602259c2fb414fe598</title>
<g id="a_edge15"><a xlink:href="dir_000199_000092.html" target="_top">
<path fill="none" stroke="#63b8ff" d="M283.43,-79.59C279.25,-72.55 273.4,-62.67 268.26,-54"/>
<polygon fill="#63b8ff" stroke="#63b8ff" points="271.39,-52.42 263.28,-45.6 265.37,-55.99 271.39,-52.42"/>
</a>
</g>
<g id="a_edge15&#45;headlabel"><a xlink:href="dir_000199_000092.html" target="_top" xlink:title="1">
<text xml:space="preserve" text-anchor="middle" x="274.89" y="-49.26" font-family="Helvetica,sans-Serif" font-size="10.00" fill="#63b8ff">1</text>
</a>
</g>
</g>
<!-- dir_1e222937167fda5e3af49cead53db1d0&#45;&gt;dir_291394a07e382a602259c2fb414fe598 -->
<g id="edge16" class="edge">
<title>dir_1e222937167fda5e3af49cead53db1d0&#45;&gt;dir_291394a07e382a602259c2fb414fe598</title>
<g id="a_edge16"><a xlink:href="dir_000241_000092.html" target="_top">
<path fill="none" stroke="#63b8ff" d="M130.65,-79.59C156.99,-70.3 197.29,-56.08 225.26,-46.2"/>
<polygon fill="#63b8ff" stroke="#63b8ff" points="226.36,-49.52 234.63,-42.9 224.03,-42.92 226.36,-49.52"/>
</a>
</g>
<g id="a_edge16&#45;headlabel"><a xlink:href="dir_000241_000092.html" target="_top" xlink:title="2">
<text xml:space="preserve" text-anchor="middle" x="225.35" y="-49.39" font-family="Helvetica,sans-Serif" font-size="10.00" fill="#63b8ff">2</text>
</a>
</g>
</g>
</g>
</svg>

<g id="navigator" transform="translate(0 0)" fill="#404254">
  <rect fill="#f2f5e9" fill-opacity="0.5" stroke="#606060" stroke-width=".5" x="0" y="0" width="60" height="60"/>
  <use id="zoomplus" xlink:href="#zoomPlus" x="17" y="9" onmousedown="handleZoom(evt,'in')"/>
  <use id="zoomminus" xlink:href="#zoomMin" x="42" y="9" onmousedown="handleZoom(evt,'out')"/>
  <use id="reset" xlink:href="#resetDef" x="30" y="36" onmousedown="handleReset()"/>
   <use id="arrowup" xlink:href="#arrowUp" x="0" y="0" onmousedown="handlePan(0,-1)"/>
  <use id="arrowright" xlink:href="#arrowRight" x="0" y="0" onmousedown="handlePan(1,0)"/>
  <use id="arrowdown" xlink:href="#arrowDown" x="0" y="0" onmousedown="handlePan(0,1)"/>
  <use id="arrowleft" xlink:href="#arrowLeft" x="0" y="0" onmousedown="handlePan(-1,0)"/>
</g>
<svg viewBox="0 0 15 15" width="100%" height="30px" preserveAspectRatio="xMaxYMin meet">
 <g id="arrow_out" transform="scale(0.3 0.3)">
  <a xlink:href="dir_8ccd3cc4d8357b9b91e4c7c89efa03b7_dep_org.svg" target="_base">
   <rect id="button" ry="5" rx="5" y="6" x="6" height="38" width="38"
        fill="#f2f5e9" fill-opacity="0.5" stroke="#606060" stroke-width="1.0"/>
   <path id="arrow"
     d="M 11.500037,31.436501 C 11.940474,20.09759 22.043105,11.32322 32.158766,21.979434 L 37.068811,17.246167 C 37.068811,17.246167 37.088388,32 37.088388,32 L 22.160133,31.978069 C 22.160133,31.978069 26.997745,27.140456 26.997745,27.140456 C 18.528582,18.264221 13.291696,25.230495 11.500037,31.436501 z"
     style="fill:#404040;"/>
  </a>
 </g>
</svg>

<style type='text/css'>
<![CDATA[
[data-mouse-over-selected='false'] { opacity: 0.7; }
[data-mouse-over-selected='true']  { opacity: 1.0; }
]]>
</style>
<script type="application/ecmascript"><![CDATA[
document.addEventListener('DOMContentLoaded', (event) => {
  highlightEdges();
  highlightAdjacentNodes();
});
]]></script>
</svg>
