<?xml version="1.0" encoding="UTF-8" standalone="no"?>
<!DOCTYPE svg PUBLIC "-//W3C//DTD SVG 1.1//EN"
 "http://www.w3.org/Graphics/SVG/1.1/DTD/svg11.dtd">
<!-- Generated by graphviz version 13.1.0 (20250701.0955)
 -->
<!-- Title: SDL&#45;main/src/haptic Pages: 1 -->
<svg width="524pt" height="144pt"
 viewBox="0.00 0.00 524.00 144.00" xmlns="http://www.w3.org/2000/svg" xmlns:xlink="http://www.w3.org/1999/xlink">
<g id="graph0" class="graph" transform="scale(1 1) rotate(0) translate(4 140)">
<title>SDL&#45;main/src/haptic</title>
<g id="clust1" class="cluster">
<title>clusterdir_93dff7e69d031a1b18a384e0d03ab66f</title>
<g id="a_clust1"><a xlink:href="dir_93dff7e69d031a1b18a384e0d03ab66f.html" target="_top" xlink:title="src">
<polygon fill="#edf0f7" stroke="#7f7f7f" stroke-dasharray="5,2" points="8,-8 8,-128 462,-128 462,-8 8,-8"/>
<text xml:space="preserve" text-anchor="middle" x="235" y="-114.5" font-family="Helvetica,sans-Serif" font-size="10.00">src</text>
</a>
</g>
</g>
<g id="clust2" class="cluster">
<title>clusterdir_c0bb770f6e1cd4a6a9aaa93e6b832205</title>
<g id="a_clust2"><a xlink:href="dir_c0bb770f6e1cd4a6a9aaa93e6b832205.html" target="_top">
<polygon fill="#edf0f7" stroke="#404040" stroke-width="2" points="16,-64 16,-100 454,-100 454,-64 16,-64"/>
</a>
</g>
</g>
<!-- dir_f6f2eee406c47ee98e9bf0bf5d5793fa -->
<g id="node1" class="node">
<title>dir_f6f2eee406c47ee98e9bf0bf5d5793fa</title>
<g id="a_node1"><a xlink:href="dir_f6f2eee406c47ee98e9bf0bf5d5793fa.html" target="_top" xlink:title="joystick">
<polygon fill="#a2b4d6" stroke="red" points="196.88,-36 147.12,-36 147.12,-16 196.88,-16 196.88,-36"/>
<text xml:space="preserve" text-anchor="middle" x="172" y="-22.5" font-family="Helvetica,sans-Serif" font-size="10.00">joystick</text>
</a>
</g>
</g>
<!-- dir_9737c3e3605f759e2a67737bf2c1e907 -->
<g id="node2" class="node">
<title>dir_9737c3e3605f759e2a67737bf2c1e907</title>
<g id="a_node2"><a xlink:href="dir_9737c3e3605f759e2a67737bf2c1e907.html" target="_top" xlink:title="core">
<polygon fill="#a2b4d6" stroke="red" points="436.38,-36 401.62,-36 401.62,-16 436.38,-16 436.38,-36"/>
<text xml:space="preserve" text-anchor="middle" x="419" y="-22.5" font-family="Helvetica,sans-Serif" font-size="10.00">core</text>
</a>
</g>
</g>
<!-- dir_c0bb770f6e1cd4a6a9aaa93e6b832205 -->
<g id="node3" class="node">
<title>dir_c0bb770f6e1cd4a6a9aaa93e6b832205</title>
<text xml:space="preserve" text-anchor="middle" x="45" y="-78.5" font-family="Helvetica,sans-Serif" font-size="10.00">haptic</text>
</g>
<!-- dir_c0bb770f6e1cd4a6a9aaa93e6b832205&#45;&gt;dir_f6f2eee406c47ee98e9bf0bf5d5793fa -->
<g id="edge1" class="edge">
<title>dir_c0bb770f6e1cd4a6a9aaa93e6b832205&#45;&gt;dir_f6f2eee406c47ee98e9bf0bf5d5793fa</title>
<g id="a_edge1"><a xlink:href="dir_000089_000101.html" target="_top">
<path fill="none" stroke="#63b8ff" d="M59.72,-72.07C64.51,-69.33 69.91,-66.4 75,-64 94.81,-54.67 117.66,-45.87 136.21,-39.19"/>
<polygon fill="#63b8ff" stroke="#63b8ff" points="137.17,-42.56 145.42,-35.92 134.83,-35.96 137.17,-42.56"/>
</a>
</g>
<g id="a_edge1&#45;headlabel"><a xlink:href="dir_000089_000101.html" target="_top" xlink:title="3">
<text xml:space="preserve" text-anchor="middle" x="136.15" y="-42.43" font-family="Helvetica,sans-Serif" font-size="10.00" fill="#63b8ff">3</text>
</a>
</g>
</g>
<!-- dir_6515ca6f261e3827043b70c70f0cfb78 -->
<g id="node4" class="node">
<title>dir_6515ca6f261e3827043b70c70f0cfb78</title>
<g id="a_node4"><a xlink:href="dir_6515ca6f261e3827043b70c70f0cfb78.html" target="_top" xlink:title="android">
<polygon fill="#a2b4d6" stroke="#404040" points="131.75,-92 84.25,-92 84.25,-72 131.75,-72 131.75,-92"/>
<text xml:space="preserve" text-anchor="middle" x="108" y="-78.5" font-family="Helvetica,sans-Serif" font-size="10.00">android</text>
</a>
</g>
</g>
<!-- dir_844ad029fa3be7efa2a631e13f9f5325 -->
<g id="node5" class="node">
<title>dir_844ad029fa3be7efa2a631e13f9f5325</title>
<g id="a_node5"><a xlink:href="dir_844ad029fa3be7efa2a631e13f9f5325.html" target="_top" xlink:title="darwin">
<polygon fill="#a2b4d6" stroke="#404040" points="194.25,-92 149.75,-92 149.75,-72 194.25,-72 194.25,-92"/>
<text xml:space="preserve" text-anchor="middle" x="172" y="-78.5" font-family="Helvetica,sans-Serif" font-size="10.00">darwin</text>
</a>
</g>
</g>
<!-- dir_a447e1436b85dab33be5acff1fc17165 -->
<g id="node6" class="node">
<title>dir_a447e1436b85dab33be5acff1fc17165</title>
<g id="a_node6"><a xlink:href="dir_a447e1436b85dab33be5acff1fc17165.html" target="_top" xlink:title="dummy">
<polygon fill="#a2b4d6" stroke="#404040" points="260.12,-92 211.88,-92 211.88,-72 260.12,-72 260.12,-92"/>
<text xml:space="preserve" text-anchor="middle" x="236" y="-78.5" font-family="Helvetica,sans-Serif" font-size="10.00">dummy</text>
</a>
</g>
</g>
<!-- dir_c6a626cc52a8b129682a429a4421658c -->
<g id="node7" class="node">
<title>dir_c6a626cc52a8b129682a429a4421658c</title>
<g id="a_node7"><a xlink:href="dir_c6a626cc52a8b129682a429a4421658c.html" target="_top" xlink:title="hidapi">
<polygon fill="#a2b4d6" stroke="#404040" points="319.75,-92 278.25,-92 278.25,-72 319.75,-72 319.75,-92"/>
<text xml:space="preserve" text-anchor="middle" x="299" y="-78.5" font-family="Helvetica,sans-Serif" font-size="10.00">hidapi</text>
</a>
</g>
</g>
<!-- dir_c6a626cc52a8b129682a429a4421658c&#45;&gt;dir_f6f2eee406c47ee98e9bf0bf5d5793fa -->
<g id="edge3" class="edge">
<title>dir_c6a626cc52a8b129682a429a4421658c&#45;&gt;dir_f6f2eee406c47ee98e9bf0bf5d5793fa</title>
<g id="a_edge3"><a xlink:href="dir_000090_000101.html" target="_top">
<path fill="none" stroke="#63b8ff" d="M283.36,-71.54C278.8,-68.95 273.77,-66.24 269,-64 249.19,-54.67 226.34,-45.87 207.79,-39.19"/>
<polygon fill="#63b8ff" stroke="#63b8ff" points="209.17,-35.96 198.58,-35.92 206.83,-42.56 209.17,-35.96"/>
</a>
</g>
<g id="a_edge3&#45;headlabel"><a xlink:href="dir_000090_000101.html" target="_top" xlink:title="2">
<text xml:space="preserve" text-anchor="middle" x="212.08" y="-30.48" font-family="Helvetica,sans-Serif" font-size="10.00" fill="#63b8ff">2</text>
</a>
</g>
</g>
<!-- dir_ebf95f20007d6bc6b45c448835273ca9 -->
<g id="node10" class="node">
<title>dir_ebf95f20007d6bc6b45c448835273ca9</title>
<g id="a_node10"><a xlink:href="dir_ebf95f20007d6bc6b45c448835273ca9.html" target="_top" xlink:title="include">
<polygon fill="#edf0f7" stroke="red" stroke-dasharray="5,2" points="516.38,-36 469.62,-36 469.62,-16 516.38,-16 516.38,-36"/>
<text xml:space="preserve" text-anchor="middle" x="493" y="-22.5" font-family="Helvetica,sans-Serif" font-size="10.00">include</text>
</a>
</g>
</g>
<!-- dir_c6a626cc52a8b129682a429a4421658c&#45;&gt;dir_ebf95f20007d6bc6b45c448835273ca9 -->
<g id="edge2" class="edge">
<title>dir_c6a626cc52a8b129682a429a4421658c&#45;&gt;dir_ebf95f20007d6bc6b45c448835273ca9</title>
<g id="a_edge2"><a xlink:href="dir_000090_000094.html" target="_top">
<path fill="none" stroke="#63b8ff" d="M313.51,-71.57C318.29,-68.79 323.73,-65.97 329,-64 383.67,-43.51 403.55,-51 458.18,-37.91"/>
<polygon fill="#63b8ff" stroke="#63b8ff" points="458.9,-41.34 467.73,-35.48 457.17,-34.55 458.9,-41.34"/>
</a>
</g>
<g id="a_edge2&#45;headlabel"><a xlink:href="dir_000090_000094.html" target="_top" xlink:title="2">
<text xml:space="preserve" text-anchor="middle" x="457.58" y="-41.1" font-family="Helvetica,sans-Serif" font-size="10.00" fill="#63b8ff">2</text>
</a>
</g>
</g>
<!-- dir_a7bfb7476dfc3abbc9037c22060dc68f -->
<g id="node8" class="node">
<title>dir_a7bfb7476dfc3abbc9037c22060dc68f</title>
<g id="a_node8"><a xlink:href="dir_a7bfb7476dfc3abbc9037c22060dc68f.html" target="_top" xlink:title="linux">
<polygon fill="#a2b4d6" stroke="#404040" points="374.12,-92 337.88,-92 337.88,-72 374.12,-72 374.12,-92"/>
<text xml:space="preserve" text-anchor="middle" x="356" y="-78.5" font-family="Helvetica,sans-Serif" font-size="10.00">linux</text>
</a>
</g>
</g>
<!-- dir_bd8a36147118ab63271f8a127007049c -->
<g id="node9" class="node">
<title>dir_bd8a36147118ab63271f8a127007049c</title>
<g id="a_node9"><a xlink:href="dir_bd8a36147118ab63271f8a127007049c.html" target="_top" xlink:title="windows">
<polygon fill="#a2b4d6" stroke="#404040" points="446.12,-92 391.88,-92 391.88,-72 446.12,-72 446.12,-92"/>
<text xml:space="preserve" text-anchor="middle" x="419" y="-78.5" font-family="Helvetica,sans-Serif" font-size="10.00">windows</text>
</a>
</g>
</g>
<!-- dir_bd8a36147118ab63271f8a127007049c&#45;&gt;dir_9737c3e3605f759e2a67737bf2c1e907 -->
<g id="edge4" class="edge">
<title>dir_bd8a36147118ab63271f8a127007049c&#45;&gt;dir_9737c3e3605f759e2a67737bf2c1e907</title>
<g id="a_edge4"><a xlink:href="dir_000240_000023.html" target="_top">
<path fill="none" stroke="#63b8ff" d="M419,-71.59C419,-65.01 419,-55.96 419,-47.73"/>
<polygon fill="#63b8ff" stroke="#63b8ff" points="422.5,-47.81 419,-37.81 415.5,-47.81 422.5,-47.81"/>
</a>
</g>
<g id="a_edge4&#45;headlabel"><a xlink:href="dir_000240_000023.html" target="_top" xlink:title="2">
<text xml:space="preserve" text-anchor="middle" x="425.34" y="-46.39" font-family="Helvetica,sans-Serif" font-size="10.00" fill="#63b8ff">2</text>
</a>
</g>
</g>
</g>
</svg>
