<?xml version="1.0" encoding="UTF-8" standalone="no"?>
<!DOCTYPE svg PUBLIC "-//W3C//DTD SVG 1.1//EN"
 "http://www.w3.org/Graphics/SVG/1.1/DTD/svg11.dtd">
<!-- Generated by graphviz version 13.1.0 (20250701.0955)
 -->
<!-- Title: SDL&#45;main/src/core Pages: 1 -->
<svg width="580pt" height="200pt"
 viewBox="0.00 0.00 580.00 200.00" xmlns="http://www.w3.org/2000/svg" xmlns:xlink="http://www.w3.org/1999/xlink">
<g id="graph0" class="graph" transform="scale(1 1) rotate(0) translate(4 196)">
<title>SDL&#45;main/src/core</title>
<g id="clust1" class="cluster">
<title>clusterdir_93dff7e69d031a1b18a384e0d03ab66f</title>
<g id="a_clust1"><a xlink:href="dir_93dff7e69d031a1b18a384e0d03ab66f.html" target="_top" xlink:title="src">
<polygon fill="#edf0f7" stroke="#7f7f7f" stroke-dasharray="5,2" points="8,-8 8,-184 564,-184 564,-8 8,-8"/>
<text xml:space="preserve" text-anchor="middle" x="286" y="-170.5" font-family="Helvetica,sans-Serif" font-size="10.00">src</text>
</a>
</g>
</g>
<g id="clust2" class="cluster">
<title>clusterdir_9737c3e3605f759e2a67737bf2c1e907</title>
<g id="a_clust2"><a xlink:href="dir_9737c3e3605f759e2a67737bf2c1e907.html" target="_top">
<polygon fill="#edf0f7" stroke="#404040" stroke-width="2" points="84,-64 84,-156 556,-156 556,-64 84,-64"/>
</a>
</g>
</g>
<!-- dir_3c50f8c1dc91c41718d430096e8986ba -->
<g id="node1" class="node">
<title>dir_3c50f8c1dc91c41718d430096e8986ba</title>
<g id="a_node1"><a xlink:href="dir_3c50f8c1dc91c41718d430096e8986ba.html" target="_top" xlink:title="audio">
<polygon fill="#a2b4d6" stroke="red" points="75.62,-92 36.38,-92 36.38,-72 75.62,-72 75.62,-92"/>
<text xml:space="preserve" text-anchor="middle" x="56" y="-78.5" font-family="Helvetica,sans-Serif" font-size="10.00">audio</text>
</a>
</g>
</g>
<!-- dir_aa68752ee0740d8afca2734b95315d10 -->
<g id="node2" class="node">
<title>dir_aa68752ee0740d8afca2734b95315d10</title>
<g id="a_node2"><a xlink:href="dir_aa68752ee0740d8afca2734b95315d10.html" target="_top" xlink:title="stdlib">
<polygon fill="#a2b4d6" stroke="#404040" points="305.62,-36 266.38,-36 266.38,-16 305.62,-16 305.62,-36"/>
<text xml:space="preserve" text-anchor="middle" x="286" y="-22.5" font-family="Helvetica,sans-Serif" font-size="10.00">stdlib</text>
</a>
</g>
</g>
<!-- dir_b7b7438138b39ba7ca73db38a6ad36be -->
<g id="node3" class="node">
<title>dir_b7b7438138b39ba7ca73db38a6ad36be</title>
<g id="a_node3"><a xlink:href="dir_b7b7438138b39ba7ca73db38a6ad36be.html" target="_top" xlink:title="video">
<polygon fill="#a2b4d6" stroke="red" points="248.62,-36 209.38,-36 209.38,-16 248.62,-16 248.62,-36"/>
<text xml:space="preserve" text-anchor="middle" x="229" y="-22.5" font-family="Helvetica,sans-Serif" font-size="10.00">video</text>
</a>
</g>
</g>
<!-- dir_8f49861dc308d10bb2be7f717cd5c3ee -->
<g id="node4" class="node">
<title>dir_8f49861dc308d10bb2be7f717cd5c3ee</title>
<g id="a_node4"><a xlink:href="dir_8f49861dc308d10bb2be7f717cd5c3ee.html" target="_top" xlink:title="events">
<polygon fill="#a2b4d6" stroke="#404040" points="427.62,-36 382.38,-36 382.38,-16 427.62,-16 427.62,-36"/>
<text xml:space="preserve" text-anchor="middle" x="405" y="-22.5" font-family="Helvetica,sans-Serif" font-size="10.00">events</text>
</a>
</g>
</g>
<!-- dir_9737c3e3605f759e2a67737bf2c1e907 -->
<g id="node5" class="node">
<title>dir_9737c3e3605f759e2a67737bf2c1e907</title>
<text xml:space="preserve" text-anchor="middle" x="109" y="-134.5" font-family="Helvetica,sans-Serif" font-size="10.00">core</text>
</g>
<!-- dir_5b41ad2ba8a5cdabf13ddd2526a5e037 -->
<g id="node6" class="node">
<title>dir_5b41ad2ba8a5cdabf13ddd2526a5e037</title>
<g id="a_node6"><a xlink:href="dir_5b41ad2ba8a5cdabf13ddd2526a5e037.html" target="_top" xlink:title="android">
<polygon fill="#a2b4d6" stroke="#404040" points="191.75,-148 144.25,-148 144.25,-128 191.75,-128 191.75,-148"/>
<text xml:space="preserve" text-anchor="middle" x="168" y="-134.5" font-family="Helvetica,sans-Serif" font-size="10.00">android</text>
</a>
</g>
</g>
<!-- dir_5b41ad2ba8a5cdabf13ddd2526a5e037&#45;&gt;dir_3c50f8c1dc91c41718d430096e8986ba -->
<g id="edge1" class="edge">
<title>dir_5b41ad2ba8a5cdabf13ddd2526a5e037&#45;&gt;dir_3c50f8c1dc91c41718d430096e8986ba</title>
<g id="a_edge1"><a xlink:href="dir_000003_000016.html" target="_top">
<path fill="none" stroke="#63b8ff" d="M148.49,-127.59C131.25,-119.28 105.84,-107.03 86.01,-97.47"/>
<polygon fill="#63b8ff" stroke="#63b8ff" points="87.55,-94.33 77.02,-93.14 84.51,-100.63 87.55,-94.33"/>
</a>
</g>
<g id="a_edge1&#45;headlabel"><a xlink:href="dir_000003_000016.html" target="_top" xlink:title="1">
<text xml:space="preserve" text-anchor="middle" x="90.66" y="-89.17" font-family="Helvetica,sans-Serif" font-size="10.00" fill="#63b8ff">1</text>
</a>
</g>
</g>
<!-- dir_5b41ad2ba8a5cdabf13ddd2526a5e037&#45;&gt;dir_b7b7438138b39ba7ca73db38a6ad36be -->
<g id="edge2" class="edge">
<title>dir_5b41ad2ba8a5cdabf13ddd2526a5e037&#45;&gt;dir_b7b7438138b39ba7ca73db38a6ad36be</title>
<g id="a_edge2"><a xlink:href="dir_000003_000215.html" target="_top">
<path fill="none" stroke="#63b8ff" d="M143.88,-130.1C104.54,-118.74 30.55,-96.86 27,-92 19.66,-81.95 19.03,-73.56 27,-64 48.34,-38.39 146.3,-30.45 197.54,-28.03"/>
<polygon fill="#63b8ff" stroke="#63b8ff" points="197.55,-31.54 207.39,-27.62 197.25,-24.54 197.55,-31.54"/>
</a>
</g>
<g id="a_edge2&#45;headlabel"><a xlink:href="dir_000003_000215.html" target="_top" xlink:title="1">
<text xml:space="preserve" text-anchor="middle" x="195.59" y="-30.96" font-family="Helvetica,sans-Serif" font-size="10.00" fill="#63b8ff">1</text>
</a>
</g>
</g>
<!-- dir_50d6b781f7ffea18ba41f13d41bdfde9 -->
<g id="node7" class="node">
<title>dir_50d6b781f7ffea18ba41f13d41bdfde9</title>
<g id="a_node7"><a xlink:href="dir_50d6b781f7ffea18ba41f13d41bdfde9.html" target="_top" xlink:title="freebsd">
<polygon fill="#a2b4d6" stroke="#404040" points="315.12,-148 266.88,-148 266.88,-128 315.12,-128 315.12,-148"/>
<text xml:space="preserve" text-anchor="middle" x="291" y="-134.5" font-family="Helvetica,sans-Serif" font-size="10.00">freebsd</text>
</a>
</g>
</g>
<!-- dir_fd389e7304642101aa055ade5e1e4c6c -->
<g id="node10" class="node">
<title>dir_fd389e7304642101aa055ade5e1e4c6c</title>
<g id="a_node10"><a xlink:href="dir_fd389e7304642101aa055ade5e1e4c6c.html" target="_top" xlink:title="linux">
<polygon fill="#a2b4d6" stroke="#404040" points="304.12,-92 267.88,-92 267.88,-72 304.12,-72 304.12,-92"/>
<text xml:space="preserve" text-anchor="middle" x="286" y="-78.5" font-family="Helvetica,sans-Serif" font-size="10.00">linux</text>
</a>
</g>
</g>
<!-- dir_50d6b781f7ffea18ba41f13d41bdfde9&#45;&gt;dir_fd389e7304642101aa055ade5e1e4c6c -->
<g id="edge3" class="edge">
<title>dir_50d6b781f7ffea18ba41f13d41bdfde9&#45;&gt;dir_fd389e7304642101aa055ade5e1e4c6c</title>
<g id="a_edge3"><a xlink:href="dir_000065_000107.html" target="_top">
<path fill="none" stroke="#63b8ff" d="M290.13,-127.59C289.52,-121.01 288.68,-111.96 287.92,-103.73"/>
<polygon fill="#63b8ff" stroke="#63b8ff" points="291.41,-103.44 287,-93.81 284.44,-104.09 291.41,-103.44"/>
</a>
</g>
<g id="a_edge3&#45;headlabel"><a xlink:href="dir_000065_000107.html" target="_top" xlink:title="1">
<text xml:space="preserve" text-anchor="middle" x="294.43" y="-101.75" font-family="Helvetica,sans-Serif" font-size="10.00" fill="#63b8ff">1</text>
</a>
</g>
</g>
<!-- dir_0f63a70d007098afc889616d2420be5e -->
<g id="node8" class="node">
<title>dir_0f63a70d007098afc889616d2420be5e</title>
<g id="a_node8"><a xlink:href="dir_0f63a70d007098afc889616d2420be5e.html" target="_top" xlink:title="gdk">
<polygon fill="#a2b4d6" stroke="#404040" points="364.88,-148 333.12,-148 333.12,-128 364.88,-128 364.88,-148"/>
<text xml:space="preserve" text-anchor="middle" x="349" y="-134.5" font-family="Helvetica,sans-Serif" font-size="10.00">gdk</text>
</a>
</g>
</g>
<!-- dir_0f63a70d007098afc889616d2420be5e&#45;&gt;dir_8f49861dc308d10bb2be7f717cd5c3ee -->
<g id="edge4" class="edge">
<title>dir_0f63a70d007098afc889616d2420be5e&#45;&gt;dir_8f49861dc308d10bb2be7f717cd5c3ee</title>
<g id="a_edge4"><a xlink:href="dir_000066_000063.html" target="_top">
<path fill="none" stroke="#63b8ff" d="M364.9,-127.76C376.8,-119.9 392.31,-107.43 400,-92 406.81,-78.34 407.83,-61.02 407.27,-47.7"/>
<polygon fill="#63b8ff" stroke="#63b8ff" points="410.78,-47.61 406.51,-37.91 403.8,-48.15 410.78,-47.61"/>
</a>
</g>
<g id="a_edge4&#45;headlabel"><a xlink:href="dir_000066_000063.html" target="_top" xlink:title="1">
<text xml:space="preserve" text-anchor="middle" x="413.77" y="-45.96" font-family="Helvetica,sans-Serif" font-size="10.00" fill="#63b8ff">1</text>
</a>
</g>
</g>
<!-- dir_a10c0427d30480aa3cc84438e60358e5 -->
<g id="node14" class="node">
<title>dir_a10c0427d30480aa3cc84438e60358e5</title>
<g id="a_node14"><a xlink:href="dir_a10c0427d30480aa3cc84438e60358e5.html" target="_top" xlink:title="windows">
<polygon fill="#a2b4d6" stroke="#404040" points="376.12,-92 321.88,-92 321.88,-72 376.12,-72 376.12,-92"/>
<text xml:space="preserve" text-anchor="middle" x="349" y="-78.5" font-family="Helvetica,sans-Serif" font-size="10.00">windows</text>
</a>
</g>
</g>
<!-- dir_0f63a70d007098afc889616d2420be5e&#45;&gt;dir_a10c0427d30480aa3cc84438e60358e5 -->
<g id="edge5" class="edge">
<title>dir_0f63a70d007098afc889616d2420be5e&#45;&gt;dir_a10c0427d30480aa3cc84438e60358e5</title>
<g id="a_edge5"><a xlink:href="dir_000066_000237.html" target="_top">
<path fill="none" stroke="#63b8ff" d="M349,-127.59C349,-121.01 349,-111.96 349,-103.73"/>
<polygon fill="#63b8ff" stroke="#63b8ff" points="352.5,-103.81 349,-93.81 345.5,-103.81 352.5,-103.81"/>
</a>
</g>
<g id="a_edge5&#45;headlabel"><a xlink:href="dir_000066_000237.html" target="_top" xlink:title="1">
<text xml:space="preserve" text-anchor="middle" x="355.34" y="-102.39" font-family="Helvetica,sans-Serif" font-size="10.00" fill="#63b8ff">1</text>
</a>
</g>
</g>
<!-- dir_a25c97e60f8d6acd30e60fa82cfd8b09 -->
<g id="node9" class="node">
<title>dir_a25c97e60f8d6acd30e60fa82cfd8b09</title>
<g id="a_node9"><a xlink:href="dir_a25c97e60f8d6acd30e60fa82cfd8b09.html" target="_top" xlink:title="haiku">
<polygon fill="#a2b4d6" stroke="#404040" points="248.62,-148 209.38,-148 209.38,-128 248.62,-128 248.62,-148"/>
<text xml:space="preserve" text-anchor="middle" x="229" y="-134.5" font-family="Helvetica,sans-Serif" font-size="10.00">haiku</text>
</a>
</g>
</g>
<!-- dir_a25c97e60f8d6acd30e60fa82cfd8b09&#45;&gt;dir_b7b7438138b39ba7ca73db38a6ad36be -->
<g id="edge7" class="edge">
<title>dir_a25c97e60f8d6acd30e60fa82cfd8b09&#45;&gt;dir_b7b7438138b39ba7ca73db38a6ad36be</title>
<g id="a_edge7"><a xlink:href="dir_000080_000215.html" target="_top">
<path fill="none" stroke="#63b8ff" d="M229,-127.62C229,-110.01 229,-71.59 229,-47.65"/>
<polygon fill="#63b8ff" stroke="#63b8ff" points="232.5,-47.87 229,-37.87 225.5,-47.87 232.5,-47.87"/>
</a>
</g>
<g id="a_edge7&#45;headlabel"><a xlink:href="dir_000080_000215.html" target="_top" xlink:title="2">
<text xml:space="preserve" text-anchor="middle" x="235.34" y="-46.45" font-family="Helvetica,sans-Serif" font-size="10.00" fill="#63b8ff">2</text>
</a>
</g>
</g>
<!-- dir_a25c97e60f8d6acd30e60fa82cfd8b09&#45;&gt;dir_8f49861dc308d10bb2be7f717cd5c3ee -->
<g id="edge6" class="edge">
<title>dir_a25c97e60f8d6acd30e60fa82cfd8b09&#45;&gt;dir_8f49861dc308d10bb2be7f717cd5c3ee</title>
<g id="a_edge6"><a xlink:href="dir_000080_000063.html" target="_top">
<path fill="none" stroke="#63b8ff" d="M248.95,-130.74C251.98,-129.81 255.07,-128.87 258,-128 314.24,-111.3 343.06,-133.02 385,-92 391.42,-85.72 397.27,-63.96 400.96,-47.33"/>
<polygon fill="#63b8ff" stroke="#63b8ff" points="404.31,-48.41 402.94,-37.9 397.46,-46.98 404.31,-48.41"/>
</a>
</g>
<g id="a_edge6&#45;headlabel"><a xlink:href="dir_000080_000063.html" target="_top" xlink:title="1">
<text xml:space="preserve" text-anchor="middle" x="406.66" y="-47.53" font-family="Helvetica,sans-Serif" font-size="10.00" fill="#63b8ff">1</text>
</a>
</g>
</g>
<!-- dir_fd389e7304642101aa055ade5e1e4c6c&#45;&gt;dir_aa68752ee0740d8afca2734b95315d10 -->
<g id="edge9" class="edge">
<title>dir_fd389e7304642101aa055ade5e1e4c6c&#45;&gt;dir_aa68752ee0740d8afca2734b95315d10</title>
<g id="a_edge9"><a xlink:href="dir_000107_000195.html" target="_top">
<path fill="none" stroke="#63b8ff" d="M286,-71.59C286,-65.01 286,-55.96 286,-47.73"/>
<polygon fill="#63b8ff" stroke="#63b8ff" points="289.5,-47.81 286,-37.81 282.5,-47.81 289.5,-47.81"/>
</a>
</g>
<g id="a_edge9&#45;headlabel"><a xlink:href="dir_000107_000195.html" target="_top" xlink:title="1">
<text xml:space="preserve" text-anchor="middle" x="292.34" y="-46.39" font-family="Helvetica,sans-Serif" font-size="10.00" fill="#63b8ff">1</text>
</a>
</g>
</g>
<!-- dir_fd389e7304642101aa055ade5e1e4c6c&#45;&gt;dir_b7b7438138b39ba7ca73db38a6ad36be -->
<g id="edge10" class="edge">
<title>dir_fd389e7304642101aa055ade5e1e4c6c&#45;&gt;dir_b7b7438138b39ba7ca73db38a6ad36be</title>
<g id="a_edge10"><a xlink:href="dir_000107_000215.html" target="_top">
<path fill="none" stroke="#63b8ff" d="M276.07,-71.59C268.06,-64.01 256.58,-53.13 246.97,-44.02"/>
<polygon fill="#63b8ff" stroke="#63b8ff" points="249.58,-41.68 239.91,-37.34 244.77,-46.76 249.58,-41.68"/>
</a>
</g>
<g id="a_edge10&#45;headlabel"><a xlink:href="dir_000107_000215.html" target="_top" xlink:title="3">
<text xml:space="preserve" text-anchor="middle" x="253.04" y="-37.55" font-family="Helvetica,sans-Serif" font-size="10.00" fill="#63b8ff">3</text>
</a>
</g>
</g>
<!-- dir_fd389e7304642101aa055ade5e1e4c6c&#45;&gt;dir_8f49861dc308d10bb2be7f717cd5c3ee -->
<g id="edge8" class="edge">
<title>dir_fd389e7304642101aa055ade5e1e4c6c&#45;&gt;dir_8f49861dc308d10bb2be7f717cd5c3ee</title>
<g id="a_edge8"><a xlink:href="dir_000107_000063.html" target="_top">
<path fill="none" stroke="#63b8ff" d="M300.01,-71.51C304.11,-68.92 308.66,-66.22 313,-64 331.83,-54.38 353.76,-45.48 371.49,-38.82"/>
<polygon fill="#63b8ff" stroke="#63b8ff" points="372.6,-42.14 380.77,-35.4 370.18,-35.57 372.6,-42.14"/>
</a>
</g>
<g id="a_edge8&#45;headlabel"><a xlink:href="dir_000107_000063.html" target="_top" xlink:title="1">
<text xml:space="preserve" text-anchor="middle" x="371.63" y="-42.02" font-family="Helvetica,sans-Serif" font-size="10.00" fill="#63b8ff">1</text>
</a>
</g>
</g>
<!-- dir_26cfbf0cfde8c44fd8e0444b4cd86026 -->
<g id="node11" class="node">
<title>dir_26cfbf0cfde8c44fd8e0444b4cd86026</title>
<g id="a_node11"><a xlink:href="dir_26cfbf0cfde8c44fd8e0444b4cd86026.html" target="_top" xlink:title="ngage">
<polygon fill="#a2b4d6" stroke="#404040" points="425.12,-148 382.88,-148 382.88,-128 425.12,-128 425.12,-148"/>
<text xml:space="preserve" text-anchor="middle" x="404" y="-134.5" font-family="Helvetica,sans-Serif" font-size="10.00">ngage</text>
</a>
</g>
</g>
<!-- dir_dfb86ae8bfff7d08ff0806d4b5bed3e1 -->
<g id="node12" class="node">
<title>dir_dfb86ae8bfff7d08ff0806d4b5bed3e1</title>
<g id="a_node12"><a xlink:href="dir_dfb86ae8bfff7d08ff0806d4b5bed3e1.html" target="_top" xlink:title="openbsd">
<polygon fill="#a2b4d6" stroke="#404040" points="496.38,-148 443.62,-148 443.62,-128 496.38,-128 496.38,-148"/>
<text xml:space="preserve" text-anchor="middle" x="470" y="-134.5" font-family="Helvetica,sans-Serif" font-size="10.00">openbsd</text>
</a>
</g>
</g>
<!-- dir_dfb86ae8bfff7d08ff0806d4b5bed3e1&#45;&gt;dir_8f49861dc308d10bb2be7f717cd5c3ee -->
<g id="edge11" class="edge">
<title>dir_dfb86ae8bfff7d08ff0806d4b5bed3e1&#45;&gt;dir_8f49861dc308d10bb2be7f717cd5c3ee</title>
<g id="a_edge11"><a xlink:href="dir_000147_000063.html" target="_top">
<path fill="none" stroke="#63b8ff" d="M464.46,-127.62C453.81,-109.6 430.3,-69.81 416.24,-46.02"/>
<polygon fill="#63b8ff" stroke="#63b8ff" points="419.4,-44.49 411.3,-37.66 413.37,-48.05 419.4,-44.49"/>
</a>
</g>
<g id="a_edge11&#45;headlabel"><a xlink:href="dir_000147_000063.html" target="_top" xlink:title="3">
<text xml:space="preserve" text-anchor="middle" x="422.9" y="-41.33" font-family="Helvetica,sans-Serif" font-size="10.00" fill="#63b8ff">3</text>
</a>
</g>
</g>
<!-- dir_31f4de95991f5e2a24a96c6f31cdbb46 -->
<g id="node13" class="node">
<title>dir_31f4de95991f5e2a24a96c6f31cdbb46</title>
<g id="a_node13"><a xlink:href="dir_31f4de95991f5e2a24a96c6f31cdbb46.html" target="_top" xlink:title="unix">
<polygon fill="#a2b4d6" stroke="#404040" points="548,-148 514,-148 514,-128 548,-128 548,-148"/>
<text xml:space="preserve" text-anchor="middle" x="531" y="-134.5" font-family="Helvetica,sans-Serif" font-size="10.00">unix</text>
</a>
</g>
</g>
</g>
</svg>
