<?xml version="1.0" encoding="UTF-8" standalone="no"?>
<!DOCTYPE svg PUBLIC "-//W3C//DTD SVG 1.1//EN"
 "http://www.w3.org/Graphics/SVG/1.1/DTD/svg11.dtd">
<!-- Generated by graphviz version 13.1.0 (20250701.0955)
 -->
<!-- Title: Graphical Class Hierarchy Pages: 1 -->
<svg width="305pt" height="66pt"
 viewBox="0.00 0.00 305.00 66.00" xmlns="http://www.w3.org/2000/svg" xmlns:xlink="http://www.w3.org/1999/xlink">
<g id="graph0" class="graph" transform="scale(1 1) rotate(0) translate(4 62)">
<title>Graphical Class Hierarchy</title>
<!-- Node0 -->
<g id="Node000000" class="node">
<title>Node0</title>
<g id="a_Node000000"><a xlink:title=" ">
<polygon fill="#e0e0e0" stroke="#999999" points="97,-58 19.5,-58 19.5,-38 97,-38 97,-58"/>
<text xml:space="preserve" text-anchor="middle" x="58.25" y="-44.5" font-family="Helvetica,sans-Serif" font-size="10.00">NSResponder</text>
</a>
</g>
</g>
<!-- Node1 -->
<g id="Node000001" class="node">
<title>Node1</title>
<g id="a_Node000001"><a xlink:href="de/d31/interfaceSDL3Cocoa__WindowListener.html" target="_top" xlink:title=" ">
<polygon fill="white" stroke="#666666" points="296.75,-39 152.5,-39 152.5,-19 296.75,-19 296.75,-39"/>
<text xml:space="preserve" text-anchor="middle" x="224.62" y="-25.5" font-family="Helvetica,sans-Serif" font-size="10.00">SDL3Cocoa_WindowListener</text>
</a>
</g>
</g>
<!-- Node0&#45;&gt;Node1 -->
<g id="edge22_Node000000_Node000001" class="edge">
<title>Node0&#45;&gt;Node1</title>
<g id="a_edge22_Node000000_Node000001"><a xlink:title=" ">
<path fill="none" stroke="#63b8ff" d="M108.51,-42.31C122.23,-40.72 137.41,-38.97 152.13,-37.26"/>
<polygon fill="#63b8ff" stroke="#63b8ff" points="108.41,-38.79 98.88,-43.42 109.21,-45.75 108.41,-38.79"/>
</a>
</g>
</g>
<!-- Node2 -->
<g id="Node000002" class="node">
<title>Node2</title>
<g id="a_Node000002"><a xlink:title=" ">
<polygon fill="#e0e0e0" stroke="#999999" points="116.5,-20 0,-20 0,0 116.5,0 116.5,-20"/>
<text xml:space="preserve" text-anchor="middle" x="58.25" y="-6.5" font-family="Helvetica,sans-Serif" font-size="10.00">&lt;NSWindowDelegate&gt;</text>
</a>
</g>
</g>
<!-- Node2&#45;&gt;Node1 -->
<g id="edge23_Node000002_Node000001" class="edge">
<title>Node2&#45;&gt;Node1</title>
<g id="a_edge23_Node000002_Node000001"><a xlink:title=" ">
<path fill="none" stroke="#63b8ff" d="M128.14,-17.96C136.03,-18.87 144.08,-19.81 152,-20.72"/>
<polygon fill="#63b8ff" stroke="#63b8ff" points="128.58,-14.49 118.24,-16.82 127.78,-21.44 128.58,-14.49"/>
</a>
</g>
</g>
</g>
</svg>
