<?xml version="1.0" encoding="UTF-8" standalone="no"?>
<!DOCTYPE svg PUBLIC "-//W3C//DTD SVG 1.1//EN"
 "http://www.w3.org/Graphics/SVG/1.1/DTD/svg11.dtd">
<!-- Generated by graphviz version 13.1.0 (20250701.0955)
 -->
<!-- Title: Graphical Class Hierarchy Pages: 1 -->
<svg width="275pt" height="66pt"
 viewBox="0.00 0.00 275.00 66.00" xmlns="http://www.w3.org/2000/svg" xmlns:xlink="http://www.w3.org/1999/xlink">
<g id="graph0" class="graph" transform="scale(1 1) rotate(0) translate(4 62)">
<title>Graphical Class Hierarchy</title>
<!-- Node0 -->
<g id="Node000000" class="node">
<title>Node0</title>
<g id="a_Node000000"><a xlink:title=" ">
<polygon fill="#e0e0e0" stroke="#999999" points="109,-20 57.75,-20 57.75,0 109,0 109,-20"/>
<text xml:space="preserve" text-anchor="middle" x="83.38" y="-6.5" font-family="Helvetica,sans-Serif" font-size="10.00">CActive</text>
</a>
</g>
</g>
<!-- Node1 -->
<g id="Node000001" class="node">
<title>Node1</title>
<g id="a_Node000001"><a xlink:href="df/d67/classCAudio.html" target="_top" xlink:title=" ">
<polygon fill="white" stroke="#666666" points="258.88,-58 210.62,-58 210.62,-38 258.88,-38 258.88,-58"/>
<text xml:space="preserve" text-anchor="middle" x="234.75" y="-44.5" font-family="Helvetica,sans-Serif" font-size="10.00">CAudio</text>
</a>
</g>
</g>
<!-- Node0&#45;&gt;Node1 -->
<g id="edge17_Node000000_Node000001" class="edge">
<title>Node0&#45;&gt;Node1</title>
<g id="a_edge17_Node000000_Node000001"><a xlink:title=" ">
<path fill="none" stroke="#63b8ff" d="M120.34,-17.89C134.8,-21.17 151.61,-25.11 166.75,-29 181.27,-32.73 197.44,-37.31 210.26,-41.03"/>
<polygon fill="#63b8ff" stroke="#63b8ff" points="121.33,-14.52 110.8,-15.75 119.79,-21.35 121.33,-14.52"/>
</a>
</g>
</g>
<!-- Node3 -->
<g id="Node000003" class="node">
<title>Node3</title>
<g id="a_Node000003"><a xlink:href="de/daf/classCSDLmain.html" target="_top" xlink:title=" ">
<polygon fill="white" stroke="#666666" points="266.75,-20 202.75,-20 202.75,0 266.75,0 266.75,-20"/>
<text xml:space="preserve" text-anchor="middle" x="234.75" y="-6.5" font-family="Helvetica,sans-Serif" font-size="10.00">CSDLmain</text>
</a>
</g>
</g>
<!-- Node0&#45;&gt;Node3 -->
<g id="edge18_Node000000_Node000003" class="edge">
<title>Node0&#45;&gt;Node3</title>
<g id="a_edge18_Node000000_Node000003"><a xlink:title=" ">
<path fill="none" stroke="#63b8ff" d="M120.6,-10C145.62,-10 178.55,-10 202.43,-10"/>
<polygon fill="#63b8ff" stroke="#63b8ff" points="120.89,-6.5 110.89,-10 120.89,-13.5 120.89,-6.5"/>
</a>
</g>
</g>
<!-- Node2 -->
<g id="Node000002" class="node">
<title>Node2</title>
<g id="a_Node000002"><a xlink:title=" ">
<polygon fill="#e0e0e0" stroke="#999999" points="166.75,-58 0,-58 0,-38 166.75,-38 166.75,-58"/>
<text xml:space="preserve" text-anchor="middle" x="83.38" y="-44.5" font-family="Helvetica,sans-Serif" font-size="10.00">MMdaAudioOutputStreamCallback</text>
</a>
</g>
</g>
<!-- Node2&#45;&gt;Node1 -->
<g id="edge19_Node000002_Node000001" class="edge">
<title>Node2&#45;&gt;Node1</title>
<g id="a_edge19_Node000002_Node000001"><a xlink:title=" ">
<path fill="none" stroke="#63b8ff" d="M178.37,-48C190.13,-48 201.2,-48 210.31,-48"/>
<polygon fill="#63b8ff" stroke="#63b8ff" points="178.44,-44.5 168.44,-48 178.44,-51.5 178.44,-44.5"/>
</a>
</g>
</g>
</g>
</svg>
