<?xml version="1.0" encoding="UTF-8" standalone="no"?>
<!DOCTYPE svg PUBLIC "-//W3C//DTD SVG 1.1//EN"
 "http://www.w3.org/Graphics/SVG/1.1/DTD/svg11.dtd">
<!-- Generated by graphviz version 13.1.0 (20250701.0955)
 -->
<!-- Title: SDL&#45;main/src/hidapi/windows/hidapi_hidpi.h Pages: 1 -->
<svg width="185pt" height="404pt"
 viewBox="0.00 0.00 185.00 404.00" xmlns="http://www.w3.org/2000/svg" xmlns:xlink="http://www.w3.org/1999/xlink">
<g id="graph0" class="graph" transform="scale(1 1) rotate(0) translate(4 400)">
<title>SDL&#45;main/src/hidapi/windows/hidapi_hidpi.h</title>
<!-- Node1 -->
<g id="Node000001" class="node">
<title>Node1</title>
<g id="a_Node000001"><a xlink:title=" ">
<polygon fill="#999999" stroke="#666666" points="122.12,-396 2.63,-396 2.63,-364 122.12,-364 122.12,-396"/>
<text xml:space="preserve" text-anchor="start" x="10.62" y="-382.5" font-family="Helvetica,sans-Serif" font-size="10.00">SDL&#45;main/src/hidapi</text>
<text xml:space="preserve" text-anchor="middle" x="62.38" y="-370.5" font-family="Helvetica,sans-Serif" font-size="10.00">/windows/hidapi_hidpi.h</text>
</a>
</g>
</g>
<!-- Node2 -->
<g id="Node000002" class="node">
<title>Node2</title>
<g id="a_Node000002"><a xlink:href="../../d1/d2a/hidapi__hidsdi_8h.html" target="_top" xlink:title=" ">
<polygon fill="white" stroke="#666666" points="124.75,-328 0,-328 0,-296 124.75,-296 124.75,-328"/>
<text xml:space="preserve" text-anchor="start" x="8" y="-314.5" font-family="Helvetica,sans-Serif" font-size="10.00">SDL&#45;main/src/hidapi</text>
<text xml:space="preserve" text-anchor="middle" x="62.38" y="-302.5" font-family="Helvetica,sans-Serif" font-size="10.00">/windows/hidapi_hidsdi.h</text>
</a>
</g>
</g>
<!-- Node1&#45;&gt;Node2 -->
<g id="edge1_Node000001_Node000002" class="edge">
<title>Node1&#45;&gt;Node2</title>
<g id="a_edge1_Node000001_Node000002"><a xlink:title=" ">
<path fill="none" stroke="#63b8ff" d="M62.38,-352.31C62.38,-344.12 62.38,-335.38 62.38,-328.22"/>
<polygon fill="#63b8ff" stroke="#63b8ff" points="58.88,-352.18 62.38,-362.18 65.88,-352.18 58.88,-352.18"/>
</a>
</g>
</g>
<!-- Node3 -->
<g id="Node000003" class="node">
<title>Node3</title>
<g id="a_Node000003"><a xlink:href="../../d0/d22/windows_2hid_8c.html" target="_top" xlink:title=" ">
<polygon fill="white" stroke="#666666" points="114.62,-100 10.12,-100 10.12,-68 114.62,-68 114.62,-100"/>
<text xml:space="preserve" text-anchor="start" x="18.12" y="-86.5" font-family="Helvetica,sans-Serif" font-size="10.00">SDL&#45;main/src/hidapi</text>
<text xml:space="preserve" text-anchor="middle" x="62.38" y="-74.5" font-family="Helvetica,sans-Serif" font-size="10.00">/windows/hid.c</text>
</a>
</g>
</g>
<!-- Node2&#45;&gt;Node3 -->
<g id="edge2_Node000002_Node000003" class="edge">
<title>Node2&#45;&gt;Node3</title>
<g id="a_edge2_Node000002_Node000003"><a xlink:title=" ">
<path fill="none" stroke="#63b8ff" d="M45.43,-286.05C40.93,-278.08 36.68,-268.98 34.38,-260 20.68,-206.62 20.68,-189.38 34.38,-136 37.69,-123.08 45.03,-109.93 51.36,-100.21"/>
<polygon fill="#63b8ff" stroke="#63b8ff" points="42.38,-287.77 50.58,-294.49 48.36,-284.13 42.38,-287.77"/>
</a>
</g>
</g>
<!-- Node5 -->
<g id="Node000005" class="node">
<title>Node5</title>
<g id="a_Node000005"><a xlink:href="../../d2/d4c/hidapi__descriptor__reconstruct_8h.html" target="_top" xlink:title=" ">
<polygon fill="white" stroke="#666666" points="177.25,-260 43.5,-260 43.5,-216 177.25,-216 177.25,-260"/>
<text xml:space="preserve" text-anchor="start" x="51.5" y="-246.5" font-family="Helvetica,sans-Serif" font-size="10.00">SDL&#45;main/src/hidapi</text>
<text xml:space="preserve" text-anchor="start" x="51.5" y="-234.5" font-family="Helvetica,sans-Serif" font-size="10.00">/windows/hidapi_descriptor</text>
<text xml:space="preserve" text-anchor="middle" x="110.38" y="-222.5" font-family="Helvetica,sans-Serif" font-size="10.00">_reconstruct.h</text>
</a>
</g>
</g>
<!-- Node2&#45;&gt;Node5 -->
<g id="edge4_Node000002_Node000005" class="edge">
<title>Node2&#45;&gt;Node5</title>
<g id="a_edge4_Node000002_Node000005"><a xlink:title=" ">
<path fill="none" stroke="#63b8ff" d="M78.82,-286.33C84.47,-277.85 90.75,-268.44 96.2,-260.26"/>
<polygon fill="#63b8ff" stroke="#63b8ff" points="76.03,-284.21 73.39,-294.47 81.85,-288.09 76.03,-284.21"/>
</a>
</g>
</g>
<!-- Node4 -->
<g id="Node000004" class="node">
<title>Node4</title>
<g id="a_Node000004"><a xlink:href="../../df/d72/SDL__hidapi__windows_8h.html" target="_top" xlink:title=" ">
<polygon fill="white" stroke="#666666" points="122.88,-32 1.88,-32 1.88,0 122.88,0 122.88,-32"/>
<text xml:space="preserve" text-anchor="start" x="9.88" y="-18.5" font-family="Helvetica,sans-Serif" font-size="10.00">SDL&#45;main/src/hidapi</text>
<text xml:space="preserve" text-anchor="middle" x="62.38" y="-6.5" font-family="Helvetica,sans-Serif" font-size="10.00">/SDL_hidapi_windows.h</text>
</a>
</g>
</g>
<!-- Node3&#45;&gt;Node4 -->
<g id="edge3_Node000003_Node000004" class="edge">
<title>Node3&#45;&gt;Node4</title>
<g id="a_edge3_Node000003_Node000004"><a xlink:title=" ">
<path fill="none" stroke="#63b8ff" d="M62.38,-56.31C62.38,-48.12 62.38,-39.38 62.38,-32.22"/>
<polygon fill="#63b8ff" stroke="#63b8ff" points="58.88,-56.18 62.38,-66.18 65.88,-56.18 58.88,-56.18"/>
</a>
</g>
</g>
<!-- Node6 -->
<g id="Node000006" class="node">
<title>Node6</title>
<g id="a_Node000006"><a xlink:href="../../df/d56/hidapi__descriptor__reconstruct_8c.html" target="_top" xlink:title=" ">
<polygon fill="white" stroke="#666666" points="177.25,-180 43.5,-180 43.5,-136 177.25,-136 177.25,-180"/>
<text xml:space="preserve" text-anchor="start" x="51.5" y="-166.5" font-family="Helvetica,sans-Serif" font-size="10.00">SDL&#45;main/src/hidapi</text>
<text xml:space="preserve" text-anchor="start" x="51.5" y="-154.5" font-family="Helvetica,sans-Serif" font-size="10.00">/windows/hidapi_descriptor</text>
<text xml:space="preserve" text-anchor="middle" x="110.38" y="-142.5" font-family="Helvetica,sans-Serif" font-size="10.00">_reconstruct.c</text>
</a>
</g>
</g>
<!-- Node5&#45;&gt;Node6 -->
<g id="edge5_Node000005_Node000006" class="edge">
<title>Node5&#45;&gt;Node6</title>
<g id="a_edge5_Node000005_Node000006"><a xlink:title=" ">
<path fill="none" stroke="#63b8ff" d="M110.38,-204.25C110.38,-196.15 110.38,-187.68 110.38,-180.29"/>
<polygon fill="#63b8ff" stroke="#63b8ff" points="106.88,-204.17 110.38,-214.17 113.88,-204.17 106.88,-204.17"/>
</a>
</g>
</g>
<!-- Node6&#45;&gt;Node3 -->
<g id="edge6_Node000006_Node000003" class="edge">
<title>Node6&#45;&gt;Node3</title>
<g id="a_edge6_Node000006_Node000003"><a xlink:title=" ">
<path fill="none" stroke="#63b8ff" d="M89.88,-126.26C83.86,-117.22 77.53,-107.73 72.46,-100.13"/>
<polygon fill="#63b8ff" stroke="#63b8ff" points="86.93,-128.15 95.39,-134.53 92.76,-124.27 86.93,-128.15"/>
</a>
</g>
</g>
</g>
</svg>
