<?xml version="1.0" encoding="UTF-8" standalone="no"?>
<!DOCTYPE svg PUBLIC "-//W3C//DTD SVG 1.1//EN"
 "http://www.w3.org/Graphics/SVG/1.1/DTD/svg11.dtd">
<!-- Generated by graphviz version 13.1.0 (20250701.0955)
 -->
<!-- Title: SDL&#45;main/src/thread/windows/SDL_sysmutex_c.h Pages: 1 -->
<svg width="328pt" height="108pt"
 viewBox="0.00 0.00 328.00 108.00" xmlns="http://www.w3.org/2000/svg" xmlns:xlink="http://www.w3.org/1999/xlink">
<g id="graph0" class="graph" transform="scale(1 1) rotate(0) translate(4 104)">
<title>SDL&#45;main/src/thread/windows/SDL_sysmutex_c.h</title>
<!-- Node1 -->
<g id="Node000001" class="node">
<title>Node1</title>
<g id="a_Node000001"><a xlink:title=" ">
<polygon fill="#999999" stroke="#666666" points="229.75,-100 83.25,-100 83.25,-68 229.75,-68 229.75,-100"/>
<text xml:space="preserve" text-anchor="start" x="91.25" y="-86.5" font-family="Helvetica,sans-Serif" font-size="10.00">SDL&#45;main/src/thread</text>
<text xml:space="preserve" text-anchor="middle" x="156.5" y="-74.5" font-family="Helvetica,sans-Serif" font-size="10.00">/windows/SDL_sysmutex_c.h</text>
</a>
</g>
</g>
<!-- Node2 -->
<g id="Node000002" class="node">
<title>Node2</title>
<g id="a_Node000002"><a xlink:href="../../d8/dce/SDL__syscond__cv_8c.html" target="_top" xlink:title=" ">
<polygon fill="white" stroke="#666666" points="145,-32 0,-32 0,0 145,0 145,-32"/>
<text xml:space="preserve" text-anchor="start" x="8" y="-18.5" font-family="Helvetica,sans-Serif" font-size="10.00">SDL&#45;main/src/thread</text>
<text xml:space="preserve" text-anchor="middle" x="72.5" y="-6.5" font-family="Helvetica,sans-Serif" font-size="10.00">/windows/SDL_syscond_cv.c</text>
</a>
</g>
</g>
<!-- Node1&#45;&gt;Node2 -->
<g id="edge1_Node000001_Node000002" class="edge">
<title>Node1&#45;&gt;Node2</title>
<g id="a_edge1_Node000001_Node000002"><a xlink:title=" ">
<path fill="none" stroke="#63b8ff" d="M127.99,-60.6C116.2,-51.34 102.83,-40.83 92.17,-32.45"/>
<polygon fill="#63b8ff" stroke="#63b8ff" points="125.8,-63.33 135.83,-66.76 130.13,-57.83 125.8,-63.33"/>
</a>
</g>
</g>
<!-- Node3 -->
<g id="Node000003" class="node">
<title>Node3</title>
<g id="a_Node000003"><a xlink:href="../../d3/da4/SDL__sysrwlock__srw_8c.html" target="_top" xlink:title=" ">
<polygon fill="white" stroke="#666666" points="320.38,-32 162.62,-32 162.62,0 320.38,0 320.38,-32"/>
<text xml:space="preserve" text-anchor="start" x="170.62" y="-18.5" font-family="Helvetica,sans-Serif" font-size="10.00">SDL&#45;main/src/thread</text>
<text xml:space="preserve" text-anchor="middle" x="241.5" y="-6.5" font-family="Helvetica,sans-Serif" font-size="10.00">/windows/SDL_sysrwlock_srw.c</text>
</a>
</g>
</g>
<!-- Node1&#45;&gt;Node3 -->
<g id="edge2_Node000001_Node000003" class="edge">
<title>Node1&#45;&gt;Node3</title>
<g id="a_edge2_Node000001_Node000003"><a xlink:title=" ">
<path fill="none" stroke="#63b8ff" d="M185,-60.87C197.01,-51.55 210.7,-40.91 221.6,-32.45"/>
<polygon fill="#63b8ff" stroke="#63b8ff" points="183.16,-57.87 177.41,-66.76 187.45,-63.4 183.16,-57.87"/>
</a>
</g>
</g>
</g>
</svg>
