<?xml version="1.0" encoding="UTF-8" standalone="no"?>
<!DOCTYPE svg PUBLIC "-//W3C//DTD SVG 1.1//EN"
 "http://www.w3.org/Graphics/SVG/1.1/DTD/svg11.dtd">
<!-- Generated by graphviz version 13.1.0 (20250701.0955)
 -->
<!-- Title: SDL&#45;main/src/hidapi/windows/pp_data_dump/pp_data_dump.c Pages: 1 -->
<svg width="271pt" height="176pt"
 viewBox="0.00 0.00 271.00 176.00" xmlns="http://www.w3.org/2000/svg" xmlns:xlink="http://www.w3.org/1999/xlink">
<g id="graph0" class="graph" transform="scale(1 1) rotate(0) translate(4 172)">
<title>SDL&#45;main/src/hidapi/windows/pp_data_dump/pp_data_dump.c</title>
<!-- Node1 -->
<g id="Node000001" class="node">
<title>Node1</title>
<g id="a_Node000001"><a xlink:title=" ">
<polygon fill="#999999" stroke="#666666" points="186.5,-168 62.5,-168 62.5,-124 186.5,-124 186.5,-168"/>
<text xml:space="preserve" text-anchor="start" x="70.5" y="-154.5" font-family="Helvetica,sans-Serif" font-size="10.00">SDL&#45;main/src/hidapi</text>
<text xml:space="preserve" text-anchor="start" x="70.5" y="-142.5" font-family="Helvetica,sans-Serif" font-size="10.00">/windows/pp_data_dump</text>
<text xml:space="preserve" text-anchor="middle" x="124.5" y="-130.5" font-family="Helvetica,sans-Serif" font-size="10.00">/pp_data_dump.c</text>
</a>
</g>
</g>
<!-- Node2 -->
<g id="Node000002" class="node">
<title>Node2</title>
<g id="a_Node000002"><a xlink:title=" ">
<polygon fill="#e0e0e0" stroke="#999999" points="37,-82 0,-82 0,-62 37,-62 37,-82"/>
<text xml:space="preserve" text-anchor="middle" x="18.5" y="-68.5" font-family="Helvetica,sans-Serif" font-size="10.00">hid.c</text>
</a>
</g>
</g>
<!-- Node1&#45;&gt;Node2 -->
<g id="edge1_Node000001_Node000002" class="edge">
<title>Node1&#45;&gt;Node2</title>
<g id="a_edge1_Node000001_Node000002"><a xlink:title=" ">
<path fill="none" stroke="#63b8ff" d="M92.98,-123.59C76.46,-112.37 56.59,-98.87 41.53,-88.64"/>
<polygon fill="#63b8ff" stroke="#63b8ff" points="43.9,-86.02 33.66,-83.3 39.97,-91.81 43.9,-86.02"/>
</a>
</g>
</g>
<!-- Node3 -->
<g id="Node000003" class="node">
<title>Node3</title>
<g id="a_Node000003"><a xlink:title=" ">
<polygon fill="#e0e0e0" stroke="#999999" points="194.38,-88 54.62,-88 54.62,-56 194.38,-56 194.38,-88"/>
<text xml:space="preserve" text-anchor="start" x="62.62" y="-74.5" font-family="Helvetica,sans-Serif" font-size="10.00">../windows/hidapi_descriptor</text>
<text xml:space="preserve" text-anchor="middle" x="124.5" y="-62.5" font-family="Helvetica,sans-Serif" font-size="10.00">_reconstruct.h</text>
</a>
</g>
</g>
<!-- Node1&#45;&gt;Node3 -->
<g id="edge2_Node000001_Node000003" class="edge">
<title>Node1&#45;&gt;Node3</title>
<g id="a_edge2_Node000001_Node000003"><a xlink:title=" ">
<path fill="none" stroke="#63b8ff" d="M124.5,-123.79C124.5,-116.18 124.5,-107.52 124.5,-99.52"/>
<polygon fill="#63b8ff" stroke="#63b8ff" points="128,-99.64 124.5,-89.64 121,-99.64 128,-99.64"/>
</a>
</g>
</g>
<!-- Node4 -->
<g id="Node000004" class="node">
<title>Node4</title>
<g id="a_Node000004"><a xlink:href="../../dc/dd0/hidapi_8h.html" target="_top" xlink:title=" ">
<polygon fill="white" stroke="#666666" points="262.38,-82 212.62,-82 212.62,-62 262.38,-62 262.38,-82"/>
<text xml:space="preserve" text-anchor="middle" x="237.5" y="-68.5" font-family="Helvetica,sans-Serif" font-size="10.00">hidapi.h</text>
</a>
</g>
</g>
<!-- Node1&#45;&gt;Node4 -->
<g id="edge3_Node000001_Node000004" class="edge">
<title>Node1&#45;&gt;Node4</title>
<g id="a_edge3_Node000001_Node000004"><a xlink:title=" ">
<path fill="none" stroke="#63b8ff" d="M158.1,-123.59C175.88,-112.26 197.3,-98.62 213.41,-88.35"/>
<polygon fill="#63b8ff" stroke="#63b8ff" points="214.84,-91.59 221.4,-83.26 211.08,-85.68 214.84,-91.59"/>
</a>
</g>
</g>
<!-- Node5 -->
<g id="Node000005" class="node">
<title>Node5</title>
<g id="a_Node000005"><a xlink:title=" ">
<polygon fill="#e0e0e0" stroke="#999999" points="262.75,-20 212.25,-20 212.25,0 262.75,0 262.75,-20"/>
<text xml:space="preserve" text-anchor="middle" x="237.5" y="-6.5" font-family="Helvetica,sans-Serif" font-size="10.00">wchar.h</text>
</a>
</g>
</g>
<!-- Node4&#45;&gt;Node5 -->
<g id="edge4_Node000004_Node000005" class="edge">
<title>Node4&#45;&gt;Node5</title>
<g id="a_edge4_Node000004_Node000005"><a xlink:title=" ">
<path fill="none" stroke="#63b8ff" d="M237.5,-61.62C237.5,-53.56 237.5,-41.65 237.5,-31.41"/>
<polygon fill="#63b8ff" stroke="#63b8ff" points="241,-31.63 237.5,-21.63 234,-31.63 241,-31.63"/>
</a>
</g>
</g>
</g>
</svg>
