<?xml version="1.0" encoding="UTF-8" standalone="no"?>
<!DOCTYPE svg PUBLIC "-//W3C//DTD SVG 1.1//EN"
 "http://www.w3.org/Graphics/SVG/1.1/DTD/svg11.dtd">
<!-- Generated by graphviz version 13.1.0 (20250701.0955)
 -->
<!-- Title: VkDisplayPlaneCapabilitiesKHR Pages: 1 -->
<svg width="207pt" height="150pt"
 viewBox="0.00 0.00 207.00 150.00" xmlns="http://www.w3.org/2000/svg" xmlns:xlink="http://www.w3.org/1999/xlink">
<g id="graph0" class="graph" transform="scale(1 1) rotate(0) translate(4 146)">
<title>VkDisplayPlaneCapabilitiesKHR</title>
<!-- Node1 -->
<g id="Node000001" class="node">
<title>Node1</title>
<g id="a_Node000001"><a xlink:title=" ">
<polygon fill="#999999" stroke="#666666" points="161.75,-20 3.25,-20 3.25,0 161.75,0 161.75,-20"/>
<text xml:space="preserve" text-anchor="middle" x="82.5" y="-6.5" font-family="Helvetica,sans-Serif" font-size="10.00">VkDisplayPlaneCapabilitiesKHR</text>
</a>
</g>
</g>
<!-- Node2 -->
<g id="Node000002" class="node">
<title>Node2</title>
<g id="a_Node000002"><a xlink:href="../../d6/d3e/structVkOffset2D.html" target="_top" xlink:title=" ">
<polygon fill="white" stroke="#666666" points="67,-142 0,-142 0,-122 67,-122 67,-142"/>
<text xml:space="preserve" text-anchor="middle" x="33.5" y="-128.5" font-family="Helvetica,sans-Serif" font-size="10.00">VkOffset2D</text>
</a>
</g>
</g>
<!-- Node2&#45;&gt;Node1 -->
<g id="edge1_Node000001_Node000002" class="edge">
<title>Node2&#45;&gt;Node1</title>
<g id="a_edge1_Node000001_Node000002"><a xlink:title=" ">
<path fill="none" stroke="#9a32cd" stroke-dasharray="5,2" d="M28.27,-110.6C24.35,-90.64 21.66,-60.1 34.75,-38 39.31,-30.3 46.96,-24.61 54.82,-20.5"/>
<polygon fill="#9a32cd" stroke="#9a32cd" points="24.84,-111.3 30.47,-120.27 31.67,-109.74 24.84,-111.3"/>
</a>
</g>
<text xml:space="preserve" text-anchor="start" x="37.75" y="-91.5" font-family="Helvetica,sans-Serif" font-size="10.00" fill="grey">maxDstPosition</text>
<text xml:space="preserve" text-anchor="start" x="37.75" y="-75.5" font-family="Helvetica,sans-Serif" font-size="10.00" fill="grey">maxSrcPosition</text>
<text xml:space="preserve" text-anchor="start" x="37.75" y="-59.5" font-family="Helvetica,sans-Serif" font-size="10.00" fill="grey">minDstPosition</text>
<text xml:space="preserve" text-anchor="start" x="37.75" y="-43.5" font-family="Helvetica,sans-Serif" font-size="10.00" fill="grey">minSrcPosition</text>
</g>
<!-- Node3 -->
<g id="Node000003" class="node">
<title>Node3</title>
<g id="a_Node000003"><a xlink:href="../../d1/d79/structVkExtent2D.html" target="_top" xlink:title=" ">
<polygon fill="white" stroke="#666666" points="167.12,-142 97.88,-142 97.88,-122 167.12,-122 167.12,-142"/>
<text xml:space="preserve" text-anchor="middle" x="132.5" y="-128.5" font-family="Helvetica,sans-Serif" font-size="10.00">VkExtent2D</text>
</a>
</g>
</g>
<!-- Node3&#45;&gt;Node1 -->
<g id="edge2_Node000001_Node000003" class="edge">
<title>Node3&#45;&gt;Node1</title>
<g id="a_edge2_Node000001_Node000003"><a xlink:title=" ">
<path fill="none" stroke="#9a32cd" stroke-dasharray="5,2" d="M130.98,-110.37C128.78,-90.67 123.44,-60.7 110.5,-38 106.62,-31.19 100.51,-25.01 94.98,-20.29"/>
<polygon fill="#9a32cd" stroke="#9a32cd" points="127.48,-110.51 131.88,-120.15 134.45,-109.87 127.48,-110.51"/>
</a>
</g>
<text xml:space="preserve" text-anchor="start" x="133.03" y="-91.5" font-family="Helvetica,sans-Serif" font-size="10.00" fill="grey">maxDstExtent</text>
<text xml:space="preserve" text-anchor="start" x="133.03" y="-75.5" font-family="Helvetica,sans-Serif" font-size="10.00" fill="grey">maxSrcExtent</text>
<text xml:space="preserve" text-anchor="start" x="133.03" y="-59.5" font-family="Helvetica,sans-Serif" font-size="10.00" fill="grey">minDstExtent</text>
<text xml:space="preserve" text-anchor="start" x="133.03" y="-43.5" font-family="Helvetica,sans-Serif" font-size="10.00" fill="grey">minSrcExtent</text>
</g>
</g>
</svg>
