<?xml version="1.0" encoding="UTF-8" standalone="no"?>
<!DOCTYPE svg PUBLIC "-//W3C//DTD SVG 1.1//EN"
 "http://www.w3.org/Graphics/SVG/1.1/DTD/svg11.dtd">
<!-- Generated by graphviz version 13.1.0 (20250701.0955)
 -->
<!-- Title: SDL&#45;main/src/core/windows/SDL_windows.h Pages: 1 -->
<!--zoomable 268 -->

<svg id="main" version="1.1" xmlns="http://www.w3.org/2000/svg" xmlns:xlink="http://www.w3.org/1999/xlink" xml:space="preserve" onload="init(evt)">

<style type="text/css"><![CDATA[
.node, .edge {opacity: 0.7;}
.node.selected, .edge.selected {opacity: 1;}
.edge:hover path { stroke: red; }
.edge:hover polygon { stroke: red; fill: red; }
]]></style>

<defs>
  <circle id="rim" cx="0" cy="0" r="7"/>
  <circle id="rim2" cx="0" cy="0" r="3.5"/>
  <g id="zoomPlus">
    <use xlink:href="#rim" fill="#404040"><set attributeName="fill" to="#808080" begin="zoomplus.mouseover" end="zoomplus.mouseout"/></use>
    <path d="M-4,0h8M0,-4v8" fill="none" stroke="white" stroke-width="1.5" pointer-events="none"/>
  </g>
  <g id="zoomMin">
    <use xlink:href="#rim" fill="#404040"><set attributeName="fill" to="#808080" begin="zoomminus.mouseover" end="zoomminus.mouseout"/></use>
    <path d="M-4,0h8" fill="none" stroke="white" stroke-width="1.5" pointer-events="none"/>
  </g>
  <g id="arrowUp" transform="translate(30 24)">
    <use xlink:href="#rim"/>
    <path pointer-events="none" fill="none" stroke="white" stroke-width="1.5" d="M0,-3.0v7 M-2.5,-0.5L0,-3.0L2.5,-0.5"/>
  </g>
  <g id="arrowRight" transform="rotate(90) translate(36 -43)">
    <use xlink:href="#rim"/>
    <path pointer-events="none" fill="none" stroke="white" stroke-width="1.5" d="M0,-3.0v7 M-2.5,-0.5L0,-3.0L2.5,-0.5"/>
  </g>
  <g id="arrowDown" transform="rotate(180) translate(-30 -48)">
    <use xlink:href="#rim"/>
    <path pointer-events="none" fill="none" stroke="white" stroke-width="1.5" d="M0,-3.0v7 M-2.5,-0.5L0,-3.0L2.5,-0.5"/>
  </g>
  <g id="arrowLeft" transform="rotate(270) translate(-36 17)">
    <use xlink:href="#rim"/>
    <path pointer-events="none" fill="none" stroke="white" stroke-width="1.5" d="M0,-3.0v7 M-2.5,-0.5L0,-3.0L2.5,-0.5"/>
  </g>
  <g id="resetDef">
    <use xlink:href="#rim2" fill="#404040"><set attributeName="fill" to="#808080" begin="reset.mouseover" end="reset.mouseout"/></use>
  </g>
</defs>
<script type="application/ecmascript">
var viewWidth = 2492;
var viewHeight = 268;
var sectionId = 'dynsection-1';
</script>
<script type="application/ecmascript" xlink:href="../../svg.min.js"/>
<svg id="graph" class="graph">
<g id="viewport">
<title>SDL&#45;main/src/core/windows/SDL_windows.h</title>
<!-- Node1 -->
<g id="Node000001" class="node">
<title>Node1</title>
<g id="a_Node000001"><a xlink:title=" ">
<polygon fill="#999999" stroke="#666666" points="1352.38,-260 1213.38,-260 1213.38,-228 1352.38,-228 1352.38,-260"/>
<text xml:space="preserve" text-anchor="start" x="1221.38" y="-246.5" font-family="Helvetica,sans-Serif" font-size="10.00">SDL&#45;main/src/core/windows</text>
<text xml:space="preserve" text-anchor="middle" x="1282.88" y="-234.5" font-family="Helvetica,sans-Serif" font-size="10.00">/SDL_windows.h</text>
</a>
</g>
</g>
<!-- Node2 -->
<g id="Node000002" class="node">
<title>Node2</title>
<g id="a_Node000002"><a xlink:href="../../d2/d67/SDL__gdk_8cpp.html" target="_top" xlink:title=" ">
<polygon fill="white" stroke="#666666" points="247.12,-186 130.62,-186 130.62,-154 247.12,-154 247.12,-186"/>
<text xml:space="preserve" text-anchor="start" x="138.62" y="-172.5" font-family="Helvetica,sans-Serif" font-size="10.00">SDL&#45;main/src/core/gdk</text>
<text xml:space="preserve" text-anchor="middle" x="188.88" y="-160.5" font-family="Helvetica,sans-Serif" font-size="10.00">/SDL_gdk.cpp</text>
</a>
</g>
</g>
<!-- Node1&#45;&gt;Node2 -->
<g id="edge1_Node000001_Node000002" class="edge">
<title>Node1&#45;&gt;Node2</title>
<g id="a_edge1_Node000001_Node000002"><a xlink:title=" ">
<path fill="none" stroke="#63b8ff" d="M1201.74,-241.4C993.02,-236.89 441.3,-222.38 260.88,-192 252.79,-190.64 244.32,-188.67 236.15,-186.49"/>
<polygon fill="#63b8ff" stroke="#63b8ff" points="1201.62,-244.9 1211.69,-241.61 1201.77,-237.9 1201.62,-244.9"/>
</a>
</g>
</g>
<!-- Node3 -->
<g id="Node000003" class="node">
<title>Node3</title>
<g id="a_Node000003"><a xlink:href="../../db/ddf/SDL__directx_8h.html" target="_top" xlink:title=" ">
<polygon fill="white" stroke="#666666" points="442.38,-186 303.38,-186 303.38,-154 442.38,-154 442.38,-186"/>
<text xml:space="preserve" text-anchor="start" x="311.38" y="-172.5" font-family="Helvetica,sans-Serif" font-size="10.00">SDL&#45;main/src/core/windows</text>
<text xml:space="preserve" text-anchor="middle" x="372.88" y="-160.5" font-family="Helvetica,sans-Serif" font-size="10.00">/SDL_directx.h</text>
</a>
</g>
</g>
<!-- Node1&#45;&gt;Node3 -->
<g id="edge2_Node000001_Node000003" class="edge">
<title>Node1&#45;&gt;Node3</title>
<g id="a_edge2_Node000001_Node000003"><a xlink:title=" ">
<path fill="none" stroke="#63b8ff" d="M1201.73,-243.43C1052.2,-243.04 723.52,-236.59 450.88,-192 442.29,-190.6 433.29,-188.64 424.58,-186.48"/>
<polygon fill="#63b8ff" stroke="#63b8ff" points="1201.52,-246.93 1211.53,-243.45 1201.54,-239.93 1201.52,-246.93"/>
</a>
</g>
</g>
<!-- Node7 -->
<g id="Node000007" class="node">
<title>Node7</title>
<g id="a_Node000007"><a xlink:href="../../d1/d48/SDL__windowsjoystick__c_8h.html" target="_top" xlink:title=" ">
<polygon fill="white" stroke="#666666" points="175.75,-106 0,-106 0,-74 175.75,-74 175.75,-106"/>
<text xml:space="preserve" text-anchor="start" x="8" y="-92.5" font-family="Helvetica,sans-Serif" font-size="10.00">SDL&#45;main/src/joystick</text>
<text xml:space="preserve" text-anchor="middle" x="87.88" y="-80.5" font-family="Helvetica,sans-Serif" font-size="10.00">/windows/SDL_windowsjoystick_c.h</text>
</a>
</g>
</g>
<!-- Node1&#45;&gt;Node7 -->
<g id="edge16_Node000001_Node000007" class="edge">
<title>Node1&#45;&gt;Node7</title>
<g id="a_edge16_Node000001_Node000007"><a xlink:title=" ">
<path fill="none" stroke="#63b8ff" d="M1201.68,-242.45C979.78,-240.44 374.38,-231.38 293.88,-192 270.66,-180.65 277.31,-162.44 255.88,-148 227.14,-128.64 191.21,-115.29 159.97,-106.4"/>
<polygon fill="#63b8ff" stroke="#63b8ff" points="1201.36,-245.95 1211.39,-242.54 1201.42,-238.95 1201.36,-245.95"/>
</a>
</g>
</g>
<!-- Node8 -->
<g id="Node000008" class="node">
<title>Node8</title>
<g id="a_Node000008"><a xlink:href="../../d3/d13/SDL__hid_8h.html" target="_top" xlink:title=" ">
<polygon fill="white" stroke="#666666" points="756.38,-186 617.38,-186 617.38,-154 756.38,-154 756.38,-186"/>
<text xml:space="preserve" text-anchor="start" x="625.38" y="-172.5" font-family="Helvetica,sans-Serif" font-size="10.00">SDL&#45;main/src/core/windows</text>
<text xml:space="preserve" text-anchor="middle" x="686.88" y="-160.5" font-family="Helvetica,sans-Serif" font-size="10.00">/SDL_hid.h</text>
</a>
</g>
</g>
<!-- Node1&#45;&gt;Node8 -->
<g id="edge7_Node000001_Node000008" class="edge">
<title>Node1&#45;&gt;Node8</title>
<g id="a_edge7_Node000001_Node000008"><a xlink:title=" ">
<path fill="none" stroke="#63b8ff" d="M1201.5,-239.04C1099.17,-233.14 918.42,-219.61 765.88,-192 757.5,-190.48 748.71,-188.52 740.16,-186.41"/>
<polygon fill="#63b8ff" stroke="#63b8ff" points="1201.28,-242.54 1211.46,-239.61 1201.68,-235.55 1201.28,-242.54"/>
</a>
</g>
</g>
<!-- Node10 -->
<g id="Node000010" class="node">
<title>Node10</title>
<g id="a_Node000010"><a xlink:href="../../d1/d88/SDL__xinput_8h.html" target="_top" xlink:title=" ">
<polygon fill="white" stroke="#666666" points="599.38,-186 460.38,-186 460.38,-154 599.38,-154 599.38,-186"/>
<text xml:space="preserve" text-anchor="start" x="468.38" y="-172.5" font-family="Helvetica,sans-Serif" font-size="10.00">SDL&#45;main/src/core/windows</text>
<text xml:space="preserve" text-anchor="middle" x="529.88" y="-160.5" font-family="Helvetica,sans-Serif" font-size="10.00">/SDL_xinput.h</text>
</a>
</g>
</g>
<!-- Node1&#45;&gt;Node10 -->
<g id="edge9_Node000001_Node000010" class="edge">
<title>Node1&#45;&gt;Node10</title>
<g id="a_edge9_Node000001_Node000010"><a xlink:title=" ">
<path fill="none" stroke="#63b8ff" d="M1202.2,-241.78C1074.99,-238.77 820.4,-228.31 607.88,-192 599.44,-190.56 590.6,-188.61 582.02,-186.48"/>
<polygon fill="#63b8ff" stroke="#63b8ff" points="1201.77,-245.27 1211.85,-242 1201.93,-238.27 1201.77,-245.27"/>
</a>
</g>
</g>
<!-- Node13 -->
<g id="Node000013" class="node">
<title>Node13</title>
<g id="a_Node000013"><a xlink:href="../../d5/d4b/SDL__windowsdialog_8c.html" target="_top" xlink:title=" ">
<polygon fill="white" stroke="#666666" points="931.38,-186 774.38,-186 774.38,-154 931.38,-154 931.38,-186"/>
<text xml:space="preserve" text-anchor="start" x="782.38" y="-172.5" font-family="Helvetica,sans-Serif" font-size="10.00">SDL&#45;main/src/dialog</text>
<text xml:space="preserve" text-anchor="middle" x="852.88" y="-160.5" font-family="Helvetica,sans-Serif" font-size="10.00">/windows/SDL_windowsdialog.c</text>
</a>
</g>
</g>
<!-- Node1&#45;&gt;Node13 -->
<g id="edge13_Node000001_Node000013" class="edge">
<title>Node1&#45;&gt;Node13</title>
<g id="a_edge13_Node000001_Node000013"><a xlink:title=" ">
<path fill="none" stroke="#63b8ff" d="M1201.85,-232.92C1132.34,-223.8 1029.64,-209.18 940.88,-192 932.39,-190.36 923.49,-188.45 914.75,-186.47"/>
<polygon fill="#63b8ff" stroke="#63b8ff" points="1201.27,-236.37 1211.64,-234.2 1202.18,-229.43 1201.27,-236.37"/>
</a>
</g>
</g>
<!-- Node14 -->
<g id="Node000014" class="node">
<title>Node14</title>
<g id="a_Node000014"><a xlink:href="../../df/de4/gdk_2SDL__sysfilesystem_8cpp.html" target="_top" xlink:title=" ">
<polygon fill="white" stroke="#666666" points="1091.88,-186 949.88,-186 949.88,-154 1091.88,-154 1091.88,-186"/>
<text xml:space="preserve" text-anchor="start" x="957.88" y="-172.5" font-family="Helvetica,sans-Serif" font-size="10.00">SDL&#45;main/src/filesystem</text>
<text xml:space="preserve" text-anchor="middle" x="1020.88" y="-160.5" font-family="Helvetica,sans-Serif" font-size="10.00">/gdk/SDL_sysfilesystem.cpp</text>
</a>
</g>
</g>
<!-- Node1&#45;&gt;Node14 -->
<g id="edge14_Node000001_Node000014" class="edge">
<title>Node1&#45;&gt;Node14</title>
<g id="a_edge14_Node000001_Node000014"><a xlink:title=" ">
<path fill="none" stroke="#63b8ff" d="M1215.74,-224.55C1172.76,-212.74 1117.63,-197.59 1076.99,-186.42"/>
<polygon fill="#63b8ff" stroke="#63b8ff" points="1214.64,-227.88 1225.21,-227.15 1216.49,-221.13 1214.64,-227.88"/>
</a>
</g>
</g>
<!-- Node15 -->
<g id="Node000015" class="node">
<title>Node15</title>
<g id="a_Node000015"><a xlink:href="../../d1/d76/SDL__rawinputjoystick__c_8h.html" target="_top" xlink:title=" ">
<polygon fill="white" stroke="#666666" points="1284,-186 1109.75,-186 1109.75,-154 1284,-154 1284,-186"/>
<text xml:space="preserve" text-anchor="start" x="1117.75" y="-172.5" font-family="Helvetica,sans-Serif" font-size="10.00">SDL&#45;main/src/joystick</text>
<text xml:space="preserve" text-anchor="middle" x="1196.88" y="-160.5" font-family="Helvetica,sans-Serif" font-size="10.00">/windows/SDL_rawinputjoystick_c.h</text>
</a>
</g>
</g>
<!-- Node1&#45;&gt;Node15 -->
<g id="edge15_Node000001_Node000015" class="edge">
<title>Node1&#45;&gt;Node15</title>
<g id="a_edge15_Node000001_Node000015"><a xlink:title=" ">
<path fill="none" stroke="#63b8ff" d="M1255.96,-220.46C1242.77,-209.42 1227.22,-196.4 1215.38,-186.5"/>
<polygon fill="#63b8ff" stroke="#63b8ff" points="1253.56,-223.02 1263.48,-226.76 1258.06,-217.66 1253.56,-223.02"/>
</a>
</g>
</g>
<!-- Node16 -->
<g id="Node000016" class="node">
<title>Node16</title>
<g id="a_Node000016"><a xlink:href="../../d8/d34/windows_2SDL__syslocale_8c.html" target="_top" xlink:title=" ">
<polygon fill="white" stroke="#666666" points="1436.12,-186 1301.62,-186 1301.62,-154 1436.12,-154 1436.12,-186"/>
<text xml:space="preserve" text-anchor="start" x="1309.62" y="-172.5" font-family="Helvetica,sans-Serif" font-size="10.00">SDL&#45;main/src/locale</text>
<text xml:space="preserve" text-anchor="middle" x="1368.88" y="-160.5" font-family="Helvetica,sans-Serif" font-size="10.00">/windows/SDL_syslocale.c</text>
</a>
</g>
</g>
<!-- Node1&#45;&gt;Node16 -->
<g id="edge17_Node000001_Node000016" class="edge">
<title>Node1&#45;&gt;Node16</title>
<g id="a_edge17_Node000001_Node000016"><a xlink:title=" ">
<path fill="none" stroke="#63b8ff" d="M1309.79,-220.46C1322.98,-209.42 1338.53,-196.4 1350.37,-186.5"/>
<polygon fill="#63b8ff" stroke="#63b8ff" points="1307.69,-217.66 1302.27,-226.76 1312.19,-223.02 1307.69,-217.66"/>
</a>
</g>
</g>
<!-- Node17 -->
<g id="Node000017" class="node">
<title>Node17</title>
<g id="a_Node000017"><a xlink:href="../../d0/d25/SDL__sysmain__runapp_8cpp.html" target="_top" xlink:title=" ">
<polygon fill="white" stroke="#666666" points="1587.75,-186 1454,-186 1454,-154 1587.75,-154 1587.75,-186"/>
<text xml:space="preserve" text-anchor="start" x="1462" y="-172.5" font-family="Helvetica,sans-Serif" font-size="10.00">SDL&#45;main/src/main/gdk</text>
<text xml:space="preserve" text-anchor="middle" x="1520.88" y="-160.5" font-family="Helvetica,sans-Serif" font-size="10.00">/SDL_sysmain_runapp.cpp</text>
</a>
</g>
</g>
<!-- Node1&#45;&gt;Node17 -->
<g id="edge18_Node000001_Node000017" class="edge">
<title>Node1&#45;&gt;Node17</title>
<g id="a_edge18_Node000001_Node000017"><a xlink:title=" ">
<path fill="none" stroke="#63b8ff" d="M1344.61,-224.32C1383.54,-212.55 1433.22,-197.52 1469.9,-186.42"/>
<polygon fill="#63b8ff" stroke="#63b8ff" points="1343.94,-220.87 1335.38,-227.12 1345.97,-227.57 1343.94,-220.87"/>
</a>
</g>
</g>
<!-- Node18 -->
<g id="Node000018" class="node">
<title>Node18</title>
<g id="a_Node000018"><a xlink:href="../../d2/de4/windows_2SDL__sysurl_8c.html" target="_top" xlink:title=" ">
<polygon fill="white" stroke="#666666" points="1747.5,-186 1606.25,-186 1606.25,-154 1747.5,-154 1747.5,-186"/>
<text xml:space="preserve" text-anchor="start" x="1614.25" y="-172.5" font-family="Helvetica,sans-Serif" font-size="10.00">SDL&#45;main/src/misc/windows</text>
<text xml:space="preserve" text-anchor="middle" x="1676.88" y="-160.5" font-family="Helvetica,sans-Serif" font-size="10.00">/SDL_sysurl.c</text>
</a>
</g>
</g>
<!-- Node1&#45;&gt;Node18 -->
<g id="edge19_Node000001_Node000018" class="edge">
<title>Node1&#45;&gt;Node18</title>
<g id="a_edge19_Node000001_Node000018"><a xlink:title=" ">
<path fill="none" stroke="#63b8ff" d="M1363.92,-232.01C1427.56,-222.86 1518.26,-208.66 1596.88,-192 1604.6,-190.36 1612.7,-188.46 1620.65,-186.48"/>
<polygon fill="#63b8ff" stroke="#63b8ff" points="1363.66,-228.51 1354.26,-233.39 1364.65,-235.44 1363.66,-228.51"/>
</a>
</g>
</g>
<!-- Node19 -->
<g id="Node000019" class="node">
<title>Node19</title>
<g id="a_Node000019"><a xlink:href="../../dd/d03/windows_2SDL__sysmutex__c_8h.html" target="_top" xlink:title=" ">
<polygon fill="white" stroke="#666666" points="1912.12,-186 1765.62,-186 1765.62,-154 1912.12,-154 1912.12,-186"/>
<text xml:space="preserve" text-anchor="start" x="1773.62" y="-172.5" font-family="Helvetica,sans-Serif" font-size="10.00">SDL&#45;main/src/thread</text>
<text xml:space="preserve" text-anchor="middle" x="1838.88" y="-160.5" font-family="Helvetica,sans-Serif" font-size="10.00">/windows/SDL_sysmutex_c.h</text>
</a>
</g>
</g>
<!-- Node1&#45;&gt;Node19 -->
<g id="edge20_Node000001_Node000019" class="edge">
<title>Node1&#45;&gt;Node19</title>
<g id="a_edge20_Node000001_Node000019"><a xlink:title=" ">
<path fill="none" stroke="#63b8ff" d="M1364.02,-237.83C1458.82,-230.97 1620.11,-216.74 1756.88,-192 1765.41,-190.46 1774.36,-188.51 1783.09,-186.43"/>
<polygon fill="#63b8ff" stroke="#63b8ff" points="1364.03,-234.32 1354.31,-238.52 1364.53,-241.3 1364.03,-234.32"/>
</a>
</g>
</g>
<!-- Node22 -->
<g id="Node000022" class="node">
<title>Node22</title>
<g id="a_Node000022"><a xlink:href="../../d1/df6/windows_2SDL__systhread__c_8h.html" target="_top" xlink:title=" ">
<polygon fill="white" stroke="#666666" points="2077.12,-186 1930.62,-186 1930.62,-154 2077.12,-154 2077.12,-186"/>
<text xml:space="preserve" text-anchor="start" x="1938.62" y="-172.5" font-family="Helvetica,sans-Serif" font-size="10.00">SDL&#45;main/src/thread</text>
<text xml:space="preserve" text-anchor="middle" x="2003.88" y="-160.5" font-family="Helvetica,sans-Serif" font-size="10.00">/windows/SDL_systhread_c.h</text>
</a>
</g>
</g>
<!-- Node1&#45;&gt;Node22 -->
<g id="edge23_Node000001_Node000022" class="edge">
<title>Node1&#45;&gt;Node22</title>
<g id="a_edge23_Node000001_Node000022"><a xlink:title=" ">
<path fill="none" stroke="#63b8ff" d="M1364.15,-240.87C1485.9,-236.7 1722.54,-224.78 1920.88,-192 1929.82,-190.52 1939.22,-188.56 1948.34,-186.42"/>
<polygon fill="#63b8ff" stroke="#63b8ff" points="1364.12,-237.37 1354.24,-241.2 1364.35,-244.37 1364.12,-237.37"/>
</a>
</g>
</g>
<!-- Node23 -->
<g id="Node000023" class="node">
<title>Node23</title>
<g id="a_Node000023"><a xlink:href="../../d1/d09/windows_2SDL__tray_8c.html" target="_top" xlink:title=" ">
<polygon fill="white" stroke="#666666" points="2144.25,-106 2007.5,-106 2007.5,-74 2144.25,-74 2144.25,-106"/>
<text xml:space="preserve" text-anchor="start" x="2015.5" y="-92.5" font-family="Helvetica,sans-Serif" font-size="10.00">SDL&#45;main/src/tray/windows</text>
<text xml:space="preserve" text-anchor="middle" x="2075.88" y="-80.5" font-family="Helvetica,sans-Serif" font-size="10.00">/SDL_tray.c</text>
</a>
</g>
</g>
<!-- Node1&#45;&gt;Node23 -->
<g id="edge24_Node000001_Node000023" class="edge">
<title>Node1&#45;&gt;Node23</title>
<g id="a_edge24_Node000001_Node000023"><a xlink:title=" ">
<path fill="none" stroke="#63b8ff" d="M1363.88,-240.81C1562.89,-235.05 2061.42,-218.06 2085.88,-192 2107.58,-168.87 2093.82,-128.34 2083.73,-106.3"/>
<polygon fill="#63b8ff" stroke="#63b8ff" points="1364.04,-237.31 1354.15,-241.09 1364.25,-244.3 1364.04,-237.31"/>
</a>
</g>
</g>
<!-- Node24 -->
<g id="Node000024" class="node">
<title>Node24</title>
<g id="a_Node000024"><a xlink:href="../../d5/dbb/SDL__surface__utils_8h.html" target="_top" xlink:title=" ">
<polygon fill="white" stroke="#666666" points="2250.5,-192 2133.25,-192 2133.25,-148 2250.5,-148 2250.5,-192"/>
<text xml:space="preserve" text-anchor="start" x="2141.25" y="-178.5" font-family="Helvetica,sans-Serif" font-size="10.00">SDL&#45;main/src/video</text>
<text xml:space="preserve" text-anchor="start" x="2141.25" y="-166.5" font-family="Helvetica,sans-Serif" font-size="10.00">/windows/SDL_surface</text>
<text xml:space="preserve" text-anchor="middle" x="2191.88" y="-154.5" font-family="Helvetica,sans-Serif" font-size="10.00">_utils.h</text>
</a>
</g>
</g>
<!-- Node1&#45;&gt;Node24 -->
<g id="edge25_Node000001_Node000024" class="edge">
<title>Node1&#45;&gt;Node24</title>
<g id="a_edge25_Node000001_Node000024"><a xlink:title=" ">
<path fill="none" stroke="#63b8ff" d="M1364.2,-243.92C1514.44,-244.32 1845.14,-239.13 2118.88,-192 2123.42,-191.22 2128.09,-190.26 2132.77,-189.18"/>
<polygon fill="#63b8ff" stroke="#63b8ff" points="1364.36,-240.42 1354.35,-243.88 1364.33,-247.42 1364.36,-240.42"/>
</a>
</g>
</g>
<!-- Node26 -->
<g id="Node000026" class="node">
<title>Node26</title>
<g id="a_Node000026"><a xlink:href="../../d0/d41/SDL__windowsvideo_8h.html" target="_top" xlink:title=" ">
<polygon fill="white" stroke="#666666" points="2460.25,-186 2305.5,-186 2305.5,-154 2460.25,-154 2460.25,-186"/>
<text xml:space="preserve" text-anchor="start" x="2313.5" y="-172.5" font-family="Helvetica,sans-Serif" font-size="10.00">SDL&#45;main/src/video</text>
<text xml:space="preserve" text-anchor="middle" x="2382.88" y="-160.5" font-family="Helvetica,sans-Serif" font-size="10.00">/windows/SDL_windowsvideo.h</text>
</a>
</g>
</g>
<!-- Node1&#45;&gt;Node26 -->
<g id="edge28_Node000001_Node000026" class="edge">
<title>Node1&#45;&gt;Node26</title>
<g id="a_edge28_Node000001_Node000026"><a xlink:title=" ">
<path fill="none" stroke="#63b8ff" d="M1364.14,-241.97C1532,-239.13 1928.97,-228.76 2259.88,-192 2274.62,-190.36 2290.29,-188.1 2305.32,-185.66"/>
<polygon fill="#63b8ff" stroke="#63b8ff" points="1364.15,-238.47 1354.21,-242.13 1364.27,-245.46 1364.15,-238.47"/>
</a>
</g>
</g>
<!-- Node4 -->
<g id="Node000004" class="node">
<title>Node4</title>
<g id="a_Node000004"><a xlink:href="../../d0/da7/SDL__directsound_8h.html" target="_top" xlink:title=" ">
<polygon fill="white" stroke="#666666" points="349.62,-106 194.12,-106 194.12,-74 349.62,-74 349.62,-106"/>
<text xml:space="preserve" text-anchor="start" x="202.12" y="-92.5" font-family="Helvetica,sans-Serif" font-size="10.00">SDL&#45;main/src/audio</text>
<text xml:space="preserve" text-anchor="middle" x="271.88" y="-80.5" font-family="Helvetica,sans-Serif" font-size="10.00">/directsound/SDL_directsound.h</text>
</a>
</g>
</g>
<!-- Node3&#45;&gt;Node4 -->
<g id="edge3_Node000003_Node000004" class="edge">
<title>Node3&#45;&gt;Node4</title>
<g id="a_edge3_Node000003_Node000004"><a xlink:title=" ">
<path fill="none" stroke="#63b8ff" d="M344.09,-146.77C327.37,-133.86 306.72,-117.91 291.79,-106.38"/>
<polygon fill="#63b8ff" stroke="#63b8ff" points="341.67,-149.32 351.72,-152.66 345.95,-143.78 341.67,-149.32"/>
</a>
</g>
</g>
<!-- Node5 -->
<g id="Node000005" class="node">
<title>Node5</title>
<g id="a_Node000005"><a xlink:href="../../d0/daa/SDL__windowshaptic__c_8h.html" target="_top" xlink:title=" ">
<polygon fill="white" stroke="#666666" points="536,-106 367.75,-106 367.75,-74 536,-74 536,-106"/>
<text xml:space="preserve" text-anchor="start" x="375.75" y="-92.5" font-family="Helvetica,sans-Serif" font-size="10.00">SDL&#45;main/src/haptic</text>
<text xml:space="preserve" text-anchor="middle" x="451.88" y="-80.5" font-family="Helvetica,sans-Serif" font-size="10.00">/windows/SDL_windowshaptic_c.h</text>
</a>
</g>
</g>
<!-- Node3&#45;&gt;Node5 -->
<g id="edge4_Node000003_Node000005" class="edge">
<title>Node3&#45;&gt;Node5</title>
<g id="a_edge4_Node000003_Node000005"><a xlink:title=" ">
<path fill="none" stroke="#63b8ff" d="M396.48,-145.69C409.36,-132.97 424.95,-117.59 436.3,-106.38"/>
<polygon fill="#63b8ff" stroke="#63b8ff" points="394.22,-143.01 389.56,-152.53 399.13,-147.99 394.22,-143.01"/>
</a>
</g>
</g>
<!-- Node3&#45;&gt;Node7 -->
<g id="edge6_Node000003_Node000007" class="edge">
<title>Node3&#45;&gt;Node7</title>
<g id="a_edge6_Node000003_Node000007"><a xlink:title=" ">
<path fill="none" stroke="#63b8ff" d="M305.71,-150.62C256.51,-137.15 190.48,-119.08 144.06,-106.38"/>
<polygon fill="#63b8ff" stroke="#63b8ff" points="304.54,-153.93 315.11,-153.19 306.39,-147.17 304.54,-153.93"/>
</a>
</g>
</g>
<!-- Node6 -->
<g id="Node000006" class="node">
<title>Node6</title>
<g id="a_Node000006"><a xlink:href="../../d8/d30/SDL__dinputhaptic__c_8h.html" target="_top" xlink:title=" ">
<polygon fill="white" stroke="#666666" points="530,-32 373.75,-32 373.75,0 530,0 530,-32"/>
<text xml:space="preserve" text-anchor="start" x="381.75" y="-18.5" font-family="Helvetica,sans-Serif" font-size="10.00">SDL&#45;main/src/haptic</text>
<text xml:space="preserve" text-anchor="middle" x="451.88" y="-6.5" font-family="Helvetica,sans-Serif" font-size="10.00">/windows/SDL_dinputhaptic_c.h</text>
</a>
</g>
</g>
<!-- Node5&#45;&gt;Node6 -->
<g id="edge5_Node000005_Node000006" class="edge">
<title>Node5&#45;&gt;Node6</title>
<g id="a_edge5_Node000005_Node000006"><a xlink:title=" ">
<path fill="none" stroke="#63b8ff" d="M451.88,-62.49C451.88,-52.3 451.88,-41.03 451.88,-32.25"/>
<polygon fill="#63b8ff" stroke="#63b8ff" points="448.38,-62.22 451.88,-72.22 455.38,-62.22 448.38,-62.22"/>
</a>
</g>
</g>
<!-- Node9 -->
<g id="Node000009" class="node">
<title>Node9</title>
<g id="a_Node000009"><a xlink:href="../../d3/d13/SDL__hid_8c.html" target="_top" xlink:title=" ">
<polygon fill="white" stroke="#666666" points="1031.38,-106 892.38,-106 892.38,-74 1031.38,-74 1031.38,-106"/>
<text xml:space="preserve" text-anchor="start" x="900.38" y="-92.5" font-family="Helvetica,sans-Serif" font-size="10.00">SDL&#45;main/src/core/windows</text>
<text xml:space="preserve" text-anchor="middle" x="961.88" y="-80.5" font-family="Helvetica,sans-Serif" font-size="10.00">/SDL_hid.c</text>
</a>
</g>
</g>
<!-- Node8&#45;&gt;Node9 -->
<g id="edge8_Node000008_Node000009" class="edge">
<title>Node8&#45;&gt;Node9</title>
<g id="a_edge8_Node000008_Node000009"><a xlink:title=" ">
<path fill="none" stroke="#63b8ff" d="M751.98,-150.53C799.43,-137.08 862.96,-119.06 907.66,-106.38"/>
<polygon fill="#63b8ff" stroke="#63b8ff" points="751.33,-147.08 742.66,-153.18 753.24,-153.82 751.33,-147.08"/>
</a>
</g>
</g>
<!-- Node10&#45;&gt;Node5 -->
<g id="edge11_Node000010_Node000005" class="edge">
<title>Node10&#45;&gt;Node5</title>
<g id="a_edge11_Node000010_Node000005"><a xlink:title=" ">
<path fill="none" stroke="#63b8ff" d="M506.56,-145.69C493.85,-132.97 478.46,-117.59 467.25,-106.38"/>
<polygon fill="#63b8ff" stroke="#63b8ff" points="503.85,-147.92 513.39,-152.52 508.8,-142.97 503.85,-147.92"/>
</a>
</g>
</g>
<!-- Node11 -->
<g id="Node000011" class="node">
<title>Node11</title>
<g id="a_Node000011"><a xlink:href="../../d0/d0f/SDL__xinput_8c.html" target="_top" xlink:title=" ">
<polygon fill="white" stroke="#666666" points="693.38,-106 554.38,-106 554.38,-74 693.38,-74 693.38,-106"/>
<text xml:space="preserve" text-anchor="start" x="562.38" y="-92.5" font-family="Helvetica,sans-Serif" font-size="10.00">SDL&#45;main/src/core/windows</text>
<text xml:space="preserve" text-anchor="middle" x="623.88" y="-80.5" font-family="Helvetica,sans-Serif" font-size="10.00">/SDL_xinput.c</text>
</a>
</g>
</g>
<!-- Node10&#45;&gt;Node11 -->
<g id="edge10_Node000010_Node000011" class="edge">
<title>Node10&#45;&gt;Node11</title>
<g id="a_edge10_Node000010_Node000011"><a xlink:title=" ">
<path fill="none" stroke="#63b8ff" d="M557.09,-146.41C572.58,-133.56 591.58,-117.8 605.34,-106.38"/>
<polygon fill="#63b8ff" stroke="#63b8ff" points="555.07,-143.54 549.61,-152.62 559.54,-148.93 555.07,-143.54"/>
</a>
</g>
</g>
<!-- Node12 -->
<g id="Node000012" class="node">
<title>Node12</title>
<g id="a_Node000012"><a xlink:href="../../df/d45/SDL__xinputjoystick__c_8h.html" target="_top" xlink:title=" ">
<polygon fill="white" stroke="#666666" points="874.75,-106 711,-106 711,-74 874.75,-74 874.75,-106"/>
<text xml:space="preserve" text-anchor="start" x="719" y="-92.5" font-family="Helvetica,sans-Serif" font-size="10.00">SDL&#45;main/src/joystick</text>
<text xml:space="preserve" text-anchor="middle" x="792.88" y="-80.5" font-family="Helvetica,sans-Serif" font-size="10.00">/windows/SDL_xinputjoystick_c.h</text>
</a>
</g>
</g>
<!-- Node10&#45;&gt;Node12 -->
<g id="edge12_Node000010_Node000012" class="edge">
<title>Node10&#45;&gt;Node12</title>
<g id="a_edge12_Node000010_Node000012"><a xlink:title=" ">
<path fill="none" stroke="#63b8ff" d="M592.72,-150.36C638.03,-136.92 698.46,-119 741.02,-106.38"/>
<polygon fill="#63b8ff" stroke="#63b8ff" points="591.88,-146.96 583.29,-153.16 593.87,-153.67 591.88,-146.96"/>
</a>
</g>
</g>
<!-- Node20 -->
<g id="Node000020" class="node">
<title>Node20</title>
<g id="a_Node000020"><a xlink:href="../../d8/dce/SDL__syscond__cv_8c.html" target="_top" xlink:title=" ">
<polygon fill="white" stroke="#666666" points="1950.38,-106 1805.38,-106 1805.38,-74 1950.38,-74 1950.38,-106"/>
<text xml:space="preserve" text-anchor="start" x="1813.38" y="-92.5" font-family="Helvetica,sans-Serif" font-size="10.00">SDL&#45;main/src/thread</text>
<text xml:space="preserve" text-anchor="middle" x="1877.88" y="-80.5" font-family="Helvetica,sans-Serif" font-size="10.00">/windows/SDL_syscond_cv.c</text>
</a>
</g>
</g>
<!-- Node19&#45;&gt;Node20 -->
<g id="edge21_Node000019_Node000020" class="edge">
<title>Node19&#45;&gt;Node20</title>
<g id="a_edge21_Node000019_Node000020"><a xlink:title=" ">
<path fill="none" stroke="#63b8ff" d="M1851.63,-143.49C1857.76,-131.23 1864.9,-116.95 1870.19,-106.38"/>
<polygon fill="#63b8ff" stroke="#63b8ff" points="1848.6,-141.73 1847.26,-152.24 1854.86,-144.86 1848.6,-141.73"/>
</a>
</g>
</g>
<!-- Node21 -->
<g id="Node000021" class="node">
<title>Node21</title>
<g id="a_Node000021"><a xlink:href="../../d3/da4/SDL__sysrwlock__srw_8c.html" target="_top" xlink:title=" ">
<polygon fill="white" stroke="#666666" points="1787.75,-106 1630,-106 1630,-74 1787.75,-74 1787.75,-106"/>
<text xml:space="preserve" text-anchor="start" x="1638" y="-92.5" font-family="Helvetica,sans-Serif" font-size="10.00">SDL&#45;main/src/thread</text>
<text xml:space="preserve" text-anchor="middle" x="1708.88" y="-80.5" font-family="Helvetica,sans-Serif" font-size="10.00">/windows/SDL_sysrwlock_srw.c</text>
</a>
</g>
</g>
<!-- Node19&#45;&gt;Node21 -->
<g id="edge22_Node000019_Node000021" class="edge">
<title>Node19&#45;&gt;Node21</title>
<g id="a_edge22_Node000019_Node000021"><a xlink:title=" ">
<path fill="none" stroke="#63b8ff" d="M1803.61,-147.84C1781.79,-134.75 1754.26,-118.23 1734.51,-106.38"/>
<polygon fill="#63b8ff" stroke="#63b8ff" points="1801.52,-150.67 1811.89,-152.81 1805.12,-144.66 1801.52,-150.67"/>
</a>
</g>
</g>
<!-- Node24&#45;&gt;Node23 -->
<g id="edge26_Node000024_Node000023" class="edge">
<title>Node24&#45;&gt;Node23</title>
<g id="a_edge26_Node000024_Node000023"><a xlink:title=" ">
<path fill="none" stroke="#63b8ff" d="M2150.74,-141.34C2133.25,-129.58 2113.52,-116.31 2098.71,-106.35"/>
<polygon fill="#63b8ff" stroke="#63b8ff" points="2148.67,-144.17 2158.92,-146.84 2152.58,-138.36 2148.67,-144.17"/>
</a>
</g>
</g>
<!-- Node25 -->
<g id="Node000025" class="node">
<title>Node25</title>
<g id="a_Node000025"><a xlink:href="../../d7/dcf/SDL__surface__utils_8c.html" target="_top" xlink:title=" ">
<polygon fill="white" stroke="#666666" points="2279.5,-112 2162.25,-112 2162.25,-68 2279.5,-68 2279.5,-112"/>
<text xml:space="preserve" text-anchor="start" x="2170.25" y="-98.5" font-family="Helvetica,sans-Serif" font-size="10.00">SDL&#45;main/src/video</text>
<text xml:space="preserve" text-anchor="start" x="2170.25" y="-86.5" font-family="Helvetica,sans-Serif" font-size="10.00">/windows/SDL_surface</text>
<text xml:space="preserve" text-anchor="middle" x="2220.88" y="-74.5" font-family="Helvetica,sans-Serif" font-size="10.00">_utils.c</text>
</a>
</g>
</g>
<!-- Node24&#45;&gt;Node25 -->
<g id="edge27_Node000024_Node000025" class="edge">
<title>Node24&#45;&gt;Node25</title>
<g id="a_edge27_Node000024_Node000025"><a xlink:title=" ">
<path fill="none" stroke="#63b8ff" d="M2203.74,-137.1C2206.84,-128.74 2210.12,-119.94 2212.96,-112.29"/>
<polygon fill="#63b8ff" stroke="#63b8ff" points="2200.53,-135.67 2200.33,-146.27 2207.09,-138.11 2200.53,-135.67"/>
</a>
</g>
</g>
<!-- Node27 -->
<g id="Node000027" class="node">
<title>Node27</title>
<g id="a_Node000027"><a xlink:href="../../d6/d1b/SDL__windowsgameinput_8cpp.html" target="_top" xlink:title=" ">
<polygon fill="white" stroke="#666666" points="2484.38,-106 2297.38,-106 2297.38,-74 2484.38,-74 2484.38,-106"/>
<text xml:space="preserve" text-anchor="start" x="2305.38" y="-92.5" font-family="Helvetica,sans-Serif" font-size="10.00">SDL&#45;main/src/video</text>
<text xml:space="preserve" text-anchor="middle" x="2390.88" y="-80.5" font-family="Helvetica,sans-Serif" font-size="10.00">/windows/SDL_windowsgameinput.cpp</text>
</a>
</g>
</g>
<!-- Node26&#45;&gt;Node27 -->
<g id="edge29_Node000026_Node000027" class="edge">
<title>Node26&#45;&gt;Node27</title>
<g id="a_edge29_Node000026_Node000027"><a xlink:title=" ">
<path fill="none" stroke="#63b8ff" d="M2385.61,-142.37C2386.84,-130.37 2388.25,-116.63 2389.3,-106.38"/>
<polygon fill="#63b8ff" stroke="#63b8ff" points="2382.15,-141.78 2384.61,-152.08 2389.11,-142.49 2382.15,-141.78"/>
</a>
</g>
</g>
</g>
</svg>

<g id="navigator" transform="translate(0 0)" fill="#404254">
  <rect fill="#f2f5e9" fill-opacity="0.5" stroke="#606060" stroke-width=".5" x="0" y="0" width="60" height="60"/>
  <use id="zoomplus" xlink:href="#zoomPlus" x="17" y="9" onmousedown="handleZoom(evt,'in')"/>
  <use id="zoomminus" xlink:href="#zoomMin" x="42" y="9" onmousedown="handleZoom(evt,'out')"/>
  <use id="reset" xlink:href="#resetDef" x="30" y="36" onmousedown="handleReset()"/>
   <use id="arrowup" xlink:href="#arrowUp" x="0" y="0" onmousedown="handlePan(0,-1)"/>
  <use id="arrowright" xlink:href="#arrowRight" x="0" y="0" onmousedown="handlePan(1,0)"/>
  <use id="arrowdown" xlink:href="#arrowDown" x="0" y="0" onmousedown="handlePan(0,1)"/>
  <use id="arrowleft" xlink:href="#arrowLeft" x="0" y="0" onmousedown="handlePan(-1,0)"/>
</g>
<svg viewBox="0 0 15 15" width="100%" height="30px" preserveAspectRatio="xMaxYMin meet">
 <g id="arrow_out" transform="scale(0.3 0.3)">
  <a xlink:href="SDL__windows_8h__dep__incl_org.svg" target="_base">
   <rect id="button" ry="5" rx="5" y="6" x="6" height="38" width="38"
        fill="#f2f5e9" fill-opacity="0.5" stroke="#606060" stroke-width="1.0"/>
   <path id="arrow"
     d="M 11.500037,31.436501 C 11.940474,20.09759 22.043105,11.32322 32.158766,21.979434 L 37.068811,17.246167 C 37.068811,17.246167 37.088388,32 37.088388,32 L 22.160133,31.978069 C 22.160133,31.978069 26.997745,27.140456 26.997745,27.140456 C 18.528582,18.264221 13.291696,25.230495 11.500037,31.436501 z"
     style="fill:#404040;"/>
  </a>
 </g>
</svg>

<style type='text/css'>
<![CDATA[
[data-mouse-over-selected='false'] { opacity: 0.7; }
[data-mouse-over-selected='true']  { opacity: 1.0; }
]]>
</style>
<script type="application/ecmascript"><![CDATA[
document.addEventListener('DOMContentLoaded', (event) => {
  highlightEdges();
  highlightAdjacentNodes();
});
]]></script>
</svg>
