<?xml version="1.0" encoding="UTF-8" standalone="no"?>
<!DOCTYPE svg PUBLIC "-//W3C//DTD SVG 1.1//EN"
 "http://www.w3.org/Graphics/SVG/1.1/DTD/svg11.dtd">
<!-- Generated by graphviz version 13.1.0 (20250701.0955)
 -->
<!-- Title: SDL_CocoaVideoData Pages: 1 -->
<svg width="318pt" height="102pt"
 viewBox="0.00 0.00 318.00 102.00" xmlns="http://www.w3.org/2000/svg" xmlns:xlink="http://www.w3.org/1999/xlink">

<svg id="main" version="1.1" xmlns="http://www.w3.org/2000/svg" xmlns:xlink="http://www.w3.org/1999/xlink" xml:space="preserve">

<style type="text/css"><![CDATA[
.node, .edge {opacity: 0.7;}
.node.selected, .edge.selected {opacity: 1;}
.edge:hover path { stroke: red; }
.edge:hover polygon { stroke: red; fill: red; }
]]></style>
<script type="application/ecmascript" xlink:href="../../svg.min.js"/>
<svg id="graph" class="graph">
<g id="graph0" class="graph" transform="scale(1 1) rotate(0) translate(4 98)">
<title>SDL_CocoaVideoData</title>
<!-- Node1 -->
<g id="Node000001" class="node">
<title>Node1</title>
<g id="a_Node000001"><a xlink:title=" ">
<polygon fill="#999999" stroke="#666666" points="115,-20 0,-20 0,0 115,0 115,-20"/>
<text xml:space="preserve" text-anchor="middle" x="57.5" y="-6.5" font-family="Helvetica,sans-Serif" font-size="10.00">SDL_CocoaVideoData</text>
</a>
</g>
</g>
<!-- Node2 -->
<g id="Node000002" class="node">
<title>Node2</title>
<g id="a_Node000002"><a xlink:href="../../d0/df2/structSDL__Mutex.html" target="_top" xlink:title=" ">
<polygon fill="white" stroke="#666666" points="161.38,-94 93.62,-94 93.62,-74 161.38,-74 161.38,-94"/>
<text xml:space="preserve" text-anchor="middle" x="127.5" y="-80.5" font-family="Helvetica,sans-Serif" font-size="10.00">SDL_Mutex</text>
</a>
</g>
</g>
<!-- Node2&#45;&gt;Node1 -->
<g id="edge1_Node000001_Node000002" class="edge">
<title>Node2&#45;&gt;Node1</title>
<g id="a_edge1_Node000001_Node000002"><a xlink:title=" ">
<path fill="none" stroke="#9a32cd" stroke-dasharray="5,2" d="M82.38,-74.16C72.94,-70.17 64.09,-64.39 58.25,-56 50.93,-45.48 52.68,-29.97 54.89,-20.18"/>
<polygon fill="#9a32cd" stroke="#9a32cd" points="81.14,-77.43 91.74,-77.44 83.46,-70.83 81.14,-77.43"/>
</a>
</g>
<text xml:space="preserve" text-anchor="start" x="61.25" y="-43.5" font-family="Helvetica,sans-Serif" font-size="10.00" fill="grey">swaplock</text>
</g>
<!-- Node3 -->
<g id="Node000003" class="node">
<title>Node3</title>
<g id="a_Node000003"><a xlink:href="../../d8/d0b/structSDL__Semaphore.html" target="_top" xlink:title=" ">
<polygon fill="white" stroke="#666666" points="248.62,-20 158.38,-20 158.38,0 248.62,0 248.62,-20"/>
<text xml:space="preserve" text-anchor="middle" x="203.5" y="-6.5" font-family="Helvetica,sans-Serif" font-size="10.00">SDL_Semaphore</text>
</a>
</g>
</g>
<!-- Node2&#45;&gt;Node3 -->
<g id="edge3_Node000003_Node000002" class="edge">
<title>Node2&#45;&gt;Node3</title>
<g id="a_edge3_Node000003_Node000002"><a xlink:title=" ">
<path fill="none" stroke="#9a32cd" stroke-dasharray="5,2" d="M120.7,-62.95C119.13,-54.55 119.17,-45.1 124.25,-38 132.2,-26.89 145,-20.3 158.01,-16.4"/>
<polygon fill="#9a32cd" stroke="#9a32cd" points="117.25,-63.6 123.25,-72.33 124.01,-61.76 117.25,-63.6"/>
</a>
</g>
<text xml:space="preserve" text-anchor="start" x="127.25" y="-43.5" font-family="Helvetica,sans-Serif" font-size="10.00" fill="grey">count_lock</text>
</g>
<!-- Node3&#45;&gt;Node2 -->
<g id="edge2_Node000002_Node000003" class="edge">
<title>Node3&#45;&gt;Node2</title>
<g id="a_edge2_Node000002_Node000003"><a xlink:title=" ">
<path fill="none" stroke="#9a32cd" stroke-dasharray="5,2" d="M197.03,-30.96C193.49,-39.48 188.4,-49.04 181.5,-56 174.05,-63.52 164.07,-69.31 154.72,-73.56"/>
<polygon fill="#9a32cd" stroke="#9a32cd" points="200.25,-32.35 200.39,-21.76 193.67,-29.95 200.25,-32.35"/>
</a>
</g>
<text xml:space="preserve" text-anchor="start" x="196.77" y="-43.5" font-family="Helvetica,sans-Serif" font-size="10.00" fill="grey">sem</text>
</g>
<!-- Node4 -->
<g id="Node000004" class="node">
<title>Node4</title>
<g id="a_Node000004"><a xlink:href="../../d0/d07/structSDL__Condition.html" target="_top" xlink:title=" ">
<polygon fill="white" stroke="#666666" points="292.5,-94 210.5,-94 210.5,-74 292.5,-74 292.5,-94"/>
<text xml:space="preserve" text-anchor="middle" x="251.5" y="-80.5" font-family="Helvetica,sans-Serif" font-size="10.00">SDL_Condition</text>
</a>
</g>
</g>
<!-- Node4&#45;&gt;Node3 -->
<g id="edge4_Node000003_Node000004" class="edge">
<title>Node4&#45;&gt;Node3</title>
<g id="a_edge4_Node000003_Node000004"><a xlink:title=" ">
<path fill="none" stroke="#9a32cd" stroke-dasharray="5,2" d="M243.42,-63.15C239.71,-55.03 234.92,-45.75 229.5,-38 225.02,-31.6 219.03,-25.27 213.93,-20.35"/>
<polygon fill="#9a32cd" stroke="#9a32cd" points="240.14,-64.38 247.31,-72.18 246.57,-61.61 240.14,-64.38"/>
</a>
</g>
<text xml:space="preserve" text-anchor="start" x="242.88" y="-43.5" font-family="Helvetica,sans-Serif" font-size="10.00" fill="grey">count_nonzero</text>
</g>
</g>
</svg>
</svg>

<style type='text/css'>
<![CDATA[
[data-mouse-over-selected='false'] { opacity: 0.7; }
[data-mouse-over-selected='true']  { opacity: 1.0; }
]]>
</style>
<script type="application/ecmascript"><![CDATA[
document.addEventListener('DOMContentLoaded', (event) => {
  highlightEdges();
  highlightAdjacentNodes();
});
]]></script>
</svg>
