<?xml version="1.0" encoding="UTF-8" standalone="no"?>
<!DOCTYPE svg PUBLIC "-//W3C//DTD SVG 1.1//EN"
 "http://www.w3.org/Graphics/SVG/1.1/DTD/svg11.dtd">
<!-- Generated by graphviz version 13.1.0 (20250701.0955)
 -->
<!-- Title: SDL_TLSEntry Pages: 1 -->
<svg width="133pt" height="102pt"
 viewBox="0.00 0.00 133.00 102.00" xmlns="http://www.w3.org/2000/svg" xmlns:xlink="http://www.w3.org/1999/xlink">
<g id="graph0" class="graph" transform="scale(1 1) rotate(0) translate(4 98)">
<title>SDL_TLSEntry</title>
<!-- Node1 -->
<g id="Node000001" class="node">
<title>Node1</title>
<g id="a_Node000001"><a xlink:title=" ">
<polygon fill="#999999" stroke="#666666" points="82,-20 0,-20 0,0 82,0 82,-20"/>
<text xml:space="preserve" text-anchor="middle" x="41" y="-6.5" font-family="Helvetica,sans-Serif" font-size="10.00">SDL_TLSEntry</text>
</a>
</g>
</g>
<!-- Node1&#45;&gt;Node1 -->
<g id="edge2_Node000001_Node000001" class="edge">
<title>Node1&#45;&gt;Node1</title>
<g id="a_edge2_Node000001_Node000001"><a xlink:title=" ">
<path fill="none" stroke="#9a32cd" stroke-dasharray="5,2" d="M93.73,-15.15C97.62,-13.99 100,-12.28 100,-10 100,-5.95 92.47,-3.68 82.35,-3.17"/>
<polygon fill="#9a32cd" stroke="#9a32cd" points="93.23,-11.68 83.85,-16.61 94.26,-18.61 93.23,-11.68"/>
</a>
</g>
<text xml:space="preserve" text-anchor="start" x="103" y="-6.5" font-family="Helvetica,sans-Serif" font-size="10.00" fill="grey">next</text>
</g>
<!-- Node2 -->
<g id="Node000002" class="node">
<title>Node2</title>
<g id="a_Node000002"><a xlink:href="../../d3/d59/structSDL__TLSData.html" target="_top" xlink:title=" ">
<polygon fill="white" stroke="#666666" points="80.88,-94 1.12,-94 1.12,-74 80.88,-74 80.88,-94"/>
<text xml:space="preserve" text-anchor="middle" x="41" y="-80.5" font-family="Helvetica,sans-Serif" font-size="10.00">SDL_TLSData</text>
</a>
</g>
</g>
<!-- Node2&#45;&gt;Node1 -->
<g id="edge1_Node000001_Node000002" class="edge">
<title>Node2&#45;&gt;Node1</title>
<g id="a_edge1_Node000001_Node000002"><a xlink:title=" ">
<path fill="none" stroke="#9a32cd" stroke-dasharray="5,2" d="M41,-62.18C41,-48.29 41,-30.71 41,-20.19"/>
<polygon fill="#9a32cd" stroke="#9a32cd" points="37.5,-62.07 41,-72.07 44.5,-62.07 37.5,-62.07"/>
</a>
</g>
<text xml:space="preserve" text-anchor="start" x="44" y="-43.5" font-family="Helvetica,sans-Serif" font-size="10.00" fill="grey">storage</text>
</g>
</g>
</svg>
