<?xml version="1.0" encoding="UTF-8" standalone="no"?>
<!DOCTYPE svg PUBLIC "-//W3C//DTD SVG 1.1//EN"
 "http://www.w3.org/Graphics/SVG/1.1/DTD/svg11.dtd">
<!-- Generated by graphviz version 13.1.0 (20250701.0955)
 -->
<!-- Title: SDL&#45;main/src/core/windows/SDL_immdevice.h Pages: 1 -->
<svg width="162pt" height="96pt"
 viewBox="0.00 0.00 162.00 96.00" xmlns="http://www.w3.org/2000/svg" xmlns:xlink="http://www.w3.org/1999/xlink">
<g id="graph0" class="graph" transform="scale(1 1) rotate(0) translate(4 92)">
<title>SDL&#45;main/src/core/windows/SDL_immdevice.h</title>
<!-- Node1 -->
<g id="Node000001" class="node">
<title>Node1</title>
<g id="a_Node000001"><a xlink:title=" ">
<polygon fill="#999999" stroke="#666666" points="153.5,-88 14.5,-88 14.5,-56 153.5,-56 153.5,-88"/>
<text xml:space="preserve" text-anchor="start" x="22.5" y="-74.5" font-family="Helvetica,sans-Serif" font-size="10.00">SDL&#45;main/src/core/windows</text>
<text xml:space="preserve" text-anchor="middle" x="84" y="-62.5" font-family="Helvetica,sans-Serif" font-size="10.00">/SDL_immdevice.h</text>
</a>
</g>
</g>
<!-- Node2 -->
<g id="Node000002" class="node">
<title>Node2</title>
<g id="a_Node000002"><a xlink:title=" ">
<polygon fill="#e0e0e0" stroke="#999999" points="82,-20 0,-20 0,0 82,0 82,-20"/>
<text xml:space="preserve" text-anchor="middle" x="41" y="-6.5" font-family="Helvetica,sans-Serif" font-size="10.00">mmdeviceapi.h</text>
</a>
</g>
</g>
<!-- Node1&#45;&gt;Node2 -->
<g id="edge1_Node000001_Node000002" class="edge">
<title>Node1&#45;&gt;Node2</title>
<g id="a_edge1_Node000001_Node000002"><a xlink:title=" ">
<path fill="none" stroke="#63b8ff" d="M72.93,-55.55C67.27,-47.65 60.33,-37.97 54.37,-29.66"/>
<polygon fill="#63b8ff" stroke="#63b8ff" points="57.29,-27.73 48.62,-21.64 51.6,-31.81 57.29,-27.73"/>
</a>
</g>
</g>
<!-- Node3 -->
<g id="Node000003" class="node">
<title>Node3</title>
<g id="a_Node000003"><a xlink:title=" ">
<polygon fill="#e0e0e0" stroke="#999999" points="154.12,-20 99.88,-20 99.88,0 154.12,0 154.12,-20"/>
<text xml:space="preserve" text-anchor="middle" x="127" y="-6.5" font-family="Helvetica,sans-Serif" font-size="10.00">mmreg.h</text>
</a>
</g>
</g>
<!-- Node1&#45;&gt;Node3 -->
<g id="edge2_Node000001_Node000003" class="edge">
<title>Node1&#45;&gt;Node3</title>
<g id="a_edge2_Node000001_Node000003"><a xlink:title=" ">
<path fill="none" stroke="#63b8ff" d="M95.07,-55.55C100.73,-47.65 107.67,-37.97 113.63,-29.66"/>
<polygon fill="#63b8ff" stroke="#63b8ff" points="116.4,-31.81 119.38,-21.64 110.71,-27.73 116.4,-31.81"/>
</a>
</g>
</g>
</g>
</svg>
