<?xml version="1.0" encoding="UTF-8" standalone="no"?>
<!DOCTYPE svg PUBLIC "-//W3C//DTD SVG 1.1//EN"
 "http://www.w3.org/Graphics/SVG/1.1/DTD/svg11.dtd">
<!-- Generated by graphviz version 13.1.0 (20250701.0955)
 -->
<!-- Title: SDL_TimerData Pages: 1 -->
<!--zoomable 282 -->

<svg id="main" version="1.1" xmlns="http://www.w3.org/2000/svg" xmlns:xlink="http://www.w3.org/1999/xlink" xml:space="preserve" onload="init(evt)">

<style type="text/css"><![CDATA[
.node, .edge {opacity: 0.7;}
.node.selected, .edge.selected {opacity: 1;}
.edge:hover path { stroke: red; }
.edge:hover polygon { stroke: red; fill: red; }
]]></style>

<defs>
  <circle id="rim" cx="0" cy="0" r="7"/>
  <circle id="rim2" cx="0" cy="0" r="3.5"/>
  <g id="zoomPlus">
    <use xlink:href="#rim" fill="#404040"><set attributeName="fill" to="#808080" begin="zoomplus.mouseover" end="zoomplus.mouseout"/></use>
    <path d="M-4,0h8M0,-4v8" fill="none" stroke="white" stroke-width="1.5" pointer-events="none"/>
  </g>
  <g id="zoomMin">
    <use xlink:href="#rim" fill="#404040"><set attributeName="fill" to="#808080" begin="zoomminus.mouseover" end="zoomminus.mouseout"/></use>
    <path d="M-4,0h8" fill="none" stroke="white" stroke-width="1.5" pointer-events="none"/>
  </g>
  <g id="arrowUp" transform="translate(30 24)">
    <use xlink:href="#rim"/>
    <path pointer-events="none" fill="none" stroke="white" stroke-width="1.5" d="M0,-3.0v7 M-2.5,-0.5L0,-3.0L2.5,-0.5"/>
  </g>
  <g id="arrowRight" transform="rotate(90) translate(36 -43)">
    <use xlink:href="#rim"/>
    <path pointer-events="none" fill="none" stroke="white" stroke-width="1.5" d="M0,-3.0v7 M-2.5,-0.5L0,-3.0L2.5,-0.5"/>
  </g>
  <g id="arrowDown" transform="rotate(180) translate(-30 -48)">
    <use xlink:href="#rim"/>
    <path pointer-events="none" fill="none" stroke="white" stroke-width="1.5" d="M0,-3.0v7 M-2.5,-0.5L0,-3.0L2.5,-0.5"/>
  </g>
  <g id="arrowLeft" transform="rotate(270) translate(-36 17)">
    <use xlink:href="#rim"/>
    <path pointer-events="none" fill="none" stroke="white" stroke-width="1.5" d="M0,-3.0v7 M-2.5,-0.5L0,-3.0L2.5,-0.5"/>
  </g>
  <g id="resetDef">
    <use xlink:href="#rim2" fill="#404040"><set attributeName="fill" to="#808080" begin="reset.mouseover" end="reset.mouseout"/></use>
  </g>
</defs>
<script type="application/ecmascript">
var viewWidth = 637;
var viewHeight = 282;
var sectionId = 'dynsection-0';
</script>
<script type="application/ecmascript" xlink:href="../../svg.min.js"/>
<svg id="graph" class="graph">
<g id="viewport">
<title>SDL_TimerData</title>
<!-- Node1 -->
<g id="Node000001" class="node">
<title>Node1</title>
<g id="a_Node000001"><a xlink:title=" ">
<polygon fill="#999999" stroke="#666666" points="321.38,-20 234.88,-20 234.88,0 321.38,0 321.38,-20"/>
<text xml:space="preserve" text-anchor="middle" x="278.12" y="-6.5" font-family="Helvetica,sans-Serif" font-size="10.00">SDL_TimerData</text>
</a>
</g>
</g>
<!-- Node2 -->
<g id="Node000002" class="node">
<title>Node2</title>
<g id="a_Node000002"><a xlink:href="../../d3/d9b/structSDL__InitState.html" target="_top" xlink:title=" ">
<polygon fill="white" stroke="#666666" points="385.88,-162 308.38,-162 308.38,-142 385.88,-142 385.88,-162"/>
<text xml:space="preserve" text-anchor="middle" x="347.12" y="-148.5" font-family="Helvetica,sans-Serif" font-size="10.00">SDL_InitState</text>
</a>
</g>
</g>
<!-- Node2&#45;&gt;Node1 -->
<g id="edge1_Node000001_Node000002" class="edge">
<title>Node2&#45;&gt;Node1</title>
<g id="a_edge1_Node000001_Node000002"><a xlink:title=" ">
<path fill="none" stroke="#9a32cd" stroke-dasharray="5,2" d="M339.78,-131.25C333.71,-115.49 324.59,-93 315.12,-74 305.28,-54.25 291.72,-32.24 284.05,-20.17"/>
<polygon fill="#9a32cd" stroke="#9a32cd" points="336.43,-132.28 343.24,-140.4 342.97,-129.8 336.43,-132.28"/>
</a>
</g>
<text xml:space="preserve" text-anchor="start" x="339.81" y="-95.5" font-family="Helvetica,sans-Serif" font-size="10.00" fill="grey">init</text>
</g>
<!-- Node3 -->
<g id="Node000003" class="node">
<title>Node3</title>
<g id="a_Node000003"><a xlink:href="../../d1/dbc/structSDL__AtomicInt.html" target="_top" xlink:title=" ">
<polygon fill="white" stroke="#666666" points="289.5,-274 206.75,-274 206.75,-254 289.5,-254 289.5,-274"/>
<text xml:space="preserve" text-anchor="middle" x="248.12" y="-260.5" font-family="Helvetica,sans-Serif" font-size="10.00">SDL_AtomicInt</text>
</a>
</g>
</g>
<!-- Node3&#45;&gt;Node1 -->
<g id="edge17_Node000001_Node000003" class="edge">
<title>Node3&#45;&gt;Node1</title>
<g id="a_edge17_Node000001_Node000003"><a xlink:title=" ">
<path fill="none" stroke="#9a32cd" stroke-dasharray="5,2" d="M247.26,-242.21C246.46,-221.79 245.32,-189.76 244.88,-162 244.73,-153.11 243.77,-150.82 244.88,-142 250.69,-95.43 267.71,-41.67 274.88,-20.38"/>
<polygon fill="#9a32cd" stroke="#9a32cd" points="243.76,-242.17 247.66,-252.02 250.75,-241.89 243.76,-242.17"/>
</a>
</g>
<text xml:space="preserve" text-anchor="start" x="247.88" y="-148.5" font-family="Helvetica,sans-Serif" font-size="10.00" fill="grey">active</text>
</g>
<!-- Node3&#45;&gt;Node2 -->
<g id="edge2_Node000002_Node000003" class="edge">
<title>Node3&#45;&gt;Node2</title>
<g id="a_edge2_Node000002_Node000003"><a xlink:title=" ">
<path fill="none" stroke="#9a32cd" stroke-dasharray="5,2" d="M286.13,-249.05C293.78,-245.39 301.5,-241.03 308.12,-236 324.71,-223.4 329.22,-218.83 338.12,-200 343.88,-187.83 345.96,-172.24 346.7,-162.44"/>
<polygon fill="#9a32cd" stroke="#9a32cd" points="284.96,-245.74 277.24,-252.98 287.8,-252.14 284.96,-245.74"/>
</a>
</g>
<text xml:space="preserve" text-anchor="start" x="330.8" y="-223.5" font-family="Helvetica,sans-Serif" font-size="10.00" fill="grey">status</text>
</g>
<!-- Node4 -->
<g id="Node000004" class="node">
<title>Node4</title>
<g id="a_Node000004"><a xlink:href="../../d4/d4a/structSDL__Thread.html" target="_top" xlink:title=" ">
<polygon fill="white" stroke="#666666" points="329.5,-200 258.75,-200 258.75,-180 329.5,-180 329.5,-200"/>
<text xml:space="preserve" text-anchor="middle" x="294.12" y="-186.5" font-family="Helvetica,sans-Serif" font-size="10.00">SDL_Thread</text>
</a>
</g>
</g>
<!-- Node3&#45;&gt;Node4 -->
<g id="edge4_Node000004_Node000003" class="edge">
<title>Node3&#45;&gt;Node4</title>
<g id="a_edge4_Node000004_Node000003"><a xlink:title=" ">
<path fill="none" stroke="#9a32cd" stroke-dasharray="5,2" d="M260.09,-244.27C269.14,-230.1 281.19,-211.25 288.26,-200.19"/>
<polygon fill="#9a32cd" stroke="#9a32cd" points="257.39,-242 254.95,-252.31 263.29,-245.77 257.39,-242"/>
</a>
</g>
<text xml:space="preserve" text-anchor="start" x="279.6" y="-223.5" font-family="Helvetica,sans-Serif" font-size="10.00" fill="grey">state</text>
</g>
<!-- Node7 -->
<g id="Node000007" class="node">
<title>Node7</title>
<g id="a_Node000007"><a xlink:href="../../dc/df3/structSDL__Timer.html" target="_top" xlink:title=" ">
<polygon fill="white" stroke="#666666" points="159.88,-200 94.38,-200 94.38,-180 159.88,-180 159.88,-200"/>
<text xml:space="preserve" text-anchor="middle" x="127.12" y="-186.5" font-family="Helvetica,sans-Serif" font-size="10.00">SDL_Timer</text>
</a>
</g>
</g>
<!-- Node3&#45;&gt;Node7 -->
<g id="edge8_Node000007_Node000003" class="edge">
<title>Node3&#45;&gt;Node7</title>
<g id="a_edge8_Node000007_Node000003"><a xlink:title=" ">
<path fill="none" stroke="#9a32cd" stroke-dasharray="5,2" d="M200.86,-249.88C190.98,-246.15 180.91,-241.55 172.12,-236 156.62,-226.21 142.3,-210.19 134.15,-200.14"/>
<polygon fill="#9a32cd" stroke="#9a32cd" points="199.41,-253.08 210,-253.1 201.73,-246.48 199.41,-253.08"/>
</a>
</g>
<text xml:space="preserve" text-anchor="start" x="175.12" y="-223.5" font-family="Helvetica,sans-Serif" font-size="10.00" fill="grey">canceled</text>
</g>
<!-- Node4&#45;&gt;Node1 -->
<g id="edge3_Node000001_Node000004" class="edge">
<title>Node4&#45;&gt;Node1</title>
<g id="a_edge3_Node000001_Node000004"><a xlink:title=" ">
<path fill="none" stroke="#9a32cd" stroke-dasharray="5,2" d="M287.91,-169.14C284.26,-156.38 279.99,-139.39 278.12,-124 273.5,-85.83 275.96,-39.87 277.36,-20.42"/>
<polygon fill="#9a32cd" stroke="#9a32cd" points="284.47,-169.85 290.7,-178.42 291.18,-167.84 284.47,-169.85"/>
</a>
</g>
<text xml:space="preserve" text-anchor="start" x="281.12" y="-95.5" font-family="Helvetica,sans-Serif" font-size="10.00" fill="grey">thread</text>
</g>
<!-- Node5 -->
<g id="Node000005" class="node">
<title>Node5</title>
<g id="a_Node000005"><a xlink:href="../../dc/dd9/structSDL__error.html" target="_top" xlink:title=" ">
<polygon fill="white" stroke="#666666" points="443.25,-274 383,-274 383,-254 443.25,-254 443.25,-274"/>
<text xml:space="preserve" text-anchor="middle" x="413.12" y="-260.5" font-family="Helvetica,sans-Serif" font-size="10.00">SDL_error</text>
</a>
</g>
</g>
<!-- Node5&#45;&gt;Node4 -->
<g id="edge5_Node000004_Node000005" class="edge">
<title>Node5&#45;&gt;Node4</title>
<g id="a_edge5_Node000004_Node000005"><a xlink:title=" ">
<path fill="none" stroke="#9a32cd" stroke-dasharray="5,2" d="M407.49,-243C404.07,-234.2 398.84,-224.42 391.12,-218 373.92,-203.69 349.67,-196.94 329.72,-193.77"/>
<polygon fill="#9a32cd" stroke="#9a32cd" points="404.07,-243.81 410.52,-252.21 410.72,-241.62 404.07,-243.81"/>
</a>
</g>
<text xml:space="preserve" text-anchor="start" x="407.04" y="-223.5" font-family="Helvetica,sans-Serif" font-size="10.00" fill="grey">errbuf</text>
</g>
<!-- Node6 -->
<g id="Node000006" class="node">
<title>Node6</title>
<g id="a_Node000006"><a xlink:href="../../d1/d40/structSDL__TimerMap.html" target="_top" xlink:title=" ">
<polygon fill="white" stroke="#666666" points="84.25,-109 0,-109 0,-89 84.25,-89 84.25,-109"/>
<text xml:space="preserve" text-anchor="middle" x="42.12" y="-95.5" font-family="Helvetica,sans-Serif" font-size="10.00">SDL_TimerMap</text>
</a>
</g>
</g>
<!-- Node6&#45;&gt;Node1 -->
<g id="edge6_Node000001_Node000006" class="edge">
<title>Node6&#45;&gt;Node1</title>
<g id="a_edge6_Node000001_Node000006"><a xlink:title=" ">
<path fill="none" stroke="#9a32cd" stroke-dasharray="5,2" d="M55.25,-79.8C66.27,-65.98 83.28,-47.75 102.62,-38 144.05,-17.11 197.43,-11.45 234.38,-10.34"/>
<polygon fill="#9a32cd" stroke="#9a32cd" points="52.52,-77.61 49.26,-87.69 58.09,-81.85 52.52,-77.61"/>
</a>
</g>
<text xml:space="preserve" text-anchor="start" x="105.62" y="-43.5" font-family="Helvetica,sans-Serif" font-size="10.00" fill="grey">timermap</text>
</g>
<!-- Node6&#45;&gt;Node6 -->
<g id="edge10_Node000006_Node000006" class="edge">
<title>Node6&#45;&gt;Node6</title>
<g id="a_edge10_Node000006_Node000006"><a xlink:title=" ">
<path fill="none" stroke="#9a32cd" stroke-dasharray="5,2" d="M95.64,-106.33C99.73,-104.7 102.25,-102.26 102.25,-99 102.25,-93.36 94.71,-90.17 84.54,-89.42"/>
<polygon fill="#9a32cd" stroke="#9a32cd" points="95.13,-102.86 86.03,-108.28 96.52,-109.72 95.13,-102.86"/>
</a>
</g>
<text xml:space="preserve" text-anchor="start" x="105.25" y="-95.5" font-family="Helvetica,sans-Serif" font-size="10.00" fill="grey">next</text>
</g>
<!-- Node7&#45;&gt;Node1 -->
<g id="edge16_Node000001_Node000007" class="edge">
<title>Node7&#45;&gt;Node1</title>
<g id="a_edge16_Node000001_Node000007"><a xlink:title=" ">
<path fill="none" stroke="#9a32cd" stroke-dasharray="5,2" d="M133.08,-168.74C140.78,-144.66 155.82,-103.98 177.38,-74 191.29,-54.65 197.14,-50.99 217.12,-38 227.9,-30.99 240.8,-24.99 251.96,-20.43"/>
<polygon fill="#9a32cd" stroke="#9a32cd" points="129.76,-167.64 130.17,-178.22 136.45,-169.69 129.76,-167.64"/>
</a>
</g>
<text xml:space="preserve" text-anchor="start" x="180.38" y="-111.5" font-family="Helvetica,sans-Serif" font-size="10.00" fill="grey">freelist</text>
<text xml:space="preserve" text-anchor="start" x="180.38" y="-95.5" font-family="Helvetica,sans-Serif" font-size="10.00" fill="grey">pending</text>
<text xml:space="preserve" text-anchor="start" x="180.38" y="-79.5" font-family="Helvetica,sans-Serif" font-size="10.00" fill="grey">timers</text>
</g>
<!-- Node7&#45;&gt;Node6 -->
<g id="edge7_Node000006_Node000007" class="edge">
<title>Node7&#45;&gt;Node6</title>
<g id="a_edge7_Node000006_Node000007"><a xlink:title=" ">
<path fill="none" stroke="#9a32cd" stroke-dasharray="5,2" d="M110.49,-171.58C92.66,-152.91 65.03,-123.98 50.98,-109.27"/>
<polygon fill="#9a32cd" stroke="#9a32cd" points="107.87,-173.9 117.3,-178.72 112.93,-169.07 107.87,-173.9"/>
</a>
</g>
<text xml:space="preserve" text-anchor="start" x="102.63" y="-148.5" font-family="Helvetica,sans-Serif" font-size="10.00" fill="grey">timer</text>
</g>
<!-- Node7&#45;&gt;Node7 -->
<g id="edge9_Node000007_Node000007" class="edge">
<title>Node7&#45;&gt;Node7</title>
<g id="a_edge9_Node000007_Node000007"><a xlink:title=" ">
<path fill="none" stroke="#9a32cd" stroke-dasharray="5,2" d="M171.56,-195.44C175.44,-194.29 177.88,-192.48 177.88,-190 177.88,-185.59 170.19,-183.28 160.32,-183.08"/>
<polygon fill="#9a32cd" stroke="#9a32cd" points="171.28,-191.95 161.82,-196.73 172.19,-198.89 171.28,-191.95"/>
</a>
</g>
<text xml:space="preserve" text-anchor="start" x="180.88" y="-186.5" font-family="Helvetica,sans-Serif" font-size="10.00" fill="grey">next</text>
</g>
<!-- Node8 -->
<g id="Node000008" class="node">
<title>Node8</title>
<g id="a_Node000008"><a xlink:href="../../d0/df2/structSDL__Mutex.html" target="_top" xlink:title=" ">
<polygon fill="white" stroke="#666666" points="481,-200 413.25,-200 413.25,-180 481,-180 481,-200"/>
<text xml:space="preserve" text-anchor="middle" x="447.12" y="-186.5" font-family="Helvetica,sans-Serif" font-size="10.00">SDL_Mutex</text>
</a>
</g>
</g>
<!-- Node8&#45;&gt;Node1 -->
<g id="edge11_Node000001_Node000008" class="edge">
<title>Node8&#45;&gt;Node1</title>
<g id="a_edge11_Node000001_Node000008"><a xlink:title=" ">
<path fill="none" stroke="#9a32cd" stroke-dasharray="5,2" d="M434.85,-170.2C418.89,-146.47 389.47,-105.01 359.12,-74 341.21,-55.69 334.37,-53.69 314.12,-38 306.47,-32.07 297.78,-25.55 290.86,-20.4"/>
<polygon fill="#9a32cd" stroke="#9a32cd" points="431.9,-172.09 440.35,-178.49 437.74,-168.22 431.9,-172.09"/>
</a>
</g>
<text xml:space="preserve" text-anchor="start" x="403.64" y="-95.5" font-family="Helvetica,sans-Serif" font-size="10.00" fill="grey">timermap_lock</text>
</g>
<!-- Node9 -->
<g id="Node000009" class="node">
<title>Node9</title>
<g id="a_Node000009"><a xlink:href="../../d8/d0b/structSDL__Semaphore.html" target="_top" xlink:title=" ">
<polygon fill="white" stroke="#666666" points="580.25,-109 490,-109 490,-89 580.25,-89 580.25,-109"/>
<text xml:space="preserve" text-anchor="middle" x="535.12" y="-95.5" font-family="Helvetica,sans-Serif" font-size="10.00">SDL_Semaphore</text>
</a>
</g>
</g>
<!-- Node8&#45;&gt;Node9 -->
<g id="edge13_Node000009_Node000008" class="edge">
<title>Node8&#45;&gt;Node9</title>
<g id="a_edge13_Node000009_Node000008"><a xlink:title=" ">
<path fill="none" stroke="#9a32cd" stroke-dasharray="5,2" d="M440.54,-168.61C438.94,-159.81 438.9,-149.77 443.88,-142 447.8,-135.87 485.44,-119.86 511.13,-109.48"/>
<polygon fill="#9a32cd" stroke="#9a32cd" points="437.09,-169.26 442.98,-178.06 443.87,-167.51 437.09,-169.26"/>
</a>
</g>
<text xml:space="preserve" text-anchor="start" x="446.88" y="-148.5" font-family="Helvetica,sans-Serif" font-size="10.00" fill="grey">count_lock</text>
</g>
<!-- Node9&#45;&gt;Node1 -->
<g id="edge15_Node000001_Node000009" class="edge">
<title>Node9&#45;&gt;Node1</title>
<g id="a_edge15_Node000001_Node000009"><a xlink:title=" ">
<path fill="none" stroke="#9a32cd" stroke-dasharray="5,2" d="M510.12,-82.84C486.63,-69.23 450.1,-49.64 416.12,-38 385.41,-27.48 349.36,-20.6 321.81,-16.42"/>
<polygon fill="#9a32cd" stroke="#9a32cd" points="508.24,-85.8 518.63,-87.86 511.79,-79.76 508.24,-85.8"/>
</a>
</g>
<text xml:space="preserve" text-anchor="start" x="459.7" y="-43.5" font-family="Helvetica,sans-Serif" font-size="10.00" fill="grey">sem</text>
</g>
<!-- Node9&#45;&gt;Node8 -->
<g id="edge12_Node000008_Node000009" class="edge">
<title>Node9&#45;&gt;Node8</title>
<g id="a_edge12_Node000008_Node000009"><a xlink:title=" ">
<path fill="none" stroke="#9a32cd" stroke-dasharray="5,2" d="M528.04,-119.53C522.41,-132.85 513.44,-150.15 501.12,-162 493.35,-169.49 483.09,-175.32 473.6,-179.62"/>
<polygon fill="#9a32cd" stroke="#9a32cd" points="531.19,-121.09 531.57,-110.51 524.67,-118.54 531.19,-121.09"/>
</a>
</g>
<text xml:space="preserve" text-anchor="start" x="519.5" y="-148.5" font-family="Helvetica,sans-Serif" font-size="10.00" fill="grey">sem</text>
</g>
<!-- Node10 -->
<g id="Node000010" class="node">
<title>Node10</title>
<g id="a_Node000010"><a xlink:href="../../d0/d07/structSDL__Condition.html" target="_top" xlink:title=" ">
<polygon fill="white" stroke="#666666" points="612.12,-200 530.12,-200 530.12,-180 612.12,-180 612.12,-200"/>
<text xml:space="preserve" text-anchor="middle" x="571.12" y="-186.5" font-family="Helvetica,sans-Serif" font-size="10.00">SDL_Condition</text>
</a>
</g>
</g>
<!-- Node10&#45;&gt;Node9 -->
<g id="edge14_Node000009_Node000010" class="edge">
<title>Node10&#45;&gt;Node9</title>
<g id="a_edge14_Node000009_Node000010"><a xlink:title=" ">
<path fill="none" stroke="#9a32cd" stroke-dasharray="5,2" d="M563.13,-169.24C555.58,-150.57 544.58,-123.38 538.88,-109.27"/>
<polygon fill="#9a32cd" stroke="#9a32cd" points="559.85,-170.45 566.84,-178.41 566.34,-167.82 559.85,-170.45"/>
</a>
</g>
<text xml:space="preserve" text-anchor="start" x="562.48" y="-148.5" font-family="Helvetica,sans-Serif" font-size="10.00" fill="grey">count_nonzero</text>
</g>
</g>
</svg>

<g id="navigator" transform="translate(0 0)" fill="#404254">
  <rect fill="#f2f5e9" fill-opacity="0.5" stroke="#606060" stroke-width=".5" x="0" y="0" width="60" height="60"/>
  <use id="zoomplus" xlink:href="#zoomPlus" x="17" y="9" onmousedown="handleZoom(evt,'in')"/>
  <use id="zoomminus" xlink:href="#zoomMin" x="42" y="9" onmousedown="handleZoom(evt,'out')"/>
  <use id="reset" xlink:href="#resetDef" x="30" y="36" onmousedown="handleReset()"/>
   <use id="arrowup" xlink:href="#arrowUp" x="0" y="0" onmousedown="handlePan(0,-1)"/>
  <use id="arrowright" xlink:href="#arrowRight" x="0" y="0" onmousedown="handlePan(1,0)"/>
  <use id="arrowdown" xlink:href="#arrowDown" x="0" y="0" onmousedown="handlePan(0,1)"/>
  <use id="arrowleft" xlink:href="#arrowLeft" x="0" y="0" onmousedown="handlePan(-1,0)"/>
</g>
<svg viewBox="0 0 15 15" width="100%" height="30px" preserveAspectRatio="xMaxYMin meet">
 <g id="arrow_out" transform="scale(0.3 0.3)">
  <a xlink:href="structSDL__TimerData__coll__graph_org.svg" target="_base">
   <rect id="button" ry="5" rx="5" y="6" x="6" height="38" width="38"
        fill="#f2f5e9" fill-opacity="0.5" stroke="#606060" stroke-width="1.0"/>
   <path id="arrow"
     d="M 11.500037,31.436501 C 11.940474,20.09759 22.043105,11.32322 32.158766,21.979434 L 37.068811,17.246167 C 37.068811,17.246167 37.088388,32 37.088388,32 L 22.160133,31.978069 C 22.160133,31.978069 26.997745,27.140456 26.997745,27.140456 C 18.528582,18.264221 13.291696,25.230495 11.500037,31.436501 z"
     style="fill:#404040;"/>
  </a>
 </g>
</svg>

<style type='text/css'>
<![CDATA[
[data-mouse-over-selected='false'] { opacity: 0.7; }
[data-mouse-over-selected='true']  { opacity: 1.0; }
]]>
</style>
<script type="application/ecmascript"><![CDATA[
document.addEventListener('DOMContentLoaded', (event) => {
  highlightEdges();
  highlightAdjacentNodes();
});
]]></script>
</svg>
