<?xml version="1.0" encoding="UTF-8" standalone="no"?>
<!DOCTYPE svg PUBLIC "-//W3C//DTD SVG 1.1//EN"
 "http://www.w3.org/Graphics/SVG/1.1/DTD/svg11.dtd">
<!-- Generated by graphviz version 13.1.0 (20250701.0955)
 -->
<!-- Title: SDL_ConvertFromLinear Pages: 1 -->
<svg width="600pt" height="28pt"
 viewBox="0.00 0.00 600.00 28.00" xmlns="http://www.w3.org/2000/svg" xmlns:xlink="http://www.w3.org/1999/xlink">
<g id="graph0" class="graph" transform="scale(1 1) rotate(0) translate(4 24)">
<title>SDL_ConvertFromLinear</title>
<!-- Node1 -->
<g id="Node000001" class="node">
<title>Node1</title>
<g id="a_Node000001"><a xlink:title=" ">
<polygon fill="#999999" stroke="#666666" points="124,-20 0,-20 0,0 124,0 124,-20"/>
<text xml:space="preserve" text-anchor="middle" x="62" y="-6.5" font-family="Helvetica,sans-Serif" font-size="10.00">SDL_ConvertFromLinear</text>
</a>
</g>
</g>
<!-- Node2 -->
<g id="Node000002" class="node">
<title>Node2</title>
<g id="a_Node000002"><a xlink:href="../../d0/d74/SDL__pixels_8c.html#a7d23bf7f35c0f58287be2d0c45b642cb" target="_top" xlink:title=" ">
<polygon fill="white" stroke="#666666" points="273.5,-20 160,-20 160,0 273.5,0 273.5,-20"/>
<text xml:space="preserve" text-anchor="middle" x="216.75" y="-6.5" font-family="Helvetica,sans-Serif" font-size="10.00">SDL_sRGBfromLinear</text>
</a>
</g>
</g>
<!-- Node1&#45;&gt;Node2 -->
<g id="edge1_Node000001_Node000002" class="edge">
<title>Node1&#45;&gt;Node2</title>
<g id="a_edge1_Node000001_Node000002"><a xlink:title=" ">
<path fill="none" stroke="#63b8ff" d="M124.25,-10C132.26,-10 140.5,-10 148.6,-10"/>
<polygon fill="#63b8ff" stroke="#63b8ff" points="148.41,-13.5 158.41,-10 148.41,-6.5 148.41,-13.5"/>
</a>
</g>
</g>
<!-- Node3 -->
<g id="Node000003" class="node">
<title>Node3</title>
<g id="a_Node000003"><a xlink:href="../../d3/d02/SDL__stdlib_8c.html#ae19105f921d6c5e69d8ca7c9e7f88866" target="_top" xlink:title=" ">
<polygon fill="white" stroke="#666666" points="371.25,-20 309.5,-20 309.5,0 371.25,0 371.25,-20"/>
<text xml:space="preserve" text-anchor="middle" x="340.38" y="-6.5" font-family="Helvetica,sans-Serif" font-size="10.00">SDL_powf</text>
</a>
</g>
</g>
<!-- Node2&#45;&gt;Node3 -->
<g id="edge2_Node000002_Node000003" class="edge">
<title>Node2&#45;&gt;Node3</title>
<g id="a_edge2_Node000002_Node000003"><a xlink:title=" ">
<path fill="none" stroke="#63b8ff" d="M273.93,-10C282.04,-10 290.25,-10 297.99,-10"/>
<polygon fill="#63b8ff" stroke="#63b8ff" points="297.79,-13.5 307.79,-10 297.79,-6.5 297.79,-13.5"/>
</a>
</g>
</g>
<!-- Node4 -->
<g id="Node000004" class="node">
<title>Node4</title>
<g id="a_Node000004"><a xlink:href="../../d3/d02/SDL__stdlib_8c.html#a5ad148d1a87a4eda6008114e627f61da" target="_top" xlink:title=" ">
<polygon fill="white" stroke="#666666" points="466,-20 407.25,-20 407.25,0 466,0 466,-20"/>
<text xml:space="preserve" text-anchor="middle" x="436.62" y="-6.5" font-family="Helvetica,sans-Serif" font-size="10.00">SDL_pow</text>
</a>
</g>
</g>
<!-- Node3&#45;&gt;Node4 -->
<g id="edge3_Node000003_Node000004" class="edge">
<title>Node3&#45;&gt;Node4</title>
<g id="a_edge3_Node000003_Node000004"><a xlink:title=" ">
<path fill="none" stroke="#63b8ff" d="M371.72,-10C379.31,-10 387.57,-10 395.55,-10"/>
<polygon fill="#63b8ff" stroke="#63b8ff" points="395.43,-13.5 405.43,-10 395.43,-6.5 395.43,-13.5"/>
</a>
</g>
</g>
<!-- Node5 -->
<g id="Node000005" class="node">
<title>Node5</title>
<g id="a_Node000005"><a xlink:href="../../de/d5e/e__pow_8c.html#a59c4e50110dd57aa627494f79c8f37d5" target="_top" xlink:title=" ">
<polygon fill="white" stroke="#666666" points="591.5,-20 502,-20 502,0 591.5,0 591.5,-20"/>
<text xml:space="preserve" text-anchor="middle" x="546.75" y="-6.5" font-family="Helvetica,sans-Serif" font-size="10.00">SDL_uclibc_pow</text>
</a>
</g>
</g>
<!-- Node4&#45;&gt;Node5 -->
<g id="edge4_Node000004_Node000005" class="edge">
<title>Node4&#45;&gt;Node5</title>
<g id="a_edge4_Node000004_Node000005"><a xlink:title=" ">
<path fill="none" stroke="#63b8ff" d="M466.32,-10C473.8,-10 482.12,-10 490.49,-10"/>
<polygon fill="#63b8ff" stroke="#63b8ff" points="490.32,-13.5 500.32,-10 490.32,-6.5 490.32,-13.5"/>
</a>
</g>
</g>
</g>
</svg>
