<?xml version="1.0" encoding="UTF-8" standalone="no"?>
<!DOCTYPE svg PUBLIC "-//W3C//DTD SVG 1.1//EN"
 "http://www.w3.org/Graphics/SVG/1.1/DTD/svg11.dtd">
<!-- Generated by graphviz version 13.1.0 (20250701.0955)
 -->
<!-- Title: SDL&#45;main/include/SDL3/SDL_dialog.h Pages: 1 -->
<!--zoomable 432 -->

<svg id="main" version="1.1" xmlns="http://www.w3.org/2000/svg" xmlns:xlink="http://www.w3.org/1999/xlink" xml:space="preserve" onload="init(evt)">

<style type="text/css"><![CDATA[
.node, .edge {opacity: 0.7;}
.node.selected, .edge.selected {opacity: 1;}
.edge:hover path { stroke: red; }
.edge:hover polygon { stroke: red; fill: red; }
]]></style>

<defs>
  <circle id="rim" cx="0" cy="0" r="7"/>
  <circle id="rim2" cx="0" cy="0" r="3.5"/>
  <g id="zoomPlus">
    <use xlink:href="#rim" fill="#404040"><set attributeName="fill" to="#808080" begin="zoomplus.mouseover" end="zoomplus.mouseout"/></use>
    <path d="M-4,0h8M0,-4v8" fill="none" stroke="white" stroke-width="1.5" pointer-events="none"/>
  </g>
  <g id="zoomMin">
    <use xlink:href="#rim" fill="#404040"><set attributeName="fill" to="#808080" begin="zoomminus.mouseover" end="zoomminus.mouseout"/></use>
    <path d="M-4,0h8" fill="none" stroke="white" stroke-width="1.5" pointer-events="none"/>
  </g>
  <g id="arrowUp" transform="translate(30 24)">
    <use xlink:href="#rim"/>
    <path pointer-events="none" fill="none" stroke="white" stroke-width="1.5" d="M0,-3.0v7 M-2.5,-0.5L0,-3.0L2.5,-0.5"/>
  </g>
  <g id="arrowRight" transform="rotate(90) translate(36 -43)">
    <use xlink:href="#rim"/>
    <path pointer-events="none" fill="none" stroke="white" stroke-width="1.5" d="M0,-3.0v7 M-2.5,-0.5L0,-3.0L2.5,-0.5"/>
  </g>
  <g id="arrowDown" transform="rotate(180) translate(-30 -48)">
    <use xlink:href="#rim"/>
    <path pointer-events="none" fill="none" stroke="white" stroke-width="1.5" d="M0,-3.0v7 M-2.5,-0.5L0,-3.0L2.5,-0.5"/>
  </g>
  <g id="arrowLeft" transform="rotate(270) translate(-36 17)">
    <use xlink:href="#rim"/>
    <path pointer-events="none" fill="none" stroke="white" stroke-width="1.5" d="M0,-3.0v7 M-2.5,-0.5L0,-3.0L2.5,-0.5"/>
  </g>
  <g id="resetDef">
    <use xlink:href="#rim2" fill="#404040"><set attributeName="fill" to="#808080" begin="reset.mouseover" end="reset.mouseout"/></use>
  </g>
</defs>
<script type="application/ecmascript">
var viewWidth = 1148;
var viewHeight = 432;
var sectionId = 'dynsection-0';
</script>
<script type="application/ecmascript" xlink:href="../../svg.min.js"/>
<svg id="graph" class="graph">
<g id="viewport">
<title>SDL&#45;main/include/SDL3/SDL_dialog.h</title>
<!-- Node1 -->
<g id="Node000001" class="node">
<title>Node1</title>
<g id="a_Node000001"><a xlink:title=" ">
<polygon fill="#999999" stroke="#666666" points="475.5,-424 354.5,-424 354.5,-392 475.5,-392 475.5,-424"/>
<text xml:space="preserve" text-anchor="start" x="362.5" y="-410.5" font-family="Helvetica,sans-Serif" font-size="10.00">SDL&#45;main/include/SDL3</text>
<text xml:space="preserve" text-anchor="middle" x="415" y="-398.5" font-family="Helvetica,sans-Serif" font-size="10.00">/SDL_dialog.h</text>
</a>
</g>
</g>
<!-- Node2 -->
<g id="Node000002" class="node">
<title>Node2</title>
<g id="a_Node000002"><a xlink:href="../../d2/d5b/SDL__stdinc_8h.html" target="_top" xlink:title=" ">
<polygon fill="white" stroke="#666666" points="555.5,-76 452.5,-76 452.5,-56 555.5,-56 555.5,-76"/>
<text xml:space="preserve" text-anchor="middle" x="504" y="-62.5" font-family="Helvetica,sans-Serif" font-size="10.00">SDL3/SDL_stdinc.h</text>
</a>
</g>
</g>
<!-- Node1&#45;&gt;Node2 -->
<g id="edge1_Node000001_Node000002" class="edge">
<title>Node1&#45;&gt;Node2</title>
<g id="a_edge1_Node000001_Node000002"><a xlink:title=" ">
<path fill="none" stroke="#63b8ff" d="M365.3,-391.6C273.8,-360.2 92,-281.97 138,-168 150.94,-135.94 161.23,-127.76 192,-112 234.3,-90.33 362.85,-77.35 441.12,-71.24"/>
<polygon fill="#63b8ff" stroke="#63b8ff" points="441.07,-74.76 450.78,-70.51 440.54,-67.78 441.07,-74.76"/>
</a>
</g>
</g>
<!-- Node8 -->
<g id="Node000008" class="node">
<title>Node8</title>
<g id="a_Node000008"><a xlink:href="../../d8/d5f/SDL__begin__code_8h.html" target="_top" xlink:title=" ">
<polygon fill="white" stroke="#666666" points="329.12,-20 202.88,-20 202.88,0 329.12,0 329.12,-20"/>
<text xml:space="preserve" text-anchor="middle" x="266" y="-6.5" font-family="Helvetica,sans-Serif" font-size="10.00">SDL3/SDL_begin_code.h</text>
</a>
</g>
</g>
<!-- Node1&#45;&gt;Node8 -->
<g id="edge56_Node000001_Node000008" class="edge">
<title>Node1&#45;&gt;Node8</title>
<g id="a_edge56_Node000001_Node000008"><a xlink:title=" ">
<path fill="none" stroke="#63b8ff" d="M354.21,-402.69C238.94,-392.84 0,-363.66 0,-291 0,-291 0,-291 0,-121 0,-37.76 112.6,-16.27 191.28,-11.42"/>
<polygon fill="#63b8ff" stroke="#63b8ff" points="191.31,-14.92 201.11,-10.9 190.94,-7.93 191.31,-14.92"/>
</a>
</g>
</g>
<!-- Node9 -->
<g id="Node000009" class="node">
<title>Node9</title>
<g id="a_Node000009"><a xlink:href="../../d9/d73/SDL__close__code_8h.html" target="_top" xlink:title=" ">
<polygon fill="white" stroke="#666666" points="937.12,-20 810.88,-20 810.88,0 937.12,0 937.12,-20"/>
<text xml:space="preserve" text-anchor="middle" x="874" y="-6.5" font-family="Helvetica,sans-Serif" font-size="10.00">SDL3/SDL_close_code.h</text>
</a>
</g>
</g>
<!-- Node1&#45;&gt;Node9 -->
<g id="edge57_Node000001_Node000009" class="edge">
<title>Node1&#45;&gt;Node9</title>
<g id="a_edge57_Node000001_Node000009"><a xlink:title=" ">
<path fill="none" stroke="#63b8ff" d="M475.88,-403.65C650.39,-393.23 1140,-358.04 1140,-291 1140,-291 1140,-291 1140,-121 1140,-37.76 1027.4,-16.27 948.72,-11.42"/>
<polygon fill="#63b8ff" stroke="#63b8ff" points="949.06,-7.93 938.89,-10.9 948.69,-14.92 949.06,-7.93"/>
</a>
</g>
</g>
<!-- Node10 -->
<g id="Node000010" class="node">
<title>Node10</title>
<g id="a_Node000010"><a xlink:href="../../da/d16/SDL__error_8h.html" target="_top" xlink:title=" ">
<polygon fill="white" stroke="#666666" points="884.12,-132 787.88,-132 787.88,-112 884.12,-112 884.12,-132"/>
<text xml:space="preserve" text-anchor="middle" x="836" y="-118.5" font-family="Helvetica,sans-Serif" font-size="10.00">SDL3/SDL_error.h</text>
</a>
</g>
</g>
<!-- Node1&#45;&gt;Node10 -->
<g id="edge9_Node000001_Node000010" class="edge">
<title>Node1&#45;&gt;Node10</title>
<g id="a_edge9_Node000001_Node000010"><a xlink:title=" ">
<path fill="none" stroke="#63b8ff" d="M475.14,-391.55C552.27,-369.34 686.94,-322.2 778,-244 803.31,-222.26 814.22,-218.39 828,-188 834.33,-174.03 836.21,-156.74 836.57,-143.5"/>
<polygon fill="#63b8ff" stroke="#63b8ff" points="840.08,-143.8 836.56,-133.81 833.08,-143.81 840.08,-143.8"/>
</a>
</g>
</g>
<!-- Node11 -->
<g id="Node000011" class="node">
<title>Node11</title>
<g id="a_Node000011"><a xlink:href="../../d6/d40/SDL__properties_8h.html" target="_top" xlink:title=" ">
<polygon fill="white" stroke="#666666" points="613.75,-188 494.25,-188 494.25,-168 613.75,-168 613.75,-188"/>
<text xml:space="preserve" text-anchor="middle" x="554" y="-174.5" font-family="Helvetica,sans-Serif" font-size="10.00">SDL3/SDL_properties.h</text>
</a>
</g>
</g>
<!-- Node1&#45;&gt;Node11 -->
<g id="edge13_Node000001_Node000011" class="edge">
<title>Node1&#45;&gt;Node11</title>
<g id="a_edge13_Node000001_Node000011"><a xlink:title=" ">
<path fill="none" stroke="#63b8ff" d="M411.28,-391.75C408.42,-376.97 406.03,-354.19 413,-336 436.86,-273.73 498.08,-220.63 531.46,-195.15"/>
<polygon fill="#63b8ff" stroke="#63b8ff" points="533.34,-198.12 539.26,-189.33 529.15,-192.51 533.34,-198.12"/>
</a>
</g>
</g>
<!-- Node12 -->
<g id="Node000012" class="node">
<title>Node12</title>
<g id="a_Node000012"><a xlink:href="../../d3/d91/SDL__video_8h.html" target="_top" xlink:title=" ">
<polygon fill="white" stroke="#666666" points="522,-356 422,-356 422,-336 522,-336 522,-356"/>
<text xml:space="preserve" text-anchor="middle" x="472" y="-342.5" font-family="Helvetica,sans-Serif" font-size="10.00">SDL3/SDL_video.h</text>
</a>
</g>
</g>
<!-- Node1&#45;&gt;Node12 -->
<g id="edge18_Node000001_Node000012" class="edge">
<title>Node1&#45;&gt;Node12</title>
<g id="a_edge18_Node000001_Node000012"><a xlink:title=" ">
<path fill="none" stroke="#63b8ff" d="M429.68,-391.55C437.51,-383.3 447.19,-373.12 455.31,-364.57"/>
<polygon fill="#63b8ff" stroke="#63b8ff" points="457.67,-367.17 462.02,-357.51 452.59,-362.34 457.67,-367.17"/>
</a>
</g>
</g>
<!-- Node3 -->
<g id="Node000003" class="node">
<title>Node3</title>
<g id="a_Node000003"><a xlink:href="../../d3/d8b/SDL__platform__defines_8h.html" target="_top" xlink:title=" ">
<polygon fill="white" stroke="#666666" points="696.38,-20 547.62,-20 547.62,0 696.38,0 696.38,-20"/>
<text xml:space="preserve" text-anchor="middle" x="622" y="-6.5" font-family="Helvetica,sans-Serif" font-size="10.00">SDL3/SDL_platform_defines.h</text>
</a>
</g>
</g>
<!-- Node2&#45;&gt;Node3 -->
<g id="edge2_Node000002_Node000003" class="edge">
<title>Node2&#45;&gt;Node3</title>
<g id="a_edge2_Node000002_Node000003"><a xlink:title=" ">
<path fill="none" stroke="#63b8ff" d="M524.55,-55.59C542.88,-47.21 569.99,-34.8 590.96,-25.21"/>
<polygon fill="#63b8ff" stroke="#63b8ff" points="592.27,-28.45 599.91,-21.11 589.36,-22.09 592.27,-28.45"/>
</a>
</g>
</g>
<!-- Node4 -->
<g id="Node000004" class="node">
<title>Node4</title>
<g id="a_Node000004"><a xlink:title=" ">
<polygon fill="#e0e0e0" stroke="#999999" points="765.62,-20 714.38,-20 714.38,0 765.62,0 765.62,-20"/>
<text xml:space="preserve" text-anchor="middle" x="740" y="-6.5" font-family="Helvetica,sans-Serif" font-size="10.00">stdarg.h</text>
</a>
</g>
</g>
<!-- Node2&#45;&gt;Node4 -->
<g id="edge3_Node000002_Node000004" class="edge">
<title>Node2&#45;&gt;Node4</title>
<g id="a_edge3_Node000002_Node000004"><a xlink:title=" ">
<path fill="none" stroke="#63b8ff" d="M548.01,-55.56C586.4,-47.24 643.88,-34.55 702.98,-20.43"/>
<polygon fill="#63b8ff" stroke="#63b8ff" points="703.65,-23.87 712.56,-18.13 702.02,-17.06 703.65,-23.87"/>
</a>
</g>
</g>
<!-- Node5 -->
<g id="Node000005" class="node">
<title>Node5</title>
<g id="a_Node000005"><a xlink:title=" ">
<polygon fill="#e0e0e0" stroke="#999999" points="395.12,-20 346.88,-20 346.88,0 395.12,0 395.12,-20"/>
<text xml:space="preserve" text-anchor="middle" x="371" y="-6.5" font-family="Helvetica,sans-Serif" font-size="10.00">stdint.h</text>
</a>
</g>
</g>
<!-- Node2&#45;&gt;Node5 -->
<g id="edge4_Node000002_Node000005" class="edge">
<title>Node2&#45;&gt;Node5</title>
<g id="a_edge4_Node000002_Node000005"><a xlink:title=" ">
<path fill="none" stroke="#63b8ff" d="M480.83,-55.59C459.79,-47.05 428.5,-34.35 404.7,-24.68"/>
<polygon fill="#63b8ff" stroke="#63b8ff" points="406.33,-21.57 395.75,-21.05 403.7,-28.05 406.33,-21.57"/>
</a>
</g>
</g>
<!-- Node6 -->
<g id="Node000006" class="node">
<title>Node6</title>
<g id="a_Node000006"><a xlink:title=" ">
<polygon fill="#e0e0e0" stroke="#999999" points="461.12,-20 412.88,-20 412.88,0 461.12,0 461.12,-20"/>
<text xml:space="preserve" text-anchor="middle" x="437" y="-6.5" font-family="Helvetica,sans-Serif" font-size="10.00">string.h</text>
</a>
</g>
</g>
<!-- Node2&#45;&gt;Node6 -->
<g id="edge5_Node000002_Node000006" class="edge">
<title>Node2&#45;&gt;Node6</title>
<g id="a_edge5_Node000002_Node000006"><a xlink:title=" ">
<path fill="none" stroke="#63b8ff" d="M492.33,-55.59C482.72,-47.85 468.87,-36.69 457.43,-27.47"/>
<polygon fill="#63b8ff" stroke="#63b8ff" points="459.7,-24.8 449.72,-21.25 455.3,-30.25 459.7,-24.8"/>
</a>
</g>
</g>
<!-- Node7 -->
<g id="Node000007" class="node">
<title>Node7</title>
<g id="a_Node000007"><a xlink:title=" ">
<polygon fill="#e0e0e0" stroke="#999999" points="529.25,-20 478.75,-20 478.75,0 529.25,0 529.25,-20"/>
<text xml:space="preserve" text-anchor="middle" x="504" y="-6.5" font-family="Helvetica,sans-Serif" font-size="10.00">wchar.h</text>
</a>
</g>
</g>
<!-- Node2&#45;&gt;Node7 -->
<g id="edge6_Node000002_Node000007" class="edge">
<title>Node2&#45;&gt;Node7</title>
<g id="a_edge6_Node000002_Node000007"><a xlink:title=" ">
<path fill="none" stroke="#63b8ff" d="M504,-55.59C504,-49.01 504,-39.96 504,-31.73"/>
<polygon fill="#63b8ff" stroke="#63b8ff" points="507.5,-31.81 504,-21.81 500.5,-31.81 507.5,-31.81"/>
</a>
</g>
</g>
<!-- Node2&#45;&gt;Node8 -->
<g id="edge7_Node000002_Node000008" class="edge">
<title>Node2&#45;&gt;Node8</title>
<g id="a_edge7_Node000002_Node000008"><a xlink:title=" ">
<path fill="none" stroke="#63b8ff" d="M462.27,-55.53C422.38,-46.48 362.07,-32.8 318.83,-22.99"/>
<polygon fill="#63b8ff" stroke="#63b8ff" points="319.68,-19.59 309.16,-20.79 318.13,-26.42 319.68,-19.59"/>
</a>
</g>
</g>
<!-- Node2&#45;&gt;Node9 -->
<g id="edge8_Node000002_Node000009" class="edge">
<title>Node2&#45;&gt;Node9</title>
<g id="a_edge8_Node000002_Node000009"><a xlink:title=" ">
<path fill="none" stroke="#63b8ff" d="M555.84,-57.43C619.17,-48.19 726.81,-32.48 799.14,-21.93"/>
<polygon fill="#63b8ff" stroke="#63b8ff" points="799.54,-25.4 808.93,-20.5 798.53,-18.48 799.54,-25.4"/>
</a>
</g>
</g>
<!-- Node10&#45;&gt;Node2 -->
<g id="edge10_Node000010_Node000002" class="edge">
<title>Node10&#45;&gt;Node2</title>
<g id="a_edge10_Node000010_Node000002"><a xlink:title=" ">
<path fill="none" stroke="#63b8ff" d="M787.72,-113.15C729.45,-103.67 631.29,-87.7 567.07,-77.26"/>
<polygon fill="#63b8ff" stroke="#63b8ff" points="567.82,-73.83 557.38,-75.68 566.69,-80.74 567.82,-73.83"/>
</a>
</g>
</g>
<!-- Node10&#45;&gt;Node8 -->
<g id="edge11_Node000010_Node000008" class="edge">
<title>Node10&#45;&gt;Node8</title>
<g id="a_edge11_Node000010_Node000008"><a xlink:title=" ">
<path fill="none" stroke="#63b8ff" d="M800.57,-111.52C748.85,-97.91 649.55,-72.65 564,-56 488.37,-41.28 401.14,-28.6 340.69,-20.49"/>
<polygon fill="#63b8ff" stroke="#63b8ff" points="341.22,-17.03 330.84,-19.18 340.29,-23.97 341.22,-17.03"/>
</a>
</g>
</g>
<!-- Node10&#45;&gt;Node9 -->
<g id="edge12_Node000010_Node000009" class="edge">
<title>Node10&#45;&gt;Node9</title>
<g id="a_edge12_Node000010_Node000009"><a xlink:title=" ">
<path fill="none" stroke="#63b8ff" d="M839.24,-111.62C845.38,-93.84 858.84,-54.88 867.09,-31"/>
<polygon fill="#63b8ff" stroke="#63b8ff" points="870.32,-32.38 870.27,-21.79 863.7,-30.09 870.32,-32.38"/>
</a>
</g>
</g>
<!-- Node11&#45;&gt;Node2 -->
<g id="edge14_Node000011_Node000002" class="edge">
<title>Node11&#45;&gt;Node2</title>
<g id="a_edge14_Node000011_Node000002"><a xlink:title=" ">
<path fill="none" stroke="#63b8ff" d="M547.94,-167.6C542.33,-158.66 533.98,-144.74 528,-132 521.11,-117.33 514.83,-100.09 510.42,-87.06"/>
<polygon fill="#63b8ff" stroke="#63b8ff" points="513.85,-86.3 507.4,-77.9 507.2,-88.49 513.85,-86.3"/>
</a>
</g>
</g>
<!-- Node11&#45;&gt;Node8 -->
<g id="edge16_Node000011_Node000008" class="edge">
<title>Node11&#45;&gt;Node8</title>
<g id="a_edge16_Node000011_Node000008"><a xlink:title=" ">
<path fill="none" stroke="#63b8ff" d="M494,-171.48C434.68,-164.95 349.11,-152.33 323,-132 290.58,-106.77 275.75,-58.63 269.68,-31.29"/>
<polygon fill="#63b8ff" stroke="#63b8ff" points="273.18,-30.94 267.77,-21.83 266.32,-32.33 273.18,-30.94"/>
</a>
</g>
</g>
<!-- Node11&#45;&gt;Node9 -->
<g id="edge17_Node000011_Node000009" class="edge">
<title>Node11&#45;&gt;Node9</title>
<g id="a_edge17_Node000011_Node000009"><a xlink:title=" ">
<path fill="none" stroke="#63b8ff" d="M613.93,-169.55C650.72,-163.23 697.91,-151.88 736,-132 787.32,-105.21 835.31,-55.5 858.84,-28.9"/>
<polygon fill="#63b8ff" stroke="#63b8ff" points="861.46,-31.22 865.37,-21.37 856.17,-26.63 861.46,-31.22"/>
</a>
</g>
</g>
<!-- Node11&#45;&gt;Node10 -->
<g id="edge15_Node000011_Node000010" class="edge">
<title>Node11&#45;&gt;Node10</title>
<g id="a_edge15_Node000011_Node000010"><a xlink:title=" ">
<path fill="none" stroke="#63b8ff" d="M603.44,-167.53C651.61,-158.31 724.9,-144.28 776.29,-134.43"/>
<polygon fill="#63b8ff" stroke="#63b8ff" points="776.91,-137.88 786.07,-132.56 775.59,-131 776.91,-137.88"/>
</a>
</g>
</g>
<!-- Node12&#45;&gt;Node2 -->
<g id="edge19_Node000012_Node000002" class="edge">
<title>Node12&#45;&gt;Node2</title>
<g id="a_edge19_Node000012_Node000002"><a xlink:title=" ">
<path fill="none" stroke="#63b8ff" d="M421.65,-338.33C331.53,-324.99 152,-291.32 152,-235 152,-235 152,-235 152,-177 152,-117.2 339.42,-86.1 440.75,-73.66"/>
<polygon fill="#63b8ff" stroke="#63b8ff" points="441.05,-77.15 450.56,-72.48 440.21,-70.2 441.05,-77.15"/>
</a>
</g>
</g>
<!-- Node12&#45;&gt;Node8 -->
<g id="edge54_Node000012_Node000008" class="edge">
<title>Node12&#45;&gt;Node8</title>
<g id="a_edge54_Node000012_Node000008"><a xlink:title=" ">
<path fill="none" stroke="#63b8ff" d="M421.71,-344.27C364.37,-341.78 268.88,-332.55 194,-300 113.53,-265.02 38,-266.74 38,-179 38,-179 38,-179 38,-121 38,-51.62 124.7,-25.98 191.18,-16.51"/>
<polygon fill="#63b8ff" stroke="#63b8ff" points="191.53,-20 200.99,-15.23 190.62,-13.06 191.53,-20"/>
</a>
</g>
</g>
<!-- Node12&#45;&gt;Node9 -->
<g id="edge55_Node000012_Node000009" class="edge">
<title>Node12&#45;&gt;Node9</title>
<g id="a_edge55_Node000012_Node000009"><a xlink:title=" ">
<path fill="none" stroke="#63b8ff" d="M522.49,-342.54C671.99,-333.89 1102,-298.61 1102,-179 1102,-179 1102,-179 1102,-121 1102,-51.62 1015.3,-25.98 948.82,-16.51"/>
<polygon fill="#63b8ff" stroke="#63b8ff" points="949.38,-13.06 939.01,-15.23 948.47,-20 949.38,-13.06"/>
</a>
</g>
</g>
<!-- Node12&#45;&gt;Node10 -->
<g id="edge20_Node000012_Node000010" class="edge">
<title>Node12&#45;&gt;Node10</title>
<g id="a_edge20_Node000012_Node000010"><a xlink:title=" ">
<path fill="none" stroke="#63b8ff" d="M522.34,-336.96C560.28,-329.91 613.09,-317.94 657,-300 702.02,-281.6 712.36,-273.53 751,-244 779.47,-222.24 788.82,-217.61 809,-188 818.38,-174.24 825.42,-156.71 829.96,-143.32"/>
<polygon fill="#63b8ff" stroke="#63b8ff" points="833.28,-144.45 832.96,-133.86 826.6,-142.34 833.28,-144.45"/>
</a>
</g>
</g>
<!-- Node12&#45;&gt;Node11 -->
<g id="edge30_Node000012_Node000011" class="edge">
<title>Node12&#45;&gt;Node11</title>
<g id="a_edge30_Node000012_Node000011"><a xlink:title=" ">
<path fill="none" stroke="#63b8ff" d="M476.64,-335.6C489.67,-309.23 526.74,-234.19 544.41,-198.42"/>
<polygon fill="#63b8ff" stroke="#63b8ff" points="547.45,-200.17 548.74,-189.65 541.17,-197.07 547.45,-200.17"/>
</a>
</g>
</g>
<!-- Node13 -->
<g id="Node000013" class="node">
<title>Node13</title>
<g id="a_Node000013"><a xlink:href="../../d9/d3f/SDL__pixels_8h.html" target="_top" xlink:title=" ">
<polygon fill="white" stroke="#666666" points="438.12,-188 335.88,-188 335.88,-168 438.12,-168 438.12,-188"/>
<text xml:space="preserve" text-anchor="middle" x="387" y="-174.5" font-family="Helvetica,sans-Serif" font-size="10.00">SDL3/SDL_pixels.h</text>
</a>
</g>
</g>
<!-- Node12&#45;&gt;Node13 -->
<g id="edge21_Node000012_Node000013" class="edge">
<title>Node12&#45;&gt;Node13</title>
<g id="a_edge21_Node000012_Node000013"><a xlink:title=" ">
<path fill="none" stroke="#63b8ff" d="M467.19,-335.6C453.69,-309.23 415.26,-234.19 396.94,-198.42"/>
<polygon fill="#63b8ff" stroke="#63b8ff" points="400.12,-196.95 392.45,-189.64 393.89,-200.14 400.12,-196.95"/>
</a>
</g>
</g>
<!-- Node15 -->
<g id="Node000015" class="node">
<title>Node15</title>
<g id="a_Node000015"><a xlink:href="../../d0/d18/SDL__rect_8h.html" target="_top" xlink:title=" ">
<polygon fill="white" stroke="#666666" points="1034.62,-188 941.38,-188 941.38,-168 1034.62,-168 1034.62,-188"/>
<text xml:space="preserve" text-anchor="middle" x="988" y="-174.5" font-family="Helvetica,sans-Serif" font-size="10.00">SDL3/SDL_rect.h</text>
</a>
</g>
</g>
<!-- Node12&#45;&gt;Node15 -->
<g id="edge31_Node000012_Node000015" class="edge">
<title>Node12&#45;&gt;Node15</title>
<g id="a_edge31_Node000012_Node000015"><a xlink:title=" ">
<path fill="none" stroke="#63b8ff" d="M522.41,-342.54C610.64,-337.64 789.09,-324.92 846,-300 900.41,-276.18 949.73,-224.4 973.34,-196.94"/>
<polygon fill="#63b8ff" stroke="#63b8ff" points="975.85,-199.39 979.61,-189.48 970.49,-194.88 975.85,-199.39"/>
</a>
</g>
</g>
<!-- Node16 -->
<g id="Node000016" class="node">
<title>Node16</title>
<g id="a_Node000016"><a xlink:href="../../db/dac/SDL__surface_8h.html" target="_top" xlink:title=" ">
<polygon fill="white" stroke="#666666" points="648.5,-300 539.5,-300 539.5,-280 648.5,-280 648.5,-300"/>
<text xml:space="preserve" text-anchor="middle" x="594" y="-286.5" font-family="Helvetica,sans-Serif" font-size="10.00">SDL3/SDL_surface.h</text>
</a>
</g>
</g>
<!-- Node12&#45;&gt;Node16 -->
<g id="edge36_Node000012_Node000016" class="edge">
<title>Node12&#45;&gt;Node16</title>
<g id="a_edge36_Node000012_Node000016"><a xlink:title=" ">
<path fill="none" stroke="#63b8ff" d="M493.25,-335.59C512.29,-327.17 540.48,-314.69 562.2,-305.07"/>
<polygon fill="#63b8ff" stroke="#63b8ff" points="563.47,-308.34 571.2,-301.09 560.64,-301.94 563.47,-308.34"/>
</a>
</g>
</g>
<!-- Node13&#45;&gt;Node2 -->
<g id="edge22_Node000013_Node000002" class="edge">
<title>Node13&#45;&gt;Node2</title>
<g id="a_edge22_Node000013_Node000002"><a xlink:title=" ">
<path fill="none" stroke="#63b8ff" d="M365.43,-167.53C340.88,-155.42 306.22,-133.46 323,-112 337.6,-93.32 394.72,-81.29 440.93,-74.41"/>
<polygon fill="#63b8ff" stroke="#63b8ff" points="441.21,-77.91 450.61,-73.03 440.22,-70.98 441.21,-77.91"/>
</a>
</g>
</g>
<!-- Node13&#45;&gt;Node8 -->
<g id="edge28_Node000013_Node000008" class="edge">
<title>Node13&#45;&gt;Node8</title>
<g id="a_edge28_Node000013_Node000008"><a xlink:title=" ">
<path fill="none" stroke="#63b8ff" d="M335.41,-174.07C305.83,-169.42 270.92,-158.25 252,-132 230.34,-101.95 244.88,-56.37 256.22,-30.58"/>
<polygon fill="#63b8ff" stroke="#63b8ff" points="259.34,-32.16 260.42,-21.62 253,-29.19 259.34,-32.16"/>
</a>
</g>
</g>
<!-- Node13&#45;&gt;Node9 -->
<g id="edge29_Node000013_Node000009" class="edge">
<title>Node13&#45;&gt;Node9</title>
<g id="a_edge29_Node000013_Node000009"><a xlink:title=" ">
<path fill="none" stroke="#63b8ff" d="M438.59,-171.02C521.85,-161.16 678.99,-141.64 703,-132 716.45,-126.6 797.15,-64.35 809,-56 822.9,-46.21 838.57,-35.35 851.04,-26.76"/>
<polygon fill="#63b8ff" stroke="#63b8ff" points="852.76,-29.83 859.01,-21.27 848.79,-24.06 852.76,-29.83"/>
</a>
</g>
</g>
<!-- Node13&#45;&gt;Node10 -->
<g id="edge23_Node000013_Node000010" class="edge">
<title>Node13&#45;&gt;Node10</title>
<g id="a_edge23_Node000013_Node000010"><a xlink:title=" ">
<path fill="none" stroke="#63b8ff" d="M438.51,-170.81C522.25,-160.73 687.49,-140.86 776.26,-130.18"/>
<polygon fill="#63b8ff" stroke="#63b8ff" points="776.47,-133.69 785.98,-129.02 775.63,-126.74 776.47,-133.69"/>
</a>
</g>
</g>
<!-- Node14 -->
<g id="Node000014" class="node">
<title>Node14</title>
<g id="a_Node000014"><a xlink:href="../../d6/de1/SDL__endian_8h.html" target="_top" xlink:title=" ">
<polygon fill="white" stroke="#666666" points="437.62,-132 332.38,-132 332.38,-112 437.62,-112 437.62,-132"/>
<text xml:space="preserve" text-anchor="middle" x="385" y="-118.5" font-family="Helvetica,sans-Serif" font-size="10.00">SDL3/SDL_endian.h</text>
</a>
</g>
</g>
<!-- Node13&#45;&gt;Node14 -->
<g id="edge24_Node000013_Node000014" class="edge">
<title>Node13&#45;&gt;Node14</title>
<g id="a_edge24_Node000013_Node000014"><a xlink:title=" ">
<path fill="none" stroke="#63b8ff" d="M386.65,-167.59C386.41,-161.01 386.07,-151.96 385.77,-143.73"/>
<polygon fill="#63b8ff" stroke="#63b8ff" points="389.27,-143.67 385.4,-133.81 382.27,-143.93 389.27,-143.67"/>
</a>
</g>
</g>
<!-- Node14&#45;&gt;Node2 -->
<g id="edge25_Node000014_Node000002" class="edge">
<title>Node14&#45;&gt;Node2</title>
<g id="a_edge25_Node000014_Node000002"><a xlink:title=" ">
<path fill="none" stroke="#63b8ff" d="M405.73,-111.59C424.21,-103.21 451.54,-90.8 472.69,-81.21"/>
<polygon fill="#63b8ff" stroke="#63b8ff" points="474.07,-84.42 481.73,-77.1 471.18,-78.05 474.07,-84.42"/>
</a>
</g>
</g>
<!-- Node14&#45;&gt;Node8 -->
<g id="edge26_Node000014_Node000008" class="edge">
<title>Node14&#45;&gt;Node8</title>
<g id="a_edge26_Node000014_Node000008"><a xlink:title=" ">
<path fill="none" stroke="#63b8ff" d="M374.85,-111.62C354.83,-93.11 309.97,-51.65 284.53,-28.13"/>
<polygon fill="#63b8ff" stroke="#63b8ff" points="286.95,-25.6 277.23,-21.38 282.2,-30.74 286.95,-25.6"/>
</a>
</g>
</g>
<!-- Node14&#45;&gt;Node9 -->
<g id="edge27_Node000014_Node000009" class="edge">
<title>Node14&#45;&gt;Node9</title>
<g id="a_edge27_Node000014_Node000009"><a xlink:title=" ">
<path fill="none" stroke="#63b8ff" d="M427.12,-111.53C516.03,-91.52 722.76,-45.02 820.7,-22.99"/>
<polygon fill="#63b8ff" stroke="#63b8ff" points="821.35,-26.43 830.34,-20.82 819.81,-19.6 821.35,-26.43"/>
</a>
</g>
</g>
<!-- Node15&#45;&gt;Node2 -->
<g id="edge32_Node000015_Node000002" class="edge">
<title>Node15&#45;&gt;Node2</title>
<g id="a_edge32_Node000015_Node000002"><a xlink:title=" ">
<path fill="none" stroke="#63b8ff" d="M977.86,-167.52C961.45,-152.82 927.44,-124.87 893,-112 834.85,-90.27 661.68,-76.64 567.21,-70.62"/>
<polygon fill="#63b8ff" stroke="#63b8ff" points="567.52,-67.13 557.32,-70 567.08,-74.11 567.52,-67.13"/>
</a>
</g>
</g>
<!-- Node15&#45;&gt;Node8 -->
<g id="edge34_Node000015_Node000008" class="edge">
<title>Node15&#45;&gt;Node8</title>
<g id="a_edge34_Node000015_Node000008"><a xlink:title=" ">
<path fill="none" stroke="#63b8ff" d="M981.9,-167.71C971.88,-153.27 950.48,-125.66 925,-112 804.69,-47.49 757.89,-76.99 623,-56 616.07,-54.92 443.31,-33.23 340.7,-20.36"/>
<polygon fill="#63b8ff" stroke="#63b8ff" points="341.32,-16.91 330.97,-19.14 340.45,-23.86 341.32,-16.91"/>
</a>
</g>
</g>
<!-- Node15&#45;&gt;Node9 -->
<g id="edge35_Node000015_Node000009" class="edge">
<title>Node15&#45;&gt;Node9</title>
<g id="a_edge35_Node000015_Node000009"><a xlink:title=" ">
<path fill="none" stroke="#63b8ff" d="M993,-167.61C999.11,-154.86 1007.97,-131.42 1002,-112 993.17,-83.25 986.63,-75.81 964,-56 948.76,-42.66 928.87,-32.17 911.66,-24.69"/>
<polygon fill="#63b8ff" stroke="#63b8ff" points="913.33,-21.6 902.75,-21 910.65,-28.06 913.33,-21.6"/>
</a>
</g>
</g>
<!-- Node15&#45;&gt;Node10 -->
<g id="edge33_Node000015_Node000010" class="edge">
<title>Node15&#45;&gt;Node10</title>
<g id="a_edge33_Node000015_Node000010"><a xlink:title=" ">
<path fill="none" stroke="#63b8ff" d="M961.52,-167.59C937.15,-158.94 900.75,-146 873.41,-136.29"/>
<polygon fill="#63b8ff" stroke="#63b8ff" points="874.7,-133.04 864.11,-132.99 872.36,-139.63 874.7,-133.04"/>
</a>
</g>
</g>
<!-- Node16&#45;&gt;Node2 -->
<g id="edge37_Node000016_Node000002" class="edge">
<title>Node16&#45;&gt;Node2</title>
<g id="a_edge37_Node000016_Node000002"><a xlink:title=" ">
<path fill="none" stroke="#63b8ff" d="M577.07,-279.6C551.47,-264.29 503.89,-231.27 485,-188 470.31,-154.35 484.08,-111.05 494.6,-86.43"/>
<polygon fill="#63b8ff" stroke="#63b8ff" points="497.65,-88.17 498.6,-77.62 491.28,-85.28 497.65,-88.17"/>
</a>
</g>
</g>
<!-- Node16&#45;&gt;Node8 -->
<g id="edge52_Node000016_Node000008" class="edge">
<title>Node16&#45;&gt;Node8</title>
<g id="a_edge52_Node000016_Node000008"><a xlink:title=" ">
<path fill="none" stroke="#63b8ff" d="M539.01,-288.3C444.75,-283.63 256.26,-258.19 192,-132 172.22,-93.16 215.16,-50.19 243.55,-27.36"/>
<polygon fill="#63b8ff" stroke="#63b8ff" points="245.55,-30.25 251.32,-21.36 241.27,-24.71 245.55,-30.25"/>
</a>
</g>
</g>
<!-- Node16&#45;&gt;Node9 -->
<g id="edge53_Node000016_Node000009" class="edge">
<title>Node16&#45;&gt;Node9</title>
<g id="a_edge53_Node000016_Node000009"><a xlink:title=" ">
<path fill="none" stroke="#63b8ff" d="M648.83,-287.65C772.82,-283.1 1064,-263.43 1064,-179 1064,-179 1064,-179 1064,-121 1064,-64.57 1000.45,-36.62 946.86,-23.08"/>
<polygon fill="#63b8ff" stroke="#63b8ff" points="947.96,-19.74 937.42,-20.83 946.34,-26.55 947.96,-19.74"/>
</a>
</g>
</g>
<!-- Node16&#45;&gt;Node10 -->
<g id="edge38_Node000016_Node000010" class="edge">
<title>Node16&#45;&gt;Node10</title>
<g id="a_edge38_Node000016_Node000010"><a xlink:title=" ">
<path fill="none" stroke="#63b8ff" d="M637.98,-279.53C664.38,-272.49 697.81,-261.11 724,-244 766.95,-215.95 804.65,-167.87 823.41,-141.56"/>
<polygon fill="#63b8ff" stroke="#63b8ff" points="826.13,-143.77 828.98,-133.57 820.39,-139.77 826.13,-143.77"/>
</a>
</g>
</g>
<!-- Node16&#45;&gt;Node11 -->
<g id="edge44_Node000016_Node000011" class="edge">
<title>Node16&#45;&gt;Node11</title>
<g id="a_edge44_Node000016_Node000011"><a xlink:title=" ">
<path fill="none" stroke="#63b8ff" d="M589.83,-279.79C585.81,-270.76 579.67,-256.56 575,-244 569.49,-229.17 564.02,-212.15 560.04,-199.25"/>
<polygon fill="#63b8ff" stroke="#63b8ff" points="563.43,-198.35 557.18,-189.79 556.73,-200.38 563.43,-198.35"/>
</a>
</g>
</g>
<!-- Node16&#45;&gt;Node13 -->
<g id="edge43_Node000016_Node000013" class="edge">
<title>Node16&#45;&gt;Node13</title>
<g id="a_edge43_Node000016_Node000013"><a xlink:title=" ">
<path fill="none" stroke="#63b8ff" d="M571.88,-279.65C551.8,-270.98 521.52,-257.42 496,-244 466.03,-228.24 432.77,-207.98 410.96,-194.3"/>
<polygon fill="#63b8ff" stroke="#63b8ff" points="413.13,-191.53 402.8,-189.15 409.39,-197.45 413.13,-191.53"/>
</a>
</g>
</g>
<!-- Node16&#45;&gt;Node15 -->
<g id="edge45_Node000016_Node000015" class="edge">
<title>Node16&#45;&gt;Node15</title>
<g id="a_edge45_Node000016_Node000015"><a xlink:title=" ">
<path fill="none" stroke="#63b8ff" d="M648.6,-279.69C692.15,-271.74 754.5,-259.2 808,-244 860.13,-229.18 918.91,-206.86 954.7,-192.61"/>
<polygon fill="#63b8ff" stroke="#63b8ff" points="955.65,-196 963.63,-189.03 953.05,-189.5 955.65,-196"/>
</a>
</g>
</g>
<!-- Node17 -->
<g id="Node000017" class="node">
<title>Node17</title>
<g id="a_Node000017"><a xlink:href="../../d0/dad/SDL__blendmode_8h.html" target="_top" xlink:title=" ">
<polygon fill="white" stroke="#666666" points="694,-132 570,-132 570,-112 694,-112 694,-132"/>
<text xml:space="preserve" text-anchor="middle" x="632" y="-118.5" font-family="Helvetica,sans-Serif" font-size="10.00">SDL3/SDL_blendmode.h</text>
</a>
</g>
</g>
<!-- Node16&#45;&gt;Node17 -->
<g id="edge39_Node000016_Node000017" class="edge">
<title>Node16&#45;&gt;Node17</title>
<g id="a_edge39_Node000016_Node000017"><a xlink:title=" ">
<path fill="none" stroke="#63b8ff" d="M648.73,-280.8C670.65,-274.54 693.79,-263.49 707,-244 731.91,-207.27 684.97,-162.53 654.73,-139.1"/>
<polygon fill="#63b8ff" stroke="#63b8ff" points="656.92,-136.37 646.82,-133.18 652.73,-141.97 656.92,-136.37"/>
</a>
</g>
</g>
<!-- Node18 -->
<g id="Node000018" class="node">
<title>Node18</title>
<g id="a_Node000018"><a xlink:href="../../d8/d35/SDL__iostream_8h.html" target="_top" xlink:title=" ">
<polygon fill="white" stroke="#666666" points="698.12,-244 583.88,-244 583.88,-224 698.12,-224 698.12,-244"/>
<text xml:space="preserve" text-anchor="middle" x="641" y="-230.5" font-family="Helvetica,sans-Serif" font-size="10.00">SDL3/SDL_iostream.h</text>
</a>
</g>
</g>
<!-- Node16&#45;&gt;Node18 -->
<g id="edge46_Node000016_Node000018" class="edge">
<title>Node16&#45;&gt;Node18</title>
<g id="a_edge46_Node000016_Node000018"><a xlink:title=" ">
<path fill="none" stroke="#63b8ff" d="M602.19,-279.59C608.59,-272.24 617.68,-261.8 625.45,-252.87"/>
<polygon fill="#63b8ff" stroke="#63b8ff" points="627.99,-255.28 631.91,-245.44 622.71,-250.69 627.99,-255.28"/>
</a>
</g>
</g>
<!-- Node17&#45;&gt;Node2 -->
<g id="edge40_Node000017_Node000002" class="edge">
<title>Node17&#45;&gt;Node2</title>
<g id="a_edge40_Node000017_Node000002"><a xlink:title=" ">
<path fill="none" stroke="#63b8ff" d="M609.7,-111.59C589.64,-103.13 559.88,-90.58 537.05,-80.94"/>
<polygon fill="#63b8ff" stroke="#63b8ff" points="538.44,-77.73 527.86,-77.07 535.72,-84.18 538.44,-77.73"/>
</a>
</g>
</g>
<!-- Node17&#45;&gt;Node8 -->
<g id="edge41_Node000017_Node000008" class="edge">
<title>Node17&#45;&gt;Node8</title>
<g id="a_edge41_Node000017_Node000008"><a xlink:title=" ">
<path fill="none" stroke="#63b8ff" d="M585.38,-111.51C546.87,-103.29 490.96,-90.46 443,-76 392.24,-60.69 334.85,-38.74 299.55,-24.67"/>
<polygon fill="#63b8ff" stroke="#63b8ff" points="300.89,-21.44 290.3,-20.96 298.28,-27.93 300.89,-21.44"/>
</a>
</g>
</g>
<!-- Node17&#45;&gt;Node9 -->
<g id="edge42_Node000017_Node000009" class="edge">
<title>Node17&#45;&gt;Node9</title>
<g id="a_edge42_Node000017_Node000009"><a xlink:title=" ">
<path fill="none" stroke="#63b8ff" d="M640.38,-111.55C653.44,-97.39 680.06,-70.76 708,-56 737.63,-40.34 773.18,-29.77 803.76,-22.82"/>
<polygon fill="#63b8ff" stroke="#63b8ff" points="804.28,-26.29 813.31,-20.75 802.79,-19.45 804.28,-26.29"/>
</a>
</g>
</g>
<!-- Node18&#45;&gt;Node2 -->
<g id="edge47_Node000018_Node000002" class="edge">
<title>Node18&#45;&gt;Node2</title>
<g id="a_edge47_Node000018_Node000002"><a xlink:title=" ">
<path fill="none" stroke="#63b8ff" d="M640.59,-223.63C639.55,-210.04 635.88,-184.68 623,-168 603.53,-142.78 585.61,-152.24 561,-132 544.21,-118.19 528.17,-99.2 517.41,-85.31"/>
<polygon fill="#63b8ff" stroke="#63b8ff" points="520.3,-83.33 511.48,-77.45 514.71,-87.54 520.3,-83.33"/>
</a>
</g>
</g>
<!-- Node18&#45;&gt;Node8 -->
<g id="edge50_Node000018_Node000008" class="edge">
<title>Node18&#45;&gt;Node8</title>
<g id="a_edge50_Node000018_Node000008"><a xlink:title=" ">
<path fill="none" stroke="#63b8ff" d="M583.65,-231.99C519.31,-229.24 412.73,-219.74 327,-188 283.52,-171.91 261.67,-172.44 239,-132 222.48,-102.53 228.72,-88.48 238,-56 240.71,-46.53 246.05,-37.11 251.35,-29.35"/>
<polygon fill="#63b8ff" stroke="#63b8ff" points="254.04,-31.59 257.16,-21.47 248.41,-27.44 254.04,-31.59"/>
</a>
</g>
</g>
<!-- Node18&#45;&gt;Node9 -->
<g id="edge51_Node000018_Node000009" class="edge">
<title>Node18&#45;&gt;Node9</title>
<g id="a_edge51_Node000018_Node000009"><a xlink:title=" ">
<path fill="none" stroke="#63b8ff" d="M698.46,-228.05C758.45,-219.47 849.69,-196.02 893,-132 913.86,-101.16 897.3,-55.91 884.75,-30.38"/>
<polygon fill="#63b8ff" stroke="#63b8ff" points="888,-29.04 880.27,-21.8 881.79,-32.28 888,-29.04"/>
</a>
</g>
</g>
<!-- Node18&#45;&gt;Node10 -->
<g id="edge48_Node000018_Node000010" class="edge">
<title>Node18&#45;&gt;Node10</title>
<g id="a_edge48_Node000018_Node000010"><a xlink:title=" ">
<path fill="none" stroke="#63b8ff" d="M647.69,-223.68C658.19,-209.7 679.84,-183.31 704,-168 727.32,-153.22 756.06,-142.68 780.76,-135.53"/>
<polygon fill="#63b8ff" stroke="#63b8ff" points="781.62,-138.93 790.33,-132.89 779.76,-132.18 781.62,-138.93"/>
</a>
</g>
</g>
<!-- Node18&#45;&gt;Node11 -->
<g id="edge49_Node000018_Node000011" class="edge">
<title>Node18&#45;&gt;Node11</title>
<g id="a_edge49_Node000018_Node000011"><a xlink:title=" ">
<path fill="none" stroke="#63b8ff" d="M625.85,-223.59C612.95,-215.59 594.17,-203.93 579.04,-194.54"/>
<polygon fill="#63b8ff" stroke="#63b8ff" points="580.9,-191.58 570.56,-189.28 577.21,-197.53 580.9,-191.58"/>
</a>
</g>
</g>
</g>
</svg>

<g id="navigator" transform="translate(0 0)" fill="#404254">
  <rect fill="#f2f5e9" fill-opacity="0.5" stroke="#606060" stroke-width=".5" x="0" y="0" width="60" height="60"/>
  <use id="zoomplus" xlink:href="#zoomPlus" x="17" y="9" onmousedown="handleZoom(evt,'in')"/>
  <use id="zoomminus" xlink:href="#zoomMin" x="42" y="9" onmousedown="handleZoom(evt,'out')"/>
  <use id="reset" xlink:href="#resetDef" x="30" y="36" onmousedown="handleReset()"/>
   <use id="arrowup" xlink:href="#arrowUp" x="0" y="0" onmousedown="handlePan(0,-1)"/>
  <use id="arrowright" xlink:href="#arrowRight" x="0" y="0" onmousedown="handlePan(1,0)"/>
  <use id="arrowdown" xlink:href="#arrowDown" x="0" y="0" onmousedown="handlePan(0,1)"/>
  <use id="arrowleft" xlink:href="#arrowLeft" x="0" y="0" onmousedown="handlePan(-1,0)"/>
</g>
<svg viewBox="0 0 15 15" width="100%" height="30px" preserveAspectRatio="xMaxYMin meet">
 <g id="arrow_out" transform="scale(0.3 0.3)">
  <a xlink:href="include_2SDL3_2SDL__dialog_8h__incl_org.svg" target="_base">
   <rect id="button" ry="5" rx="5" y="6" x="6" height="38" width="38"
        fill="#f2f5e9" fill-opacity="0.5" stroke="#606060" stroke-width="1.0"/>
   <path id="arrow"
     d="M 11.500037,31.436501 C 11.940474,20.09759 22.043105,11.32322 32.158766,21.979434 L 37.068811,17.246167 C 37.068811,17.246167 37.088388,32 37.088388,32 L 22.160133,31.978069 C 22.160133,31.978069 26.997745,27.140456 26.997745,27.140456 C 18.528582,18.264221 13.291696,25.230495 11.500037,31.436501 z"
     style="fill:#404040;"/>
  </a>
 </g>
</svg>

<style type='text/css'>
<![CDATA[
[data-mouse-over-selected='false'] { opacity: 0.7; }
[data-mouse-over-selected='true']  { opacity: 1.0; }
]]>
</style>
<script type="application/ecmascript"><![CDATA[
document.addEventListener('DOMContentLoaded', (event) => {
  highlightEdges();
  highlightAdjacentNodes();
});
]]></script>
</svg>
