<?xml version="1.0" encoding="UTF-8" standalone="no"?>
<!DOCTYPE svg PUBLIC "-//W3C//DTD SVG 1.1//EN"
 "http://www.w3.org/Graphics/SVG/1.1/DTD/svg11.dtd">
<!-- Generated by graphviz version 13.1.0 (20250701.0955)
 -->
<!-- Title: SDL_Mutex Pages: 1 -->
<svg width="208pt" height="102pt"
 viewBox="0.00 0.00 208.00 102.00" xmlns="http://www.w3.org/2000/svg" xmlns:xlink="http://www.w3.org/1999/xlink">

<svg id="main" version="1.1" xmlns="http://www.w3.org/2000/svg" xmlns:xlink="http://www.w3.org/1999/xlink" xml:space="preserve">

<style type="text/css"><![CDATA[
.node, .edge {opacity: 0.7;}
.node.selected, .edge.selected {opacity: 1;}
.edge:hover path { stroke: red; }
.edge:hover polygon { stroke: red; fill: red; }
]]></style>
<script type="application/ecmascript" xlink:href="../../svg.min.js"/>
<svg id="graph" class="graph">
<g id="graph0" class="graph" transform="scale(1 1) rotate(0) translate(4 98)">
<title>SDL_Mutex</title>
<!-- Node1 -->
<g id="Node000001" class="node">
<title>Node1</title>
<g id="a_Node000001"><a xlink:title=" ">
<polygon fill="#999999" stroke="#666666" points="67.75,-94 0,-94 0,-74 67.75,-74 67.75,-94"/>
<text xml:space="preserve" text-anchor="middle" x="33.88" y="-80.5" font-family="Helvetica,sans-Serif" font-size="10.00">SDL_Mutex</text>
</a>
</g>
</g>
<!-- Node2 -->
<g id="Node000002" class="node">
<title>Node2</title>
<g id="a_Node000002"><a xlink:href="../../d8/d0b/structSDL__Semaphore.html" target="_top" xlink:title=" ">
<polygon fill="white" stroke="#666666" points="139,-20 48.75,-20 48.75,0 139,0 139,-20"/>
<text xml:space="preserve" text-anchor="middle" x="93.88" y="-6.5" font-family="Helvetica,sans-Serif" font-size="10.00">SDL_Semaphore</text>
</a>
</g>
</g>
<!-- Node1&#45;&gt;Node2 -->
<g id="edge2_Node000002_Node000001" class="edge">
<title>Node1&#45;&gt;Node2</title>
<g id="a_edge2_Node000002_Node000001"><a xlink:title=" ">
<path fill="none" stroke="#9a32cd" stroke-dasharray="5,2" d="M17.81,-64.63C12.33,-56.08 8.87,-46.05 14.62,-38 22.58,-26.89 35.37,-20.3 48.39,-16.4"/>
<polygon fill="#9a32cd" stroke="#9a32cd" points="15.01,-66.72 23.84,-72.58 20.58,-62.49 15.01,-66.72"/>
</a>
</g>
<text xml:space="preserve" text-anchor="start" x="17.62" y="-43.5" font-family="Helvetica,sans-Serif" font-size="10.00" fill="grey">count_lock</text>
</g>
<!-- Node2&#45;&gt;Node1 -->
<g id="edge1_Node000001_Node000002" class="edge">
<title>Node2&#45;&gt;Node1</title>
<g id="a_edge1_Node000001_Node000002"><a xlink:title=" ">
<path fill="none" stroke="#9a32cd" stroke-dasharray="5,2" d="M86.62,-31.07C83.01,-39.36 78.07,-48.7 71.88,-56 66.01,-62.91 58,-68.94 50.85,-73.54"/>
<polygon fill="#9a32cd" stroke="#9a32cd" points="89.86,-32.4 90.29,-21.81 83.35,-29.82 89.86,-32.4"/>
</a>
</g>
<text xml:space="preserve" text-anchor="start" x="85.98" y="-43.5" font-family="Helvetica,sans-Serif" font-size="10.00" fill="grey">sem</text>
</g>
<!-- Node3 -->
<g id="Node000003" class="node">
<title>Node3</title>
<g id="a_Node000003"><a xlink:href="../../d0/d07/structSDL__Condition.html" target="_top" xlink:title=" ">
<polygon fill="white" stroke="#666666" points="182.88,-94 100.88,-94 100.88,-74 182.88,-74 182.88,-94"/>
<text xml:space="preserve" text-anchor="middle" x="141.88" y="-80.5" font-family="Helvetica,sans-Serif" font-size="10.00">SDL_Condition</text>
</a>
</g>
</g>
<!-- Node3&#45;&gt;Node2 -->
<g id="edge3_Node000002_Node000003" class="edge">
<title>Node3&#45;&gt;Node2</title>
<g id="a_edge3_Node000002_Node000003"><a xlink:title=" ">
<path fill="none" stroke="#9a32cd" stroke-dasharray="5,2" d="M133.79,-63.15C130.08,-55.03 125.3,-45.75 119.88,-38 115.4,-31.6 109.4,-25.27 104.3,-20.35"/>
<polygon fill="#9a32cd" stroke="#9a32cd" points="130.51,-64.38 137.68,-72.18 136.94,-61.61 130.51,-64.38"/>
</a>
</g>
<text xml:space="preserve" text-anchor="start" x="133.26" y="-43.5" font-family="Helvetica,sans-Serif" font-size="10.00" fill="grey">count_nonzero</text>
</g>
</g>
</svg>
</svg>

<style type='text/css'>
<![CDATA[
[data-mouse-over-selected='false'] { opacity: 0.7; }
[data-mouse-over-selected='true']  { opacity: 1.0; }
]]>
</style>
<script type="application/ecmascript"><![CDATA[
document.addEventListener('DOMContentLoaded', (event) => {
  highlightEdges();
  highlightAdjacentNodes();
});
]]></script>
</svg>
