<?xml version="1.0" encoding="UTF-8" standalone="no"?>
<!DOCTYPE svg PUBLIC "-//W3C//DTD SVG 1.1//EN"
 "http://www.w3.org/Graphics/SVG/1.1/DTD/svg11.dtd">
<!-- Generated by graphviz version 13.1.0 (20250701.0955)
 -->
<!-- Title: register_device_error Pages: 1 -->
<svg width="516pt" height="804pt"
 viewBox="0.00 0.00 516.00 804.00" xmlns="http://www.w3.org/2000/svg" xmlns:xlink="http://www.w3.org/1999/xlink">
<g id="graph0" class="graph" transform="scale(1 1) rotate(0) translate(4 800)">
<title>register_device_error</title>
<!-- Node1 -->
<g id="Node000001" class="node">
<title>Node1</title>
<g id="a_Node000001"><a xlink:title=" ">
<polygon fill="#999999" stroke="#666666" points="507.75,-425 401,-425 401,-405 507.75,-405 507.75,-425"/>
<text xml:space="preserve" text-anchor="middle" x="454.38" y="-411.5" font-family="Helvetica,sans-Serif" font-size="10.00">register_device_error</text>
</a>
</g>
</g>
<!-- Node2 -->
<g id="Node000002" class="node">
<title>Node2</title>
<g id="a_Node000002"><a xlink:href="../../da/db5/linux_2hid_8c.html#ae0f14fec0426b39ac8838c5f225b9ecc" target="_top" xlink:title=" ">
<polygon fill="white" stroke="#666666" points="329.75,-796 232,-796 232,-764 329.75,-764 329.75,-796"/>
<text xml:space="preserve" text-anchor="start" x="240" y="-782.5" font-family="Helvetica,sans-Serif" font-size="10.00">create_device_info</text>
<text xml:space="preserve" text-anchor="middle" x="280.88" y="-770.5" font-family="Helvetica,sans-Serif" font-size="10.00">_for_hid_device</text>
</a>
</g>
</g>
<!-- Node1&#45;&gt;Node2 -->
<g id="edge1_Node000001_Node000002" class="edge">
<title>Node1&#45;&gt;Node2</title>
<g id="a_edge1_Node000001_Node000002"><a xlink:title=" ">
<path fill="none" stroke="#63b8ff" d="M450.58,-436.35C441.39,-503.42 410.11,-708.15 365,-755 355.7,-764.66 342.82,-770.63 329.97,-774.3"/>
<polygon fill="#63b8ff" stroke="#63b8ff" points="454.02,-437.06 451.88,-426.68 447.08,-436.13 454.02,-437.06"/>
</a>
</g>
</g>
<!-- Node4 -->
<g id="Node000004" class="node">
<title>Node4</title>
<g id="a_Node000004"><a xlink:href="../../d1/de6/mac_2hid_8c.html#a6192ab1b153e18e1081bcb2728abf974" target="_top" xlink:title=" ">
<polygon fill="white" stroke="#666666" points="310.62,-746 251.12,-746 251.12,-726 310.62,-726 310.62,-746"/>
<text xml:space="preserve" text-anchor="middle" x="280.88" y="-732.5" font-family="Helvetica,sans-Serif" font-size="10.00">get_report</text>
</a>
</g>
</g>
<!-- Node1&#45;&gt;Node4 -->
<g id="edge3_Node000001_Node000004" class="edge">
<title>Node1&#45;&gt;Node4</title>
<g id="a_edge3_Node000001_Node000004"><a xlink:title=" ">
<path fill="none" stroke="#63b8ff" d="M453.96,-436.64C454.19,-492.04 446.72,-640.04 365,-717 350.67,-730.5 328.79,-735.1 311.08,-736.4"/>
<polygon fill="#63b8ff" stroke="#63b8ff" points="457.46,-436.92 453.81,-426.97 450.46,-437.02 457.46,-436.92"/>
</a>
</g>
</g>
<!-- Node7 -->
<g id="Node000007" class="node">
<title>Node7</title>
<g id="a_Node000007"><a xlink:href="../../d6/d93/netbsd_2hid_8c.html#a02f8c3d95947a2c27c118d0130a98c9f" target="_top" xlink:title=" ">
<polygon fill="white" stroke="#666666" points="310.62,-708 251.12,-708 251.12,-688 310.62,-688 310.62,-708"/>
<text xml:space="preserve" text-anchor="middle" x="280.88" y="-694.5" font-family="Helvetica,sans-Serif" font-size="10.00">get_report</text>
</a>
</g>
</g>
<!-- Node1&#45;&gt;Node7 -->
<g id="edge6_Node000001_Node000007" class="edge">
<title>Node1&#45;&gt;Node7</title>
<g id="a_edge6_Node000001_Node000007"><a xlink:title=" ">
<path fill="none" stroke="#63b8ff" d="M452.88,-436.94C450.47,-487.64 437.15,-613.61 365,-679 350.41,-692.22 328.54,-696.83 310.9,-698.21"/>
<polygon fill="#63b8ff" stroke="#63b8ff" points="456.37,-437.13 453.23,-427.01 449.38,-436.88 456.37,-437.13"/>
</a>
</g>
</g>
<!-- Node8 -->
<g id="Node000008" class="node">
<title>Node8</title>
<g id="a_Node000008"><a xlink:href="../../dc/d19/group__API.html#ga107c938f448ffb1a1f866790f43947a9" target="_top" xlink:title="Get the location ID for a HID device.">
<polygon fill="white" stroke="#666666" points="347.38,-670 214.38,-670 214.38,-650 347.38,-650 347.38,-670"/>
<text xml:space="preserve" text-anchor="middle" x="280.88" y="-656.5" font-family="Helvetica,sans-Serif" font-size="10.00">hid_darwin_get_location_id</text>
</a>
</g>
</g>
<!-- Node1&#45;&gt;Node8 -->
<g id="edge7_Node000001_Node000008" class="edge">
<title>Node1&#45;&gt;Node8</title>
<g id="a_edge7_Node000001_Node000008"><a xlink:title=" ">
<path fill="none" stroke="#63b8ff" d="M451.48,-436.83C446.31,-482.18 427.87,-586.81 365,-641 359.84,-645.45 353.85,-648.91 347.5,-651.59"/>
<polygon fill="#63b8ff" stroke="#63b8ff" points="454.95,-437.28 452.47,-426.98 447.98,-436.58 454.95,-437.28"/>
</a>
</g>
</g>
<!-- Node9 -->
<g id="Node000009" class="node">
<title>Node9</title>
<g id="a_Node000009"><a xlink:href="../../da/db5/linux_2hid_8c.html#a9593b490d488dcb8017ceabebccc77bf" target="_top" xlink:title=" ">
<polygon fill="white" stroke="#666666" points="338.75,-632 223,-632 223,-612 338.75,-612 338.75,-632"/>
<text xml:space="preserve" text-anchor="middle" x="280.88" y="-618.5" font-family="Helvetica,sans-Serif" font-size="10.00">PLATFORM_hid_close</text>
</a>
</g>
</g>
<!-- Node1&#45;&gt;Node9 -->
<g id="edge8_Node000001_Node000009" class="edge">
<title>Node1&#45;&gt;Node9</title>
<g id="a_edge8_Node000001_Node000009"><a xlink:title=" ">
<path fill="none" stroke="#63b8ff" d="M449.7,-436.11C441.72,-475.36 418.98,-559.52 365,-603 357.51,-609.04 348.46,-613.23 339.13,-616.13"/>
<polygon fill="#63b8ff" stroke="#63b8ff" points="453.09,-437.02 451.51,-426.54 446.22,-435.71 453.09,-437.02"/>
</a>
</g>
</g>
<!-- Node10 -->
<g id="Node000010" class="node">
<title>Node10</title>
<g id="a_Node000010"><a xlink:href="../../d1/de6/mac_2hid_8c.html#a0fb3a037bb3d94c05c7f670e66a14ed8" target="_top" xlink:title=" ">
<polygon fill="white" stroke="#666666" points="361.25,-594 200.5,-594 200.5,-574 361.25,-574 361.25,-594"/>
<text xml:space="preserve" text-anchor="middle" x="280.88" y="-580.5" font-family="Helvetica,sans-Serif" font-size="10.00">PLATFORM_hid_get_device_info</text>
</a>
</g>
</g>
<!-- Node1&#45;&gt;Node10 -->
<g id="edge9_Node000001_Node000010" class="edge">
<title>Node1&#45;&gt;Node10</title>
<g id="a_edge9_Node000001_Node000010"><a xlink:title=" ">
<path fill="none" stroke="#63b8ff" d="M447.05,-435.94C436.01,-468.79 409.98,-532.1 365,-565 360.34,-568.41 355.17,-571.22 349.76,-573.54"/>
<polygon fill="#63b8ff" stroke="#63b8ff" points="450.27,-437.36 449.99,-426.76 443.61,-435.22 450.27,-437.36"/>
</a>
</g>
</g>
<!-- Node11 -->
<g id="Node000011" class="node">
<title>Node11</title>
<g id="a_Node000011"><a xlink:href="../../da/db5/linux_2hid_8c.html#a214edbfd9fd6edc9a231ce03eab641e4" target="_top" xlink:title=" ">
<polygon fill="white" stroke="#666666" points="351.5,-556 210.25,-556 210.25,-524 351.5,-524 351.5,-556"/>
<text xml:space="preserve" text-anchor="start" x="218.25" y="-542.5" font-family="Helvetica,sans-Serif" font-size="10.00">PLATFORM_hid_get_feature</text>
<text xml:space="preserve" text-anchor="middle" x="280.88" y="-530.5" font-family="Helvetica,sans-Serif" font-size="10.00">_report</text>
</a>
</g>
</g>
<!-- Node1&#45;&gt;Node11 -->
<g id="edge10_Node000001_Node000011" class="edge">
<title>Node1&#45;&gt;Node11</title>
<g id="a_edge10_Node000001_Node000011"><a xlink:title=" ">
<path fill="none" stroke="#63b8ff" d="M440.7,-435.1C425.42,-457.73 397.68,-494.07 365,-515 359.92,-518.25 354.4,-521.1 348.7,-523.58"/>
<polygon fill="#63b8ff" stroke="#63b8ff" points="443.61,-437.04 446.17,-426.76 437.76,-433.2 443.61,-437.04"/>
</a>
</g>
</g>
<!-- Node12 -->
<g id="Node000012" class="node">
<title>Node12</title>
<g id="a_Node000012"><a xlink:href="../../da/db5/linux_2hid_8c.html#a4de3591f7fd5459a1616ba2a9e79792f" target="_top" xlink:title=" ">
<polygon fill="white" stroke="#666666" points="353.38,-506 208.38,-506 208.38,-474 353.38,-474 353.38,-506"/>
<text xml:space="preserve" text-anchor="start" x="216.38" y="-492.5" font-family="Helvetica,sans-Serif" font-size="10.00">PLATFORM_hid_get_indexed</text>
<text xml:space="preserve" text-anchor="middle" x="280.88" y="-480.5" font-family="Helvetica,sans-Serif" font-size="10.00">_string</text>
</a>
</g>
</g>
<!-- Node1&#45;&gt;Node12 -->
<g id="edge11_Node000001_Node000012" class="edge">
<title>Node1&#45;&gt;Node12</title>
<g id="a_edge11_Node000001_Node000012"><a xlink:title=" ">
<path fill="none" stroke="#63b8ff" d="M428.27,-431.2C410.99,-441.85 387.23,-455.51 365,-465 357.79,-468.08 350.08,-470.94 342.37,-473.54"/>
<polygon fill="#63b8ff" stroke="#63b8ff" points="429.74,-434.41 436.36,-426.14 426.02,-428.48 429.74,-434.41"/>
</a>
</g>
</g>
<!-- Node13 -->
<g id="Node000013" class="node">
<title>Node13</title>
<g id="a_Node000013"><a xlink:href="../../da/db5/linux_2hid_8c.html#a2dd51137c32af401819bf95876b2474f" target="_top" xlink:title=" ">
<polygon fill="white" stroke="#666666" points="347,-456 214.75,-456 214.75,-424 347,-424 347,-456"/>
<text xml:space="preserve" text-anchor="start" x="222.75" y="-442.5" font-family="Helvetica,sans-Serif" font-size="10.00">PLATFORM_hid_get_input</text>
<text xml:space="preserve" text-anchor="middle" x="280.88" y="-430.5" font-family="Helvetica,sans-Serif" font-size="10.00">_report</text>
</a>
</g>
</g>
<!-- Node1&#45;&gt;Node13 -->
<g id="edge12_Node000001_Node000013" class="edge">
<title>Node1&#45;&gt;Node13</title>
<g id="a_edge12_Node000001_Node000013"><a xlink:title=" ">
<path fill="none" stroke="#63b8ff" d="M389.22,-424.35C375.51,-426.35 361.02,-428.46 347.26,-430.47"/>
<polygon fill="#63b8ff" stroke="#63b8ff" points="389.63,-427.83 399.02,-422.92 388.62,-420.9 389.63,-427.83"/>
</a>
</g>
</g>
<!-- Node14 -->
<g id="Node000014" class="node">
<title>Node14</title>
<g id="a_Node000014"><a xlink:href="../../da/db5/linux_2hid_8c.html#a988ef58416e1e07bb69bbbe541491750" target="_top" xlink:title=" ">
<polygon fill="white" stroke="#666666" points="365,-406 196.75,-406 196.75,-374 365,-374 365,-406"/>
<text xml:space="preserve" text-anchor="start" x="204.75" y="-392.5" font-family="Helvetica,sans-Serif" font-size="10.00">PLATFORM_hid_get_manufacturer</text>
<text xml:space="preserve" text-anchor="middle" x="280.88" y="-380.5" font-family="Helvetica,sans-Serif" font-size="10.00">_string</text>
</a>
</g>
</g>
<!-- Node1&#45;&gt;Node14 -->
<g id="edge13_Node000001_Node000014" class="edge">
<title>Node1&#45;&gt;Node14</title>
<g id="a_edge13_Node000001_Node000014"><a xlink:title=" ">
<path fill="none" stroke="#63b8ff" d="M389.32,-405.66C381.54,-404.53 373.49,-403.36 365.47,-402.19"/>
<polygon fill="#63b8ff" stroke="#63b8ff" points="388.62,-409.1 399.02,-407.08 389.63,-402.17 388.62,-409.1"/>
</a>
</g>
</g>
<!-- Node15 -->
<g id="Node000015" class="node">
<title>Node15</title>
<g id="a_Node000015"><a xlink:href="../../da/db5/linux_2hid_8c.html#a2c3436d240bac486305eeefdfcdbe9ec" target="_top" xlink:title=" ">
<polygon fill="white" stroke="#666666" points="352.62,-356 209.12,-356 209.12,-324 352.62,-324 352.62,-356"/>
<text xml:space="preserve" text-anchor="start" x="217.12" y="-342.5" font-family="Helvetica,sans-Serif" font-size="10.00">PLATFORM_hid_get_product</text>
<text xml:space="preserve" text-anchor="middle" x="280.88" y="-330.5" font-family="Helvetica,sans-Serif" font-size="10.00">_string</text>
</a>
</g>
</g>
<!-- Node1&#45;&gt;Node15 -->
<g id="edge14_Node000001_Node000015" class="edge">
<title>Node1&#45;&gt;Node15</title>
<g id="a_edge14_Node000001_Node000015"><a xlink:title=" ">
<path fill="none" stroke="#63b8ff" d="M428.27,-398.8C410.99,-388.15 387.23,-374.49 365,-365 357.79,-361.92 350.08,-359.06 342.37,-356.46"/>
<polygon fill="#63b8ff" stroke="#63b8ff" points="426.02,-401.52 436.36,-403.86 429.74,-395.59 426.02,-401.52"/>
</a>
</g>
</g>
<!-- Node16 -->
<g id="Node000016" class="node">
<title>Node16</title>
<g id="a_Node000016"><a xlink:href="../../d1/de6/mac_2hid_8c.html#a72e30a957ccb852083bf163f3b08631e" target="_top" xlink:title=" ">
<polygon fill="white" stroke="#666666" points="348.88,-306 212.88,-306 212.88,-274 348.88,-274 348.88,-306"/>
<text xml:space="preserve" text-anchor="start" x="220.88" y="-292.5" font-family="Helvetica,sans-Serif" font-size="10.00">PLATFORM_hid_get_report</text>
<text xml:space="preserve" text-anchor="middle" x="280.88" y="-280.5" font-family="Helvetica,sans-Serif" font-size="10.00">_descriptor</text>
</a>
</g>
</g>
<!-- Node1&#45;&gt;Node16 -->
<g id="edge15_Node000001_Node000016" class="edge">
<title>Node1&#45;&gt;Node16</title>
<g id="a_edge15_Node000001_Node000016"><a xlink:title=" ">
<path fill="none" stroke="#63b8ff" d="M440.7,-394.9C425.42,-372.27 397.68,-335.93 365,-315 359.92,-311.75 354.4,-308.9 348.7,-306.42"/>
<polygon fill="#63b8ff" stroke="#63b8ff" points="437.76,-396.8 446.17,-403.24 443.61,-392.96 437.76,-396.8"/>
</a>
</g>
</g>
<!-- Node17 -->
<g id="Node000017" class="node">
<title>Node17</title>
<g id="a_Node000017"><a xlink:href="../../da/db5/linux_2hid_8c.html#a232ba88adb5becca6382af2db253d444" target="_top" xlink:title=" ">
<polygon fill="white" stroke="#666666" points="348.12,-256 213.62,-256 213.62,-224 348.12,-224 348.12,-256"/>
<text xml:space="preserve" text-anchor="start" x="221.62" y="-242.5" font-family="Helvetica,sans-Serif" font-size="10.00">PLATFORM_hid_get_serial</text>
<text xml:space="preserve" text-anchor="middle" x="280.88" y="-230.5" font-family="Helvetica,sans-Serif" font-size="10.00">_number_string</text>
</a>
</g>
</g>
<!-- Node1&#45;&gt;Node17 -->
<g id="edge16_Node000001_Node000017" class="edge">
<title>Node1&#45;&gt;Node17</title>
<g id="a_edge16_Node000001_Node000017"><a xlink:title=" ">
<path fill="none" stroke="#63b8ff" d="M446.63,-393.99C435.14,-361.5 408.65,-299.25 365,-265 360.02,-261.09 354.44,-257.8 348.58,-255.01"/>
<polygon fill="#63b8ff" stroke="#63b8ff" points="443.31,-395.08 449.83,-403.43 449.94,-392.83 443.31,-395.08"/>
</a>
</g>
</g>
<!-- Node18 -->
<g id="Node000018" class="node">
<title>Node18</title>
<g id="a_Node000018"><a xlink:href="../../da/db5/linux_2hid_8c.html#a2a73a1b3bac9b258d879868e8e71abfa" target="_top" xlink:title=" ">
<polygon fill="white" stroke="#666666" points="355.25,-206 206.5,-206 206.5,-186 355.25,-186 355.25,-206"/>
<text xml:space="preserve" text-anchor="middle" x="280.88" y="-192.5" font-family="Helvetica,sans-Serif" font-size="10.00">PLATFORM_hid_read_timeout</text>
</a>
</g>
</g>
<!-- Node1&#45;&gt;Node18 -->
<g id="edge17_Node000001_Node000018" class="edge">
<title>Node1&#45;&gt;Node18</title>
<g id="a_edge17_Node000001_Node000018"><a xlink:title=" ">
<path fill="none" stroke="#63b8ff" d="M450.28,-393.43C443.16,-352.11 421.67,-261.75 365,-215 360.89,-211.61 356.29,-208.8 351.42,-206.47"/>
<polygon fill="#63b8ff" stroke="#63b8ff" points="446.82,-393.97 451.84,-403.3 453.73,-392.87 446.82,-393.97"/>
</a>
</g>
</g>
<!-- Node19 -->
<g id="Node000019" class="node">
<title>Node19</title>
<g id="a_Node000019"><a xlink:href="../../da/db5/linux_2hid_8c.html#abc78b1d9628df5f9a17136cae60f37a6" target="_top" xlink:title=" ">
<polygon fill="white" stroke="#666666" points="355.25,-168 206.5,-168 206.5,-136 355.25,-136 355.25,-168"/>
<text xml:space="preserve" text-anchor="start" x="214.5" y="-154.5" font-family="Helvetica,sans-Serif" font-size="10.00">PLATFORM_hid_send_feature</text>
<text xml:space="preserve" text-anchor="middle" x="280.88" y="-142.5" font-family="Helvetica,sans-Serif" font-size="10.00">_report</text>
</a>
</g>
</g>
<!-- Node1&#45;&gt;Node19 -->
<g id="edge18_Node000001_Node000019" class="edge">
<title>Node1&#45;&gt;Node19</title>
<g id="a_edge18_Node000001_Node000019"><a xlink:title=" ">
<path fill="none" stroke="#63b8ff" d="M451.65,-393.33C446.76,-346.82 428.75,-236.83 365,-177 361.48,-173.7 357.55,-170.83 353.35,-168.35"/>
<polygon fill="#63b8ff" stroke="#63b8ff" points="448.15,-393.53 452.56,-403.16 455.12,-392.88 448.15,-393.53"/>
</a>
</g>
</g>
<!-- Node20 -->
<g id="Node000020" class="node">
<title>Node20</title>
<g id="a_Node000020"><a xlink:href="../../da/db5/linux_2hid_8c.html#a65448f0b1dfdbaac7e9262bb784ca6b8" target="_top" xlink:title=" ">
<polygon fill="white" stroke="#666666" points="337.62,-118 224.12,-118 224.12,-98 337.62,-98 337.62,-118"/>
<text xml:space="preserve" text-anchor="middle" x="280.88" y="-104.5" font-family="Helvetica,sans-Serif" font-size="10.00">PLATFORM_hid_write</text>
</a>
</g>
</g>
<!-- Node1&#45;&gt;Node20 -->
<g id="edge19_Node000001_Node000020" class="edge">
<title>Node1&#45;&gt;Node20</title>
<g id="a_edge19_Node000001_Node000020"><a xlink:title=" ">
<path fill="none" stroke="#63b8ff" d="M453.59,-393.3C452.88,-339.62 443.21,-199.7 365,-127 357.41,-119.94 347.76,-115.33 337.73,-112.34"/>
<polygon fill="#63b8ff" stroke="#63b8ff" points="450.09,-393.23 453.61,-403.22 457.09,-393.21 450.09,-393.23"/>
</a>
</g>
</g>
<!-- Node21 -->
<g id="Node000021" class="node">
<title>Node21</title>
<g id="a_Node000021"><a xlink:href="../../d6/d93/netbsd_2hid_8c.html#a2d2d769e83948e4de1ac82f9a0c6b09b" target="_top" xlink:title=" ">
<polygon fill="white" stroke="#666666" points="310.62,-80 251.12,-80 251.12,-60 310.62,-60 310.62,-80"/>
<text xml:space="preserve" text-anchor="middle" x="280.88" y="-66.5" font-family="Helvetica,sans-Serif" font-size="10.00">set_report</text>
</a>
</g>
</g>
<!-- Node1&#45;&gt;Node21 -->
<g id="edge20_Node000001_Node000021" class="edge">
<title>Node1&#45;&gt;Node21</title>
<g id="a_edge20_Node000001_Node000021"><a xlink:title=" ">
<path fill="none" stroke="#63b8ff" d="M450.4,-393.12C440.98,-327.14 409.8,-132.04 365,-89 350.7,-75.26 328.59,-70.7 310.77,-69.47"/>
<polygon fill="#63b8ff" stroke="#63b8ff" points="446.93,-393.59 451.78,-403.01 453.86,-392.62 446.93,-393.59"/>
</a>
</g>
</g>
<!-- Node22 -->
<g id="Node000022" class="node">
<title>Node22</title>
<g id="a_Node000022"><a xlink:href="../../d1/de6/mac_2hid_8c.html#af6183327f4a71e0c4783424a8cd8297c" target="_top" xlink:title=" ">
<polygon fill="white" stroke="#666666" points="310.62,-42 251.12,-42 251.12,-22 310.62,-22 310.62,-42"/>
<text xml:space="preserve" text-anchor="middle" x="280.88" y="-28.5" font-family="Helvetica,sans-Serif" font-size="10.00">set_report</text>
</a>
</g>
</g>
<!-- Node1&#45;&gt;Node22 -->
<g id="edge21_Node000001_Node000022" class="edge">
<title>Node1&#45;&gt;Node22</title>
<g id="a_edge21_Node000001_Node000022"><a xlink:title=" ">
<path fill="none" stroke="#63b8ff" d="M451.09,-393.41C443.18,-322.72 414.68,-100.02 365,-51 350.88,-37.07 328.77,-32.52 310.9,-31.34"/>
<polygon fill="#63b8ff" stroke="#63b8ff" points="447.6,-393.69 452.16,-403.25 454.56,-392.93 447.6,-393.69"/>
</a>
</g>
</g>
<!-- Node3 -->
<g id="Node000003" class="node">
<title>Node3</title>
<g id="a_Node000003"><a xlink:href="../../da/db5/linux_2hid_8c.html#a0fb3a037bb3d94c05c7f670e66a14ed8" target="_top" xlink:title=" ">
<polygon fill="white" stroke="#666666" points="160.75,-790 0,-790 0,-770 160.75,-770 160.75,-790"/>
<text xml:space="preserve" text-anchor="middle" x="80.38" y="-776.5" font-family="Helvetica,sans-Serif" font-size="10.00">PLATFORM_hid_get_device_info</text>
</a>
</g>
</g>
<!-- Node2&#45;&gt;Node3 -->
<g id="edge2_Node000002_Node000003" class="edge">
<title>Node2&#45;&gt;Node3</title>
<g id="a_edge2_Node000002_Node000003"><a xlink:title=" ">
<path fill="none" stroke="#63b8ff" d="M220.27,-780C201.62,-780 180.73,-780 160.93,-780"/>
<polygon fill="#63b8ff" stroke="#63b8ff" points="220.06,-783.5 230.06,-780 220.06,-776.5 220.06,-783.5"/>
</a>
</g>
</g>
<!-- Node5 -->
<g id="Node000005" class="node">
<title>Node5</title>
<g id="a_Node000005"><a xlink:href="../../d1/de6/mac_2hid_8c.html#a214edbfd9fd6edc9a231ce03eab641e4" target="_top" xlink:title=" ">
<polygon fill="white" stroke="#666666" points="151,-752 9.75,-752 9.75,-720 151,-720 151,-752"/>
<text xml:space="preserve" text-anchor="start" x="17.75" y="-738.5" font-family="Helvetica,sans-Serif" font-size="10.00">PLATFORM_hid_get_feature</text>
<text xml:space="preserve" text-anchor="middle" x="80.38" y="-726.5" font-family="Helvetica,sans-Serif" font-size="10.00">_report</text>
</a>
</g>
</g>
<!-- Node4&#45;&gt;Node5 -->
<g id="edge4_Node000004_Node000005" class="edge">
<title>Node4&#45;&gt;Node5</title>
<g id="a_edge4_Node000004_Node000005"><a xlink:title=" ">
<path fill="none" stroke="#63b8ff" d="M239.64,-736C214.33,-736 180.99,-736 151.44,-736"/>
<polygon fill="#63b8ff" stroke="#63b8ff" points="239.5,-739.5 249.5,-736 239.5,-732.5 239.5,-739.5"/>
</a>
</g>
</g>
<!-- Node6 -->
<g id="Node000006" class="node">
<title>Node6</title>
<g id="a_Node000006"><a xlink:href="../../d1/de6/mac_2hid_8c.html#a2dd51137c32af401819bf95876b2474f" target="_top" xlink:title=" ">
<polygon fill="white" stroke="#666666" points="146.5,-702 14.25,-702 14.25,-670 146.5,-670 146.5,-702"/>
<text xml:space="preserve" text-anchor="start" x="22.25" y="-688.5" font-family="Helvetica,sans-Serif" font-size="10.00">PLATFORM_hid_get_input</text>
<text xml:space="preserve" text-anchor="middle" x="80.38" y="-676.5" font-family="Helvetica,sans-Serif" font-size="10.00">_report</text>
</a>
</g>
</g>
<!-- Node4&#45;&gt;Node6 -->
<g id="edge5_Node000004_Node000006" class="edge">
<title>Node4&#45;&gt;Node6</title>
<g id="a_edge5_Node000004_Node000006"><a xlink:title=" ">
<path fill="none" stroke="#63b8ff" d="M239.91,-727.19C226.2,-724.08 210.78,-720.49 196.75,-717 178.53,-712.47 158.78,-707.27 140.85,-702.44"/>
<polygon fill="#63b8ff" stroke="#63b8ff" points="238.96,-730.56 249.48,-729.34 240.49,-723.73 238.96,-730.56"/>
</a>
</g>
</g>
<!-- Node23 -->
<g id="Node000023" class="node">
<title>Node23</title>
<g id="a_Node000023"><a xlink:href="../../d1/de6/mac_2hid_8c.html#abc78b1d9628df5f9a17136cae60f37a6" target="_top" xlink:title=" ">
<polygon fill="white" stroke="#666666" points="154.75,-70 6,-70 6,-38 154.75,-38 154.75,-70"/>
<text xml:space="preserve" text-anchor="start" x="14" y="-56.5" font-family="Helvetica,sans-Serif" font-size="10.00">PLATFORM_hid_send_feature</text>
<text xml:space="preserve" text-anchor="middle" x="80.38" y="-44.5" font-family="Helvetica,sans-Serif" font-size="10.00">_report</text>
</a>
</g>
</g>
<!-- Node22&#45;&gt;Node23 -->
<g id="edge22_Node000022_Node000023" class="edge">
<title>Node22&#45;&gt;Node23</title>
<g id="a_edge22_Node000022_Node000023"><a xlink:title=" ">
<path fill="none" stroke="#63b8ff" d="M239.71,-36.45C215.36,-39.15 183.56,-42.68 154.85,-45.86"/>
<polygon fill="#63b8ff" stroke="#63b8ff" points="239.95,-39.95 249.51,-35.37 239.18,-32.99 239.95,-39.95"/>
</a>
</g>
</g>
<!-- Node24 -->
<g id="Node000024" class="node">
<title>Node24</title>
<g id="a_Node000024"><a xlink:href="../../d1/de6/mac_2hid_8c.html#a65448f0b1dfdbaac7e9262bb784ca6b8" target="_top" xlink:title=" ">
<polygon fill="white" stroke="#666666" points="137.12,-20 23.62,-20 23.62,0 137.12,0 137.12,-20"/>
<text xml:space="preserve" text-anchor="middle" x="80.38" y="-6.5" font-family="Helvetica,sans-Serif" font-size="10.00">PLATFORM_hid_write</text>
</a>
</g>
</g>
<!-- Node22&#45;&gt;Node24 -->
<g id="edge23_Node000022_Node000024" class="edge">
<title>Node22&#45;&gt;Node24</title>
<g id="a_edge23_Node000022_Node000024"><a xlink:title=" ">
<path fill="none" stroke="#63b8ff" d="M239.91,-27.57C210.46,-24.31 170.02,-19.82 137.36,-16.2"/>
<polygon fill="#63b8ff" stroke="#63b8ff" points="239.18,-31.01 249.51,-28.63 239.95,-24.05 239.18,-31.01"/>
</a>
</g>
</g>
</g>
</svg>
