<?xml version="1.0" encoding="UTF-8" standalone="no"?>
<!DOCTYPE svg PUBLIC "-//W3C//DTD SVG 1.1//EN"
 "http://www.w3.org/Graphics/SVG/1.1/DTD/svg11.dtd">
<!-- Generated by graphviz version 13.1.0 (20250701.0955)
 -->
<!-- Title: hid_iterate_over_collection Pages: 1 -->
<svg width="412pt" height="88pt"
 viewBox="0.00 0.00 412.00 88.00" xmlns="http://www.w3.org/2000/svg" xmlns:xlink="http://www.w3.org/1999/xlink">
<g id="graph0" class="graph" transform="scale(1 1) rotate(0) translate(4 84)">
<title>hid_iterate_over_collection</title>
<!-- Node1 -->
<g id="Node000001" class="node">
<title>Node1</title>
<g id="a_Node000001"><a xlink:title=" ">
<polygon fill="#999999" stroke="#666666" points="404.25,-39 272.75,-39 272.75,-19 404.25,-19 404.25,-39"/>
<text xml:space="preserve" text-anchor="middle" x="338.5" y="-25.5" font-family="Helvetica,sans-Serif" font-size="10.00">hid_iterate_over_collection</text>
</a>
</g>
</g>
<!-- Node2 -->
<g id="Node000002" class="node">
<title>Node2</title>
<g id="a_Node000002"><a xlink:href="../../da/db5/linux_2hid_8c.html#a19d4afe103caf103ad9da7c77aa8d7d3" target="_top" xlink:title=" ">
<polygon fill="white" stroke="#666666" points="236.75,-58 133.75,-58 133.75,-38 236.75,-38 236.75,-58"/>
<text xml:space="preserve" text-anchor="middle" x="185.25" y="-44.5" font-family="Helvetica,sans-Serif" font-size="10.00">get_next_hid_usage</text>
</a>
</g>
</g>
<!-- Node1&#45;&gt;Node2 -->
<g id="edge1_Node000001_Node000002" class="edge">
<title>Node1&#45;&gt;Node2</title>
<g id="a_edge1_Node000001_Node000002"><a xlink:title=" ">
<path fill="none" stroke="#63b8ff" d="M261.3,-38.57C253.08,-39.6 244.87,-40.64 237.06,-41.62"/>
<polygon fill="#63b8ff" stroke="#63b8ff" points="261.49,-42.08 270.98,-37.36 260.62,-35.13 261.49,-42.08"/>
</a>
</g>
</g>
<!-- Node5 -->
<g id="Node000005" class="node">
<title>Node5</title>
<g id="a_Node000005"><a xlink:href="../../d6/d93/netbsd_2hid_8c.html#a6f8e6c9d53c4d6edf4b870ca5ee69ade" target="_top" xlink:title=" ">
<polygon fill="white" stroke="#666666" points="236.75,-20 133.75,-20 133.75,0 236.75,0 236.75,-20"/>
<text xml:space="preserve" text-anchor="middle" x="185.25" y="-6.5" font-family="Helvetica,sans-Serif" font-size="10.00">get_next_hid_usage</text>
</a>
</g>
</g>
<!-- Node1&#45;&gt;Node5 -->
<g id="edge4_Node000001_Node000005" class="edge">
<title>Node1&#45;&gt;Node5</title>
<g id="a_edge4_Node000001_Node000005"><a xlink:title=" ">
<path fill="none" stroke="#63b8ff" d="M261.3,-19.43C253.08,-18.4 244.87,-17.36 237.06,-16.38"/>
<polygon fill="#63b8ff" stroke="#63b8ff" points="260.62,-22.87 270.98,-20.64 261.49,-15.92 260.62,-22.87"/>
</a>
</g>
</g>
<!-- Node3 -->
<g id="Node000003" class="node">
<title>Node3</title>
<g id="a_Node000003"><a xlink:href="../../d6/d93/netbsd_2hid_8c.html#aaacf4014c26556b9320ed9d5c1cd447e" target="_top" xlink:title=" ">
<polygon fill="white" stroke="#666666" points="97.75,-80 0,-80 0,-60 97.75,-60 97.75,-80"/>
<text xml:space="preserve" text-anchor="middle" x="48.88" y="-66.5" font-family="Helvetica,sans-Serif" font-size="10.00">create_device_info</text>
</a>
</g>
</g>
<!-- Node2&#45;&gt;Node3 -->
<g id="edge2_Node000002_Node000003" class="edge">
<title>Node2&#45;&gt;Node3</title>
<g id="a_edge2_Node000002_Node000003"><a xlink:title=" ">
<path fill="none" stroke="#63b8ff" d="M122.14,-58.17C114.07,-59.49 105.89,-60.83 98.08,-62.11"/>
<polygon fill="#63b8ff" stroke="#63b8ff" points="122.65,-61.63 131.95,-56.56 121.52,-54.72 122.65,-61.63"/>
</a>
</g>
</g>
<!-- Node4 -->
<g id="Node000004" class="node">
<title>Node4</title>
<g id="a_Node000004"><a xlink:href="../../da/db5/linux_2hid_8c.html#ac3851fec4804ade81acc2c4a65a5cecc" target="_top" xlink:title=" ">
<polygon fill="white" stroke="#666666" points="97.75,-42 0,-42 0,-10 97.75,-10 97.75,-42"/>
<text xml:space="preserve" text-anchor="start" x="8" y="-28.5" font-family="Helvetica,sans-Serif" font-size="10.00">create_device_info</text>
<text xml:space="preserve" text-anchor="middle" x="48.88" y="-16.5" font-family="Helvetica,sans-Serif" font-size="10.00">_for_device</text>
</a>
</g>
</g>
<!-- Node2&#45;&gt;Node4 -->
<g id="edge3_Node000002_Node000004" class="edge">
<title>Node2&#45;&gt;Node4</title>
<g id="a_edge3_Node000002_Node000004"><a xlink:title=" ">
<path fill="none" stroke="#63b8ff" d="M122.14,-37.83C114.07,-36.51 105.89,-35.17 98.08,-33.89"/>
<polygon fill="#63b8ff" stroke="#63b8ff" points="121.52,-41.28 131.95,-39.44 122.65,-34.37 121.52,-41.28"/>
</a>
</g>
</g>
</g>
</svg>
