<?xml version="1.0" encoding="UTF-8" standalone="no"?>
<!DOCTYPE svg PUBLIC "-//W3C//DTD SVG 1.1//EN"
 "http://www.w3.org/Graphics/SVG/1.1/DTD/svg11.dtd">
<!-- Generated by graphviz version 13.1.0 (20250701.0955)
 -->
<!-- Title: register_global_error_format Pages: 1 -->
<svg width="622pt" height="164pt"
 viewBox="0.00 0.00 622.00 164.00" xmlns="http://www.w3.org/2000/svg" xmlns:xlink="http://www.w3.org/1999/xlink">
<g id="graph0" class="graph" transform="scale(1 1) rotate(0) translate(4 160)">
<title>register_global_error_format</title>
<!-- Node1 -->
<g id="Node000001" class="node">
<title>Node1</title>
<g id="a_Node000001"><a xlink:title=" ">
<polygon fill="#999999" stroke="#666666" points="613.75,-86 510,-86 510,-54 613.75,-54 613.75,-86"/>
<text xml:space="preserve" text-anchor="start" x="518" y="-72.5" font-family="Helvetica,sans-Serif" font-size="10.00">register_global_error</text>
<text xml:space="preserve" text-anchor="middle" x="561.88" y="-60.5" font-family="Helvetica,sans-Serif" font-size="10.00">_format</text>
</a>
</g>
</g>
<!-- Node2 -->
<g id="Node000002" class="node">
<title>Node2</title>
<g id="a_Node000002"><a xlink:href="../../da/db5/linux_2hid_8c.html#ad4142159e4216558d922d78fe4ad89ba" target="_top" xlink:title=" ">
<polygon fill="white" stroke="#666666" points="467.62,-147 342.12,-147 342.12,-127 467.62,-127 467.62,-147"/>
<text xml:space="preserve" text-anchor="middle" x="404.88" y="-133.5" font-family="Helvetica,sans-Serif" font-size="10.00">get_hid_report_descriptor</text>
</a>
</g>
</g>
<!-- Node1&#45;&gt;Node2 -->
<g id="edge1_Node000001_Node000002" class="edge">
<title>Node1&#45;&gt;Node2</title>
<g id="a_edge1_Node000001_Node000002"><a xlink:title=" ">
<path fill="none" stroke="#63b8ff" d="M524.63,-91.82C509.36,-100.43 491.17,-109.93 474,-117 465.34,-120.57 455.81,-123.78 446.71,-126.53"/>
<polygon fill="#63b8ff" stroke="#63b8ff" points="525.96,-95.1 532.89,-87.08 522.48,-89.02 525.96,-95.1"/>
</a>
</g>
</g>
<!-- Node5 -->
<g id="Node000005" class="node">
<title>Node5</title>
<g id="a_Node000005"><a xlink:href="../../da/db5/linux_2hid_8c.html#afb91c0fc29b7b9f227ab5f916bb86a74" target="_top" xlink:title=" ">
<polygon fill="white" stroke="#666666" points="464.25,-108 345.5,-108 345.5,-76 464.25,-76 464.25,-108"/>
<text xml:space="preserve" text-anchor="start" x="353.5" y="-94.5" font-family="Helvetica,sans-Serif" font-size="10.00">parse_hid_vid_pid_from</text>
<text xml:space="preserve" text-anchor="middle" x="404.88" y="-82.5" font-family="Helvetica,sans-Serif" font-size="10.00">_uevent_path</text>
</a>
</g>
</g>
<!-- Node1&#45;&gt;Node5 -->
<g id="edge4_Node000001_Node000005" class="edge">
<title>Node1&#45;&gt;Node5</title>
<g id="a_edge4_Node000001_Node000005"><a xlink:title=" ">
<path fill="none" stroke="#63b8ff" d="M498.62,-78.84C487.37,-80.43 475.67,-82.09 464.52,-83.68"/>
<polygon fill="#63b8ff" stroke="#63b8ff" points="498.79,-82.35 508.19,-77.48 497.8,-75.42 498.79,-82.35"/>
</a>
</g>
</g>
<!-- Node8 -->
<g id="Node000008" class="node">
<title>Node8</title>
<g id="a_Node000008"><a xlink:href="../../d6/d93/netbsd_2hid_8c.html#af0dea306823d0667824a60d703dc3583" target="_top" xlink:title=" ">
<polygon fill="white" stroke="#666666" points="474,-58 335.75,-58 335.75,-38 474,-38 474,-58"/>
<text xml:space="preserve" text-anchor="middle" x="404.88" y="-44.5" font-family="Helvetica,sans-Serif" font-size="10.00">PLATFORM_hid_enumerate</text>
</a>
</g>
</g>
<!-- Node1&#45;&gt;Node8 -->
<g id="edge7_Node000001_Node000008" class="edge">
<title>Node1&#45;&gt;Node8</title>
<g id="a_edge7_Node000001_Node000008"><a xlink:title=" ">
<path fill="none" stroke="#63b8ff" d="M498.35,-61.13C490.47,-60.01 482.39,-58.86 474.42,-57.73"/>
<polygon fill="#63b8ff" stroke="#63b8ff" points="497.8,-64.58 508.19,-62.52 498.79,-57.65 497.8,-64.58"/>
</a>
</g>
</g>
<!-- Node9 -->
<g id="Node000009" class="node">
<title>Node9</title>
<g id="a_Node000009"><a xlink:href="../../da/db5/linux_2hid_8c.html#a0e569381b03120d85110c54f4cdff5b5" target="_top" xlink:title=" ">
<polygon fill="white" stroke="#666666" points="473.62,-20 336.12,-20 336.12,0 473.62,0 473.62,-20"/>
<text xml:space="preserve" text-anchor="middle" x="404.88" y="-6.5" font-family="Helvetica,sans-Serif" font-size="10.00">PLATFORM_hid_open_path</text>
</a>
</g>
</g>
<!-- Node1&#45;&gt;Node9 -->
<g id="edge8_Node000001_Node000009" class="edge">
<title>Node1&#45;&gt;Node9</title>
<g id="a_edge8_Node000001_Node000009"><a xlink:title=" ">
<path fill="none" stroke="#63b8ff" d="M519.67,-48.81C505.43,-41.95 489.22,-34.67 474,-29 465.6,-25.87 456.45,-22.98 447.66,-20.45"/>
<polygon fill="#63b8ff" stroke="#63b8ff" points="517.78,-51.78 528.3,-53.03 520.85,-45.49 517.78,-51.78"/>
</a>
</g>
</g>
<!-- Node3 -->
<g id="Node000003" class="node">
<title>Node3</title>
<g id="a_Node000003"><a xlink:href="../../da/db5/linux_2hid_8c.html#af615e335307c8c220a500c9492d9e3f7" target="_top" xlink:title=" ">
<polygon fill="white" stroke="#666666" points="299.75,-156 174.25,-156 174.25,-124 299.75,-124 299.75,-156"/>
<text xml:space="preserve" text-anchor="start" x="182.25" y="-142.5" font-family="Helvetica,sans-Serif" font-size="10.00">get_hid_report_descriptor</text>
<text xml:space="preserve" text-anchor="middle" x="237" y="-130.5" font-family="Helvetica,sans-Serif" font-size="10.00">_from_sysfs</text>
</a>
</g>
</g>
<!-- Node2&#45;&gt;Node3 -->
<g id="edge2_Node000002_Node000003" class="edge">
<title>Node2&#45;&gt;Node3</title>
<g id="a_edge2_Node000002_Node000003"><a xlink:title=" ">
<path fill="none" stroke="#63b8ff" d="M330.33,-138.33C320.22,-138.51 309.91,-138.7 300.03,-138.88"/>
<polygon fill="#63b8ff" stroke="#63b8ff" points="330.19,-141.83 340.12,-138.15 330.06,-134.83 330.19,-141.83"/>
</a>
</g>
</g>
<!-- Node4 -->
<g id="Node000004" class="node">
<title>Node4</title>
<g id="a_Node000004"><a xlink:href="../../da/db5/linux_2hid_8c.html#ac3851fec4804ade81acc2c4a65a5cecc" target="_top" xlink:title=" ">
<polygon fill="white" stroke="#666666" points="118,-156 20.25,-156 20.25,-124 118,-124 118,-156"/>
<text xml:space="preserve" text-anchor="start" x="28.25" y="-142.5" font-family="Helvetica,sans-Serif" font-size="10.00">create_device_info</text>
<text xml:space="preserve" text-anchor="middle" x="69.12" y="-130.5" font-family="Helvetica,sans-Serif" font-size="10.00">_for_device</text>
</a>
</g>
</g>
<!-- Node3&#45;&gt;Node4 -->
<g id="edge3_Node000003_Node000004" class="edge">
<title>Node3&#45;&gt;Node4</title>
<g id="a_edge3_Node000003_Node000004"><a xlink:title=" ">
<path fill="none" stroke="#63b8ff" d="M162.47,-140C147.55,-140 132.23,-140 118.45,-140"/>
<polygon fill="#63b8ff" stroke="#63b8ff" points="162.25,-143.5 172.25,-140 162.25,-136.5 162.25,-143.5"/>
</a>
</g>
</g>
<!-- Node6 -->
<g id="Node000006" class="node">
<title>Node6</title>
<g id="a_Node000006"><a xlink:href="../../da/db5/linux_2hid_8c.html#a40a81cafe19292d834fb0960712d3deb" target="_top" xlink:title=" ">
<polygon fill="white" stroke="#666666" points="296.38,-106 177.62,-106 177.62,-74 296.38,-74 296.38,-106"/>
<text xml:space="preserve" text-anchor="start" x="185.62" y="-92.5" font-family="Helvetica,sans-Serif" font-size="10.00">parse_hid_vid_pid_from</text>
<text xml:space="preserve" text-anchor="middle" x="237" y="-80.5" font-family="Helvetica,sans-Serif" font-size="10.00">_sysfs</text>
</a>
</g>
</g>
<!-- Node5&#45;&gt;Node6 -->
<g id="edge5_Node000005_Node000006" class="edge">
<title>Node5&#45;&gt;Node6</title>
<g id="a_edge5_Node000005_Node000006"><a xlink:title=" ">
<path fill="none" stroke="#63b8ff" d="M334.13,-91.16C321.7,-91.01 308.87,-90.85 296.79,-90.71"/>
<polygon fill="#63b8ff" stroke="#63b8ff" points="333.84,-94.66 343.88,-91.28 333.92,-87.66 333.84,-94.66"/>
</a>
</g>
</g>
<!-- Node7 -->
<g id="Node000007" class="node">
<title>Node7</title>
<g id="a_Node000007"><a xlink:href="../../da/db5/linux_2hid_8c.html#af0dea306823d0667824a60d703dc3583" target="_top" xlink:title=" ">
<polygon fill="white" stroke="#666666" points="138.25,-100 0,-100 0,-80 138.25,-80 138.25,-100"/>
<text xml:space="preserve" text-anchor="middle" x="69.12" y="-86.5" font-family="Helvetica,sans-Serif" font-size="10.00">PLATFORM_hid_enumerate</text>
</a>
</g>
</g>
<!-- Node6&#45;&gt;Node7 -->
<g id="edge6_Node000006_Node000007" class="edge">
<title>Node6&#45;&gt;Node7</title>
<g id="a_edge6_Node000006_Node000007"><a xlink:title=" ">
<path fill="none" stroke="#63b8ff" d="M166.12,-90C157,-90 147.67,-90 138.58,-90"/>
<polygon fill="#63b8ff" stroke="#63b8ff" points="166.01,-93.5 176.01,-90 166.01,-86.5 166.01,-93.5"/>
</a>
</g>
</g>
</g>
</svg>
