<?xml version="1.0" encoding="UTF-8" standalone="no"?>
<!DOCTYPE svg PUBLIC "-//W3C//DTD SVG 1.1//EN"
 "http://www.w3.org/Graphics/SVG/1.1/DTD/svg11.dtd">
<!-- Generated by graphviz version 13.1.0 (20250701.0955)
 -->
<!-- Title: get_hid_item_size Pages: 1 -->
<svg width="543pt" height="154pt"
 viewBox="0.00 0.00 543.00 154.00" xmlns="http://www.w3.org/2000/svg" xmlns:xlink="http://www.w3.org/1999/xlink">
<g id="graph0" class="graph" transform="scale(1 1) rotate(0) translate(4 150)">
<title>get_hid_item_size</title>
<!-- Node1 -->
<g id="Node000001" class="node">
<title>Node1</title>
<g id="a_Node000001"><a xlink:title=" ">
<polygon fill="#999999" stroke="#666666" points="535,-77 440.25,-77 440.25,-57 535,-57 535,-77"/>
<text xml:space="preserve" text-anchor="middle" x="487.62" y="-63.5" font-family="Helvetica,sans-Serif" font-size="10.00">get_hid_item_size</text>
</a>
</g>
</g>
<!-- Node2 -->
<g id="Node000002" class="node">
<title>Node2</title>
<g id="a_Node000002"><a xlink:href="../../da/db5/linux_2hid_8c.html#a19d4afe103caf103ad9da7c77aa8d7d3" target="_top" xlink:title=" ">
<polygon fill="white" stroke="#666666" points="236.75,-124 133.75,-124 133.75,-104 236.75,-104 236.75,-124"/>
<text xml:space="preserve" text-anchor="middle" x="185.25" y="-110.5" font-family="Helvetica,sans-Serif" font-size="10.00">get_next_hid_usage</text>
</a>
</g>
</g>
<!-- Node1&#45;&gt;Node2 -->
<g id="edge1_Node000001_Node000002" class="edge">
<title>Node1&#45;&gt;Node2</title>
<g id="a_edge1_Node000001_Node000002"><a xlink:title=" ">
<path fill="none" stroke="#63b8ff" d="M459.37,-82.86C443.78,-91.08 423.53,-100.35 404.25,-105 348.28,-118.5 281.92,-119.14 237.24,-117.44"/>
<polygon fill="#63b8ff" stroke="#63b8ff" points="460.93,-85.99 468.03,-78.13 457.58,-79.85 460.93,-85.99"/>
</a>
</g>
</g>
<!-- Node5 -->
<g id="Node000005" class="node">
<title>Node5</title>
<g id="a_Node000005"><a xlink:href="../../d6/d93/netbsd_2hid_8c.html#a6f8e6c9d53c4d6edf4b870ca5ee69ade" target="_top" xlink:title=" ">
<polygon fill="white" stroke="#666666" points="236.75,-77 133.75,-77 133.75,-57 236.75,-57 236.75,-77"/>
<text xml:space="preserve" text-anchor="middle" x="185.25" y="-63.5" font-family="Helvetica,sans-Serif" font-size="10.00">get_next_hid_usage</text>
</a>
</g>
</g>
<!-- Node1&#45;&gt;Node5 -->
<g id="edge4_Node000001_Node000005" class="edge">
<title>Node1&#45;&gt;Node5</title>
<g id="a_edge4_Node000001_Node000005"><a xlink:title=" ">
<path fill="none" stroke="#63b8ff" d="M428.62,-67C373.13,-67 290.26,-67 237.24,-67"/>
<polygon fill="#63b8ff" stroke="#63b8ff" points="428.51,-70.5 438.51,-67 428.51,-63.5 428.51,-70.5"/>
</a>
</g>
</g>
<!-- Node6 -->
<g id="Node000006" class="node">
<title>Node6</title>
<g id="a_Node000006"><a xlink:href="../../da/db5/linux_2hid_8c.html#a0d0aa83ca2edc3ed60dfd69c216688a5" target="_top" xlink:title=" ">
<polygon fill="white" stroke="#666666" points="404.25,-96 272.75,-96 272.75,-76 404.25,-76 404.25,-96"/>
<text xml:space="preserve" text-anchor="middle" x="338.5" y="-82.5" font-family="Helvetica,sans-Serif" font-size="10.00">hid_iterate_over_collection</text>
</a>
</g>
</g>
<!-- Node1&#45;&gt;Node6 -->
<g id="edge5_Node000001_Node000006" class="edge">
<title>Node1&#45;&gt;Node6</title>
<g id="a_edge5_Node000001_Node000006"><a xlink:title=" ">
<path fill="none" stroke="#63b8ff" d="M428.7,-74.48C420.78,-75.5 412.6,-76.56 404.57,-77.6"/>
<polygon fill="#63b8ff" stroke="#63b8ff" points="429.1,-77.96 438.57,-73.21 428.21,-71.02 429.1,-77.96"/>
</a>
</g>
</g>
<!-- Node7 -->
<g id="Node000007" class="node">
<title>Node7</title>
<g id="a_Node000007"><a xlink:href="../../d6/d93/netbsd_2hid_8c.html#a97aa48347f8abe33889d78036b67d9b4" target="_top" xlink:title=" ">
<polygon fill="white" stroke="#666666" points="404.25,-20 272.75,-20 272.75,0 404.25,0 404.25,-20"/>
<text xml:space="preserve" text-anchor="middle" x="338.5" y="-6.5" font-family="Helvetica,sans-Serif" font-size="10.00">hid_iterate_over_collection</text>
</a>
</g>
</g>
<!-- Node1&#45;&gt;Node7 -->
<g id="edge8_Node000001_Node000007" class="edge">
<title>Node1&#45;&gt;Node7</title>
<g id="a_edge8_Node000001_Node000007"><a xlink:title=" ">
<path fill="none" stroke="#63b8ff" d="M450.61,-52.34C436.22,-46.54 419.48,-39.87 404.25,-34 392.5,-29.47 379.5,-24.62 368.25,-20.47"/>
<polygon fill="#63b8ff" stroke="#63b8ff" points="449.1,-55.5 459.69,-56 451.73,-49.01 449.1,-55.5"/>
</a>
</g>
</g>
<!-- Node3 -->
<g id="Node000003" class="node">
<title>Node3</title>
<g id="a_Node000003"><a xlink:href="../../d6/d93/netbsd_2hid_8c.html#aaacf4014c26556b9320ed9d5c1cd447e" target="_top" xlink:title=" ">
<polygon fill="white" stroke="#666666" points="97.75,-146 0,-146 0,-126 97.75,-126 97.75,-146"/>
<text xml:space="preserve" text-anchor="middle" x="48.88" y="-132.5" font-family="Helvetica,sans-Serif" font-size="10.00">create_device_info</text>
</a>
</g>
</g>
<!-- Node2&#45;&gt;Node3 -->
<g id="edge2_Node000002_Node000003" class="edge">
<title>Node2&#45;&gt;Node3</title>
<g id="a_edge2_Node000002_Node000003"><a xlink:title=" ">
<path fill="none" stroke="#63b8ff" d="M122.14,-124.17C114.07,-125.49 105.89,-126.83 98.08,-128.11"/>
<polygon fill="#63b8ff" stroke="#63b8ff" points="122.65,-127.63 131.95,-122.56 121.52,-120.72 122.65,-127.63"/>
</a>
</g>
</g>
<!-- Node4 -->
<g id="Node000004" class="node">
<title>Node4</title>
<g id="a_Node000004"><a xlink:href="../../da/db5/linux_2hid_8c.html#ac3851fec4804ade81acc2c4a65a5cecc" target="_top" xlink:title=" ">
<polygon fill="white" stroke="#666666" points="97.75,-108 0,-108 0,-76 97.75,-76 97.75,-108"/>
<text xml:space="preserve" text-anchor="start" x="8" y="-94.5" font-family="Helvetica,sans-Serif" font-size="10.00">create_device_info</text>
<text xml:space="preserve" text-anchor="middle" x="48.88" y="-82.5" font-family="Helvetica,sans-Serif" font-size="10.00">_for_device</text>
</a>
</g>
</g>
<!-- Node2&#45;&gt;Node4 -->
<g id="edge3_Node000002_Node000004" class="edge">
<title>Node2&#45;&gt;Node4</title>
<g id="a_edge3_Node000002_Node000004"><a xlink:title=" ">
<path fill="none" stroke="#63b8ff" d="M122.14,-103.83C114.07,-102.51 105.89,-101.17 98.08,-99.89"/>
<polygon fill="#63b8ff" stroke="#63b8ff" points="121.52,-107.28 131.95,-105.44 122.65,-100.37 121.52,-107.28"/>
</a>
</g>
</g>
<!-- Node6&#45;&gt;Node2 -->
<g id="edge6_Node000006_Node000002" class="edge">
<title>Node6&#45;&gt;Node2</title>
<g id="a_edge6_Node000006_Node000002"><a xlink:title=" ">
<path fill="none" stroke="#63b8ff" d="M270.19,-98.46C259.09,-100.52 247.74,-102.62 237.13,-104.58"/>
<polygon fill="#63b8ff" stroke="#63b8ff" points="270.5,-101.96 279.69,-96.7 269.22,-95.08 270.5,-101.96"/>
</a>
</g>
</g>
<!-- Node6&#45;&gt;Node5 -->
<g id="edge7_Node000006_Node000005" class="edge">
<title>Node6&#45;&gt;Node5</title>
<g id="a_edge7_Node000006_Node000005"><a xlink:title=" ">
<path fill="none" stroke="#63b8ff" d="M261.3,-76.43C253.08,-75.4 244.87,-74.36 237.06,-73.38"/>
<polygon fill="#63b8ff" stroke="#63b8ff" points="260.62,-79.87 270.98,-77.64 261.49,-72.92 260.62,-79.87"/>
</a>
</g>
</g>
</g>
</svg>
