<?xml version="1.0" encoding="UTF-8" standalone="no"?>
<!DOCTYPE svg PUBLIC "-//W3C//DTD SVG 1.1//EN"
 "http://www.w3.org/Graphics/SVG/1.1/DTD/svg11.dtd">
<!-- Generated by graphviz version 13.1.0 (20250701.0955)
 -->
<!-- Title: get_next_hid_usage Pages: 1 -->
<svg width="409pt" height="80pt"
 viewBox="0.00 0.00 409.00 80.00" xmlns="http://www.w3.org/2000/svg" xmlns:xlink="http://www.w3.org/1999/xlink">

<svg id="main" version="1.1" xmlns="http://www.w3.org/2000/svg" xmlns:xlink="http://www.w3.org/1999/xlink" xml:space="preserve">

<style type="text/css"><![CDATA[
.node, .edge {opacity: 0.7;}
.node.selected, .edge.selected {opacity: 1;}
.edge:hover path { stroke: red; }
.edge:hover polygon { stroke: red; fill: red; }
]]></style>
<script type="application/ecmascript" xlink:href="../../svg.min.js"/>
<svg id="graph" class="graph">
<g id="graph0" class="graph" transform="scale(1 1) rotate(0) translate(4 75.88)">
<title>get_next_hid_usage</title>
<!-- Node1 -->
<g id="Node000001" class="node">
<title>Node1</title>
<g id="a_Node000001"><a xlink:title=" ">
<polygon fill="#999999" stroke="#666666" points="103,-58 0,-58 0,-38 103,-38 103,-58"/>
<text xml:space="preserve" text-anchor="middle" x="51.5" y="-44.5" font-family="Helvetica,sans-Serif" font-size="10.00">get_next_hid_usage</text>
</a>
</g>
</g>
<!-- Node2 -->
<g id="Node000002" class="node">
<title>Node2</title>
<g id="a_Node000002"><a xlink:href="../../da/db5/linux_2hid_8c.html#a1b0703db2b80f02c7e3b51c77b5604fb" target="_top" xlink:title=" ">
<polygon fill="white" stroke="#666666" points="401.25,-58 306.5,-58 306.5,-38 401.25,-38 401.25,-58"/>
<text xml:space="preserve" text-anchor="middle" x="353.88" y="-44.5" font-family="Helvetica,sans-Serif" font-size="10.00">get_hid_item_size</text>
</a>
</g>
</g>
<!-- Node1&#45;&gt;Node2 -->
<g id="edge1_Node000001_Node000002" class="edge">
<title>Node1&#45;&gt;Node2</title>
<g id="a_edge1_Node000001_Node000002"><a xlink:title=" ">
<path fill="none" stroke="#63b8ff" d="M91.39,-58.42C106.18,-61.88 123.26,-65.29 139,-67 197.1,-73.31 212.43,-73.61 270.5,-67 281.77,-65.72 293.73,-63.48 304.95,-60.98"/>
<polygon fill="#63b8ff" stroke="#63b8ff" points="305.46,-64.45 314.4,-58.76 303.86,-57.64 305.46,-64.45"/>
</a>
</g>
</g>
<!-- Node3 -->
<g id="Node000003" class="node">
<title>Node3</title>
<g id="a_Node000003"><a xlink:href="../../da/db5/linux_2hid_8c.html#a04367defdccee748e0134113c753f5e5" target="_top" xlink:title=" ">
<polygon fill="white" stroke="#666666" points="258.12,-58 151.38,-58 151.38,-38 258.12,-38 258.12,-58"/>
<text xml:space="preserve" text-anchor="middle" x="204.75" y="-44.5" font-family="Helvetica,sans-Serif" font-size="10.00">get_hid_report_bytes</text>
</a>
</g>
</g>
<!-- Node1&#45;&gt;Node3 -->
<g id="edge2_Node000001_Node000003" class="edge">
<title>Node1&#45;&gt;Node3</title>
<g id="a_edge2_Node000001_Node000003"><a xlink:title=" ">
<path fill="none" stroke="#63b8ff" d="M103.28,-48C114.93,-48 127.45,-48 139.57,-48"/>
<polygon fill="#63b8ff" stroke="#63b8ff" points="139.52,-51.5 149.52,-48 139.52,-44.5 139.52,-51.5"/>
</a>
</g>
</g>
<!-- Node4 -->
<g id="Node000004" class="node">
<title>Node4</title>
<g id="a_Node000004"><a xlink:href="../../da/db5/linux_2hid_8c.html#a0d0aa83ca2edc3ed60dfd69c216688a5" target="_top" xlink:title=" ">
<polygon fill="white" stroke="#666666" points="270.5,-20 139,-20 139,0 270.5,0 270.5,-20"/>
<text xml:space="preserve" text-anchor="middle" x="204.75" y="-6.5" font-family="Helvetica,sans-Serif" font-size="10.00">hid_iterate_over_collection</text>
</a>
</g>
</g>
<!-- Node1&#45;&gt;Node4 -->
<g id="edge3_Node000001_Node000004" class="edge">
<title>Node1&#45;&gt;Node4</title>
<g id="a_edge3_Node000001_Node000004"><a xlink:title=" ">
<path fill="none" stroke="#63b8ff" d="M94.23,-37.52C111.84,-33.09 132.53,-27.89 151.17,-23.21"/>
<polygon fill="#63b8ff" stroke="#63b8ff" points="151.84,-26.65 160.69,-20.82 150.14,-19.86 151.84,-26.65"/>
</a>
</g>
</g>
<!-- Node4&#45;&gt;Node2 -->
<g id="edge4_Node000004_Node000002" class="edge">
<title>Node4&#45;&gt;Node2</title>
<g id="a_edge4_Node000004_Node000002"><a xlink:title=" ">
<path fill="none" stroke="#63b8ff" d="M246.34,-20.48C263.39,-24.89 283.41,-30.06 301.47,-34.72"/>
<polygon fill="#63b8ff" stroke="#63b8ff" points="300.39,-38.06 310.95,-37.17 302.14,-31.28 300.39,-38.06"/>
</a>
</g>
</g>
</g>
</svg>
</svg>

<style type='text/css'>
<![CDATA[
[data-mouse-over-selected='false'] { opacity: 0.7; }
[data-mouse-over-selected='true']  { opacity: 1.0; }
]]>
</style>
<script type="application/ecmascript"><![CDATA[
document.addEventListener('DOMContentLoaded', (event) => {
  highlightEdges();
  highlightAdjacentNodes();
});
]]></script>
</svg>
