<?xml version="1.0" encoding="UTF-8" standalone="no"?>
<!DOCTYPE svg PUBLIC "-//W3C//DTD SVG 1.1//EN"
 "http://www.w3.org/Graphics/SVG/1.1/DTD/svg11.dtd">
<!-- Generated by graphviz version 13.1.0 (20250701.0955)
 -->
<!-- Title: hid_get_report Pages: 1 -->
<svg width="263pt" height="90pt"
 viewBox="0.00 0.00 263.00 90.00" xmlns="http://www.w3.org/2000/svg" xmlns:xlink="http://www.w3.org/1999/xlink">
<g id="graph0" class="graph" transform="scale(1 1) rotate(0) translate(4 86)">
<title>hid_get_report</title>
<!-- Node1 -->
<g id="Node000001" class="node">
<title>Node1</title>
<g id="a_Node000001"><a xlink:title=" ">
<polygon fill="#999999" stroke="#666666" points="254.75,-51 177.25,-51 177.25,-31 254.75,-31 254.75,-51"/>
<text xml:space="preserve" text-anchor="middle" x="216" y="-37.5" font-family="Helvetica,sans-Serif" font-size="10.00">hid_get_report</text>
</a>
</g>
</g>
<!-- Node2 -->
<g id="Node000002" class="node">
<title>Node2</title>
<g id="a_Node000002"><a xlink:href="../../d0/d22/windows_2hid_8c.html#a214edbfd9fd6edc9a231ce03eab641e4" target="_top" xlink:title=" ">
<polygon fill="white" stroke="#666666" points="141.25,-82 0,-82 0,-50 141.25,-50 141.25,-82"/>
<text xml:space="preserve" text-anchor="start" x="8" y="-68.5" font-family="Helvetica,sans-Serif" font-size="10.00">PLATFORM_hid_get_feature</text>
<text xml:space="preserve" text-anchor="middle" x="70.62" y="-56.5" font-family="Helvetica,sans-Serif" font-size="10.00">_report</text>
</a>
</g>
</g>
<!-- Node1&#45;&gt;Node2 -->
<g id="edge1_Node000001_Node000002" class="edge">
<title>Node1&#45;&gt;Node2</title>
<g id="a_edge1_Node000001_Node000002"><a xlink:title=" ">
<path fill="none" stroke="#63b8ff" d="M165.87,-49.57C158.09,-50.92 149.9,-52.35 141.74,-53.77"/>
<polygon fill="#63b8ff" stroke="#63b8ff" points="166.21,-53.06 175.46,-47.89 165.01,-46.16 166.21,-53.06"/>
</a>
</g>
</g>
<!-- Node3 -->
<g id="Node000003" class="node">
<title>Node3</title>
<g id="a_Node000003"><a xlink:href="../../d0/d22/windows_2hid_8c.html#a2dd51137c32af401819bf95876b2474f" target="_top" xlink:title=" ">
<polygon fill="white" stroke="#666666" points="136.75,-32 4.5,-32 4.5,0 136.75,0 136.75,-32"/>
<text xml:space="preserve" text-anchor="start" x="12.5" y="-18.5" font-family="Helvetica,sans-Serif" font-size="10.00">PLATFORM_hid_get_input</text>
<text xml:space="preserve" text-anchor="middle" x="70.62" y="-6.5" font-family="Helvetica,sans-Serif" font-size="10.00">_report</text>
</a>
</g>
</g>
<!-- Node1&#45;&gt;Node3 -->
<g id="edge2_Node000001_Node000003" class="edge">
<title>Node1&#45;&gt;Node3</title>
<g id="a_edge2_Node000001_Node000003"><a xlink:title=" ">
<path fill="none" stroke="#63b8ff" d="M165.62,-32.39C156.4,-30.78 146.64,-29.08 137.02,-27.4"/>
<polygon fill="#63b8ff" stroke="#63b8ff" points="165.01,-35.84 175.46,-34.11 166.21,-28.94 165.01,-35.84"/>
</a>
</g>
</g>
</g>
</svg>
