<?xml version="1.0" encoding="UTF-8" standalone="no"?>
<!DOCTYPE svg PUBLIC "-//W3C//DTD SVG 1.1//EN"
 "http://www.w3.org/Graphics/SVG/1.1/DTD/svg11.dtd">
<!-- Generated by graphviz version 13.1.0 (20250701.0955)
 -->
<!-- Title: hid_internal_get_usb_info Pages: 1 -->
<svg width="297pt" height="128pt"
 viewBox="0.00 0.00 297.00 128.00" xmlns="http://www.w3.org/2000/svg" xmlns:xlink="http://www.w3.org/1999/xlink">
<g id="graph0" class="graph" transform="scale(1 1) rotate(0) translate(4 124)">
<title>hid_internal_get_usb_info</title>
<!-- Node1 -->
<g id="Node000001" class="node">
<title>Node1</title>
<g id="a_Node000001"><a xlink:title=" ">
<polygon fill="#999999" stroke="#666666" points="126.25,-64 0,-64 0,-44 126.25,-44 126.25,-64"/>
<text xml:space="preserve" text-anchor="middle" x="63.12" y="-50.5" font-family="Helvetica,sans-Serif" font-size="10.00">hid_internal_get_usb_info</text>
</a>
</g>
</g>
<!-- Node2 -->
<g id="Node000002" class="node">
<title>Node2</title>
<g id="a_Node000002"><a xlink:href="../../d0/d22/windows_2hid_8c.html#ae07c67d7f4c87a81a8ba91d16e1edd15" target="_top" xlink:title=" ">
<polygon fill="white" stroke="#666666" points="275.75,-120 175,-120 175,-88 275.75,-88 275.75,-120"/>
<text xml:space="preserve" text-anchor="start" x="183" y="-106.5" font-family="Helvetica,sans-Serif" font-size="10.00">hid_internal_extract</text>
<text xml:space="preserve" text-anchor="middle" x="225.38" y="-94.5" font-family="Helvetica,sans-Serif" font-size="10.00">_int_token_value</text>
</a>
</g>
</g>
<!-- Node1&#45;&gt;Node2 -->
<g id="edge1_Node000001_Node000002" class="edge">
<title>Node1&#45;&gt;Node2</title>
<g id="a_edge1_Node000001_Node000002"><a xlink:title=" ">
<path fill="none" stroke="#63b8ff" d="M97.72,-64.48C116.88,-70.46 141.49,-78.14 163.9,-85.13"/>
<polygon fill="#63b8ff" stroke="#63b8ff" points="162.66,-88.41 173.25,-88.05 164.75,-81.73 162.66,-88.41"/>
</a>
</g>
</g>
<!-- Node3 -->
<g id="Node000003" class="node">
<title>Node3</title>
<g id="a_Node000003"><a xlink:href="../../d0/d22/windows_2hid_8c.html#a2757b0892d948234003094e334c864af" target="_top" xlink:title=" ">
<polygon fill="white" stroke="#666666" points="288.5,-70 162.25,-70 162.25,-38 288.5,-38 288.5,-70"/>
<text xml:space="preserve" text-anchor="start" x="170.25" y="-56.5" font-family="Helvetica,sans-Serif" font-size="10.00">hid_internal_get_devnode</text>
<text xml:space="preserve" text-anchor="middle" x="225.38" y="-44.5" font-family="Helvetica,sans-Serif" font-size="10.00">_property</text>
</a>
</g>
</g>
<!-- Node1&#45;&gt;Node3 -->
<g id="edge2_Node000001_Node000003" class="edge">
<title>Node1&#45;&gt;Node3</title>
<g id="a_edge2_Node000001_Node000003"><a xlink:title=" ">
<path fill="none" stroke="#63b8ff" d="M126.54,-54C134.43,-54 142.55,-54 150.59,-54"/>
<polygon fill="#63b8ff" stroke="#63b8ff" points="150.35,-57.5 160.35,-54 150.35,-50.5 150.35,-57.5"/>
</a>
</g>
</g>
<!-- Node4 -->
<g id="Node000004" class="node">
<title>Node4</title>
<g id="a_Node000004"><a xlink:href="../../d0/d22/windows_2hid_8c.html#af2a6ab531fe41d3526625dc2c3831199" target="_top" xlink:title=" ">
<polygon fill="white" stroke="#666666" points="280.62,-20 170.12,-20 170.12,0 280.62,0 280.62,-20"/>
<text xml:space="preserve" text-anchor="middle" x="225.38" y="-6.5" font-family="Helvetica,sans-Serif" font-size="10.00">hid_internal_towupper</text>
</a>
</g>
</g>
<!-- Node1&#45;&gt;Node4 -->
<g id="edge3_Node000001_Node000004" class="edge">
<title>Node1&#45;&gt;Node4</title>
<g id="a_edge3_Node000001_Node000004"><a xlink:title=" ">
<path fill="none" stroke="#63b8ff" d="M102.1,-43.57C124.07,-37.54 151.96,-29.88 175.55,-23.41"/>
<polygon fill="#63b8ff" stroke="#63b8ff" points="176.22,-26.85 184.93,-20.83 174.36,-20.1 176.22,-26.85"/>
</a>
</g>
</g>
</g>
</svg>
