<?xml version="1.0" encoding="UTF-8" standalone="no"?>
<!DOCTYPE svg PUBLIC "-//W3C//DTD SVG 1.1//EN"
 "http://www.w3.org/Graphics/SVG/1.1/DTD/svg11.dtd">
<!-- Generated by graphviz version 13.1.0 (20250701.0955)
 -->
<!-- Title: hid_internal_UTF8toUTF16 Pages: 1 -->
<svg width="315pt" height="78pt"
 viewBox="0.00 0.00 315.00 78.00" xmlns="http://www.w3.org/2000/svg" xmlns:xlink="http://www.w3.org/1999/xlink">
<g id="graph0" class="graph" transform="scale(1 1) rotate(0) translate(4 74)">
<title>hid_internal_UTF8toUTF16</title>
<!-- Node1 -->
<g id="Node000001" class="node">
<title>Node1</title>
<g id="a_Node000001"><a xlink:title=" ">
<polygon fill="#999999" stroke="#666666" points="307.25,-48 173.5,-48 173.5,-28 307.25,-28 307.25,-48"/>
<text xml:space="preserve" text-anchor="middle" x="240.38" y="-34.5" font-family="Helvetica,sans-Serif" font-size="10.00">hid_internal_UTF8toUTF16</text>
</a>
</g>
</g>
<!-- Node2 -->
<g id="Node000002" class="node">
<title>Node2</title>
<g id="a_Node000002"><a xlink:href="../../d0/d22/windows_2hid_8c.html#a0e569381b03120d85110c54f4cdff5b5" target="_top" xlink:title=" ">
<polygon fill="white" stroke="#666666" points="137.5,-70 0,-70 0,-50 137.5,-50 137.5,-70"/>
<text xml:space="preserve" text-anchor="middle" x="68.75" y="-56.5" font-family="Helvetica,sans-Serif" font-size="10.00">PLATFORM_hid_open_path</text>
</a>
</g>
</g>
<!-- Node1&#45;&gt;Node2 -->
<g id="edge1_Node000001_Node000002" class="edge">
<title>Node1&#45;&gt;Node2</title>
<g id="a_edge1_Node000001_Node000002"><a xlink:title=" ">
<path fill="none" stroke="#63b8ff" d="M162.01,-48.03C153.96,-49.08 145.82,-50.13 137.87,-51.16"/>
<polygon fill="#63b8ff" stroke="#63b8ff" points="162.34,-51.52 171.81,-46.76 161.44,-44.58 162.34,-51.52"/>
</a>
</g>
</g>
<!-- Node3 -->
<g id="Node000003" class="node">
<title>Node3</title>
<g id="a_Node000003"><a xlink:href="../../d0/d22/windows_2hid_8c.html#af88f373fa221890005e6ae9a47d6520f" target="_top" xlink:title=" ">
<polygon fill="white" stroke="#666666" points="121.38,-32 16.12,-32 16.12,0 121.38,0 121.38,-32"/>
<text xml:space="preserve" text-anchor="start" x="24.12" y="-18.5" font-family="Helvetica,sans-Serif" font-size="10.00">SDL_hid_winapi_get</text>
<text xml:space="preserve" text-anchor="middle" x="68.75" y="-6.5" font-family="Helvetica,sans-Serif" font-size="10.00">_container_id</text>
</a>
</g>
</g>
<!-- Node1&#45;&gt;Node3 -->
<g id="edge2_Node000001_Node000003" class="edge">
<title>Node1&#45;&gt;Node3</title>
<g id="a_edge2_Node000001_Node000003"><a xlink:title=" ">
<path fill="none" stroke="#63b8ff" d="M161.95,-27.96C148.33,-26.19 134.44,-24.39 121.72,-22.74"/>
<polygon fill="#63b8ff" stroke="#63b8ff" points="161.44,-31.42 171.81,-29.24 162.34,-24.48 161.44,-31.42"/>
</a>
</g>
</g>
</g>
</svg>
