<?xml version="1.0" encoding="UTF-8" standalone="no"?>
<!DOCTYPE svg PUBLIC "-//W3C//DTD SVG 1.1//EN"
 "http://www.w3.org/Graphics/SVG/1.1/DTD/svg11.dtd">
<!-- Generated by graphviz version 13.1.0 (20250701.0955)
 -->
<!-- Title: register_winapi_error Pages: 1 -->
<svg width="476pt" height="235pt"
 viewBox="0.00 0.00 476.00 235.00" xmlns="http://www.w3.org/2000/svg" xmlns:xlink="http://www.w3.org/1999/xlink">

<svg id="main" version="1.1" xmlns="http://www.w3.org/2000/svg" xmlns:xlink="http://www.w3.org/1999/xlink" xml:space="preserve">

<style type="text/css"><![CDATA[
.node, .edge {opacity: 0.7;}
.node.selected, .edge.selected {opacity: 1;}
.edge:hover path { stroke: red; }
.edge:hover polygon { stroke: red; fill: red; }
]]></style>
<script type="application/ecmascript" xlink:href="../../svg.min.js"/>
<svg id="graph" class="graph">
<g id="graph0" class="graph" transform="scale(1 1) rotate(0) translate(4 231)">
<title>register_winapi_error</title>
<!-- Node1 -->
<g id="Node000001" class="node">
<title>Node1</title>
<g id="a_Node000001"><a xlink:title=" ">
<polygon fill="#999999" stroke="#666666" points="468,-108 362,-108 362,-88 468,-88 468,-108"/>
<text xml:space="preserve" text-anchor="middle" x="415" y="-94.5" font-family="Helvetica,sans-Serif" font-size="10.00">register_winapi_error</text>
</a>
</g>
</g>
<!-- Node2 -->
<g id="Node000002" class="node">
<title>Node2</title>
<g id="a_Node000002"><a xlink:href="../../d0/d22/windows_2hid_8c.html#a02977920fd1c8021bd9c8433509326a7" target="_top" xlink:title=" ">
<polygon fill="white" stroke="#666666" points="290.38,-196 212.88,-196 212.88,-176 290.38,-176 290.38,-196"/>
<text xml:space="preserve" text-anchor="middle" x="251.62" y="-182.5" font-family="Helvetica,sans-Serif" font-size="10.00">hid_get_report</text>
</a>
</g>
</g>
<!-- Node1&#45;&gt;Node2 -->
<g id="edge1_Node000001_Node000002" class="edge">
<title>Node1&#45;&gt;Node2</title>
<g id="a_edge1_Node000001_Node000002"><a xlink:title=" ">
<path fill="none" stroke="#63b8ff" d="M395.57,-116.21C378.76,-131.84 352.58,-153.86 326,-167 315.03,-172.42 302.35,-176.41 290.64,-179.3"/>
<polygon fill="#63b8ff" stroke="#63b8ff" points="397.96,-118.77 402.78,-109.33 393.13,-113.7 397.96,-118.77"/>
</a>
</g>
</g>
<!-- Node5 -->
<g id="Node000005" class="node">
<title>Node5</title>
<g id="a_Node000005"><a xlink:href="../../d0/d22/windows_2hid_8c.html#a4de3591f7fd5459a1616ba2a9e79792f" target="_top" xlink:title=" ">
<polygon fill="white" stroke="#666666" points="324.12,-158 179.12,-158 179.12,-126 324.12,-126 324.12,-158"/>
<text xml:space="preserve" text-anchor="start" x="187.12" y="-144.5" font-family="Helvetica,sans-Serif" font-size="10.00">PLATFORM_hid_get_indexed</text>
<text xml:space="preserve" text-anchor="middle" x="251.62" y="-132.5" font-family="Helvetica,sans-Serif" font-size="10.00">_string</text>
</a>
</g>
</g>
<!-- Node1&#45;&gt;Node5 -->
<g id="edge4_Node000001_Node000005" class="edge">
<title>Node1&#45;&gt;Node5</title>
<g id="a_edge4_Node000001_Node000005"><a xlink:title=" ">
<path fill="none" stroke="#63b8ff" d="M364.81,-111.41C348.47,-115.87 330.08,-120.88 312.99,-125.54"/>
<polygon fill="#63b8ff" stroke="#63b8ff" points="365.57,-114.83 374.3,-108.83 363.73,-108.08 365.57,-114.83"/>
</a>
</g>
</g>
<!-- Node6 -->
<g id="Node000006" class="node">
<title>Node6</title>
<g id="a_Node000006"><a xlink:href="../../d0/d22/windows_2hid_8c.html#a2a73a1b3bac9b258d879868e8e71abfa" target="_top" xlink:title=" ">
<polygon fill="white" stroke="#666666" points="326,-108 177.25,-108 177.25,-88 326,-88 326,-108"/>
<text xml:space="preserve" text-anchor="middle" x="251.62" y="-94.5" font-family="Helvetica,sans-Serif" font-size="10.00">PLATFORM_hid_read_timeout</text>
</a>
</g>
</g>
<!-- Node1&#45;&gt;Node6 -->
<g id="edge5_Node000001_Node000006" class="edge">
<title>Node1&#45;&gt;Node6</title>
<g id="a_edge5_Node000001_Node000006"><a xlink:title=" ">
<path fill="none" stroke="#63b8ff" d="M350.32,-98C342.48,-98 334.42,-98 326.45,-98"/>
<polygon fill="#63b8ff" stroke="#63b8ff" points="350.09,-101.5 360.09,-98 350.09,-94.5 350.09,-101.5"/>
</a>
</g>
</g>
<!-- Node7 -->
<g id="Node000007" class="node">
<title>Node7</title>
<g id="a_Node000007"><a xlink:href="../../d0/d22/windows_2hid_8c.html#abc78b1d9628df5f9a17136cae60f37a6" target="_top" xlink:title=" ">
<polygon fill="white" stroke="#666666" points="326,-70 177.25,-70 177.25,-38 326,-38 326,-70"/>
<text xml:space="preserve" text-anchor="start" x="185.25" y="-56.5" font-family="Helvetica,sans-Serif" font-size="10.00">PLATFORM_hid_send_feature</text>
<text xml:space="preserve" text-anchor="middle" x="251.62" y="-44.5" font-family="Helvetica,sans-Serif" font-size="10.00">_report</text>
</a>
</g>
</g>
<!-- Node1&#45;&gt;Node7 -->
<g id="edge6_Node000001_Node000007" class="edge">
<title>Node1&#45;&gt;Node7</title>
<g id="a_edge6_Node000001_Node000007"><a xlink:title=" ">
<path fill="none" stroke="#63b8ff" d="M364.81,-84.59C348.47,-80.13 330.08,-75.12 312.99,-70.46"/>
<polygon fill="#63b8ff" stroke="#63b8ff" points="363.73,-87.92 374.3,-87.17 365.57,-81.17 363.73,-87.92"/>
</a>
</g>
</g>
<!-- Node8 -->
<g id="Node000008" class="node">
<title>Node8</title>
<g id="a_Node000008"><a xlink:href="../../d0/d22/windows_2hid_8c.html#a65448f0b1dfdbaac7e9262bb784ca6b8" target="_top" xlink:title=" ">
<polygon fill="white" stroke="#666666" points="308.38,-20 194.88,-20 194.88,0 308.38,0 308.38,-20"/>
<text xml:space="preserve" text-anchor="middle" x="251.62" y="-6.5" font-family="Helvetica,sans-Serif" font-size="10.00">PLATFORM_hid_write</text>
</a>
</g>
</g>
<!-- Node1&#45;&gt;Node8 -->
<g id="edge7_Node000001_Node000008" class="edge">
<title>Node1&#45;&gt;Node8</title>
<g id="a_edge7_Node000001_Node000008"><a xlink:title=" ">
<path fill="none" stroke="#63b8ff" d="M395.57,-79.79C378.76,-64.16 352.58,-42.14 326,-29 319.16,-25.62 311.65,-22.79 304.13,-20.45"/>
<polygon fill="#63b8ff" stroke="#63b8ff" points="393.13,-82.3 402.78,-86.67 397.96,-77.23 393.13,-82.3"/>
</a>
</g>
</g>
<!-- Node3 -->
<g id="Node000003" class="node">
<title>Node3</title>
<g id="a_Node000003"><a xlink:href="../../d0/d22/windows_2hid_8c.html#a214edbfd9fd6edc9a231ce03eab641e4" target="_top" xlink:title=" ">
<polygon fill="white" stroke="#666666" points="141.25,-227 0,-227 0,-195 141.25,-195 141.25,-227"/>
<text xml:space="preserve" text-anchor="start" x="8" y="-213.5" font-family="Helvetica,sans-Serif" font-size="10.00">PLATFORM_hid_get_feature</text>
<text xml:space="preserve" text-anchor="middle" x="70.62" y="-201.5" font-family="Helvetica,sans-Serif" font-size="10.00">_report</text>
</a>
</g>
</g>
<!-- Node2&#45;&gt;Node3 -->
<g id="edge2_Node000002_Node000003" class="edge">
<title>Node2&#45;&gt;Node3</title>
<g id="a_edge2_Node000002_Node000003"><a xlink:title=" ">
<path fill="none" stroke="#63b8ff" d="M201.31,-192.89C182.9,-195.46 161.62,-198.43 141.69,-201.21"/>
<polygon fill="#63b8ff" stroke="#63b8ff" points="201.74,-196.36 211.16,-191.51 200.78,-189.43 201.74,-196.36"/>
</a>
</g>
</g>
<!-- Node4 -->
<g id="Node000004" class="node">
<title>Node4</title>
<g id="a_Node000004"><a xlink:href="../../d0/d22/windows_2hid_8c.html#a2dd51137c32af401819bf95876b2474f" target="_top" xlink:title=" ">
<polygon fill="white" stroke="#666666" points="136.75,-177 4.5,-177 4.5,-145 136.75,-145 136.75,-177"/>
<text xml:space="preserve" text-anchor="start" x="12.5" y="-163.5" font-family="Helvetica,sans-Serif" font-size="10.00">PLATFORM_hid_get_input</text>
<text xml:space="preserve" text-anchor="middle" x="70.62" y="-151.5" font-family="Helvetica,sans-Serif" font-size="10.00">_report</text>
</a>
</g>
</g>
<!-- Node2&#45;&gt;Node4 -->
<g id="edge3_Node000002_Node000004" class="edge">
<title>Node2&#45;&gt;Node4</title>
<g id="a_edge3_Node000002_Node000004"><a xlink:title=" ">
<path fill="none" stroke="#63b8ff" d="M201.39,-179.12C181.51,-176.35 158.29,-173.1 137.02,-170.13"/>
<polygon fill="#63b8ff" stroke="#63b8ff" points="200.78,-182.57 211.16,-180.49 201.74,-175.64 200.78,-182.57"/>
</a>
</g>
</g>
</g>
</svg>
</svg>

<style type='text/css'>
<![CDATA[
[data-mouse-over-selected='false'] { opacity: 0.7; }
[data-mouse-over-selected='true']  { opacity: 1.0; }
]]>
</style>
<script type="application/ecmascript"><![CDATA[
document.addEventListener('DOMContentLoaded', (event) => {
  highlightEdges();
  highlightAdjacentNodes();
});
]]></script>
</svg>
