<?xml version="1.0" encoding="UTF-8" standalone="no"?>
<!DOCTYPE svg PUBLIC "-//W3C//DTD SVG 1.1//EN"
 "http://www.w3.org/Graphics/SVG/1.1/DTD/svg11.dtd">
<!-- Generated by graphviz version 13.1.0 (20250701.0955)
 -->
<!-- Title: hid_internal_get_devnode_property Pages: 1 -->
<svg width="646pt" height="116pt"
 viewBox="0.00 0.00 646.00 116.00" xmlns="http://www.w3.org/2000/svg" xmlns:xlink="http://www.w3.org/1999/xlink">
<g id="graph0" class="graph" transform="scale(1 1) rotate(0) translate(4 112)">
<title>hid_internal_get_devnode_property</title>
<!-- Node1 -->
<g id="Node000001" class="node">
<title>Node1</title>
<g id="a_Node000001"><a xlink:title=" ">
<polygon fill="#999999" stroke="#666666" points="637.75,-64 511.5,-64 511.5,-32 637.75,-32 637.75,-64"/>
<text xml:space="preserve" text-anchor="start" x="519.5" y="-50.5" font-family="Helvetica,sans-Serif" font-size="10.00">hid_internal_get_devnode</text>
<text xml:space="preserve" text-anchor="middle" x="574.62" y="-38.5" font-family="Helvetica,sans-Serif" font-size="10.00">_property</text>
</a>
</g>
</g>
<!-- Node2 -->
<g id="Node000002" class="node">
<title>Node2</title>
<g id="a_Node000002"><a xlink:href="../../d0/d22/windows_2hid_8c.html#a4719fabaeddaa11e268a2e157ec66340" target="_top" xlink:title=" ">
<polygon fill="white" stroke="#666666" points="461.25,-108 363.5,-108 363.5,-76 461.25,-76 461.25,-108"/>
<text xml:space="preserve" text-anchor="start" x="371.5" y="-94.5" font-family="Helvetica,sans-Serif" font-size="10.00">hid_internal_detect</text>
<text xml:space="preserve" text-anchor="middle" x="412.38" y="-82.5" font-family="Helvetica,sans-Serif" font-size="10.00">_bus_type</text>
</a>
</g>
</g>
<!-- Node1&#45;&gt;Node2 -->
<g id="edge1_Node000001_Node000002" class="edge">
<title>Node1&#45;&gt;Node2</title>
<g id="a_edge1_Node000001_Node000002"><a xlink:title=" ">
<path fill="none" stroke="#63b8ff" d="M502.88,-67.42C488.93,-71.25 474.59,-75.19 461.6,-78.76"/>
<polygon fill="#63b8ff" stroke="#63b8ff" points="503.78,-70.81 512.49,-64.78 501.92,-64.06 503.78,-70.81"/>
</a>
</g>
</g>
<!-- Node6 -->
<g id="Node000006" class="node">
<title>Node6</title>
<g id="a_Node000006"><a xlink:href="../../d0/d22/windows_2hid_8c.html#a81c43830089fe795df004a135a223a7d" target="_top" xlink:title=" ">
<polygon fill="white" stroke="#666666" points="474,-58 350.75,-58 350.75,-38 474,-38 474,-58"/>
<text xml:space="preserve" text-anchor="middle" x="412.38" y="-44.5" font-family="Helvetica,sans-Serif" font-size="10.00">hid_internal_get_ble_info</text>
</a>
</g>
</g>
<!-- Node1&#45;&gt;Node6 -->
<g id="edge5_Node000001_Node000006" class="edge">
<title>Node1&#45;&gt;Node6</title>
<g id="a_edge5_Node000001_Node000006"><a xlink:title=" ">
<path fill="none" stroke="#63b8ff" d="M499.71,-48C491.21,-48 482.61,-48 474.31,-48"/>
<polygon fill="#63b8ff" stroke="#63b8ff" points="499.7,-51.5 509.7,-48 499.7,-44.5 499.7,-51.5"/>
</a>
</g>
</g>
<!-- Node7 -->
<g id="Node000007" class="node">
<title>Node7</title>
<g id="a_Node000007"><a xlink:href="../../d0/d22/windows_2hid_8c.html#ae60fbf8f2e04ded2125e948df59a907e" target="_top" xlink:title=" ">
<polygon fill="white" stroke="#666666" points="475.5,-20 349.25,-20 349.25,0 475.5,0 475.5,-20"/>
<text xml:space="preserve" text-anchor="middle" x="412.38" y="-6.5" font-family="Helvetica,sans-Serif" font-size="10.00">hid_internal_get_usb_info</text>
</a>
</g>
</g>
<!-- Node1&#45;&gt;Node7 -->
<g id="edge7_Node000001_Node000007" class="edge">
<title>Node1&#45;&gt;Node7</title>
<g id="a_edge7_Node000001_Node000007"><a xlink:title=" ">
<path fill="none" stroke="#63b8ff" d="M500.16,-30.58C485.6,-27.13 470.74,-23.6 457.53,-20.47"/>
<polygon fill="#63b8ff" stroke="#63b8ff" points="499.2,-33.95 509.74,-32.85 500.81,-27.14 499.2,-33.95"/>
</a>
</g>
</g>
<!-- Node3 -->
<g id="Node000003" class="node">
<title>Node3</title>
<g id="a_Node000003"><a xlink:href="../../d0/d22/windows_2hid_8c.html#a235b9359b076c75b2c916d0ee88714d2" target="_top" xlink:title=" ">
<polygon fill="white" stroke="#666666" points="313.25,-58 174.25,-58 174.25,-38 313.25,-38 313.25,-58"/>
<text xml:space="preserve" text-anchor="middle" x="243.75" y="-44.5" font-family="Helvetica,sans-Serif" font-size="10.00">hid_internal_get_device_info</text>
</a>
</g>
</g>
<!-- Node2&#45;&gt;Node3 -->
<g id="edge2_Node000002_Node000003" class="edge">
<title>Node2&#45;&gt;Node3</title>
<g id="a_edge2_Node000002_Node000003"><a xlink:title=" ">
<path fill="none" stroke="#63b8ff" d="M352.06,-76.34C329.61,-70.41 304.63,-63.81 284.42,-58.47"/>
<polygon fill="#63b8ff" stroke="#63b8ff" points="351.15,-79.72 361.72,-78.89 352.94,-72.95 351.15,-79.72"/>
</a>
</g>
</g>
<!-- Node4 -->
<g id="Node000004" class="node">
<title>Node4</title>
<g id="a_Node000004"><a xlink:href="../../d0/d22/windows_2hid_8c.html#af0dea306823d0667824a60d703dc3583" target="_top" xlink:title=" ">
<polygon fill="white" stroke="#666666" points="138.25,-77 0,-77 0,-57 138.25,-57 138.25,-77"/>
<text xml:space="preserve" text-anchor="middle" x="69.12" y="-63.5" font-family="Helvetica,sans-Serif" font-size="10.00">PLATFORM_hid_enumerate</text>
</a>
</g>
</g>
<!-- Node3&#45;&gt;Node4 -->
<g id="edge3_Node000003_Node000004" class="edge">
<title>Node3&#45;&gt;Node4</title>
<g id="a_edge3_Node000003_Node000004"><a xlink:title=" ">
<path fill="none" stroke="#63b8ff" d="M162.72,-56.81C154.66,-57.7 146.53,-58.59 138.61,-59.46"/>
<polygon fill="#63b8ff" stroke="#63b8ff" points="162.97,-60.3 172.52,-55.73 162.2,-53.34 162.97,-60.3"/>
</a>
</g>
</g>
<!-- Node5 -->
<g id="Node000005" class="node">
<title>Node5</title>
<g id="a_Node000005"><a xlink:href="../../d0/d22/windows_2hid_8c.html#a0e569381b03120d85110c54f4cdff5b5" target="_top" xlink:title=" ">
<polygon fill="white" stroke="#666666" points="137.88,-39 0.38,-39 0.38,-19 137.88,-19 137.88,-39"/>
<text xml:space="preserve" text-anchor="middle" x="69.12" y="-25.5" font-family="Helvetica,sans-Serif" font-size="10.00">PLATFORM_hid_open_path</text>
</a>
</g>
</g>
<!-- Node3&#45;&gt;Node5 -->
<g id="edge4_Node000003_Node000005" class="edge">
<title>Node3&#45;&gt;Node5</title>
<g id="a_edge4_Node000003_Node000005"><a xlink:title=" ">
<path fill="none" stroke="#63b8ff" d="M162.62,-39.18C154.5,-38.29 146.31,-37.39 138.33,-36.51"/>
<polygon fill="#63b8ff" stroke="#63b8ff" points="162.2,-42.66 172.52,-40.27 162.97,-35.7 162.2,-42.66"/>
</a>
</g>
</g>
<!-- Node6&#45;&gt;Node3 -->
<g id="edge6_Node000006_Node000003" class="edge">
<title>Node6&#45;&gt;Node3</title>
<g id="a_edge6_Node000006_Node000003"><a xlink:title=" ">
<path fill="none" stroke="#63b8ff" d="M338.97,-48C330.59,-48 322.06,-48 313.73,-48"/>
<polygon fill="#63b8ff" stroke="#63b8ff" points="338.76,-51.5 348.76,-48 338.76,-44.5 338.76,-51.5"/>
</a>
</g>
</g>
<!-- Node7&#45;&gt;Node3 -->
<g id="edge8_Node000007_Node000003" class="edge">
<title>Node7&#45;&gt;Node3</title>
<g id="a_edge8_Node000007_Node000003"><a xlink:title=" ">
<path fill="none" stroke="#63b8ff" d="M354.44,-22.98C333.61,-27.74 310.31,-33.05 290.57,-37.55"/>
<polygon fill="#63b8ff" stroke="#63b8ff" points="354.96,-26.46 363.93,-20.82 353.4,-19.63 354.96,-26.46"/>
</a>
</g>
</g>
</g>
</svg>
