<?xml version="1.0" encoding="UTF-8" standalone="no"?>
<!DOCTYPE svg PUBLIC "-//W3C//DTD SVG 1.1//EN"
 "http://www.w3.org/Graphics/SVG/1.1/DTD/svg11.dtd">
<!-- Generated by graphviz version 13.1.0 (20250701.0955)
 -->
<!-- Title: hid_internal_get_devnode_property Pages: 1 -->
<!--zoomable 116 -->

<svg id="main" version="1.1" xmlns="http://www.w3.org/2000/svg" xmlns:xlink="http://www.w3.org/1999/xlink" xml:space="preserve" onload="init(evt)">

<style type="text/css"><![CDATA[
.node, .edge {opacity: 0.7;}
.node.selected, .edge.selected {opacity: 1;}
.edge:hover path { stroke: red; }
.edge:hover polygon { stroke: red; fill: red; }
]]></style>

<defs>
  <circle id="rim" cx="0" cy="0" r="7"/>
  <circle id="rim2" cx="0" cy="0" r="3.5"/>
  <g id="zoomPlus">
    <use xlink:href="#rim" fill="#404040"><set attributeName="fill" to="#808080" begin="zoomplus.mouseover" end="zoomplus.mouseout"/></use>
    <path d="M-4,0h8M0,-4v8" fill="none" stroke="white" stroke-width="1.5" pointer-events="none"/>
  </g>
  <g id="zoomMin">
    <use xlink:href="#rim" fill="#404040"><set attributeName="fill" to="#808080" begin="zoomminus.mouseover" end="zoomminus.mouseout"/></use>
    <path d="M-4,0h8" fill="none" stroke="white" stroke-width="1.5" pointer-events="none"/>
  </g>
  <g id="arrowUp" transform="translate(30 24)">
    <use xlink:href="#rim"/>
    <path pointer-events="none" fill="none" stroke="white" stroke-width="1.5" d="M0,-3.0v7 M-2.5,-0.5L0,-3.0L2.5,-0.5"/>
  </g>
  <g id="arrowRight" transform="rotate(90) translate(36 -43)">
    <use xlink:href="#rim"/>
    <path pointer-events="none" fill="none" stroke="white" stroke-width="1.5" d="M0,-3.0v7 M-2.5,-0.5L0,-3.0L2.5,-0.5"/>
  </g>
  <g id="arrowDown" transform="rotate(180) translate(-30 -48)">
    <use xlink:href="#rim"/>
    <path pointer-events="none" fill="none" stroke="white" stroke-width="1.5" d="M0,-3.0v7 M-2.5,-0.5L0,-3.0L2.5,-0.5"/>
  </g>
  <g id="arrowLeft" transform="rotate(270) translate(-36 17)">
    <use xlink:href="#rim"/>
    <path pointer-events="none" fill="none" stroke="white" stroke-width="1.5" d="M0,-3.0v7 M-2.5,-0.5L0,-3.0L2.5,-0.5"/>
  </g>
  <g id="resetDef">
    <use xlink:href="#rim2" fill="#404040"><set attributeName="fill" to="#808080" begin="reset.mouseover" end="reset.mouseout"/></use>
  </g>
</defs>
<script type="application/ecmascript">
var viewWidth = 646;
var viewHeight = 116;
var sectionId = 'dynsection-14';
</script>
<script type="application/ecmascript" xlink:href="../../svg.min.js"/>
<svg id="graph" class="graph">
<g id="viewport">
<title>hid_internal_get_devnode_property</title>
<!-- Node1 -->
<g id="Node000001" class="node">
<title>Node1</title>
<g id="a_Node000001"><a xlink:title=" ">
<polygon fill="#999999" stroke="#666666" points="637.75,-64 511.5,-64 511.5,-32 637.75,-32 637.75,-64"/>
<text xml:space="preserve" text-anchor="start" x="519.5" y="-50.5" font-family="Helvetica,sans-Serif" font-size="10.00">hid_internal_get_devnode</text>
<text xml:space="preserve" text-anchor="middle" x="574.62" y="-38.5" font-family="Helvetica,sans-Serif" font-size="10.00">_property</text>
</a>
</g>
</g>
<!-- Node2 -->
<g id="Node000002" class="node">
<title>Node2</title>
<g id="a_Node000002"><a xlink:href="../../d0/d22/windows_2hid_8c.html#a4719fabaeddaa11e268a2e157ec66340" target="_top" xlink:title=" ">
<polygon fill="white" stroke="#666666" points="461.25,-108 363.5,-108 363.5,-76 461.25,-76 461.25,-108"/>
<text xml:space="preserve" text-anchor="start" x="371.5" y="-94.5" font-family="Helvetica,sans-Serif" font-size="10.00">hid_internal_detect</text>
<text xml:space="preserve" text-anchor="middle" x="412.38" y="-82.5" font-family="Helvetica,sans-Serif" font-size="10.00">_bus_type</text>
</a>
</g>
</g>
<!-- Node1&#45;&gt;Node2 -->
<g id="edge1_Node000001_Node000002" class="edge">
<title>Node1&#45;&gt;Node2</title>
<g id="a_edge1_Node000001_Node000002"><a xlink:title=" ">
<path fill="none" stroke="#63b8ff" d="M502.88,-67.42C488.93,-71.25 474.59,-75.19 461.6,-78.76"/>
<polygon fill="#63b8ff" stroke="#63b8ff" points="503.78,-70.81 512.49,-64.78 501.92,-64.06 503.78,-70.81"/>
</a>
</g>
</g>
<!-- Node6 -->
<g id="Node000006" class="node">
<title>Node6</title>
<g id="a_Node000006"><a xlink:href="../../d0/d22/windows_2hid_8c.html#a81c43830089fe795df004a135a223a7d" target="_top" xlink:title=" ">
<polygon fill="white" stroke="#666666" points="474,-58 350.75,-58 350.75,-38 474,-38 474,-58"/>
<text xml:space="preserve" text-anchor="middle" x="412.38" y="-44.5" font-family="Helvetica,sans-Serif" font-size="10.00">hid_internal_get_ble_info</text>
</a>
</g>
</g>
<!-- Node1&#45;&gt;Node6 -->
<g id="edge5_Node000001_Node000006" class="edge">
<title>Node1&#45;&gt;Node6</title>
<g id="a_edge5_Node000001_Node000006"><a xlink:title=" ">
<path fill="none" stroke="#63b8ff" d="M499.71,-48C491.21,-48 482.61,-48 474.31,-48"/>
<polygon fill="#63b8ff" stroke="#63b8ff" points="499.7,-51.5 509.7,-48 499.7,-44.5 499.7,-51.5"/>
</a>
</g>
</g>
<!-- Node7 -->
<g id="Node000007" class="node">
<title>Node7</title>
<g id="a_Node000007"><a xlink:href="../../d0/d22/windows_2hid_8c.html#ae60fbf8f2e04ded2125e948df59a907e" target="_top" xlink:title=" ">
<polygon fill="white" stroke="#666666" points="475.5,-20 349.25,-20 349.25,0 475.5,0 475.5,-20"/>
<text xml:space="preserve" text-anchor="middle" x="412.38" y="-6.5" font-family="Helvetica,sans-Serif" font-size="10.00">hid_internal_get_usb_info</text>
</a>
</g>
</g>
<!-- Node1&#45;&gt;Node7 -->
<g id="edge7_Node000001_Node000007" class="edge">
<title>Node1&#45;&gt;Node7</title>
<g id="a_edge7_Node000001_Node000007"><a xlink:title=" ">
<path fill="none" stroke="#63b8ff" d="M500.16,-30.58C485.6,-27.13 470.74,-23.6 457.53,-20.47"/>
<polygon fill="#63b8ff" stroke="#63b8ff" points="499.2,-33.95 509.74,-32.85 500.81,-27.14 499.2,-33.95"/>
</a>
</g>
</g>
<!-- Node3 -->
<g id="Node000003" class="node">
<title>Node3</title>
<g id="a_Node000003"><a xlink:href="../../d0/d22/windows_2hid_8c.html#a235b9359b076c75b2c916d0ee88714d2" target="_top" xlink:title=" ">
<polygon fill="white" stroke="#666666" points="313.25,-58 174.25,-58 174.25,-38 313.25,-38 313.25,-58"/>
<text xml:space="preserve" text-anchor="middle" x="243.75" y="-44.5" font-family="Helvetica,sans-Serif" font-size="10.00">hid_internal_get_device_info</text>
</a>
</g>
</g>
<!-- Node2&#45;&gt;Node3 -->
<g id="edge2_Node000002_Node000003" class="edge">
<title>Node2&#45;&gt;Node3</title>
<g id="a_edge2_Node000002_Node000003"><a xlink:title=" ">
<path fill="none" stroke="#63b8ff" d="M352.06,-76.34C329.61,-70.41 304.63,-63.81 284.42,-58.47"/>
<polygon fill="#63b8ff" stroke="#63b8ff" points="351.15,-79.72 361.72,-78.89 352.94,-72.95 351.15,-79.72"/>
</a>
</g>
</g>
<!-- Node4 -->
<g id="Node000004" class="node">
<title>Node4</title>
<g id="a_Node000004"><a xlink:href="../../d0/d22/windows_2hid_8c.html#af0dea306823d0667824a60d703dc3583" target="_top" xlink:title=" ">
<polygon fill="white" stroke="#666666" points="138.25,-77 0,-77 0,-57 138.25,-57 138.25,-77"/>
<text xml:space="preserve" text-anchor="middle" x="69.12" y="-63.5" font-family="Helvetica,sans-Serif" font-size="10.00">PLATFORM_hid_enumerate</text>
</a>
</g>
</g>
<!-- Node3&#45;&gt;Node4 -->
<g id="edge3_Node000003_Node000004" class="edge">
<title>Node3&#45;&gt;Node4</title>
<g id="a_edge3_Node000003_Node000004"><a xlink:title=" ">
<path fill="none" stroke="#63b8ff" d="M162.72,-56.81C154.66,-57.7 146.53,-58.59 138.61,-59.46"/>
<polygon fill="#63b8ff" stroke="#63b8ff" points="162.97,-60.3 172.52,-55.73 162.2,-53.34 162.97,-60.3"/>
</a>
</g>
</g>
<!-- Node5 -->
<g id="Node000005" class="node">
<title>Node5</title>
<g id="a_Node000005"><a xlink:href="../../d0/d22/windows_2hid_8c.html#a0e569381b03120d85110c54f4cdff5b5" target="_top" xlink:title=" ">
<polygon fill="white" stroke="#666666" points="137.88,-39 0.38,-39 0.38,-19 137.88,-19 137.88,-39"/>
<text xml:space="preserve" text-anchor="middle" x="69.12" y="-25.5" font-family="Helvetica,sans-Serif" font-size="10.00">PLATFORM_hid_open_path</text>
</a>
</g>
</g>
<!-- Node3&#45;&gt;Node5 -->
<g id="edge4_Node000003_Node000005" class="edge">
<title>Node3&#45;&gt;Node5</title>
<g id="a_edge4_Node000003_Node000005"><a xlink:title=" ">
<path fill="none" stroke="#63b8ff" d="M162.62,-39.18C154.5,-38.29 146.31,-37.39 138.33,-36.51"/>
<polygon fill="#63b8ff" stroke="#63b8ff" points="162.2,-42.66 172.52,-40.27 162.97,-35.7 162.2,-42.66"/>
</a>
</g>
</g>
<!-- Node6&#45;&gt;Node3 -->
<g id="edge6_Node000006_Node000003" class="edge">
<title>Node6&#45;&gt;Node3</title>
<g id="a_edge6_Node000006_Node000003"><a xlink:title=" ">
<path fill="none" stroke="#63b8ff" d="M338.97,-48C330.59,-48 322.06,-48 313.73,-48"/>
<polygon fill="#63b8ff" stroke="#63b8ff" points="338.76,-51.5 348.76,-48 338.76,-44.5 338.76,-51.5"/>
</a>
</g>
</g>
<!-- Node7&#45;&gt;Node3 -->
<g id="edge8_Node000007_Node000003" class="edge">
<title>Node7&#45;&gt;Node3</title>
<g id="a_edge8_Node000007_Node000003"><a xlink:title=" ">
<path fill="none" stroke="#63b8ff" d="M354.44,-22.98C333.61,-27.74 310.31,-33.05 290.57,-37.55"/>
<polygon fill="#63b8ff" stroke="#63b8ff" points="354.96,-26.46 363.93,-20.82 353.4,-19.63 354.96,-26.46"/>
</a>
</g>
</g>
</g>
</svg>

<g id="navigator" transform="translate(0 0)" fill="#404254">
  <rect fill="#f2f5e9" fill-opacity="0.5" stroke="#606060" stroke-width=".5" x="0" y="0" width="60" height="60"/>
  <use id="zoomplus" xlink:href="#zoomPlus" x="17" y="9" onmousedown="handleZoom(evt,'in')"/>
  <use id="zoomminus" xlink:href="#zoomMin" x="42" y="9" onmousedown="handleZoom(evt,'out')"/>
  <use id="reset" xlink:href="#resetDef" x="30" y="36" onmousedown="handleReset()"/>
   <use id="arrowup" xlink:href="#arrowUp" x="0" y="0" onmousedown="handlePan(0,-1)"/>
  <use id="arrowright" xlink:href="#arrowRight" x="0" y="0" onmousedown="handlePan(1,0)"/>
  <use id="arrowdown" xlink:href="#arrowDown" x="0" y="0" onmousedown="handlePan(0,1)"/>
  <use id="arrowleft" xlink:href="#arrowLeft" x="0" y="0" onmousedown="handlePan(-1,0)"/>
</g>
<svg viewBox="0 0 15 15" width="100%" height="30px" preserveAspectRatio="xMaxYMin meet">
 <g id="arrow_out" transform="scale(0.3 0.3)">
  <a xlink:href="windows_2hid_8c_a2757b0892d948234003094e334c864af_icgraph_org.svg" target="_base">
   <rect id="button" ry="5" rx="5" y="6" x="6" height="38" width="38"
        fill="#f2f5e9" fill-opacity="0.5" stroke="#606060" stroke-width="1.0"/>
   <path id="arrow"
     d="M 11.500037,31.436501 C 11.940474,20.09759 22.043105,11.32322 32.158766,21.979434 L 37.068811,17.246167 C 37.068811,17.246167 37.088388,32 37.088388,32 L 22.160133,31.978069 C 22.160133,31.978069 26.997745,27.140456 26.997745,27.140456 C 18.528582,18.264221 13.291696,25.230495 11.500037,31.436501 z"
     style="fill:#404040;"/>
  </a>
 </g>
</svg>

<style type='text/css'>
<![CDATA[
[data-mouse-over-selected='false'] { opacity: 0.7; }
[data-mouse-over-selected='true']  { opacity: 1.0; }
]]>
</style>
<script type="application/ecmascript"><![CDATA[
document.addEventListener('DOMContentLoaded', (event) => {
  highlightEdges();
  highlightAdjacentNodes();
});
]]></script>
</svg>
