<?xml version="1.0" encoding="UTF-8" standalone="no"?>
<!DOCTYPE svg PUBLIC "-//W3C//DTD SVG 1.1//EN"
 "http://www.w3.org/Graphics/SVG/1.1/DTD/svg11.dtd">
<!-- Generated by graphviz version 13.1.0 (20250701.0955)
 -->
<!-- Title: VkShaderCreateInfoEXT Pages: 1 -->
<svg width="275pt" height="176pt"
 viewBox="0.00 0.00 275.00 176.00" xmlns="http://www.w3.org/2000/svg" xmlns:xlink="http://www.w3.org/1999/xlink">
<g id="graph0" class="graph" transform="scale(1 1) rotate(0) translate(4 172)">
<title>VkShaderCreateInfoEXT</title>
<!-- Node1 -->
<g id="Node000001" class="node">
<title>Node1</title>
<g id="a_Node000001"><a xlink:title=" ">
<polygon fill="#999999" stroke="#666666" points="186.38,-20 62.38,-20 62.38,0 186.38,0 186.38,-20"/>
<text xml:space="preserve" text-anchor="middle" x="124.38" y="-6.5" font-family="Helvetica,sans-Serif" font-size="10.00">VkShaderCreateInfoEXT</text>
</a>
</g>
</g>
<!-- Node2 -->
<g id="Node000002" class="node">
<title>Node2</title>
<g id="a_Node000002"><a xlink:href="../../d7/d26/structVkPushConstantRange.html" target="_top" xlink:title=" ">
<polygon fill="white" stroke="#666666" points="118.75,-94 0,-94 0,-74 118.75,-74 118.75,-94"/>
<text xml:space="preserve" text-anchor="middle" x="59.38" y="-80.5" font-family="Helvetica,sans-Serif" font-size="10.00">VkPushConstantRange</text>
</a>
</g>
</g>
<!-- Node2&#45;&gt;Node1 -->
<g id="edge1_Node000001_Node000002" class="edge">
<title>Node2&#45;&gt;Node1</title>
<g id="a_edge1_Node000001_Node000002"><a xlink:title=" ">
<path fill="none" stroke="#9a32cd" stroke-dasharray="5,2" d="M55.11,-62.48C54.51,-54.24 55.36,-45.05 60.12,-38 65.55,-29.98 73.86,-24.34 82.72,-20.37"/>
<polygon fill="#9a32cd" stroke="#9a32cd" points="51.65,-62.99 56.59,-72.36 58.57,-61.95 51.65,-62.99"/>
</a>
</g>
<text xml:space="preserve" text-anchor="start" x="63.12" y="-43.5" font-family="Helvetica,sans-Serif" font-size="10.00" fill="grey">pPushConstantRanges</text>
</g>
<!-- Node3 -->
<g id="Node000003" class="node">
<title>Node3</title>
<g id="a_Node000003"><a xlink:href="../../d8/d64/structVkSpecializationInfo.html" target="_top" xlink:title=" ">
<polygon fill="white" stroke="#666666" points="242,-94 136.75,-94 136.75,-74 242,-74 242,-94"/>
<text xml:space="preserve" text-anchor="middle" x="189.38" y="-80.5" font-family="Helvetica,sans-Serif" font-size="10.00">VkSpecializationInfo</text>
</a>
</g>
</g>
<!-- Node3&#45;&gt;Node1 -->
<g id="edge2_Node000001_Node000003" class="edge">
<title>Node3&#45;&gt;Node1</title>
<g id="a_edge2_Node000001_Node000003"><a xlink:title=" ">
<path fill="none" stroke="#9a32cd" stroke-dasharray="5,2" d="M182.58,-63.35C178.98,-54.89 173.93,-45.29 167.38,-38 160.89,-30.79 152.04,-24.79 144.05,-20.29"/>
<polygon fill="#9a32cd" stroke="#9a32cd" points="179.21,-64.34 186.05,-72.44 185.75,-61.85 179.21,-64.34"/>
</a>
</g>
<text xml:space="preserve" text-anchor="start" x="181.69" y="-43.5" font-family="Helvetica,sans-Serif" font-size="10.00" fill="grey">pSpecializationInfo</text>
</g>
<!-- Node4 -->
<g id="Node000004" class="node">
<title>Node4</title>
<g id="a_Node000004"><a xlink:href="../../d3/d79/structVkSpecializationMapEntry.html" target="_top" xlink:title=" ">
<polygon fill="white" stroke="#666666" points="254.75,-168 124,-168 124,-148 254.75,-148 254.75,-168"/>
<text xml:space="preserve" text-anchor="middle" x="189.38" y="-154.5" font-family="Helvetica,sans-Serif" font-size="10.00">VkSpecializationMapEntry</text>
</a>
</g>
</g>
<!-- Node4&#45;&gt;Node3 -->
<g id="edge3_Node000003_Node000004" class="edge">
<title>Node4&#45;&gt;Node3</title>
<g id="a_edge3_Node000003_Node000004"><a xlink:title=" ">
<path fill="none" stroke="#9a32cd" stroke-dasharray="5,2" d="M189.38,-136.18C189.38,-122.29 189.38,-104.71 189.38,-94.19"/>
<polygon fill="#9a32cd" stroke="#9a32cd" points="185.88,-136.07 189.38,-146.07 192.88,-136.07 185.88,-136.07"/>
</a>
</g>
<text xml:space="preserve" text-anchor="start" x="192.38" y="-117.5" font-family="Helvetica,sans-Serif" font-size="10.00" fill="grey">pMapEntries</text>
</g>
</g>
</svg>
