<?xml version="1.0" encoding="UTF-8" standalone="no"?>
<!DOCTYPE svg PUBLIC "-//W3C//DTD SVG 1.1//EN"
 "http://www.w3.org/Graphics/SVG/1.1/DTD/svg11.dtd">
<!-- Generated by graphviz version 13.1.0 (20250701.0955)
 -->
<!-- Title: SDL_AddKeyboard Pages: 1 -->
<svg width="436pt" height="66pt"
 viewBox="0.00 0.00 436.00 66.00" xmlns="http://www.w3.org/2000/svg" xmlns:xlink="http://www.w3.org/1999/xlink">
<g id="graph0" class="graph" transform="scale(1 1) rotate(0) translate(4 62)">
<title>SDL_AddKeyboard</title>
<!-- Node1 -->
<g id="Node000001" class="node">
<title>Node1</title>
<g id="a_Node000001"><a xlink:title=" ">
<polygon fill="#999999" stroke="#666666" points="428.25,-39 329,-39 329,-19 428.25,-19 428.25,-39"/>
<text xml:space="preserve" text-anchor="middle" x="378.62" y="-25.5" font-family="Helvetica,sans-Serif" font-size="10.00">SDL_AddKeyboard</text>
</a>
</g>
</g>
<!-- Node2 -->
<g id="Node000002" class="node">
<title>Node2</title>
<g id="a_Node000002"><a xlink:href="../../d7/da0/SDL__wscons__kbd_8c.html#a7547c3be23bda9d42f7b1743c1fd19c4" target="_top" xlink:title=" ">
<polygon fill="white" stroke="#666666" points="293,-58 141.25,-58 141.25,-38 293,-38 293,-58"/>
<text xml:space="preserve" text-anchor="middle" x="217.12" y="-44.5" font-family="Helvetica,sans-Serif" font-size="10.00">SDL_WSCONS_Init_Keyboard</text>
</a>
</g>
</g>
<!-- Node1&#45;&gt;Node2 -->
<g id="edge1_Node000001_Node000002" class="edge">
<title>Node1&#45;&gt;Node2</title>
<g id="a_edge1_Node000001_Node000002"><a xlink:title=" ">
<path fill="none" stroke="#63b8ff" d="M317.53,-36.16C309.61,-37.1 301.41,-38.08 293.28,-39.05"/>
<polygon fill="#63b8ff" stroke="#63b8ff" points="317.88,-39.64 327.4,-34.98 317.06,-32.69 317.88,-39.64"/>
</a>
</g>
</g>
<!-- Node4 -->
<g id="Node000004" class="node">
<title>Node4</title>
<g id="a_Node000004"><a xlink:href="../../db/dff/SDL__qnxvideo_8c.html#a907a906dfb5aeb95fbb775e08410195e" target="_top" xlink:title=" ">
<polygon fill="white" stroke="#666666" points="243.5,-20 190.75,-20 190.75,0 243.5,0 243.5,-20"/>
<text xml:space="preserve" text-anchor="middle" x="217.12" y="-6.5" font-family="Helvetica,sans-Serif" font-size="10.00">videoInit</text>
</a>
</g>
</g>
<!-- Node1&#45;&gt;Node4 -->
<g id="edge3_Node000001_Node000004" class="edge">
<title>Node1&#45;&gt;Node4</title>
<g id="a_edge3_Node000001_Node000004"><a xlink:title=" ">
<path fill="none" stroke="#63b8ff" d="M317.8,-21.87C292.27,-18.83 263.82,-15.44 243.88,-13.07"/>
<polygon fill="#63b8ff" stroke="#63b8ff" points="317.06,-25.31 327.4,-23.02 317.88,-18.36 317.06,-25.31"/>
</a>
</g>
</g>
<!-- Node3 -->
<g id="Node000003" class="node">
<title>Node3</title>
<g id="a_Node000003"><a xlink:href="../../d7/da0/SDL__wscons__kbd_8c.html#add438507e5e81220cafc78f9dbfac651" target="_top" xlink:title=" ">
<polygon fill="white" stroke="#666666" points="105.25,-58 0,-58 0,-38 105.25,-38 105.25,-58"/>
<text xml:space="preserve" text-anchor="middle" x="52.62" y="-44.5" font-family="Helvetica,sans-Serif" font-size="10.00">SDL_WSCONS_Init</text>
</a>
</g>
</g>
<!-- Node2&#45;&gt;Node3 -->
<g id="edge2_Node000002_Node000003" class="edge">
<title>Node2&#45;&gt;Node3</title>
<g id="a_edge2_Node000002_Node000003"><a xlink:title=" ">
<path fill="none" stroke="#63b8ff" d="M129.81,-48C121.57,-48 113.4,-48 105.64,-48"/>
<polygon fill="#63b8ff" stroke="#63b8ff" points="129.55,-51.5 139.55,-48 129.55,-44.5 129.55,-51.5"/>
</a>
</g>
</g>
<!-- Node5 -->
<g id="Node000005" class="node">
<title>Node5</title>
<g id="a_Node000005"><a xlink:href="../../db/dff/SDL__qnxvideo_8c.html#ae6d41c8ecd96e19777886580f3274ce1" target="_top" xlink:title=" ">
<polygon fill="white" stroke="#666666" points="89.5,-20 15.75,-20 15.75,0 89.5,0 89.5,-20"/>
<text xml:space="preserve" text-anchor="middle" x="52.62" y="-6.5" font-family="Helvetica,sans-Serif" font-size="10.00">createDevice</text>
</a>
</g>
</g>
<!-- Node4&#45;&gt;Node5 -->
<g id="edge4_Node000004_Node000005" class="edge">
<title>Node4&#45;&gt;Node5</title>
<g id="a_edge4_Node000004_Node000005"><a xlink:title=" ">
<path fill="none" stroke="#63b8ff" d="M179.16,-10C152.4,-10 116.41,-10 89.83,-10"/>
<polygon fill="#63b8ff" stroke="#63b8ff" points="178.86,-13.5 188.86,-10 178.86,-6.5 178.86,-13.5"/>
</a>
</g>
</g>
</g>
</svg>
