<?xml version="1.0" encoding="UTF-8" standalone="no"?>
<!DOCTYPE svg PUBLIC "-//W3C//DTD SVG 1.1//EN"
 "http://www.w3.org/Graphics/SVG/1.1/DTD/svg11.dtd">
<!-- Generated by graphviz version 13.1.0 (20250701.0955)
 -->
<!-- Title: SDL_KeycodeOptionsChanged Pages: 1 -->
<svg width="476pt" height="66pt"
 viewBox="0.00 0.00 476.00 66.00" xmlns="http://www.w3.org/2000/svg" xmlns:xlink="http://www.w3.org/1999/xlink">

<svg id="main" version="1.1" xmlns="http://www.w3.org/2000/svg" xmlns:xlink="http://www.w3.org/1999/xlink" xml:space="preserve">

<style type="text/css"><![CDATA[
.node, .edge {opacity: 0.7;}
.node.selected, .edge.selected {opacity: 1;}
.edge:hover path { stroke: red; }
.edge:hover polygon { stroke: red; fill: red; }
]]></style>
<script type="application/ecmascript" xlink:href="../../svg.min.js"/>
<svg id="graph" class="graph">
<g id="graph0" class="graph" transform="scale(1 1) rotate(0) translate(4 62)">
<title>SDL_KeycodeOptionsChanged</title>
<!-- Node1 -->
<g id="Node000001" class="node">
<title>Node1</title>
<g id="a_Node000001"><a xlink:title=" ">
<polygon fill="#999999" stroke="#666666" points="151.75,-39 0,-39 0,-19 151.75,-19 151.75,-39"/>
<text xml:space="preserve" text-anchor="middle" x="75.88" y="-25.5" font-family="Helvetica,sans-Serif" font-size="10.00">SDL_KeycodeOptionsChanged</text>
</a>
</g>
</g>
<!-- Node2 -->
<g id="Node000002" class="node">
<title>Node2</title>
<g id="a_Node000002"><a xlink:href="../../d2/d23/SDL__string_8c.html#a73c3705dfae793f7c905d130caaf0980" target="_top" xlink:title=" ">
<polygon fill="white" stroke="#666666" points="251,-39 187.75,-39 187.75,-19 251,-19 251,-39"/>
<text xml:space="preserve" text-anchor="middle" x="219.38" y="-25.5" font-family="Helvetica,sans-Serif" font-size="10.00">SDL_strstr</text>
</a>
</g>
</g>
<!-- Node1&#45;&gt;Node2 -->
<g id="edge1_Node000001_Node000002" class="edge">
<title>Node1&#45;&gt;Node2</title>
<g id="a_edge1_Node000001_Node000002"><a xlink:title=" ">
<path fill="none" stroke="#63b8ff" d="M152.18,-29C160.33,-29 168.39,-29 175.93,-29"/>
<polygon fill="#63b8ff" stroke="#63b8ff" points="175.8,-32.5 185.8,-29 175.79,-25.5 175.8,-32.5"/>
</a>
</g>
</g>
<!-- Node3 -->
<g id="Node000003" class="node">
<title>Node3</title>
<g id="a_Node000003"><a xlink:href="../../d2/d23/SDL__string_8c.html#a38e76d86236f4a24cf0cc6863ec3ae9d" target="_top" xlink:title=" ">
<polygon fill="white" stroke="#666666" points="461.88,-58 397.12,-58 397.12,-38 461.88,-38 461.88,-58"/>
<text xml:space="preserve" text-anchor="middle" x="429.5" y="-44.5" font-family="Helvetica,sans-Serif" font-size="10.00">SDL_strlen</text>
</a>
</g>
</g>
<!-- Node2&#45;&gt;Node3 -->
<g id="edge2_Node000002_Node000003" class="edge">
<title>Node2&#45;&gt;Node3</title>
<g id="a_edge2_Node000002_Node000003"><a xlink:title=" ">
<path fill="none" stroke="#63b8ff" d="M251.08,-31.8C286.59,-35.04 345.28,-40.4 385.35,-44.06"/>
<polygon fill="#63b8ff" stroke="#63b8ff" points="384.85,-47.53 395.13,-44.95 385.49,-40.56 384.85,-47.53"/>
</a>
</g>
</g>
<!-- Node4 -->
<g id="Node000004" class="node">
<title>Node4</title>
<g id="a_Node000004"><a xlink:href="../../d2/d23/SDL__string_8c.html#aa62e80fe07d8d53989239340bef11dd6" target="_top" xlink:title=" ">
<polygon fill="white" stroke="#666666" points="355.5,-20 287,-20 287,0 355.5,0 355.5,-20"/>
<text xml:space="preserve" text-anchor="middle" x="321.25" y="-6.5" font-family="Helvetica,sans-Serif" font-size="10.00">SDL_strnstr</text>
</a>
</g>
</g>
<!-- Node2&#45;&gt;Node4 -->
<g id="edge3_Node000002_Node000004" class="edge">
<title>Node2&#45;&gt;Node4</title>
<g id="a_edge3_Node000002_Node000004"><a xlink:title=" ">
<path fill="none" stroke="#63b8ff" d="M251.43,-23.09C259.06,-21.64 267.38,-20.06 275.51,-18.51"/>
<polygon fill="#63b8ff" stroke="#63b8ff" points="276.13,-21.96 285.3,-16.65 274.82,-15.08 276.13,-21.96"/>
</a>
</g>
</g>
<!-- Node4&#45;&gt;Node3 -->
<g id="edge4_Node000004_Node000003" class="edge">
<title>Node4&#45;&gt;Node3</title>
<g id="a_edge4_Node000004_Node000003"><a xlink:title=" ">
<path fill="none" stroke="#63b8ff" d="M351.56,-20.48C363.06,-24.6 376.43,-29.38 388.78,-33.79"/>
<polygon fill="#63b8ff" stroke="#63b8ff" points="387.26,-36.97 397.86,-37.04 389.62,-30.38 387.26,-36.97"/>
</a>
</g>
</g>
<!-- Node5 -->
<g id="Node000005" class="node">
<title>Node5</title>
<g id="a_Node000005"><a xlink:href="../../d2/d23/SDL__string_8c.html#a48219d4c04e8e26365e9091f3eb9d540" target="_top" xlink:title=" ">
<polygon fill="white" stroke="#666666" points="467.5,-20 391.5,-20 391.5,0 467.5,0 467.5,-20"/>
<text xml:space="preserve" text-anchor="middle" x="429.5" y="-6.5" font-family="Helvetica,sans-Serif" font-size="10.00">SDL_strncmp</text>
</a>
</g>
</g>
<!-- Node4&#45;&gt;Node5 -->
<g id="edge5_Node000004_Node000005" class="edge">
<title>Node4&#45;&gt;Node5</title>
<g id="a_edge5_Node000004_Node000005"><a xlink:title=" ">
<path fill="none" stroke="#63b8ff" d="M355.87,-10C363.47,-10 371.69,-10 379.78,-10"/>
<polygon fill="#63b8ff" stroke="#63b8ff" points="379.53,-13.5 389.53,-10 379.53,-6.5 379.53,-13.5"/>
</a>
</g>
</g>
</g>
</svg>
</svg>

<style type='text/css'>
<![CDATA[
[data-mouse-over-selected='false'] { opacity: 0.7; }
[data-mouse-over-selected='true']  { opacity: 1.0; }
]]>
</style>
<script type="application/ecmascript"><![CDATA[
document.addEventListener('DOMContentLoaded', (event) => {
  highlightEdges();
  highlightAdjacentNodes();
});
]]></script>
</svg>
