<?xml version="1.0" encoding="UTF-8" standalone="no"?>
<!DOCTYPE svg PUBLIC "-//W3C//DTD SVG 1.1//EN"
 "http://www.w3.org/Graphics/SVG/1.1/DTD/svg11.dtd">
<!-- Generated by graphviz version 13.1.0 (20250701.0955)
 -->
<!-- Title: SDL_GetModState Pages: 1 -->
<svg width="699pt" height="66pt"
 viewBox="0.00 0.00 699.00 66.00" xmlns="http://www.w3.org/2000/svg" xmlns:xlink="http://www.w3.org/1999/xlink">
<g id="graph0" class="graph" transform="scale(1 1) rotate(0) translate(4 62)">
<title>SDL_GetModState</title>
<!-- Node1 -->
<g id="Node000001" class="node">
<title>Node1</title>
<g id="a_Node000001"><a xlink:title=" ">
<polygon fill="#999999" stroke="#666666" points="691.25,-39 592.75,-39 592.75,-19 691.25,-19 691.25,-39"/>
<text xml:space="preserve" text-anchor="middle" x="642" y="-25.5" font-family="Helvetica,sans-Serif" font-size="10.00">SDL_GetModState</text>
</a>
</g>
</g>
<!-- Node2 -->
<g id="Node000002" class="node">
<title>Node2</title>
<g id="a_Node000002"><a xlink:href="../../d8/d3d/SDL__fcitx_8c.html#a4024fa6ef01d675e2dda3f4c9164af53" target="_top" xlink:title=" ">
<polygon fill="white" stroke="#666666" points="510.62,-58 425.62,-58 425.62,-38 510.62,-38 510.62,-58"/>
<text xml:space="preserve" text-anchor="middle" x="468.12" y="-44.5" font-family="Helvetica,sans-Serif" font-size="10.00">Fcitx_ModState</text>
</a>
</g>
</g>
<!-- Node1&#45;&gt;Node2 -->
<g id="edge1_Node000001_Node000002" class="edge">
<title>Node1&#45;&gt;Node2</title>
<g id="a_edge1_Node000001_Node000002"><a xlink:title=" ">
<path fill="none" stroke="#63b8ff" d="M581.52,-35.58C558.27,-38.14 532.17,-41.03 510.97,-43.37"/>
<polygon fill="#63b8ff" stroke="#63b8ff" points="581.61,-39.09 591.16,-34.51 580.84,-32.13 581.61,-39.09"/>
</a>
</g>
</g>
<!-- Node6 -->
<g id="Node000006" class="node">
<title>Node6</title>
<g id="a_Node000006"><a xlink:href="../../d3/d13/SDL__keyboard_8c.html#aac81c1c129ef5257542232496d5489e4" target="_top" xlink:title=" ">
<polygon fill="white" stroke="#666666" points="556.75,-20 379.5,-20 379.5,0 556.75,0 556.75,-20"/>
<text xml:space="preserve" text-anchor="middle" x="468.12" y="-6.5" font-family="Helvetica,sans-Serif" font-size="10.00">SDL_SendKeyboardKeyAndKeycode</text>
</a>
</g>
</g>
<!-- Node1&#45;&gt;Node6 -->
<g id="edge5_Node000001_Node000006" class="edge">
<title>Node1&#45;&gt;Node6</title>
<g id="a_edge5_Node000001_Node000006"><a xlink:title=" ">
<path fill="none" stroke="#63b8ff" d="M581.42,-22.41C573.55,-21.54 565.37,-20.64 557.16,-19.73"/>
<polygon fill="#63b8ff" stroke="#63b8ff" points="580.84,-25.87 591.16,-23.49 581.61,-18.91 580.84,-25.87"/>
</a>
</g>
</g>
<!-- Node3 -->
<g id="Node000003" class="node">
<title>Node3</title>
<g id="a_Node000003"><a xlink:href="../../d8/d3d/SDL__fcitx_8c.html#a207758bbbddba50357f0c7515467e0d2" target="_top" xlink:title=" ">
<polygon fill="white" stroke="#666666" points="343.5,-58 197,-58 197,-38 343.5,-38 343.5,-58"/>
<text xml:space="preserve" text-anchor="middle" x="270.25" y="-44.5" font-family="Helvetica,sans-Serif" font-size="10.00">SDL_Fcitx_ProcessKeyEvent</text>
</a>
</g>
</g>
<!-- Node2&#45;&gt;Node3 -->
<g id="edge2_Node000002_Node000003" class="edge">
<title>Node2&#45;&gt;Node3</title>
<g id="a_edge2_Node000002_Node000003"><a xlink:title=" ">
<path fill="none" stroke="#63b8ff" d="M414.32,-48C392.7,-48 367.32,-48 343.99,-48"/>
<polygon fill="#63b8ff" stroke="#63b8ff" points="414.07,-51.5 424.07,-48 414.07,-44.5 414.07,-51.5"/>
</a>
</g>
</g>
<!-- Node4 -->
<g id="Node000004" class="node">
<title>Node4</title>
<g id="a_Node000004"><a xlink:href="../../d6/dca/SDL__ime_8c.html#a43c3ce1b3fb7c51d28e85239d2df465f" target="_top" xlink:title=" ">
<polygon fill="white" stroke="#666666" points="161,-58 113.5,-58 113.5,-38 161,-38 161,-58"/>
<text xml:space="preserve" text-anchor="middle" x="137.25" y="-44.5" font-family="Helvetica,sans-Serif" font-size="10.00">InitIME</text>
</a>
</g>
</g>
<!-- Node3&#45;&gt;Node4 -->
<g id="edge3_Node000003_Node000004" class="edge">
<title>Node3&#45;&gt;Node4</title>
<g id="a_edge3_Node000003_Node000004"><a xlink:title=" ">
<path fill="none" stroke="#63b8ff" d="M185.51,-48C176.72,-48 168.4,-48 161.27,-48"/>
<polygon fill="#63b8ff" stroke="#63b8ff" points="185.34,-51.5 195.34,-48 185.34,-44.5 185.34,-51.5"/>
</a>
</g>
</g>
<!-- Node5 -->
<g id="Node000005" class="node">
<title>Node5</title>
<g id="a_Node000005"><a xlink:href="../../d6/dca/SDL__ime_8c.html#aad8672e65d5ef336bee91410b6d6cebf" target="_top" xlink:title=" ">
<polygon fill="white" stroke="#666666" points="77.5,-58 0,-58 0,-38 77.5,-38 77.5,-58"/>
<text xml:space="preserve" text-anchor="middle" x="38.75" y="-44.5" font-family="Helvetica,sans-Serif" font-size="10.00">SDL_IME_Init</text>
</a>
</g>
</g>
<!-- Node4&#45;&gt;Node5 -->
<g id="edge4_Node000004_Node000005" class="edge">
<title>Node4&#45;&gt;Node5</title>
<g id="a_edge4_Node000004_Node000005"><a xlink:title=" ">
<path fill="none" stroke="#63b8ff" d="M102.06,-48C94.24,-48 85.89,-48 77.92,-48"/>
<polygon fill="#63b8ff" stroke="#63b8ff" points="101.87,-51.5 111.87,-48 101.87,-44.5 101.87,-51.5"/>
</a>
</g>
</g>
</g>
</svg>
