<?xml version="1.0" encoding="UTF-8" standalone="no"?>
<!DOCTYPE svg PUBLIC "-//W3C//DTD SVG 1.1//EN"
 "http://www.w3.org/Graphics/SVG/1.1/DTD/svg11.dtd">
<!-- Generated by graphviz version 13.1.0 (20250701.0955)
 -->
<!-- Title: SDL_IntPrecisionAdjust Pages: 1 -->
<!--zoomable 180 -->

<svg id="main" version="1.1" xmlns="http://www.w3.org/2000/svg" xmlns:xlink="http://www.w3.org/1999/xlink" xml:space="preserve" onload="init(evt)">

<style type="text/css"><![CDATA[
.node, .edge {opacity: 0.7;}
.node.selected, .edge.selected {opacity: 1;}
.edge:hover path { stroke: red; }
.edge:hover polygon { stroke: red; fill: red; }
]]></style>

<defs>
  <circle id="rim" cx="0" cy="0" r="7"/>
  <circle id="rim2" cx="0" cy="0" r="3.5"/>
  <g id="zoomPlus">
    <use xlink:href="#rim" fill="#404040"><set attributeName="fill" to="#808080" begin="zoomplus.mouseover" end="zoomplus.mouseout"/></use>
    <path d="M-4,0h8M0,-4v8" fill="none" stroke="white" stroke-width="1.5" pointer-events="none"/>
  </g>
  <g id="zoomMin">
    <use xlink:href="#rim" fill="#404040"><set attributeName="fill" to="#808080" begin="zoomminus.mouseover" end="zoomminus.mouseout"/></use>
    <path d="M-4,0h8" fill="none" stroke="white" stroke-width="1.5" pointer-events="none"/>
  </g>
  <g id="arrowUp" transform="translate(30 24)">
    <use xlink:href="#rim"/>
    <path pointer-events="none" fill="none" stroke="white" stroke-width="1.5" d="M0,-3.0v7 M-2.5,-0.5L0,-3.0L2.5,-0.5"/>
  </g>
  <g id="arrowRight" transform="rotate(90) translate(36 -43)">
    <use xlink:href="#rim"/>
    <path pointer-events="none" fill="none" stroke="white" stroke-width="1.5" d="M0,-3.0v7 M-2.5,-0.5L0,-3.0L2.5,-0.5"/>
  </g>
  <g id="arrowDown" transform="rotate(180) translate(-30 -48)">
    <use xlink:href="#rim"/>
    <path pointer-events="none" fill="none" stroke="white" stroke-width="1.5" d="M0,-3.0v7 M-2.5,-0.5L0,-3.0L2.5,-0.5"/>
  </g>
  <g id="arrowLeft" transform="rotate(270) translate(-36 17)">
    <use xlink:href="#rim"/>
    <path pointer-events="none" fill="none" stroke="white" stroke-width="1.5" d="M0,-3.0v7 M-2.5,-0.5L0,-3.0L2.5,-0.5"/>
  </g>
  <g id="resetDef">
    <use xlink:href="#rim2" fill="#404040"><set attributeName="fill" to="#808080" begin="reset.mouseover" end="reset.mouseout"/></use>
  </g>
</defs>
<script type="application/ecmascript">
var viewWidth = 810;
var viewHeight = 180;
var sectionId = 'dynsection-9';
</script>
<script type="application/ecmascript" xlink:href="../../svg.min.js"/>
<svg id="graph" class="graph">
<g id="viewport">
<title>SDL_IntPrecisionAdjust</title>
<!-- Node1 -->
<g id="Node000001" class="node">
<title>Node1</title>
<g id="a_Node000001"><a xlink:title=" ">
<polygon fill="#999999" stroke="#666666" points="801.75,-115 681.5,-115 681.5,-95 801.75,-95 801.75,-115"/>
<text xml:space="preserve" text-anchor="middle" x="741.62" y="-101.5" font-family="Helvetica,sans-Serif" font-size="10.00">SDL_IntPrecisionAdjust</text>
</a>
</g>
</g>
<!-- Node2 -->
<g id="Node000002" class="node">
<title>Node2</title>
<g id="a_Node000002"><a xlink:href="../../d2/d23/SDL__string_8c.html#a70eae60a42ef632d15f200ada9976c50" target="_top" xlink:title=" ">
<polygon fill="white" stroke="#666666" points="614.38,-172 532.38,-172 532.38,-152 614.38,-152 614.38,-172"/>
<text xml:space="preserve" text-anchor="middle" x="573.38" y="-158.5" font-family="Helvetica,sans-Serif" font-size="10.00">SDL_PrintLong</text>
</a>
</g>
</g>
<!-- Node1&#45;&gt;Node2 -->
<g id="edge1_Node000001_Node000002" class="edge">
<title>Node1&#45;&gt;Node2</title>
<g id="a_edge1_Node000001_Node000002"><a xlink:title=" ">
<path fill="none" stroke="#63b8ff" d="M700.05,-119.16C683.19,-125.02 663.41,-131.87 645.5,-138 632.43,-142.47 617.99,-147.36 605.55,-151.54"/>
<polygon fill="#63b8ff" stroke="#63b8ff" points="700.93,-122.56 709.23,-115.97 698.63,-115.95 700.93,-122.56"/>
</a>
</g>
</g>
<!-- Node9 -->
<g id="Node000009" class="node">
<title>Node9</title>
<g id="a_Node000009"><a xlink:href="../../d2/d23/SDL__string_8c.html#af143c2808dcd24b553e875ac9c6af287" target="_top" xlink:title=" ">
<polygon fill="white" stroke="#666666" points="455.12,-134 352.12,-134 352.12,-114 455.12,-114 455.12,-134"/>
<text xml:space="preserve" text-anchor="middle" x="403.62" y="-120.5" font-family="Helvetica,sans-Serif" font-size="10.00">SDL_PrintLongLong</text>
</a>
</g>
</g>
<!-- Node1&#45;&gt;Node9 -->
<g id="edge8_Node000001_Node000009" class="edge">
<title>Node1&#45;&gt;Node9</title>
<g id="a_edge8_Node000001_Node000009"><a xlink:title=" ">
<path fill="none" stroke="#63b8ff" d="M670.09,-108.99C605.85,-112.62 512.54,-117.9 455.37,-121.13"/>
<polygon fill="#63b8ff" stroke="#63b8ff" points="670.03,-112.5 679.82,-108.44 669.64,-105.51 670.03,-112.5"/>
</a>
</g>
</g>
<!-- Node10 -->
<g id="Node000010" class="node">
<title>Node10</title>
<g id="a_Node000010"><a xlink:href="../../d2/d23/SDL__string_8c.html#af0e8ac806522cc8c47fd1dd6415cc94d" target="_top" xlink:title=" ">
<polygon fill="white" stroke="#666666" points="465.25,-96 342,-96 342,-76 465.25,-76 465.25,-96"/>
<text xml:space="preserve" text-anchor="middle" x="403.62" y="-82.5" font-family="Helvetica,sans-Serif" font-size="10.00">SDL_PrintUnsignedLong</text>
</a>
</g>
</g>
<!-- Node1&#45;&gt;Node10 -->
<g id="edge10_Node000001_Node000010" class="edge">
<title>Node1&#45;&gt;Node10</title>
<g id="a_edge10_Node000001_Node000010"><a xlink:title=" ">
<path fill="none" stroke="#63b8ff" d="M669.96,-101C609.43,-97.58 523.15,-92.7 465.6,-89.45"/>
<polygon fill="#63b8ff" stroke="#63b8ff" points="669.64,-104.49 679.82,-101.56 670.03,-97.5 669.64,-104.49"/>
</a>
</g>
</g>
<!-- Node11 -->
<g id="Node000011" class="node">
<title>Node11</title>
<g id="a_Node000011"><a xlink:href="../../d2/d23/SDL__string_8c.html#a6fd24ca8a7b69cfdcc3909db5f5c486f" target="_top" xlink:title=" ">
<polygon fill="white" stroke="#666666" points="645.5,-58 501.25,-58 501.25,-38 645.5,-38 645.5,-58"/>
<text xml:space="preserve" text-anchor="middle" x="573.38" y="-44.5" font-family="Helvetica,sans-Serif" font-size="10.00">SDL_PrintUnsignedLongLong</text>
</a>
</g>
</g>
<!-- Node1&#45;&gt;Node11 -->
<g id="edge12_Node000001_Node000011" class="edge">
<title>Node1&#45;&gt;Node11</title>
<g id="a_edge12_Node000001_Node000011"><a xlink:title=" ">
<path fill="none" stroke="#63b8ff" d="M700.05,-90.84C683.19,-84.98 663.41,-78.13 645.5,-72 632.43,-67.53 617.99,-62.64 605.55,-58.46"/>
<polygon fill="#63b8ff" stroke="#63b8ff" points="698.63,-94.05 709.23,-94.03 700.93,-87.44 698.63,-94.05"/>
</a>
</g>
</g>
<!-- Node3 -->
<g id="Node000003" class="node">
<title>Node3</title>
<g id="a_Node000003"><a xlink:href="../../d2/d23/SDL__string_8c.html#ac045d0f2abb687c4fb1930fa71f3c6e4" target="_top" xlink:title=" ">
<polygon fill="white" stroke="#666666" points="306,-96 227.75,-96 227.75,-76 306,-76 306,-96"/>
<text xml:space="preserve" text-anchor="middle" x="266.88" y="-82.5" font-family="Helvetica,sans-Serif" font-size="10.00">SDL_vsnprintf</text>
</a>
</g>
</g>
<!-- Node2&#45;&gt;Node3 -->
<g id="edge2_Node000002_Node000003" class="edge">
<title>Node2&#45;&gt;Node3</title>
<g id="a_edge2_Node000002_Node000003"><a xlink:title=" ">
<path fill="none" stroke="#63b8ff" d="M520.8,-165.91C472.85,-167.68 400.27,-165.53 342,-143 315.35,-132.7 290.31,-109.62 277.26,-96.2"/>
<polygon fill="#63b8ff" stroke="#63b8ff" points="520.79,-169.42 530.63,-165.47 520.48,-162.42 520.79,-169.42"/>
</a>
</g>
</g>
<!-- Node4 -->
<g id="Node000004" class="node">
<title>Node4</title>
<g id="a_Node000004"><a xlink:href="../../d2/d23/SDL__string_8c.html#a341f84036f21fecf2df2a921064c19ea" target="_top" xlink:title=" ">
<polygon fill="white" stroke="#666666" points="188,-134 115,-134 115,-114 188,-114 188,-134"/>
<text xml:space="preserve" text-anchor="middle" x="151.5" y="-120.5" font-family="Helvetica,sans-Serif" font-size="10.00">SDL_snprintf</text>
</a>
</g>
</g>
<!-- Node3&#45;&gt;Node4 -->
<g id="edge3_Node000003_Node000004" class="edge">
<title>Node3&#45;&gt;Node4</title>
<g id="a_edge3_Node000003_Node000004"><a xlink:title=" ">
<path fill="none" stroke="#63b8ff" d="M223.78,-100.11C210.49,-104.56 196.06,-109.4 183.68,-113.55"/>
<polygon fill="#63b8ff" stroke="#63b8ff" points="224.79,-103.46 233.16,-96.97 222.57,-96.82 224.79,-103.46"/>
</a>
</g>
</g>
<!-- Node5 -->
<g id="Node000005" class="node">
<title>Node5</title>
<g id="a_Node000005"><a xlink:href="../../d2/d23/SDL__string_8c.html#a928f79a15fd8c0b32286eb99ab979a7f" target="_top" xlink:title=" ">
<polygon fill="white" stroke="#666666" points="190.62,-96 112.38,-96 112.38,-76 190.62,-76 190.62,-96"/>
<text xml:space="preserve" text-anchor="middle" x="151.5" y="-82.5" font-family="Helvetica,sans-Serif" font-size="10.00">SDL_vasprintf</text>
</a>
</g>
</g>
<!-- Node3&#45;&gt;Node5 -->
<g id="edge4_Node000003_Node000005" class="edge">
<title>Node3&#45;&gt;Node5</title>
<g id="a_edge4_Node000003_Node000005"><a xlink:title=" ">
<path fill="none" stroke="#63b8ff" d="M216.13,-86C207.66,-86 198.97,-86 190.84,-86"/>
<polygon fill="#63b8ff" stroke="#63b8ff" points="215.98,-89.5 225.98,-86 215.98,-82.5 215.98,-89.5"/>
</a>
</g>
</g>
<!-- Node7 -->
<g id="Node000007" class="node">
<title>Node7</title>
<g id="a_Node000007"><a xlink:href="../../d2/d23/SDL__string_8c.html#ab7783097fe72685917c334545049783c" target="_top" xlink:title=" ">
<polygon fill="white" stroke="#666666" points="191.75,-58 111.25,-58 111.25,-38 191.75,-38 191.75,-58"/>
<text xml:space="preserve" text-anchor="middle" x="151.5" y="-44.5" font-family="Helvetica,sans-Serif" font-size="10.00">SDL_vswprintf</text>
</a>
</g>
</g>
<!-- Node3&#45;&gt;Node7 -->
<g id="edge6_Node000003_Node000007" class="edge">
<title>Node3&#45;&gt;Node7</title>
<g id="a_edge6_Node000003_Node000007"><a xlink:title=" ">
<path fill="none" stroke="#63b8ff" d="M223.78,-71.89C210.49,-67.44 196.06,-62.6 183.68,-58.45"/>
<polygon fill="#63b8ff" stroke="#63b8ff" points="222.57,-75.18 233.16,-75.03 224.79,-68.54 222.57,-75.18"/>
</a>
</g>
</g>
<!-- Node6 -->
<g id="Node000006" class="node">
<title>Node6</title>
<g id="a_Node000006"><a xlink:href="../../d2/d23/SDL__string_8c.html#a1cb1662c330757b981f625eff4fef580" target="_top" xlink:title=" ">
<polygon fill="white" stroke="#666666" points="74.12,-96 1.12,-96 1.12,-76 74.12,-76 74.12,-96"/>
<text xml:space="preserve" text-anchor="middle" x="37.62" y="-82.5" font-family="Helvetica,sans-Serif" font-size="10.00">SDL_asprintf</text>
</a>
</g>
</g>
<!-- Node5&#45;&gt;Node6 -->
<g id="edge5_Node000005_Node000006" class="edge">
<title>Node5&#45;&gt;Node6</title>
<g id="a_edge5_Node000005_Node000006"><a xlink:title=" ">
<path fill="none" stroke="#63b8ff" d="M100.64,-86C91.86,-86 82.87,-86 74.56,-86"/>
<polygon fill="#63b8ff" stroke="#63b8ff" points="100.49,-89.5 110.49,-86 100.49,-82.5 100.49,-89.5"/>
</a>
</g>
</g>
<!-- Node8 -->
<g id="Node000008" class="node">
<title>Node8</title>
<g id="a_Node000008"><a xlink:href="../../d2/d23/SDL__string_8c.html#a4ffd62be409572c6e55efd473d9fff26" target="_top" xlink:title=" ">
<polygon fill="white" stroke="#666666" points="75.25,-58 0,-58 0,-38 75.25,-38 75.25,-58"/>
<text xml:space="preserve" text-anchor="middle" x="37.62" y="-44.5" font-family="Helvetica,sans-Serif" font-size="10.00">SDL_swprintf</text>
</a>
</g>
</g>
<!-- Node7&#45;&gt;Node8 -->
<g id="edge7_Node000007_Node000008" class="edge">
<title>Node7&#45;&gt;Node8</title>
<g id="a_edge7_Node000007_Node000008"><a xlink:title=" ">
<path fill="none" stroke="#63b8ff" d="M99.69,-48C91.53,-48 83.22,-48 75.47,-48"/>
<polygon fill="#63b8ff" stroke="#63b8ff" points="99.54,-51.5 109.54,-48 99.54,-44.5 99.54,-51.5"/>
</a>
</g>
</g>
<!-- Node9&#45;&gt;Node3 -->
<g id="edge9_Node000009_Node000003" class="edge">
<title>Node9&#45;&gt;Node3</title>
<g id="a_edge9_Node000009_Node000003"><a xlink:title=" ">
<path fill="none" stroke="#63b8ff" d="M354.48,-110.42C338.17,-105.82 320.23,-100.77 304.93,-96.45"/>
<polygon fill="#63b8ff" stroke="#63b8ff" points="353.42,-113.76 363.99,-113.1 355.32,-107.02 353.42,-113.76"/>
</a>
</g>
</g>
<!-- Node10&#45;&gt;Node3 -->
<g id="edge11_Node000010_Node000003" class="edge">
<title>Node10&#45;&gt;Node3</title>
<g id="a_edge11_Node000010_Node000003"><a xlink:title=" ">
<path fill="none" stroke="#63b8ff" d="M330.3,-86C322.05,-86 313.9,-86 306.35,-86"/>
<polygon fill="#63b8ff" stroke="#63b8ff" points="330.04,-89.5 340.04,-86 330.04,-82.5 330.04,-89.5"/>
</a>
</g>
</g>
<!-- Node11&#45;&gt;Node3 -->
<g id="edge15_Node000011_Node000003" class="edge">
<title>Node11&#45;&gt;Node3</title>
<g id="a_edge15_Node000011_Node000003"><a xlink:title=" ">
<path fill="none" stroke="#63b8ff" d="M489.65,-51.44C445.59,-54.12 390.6,-58.83 342,-67 329.29,-69.14 315.57,-72.38 303.43,-75.59"/>
<polygon fill="#63b8ff" stroke="#63b8ff" points="489.61,-54.95 499.39,-50.87 489.2,-47.96 489.61,-54.95"/>
</a>
</g>
</g>
<!-- Node12 -->
<g id="Node000012" class="node">
<title>Node12</title>
<g id="a_Node000012"><a xlink:href="../../d2/d23/SDL__string_8c.html#a6d130c6cb85addf07b90c08cf31d0af6" target="_top" xlink:title=" ">
<polygon fill="white" stroke="#666666" points="445,-20 362.25,-20 362.25,0 445,0 445,-20"/>
<text xml:space="preserve" text-anchor="middle" x="403.62" y="-6.5" font-family="Helvetica,sans-Serif" font-size="10.00">SDL_PrintFloat</text>
</a>
</g>
</g>
<!-- Node11&#45;&gt;Node12 -->
<g id="edge13_Node000011_Node000012" class="edge">
<title>Node11&#45;&gt;Node12</title>
<g id="a_edge13_Node000011_Node000012"><a xlink:title=" ">
<path fill="none" stroke="#63b8ff" d="M515.11,-35.03C492.17,-29.83 466.28,-23.97 445.33,-19.22"/>
<polygon fill="#63b8ff" stroke="#63b8ff" points="514.09,-38.39 524.62,-37.18 515.64,-31.56 514.09,-38.39"/>
</a>
</g>
</g>
<!-- Node12&#45;&gt;Node3 -->
<g id="edge14_Node000012_Node000003" class="edge">
<title>Node12&#45;&gt;Node3</title>
<g id="a_edge14_Node000012_Node000003"><a xlink:title=" ">
<path fill="none" stroke="#63b8ff" d="M361.7,-24.67C354.99,-27.51 348.21,-30.65 342,-34 319.17,-46.31 294.97,-64.35 280.66,-75.62"/>
<polygon fill="#63b8ff" stroke="#63b8ff" points="362.72,-28.04 370.68,-21.05 360.1,-21.55 362.72,-28.04"/>
</a>
</g>
</g>
</g>
</svg>

<g id="navigator" transform="translate(0 0)" fill="#404254">
  <rect fill="#f2f5e9" fill-opacity="0.5" stroke="#606060" stroke-width=".5" x="0" y="0" width="60" height="60"/>
  <use id="zoomplus" xlink:href="#zoomPlus" x="17" y="9" onmousedown="handleZoom(evt,'in')"/>
  <use id="zoomminus" xlink:href="#zoomMin" x="42" y="9" onmousedown="handleZoom(evt,'out')"/>
  <use id="reset" xlink:href="#resetDef" x="30" y="36" onmousedown="handleReset()"/>
   <use id="arrowup" xlink:href="#arrowUp" x="0" y="0" onmousedown="handlePan(0,-1)"/>
  <use id="arrowright" xlink:href="#arrowRight" x="0" y="0" onmousedown="handlePan(1,0)"/>
  <use id="arrowdown" xlink:href="#arrowDown" x="0" y="0" onmousedown="handlePan(0,1)"/>
  <use id="arrowleft" xlink:href="#arrowLeft" x="0" y="0" onmousedown="handlePan(-1,0)"/>
</g>
<svg viewBox="0 0 15 15" width="100%" height="30px" preserveAspectRatio="xMaxYMin meet">
 <g id="arrow_out" transform="scale(0.3 0.3)">
  <a xlink:href="SDL__string_8c_abaff50ff4c82bc7f6aaaf0a2f363b4a0_icgraph_org.svg" target="_base">
   <rect id="button" ry="5" rx="5" y="6" x="6" height="38" width="38"
        fill="#f2f5e9" fill-opacity="0.5" stroke="#606060" stroke-width="1.0"/>
   <path id="arrow"
     d="M 11.500037,31.436501 C 11.940474,20.09759 22.043105,11.32322 32.158766,21.979434 L 37.068811,17.246167 C 37.068811,17.246167 37.088388,32 37.088388,32 L 22.160133,31.978069 C 22.160133,31.978069 26.997745,27.140456 26.997745,27.140456 C 18.528582,18.264221 13.291696,25.230495 11.500037,31.436501 z"
     style="fill:#404040;"/>
  </a>
 </g>
</svg>

<style type='text/css'>
<![CDATA[
[data-mouse-over-selected='false'] { opacity: 0.7; }
[data-mouse-over-selected='true']  { opacity: 1.0; }
]]>
</style>
<script type="application/ecmascript"><![CDATA[
document.addEventListener('DOMContentLoaded', (event) => {
  highlightEdges();
  highlightAdjacentNodes();
});
]]></script>
</svg>
