<?xml version="1.0" encoding="UTF-8" standalone="no"?>
<!DOCTYPE svg PUBLIC "-//W3C//DTD SVG 1.1//EN"
 "http://www.w3.org/Graphics/SVG/1.1/DTD/svg11.dtd">
<!-- Generated by graphviz version 13.1.0 (20250701.0955)
 -->
<!-- Title: SDL_PrintLong Pages: 1 -->
<svg width="432pt" height="104pt"
 viewBox="0.00 0.00 432.00 104.00" xmlns="http://www.w3.org/2000/svg" xmlns:xlink="http://www.w3.org/1999/xlink">
<g id="graph0" class="graph" transform="scale(1 1) rotate(0) translate(4 100)">
<title>SDL_PrintLong</title>
<!-- Node1 -->
<g id="Node000001" class="node">
<title>Node1</title>
<g id="a_Node000001"><a xlink:title=" ">
<polygon fill="#999999" stroke="#666666" points="424,-58 342,-58 342,-38 424,-38 424,-58"/>
<text xml:space="preserve" text-anchor="middle" x="383" y="-44.5" font-family="Helvetica,sans-Serif" font-size="10.00">SDL_PrintLong</text>
</a>
</g>
</g>
<!-- Node2 -->
<g id="Node000002" class="node">
<title>Node2</title>
<g id="a_Node000002"><a xlink:href="../../d2/d23/SDL__string_8c.html#ac045d0f2abb687c4fb1930fa71f3c6e4" target="_top" xlink:title=" ">
<polygon fill="white" stroke="#666666" points="306,-58 227.75,-58 227.75,-38 306,-38 306,-58"/>
<text xml:space="preserve" text-anchor="middle" x="266.88" y="-44.5" font-family="Helvetica,sans-Serif" font-size="10.00">SDL_vsnprintf</text>
</a>
</g>
</g>
<!-- Node1&#45;&gt;Node2 -->
<g id="edge1_Node000001_Node000002" class="edge">
<title>Node1&#45;&gt;Node2</title>
<g id="a_edge1_Node000001_Node000002"><a xlink:title=" ">
<path fill="none" stroke="#63b8ff" d="M330.42,-48C322.28,-48 313.99,-48 306.22,-48"/>
<polygon fill="#63b8ff" stroke="#63b8ff" points="330.25,-51.5 340.25,-48 330.25,-44.5 330.25,-51.5"/>
</a>
</g>
</g>
<!-- Node3 -->
<g id="Node000003" class="node">
<title>Node3</title>
<g id="a_Node000003"><a xlink:href="../../d2/d23/SDL__string_8c.html#a341f84036f21fecf2df2a921064c19ea" target="_top" xlink:title=" ">
<polygon fill="white" stroke="#666666" points="188,-96 115,-96 115,-76 188,-76 188,-96"/>
<text xml:space="preserve" text-anchor="middle" x="151.5" y="-82.5" font-family="Helvetica,sans-Serif" font-size="10.00">SDL_snprintf</text>
</a>
</g>
</g>
<!-- Node2&#45;&gt;Node3 -->
<g id="edge2_Node000002_Node000003" class="edge">
<title>Node2&#45;&gt;Node3</title>
<g id="a_edge2_Node000002_Node000003"><a xlink:title=" ">
<path fill="none" stroke="#63b8ff" d="M223.78,-62.11C210.49,-66.56 196.06,-71.4 183.68,-75.55"/>
<polygon fill="#63b8ff" stroke="#63b8ff" points="224.79,-65.46 233.16,-58.97 222.57,-58.82 224.79,-65.46"/>
</a>
</g>
</g>
<!-- Node4 -->
<g id="Node000004" class="node">
<title>Node4</title>
<g id="a_Node000004"><a xlink:href="../../d2/d23/SDL__string_8c.html#a928f79a15fd8c0b32286eb99ab979a7f" target="_top" xlink:title=" ">
<polygon fill="white" stroke="#666666" points="190.62,-58 112.38,-58 112.38,-38 190.62,-38 190.62,-58"/>
<text xml:space="preserve" text-anchor="middle" x="151.5" y="-44.5" font-family="Helvetica,sans-Serif" font-size="10.00">SDL_vasprintf</text>
</a>
</g>
</g>
<!-- Node2&#45;&gt;Node4 -->
<g id="edge3_Node000002_Node000004" class="edge">
<title>Node2&#45;&gt;Node4</title>
<g id="a_edge3_Node000002_Node000004"><a xlink:title=" ">
<path fill="none" stroke="#63b8ff" d="M216.13,-48C207.66,-48 198.97,-48 190.84,-48"/>
<polygon fill="#63b8ff" stroke="#63b8ff" points="215.98,-51.5 225.98,-48 215.98,-44.5 215.98,-51.5"/>
</a>
</g>
</g>
<!-- Node6 -->
<g id="Node000006" class="node">
<title>Node6</title>
<g id="a_Node000006"><a xlink:href="../../d2/d23/SDL__string_8c.html#ab7783097fe72685917c334545049783c" target="_top" xlink:title=" ">
<polygon fill="white" stroke="#666666" points="191.75,-20 111.25,-20 111.25,0 191.75,0 191.75,-20"/>
<text xml:space="preserve" text-anchor="middle" x="151.5" y="-6.5" font-family="Helvetica,sans-Serif" font-size="10.00">SDL_vswprintf</text>
</a>
</g>
</g>
<!-- Node2&#45;&gt;Node6 -->
<g id="edge5_Node000002_Node000006" class="edge">
<title>Node2&#45;&gt;Node6</title>
<g id="a_edge5_Node000002_Node000006"><a xlink:title=" ">
<path fill="none" stroke="#63b8ff" d="M223.78,-33.89C210.49,-29.44 196.06,-24.6 183.68,-20.45"/>
<polygon fill="#63b8ff" stroke="#63b8ff" points="222.57,-37.18 233.16,-37.03 224.79,-30.54 222.57,-37.18"/>
</a>
</g>
</g>
<!-- Node5 -->
<g id="Node000005" class="node">
<title>Node5</title>
<g id="a_Node000005"><a xlink:href="../../d2/d23/SDL__string_8c.html#a1cb1662c330757b981f625eff4fef580" target="_top" xlink:title=" ">
<polygon fill="white" stroke="#666666" points="74.12,-58 1.12,-58 1.12,-38 74.12,-38 74.12,-58"/>
<text xml:space="preserve" text-anchor="middle" x="37.62" y="-44.5" font-family="Helvetica,sans-Serif" font-size="10.00">SDL_asprintf</text>
</a>
</g>
</g>
<!-- Node4&#45;&gt;Node5 -->
<g id="edge4_Node000004_Node000005" class="edge">
<title>Node4&#45;&gt;Node5</title>
<g id="a_edge4_Node000004_Node000005"><a xlink:title=" ">
<path fill="none" stroke="#63b8ff" d="M100.64,-48C91.86,-48 82.87,-48 74.56,-48"/>
<polygon fill="#63b8ff" stroke="#63b8ff" points="100.49,-51.5 110.49,-48 100.49,-44.5 100.49,-51.5"/>
</a>
</g>
</g>
<!-- Node7 -->
<g id="Node000007" class="node">
<title>Node7</title>
<g id="a_Node000007"><a xlink:href="../../d2/d23/SDL__string_8c.html#a4ffd62be409572c6e55efd473d9fff26" target="_top" xlink:title=" ">
<polygon fill="white" stroke="#666666" points="75.25,-20 0,-20 0,0 75.25,0 75.25,-20"/>
<text xml:space="preserve" text-anchor="middle" x="37.62" y="-6.5" font-family="Helvetica,sans-Serif" font-size="10.00">SDL_swprintf</text>
</a>
</g>
</g>
<!-- Node6&#45;&gt;Node7 -->
<g id="edge6_Node000006_Node000007" class="edge">
<title>Node6&#45;&gt;Node7</title>
<g id="a_edge6_Node000006_Node000007"><a xlink:title=" ">
<path fill="none" stroke="#63b8ff" d="M99.69,-10C91.53,-10 83.22,-10 75.47,-10"/>
<polygon fill="#63b8ff" stroke="#63b8ff" points="99.54,-13.5 109.54,-10 99.54,-6.5 99.54,-13.5"/>
</a>
</g>
</g>
</g>
</svg>
