<?xml version="1.0" encoding="UTF-8" standalone="no"?>
<!DOCTYPE svg PUBLIC "-//W3C//DTD SVG 1.1//EN"
 "http://www.w3.org/Graphics/SVG/1.1/DTD/svg11.dtd">
<!-- Generated by graphviz version 13.1.0 (20250701.0955)
 -->
<!-- Title: SDL_ulltoa Pages: 1 -->
<svg width="274pt" height="28pt"
 viewBox="0.00 0.00 274.00 28.00" xmlns="http://www.w3.org/2000/svg" xmlns:xlink="http://www.w3.org/1999/xlink">
<g id="graph0" class="graph" transform="scale(1 1) rotate(0) translate(4 24)">
<title>SDL_ulltoa</title>
<!-- Node1 -->
<g id="Node000001" class="node">
<title>Node1</title>
<g id="a_Node000001"><a xlink:title=" ">
<polygon fill="#999999" stroke="#666666" points="64,-20 0,-20 0,0 64,0 64,-20"/>
<text xml:space="preserve" text-anchor="middle" x="32" y="-6.5" font-family="Helvetica,sans-Serif" font-size="10.00">SDL_ulltoa</text>
</a>
</g>
</g>
<!-- Node2 -->
<g id="Node000002" class="node">
<title>Node2</title>
<g id="a_Node000002"><a xlink:href="../../d2/d23/SDL__string_8c.html#ac1248f74c54f8a32fb9b85ff05e2ac3e" target="_top" xlink:title=" ">
<polygon fill="white" stroke="#666666" points="165.5,-20 100,-20 100,0 165.5,0 165.5,-20"/>
<text xml:space="preserve" text-anchor="middle" x="132.75" y="-6.5" font-family="Helvetica,sans-Serif" font-size="10.00">SDL_strrev</text>
</a>
</g>
</g>
<!-- Node1&#45;&gt;Node2 -->
<g id="edge1_Node000001_Node000002" class="edge">
<title>Node1&#45;&gt;Node2</title>
<g id="a_edge1_Node000001_Node000002"><a xlink:title=" ">
<path fill="none" stroke="#63b8ff" d="M64.25,-10C71.93,-10 80.29,-10 88.43,-10"/>
<polygon fill="#63b8ff" stroke="#63b8ff" points="88.18,-13.5 98.18,-10 88.18,-6.5 88.18,-13.5"/>
</a>
</g>
</g>
<!-- Node3 -->
<g id="Node000003" class="node">
<title>Node3</title>
<g id="a_Node000003"><a xlink:href="../../d2/d23/SDL__string_8c.html#a38e76d86236f4a24cf0cc6863ec3ae9d" target="_top" xlink:title=" ">
<polygon fill="white" stroke="#666666" points="266.25,-20 201.5,-20 201.5,0 266.25,0 266.25,-20"/>
<text xml:space="preserve" text-anchor="middle" x="233.88" y="-6.5" font-family="Helvetica,sans-Serif" font-size="10.00">SDL_strlen</text>
</a>
</g>
</g>
<!-- Node2&#45;&gt;Node3 -->
<g id="edge2_Node000002_Node000003" class="edge">
<title>Node2&#45;&gt;Node3</title>
<g id="a_edge2_Node000002_Node000003"><a xlink:title=" ">
<path fill="none" stroke="#63b8ff" d="M165.93,-10C173.53,-10 181.75,-10 189.74,-10"/>
<polygon fill="#63b8ff" stroke="#63b8ff" points="189.68,-13.5 199.68,-10 189.68,-6.5 189.68,-13.5"/>
</a>
</g>
</g>
</g>
</svg>
