<?xml version="1.0" encoding="UTF-8" standalone="no"?>
<!DOCTYPE svg PUBLIC "-//W3C//DTD SVG 1.1//EN"
 "http://www.w3.org/Graphics/SVG/1.1/DTD/svg11.dtd">
<!-- Generated by graphviz version 13.1.0 (20250701.0955)
 -->
<!-- Title: SDL_ultoa Pages: 1 -->
<svg width="272pt" height="28pt"
 viewBox="0.00 0.00 272.00 28.00" xmlns="http://www.w3.org/2000/svg" xmlns:xlink="http://www.w3.org/1999/xlink">
<g id="graph0" class="graph" transform="scale(1 1) rotate(0) translate(4 24)">
<title>SDL_ultoa</title>
<!-- Node1 -->
<g id="Node000001" class="node">
<title>Node1</title>
<g id="a_Node000001"><a xlink:title=" ">
<polygon fill="#999999" stroke="#666666" points="61.75,-20 0,-20 0,0 61.75,0 61.75,-20"/>
<text xml:space="preserve" text-anchor="middle" x="30.88" y="-6.5" font-family="Helvetica,sans-Serif" font-size="10.00">SDL_ultoa</text>
</a>
</g>
</g>
<!-- Node2 -->
<g id="Node000002" class="node">
<title>Node2</title>
<g id="a_Node000002"><a xlink:href="../../d2/d23/SDL__string_8c.html#ac1248f74c54f8a32fb9b85ff05e2ac3e" target="_top" xlink:title=" ">
<polygon fill="white" stroke="#666666" points="163.25,-20 97.75,-20 97.75,0 163.25,0 163.25,-20"/>
<text xml:space="preserve" text-anchor="middle" x="130.5" y="-6.5" font-family="Helvetica,sans-Serif" font-size="10.00">SDL_strrev</text>
</a>
</g>
</g>
<!-- Node1&#45;&gt;Node2 -->
<g id="edge1_Node000001_Node000002" class="edge">
<title>Node1&#45;&gt;Node2</title>
<g id="a_edge1_Node000001_Node000002"><a xlink:title=" ">
<path fill="none" stroke="#63b8ff" d="M62.23,-10C69.75,-10 77.96,-10 85.97,-10"/>
<polygon fill="#63b8ff" stroke="#63b8ff" points="85.96,-13.5 95.96,-10 85.96,-6.5 85.96,-13.5"/>
</a>
</g>
</g>
<!-- Node3 -->
<g id="Node000003" class="node">
<title>Node3</title>
<g id="a_Node000003"><a xlink:href="../../d2/d23/SDL__string_8c.html#a38e76d86236f4a24cf0cc6863ec3ae9d" target="_top" xlink:title=" ">
<polygon fill="white" stroke="#666666" points="264,-20 199.25,-20 199.25,0 264,0 264,-20"/>
<text xml:space="preserve" text-anchor="middle" x="231.62" y="-6.5" font-family="Helvetica,sans-Serif" font-size="10.00">SDL_strlen</text>
</a>
</g>
</g>
<!-- Node2&#45;&gt;Node3 -->
<g id="edge2_Node000002_Node000003" class="edge">
<title>Node2&#45;&gt;Node3</title>
<g id="a_edge2_Node000002_Node000003"><a xlink:title=" ">
<path fill="none" stroke="#63b8ff" d="M163.68,-10C171.28,-10 179.5,-10 187.49,-10"/>
<polygon fill="#63b8ff" stroke="#63b8ff" points="187.43,-13.5 197.43,-10 187.43,-6.5 187.43,-13.5"/>
</a>
</g>
</g>
</g>
</svg>
