<?xml version="1.0" encoding="UTF-8" standalone="no"?>
<!DOCTYPE svg PUBLIC "-//W3C//DTD SVG 1.1//EN"
 "http://www.w3.org/Graphics/SVG/1.1/DTD/svg11.dtd">
<!-- Generated by graphviz version 13.1.0 (20250701.0955)
 -->
<!-- Title: SDL_strtoll Pages: 1 -->
<svg width="507pt" height="40pt"
 viewBox="0.00 0.00 507.00 40.00" xmlns="http://www.w3.org/2000/svg" xmlns:xlink="http://www.w3.org/1999/xlink">
<g id="graph0" class="graph" transform="scale(1 1) rotate(0) translate(4 36)">
<title>SDL_strtoll</title>
<!-- Node1 -->
<g id="Node000001" class="node">
<title>Node1</title>
<g id="a_Node000001"><a xlink:title=" ">
<polygon fill="#999999" stroke="#666666" points="64.75,-26 0,-26 0,-6 64.75,-6 64.75,-26"/>
<text xml:space="preserve" text-anchor="middle" x="32.38" y="-12.5" font-family="Helvetica,sans-Serif" font-size="10.00">SDL_strtoll</text>
</a>
</g>
</g>
<!-- Node2 -->
<g id="Node000002" class="node">
<title>Node2</title>
<g id="a_Node000002"><a xlink:href="../../d2/d23/SDL__string_8c.html#adc02341a0ab32e7a2d916c8bd3a7311b" target="_top" xlink:title=" ">
<polygon fill="white" stroke="#666666" points="206,-26 100.75,-26 100.75,-6 206,-6 206,-26"/>
<text xml:space="preserve" text-anchor="middle" x="153.38" y="-12.5" font-family="Helvetica,sans-Serif" font-size="10.00">SDL_ScanLongLong</text>
</a>
</g>
</g>
<!-- Node1&#45;&gt;Node2 -->
<g id="edge1_Node000001_Node000002" class="edge">
<title>Node1&#45;&gt;Node2</title>
<g id="a_edge1_Node000001_Node000002"><a xlink:title=" ">
<path fill="none" stroke="#63b8ff" d="M64.95,-16C72.43,-16 80.67,-16 89.02,-16"/>
<polygon fill="#63b8ff" stroke="#63b8ff" points="88.88,-19.5 98.88,-16 88.88,-12.5 88.88,-19.5"/>
</a>
</g>
</g>
<!-- Node3 -->
<g id="Node000003" class="node">
<title>Node3</title>
<g id="a_Node000003"><a xlink:href="../../d2/d23/SDL__string_8c.html#a7973bb641d19e0ed46f90e07e09b07ed" target="_top" xlink:title=" ">
<polygon fill="white" stroke="#666666" points="388.5,-32 242,-32 242,0 388.5,0 388.5,-32"/>
<text xml:space="preserve" text-anchor="start" x="250" y="-18.5" font-family="Helvetica,sans-Serif" font-size="10.00">SDL_ScanUnsignedLongLong</text>
<text xml:space="preserve" text-anchor="middle" x="315.25" y="-6.5" font-family="Helvetica,sans-Serif" font-size="10.00">Internal</text>
</a>
</g>
</g>
<!-- Node2&#45;&gt;Node3 -->
<g id="edge2_Node000002_Node000003" class="edge">
<title>Node2&#45;&gt;Node3</title>
<g id="a_edge2_Node000002_Node000003"><a xlink:title=" ">
<path fill="none" stroke="#63b8ff" d="M206.28,-16C213.97,-16 222.05,-16 230.18,-16"/>
<polygon fill="#63b8ff" stroke="#63b8ff" points="230.18,-19.5 240.18,-16 230.18,-12.5 230.18,-19.5"/>
</a>
</g>
</g>
<!-- Node4 -->
<g id="Node000004" class="node">
<title>Node4</title>
<g id="a_Node000004"><a xlink:href="../../d3/d02/SDL__stdlib_8c.html#a0f97bab0613d4633dfc9a13c1d8bd9f7" target="_top" xlink:title=" ">
<polygon fill="white" stroke="#666666" points="499,-26 424.5,-26 424.5,-6 499,-6 499,-26"/>
<text xml:space="preserve" text-anchor="middle" x="461.75" y="-12.5" font-family="Helvetica,sans-Serif" font-size="10.00">SDL_isspace</text>
</a>
</g>
</g>
<!-- Node3&#45;&gt;Node4 -->
<g id="edge3_Node000003_Node000004" class="edge">
<title>Node3&#45;&gt;Node4</title>
<g id="a_edge3_Node000003_Node000004"><a xlink:title=" ">
<path fill="none" stroke="#63b8ff" d="M388.92,-16C397.04,-16 405.16,-16 412.85,-16"/>
<polygon fill="#63b8ff" stroke="#63b8ff" points="412.65,-19.5 422.65,-16 412.65,-12.5 412.65,-19.5"/>
</a>
</g>
</g>
</g>
</svg>
