<?xml version="1.0" encoding="UTF-8" standalone="no"?>
<!DOCTYPE svg PUBLIC "-//W3C//DTD SVG 1.1//EN"
 "http://www.w3.org/Graphics/SVG/1.1/DTD/svg11.dtd">
<!-- Generated by graphviz version 13.1.0 (20250701.0955)
 -->
<!-- Title: SDL_ultoa Pages: 1 -->
<svg width="766pt" height="180pt"
 viewBox="0.00 0.00 766.00 180.00" xmlns="http://www.w3.org/2000/svg" xmlns:xlink="http://www.w3.org/1999/xlink">
<g id="graph0" class="graph" transform="scale(1 1) rotate(0) translate(4 176)">
<title>SDL_ultoa</title>
<!-- Node1 -->
<g id="Node000001" class="node">
<title>Node1</title>
<g id="a_Node000001"><a xlink:title=" ">
<polygon fill="#999999" stroke="#666666" points="758.25,-58 696.5,-58 696.5,-38 758.25,-38 758.25,-58"/>
<text xml:space="preserve" text-anchor="middle" x="727.38" y="-44.5" font-family="Helvetica,sans-Serif" font-size="10.00">SDL_ultoa</text>
</a>
</g>
</g>
<!-- Node2 -->
<g id="Node000002" class="node">
<title>Node2</title>
<g id="a_Node000002"><a xlink:href="../../d2/d23/SDL__string_8c.html#aca819d91bb56bbeb46bf6640d45e81c1" target="_top" xlink:title=" ">
<polygon fill="white" stroke="#666666" points="657.88,-96 601.38,-96 601.38,-76 657.88,-76 657.88,-96"/>
<text xml:space="preserve" text-anchor="middle" x="629.62" y="-82.5" font-family="Helvetica,sans-Serif" font-size="10.00">SDL_ltoa</text>
</a>
</g>
</g>
<!-- Node1&#45;&gt;Node2 -->
<g id="edge1_Node000001_Node000002" class="edge">
<title>Node1&#45;&gt;Node2</title>
<g id="a_edge1_Node000001_Node000002"><a xlink:title=" ">
<path fill="none" stroke="#63b8ff" d="M689.47,-62.65C678.63,-66.95 666.99,-71.57 656.96,-75.55"/>
<polygon fill="#63b8ff" stroke="#63b8ff" points="690.55,-65.98 698.55,-59.04 687.96,-59.48 690.55,-65.98"/>
</a>
</g>
</g>
<!-- Node15 -->
<g id="Node000015" class="node">
<title>Node15</title>
<g id="a_Node000015"><a xlink:href="../../d2/d23/SDL__string_8c.html#af0e8ac806522cc8c47fd1dd6415cc94d" target="_top" xlink:title=" ">
<polygon fill="white" stroke="#666666" points="562.75,-58 439.5,-58 439.5,-38 562.75,-38 562.75,-58"/>
<text xml:space="preserve" text-anchor="middle" x="501.12" y="-44.5" font-family="Helvetica,sans-Serif" font-size="10.00">SDL_PrintUnsignedLong</text>
</a>
</g>
</g>
<!-- Node1&#45;&gt;Node15 -->
<g id="edge14_Node000001_Node000015" class="edge">
<title>Node1&#45;&gt;Node15</title>
<g id="a_edge14_Node000001_Node000015"><a xlink:title=" ">
<path fill="none" stroke="#63b8ff" d="M684.69,-48C650.51,-48 601.65,-48 563.08,-48"/>
<polygon fill="#63b8ff" stroke="#63b8ff" points="684.62,-51.5 694.62,-48 684.62,-44.5 684.62,-51.5"/>
</a>
</g>
</g>
<!-- Node16 -->
<g id="Node000016" class="node">
<title>Node16</title>
<g id="a_Node000016"><a xlink:href="../../d2/d23/SDL__string_8c.html#ac512f5ee077e894a55c45555c0a9a2c6" target="_top" xlink:title=" ">
<polygon fill="white" stroke="#666666" points="660.5,-20 598.75,-20 598.75,0 660.5,0 660.5,-20"/>
<text xml:space="preserve" text-anchor="middle" x="629.62" y="-6.5" font-family="Helvetica,sans-Serif" font-size="10.00">SDL_uitoa</text>
</a>
</g>
</g>
<!-- Node1&#45;&gt;Node16 -->
<g id="edge16_Node000001_Node000016" class="edge">
<title>Node1&#45;&gt;Node16</title>
<g id="a_edge16_Node000001_Node000016"><a xlink:title=" ">
<path fill="none" stroke="#63b8ff" d="M689.47,-33.35C678.63,-29.05 666.99,-24.43 656.96,-20.45"/>
<polygon fill="#63b8ff" stroke="#63b8ff" points="687.96,-36.52 698.55,-36.96 690.55,-30.02 687.96,-36.52"/>
</a>
</g>
</g>
<!-- Node3 -->
<g id="Node000003" class="node">
<title>Node3</title>
<g id="a_Node000003"><a xlink:href="../../d2/d23/SDL__string_8c.html#aaaeb913100b2fdd2f57f6b3ca194ba1f" target="_top" xlink:title=" ">
<polygon fill="white" stroke="#666666" points="529.38,-134 472.88,-134 472.88,-114 529.38,-114 529.38,-134"/>
<text xml:space="preserve" text-anchor="middle" x="501.12" y="-120.5" font-family="Helvetica,sans-Serif" font-size="10.00">SDL_itoa</text>
</a>
</g>
</g>
<!-- Node2&#45;&gt;Node3 -->
<g id="edge2_Node000002_Node000003" class="edge">
<title>Node2&#45;&gt;Node3</title>
<g id="a_edge2_Node000002_Node000003"><a xlink:title=" ">
<path fill="none" stroke="#63b8ff" d="M590.16,-97.56C570.58,-103.44 547.25,-110.45 529.52,-115.77"/>
<polygon fill="#63b8ff" stroke="#63b8ff" points="591.16,-100.91 599.73,-94.68 589.14,-94.21 591.16,-100.91"/>
</a>
</g>
</g>
<!-- Node8 -->
<g id="Node000008" class="node">
<title>Node8</title>
<g id="a_Node000008"><a xlink:href="../../d2/d23/SDL__string_8c.html#a70eae60a42ef632d15f200ada9976c50" target="_top" xlink:title=" ">
<polygon fill="white" stroke="#666666" points="542.12,-96 460.12,-96 460.12,-76 542.12,-76 542.12,-96"/>
<text xml:space="preserve" text-anchor="middle" x="501.12" y="-82.5" font-family="Helvetica,sans-Serif" font-size="10.00">SDL_PrintLong</text>
</a>
</g>
</g>
<!-- Node2&#45;&gt;Node8 -->
<g id="edge7_Node000002_Node000008" class="edge">
<title>Node2&#45;&gt;Node8</title>
<g id="a_edge7_Node000002_Node000008"><a xlink:title=" ">
<path fill="none" stroke="#63b8ff" d="M589.7,-86C574.73,-86 557.6,-86 542.49,-86"/>
<polygon fill="#63b8ff" stroke="#63b8ff" points="589.66,-89.5 599.66,-86 589.66,-82.5 589.66,-89.5"/>
</a>
</g>
</g>
<!-- Node4 -->
<g id="Node000004" class="node">
<title>Node4</title>
<g id="a_Node000004"><a xlink:href="../../d6/d3d/SDL__video_8c.html#af458064fe95ddc644dfb2ac06ce6521d" target="_top" xlink:title=" ">
<polygon fill="white" stroke="#666666" points="403.5,-134 287.75,-134 287.75,-114 403.5,-114 403.5,-134"/>
<text xml:space="preserve" text-anchor="middle" x="345.62" y="-120.5" font-family="Helvetica,sans-Serif" font-size="10.00">SDL_AddVideoDisplay</text>
</a>
</g>
</g>
<!-- Node3&#45;&gt;Node4 -->
<g id="edge3_Node000003_Node000004" class="edge">
<title>Node3&#45;&gt;Node4</title>
<g id="a_edge3_Node000003_Node000004"><a xlink:title=" ">
<path fill="none" stroke="#63b8ff" d="M461.23,-124C443.79,-124 422.87,-124 403.71,-124"/>
<polygon fill="#63b8ff" stroke="#63b8ff" points="461.17,-127.5 471.17,-124 461.17,-120.5 461.17,-127.5"/>
</a>
</g>
</g>
<!-- Node5 -->
<g id="Node000005" class="node">
<title>Node5</title>
<g id="a_Node000005"><a xlink:href="../../d6/d3d/SDL__video_8c.html#af1571d88a7fa0bb29feed80392e2ebe8" target="_top" xlink:title=" ">
<polygon fill="white" stroke="#666666" points="251.75,-172 111.25,-172 111.25,-152 251.75,-152 251.75,-172"/>
<text xml:space="preserve" text-anchor="middle" x="181.5" y="-158.5" font-family="Helvetica,sans-Serif" font-size="10.00">SDL_AddBasicVideoDisplay</text>
</a>
</g>
</g>
<!-- Node4&#45;&gt;Node5 -->
<g id="edge4_Node000004_Node000005" class="edge">
<title>Node4&#45;&gt;Node5</title>
<g id="a_edge4_Node000004_Node000005"><a xlink:title=" ">
<path fill="none" stroke="#63b8ff" d="M288.95,-137.05C268.75,-141.78 246.2,-147.07 227.08,-151.55"/>
<polygon fill="#63b8ff" stroke="#63b8ff" points="289.48,-140.52 298.42,-134.83 287.89,-133.7 289.48,-140.52"/>
</a>
</g>
</g>
<!-- Node6 -->
<g id="Node000006" class="node">
<title>Node6</title>
<g id="a_Node000006"><a xlink:href="../../db/dff/SDL__qnxvideo_8c.html#a907a906dfb5aeb95fbb775e08410195e" target="_top" xlink:title=" ">
<polygon fill="white" stroke="#666666" points="207.88,-134 155.12,-134 155.12,-114 207.88,-114 207.88,-134"/>
<text xml:space="preserve" text-anchor="middle" x="181.5" y="-120.5" font-family="Helvetica,sans-Serif" font-size="10.00">videoInit</text>
</a>
</g>
</g>
<!-- Node4&#45;&gt;Node6 -->
<g id="edge5_Node000004_Node000006" class="edge">
<title>Node4&#45;&gt;Node6</title>
<g id="a_edge5_Node000004_Node000006"><a xlink:title=" ">
<path fill="none" stroke="#63b8ff" d="M276.21,-124C252.22,-124 226.71,-124 208.37,-124"/>
<polygon fill="#63b8ff" stroke="#63b8ff" points="275.95,-127.5 285.95,-124 275.95,-120.5 275.95,-127.5"/>
</a>
</g>
</g>
<!-- Node7 -->
<g id="Node000007" class="node">
<title>Node7</title>
<g id="a_Node000007"><a xlink:href="../../db/dff/SDL__qnxvideo_8c.html#ae6d41c8ecd96e19777886580f3274ce1" target="_top" xlink:title=" ">
<polygon fill="white" stroke="#666666" points="74.5,-134 0.75,-134 0.75,-114 74.5,-114 74.5,-134"/>
<text xml:space="preserve" text-anchor="middle" x="37.62" y="-120.5" font-family="Helvetica,sans-Serif" font-size="10.00">createDevice</text>
</a>
</g>
</g>
<!-- Node6&#45;&gt;Node7 -->
<g id="edge6_Node000006_Node000007" class="edge">
<title>Node6&#45;&gt;Node7</title>
<g id="a_edge6_Node000006_Node000007"><a xlink:title=" ">
<path fill="none" stroke="#63b8ff" d="M143.35,-124C122.19,-124 95.79,-124 74.8,-124"/>
<polygon fill="#63b8ff" stroke="#63b8ff" points="143.29,-127.5 153.29,-124 143.29,-120.5 143.29,-127.5"/>
</a>
</g>
</g>
<!-- Node9 -->
<g id="Node000009" class="node">
<title>Node9</title>
<g id="a_Node000009"><a xlink:href="../../d2/d23/SDL__string_8c.html#ac045d0f2abb687c4fb1930fa71f3c6e4" target="_top" xlink:title=" ">
<polygon fill="white" stroke="#666666" points="384.75,-58 306.5,-58 306.5,-38 384.75,-38 384.75,-58"/>
<text xml:space="preserve" text-anchor="middle" x="345.62" y="-44.5" font-family="Helvetica,sans-Serif" font-size="10.00">SDL_vsnprintf</text>
</a>
</g>
</g>
<!-- Node8&#45;&gt;Node9 -->
<g id="edge8_Node000008_Node000009" class="edge">
<title>Node8&#45;&gt;Node9</title>
<g id="a_edge8_Node000008_Node000009"><a xlink:title=" ">
<path fill="none" stroke="#63b8ff" d="M448.88,-73.31C428.06,-68.16 404.41,-62.3 385.1,-57.52"/>
<polygon fill="#63b8ff" stroke="#63b8ff" points="447.78,-76.65 458.33,-75.65 449.46,-69.85 447.78,-76.65"/>
</a>
</g>
</g>
<!-- Node10 -->
<g id="Node000010" class="node">
<title>Node10</title>
<g id="a_Node000010"><a xlink:href="../../d2/d23/SDL__string_8c.html#a341f84036f21fecf2df2a921064c19ea" target="_top" xlink:title=" ">
<polygon fill="white" stroke="#666666" points="218,-96 145,-96 145,-76 218,-76 218,-96"/>
<text xml:space="preserve" text-anchor="middle" x="181.5" y="-82.5" font-family="Helvetica,sans-Serif" font-size="10.00">SDL_snprintf</text>
</a>
</g>
</g>
<!-- Node9&#45;&gt;Node10 -->
<g id="edge9_Node000009_Node000010" class="edge">
<title>Node9&#45;&gt;Node10</title>
<g id="a_edge9_Node000009_Node000010"><a xlink:title=" ">
<path fill="none" stroke="#63b8ff" d="M295.2,-59.59C270.43,-65.39 241,-72.29 218.42,-77.58"/>
<polygon fill="#63b8ff" stroke="#63b8ff" points="295.79,-63.04 304.73,-57.35 294.2,-56.23 295.79,-63.04"/>
</a>
</g>
</g>
<!-- Node11 -->
<g id="Node000011" class="node">
<title>Node11</title>
<g id="a_Node000011"><a xlink:href="../../d2/d23/SDL__string_8c.html#a928f79a15fd8c0b32286eb99ab979a7f" target="_top" xlink:title=" ">
<polygon fill="white" stroke="#666666" points="220.62,-58 142.38,-58 142.38,-38 220.62,-38 220.62,-58"/>
<text xml:space="preserve" text-anchor="middle" x="181.5" y="-44.5" font-family="Helvetica,sans-Serif" font-size="10.00">SDL_vasprintf</text>
</a>
</g>
</g>
<!-- Node9&#45;&gt;Node11 -->
<g id="edge10_Node000009_Node000011" class="edge">
<title>Node9&#45;&gt;Node11</title>
<g id="a_edge10_Node000009_Node000011"><a xlink:title=" ">
<path fill="none" stroke="#63b8ff" d="M294.91,-48C271.11,-48 243.06,-48 220.93,-48"/>
<polygon fill="#63b8ff" stroke="#63b8ff" points="294.69,-51.5 304.69,-48 294.69,-44.5 294.69,-51.5"/>
</a>
</g>
</g>
<!-- Node13 -->
<g id="Node000013" class="node">
<title>Node13</title>
<g id="a_Node000013"><a xlink:href="../../d2/d23/SDL__string_8c.html#ab7783097fe72685917c334545049783c" target="_top" xlink:title=" ">
<polygon fill="white" stroke="#666666" points="221.75,-20 141.25,-20 141.25,0 221.75,0 221.75,-20"/>
<text xml:space="preserve" text-anchor="middle" x="181.5" y="-6.5" font-family="Helvetica,sans-Serif" font-size="10.00">SDL_vswprintf</text>
</a>
</g>
</g>
<!-- Node9&#45;&gt;Node13 -->
<g id="edge12_Node000009_Node000013" class="edge">
<title>Node9&#45;&gt;Node13</title>
<g id="a_edge12_Node000009_Node000013"><a xlink:title=" ">
<path fill="none" stroke="#63b8ff" d="M295.08,-36.39C271.65,-30.9 244.06,-24.43 222.05,-19.27"/>
<polygon fill="#63b8ff" stroke="#63b8ff" points="294.2,-39.77 304.73,-38.65 295.79,-32.96 294.2,-39.77"/>
</a>
</g>
</g>
<!-- Node12 -->
<g id="Node000012" class="node">
<title>Node12</title>
<g id="a_Node000012"><a xlink:href="../../d2/d23/SDL__string_8c.html#a1cb1662c330757b981f625eff4fef580" target="_top" xlink:title=" ">
<polygon fill="white" stroke="#666666" points="74.12,-58 1.12,-58 1.12,-38 74.12,-38 74.12,-58"/>
<text xml:space="preserve" text-anchor="middle" x="37.62" y="-44.5" font-family="Helvetica,sans-Serif" font-size="10.00">SDL_asprintf</text>
</a>
</g>
</g>
<!-- Node11&#45;&gt;Node12 -->
<g id="edge11_Node000011_Node000012" class="edge">
<title>Node11&#45;&gt;Node12</title>
<g id="a_edge11_Node000011_Node000012"><a xlink:title=" ">
<path fill="none" stroke="#63b8ff" d="M130.63,-48C112.17,-48 91.6,-48 74.61,-48"/>
<polygon fill="#63b8ff" stroke="#63b8ff" points="130.59,-51.5 140.59,-48 130.59,-44.5 130.59,-51.5"/>
</a>
</g>
</g>
<!-- Node14 -->
<g id="Node000014" class="node">
<title>Node14</title>
<g id="a_Node000014"><a xlink:href="../../d2/d23/SDL__string_8c.html#a4ffd62be409572c6e55efd473d9fff26" target="_top" xlink:title=" ">
<polygon fill="white" stroke="#666666" points="75.25,-20 0,-20 0,0 75.25,0 75.25,-20"/>
<text xml:space="preserve" text-anchor="middle" x="37.62" y="-6.5" font-family="Helvetica,sans-Serif" font-size="10.00">SDL_swprintf</text>
</a>
</g>
</g>
<!-- Node13&#45;&gt;Node14 -->
<g id="edge13_Node000013_Node000014" class="edge">
<title>Node13&#45;&gt;Node14</title>
<g id="a_edge13_Node000013_Node000014"><a xlink:title=" ">
<path fill="none" stroke="#63b8ff" d="M129.56,-10C111.69,-10 91.99,-10 75.5,-10"/>
<polygon fill="#63b8ff" stroke="#63b8ff" points="129.47,-13.5 139.47,-10 129.47,-6.5 129.47,-13.5"/>
</a>
</g>
</g>
<!-- Node15&#45;&gt;Node9 -->
<g id="edge15_Node000015_Node000009" class="edge">
<title>Node15&#45;&gt;Node9</title>
<g id="a_edge15_Node000015_Node000009"><a xlink:title=" ">
<path fill="none" stroke="#63b8ff" d="M427.79,-48C413.02,-48 398.02,-48 385,-48"/>
<polygon fill="#63b8ff" stroke="#63b8ff" points="427.5,-51.5 437.5,-48 427.5,-44.5 427.5,-51.5"/>
</a>
</g>
</g>
</g>
</svg>
