<?xml version="1.0" encoding="UTF-8" standalone="no"?>
<!DOCTYPE svg PUBLIC "-//W3C//DTD SVG 1.1//EN"
 "http://www.w3.org/Graphics/SVG/1.1/DTD/svg11.dtd">
<!-- Generated by graphviz version 13.1.0 (20250701.0955)
 -->
<!-- Title: SDL_PrintUnsignedLong Pages: 1 -->
<!--zoomable 218 -->

<svg id="main" version="1.1" xmlns="http://www.w3.org/2000/svg" xmlns:xlink="http://www.w3.org/1999/xlink" xml:space="preserve" onload="init(evt)">

<style type="text/css"><![CDATA[
.node, .edge {opacity: 0.7;}
.node.selected, .edge.selected {opacity: 1;}
.edge:hover path { stroke: red; }
.edge:hover polygon { stroke: red; fill: red; }
]]></style>

<defs>
  <circle id="rim" cx="0" cy="0" r="7"/>
  <circle id="rim2" cx="0" cy="0" r="3.5"/>
  <g id="zoomPlus">
    <use xlink:href="#rim" fill="#404040"><set attributeName="fill" to="#808080" begin="zoomplus.mouseover" end="zoomplus.mouseout"/></use>
    <path d="M-4,0h8M0,-4v8" fill="none" stroke="white" stroke-width="1.5" pointer-events="none"/>
  </g>
  <g id="zoomMin">
    <use xlink:href="#rim" fill="#404040"><set attributeName="fill" to="#808080" begin="zoomminus.mouseover" end="zoomminus.mouseout"/></use>
    <path d="M-4,0h8" fill="none" stroke="white" stroke-width="1.5" pointer-events="none"/>
  </g>
  <g id="arrowUp" transform="translate(30 24)">
    <use xlink:href="#rim"/>
    <path pointer-events="none" fill="none" stroke="white" stroke-width="1.5" d="M0,-3.0v7 M-2.5,-0.5L0,-3.0L2.5,-0.5"/>
  </g>
  <g id="arrowRight" transform="rotate(90) translate(36 -43)">
    <use xlink:href="#rim"/>
    <path pointer-events="none" fill="none" stroke="white" stroke-width="1.5" d="M0,-3.0v7 M-2.5,-0.5L0,-3.0L2.5,-0.5"/>
  </g>
  <g id="arrowDown" transform="rotate(180) translate(-30 -48)">
    <use xlink:href="#rim"/>
    <path pointer-events="none" fill="none" stroke="white" stroke-width="1.5" d="M0,-3.0v7 M-2.5,-0.5L0,-3.0L2.5,-0.5"/>
  </g>
  <g id="arrowLeft" transform="rotate(270) translate(-36 17)">
    <use xlink:href="#rim"/>
    <path pointer-events="none" fill="none" stroke="white" stroke-width="1.5" d="M0,-3.0v7 M-2.5,-0.5L0,-3.0L2.5,-0.5"/>
  </g>
  <g id="resetDef">
    <use xlink:href="#rim2" fill="#404040"><set attributeName="fill" to="#808080" begin="reset.mouseover" end="reset.mouseout"/></use>
  </g>
</defs>
<script type="application/ecmascript">
var viewWidth = 503;
var viewHeight = 218;
var sectionId = 'dynsection-29';
</script>
<script type="application/ecmascript" xlink:href="../../svg.min.js"/>
<svg id="graph" class="graph">
<g id="viewport">
<title>SDL_PrintUnsignedLong</title>
<!-- Node1 -->
<g id="Node000001" class="node">
<title>Node1</title>
<g id="a_Node000001"><a xlink:title=" ">
<polygon fill="#999999" stroke="#666666" points="123.25,-58 0,-58 0,-38 123.25,-38 123.25,-58"/>
<text xml:space="preserve" text-anchor="middle" x="61.62" y="-44.5" font-family="Helvetica,sans-Serif" font-size="10.00">SDL_PrintUnsignedLong</text>
</a>
</g>
</g>
<!-- Node2 -->
<g id="Node000002" class="node">
<title>Node2</title>
<g id="a_Node000002"><a xlink:href="../../d2/d23/SDL__string_8c.html#abaff50ff4c82bc7f6aaaf0a2f363b4a0" target="_top" xlink:title=" ">
<polygon fill="white" stroke="#666666" points="279.5,-58 159.25,-58 159.25,-38 279.5,-38 279.5,-58"/>
<text xml:space="preserve" text-anchor="middle" x="219.38" y="-44.5" font-family="Helvetica,sans-Serif" font-size="10.00">SDL_IntPrecisionAdjust</text>
</a>
</g>
</g>
<!-- Node1&#45;&gt;Node2 -->
<g id="edge1_Node000001_Node000002" class="edge">
<title>Node1&#45;&gt;Node2</title>
<g id="a_edge1_Node000001_Node000002"><a xlink:title=" ">
<path fill="none" stroke="#63b8ff" d="M123.73,-48C131.52,-48 139.54,-48 147.47,-48"/>
<polygon fill="#63b8ff" stroke="#63b8ff" points="147.46,-51.5 157.46,-48 147.46,-44.5 147.46,-51.5"/>
</a>
</g>
</g>
<!-- Node4 -->
<g id="Node000004" class="node">
<title>Node4</title>
<g id="a_Node000004"><a xlink:href="../../d2/d23/SDL__string_8c.html#a32ceec8cff595eb1b5bc4713af3e4adc" target="_top" xlink:title=" ">
<polygon fill="white" stroke="#666666" points="262.62,-134 176.12,-134 176.12,-114 262.62,-114 262.62,-134"/>
<text xml:space="preserve" text-anchor="middle" x="219.38" y="-120.5" font-family="Helvetica,sans-Serif" font-size="10.00">SDL_PrintString</text>
</a>
</g>
</g>
<!-- Node1&#45;&gt;Node4 -->
<g id="edge3_Node000001_Node000004" class="edge">
<title>Node1&#45;&gt;Node4</title>
<g id="a_edge3_Node000001_Node000004"><a xlink:title=" ">
<path fill="none" stroke="#63b8ff" d="M83.95,-58.41C110.63,-71.43 156.53,-93.82 187.16,-108.77"/>
<polygon fill="#63b8ff" stroke="#63b8ff" points="185.42,-111.81 195.94,-113.05 188.49,-105.52 185.42,-111.81"/>
</a>
</g>
</g>
<!-- Node10 -->
<g id="Node000010" class="node">
<title>Node10</title>
<g id="a_Node000010"><a xlink:href="../../d2/d23/SDL__string_8c.html#ae3b20e7d5261e9427fe9aa4612f6e930" target="_top" xlink:title=" ">
<polygon fill="white" stroke="#666666" points="250.25,-20 188.5,-20 188.5,0 250.25,0 250.25,-20"/>
<text xml:space="preserve" text-anchor="middle" x="219.38" y="-6.5" font-family="Helvetica,sans-Serif" font-size="10.00">SDL_ultoa</text>
</a>
</g>
</g>
<!-- Node1&#45;&gt;Node10 -->
<g id="edge11_Node000001_Node000010" class="edge">
<title>Node1&#45;&gt;Node10</title>
<g id="a_edge11_Node000001_Node000010"><a xlink:title=" ">
<path fill="none" stroke="#63b8ff" d="M105.6,-37.52C127.99,-32.05 155.23,-25.41 177.33,-20.01"/>
<polygon fill="#63b8ff" stroke="#63b8ff" points="178.01,-23.45 186.89,-17.68 176.35,-16.65 178.01,-23.45"/>
</a>
</g>
</g>
<!-- Node3 -->
<g id="Node000003" class="node">
<title>Node3</title>
<g id="a_Node000003"><a xlink:href="../../d2/d23/SDL__string_8c.html#a38e76d86236f4a24cf0cc6863ec3ae9d" target="_top" xlink:title=" ">
<polygon fill="white" stroke="#666666" points="490.38,-77 425.62,-77 425.62,-57 490.38,-57 490.38,-77"/>
<text xml:space="preserve" text-anchor="middle" x="458" y="-63.5" font-family="Helvetica,sans-Serif" font-size="10.00">SDL_strlen</text>
</a>
</g>
</g>
<!-- Node2&#45;&gt;Node3 -->
<g id="edge2_Node000002_Node000003" class="edge">
<title>Node2&#45;&gt;Node3</title>
<g id="a_edge2_Node000002_Node000003"><a xlink:title=" ">
<path fill="none" stroke="#63b8ff" d="M279.78,-52.77C321.59,-56.13 376.58,-60.54 414.15,-63.56"/>
<polygon fill="#63b8ff" stroke="#63b8ff" points="413.45,-67.01 423.7,-64.33 414.01,-60.04 413.45,-67.01"/>
</a>
</g>
</g>
<!-- Node4&#45;&gt;Node3 -->
<g id="edge6_Node000004_Node000003" class="edge">
<title>Node4&#45;&gt;Node3</title>
<g id="a_edge6_Node000004_Node000003"><a xlink:title=" ">
<path fill="none" stroke="#63b8ff" d="M262.95,-113.74C305.73,-103.44 371.31,-87.64 414.17,-77.32"/>
<polygon fill="#63b8ff" stroke="#63b8ff" points="414.98,-80.72 423.89,-74.98 413.35,-73.92 414.98,-80.72"/>
</a>
</g>
</g>
<!-- Node5 -->
<g id="Node000005" class="node">
<title>Node5</title>
<g id="a_Node000005"><a xlink:href="../../d2/d23/SDL__string_8c.html#a7c103e0e9f6702a12b275410646fc3da" target="_top" xlink:title=" ">
<polygon fill="white" stroke="#666666" points="385.5,-134 315.5,-134 315.5,-114 385.5,-114 385.5,-134"/>
<text xml:space="preserve" text-anchor="middle" x="350.5" y="-120.5" font-family="Helvetica,sans-Serif" font-size="10.00">SDL_strlcpy</text>
</a>
</g>
</g>
<!-- Node4&#45;&gt;Node5 -->
<g id="edge4_Node000004_Node000005" class="edge">
<title>Node4&#45;&gt;Node5</title>
<g id="a_edge4_Node000004_Node000005"><a xlink:title=" ">
<path fill="none" stroke="#63b8ff" d="M263.01,-124C276.08,-124 290.51,-124 303.77,-124"/>
<polygon fill="#63b8ff" stroke="#63b8ff" points="303.55,-127.5 313.55,-124 303.55,-120.5 303.55,-127.5"/>
</a>
</g>
</g>
<!-- Node6 -->
<g id="Node000006" class="node">
<title>Node6</title>
<g id="a_Node000006"><a xlink:href="../../d2/d23/SDL__string_8c.html#a03ffe4b03da122fbcd4eef77b0eb4dd2" target="_top" xlink:title=" ">
<polygon fill="white" stroke="#666666" points="382.88,-210 318.12,-210 318.12,-190 382.88,-190 382.88,-210"/>
<text xml:space="preserve" text-anchor="middle" x="350.5" y="-196.5" font-family="Helvetica,sans-Serif" font-size="10.00">SDL_strlwr</text>
</a>
</g>
</g>
<!-- Node4&#45;&gt;Node6 -->
<g id="edge7_Node000004_Node000006" class="edge">
<title>Node4&#45;&gt;Node6</title>
<g id="a_edge7_Node000004_Node000006"><a xlink:title=" ">
<path fill="none" stroke="#63b8ff" d="M237.47,-134.45C256.44,-146.01 288.01,-165.09 315.5,-181 317.34,-182.07 319.25,-183.16 321.17,-184.25"/>
<polygon fill="#63b8ff" stroke="#63b8ff" points="318.99,-187.04 329.42,-188.9 322.43,-180.94 318.99,-187.04"/>
</a>
</g>
</g>
<!-- Node8 -->
<g id="Node000008" class="node">
<title>Node8</title>
<g id="a_Node000008"><a xlink:href="../../d2/d23/SDL__string_8c.html#aedc014a2d76bf924e03135a7262944f3" target="_top" xlink:title=" ">
<polygon fill="white" stroke="#666666" points="383.25,-172 317.75,-172 317.75,-152 383.25,-152 383.25,-172"/>
<text xml:space="preserve" text-anchor="middle" x="350.5" y="-158.5" font-family="Helvetica,sans-Serif" font-size="10.00">SDL_strupr</text>
</a>
</g>
</g>
<!-- Node4&#45;&gt;Node8 -->
<g id="edge9_Node000004_Node000008" class="edge">
<title>Node4&#45;&gt;Node8</title>
<g id="a_edge9_Node000004_Node000008"><a xlink:title=" ">
<path fill="none" stroke="#63b8ff" d="M256,-134.48C271.65,-139.09 290.16,-144.54 306.56,-149.36"/>
<polygon fill="#63b8ff" stroke="#63b8ff" points="305.48,-152.7 316.07,-152.16 307.46,-145.98 305.48,-152.7"/>
</a>
</g>
</g>
<!-- Node5&#45;&gt;Node3 -->
<g id="edge5_Node000005_Node000003" class="edge">
<title>Node5&#45;&gt;Node3</title>
<g id="a_edge5_Node000005_Node000003"><a xlink:title=" ">
<path fill="none" stroke="#63b8ff" d="M370.85,-113.55C386.76,-104.95 409.56,-92.63 427.71,-82.82"/>
<polygon fill="#63b8ff" stroke="#63b8ff" points="429.31,-85.94 436.44,-78.11 425.98,-79.78 429.31,-85.94"/>
</a>
</g>
</g>
<!-- Node7 -->
<g id="Node000007" class="node">
<title>Node7</title>
<g id="a_Node000007"><a xlink:href="../../d3/d02/SDL__stdlib_8c.html#a17df8c6f16be0fbae81617797fc91b49" target="_top" xlink:title=" ">
<polygon fill="white" stroke="#666666" points="494.12,-210 421.88,-210 421.88,-190 494.12,-190 494.12,-210"/>
<text xml:space="preserve" text-anchor="middle" x="458" y="-196.5" font-family="Helvetica,sans-Serif" font-size="10.00">SDL_tolower</text>
</a>
</g>
</g>
<!-- Node6&#45;&gt;Node7 -->
<g id="edge8_Node000006_Node000007" class="edge">
<title>Node6&#45;&gt;Node7</title>
<g id="a_edge8_Node000006_Node000007"><a xlink:title=" ">
<path fill="none" stroke="#63b8ff" d="M383.15,-200C391.69,-200 401.11,-200 410.28,-200"/>
<polygon fill="#63b8ff" stroke="#63b8ff" points="410.16,-203.5 420.16,-200 410.16,-196.5 410.16,-203.5"/>
</a>
</g>
</g>
<!-- Node9 -->
<g id="Node000009" class="node">
<title>Node9</title>
<g id="a_Node000009"><a xlink:href="../../d3/d02/SDL__stdlib_8c.html#ad8da3f40a449fc72a013943c5ea68c79" target="_top" xlink:title=" ">
<polygon fill="white" stroke="#666666" points="494.5,-172 421.5,-172 421.5,-152 494.5,-152 494.5,-172"/>
<text xml:space="preserve" text-anchor="middle" x="458" y="-158.5" font-family="Helvetica,sans-Serif" font-size="10.00">SDL_toupper</text>
</a>
</g>
</g>
<!-- Node8&#45;&gt;Node9 -->
<g id="edge10_Node000008_Node000009" class="edge">
<title>Node8&#45;&gt;Node9</title>
<g id="a_edge10_Node000008_Node000009"><a xlink:title=" ">
<path fill="none" stroke="#63b8ff" d="M383.73,-162C391.98,-162 401.04,-162 409.88,-162"/>
<polygon fill="#63b8ff" stroke="#63b8ff" points="409.78,-165.5 419.78,-162 409.78,-158.5 409.78,-165.5"/>
</a>
</g>
</g>
<!-- Node11 -->
<g id="Node000011" class="node">
<title>Node11</title>
<g id="a_Node000011"><a xlink:href="../../d2/d23/SDL__string_8c.html#ac1248f74c54f8a32fb9b85ff05e2ac3e" target="_top" xlink:title=" ">
<polygon fill="white" stroke="#666666" points="383.25,-20 317.75,-20 317.75,0 383.25,0 383.25,-20"/>
<text xml:space="preserve" text-anchor="middle" x="350.5" y="-6.5" font-family="Helvetica,sans-Serif" font-size="10.00">SDL_strrev</text>
</a>
</g>
</g>
<!-- Node10&#45;&gt;Node11 -->
<g id="edge12_Node000010_Node000011" class="edge">
<title>Node10&#45;&gt;Node11</title>
<g id="a_edge12_Node000010_Node000011"><a xlink:title=" ">
<path fill="none" stroke="#63b8ff" d="M250.65,-10C267.24,-10 288.08,-10 306.35,-10"/>
<polygon fill="#63b8ff" stroke="#63b8ff" points="306.1,-13.5 316.1,-10 306.1,-6.5 306.1,-13.5"/>
</a>
</g>
</g>
<!-- Node11&#45;&gt;Node3 -->
<g id="edge13_Node000011_Node000003" class="edge">
<title>Node11&#45;&gt;Node3</title>
<g id="a_edge13_Node000011_Node000003"><a xlink:title=" ">
<path fill="none" stroke="#63b8ff" d="M370.85,-20.45C386.76,-29.05 409.56,-41.37 427.71,-51.18"/>
<polygon fill="#63b8ff" stroke="#63b8ff" points="425.98,-54.22 436.44,-55.89 429.31,-48.06 425.98,-54.22"/>
</a>
</g>
</g>
</g>
</svg>

<g id="navigator" transform="translate(0 0)" fill="#404254">
  <rect fill="#f2f5e9" fill-opacity="0.5" stroke="#606060" stroke-width=".5" x="0" y="0" width="60" height="60"/>
  <use id="zoomplus" xlink:href="#zoomPlus" x="17" y="9" onmousedown="handleZoom(evt,'in')"/>
  <use id="zoomminus" xlink:href="#zoomMin" x="42" y="9" onmousedown="handleZoom(evt,'out')"/>
  <use id="reset" xlink:href="#resetDef" x="30" y="36" onmousedown="handleReset()"/>
   <use id="arrowup" xlink:href="#arrowUp" x="0" y="0" onmousedown="handlePan(0,-1)"/>
  <use id="arrowright" xlink:href="#arrowRight" x="0" y="0" onmousedown="handlePan(1,0)"/>
  <use id="arrowdown" xlink:href="#arrowDown" x="0" y="0" onmousedown="handlePan(0,1)"/>
  <use id="arrowleft" xlink:href="#arrowLeft" x="0" y="0" onmousedown="handlePan(-1,0)"/>
</g>
<svg viewBox="0 0 15 15" width="100%" height="30px" preserveAspectRatio="xMaxYMin meet">
 <g id="arrow_out" transform="scale(0.3 0.3)">
  <a xlink:href="SDL__string_8c_af0e8ac806522cc8c47fd1dd6415cc94d_cgraph_org.svg" target="_base">
   <rect id="button" ry="5" rx="5" y="6" x="6" height="38" width="38"
        fill="#f2f5e9" fill-opacity="0.5" stroke="#606060" stroke-width="1.0"/>
   <path id="arrow"
     d="M 11.500037,31.436501 C 11.940474,20.09759 22.043105,11.32322 32.158766,21.979434 L 37.068811,17.246167 C 37.068811,17.246167 37.088388,32 37.088388,32 L 22.160133,31.978069 C 22.160133,31.978069 26.997745,27.140456 26.997745,27.140456 C 18.528582,18.264221 13.291696,25.230495 11.500037,31.436501 z"
     style="fill:#404040;"/>
  </a>
 </g>
</svg>

<style type='text/css'>
<![CDATA[
[data-mouse-over-selected='false'] { opacity: 0.7; }
[data-mouse-over-selected='true']  { opacity: 1.0; }
]]>
</style>
<script type="application/ecmascript"><![CDATA[
document.addEventListener('DOMContentLoaded', (event) => {
  highlightEdges();
  highlightAdjacentNodes();
});
]]></script>
</svg>
