<?xml version="1.0" encoding="UTF-8" standalone="no"?>
<!DOCTYPE svg PUBLIC "-//W3C//DTD SVG 1.1//EN"
 "http://www.w3.org/Graphics/SVG/1.1/DTD/svg11.dtd">
<!-- Generated by graphviz version 13.1.0 (20250701.0955)
 -->
<!-- Title: SDL_strtoul Pages: 1 -->
<svg width="530pt" height="40pt"
 viewBox="0.00 0.00 530.00 40.00" xmlns="http://www.w3.org/2000/svg" xmlns:xlink="http://www.w3.org/1999/xlink">
<g id="graph0" class="graph" transform="scale(1 1) rotate(0) translate(4 36)">
<title>SDL_strtoul</title>
<!-- Node1 -->
<g id="Node000001" class="node">
<title>Node1</title>
<g id="a_Node000001"><a xlink:title=" ">
<polygon fill="#999999" stroke="#666666" points="67.75,-26 0,-26 0,-6 67.75,-6 67.75,-26"/>
<text xml:space="preserve" text-anchor="middle" x="33.88" y="-12.5" font-family="Helvetica,sans-Serif" font-size="10.00">SDL_strtoul</text>
</a>
</g>
</g>
<!-- Node2 -->
<g id="Node000002" class="node">
<title>Node2</title>
<g id="a_Node000002"><a xlink:href="../../d2/d23/SDL__string_8c.html#adf81da877c3a66bf00e70a4a9c60de78" target="_top" xlink:title=" ">
<polygon fill="white" stroke="#666666" points="229.25,-26 103.75,-26 103.75,-6 229.25,-6 229.25,-26"/>
<text xml:space="preserve" text-anchor="middle" x="166.5" y="-12.5" font-family="Helvetica,sans-Serif" font-size="10.00">SDL_ScanUnsignedLong</text>
</a>
</g>
</g>
<!-- Node1&#45;&gt;Node2 -->
<g id="edge1_Node000001_Node000002" class="edge">
<title>Node1&#45;&gt;Node2</title>
<g id="a_edge1_Node000001_Node000002"><a xlink:title=" ">
<path fill="none" stroke="#63b8ff" d="M68.18,-16C75.55,-16 83.66,-16 91.94,-16"/>
<polygon fill="#63b8ff" stroke="#63b8ff" points="91.78,-19.5 101.78,-16 91.78,-12.5 91.78,-19.5"/>
</a>
</g>
</g>
<!-- Node3 -->
<g id="Node000003" class="node">
<title>Node3</title>
<g id="a_Node000003"><a xlink:href="../../d2/d23/SDL__string_8c.html#a7973bb641d19e0ed46f90e07e09b07ed" target="_top" xlink:title=" ">
<polygon fill="white" stroke="#666666" points="411.75,-32 265.25,-32 265.25,0 411.75,0 411.75,-32"/>
<text xml:space="preserve" text-anchor="start" x="273.25" y="-18.5" font-family="Helvetica,sans-Serif" font-size="10.00">SDL_ScanUnsignedLongLong</text>
<text xml:space="preserve" text-anchor="middle" x="338.5" y="-6.5" font-family="Helvetica,sans-Serif" font-size="10.00">Internal</text>
</a>
</g>
</g>
<!-- Node2&#45;&gt;Node3 -->
<g id="edge2_Node000002_Node000003" class="edge">
<title>Node2&#45;&gt;Node3</title>
<g id="a_edge2_Node000002_Node000003"><a xlink:title=" ">
<path fill="none" stroke="#63b8ff" d="M229.35,-16C237.23,-16 245.39,-16 253.53,-16"/>
<polygon fill="#63b8ff" stroke="#63b8ff" points="253.5,-19.5 263.5,-16 253.5,-12.5 253.5,-19.5"/>
</a>
</g>
</g>
<!-- Node4 -->
<g id="Node000004" class="node">
<title>Node4</title>
<g id="a_Node000004"><a xlink:href="../../d3/d02/SDL__stdlib_8c.html#a0f97bab0613d4633dfc9a13c1d8bd9f7" target="_top" xlink:title=" ">
<polygon fill="white" stroke="#666666" points="522.25,-26 447.75,-26 447.75,-6 522.25,-6 522.25,-26"/>
<text xml:space="preserve" text-anchor="middle" x="485" y="-12.5" font-family="Helvetica,sans-Serif" font-size="10.00">SDL_isspace</text>
</a>
</g>
</g>
<!-- Node3&#45;&gt;Node4 -->
<g id="edge3_Node000003_Node000004" class="edge">
<title>Node3&#45;&gt;Node4</title>
<g id="a_edge3_Node000003_Node000004"><a xlink:title=" ">
<path fill="none" stroke="#63b8ff" d="M412.17,-16C420.29,-16 428.41,-16 436.1,-16"/>
<polygon fill="#63b8ff" stroke="#63b8ff" points="435.9,-19.5 445.9,-16 435.9,-12.5 435.9,-19.5"/>
</a>
</g>
</g>
</g>
</svg>
