<?xml version="1.0" encoding="UTF-8" standalone="no"?>
<!DOCTYPE svg PUBLIC "-//W3C//DTD SVG 1.1//EN"
 "http://www.w3.org/Graphics/SVG/1.1/DTD/svg11.dtd">
<!-- Generated by graphviz version 13.1.0 (20250701.0955)
 -->
<!-- Title: SDL_PrintLong Pages: 1 -->
<svg width="584pt" height="218pt"
 viewBox="0.00 0.00 584.00 218.00" xmlns="http://www.w3.org/2000/svg" xmlns:xlink="http://www.w3.org/1999/xlink">
<g id="graph0" class="graph" transform="scale(1 1) rotate(0) translate(4 214)">
<title>SDL_PrintLong</title>
<!-- Node1 -->
<g id="Node000001" class="node">
<title>Node1</title>
<g id="a_Node000001"><a xlink:title=" ">
<polygon fill="#999999" stroke="#666666" points="82,-172 0,-172 0,-152 82,-152 82,-172"/>
<text xml:space="preserve" text-anchor="middle" x="41" y="-158.5" font-family="Helvetica,sans-Serif" font-size="10.00">SDL_PrintLong</text>
</a>
</g>
</g>
<!-- Node2 -->
<g id="Node000002" class="node">
<title>Node2</title>
<g id="a_Node000002"><a xlink:href="../../d2/d23/SDL__string_8c.html#abaff50ff4c82bc7f6aaaf0a2f363b4a0" target="_top" xlink:title=" ">
<polygon fill="white" stroke="#666666" points="238.25,-210 118,-210 118,-190 238.25,-190 238.25,-210"/>
<text xml:space="preserve" text-anchor="middle" x="178.12" y="-196.5" font-family="Helvetica,sans-Serif" font-size="10.00">SDL_IntPrecisionAdjust</text>
</a>
</g>
</g>
<!-- Node1&#45;&gt;Node2 -->
<g id="edge1_Node000001_Node000002" class="edge">
<title>Node1&#45;&gt;Node2</title>
<g id="a_edge1_Node000001_Node000002"><a xlink:title=" ">
<path fill="none" stroke="#63b8ff" d="M79.28,-172.48C94.64,-176.8 112.63,-181.86 128.97,-186.46"/>
<polygon fill="#63b8ff" stroke="#63b8ff" points="127.93,-189.8 138.51,-189.14 129.83,-183.06 127.93,-189.8"/>
</a>
</g>
</g>
<!-- Node4 -->
<g id="Node000004" class="node">
<title>Node4</title>
<g id="a_Node000004"><a xlink:href="../../d2/d23/SDL__string_8c.html#aca819d91bb56bbeb46bf6640d45e81c1" target="_top" xlink:title=" ">
<polygon fill="white" stroke="#666666" points="206.38,-172 149.88,-172 149.88,-152 206.38,-152 206.38,-172"/>
<text xml:space="preserve" text-anchor="middle" x="178.12" y="-158.5" font-family="Helvetica,sans-Serif" font-size="10.00">SDL_ltoa</text>
</a>
</g>
</g>
<!-- Node1&#45;&gt;Node4 -->
<g id="edge3_Node000001_Node000004" class="edge">
<title>Node1&#45;&gt;Node4</title>
<g id="a_edge3_Node000001_Node000004"><a xlink:title=" ">
<path fill="none" stroke="#63b8ff" d="M82.18,-162C99.96,-162 120.79,-162 138.4,-162"/>
<polygon fill="#63b8ff" stroke="#63b8ff" points="138.21,-165.5 148.21,-162 138.21,-158.5 138.21,-165.5"/>
</a>
</g>
</g>
<!-- Node7 -->
<g id="Node000007" class="node">
<title>Node7</title>
<g id="a_Node000007"><a xlink:href="../../d2/d23/SDL__string_8c.html#a32ceec8cff595eb1b5bc4713af3e4adc" target="_top" xlink:title=" ">
<polygon fill="white" stroke="#666666" points="360.75,-96 274.25,-96 274.25,-76 360.75,-76 360.75,-96"/>
<text xml:space="preserve" text-anchor="middle" x="317.5" y="-82.5" font-family="Helvetica,sans-Serif" font-size="10.00">SDL_PrintString</text>
</a>
</g>
</g>
<!-- Node1&#45;&gt;Node7 -->
<g id="edge7_Node000001_Node000007" class="edge">
<title>Node1&#45;&gt;Node7</title>
<g id="a_edge7_Node000001_Node000007"><a xlink:title=" ">
<path fill="none" stroke="#63b8ff" d="M79.88,-151.51C128.9,-137.94 214.37,-114.28 268.06,-99.41"/>
<polygon fill="#63b8ff" stroke="#63b8ff" points="268.85,-102.83 277.55,-96.78 266.98,-96.08 268.85,-102.83"/>
</a>
</g>
</g>
<!-- Node3 -->
<g id="Node000003" class="node">
<title>Node3</title>
<g id="a_Node000003"><a xlink:href="../../d2/d23/SDL__string_8c.html#a38e76d86236f4a24cf0cc6863ec3ae9d" target="_top" xlink:title=" ">
<polygon fill="white" stroke="#666666" points="571.62,-153 506.88,-153 506.88,-133 571.62,-133 571.62,-153"/>
<text xml:space="preserve" text-anchor="middle" x="539.25" y="-139.5" font-family="Helvetica,sans-Serif" font-size="10.00">SDL_strlen</text>
</a>
</g>
</g>
<!-- Node2&#45;&gt;Node3 -->
<g id="edge2_Node000002_Node000003" class="edge">
<title>Node2&#45;&gt;Node3</title>
<g id="a_edge2_Node000002_Node000003"><a xlink:title=" ">
<path fill="none" stroke="#63b8ff" d="M238.47,-203.26C297.51,-204.84 390.1,-202.81 466.75,-181 483.34,-176.28 500.46,-167.35 513.78,-159.34"/>
<polygon fill="#63b8ff" stroke="#63b8ff" points="515.25,-162.54 521.88,-154.27 511.54,-156.61 515.25,-162.54"/>
</a>
</g>
</g>
<!-- Node5 -->
<g id="Node000005" class="node">
<title>Node5</title>
<g id="a_Node000005"><a xlink:href="../../d2/d23/SDL__string_8c.html#ae3b20e7d5261e9427fe9aa4612f6e930" target="_top" xlink:title=" ">
<polygon fill="white" stroke="#666666" points="348.38,-172 286.62,-172 286.62,-152 348.38,-152 348.38,-172"/>
<text xml:space="preserve" text-anchor="middle" x="317.5" y="-158.5" font-family="Helvetica,sans-Serif" font-size="10.00">SDL_ultoa</text>
</a>
</g>
</g>
<!-- Node4&#45;&gt;Node5 -->
<g id="edge4_Node000004_Node000005" class="edge">
<title>Node4&#45;&gt;Node5</title>
<g id="a_edge4_Node000004_Node000005"><a xlink:title=" ">
<path fill="none" stroke="#63b8ff" d="M206.59,-162C226.11,-162 252.66,-162 274.78,-162"/>
<polygon fill="#63b8ff" stroke="#63b8ff" points="274.7,-165.5 284.7,-162 274.7,-158.5 274.7,-165.5"/>
</a>
</g>
</g>
<!-- Node6 -->
<g id="Node000006" class="node">
<title>Node6</title>
<g id="a_Node000006"><a xlink:href="../../d2/d23/SDL__string_8c.html#ac1248f74c54f8a32fb9b85ff05e2ac3e" target="_top" xlink:title=" ">
<polygon fill="white" stroke="#666666" points="464.5,-172 399,-172 399,-152 464.5,-152 464.5,-172"/>
<text xml:space="preserve" text-anchor="middle" x="431.75" y="-158.5" font-family="Helvetica,sans-Serif" font-size="10.00">SDL_strrev</text>
</a>
</g>
</g>
<!-- Node5&#45;&gt;Node6 -->
<g id="edge5_Node000005_Node000006" class="edge">
<title>Node5&#45;&gt;Node6</title>
<g id="a_edge5_Node000005_Node000006"><a xlink:title=" ">
<path fill="none" stroke="#63b8ff" d="M348.58,-162C360.41,-162 374.23,-162 387.12,-162"/>
<polygon fill="#63b8ff" stroke="#63b8ff" points="387.11,-165.5 397.11,-162 387.11,-158.5 387.11,-165.5"/>
</a>
</g>
</g>
<!-- Node6&#45;&gt;Node3 -->
<g id="edge6_Node000006_Node000003" class="edge">
<title>Node6&#45;&gt;Node3</title>
<g id="a_edge6_Node000006_Node000003"><a xlink:title=" ">
<path fill="none" stroke="#63b8ff" d="M464.98,-156.2C474.57,-154.47 485.25,-152.55 495.41,-150.72"/>
<polygon fill="#63b8ff" stroke="#63b8ff" points="495.87,-154.19 505.09,-148.97 494.63,-147.3 495.87,-154.19"/>
</a>
</g>
</g>
<!-- Node7&#45;&gt;Node3 -->
<g id="edge10_Node000007_Node000003" class="edge">
<title>Node7&#45;&gt;Node3</title>
<g id="a_edge10_Node000007_Node000003"><a xlink:title=" ">
<path fill="none" stroke="#63b8ff" d="M358.81,-96.45C397.49,-106.49 455.71,-121.59 495.26,-131.85"/>
<polygon fill="#63b8ff" stroke="#63b8ff" points="494.37,-135.23 504.93,-134.36 496.13,-128.46 494.37,-135.23"/>
</a>
</g>
</g>
<!-- Node8 -->
<g id="Node000008" class="node">
<title>Node8</title>
<g id="a_Node000008"><a xlink:href="../../d2/d23/SDL__string_8c.html#a7c103e0e9f6702a12b275410646fc3da" target="_top" xlink:title=" ">
<polygon fill="white" stroke="#666666" points="466.75,-96 396.75,-96 396.75,-76 466.75,-76 466.75,-96"/>
<text xml:space="preserve" text-anchor="middle" x="431.75" y="-82.5" font-family="Helvetica,sans-Serif" font-size="10.00">SDL_strlcpy</text>
</a>
</g>
</g>
<!-- Node7&#45;&gt;Node8 -->
<g id="edge8_Node000007_Node000008" class="edge">
<title>Node7&#45;&gt;Node8</title>
<g id="a_edge8_Node000007_Node000008"><a xlink:title=" ">
<path fill="none" stroke="#63b8ff" d="M360.94,-86C368.78,-86 377,-86 384.94,-86"/>
<polygon fill="#63b8ff" stroke="#63b8ff" points="384.77,-89.5 394.77,-86 384.77,-82.5 384.77,-89.5"/>
</a>
</g>
</g>
<!-- Node9 -->
<g id="Node000009" class="node">
<title>Node9</title>
<g id="a_Node000009"><a xlink:href="../../d2/d23/SDL__string_8c.html#a03ffe4b03da122fbcd4eef77b0eb4dd2" target="_top" xlink:title=" ">
<polygon fill="white" stroke="#666666" points="464.12,-58 399.38,-58 399.38,-38 464.12,-38 464.12,-58"/>
<text xml:space="preserve" text-anchor="middle" x="431.75" y="-44.5" font-family="Helvetica,sans-Serif" font-size="10.00">SDL_strlwr</text>
</a>
</g>
</g>
<!-- Node7&#45;&gt;Node9 -->
<g id="edge11_Node000007_Node000009" class="edge">
<title>Node7&#45;&gt;Node9</title>
<g id="a_edge11_Node000007_Node000009"><a xlink:title=" ">
<path fill="none" stroke="#63b8ff" d="M349.47,-75.52C361.74,-71.36 376.03,-66.52 389.18,-62.07"/>
<polygon fill="#63b8ff" stroke="#63b8ff" points="390.1,-65.46 398.45,-58.94 387.85,-58.83 390.1,-65.46"/>
</a>
</g>
</g>
<!-- Node11 -->
<g id="Node000011" class="node">
<title>Node11</title>
<g id="a_Node000011"><a xlink:href="../../d2/d23/SDL__string_8c.html#aedc014a2d76bf924e03135a7262944f3" target="_top" xlink:title=" ">
<polygon fill="white" stroke="#666666" points="464.5,-20 399,-20 399,0 464.5,0 464.5,-20"/>
<text xml:space="preserve" text-anchor="middle" x="431.75" y="-6.5" font-family="Helvetica,sans-Serif" font-size="10.00">SDL_strupr</text>
</a>
</g>
</g>
<!-- Node7&#45;&gt;Node11 -->
<g id="edge13_Node000007_Node000011" class="edge">
<title>Node7&#45;&gt;Node11</title>
<g id="a_edge13_Node000007_Node000011"><a xlink:title=" ">
<path fill="none" stroke="#63b8ff" d="M331.73,-75.61C347.02,-63.78 373.11,-44.14 396.75,-29 398.32,-28 399.94,-26.99 401.59,-25.99"/>
<polygon fill="#63b8ff" stroke="#63b8ff" points="402.91,-29.27 409.79,-21.22 399.38,-23.22 402.91,-29.27"/>
</a>
</g>
</g>
<!-- Node8&#45;&gt;Node3 -->
<g id="edge9_Node000008_Node000003" class="edge">
<title>Node8&#45;&gt;Node3</title>
<g id="a_edge9_Node000008_Node000003"><a xlink:title=" ">
<path fill="none" stroke="#63b8ff" d="M452.1,-96.45C468.01,-105.05 490.81,-117.37 508.96,-127.18"/>
<polygon fill="#63b8ff" stroke="#63b8ff" points="507.23,-130.22 517.69,-131.89 510.56,-124.06 507.23,-130.22"/>
</a>
</g>
</g>
<!-- Node10 -->
<g id="Node000010" class="node">
<title>Node10</title>
<g id="a_Node000010"><a xlink:href="../../d3/d02/SDL__stdlib_8c.html#a17df8c6f16be0fbae81617797fc91b49" target="_top" xlink:title=" ">
<polygon fill="white" stroke="#666666" points="575.38,-58 503.12,-58 503.12,-38 575.38,-38 575.38,-58"/>
<text xml:space="preserve" text-anchor="middle" x="539.25" y="-44.5" font-family="Helvetica,sans-Serif" font-size="10.00">SDL_tolower</text>
</a>
</g>
</g>
<!-- Node9&#45;&gt;Node10 -->
<g id="edge12_Node000009_Node000010" class="edge">
<title>Node9&#45;&gt;Node10</title>
<g id="a_edge12_Node000009_Node000010"><a xlink:title=" ">
<path fill="none" stroke="#63b8ff" d="M464.4,-48C472.94,-48 482.36,-48 491.53,-48"/>
<polygon fill="#63b8ff" stroke="#63b8ff" points="491.41,-51.5 501.41,-48 491.41,-44.5 491.41,-51.5"/>
</a>
</g>
</g>
<!-- Node12 -->
<g id="Node000012" class="node">
<title>Node12</title>
<g id="a_Node000012"><a xlink:href="../../d3/d02/SDL__stdlib_8c.html#ad8da3f40a449fc72a013943c5ea68c79" target="_top" xlink:title=" ">
<polygon fill="white" stroke="#666666" points="575.75,-20 502.75,-20 502.75,0 575.75,0 575.75,-20"/>
<text xml:space="preserve" text-anchor="middle" x="539.25" y="-6.5" font-family="Helvetica,sans-Serif" font-size="10.00">SDL_toupper</text>
</a>
</g>
</g>
<!-- Node11&#45;&gt;Node12 -->
<g id="edge14_Node000011_Node000012" class="edge">
<title>Node11&#45;&gt;Node12</title>
<g id="a_edge14_Node000011_Node000012"><a xlink:title=" ">
<path fill="none" stroke="#63b8ff" d="M464.98,-10C473.23,-10 482.29,-10 491.13,-10"/>
<polygon fill="#63b8ff" stroke="#63b8ff" points="491.03,-13.5 501.03,-10 491.03,-6.5 491.03,-13.5"/>
</a>
</g>
</g>
</g>
</svg>
