<?xml version="1.0" encoding="UTF-8" standalone="no"?>
<!DOCTYPE svg PUBLIC "-//W3C//DTD SVG 1.1//EN"
 "http://www.w3.org/Graphics/SVG/1.1/DTD/svg11.dtd">
<!-- Generated by graphviz version 13.1.0 (20250701.0955)
 -->
<!-- Title: SDL_strrev Pages: 1 -->
<svg width="953pt" height="266pt"
 viewBox="0.00 0.00 953.00 266.00" xmlns="http://www.w3.org/2000/svg" xmlns:xlink="http://www.w3.org/1999/xlink">
<g id="graph0" class="graph" transform="scale(1 1) rotate(0) translate(4 262)">
<title>SDL_strrev</title>
<!-- Node1 -->
<g id="Node000001" class="node">
<title>Node1</title>
<g id="a_Node000001"><a xlink:title=" ">
<polygon fill="#999999" stroke="#666666" points="944.5,-125 879,-125 879,-105 944.5,-105 944.5,-125"/>
<text xml:space="preserve" text-anchor="middle" x="911.75" y="-111.5" font-family="Helvetica,sans-Serif" font-size="10.00">SDL_strrev</text>
</a>
</g>
</g>
<!-- Node2 -->
<g id="Node000002" class="node">
<title>Node2</title>
<g id="a_Node000002"><a xlink:href="../../d2/d23/SDL__string_8c.html#a187ac74c6a1311bef18418518ee18e8f" target="_top" xlink:title=" ">
<polygon fill="white" stroke="#666666" points="843,-201 779,-201 779,-181 843,-181 843,-201"/>
<text xml:space="preserve" text-anchor="middle" x="811" y="-187.5" font-family="Helvetica,sans-Serif" font-size="10.00">SDL_ulltoa</text>
</a>
</g>
</g>
<!-- Node1&#45;&gt;Node2 -->
<g id="edge1_Node000001_Node000002" class="edge">
<title>Node1&#45;&gt;Node2</title>
<g id="a_edge1_Node000001_Node000002"><a xlink:title=" ">
<path fill="none" stroke="#63b8ff" d="M888.39,-132.21C869,-147.13 841.59,-168.22 825.42,-180.67"/>
<polygon fill="#63b8ff" stroke="#63b8ff" points="890.44,-135.05 896.23,-126.17 886.17,-129.5 890.44,-135.05"/>
</a>
</g>
</g>
<!-- Node14 -->
<g id="Node000014" class="node">
<title>Node14</title>
<g id="a_Node000014"><a xlink:href="../../d2/d23/SDL__string_8c.html#ae3b20e7d5261e9427fe9aa4612f6e930" target="_top" xlink:title=" ">
<polygon fill="white" stroke="#666666" points="841.88,-87 780.12,-87 780.12,-67 841.88,-67 841.88,-87"/>
<text xml:space="preserve" text-anchor="middle" x="811" y="-73.5" font-family="Helvetica,sans-Serif" font-size="10.00">SDL_ultoa</text>
</a>
</g>
</g>
<!-- Node1&#45;&gt;Node14 -->
<g id="edge16_Node000001_Node000014" class="edge">
<title>Node1&#45;&gt;Node14</title>
<g id="a_edge16_Node000001_Node000014"><a xlink:title=" ">
<path fill="none" stroke="#63b8ff" d="M873.04,-100.49C861.76,-96.15 849.62,-91.48 839.16,-87.45"/>
<polygon fill="#63b8ff" stroke="#63b8ff" points="871.5,-103.65 882.09,-103.97 874.02,-97.11 871.5,-103.65"/>
</a>
</g>
</g>
<!-- Node3 -->
<g id="Node000003" class="node">
<title>Node3</title>
<g id="a_Node000003"><a xlink:href="../../d2/d23/SDL__string_8c.html#ab5e129c2e4c2d9d21ca2f7c65ec7d5c1" target="_top" xlink:title=" ">
<polygon fill="white" stroke="#666666" points="700.25,-258 641.5,-258 641.5,-238 700.25,-238 700.25,-258"/>
<text xml:space="preserve" text-anchor="middle" x="670.88" y="-244.5" font-family="Helvetica,sans-Serif" font-size="10.00">SDL_lltoa</text>
</a>
</g>
</g>
<!-- Node2&#45;&gt;Node3 -->
<g id="edge2_Node000002_Node000003" class="edge">
<title>Node2&#45;&gt;Node3</title>
<g id="a_edge2_Node000002_Node000003"><a xlink:title=" ">
<path fill="none" stroke="#63b8ff" d="M784.81,-207.31C772.56,-214.71 757.41,-223.1 743,-229 729.4,-234.57 713.66,-238.97 700.46,-242.12"/>
<polygon fill="#63b8ff" stroke="#63b8ff" points="786.39,-210.45 793.05,-202.21 782.7,-204.5 786.39,-210.45"/>
</a>
</g>
</g>
<!-- Node11 -->
<g id="Node000011" class="node">
<title>Node11</title>
<g id="a_Node000011"><a xlink:href="../../d2/d23/SDL__string_8c.html#aa1d1685ff68553e9739e89972c14d1f6" target="_top" xlink:title=" ">
<polygon fill="white" stroke="#666666" points="716.75,-220 625,-220 625,-200 716.75,-200 716.75,-220"/>
<text xml:space="preserve" text-anchor="middle" x="670.88" y="-206.5" font-family="Helvetica,sans-Serif" font-size="10.00">SDL_PrintPointer</text>
</a>
</g>
</g>
<!-- Node2&#45;&gt;Node11 -->
<g id="edge10_Node000002_Node000011" class="edge">
<title>Node2&#45;&gt;Node11</title>
<g id="a_edge10_Node000002_Node000011"><a xlink:title=" ">
<path fill="none" stroke="#63b8ff" d="M767.51,-196.84C751.58,-199.04 733.42,-201.53 717.24,-203.76"/>
<polygon fill="#63b8ff" stroke="#63b8ff" points="767.73,-200.35 777.16,-195.52 766.77,-193.41 767.73,-200.35"/>
</a>
</g>
</g>
<!-- Node12 -->
<g id="Node000012" class="node">
<title>Node12</title>
<g id="a_Node000012"><a xlink:href="../../d2/d23/SDL__string_8c.html#a6fd24ca8a7b69cfdcc3909db5f5c486f" target="_top" xlink:title=" ">
<polygon fill="white" stroke="#666666" points="743,-182 598.75,-182 598.75,-162 743,-162 743,-182"/>
<text xml:space="preserve" text-anchor="middle" x="670.88" y="-168.5" font-family="Helvetica,sans-Serif" font-size="10.00">SDL_PrintUnsignedLongLong</text>
</a>
</g>
</g>
<!-- Node2&#45;&gt;Node12 -->
<g id="edge12_Node000002_Node000012" class="edge">
<title>Node2&#45;&gt;Node12</title>
<g id="a_edge12_Node000002_Node000012"><a xlink:title=" ">
<path fill="none" stroke="#63b8ff" d="M767.47,-185.15C759.8,-184.09 751.61,-182.97 743.38,-181.84"/>
<polygon fill="#63b8ff" stroke="#63b8ff" points="766.77,-188.59 777.16,-186.48 767.73,-181.65 766.77,-188.59"/>
</a>
</g>
</g>
<!-- Node4 -->
<g id="Node000004" class="node">
<title>Node4</title>
<g id="a_Node000004"><a xlink:href="../../d2/d23/SDL__string_8c.html#af143c2808dcd24b553e875ac9c6af287" target="_top" xlink:title=" ">
<polygon fill="white" stroke="#666666" points="552.62,-258 449.62,-258 449.62,-238 552.62,-238 552.62,-258"/>
<text xml:space="preserve" text-anchor="middle" x="501.12" y="-244.5" font-family="Helvetica,sans-Serif" font-size="10.00">SDL_PrintLongLong</text>
</a>
</g>
</g>
<!-- Node3&#45;&gt;Node4 -->
<g id="edge3_Node000003_Node000004" class="edge">
<title>Node3&#45;&gt;Node4</title>
<g id="a_edge3_Node000003_Node000004"><a xlink:title=" ">
<path fill="none" stroke="#63b8ff" d="M629.61,-248C606.59,-248 577.5,-248 552.92,-248"/>
<polygon fill="#63b8ff" stroke="#63b8ff" points="629.52,-251.5 639.52,-248 629.52,-244.5 629.52,-251.5"/>
</a>
</g>
</g>
<!-- Node5 -->
<g id="Node000005" class="node">
<title>Node5</title>
<g id="a_Node000005"><a xlink:href="../../d2/d23/SDL__string_8c.html#ac045d0f2abb687c4fb1930fa71f3c6e4" target="_top" xlink:title=" ">
<polygon fill="white" stroke="#666666" points="384.75,-153 306.5,-153 306.5,-133 384.75,-133 384.75,-153"/>
<text xml:space="preserve" text-anchor="middle" x="345.62" y="-139.5" font-family="Helvetica,sans-Serif" font-size="10.00">SDL_vsnprintf</text>
</a>
</g>
</g>
<!-- Node4&#45;&gt;Node5 -->
<g id="edge4_Node000004_Node000005" class="edge">
<title>Node4&#45;&gt;Node5</title>
<g id="a_edge4_Node000004_Node000005"><a xlink:title=" ">
<path fill="none" stroke="#63b8ff" d="M457.58,-233.31C451.35,-230.55 445.14,-227.43 439.5,-224 405.7,-203.41 372.25,-170.28 356.29,-153.48"/>
<polygon fill="#63b8ff" stroke="#63b8ff" points="456.02,-236.45 466.6,-237.04 458.7,-229.98 456.02,-236.45"/>
</a>
</g>
</g>
<!-- Node6 -->
<g id="Node000006" class="node">
<title>Node6</title>
<g id="a_Node000006"><a xlink:href="../../d2/d23/SDL__string_8c.html#a341f84036f21fecf2df2a921064c19ea" target="_top" xlink:title=" ">
<polygon fill="white" stroke="#666666" points="218,-115 145,-115 145,-95 218,-95 218,-115"/>
<text xml:space="preserve" text-anchor="middle" x="181.5" y="-101.5" font-family="Helvetica,sans-Serif" font-size="10.00">SDL_snprintf</text>
</a>
</g>
</g>
<!-- Node5&#45;&gt;Node6 -->
<g id="edge5_Node000005_Node000006" class="edge">
<title>Node5&#45;&gt;Node6</title>
<g id="a_edge5_Node000005_Node000006"><a xlink:title=" ">
<path fill="none" stroke="#63b8ff" d="M295.2,-131.41C270.43,-125.61 241,-118.71 218.42,-113.42"/>
<polygon fill="#63b8ff" stroke="#63b8ff" points="294.2,-134.77 304.73,-133.65 295.79,-127.96 294.2,-134.77"/>
</a>
</g>
</g>
<!-- Node7 -->
<g id="Node000007" class="node">
<title>Node7</title>
<g id="a_Node000007"><a xlink:href="../../d2/d23/SDL__string_8c.html#a928f79a15fd8c0b32286eb99ab979a7f" target="_top" xlink:title=" ">
<polygon fill="white" stroke="#666666" points="220.62,-191 142.38,-191 142.38,-171 220.62,-171 220.62,-191"/>
<text xml:space="preserve" text-anchor="middle" x="181.5" y="-177.5" font-family="Helvetica,sans-Serif" font-size="10.00">SDL_vasprintf</text>
</a>
</g>
</g>
<!-- Node5&#45;&gt;Node7 -->
<g id="edge6_Node000005_Node000007" class="edge">
<title>Node5&#45;&gt;Node7</title>
<g id="a_edge6_Node000005_Node000007"><a xlink:title=" ">
<path fill="none" stroke="#63b8ff" d="M295.23,-154.58C271.37,-160.17 243.16,-166.78 220.93,-171.99"/>
<polygon fill="#63b8ff" stroke="#63b8ff" points="295.79,-158.04 304.73,-152.35 294.2,-151.23 295.79,-158.04"/>
</a>
</g>
</g>
<!-- Node9 -->
<g id="Node000009" class="node">
<title>Node9</title>
<g id="a_Node000009"><a xlink:href="../../d2/d23/SDL__string_8c.html#ab7783097fe72685917c334545049783c" target="_top" xlink:title=" ">
<polygon fill="white" stroke="#666666" points="221.75,-153 141.25,-153 141.25,-133 221.75,-133 221.75,-153"/>
<text xml:space="preserve" text-anchor="middle" x="181.5" y="-139.5" font-family="Helvetica,sans-Serif" font-size="10.00">SDL_vswprintf</text>
</a>
</g>
</g>
<!-- Node5&#45;&gt;Node9 -->
<g id="edge8_Node000005_Node000009" class="edge">
<title>Node5&#45;&gt;Node9</title>
<g id="a_edge8_Node000005_Node000009"><a xlink:title=" ">
<path fill="none" stroke="#63b8ff" d="M294.76,-143C271.4,-143 243.96,-143 222.05,-143"/>
<polygon fill="#63b8ff" stroke="#63b8ff" points="294.69,-146.5 304.69,-143 294.69,-139.5 294.69,-146.5"/>
</a>
</g>
</g>
<!-- Node8 -->
<g id="Node000008" class="node">
<title>Node8</title>
<g id="a_Node000008"><a xlink:href="../../d2/d23/SDL__string_8c.html#a1cb1662c330757b981f625eff4fef580" target="_top" xlink:title=" ">
<polygon fill="white" stroke="#666666" points="74.12,-191 1.12,-191 1.12,-171 74.12,-171 74.12,-191"/>
<text xml:space="preserve" text-anchor="middle" x="37.62" y="-177.5" font-family="Helvetica,sans-Serif" font-size="10.00">SDL_asprintf</text>
</a>
</g>
</g>
<!-- Node7&#45;&gt;Node8 -->
<g id="edge7_Node000007_Node000008" class="edge">
<title>Node7&#45;&gt;Node8</title>
<g id="a_edge7_Node000007_Node000008"><a xlink:title=" ">
<path fill="none" stroke="#63b8ff" d="M130.63,-181C112.17,-181 91.6,-181 74.61,-181"/>
<polygon fill="#63b8ff" stroke="#63b8ff" points="130.59,-184.5 140.59,-181 130.59,-177.5 130.59,-184.5"/>
</a>
</g>
</g>
<!-- Node10 -->
<g id="Node000010" class="node">
<title>Node10</title>
<g id="a_Node000010"><a xlink:href="../../d2/d23/SDL__string_8c.html#a4ffd62be409572c6e55efd473d9fff26" target="_top" xlink:title=" ">
<polygon fill="white" stroke="#666666" points="75.25,-153 0,-153 0,-133 75.25,-133 75.25,-153"/>
<text xml:space="preserve" text-anchor="middle" x="37.62" y="-139.5" font-family="Helvetica,sans-Serif" font-size="10.00">SDL_swprintf</text>
</a>
</g>
</g>
<!-- Node9&#45;&gt;Node10 -->
<g id="edge9_Node000009_Node000010" class="edge">
<title>Node9&#45;&gt;Node10</title>
<g id="a_edge9_Node000009_Node000010"><a xlink:title=" ">
<path fill="none" stroke="#63b8ff" d="M129.56,-143C111.69,-143 91.99,-143 75.5,-143"/>
<polygon fill="#63b8ff" stroke="#63b8ff" points="129.47,-146.5 139.47,-143 129.47,-139.5 129.47,-146.5"/>
</a>
</g>
</g>
<!-- Node11&#45;&gt;Node5 -->
<g id="edge11_Node000011_Node000005" class="edge">
<title>Node11&#45;&gt;Node5</title>
<g id="a_edge11_Node000011_Node000005"><a xlink:title=" ">
<path fill="none" stroke="#63b8ff" d="M613.53,-211.47C566.19,-211.27 497.23,-207.58 439.5,-191 410.37,-182.63 379.72,-164.76 361.93,-153.34"/>
<polygon fill="#63b8ff" stroke="#63b8ff" points="613.27,-214.97 623.26,-211.46 613.26,-207.97 613.27,-214.97"/>
</a>
</g>
</g>
<!-- Node12&#45;&gt;Node5 -->
<g id="edge15_Node000012_Node000005" class="edge">
<title>Node12&#45;&gt;Node5</title>
<g id="a_edge15_Node000012_Node000005"><a xlink:title=" ">
<path fill="none" stroke="#63b8ff" d="M607.59,-159.55C592.93,-157.01 577.34,-154.62 562.75,-153 500.78,-146.1 428.3,-143.94 385,-143.28"/>
<polygon fill="#63b8ff" stroke="#63b8ff" points="606.63,-162.94 617.09,-161.25 607.86,-156.04 606.63,-162.94"/>
</a>
</g>
</g>
<!-- Node13 -->
<g id="Node000013" class="node">
<title>Node13</title>
<g id="a_Node000013"><a xlink:href="../../d2/d23/SDL__string_8c.html#a6d130c6cb85addf07b90c08cf31d0af6" target="_top" xlink:title=" ">
<polygon fill="white" stroke="#666666" points="542.5,-182 459.75,-182 459.75,-162 542.5,-162 542.5,-182"/>
<text xml:space="preserve" text-anchor="middle" x="501.12" y="-168.5" font-family="Helvetica,sans-Serif" font-size="10.00">SDL_PrintFloat</text>
</a>
</g>
</g>
<!-- Node12&#45;&gt;Node13 -->
<g id="edge13_Node000012_Node000013" class="edge">
<title>Node12&#45;&gt;Node13</title>
<g id="a_edge13_Node000012_Node000013"><a xlink:title=" ">
<path fill="none" stroke="#63b8ff" d="M587.46,-172C571.93,-172 556.33,-172 542.79,-172"/>
<polygon fill="#63b8ff" stroke="#63b8ff" points="587.22,-175.5 597.22,-172 587.22,-168.5 587.22,-175.5"/>
</a>
</g>
</g>
<!-- Node13&#45;&gt;Node5 -->
<g id="edge14_Node000013_Node000005" class="edge">
<title>Node13&#45;&gt;Node5</title>
<g id="a_edge14_Node000013_Node000005"><a xlink:title=" ">
<path fill="none" stroke="#63b8ff" d="M448.24,-162.2C427.6,-158.3 404.27,-153.89 385.17,-150.28"/>
<polygon fill="#63b8ff" stroke="#63b8ff" points="447.43,-165.61 457.91,-164.02 448.73,-158.73 447.43,-165.61"/>
</a>
</g>
</g>
<!-- Node15 -->
<g id="Node000015" class="node">
<title>Node15</title>
<g id="a_Node000015"><a xlink:href="../../d2/d23/SDL__string_8c.html#aca819d91bb56bbeb46bf6640d45e81c1" target="_top" xlink:title=" ">
<polygon fill="white" stroke="#666666" points="699.12,-68 642.62,-68 642.62,-48 699.12,-48 699.12,-68"/>
<text xml:space="preserve" text-anchor="middle" x="670.88" y="-54.5" font-family="Helvetica,sans-Serif" font-size="10.00">SDL_ltoa</text>
</a>
</g>
</g>
<!-- Node14&#45;&gt;Node15 -->
<g id="edge17_Node000014_Node000015" class="edge">
<title>Node14&#45;&gt;Node15</title>
<g id="a_edge17_Node000014_Node000015"><a xlink:title=" ">
<path fill="none" stroke="#63b8ff" d="M768.46,-71.29C746.07,-68.21 719.06,-64.49 699.3,-61.77"/>
<polygon fill="#63b8ff" stroke="#63b8ff" points="767.8,-74.73 778.19,-72.62 768.76,-67.79 767.8,-74.73"/>
</a>
</g>
</g>
<!-- Node22 -->
<g id="Node000022" class="node">
<title>Node22</title>
<g id="a_Node000022"><a xlink:href="../../d2/d23/SDL__string_8c.html#af0e8ac806522cc8c47fd1dd6415cc94d" target="_top" xlink:title=" ">
<polygon fill="white" stroke="#666666" points="562.75,-106 439.5,-106 439.5,-86 562.75,-86 562.75,-106"/>
<text xml:space="preserve" text-anchor="middle" x="501.12" y="-92.5" font-family="Helvetica,sans-Serif" font-size="10.00">SDL_PrintUnsignedLong</text>
</a>
</g>
</g>
<!-- Node14&#45;&gt;Node22 -->
<g id="edge25_Node000014_Node000022" class="edge">
<title>Node14&#45;&gt;Node22</title>
<g id="a_edge25_Node000014_Node000022"><a xlink:title=" ">
<path fill="none" stroke="#63b8ff" d="M768.34,-79.57C715.47,-82.83 623.86,-88.49 563.12,-92.24"/>
<polygon fill="#63b8ff" stroke="#63b8ff" points="768.36,-83.08 778.13,-78.97 767.93,-76.09 768.36,-83.08"/>
</a>
</g>
</g>
<!-- Node23 -->
<g id="Node000023" class="node">
<title>Node23</title>
<g id="a_Node000023"><a xlink:href="../../d2/d23/SDL__string_8c.html#ac512f5ee077e894a55c45555c0a9a2c6" target="_top" xlink:title=" ">
<polygon fill="white" stroke="#666666" points="701.75,-30 640,-30 640,-10 701.75,-10 701.75,-30"/>
<text xml:space="preserve" text-anchor="middle" x="670.88" y="-16.5" font-family="Helvetica,sans-Serif" font-size="10.00">SDL_uitoa</text>
</a>
</g>
</g>
<!-- Node14&#45;&gt;Node23 -->
<g id="edge27_Node000014_Node000023" class="edge">
<title>Node14&#45;&gt;Node23</title>
<g id="a_edge27_Node000014_Node000023"><a xlink:title=" ">
<path fill="none" stroke="#63b8ff" d="M784.81,-60.69C772.56,-53.29 757.41,-44.9 743,-39 729.99,-33.67 715.03,-29.42 702.19,-26.29"/>
<polygon fill="#63b8ff" stroke="#63b8ff" points="782.7,-63.5 793.05,-65.79 786.39,-57.55 782.7,-63.5"/>
</a>
</g>
</g>
<!-- Node16 -->
<g id="Node000016" class="node">
<title>Node16</title>
<g id="a_Node000016"><a xlink:href="../../d2/d23/SDL__string_8c.html#aaaeb913100b2fdd2f57f6b3ca194ba1f" target="_top" xlink:title=" ">
<polygon fill="white" stroke="#666666" points="529.38,-30 472.88,-30 472.88,-10 529.38,-10 529.38,-30"/>
<text xml:space="preserve" text-anchor="middle" x="501.12" y="-16.5" font-family="Helvetica,sans-Serif" font-size="10.00">SDL_itoa</text>
</a>
</g>
</g>
<!-- Node15&#45;&gt;Node16 -->
<g id="edge18_Node000015_Node000016" class="edge">
<title>Node15&#45;&gt;Node16</title>
<g id="a_edge18_Node000015_Node000016"><a xlink:title=" ">
<path fill="none" stroke="#63b8ff" d="M631.34,-49.27C600.36,-42.25 557.56,-32.56 529.87,-26.28"/>
<polygon fill="#63b8ff" stroke="#63b8ff" points="630.17,-52.59 640.7,-51.39 631.72,-45.77 630.17,-52.59"/>
</a>
</g>
</g>
<!-- Node21 -->
<g id="Node000021" class="node">
<title>Node21</title>
<g id="a_Node000021"><a xlink:href="../../d2/d23/SDL__string_8c.html#a70eae60a42ef632d15f200ada9976c50" target="_top" xlink:title=" ">
<polygon fill="white" stroke="#666666" points="542.12,-68 460.12,-68 460.12,-48 542.12,-48 542.12,-68"/>
<text xml:space="preserve" text-anchor="middle" x="501.12" y="-54.5" font-family="Helvetica,sans-Serif" font-size="10.00">SDL_PrintLong</text>
</a>
</g>
</g>
<!-- Node15&#45;&gt;Node21 -->
<g id="edge23_Node000015_Node000021" class="edge">
<title>Node15&#45;&gt;Node21</title>
<g id="a_edge23_Node000015_Node000021"><a xlink:title=" ">
<path fill="none" stroke="#63b8ff" d="M630.99,-58C604.42,-58 569.29,-58 542.43,-58"/>
<polygon fill="#63b8ff" stroke="#63b8ff" points="630.66,-61.5 640.66,-58 630.66,-54.5 630.66,-61.5"/>
</a>
</g>
</g>
<!-- Node17 -->
<g id="Node000017" class="node">
<title>Node17</title>
<g id="a_Node000017"><a xlink:href="../../d6/d3d/SDL__video_8c.html#af458064fe95ddc644dfb2ac06ce6521d" target="_top" xlink:title=" ">
<polygon fill="white" stroke="#666666" points="403.5,-30 287.75,-30 287.75,-10 403.5,-10 403.5,-30"/>
<text xml:space="preserve" text-anchor="middle" x="345.62" y="-16.5" font-family="Helvetica,sans-Serif" font-size="10.00">SDL_AddVideoDisplay</text>
</a>
</g>
</g>
<!-- Node16&#45;&gt;Node17 -->
<g id="edge19_Node000016_Node000017" class="edge">
<title>Node16&#45;&gt;Node17</title>
<g id="a_edge19_Node000016_Node000017"><a xlink:title=" ">
<path fill="none" stroke="#63b8ff" d="M461.23,-20C443.79,-20 422.87,-20 403.71,-20"/>
<polygon fill="#63b8ff" stroke="#63b8ff" points="461.17,-23.5 471.17,-20 461.17,-16.5 461.17,-23.5"/>
</a>
</g>
</g>
<!-- Node18 -->
<g id="Node000018" class="node">
<title>Node18</title>
<g id="a_Node000018"><a xlink:href="../../d6/d3d/SDL__video_8c.html#af1571d88a7fa0bb29feed80392e2ebe8" target="_top" xlink:title=" ">
<polygon fill="white" stroke="#666666" points="251.75,-20 111.25,-20 111.25,0 251.75,0 251.75,-20"/>
<text xml:space="preserve" text-anchor="middle" x="181.5" y="-6.5" font-family="Helvetica,sans-Serif" font-size="10.00">SDL_AddBasicVideoDisplay</text>
</a>
</g>
</g>
<!-- Node17&#45;&gt;Node18 -->
<g id="edge20_Node000017_Node000018" class="edge">
<title>Node17&#45;&gt;Node18</title>
<g id="a_edge20_Node000017_Node000018"><a xlink:title=" ">
<path fill="none" stroke="#63b8ff" d="M276.06,-15.77C268.17,-15.28 260.12,-14.79 252.22,-14.3"/>
<polygon fill="#63b8ff" stroke="#63b8ff" points="275.76,-19.26 285.96,-16.38 276.19,-12.27 275.76,-19.26"/>
</a>
</g>
</g>
<!-- Node19 -->
<g id="Node000019" class="node">
<title>Node19</title>
<g id="a_Node000019"><a xlink:href="../../db/dff/SDL__qnxvideo_8c.html#a907a906dfb5aeb95fbb775e08410195e" target="_top" xlink:title=" ">
<polygon fill="white" stroke="#666666" points="207.88,-58 155.12,-58 155.12,-38 207.88,-38 207.88,-58"/>
<text xml:space="preserve" text-anchor="middle" x="181.5" y="-44.5" font-family="Helvetica,sans-Serif" font-size="10.00">videoInit</text>
</a>
</g>
</g>
<!-- Node17&#45;&gt;Node19 -->
<g id="edge21_Node000017_Node000019" class="edge">
<title>Node17&#45;&gt;Node19</title>
<g id="a_edge21_Node000017_Node000019"><a xlink:title=" ">
<path fill="none" stroke="#63b8ff" d="M276.21,-31.81C252.22,-35.96 226.71,-40.36 208.37,-43.53"/>
<polygon fill="#63b8ff" stroke="#63b8ff" points="276.72,-35.28 285.97,-30.13 275.52,-28.38 276.72,-35.28"/>
</a>
</g>
</g>
<!-- Node20 -->
<g id="Node000020" class="node">
<title>Node20</title>
<g id="a_Node000020"><a xlink:href="../../db/dff/SDL__qnxvideo_8c.html#ae6d41c8ecd96e19777886580f3274ce1" target="_top" xlink:title=" ">
<polygon fill="white" stroke="#666666" points="74.5,-58 0.75,-58 0.75,-38 74.5,-38 74.5,-58"/>
<text xml:space="preserve" text-anchor="middle" x="37.62" y="-44.5" font-family="Helvetica,sans-Serif" font-size="10.00">createDevice</text>
</a>
</g>
</g>
<!-- Node19&#45;&gt;Node20 -->
<g id="edge22_Node000019_Node000020" class="edge">
<title>Node19&#45;&gt;Node20</title>
<g id="a_edge22_Node000019_Node000020"><a xlink:title=" ">
<path fill="none" stroke="#63b8ff" d="M143.35,-48C122.19,-48 95.79,-48 74.8,-48"/>
<polygon fill="#63b8ff" stroke="#63b8ff" points="143.29,-51.5 153.29,-48 143.29,-44.5 143.29,-51.5"/>
</a>
</g>
</g>
<!-- Node21&#45;&gt;Node5 -->
<g id="edge24_Node000021_Node000005" class="edge">
<title>Node21&#45;&gt;Node5</title>
<g id="a_edge24_Node000021_Node000005"><a xlink:title=" ">
<path fill="none" stroke="#63b8ff" d="M449.84,-72.39C446.29,-73.82 442.81,-75.36 439.5,-77 407.96,-92.66 375.38,-118.45 358.45,-132.71"/>
<polygon fill="#63b8ff" stroke="#63b8ff" points="451.02,-75.68 459.19,-68.93 448.6,-69.12 451.02,-75.68"/>
</a>
</g>
</g>
<!-- Node22&#45;&gt;Node5 -->
<g id="edge26_Node000022_Node000005" class="edge">
<title>Node22&#45;&gt;Node5</title>
<g id="a_edge26_Node000022_Node000005"><a xlink:title=" ">
<path fill="none" stroke="#63b8ff" d="M455.2,-109.76C431.46,-117.03 402.78,-125.81 380.86,-132.52"/>
<polygon fill="#63b8ff" stroke="#63b8ff" points="456.07,-113.15 464.61,-106.87 454.02,-106.46 456.07,-113.15"/>
</a>
</g>
</g>
</g>
</svg>
