<?xml version="1.0" encoding="UTF-8" standalone="no"?>
<!DOCTYPE svg PUBLIC "-//W3C//DTD SVG 1.1//EN"
 "http://www.w3.org/Graphics/SVG/1.1/DTD/svg11.dtd">
<!-- Generated by graphviz version 13.1.0 (20250701.0955)
 -->
<!-- Title: SDL_strtod Pages: 1 -->
<svg width="776pt" height="116pt"
 viewBox="0.00 0.00 776.00 116.00" xmlns="http://www.w3.org/2000/svg" xmlns:xlink="http://www.w3.org/1999/xlink">
<g id="graph0" class="graph" transform="scale(1 1) rotate(0) translate(4 112)">
<title>SDL_strtod</title>
<!-- Node1 -->
<g id="Node000001" class="node">
<title>Node1</title>
<g id="a_Node000001"><a xlink:title=" ">
<polygon fill="#999999" stroke="#666666" points="65.5,-70 0,-70 0,-50 65.5,-50 65.5,-70"/>
<text xml:space="preserve" text-anchor="middle" x="32.75" y="-56.5" font-family="Helvetica,sans-Serif" font-size="10.00">SDL_strtod</text>
</a>
</g>
</g>
<!-- Node2 -->
<g id="Node000002" class="node">
<title>Node2</title>
<g id="a_Node000002"><a xlink:href="../../d2/d23/SDL__string_8c.html#af77c9d47eced78bde2796b153dddebbb" target="_top" xlink:title=" ">
<polygon fill="white" stroke="#666666" points="186.5,-70 101.5,-70 101.5,-50 186.5,-50 186.5,-70"/>
<text xml:space="preserve" text-anchor="middle" x="144" y="-56.5" font-family="Helvetica,sans-Serif" font-size="10.00">SDL_ScanFloat</text>
</a>
</g>
</g>
<!-- Node1&#45;&gt;Node2 -->
<g id="edge1_Node000001_Node000002" class="edge">
<title>Node1&#45;&gt;Node2</title>
<g id="a_edge1_Node000001_Node000002"><a xlink:title=" ">
<path fill="none" stroke="#63b8ff" d="M65.94,-60C73.47,-60 81.68,-60 89.86,-60"/>
<polygon fill="#63b8ff" stroke="#63b8ff" points="89.79,-63.5 99.79,-60 89.79,-56.5 89.79,-63.5"/>
</a>
</g>
</g>
<!-- Node3 -->
<g id="Node000003" class="node">
<title>Node3</title>
<g id="a_Node000003"><a xlink:href="../../d3/d02/SDL__stdlib_8c.html#a527e6563dbef9c20dc9bf4804a9a80ed" target="_top" xlink:title=" ">
<polygon fill="white" stroke="#666666" points="290.62,-108 224.38,-108 224.38,-88 290.62,-88 290.62,-108"/>
<text xml:space="preserve" text-anchor="middle" x="257.5" y="-94.5" font-family="Helvetica,sans-Serif" font-size="10.00">SDL_isdigit</text>
</a>
</g>
</g>
<!-- Node2&#45;&gt;Node3 -->
<g id="edge2_Node000002_Node000003" class="edge">
<title>Node2&#45;&gt;Node3</title>
<g id="a_edge2_Node000002_Node000003"><a xlink:title=" ">
<path fill="none" stroke="#63b8ff" d="M175.76,-70.48C187.95,-74.64 202.15,-79.48 215.2,-83.93"/>
<polygon fill="#63b8ff" stroke="#63b8ff" points="213.81,-87.15 224.4,-87.06 216.07,-80.52 213.81,-87.15"/>
</a>
</g>
</g>
<!-- Node4 -->
<g id="Node000004" class="node">
<title>Node4</title>
<g id="a_Node000004"><a xlink:href="../../d3/d02/SDL__stdlib_8c.html#a0f97bab0613d4633dfc9a13c1d8bd9f7" target="_top" xlink:title=" ">
<polygon fill="white" stroke="#666666" points="768,-48 693.5,-48 693.5,-28 768,-28 768,-48"/>
<text xml:space="preserve" text-anchor="middle" x="730.75" y="-34.5" font-family="Helvetica,sans-Serif" font-size="10.00">SDL_isspace</text>
</a>
</g>
</g>
<!-- Node2&#45;&gt;Node4 -->
<g id="edge3_Node000002_Node000004" class="edge">
<title>Node2&#45;&gt;Node4</title>
<g id="a_edge3_Node000002_Node000004"><a xlink:title=" ">
<path fill="none" stroke="#63b8ff" d="M186.85,-58.51C274.28,-55.39 482.68,-47.87 657.5,-41 665.43,-40.69 673.85,-40.35 682.03,-40.01"/>
<polygon fill="#63b8ff" stroke="#63b8ff" points="682.01,-43.52 691.85,-39.6 681.72,-36.52 682.01,-43.52"/>
</a>
</g>
</g>
<!-- Node5 -->
<g id="Node000005" class="node">
<title>Node5</title>
<g id="a_Node000005"><a xlink:href="../../d2/d23/SDL__string_8c.html#a9e7938c18051780cd349c15c4cf71f26" target="_top" xlink:title=" ">
<polygon fill="white" stroke="#666666" points="292.5,-29 222.5,-29 222.5,-9 292.5,-9 292.5,-29"/>
<text xml:space="preserve" text-anchor="middle" x="257.5" y="-15.5" font-family="Helvetica,sans-Serif" font-size="10.00">SDL_strtoull</text>
</a>
</g>
</g>
<!-- Node2&#45;&gt;Node5 -->
<g id="edge4_Node000002_Node000005" class="edge">
<title>Node2&#45;&gt;Node5</title>
<g id="a_edge4_Node000002_Node000005"><a xlink:title=" ">
<path fill="none" stroke="#63b8ff" d="M173.42,-49.55C186.79,-44.63 202.95,-38.69 217.44,-33.36"/>
<polygon fill="#63b8ff" stroke="#63b8ff" points="218.53,-36.69 226.71,-29.96 216.11,-30.12 218.53,-36.69"/>
</a>
</g>
</g>
<!-- Node6 -->
<g id="Node000006" class="node">
<title>Node6</title>
<g id="a_Node000006"><a xlink:href="../../d2/d23/SDL__string_8c.html#ae1408d80ee4bf76b1b215e0282697a32" target="_top" xlink:title=" ">
<polygon fill="white" stroke="#666666" points="475,-27 328.5,-27 328.5,-7 475,-7 475,-27"/>
<text xml:space="preserve" text-anchor="middle" x="401.75" y="-13.5" font-family="Helvetica,sans-Serif" font-size="10.00">SDL_ScanUnsignedLongLong</text>
</a>
</g>
</g>
<!-- Node5&#45;&gt;Node6 -->
<g id="edge5_Node000005_Node000006" class="edge">
<title>Node5&#45;&gt;Node6</title>
<g id="a_edge5_Node000005_Node000006"><a xlink:title=" ">
<path fill="none" stroke="#63b8ff" d="M292.93,-18.52C300.28,-18.41 308.35,-18.3 316.67,-18.18"/>
<polygon fill="#63b8ff" stroke="#63b8ff" points="316.64,-21.68 326.59,-18.04 316.55,-14.68 316.64,-21.68"/>
</a>
</g>
</g>
<!-- Node7 -->
<g id="Node000007" class="node">
<title>Node7</title>
<g id="a_Node000007"><a xlink:href="../../d2/d23/SDL__string_8c.html#a7973bb641d19e0ed46f90e07e09b07ed" target="_top" xlink:title=" ">
<polygon fill="white" stroke="#666666" points="657.5,-32 511,-32 511,0 657.5,0 657.5,-32"/>
<text xml:space="preserve" text-anchor="start" x="519" y="-18.5" font-family="Helvetica,sans-Serif" font-size="10.00">SDL_ScanUnsignedLongLong</text>
<text xml:space="preserve" text-anchor="middle" x="584.25" y="-6.5" font-family="Helvetica,sans-Serif" font-size="10.00">Internal</text>
</a>
</g>
</g>
<!-- Node6&#45;&gt;Node7 -->
<g id="edge6_Node000006_Node000007" class="edge">
<title>Node6&#45;&gt;Node7</title>
<g id="a_edge6_Node000006_Node000007"><a xlink:title=" ">
<path fill="none" stroke="#63b8ff" d="M475.39,-16.6C483.31,-16.55 491.42,-16.51 499.46,-16.46"/>
<polygon fill="#63b8ff" stroke="#63b8ff" points="499.27,-19.97 509.25,-16.41 499.23,-12.97 499.27,-19.97"/>
</a>
</g>
</g>
<!-- Node7&#45;&gt;Node4 -->
<g id="edge7_Node000007_Node000004" class="edge">
<title>Node7&#45;&gt;Node4</title>
<g id="a_edge7_Node000007_Node000004"><a xlink:title=" ">
<path fill="none" stroke="#63b8ff" d="M657.92,-27.06C666.04,-28.3 674.16,-29.54 681.85,-30.71"/>
<polygon fill="#63b8ff" stroke="#63b8ff" points="681.25,-34.16 691.66,-32.2 682.3,-27.24 681.25,-34.16"/>
</a>
</g>
</g>
</g>
</svg>
