<?xml version="1.0" encoding="UTF-8" standalone="no"?>
<!DOCTYPE svg PUBLIC "-//W3C//DTD SVG 1.1//EN"
 "http://www.w3.org/Graphics/SVG/1.1/DTD/svg11.dtd">
<!-- Generated by graphviz version 13.1.0 (20250701.0955)
 -->
<!-- Title: StepUTF8 Pages: 1 -->
<!--zoomable 245 -->

<svg id="main" version="1.1" xmlns="http://www.w3.org/2000/svg" xmlns:xlink="http://www.w3.org/1999/xlink" xml:space="preserve" onload="init(evt)">

<style type="text/css"><![CDATA[
.node, .edge {opacity: 0.7;}
.node.selected, .edge.selected {opacity: 1;}
.edge:hover path { stroke: red; }
.edge:hover polygon { stroke: red; fill: red; }
]]></style>

<defs>
  <circle id="rim" cx="0" cy="0" r="7"/>
  <circle id="rim2" cx="0" cy="0" r="3.5"/>
  <g id="zoomPlus">
    <use xlink:href="#rim" fill="#404040"><set attributeName="fill" to="#808080" begin="zoomplus.mouseover" end="zoomplus.mouseout"/></use>
    <path d="M-4,0h8M0,-4v8" fill="none" stroke="white" stroke-width="1.5" pointer-events="none"/>
  </g>
  <g id="zoomMin">
    <use xlink:href="#rim" fill="#404040"><set attributeName="fill" to="#808080" begin="zoomminus.mouseover" end="zoomminus.mouseout"/></use>
    <path d="M-4,0h8" fill="none" stroke="white" stroke-width="1.5" pointer-events="none"/>
  </g>
  <g id="arrowUp" transform="translate(30 24)">
    <use xlink:href="#rim"/>
    <path pointer-events="none" fill="none" stroke="white" stroke-width="1.5" d="M0,-3.0v7 M-2.5,-0.5L0,-3.0L2.5,-0.5"/>
  </g>
  <g id="arrowRight" transform="rotate(90) translate(36 -43)">
    <use xlink:href="#rim"/>
    <path pointer-events="none" fill="none" stroke="white" stroke-width="1.5" d="M0,-3.0v7 M-2.5,-0.5L0,-3.0L2.5,-0.5"/>
  </g>
  <g id="arrowDown" transform="rotate(180) translate(-30 -48)">
    <use xlink:href="#rim"/>
    <path pointer-events="none" fill="none" stroke="white" stroke-width="1.5" d="M0,-3.0v7 M-2.5,-0.5L0,-3.0L2.5,-0.5"/>
  </g>
  <g id="arrowLeft" transform="rotate(270) translate(-36 17)">
    <use xlink:href="#rim"/>
    <path pointer-events="none" fill="none" stroke="white" stroke-width="1.5" d="M0,-3.0v7 M-2.5,-0.5L0,-3.0L2.5,-0.5"/>
  </g>
  <g id="resetDef">
    <use xlink:href="#rim2" fill="#404040"><set attributeName="fill" to="#808080" begin="reset.mouseover" end="reset.mouseout"/></use>
  </g>
</defs>
<script type="application/ecmascript">
var viewWidth = 1232;
var viewHeight = 245;
var sectionId = 'dynsection-124';
</script>
<script type="application/ecmascript" xlink:href="../../svg.min.js"/>
<svg id="graph" class="graph">
<g id="viewport">
<title>StepUTF8</title>
<!-- Node1 -->
<g id="Node000001" class="node">
<title>Node1</title>
<g id="a_Node000001"><a xlink:title=" ">
<polygon fill="#999999" stroke="#666666" points="1224,-124 1163,-124 1163,-104 1224,-104 1224,-124"/>
<text xml:space="preserve" text-anchor="middle" x="1193.5" y="-110.5" font-family="Helvetica,sans-Serif" font-size="10.00">StepUTF8</text>
</a>
</g>
</g>
<!-- Node2 -->
<g id="Node000002" class="node">
<title>Node2</title>
<g id="a_Node000002"><a xlink:href="../../d2/d23/SDL__string_8c.html#ac37470230eca36b065b4c37f0495369f" target="_top" xlink:title=" ">
<polygon fill="white" stroke="#666666" points="1127,-143 1018.75,-143 1018.75,-123 1127,-123 1127,-143"/>
<text xml:space="preserve" text-anchor="middle" x="1072.88" y="-129.5" font-family="Helvetica,sans-Serif" font-size="10.00">SDL_StepBackUTF8</text>
</a>
</g>
</g>
<!-- Node1&#45;&gt;Node2 -->
<g id="edge1_Node000001_Node000002" class="edge">
<title>Node1&#45;&gt;Node2</title>
<g id="a_edge1_Node000001_Node000002"><a xlink:title=" ">
<path fill="none" stroke="#63b8ff" d="M1151.27,-120.6C1143.55,-121.84 1135.38,-123.15 1127.35,-124.43"/>
<polygon fill="#63b8ff" stroke="#63b8ff" points="1151.75,-124.07 1161.07,-119.03 1150.64,-117.16 1151.75,-124.07"/>
</a>
</g>
</g>
<!-- Node3 -->
<g id="Node000003" class="node">
<title>Node3</title>
<g id="a_Node000003"><a xlink:href="../../d2/d23/SDL__string_8c.html#a2bdfca477ac9576eed2460f5d824c640" target="_top" xlink:title=" ">
<polygon fill="white" stroke="#666666" points="1115.75,-105 1030,-105 1030,-85 1115.75,-85 1115.75,-105"/>
<text xml:space="preserve" text-anchor="middle" x="1072.88" y="-91.5" font-family="Helvetica,sans-Serif" font-size="10.00">SDL_StepUTF8</text>
</a>
</g>
</g>
<!-- Node1&#45;&gt;Node3 -->
<g id="edge2_Node000001_Node000003" class="edge">
<title>Node1&#45;&gt;Node3</title>
<g id="a_edge2_Node000001_Node000003"><a xlink:title=" ">
<path fill="none" stroke="#63b8ff" d="M1151.48,-107.43C1139.97,-105.59 1127.46,-103.58 1115.9,-101.73"/>
<polygon fill="#63b8ff" stroke="#63b8ff" points="1150.64,-110.84 1161.07,-108.97 1151.75,-103.93 1150.64,-110.84"/>
</a>
</g>
</g>
<!-- Node4 -->
<g id="Node000004" class="node">
<title>Node4</title>
<g id="a_Node000004"><a xlink:href="../../d4/db9/SDL__filesystem_8c.html#a208a847a08af320d761619da1b306444" target="_top" xlink:title=" ">
<polygon fill="white" stroke="#666666" points="974.12,-181 871.88,-181 871.88,-161 974.12,-161 974.12,-181"/>
<text xml:space="preserve" text-anchor="middle" x="923" y="-167.5" font-family="Helvetica,sans-Serif" font-size="10.00">CaseFoldUtf8String</text>
</a>
</g>
</g>
<!-- Node3&#45;&gt;Node4 -->
<g id="edge3_Node000003_Node000004" class="edge">
<title>Node3&#45;&gt;Node4</title>
<g id="a_edge3_Node000003_Node000004"><a xlink:title=" ">
<path fill="none" stroke="#63b8ff" d="M1024.97,-110.33C1022.82,-111.48 1020.74,-112.7 1018.75,-114 999.26,-126.71 1002.43,-139.59 982.75,-152 977.4,-155.37 971.4,-158.2 965.32,-160.56"/>
<polygon fill="#63b8ff" stroke="#63b8ff" points="1026.41,-113.53 1033.98,-106.12 1023.44,-107.19 1026.41,-113.53"/>
</a>
</g>
</g>
<!-- Node9 -->
<g id="Node000009" class="node">
<title>Node9</title>
<g id="a_Node000009"><a xlink:href="../../dd/df3/SDL__render_8c.html#abea8c4ab0178e48c260dbf830cf7fd17" target="_top" xlink:title=" ">
<polygon fill="white" stroke="#666666" points="982.75,-143 863.25,-143 863.25,-123 982.75,-123 982.75,-143"/>
<text xml:space="preserve" text-anchor="middle" x="923" y="-129.5" font-family="Helvetica,sans-Serif" font-size="10.00">SDL_RenderDebugText</text>
</a>
</g>
</g>
<!-- Node3&#45;&gt;Node9 -->
<g id="edge10_Node000003_Node000009" class="edge">
<title>Node3&#45;&gt;Node9</title>
<g id="a_edge10_Node000003_Node000009"><a xlink:title=" ">
<path fill="none" stroke="#63b8ff" d="M1020.07,-108.31C1001.91,-112.98 981.78,-118.15 964.67,-122.55"/>
<polygon fill="#63b8ff" stroke="#63b8ff" points="1020.8,-111.74 1029.61,-105.86 1019.05,-104.96 1020.8,-111.74"/>
</a>
</g>
</g>
<!-- Node11 -->
<g id="Node000011" class="node">
<title>Node11</title>
<g id="a_Node000011"><a xlink:href="../../d2/d23/SDL__string_8c.html#a59102137fc77f76b1c749e7816347611" target="_top" xlink:title=" ">
<polygon fill="white" stroke="#666666" points="965.12,-105 880.88,-105 880.88,-85 965.12,-85 965.12,-105"/>
<text xml:space="preserve" text-anchor="middle" x="923" y="-91.5" font-family="Helvetica,sans-Serif" font-size="10.00">SDL_strcasestr</text>
</a>
</g>
</g>
<!-- Node3&#45;&gt;Node11 -->
<g id="edge12_Node000003_Node000011" class="edge">
<title>Node3&#45;&gt;Node11</title>
<g id="a_edge12_Node000003_Node000011"><a xlink:title=" ">
<path fill="none" stroke="#63b8ff" d="M1018.7,-95C1001.22,-95 982.06,-95 965.57,-95"/>
<polygon fill="#63b8ff" stroke="#63b8ff" points="1018.38,-98.5 1028.38,-95 1018.38,-91.5 1018.38,-98.5"/>
</a>
</g>
</g>
<!-- Node15 -->
<g id="Node000015" class="node">
<title>Node15</title>
<g id="a_Node000015"><a xlink:href="../../d2/d23/SDL__string_8c.html#af28653a6a36b1ed34ca9c3e46cacf8fd" target="_top" xlink:title=" ">
<polygon fill="white" stroke="#666666" points="963.62,-67 882.38,-67 882.38,-47 963.62,-47 963.62,-67"/>
<text xml:space="preserve" text-anchor="middle" x="923" y="-53.5" font-family="Helvetica,sans-Serif" font-size="10.00">SDL_utf8strlen</text>
</a>
</g>
</g>
<!-- Node3&#45;&gt;Node15 -->
<g id="edge16_Node000003_Node000015" class="edge">
<title>Node3&#45;&gt;Node15</title>
<g id="a_edge16_Node000003_Node000015"><a xlink:title=" ">
<path fill="none" stroke="#63b8ff" d="M1019.93,-81.65C1001.53,-76.92 981.14,-71.68 963.9,-67.25"/>
<polygon fill="#63b8ff" stroke="#63b8ff" points="1019.05,-85.04 1029.61,-84.14 1020.8,-78.26 1019.05,-85.04"/>
</a>
</g>
</g>
<!-- Node23 -->
<g id="Node000023" class="node">
<title>Node23</title>
<g id="a_Node000023"><a xlink:href="../../d2/d23/SDL__string_8c.html#a6aaae61b9430f221b952599deb6b49ca" target="_top" xlink:title=" ">
<polygon fill="white" stroke="#666666" points="786.38,-29 699.88,-29 699.88,-9 786.38,-9 786.38,-29"/>
<text xml:space="preserve" text-anchor="middle" x="743.12" y="-15.5" font-family="Helvetica,sans-Serif" font-size="10.00">SDL_utf8strnlen</text>
</a>
</g>
</g>
<!-- Node3&#45;&gt;Node23 -->
<g id="edge24_Node000003_Node000023" class="edge">
<title>Node3&#45;&gt;Node23</title>
<g id="a_edge24_Node000003_Node000023"><a xlink:title=" ">
<path fill="none" stroke="#63b8ff" d="M1051.31,-77.66C1034.16,-64.28 1008.46,-46.64 982.75,-38 916.96,-15.89 835.46,-14.54 786.74,-16.28"/>
<polygon fill="#63b8ff" stroke="#63b8ff" points="1048.74,-80.08 1058.72,-83.62 1053.13,-74.62 1048.74,-80.08"/>
</a>
</g>
</g>
<!-- Node5 -->
<g id="Node000005" class="node">
<title>Node5</title>
<g id="a_Node000005"><a xlink:href="../../d4/db9/SDL__filesystem_8c.html#ab586008bc76ba761099b05daab1c4a50" target="_top" xlink:title=" ">
<polygon fill="white" stroke="#666666" points="800.25,-219 686,-219 686,-199 800.25,-199 800.25,-219"/>
<text xml:space="preserve" text-anchor="middle" x="743.12" y="-205.5" font-family="Helvetica,sans-Serif" font-size="10.00">GlobDirectoryCallback</text>
</a>
</g>
</g>
<!-- Node4&#45;&gt;Node5 -->
<g id="edge4_Node000004_Node000005" class="edge">
<title>Node4&#45;&gt;Node5</title>
<g id="a_edge4_Node000004_Node000005"><a xlink:title=" ">
<path fill="none" stroke="#63b8ff" d="M861.84,-183.85C839.44,-188.64 814.31,-194.01 793.04,-198.55"/>
<polygon fill="#63b8ff" stroke="#63b8ff" points="862.4,-187.31 871.44,-181.8 860.93,-180.47 862.4,-187.31"/>
</a>
</g>
</g>
<!-- Node6 -->
<g id="Node000006" class="node">
<title>Node6</title>
<g id="a_Node000006"><a xlink:href="../../d4/db9/SDL__filesystem_8c.html#a8827e4b44e92aea5f7bc09f81e69138f" target="_top" xlink:title=" ">
<polygon fill="white" stroke="#666666" points="620.38,-200 487.38,-200 487.38,-180 620.38,-180 620.38,-200"/>
<text xml:space="preserve" text-anchor="middle" x="553.88" y="-186.5" font-family="Helvetica,sans-Serif" font-size="10.00">SDL_InternalGlobDirectory</text>
</a>
</g>
</g>
<!-- Node4&#45;&gt;Node6 -->
<g id="edge9_Node000004_Node000006" class="edge">
<title>Node4&#45;&gt;Node6</title>
<g id="a_edge9_Node000004_Node000006"><a xlink:title=" ">
<path fill="none" stroke="#63b8ff" d="M860.6,-174.18C794.2,-177.61 688.72,-183.07 620.65,-186.6"/>
<polygon fill="#63b8ff" stroke="#63b8ff" points="860.41,-177.69 870.21,-173.68 860.04,-170.7 860.41,-177.69"/>
</a>
</g>
</g>
<!-- Node5&#45;&gt;Node5 -->
<g id="edge5_Node000005_Node000005" class="edge">
<title>Node5&#45;&gt;Node5</title>
<g id="a_edge5_Node000005_Node000005"><a xlink:title=" ">
<path fill="none" stroke="#63b8ff" d="M775.25,-230.11C771.42,-234.14 760.71,-237 743.12,-237 711.86,-237 702.33,-227.98 714.54,-219.34"/>
<polygon fill="#63b8ff" stroke="#63b8ff" points="778.63,-229.18 772.18,-220.78 771.98,-231.37 778.63,-229.18"/>
</a>
</g>
</g>
<!-- Node5&#45;&gt;Node6 -->
<g id="edge6_Node000005_Node000006" class="edge">
<title>Node5&#45;&gt;Node6</title>
<g id="a_edge6_Node000005_Node000006"><a xlink:title=" ">
<path fill="none" stroke="#63b8ff" d="M674.42,-202.13C656.93,-200.36 638.13,-198.45 620.74,-196.68"/>
<polygon fill="#63b8ff" stroke="#63b8ff" points="673.88,-205.59 684.18,-203.12 674.59,-198.63 673.88,-205.59"/>
</a>
</g>
</g>
<!-- Node7 -->
<g id="Node000007" class="node">
<title>Node7</title>
<g id="a_Node000007"><a xlink:href="../../d4/db9/SDL__filesystem_8c.html#a0d455f8ab2f61032712ea43081093ae7" target="_top" xlink:title=" ">
<polygon fill="white" stroke="#666666" points="431.88,-219 331.12,-219 331.12,-199 431.88,-199 431.88,-219"/>
<text xml:space="preserve" text-anchor="middle" x="381.5" y="-205.5" font-family="Helvetica,sans-Serif" font-size="10.00">SDL_GlobDirectory</text>
</a>
</g>
</g>
<!-- Node6&#45;&gt;Node7 -->
<g id="edge7_Node000006_Node000007" class="edge">
<title>Node6&#45;&gt;Node7</title>
<g id="a_edge7_Node000006_Node000007"><a xlink:title=" ">
<path fill="none" stroke="#63b8ff" d="M475.81,-198.59C461.05,-200.24 445.96,-201.92 432.34,-203.44"/>
<polygon fill="#63b8ff" stroke="#63b8ff" points="475.95,-202.1 485.5,-197.51 475.17,-195.14 475.95,-202.1"/>
</a>
</g>
</g>
<!-- Node8 -->
<g id="Node000008" class="node">
<title>Node8</title>
<g id="a_Node000008"><a xlink:href="../../d1/deb/SDL__storage_8c.html#a119d70dc377e31f7bf1c434a7676e349" target="_top" xlink:title=" ">
<polygon fill="white" stroke="#666666" points="448.75,-181 314.25,-181 314.25,-161 448.75,-161 448.75,-181"/>
<text xml:space="preserve" text-anchor="middle" x="381.5" y="-167.5" font-family="Helvetica,sans-Serif" font-size="10.00">SDL_GlobStorageDirectory</text>
</a>
</g>
</g>
<!-- Node6&#45;&gt;Node8 -->
<g id="edge8_Node000006_Node000008" class="edge">
<title>Node6&#45;&gt;Node8</title>
<g id="a_edge8_Node000006_Node000008"><a xlink:title=" ">
<path fill="none" stroke="#63b8ff" d="M475.79,-181.4C466.86,-180.41 457.81,-179.4 449.04,-178.42"/>
<polygon fill="#63b8ff" stroke="#63b8ff" points="475.17,-184.86 485.5,-182.49 475.95,-177.9 475.17,-184.86"/>
</a>
</g>
</g>
<!-- Node10 -->
<g id="Node000010" class="node">
<title>Node10</title>
<g id="a_Node000010"><a xlink:href="../../dd/df3/SDL__render_8c.html#a9088b0bec7523287068b9391ab923dc8" target="_top" xlink:title=" ">
<polygon fill="white" stroke="#666666" points="818.25,-143 668,-143 668,-123 818.25,-123 818.25,-143"/>
<text xml:space="preserve" text-anchor="middle" x="743.12" y="-129.5" font-family="Helvetica,sans-Serif" font-size="10.00">SDL_RenderDebugTextFormat</text>
</a>
</g>
</g>
<!-- Node9&#45;&gt;Node10 -->
<g id="edge11_Node000009_Node000010" class="edge">
<title>Node9&#45;&gt;Node10</title>
<g id="a_edge11_Node000009_Node000010"><a xlink:title=" ">
<path fill="none" stroke="#63b8ff" d="M851.29,-133C840.54,-133 829.42,-133 818.6,-133"/>
<polygon fill="#63b8ff" stroke="#63b8ff" points="851.26,-136.5 861.26,-133 851.26,-129.5 851.26,-136.5"/>
</a>
</g>
</g>
<!-- Node12 -->
<g id="Node000012" class="node">
<title>Node12</title>
<g id="a_Node000012"><a xlink:href="../../dc/dd7/SDL__hidapi_8c.html#abe71390896f9b854dcb635b6755e3cc4" target="_top" xlink:title=" ">
<polygon fill="white" stroke="#666666" points="827.25,-105 659,-105 659,-85 827.25,-85 827.25,-105"/>
<text xml:space="preserve" text-anchor="middle" x="743.12" y="-91.5" font-family="Helvetica,sans-Serif" font-size="10.00">SDL_HIDAPI_ShouldIgnoreDevice</text>
</a>
</g>
</g>
<!-- Node11&#45;&gt;Node12 -->
<g id="edge13_Node000011_Node000012" class="edge">
<title>Node11&#45;&gt;Node12</title>
<g id="a_edge13_Node000011_Node000012"><a xlink:title=" ">
<path fill="none" stroke="#63b8ff" d="M869.53,-95C856.34,-95 841.85,-95 827.56,-95"/>
<polygon fill="#63b8ff" stroke="#63b8ff" points="869.23,-98.5 879.23,-95 869.23,-91.5 869.23,-98.5"/>
</a>
</g>
</g>
<!-- Node13 -->
<g id="Node000013" class="node">
<title>Node13</title>
<g id="a_Node000013"><a xlink:href="../../d2/d5c/hid_8cpp.html#af0dea306823d0667824a60d703dc3583" target="_top" xlink:title=" ">
<polygon fill="white" stroke="#666666" points="623,-105 484.75,-105 484.75,-85 623,-85 623,-105"/>
<text xml:space="preserve" text-anchor="middle" x="553.88" y="-91.5" font-family="Helvetica,sans-Serif" font-size="10.00">PLATFORM_hid_enumerate</text>
</a>
</g>
</g>
<!-- Node12&#45;&gt;Node13 -->
<g id="edge14_Node000012_Node000013" class="edge">
<title>Node12&#45;&gt;Node13</title>
<g id="a_edge14_Node000012_Node000013"><a xlink:title=" ">
<path fill="none" stroke="#63b8ff" d="M647.25,-95C639.19,-95 631.14,-95 623.34,-95"/>
<polygon fill="#63b8ff" stroke="#63b8ff" points="647.12,-98.5 657.12,-95 647.12,-91.5 647.12,-98.5"/>
</a>
</g>
</g>
<!-- Node14 -->
<g id="Node000014" class="node">
<title>Node14</title>
<g id="a_Node000014"><a xlink:href="../../dc/dd7/SDL__hidapi_8c.html#a0c156594c503a61b72d58bd1e15adfa8" target="_top" xlink:title=" ">
<polygon fill="white" stroke="#666666" points="433.75,-105 329.25,-105 329.25,-85 433.75,-85 433.75,-105"/>
<text xml:space="preserve" text-anchor="middle" x="381.5" y="-91.5" font-family="Helvetica,sans-Serif" font-size="10.00">SDL_hid_enumerate</text>
</a>
</g>
</g>
<!-- Node13&#45;&gt;Node14 -->
<g id="edge15_Node000013_Node000014" class="edge">
<title>Node13&#45;&gt;Node14</title>
<g id="a_edge15_Node000013_Node000014"><a xlink:title=" ">
<path fill="none" stroke="#63b8ff" d="M473.4,-95C460.03,-95 446.46,-95 434.04,-95"/>
<polygon fill="#63b8ff" stroke="#63b8ff" points="473.05,-98.5 483.05,-95 473.05,-91.5 473.05,-98.5"/>
</a>
</g>
</g>
<!-- Node16 -->
<g id="Node000016" class="node">
<title>Node16</title>
<g id="a_Node000016"><a xlink:href="../../d8/d3d/SDL__fcitx_8c.html#a170299343ca7001a6e79ed921d896144" target="_top" xlink:title=" ">
<polygon fill="white" stroke="#666666" points="800.62,-67 685.62,-67 685.62,-47 800.62,-47 800.62,-67"/>
<text xml:space="preserve" text-anchor="middle" x="743.12" y="-53.5" font-family="Helvetica,sans-Serif" font-size="10.00">Fcitx_GetPreeditString</text>
</a>
</g>
</g>
<!-- Node15&#45;&gt;Node16 -->
<g id="edge17_Node000015_Node000016" class="edge">
<title>Node15&#45;&gt;Node16</title>
<g id="a_edge17_Node000015_Node000016"><a xlink:title=" ">
<path fill="none" stroke="#63b8ff" d="M870.74,-57C848.96,-57 823.48,-57 801.11,-57"/>
<polygon fill="#63b8ff" stroke="#63b8ff" points="870.57,-60.5 880.57,-57 870.57,-53.5 870.57,-60.5"/>
</a>
</g>
</g>
<!-- Node17 -->
<g id="Node000017" class="node">
<title>Node17</title>
<g id="a_Node000017"><a xlink:href="../../d8/d3d/SDL__fcitx_8c.html#ae2a17a5e6962c20316702ab6938a04d7" target="_top" xlink:title=" ">
<polygon fill="white" stroke="#666666" points="607.62,-39 500.12,-39 500.12,-19 607.62,-19 607.62,-39"/>
<text xml:space="preserve" text-anchor="middle" x="553.88" y="-25.5" font-family="Helvetica,sans-Serif" font-size="10.00">DBus_MessageFilter</text>
</a>
</g>
</g>
<!-- Node16&#45;&gt;Node17 -->
<g id="edge18_Node000016_Node000017" class="edge">
<title>Node16&#45;&gt;Node17</title>
<g id="a_edge18_Node000016_Node000017"><a xlink:title=" ">
<path fill="none" stroke="#63b8ff" d="M674.02,-46.82C652.28,-43.57 628.55,-40.02 608.03,-36.95"/>
<polygon fill="#63b8ff" stroke="#63b8ff" points="673.28,-50.24 683.68,-48.26 674.31,-43.32 673.28,-50.24"/>
</a>
</g>
</g>
<!-- Node18 -->
<g id="Node000018" class="node">
<title>Node18</title>
<g id="a_Node000018"><a xlink:href="../../d8/d3d/SDL__fcitx_8c.html#a66b7c030eae52c5b2def477c77be1630" target="_top" xlink:title=" ">
<polygon fill="white" stroke="#666666" points="433,-58 330,-58 330,-38 433,-38 433,-58"/>
<text xml:space="preserve" text-anchor="middle" x="381.5" y="-44.5" font-family="Helvetica,sans-Serif" font-size="10.00">FcitxClientCreateIC</text>
</a>
</g>
</g>
<!-- Node17&#45;&gt;Node18 -->
<g id="edge19_Node000017_Node000018" class="edge">
<title>Node17&#45;&gt;Node18</title>
<g id="a_edge19_Node000017_Node000018"><a xlink:title=" ">
<path fill="none" stroke="#63b8ff" d="M488.47,-36.18C470.26,-38.21 450.7,-40.39 433.4,-42.32"/>
<polygon fill="#63b8ff" stroke="#63b8ff" points="488.85,-39.66 498.4,-35.08 488.07,-32.71 488.85,-39.66"/>
</a>
</g>
</g>
<!-- Node22 -->
<g id="Node000022" class="node">
<title>Node22</title>
<g id="a_Node000022"><a xlink:href="../../d4/d9f/SDL__system__theme_8c.html#a57eec74b9111f621d99a4b9e9ac939cd" target="_top" xlink:title=" ">
<polygon fill="white" stroke="#666666" points="443.12,-20 319.88,-20 319.88,0 443.12,0 443.12,-20"/>
<text xml:space="preserve" text-anchor="middle" x="381.5" y="-6.5" font-family="Helvetica,sans-Serif" font-size="10.00">SDL_SystemTheme_Init</text>
</a>
</g>
</g>
<!-- Node17&#45;&gt;Node22 -->
<g id="edge23_Node000017_Node000022" class="edge">
<title>Node17&#45;&gt;Node22</title>
<g id="a_edge23_Node000017_Node000022"><a xlink:title=" ">
<path fill="none" stroke="#63b8ff" d="M488.77,-21.85C473.93,-20.2 458.18,-18.44 443.48,-16.8"/>
<polygon fill="#63b8ff" stroke="#63b8ff" points="488.07,-25.29 498.4,-22.92 488.85,-18.34 488.07,-25.29"/>
</a>
</g>
</g>
<!-- Node19 -->
<g id="Node000019" class="node">
<title>Node19</title>
<g id="a_Node000019"><a xlink:href="../../d8/d3d/SDL__fcitx_8c.html#a9599338ba69d63761b97538897945a2b" target="_top" xlink:title=" ">
<polygon fill="white" stroke="#666666" points="278.25,-58 197,-58 197,-38 278.25,-38 278.25,-58"/>
<text xml:space="preserve" text-anchor="middle" x="237.62" y="-44.5" font-family="Helvetica,sans-Serif" font-size="10.00">SDL_Fcitx_Init</text>
</a>
</g>
</g>
<!-- Node18&#45;&gt;Node19 -->
<g id="edge20_Node000018_Node000019" class="edge">
<title>Node18&#45;&gt;Node19</title>
<g id="a_edge20_Node000018_Node000019"><a xlink:title=" ">
<path fill="none" stroke="#63b8ff" d="M318.43,-48C304.85,-48 290.84,-48 278.41,-48"/>
<polygon fill="#63b8ff" stroke="#63b8ff" points="318.17,-51.5 328.17,-48 318.17,-44.5 318.17,-51.5"/>
</a>
</g>
</g>
<!-- Node20 -->
<g id="Node000020" class="node">
<title>Node20</title>
<g id="a_Node000020"><a xlink:href="../../d6/dca/SDL__ime_8c.html#a43c3ce1b3fb7c51d28e85239d2df465f" target="_top" xlink:title=" ">
<polygon fill="white" stroke="#666666" points="161,-58 113.5,-58 113.5,-38 161,-38 161,-58"/>
<text xml:space="preserve" text-anchor="middle" x="137.25" y="-44.5" font-family="Helvetica,sans-Serif" font-size="10.00">InitIME</text>
</a>
</g>
</g>
<!-- Node19&#45;&gt;Node20 -->
<g id="edge21_Node000019_Node000020" class="edge">
<title>Node19&#45;&gt;Node20</title>
<g id="a_edge21_Node000019_Node000020"><a xlink:title=" ">
<path fill="none" stroke="#63b8ff" d="M185.21,-48C176.82,-48 168.52,-48 161.28,-48"/>
<polygon fill="#63b8ff" stroke="#63b8ff" points="185.1,-51.5 195.1,-48 185.1,-44.5 185.1,-51.5"/>
</a>
</g>
</g>
<!-- Node21 -->
<g id="Node000021" class="node">
<title>Node21</title>
<g id="a_Node000021"><a xlink:href="../../d6/dca/SDL__ime_8c.html#aad8672e65d5ef336bee91410b6d6cebf" target="_top" xlink:title=" ">
<polygon fill="white" stroke="#666666" points="77.5,-58 0,-58 0,-38 77.5,-38 77.5,-58"/>
<text xml:space="preserve" text-anchor="middle" x="38.75" y="-44.5" font-family="Helvetica,sans-Serif" font-size="10.00">SDL_IME_Init</text>
</a>
</g>
</g>
<!-- Node20&#45;&gt;Node21 -->
<g id="edge22_Node000020_Node000021" class="edge">
<title>Node20&#45;&gt;Node21</title>
<g id="a_edge22_Node000020_Node000021"><a xlink:title=" ">
<path fill="none" stroke="#63b8ff" d="M102.06,-48C94.24,-48 85.89,-48 77.92,-48"/>
<polygon fill="#63b8ff" stroke="#63b8ff" points="101.87,-51.5 111.87,-48 101.87,-44.5 101.87,-51.5"/>
</a>
</g>
</g>
<!-- Node23&#45;&gt;Node17 -->
<g id="edge25_Node000023_Node000017" class="edge">
<title>Node23&#45;&gt;Node17</title>
<g id="a_edge25_Node000023_Node000017"><a xlink:title=" ">
<path fill="none" stroke="#63b8ff" d="M688.4,-21.87C663.13,-23.22 633.09,-24.82 607.92,-26.17"/>
<polygon fill="#63b8ff" stroke="#63b8ff" points="688.32,-25.38 698.12,-21.35 687.95,-18.39 688.32,-25.38"/>
</a>
</g>
</g>
</g>
</svg>

<g id="navigator" transform="translate(0 0)" fill="#404254">
  <rect fill="#f2f5e9" fill-opacity="0.5" stroke="#606060" stroke-width=".5" x="0" y="0" width="60" height="60"/>
  <use id="zoomplus" xlink:href="#zoomPlus" x="17" y="9" onmousedown="handleZoom(evt,'in')"/>
  <use id="zoomminus" xlink:href="#zoomMin" x="42" y="9" onmousedown="handleZoom(evt,'out')"/>
  <use id="reset" xlink:href="#resetDef" x="30" y="36" onmousedown="handleReset()"/>
   <use id="arrowup" xlink:href="#arrowUp" x="0" y="0" onmousedown="handlePan(0,-1)"/>
  <use id="arrowright" xlink:href="#arrowRight" x="0" y="0" onmousedown="handlePan(1,0)"/>
  <use id="arrowdown" xlink:href="#arrowDown" x="0" y="0" onmousedown="handlePan(0,1)"/>
  <use id="arrowleft" xlink:href="#arrowLeft" x="0" y="0" onmousedown="handlePan(-1,0)"/>
</g>
<svg viewBox="0 0 15 15" width="100%" height="30px" preserveAspectRatio="xMaxYMin meet">
 <g id="arrow_out" transform="scale(0.3 0.3)">
  <a xlink:href="SDL__string_8c_a8d9b30860de906e69dd80fe1f4a318b5_icgraph_org.svg" target="_base">
   <rect id="button" ry="5" rx="5" y="6" x="6" height="38" width="38"
        fill="#f2f5e9" fill-opacity="0.5" stroke="#606060" stroke-width="1.0"/>
   <path id="arrow"
     d="M 11.500037,31.436501 C 11.940474,20.09759 22.043105,11.32322 32.158766,21.979434 L 37.068811,17.246167 C 37.068811,17.246167 37.088388,32 37.088388,32 L 22.160133,31.978069 C 22.160133,31.978069 26.997745,27.140456 26.997745,27.140456 C 18.528582,18.264221 13.291696,25.230495 11.500037,31.436501 z"
     style="fill:#404040;"/>
  </a>
 </g>
</svg>

<style type='text/css'>
<![CDATA[
[data-mouse-over-selected='false'] { opacity: 0.7; }
[data-mouse-over-selected='true']  { opacity: 1.0; }
]]>
</style>
<script type="application/ecmascript"><![CDATA[
document.addEventListener('DOMContentLoaded', (event) => {
  highlightEdges();
  highlightAdjacentNodes();
});
]]></script>
</svg>
