<?xml version="1.0" encoding="UTF-8" standalone="no"?>
<!DOCTYPE svg PUBLIC "-//W3C//DTD SVG 1.1//EN"
 "http://www.w3.org/Graphics/SVG/1.1/DTD/svg11.dtd">
<!-- Generated by graphviz version 13.1.0 (20250701.0955)
 -->
<!-- Title: hid_buffer_pool::hid_buffer_entry Pages: 1 -->
<svg width="172pt" height="114pt"
 viewBox="0.00 0.00 172.00 114.00" xmlns="http://www.w3.org/2000/svg" xmlns:xlink="http://www.w3.org/1999/xlink">
<g id="graph0" class="graph" transform="scale(1 1) rotate(0) translate(4 110)">
<title>hid_buffer_pool::hid_buffer_entry</title>
<!-- Node1 -->
<g id="Node000001" class="node">
<title>Node1</title>
<g id="a_Node000001"><a xlink:title=" ">
<polygon fill="#999999" stroke="#666666" points="100,-32 0,-32 0,0 100,0 100,-32"/>
<text xml:space="preserve" text-anchor="start" x="8" y="-18.5" font-family="Helvetica,sans-Serif" font-size="10.00">hid_buffer_pool::hid</text>
<text xml:space="preserve" text-anchor="middle" x="50" y="-6.5" font-family="Helvetica,sans-Serif" font-size="10.00">_buffer_entry</text>
</a>
</g>
</g>
<!-- Node1&#45;&gt;Node1 -->
<g id="edge2_Node000001_Node000001" class="edge">
<title>Node1&#45;&gt;Node1</title>
<g id="a_edge2_Node000001_Node000001"><a xlink:title=" ">
<path fill="none" stroke="#9a32cd" stroke-dasharray="5,2" d="M111.5,-21.76C115.55,-20.42 118,-18.5 118,-16 118,-11.67 110.66,-9.09 100.41,-8.25"/>
<polygon fill="#9a32cd" stroke="#9a32cd" points="111.12,-18.27 101.9,-23.49 112.37,-25.16 111.12,-18.27"/>
</a>
</g>
<text xml:space="preserve" text-anchor="start" x="121" y="-12.5" font-family="Helvetica,sans-Serif" font-size="10.00" fill="grey">m_pNext</text>
</g>
<!-- Node2 -->
<g id="Node000002" class="node">
<title>Node2</title>
<g id="a_Node000002"><a xlink:href="../../da/d40/classhid__buffer.html" target="_top" xlink:title=" ">
<polygon fill="white" stroke="#666666" points="79,-106 21,-106 21,-86 79,-86 79,-106"/>
<text xml:space="preserve" text-anchor="middle" x="50" y="-92.5" font-family="Helvetica,sans-Serif" font-size="10.00">hid_buffer</text>
</a>
</g>
</g>
<!-- Node2&#45;&gt;Node1 -->
<g id="edge1_Node000001_Node000002" class="edge">
<title>Node2&#45;&gt;Node1</title>
<g id="a_edge1_Node000001_Node000002"><a xlink:title=" ">
<path fill="none" stroke="#9a32cd" stroke-dasharray="5,2" d="M50,-74.51C50,-61.32 50,-44.47 50,-32.42"/>
<polygon fill="#9a32cd" stroke="#9a32cd" points="46.5,-74.23 50,-84.23 53.5,-74.23 46.5,-74.23"/>
</a>
</g>
<text xml:space="preserve" text-anchor="start" x="53" y="-55.5" font-family="Helvetica,sans-Serif" font-size="10.00" fill="grey">m_buffer</text>
</g>
</g>
</svg>
