<?xml version="1.0" encoding="UTF-8" standalone="no"?>
<!DOCTYPE svg PUBLIC "-//W3C//DTD SVG 1.1//EN"
 "http://www.w3.org/Graphics/SVG/1.1/DTD/svg11.dtd">
<!-- Generated by graphviz version 13.1.0 (20250701.0955)
 -->
<!-- Title: main Pages: 1 -->
<svg width="227pt" height="66pt"
 viewBox="0.00 0.00 227.00 66.00" xmlns="http://www.w3.org/2000/svg" xmlns:xlink="http://www.w3.org/1999/xlink">
<g id="graph0" class="graph" transform="scale(1 1) rotate(0) translate(4 62)">
<title>main</title>
<!-- Node1 -->
<g id="Node000001" class="node">
<title>Node1</title>
<g id="a_Node000001"><a xlink:title=" ">
<polygon fill="#999999" stroke="#666666" points="37,-39 0,-39 0,-19 37,-19 37,-39"/>
<text xml:space="preserve" text-anchor="middle" x="18.5" y="-25.5" font-family="Helvetica,sans-Serif" font-size="10.00">main</text>
</a>
</g>
</g>
<!-- Node2 -->
<g id="Node000002" class="node">
<title>Node2</title>
<g id="a_Node000002"><a xlink:href="../../df/d54/SDL__main_8h.html#a7a0a14487ee85b9b1712ecef7c4575eb" target="_top" xlink:title=" ">
<polygon fill="white" stroke="#666666" points="141.88,-58 80.12,-58 80.12,-38 141.88,-38 141.88,-58"/>
<text xml:space="preserve" text-anchor="middle" x="111" y="-44.5" font-family="Helvetica,sans-Serif" font-size="10.00">SDL_main</text>
</a>
</g>
</g>
<!-- Node1&#45;&gt;Node2 -->
<g id="edge1_Node000001_Node000002" class="edge">
<title>Node1&#45;&gt;Node2</title>
<g id="a_edge1_Node000001_Node000002"><a xlink:title=" ">
<path fill="none" stroke="#63b8ff" d="M37.38,-32.75C46.33,-34.63 57.56,-36.99 68.5,-39.29"/>
<polygon fill="#63b8ff" stroke="#63b8ff" points="67.69,-42.69 78.2,-41.32 69.13,-35.84 67.69,-42.69"/>
</a>
</g>
</g>
<!-- Node3 -->
<g id="Node000003" class="node">
<title>Node3</title>
<g id="a_Node000003"><a xlink:href="../../da/d82/SDL__runapp_8c.html#aaaca5a64062cef09cc4b2e48ed4b775b" target="_top" xlink:title=" ">
<polygon fill="white" stroke="#666666" points="149,-20 73,-20 73,0 149,0 149,-20"/>
<text xml:space="preserve" text-anchor="middle" x="111" y="-6.5" font-family="Helvetica,sans-Serif" font-size="10.00">SDL_RunApp</text>
</a>
</g>
</g>
<!-- Node1&#45;&gt;Node3 -->
<g id="edge2_Node000001_Node000003" class="edge">
<title>Node1&#45;&gt;Node3</title>
<g id="a_edge2_Node000001_Node000003"><a xlink:title=" ">
<path fill="none" stroke="#63b8ff" d="M37.38,-25.25C44.48,-23.76 53.02,-21.96 61.71,-20.14"/>
<polygon fill="#63b8ff" stroke="#63b8ff" points="62.15,-23.62 71.22,-18.14 60.71,-16.77 62.15,-23.62"/>
</a>
</g>
</g>
<!-- Node4 -->
<g id="Node000004" class="node">
<title>Node4</title>
<g id="a_Node000004"><a xlink:href="../../d3/dda/eglext_8h.html#a0f7193911e632cd84da4082d5c628fe3" target="_top" xlink:title=" ">
<polygon fill="white" stroke="#666666" points="219,-20 185,-20 185,0 219,0 219,-20"/>
<text xml:space="preserve" text-anchor="middle" x="202" y="-6.5" font-family="Helvetica,sans-Serif" font-size="10.00">void</text>
</a>
</g>
</g>
<!-- Node3&#45;&gt;Node4 -->
<g id="edge3_Node000003_Node000004" class="edge">
<title>Node3&#45;&gt;Node4</title>
<g id="a_edge3_Node000003_Node000004"><a xlink:title=" ">
<path fill="none" stroke="#63b8ff" d="M149.49,-10C157.5,-10 165.82,-10 173.37,-10"/>
<polygon fill="#63b8ff" stroke="#63b8ff" points="173.31,-13.5 183.31,-10 173.31,-6.5 173.31,-13.5"/>
</a>
</g>
</g>
</g>
</svg>
