<?xml version="1.0" encoding="UTF-8" standalone="no"?>
<!DOCTYPE svg PUBLIC "-//W3C//DTD SVG 1.1//EN"
 "http://www.w3.org/Graphics/SVG/1.1/DTD/svg11.dtd">
<!-- Generated by graphviz version 13.1.0 (20250701.0955)
 -->
<!-- Title: SDL&#45;main/src/video/khronos/GLES3/gl3platform.h Pages: 1 -->
<svg width="391pt" height="176pt"
 viewBox="0.00 0.00 391.00 176.00" xmlns="http://www.w3.org/2000/svg" xmlns:xlink="http://www.w3.org/1999/xlink">

<svg id="main" version="1.1" xmlns="http://www.w3.org/2000/svg" xmlns:xlink="http://www.w3.org/1999/xlink" xml:space="preserve">

<style type="text/css"><![CDATA[
.node, .edge {opacity: 0.7;}
.node.selected, .edge.selected {opacity: 1;}
.edge:hover path { stroke: red; }
.edge:hover polygon { stroke: red; fill: red; }
]]></style>
<script type="application/ecmascript" xlink:href="../../svg.min.js"/>
<svg id="graph" class="graph">
<g id="graph0" class="graph" transform="scale(1 1) rotate(0) translate(4 172)">
<title>SDL&#45;main/src/video/khronos/GLES3/gl3platform.h</title>
<!-- Node1 -->
<g id="Node000001" class="node">
<title>Node1</title>
<g id="a_Node000001"><a xlink:title=" ">
<polygon fill="#999999" stroke="#666666" points="262.62,-168 115.38,-168 115.38,-136 262.62,-136 262.62,-168"/>
<text xml:space="preserve" text-anchor="start" x="123.38" y="-154.5" font-family="Helvetica,sans-Serif" font-size="10.00">SDL&#45;main/src/video</text>
<text xml:space="preserve" text-anchor="middle" x="189" y="-142.5" font-family="Helvetica,sans-Serif" font-size="10.00">/khronos/GLES3/gl3platform.h</text>
</a>
</g>
</g>
<!-- Node2 -->
<g id="Node000002" class="node">
<title>Node2</title>
<g id="a_Node000002"><a xlink:href="../../da/d62/gl3_8h.html" target="_top" xlink:title=" ">
<polygon fill="white" stroke="#666666" points="112,-100 0,-100 0,-68 112,-68 112,-100"/>
<text xml:space="preserve" text-anchor="start" x="8" y="-86.5" font-family="Helvetica,sans-Serif" font-size="10.00">SDL&#45;main/src/video</text>
<text xml:space="preserve" text-anchor="middle" x="56" y="-74.5" font-family="Helvetica,sans-Serif" font-size="10.00">/khronos/GLES3/gl3.h</text>
</a>
</g>
</g>
<!-- Node1&#45;&gt;Node2 -->
<g id="edge1_Node000001_Node000002" class="edge">
<title>Node1&#45;&gt;Node2</title>
<g id="a_edge1_Node000001_Node000002"><a xlink:title=" ">
<path fill="none" stroke="#63b8ff" d="M147.63,-130.47C128.05,-120.75 105.04,-109.34 86.99,-100.38"/>
<polygon fill="#63b8ff" stroke="#63b8ff" points="145.95,-133.54 156.46,-134.85 149.06,-127.27 145.95,-133.54"/>
</a>
</g>
</g>
<!-- Node4 -->
<g id="Node000004" class="node">
<title>Node4</title>
<g id="a_Node000004"><a xlink:href="../../d2/dfe/gl31_8h.html" target="_top" xlink:title=" ">
<polygon fill="white" stroke="#666666" points="247.62,-100 130.38,-100 130.38,-68 247.62,-68 247.62,-100"/>
<text xml:space="preserve" text-anchor="start" x="138.38" y="-86.5" font-family="Helvetica,sans-Serif" font-size="10.00">SDL&#45;main/src/video</text>
<text xml:space="preserve" text-anchor="middle" x="189" y="-74.5" font-family="Helvetica,sans-Serif" font-size="10.00">/khronos/GLES3/gl31.h</text>
</a>
</g>
</g>
<!-- Node1&#45;&gt;Node4 -->
<g id="edge3_Node000001_Node000004" class="edge">
<title>Node1&#45;&gt;Node4</title>
<g id="a_edge3_Node000001_Node000004"><a xlink:title=" ">
<path fill="none" stroke="#63b8ff" d="M189,-124.31C189,-116.12 189,-107.38 189,-100.22"/>
<polygon fill="#63b8ff" stroke="#63b8ff" points="185.5,-124.18 189,-134.18 192.5,-124.18 185.5,-124.18"/>
</a>
</g>
</g>
<!-- Node5 -->
<g id="Node000005" class="node">
<title>Node5</title>
<g id="a_Node000005"><a xlink:href="../../d8/d5d/gl32_8h.html" target="_top" xlink:title=" ">
<polygon fill="white" stroke="#666666" points="382.62,-100 265.38,-100 265.38,-68 382.62,-68 382.62,-100"/>
<text xml:space="preserve" text-anchor="start" x="273.38" y="-86.5" font-family="Helvetica,sans-Serif" font-size="10.00">SDL&#45;main/src/video</text>
<text xml:space="preserve" text-anchor="middle" x="324" y="-74.5" font-family="Helvetica,sans-Serif" font-size="10.00">/khronos/GLES3/gl32.h</text>
</a>
</g>
</g>
<!-- Node1&#45;&gt;Node5 -->
<g id="edge4_Node000001_Node000005" class="edge">
<title>Node1&#45;&gt;Node5</title>
<g id="a_edge4_Node000001_Node000005"><a xlink:title=" ">
<path fill="none" stroke="#63b8ff" d="M230.99,-130.47C250.87,-120.75 274.22,-109.34 292.55,-100.38"/>
<polygon fill="#63b8ff" stroke="#63b8ff" points="229.46,-127.32 222.01,-134.86 232.53,-133.61 229.46,-127.32"/>
</a>
</g>
</g>
<!-- Node3 -->
<g id="Node000003" class="node">
<title>Node3</title>
<g id="a_Node000003"><a xlink:href="../../df/de1/SDL__openvrvideo_8h.html" target="_top" xlink:title=" ">
<polygon fill="white" stroke="#666666" points="258.38,-32 121.62,-32 121.62,0 258.38,0 258.38,-32"/>
<text xml:space="preserve" text-anchor="start" x="129.62" y="-18.5" font-family="Helvetica,sans-Serif" font-size="10.00">SDL&#45;main/src/video</text>
<text xml:space="preserve" text-anchor="middle" x="190" y="-6.5" font-family="Helvetica,sans-Serif" font-size="10.00">/openvr/SDL_openvrvideo.h</text>
</a>
</g>
</g>
<!-- Node2&#45;&gt;Node3 -->
<g id="edge2_Node000002_Node000003" class="edge">
<title>Node2&#45;&gt;Node3</title>
<g id="a_edge2_Node000002_Node000003"><a xlink:title=" ">
<path fill="none" stroke="#63b8ff" d="M97.68,-62.47C117.41,-52.75 140.59,-41.34 158.78,-32.38"/>
<polygon fill="#63b8ff" stroke="#63b8ff" points="96.2,-59.3 88.77,-66.86 99.29,-65.58 96.2,-59.3"/>
</a>
</g>
</g>
<!-- Node5&#45;&gt;Node3 -->
<g id="edge5_Node000005_Node000003" class="edge">
<title>Node5&#45;&gt;Node3</title>
<g id="a_edge5_Node000005_Node000003"><a xlink:title=" ">
<path fill="none" stroke="#63b8ff" d="M282.32,-62.47C262.59,-52.75 239.41,-41.34 221.22,-32.38"/>
<polygon fill="#63b8ff" stroke="#63b8ff" points="280.71,-65.58 291.23,-66.86 283.8,-59.3 280.71,-65.58"/>
</a>
</g>
</g>
</g>
</svg>
</svg>

<style type='text/css'>
<![CDATA[
[data-mouse-over-selected='false'] { opacity: 0.7; }
[data-mouse-over-selected='true']  { opacity: 1.0; }
]]>
</style>
<script type="application/ecmascript"><![CDATA[
document.addEventListener('DOMContentLoaded', (event) => {
  highlightEdges();
  highlightAdjacentNodes();
});
]]></script>
</svg>
