<?xml version="1.0" encoding="UTF-8" standalone="no"?>
<!DOCTYPE svg PUBLIC "-//W3C//DTD SVG 1.1//EN"
 "http://www.w3.org/Graphics/SVG/1.1/DTD/svg11.dtd">
<!-- Generated by graphviz version 13.1.0 (20250701.0955)
 -->
<!-- Title: SDL_AsyncIOTask Pages: 1 -->
<svg width="621pt" height="270pt"
 viewBox="0.00 0.00 621.00 270.00" xmlns="http://www.w3.org/2000/svg" xmlns:xlink="http://www.w3.org/1999/xlink">
<g id="graph0" class="graph" transform="scale(1 1) rotate(0) translate(4 266)">
<title>SDL_AsyncIOTask</title>
<!-- Node1 -->
<g id="Node000001" class="node">
<title>Node1</title>
<g id="a_Node000001"><a xlink:title=" ">
<polygon fill="#999999" stroke="#666666" points="173.88,-223 73.88,-223 73.88,-203 173.88,-203 173.88,-223"/>
<text xml:space="preserve" text-anchor="middle" x="123.88" y="-209.5" font-family="Helvetica,sans-Serif" font-size="10.00">SDL_AsyncIOTask</text>
</a>
</g>
</g>
<!-- Node1&#45;&gt;Node1 -->
<g id="edge12_Node000001_Node000001" class="edge">
<title>Node1&#45;&gt;Node1</title>
<g id="a_edge12_Node000001_Node000001"><a xlink:title=" ">
<path fill="none" stroke="#9a32cd" stroke-dasharray="5,2" d="M151.38,-226.95C171.59,-231.7 191.88,-227.05 191.88,-213 191.88,-196.43 163.65,-192.93 140.61,-202.51"/>
<polygon fill="#9a32cd" stroke="#9a32cd" points="152.64,-223.68 142.05,-223.95 150.49,-230.35 152.64,-223.68"/>
</a>
</g>
<text xml:space="preserve" text-anchor="start" x="194.88" y="-249.5" font-family="Helvetica,sans-Serif" font-size="10.00" fill="grey">asyncionext</text>
<text xml:space="preserve" text-anchor="start" x="194.88" y="-233.5" font-family="Helvetica,sans-Serif" font-size="10.00" fill="grey">asyncioprev</text>
<text xml:space="preserve" text-anchor="start" x="194.88" y="-217.5" font-family="Helvetica,sans-Serif" font-size="10.00" fill="grey">queuenext</text>
<text xml:space="preserve" text-anchor="start" x="194.88" y="-201.5" font-family="Helvetica,sans-Serif" font-size="10.00" fill="grey">queueprev</text>
<text xml:space="preserve" text-anchor="start" x="194.88" y="-185.5" font-family="Helvetica,sans-Serif" font-size="10.00" fill="grey">threadpoolnext</text>
<text xml:space="preserve" text-anchor="start" x="194.88" y="-169.5" font-family="Helvetica,sans-Serif" font-size="10.00" fill="grey">threadpoolprev</text>
</g>
<!-- Node2 -->
<g id="Node000002" class="node">
<title>Node2</title>
<g id="a_Node000002"><a xlink:href="../../da/d74/structSDL__AsyncIO.html" target="_top" xlink:title=" ">
<polygon fill="white" stroke="#666666" points="360.38,-94 281.38,-94 281.38,-74 360.38,-74 360.38,-94"/>
<text xml:space="preserve" text-anchor="middle" x="320.88" y="-80.5" font-family="Helvetica,sans-Serif" font-size="10.00">SDL_AsyncIO</text>
</a>
</g>
</g>
<!-- Node1&#45;&gt;Node2 -->
<g id="edge7_Node000002_Node000001" class="edge">
<title>Node1&#45;&gt;Node2</title>
<g id="a_edge7_Node000002_Node000001"><a xlink:title=" ">
<path fill="none" stroke="#9a32cd" stroke-dasharray="5,2" d="M160.77,-198.4C188.64,-187.03 226.9,-168.98 255.88,-146 271.27,-133.79 269.82,-125.47 284.12,-112 290.92,-105.59 299.26,-99.36 306.28,-94.49"/>
<polygon fill="#9a32cd" stroke="#9a32cd" points="159.68,-195.07 151.67,-202.01 162.26,-201.58 159.68,-195.07"/>
</a>
</g>
<text xml:space="preserve" text-anchor="start" x="287.12" y="-133.5" font-family="Helvetica,sans-Serif" font-size="10.00" fill="grey">closing</text>
<text xml:space="preserve" text-anchor="start" x="287.12" y="-117.5" font-family="Helvetica,sans-Serif" font-size="10.00" fill="grey">tasks</text>
</g>
<!-- Node8 -->
<g id="Node000008" class="node">
<title>Node8</title>
<g id="a_Node000008"><a xlink:href="../../d3/d75/structSDL__AsyncIOQueueInterface.html" target="_top" xlink:title=" ">
<polygon fill="white" stroke="#666666" points="145.75,-94 0,-94 0,-74 145.75,-74 145.75,-94"/>
<text xml:space="preserve" text-anchor="middle" x="72.88" y="-80.5" font-family="Helvetica,sans-Serif" font-size="10.00">SDL_AsyncIOQueueInterface</text>
</a>
</g>
</g>
<!-- Node1&#45;&gt;Node8 -->
<g id="edge10_Node000008_Node000001" class="edge">
<title>Node1&#45;&gt;Node8</title>
<g id="a_edge10_Node000008_Node000001"><a xlink:title=" ">
<path fill="none" stroke="#9a32cd" stroke-dasharray="5,2" d="M116.04,-192.48C104.9,-164.75 84.94,-115.04 76.65,-94.39"/>
<polygon fill="#9a32cd" stroke="#9a32cd" points="112.67,-193.49 119.64,-201.46 119.16,-190.88 112.67,-193.49"/>
</a>
</g>
<text xml:space="preserve" text-anchor="start" x="99.85" y="-133.5" font-family="Helvetica,sans-Serif" font-size="10.00" fill="grey">get_results</text>
<text xml:space="preserve" text-anchor="start" x="99.85" y="-117.5" font-family="Helvetica,sans-Serif" font-size="10.00" fill="grey">wait_results</text>
</g>
<!-- Node2&#45;&gt;Node1 -->
<g id="edge1_Node000001_Node000002" class="edge">
<title>Node2&#45;&gt;Node1</title>
<g id="a_edge1_Node000001_Node000002"><a xlink:title=" ">
<path fill="none" stroke="#9a32cd" stroke-dasharray="5,2" d="M269.93,-90.58C251.73,-94.45 231.85,-100.97 216.12,-112 201.14,-122.51 204.72,-132.04 192.88,-146 174.21,-167.99 149.04,-190.58 134.83,-202.79"/>
<polygon fill="#9a32cd" stroke="#9a32cd" points="270.33,-94.07 279.51,-88.79 269.04,-87.19 270.33,-94.07"/>
</a>
</g>
<text xml:space="preserve" text-anchor="start" x="219.12" y="-125.5" font-family="Helvetica,sans-Serif" font-size="10.00" fill="grey">asyncio</text>
</g>
<!-- Node3 -->
<g id="Node000003" class="node">
<title>Node3</title>
<g id="a_Node000003"><a xlink:href="../../d8/db4/structSDL__AsyncIOInterface.html" target="_top" xlink:title=" ">
<polygon fill="white" stroke="#666666" points="396.5,-223 279.25,-223 279.25,-203 396.5,-203 396.5,-223"/>
<text xml:space="preserve" text-anchor="middle" x="337.88" y="-209.5" font-family="Helvetica,sans-Serif" font-size="10.00">SDL_AsyncIOInterface</text>
</a>
</g>
</g>
<!-- Node3&#45;&gt;Node2 -->
<g id="edge2_Node000002_Node000003" class="edge">
<title>Node3&#45;&gt;Node2</title>
<g id="a_edge2_Node000002_Node000003"><a xlink:title=" ">
<path fill="none" stroke="#9a32cd" stroke-dasharray="5,2" d="M335.16,-191.73C331.43,-163.87 324.87,-114.86 322.13,-94.39"/>
<polygon fill="#9a32cd" stroke="#9a32cd" points="331.66,-191.92 336.45,-201.37 338.59,-190.99 331.66,-191.92"/>
</a>
</g>
<text xml:space="preserve" text-anchor="start" x="331.87" y="-125.5" font-family="Helvetica,sans-Serif" font-size="10.00" fill="grey">iface</text>
</g>
<!-- Node4 -->
<g id="Node000004" class="node">
<title>Node4</title>
<g id="a_Node000004"><a xlink:href="../../d0/df2/structSDL__Mutex.html" target="_top" xlink:title=" ">
<polygon fill="white" stroke="#666666" points="482.75,-223 415,-223 415,-203 482.75,-203 482.75,-223"/>
<text xml:space="preserve" text-anchor="middle" x="448.88" y="-209.5" font-family="Helvetica,sans-Serif" font-size="10.00">SDL_Mutex</text>
</a>
</g>
</g>
<!-- Node4&#45;&gt;Node2 -->
<g id="edge3_Node000002_Node000004" class="edge">
<title>Node4&#45;&gt;Node2</title>
<g id="a_edge3_Node000002_Node000004"><a xlink:title=" ">
<path fill="none" stroke="#9a32cd" stroke-dasharray="5,2" d="M434.76,-193.65C418.12,-172.64 389.02,-137.8 359.88,-112 352.6,-105.56 343.74,-99.32 336.31,-94.46"/>
<polygon fill="#9a32cd" stroke="#9a32cd" points="431.84,-195.59 440.75,-201.31 437.35,-191.28 431.84,-195.59"/>
</a>
</g>
<text xml:space="preserve" text-anchor="start" x="396.83" y="-125.5" font-family="Helvetica,sans-Serif" font-size="10.00" fill="grey">lock</text>
</g>
<!-- Node5 -->
<g id="Node000005" class="node">
<title>Node5</title>
<g id="a_Node000005"><a xlink:href="../../d8/d0b/structSDL__Semaphore.html" target="_top" xlink:title=" ">
<polygon fill="white" stroke="#666666" points="496,-94 405.75,-94 405.75,-74 496,-74 496,-94"/>
<text xml:space="preserve" text-anchor="middle" x="450.88" y="-80.5" font-family="Helvetica,sans-Serif" font-size="10.00">SDL_Semaphore</text>
</a>
</g>
</g>
<!-- Node4&#45;&gt;Node5 -->
<g id="edge5_Node000005_Node000004" class="edge">
<title>Node4&#45;&gt;Node5</title>
<g id="a_edge5_Node000005_Node000004"><a xlink:title=" ">
<path fill="none" stroke="#9a32cd" stroke-dasharray="5,2" d="M439.99,-192.2C432.07,-171.74 422.96,-139.07 431.62,-112 433.73,-105.42 438.09,-99.08 442.13,-94.19"/>
<polygon fill="#9a32cd" stroke="#9a32cd" points="436.71,-193.42 443.79,-201.3 443.17,-190.72 436.71,-193.42"/>
</a>
</g>
<text xml:space="preserve" text-anchor="start" x="434.62" y="-125.5" font-family="Helvetica,sans-Serif" font-size="10.00" fill="grey">count_lock</text>
</g>
<!-- Node5&#45;&gt;Node4 -->
<g id="edge4_Node000004_Node000005" class="edge">
<title>Node5&#45;&gt;Node4</title>
<g id="a_edge4_Node000004_Node000005"><a xlink:title=" ">
<path fill="none" stroke="#9a32cd" stroke-dasharray="5,2" d="M480.25,-101.17C483.71,-104.3 486.76,-107.91 488.88,-112 495.81,-125.43 492.94,-131.45 488.88,-146 482.67,-168.2 466.75,-190.36 456.97,-202.51"/>
<polygon fill="#9a32cd" stroke="#9a32cd" points="482.4,-98.41 472.29,-95.25 478.22,-104.02 482.4,-98.41"/>
</a>
</g>
<text xml:space="preserve" text-anchor="start" x="496.07" y="-125.5" font-family="Helvetica,sans-Serif" font-size="10.00" fill="grey">sem</text>
</g>
<!-- Node6 -->
<g id="Node000006" class="node">
<title>Node6</title>
<g id="a_Node000006"><a xlink:href="../../d0/d07/structSDL__Condition.html" target="_top" xlink:title=" ">
<polygon fill="white" stroke="#666666" points="599.88,-223 517.88,-223 517.88,-203 599.88,-203 599.88,-223"/>
<text xml:space="preserve" text-anchor="middle" x="558.88" y="-209.5" font-family="Helvetica,sans-Serif" font-size="10.00">SDL_Condition</text>
</a>
</g>
</g>
<!-- Node6&#45;&gt;Node5 -->
<g id="edge6_Node000005_Node000006" class="edge">
<title>Node6&#45;&gt;Node5</title>
<g id="a_edge6_Node000005_Node000006"><a xlink:title=" ">
<path fill="none" stroke="#9a32cd" stroke-dasharray="5,2" d="M556.35,-191.48C552.58,-169.16 543.43,-133.75 521.88,-112 513.98,-104.04 503.51,-98.39 493.03,-94.39"/>
<polygon fill="#9a32cd" stroke="#9a32cd" points="552.86,-191.75 557.76,-201.14 559.78,-190.74 552.86,-191.75"/>
</a>
</g>
<text xml:space="preserve" text-anchor="start" x="546.48" y="-125.5" font-family="Helvetica,sans-Serif" font-size="10.00" fill="grey">count_nonzero</text>
</g>
<!-- Node7 -->
<g id="Node000007" class="node">
<title>Node7</title>
<g id="a_Node000007"><a xlink:href="../../d0/d61/structSDL__AsyncIOQueue.html" target="_top" xlink:title=" ">
<polygon fill="white" stroke="#666666" points="235.62,-20 128.12,-20 128.12,0 235.62,0 235.62,-20"/>
<text xml:space="preserve" text-anchor="middle" x="181.88" y="-6.5" font-family="Helvetica,sans-Serif" font-size="10.00">SDL_AsyncIOQueue</text>
</a>
</g>
</g>
<!-- Node7&#45;&gt;Node1 -->
<g id="edge8_Node000001_Node000007" class="edge">
<title>Node7&#45;&gt;Node1</title>
<g id="a_edge8_Node000001_Node000007"><a xlink:title=" ">
<path fill="none" stroke="#9a32cd" stroke-dasharray="5,2" d="M180.39,-31.81C178.02,-58.77 172.18,-106.93 158.88,-146 151.6,-167.36 138.05,-190.18 130.11,-202.6"/>
<polygon fill="#9a32cd" stroke="#9a32cd" points="183.88,-32.17 181.18,-21.93 176.9,-31.62 183.88,-32.17"/>
</a>
</g>
<text xml:space="preserve" text-anchor="start" x="178.15" y="-80.5" font-family="Helvetica,sans-Serif" font-size="10.00" fill="grey">queue</text>
</g>
<!-- Node8&#45;&gt;Node7 -->
<g id="edge9_Node000007_Node000008" class="edge">
<title>Node8&#45;&gt;Node7</title>
<g id="a_edge9_Node000007_Node000008"><a xlink:title=" ">
<path fill="none" stroke="#9a32cd" stroke-dasharray="5,2" d="M96.43,-67.39C109.52,-58.73 126.09,-47.76 140.88,-38 149.69,-32.18 159.59,-25.66 167.45,-20.49"/>
<polygon fill="#9a32cd" stroke="#9a32cd" points="94.86,-64.23 88.46,-72.67 98.73,-70.07 94.86,-64.23"/>
</a>
</g>
<text xml:space="preserve" text-anchor="start" x="143.88" y="-43.5" font-family="Helvetica,sans-Serif" font-size="10.00" fill="grey">iface</text>
</g>
<!-- Node9 -->
<g id="Node000009" class="node">
<title>Node9</title>
<g id="a_Node000009"><a xlink:href="../../d1/dbc/structSDL__AtomicInt.html" target="_top" xlink:title=" ">
<polygon fill="white" stroke="#666666" points="597.25,-94 514.5,-94 514.5,-74 597.25,-74 597.25,-94"/>
<text xml:space="preserve" text-anchor="middle" x="555.88" y="-80.5" font-family="Helvetica,sans-Serif" font-size="10.00">SDL_AtomicInt</text>
</a>
</g>
</g>
<!-- Node9&#45;&gt;Node7 -->
<g id="edge11_Node000007_Node000009" class="edge">
<title>Node9&#45;&gt;Node7</title>
<g id="a_edge11_Node000007_Node000009"><a xlink:title=" ">
<path fill="none" stroke="#9a32cd" stroke-dasharray="5,2" d="M502.94,-72.81C430.52,-58.87 301.52,-34.03 231.09,-20.48"/>
<polygon fill="#9a32cd" stroke="#9a32cd" points="502.09,-76.21 512.57,-74.66 503.42,-69.34 502.09,-76.21"/>
</a>
</g>
<text xml:space="preserve" text-anchor="start" x="416.37" y="-43.5" font-family="Helvetica,sans-Serif" font-size="10.00" fill="grey">tasks_inflight</text>
</g>
</g>
</svg>
