<?xml version="1.0" encoding="UTF-8" standalone="no"?>
<!DOCTYPE svg PUBLIC "-//W3C//DTD SVG 1.1//EN"
 "http://www.w3.org/Graphics/SVG/1.1/DTD/svg11.dtd">
<!-- Generated by graphviz version 13.1.0 (20250701.0955)
 -->
<!-- Title: hidapi_initialize_device Pages: 1 -->
<svg width="297pt" height="78pt"
 viewBox="0.00 0.00 297.00 78.00" xmlns="http://www.w3.org/2000/svg" xmlns:xlink="http://www.w3.org/1999/xlink">
<g id="graph0" class="graph" transform="scale(1 1) rotate(0) translate(4 74)">
<title>hidapi_initialize_device</title>
<!-- Node1 -->
<g id="Node000001" class="node">
<title>Node1</title>
<g id="a_Node000001"><a xlink:title=" ">
<polygon fill="#999999" stroke="#666666" points="289.25,-42 173.5,-42 173.5,-22 289.25,-22 289.25,-42"/>
<text xml:space="preserve" text-anchor="middle" x="231.38" y="-28.5" font-family="Helvetica,sans-Serif" font-size="10.00">hidapi_initialize_device</text>
</a>
</g>
</g>
<!-- Node2 -->
<g id="Node000002" class="node">
<title>Node2</title>
<g id="a_Node000002"><a xlink:href="../../dc/d19/group__API.html#ga79ee22c410d586c3d75f360eb8752595" target="_top" xlink:title="Open a HID device using libusb_wrap_sys_device. See https://libusb.sourceforge.io/api&#45;1....">
<polygon fill="white" stroke="#666666" points="122.12,-70 15.38,-70 15.38,-38 122.12,-38 122.12,-70"/>
<text xml:space="preserve" text-anchor="start" x="23.38" y="-56.5" font-family="Helvetica,sans-Serif" font-size="10.00">hid_libusb_wrap_sys</text>
<text xml:space="preserve" text-anchor="middle" x="68.75" y="-44.5" font-family="Helvetica,sans-Serif" font-size="10.00">_device</text>
</a>
</g>
</g>
<!-- Node1&#45;&gt;Node2 -->
<g id="edge1_Node000001_Node000002" class="edge">
<title>Node1&#45;&gt;Node2</title>
<g id="a_edge1_Node000001_Node000002"><a xlink:title=" ">
<path fill="none" stroke="#63b8ff" d="M161.89,-41.38C148.75,-43.18 135.18,-45.04 122.62,-46.76"/>
<polygon fill="#63b8ff" stroke="#63b8ff" points="162.36,-44.85 171.79,-40.02 161.41,-37.91 162.36,-44.85"/>
</a>
</g>
</g>
<!-- Node3 -->
<g id="Node000003" class="node">
<title>Node3</title>
<g id="a_Node000003"><a xlink:href="../../d6/dcf/libusb_2hid_8c.html#a0e569381b03120d85110c54f4cdff5b5" target="_top" xlink:title=" ">
<polygon fill="white" stroke="#666666" points="137.5,-20 0,-20 0,0 137.5,0 137.5,-20"/>
<text xml:space="preserve" text-anchor="middle" x="68.75" y="-6.5" font-family="Helvetica,sans-Serif" font-size="10.00">PLATFORM_hid_open_path</text>
</a>
</g>
</g>
<!-- Node1&#45;&gt;Node3 -->
<g id="edge2_Node000001_Node000003" class="edge">
<title>Node1&#45;&gt;Node3</title>
<g id="a_edge2_Node000001_Node000003"><a xlink:title=" ">
<path fill="none" stroke="#63b8ff" d="M162.11,-22.65C154.1,-21.55 145.92,-20.43 137.91,-19.34"/>
<polygon fill="#63b8ff" stroke="#63b8ff" points="161.41,-26.09 171.79,-23.98 162.36,-19.15 161.41,-26.09"/>
</a>
</g>
</g>
</g>
</svg>
