<?xml version="1.0" encoding="UTF-8" standalone="no"?>
<!DOCTYPE svg PUBLIC "-//W3C//DTD SVG 1.1//EN"
 "http://www.w3.org/Graphics/SVG/1.1/DTD/svg11.dtd">
<!-- Generated by graphviz version 13.1.0 (20250701.0955)
 -->
<!-- Title: get_usb_string Pages: 1 -->
<svg width="252pt" height="116pt"
 viewBox="0.00 0.00 252.00 116.00" xmlns="http://www.w3.org/2000/svg" xmlns:xlink="http://www.w3.org/1999/xlink">
<g id="graph0" class="graph" transform="scale(1 1) rotate(0) translate(4 112)">
<title>get_usb_string</title>
<!-- Node1 -->
<g id="Node000001" class="node">
<title>Node1</title>
<g id="a_Node000001"><a xlink:title=" ">
<polygon fill="#999999" stroke="#666666" points="79.75,-64 0,-64 0,-44 79.75,-44 79.75,-64"/>
<text xml:space="preserve" text-anchor="middle" x="39.88" y="-50.5" font-family="Helvetica,sans-Serif" font-size="10.00">get_usb_string</text>
</a>
</g>
</g>
<!-- Node2 -->
<g id="Node000002" class="node">
<title>Node2</title>
<g id="a_Node000002"><a xlink:href="../../d6/dcf/libusb_2hid_8c.html#ada00cb58c1be3eee63ecf0ac884c5fc1" target="_top" xlink:title=" ">
<polygon fill="white" stroke="#666666" points="227.75,-108 132.25,-108 132.25,-88 227.75,-88 227.75,-108"/>
<text xml:space="preserve" text-anchor="middle" x="180" y="-94.5" font-family="Helvetica,sans-Serif" font-size="10.00">get_first_language</text>
</a>
</g>
</g>
<!-- Node1&#45;&gt;Node2 -->
<g id="edge1_Node000001_Node000002" class="edge">
<title>Node1&#45;&gt;Node2</title>
<g id="a_edge1_Node000001_Node000002"><a xlink:title=" ">
<path fill="none" stroke="#63b8ff" d="M71.41,-64.43C84.96,-69 101.12,-74.36 115.75,-79 121.21,-80.73 126.95,-82.51 132.65,-84.25"/>
<polygon fill="#63b8ff" stroke="#63b8ff" points="131.45,-87.55 142.03,-87.1 133.48,-80.85 131.45,-87.55"/>
</a>
</g>
</g>
<!-- Node3 -->
<g id="Node000003" class="node">
<title>Node3</title>
<g id="a_Node000003"><a xlink:href="../../d6/dcf/libusb_2hid_8c.html#a1d1ebc46d7f1472371a800d9ac64b60a" target="_top" xlink:title=" ">
<polygon fill="white" stroke="#666666" points="244.25,-70 115.75,-70 115.75,-38 244.25,-38 244.25,-70"/>
<text xml:space="preserve" text-anchor="start" x="123.75" y="-56.5" font-family="Helvetica,sans-Serif" font-size="10.00">get_usb_code_for_current</text>
<text xml:space="preserve" text-anchor="middle" x="180" y="-44.5" font-family="Helvetica,sans-Serif" font-size="10.00">_locale</text>
</a>
</g>
</g>
<!-- Node1&#45;&gt;Node3 -->
<g id="edge2_Node000001_Node000003" class="edge">
<title>Node1&#45;&gt;Node3</title>
<g id="a_edge2_Node000001_Node000003"><a xlink:title=" ">
<path fill="none" stroke="#63b8ff" d="M80.09,-54C87.65,-54 95.81,-54 104.08,-54"/>
<polygon fill="#63b8ff" stroke="#63b8ff" points="103.88,-57.5 113.88,-54 103.88,-50.5 103.88,-57.5"/>
</a>
</g>
</g>
<!-- Node4 -->
<g id="Node000004" class="node">
<title>Node4</title>
<g id="a_Node000004"><a xlink:href="../../d6/dcf/libusb_2hid_8c.html#ab61105ef7bde578ce99eaf288d784088" target="_top" xlink:title=" ">
<polygon fill="white" stroke="#666666" points="237.88,-20 122.12,-20 122.12,0 237.88,0 237.88,-20"/>
<text xml:space="preserve" text-anchor="middle" x="180" y="-6.5" font-family="Helvetica,sans-Serif" font-size="10.00">is_language_supported</text>
</a>
</g>
</g>
<!-- Node1&#45;&gt;Node4 -->
<g id="edge3_Node000001_Node000004" class="edge">
<title>Node1&#45;&gt;Node4</title>
<g id="a_edge3_Node000001_Node000004"><a xlink:title=" ">
<path fill="none" stroke="#63b8ff" d="M71.41,-43.57C84.96,-39 101.12,-33.64 115.75,-29 121.21,-27.27 126.95,-25.49 132.65,-23.75"/>
<polygon fill="#63b8ff" stroke="#63b8ff" points="133.48,-27.15 142.03,-20.9 131.45,-20.45 133.48,-27.15"/>
</a>
</g>
</g>
</g>
</svg>
