<?xml version="1.0" encoding="UTF-8" standalone="no"?>
<!DOCTYPE svg PUBLIC "-//W3C//DTD SVG 1.1//EN"
 "http://www.w3.org/Graphics/SVG/1.1/DTD/svg11.dtd">
<!-- Generated by graphviz version 13.1.0 (20250701.0955)
 -->
<!-- Title: hid_get_report_descriptor_libusb Pages: 1 -->
<svg width="502pt" height="78pt"
 viewBox="0.00 0.00 502.00 78.00" xmlns="http://www.w3.org/2000/svg" xmlns:xlink="http://www.w3.org/1999/xlink">
<g id="graph0" class="graph" transform="scale(1 1) rotate(0) translate(4 74)">
<title>hid_get_report_descriptor_libusb</title>
<!-- Node1 -->
<g id="Node000001" class="node">
<title>Node1</title>
<g id="a_Node000001"><a xlink:title=" ">
<polygon fill="#999999" stroke="#666666" points="494.25,-54 368.75,-54 368.75,-22 494.25,-22 494.25,-54"/>
<text xml:space="preserve" text-anchor="start" x="376.75" y="-40.5" font-family="Helvetica,sans-Serif" font-size="10.00">hid_get_report_descriptor</text>
<text xml:space="preserve" text-anchor="middle" x="431.5" y="-28.5" font-family="Helvetica,sans-Serif" font-size="10.00">_libusb</text>
</a>
</g>
</g>
<!-- Node2 -->
<g id="Node000002" class="node">
<title>Node2</title>
<g id="a_Node000002"><a xlink:href="../../d6/dcf/libusb_2hid_8c.html#a9b47478bcf503e894cb1d8b7575b9e0f" target="_top" xlink:title=" ">
<polygon fill="white" stroke="#666666" points="320.75,-70 208.75,-70 208.75,-50 320.75,-50 320.75,-70"/>
<text xml:space="preserve" text-anchor="middle" x="264.75" y="-56.5" font-family="Helvetica,sans-Serif" font-size="10.00">fill_device_info_usage</text>
</a>
</g>
</g>
<!-- Node1&#45;&gt;Node2 -->
<g id="edge1_Node000001_Node000002" class="edge">
<title>Node1&#45;&gt;Node2</title>
<g id="a_edge1_Node000001_Node000002"><a xlink:title=" ">
<path fill="none" stroke="#63b8ff" d="M357.56,-47.74C345.34,-49.37 332.83,-51.04 321.13,-52.6"/>
<polygon fill="#63b8ff" stroke="#63b8ff" points="357.74,-51.25 367.18,-46.45 356.81,-44.31 357.74,-51.25"/>
</a>
</g>
</g>
<!-- Node4 -->
<g id="Node000004" class="node">
<title>Node4</title>
<g id="a_Node000004"><a xlink:href="../../d6/dcf/libusb_2hid_8c.html#a72e30a957ccb852083bf163f3b08631e" target="_top" xlink:title=" ">
<polygon fill="white" stroke="#666666" points="332.75,-32 196.75,-32 196.75,0 332.75,0 332.75,-32"/>
<text xml:space="preserve" text-anchor="start" x="204.75" y="-18.5" font-family="Helvetica,sans-Serif" font-size="10.00">PLATFORM_hid_get_report</text>
<text xml:space="preserve" text-anchor="middle" x="264.75" y="-6.5" font-family="Helvetica,sans-Serif" font-size="10.00">_descriptor</text>
</a>
</g>
</g>
<!-- Node1&#45;&gt;Node4 -->
<g id="edge3_Node000001_Node000004" class="edge">
<title>Node1&#45;&gt;Node4</title>
<g id="a_edge3_Node000001_Node000004"><a xlink:title=" ">
<path fill="none" stroke="#63b8ff" d="M357.4,-28.24C349.33,-27.16 341.15,-26.07 333.16,-25"/>
<polygon fill="#63b8ff" stroke="#63b8ff" points="356.81,-31.69 367.18,-29.55 357.74,-24.75 356.81,-31.69"/>
</a>
</g>
</g>
<!-- Node3 -->
<g id="Node000003" class="node">
<title>Node3</title>
<g id="a_Node000003"><a xlink:href="../../d6/dcf/libusb_2hid_8c.html#a0fb3a037bb3d94c05c7f670e66a14ed8" target="_top" xlink:title=" ">
<polygon fill="white" stroke="#666666" points="160.75,-70 0,-70 0,-50 160.75,-50 160.75,-70"/>
<text xml:space="preserve" text-anchor="middle" x="80.38" y="-56.5" font-family="Helvetica,sans-Serif" font-size="10.00">PLATFORM_hid_get_device_info</text>
</a>
</g>
</g>
<!-- Node2&#45;&gt;Node3 -->
<g id="edge2_Node000002_Node000003" class="edge">
<title>Node2&#45;&gt;Node3</title>
<g id="a_edge2_Node000002_Node000003"><a xlink:title=" ">
<path fill="none" stroke="#63b8ff" d="M197.03,-60C185.31,-60 173,-60 160.96,-60"/>
<polygon fill="#63b8ff" stroke="#63b8ff" points="197.02,-63.5 207.02,-60 197.02,-56.5 197.02,-63.5"/>
</a>
</g>
</g>
</g>
</svg>
