<?xml version="1.0" encoding="UTF-8" standalone="no"?>
<!DOCTYPE svg PUBLIC "-//W3C//DTD SVG 1.1//EN"
 "http://www.w3.org/Graphics/SVG/1.1/DTD/svg11.dtd">
<!-- Generated by graphviz version 13.1.0 (20250701.0955)
 -->
<!-- Title: PLATFORM_hid_get_indexed_string Pages: 1 -->
<svg width="433pt" height="116pt"
 viewBox="0.00 0.00 433.00 116.00" xmlns="http://www.w3.org/2000/svg" xmlns:xlink="http://www.w3.org/1999/xlink">
<g id="graph0" class="graph" transform="scale(1 1) rotate(0) translate(4 112)">
<title>PLATFORM_hid_get_indexed_string</title>
<!-- Node1 -->
<g id="Node000001" class="node">
<title>Node1</title>
<g id="a_Node000001"><a xlink:title=" ">
<polygon fill="#999999" stroke="#666666" points="145,-70 0,-70 0,-38 145,-38 145,-70"/>
<text xml:space="preserve" text-anchor="start" x="8" y="-56.5" font-family="Helvetica,sans-Serif" font-size="10.00">PLATFORM_hid_get_indexed</text>
<text xml:space="preserve" text-anchor="middle" x="72.5" y="-44.5" font-family="Helvetica,sans-Serif" font-size="10.00">_string</text>
</a>
</g>
</g>
<!-- Node2 -->
<g id="Node000002" class="node">
<title>Node2</title>
<g id="a_Node000002"><a xlink:href="../../d6/dcf/libusb_2hid_8c.html#a6c01aee67f7a961f17747660f6e817e3" target="_top" xlink:title=" ">
<polygon fill="white" stroke="#666666" points="260.75,-64 181,-64 181,-44 260.75,-44 260.75,-64"/>
<text xml:space="preserve" text-anchor="middle" x="220.88" y="-50.5" font-family="Helvetica,sans-Serif" font-size="10.00">get_usb_string</text>
</a>
</g>
</g>
<!-- Node1&#45;&gt;Node2 -->
<g id="edge1_Node000001_Node000002" class="edge">
<title>Node1&#45;&gt;Node2</title>
<g id="a_edge1_Node000001_Node000002"><a xlink:title=" ">
<path fill="none" stroke="#63b8ff" d="M145.4,-54C153.47,-54 161.55,-54 169.27,-54"/>
<polygon fill="#63b8ff" stroke="#63b8ff" points="169.13,-57.5 179.13,-54 169.13,-50.5 169.13,-57.5"/>
</a>
</g>
</g>
<!-- Node3 -->
<g id="Node000003" class="node">
<title>Node3</title>
<g id="a_Node000003"><a xlink:href="../../d6/dcf/libusb_2hid_8c.html#ada00cb58c1be3eee63ecf0ac884c5fc1" target="_top" xlink:title=" ">
<polygon fill="white" stroke="#666666" points="408.75,-108 313.25,-108 313.25,-88 408.75,-88 408.75,-108"/>
<text xml:space="preserve" text-anchor="middle" x="361" y="-94.5" font-family="Helvetica,sans-Serif" font-size="10.00">get_first_language</text>
</a>
</g>
</g>
<!-- Node2&#45;&gt;Node3 -->
<g id="edge2_Node000002_Node000003" class="edge">
<title>Node2&#45;&gt;Node3</title>
<g id="a_edge2_Node000002_Node000003"><a xlink:title=" ">
<path fill="none" stroke="#63b8ff" d="M252.41,-64.43C265.96,-69 282.12,-74.36 296.75,-79 302.21,-80.73 307.95,-82.51 313.65,-84.25"/>
<polygon fill="#63b8ff" stroke="#63b8ff" points="312.45,-87.55 323.03,-87.1 314.48,-80.85 312.45,-87.55"/>
</a>
</g>
</g>
<!-- Node4 -->
<g id="Node000004" class="node">
<title>Node4</title>
<g id="a_Node000004"><a xlink:href="../../d6/dcf/libusb_2hid_8c.html#a1d1ebc46d7f1472371a800d9ac64b60a" target="_top" xlink:title=" ">
<polygon fill="white" stroke="#666666" points="425.25,-70 296.75,-70 296.75,-38 425.25,-38 425.25,-70"/>
<text xml:space="preserve" text-anchor="start" x="304.75" y="-56.5" font-family="Helvetica,sans-Serif" font-size="10.00">get_usb_code_for_current</text>
<text xml:space="preserve" text-anchor="middle" x="361" y="-44.5" font-family="Helvetica,sans-Serif" font-size="10.00">_locale</text>
</a>
</g>
</g>
<!-- Node2&#45;&gt;Node4 -->
<g id="edge3_Node000002_Node000004" class="edge">
<title>Node2&#45;&gt;Node4</title>
<g id="a_edge3_Node000002_Node000004"><a xlink:title=" ">
<path fill="none" stroke="#63b8ff" d="M261.09,-54C268.65,-54 276.81,-54 285.08,-54"/>
<polygon fill="#63b8ff" stroke="#63b8ff" points="284.88,-57.5 294.88,-54 284.88,-50.5 284.88,-57.5"/>
</a>
</g>
</g>
<!-- Node5 -->
<g id="Node000005" class="node">
<title>Node5</title>
<g id="a_Node000005"><a xlink:href="../../d6/dcf/libusb_2hid_8c.html#ab61105ef7bde578ce99eaf288d784088" target="_top" xlink:title=" ">
<polygon fill="white" stroke="#666666" points="418.88,-20 303.12,-20 303.12,0 418.88,0 418.88,-20"/>
<text xml:space="preserve" text-anchor="middle" x="361" y="-6.5" font-family="Helvetica,sans-Serif" font-size="10.00">is_language_supported</text>
</a>
</g>
</g>
<!-- Node2&#45;&gt;Node5 -->
<g id="edge4_Node000002_Node000005" class="edge">
<title>Node2&#45;&gt;Node5</title>
<g id="a_edge4_Node000002_Node000005"><a xlink:title=" ">
<path fill="none" stroke="#63b8ff" d="M252.41,-43.57C265.96,-39 282.12,-33.64 296.75,-29 302.21,-27.27 307.95,-25.49 313.65,-23.75"/>
<polygon fill="#63b8ff" stroke="#63b8ff" points="314.48,-27.15 323.03,-20.9 312.45,-20.45 314.48,-27.15"/>
</a>
</g>
</g>
</g>
</svg>
