<?xml version="1.0" encoding="UTF-8" standalone="no"?>
<!DOCTYPE svg PUBLIC "-//W3C//DTD SVG 1.1//EN"
 "http://www.w3.org/Graphics/SVG/1.1/DTD/svg11.dtd">
<!-- Generated by graphviz version 13.1.0 (20250701.0955)
 -->
<!-- Title: SDL_MouseDoubleClickTimeChanged Pages: 1 -->
<svg width="757pt" height="40pt"
 viewBox="0.00 0.00 757.00 40.00" xmlns="http://www.w3.org/2000/svg" xmlns:xlink="http://www.w3.org/1999/xlink">
<g id="graph0" class="graph" transform="scale(1 1) rotate(0) translate(4 36)">
<title>SDL_MouseDoubleClickTimeChanged</title>
<!-- Node1 -->
<g id="Node000001" class="node">
<title>Node1</title>
<g id="a_Node000001"><a xlink:title=" ">
<polygon fill="#999999" stroke="#666666" points="145,-32 0,-32 0,0 145,0 145,-32"/>
<text xml:space="preserve" text-anchor="start" x="8" y="-18.5" font-family="Helvetica,sans-Serif" font-size="10.00">SDL_MouseDoubleClickTime</text>
<text xml:space="preserve" text-anchor="middle" x="72.5" y="-6.5" font-family="Helvetica,sans-Serif" font-size="10.00">Changed</text>
</a>
</g>
</g>
<!-- Node2 -->
<g id="Node000002" class="node">
<title>Node2</title>
<g id="a_Node000002"><a xlink:href="../../d2/d23/SDL__string_8c.html#aeb781495f4470bec33217910d5353ac8" target="_top" xlink:title=" ">
<polygon fill="white" stroke="#666666" points="237.5,-26 181,-26 181,-6 237.5,-6 237.5,-26"/>
<text xml:space="preserve" text-anchor="middle" x="209.25" y="-12.5" font-family="Helvetica,sans-Serif" font-size="10.00">SDL_atoi</text>
</a>
</g>
</g>
<!-- Node1&#45;&gt;Node2 -->
<g id="edge1_Node000001_Node000002" class="edge">
<title>Node1&#45;&gt;Node2</title>
<g id="a_edge1_Node000001_Node000002"><a xlink:title=" ">
<path fill="none" stroke="#63b8ff" d="M145.21,-16C153.46,-16 161.63,-16 169.2,-16"/>
<polygon fill="#63b8ff" stroke="#63b8ff" points="169.05,-19.5 179.05,-16 169.05,-12.5 169.05,-19.5"/>
</a>
</g>
</g>
<!-- Node3 -->
<g id="Node000003" class="node">
<title>Node3</title>
<g id="a_Node000003"><a xlink:href="../../d2/d23/SDL__string_8c.html#a8291f282f96ea4c1948eb5a87696b873" target="_top" xlink:title=" ">
<polygon fill="white" stroke="#666666" points="336,-26 273.5,-26 273.5,-6 336,-6 336,-26"/>
<text xml:space="preserve" text-anchor="middle" x="304.75" y="-12.5" font-family="Helvetica,sans-Serif" font-size="10.00">SDL_strtol</text>
</a>
</g>
</g>
<!-- Node2&#45;&gt;Node3 -->
<g id="edge2_Node000002_Node000003" class="edge">
<title>Node2&#45;&gt;Node3</title>
<g id="a_edge2_Node000002_Node000003"><a xlink:title=" ">
<path fill="none" stroke="#63b8ff" d="M237.8,-16C245.34,-16 253.69,-16 261.84,-16"/>
<polygon fill="#63b8ff" stroke="#63b8ff" points="261.61,-19.5 271.61,-16 261.61,-12.5 261.61,-19.5"/>
</a>
</g>
</g>
<!-- Node4 -->
<g id="Node000004" class="node">
<title>Node4</title>
<g id="a_Node000004"><a xlink:href="../../d2/d23/SDL__string_8c.html#a1bed6e3ed5cfd4a6a39e5735a22168d1" target="_top" xlink:title=" ">
<polygon fill="white" stroke="#666666" points="456.25,-26 372,-26 372,-6 456.25,-6 456.25,-26"/>
<text xml:space="preserve" text-anchor="middle" x="414.12" y="-12.5" font-family="Helvetica,sans-Serif" font-size="10.00">SDL_ScanLong</text>
</a>
</g>
</g>
<!-- Node3&#45;&gt;Node4 -->
<g id="edge3_Node000003_Node000004" class="edge">
<title>Node3&#45;&gt;Node4</title>
<g id="a_edge3_Node000003_Node000004"><a xlink:title=" ">
<path fill="none" stroke="#63b8ff" d="M336.23,-16C343.82,-16 352.17,-16 360.49,-16"/>
<polygon fill="#63b8ff" stroke="#63b8ff" points="360.23,-19.5 370.23,-16 360.23,-12.5 360.23,-19.5"/>
</a>
</g>
</g>
<!-- Node5 -->
<g id="Node000005" class="node">
<title>Node5</title>
<g id="a_Node000005"><a xlink:href="../../d2/d23/SDL__string_8c.html#a7973bb641d19e0ed46f90e07e09b07ed" target="_top" xlink:title=" ">
<polygon fill="white" stroke="#666666" points="638.75,-32 492.25,-32 492.25,0 638.75,0 638.75,-32"/>
<text xml:space="preserve" text-anchor="start" x="500.25" y="-18.5" font-family="Helvetica,sans-Serif" font-size="10.00">SDL_ScanUnsignedLongLong</text>
<text xml:space="preserve" text-anchor="middle" x="565.5" y="-6.5" font-family="Helvetica,sans-Serif" font-size="10.00">Internal</text>
</a>
</g>
</g>
<!-- Node4&#45;&gt;Node5 -->
<g id="edge4_Node000004_Node000005" class="edge">
<title>Node4&#45;&gt;Node5</title>
<g id="a_edge4_Node000004_Node000005"><a xlink:title=" ">
<path fill="none" stroke="#63b8ff" d="M456.73,-16C464.27,-16 472.37,-16 480.62,-16"/>
<polygon fill="#63b8ff" stroke="#63b8ff" points="480.42,-19.5 490.42,-16 480.42,-12.5 480.42,-19.5"/>
</a>
</g>
</g>
<!-- Node6 -->
<g id="Node000006" class="node">
<title>Node6</title>
<g id="a_Node000006"><a xlink:href="../../d3/d02/SDL__stdlib_8c.html#a0f97bab0613d4633dfc9a13c1d8bd9f7" target="_top" xlink:title=" ">
<polygon fill="white" stroke="#666666" points="749.25,-26 674.75,-26 674.75,-6 749.25,-6 749.25,-26"/>
<text xml:space="preserve" text-anchor="middle" x="712" y="-12.5" font-family="Helvetica,sans-Serif" font-size="10.00">SDL_isspace</text>
</a>
</g>
</g>
<!-- Node5&#45;&gt;Node6 -->
<g id="edge5_Node000005_Node000006" class="edge">
<title>Node5&#45;&gt;Node6</title>
<g id="a_edge5_Node000005_Node000006"><a xlink:title=" ">
<path fill="none" stroke="#63b8ff" d="M639.17,-16C647.29,-16 655.41,-16 663.1,-16"/>
<polygon fill="#63b8ff" stroke="#63b8ff" points="662.9,-19.5 672.9,-16 662.9,-12.5 662.9,-19.5"/>
</a>
</g>
</g>
</g>
</svg>
