<?xml version="1.0" encoding="UTF-8" standalone="no"?>
<!DOCTYPE svg PUBLIC "-//W3C//DTD SVG 1.1//EN"
 "http://www.w3.org/Graphics/SVG/1.1/DTD/svg11.dtd">
<!-- Generated by graphviz version 13.1.0 (20250701.0955)
 -->
<!-- Title: SDL_RemoveMouse Pages: 1 -->
<!--zoomable 616 -->

<svg id="main" version="1.1" xmlns="http://www.w3.org/2000/svg" xmlns:xlink="http://www.w3.org/1999/xlink" xml:space="preserve" onload="init(evt)">

<style type="text/css"><![CDATA[
.node, .edge {opacity: 0.7;}
.node.selected, .edge.selected {opacity: 1;}
.edge:hover path { stroke: red; }
.edge:hover polygon { stroke: red; fill: red; }
]]></style>

<defs>
  <circle id="rim" cx="0" cy="0" r="7"/>
  <circle id="rim2" cx="0" cy="0" r="3.5"/>
  <g id="zoomPlus">
    <use xlink:href="#rim" fill="#404040"><set attributeName="fill" to="#808080" begin="zoomplus.mouseover" end="zoomplus.mouseout"/></use>
    <path d="M-4,0h8M0,-4v8" fill="none" stroke="white" stroke-width="1.5" pointer-events="none"/>
  </g>
  <g id="zoomMin">
    <use xlink:href="#rim" fill="#404040"><set attributeName="fill" to="#808080" begin="zoomminus.mouseover" end="zoomminus.mouseout"/></use>
    <path d="M-4,0h8" fill="none" stroke="white" stroke-width="1.5" pointer-events="none"/>
  </g>
  <g id="arrowUp" transform="translate(30 24)">
    <use xlink:href="#rim"/>
    <path pointer-events="none" fill="none" stroke="white" stroke-width="1.5" d="M0,-3.0v7 M-2.5,-0.5L0,-3.0L2.5,-0.5"/>
  </g>
  <g id="arrowRight" transform="rotate(90) translate(36 -43)">
    <use xlink:href="#rim"/>
    <path pointer-events="none" fill="none" stroke="white" stroke-width="1.5" d="M0,-3.0v7 M-2.5,-0.5L0,-3.0L2.5,-0.5"/>
  </g>
  <g id="arrowDown" transform="rotate(180) translate(-30 -48)">
    <use xlink:href="#rim"/>
    <path pointer-events="none" fill="none" stroke="white" stroke-width="1.5" d="M0,-3.0v7 M-2.5,-0.5L0,-3.0L2.5,-0.5"/>
  </g>
  <g id="arrowLeft" transform="rotate(270) translate(-36 17)">
    <use xlink:href="#rim"/>
    <path pointer-events="none" fill="none" stroke="white" stroke-width="1.5" d="M0,-3.0v7 M-2.5,-0.5L0,-3.0L2.5,-0.5"/>
  </g>
  <g id="resetDef">
    <use xlink:href="#rim2" fill="#404040"><set attributeName="fill" to="#808080" begin="reset.mouseover" end="reset.mouseout"/></use>
  </g>
</defs>
<script type="application/ecmascript">
var viewWidth = 1578;
var viewHeight = 616;
var sectionId = 'dynsection-84';
</script>
<script type="application/ecmascript" xlink:href="../../svg.min.js"/>
<svg id="graph" class="graph">
<g id="viewport">
<title>SDL_RemoveMouse</title>
<!-- Node1 -->
<g id="Node000001" class="node">
<title>Node1</title>
<g id="a_Node000001"><a xlink:title=" ">
<polygon fill="#999999" stroke="#666666" points="1570,-438 1463.25,-438 1463.25,-418 1570,-418 1570,-438"/>
<text xml:space="preserve" text-anchor="middle" x="1516.62" y="-424.5" font-family="Helvetica,sans-Serif" font-size="10.00">SDL_RemoveMouse</text>
</a>
</g>
</g>
<!-- Node2 -->
<g id="Node000002" class="node">
<title>Node2</title>
<g id="a_Node000002"><a xlink:href="../../d5/d73/SDL__mouse_8c.html#ab98c10531abcedcd8d33e1def1e8429d" target="_top" xlink:title=" ">
<polygon fill="white" stroke="#666666" points="1427.25,-438 1339.25,-438 1339.25,-418 1427.25,-418 1427.25,-438"/>
<text xml:space="preserve" text-anchor="middle" x="1383.25" y="-424.5" font-family="Helvetica,sans-Serif" font-size="10.00">SDL_QuitMouse</text>
</a>
</g>
</g>
<!-- Node1&#45;&gt;Node2 -->
<g id="edge1_Node000001_Node000002" class="edge">
<title>Node1&#45;&gt;Node2</title>
<g id="a_edge1_Node000001_Node000002"><a xlink:title=" ">
<path fill="none" stroke="#63b8ff" d="M1451.57,-428C1443.47,-428 1435.34,-428 1427.67,-428"/>
<polygon fill="#63b8ff" stroke="#63b8ff" points="1451.43,-431.5 1461.43,-428 1451.43,-424.5 1451.43,-431.5"/>
</a>
</g>
</g>
<!-- Node3 -->
<g id="Node000003" class="node">
<title>Node3</title>
<g id="a_Node000003"><a xlink:href="../../d6/d3d/SDL__video_8c.html#ac61dc66ab71d039f9b681916d0fcbc6e" target="_top" xlink:title=" ">
<polygon fill="white" stroke="#666666" points="1021.5,-495 942.5,-495 942.5,-475 1021.5,-475 1021.5,-495"/>
<text xml:space="preserve" text-anchor="middle" x="982" y="-481.5" font-family="Helvetica,sans-Serif" font-size="10.00">SDL_VideoInit</text>
</a>
</g>
</g>
<!-- Node2&#45;&gt;Node3 -->
<g id="edge2_Node000002_Node000003" class="edge">
<title>Node2&#45;&gt;Node3</title>
<g id="a_edge2_Node000002_Node000003"><a xlink:title=" ">
<path fill="none" stroke="#63b8ff" d="M1327.61,-436.93C1287.77,-443.34 1232.46,-452.04 1183.75,-459 1127.56,-467.02 1062.37,-475.27 1021.9,-480.27"/>
<polygon fill="#63b8ff" stroke="#63b8ff" points="1328.12,-440.39 1337.44,-435.34 1327.01,-433.48 1328.12,-440.39"/>
</a>
</g>
</g>
<!-- Node20 -->
<g id="Node000020" class="node">
<title>Node20</title>
<g id="a_Node000020"><a xlink:href="../../d6/d3d/SDL__video_8c.html#ae86d31ef3c6aad24cd4d0da9a9551906" target="_top" xlink:title=" ">
<polygon fill="white" stroke="#666666" points="1303.25,-419 1219.75,-419 1219.75,-399 1303.25,-399 1303.25,-419"/>
<text xml:space="preserve" text-anchor="middle" x="1261.5" y="-405.5" font-family="Helvetica,sans-Serif" font-size="10.00">SDL_VideoQuit</text>
</a>
</g>
</g>
<!-- Node2&#45;&gt;Node20 -->
<g id="edge24_Node000002_Node000020" class="edge">
<title>Node2&#45;&gt;Node20</title>
<g id="a_edge24_Node000002_Node000020"><a xlink:title=" ">
<path fill="none" stroke="#63b8ff" d="M1327.73,-419.35C1319.64,-418.07 1311.42,-416.76 1303.67,-415.53"/>
<polygon fill="#63b8ff" stroke="#63b8ff" points="1327.1,-422.79 1337.52,-420.9 1328.19,-415.88 1327.1,-422.79"/>
</a>
</g>
</g>
<!-- Node4 -->
<g id="Node000004" class="node">
<title>Node4</title>
<g id="a_Node000004"><a xlink:href="../../df/d78/SDL_8c.html#aa33d2b8c0a69b16651f78c26f391b6ef" target="_top" xlink:title=" ">
<polygon fill="white" stroke="#666666" points="881,-495 775.75,-495 775.75,-475 881,-475 881,-495"/>
<text xml:space="preserve" text-anchor="middle" x="828.38" y="-481.5" font-family="Helvetica,sans-Serif" font-size="10.00">SDL_InitSubSystem</text>
</a>
</g>
</g>
<!-- Node3&#45;&gt;Node4 -->
<g id="edge3_Node000003_Node000004" class="edge">
<title>Node3&#45;&gt;Node4</title>
<g id="a_edge3_Node000003_Node000004"><a xlink:title=" ">
<path fill="none" stroke="#63b8ff" d="M931.1,-478.61C915.16,-478.15 897.49,-478.13 881.41,-478.55"/>
<polygon fill="#63b8ff" stroke="#63b8ff" points="930.71,-482.1 940.83,-478.97 930.97,-475.11 930.71,-482.1"/>
</a>
</g>
</g>
<!-- Node4&#45;&gt;Node3 -->
<g id="edge23_Node000004_Node000003" class="edge">
<title>Node4&#45;&gt;Node3</title>
<g id="a_edge23_Node000004_Node000003"><a xlink:title=" ">
<path fill="none" stroke="#63b8ff" d="M892.87,-491.67C909.67,-491.89 927.3,-491.66 942.35,-490.97"/>
<polygon fill="#63b8ff" stroke="#63b8ff" points="892.99,-488.17 882.92,-491.48 892.85,-495.17 892.99,-488.17"/>
</a>
</g>
</g>
<!-- Node5 -->
<g id="Node000005" class="node">
<title>Node5</title>
<g id="a_Node000005"><a xlink:href="../../d6/df9/SDL__joystick_8c.html#a7d2531dc4fbc8de52a29ac3ec171a495" target="_top" xlink:title=" ">
<polygon fill="white" stroke="#666666" points="707.12,-343 596.62,-343 596.62,-323 707.12,-323 707.12,-343"/>
<text xml:space="preserve" text-anchor="middle" x="651.88" y="-329.5" font-family="Helvetica,sans-Serif" font-size="10.00">AttemptSensorFusion</text>
</a>
</g>
</g>
<!-- Node4&#45;&gt;Node5 -->
<g id="edge4_Node000004_Node000005" class="edge">
<title>Node4&#45;&gt;Node5</title>
<g id="a_edge4_Node000004_Node000005"><a xlink:title=" ">
<path fill="none" stroke="#63b8ff" d="M818.19,-464.41C803.88,-434.8 773.43,-380.64 730.75,-352 723.7,-347.27 715.59,-343.72 707.32,-341.05"/>
<polygon fill="#63b8ff" stroke="#63b8ff" points="814.98,-465.82 822.38,-473.41 821.33,-462.87 814.98,-465.82"/>
</a>
</g>
</g>
<!-- Node8 -->
<g id="Node000008" class="node">
<title>Node8</title>
<g id="a_Node000008"><a xlink:href="../../d6/df9/SDL__joystick_8c.html#a94fd638a34a769ff6a7a01738257215c" target="_top" xlink:title=" ">
<polygon fill="white" stroke="#666666" points="683.5,-381 620.25,-381 620.25,-361 683.5,-361 683.5,-381"/>
<text xml:space="preserve" text-anchor="middle" x="651.88" y="-367.5" font-family="Helvetica,sans-Serif" font-size="10.00">IsROGAlly</text>
</a>
</g>
</g>
<!-- Node4&#45;&gt;Node8 -->
<g id="edge7_Node000004_Node000008" class="edge">
<title>Node4&#45;&gt;Node8</title>
<g id="a_edge7_Node000004_Node000008"><a xlink:title=" ">
<path fill="none" stroke="#63b8ff" d="M813.02,-465.61C795.87,-443.87 765.15,-409.16 730.75,-390 716.4,-382.01 698.74,-377.35 683.86,-374.65"/>
<polygon fill="#63b8ff" stroke="#63b8ff" points="810.12,-467.58 818.99,-473.38 815.67,-463.32 810.12,-467.58"/>
</a>
</g>
</g>
<!-- Node10 -->
<g id="Node000010" class="node">
<title>Node10</title>
<g id="a_Node000010"><a xlink:href="../../df/d78/SDL_8c.html#ac25d0ce460db43ca8c7681eb8e7c5007" target="_top" xlink:title=" ">
<polygon fill="white" stroke="#666666" points="679,-589 624.75,-589 624.75,-569 679,-569 679,-589"/>
<text xml:space="preserve" text-anchor="middle" x="651.88" y="-575.5" font-family="Helvetica,sans-Serif" font-size="10.00">SDL_Init</text>
</a>
</g>
</g>
<!-- Node4&#45;&gt;Node10 -->
<g id="edge10_Node000004_Node000010" class="edge">
<title>Node4&#45;&gt;Node10</title>
<g id="a_edge10_Node000004_Node000010"><a xlink:title=" ">
<path fill="none" stroke="#63b8ff" d="M807.17,-502.7C788.46,-518.32 759.29,-540.76 730.75,-555 714.42,-563.15 694.77,-569.18 679.3,-573.16"/>
<polygon fill="#63b8ff" stroke="#63b8ff" points="809.2,-505.57 814.55,-496.42 804.67,-500.24 809.2,-505.57"/>
</a>
</g>
</g>
<!-- Node15 -->
<g id="Node000015" class="node">
<title>Node15</title>
<g id="a_Node000015"><a xlink:href="../../d6/df9/SDL__joystick_8c.html#a9340afa4acb6b0fad4affbb99d4fa014" target="_top" xlink:title=" ">
<polygon fill="white" stroke="#666666" points="500.25,-542 404,-542 404,-522 500.25,-522 500.25,-542"/>
<text xml:space="preserve" text-anchor="middle" x="452.12" y="-528.5" font-family="Helvetica,sans-Serif" font-size="10.00">SDL_InitJoysticks</text>
</a>
</g>
</g>
<!-- Node4&#45;&gt;Node15 -->
<g id="edge15_Node000004_Node000015" class="edge">
<title>Node4&#45;&gt;Node15</title>
<g id="a_edge15_Node000004_Node000015"><a xlink:title=" ">
<path fill="none" stroke="#63b8ff" d="M764.37,-489.42C753.2,-491.37 741.66,-493.38 730.75,-495 650.25,-506.95 555.84,-515.27 500.45,-522.13"/>
<polygon fill="#63b8ff" stroke="#63b8ff" points="764.64,-492.92 773.89,-487.75 763.43,-486.03 764.64,-492.92"/>
</a>
</g>
</g>
<!-- Node16 -->
<g id="Node000016" class="node">
<title>Node16</title>
<g id="a_Node000016"><a xlink:href="../../d9/d78/SDL__main__callbacks_8c.html#a3d21b5bf7aa441418de48c5b2856336a" target="_top" xlink:title=" ">
<polygon fill="white" stroke="#666666" points="711.25,-457 592.5,-457 592.5,-437 711.25,-437 711.25,-457"/>
<text xml:space="preserve" text-anchor="middle" x="651.88" y="-443.5" font-family="Helvetica,sans-Serif" font-size="10.00">SDL_InitMainCallbacks</text>
</a>
</g>
</g>
<!-- Node4&#45;&gt;Node16 -->
<g id="edge17_Node000004_Node000016" class="edge">
<title>Node4&#45;&gt;Node16</title>
<g id="a_edge17_Node000004_Node000016"><a xlink:title=" ">
<path fill="none" stroke="#63b8ff" d="M768.05,-472.08C746.15,-467.31 721.63,-461.97 700.86,-457.45"/>
<polygon fill="#63b8ff" stroke="#63b8ff" points="767.24,-475.49 777.75,-474.19 768.73,-468.65 767.24,-475.49"/>
</a>
</g>
</g>
<!-- Node18 -->
<g id="Node000018" class="node">
<title>Node18</title>
<g id="a_Node000018"><a xlink:href="../../df/d78/SDL_8c.html#a8f0bf712ad7ba759f5b6e04e683c67d4" target="_top" xlink:title=" ">
<polygon fill="white" stroke="#666666" points="730.75,-495 573,-495 573,-475 730.75,-475 730.75,-495"/>
<text xml:space="preserve" text-anchor="middle" x="651.88" y="-481.5" font-family="Helvetica,sans-Serif" font-size="10.00">SDL_InitOrIncrementSubsystem</text>
</a>
</g>
</g>
<!-- Node4&#45;&gt;Node18 -->
<g id="edge19_Node000004_Node000018" class="edge">
<title>Node4&#45;&gt;Node18</title>
<g id="a_edge19_Node000004_Node000018"><a xlink:title=" ">
<path fill="none" stroke="#63b8ff" d="M764.09,-478.48C753.36,-478.27 742.11,-478.2 731.05,-478.28"/>
<polygon fill="#63b8ff" stroke="#63b8ff" points="763.89,-481.98 773.98,-478.73 764.07,-474.98 763.89,-481.98"/>
</a>
</g>
</g>
<!-- Node19 -->
<g id="Node000019" class="node">
<title>Node19</title>
<g id="a_Node000019"><a xlink:href="../../dc/de1/SDL__sensor_8c.html#abdb7d6b73a301a2c8558ba80edb32331" target="_top" xlink:title=" ">
<polygon fill="white" stroke="#666666" points="697,-419 606.75,-419 606.75,-399 697,-399 697,-419"/>
<text xml:space="preserve" text-anchor="middle" x="651.88" y="-405.5" font-family="Helvetica,sans-Serif" font-size="10.00">SDL_InitSensors</text>
</a>
</g>
</g>
<!-- Node4&#45;&gt;Node19 -->
<g id="edge21_Node000004_Node000019" class="edge">
<title>Node4&#45;&gt;Node19</title>
<g id="a_edge21_Node000004_Node000019"><a xlink:title=" ">
<path fill="none" stroke="#63b8ff" d="M811.66,-467.29C793.14,-451.98 761.03,-431.31 730.75,-419 720.18,-414.7 708.39,-411.21 697.25,-408.74"/>
<polygon fill="#63b8ff" stroke="#63b8ff" points="809.32,-469.89 819.11,-473.94 813.98,-464.67 809.32,-469.89"/>
</a>
</g>
</g>
<!-- Node6 -->
<g id="Node000006" class="node">
<title>Node6</title>
<g id="a_Node000006"><a xlink:href="../../d6/df9/SDL__joystick_8c.html#a0c867d96ec6bc9c3aca87c8ee6b53ade" target="_top" xlink:title=" ">
<polygon fill="white" stroke="#666666" points="315.12,-295 214.38,-295 214.38,-275 315.12,-275 315.12,-295"/>
<text xml:space="preserve" text-anchor="middle" x="264.75" y="-281.5" font-family="Helvetica,sans-Serif" font-size="10.00">SDL_OpenJoystick</text>
</a>
</g>
</g>
<!-- Node5&#45;&gt;Node6 -->
<g id="edge5_Node000005_Node000006" class="edge">
<title>Node5&#45;&gt;Node6</title>
<g id="a_edge5_Node000005_Node000006"><a xlink:title=" ">
<path fill="none" stroke="#63b8ff" d="M585.14,-324.81C508.75,-315.29 384.39,-299.79 315.56,-291.21"/>
<polygon fill="#63b8ff" stroke="#63b8ff" points="584.65,-328.27 595.01,-326.04 585.52,-321.33 584.65,-328.27"/>
</a>
</g>
</g>
<!-- Node7 -->
<g id="Node000007" class="node">
<title>Node7</title>
<g id="a_Node000007"><a xlink:href="../../d0/d82/SDL__gamepad_8c.html#a011496690758b66ec0f7098f030b6d85" target="_top" xlink:title=" ">
<polygon fill="white" stroke="#666666" points="134.12,-267 28.12,-267 28.12,-247 134.12,-247 134.12,-267"/>
<text xml:space="preserve" text-anchor="middle" x="81.12" y="-253.5" font-family="Helvetica,sans-Serif" font-size="10.00">SDL_OpenGamepad</text>
</a>
</g>
</g>
<!-- Node6&#45;&gt;Node7 -->
<g id="edge6_Node000006_Node000007" class="edge">
<title>Node6&#45;&gt;Node7</title>
<g id="a_edge6_Node000006_Node000007"><a xlink:title=" ">
<path fill="none" stroke="#63b8ff" d="M202.82,-275.61C180.69,-272.19 155.89,-268.37 134.55,-265.08"/>
<polygon fill="#63b8ff" stroke="#63b8ff" points="202.21,-279.05 212.62,-277.12 203.27,-272.14 202.21,-279.05"/>
</a>
</g>
</g>
<!-- Node9 -->
<g id="Node000009" class="node">
<title>Node9</title>
<g id="a_Node000009"><a xlink:href="../../d6/df9/SDL__joystick_8c.html#a497945f75b33dbfcde319992145025c5" target="_top" xlink:title=" ">
<polygon fill="white" stroke="#666666" points="522.38,-371 381.88,-371 381.88,-351 522.38,-351 522.38,-371"/>
<text xml:space="preserve" text-anchor="middle" x="452.12" y="-357.5" font-family="Helvetica,sans-Serif" font-size="10.00">ShouldAttemptSensorFusion</text>
</a>
</g>
</g>
<!-- Node8&#45;&gt;Node9 -->
<g id="edge8_Node000008_Node000009" class="edge">
<title>Node8&#45;&gt;Node9</title>
<g id="a_edge8_Node000008_Node000009"><a xlink:title=" ">
<path fill="none" stroke="#63b8ff" d="M608.69,-368.87C583.69,-367.6 551.39,-365.97 522.71,-364.52"/>
<polygon fill="#63b8ff" stroke="#63b8ff" points="608.3,-372.35 618.46,-369.36 608.65,-365.36 608.3,-372.35"/>
</a>
</g>
</g>
<!-- Node9&#45;&gt;Node6 -->
<g id="edge9_Node000009_Node000006" class="edge">
<title>Node9&#45;&gt;Node6</title>
<g id="a_edge9_Node000009_Node000006"><a xlink:title=" ">
<path fill="none" stroke="#63b8ff" d="M415.55,-346.41C379.1,-331.47 323.34,-308.61 291.13,-295.4"/>
<polygon fill="#63b8ff" stroke="#63b8ff" points="413.76,-349.46 424.34,-350.02 416.41,-342.99 413.76,-349.46"/>
</a>
</g>
</g>
<!-- Node11 -->
<g id="Node000011" class="node">
<title>Node11</title>
<g id="a_Node000011"><a xlink:href="../../d6/d3d/SDL__video_8c.html#a9f3d88531134e2c3e575a3c2db7f8488" target="_top" xlink:title=" ">
<polygon fill="white" stroke="#666666" points="537,-589 367.25,-589 367.25,-569 537,-569 537,-589"/>
<text xml:space="preserve" text-anchor="middle" x="452.12" y="-575.5" font-family="Helvetica,sans-Serif" font-size="10.00">SDL_CreateWindowWithProperties</text>
</a>
</g>
</g>
<!-- Node10&#45;&gt;Node11 -->
<g id="edge11_Node000010_Node000011" class="edge">
<title>Node10&#45;&gt;Node11</title>
<g id="a_edge11_Node000010_Node000011"><a xlink:title=" ">
<path fill="none" stroke="#63b8ff" d="M613.37,-579C591.84,-579 563.89,-579 537.38,-579"/>
<polygon fill="#63b8ff" stroke="#63b8ff" points="613.1,-582.5 623.1,-579 613.1,-575.5 613.1,-582.5"/>
</a>
</g>
</g>
<!-- Node12 -->
<g id="Node000012" class="node">
<title>Node12</title>
<g id="a_Node000012"><a xlink:href="../../d6/d3d/SDL__video_8c.html#acc26de39ce1bd675446e4d6c05ebf4b0" target="_top" xlink:title=" ">
<polygon fill="white" stroke="#666666" points="331.25,-608 198.25,-608 198.25,-588 331.25,-588 331.25,-608"/>
<text xml:space="preserve" text-anchor="middle" x="264.75" y="-594.5" font-family="Helvetica,sans-Serif" font-size="10.00">SDL_CreatePopupWindow</text>
</a>
</g>
</g>
<!-- Node11&#45;&gt;Node12 -->
<g id="edge12_Node000011_Node000012" class="edge">
<title>Node11&#45;&gt;Node12</title>
<g id="a_edge12_Node000011_Node000012"><a xlink:title=" ">
<path fill="none" stroke="#63b8ff" d="M355.42,-588.81C347.33,-589.64 339.27,-590.46 331.5,-591.26"/>
<polygon fill="#63b8ff" stroke="#63b8ff" points="355.75,-592.29 365.34,-587.79 355.03,-585.33 355.75,-592.29"/>
</a>
</g>
</g>
<!-- Node13 -->
<g id="Node000013" class="node">
<title>Node13</title>
<g id="a_Node000013"><a xlink:href="../../d6/d3d/SDL__video_8c.html#a83103c86f9e5c33ab9e1fb6dfa904b7f" target="_top" xlink:title=" ">
<polygon fill="white" stroke="#666666" points="317.38,-570 212.12,-570 212.12,-550 317.38,-550 317.38,-570"/>
<text xml:space="preserve" text-anchor="middle" x="264.75" y="-556.5" font-family="Helvetica,sans-Serif" font-size="10.00">SDL_CreateWindow</text>
</a>
</g>
</g>
<!-- Node11&#45;&gt;Node13 -->
<g id="edge13_Node000011_Node000013" class="edge">
<title>Node11&#45;&gt;Node13</title>
<g id="a_edge13_Node000011_Node000013"><a xlink:title=" ">
<path fill="none" stroke="#63b8ff" d="M355.44,-569.19C342.45,-567.86 329.54,-566.54 317.73,-565.33"/>
<polygon fill="#63b8ff" stroke="#63b8ff" points="355.03,-572.67 365.34,-570.21 355.75,-565.71 355.03,-572.67"/>
</a>
</g>
</g>
<!-- Node14 -->
<g id="Node000014" class="node">
<title>Node14</title>
<g id="a_Node000014"><a xlink:href="../../dd/df3/SDL__render_8c.html#a36f859fae15e4277ba052f9ecfb2816d" target="_top" xlink:title=" ">
<polygon fill="white" stroke="#666666" points="162.25,-570 0,-570 0,-550 162.25,-550 162.25,-570"/>
<text xml:space="preserve" text-anchor="middle" x="81.12" y="-556.5" font-family="Helvetica,sans-Serif" font-size="10.00">SDL_CreateWindowAndRenderer</text>
</a>
</g>
</g>
<!-- Node13&#45;&gt;Node14 -->
<g id="edge14_Node000013_Node000014" class="edge">
<title>Node13&#45;&gt;Node14</title>
<g id="a_edge14_Node000013_Node000014"><a xlink:title=" ">
<path fill="none" stroke="#63b8ff" d="M200.3,-560C188.14,-560 175.26,-560 162.64,-560"/>
<polygon fill="#63b8ff" stroke="#63b8ff" points="200.19,-563.5 210.19,-560 200.19,-556.5 200.19,-563.5"/>
</a>
</g>
</g>
<!-- Node15&#45;&gt;Node4 -->
<g id="edge16_Node000015_Node000004" class="edge">
<title>Node15&#45;&gt;Node4</title>
<g id="a_edge16_Node000015_Node000004"><a xlink:title=" ">
<path fill="none" stroke="#63b8ff" d="M511.63,-534.62C567.95,-532.18 655.44,-524.18 730.75,-513 758.82,-508.83 791.12,-502.08 810.35,-495.4"/>
<polygon fill="#63b8ff" stroke="#63b8ff" points="511.82,-531.11 501.96,-534.98 512.09,-538.1 511.82,-531.11"/>
</a>
</g>
</g>
<!-- Node17 -->
<g id="Node000017" class="node">
<title>Node17</title>
<g id="a_Node000017"><a xlink:href="../../dd/db5/generic_2SDL__sysmain__callbacks_8c.html#aa50e1897a91f2547b5f31125020220e2" target="_top" xlink:title=" ">
<polygon fill="white" stroke="#666666" points="525,-115 379.25,-115 379.25,-95 525,-95 525,-115"/>
<text xml:space="preserve" text-anchor="middle" x="452.12" y="-101.5" font-family="Helvetica,sans-Serif" font-size="10.00">SDL_EnterAppMainCallbacks</text>
</a>
</g>
</g>
<!-- Node16&#45;&gt;Node17 -->
<g id="edge18_Node000016_Node000017" class="edge">
<title>Node16&#45;&gt;Node17</title>
<g id="a_edge18_Node000016_Node000017"><a xlink:title=" ">
<path fill="none" stroke="#63b8ff" d="M582.07,-435.75C578.74,-433.56 575.68,-431 573,-428 487.99,-332.74 612.79,-245.75 537,-143 527.32,-129.88 512.04,-121.18 497.16,-115.46"/>
<polygon fill="#63b8ff" stroke="#63b8ff" points="580.23,-438.74 590.71,-440.27 583.47,-432.54 580.23,-438.74"/>
</a>
</g>
</g>
<!-- Node18&#45;&gt;Node4 -->
<g id="edge20_Node000018_Node000004" class="edge">
<title>Node18&#45;&gt;Node4</title>
<g id="a_edge20_Node000018_Node000004"><a xlink:title=" ">
<path fill="none" stroke="#63b8ff" d="M742.38,-491.75C753.73,-491.73 765.02,-491.56 775.49,-491.23"/>
<polygon fill="#63b8ff" stroke="#63b8ff" points="742.58,-488.25 732.57,-491.72 742.56,-495.25 742.58,-488.25"/>
</a>
</g>
</g>
<!-- Node19&#45;&gt;Node4 -->
<g id="edge22_Node000019_Node000004" class="edge">
<title>Node19&#45;&gt;Node4</title>
<g id="a_edge22_Node000019_Node000004"><a xlink:title=" ">
<path fill="none" stroke="#63b8ff" d="M683.56,-422.46C698.17,-426.39 715.69,-430.88 730.75,-437 756.19,-447.34 782.92,-463.58 801.8,-474.58"/>
<polygon fill="#63b8ff" stroke="#63b8ff" points="684.6,-419.12 674.03,-419.82 682.73,-425.86 684.6,-419.12"/>
</a>
</g>
</g>
<!-- Node20&#45;&gt;Node3 -->
<g id="edge54_Node000020_Node000003" class="edge">
<title>Node20&#45;&gt;Node3</title>
<g id="a_edge54_Node000020_Node000003"><a xlink:title=" ">
<path fill="none" stroke="#63b8ff" d="M1211.44,-422.44C1157.01,-437.34 1070.36,-461.07 1020.9,-474.62"/>
<polygon fill="#63b8ff" stroke="#63b8ff" points="1212.03,-425.9 1220.75,-419.89 1210.18,-419.15 1212.03,-425.9"/>
</a>
</g>
</g>
<!-- Node21 -->
<g id="Node000021" class="node">
<title>Node21</title>
<g id="a_Node000021"><a xlink:href="../../df/d78/SDL_8c.html#a60aa8a910b5236e9eded873051707374" target="_top" xlink:title=" ">
<polygon fill="white" stroke="#666666" points="1183.75,-381 1074,-381 1074,-361 1183.75,-361 1183.75,-381"/>
<text xml:space="preserve" text-anchor="middle" x="1128.88" y="-367.5" font-family="Helvetica,sans-Serif" font-size="10.00">SDL_QuitSubSystem</text>
</a>
</g>
</g>
<!-- Node20&#45;&gt;Node21 -->
<g id="edge25_Node000020_Node000021" class="edge">
<title>Node20&#45;&gt;Node21</title>
<g id="a_edge25_Node000020_Node000021"><a xlink:title=" ">
<path fill="none" stroke="#63b8ff" d="M1230.73,-394.57C1216.94,-389.71 1200.12,-384.52 1184.2,-380.14"/>
<polygon fill="#63b8ff" stroke="#63b8ff" points="1229.49,-397.84 1240.09,-398.02 1231.92,-391.28 1229.49,-397.84"/>
</a>
</g>
</g>
<!-- Node21&#45;&gt;Node3 -->
<g id="edge52_Node000021_Node000003" class="edge">
<title>Node21&#45;&gt;Node3</title>
<g id="a_edge52_Node000021_Node000003"><a xlink:title=" ">
<path fill="none" stroke="#63b8ff" d="M1108.66,-389.14C1098.29,-399.04 1085.32,-411.57 1074,-423 1057.63,-439.53 1057.04,-447.64 1038,-461 1030.33,-466.39 1021.25,-470.95 1012.71,-474.61"/>
<polygon fill="#63b8ff" stroke="#63b8ff" points="1111.07,-391.69 1115.91,-382.26 1106.25,-386.61 1111.07,-391.69"/>
</a>
</g>
</g>
<!-- Node21&#45;&gt;Node4 -->
<g id="edge38_Node000021_Node000004" class="edge">
<title>Node21&#45;&gt;Node4</title>
<g id="a_edge38_Node000021_Node000004"><a xlink:title=" ">
<path fill="none" stroke="#63b8ff" d="M1105.4,-387.94C1087.83,-400.49 1062.39,-417.23 1038,-428 986.83,-450.61 924.55,-466.21 881.43,-475.3"/>
<polygon fill="#63b8ff" stroke="#63b8ff" points="1107.05,-391.07 1113.07,-382.35 1102.92,-385.41 1107.05,-391.07"/>
</a>
</g>
</g>
<!-- Node21&#45;&gt;Node5 -->
<g id="edge26_Node000021_Node000005" class="edge">
<title>Node21&#45;&gt;Node5</title>
<g id="a_edge26_Node000021_Node000005"><a xlink:title=" ">
<path fill="none" stroke="#63b8ff" d="M1062.46,-365.77C968.12,-358.22 795.55,-344.41 707.58,-337.38"/>
<polygon fill="#63b8ff" stroke="#63b8ff" points="1062.09,-369.25 1072.34,-366.56 1062.65,-362.27 1062.09,-369.25"/>
</a>
</g>
</g>
<!-- Node21&#45;&gt;Node8 -->
<g id="edge37_Node000021_Node000008" class="edge">
<title>Node21&#45;&gt;Node8</title>
<g id="a_edge37_Node000021_Node000008"><a xlink:title=" ">
<path fill="none" stroke="#63b8ff" d="M1062.59,-371C958.85,-371 760.29,-371 683.89,-371"/>
<polygon fill="#63b8ff" stroke="#63b8ff" points="1062.34,-374.5 1072.34,-371 1062.34,-367.5 1062.34,-374.5"/>
</a>
</g>
</g>
<!-- Node21&#45;&gt;Node20 -->
<g id="edge53_Node000021_Node000020" class="edge">
<title>Node21&#45;&gt;Node20</title>
<g id="a_edge53_Node000021_Node000020"><a xlink:title=" ">
<path fill="none" stroke="#63b8ff" d="M1159.42,-385.35C1177.18,-391.62 1200.04,-398.46 1219.53,-403.4"/>
<polygon fill="#63b8ff" stroke="#63b8ff" points="1160.85,-382.15 1150.26,-381.97 1158.42,-388.71 1160.85,-382.15"/>
</a>
</g>
</g>
<!-- Node21&#45;&gt;Node21 -->
<g id="edge51_Node000021_Node000021" class="edge">
<title>Node21&#45;&gt;Node21</title>
<g id="a_edge51_Node000021_Node000021"><a xlink:title=" ">
<path fill="none" stroke="#63b8ff" d="M1152.32,-392.44C1149.3,-396.3 1141.48,-399 1128.88,-399 1105.82,-399 1098.8,-389.98 1107.8,-381.34"/>
<polygon fill="#63b8ff" stroke="#63b8ff" points="1155.77,-391.87 1150.26,-382.82 1148.93,-393.33 1155.77,-391.87"/>
</a>
</g>
</g>
<!-- Node22 -->
<g id="Node000022" class="node">
<title>Node22</title>
<g id="a_Node000022"><a xlink:href="../../d6/df9/SDL__joystick_8c.html#ac0722362ebd0ebecebff12499774b471" target="_top" xlink:title=" ">
<polygon fill="white" stroke="#666666" points="1038,-249 926,-249 926,-229 1038,-229 1038,-249"/>
<text xml:space="preserve" text-anchor="middle" x="982" y="-235.5" font-family="Helvetica,sans-Serif" font-size="10.00">CleanupSensorFusion</text>
</a>
</g>
</g>
<!-- Node21&#45;&gt;Node22 -->
<g id="edge27_Node000021_Node000022" class="edge">
<title>Node21&#45;&gt;Node22</title>
<g id="a_edge27_Node000021_Node000022"><a xlink:title=" ">
<path fill="none" stroke="#63b8ff" d="M1115.48,-351.04C1099.9,-327.34 1071.15,-287.9 1038,-263 1030.75,-257.56 1022.08,-253.04 1013.79,-249.45"/>
<polygon fill="#63b8ff" stroke="#63b8ff" points="1112.52,-352.91 1120.86,-359.44 1118.41,-349.13 1112.52,-352.91"/>
</a>
</g>
</g>
<!-- Node26 -->
<g id="Node000026" class="node">
<title>Node26</title>
<g id="a_Node000026"><a xlink:href="../../d6/df9/SDL__joystick_8c.html#aa98a95583054633f27bb3bcdff5f97aa" target="_top" xlink:title=" ">
<polygon fill="white" stroke="#666666" points="702.25,-305 601.5,-305 601.5,-285 702.25,-285 702.25,-305"/>
<text xml:space="preserve" text-anchor="middle" x="651.88" y="-291.5" font-family="Helvetica,sans-Serif" font-size="10.00">SDL_QuitJoysticks</text>
</a>
</g>
</g>
<!-- Node21&#45;&gt;Node26 -->
<g id="edge47_Node000021_Node000026" class="edge">
<title>Node21&#45;&gt;Node26</title>
<g id="a_edge47_Node000021_Node000026"><a xlink:title=" ">
<path fill="none" stroke="#63b8ff" d="M1101.31,-356.9C1083.47,-351.34 1059.41,-345.93 1038,-342 918.22,-320 776.18,-301.22 702.62,-295.17"/>
<polygon fill="#63b8ff" stroke="#63b8ff" points="1100.01,-360.15 1110.61,-360.07 1102.27,-353.53 1100.01,-360.15"/>
</a>
</g>
</g>
<!-- Node27 -->
<g id="Node000027" class="node">
<title>Node27</title>
<g id="a_Node000027"><a xlink:href="../../df/d78/SDL_8c.html#abf064fcc4a657a30db8eace18633f362" target="_top" xlink:title=" ">
<polygon fill="white" stroke="#666666" points="1011.38,-77 952.62,-77 952.62,-57 1011.38,-57 1011.38,-77"/>
<text xml:space="preserve" text-anchor="middle" x="982" y="-63.5" font-family="Helvetica,sans-Serif" font-size="10.00">SDL_Quit</text>
</a>
</g>
</g>
<!-- Node21&#45;&gt;Node27 -->
<g id="edge39_Node000021_Node000027" class="edge">
<title>Node21&#45;&gt;Node27</title>
<g id="a_edge39_Node000021_Node000027"><a xlink:title=" ">
<path fill="none" stroke="#63b8ff" d="M1122.78,-349.55C1111.78,-305.83 1083.14,-204.19 1038,-129 1025.86,-108.77 1006.7,-89.01 994.5,-77.43"/>
<polygon fill="#63b8ff" stroke="#63b8ff" points="1119.37,-350.37 1125.15,-359.25 1126.17,-348.71 1119.37,-350.37"/>
</a>
</g>
</g>
<!-- Node33 -->
<g id="Node000033" class="node">
<title>Node33</title>
<g id="a_Node000033"><a xlink:href="../../dc/de1/SDL__sensor_8c.html#af97faaba22b06bf9fc16804bfc2ae7df" target="_top" xlink:title=" ">
<polygon fill="white" stroke="#666666" points="1029.38,-419 934.62,-419 934.62,-399 1029.38,-399 1029.38,-419"/>
<text xml:space="preserve" text-anchor="middle" x="982" y="-405.5" font-family="Helvetica,sans-Serif" font-size="10.00">SDL_QuitSensors</text>
</a>
</g>
</g>
<!-- Node21&#45;&gt;Node33 -->
<g id="edge48_Node000021_Node000033" class="edge">
<title>Node21&#45;&gt;Node33</title>
<g id="a_edge48_Node000021_Node000033"><a xlink:title=" ">
<path fill="none" stroke="#63b8ff" d="M1062.57,-381.41C1041.41,-386.78 1019.44,-393.15 1003.95,-398.59"/>
<polygon fill="#63b8ff" stroke="#63b8ff" points="1063.18,-384.86 1072.05,-379.06 1061.5,-378.07 1063.18,-384.86"/>
</a>
</g>
</g>
<!-- Node23 -->
<g id="Node000023" class="node">
<title>Node23</title>
<g id="a_Node000023"><a xlink:href="../../d6/df9/SDL__joystick_8c.html#aadf2e0eabb7fee1784bced6566d2f2ee" target="_top" xlink:title=" ">
<polygon fill="white" stroke="#666666" points="879.88,-249 776.88,-249 776.88,-229 879.88,-229 879.88,-249"/>
<text xml:space="preserve" text-anchor="middle" x="828.38" y="-235.5" font-family="Helvetica,sans-Serif" font-size="10.00">SDL_CloseJoystick</text>
</a>
</g>
</g>
<!-- Node22&#45;&gt;Node23 -->
<g id="edge28_Node000022_Node000023" class="edge">
<title>Node22&#45;&gt;Node23</title>
<g id="a_edge28_Node000022_Node000023"><a xlink:title=" ">
<path fill="none" stroke="#63b8ff" d="M914.48,-239C902.99,-239 891.21,-239 880.22,-239"/>
<polygon fill="#63b8ff" stroke="#63b8ff" points="914.32,-242.5 924.32,-239 914.32,-235.5 914.32,-242.5"/>
</a>
</g>
</g>
<!-- Node23&#45;&gt;Node6 -->
<g id="edge33_Node000023_Node000006" class="edge">
<title>Node23&#45;&gt;Node6</title>
<g id="a_edge33_Node000023_Node000006"><a xlink:title=" ">
<path fill="none" stroke="#63b8ff" d="M765.07,-244.1C652.56,-253.32 417.66,-272.56 315.26,-280.95"/>
<polygon fill="#63b8ff" stroke="#63b8ff" points="765.35,-247.59 775.04,-243.29 764.78,-240.61 765.35,-247.59"/>
</a>
</g>
</g>
<!-- Node23&#45;&gt;Node7 -->
<g id="edge32_Node000023_Node000007" class="edge">
<title>Node23&#45;&gt;Node7</title>
<g id="a_edge32_Node000023_Node000007"><a xlink:title=" ">
<path fill="none" stroke="#63b8ff" d="M765.43,-239.75C713.92,-240.43 638.68,-241.55 573,-243 413.18,-246.54 224.15,-252.4 134.43,-255.29"/>
<polygon fill="#63b8ff" stroke="#63b8ff" points="765.23,-243.26 775.18,-239.63 765.14,-236.26 765.23,-243.26"/>
</a>
</g>
</g>
<!-- Node24 -->
<g id="Node000024" class="node">
<title>Node24</title>
<g id="a_Node000024"><a xlink:href="../../d0/d82/SDL__gamepad_8c.html#aba8e3cc0575aa23129847fd8418fc191" target="_top" xlink:title=" ">
<polygon fill="white" stroke="#666666" points="706,-191 597.75,-191 597.75,-171 706,-171 706,-191"/>
<text xml:space="preserve" text-anchor="middle" x="651.88" y="-177.5" font-family="Helvetica,sans-Serif" font-size="10.00">SDL_CloseGamepad</text>
</a>
</g>
</g>
<!-- Node23&#45;&gt;Node24 -->
<g id="edge29_Node000023_Node000024" class="edge">
<title>Node23&#45;&gt;Node24</title>
<g id="a_edge29_Node000023_Node000024"><a xlink:title=" ">
<path fill="none" stroke="#63b8ff" d="M788.3,-224.86C770.76,-218.61 749.77,-211.27 730.75,-205 716.78,-200.39 701.31,-195.57 687.86,-191.46"/>
<polygon fill="#63b8ff" stroke="#63b8ff" points="786.71,-228 797.3,-228.08 789.06,-221.41 786.71,-228"/>
</a>
</g>
</g>
<!-- Node23&#45;&gt;Node26 -->
<g id="edge34_Node000023_Node000026" class="edge">
<title>Node23&#45;&gt;Node26</title>
<g id="a_edge34_Node000023_Node000026"><a xlink:title=" ">
<path fill="none" stroke="#63b8ff" d="M785.8,-252.98C768.77,-258.65 748.84,-265.22 730.75,-271 716.6,-275.52 700.96,-280.37 687.43,-284.52"/>
<polygon fill="#63b8ff" stroke="#63b8ff" points="786.72,-256.36 795.1,-249.88 784.5,-249.72 786.72,-256.36"/>
</a>
</g>
</g>
<!-- Node25 -->
<g id="Node000025" class="node">
<title>Node25</title>
<g id="a_Node000025"><a xlink:href="../../d0/d82/SDL__gamepad_8c.html#ad49c2e97ac6f1deaafd9aec54dff1659" target="_top" xlink:title=" ">
<polygon fill="white" stroke="#666666" points="505.12,-172 399.12,-172 399.12,-152 505.12,-152 505.12,-172"/>
<text xml:space="preserve" text-anchor="middle" x="452.12" y="-158.5" font-family="Helvetica,sans-Serif" font-size="10.00">SDL_QuitGamepads</text>
</a>
</g>
</g>
<!-- Node24&#45;&gt;Node25 -->
<g id="edge30_Node000024_Node000025" class="edge">
<title>Node24&#45;&gt;Node25</title>
<g id="a_edge30_Node000024_Node000025"><a xlink:title=" ">
<path fill="none" stroke="#63b8ff" d="M586.01,-174.77C559.84,-172.25 530.05,-169.39 505.31,-167.01"/>
<polygon fill="#63b8ff" stroke="#63b8ff" points="585.57,-178.24 595.85,-175.71 586.24,-171.27 585.57,-178.24"/>
</a>
</g>
</g>
<!-- Node25&#45;&gt;Node21 -->
<g id="edge31_Node000025_Node000021" class="edge">
<title>Node25&#45;&gt;Node21</title>
<g id="a_edge31_Node000025_Node000021"><a xlink:title=" ">
<path fill="none" stroke="#63b8ff" d="M516.4,-149.69C631.6,-130.97 878.37,-108.37 1038,-220 1090,-256.36 1116.83,-333.32 1125.07,-360.9"/>
<polygon fill="#63b8ff" stroke="#63b8ff" points="516.11,-146.19 506.83,-151.29 517.27,-153.09 516.11,-146.19"/>
</a>
</g>
</g>
<!-- Node26&#45;&gt;Node15 -->
<g id="edge35_Node000026_Node000015" class="edge">
<title>Node26&#45;&gt;Node15</title>
<g id="a_edge35_Node000026_Node000015"><a xlink:title=" ">
<path fill="none" stroke="#63b8ff" d="M590.44,-304.28C584.19,-306.8 578.23,-309.98 573,-314 546.51,-334.36 553.07,-350.71 537,-380 507.72,-433.38 472.42,-497.16 458.84,-521.69"/>
<polygon fill="#63b8ff" stroke="#63b8ff" points="591.37,-307.66 599.71,-301.13 589.11,-301.03 591.37,-307.66"/>
</a>
</g>
</g>
<!-- Node26&#45;&gt;Node21 -->
<g id="edge36_Node000026_Node000021" class="edge">
<title>Node26&#45;&gt;Node21</title>
<g id="a_edge36_Node000026_Node000021"><a xlink:title=" ">
<path fill="none" stroke="#63b8ff" d="M705.27,-307.33C779.56,-319.66 919.64,-338.26 1038,-360 1049.63,-362.14 1062.05,-364.71 1073.83,-367.07"/>
<polygon fill="#63b8ff" stroke="#63b8ff" points="706.3,-303.95 695.85,-305.73 705.13,-310.85 706.3,-303.95"/>
</a>
</g>
</g>
<!-- Node28 -->
<g id="Node000028" class="node">
<title>Node28</title>
<g id="a_Node000028"><a xlink:href="../../de/daf/classCSDLmain.html#a73bd9c42ac6916974009e508257e44ff" target="_top" xlink:title=" ">
<polygon fill="white" stroke="#666666" points="875,-20 781.75,-20 781.75,0 875,0 875,-20"/>
<text xml:space="preserve" text-anchor="middle" x="828.38" y="-6.5" font-family="Helvetica,sans-Serif" font-size="10.00">CSDLmain::RunL</text>
</a>
</g>
</g>
<!-- Node27&#45;&gt;Node28 -->
<g id="edge40_Node000027_Node000028" class="edge">
<title>Node27&#45;&gt;Node28</title>
<g id="a_edge40_Node000027_Node000028"><a xlink:title=" ">
<path fill="none" stroke="#63b8ff" d="M947.13,-51.99C930.13,-44.67 909.13,-35.98 890,-29 881.81,-26.02 872.91,-23.06 864.5,-20.41"/>
<polygon fill="#63b8ff" stroke="#63b8ff" points="945.71,-55.18 956.28,-55.96 948.5,-48.76 945.71,-55.18"/>
</a>
</g>
</g>
<!-- Node29 -->
<g id="Node000029" class="node">
<title>Node29</title>
<g id="a_Node000029"><a xlink:href="../../d3/d6c/SDL__assert_8c.html#af146e7f66c4e41a24337c5b6943af0b0" target="_top" xlink:title=" ">
<polygon fill="white" stroke="#666666" points="881,-58 775.75,-58 775.75,-38 881,-38 881,-58"/>
<text xml:space="preserve" text-anchor="middle" x="828.38" y="-44.5" font-family="Helvetica,sans-Serif" font-size="10.00">SDL_AbortAssertion</text>
</a>
</g>
</g>
<!-- Node27&#45;&gt;Node29 -->
<g id="edge41_Node000027_Node000029" class="edge">
<title>Node27&#45;&gt;Node29</title>
<g id="a_edge41_Node000027_Node000029"><a xlink:title=" ">
<path fill="none" stroke="#63b8ff" d="M941.06,-62C922.8,-59.71 900.92,-56.97 881.39,-54.52"/>
<polygon fill="#63b8ff" stroke="#63b8ff" points="940.62,-65.47 950.98,-63.24 941.49,-58.52 940.62,-65.47"/>
</a>
</g>
</g>
<!-- Node31 -->
<g id="Node000031" class="node">
<title>Node31</title>
<g id="a_Node000031"><a xlink:href="../../d9/d78/SDL__main__callbacks_8c.html#a2e8bd250bb597fdf72c9da9d001181e7" target="_top" xlink:title=" ">
<polygon fill="white" stroke="#666666" points="890,-96 766.75,-96 766.75,-76 890,-76 890,-96"/>
<text xml:space="preserve" text-anchor="middle" x="828.38" y="-82.5" font-family="Helvetica,sans-Serif" font-size="10.00">SDL_QuitMainCallbacks</text>
</a>
</g>
</g>
<!-- Node27&#45;&gt;Node31 -->
<g id="edge43_Node000027_Node000031" class="edge">
<title>Node27&#45;&gt;Node31</title>
<g id="a_edge43_Node000027_Node000031"><a xlink:title=" ">
<path fill="none" stroke="#63b8ff" d="M941.18,-71.99C925.66,-73.93 907.52,-76.21 890.43,-78.35"/>
<polygon fill="#63b8ff" stroke="#63b8ff" points="941.49,-75.48 950.98,-70.76 940.62,-68.53 941.49,-75.48"/>
</a>
</g>
</g>
<!-- Node30 -->
<g id="Node000030" class="node">
<title>Node30</title>
<g id="a_Node000030"><a xlink:href="../../d3/d6c/SDL__assert_8c.html#a0c9a208493d6e9212cff2ab400242102" target="_top" xlink:title=" ">
<polygon fill="white" stroke="#666666" points="707.5,-39 596.25,-39 596.25,-19 707.5,-19 707.5,-39"/>
<text xml:space="preserve" text-anchor="middle" x="651.88" y="-25.5" font-family="Helvetica,sans-Serif" font-size="10.00">SDL_ReportAssertion</text>
</a>
</g>
</g>
<!-- Node29&#45;&gt;Node30 -->
<g id="edge42_Node000029_Node000030" class="edge">
<title>Node29&#45;&gt;Node30</title>
<g id="a_edge42_Node000029_Node000030"><a xlink:title=" ">
<path fill="none" stroke="#63b8ff" d="M764.24,-41.13C745.8,-39.12 725.8,-36.94 707.9,-34.99"/>
<polygon fill="#63b8ff" stroke="#63b8ff" points="763.67,-44.58 773.99,-42.19 764.42,-37.63 763.67,-44.58"/>
</a>
</g>
</g>
<!-- Node31&#45;&gt;Node17 -->
<g id="edge46_Node000031_Node000017" class="edge">
<title>Node31&#45;&gt;Node17</title>
<g id="a_edge46_Node000031_Node000017"><a xlink:title=" ">
<path fill="none" stroke="#63b8ff" d="M755.13,-82.99C704.15,-81.6 634.29,-81.17 573,-86 551.47,-87.7 527.96,-91.08 507.51,-94.53"/>
<polygon fill="#63b8ff" stroke="#63b8ff" points="754.75,-86.48 764.85,-83.27 754.96,-79.48 754.75,-86.48"/>
</a>
</g>
</g>
<!-- Node32 -->
<g id="Node000032" class="node">
<title>Node32</title>
<g id="a_Node000032"><a xlink:href="../../d0/d72/emscripten_2SDL__sysmain__callbacks_8c.html#ad2e127e4f44ae815197361e79da5bf88" target="_top" xlink:title=" ">
<polygon fill="white" stroke="#666666" points="720.25,-115 583.5,-115 583.5,-95 720.25,-95 720.25,-115"/>
<text xml:space="preserve" text-anchor="middle" x="651.88" y="-101.5" font-family="Helvetica,sans-Serif" font-size="10.00">EmscriptenInternalMainloop</text>
</a>
</g>
</g>
<!-- Node31&#45;&gt;Node32 -->
<g id="edge44_Node000031_Node000032" class="edge">
<title>Node31&#45;&gt;Node32</title>
<g id="a_edge44_Node000031_Node000032"><a xlink:title=" ">
<path fill="none" stroke="#63b8ff" d="M755.11,-93.87C743.73,-95.11 732,-96.38 720.72,-97.61"/>
<polygon fill="#63b8ff" stroke="#63b8ff" points="755.28,-97.37 764.84,-92.81 754.52,-90.41 755.28,-97.37"/>
</a>
</g>
</g>
<!-- Node32&#45;&gt;Node17 -->
<g id="edge45_Node000032_Node000017" class="edge">
<title>Node32&#45;&gt;Node17</title>
<g id="a_edge45_Node000032_Node000017"><a xlink:title=" ">
<path fill="none" stroke="#63b8ff" d="M571.99,-105C556.54,-105 540.41,-105 525.2,-105"/>
<polygon fill="#63b8ff" stroke="#63b8ff" points="571.58,-108.5 581.58,-105 571.58,-101.5 571.58,-108.5"/>
</a>
</g>
</g>
<!-- Node33&#45;&gt;Node19 -->
<g id="edge49_Node000033_Node000019" class="edge">
<title>Node33&#45;&gt;Node19</title>
<g id="a_edge49_Node000033_Node000019"><a xlink:title=" ">
<path fill="none" stroke="#63b8ff" d="M923.15,-409C858.65,-409 755.74,-409 697.28,-409"/>
<polygon fill="#63b8ff" stroke="#63b8ff" points="922.82,-412.5 932.82,-409 922.82,-405.5 922.82,-412.5"/>
</a>
</g>
</g>
<!-- Node33&#45;&gt;Node21 -->
<g id="edge50_Node000033_Node000021" class="edge">
<title>Node33&#45;&gt;Node21</title>
<g id="a_edge50_Node000033_Node000021"><a xlink:title=" ">
<path fill="none" stroke="#63b8ff" d="M1041.03,-400.41C1064.26,-394.71 1089.54,-387.51 1106.81,-381.45"/>
<polygon fill="#63b8ff" stroke="#63b8ff" points="1040.23,-397 1031.31,-402.72 1041.85,-403.81 1040.23,-397"/>
</a>
</g>
</g>
</g>
</svg>

<g id="navigator" transform="translate(0 0)" fill="#404254">
  <rect fill="#f2f5e9" fill-opacity="0.5" stroke="#606060" stroke-width=".5" x="0" y="0" width="60" height="60"/>
  <use id="zoomplus" xlink:href="#zoomPlus" x="17" y="9" onmousedown="handleZoom(evt,'in')"/>
  <use id="zoomminus" xlink:href="#zoomMin" x="42" y="9" onmousedown="handleZoom(evt,'out')"/>
  <use id="reset" xlink:href="#resetDef" x="30" y="36" onmousedown="handleReset()"/>
   <use id="arrowup" xlink:href="#arrowUp" x="0" y="0" onmousedown="handlePan(0,-1)"/>
  <use id="arrowright" xlink:href="#arrowRight" x="0" y="0" onmousedown="handlePan(1,0)"/>
  <use id="arrowdown" xlink:href="#arrowDown" x="0" y="0" onmousedown="handlePan(0,1)"/>
  <use id="arrowleft" xlink:href="#arrowLeft" x="0" y="0" onmousedown="handlePan(-1,0)"/>
</g>
<svg viewBox="0 0 15 15" width="100%" height="30px" preserveAspectRatio="xMaxYMin meet">
 <g id="arrow_out" transform="scale(0.3 0.3)">
  <a xlink:href="SDL__mouse_8c_ac6ac0efec2e54aded8d72b6ce041b8f9_icgraph_org.svg" target="_base">
   <rect id="button" ry="5" rx="5" y="6" x="6" height="38" width="38"
        fill="#f2f5e9" fill-opacity="0.5" stroke="#606060" stroke-width="1.0"/>
   <path id="arrow"
     d="M 11.500037,31.436501 C 11.940474,20.09759 22.043105,11.32322 32.158766,21.979434 L 37.068811,17.246167 C 37.068811,17.246167 37.088388,32 37.088388,32 L 22.160133,31.978069 C 22.160133,31.978069 26.997745,27.140456 26.997745,27.140456 C 18.528582,18.264221 13.291696,25.230495 11.500037,31.436501 z"
     style="fill:#404040;"/>
  </a>
 </g>
</svg>

<style type='text/css'>
<![CDATA[
[data-mouse-over-selected='false'] { opacity: 0.7; }
[data-mouse-over-selected='true']  { opacity: 1.0; }
]]>
</style>
<script type="application/ecmascript"><![CDATA[
document.addEventListener('DOMContentLoaded', (event) => {
  highlightEdges();
  highlightAdjacentNodes();
});
]]></script>
</svg>
