<?xml version="1.0" encoding="UTF-8" standalone="no"?>
<!DOCTYPE svg PUBLIC "-//W3C//DTD SVG 1.1//EN"
 "http://www.w3.org/Graphics/SVG/1.1/DTD/svg11.dtd">
<!-- Generated by graphviz version 13.1.0 (20250701.0955)
 -->
<!-- Title: SDL_MouseRelativeModeCenterChanged Pages: 1 -->
<svg width="448pt" height="40pt"
 viewBox="0.00 0.00 448.00 40.00" xmlns="http://www.w3.org/2000/svg" xmlns:xlink="http://www.w3.org/1999/xlink">
<g id="graph0" class="graph" transform="scale(1 1) rotate(0) translate(4 36)">
<title>SDL_MouseRelativeModeCenterChanged</title>
<!-- Node1 -->
<g id="Node000001" class="node">
<title>Node1</title>
<g id="a_Node000001"><a xlink:title=" ">
<polygon fill="#999999" stroke="#666666" points="159.25,-32 0,-32 0,0 159.25,0 159.25,-32"/>
<text xml:space="preserve" text-anchor="start" x="8" y="-18.5" font-family="Helvetica,sans-Serif" font-size="10.00">SDL_MouseRelativeModeCenter</text>
<text xml:space="preserve" text-anchor="middle" x="79.62" y="-6.5" font-family="Helvetica,sans-Serif" font-size="10.00">Changed</text>
</a>
</g>
</g>
<!-- Node2 -->
<g id="Node000002" class="node">
<title>Node2</title>
<g id="a_Node000002"><a xlink:href="../../d4/d4a/SDL__hints_8c.html#a533d4b7b35eb20f6babfb98639111f5c" target="_top" xlink:title=" ">
<polygon fill="white" stroke="#666666" points="312.5,-26 195.25,-26 195.25,-6 312.5,-6 312.5,-26"/>
<text xml:space="preserve" text-anchor="middle" x="253.88" y="-12.5" font-family="Helvetica,sans-Serif" font-size="10.00">SDL_GetStringBoolean</text>
</a>
</g>
</g>
<!-- Node1&#45;&gt;Node2 -->
<g id="edge1_Node000001_Node000002" class="edge">
<title>Node1&#45;&gt;Node2</title>
<g id="a_edge1_Node000001_Node000002"><a xlink:title=" ">
<path fill="none" stroke="#63b8ff" d="M159.69,-16C167.65,-16 175.7,-16 183.55,-16"/>
<polygon fill="#63b8ff" stroke="#63b8ff" points="183.36,-19.5 193.36,-16 183.36,-12.5 183.36,-19.5"/>
</a>
</g>
</g>
<!-- Node3 -->
<g id="Node000003" class="node">
<title>Node3</title>
<g id="a_Node000003"><a xlink:href="../../d2/d23/SDL__string_8c.html#a6e2c58a61b519d6e8efb20bd3635f09b" target="_top" xlink:title=" ">
<polygon fill="white" stroke="#666666" points="440.25,-26 348.5,-26 348.5,-6 440.25,-6 440.25,-26"/>
<text xml:space="preserve" text-anchor="middle" x="394.38" y="-12.5" font-family="Helvetica,sans-Serif" font-size="10.00">SDL_strcasecmp</text>
</a>
</g>
</g>
<!-- Node2&#45;&gt;Node3 -->
<g id="edge2_Node000002_Node000003" class="edge">
<title>Node2&#45;&gt;Node3</title>
<g id="a_edge2_Node000002_Node000003"><a xlink:title=" ">
<path fill="none" stroke="#63b8ff" d="M312.81,-16C320.78,-16 328.95,-16 336.89,-16"/>
<polygon fill="#63b8ff" stroke="#63b8ff" points="336.8,-19.5 346.8,-16 336.8,-12.5 336.8,-19.5"/>
</a>
</g>
</g>
</g>
</svg>
