<?xml version="1.0" encoding="UTF-8" standalone="no"?>
<!DOCTYPE svg PUBLIC "-//W3C//DTD SVG 1.1//EN"
 "http://www.w3.org/Graphics/SVG/1.1/DTD/svg11.dtd">
<!-- Generated by graphviz version 13.1.0 (20250701.0955)
 -->
<!-- Title: SDL_GPUVertexInputState Pages: 1 -->
<svg width="324pt" height="102pt"
 viewBox="0.00 0.00 324.00 102.00" xmlns="http://www.w3.org/2000/svg" xmlns:xlink="http://www.w3.org/1999/xlink">
<g id="graph0" class="graph" transform="scale(1 1) rotate(0) translate(4 98)">
<title>SDL_GPUVertexInputState</title>
<!-- Node1 -->
<g id="Node000001" class="node">
<title>Node1</title>
<g id="a_Node000001"><a xlink:title=" ">
<polygon fill="#999999" stroke="#666666" points="232.25,-20 97,-20 97,0 232.25,0 232.25,-20"/>
<text xml:space="preserve" text-anchor="middle" x="164.62" y="-6.5" font-family="Helvetica,sans-Serif" font-size="10.00">SDL_GPUVertexInputState</text>
</a>
</g>
</g>
<!-- Node2 -->
<g id="Node000002" class="node">
<title>Node2</title>
<g id="a_Node000002"><a xlink:href="../../d0/dcd/structSDL__GPUVertexBufferDescription.html" target="_top" xlink:title=" ">
<polygon fill="white" stroke="#666666" points="165.25,-94 0,-94 0,-74 165.25,-74 165.25,-94"/>
<text xml:space="preserve" text-anchor="middle" x="82.62" y="-80.5" font-family="Helvetica,sans-Serif" font-size="10.00">SDL_GPUVertexBufferDescription</text>
</a>
</g>
</g>
<!-- Node2&#45;&gt;Node1 -->
<g id="edge1_Node000001_Node000002" class="edge">
<title>Node2&#45;&gt;Node1</title>
<g id="a_edge1_Node000001_Node000002"><a xlink:title=" ">
<path fill="none" stroke="#9a32cd" stroke-dasharray="5,2" d="M88.97,-62.91C92.48,-54.36 97.58,-44.82 104.62,-38 112.58,-30.29 123.13,-24.55 133.15,-20.39"/>
<polygon fill="#9a32cd" stroke="#9a32cd" points="85.73,-61.57 85.65,-72.16 92.32,-63.93 85.73,-61.57"/>
</a>
</g>
<text xml:space="preserve" text-anchor="start" x="107.62" y="-43.5" font-family="Helvetica,sans-Serif" font-size="10.00" fill="grey">vertex_buffer_descriptions</text>
</g>
<!-- Node3 -->
<g id="Node000003" class="node">
<title>Node3</title>
<g id="a_Node000003"><a xlink:href="../../d6/da3/structSDL__GPUVertexAttribute.html" target="_top" xlink:title=" ">
<polygon fill="white" stroke="#666666" points="310.12,-94 183.12,-94 183.12,-74 310.12,-74 310.12,-94"/>
<text xml:space="preserve" text-anchor="middle" x="246.62" y="-80.5" font-family="Helvetica,sans-Serif" font-size="10.00">SDL_GPUVertexAttribute</text>
</a>
</g>
</g>
<!-- Node3&#45;&gt;Node1 -->
<g id="edge2_Node000001_Node000003" class="edge">
<title>Node3&#45;&gt;Node1</title>
<g id="a_edge2_Node000001_Node000003"><a xlink:title=" ">
<path fill="none" stroke="#9a32cd" stroke-dasharray="5,2" d="M240.28,-62.91C236.77,-54.36 231.67,-44.82 224.62,-38 216.67,-30.29 206.12,-24.55 196.1,-20.39"/>
<polygon fill="#9a32cd" stroke="#9a32cd" points="236.93,-63.93 243.6,-72.16 243.52,-61.57 236.93,-63.93"/>
</a>
</g>
<text xml:space="preserve" text-anchor="start" x="240.04" y="-43.5" font-family="Helvetica,sans-Serif" font-size="10.00" fill="grey">vertex_attributes</text>
</g>
</g>
</svg>
