<?xml version="1.0" encoding="UTF-8" standalone="no"?>
<!DOCTYPE svg PUBLIC "-//W3C//DTD SVG 1.1//EN"
 "http://www.w3.org/Graphics/SVG/1.1/DTD/svg11.dtd">
<!-- Generated by graphviz version 13.1.0 (20250701.0955)
 -->
<!-- Title: SDL_FindFreePlayerIndex Pages: 1 -->
<svg width="686pt" height="84pt"
 viewBox="0.00 0.00 686.00 84.00" xmlns="http://www.w3.org/2000/svg" xmlns:xlink="http://www.w3.org/1999/xlink">
<g id="graph0" class="graph" transform="scale(1 1) rotate(0) translate(4 80)">
<title>SDL_FindFreePlayerIndex</title>
<!-- Node1 -->
<g id="Node000001" class="node">
<title>Node1</title>
<g id="a_Node000001"><a xlink:title=" ">
<polygon fill="#999999" stroke="#666666" points="677.5,-57 546.75,-57 546.75,-37 677.5,-37 677.5,-57"/>
<text xml:space="preserve" text-anchor="middle" x="612.12" y="-43.5" font-family="Helvetica,sans-Serif" font-size="10.00">SDL_FindFreePlayerIndex</text>
</a>
</g>
</g>
<!-- Node2 -->
<g id="Node000002" class="node">
<title>Node2</title>
<g id="a_Node000002"><a xlink:href="../../d6/df9/SDL__joystick_8c.html#a8c30092465eb1a9f7599f24f98eacd03" target="_top" xlink:title=" ">
<polygon fill="white" stroke="#666666" points="325.62,-76 189.62,-76 189.62,-56 325.62,-56 325.62,-76"/>
<text xml:space="preserve" text-anchor="middle" x="257.62" y="-62.5" font-family="Helvetica,sans-Serif" font-size="10.00">SDL_PrivateJoystickAdded</text>
</a>
</g>
</g>
<!-- Node1&#45;&gt;Node2 -->
<g id="edge1_Node000001_Node000002" class="edge">
<title>Node1&#45;&gt;Node2</title>
<g id="a_edge1_Node000001_Node000002"><a xlink:title=" ">
<path fill="none" stroke="#63b8ff" d="M535.22,-56.82C526.97,-57.66 518.69,-58.42 510.75,-59 448.19,-63.6 376.7,-65.24 325.86,-65.8"/>
<polygon fill="#63b8ff" stroke="#63b8ff" points="535.34,-60.32 544.91,-55.78 534.59,-53.36 535.34,-60.32"/>
</a>
</g>
</g>
<!-- Node3 -->
<g id="Node000003" class="node">
<title>Node3</title>
<g id="a_Node000003"><a xlink:href="../../d6/df9/SDL__joystick_8c.html#a6df4f4bb2cf140cc18c8589443db19c4" target="_top" xlink:title=" ">
<polygon fill="white" stroke="#666666" points="510.75,-32 365.75,-32 365.75,0 510.75,0 510.75,-32"/>
<text xml:space="preserve" text-anchor="start" x="373.75" y="-18.5" font-family="Helvetica,sans-Serif" font-size="10.00">SDL_SetJoystickIDForPlayer</text>
<text xml:space="preserve" text-anchor="middle" x="438.25" y="-6.5" font-family="Helvetica,sans-Serif" font-size="10.00">Index</text>
</a>
</g>
</g>
<!-- Node1&#45;&gt;Node3 -->
<g id="edge2_Node000001_Node000003" class="edge">
<title>Node1&#45;&gt;Node3</title>
<g id="a_edge2_Node000001_Node000003"><a xlink:title=" ">
<path fill="none" stroke="#63b8ff" d="M541.72,-34.48C531.63,-32.66 521.23,-30.79 511.1,-28.96"/>
<polygon fill="#63b8ff" stroke="#63b8ff" points="540.98,-37.91 551.45,-36.24 542.23,-31.02 540.98,-37.91"/>
</a>
</g>
</g>
<!-- Node3&#45;&gt;Node2 -->
<g id="edge3_Node000003_Node000002" class="edge">
<title>Node3&#45;&gt;Node2</title>
<g id="a_edge3_Node000003_Node000002"><a xlink:title=" ">
<path fill="none" stroke="#63b8ff" d="M367.69,-35.47C343.22,-42.32 316.67,-49.75 295.89,-55.57"/>
<polygon fill="#63b8ff" stroke="#63b8ff" points="368.62,-38.85 377.3,-32.78 366.73,-32.11 368.62,-38.85"/>
</a>
</g>
</g>
<!-- Node3&#45;&gt;Node3 -->
<g id="edge4_Node000003_Node000003" class="edge">
<title>Node3&#45;&gt;Node3</title>
<g id="a_edge4_Node000003_Node000003"><a xlink:title=" ">
<path fill="none" stroke="#63b8ff" d="M467.23,-43.71C462.39,-47.48 452.74,-50 438.25,-50 411.76,-50 401.41,-41.58 407.21,-32.44"/>
<polygon fill="#63b8ff" stroke="#63b8ff" points="470.66,-44.4 469.02,-33.93 463.77,-43.14 470.66,-44.4"/>
</a>
</g>
</g>
<!-- Node4 -->
<g id="Node000004" class="node">
<title>Node4</title>
<g id="a_Node000004"><a xlink:href="../../d6/df9/SDL__joystick_8c.html#af777ece54e67a769f62701c36663d71a" target="_top" xlink:title=" ">
<polygon fill="white" stroke="#666666" points="329.75,-26 185.5,-26 185.5,-6 329.75,-6 329.75,-26"/>
<text xml:space="preserve" text-anchor="middle" x="257.62" y="-12.5" font-family="Helvetica,sans-Serif" font-size="10.00">SDL_SetJoystickPlayerIndex</text>
</a>
</g>
</g>
<!-- Node3&#45;&gt;Node4 -->
<g id="edge5_Node000003_Node000004" class="edge">
<title>Node3&#45;&gt;Node4</title>
<g id="a_edge5_Node000003_Node000004"><a xlink:title=" ">
<path fill="none" stroke="#63b8ff" d="M354.09,-16C346.06,-16 337.97,-16 330.07,-16"/>
<polygon fill="#63b8ff" stroke="#63b8ff" points="353.85,-19.5 363.85,-16 353.85,-12.5 353.85,-19.5"/>
</a>
</g>
</g>
<!-- Node5 -->
<g id="Node000005" class="node">
<title>Node5</title>
<g id="a_Node000005"><a xlink:href="../../d0/d82/SDL__gamepad_8c.html#a8eb99447f0000c1455dc02b499e9e869" target="_top" xlink:title=" ">
<polygon fill="white" stroke="#666666" points="149.5,-26 0,-26 0,-6 149.5,-6 149.5,-26"/>
<text xml:space="preserve" text-anchor="middle" x="74.75" y="-12.5" font-family="Helvetica,sans-Serif" font-size="10.00">SDL_SetGamepadPlayerIndex</text>
</a>
</g>
</g>
<!-- Node4&#45;&gt;Node5 -->
<g id="edge6_Node000004_Node000005" class="edge">
<title>Node4&#45;&gt;Node5</title>
<g id="a_edge6_Node000004_Node000005"><a xlink:title=" ">
<path fill="none" stroke="#63b8ff" d="M173.65,-16C165.76,-16 157.79,-16 149.98,-16"/>
<polygon fill="#63b8ff" stroke="#63b8ff" points="173.62,-19.5 183.62,-16 173.62,-12.5 173.62,-19.5"/>
</a>
</g>
</g>
</g>
</svg>
