<?xml version="1.0" encoding="UTF-8" standalone="no"?>
<!DOCTYPE svg PUBLIC "-//W3C//DTD SVG 1.1//EN"
 "http://www.w3.org/Graphics/SVG/1.1/DTD/svg11.dtd">
<!-- Generated by graphviz version 13.1.0 (20250701.0955)
 -->
<!-- Title: CleanupSensorFusion Pages: 1 -->
<svg width="1869pt" height="436pt"
 viewBox="0.00 0.00 1869.00 436.00" xmlns="http://www.w3.org/2000/svg" xmlns:xlink="http://www.w3.org/1999/xlink">
<g id="graph0" class="graph" transform="scale(1 1) rotate(0) translate(4 432)">
<title>CleanupSensorFusion</title>
<!-- Node1 -->
<g id="Node000001" class="node">
<title>Node1</title>
<g id="a_Node000001"><a xlink:title=" ">
<polygon fill="#999999" stroke="#666666" points="1860.75,-191 1748.75,-191 1748.75,-171 1860.75,-171 1860.75,-191"/>
<text xml:space="preserve" text-anchor="middle" x="1804.75" y="-177.5" font-family="Helvetica,sans-Serif" font-size="10.00">CleanupSensorFusion</text>
</a>
</g>
</g>
<!-- Node2 -->
<g id="Node000002" class="node">
<title>Node2</title>
<g id="a_Node000002"><a xlink:href="../../d6/df9/SDL__joystick_8c.html#aadf2e0eabb7fee1784bced6566d2f2ee" target="_top" xlink:title=" ">
<polygon fill="white" stroke="#666666" points="1712.75,-229 1609.75,-229 1609.75,-209 1712.75,-209 1712.75,-229"/>
<text xml:space="preserve" text-anchor="middle" x="1661.25" y="-215.5" font-family="Helvetica,sans-Serif" font-size="10.00">SDL_CloseJoystick</text>
</a>
</g>
</g>
<!-- Node1&#45;&gt;Node2 -->
<g id="edge1_Node000001_Node000002" class="edge">
<title>Node1&#45;&gt;Node2</title>
<g id="a_edge1_Node000001_Node000002"><a xlink:title=" ">
<path fill="none" stroke="#63b8ff" d="M1753.68,-194.45C1736.43,-199.08 1717.39,-204.19 1701.16,-208.55"/>
<polygon fill="#63b8ff" stroke="#63b8ff" points="1754.5,-197.85 1763.25,-191.88 1752.68,-191.09 1754.5,-197.85"/>
</a>
</g>
</g>
<!-- Node3 -->
<g id="Node000003" class="node">
<title>Node3</title>
<g id="a_Node000003"><a xlink:href="../../d0/d82/SDL__gamepad_8c.html#aba8e3cc0575aa23129847fd8418fc191" target="_top" xlink:title=" ">
<polygon fill="white" stroke="#666666" points="1573.75,-229 1465.5,-229 1465.5,-209 1573.75,-209 1573.75,-229"/>
<text xml:space="preserve" text-anchor="middle" x="1519.62" y="-215.5" font-family="Helvetica,sans-Serif" font-size="10.00">SDL_CloseGamepad</text>
</a>
</g>
</g>
<!-- Node2&#45;&gt;Node3 -->
<g id="edge2_Node000002_Node000003" class="edge">
<title>Node2&#45;&gt;Node3</title>
<g id="a_edge2_Node000002_Node000003"><a xlink:title=" ">
<path fill="none" stroke="#63b8ff" d="M1598.17,-219C1590.1,-219 1581.89,-219 1573.97,-219"/>
<polygon fill="#63b8ff" stroke="#63b8ff" points="1597.93,-222.5 1607.93,-219 1597.93,-215.5 1597.93,-222.5"/>
</a>
</g>
</g>
<!-- Node7 -->
<g id="Node000007" class="node">
<title>Node7</title>
<g id="a_Node000007"><a xlink:href="../../d6/df9/SDL__joystick_8c.html#a0c867d96ec6bc9c3aca87c8ee6b53ade" target="_top" xlink:title=" ">
<polygon fill="white" stroke="#666666" points="315.12,-381 214.38,-381 214.38,-361 315.12,-361 315.12,-381"/>
<text xml:space="preserve" text-anchor="middle" x="264.75" y="-367.5" font-family="Helvetica,sans-Serif" font-size="10.00">SDL_OpenJoystick</text>
</a>
</g>
</g>
<!-- Node2&#45;&gt;Node7 -->
<g id="edge50_Node000002_Node000007" class="edge">
<title>Node2&#45;&gt;Node7</title>
<g id="a_edge50_Node000002_Node000007"><a xlink:title=" ">
<path fill="none" stroke="#63b8ff" d="M1643.92,-237.92C1603.57,-282.42 1493.99,-390 1377.5,-390 1377.5,-390 1377.5,-390 650.88,-390 530.38,-390 388.93,-380.61 315.56,-375.03"/>
<polygon fill="#63b8ff" stroke="#63b8ff" points="1646.42,-240.37 1650.45,-230.57 1641.19,-235.72 1646.42,-240.37"/>
</a>
</g>
</g>
<!-- Node8 -->
<g id="Node000008" class="node">
<title>Node8</title>
<g id="a_Node000008"><a xlink:href="../../d0/d82/SDL__gamepad_8c.html#a011496690758b66ec0f7098f030b6d85" target="_top" xlink:title=" ">
<polygon fill="white" stroke="#666666" points="134.12,-419 28.12,-419 28.12,-399 134.12,-399 134.12,-419"/>
<text xml:space="preserve" text-anchor="middle" x="81.12" y="-405.5" font-family="Helvetica,sans-Serif" font-size="10.00">SDL_OpenGamepad</text>
</a>
</g>
</g>
<!-- Node2&#45;&gt;Node8 -->
<g id="edge49_Node000002_Node000008" class="edge">
<title>Node2&#45;&gt;Node8</title>
<g id="a_edge49_Node000002_Node000008"><a xlink:title=" ">
<path fill="none" stroke="#63b8ff" d="M1651.81,-239.89C1639.02,-269.05 1612.12,-321.89 1573.75,-353 1501.22,-411.81 1470.87,-428 1377.5,-428 1377.5,-428 1377.5,-428 451.12,-428 338.07,-428 205.78,-418.99 134.33,-413.38"/>
<polygon fill="#63b8ff" stroke="#63b8ff" points="1655.02,-241.27 1655.69,-230.69 1648.57,-238.55 1655.02,-241.27"/>
</a>
</g>
</g>
<!-- Node29 -->
<g id="Node000029" class="node">
<title>Node29</title>
<g id="a_Node000029"><a xlink:href="../../d6/df9/SDL__joystick_8c.html#aa98a95583054633f27bb3bcdff5f97aa" target="_top" xlink:title=" ">
<polygon fill="white" stroke="#666666" points="1141.75,-96 1041,-96 1041,-76 1141.75,-76 1141.75,-96"/>
<text xml:space="preserve" text-anchor="middle" x="1091.38" y="-82.5" font-family="Helvetica,sans-Serif" font-size="10.00">SDL_QuitJoysticks</text>
</a>
</g>
</g>
<!-- Node2&#45;&gt;Node29 -->
<g id="edge51_Node000002_Node000029" class="edge">
<title>Node2&#45;&gt;Node29</title>
<g id="a_edge51_Node000002_Node000029"><a xlink:title=" ">
<path fill="none" stroke="#63b8ff" d="M1604.61,-205.97C1492.16,-179.63 1239.81,-120.53 1137.12,-96.48"/>
<polygon fill="#63b8ff" stroke="#63b8ff" points="1603.68,-209.35 1614.22,-208.22 1605.28,-202.53 1603.68,-209.35"/>
</a>
</g>
</g>
<!-- Node4 -->
<g id="Node000004" class="node">
<title>Node4</title>
<g id="a_Node000004"><a xlink:href="../../d0/d82/SDL__gamepad_8c.html#ad49c2e97ac6f1deaafd9aec54dff1659" target="_top" xlink:title=" ">
<polygon fill="white" stroke="#666666" points="1429.5,-229 1323.5,-229 1323.5,-209 1429.5,-209 1429.5,-229"/>
<text xml:space="preserve" text-anchor="middle" x="1376.5" y="-215.5" font-family="Helvetica,sans-Serif" font-size="10.00">SDL_QuitGamepads</text>
</a>
</g>
</g>
<!-- Node3&#45;&gt;Node4 -->
<g id="edge3_Node000003_Node000004" class="edge">
<title>Node3&#45;&gt;Node4</title>
<g id="a_edge3_Node000003_Node000004"><a xlink:title=" ">
<path fill="none" stroke="#63b8ff" d="M1454.01,-219C1445.97,-219 1437.82,-219 1429.99,-219"/>
<polygon fill="#63b8ff" stroke="#63b8ff" points="1453.76,-222.5 1463.76,-219 1453.76,-215.5 1453.76,-222.5"/>
</a>
</g>
</g>
<!-- Node5 -->
<g id="Node000005" class="node">
<title>Node5</title>
<g id="a_Node000005"><a xlink:href="../../df/d78/SDL_8c.html#a60aa8a910b5236e9eded873051707374" target="_top" xlink:title=" ">
<polygon fill="white" stroke="#666666" points="1287.5,-229 1177.75,-229 1177.75,-209 1287.5,-209 1287.5,-229"/>
<text xml:space="preserve" text-anchor="middle" x="1232.62" y="-215.5" font-family="Helvetica,sans-Serif" font-size="10.00">SDL_QuitSubSystem</text>
</a>
</g>
</g>
<!-- Node4&#45;&gt;Node5 -->
<g id="edge4_Node000004_Node000005" class="edge">
<title>Node4&#45;&gt;Node5</title>
<g id="a_edge4_Node000004_Node000005"><a xlink:title=" ">
<path fill="none" stroke="#63b8ff" d="M1311.83,-219C1303.78,-219 1295.61,-219 1287.73,-219"/>
<polygon fill="#63b8ff" stroke="#63b8ff" points="1311.56,-222.5 1321.56,-219 1311.56,-215.5 1311.56,-222.5"/>
</a>
</g>
</g>
<!-- Node5&#45;&gt;Node1 -->
<g id="edge8_Node000005_Node000001" class="edge">
<title>Node5&#45;&gt;Node1</title>
<g id="a_edge8_Node000005_Node000001"><a xlink:title=" ">
<path fill="none" stroke="#63b8ff" d="M1287.07,-206.16C1298.99,-203.72 1311.63,-201.48 1323.5,-200 1476.48,-180.94 1658.78,-179.5 1748.4,-180.17"/>
<polygon fill="#63b8ff" stroke="#63b8ff" points="1286.43,-202.71 1277.38,-208.21 1287.88,-209.56 1286.43,-202.71"/>
</a>
</g>
</g>
<!-- Node5&#45;&gt;Node5 -->
<g id="edge44_Node000005_Node000005" class="edge">
<title>Node5&#45;&gt;Node5</title>
<g id="a_edge44_Node000005_Node000005"><a xlink:title=" ">
<path fill="none" stroke="#63b8ff" d="M1257.59,-240.44C1254.37,-244.3 1246.05,-247 1232.62,-247 1208.07,-247 1200.59,-237.98 1210.18,-229.34"/>
<polygon fill="#63b8ff" stroke="#63b8ff" points="1261.03,-239.79 1255.4,-230.81 1254.21,-241.34 1261.03,-239.79"/>
</a>
</g>
</g>
<!-- Node6 -->
<g id="Node000006" class="node">
<title>Node6</title>
<g id="a_Node000006"><a xlink:href="../../d6/df9/SDL__joystick_8c.html#a7d2531dc4fbc8de52a29ac3ec171a495" target="_top" xlink:title=" ">
<polygon fill="white" stroke="#666666" points="707.12,-362 596.62,-362 596.62,-342 707.12,-342 707.12,-362"/>
<text xml:space="preserve" text-anchor="middle" x="651.88" y="-348.5" font-family="Helvetica,sans-Serif" font-size="10.00">AttemptSensorFusion</text>
</a>
</g>
</g>
<!-- Node5&#45;&gt;Node6 -->
<g id="edge5_Node000005_Node000006" class="edge">
<title>Node5&#45;&gt;Node6</title>
<g id="a_edge5_Node000005_Node000006"><a xlink:title=" ">
<path fill="none" stroke="#63b8ff" d="M1216.19,-238.12C1199.8,-257.02 1172.12,-285.2 1141.75,-300 997.51,-370.32 801.47,-365.4 707.5,-357.83"/>
<polygon fill="#63b8ff" stroke="#63b8ff" points="1218.75,-240.51 1222.51,-230.6 1213.39,-236.01 1218.75,-240.51"/>
</a>
</g>
</g>
<!-- Node9 -->
<g id="Node000009" class="node">
<title>Node9</title>
<g id="a_Node000009"><a xlink:href="../../d6/df9/SDL__joystick_8c.html#a94fd638a34a769ff6a7a01738257215c" target="_top" xlink:title=" ">
<polygon fill="white" stroke="#666666" points="683.5,-324 620.25,-324 620.25,-304 683.5,-304 683.5,-324"/>
<text xml:space="preserve" text-anchor="middle" x="651.88" y="-310.5" font-family="Helvetica,sans-Serif" font-size="10.00">IsROGAlly</text>
</a>
</g>
</g>
<!-- Node5&#45;&gt;Node9 -->
<g id="edge9_Node000005_Node000009" class="edge">
<title>Node5&#45;&gt;Node9</title>
<g id="a_edge9_Node000005_Node000009"><a xlink:title=" ">
<path fill="none" stroke="#63b8ff" d="M1210.16,-236.16C1192.79,-249 1167.14,-265.72 1141.75,-274 975.99,-328.09 762.65,-321.24 683.88,-316.34"/>
<polygon fill="#63b8ff" stroke="#63b8ff" points="1211.86,-239.26 1217.69,-230.42 1207.62,-233.69 1211.86,-239.26"/>
</a>
</g>
</g>
<!-- Node11 -->
<g id="Node000011" class="node">
<title>Node11</title>
<g id="a_Node000011"><a xlink:href="../../df/d78/SDL_8c.html#aa33d2b8c0a69b16651f78c26f391b6ef" target="_top" xlink:title=" ">
<polygon fill="white" stroke="#666666" points="881,-210 775.75,-210 775.75,-190 881,-190 881,-210"/>
<text xml:space="preserve" text-anchor="middle" x="828.38" y="-196.5" font-family="Helvetica,sans-Serif" font-size="10.00">SDL_InitSubSystem</text>
</a>
</g>
</g>
<!-- Node5&#45;&gt;Node11 -->
<g id="edge12_Node000005_Node000011" class="edge">
<title>Node5&#45;&gt;Node11</title>
<g id="a_edge12_Node000005_Node000011"><a xlink:title=" ">
<path fill="none" stroke="#63b8ff" d="M1166.05,-215.9C1086.59,-212.15 954.34,-205.9 881.49,-202.46"/>
<polygon fill="#63b8ff" stroke="#63b8ff" points="1165.71,-219.39 1175.86,-216.37 1166.04,-212.4 1165.71,-219.39"/>
</a>
</g>
</g>
<!-- Node22 -->
<g id="Node000022" class="node">
<title>Node22</title>
<g id="a_Node000022"><a xlink:href="../../d6/d3d/SDL__video_8c.html#ac61dc66ab71d039f9b681916d0fcbc6e" target="_top" xlink:title=" ">
<polygon fill="white" stroke="#666666" points="1005,-248 926,-248 926,-228 1005,-228 1005,-248"/>
<text xml:space="preserve" text-anchor="middle" x="965.5" y="-234.5" font-family="Helvetica,sans-Serif" font-size="10.00">SDL_VideoInit</text>
</a>
</g>
</g>
<!-- Node5&#45;&gt;Node22 -->
<g id="edge45_Node000005_Node000022" class="edge">
<title>Node5&#45;&gt;Node22</title>
<g id="a_edge45_Node000005_Node000022"><a xlink:title=" ">
<path fill="none" stroke="#63b8ff" d="M1203.1,-234.53C1185.89,-243.02 1163.2,-252.65 1141.75,-257 1097.86,-265.9 1085.43,-262.58 1041,-257 1027.36,-255.29 1012.63,-251.88 999.91,-248.41"/>
<polygon fill="#63b8ff" stroke="#63b8ff" points="1204.39,-237.81 1211.71,-230.15 1201.21,-231.57 1204.39,-237.81"/>
</a>
</g>
</g>
<!-- Node23 -->
<g id="Node000023" class="node">
<title>Node23</title>
<g id="a_Node000023"><a xlink:href="../../df/d78/SDL_8c.html#abf064fcc4a657a30db8eace18633f362" target="_top" xlink:title=" ">
<polygon fill="white" stroke="#666666" points="994.88,-77 936.12,-77 936.12,-57 994.88,-57 994.88,-77"/>
<text xml:space="preserve" text-anchor="middle" x="965.5" y="-63.5" font-family="Helvetica,sans-Serif" font-size="10.00">SDL_Quit</text>
</a>
</g>
</g>
<!-- Node5&#45;&gt;Node23 -->
<g id="edge30_Node000005_Node000023" class="edge">
<title>Node5&#45;&gt;Node23</title>
<g id="a_edge30_Node000005_Node000023"><a xlink:title=" ">
<path fill="none" stroke="#63b8ff" d="M1190.53,-203.6C1186,-201.07 1181.62,-198.21 1177.75,-195 1156.11,-177.06 1163.9,-160.3 1141.75,-143 1104.03,-113.55 1084.77,-124.35 1041,-105 1021.74,-96.49 1000.4,-85.43 985.51,-77.44"/>
<polygon fill="#63b8ff" stroke="#63b8ff" points="1188.73,-206.62 1199.24,-207.94 1191.85,-200.35 1188.73,-206.62"/>
</a>
</g>
</g>
<!-- Node5&#45;&gt;Node29 -->
<g id="edge38_Node000005_Node000029" class="edge">
<title>Node5&#45;&gt;Node29</title>
<g id="a_edge38_Node000005_Node000029"><a xlink:title=" ">
<path fill="none" stroke="#63b8ff" d="M1206.78,-204.06C1196.73,-199.61 1185.65,-194.05 1177.75,-186 1149.01,-156.72 1170,-130.75 1141.75,-101 1140.17,-99.34 1138.46,-97.78 1136.65,-96.33"/>
<polygon fill="#63b8ff" stroke="#63b8ff" points="1205.14,-207.16 1215.71,-207.91 1207.91,-200.74 1205.14,-207.16"/>
</a>
</g>
</g>
<!-- Node30 -->
<g id="Node000030" class="node">
<title>Node30</title>
<g id="a_Node000030"><a xlink:href="../../dc/de1/SDL__sensor_8c.html#af97faaba22b06bf9fc16804bfc2ae7df" target="_top" xlink:title=" ">
<polygon fill="white" stroke="#666666" points="1138.75,-172 1044,-172 1044,-152 1138.75,-152 1138.75,-172"/>
<text xml:space="preserve" text-anchor="middle" x="1091.38" y="-158.5" font-family="Helvetica,sans-Serif" font-size="10.00">SDL_QuitSensors</text>
</a>
</g>
</g>
<!-- Node5&#45;&gt;Node30 -->
<g id="edge41_Node000005_Node000030" class="edge">
<title>Node5&#45;&gt;Node30</title>
<g id="a_edge41_Node000005_Node000030"><a xlink:title=" ">
<path fill="none" stroke="#63b8ff" d="M1206.65,-203.46C1186.23,-193.56 1156.94,-181.27 1133.13,-172.48"/>
<polygon fill="#63b8ff" stroke="#63b8ff" points="1204.87,-206.47 1215.37,-207.85 1208.02,-200.22 1204.87,-206.47"/>
</a>
</g>
</g>
<!-- Node31 -->
<g id="Node000031" class="node">
<title>Node31</title>
<g id="a_Node000031"><a xlink:href="../../d6/d3d/SDL__video_8c.html#ae86d31ef3c6aad24cd4d0da9a9551906" target="_top" xlink:title=" ">
<polygon fill="white" stroke="#666666" points="1133.12,-248 1049.62,-248 1049.62,-228 1133.12,-228 1133.12,-248"/>
<text xml:space="preserve" text-anchor="middle" x="1091.38" y="-234.5" font-family="Helvetica,sans-Serif" font-size="10.00">SDL_VideoQuit</text>
</a>
</g>
</g>
<!-- Node5&#45;&gt;Node31 -->
<g id="edge46_Node000005_Node000031" class="edge">
<title>Node5&#45;&gt;Node31</title>
<g id="a_edge46_Node000005_Node000031"><a xlink:title=" ">
<path fill="none" stroke="#63b8ff" d="M1166.33,-221.17C1152.43,-222.99 1138.3,-225.21 1126.16,-227.51"/>
<polygon fill="#63b8ff" stroke="#63b8ff" points="1166.39,-224.69 1175.89,-219.99 1165.53,-217.74 1166.39,-224.69"/>
</a>
</g>
</g>
<!-- Node6&#45;&gt;Node7 -->
<g id="edge6_Node000006_Node000007" class="edge">
<title>Node6&#45;&gt;Node7</title>
<g id="a_edge6_Node000006_Node000007"><a xlink:title=" ">
<path fill="none" stroke="#63b8ff" d="M585.14,-355.24C508.75,-359.01 384.39,-365.15 315.56,-368.54"/>
<polygon fill="#63b8ff" stroke="#63b8ff" points="585.19,-358.75 595,-354.76 584.84,-351.75 585.19,-358.75"/>
</a>
</g>
</g>
<!-- Node7&#45;&gt;Node8 -->
<g id="edge7_Node000007_Node000008" class="edge">
<title>Node7&#45;&gt;Node8</title>
<g id="a_edge7_Node000007_Node000008"><a xlink:title=" ">
<path fill="none" stroke="#63b8ff" d="M203.06,-383.7C179.98,-388.53 153.97,-393.97 132.01,-398.56"/>
<polygon fill="#63b8ff" stroke="#63b8ff" points="203.57,-387.17 212.64,-381.69 202.13,-380.32 203.57,-387.17"/>
</a>
</g>
</g>
<!-- Node10 -->
<g id="Node000010" class="node">
<title>Node10</title>
<g id="a_Node000010"><a xlink:href="../../d6/df9/SDL__joystick_8c.html#a497945f75b33dbfcde319992145025c5" target="_top" xlink:title=" ">
<polygon fill="white" stroke="#666666" points="522.38,-324 381.88,-324 381.88,-304 522.38,-304 522.38,-324"/>
<text xml:space="preserve" text-anchor="middle" x="452.12" y="-310.5" font-family="Helvetica,sans-Serif" font-size="10.00">ShouldAttemptSensorFusion</text>
</a>
</g>
</g>
<!-- Node9&#45;&gt;Node10 -->
<g id="edge10_Node000009_Node000010" class="edge">
<title>Node9&#45;&gt;Node10</title>
<g id="a_edge10_Node000009_Node000010"><a xlink:title=" ">
<path fill="none" stroke="#63b8ff" d="M608.69,-314C583.69,-314 551.39,-314 522.71,-314"/>
<polygon fill="#63b8ff" stroke="#63b8ff" points="608.46,-317.5 618.46,-314 608.46,-310.5 608.46,-317.5"/>
</a>
</g>
</g>
<!-- Node10&#45;&gt;Node7 -->
<g id="edge11_Node000010_Node000007" class="edge">
<title>Node10&#45;&gt;Node7</title>
<g id="a_edge11_Node000010_Node000007"><a xlink:title=" ">
<path fill="none" stroke="#63b8ff" d="M402.61,-327.56C391,-330.9 378.67,-334.51 367.25,-338 343.5,-345.25 316.81,-353.96 296.76,-360.6"/>
<polygon fill="#63b8ff" stroke="#63b8ff" points="403.35,-330.99 412.01,-324.88 401.43,-324.26 403.35,-330.99"/>
</a>
</g>
</g>
<!-- Node11&#45;&gt;Node6 -->
<g id="edge13_Node000011_Node000006" class="edge">
<title>Node11&#45;&gt;Node6</title>
<g id="a_edge13_Node000011_Node000006"><a xlink:title=" ">
<path fill="none" stroke="#63b8ff" d="M818.19,-220.59C803.88,-250.2 773.43,-304.36 730.75,-333 723.7,-337.73 715.59,-341.28 707.32,-343.95"/>
<polygon fill="#63b8ff" stroke="#63b8ff" points="821.33,-222.13 822.38,-211.59 814.98,-219.18 821.33,-222.13"/>
</a>
</g>
</g>
<!-- Node11&#45;&gt;Node9 -->
<g id="edge14_Node000011_Node000009" class="edge">
<title>Node11&#45;&gt;Node9</title>
<g id="a_edge14_Node000011_Node000009"><a xlink:title=" ">
<path fill="none" stroke="#63b8ff" d="M813.02,-219.39C795.87,-241.13 765.15,-275.84 730.75,-295 716.4,-302.99 698.74,-307.65 683.86,-310.35"/>
<polygon fill="#63b8ff" stroke="#63b8ff" points="815.67,-221.68 818.99,-211.62 810.12,-217.42 815.67,-221.68"/>
</a>
</g>
</g>
<!-- Node12 -->
<g id="Node000012" class="node">
<title>Node12</title>
<g id="a_Node000012"><a xlink:href="../../df/d78/SDL_8c.html#ac25d0ce460db43ca8c7681eb8e7c5007" target="_top" xlink:title=" ">
<polygon fill="white" stroke="#666666" points="679,-286 624.75,-286 624.75,-266 679,-266 679,-286"/>
<text xml:space="preserve" text-anchor="middle" x="651.88" y="-272.5" font-family="Helvetica,sans-Serif" font-size="10.00">SDL_Init</text>
</a>
</g>
</g>
<!-- Node11&#45;&gt;Node12 -->
<g id="edge15_Node000011_Node000012" class="edge">
<title>Node11&#45;&gt;Node12</title>
<g id="a_edge15_Node000011_Node000012"><a xlink:title=" ">
<path fill="none" stroke="#63b8ff" d="M803.7,-216.65C784.74,-229.3 757.06,-246.31 730.75,-257 714.25,-263.71 694.78,-268.46 679.44,-271.53"/>
<polygon fill="#63b8ff" stroke="#63b8ff" points="805.47,-219.68 811.76,-211.16 801.53,-213.89 805.47,-219.68"/>
</a>
</g>
</g>
<!-- Node17 -->
<g id="Node000017" class="node">
<title>Node17</title>
<g id="a_Node000017"><a xlink:href="../../d6/df9/SDL__joystick_8c.html#a9340afa4acb6b0fad4affbb99d4fa014" target="_top" xlink:title=" ">
<polygon fill="white" stroke="#666666" points="700,-134 603.75,-134 603.75,-114 700,-114 700,-134"/>
<text xml:space="preserve" text-anchor="middle" x="651.88" y="-120.5" font-family="Helvetica,sans-Serif" font-size="10.00">SDL_InitJoysticks</text>
</a>
</g>
</g>
<!-- Node11&#45;&gt;Node17 -->
<g id="edge20_Node000011_Node000017" class="edge">
<title>Node11&#45;&gt;Node17</title>
<g id="a_edge20_Node000011_Node000017"><a xlink:title=" ">
<path fill="none" stroke="#63b8ff" d="M811.66,-182.29C793.14,-166.98 761.03,-146.31 730.75,-134 721.08,-130.07 710.39,-126.81 700.11,-124.39"/>
<polygon fill="#63b8ff" stroke="#63b8ff" points="809.32,-184.89 819.11,-188.94 813.98,-179.67 809.32,-184.89"/>
</a>
</g>
</g>
<!-- Node18 -->
<g id="Node000018" class="node">
<title>Node18</title>
<g id="a_Node000018"><a xlink:href="../../d9/d78/SDL__main__callbacks_8c.html#a3d21b5bf7aa441418de48c5b2856336a" target="_top" xlink:title=" ">
<polygon fill="white" stroke="#666666" points="711.25,-248 592.5,-248 592.5,-228 711.25,-228 711.25,-248"/>
<text xml:space="preserve" text-anchor="middle" x="651.88" y="-234.5" font-family="Helvetica,sans-Serif" font-size="10.00">SDL_InitMainCallbacks</text>
</a>
</g>
</g>
<!-- Node11&#45;&gt;Node18 -->
<g id="edge22_Node000011_Node000018" class="edge">
<title>Node11&#45;&gt;Node18</title>
<g id="a_edge22_Node000011_Node000018"><a xlink:title=" ">
<path fill="none" stroke="#63b8ff" d="M768.05,-212.92C746.15,-217.69 721.63,-223.03 700.86,-227.55"/>
<polygon fill="#63b8ff" stroke="#63b8ff" points="768.73,-216.35 777.75,-210.81 767.24,-209.51 768.73,-216.35"/>
</a>
</g>
</g>
<!-- Node20 -->
<g id="Node000020" class="node">
<title>Node20</title>
<g id="a_Node000020"><a xlink:href="../../df/d78/SDL_8c.html#a8f0bf712ad7ba759f5b6e04e683c67d4" target="_top" xlink:title=" ">
<polygon fill="white" stroke="#666666" points="730.75,-210 573,-210 573,-190 730.75,-190 730.75,-210"/>
<text xml:space="preserve" text-anchor="middle" x="651.88" y="-196.5" font-family="Helvetica,sans-Serif" font-size="10.00">SDL_InitOrIncrementSubsystem</text>
</a>
</g>
</g>
<!-- Node11&#45;&gt;Node20 -->
<g id="edge24_Node000011_Node000020" class="edge">
<title>Node11&#45;&gt;Node20</title>
<g id="a_edge24_Node000011_Node000020"><a xlink:title=" ">
<path fill="none" stroke="#63b8ff" d="M764.09,-193.48C753.36,-193.27 742.11,-193.2 731.05,-193.28"/>
<polygon fill="#63b8ff" stroke="#63b8ff" points="763.89,-196.98 773.98,-193.73 764.07,-189.98 763.89,-196.98"/>
</a>
</g>
</g>
<!-- Node21 -->
<g id="Node000021" class="node">
<title>Node21</title>
<g id="a_Node000021"><a xlink:href="../../dc/de1/SDL__sensor_8c.html#abdb7d6b73a301a2c8558ba80edb32331" target="_top" xlink:title=" ">
<polygon fill="white" stroke="#666666" points="697,-172 606.75,-172 606.75,-152 697,-152 697,-172"/>
<text xml:space="preserve" text-anchor="middle" x="651.88" y="-158.5" font-family="Helvetica,sans-Serif" font-size="10.00">SDL_InitSensors</text>
</a>
</g>
</g>
<!-- Node11&#45;&gt;Node21 -->
<g id="edge26_Node000011_Node000021" class="edge">
<title>Node11&#45;&gt;Node21</title>
<g id="a_edge26_Node000011_Node000021"><a xlink:title=" ">
<path fill="none" stroke="#63b8ff" d="M790.99,-186.47C763.71,-179.14 726.24,-170.86 697.21,-165.69"/>
<polygon fill="#63b8ff" stroke="#63b8ff" points="789.97,-189.82 800.54,-189.14 791.85,-183.08 789.97,-189.82"/>
</a>
</g>
</g>
<!-- Node11&#45;&gt;Node22 -->
<g id="edge28_Node000011_Node000022" class="edge">
<title>Node11&#45;&gt;Node22</title>
<g id="a_edge28_Node000011_Node000022"><a xlink:title=" ">
<path fill="none" stroke="#63b8ff" d="M859.69,-214.27C879.22,-220.94 904.79,-228.27 925.78,-233.28"/>
<polygon fill="#63b8ff" stroke="#63b8ff" points="860.99,-211.01 850.4,-210.94 858.64,-217.61 860.99,-211.01"/>
</a>
</g>
</g>
<!-- Node13 -->
<g id="Node000013" class="node">
<title>Node13</title>
<g id="a_Node000013"><a xlink:href="../../d6/d3d/SDL__video_8c.html#a9f3d88531134e2c3e575a3c2db7f8488" target="_top" xlink:title=" ">
<polygon fill="white" stroke="#666666" points="537,-286 367.25,-286 367.25,-266 537,-266 537,-286"/>
<text xml:space="preserve" text-anchor="middle" x="452.12" y="-272.5" font-family="Helvetica,sans-Serif" font-size="10.00">SDL_CreateWindowWithProperties</text>
</a>
</g>
</g>
<!-- Node12&#45;&gt;Node13 -->
<g id="edge16_Node000012_Node000013" class="edge">
<title>Node12&#45;&gt;Node13</title>
<g id="a_edge16_Node000012_Node000013"><a xlink:title=" ">
<path fill="none" stroke="#63b8ff" d="M613.37,-276C591.84,-276 563.89,-276 537.38,-276"/>
<polygon fill="#63b8ff" stroke="#63b8ff" points="613.1,-279.5 623.1,-276 613.1,-272.5 613.1,-279.5"/>
</a>
</g>
</g>
<!-- Node14 -->
<g id="Node000014" class="node">
<title>Node14</title>
<g id="a_Node000014"><a xlink:href="../../d6/d3d/SDL__video_8c.html#acc26de39ce1bd675446e4d6c05ebf4b0" target="_top" xlink:title=" ">
<polygon fill="white" stroke="#666666" points="331.25,-305 198.25,-305 198.25,-285 331.25,-285 331.25,-305"/>
<text xml:space="preserve" text-anchor="middle" x="264.75" y="-291.5" font-family="Helvetica,sans-Serif" font-size="10.00">SDL_CreatePopupWindow</text>
</a>
</g>
</g>
<!-- Node13&#45;&gt;Node14 -->
<g id="edge17_Node000013_Node000014" class="edge">
<title>Node13&#45;&gt;Node14</title>
<g id="a_edge17_Node000013_Node000014"><a xlink:title=" ">
<path fill="none" stroke="#63b8ff" d="M355.42,-285.81C347.33,-286.64 339.27,-287.46 331.5,-288.26"/>
<polygon fill="#63b8ff" stroke="#63b8ff" points="355.75,-289.29 365.34,-284.79 355.03,-282.33 355.75,-289.29"/>
</a>
</g>
</g>
<!-- Node15 -->
<g id="Node000015" class="node">
<title>Node15</title>
<g id="a_Node000015"><a xlink:href="../../d6/d3d/SDL__video_8c.html#a83103c86f9e5c33ab9e1fb6dfa904b7f" target="_top" xlink:title=" ">
<polygon fill="white" stroke="#666666" points="317.38,-267 212.12,-267 212.12,-247 317.38,-247 317.38,-267"/>
<text xml:space="preserve" text-anchor="middle" x="264.75" y="-253.5" font-family="Helvetica,sans-Serif" font-size="10.00">SDL_CreateWindow</text>
</a>
</g>
</g>
<!-- Node13&#45;&gt;Node15 -->
<g id="edge18_Node000013_Node000015" class="edge">
<title>Node13&#45;&gt;Node15</title>
<g id="a_edge18_Node000013_Node000015"><a xlink:title=" ">
<path fill="none" stroke="#63b8ff" d="M355.44,-266.19C342.45,-264.86 329.54,-263.54 317.73,-262.33"/>
<polygon fill="#63b8ff" stroke="#63b8ff" points="355.03,-269.67 365.34,-267.21 355.75,-262.71 355.03,-269.67"/>
</a>
</g>
</g>
<!-- Node16 -->
<g id="Node000016" class="node">
<title>Node16</title>
<g id="a_Node000016"><a xlink:href="../../dd/df3/SDL__render_8c.html#a36f859fae15e4277ba052f9ecfb2816d" target="_top" xlink:title=" ">
<polygon fill="white" stroke="#666666" points="162.25,-267 0,-267 0,-247 162.25,-247 162.25,-267"/>
<text xml:space="preserve" text-anchor="middle" x="81.12" y="-253.5" font-family="Helvetica,sans-Serif" font-size="10.00">SDL_CreateWindowAndRenderer</text>
</a>
</g>
</g>
<!-- Node15&#45;&gt;Node16 -->
<g id="edge19_Node000015_Node000016" class="edge">
<title>Node15&#45;&gt;Node16</title>
<g id="a_edge19_Node000015_Node000016"><a xlink:title=" ">
<path fill="none" stroke="#63b8ff" d="M200.3,-257C188.14,-257 175.26,-257 162.64,-257"/>
<polygon fill="#63b8ff" stroke="#63b8ff" points="200.19,-260.5 210.19,-257 200.19,-253.5 200.19,-260.5"/>
</a>
</g>
</g>
<!-- Node17&#45;&gt;Node11 -->
<g id="edge21_Node000017_Node000011" class="edge">
<title>Node17&#45;&gt;Node11</title>
<g id="a_edge21_Node000017_Node000011"><a xlink:title=" ">
<path fill="none" stroke="#63b8ff" d="M683.56,-137.46C698.17,-141.39 715.69,-145.88 730.75,-152 756.19,-162.34 782.92,-178.58 801.8,-189.58"/>
<polygon fill="#63b8ff" stroke="#63b8ff" points="684.6,-134.12 674.03,-134.82 682.73,-140.86 684.6,-134.12"/>
</a>
</g>
</g>
<!-- Node19 -->
<g id="Node000019" class="node">
<title>Node19</title>
<g id="a_Node000019"><a xlink:href="../../dd/db5/generic_2SDL__sysmain__callbacks_8c.html#aa50e1897a91f2547b5f31125020220e2" target="_top" xlink:title=" ">
<polygon fill="white" stroke="#666666" points="525,-96 379.25,-96 379.25,-76 525,-76 525,-96"/>
<text xml:space="preserve" text-anchor="middle" x="452.12" y="-82.5" font-family="Helvetica,sans-Serif" font-size="10.00">SDL_EnterAppMainCallbacks</text>
</a>
</g>
</g>
<!-- Node18&#45;&gt;Node19 -->
<g id="edge23_Node000018_Node000019" class="edge">
<title>Node18&#45;&gt;Node19</title>
<g id="a_edge23_Node000018_Node000019"><a xlink:title=" ">
<path fill="none" stroke="#63b8ff" d="M581.77,-223.59C578.74,-222.2 575.8,-220.67 573,-219 518.55,-186.49 474.76,-121.34 459.21,-96.21"/>
<polygon fill="#63b8ff" stroke="#63b8ff" points="580.37,-226.8 590.95,-227.26 582.97,-220.3 580.37,-226.8"/>
</a>
</g>
</g>
<!-- Node20&#45;&gt;Node11 -->
<g id="edge25_Node000020_Node000011" class="edge">
<title>Node20&#45;&gt;Node11</title>
<g id="a_edge25_Node000020_Node000011"><a xlink:title=" ">
<path fill="none" stroke="#63b8ff" d="M742.38,-206.75C753.73,-206.73 765.02,-206.56 775.49,-206.23"/>
<polygon fill="#63b8ff" stroke="#63b8ff" points="742.58,-203.25 732.57,-206.72 742.56,-210.25 742.58,-203.25"/>
</a>
</g>
</g>
<!-- Node21&#45;&gt;Node11 -->
<g id="edge27_Node000021_Node000011" class="edge">
<title>Node21&#45;&gt;Node11</title>
<g id="a_edge27_Node000021_Node000011"><a xlink:title=" ">
<path fill="none" stroke="#63b8ff" d="M688.93,-175.44C713.93,-182.18 747.61,-189.73 775.49,-194.93"/>
<polygon fill="#63b8ff" stroke="#63b8ff" points="690.14,-172.14 679.57,-172.82 688.25,-178.88 690.14,-172.14"/>
</a>
</g>
</g>
<!-- Node22&#45;&gt;Node11 -->
<g id="edge29_Node000022_Node000011" class="edge">
<title>Node22&#45;&gt;Node11</title>
<g id="a_edge29_Node000022_Node000011"><a xlink:title=" ">
<path fill="none" stroke="#63b8ff" d="M934.28,-223.77C918.72,-218.45 899.32,-212.7 881.44,-208.05"/>
<polygon fill="#63b8ff" stroke="#63b8ff" points="932.83,-226.97 943.43,-227.04 935.19,-220.37 932.83,-226.97"/>
</a>
</g>
</g>
<!-- Node24 -->
<g id="Node000024" class="node">
<title>Node24</title>
<g id="a_Node000024"><a xlink:href="../../de/daf/classCSDLmain.html#a73bd9c42ac6916974009e508257e44ff" target="_top" xlink:title=" ">
<polygon fill="white" stroke="#666666" points="875,-96 781.75,-96 781.75,-76 875,-76 875,-96"/>
<text xml:space="preserve" text-anchor="middle" x="828.38" y="-82.5" font-family="Helvetica,sans-Serif" font-size="10.00">CSDLmain::RunL</text>
</a>
</g>
</g>
<!-- Node23&#45;&gt;Node24 -->
<g id="edge31_Node000023_Node000024" class="edge">
<title>Node23&#45;&gt;Node24</title>
<g id="a_edge31_Node000023_Node000024"><a xlink:title=" ">
<path fill="none" stroke="#63b8ff" d="M924.54,-72.62C909.06,-74.79 891.26,-77.3 875.27,-79.55"/>
<polygon fill="#63b8ff" stroke="#63b8ff" points="924.93,-76.1 934.34,-71.24 923.95,-69.17 924.93,-76.1"/>
</a>
</g>
</g>
<!-- Node25 -->
<g id="Node000025" class="node">
<title>Node25</title>
<g id="a_Node000025"><a xlink:href="../../d3/d6c/SDL__assert_8c.html#af146e7f66c4e41a24337c5b6943af0b0" target="_top" xlink:title=" ">
<polygon fill="white" stroke="#666666" points="881,-20 775.75,-20 775.75,0 881,0 881,-20"/>
<text xml:space="preserve" text-anchor="middle" x="828.38" y="-6.5" font-family="Helvetica,sans-Serif" font-size="10.00">SDL_AbortAssertion</text>
</a>
</g>
</g>
<!-- Node23&#45;&gt;Node25 -->
<g id="edge32_Node000023_Node000025" class="edge">
<title>Node23&#45;&gt;Node25</title>
<g id="a_edge32_Node000023_Node000025"><a xlink:title=" ">
<path fill="none" stroke="#63b8ff" d="M936.42,-51.26C922.68,-43.93 905.75,-35.43 890,-29 882.44,-25.91 874.19,-23.02 866.27,-20.48"/>
<polygon fill="#63b8ff" stroke="#63b8ff" points="934.44,-54.17 944.9,-55.87 937.78,-48.02 934.44,-54.17"/>
</a>
</g>
</g>
<!-- Node27 -->
<g id="Node000027" class="node">
<title>Node27</title>
<g id="a_Node000027"><a xlink:href="../../d9/d78/SDL__main__callbacks_8c.html#a2e8bd250bb597fdf72c9da9d001181e7" target="_top" xlink:title=" ">
<polygon fill="white" stroke="#666666" points="890,-58 766.75,-58 766.75,-38 890,-38 890,-58"/>
<text xml:space="preserve" text-anchor="middle" x="828.38" y="-44.5" font-family="Helvetica,sans-Serif" font-size="10.00">SDL_QuitMainCallbacks</text>
</a>
</g>
</g>
<!-- Node23&#45;&gt;Node27 -->
<g id="edge34_Node000023_Node000027" class="edge">
<title>Node23&#45;&gt;Node27</title>
<g id="a_edge34_Node000023_Node000027"><a xlink:title=" ">
<path fill="none" stroke="#63b8ff" d="M924.64,-61.4C913.85,-59.88 901.91,-58.2 890.24,-56.56"/>
<polygon fill="#63b8ff" stroke="#63b8ff" points="923.95,-64.83 934.34,-62.76 924.93,-57.9 923.95,-64.83"/>
</a>
</g>
</g>
<!-- Node26 -->
<g id="Node000026" class="node">
<title>Node26</title>
<g id="a_Node000026"><a xlink:href="../../d3/d6c/SDL__assert_8c.html#a0c9a208493d6e9212cff2ab400242102" target="_top" xlink:title=" ">
<polygon fill="white" stroke="#666666" points="707.5,-20 596.25,-20 596.25,0 707.5,0 707.5,-20"/>
<text xml:space="preserve" text-anchor="middle" x="651.88" y="-6.5" font-family="Helvetica,sans-Serif" font-size="10.00">SDL_ReportAssertion</text>
</a>
</g>
</g>
<!-- Node25&#45;&gt;Node26 -->
<g id="edge33_Node000025_Node000026" class="edge">
<title>Node25&#45;&gt;Node26</title>
<g id="a_edge33_Node000025_Node000026"><a xlink:title=" ">
<path fill="none" stroke="#63b8ff" d="M763.98,-10C745.61,-10 725.71,-10 707.9,-10"/>
<polygon fill="#63b8ff" stroke="#63b8ff" points="763.98,-13.5 773.98,-10 763.98,-6.5 763.98,-13.5"/>
</a>
</g>
</g>
<!-- Node27&#45;&gt;Node19 -->
<g id="edge37_Node000027_Node000019" class="edge">
<title>Node27&#45;&gt;Node19</title>
<g id="a_edge37_Node000027_Node000019"><a xlink:title=" ">
<path fill="none" stroke="#63b8ff" d="M769.45,-60.62C756.75,-63.04 743.33,-65.34 730.75,-67 661.3,-76.17 581.46,-81.05 525.28,-83.55"/>
<polygon fill="#63b8ff" stroke="#63b8ff" points="769.77,-64.12 778.91,-58.76 768.42,-57.26 769.77,-64.12"/>
</a>
</g>
</g>
<!-- Node28 -->
<g id="Node000028" class="node">
<title>Node28</title>
<g id="a_Node000028"><a xlink:href="../../d0/d72/emscripten_2SDL__sysmain__callbacks_8c.html#ad2e127e4f44ae815197361e79da5bf88" target="_top" xlink:title=" ">
<polygon fill="white" stroke="#666666" points="720.25,-58 583.5,-58 583.5,-38 720.25,-38 720.25,-58"/>
<text xml:space="preserve" text-anchor="middle" x="651.88" y="-44.5" font-family="Helvetica,sans-Serif" font-size="10.00">EmscriptenInternalMainloop</text>
</a>
</g>
</g>
<!-- Node27&#45;&gt;Node28 -->
<g id="edge35_Node000027_Node000028" class="edge">
<title>Node27&#45;&gt;Node28</title>
<g id="a_edge35_Node000027_Node000028"><a xlink:title=" ">
<path fill="none" stroke="#63b8ff" d="M755.11,-48C743.73,-48 732,-48 720.72,-48"/>
<polygon fill="#63b8ff" stroke="#63b8ff" points="754.83,-51.5 764.83,-48 754.83,-44.5 754.83,-51.5"/>
</a>
</g>
</g>
<!-- Node28&#45;&gt;Node19 -->
<g id="edge36_Node000028_Node000019" class="edge">
<title>Node28&#45;&gt;Node19</title>
<g id="a_edge36_Node000028_Node000019"><a xlink:title=" ">
<path fill="none" stroke="#63b8ff" d="M585.01,-60.66C559.85,-65.49 531.48,-70.94 507.51,-75.55"/>
<polygon fill="#63b8ff" stroke="#63b8ff" points="585.67,-64.09 594.83,-58.77 584.35,-57.22 585.67,-64.09"/>
</a>
</g>
</g>
<!-- Node29&#45;&gt;Node5 -->
<g id="edge40_Node000029_Node000005" class="edge">
<title>Node29&#45;&gt;Node5</title>
<g id="a_edge40_Node000029_Node000005"><a xlink:title=" ">
<path fill="none" stroke="#63b8ff" d="M1115.02,-101.3C1124.27,-105.83 1134.49,-111.35 1141.75,-119 1170,-148.75 1149.01,-174.72 1177.75,-204 1179.33,-205.61 1181.03,-207.12 1182.83,-208.52"/>
<polygon fill="#63b8ff" stroke="#63b8ff" points="1116.72,-98.23 1106.19,-97.02 1113.67,-104.53 1116.72,-98.23"/>
</a>
</g>
</g>
<!-- Node29&#45;&gt;Node17 -->
<g id="edge39_Node000029_Node000017" class="edge">
<title>Node29&#45;&gt;Node17</title>
<g id="a_edge39_Node000029_Node000017"><a xlink:title=" ">
<path fill="none" stroke="#63b8ff" d="M1029.23,-92.03C989.55,-95.89 936.73,-100.91 890,-105 824.17,-110.76 748,-116.74 700.13,-120.42"/>
<polygon fill="#63b8ff" stroke="#63b8ff" points="1029.45,-95.53 1039.07,-91.07 1028.78,-88.56 1029.45,-95.53"/>
</a>
</g>
</g>
<!-- Node30&#45;&gt;Node5 -->
<g id="edge43_Node000030_Node000005" class="edge">
<title>Node30&#45;&gt;Node5</title>
<g id="a_edge43_Node000030_Node000005"><a xlink:title=" ">
<path fill="none" stroke="#63b8ff" d="M1117.39,-177.56C1137.84,-187.47 1167.16,-199.77 1190.97,-208.56"/>
<polygon fill="#63b8ff" stroke="#63b8ff" points="1119.16,-174.54 1108.65,-173.16 1116.01,-180.79 1119.16,-174.54"/>
</a>
</g>
</g>
<!-- Node30&#45;&gt;Node21 -->
<g id="edge42_Node000030_Node000021" class="edge">
<title>Node30&#45;&gt;Node21</title>
<g id="a_edge42_Node000030_Node000021"><a xlink:title=" ">
<path fill="none" stroke="#63b8ff" d="M1032.11,-162C943.55,-162 776.98,-162 697.4,-162"/>
<polygon fill="#63b8ff" stroke="#63b8ff" points="1032.04,-165.5 1042.04,-162 1032.04,-158.5 1032.04,-165.5"/>
</a>
</g>
</g>
<!-- Node31&#45;&gt;Node5 -->
<g id="edge47_Node000031_Node000005" class="edge">
<title>Node31&#45;&gt;Node5</title>
<g id="a_edge47_Node000031_Node000005"><a xlink:title=" ">
<path fill="none" stroke="#63b8ff" d="M1144.87,-237.4C1162.64,-235.37 1182,-232.5 1197.92,-229.48"/>
<polygon fill="#63b8ff" stroke="#63b8ff" points="1144.55,-233.92 1134.98,-238.45 1145.29,-240.88 1144.55,-233.92"/>
</a>
</g>
</g>
<!-- Node31&#45;&gt;Node22 -->
<g id="edge48_Node000031_Node000022" class="edge">
<title>Node31&#45;&gt;Node22</title>
<g id="a_edge48_Node000031_Node000022"><a xlink:title=" ">
<path fill="none" stroke="#63b8ff" d="M1037.63,-238C1026.84,-238 1015.67,-238 1005.47,-238"/>
<polygon fill="#63b8ff" stroke="#63b8ff" points="1037.61,-241.5 1047.61,-238 1037.61,-234.5 1037.61,-241.5"/>
</a>
</g>
</g>
</g>
</svg>
