<?xml version="1.0" encoding="UTF-8" standalone="no"?>
<!DOCTYPE svg PUBLIC "-//W3C//DTD SVG 1.1//EN"
 "http://www.w3.org/Graphics/SVG/1.1/DTD/svg11.dtd">
<!-- Generated by graphviz version 13.1.0 (20250701.0955)
 -->
<!-- Title: SDL_SetJoystickIDForPlayerIndex Pages: 1 -->
<svg width="519pt" height="71pt"
 viewBox="0.00 0.00 519.00 71.00" xmlns="http://www.w3.org/2000/svg" xmlns:xlink="http://www.w3.org/1999/xlink">
<g id="graph0" class="graph" transform="scale(1 1) rotate(0) translate(4 67)">
<title>SDL_SetJoystickIDForPlayerIndex</title>
<!-- Node1 -->
<g id="Node000001" class="node">
<title>Node1</title>
<g id="a_Node000001"><a xlink:title=" ">
<polygon fill="#999999" stroke="#666666" points="510.75,-45 365.75,-45 365.75,-13 510.75,-13 510.75,-45"/>
<text xml:space="preserve" text-anchor="start" x="373.75" y="-31.5" font-family="Helvetica,sans-Serif" font-size="10.00">SDL_SetJoystickIDForPlayer</text>
<text xml:space="preserve" text-anchor="middle" x="438.25" y="-19.5" font-family="Helvetica,sans-Serif" font-size="10.00">Index</text>
</a>
</g>
</g>
<!-- Node1&#45;&gt;Node1 -->
<g id="edge2_Node000001_Node000001" class="edge">
<title>Node1&#45;&gt;Node1</title>
<g id="a_edge2_Node000001_Node000001"><a xlink:title=" ">
<path fill="none" stroke="#63b8ff" d="M468.35,-56.71C463.33,-60.48 453.3,-63 438.25,-63 410.73,-63 399.98,-54.58 406,-45.44"/>
<polygon fill="#63b8ff" stroke="#63b8ff" points="471.78,-57.41 470.21,-46.93 464.9,-56.1 471.78,-57.41"/>
</a>
</g>
</g>
<!-- Node2 -->
<g id="Node000002" class="node">
<title>Node2</title>
<g id="a_Node000002"><a xlink:href="../../d6/df9/SDL__joystick_8c.html#a8c30092465eb1a9f7599f24f98eacd03" target="_top" xlink:title=" ">
<polygon fill="white" stroke="#666666" points="325.62,-58 189.62,-58 189.62,-38 325.62,-38 325.62,-58"/>
<text xml:space="preserve" text-anchor="middle" x="257.62" y="-44.5" font-family="Helvetica,sans-Serif" font-size="10.00">SDL_PrivateJoystickAdded</text>
</a>
</g>
</g>
<!-- Node1&#45;&gt;Node2 -->
<g id="edge1_Node000001_Node000002" class="edge">
<title>Node1&#45;&gt;Node2</title>
<g id="a_edge1_Node000001_Node000002"><a xlink:title=" ">
<path fill="none" stroke="#63b8ff" d="M354,-37.85C344.63,-38.85 335.16,-39.86 326.02,-40.83"/>
<polygon fill="#63b8ff" stroke="#63b8ff" points="354.29,-41.34 363.86,-36.81 353.55,-34.38 354.29,-41.34"/>
</a>
</g>
</g>
<!-- Node3 -->
<g id="Node000003" class="node">
<title>Node3</title>
<g id="a_Node000003"><a xlink:href="../../d6/df9/SDL__joystick_8c.html#af777ece54e67a769f62701c36663d71a" target="_top" xlink:title=" ">
<polygon fill="white" stroke="#666666" points="329.75,-20 185.5,-20 185.5,0 329.75,0 329.75,-20"/>
<text xml:space="preserve" text-anchor="middle" x="257.62" y="-6.5" font-family="Helvetica,sans-Serif" font-size="10.00">SDL_SetJoystickPlayerIndex</text>
</a>
</g>
</g>
<!-- Node1&#45;&gt;Node3 -->
<g id="edge3_Node000001_Node000003" class="edge">
<title>Node1&#45;&gt;Node3</title>
<g id="a_edge3_Node000001_Node000003"><a xlink:title=" ">
<path fill="none" stroke="#63b8ff" d="M354.09,-20.15C346.06,-19.3 337.97,-18.44 330.07,-17.6"/>
<polygon fill="#63b8ff" stroke="#63b8ff" points="353.55,-23.62 363.86,-21.19 354.29,-16.66 353.55,-23.62"/>
</a>
</g>
</g>
<!-- Node4 -->
<g id="Node000004" class="node">
<title>Node4</title>
<g id="a_Node000004"><a xlink:href="../../d0/d82/SDL__gamepad_8c.html#a8eb99447f0000c1455dc02b499e9e869" target="_top" xlink:title=" ">
<polygon fill="white" stroke="#666666" points="149.5,-20 0,-20 0,0 149.5,0 149.5,-20"/>
<text xml:space="preserve" text-anchor="middle" x="74.75" y="-6.5" font-family="Helvetica,sans-Serif" font-size="10.00">SDL_SetGamepadPlayerIndex</text>
</a>
</g>
</g>
<!-- Node3&#45;&gt;Node4 -->
<g id="edge4_Node000003_Node000004" class="edge">
<title>Node3&#45;&gt;Node4</title>
<g id="a_edge4_Node000003_Node000004"><a xlink:title=" ">
<path fill="none" stroke="#63b8ff" d="M173.65,-10C165.76,-10 157.79,-10 149.98,-10"/>
<polygon fill="#63b8ff" stroke="#63b8ff" points="173.62,-13.5 183.62,-10 173.62,-6.5 173.62,-13.5"/>
</a>
</g>
</g>
</g>
</svg>
