<?xml version="1.0" encoding="UTF-8" standalone="no"?>
<!DOCTYPE svg PUBLIC "-//W3C//DTD SVG 1.1//EN"
 "http://www.w3.org/Graphics/SVG/1.1/DTD/svg11.dtd">
<!-- Generated by graphviz version 13.1.0 (20250701.0955)
 -->
<!-- Title: SDL_JoystickAllowBackgroundEventsChanged Pages: 1 -->
<svg width="1371pt" height="493pt"
 viewBox="0.00 0.00 1371.00 493.00" xmlns="http://www.w3.org/2000/svg" xmlns:xlink="http://www.w3.org/1999/xlink">
<g id="graph0" class="graph" transform="scale(1 1) rotate(0) translate(4 488.56)">
<title>SDL_JoystickAllowBackgroundEventsChanged</title>
<!-- Node1 -->
<g id="Node000001" class="node">
<title>Node1</title>
<g id="a_Node000001"><a xlink:title=" ">
<polygon fill="#999999" stroke="#666666" points="1363.25,-281.56 1210,-281.56 1210,-249.56 1363.25,-249.56 1363.25,-281.56"/>
<text xml:space="preserve" text-anchor="start" x="1218" y="-268.06" font-family="Helvetica,sans-Serif" font-size="10.00">SDL_JoystickAllowBackground</text>
<text xml:space="preserve" text-anchor="middle" x="1286.62" y="-256.06" font-family="Helvetica,sans-Serif" font-size="10.00">EventsChanged</text>
</a>
</g>
</g>
<!-- Node2 -->
<g id="Node000002" class="node">
<title>Node2</title>
<g id="a_Node000002"><a xlink:href="../../d6/df9/SDL__joystick_8c.html#a9340afa4acb6b0fad4affbb99d4fa014" target="_top" xlink:title=" ">
<polygon fill="white" stroke="#666666" points="1030.5,-350.56 934.25,-350.56 934.25,-330.56 1030.5,-330.56 1030.5,-350.56"/>
<text xml:space="preserve" text-anchor="middle" x="982.38" y="-337.06" font-family="Helvetica,sans-Serif" font-size="10.00">SDL_InitJoysticks</text>
</a>
</g>
</g>
<!-- Node1&#45;&gt;Node2 -->
<g id="edge1_Node000001_Node000002" class="edge">
<title>Node1&#45;&gt;Node2</title>
<g id="a_edge1_Node000001_Node000002"><a xlink:title=" ">
<path fill="none" stroke="#63b8ff" d="M1208.3,-284.75C1150.09,-299.19 1072.52,-318.44 1025.36,-330.14"/>
<polygon fill="#63b8ff" stroke="#63b8ff" points="1208.96,-288.19 1217.83,-282.38 1207.28,-281.39 1208.96,-288.19"/>
</a>
</g>
</g>
<!-- Node19 -->
<g id="Node000019" class="node">
<title>Node19</title>
<g id="a_Node000019"><a xlink:href="../../d6/df9/SDL__joystick_8c.html#aa98a95583054633f27bb3bcdff5f97aa" target="_top" xlink:title=" ">
<polygon fill="white" stroke="#666666" points="1174,-256.56 1073.25,-256.56 1073.25,-236.56 1174,-236.56 1174,-256.56"/>
<text xml:space="preserve" text-anchor="middle" x="1123.62" y="-243.06" font-family="Helvetica,sans-Serif" font-size="10.00">SDL_QuitJoysticks</text>
</a>
</g>
</g>
<!-- Node1&#45;&gt;Node19 -->
<g id="edge23_Node000001_Node000019" class="edge">
<title>Node1&#45;&gt;Node19</title>
<g id="a_edge23_Node000001_Node000019"><a xlink:title=" ">
<path fill="none" stroke="#63b8ff" d="M1198.51,-255.28C1190.23,-254.3 1182.04,-253.33 1174.29,-252.42"/>
<polygon fill="#63b8ff" stroke="#63b8ff" points="1197.99,-258.74 1208.34,-256.44 1198.82,-251.79 1197.99,-258.74"/>
</a>
</g>
</g>
<!-- Node3 -->
<g id="Node000003" class="node">
<title>Node3</title>
<g id="a_Node000003"><a xlink:href="../../df/d78/SDL_8c.html#aa33d2b8c0a69b16651f78c26f391b6ef" target="_top" xlink:title=" ">
<polygon fill="white" stroke="#666666" points="888.12,-389.56 782.88,-389.56 782.88,-369.56 888.12,-369.56 888.12,-389.56"/>
<text xml:space="preserve" text-anchor="middle" x="835.5" y="-376.06" font-family="Helvetica,sans-Serif" font-size="10.00">SDL_InitSubSystem</text>
</a>
</g>
</g>
<!-- Node2&#45;&gt;Node3 -->
<g id="edge2_Node000002_Node000003" class="edge">
<title>Node2&#45;&gt;Node3</title>
<g id="a_edge2_Node000002_Node000003"><a xlink:title=" ">
<path fill="none" stroke="#63b8ff" d="M923.01,-349.63C899.59,-355.55 874.13,-362.99 856.94,-369.18"/>
<polygon fill="#63b8ff" stroke="#63b8ff" points="923.59,-353.1 932.47,-347.31 921.92,-346.3 923.59,-353.1"/>
</a>
</g>
</g>
<!-- Node3&#45;&gt;Node2 -->
<g id="edge14_Node000003_Node000002" class="edge">
<title>Node3&#45;&gt;Node2</title>
<g id="a_edge14_Node000003_Node000002"><a xlink:title=" ">
<path fill="none" stroke="#63b8ff" d="M899.46,-369.31C921.42,-363.64 944.55,-356.81 960.62,-351.05"/>
<polygon fill="#63b8ff" stroke="#63b8ff" points="898.78,-365.87 889.94,-371.7 900.49,-372.66 898.78,-365.87"/>
</a>
</g>
</g>
<!-- Node4 -->
<g id="Node000004" class="node">
<title>Node4</title>
<g id="a_Node000004"><a xlink:href="../../d6/df9/SDL__joystick_8c.html#a7d2531dc4fbc8de52a29ac3ec171a495" target="_top" xlink:title=" ">
<polygon fill="white" stroke="#666666" points="719.88,-313.56 609.38,-313.56 609.38,-293.56 719.88,-293.56 719.88,-313.56"/>
<text xml:space="preserve" text-anchor="middle" x="664.62" y="-300.06" font-family="Helvetica,sans-Serif" font-size="10.00">AttemptSensorFusion</text>
</a>
</g>
</g>
<!-- Node3&#45;&gt;Node4 -->
<g id="edge3_Node000003_Node000004" class="edge">
<title>Node3&#45;&gt;Node4</title>
<g id="a_edge3_Node000003_Node000004"><a xlink:title=" ">
<path fill="none" stroke="#63b8ff" d="M786.1,-364.38C783.82,-363.19 781.6,-361.91 779.5,-360.56 759.95,-347.95 763.62,-334.24 743.5,-322.56 736.28,-318.37 728.16,-315.1 719.97,-312.55"/>
<polygon fill="#63b8ff" stroke="#63b8ff" points="784.47,-367.48 795.02,-368.46 787.38,-361.12 784.47,-367.48"/>
</a>
</g>
</g>
<!-- Node7 -->
<g id="Node000007" class="node">
<title>Node7</title>
<g id="a_Node000007"><a xlink:href="../../d6/df9/SDL__joystick_8c.html#a94fd638a34a769ff6a7a01738257215c" target="_top" xlink:title=" ">
<polygon fill="white" stroke="#666666" points="696.25,-275.56 633,-275.56 633,-255.56 696.25,-255.56 696.25,-275.56"/>
<text xml:space="preserve" text-anchor="middle" x="664.62" y="-262.06" font-family="Helvetica,sans-Serif" font-size="10.00">IsROGAlly</text>
</a>
</g>
</g>
<!-- Node3&#45;&gt;Node7 -->
<g id="edge6_Node000003_Node000007" class="edge">
<title>Node3&#45;&gt;Node7</title>
<g id="a_edge6_Node000003_Node000007"><a xlink:title=" ">
<path fill="none" stroke="#63b8ff" d="M782.88,-363.31C781.71,-362.44 780.58,-361.52 779.5,-360.56 751.66,-335.62 772.47,-308.17 743.5,-284.56 730.34,-273.83 712.04,-269.01 696.48,-266.91"/>
<polygon fill="#63b8ff" stroke="#63b8ff" points="780.89,-366.2 791.26,-368.35 784.5,-360.2 780.89,-366.2"/>
</a>
</g>
</g>
<!-- Node9 -->
<g id="Node000009" class="node">
<title>Node9</title>
<g id="a_Node000009"><a xlink:href="../../df/d78/SDL_8c.html#ac25d0ce460db43ca8c7681eb8e7c5007" target="_top" xlink:title=" ">
<polygon fill="white" stroke="#666666" points="691.75,-465.56 637.5,-465.56 637.5,-445.56 691.75,-445.56 691.75,-465.56"/>
<text xml:space="preserve" text-anchor="middle" x="664.62" y="-452.06" font-family="Helvetica,sans-Serif" font-size="10.00">SDL_Init</text>
</a>
</g>
</g>
<!-- Node3&#45;&gt;Node9 -->
<g id="edge9_Node000003_Node000009" class="edge">
<title>Node3&#45;&gt;Node9</title>
<g id="a_edge9_Node000003_Node000009"><a xlink:title=" ">
<path fill="none" stroke="#63b8ff" d="M812.1,-396.45C794.33,-409.13 768.42,-426.04 743.5,-436.56 726.96,-443.54 707.32,-448.31 691.89,-451.32"/>
<polygon fill="#63b8ff" stroke="#63b8ff" points="813.83,-399.52 819.85,-390.8 809.71,-393.86 813.83,-399.52"/>
</a>
</g>
</g>
<!-- Node14 -->
<g id="Node000014" class="node">
<title>Node14</title>
<g id="a_Node000014"><a xlink:href="../../d9/d78/SDL__main__callbacks_8c.html#a3d21b5bf7aa441418de48c5b2856336a" target="_top" xlink:title=" ">
<polygon fill="white" stroke="#666666" points="524.25,-389.56 405.5,-389.56 405.5,-369.56 524.25,-369.56 524.25,-389.56"/>
<text xml:space="preserve" text-anchor="middle" x="464.88" y="-376.06" font-family="Helvetica,sans-Serif" font-size="10.00">SDL_InitMainCallbacks</text>
</a>
</g>
</g>
<!-- Node3&#45;&gt;Node14 -->
<g id="edge15_Node000003_Node000014" class="edge">
<title>Node3&#45;&gt;Node14</title>
<g id="a_edge15_Node000003_Node000014"><a xlink:title=" ">
<path fill="none" stroke="#63b8ff" d="M771.3,-379.56C702.11,-379.56 592.04,-379.56 524.65,-379.56"/>
<polygon fill="#63b8ff" stroke="#63b8ff" points="770.95,-383.06 780.95,-379.56 770.95,-376.06 770.95,-383.06"/>
</a>
</g>
</g>
<!-- Node16 -->
<g id="Node000016" class="node">
<title>Node16</title>
<g id="a_Node000016"><a xlink:href="../../df/d78/SDL_8c.html#a8f0bf712ad7ba759f5b6e04e683c67d4" target="_top" xlink:title=" ">
<polygon fill="white" stroke="#666666" points="743.5,-427.56 585.75,-427.56 585.75,-407.56 743.5,-407.56 743.5,-427.56"/>
<text xml:space="preserve" text-anchor="middle" x="664.62" y="-414.06" font-family="Helvetica,sans-Serif" font-size="10.00">SDL_InitOrIncrementSubsystem</text>
</a>
</g>
</g>
<!-- Node3&#45;&gt;Node16 -->
<g id="edge17_Node000003_Node000016" class="edge">
<title>Node3&#45;&gt;Node16</title>
<g id="a_edge17_Node000003_Node000016"><a xlink:title=" ">
<path fill="none" stroke="#63b8ff" d="M771.37,-387.21C743.01,-393.06 711.21,-400.76 689.96,-407.17"/>
<polygon fill="#63b8ff" stroke="#63b8ff" points="771.86,-390.68 780.97,-385.28 770.48,-383.82 771.86,-390.68"/>
</a>
</g>
</g>
<!-- Node17 -->
<g id="Node000017" class="node">
<title>Node17</title>
<g id="a_Node000017"><a xlink:href="../../dc/de1/SDL__sensor_8c.html#abdb7d6b73a301a2c8558ba80edb32331" target="_top" xlink:title=" ">
<polygon fill="white" stroke="#666666" points="709.75,-351.56 619.5,-351.56 619.5,-331.56 709.75,-331.56 709.75,-351.56"/>
<text xml:space="preserve" text-anchor="middle" x="664.62" y="-338.06" font-family="Helvetica,sans-Serif" font-size="10.00">SDL_InitSensors</text>
</a>
</g>
</g>
<!-- Node3&#45;&gt;Node17 -->
<g id="edge19_Node000003_Node000017" class="edge">
<title>Node3&#45;&gt;Node17</title>
<g id="a_edge19_Node000003_Node000017"><a xlink:title=" ">
<path fill="none" stroke="#63b8ff" d="M799.13,-365.99C773.27,-358.81 738,-350.73 710.2,-345.56"/>
<polygon fill="#63b8ff" stroke="#63b8ff" points="797.91,-369.28 808.49,-368.68 799.85,-362.55 797.91,-369.28"/>
</a>
</g>
</g>
<!-- Node18 -->
<g id="Node000018" class="node">
<title>Node18</title>
<g id="a_Node000018"><a xlink:href="../../d6/d3d/SDL__video_8c.html#ac61dc66ab71d039f9b681916d0fcbc6e" target="_top" xlink:title=" ">
<polygon fill="white" stroke="#666666" points="704.12,-237.56 625.12,-237.56 625.12,-217.56 704.12,-217.56 704.12,-237.56"/>
<text xml:space="preserve" text-anchor="middle" x="664.62" y="-224.06" font-family="Helvetica,sans-Serif" font-size="10.00">SDL_VideoInit</text>
</a>
</g>
</g>
<!-- Node3&#45;&gt;Node18 -->
<g id="edge21_Node000003_Node000018" class="edge">
<title>Node3&#45;&gt;Node18</title>
<g id="a_edge21_Node000003_Node000018"><a xlink:title=" ">
<path fill="none" stroke="#63b8ff" d="M803.11,-365.56C794.52,-362.35 785.84,-358.07 779.5,-351.56 742.44,-313.49 782.3,-273.86 743.5,-237.56 733.03,-227.76 718.38,-222.78 704.61,-220.9"/>
<polygon fill="#63b8ff" stroke="#63b8ff" points="801.74,-368.79 812.33,-368.65 803.96,-362.15 801.74,-368.79"/>
</a>
</g>
</g>
<!-- Node5 -->
<g id="Node000005" class="node">
<title>Node5</title>
<g id="a_Node000005"><a xlink:href="../../d6/df9/SDL__joystick_8c.html#a0c867d96ec6bc9c3aca87c8ee6b53ade" target="_top" xlink:title=" ">
<polygon fill="white" stroke="#666666" points="321.5,-218.56 220.75,-218.56 220.75,-198.56 321.5,-198.56 321.5,-218.56"/>
<text xml:space="preserve" text-anchor="middle" x="271.12" y="-205.06" font-family="Helvetica,sans-Serif" font-size="10.00">SDL_OpenJoystick</text>
</a>
</g>
</g>
<!-- Node4&#45;&gt;Node5 -->
<g id="edge4_Node000004_Node000005" class="edge">
<title>Node4&#45;&gt;Node5</title>
<g id="a_edge4_Node000004_Node000005"><a xlink:title=" ">
<path fill="none" stroke="#63b8ff" d="M597.72,-309.03C538.9,-311.63 451.31,-309.81 380,-284.56 339.62,-270.26 300.67,-236.3 282.61,-219.03"/>
<polygon fill="#63b8ff" stroke="#63b8ff" points="597.76,-312.53 607.58,-308.53 597.41,-305.54 597.76,-312.53"/>
</a>
</g>
</g>
<!-- Node6 -->
<g id="Node000006" class="node">
<title>Node6</title>
<g id="a_Node000006"><a xlink:href="../../d0/d82/SDL__gamepad_8c.html#a011496690758b66ec0f7098f030b6d85" target="_top" xlink:title=" ">
<polygon fill="white" stroke="#666666" points="134.12,-142.56 28.12,-142.56 28.12,-122.56 134.12,-122.56 134.12,-142.56"/>
<text xml:space="preserve" text-anchor="middle" x="81.12" y="-129.06" font-family="Helvetica,sans-Serif" font-size="10.00">SDL_OpenGamepad</text>
</a>
</g>
</g>
<!-- Node5&#45;&gt;Node6 -->
<g id="edge5_Node000005_Node000006" class="edge">
<title>Node5&#45;&gt;Node6</title>
<g id="a_edge5_Node000005_Node000006"><a xlink:title=" ">
<path fill="none" stroke="#63b8ff" d="M234.05,-193.97C197.08,-179.03 140.53,-156.17 107.86,-142.96"/>
<polygon fill="#63b8ff" stroke="#63b8ff" points="232.39,-197.08 242.98,-197.58 235.02,-190.59 232.39,-197.08"/>
</a>
</g>
</g>
<!-- Node8 -->
<g id="Node000008" class="node">
<title>Node8</title>
<g id="a_Node000008"><a xlink:href="../../d6/df9/SDL__joystick_8c.html#a497945f75b33dbfcde319992145025c5" target="_top" xlink:title=" ">
<polygon fill="white" stroke="#666666" points="535.12,-275.56 394.62,-275.56 394.62,-255.56 535.12,-255.56 535.12,-275.56"/>
<text xml:space="preserve" text-anchor="middle" x="464.88" y="-262.06" font-family="Helvetica,sans-Serif" font-size="10.00">ShouldAttemptSensorFusion</text>
</a>
</g>
</g>
<!-- Node7&#45;&gt;Node8 -->
<g id="edge7_Node000007_Node000008" class="edge">
<title>Node7&#45;&gt;Node8</title>
<g id="a_edge7_Node000007_Node000008"><a xlink:title=" ">
<path fill="none" stroke="#63b8ff" d="M621.44,-265.56C596.44,-265.56 564.14,-265.56 535.46,-265.56"/>
<polygon fill="#63b8ff" stroke="#63b8ff" points="621.21,-269.06 631.21,-265.56 621.21,-262.06 621.21,-269.06"/>
</a>
</g>
</g>
<!-- Node8&#45;&gt;Node5 -->
<g id="edge8_Node000008_Node000005" class="edge">
<title>Node8&#45;&gt;Node5</title>
<g id="a_edge8_Node000008_Node000005"><a xlink:title=" ">
<path fill="none" stroke="#63b8ff" d="M417.68,-251.83C383.78,-241.75 338.41,-228.26 307.4,-219.04"/>
<polygon fill="#63b8ff" stroke="#63b8ff" points="416.67,-255.18 427.25,-254.67 418.67,-248.47 416.67,-255.18"/>
</a>
</g>
</g>
<!-- Node10 -->
<g id="Node000010" class="node">
<title>Node10</title>
<g id="a_Node000010"><a xlink:href="../../d6/d3d/SDL__video_8c.html#a9f3d88531134e2c3e575a3c2db7f8488" target="_top" xlink:title=" ">
<polygon fill="white" stroke="#666666" points="549.75,-465.56 380,-465.56 380,-445.56 549.75,-445.56 549.75,-465.56"/>
<text xml:space="preserve" text-anchor="middle" x="464.88" y="-452.06" font-family="Helvetica,sans-Serif" font-size="10.00">SDL_CreateWindowWithProperties</text>
</a>
</g>
</g>
<!-- Node9&#45;&gt;Node10 -->
<g id="edge10_Node000009_Node000010" class="edge">
<title>Node9&#45;&gt;Node10</title>
<g id="a_edge10_Node000009_Node000010"><a xlink:title=" ">
<path fill="none" stroke="#63b8ff" d="M626.12,-455.56C604.59,-455.56 576.64,-455.56 550.13,-455.56"/>
<polygon fill="#63b8ff" stroke="#63b8ff" points="625.85,-459.06 635.85,-455.56 625.85,-452.06 625.85,-459.06"/>
</a>
</g>
</g>
<!-- Node11 -->
<g id="Node000011" class="node">
<title>Node11</title>
<g id="a_Node000011"><a xlink:href="../../d6/d3d/SDL__video_8c.html#acc26de39ce1bd675446e4d6c05ebf4b0" target="_top" xlink:title=" ">
<polygon fill="white" stroke="#666666" points="337.62,-484.56 204.62,-484.56 204.62,-464.56 337.62,-464.56 337.62,-484.56"/>
<text xml:space="preserve" text-anchor="middle" x="271.12" y="-471.06" font-family="Helvetica,sans-Serif" font-size="10.00">SDL_CreatePopupWindow</text>
</a>
</g>
</g>
<!-- Node10&#45;&gt;Node11 -->
<g id="edge11_Node000010_Node000011" class="edge">
<title>Node10&#45;&gt;Node11</title>
<g id="a_edge11_Node000010_Node000011"><a xlink:title=" ">
<path fill="none" stroke="#63b8ff" d="M368.58,-465C358.23,-466.03 347.88,-467.05 338.01,-468.03"/>
<polygon fill="#63b8ff" stroke="#63b8ff" points="368.66,-468.51 378.26,-464.04 367.97,-461.54 368.66,-468.51"/>
</a>
</g>
</g>
<!-- Node12 -->
<g id="Node000012" class="node">
<title>Node12</title>
<g id="a_Node000012"><a xlink:href="../../d6/d3d/SDL__video_8c.html#a83103c86f9e5c33ab9e1fb6dfa904b7f" target="_top" xlink:title=" ">
<polygon fill="white" stroke="#666666" points="323.75,-446.56 218.5,-446.56 218.5,-426.56 323.75,-426.56 323.75,-446.56"/>
<text xml:space="preserve" text-anchor="middle" x="271.12" y="-433.06" font-family="Helvetica,sans-Serif" font-size="10.00">SDL_CreateWindow</text>
</a>
</g>
</g>
<!-- Node10&#45;&gt;Node12 -->
<g id="edge12_Node000010_Node000012" class="edge">
<title>Node10&#45;&gt;Node12</title>
<g id="a_edge12_Node000010_Node000012"><a xlink:title=" ">
<path fill="none" stroke="#63b8ff" d="M368.64,-446.12C353.31,-444.6 337.96,-443.08 324.16,-441.71"/>
<polygon fill="#63b8ff" stroke="#63b8ff" points="367.97,-449.57 378.26,-447.07 368.66,-442.61 367.97,-449.57"/>
</a>
</g>
</g>
<!-- Node13 -->
<g id="Node000013" class="node">
<title>Node13</title>
<g id="a_Node000013"><a xlink:href="../../dd/df3/SDL__render_8c.html#a36f859fae15e4277ba052f9ecfb2816d" target="_top" xlink:title=" ">
<polygon fill="white" stroke="#666666" points="162.25,-446.56 0,-446.56 0,-426.56 162.25,-426.56 162.25,-446.56"/>
<text xml:space="preserve" text-anchor="middle" x="81.12" y="-433.06" font-family="Helvetica,sans-Serif" font-size="10.00">SDL_CreateWindowAndRenderer</text>
</a>
</g>
</g>
<!-- Node12&#45;&gt;Node13 -->
<g id="edge13_Node000012_Node000013" class="edge">
<title>Node12&#45;&gt;Node13</title>
<g id="a_edge13_Node000012_Node000013"><a xlink:title=" ">
<path fill="none" stroke="#63b8ff" d="M207.1,-436.56C192.87,-436.56 177.58,-436.56 162.74,-436.56"/>
<polygon fill="#63b8ff" stroke="#63b8ff" points="206.74,-440.06 216.74,-436.56 206.74,-433.06 206.74,-440.06"/>
</a>
</g>
</g>
<!-- Node15 -->
<g id="Node000015" class="node">
<title>Node15</title>
<g id="a_Node000015"><a xlink:href="../../dd/db5/generic_2SDL__sysmain__callbacks_8c.html#aa50e1897a91f2547b5f31125020220e2" target="_top" xlink:title=" ">
<polygon fill="white" stroke="#666666" points="344,-351.56 198.25,-351.56 198.25,-331.56 344,-331.56 344,-351.56"/>
<text xml:space="preserve" text-anchor="middle" x="271.12" y="-338.06" font-family="Helvetica,sans-Serif" font-size="10.00">SDL_EnterAppMainCallbacks</text>
</a>
</g>
</g>
<!-- Node14&#45;&gt;Node15 -->
<g id="edge16_Node000014_Node000015" class="edge">
<title>Node14&#45;&gt;Node15</title>
<g id="a_edge16_Node000014_Node000015"><a xlink:title=" ">
<path fill="none" stroke="#63b8ff" d="M399.68,-366.84C375.37,-362.02 347.99,-356.59 324.86,-352.01"/>
<polygon fill="#63b8ff" stroke="#63b8ff" points="399,-370.27 409.49,-368.78 400.36,-363.4 399,-370.27"/>
</a>
</g>
</g>
<!-- Node16&#45;&gt;Node3 -->
<g id="edge18_Node000016_Node000003" class="edge">
<title>Node16&#45;&gt;Node3</title>
<g id="a_edge18_Node000016_Node000003"><a xlink:title=" ">
<path fill="none" stroke="#63b8ff" d="M752.8,-404.69C773.81,-399.91 794.6,-394.63 809.94,-390.01"/>
<polygon fill="#63b8ff" stroke="#63b8ff" points="752.3,-401.21 743.3,-406.8 753.82,-408.05 752.3,-401.21"/>
</a>
</g>
</g>
<!-- Node17&#45;&gt;Node3 -->
<g id="edge20_Node000017_Node000003" class="edge">
<title>Node17&#45;&gt;Node3</title>
<g id="a_edge20_Node000017_Node000003"><a xlink:title=" ">
<path fill="none" stroke="#63b8ff" d="M700.86,-355.09C724.47,-361.65 755.97,-368.97 782.45,-374.13"/>
<polygon fill="#63b8ff" stroke="#63b8ff" points="701.99,-351.78 691.41,-352.36 700.05,-358.5 701.99,-351.78"/>
</a>
</g>
</g>
<!-- Node18&#45;&gt;Node3 -->
<g id="edge22_Node000018_Node000003" class="edge">
<title>Node18&#45;&gt;Node3</title>
<g id="a_edge22_Node000018_Node000003"><a xlink:title=" ">
<path fill="none" stroke="#63b8ff" d="M715.67,-240.62C725.87,-243.77 735.81,-248.37 743.5,-255.56 782.3,-291.86 742.44,-331.49 779.5,-369.56 780.49,-370.57 781.53,-371.53 782.62,-372.44"/>
<polygon fill="#63b8ff" stroke="#63b8ff" points="716.63,-237.25 706.07,-238.11 714.86,-244.03 716.63,-237.25"/>
</a>
</g>
</g>
<!-- Node19&#45;&gt;Node2 -->
<g id="edge24_Node000019_Node000002" class="edge">
<title>Node19&#45;&gt;Node2</title>
<g id="a_edge24_Node000019_Node000002"><a xlink:title=" ">
<path fill="none" stroke="#63b8ff" d="M1097.69,-263.17C1089.86,-268.4 1081.19,-274.21 1073.25,-279.56 1046.97,-297.26 1016.48,-318 998.62,-330.16"/>
<polygon fill="#63b8ff" stroke="#63b8ff" points="1099.41,-266.24 1105.78,-257.77 1095.52,-260.41 1099.41,-266.24"/>
</a>
</g>
</g>
<!-- Node20 -->
<g id="Node000020" class="node">
<title>Node20</title>
<g id="a_Node000020"><a xlink:href="../../df/d78/SDL_8c.html#a60aa8a910b5236e9eded873051707374" target="_top" xlink:title=" ">
<polygon fill="white" stroke="#666666" points="1037.25,-256.56 927.5,-256.56 927.5,-236.56 1037.25,-236.56 1037.25,-256.56"/>
<text xml:space="preserve" text-anchor="middle" x="982.38" y="-243.06" font-family="Helvetica,sans-Serif" font-size="10.00">SDL_QuitSubSystem</text>
</a>
</g>
</g>
<!-- Node19&#45;&gt;Node20 -->
<g id="edge25_Node000019_Node000020" class="edge">
<title>Node19&#45;&gt;Node20</title>
<g id="a_edge25_Node000019_Node000020"><a xlink:title=" ">
<path fill="none" stroke="#63b8ff" d="M1061.82,-239.86C1053.7,-239.77 1045.42,-239.8 1037.43,-239.96"/>
<polygon fill="#63b8ff" stroke="#63b8ff" points="1061.56,-243.35 1071.63,-240.04 1061.69,-236.35 1061.56,-243.35"/>
</a>
</g>
</g>
<!-- Node20&#45;&gt;Node3 -->
<g id="edge36_Node000020_Node000003" class="edge">
<title>Node20&#45;&gt;Node3</title>
<g id="a_edge36_Node000020_Node000003"><a xlink:title=" ">
<path fill="none" stroke="#63b8ff" d="M968.03,-266.07C947.93,-294.98 910.24,-347.24 891.5,-360.56 886.72,-363.95 881.29,-366.78 875.74,-369.13"/>
<polygon fill="#63b8ff" stroke="#63b8ff" points="970.69,-268.38 973.49,-258.16 964.93,-264.4 970.69,-268.38"/>
</a>
</g>
</g>
<!-- Node20&#45;&gt;Node4 -->
<g id="edge26_Node000020_Node000004" class="edge">
<title>Node20&#45;&gt;Node4</title>
<g id="a_edge26_Node000020_Node000004"><a xlink:title=" ">
<path fill="none" stroke="#63b8ff" d="M933.04,-259.88C919.65,-263.31 905.07,-266.81 891.5,-269.56 833.4,-281.33 766.12,-290.95 720.21,-296.92"/>
<polygon fill="#63b8ff" stroke="#63b8ff" points="933.71,-263.33 942.5,-257.42 931.94,-256.55 933.71,-263.33"/>
</a>
</g>
</g>
<!-- Node20&#45;&gt;Node7 -->
<g id="edge35_Node000020_Node000007" class="edge">
<title>Node20&#45;&gt;Node7</title>
<g id="a_edge35_Node000020_Node000007"><a xlink:title=" ">
<path fill="none" stroke="#63b8ff" d="M915.81,-250.5C848.72,-254.54 747.35,-260.64 696.71,-263.69"/>
<polygon fill="#63b8ff" stroke="#63b8ff" points="915.81,-254.01 925.58,-249.91 915.39,-247.02 915.81,-254.01"/>
</a>
</g>
</g>
<!-- Node20&#45;&gt;Node18 -->
<g id="edge50_Node000020_Node000018" class="edge">
<title>Node20&#45;&gt;Node18</title>
<g id="a_edge50_Node000020_Node000018"><a xlink:title=" ">
<path fill="none" stroke="#63b8ff" d="M915.94,-242.62C852.05,-238.78 756.98,-233.05 704.29,-229.88"/>
<polygon fill="#63b8ff" stroke="#63b8ff" points="915.39,-246.09 925.58,-243.2 915.81,-239.11 915.39,-246.09"/>
</a>
</g>
</g>
<!-- Node20&#45;&gt;Node19 -->
<g id="edge45_Node000020_Node000019" class="edge">
<title>Node20&#45;&gt;Node19</title>
<g id="a_edge45_Node000020_Node000019"><a xlink:title=" ">
<path fill="none" stroke="#63b8ff" d="M1048.87,-253.3C1057.04,-253.34 1065.27,-253.26 1073.14,-253.05"/>
<polygon fill="#63b8ff" stroke="#63b8ff" points="1048.99,-249.8 1038.94,-253.17 1048.9,-256.8 1048.99,-249.8"/>
</a>
</g>
</g>
<!-- Node20&#45;&gt;Node20 -->
<g id="edge49_Node000020_Node000020" class="edge">
<title>Node20&#45;&gt;Node20</title>
<g id="a_edge49_Node000020_Node000020"><a xlink:title=" ">
<path fill="none" stroke="#63b8ff" d="M1007.34,-268C1004.12,-271.86 995.8,-274.56 982.38,-274.56 957.82,-274.56 950.34,-265.53 959.93,-256.9"/>
<polygon fill="#63b8ff" stroke="#63b8ff" points="1010.78,-267.35 1005.15,-258.37 1003.96,-268.9 1010.78,-267.35"/>
</a>
</g>
</g>
<!-- Node21 -->
<g id="Node000021" class="node">
<title>Node21</title>
<g id="a_Node000021"><a xlink:href="../../d6/df9/SDL__joystick_8c.html#ac0722362ebd0ebecebff12499774b471" target="_top" xlink:title=" ">
<polygon fill="white" stroke="#666666" points="891.5,-104.56 779.5,-104.56 779.5,-84.56 891.5,-84.56 891.5,-104.56"/>
<text xml:space="preserve" text-anchor="middle" x="835.5" y="-91.06" font-family="Helvetica,sans-Serif" font-size="10.00">CleanupSensorFusion</text>
</a>
</g>
</g>
<!-- Node20&#45;&gt;Node21 -->
<g id="edge27_Node000020_Node000021" class="edge">
<title>Node20&#45;&gt;Node21</title>
<g id="a_edge27_Node000020_Node000021"><a xlink:title=" ">
<path fill="none" stroke="#63b8ff" d="M968.55,-226.84C952.37,-202.88 922.87,-162.01 891.5,-132.56 880.16,-121.91 865.62,-112 854.34,-104.97"/>
<polygon fill="#63b8ff" stroke="#63b8ff" points="965.53,-228.62 973.98,-235.02 971.36,-224.75 965.53,-228.62"/>
</a>
</g>
</g>
<!-- Node25 -->
<g id="Node000025" class="node">
<title>Node25</title>
<g id="a_Node000025"><a xlink:href="../../df/d78/SDL_8c.html#abf064fcc4a657a30db8eace18633f362" target="_top" xlink:title=" ">
<polygon fill="white" stroke="#666666" points="864.88,-161.56 806.12,-161.56 806.12,-141.56 864.88,-141.56 864.88,-161.56"/>
<text xml:space="preserve" text-anchor="middle" x="835.5" y="-148.06" font-family="Helvetica,sans-Serif" font-size="10.00">SDL_Quit</text>
</a>
</g>
</g>
<!-- Node20&#45;&gt;Node25 -->
<g id="edge37_Node000020_Node000025" class="edge">
<title>Node20&#45;&gt;Node25</title>
<g id="a_edge37_Node000020_Node000025"><a xlink:title=" ">
<path fill="none" stroke="#63b8ff" d="M963.86,-228.27C946.76,-211.31 919.33,-186.39 891.5,-170.56 883.42,-165.96 874.05,-162.22 865.35,-159.3"/>
<polygon fill="#63b8ff" stroke="#63b8ff" points="961.22,-230.58 970.74,-235.24 966.2,-225.66 961.22,-230.58"/>
</a>
</g>
</g>
<!-- Node31 -->
<g id="Node000031" class="node">
<title>Node31</title>
<g id="a_Node000031"><a xlink:href="../../dc/de1/SDL__sensor_8c.html#af97faaba22b06bf9fc16804bfc2ae7df" target="_top" xlink:title=" ">
<polygon fill="white" stroke="#666666" points="882.88,-351.56 788.12,-351.56 788.12,-331.56 882.88,-331.56 882.88,-351.56"/>
<text xml:space="preserve" text-anchor="middle" x="835.5" y="-338.06" font-family="Helvetica,sans-Serif" font-size="10.00">SDL_QuitSensors</text>
</a>
</g>
</g>
<!-- Node20&#45;&gt;Node31 -->
<g id="edge46_Node000020_Node000031" class="edge">
<title>Node20&#45;&gt;Node31</title>
<g id="a_edge46_Node000020_Node000031"><a xlink:title=" ">
<path fill="none" stroke="#63b8ff" d="M953.58,-263.76C936.48,-277.18 913.66,-295.27 891.5,-308.56 876.85,-317.34 858.4,-324.72 847.03,-331.26"/>
<polygon fill="#63b8ff" stroke="#63b8ff" points="955.52,-266.69 961.26,-257.78 951.22,-261.17 955.52,-266.69"/>
</a>
</g>
</g>
<!-- Node32 -->
<g id="Node000032" class="node">
<title>Node32</title>
<g id="a_Node000032"><a xlink:href="../../d6/d3d/SDL__video_8c.html#ae86d31ef3c6aad24cd4d0da9a9551906" target="_top" xlink:title=" ">
<polygon fill="white" stroke="#666666" points="877.25,-199.56 793.75,-199.56 793.75,-179.56 877.25,-179.56 877.25,-199.56"/>
<text xml:space="preserve" text-anchor="middle" x="835.5" y="-186.06" font-family="Helvetica,sans-Serif" font-size="10.00">SDL_VideoQuit</text>
</a>
</g>
</g>
<!-- Node20&#45;&gt;Node32 -->
<g id="edge51_Node000020_Node000032" class="edge">
<title>Node20&#45;&gt;Node32</title>
<g id="a_edge51_Node000020_Node000032"><a xlink:title=" ">
<path fill="none" stroke="#63b8ff" d="M955.53,-231.08C933.92,-221 902.71,-208.44 877.66,-199.6"/>
<polygon fill="#63b8ff" stroke="#63b8ff" points="953.98,-234.22 964.51,-235.43 957.04,-227.92 953.98,-234.22"/>
</a>
</g>
</g>
<!-- Node22 -->
<g id="Node000022" class="node">
<title>Node22</title>
<g id="a_Node000022"><a xlink:href="../../d6/df9/SDL__joystick_8c.html#aadf2e0eabb7fee1784bced6566d2f2ee" target="_top" xlink:title=" ">
<polygon fill="white" stroke="#666666" points="716.12,-85.56 613.12,-85.56 613.12,-65.56 716.12,-65.56 716.12,-85.56"/>
<text xml:space="preserve" text-anchor="middle" x="664.62" y="-72.06" font-family="Helvetica,sans-Serif" font-size="10.00">SDL_CloseJoystick</text>
</a>
</g>
</g>
<!-- Node21&#45;&gt;Node22 -->
<g id="edge28_Node000021_Node000022" class="edge">
<title>Node21&#45;&gt;Node22</title>
<g id="a_edge28_Node000021_Node000022"><a xlink:title=" ">
<path fill="none" stroke="#63b8ff" d="M768.1,-87.09C750.93,-85.16 732.71,-83.11 716.47,-81.28"/>
<polygon fill="#63b8ff" stroke="#63b8ff" points="767.37,-90.53 777.7,-88.17 768.15,-83.57 767.37,-90.53"/>
</a>
</g>
</g>
<!-- Node22&#45;&gt;Node5 -->
<g id="edge33_Node000022_Node000005" class="edge">
<title>Node22&#45;&gt;Node5</title>
<g id="a_edge33_Node000022_Node000005"><a xlink:title=" ">
<path fill="none" stroke="#63b8ff" d="M601.93,-87.5C596.32,-89.51 590.84,-91.84 585.75,-94.56 566.61,-104.78 568.85,-117.25 549.75,-127.56 481.27,-164.53 454.5,-148.05 380,-170.56 352.25,-178.94 321.06,-190.12 299.39,-198.18"/>
<polygon fill="#63b8ff" stroke="#63b8ff" points="602.91,-90.86 611.38,-84.49 600.79,-84.19 602.91,-90.86"/>
</a>
</g>
</g>
<!-- Node22&#45;&gt;Node6 -->
<g id="edge32_Node000022_Node000006" class="edge">
<title>Node22&#45;&gt;Node6</title>
<g id="a_edge32_Node000022_Node000006"><a xlink:title=" ">
<path fill="none" stroke="#63b8ff" d="M601.41,-86.91C584.68,-89.7 566.56,-92.48 549.75,-94.56 399.6,-113.15 221.15,-124.77 134.52,-129.74"/>
<polygon fill="#63b8ff" stroke="#63b8ff" points="601.97,-90.37 611.25,-85.24 600.8,-83.46 601.97,-90.37"/>
</a>
</g>
</g>
<!-- Node22&#45;&gt;Node19 -->
<g id="edge34_Node000022_Node000019" class="edge">
<title>Node22&#45;&gt;Node19</title>
<g id="a_edge34_Node000022_Node000019"><a xlink:title=" ">
<path fill="none" stroke="#63b8ff" d="M727.78,-65.28C774.1,-60.05 838.28,-58.01 891.5,-75.56 992,-108.69 1084.55,-204.22 1113.4,-236.08"/>
<polygon fill="#63b8ff" stroke="#63b8ff" points="727.41,-61.8 717.9,-66.49 728.26,-68.75 727.41,-61.8"/>
</a>
</g>
</g>
<!-- Node23 -->
<g id="Node000023" class="node">
<title>Node23</title>
<g id="a_Node000023"><a xlink:href="../../d0/d82/SDL__gamepad_8c.html#aba8e3cc0575aa23129847fd8418fc191" target="_top" xlink:title=" ">
<polygon fill="white" stroke="#666666" points="519,-85.56 410.75,-85.56 410.75,-65.56 519,-65.56 519,-85.56"/>
<text xml:space="preserve" text-anchor="middle" x="464.88" y="-72.06" font-family="Helvetica,sans-Serif" font-size="10.00">SDL_CloseGamepad</text>
</a>
</g>
</g>
<!-- Node22&#45;&gt;Node23 -->
<g id="edge29_Node000022_Node000023" class="edge">
<title>Node22&#45;&gt;Node23</title>
<g id="a_edge29_Node000022_Node000023"><a xlink:title=" ">
<path fill="none" stroke="#63b8ff" d="M601.31,-75.56C575,-75.56 544.67,-75.56 519.39,-75.56"/>
<polygon fill="#63b8ff" stroke="#63b8ff" points="601.19,-79.06 611.19,-75.56 601.19,-72.06 601.19,-79.06"/>
</a>
</g>
</g>
<!-- Node24 -->
<g id="Node000024" class="node">
<title>Node24</title>
<g id="a_Node000024"><a xlink:href="../../d0/d82/SDL__gamepad_8c.html#ad49c2e97ac6f1deaafd9aec54dff1659" target="_top" xlink:title=" ">
<polygon fill="white" stroke="#666666" points="324.12,-66.56 218.12,-66.56 218.12,-46.56 324.12,-46.56 324.12,-66.56"/>
<text xml:space="preserve" text-anchor="middle" x="271.12" y="-53.06" font-family="Helvetica,sans-Serif" font-size="10.00">SDL_QuitGamepads</text>
</a>
</g>
</g>
<!-- Node23&#45;&gt;Node24 -->
<g id="edge30_Node000023_Node000024" class="edge">
<title>Node23&#45;&gt;Node24</title>
<g id="a_edge30_Node000023_Node000024"><a xlink:title=" ">
<path fill="none" stroke="#63b8ff" d="M399.18,-69.15C374.9,-66.74 347.62,-64.04 324.59,-61.76"/>
<polygon fill="#63b8ff" stroke="#63b8ff" points="398.66,-72.61 408.96,-70.12 399.35,-65.65 398.66,-72.61"/>
</a>
</g>
</g>
<!-- Node24&#45;&gt;Node20 -->
<g id="edge31_Node000024_Node000020" class="edge">
<title>Node24&#45;&gt;Node20</title>
<g id="a_edge31_Node000024_Node000020"><a xlink:title=" ">
<path fill="none" stroke="#63b8ff" d="M316.44,-42.99C425.57,-12.49 711.46,49.55 891.5,-75.56 949.61,-115.94 972.99,-205.92 979.41,-236.31"/>
<polygon fill="#63b8ff" stroke="#63b8ff" points="315.64,-39.58 306.99,-45.69 317.56,-46.31 315.64,-39.58"/>
</a>
</g>
</g>
<!-- Node26 -->
<g id="Node000026" class="node">
<title>Node26</title>
<g id="a_Node000026"><a xlink:href="../../de/daf/classCSDLmain.html#a73bd9c42ac6916974009e508257e44ff" target="_top" xlink:title=" ">
<polygon fill="white" stroke="#666666" points="711.25,-161.56 618,-161.56 618,-141.56 711.25,-141.56 711.25,-161.56"/>
<text xml:space="preserve" text-anchor="middle" x="664.62" y="-148.06" font-family="Helvetica,sans-Serif" font-size="10.00">CSDLmain::RunL</text>
</a>
</g>
</g>
<!-- Node25&#45;&gt;Node26 -->
<g id="edge38_Node000025_Node000026" class="edge">
<title>Node25&#45;&gt;Node26</title>
<g id="a_edge38_Node000025_Node000026"><a xlink:title=" ">
<path fill="none" stroke="#63b8ff" d="M794.63,-151.56C769.74,-151.56 737.61,-151.56 711.64,-151.56"/>
<polygon fill="#63b8ff" stroke="#63b8ff" points="794.34,-155.06 804.34,-151.56 794.34,-148.06 794.34,-155.06"/>
</a>
</g>
</g>
<!-- Node27 -->
<g id="Node000027" class="node">
<title>Node27</title>
<g id="a_Node000027"><a xlink:href="../../d3/d6c/SDL__assert_8c.html#af146e7f66c4e41a24337c5b6943af0b0" target="_top" xlink:title=" ">
<polygon fill="white" stroke="#666666" points="717.25,-123.56 612,-123.56 612,-103.56 717.25,-103.56 717.25,-123.56"/>
<text xml:space="preserve" text-anchor="middle" x="664.62" y="-110.06" font-family="Helvetica,sans-Serif" font-size="10.00">SDL_AbortAssertion</text>
</a>
</g>
</g>
<!-- Node25&#45;&gt;Node27 -->
<g id="edge39_Node000025_Node000027" class="edge">
<title>Node25&#45;&gt;Node27</title>
<g id="a_edge39_Node000025_Node000027"><a xlink:title=" ">
<path fill="none" stroke="#63b8ff" d="M794.67,-142.6C769.88,-137.02 737.9,-129.82 711.97,-123.99"/>
<polygon fill="#63b8ff" stroke="#63b8ff" points="793.85,-146 804.38,-144.78 795.39,-139.17 793.85,-146"/>
</a>
</g>
</g>
<!-- Node29 -->
<g id="Node000029" class="node">
<title>Node29</title>
<g id="a_Node000029"><a xlink:href="../../d9/d78/SDL__main__callbacks_8c.html#a2e8bd250bb597fdf72c9da9d001181e7" target="_top" xlink:title=" ">
<polygon fill="white" stroke="#666666" points="726.25,-199.56 603,-199.56 603,-179.56 726.25,-179.56 726.25,-199.56"/>
<text xml:space="preserve" text-anchor="middle" x="664.62" y="-186.06" font-family="Helvetica,sans-Serif" font-size="10.00">SDL_QuitMainCallbacks</text>
</a>
</g>
</g>
<!-- Node25&#45;&gt;Node29 -->
<g id="edge41_Node000025_Node000029" class="edge">
<title>Node25&#45;&gt;Node29</title>
<g id="a_edge41_Node000025_Node000029"><a xlink:title=" ">
<path fill="none" stroke="#63b8ff" d="M794.67,-160.52C769.88,-166.1 737.9,-173.3 711.97,-179.13"/>
<polygon fill="#63b8ff" stroke="#63b8ff" points="795.39,-163.95 804.38,-158.34 793.85,-157.12 795.39,-163.95"/>
</a>
</g>
</g>
<!-- Node28 -->
<g id="Node000028" class="node">
<title>Node28</title>
<g id="a_Node000028"><a xlink:href="../../d3/d6c/SDL__assert_8c.html#a0c9a208493d6e9212cff2ab400242102" target="_top" xlink:title=" ">
<polygon fill="white" stroke="#666666" points="520.5,-199.56 409.25,-199.56 409.25,-179.56 520.5,-179.56 520.5,-199.56"/>
<text xml:space="preserve" text-anchor="middle" x="464.88" y="-186.06" font-family="Helvetica,sans-Serif" font-size="10.00">SDL_ReportAssertion</text>
</a>
</g>
</g>
<!-- Node27&#45;&gt;Node28 -->
<g id="edge40_Node000027_Node000028" class="edge">
<title>Node27&#45;&gt;Node28</title>
<g id="a_edge40_Node000027_Node000028"><a xlink:title=" ">
<path fill="none" stroke="#63b8ff" d="M600.78,-125.92C595.57,-127.83 590.49,-130.03 585.75,-132.56 566.61,-142.78 568.69,-154.96 549.75,-165.56 539.57,-171.25 527.93,-175.7 516.62,-179.12"/>
<polygon fill="#63b8ff" stroke="#63b8ff" points="601.73,-129.29 610.15,-122.86 599.55,-122.63 601.73,-129.29"/>
</a>
</g>
</g>
<!-- Node29&#45;&gt;Node15 -->
<g id="edge44_Node000029_Node000015" class="edge">
<title>Node29&#45;&gt;Node15</title>
<g id="a_edge44_Node000029_Node000015"><a xlink:title=" ">
<path fill="none" stroke="#63b8ff" d="M591.81,-201.99C514.14,-215.76 398.82,-237.23 380,-246.56 336.62,-268.06 297.04,-311.53 280.41,-331.32"/>
<polygon fill="#63b8ff" stroke="#63b8ff" points="592.25,-205.47 601.49,-200.28 591.04,-198.57 592.25,-205.47"/>
</a>
</g>
</g>
<!-- Node30 -->
<g id="Node000030" class="node">
<title>Node30</title>
<g id="a_Node000030"><a xlink:href="../../d0/d72/emscripten_2SDL__sysmain__callbacks_8c.html#ad2e127e4f44ae815197361e79da5bf88" target="_top" xlink:title=" ">
<polygon fill="white" stroke="#666666" points="533.25,-351.56 396.5,-351.56 396.5,-331.56 533.25,-331.56 533.25,-351.56"/>
<text xml:space="preserve" text-anchor="middle" x="464.88" y="-338.06" font-family="Helvetica,sans-Serif" font-size="10.00">EmscriptenInternalMainloop</text>
</a>
</g>
</g>
<!-- Node29&#45;&gt;Node30 -->
<g id="edge42_Node000029_Node000030" class="edge">
<title>Node29&#45;&gt;Node30</title>
<g id="a_edge42_Node000029_Node000030"><a xlink:title=" ">
<path fill="none" stroke="#63b8ff" d="M592.54,-203.78C590.16,-205.23 587.89,-206.81 585.75,-208.56 556.78,-232.17 574.06,-256.17 549.75,-284.56 532.23,-305.02 505.69,-321.38 487.17,-331.24"/>
<polygon fill="#63b8ff" stroke="#63b8ff" points="594.09,-206.92 601.45,-199.29 590.94,-200.67 594.09,-206.92"/>
</a>
</g>
</g>
<!-- Node30&#45;&gt;Node15 -->
<g id="edge43_Node000030_Node000015" class="edge">
<title>Node30&#45;&gt;Node15</title>
<g id="a_edge43_Node000030_Node000015"><a xlink:title=" ">
<path fill="none" stroke="#63b8ff" d="M384.89,-341.56C371.5,-341.56 357.66,-341.56 344.46,-341.56"/>
<polygon fill="#63b8ff" stroke="#63b8ff" points="384.49,-345.06 394.49,-341.56 384.49,-338.06 384.49,-345.06"/>
</a>
</g>
</g>
<!-- Node31&#45;&gt;Node17 -->
<g id="edge47_Node000031_Node000017" class="edge">
<title>Node31&#45;&gt;Node17</title>
<g id="a_edge47_Node000031_Node000017"><a xlink:title=" ">
<path fill="none" stroke="#63b8ff" d="M776.47,-341.56C754.71,-341.56 730.36,-341.56 710.03,-341.56"/>
<polygon fill="#63b8ff" stroke="#63b8ff" points="776.39,-345.06 786.39,-341.56 776.39,-338.06 776.39,-345.06"/>
</a>
</g>
</g>
<!-- Node31&#45;&gt;Node20 -->
<g id="edge48_Node000031_Node000020" class="edge">
<title>Node31&#45;&gt;Node20</title>
<g id="a_edge48_Node000031_Node000020"><a xlink:title=" ">
<path fill="none" stroke="#63b8ff" d="M892.97,-325.22C931.05,-301.22 962.37,-272.93 975.25,-257.04"/>
<polygon fill="#63b8ff" stroke="#63b8ff" points="891.15,-322.23 884.44,-330.42 894.79,-328.2 891.15,-322.23"/>
</a>
</g>
</g>
<!-- Node32&#45;&gt;Node18 -->
<g id="edge53_Node000032_Node000018" class="edge">
<title>Node32&#45;&gt;Node18</title>
<g id="a_edge53_Node000032_Node000018"><a xlink:title=" ">
<path fill="none" stroke="#63b8ff" d="M782.41,-201.28C757.23,-206.94 727.54,-213.63 704.39,-218.84"/>
<polygon fill="#63b8ff" stroke="#63b8ff" points="783.16,-204.7 792.14,-199.09 781.62,-197.87 783.16,-204.7"/>
</a>
</g>
</g>
<!-- Node32&#45;&gt;Node20 -->
<g id="edge52_Node000032_Node000020" class="edge">
<title>Node32&#45;&gt;Node20</title>
<g id="a_edge52_Node000032_Node000020"><a xlink:title=" ">
<path fill="none" stroke="#63b8ff" d="M862.23,-204.98C883.52,-214.92 914.19,-227.29 939.08,-236.12"/>
<polygon fill="#63b8ff" stroke="#63b8ff" points="863.92,-201.91 853.39,-200.7 860.87,-208.21 863.92,-201.91"/>
</a>
</g>
</g>
</g>
</svg>
