<?xml version="1.0" encoding="UTF-8" standalone="no"?>
<!DOCTYPE svg PUBLIC "-//W3C//DTD SVG 1.1//EN"
 "http://www.w3.org/Graphics/SVG/1.1/DTD/svg11.dtd">
<!-- Generated by graphviz version 13.1.0 (20250701.0955)
 -->
<!-- Title: SDL_FreeVIDPIDList Pages: 1 -->
<!--zoomable 550 -->

<svg id="main" version="1.1" xmlns="http://www.w3.org/2000/svg" xmlns:xlink="http://www.w3.org/1999/xlink" xml:space="preserve" onload="init(evt)">

<style type="text/css"><![CDATA[
.node, .edge {opacity: 0.7;}
.node.selected, .edge.selected {opacity: 1;}
.edge:hover path { stroke: red; }
.edge:hover polygon { stroke: red; fill: red; }
]]></style>

<defs>
  <circle id="rim" cx="0" cy="0" r="7"/>
  <circle id="rim2" cx="0" cy="0" r="3.5"/>
  <g id="zoomPlus">
    <use xlink:href="#rim" fill="#404040"><set attributeName="fill" to="#808080" begin="zoomplus.mouseover" end="zoomplus.mouseout"/></use>
    <path d="M-4,0h8M0,-4v8" fill="none" stroke="white" stroke-width="1.5" pointer-events="none"/>
  </g>
  <g id="zoomMin">
    <use xlink:href="#rim" fill="#404040"><set attributeName="fill" to="#808080" begin="zoomminus.mouseover" end="zoomminus.mouseout"/></use>
    <path d="M-4,0h8" fill="none" stroke="white" stroke-width="1.5" pointer-events="none"/>
  </g>
  <g id="arrowUp" transform="translate(30 24)">
    <use xlink:href="#rim"/>
    <path pointer-events="none" fill="none" stroke="white" stroke-width="1.5" d="M0,-3.0v7 M-2.5,-0.5L0,-3.0L2.5,-0.5"/>
  </g>
  <g id="arrowRight" transform="rotate(90) translate(36 -43)">
    <use xlink:href="#rim"/>
    <path pointer-events="none" fill="none" stroke="white" stroke-width="1.5" d="M0,-3.0v7 M-2.5,-0.5L0,-3.0L2.5,-0.5"/>
  </g>
  <g id="arrowDown" transform="rotate(180) translate(-30 -48)">
    <use xlink:href="#rim"/>
    <path pointer-events="none" fill="none" stroke="white" stroke-width="1.5" d="M0,-3.0v7 M-2.5,-0.5L0,-3.0L2.5,-0.5"/>
  </g>
  <g id="arrowLeft" transform="rotate(270) translate(-36 17)">
    <use xlink:href="#rim"/>
    <path pointer-events="none" fill="none" stroke="white" stroke-width="1.5" d="M0,-3.0v7 M-2.5,-0.5L0,-3.0L2.5,-0.5"/>
  </g>
  <g id="resetDef">
    <use xlink:href="#rim2" fill="#404040"><set attributeName="fill" to="#808080" begin="reset.mouseover" end="reset.mouseout"/></use>
  </g>
</defs>
<script type="application/ecmascript">
var viewWidth = 1562;
var viewHeight = 550;
var sectionId = 'dynsection-20';
</script>
<script type="application/ecmascript" xlink:href="../../svg.min.js"/>
<svg id="graph" class="graph">
<g id="viewport">
<title>SDL_FreeVIDPIDList</title>
<!-- Node1 -->
<g id="Node000001" class="node">
<title>Node1</title>
<g id="a_Node000001"><a xlink:title=" ">
<polygon fill="#999999" stroke="#666666" points="1554,-181 1443.5,-181 1443.5,-161 1554,-161 1554,-181"/>
<text xml:space="preserve" text-anchor="middle" x="1498.75" y="-167.5" font-family="Helvetica,sans-Serif" font-size="10.00">SDL_FreeVIDPIDList</text>
</a>
</g>
</g>
<!-- Node2 -->
<g id="Node000002" class="node">
<title>Node2</title>
<g id="a_Node000002"><a xlink:href="../../d0/d82/SDL__gamepad_8c.html#a4ff6f54a3ede529f0aec10fc90823dd3" target="_top" xlink:title=" ">
<polygon fill="white" stroke="#666666" points="1407.5,-181 1264.75,-181 1264.75,-161 1407.5,-161 1407.5,-181"/>
<text xml:space="preserve" text-anchor="middle" x="1336.12" y="-167.5" font-family="Helvetica,sans-Serif" font-size="10.00">SDL_QuitGamepadMappings</text>
</a>
</g>
</g>
<!-- Node1&#45;&gt;Node2 -->
<g id="edge1_Node000001_Node000002" class="edge">
<title>Node1&#45;&gt;Node2</title>
<g id="a_edge1_Node000001_Node000002"><a xlink:title=" ">
<path fill="none" stroke="#63b8ff" d="M1431.96,-171C1424.05,-171 1415.94,-171 1407.96,-171"/>
<polygon fill="#63b8ff" stroke="#63b8ff" points="1431.86,-174.5 1441.86,-171 1431.86,-167.5 1431.86,-174.5"/>
</a>
</g>
</g>
<!-- Node3 -->
<g id="Node000003" class="node">
<title>Node3</title>
<g id="a_Node000003"><a xlink:href="../../d6/df9/SDL__joystick_8c.html#aa98a95583054633f27bb3bcdff5f97aa" target="_top" xlink:title=" ">
<polygon fill="white" stroke="#666666" points="1201.38,-219 1100.62,-219 1100.62,-199 1201.38,-199 1201.38,-219"/>
<text xml:space="preserve" text-anchor="middle" x="1151" y="-205.5" font-family="Helvetica,sans-Serif" font-size="10.00">SDL_QuitJoysticks</text>
</a>
</g>
</g>
<!-- Node1&#45;&gt;Node3 -->
<g id="edge55_Node000001_Node000003" class="edge">
<title>Node1&#45;&gt;Node3</title>
<g id="a_edge55_Node000001_Node000003"><a xlink:title=" ">
<path fill="none" stroke="#63b8ff" d="M1442.95,-183.75C1431.3,-186.12 1419.03,-188.36 1407.5,-190 1336.38,-200.09 1253.31,-205.01 1201.67,-207.27"/>
<polygon fill="#63b8ff" stroke="#63b8ff" points="1443.34,-187.25 1452.41,-181.77 1441.9,-180.4 1443.34,-187.25"/>
</a>
</g>
</g>
<!-- Node10 -->
<g id="Node000010" class="node">
<title>Node10</title>
<g id="a_Node000010"><a xlink:href="../../d6/df9/SDL__joystick_8c.html#a497945f75b33dbfcde319992145025c5" target="_top" xlink:title=" ">
<polygon fill="white" stroke="#666666" points="535.12,-48 394.62,-48 394.62,-28 535.12,-28 535.12,-48"/>
<text xml:space="preserve" text-anchor="middle" x="464.88" y="-34.5" font-family="Helvetica,sans-Serif" font-size="10.00">ShouldAttemptSensorFusion</text>
</a>
</g>
</g>
<!-- Node1&#45;&gt;Node10 -->
<g id="edge56_Node000001_Node000010" class="edge">
<title>Node1&#45;&gt;Node10</title>
<g id="a_edge56_Node000001_Node000010"><a xlink:title=" ">
<path fill="none" stroke="#63b8ff" d="M1478.22,-153.19C1428.08,-109.39 1289.12,0 1152,0 1152,0 1152,0 834.5,0 723.62,0 695.87,-6.09 585.75,-19 566.18,-21.29 544.92,-24.45 525.81,-27.53"/>
<polygon fill="#63b8ff" stroke="#63b8ff" points="1475.59,-155.54 1485.39,-159.56 1480.24,-150.3 1475.59,-155.54"/>
</a>
</g>
</g>
<!-- Node2&#45;&gt;Node3 -->
<g id="edge2_Node000002_Node000003" class="edge">
<title>Node2&#45;&gt;Node3</title>
<g id="a_edge2_Node000002_Node000003"><a xlink:title=" ">
<path fill="none" stroke="#63b8ff" d="M1273.41,-183.81C1250.07,-188.65 1223.83,-194.1 1201.73,-198.68"/>
<polygon fill="#63b8ff" stroke="#63b8ff" points="1274.04,-187.25 1283.12,-181.79 1272.62,-180.4 1274.04,-187.25"/>
</a>
</g>
</g>
<!-- Node34 -->
<g id="Node000034" class="node">
<title>Node34</title>
<g id="a_Node000034"><a xlink:href="../../d0/d82/SDL__gamepad_8c.html#aa0b42b7cf85ac2816ef94f66ba9c8d4f" target="_top" xlink:title=" ">
<polygon fill="white" stroke="#666666" points="1228.75,-181 1073.25,-181 1073.25,-161 1228.75,-161 1228.75,-181"/>
<text xml:space="preserve" text-anchor="middle" x="1151" y="-167.5" font-family="Helvetica,sans-Serif" font-size="10.00">SDL_ReloadGamepadMappings</text>
</a>
</g>
</g>
<!-- Node2&#45;&gt;Node34 -->
<g id="edge54_Node000002_Node000034" class="edge">
<title>Node2&#45;&gt;Node34</title>
<g id="a_edge54_Node000002_Node000034"><a xlink:title=" ">
<path fill="none" stroke="#63b8ff" d="M1253.08,-171C1245.07,-171 1236.96,-171 1228.99,-171"/>
<polygon fill="#63b8ff" stroke="#63b8ff" points="1252.81,-174.5 1262.81,-171 1252.81,-167.5 1252.81,-174.5"/>
</a>
</g>
</g>
<!-- Node4 -->
<g id="Node000004" class="node">
<title>Node4</title>
<g id="a_Node000004"><a xlink:href="../../d6/df9/SDL__joystick_8c.html#a9340afa4acb6b0fad4affbb99d4fa014" target="_top" xlink:title=" ">
<polygon fill="white" stroke="#666666" points="1030.5,-124 934.25,-124 934.25,-104 1030.5,-104 1030.5,-124"/>
<text xml:space="preserve" text-anchor="middle" x="982.38" y="-110.5" font-family="Helvetica,sans-Serif" font-size="10.00">SDL_InitJoysticks</text>
</a>
</g>
</g>
<!-- Node3&#45;&gt;Node4 -->
<g id="edge3_Node000003_Node000004" class="edge">
<title>Node3&#45;&gt;Node4</title>
<g id="a_edge3_Node000003_Node000004"><a xlink:title=" ">
<path fill="none" stroke="#63b8ff" d="M1089.55,-196.87C1083.91,-194.9 1078.39,-192.63 1073.25,-190 1039.59,-172.8 1007.64,-140.77 992.51,-124.33"/>
<polygon fill="#63b8ff" stroke="#63b8ff" points="1088.44,-200.19 1099.03,-199.84 1090.53,-193.51 1088.44,-200.19"/>
</a>
</g>
</g>
<!-- Node21 -->
<g id="Node000021" class="node">
<title>Node21</title>
<g id="a_Node000021"><a xlink:href="../../df/d78/SDL_8c.html#a60aa8a910b5236e9eded873051707374" target="_top" xlink:title=" ">
<polygon fill="white" stroke="#666666" points="1037.25,-219 927.5,-219 927.5,-199 1037.25,-199 1037.25,-219"/>
<text xml:space="preserve" text-anchor="middle" x="982.38" y="-205.5" font-family="Helvetica,sans-Serif" font-size="10.00">SDL_QuitSubSystem</text>
</a>
</g>
</g>
<!-- Node3&#45;&gt;Node21 -->
<g id="edge25_Node000003_Node000021" class="edge">
<title>Node3&#45;&gt;Node21</title>
<g id="a_edge25_Node000003_Node000021"><a xlink:title=" ">
<path fill="none" stroke="#63b8ff" d="M1089.06,-202.47C1072.23,-202.13 1054.09,-202.18 1037.67,-202.63"/>
<polygon fill="#63b8ff" stroke="#63b8ff" points="1088.86,-205.97 1098.95,-202.73 1089.04,-198.97 1088.86,-205.97"/>
</a>
</g>
</g>
<!-- Node5 -->
<g id="Node000005" class="node">
<title>Node5</title>
<g id="a_Node000005"><a xlink:href="../../df/d78/SDL_8c.html#aa33d2b8c0a69b16651f78c26f391b6ef" target="_top" xlink:title=" ">
<polygon fill="white" stroke="#666666" points="888.12,-124 782.88,-124 782.88,-104 888.12,-104 888.12,-124"/>
<text xml:space="preserve" text-anchor="middle" x="835.5" y="-110.5" font-family="Helvetica,sans-Serif" font-size="10.00">SDL_InitSubSystem</text>
</a>
</g>
</g>
<!-- Node4&#45;&gt;Node5 -->
<g id="edge4_Node000004_Node000005" class="edge">
<title>Node4&#45;&gt;Node5</title>
<g id="a_edge4_Node000004_Node000005"><a xlink:title=" ">
<path fill="none" stroke="#63b8ff" d="M922.45,-107.36C911.22,-107.18 899.54,-107.22 888.55,-107.49"/>
<polygon fill="#63b8ff" stroke="#63b8ff" points="922.35,-110.85 932.42,-107.59 922.51,-103.86 922.35,-110.85"/>
</a>
</g>
</g>
<!-- Node5&#45;&gt;Node4 -->
<g id="edge16_Node000005_Node000004" class="edge">
<title>Node5&#45;&gt;Node4</title>
<g id="a_edge16_Node000005_Node000004"><a xlink:title=" ">
<path fill="none" stroke="#63b8ff" d="M899.85,-120.7C911.29,-120.82 923.04,-120.71 933.94,-120.38"/>
<polygon fill="#63b8ff" stroke="#63b8ff" points="900.12,-117.21 890.06,-120.53 900,-124.21 900.12,-117.21"/>
</a>
</g>
</g>
<!-- Node6 -->
<g id="Node000006" class="node">
<title>Node6</title>
<g id="a_Node000006"><a xlink:href="../../d6/df9/SDL__joystick_8c.html#a7d2531dc4fbc8de52a29ac3ec171a495" target="_top" xlink:title=" ">
<polygon fill="white" stroke="#666666" points="719.88,-238 609.38,-238 609.38,-218 719.88,-218 719.88,-238"/>
<text xml:space="preserve" text-anchor="middle" x="664.62" y="-224.5" font-family="Helvetica,sans-Serif" font-size="10.00">AttemptSensorFusion</text>
</a>
</g>
</g>
<!-- Node5&#45;&gt;Node6 -->
<g id="edge5_Node000005_Node000006" class="edge">
<title>Node5&#45;&gt;Node6</title>
<g id="a_edge5_Node000005_Node000006"><a xlink:title=" ">
<path fill="none" stroke="#63b8ff" d="M782.88,-130.24C781.71,-131.11 780.58,-132.03 779.5,-133 751.66,-157.94 772.47,-185.39 743.5,-209 736.7,-214.54 728.54,-218.5 720.08,-221.33"/>
<polygon fill="#63b8ff" stroke="#63b8ff" points="784.5,-133.36 791.26,-125.2 780.89,-127.36 784.5,-133.36"/>
</a>
</g>
</g>
<!-- Node9 -->
<g id="Node000009" class="node">
<title>Node9</title>
<g id="a_Node000009"><a xlink:href="../../d6/df9/SDL__joystick_8c.html#a94fd638a34a769ff6a7a01738257215c" target="_top" xlink:title=" ">
<polygon fill="white" stroke="#666666" points="696.25,-48 633,-48 633,-28 696.25,-28 696.25,-48"/>
<text xml:space="preserve" text-anchor="middle" x="664.62" y="-34.5" font-family="Helvetica,sans-Serif" font-size="10.00">IsROGAlly</text>
</a>
</g>
</g>
<!-- Node5&#45;&gt;Node9 -->
<g id="edge8_Node000005_Node000009" class="edge">
<title>Node5&#45;&gt;Node9</title>
<g id="a_edge8_Node000005_Node000009"><a xlink:title=" ">
<path fill="none" stroke="#63b8ff" d="M812.1,-97.11C794.33,-84.43 768.42,-67.52 743.5,-57 728.63,-50.72 711.24,-46.23 696.68,-43.2"/>
<polygon fill="#63b8ff" stroke="#63b8ff" points="809.71,-99.69 819.85,-102.75 813.83,-94.04 809.71,-99.69"/>
</a>
</g>
</g>
<!-- Node11 -->
<g id="Node000011" class="node">
<title>Node11</title>
<g id="a_Node000011"><a xlink:href="../../df/d78/SDL_8c.html#ac25d0ce460db43ca8c7681eb8e7c5007" target="_top" xlink:title=" ">
<polygon fill="white" stroke="#666666" points="691.75,-86 637.5,-86 637.5,-66 691.75,-66 691.75,-86"/>
<text xml:space="preserve" text-anchor="middle" x="664.62" y="-72.5" font-family="Helvetica,sans-Serif" font-size="10.00">SDL_Init</text>
</a>
</g>
</g>
<!-- Node5&#45;&gt;Node11 -->
<g id="edge11_Node000005_Node000011" class="edge">
<title>Node5&#45;&gt;Node11</title>
<g id="a_edge11_Node000005_Node000011"><a xlink:title=" ">
<path fill="none" stroke="#63b8ff" d="M776.75,-101C748.02,-94.54 714.71,-87.04 692.1,-81.96"/>
<polygon fill="#63b8ff" stroke="#63b8ff" points="775.91,-104.4 786.43,-103.18 777.44,-97.57 775.91,-104.4"/>
</a>
</g>
</g>
<!-- Node16 -->
<g id="Node000016" class="node">
<title>Node16</title>
<g id="a_Node000016"><a xlink:href="../../d9/d78/SDL__main__callbacks_8c.html#a3d21b5bf7aa441418de48c5b2856336a" target="_top" xlink:title=" ">
<polygon fill="white" stroke="#666666" points="524.25,-314 405.5,-314 405.5,-294 524.25,-294 524.25,-314"/>
<text xml:space="preserve" text-anchor="middle" x="464.88" y="-300.5" font-family="Helvetica,sans-Serif" font-size="10.00">SDL_InitMainCallbacks</text>
</a>
</g>
</g>
<!-- Node5&#45;&gt;Node16 -->
<g id="edge17_Node000005_Node000016" class="edge">
<title>Node5&#45;&gt;Node16</title>
<g id="a_edge17_Node000005_Node000016"><a xlink:title=" ">
<path fill="none" stroke="#63b8ff" d="M774.44,-126.81C703.49,-142.09 593.96,-166.17 585.75,-171 531.08,-203.13 487.42,-268.51 471.94,-293.74"/>
<polygon fill="#63b8ff" stroke="#63b8ff" points="774.95,-130.28 783.99,-124.76 773.48,-123.44 774.95,-130.28"/>
</a>
</g>
</g>
<!-- Node18 -->
<g id="Node000018" class="node">
<title>Node18</title>
<g id="a_Node000018"><a xlink:href="../../df/d78/SDL_8c.html#a8f0bf712ad7ba759f5b6e04e683c67d4" target="_top" xlink:title=" ">
<polygon fill="white" stroke="#666666" points="743.5,-124 585.75,-124 585.75,-104 743.5,-104 743.5,-124"/>
<text xml:space="preserve" text-anchor="middle" x="664.62" y="-110.5" font-family="Helvetica,sans-Serif" font-size="10.00">SDL_InitOrIncrementSubsystem</text>
</a>
</g>
</g>
<!-- Node5&#45;&gt;Node18 -->
<g id="edge19_Node000005_Node000018" class="edge">
<title>Node5&#45;&gt;Node18</title>
<g id="a_edge19_Node000005_Node000018"><a xlink:title=" ">
<path fill="none" stroke="#63b8ff" d="M771.03,-107.44C762.17,-107.28 752.98,-107.22 743.89,-107.27"/>
<polygon fill="#63b8ff" stroke="#63b8ff" points="770.86,-110.94 780.94,-107.68 771.03,-103.94 770.86,-110.94"/>
</a>
</g>
</g>
<!-- Node19 -->
<g id="Node000019" class="node">
<title>Node19</title>
<g id="a_Node000019"><a xlink:href="../../dc/de1/SDL__sensor_8c.html#abdb7d6b73a301a2c8558ba80edb32331" target="_top" xlink:title=" ">
<polygon fill="white" stroke="#666666" points="709.75,-200 619.5,-200 619.5,-180 709.75,-180 709.75,-200"/>
<text xml:space="preserve" text-anchor="middle" x="664.62" y="-186.5" font-family="Helvetica,sans-Serif" font-size="10.00">SDL_InitSensors</text>
</a>
</g>
</g>
<!-- Node5&#45;&gt;Node19 -->
<g id="edge21_Node000005_Node000019" class="edge">
<title>Node5&#45;&gt;Node19</title>
<g id="a_edge21_Node000005_Node000019"><a xlink:title=" ">
<path fill="none" stroke="#63b8ff" d="M773.12,-128.78C760.76,-138.91 759.09,-148.06 743.5,-157 724.84,-167.69 700.89,-174.15 684.5,-179.51"/>
<polygon fill="#63b8ff" stroke="#63b8ff" points="774.95,-131.77 781.18,-123.2 770.96,-126.02 774.95,-131.77"/>
</a>
</g>
</g>
<!-- Node20 -->
<g id="Node000020" class="node">
<title>Node20</title>
<g id="a_Node000020"><a xlink:href="../../d6/d3d/SDL__video_8c.html#ac61dc66ab71d039f9b681916d0fcbc6e" target="_top" xlink:title=" ">
<polygon fill="white" stroke="#666666" points="704.12,-276 625.12,-276 625.12,-256 704.12,-256 704.12,-276"/>
<text xml:space="preserve" text-anchor="middle" x="664.62" y="-262.5" font-family="Helvetica,sans-Serif" font-size="10.00">SDL_VideoInit</text>
</a>
</g>
</g>
<!-- Node5&#45;&gt;Node20 -->
<g id="edge23_Node000005_Node000020" class="edge">
<title>Node5&#45;&gt;Node20</title>
<g id="a_edge23_Node000005_Node000020"><a xlink:title=" ">
<path fill="none" stroke="#63b8ff" d="M775.28,-129.74C747.65,-167.63 779.57,-204.25 743.5,-238 733.03,-247.79 718.38,-252.78 704.61,-255.83"/>
<polygon fill="#63b8ff" stroke="#63b8ff" points="777.82,-132.15 781.64,-122.27 772.49,-127.61 777.82,-132.15"/>
</a>
</g>
</g>
<!-- Node7 -->
<g id="Node000007" class="node">
<title>Node7</title>
<g id="a_Node000007"><a xlink:href="../../d6/df9/SDL__joystick_8c.html#a0c867d96ec6bc9c3aca87c8ee6b53ade" target="_top" xlink:title=" ">
<polygon fill="white" stroke="#666666" points="321.5,-285 220.75,-285 220.75,-265 321.5,-265 321.5,-285"/>
<text xml:space="preserve" text-anchor="middle" x="271.12" y="-271.5" font-family="Helvetica,sans-Serif" font-size="10.00">SDL_OpenJoystick</text>
</a>
</g>
</g>
<!-- Node6&#45;&gt;Node7 -->
<g id="edge6_Node000006_Node000007" class="edge">
<title>Node6&#45;&gt;Node7</title>
<g id="a_edge6_Node000006_Node000007"><a xlink:title=" ">
<path fill="none" stroke="#63b8ff" d="M597.87,-231.22C540.22,-234.6 454.24,-240.99 380,-252 358.5,-255.19 334.86,-260.07 315.2,-264.52"/>
<polygon fill="#63b8ff" stroke="#63b8ff" points="597.72,-234.73 607.51,-230.67 597.32,-227.74 597.72,-234.73"/>
</a>
</g>
</g>
<!-- Node8 -->
<g id="Node000008" class="node">
<title>Node8</title>
<g id="a_Node000008"><a xlink:href="../../d0/d82/SDL__gamepad_8c.html#a011496690758b66ec0f7098f030b6d85" target="_top" xlink:title=" ">
<polygon fill="white" stroke="#666666" points="134.12,-380 28.12,-380 28.12,-360 134.12,-360 134.12,-380"/>
<text xml:space="preserve" text-anchor="middle" x="81.12" y="-366.5" font-family="Helvetica,sans-Serif" font-size="10.00">SDL_OpenGamepad</text>
</a>
</g>
</g>
<!-- Node7&#45;&gt;Node8 -->
<g id="edge7_Node000007_Node000008" class="edge">
<title>Node7&#45;&gt;Node8</title>
<g id="a_edge7_Node000007_Node000008"><a xlink:title=" ">
<path fill="none" stroke="#63b8ff" d="M239.55,-290.45C201.06,-309.9 136,-342.78 102.86,-359.52"/>
<polygon fill="#63b8ff" stroke="#63b8ff" points="240.95,-293.66 248.3,-286.03 237.79,-287.42 240.95,-293.66"/>
</a>
</g>
</g>
<!-- Node9&#45;&gt;Node10 -->
<g id="edge9_Node000009_Node000010" class="edge">
<title>Node9&#45;&gt;Node10</title>
<g id="a_edge9_Node000009_Node000010"><a xlink:title=" ">
<path fill="none" stroke="#63b8ff" d="M621.44,-38C596.44,-38 564.14,-38 535.46,-38"/>
<polygon fill="#63b8ff" stroke="#63b8ff" points="621.21,-41.5 631.21,-38 621.21,-34.5 621.21,-41.5"/>
</a>
</g>
</g>
<!-- Node10&#45;&gt;Node7 -->
<g id="edge10_Node000010_Node000007" class="edge">
<title>Node10&#45;&gt;Node7</title>
<g id="a_edge10_Node000010_Node000007"><a xlink:title=" ">
<path fill="none" stroke="#63b8ff" d="M384.21,-53.97C382.76,-54.92 381.36,-55.93 380,-57 361.67,-71.43 294.59,-223.41 276.59,-264.7"/>
<polygon fill="#63b8ff" stroke="#63b8ff" points="385.88,-57.04 392.95,-49.15 382.5,-50.91 385.88,-57.04"/>
</a>
</g>
</g>
<!-- Node12 -->
<g id="Node000012" class="node">
<title>Node12</title>
<g id="a_Node000012"><a xlink:href="../../d6/d3d/SDL__video_8c.html#a9f3d88531134e2c3e575a3c2db7f8488" target="_top" xlink:title=" ">
<polygon fill="white" stroke="#666666" points="549.75,-86 380,-86 380,-66 549.75,-66 549.75,-86"/>
<text xml:space="preserve" text-anchor="middle" x="464.88" y="-72.5" font-family="Helvetica,sans-Serif" font-size="10.00">SDL_CreateWindowWithProperties</text>
</a>
</g>
</g>
<!-- Node11&#45;&gt;Node12 -->
<g id="edge12_Node000011_Node000012" class="edge">
<title>Node11&#45;&gt;Node12</title>
<g id="a_edge12_Node000011_Node000012"><a xlink:title=" ">
<path fill="none" stroke="#63b8ff" d="M626.12,-76C604.59,-76 576.64,-76 550.13,-76"/>
<polygon fill="#63b8ff" stroke="#63b8ff" points="625.85,-79.5 635.85,-76 625.85,-72.5 625.85,-79.5"/>
</a>
</g>
</g>
<!-- Node13 -->
<g id="Node000013" class="node">
<title>Node13</title>
<g id="a_Node000013"><a xlink:href="../../d6/d3d/SDL__video_8c.html#acc26de39ce1bd675446e4d6c05ebf4b0" target="_top" xlink:title=" ">
<polygon fill="white" stroke="#666666" points="337.62,-105 204.62,-105 204.62,-85 337.62,-85 337.62,-105"/>
<text xml:space="preserve" text-anchor="middle" x="271.12" y="-91.5" font-family="Helvetica,sans-Serif" font-size="10.00">SDL_CreatePopupWindow</text>
</a>
</g>
</g>
<!-- Node12&#45;&gt;Node13 -->
<g id="edge13_Node000012_Node000013" class="edge">
<title>Node12&#45;&gt;Node13</title>
<g id="a_edge13_Node000012_Node000013"><a xlink:title=" ">
<path fill="none" stroke="#63b8ff" d="M368.58,-85.44C358.23,-86.47 347.88,-87.49 338.01,-88.47"/>
<polygon fill="#63b8ff" stroke="#63b8ff" points="368.66,-88.95 378.26,-84.48 367.97,-81.99 368.66,-88.95"/>
</a>
</g>
</g>
<!-- Node14 -->
<g id="Node000014" class="node">
<title>Node14</title>
<g id="a_Node000014"><a xlink:href="../../d6/d3d/SDL__video_8c.html#a83103c86f9e5c33ab9e1fb6dfa904b7f" target="_top" xlink:title=" ">
<polygon fill="white" stroke="#666666" points="323.75,-67 218.5,-67 218.5,-47 323.75,-47 323.75,-67"/>
<text xml:space="preserve" text-anchor="middle" x="271.12" y="-53.5" font-family="Helvetica,sans-Serif" font-size="10.00">SDL_CreateWindow</text>
</a>
</g>
</g>
<!-- Node12&#45;&gt;Node14 -->
<g id="edge14_Node000012_Node000014" class="edge">
<title>Node12&#45;&gt;Node14</title>
<g id="a_edge14_Node000012_Node000014"><a xlink:title=" ">
<path fill="none" stroke="#63b8ff" d="M368.64,-66.56C353.31,-65.04 337.96,-63.52 324.16,-62.16"/>
<polygon fill="#63b8ff" stroke="#63b8ff" points="367.97,-70.01 378.26,-67.52 368.66,-63.05 367.97,-70.01"/>
</a>
</g>
</g>
<!-- Node15 -->
<g id="Node000015" class="node">
<title>Node15</title>
<g id="a_Node000015"><a xlink:href="../../dd/df3/SDL__render_8c.html#a36f859fae15e4277ba052f9ecfb2816d" target="_top" xlink:title=" ">
<polygon fill="white" stroke="#666666" points="162.25,-67 0,-67 0,-47 162.25,-47 162.25,-67"/>
<text xml:space="preserve" text-anchor="middle" x="81.12" y="-53.5" font-family="Helvetica,sans-Serif" font-size="10.00">SDL_CreateWindowAndRenderer</text>
</a>
</g>
</g>
<!-- Node14&#45;&gt;Node15 -->
<g id="edge15_Node000014_Node000015" class="edge">
<title>Node14&#45;&gt;Node15</title>
<g id="a_edge15_Node000014_Node000015"><a xlink:title=" ">
<path fill="none" stroke="#63b8ff" d="M207.1,-57C192.87,-57 177.58,-57 162.74,-57"/>
<polygon fill="#63b8ff" stroke="#63b8ff" points="206.74,-60.5 216.74,-57 206.74,-53.5 206.74,-60.5"/>
</a>
</g>
</g>
<!-- Node17 -->
<g id="Node000017" class="node">
<title>Node17</title>
<g id="a_Node000017"><a xlink:href="../../dd/db5/generic_2SDL__sysmain__callbacks_8c.html#aa50e1897a91f2547b5f31125020220e2" target="_top" xlink:title=" ">
<polygon fill="white" stroke="#666666" points="344,-504 198.25,-504 198.25,-484 344,-484 344,-504"/>
<text xml:space="preserve" text-anchor="middle" x="271.12" y="-490.5" font-family="Helvetica,sans-Serif" font-size="10.00">SDL_EnterAppMainCallbacks</text>
</a>
</g>
</g>
<!-- Node16&#45;&gt;Node17 -->
<g id="edge18_Node000016_Node000017" class="edge">
<title>Node16&#45;&gt;Node17</title>
<g id="a_edge18_Node000016_Node000017"><a xlink:title=" ">
<path fill="none" stroke="#63b8ff" d="M435.98,-320.08C418.9,-330.6 397.12,-345.27 380,-361 336,-401.43 294.59,-460.36 278.83,-483.82"/>
<polygon fill="#63b8ff" stroke="#63b8ff" points="437.36,-323.33 444.12,-315.17 433.75,-317.34 437.36,-323.33"/>
</a>
</g>
</g>
<!-- Node18&#45;&gt;Node5 -->
<g id="edge20_Node000018_Node000005" class="edge">
<title>Node18&#45;&gt;Node5</title>
<g id="a_edge20_Node000018_Node000005"><a xlink:title=" ">
<path fill="none" stroke="#63b8ff" d="M755.25,-120.74C764.55,-120.7 773.77,-120.55 782.45,-120.29"/>
<polygon fill="#63b8ff" stroke="#63b8ff" points="755.4,-117.24 745.4,-120.73 755.4,-124.24 755.4,-117.24"/>
</a>
</g>
</g>
<!-- Node19&#45;&gt;Node5 -->
<g id="edge22_Node000019_Node000005" class="edge">
<title>Node19&#45;&gt;Node5</title>
<g id="a_edge22_Node000019_Node000005"><a xlink:title=" ">
<path fill="none" stroke="#63b8ff" d="M720.65,-185.32C728.56,-182.51 736.41,-179.06 743.5,-175 762.33,-164.21 760.85,-153.11 779.5,-142 792.34,-134.35 808.72,-129.19 820.25,-124.47"/>
<polygon fill="#63b8ff" stroke="#63b8ff" points="719.8,-181.92 711.33,-188.28 721.92,-188.59 719.8,-181.92"/>
</a>
</g>
</g>
<!-- Node20&#45;&gt;Node5 -->
<g id="edge24_Node000020_Node000005" class="edge">
<title>Node20&#45;&gt;Node5</title>
<g id="a_edge24_Node000020_Node000005"><a xlink:title=" ">
<path fill="none" stroke="#63b8ff" d="M715.67,-270.47C725.87,-267.79 735.81,-263.19 743.5,-256 782.3,-219.7 742.44,-180.07 779.5,-142 788.52,-132.73 802.27,-127.98 813.77,-124.43"/>
<polygon fill="#63b8ff" stroke="#63b8ff" points="715.22,-266.99 706.09,-272.37 716.58,-273.86 715.22,-266.99"/>
</a>
</g>
</g>
<!-- Node21&#45;&gt;Node3 -->
<g id="edge45_Node000021_Node000003" class="edge">
<title>Node21&#45;&gt;Node3</title>
<g id="a_edge45_Node000021_Node000003"><a xlink:title=" ">
<path fill="none" stroke="#63b8ff" d="M1048.79,-215.61C1065.98,-215.88 1084.25,-215.76 1100.46,-215.23"/>
<polygon fill="#63b8ff" stroke="#63b8ff" points="1049.26,-212.12 1039.19,-215.4 1049.11,-219.12 1049.26,-212.12"/>
</a>
</g>
</g>
<!-- Node21&#45;&gt;Node5 -->
<g id="edge36_Node000021_Node000005" class="edge">
<title>Node21&#45;&gt;Node5</title>
<g id="a_edge36_Node000021_Node000005"><a xlink:title=" ">
<path fill="none" stroke="#63b8ff" d="M963.86,-190.71C946.76,-173.76 919.33,-148.83 891.5,-133 885.7,-129.7 879.24,-126.84 872.84,-124.41"/>
<polygon fill="#63b8ff" stroke="#63b8ff" points="961.22,-193.02 970.74,-197.68 966.2,-188.11 961.22,-193.02"/>
</a>
</g>
</g>
<!-- Node21&#45;&gt;Node6 -->
<g id="edge26_Node000021_Node000006" class="edge">
<title>Node21&#45;&gt;Node6</title>
<g id="a_edge26_Node000021_Node000006"><a xlink:title=" ">
<path fill="none" stroke="#63b8ff" d="M915.94,-206.27C876.38,-205.3 824.96,-205.23 779.5,-209 759.03,-210.7 736.69,-214.08 717.27,-217.53"/>
<polygon fill="#63b8ff" stroke="#63b8ff" points="915.69,-209.76 925.78,-206.54 915.88,-202.77 915.69,-209.76"/>
</a>
</g>
</g>
<!-- Node21&#45;&gt;Node9 -->
<g id="edge35_Node000021_Node000009" class="edge">
<title>Node21&#45;&gt;Node9</title>
<g id="a_edge35_Node000021_Node000009"><a xlink:title=" ">
<path fill="none" stroke="#63b8ff" d="M968.16,-189.3C948.23,-160.13 910.77,-107.55 891.5,-95 830.16,-55.05 742.64,-43.1 696.63,-39.52"/>
<polygon fill="#63b8ff" stroke="#63b8ff" points="965.07,-190.97 973.57,-197.28 970.86,-187.04 965.07,-190.97"/>
</a>
</g>
</g>
<!-- Node21&#45;&gt;Node20 -->
<g id="edge50_Node000021_Node000020" class="edge">
<title>Node21&#45;&gt;Node20</title>
<g id="a_edge50_Node000021_Node000020"><a xlink:title=" ">
<path fill="none" stroke="#63b8ff" d="M951.7,-224.35C934.57,-232.5 912.34,-241.86 891.5,-247 827.31,-262.84 750.1,-266.07 704.59,-266.42"/>
<polygon fill="#63b8ff" stroke="#63b8ff" points="952.85,-227.69 960.3,-220.15 949.78,-221.4 952.85,-227.69"/>
</a>
</g>
</g>
<!-- Node21&#45;&gt;Node21 -->
<g id="edge49_Node000021_Node000021" class="edge">
<title>Node21&#45;&gt;Node21</title>
<g id="a_edge49_Node000021_Node000021"><a xlink:title=" ">
<path fill="none" stroke="#63b8ff" d="M1008.33,-230.44C1004.99,-234.3 996.34,-237 982.38,-237 956.84,-237 949.07,-227.98 959.04,-219.34"/>
<polygon fill="#63b8ff" stroke="#63b8ff" points="1011.76,-229.74 1006.06,-220.81 1004.95,-231.35 1011.76,-229.74"/>
</a>
</g>
</g>
<!-- Node22 -->
<g id="Node000022" class="node">
<title>Node22</title>
<g id="a_Node000022"><a xlink:href="../../d6/df9/SDL__joystick_8c.html#ac0722362ebd0ebecebff12499774b471" target="_top" xlink:title=" ">
<polygon fill="white" stroke="#666666" points="891.5,-352 779.5,-352 779.5,-332 891.5,-332 891.5,-352"/>
<text xml:space="preserve" text-anchor="middle" x="835.5" y="-338.5" font-family="Helvetica,sans-Serif" font-size="10.00">CleanupSensorFusion</text>
</a>
</g>
</g>
<!-- Node21&#45;&gt;Node22 -->
<g id="edge27_Node000021_Node000022" class="edge">
<title>Node21&#45;&gt;Node22</title>
<g id="a_edge27_Node000021_Node000022"><a xlink:title=" ">
<path fill="none" stroke="#63b8ff" d="M969.23,-228.83C953.74,-252.72 924.93,-292.78 891.5,-318 884.26,-323.46 875.59,-327.98 867.3,-331.57"/>
<polygon fill="#63b8ff" stroke="#63b8ff" points="972.01,-230.99 974.39,-220.66 966.09,-227.24 972.01,-230.99"/>
</a>
</g>
</g>
<!-- Node26 -->
<g id="Node000026" class="node">
<title>Node26</title>
<g id="a_Node000026"><a xlink:href="../../df/d78/SDL_8c.html#abf064fcc4a657a30db8eace18633f362" target="_top" xlink:title=" ">
<polygon fill="white" stroke="#666666" points="864.88,-485 806.12,-485 806.12,-465 864.88,-465 864.88,-485"/>
<text xml:space="preserve" text-anchor="middle" x="835.5" y="-471.5" font-family="Helvetica,sans-Serif" font-size="10.00">SDL_Quit</text>
</a>
</g>
</g>
<!-- Node21&#45;&gt;Node26 -->
<g id="edge37_Node000021_Node000026" class="edge">
<title>Node21&#45;&gt;Node26</title>
<g id="a_edge37_Node000021_Node000026"><a xlink:title=" ">
<path fill="none" stroke="#63b8ff" d="M970.27,-229.39C941.21,-282.74 863.71,-425.04 842.14,-464.64"/>
<polygon fill="#63b8ff" stroke="#63b8ff" points="973.26,-231.21 974.97,-220.76 967.12,-227.86 973.26,-231.21"/>
</a>
</g>
</g>
<!-- Node32 -->
<g id="Node000032" class="node">
<title>Node32</title>
<g id="a_Node000032"><a xlink:href="../../dc/de1/SDL__sensor_8c.html#af97faaba22b06bf9fc16804bfc2ae7df" target="_top" xlink:title=" ">
<polygon fill="white" stroke="#666666" points="882.88,-162 788.12,-162 788.12,-142 882.88,-142 882.88,-162"/>
<text xml:space="preserve" text-anchor="middle" x="835.5" y="-148.5" font-family="Helvetica,sans-Serif" font-size="10.00">SDL_QuitSensors</text>
</a>
</g>
</g>
<!-- Node21&#45;&gt;Node32 -->
<g id="edge46_Node000021_Node000032" class="edge">
<title>Node21&#45;&gt;Node32</title>
<g id="a_edge46_Node000021_Node000032"><a xlink:title=" ">
<path fill="none" stroke="#63b8ff" d="M955.69,-193.59C934.43,-183.67 903.79,-171.31 878.9,-162.48"/>
<polygon fill="#63b8ff" stroke="#63b8ff" points="953.98,-196.66 964.51,-197.87 957.04,-190.36 953.98,-196.66"/>
</a>
</g>
</g>
<!-- Node33 -->
<g id="Node000033" class="node">
<title>Node33</title>
<g id="a_Node000033"><a xlink:href="../../d6/d3d/SDL__video_8c.html#ae86d31ef3c6aad24cd4d0da9a9551906" target="_top" xlink:title=" ">
<polygon fill="white" stroke="#666666" points="877.25,-238 793.75,-238 793.75,-218 877.25,-218 877.25,-238"/>
<text xml:space="preserve" text-anchor="middle" x="835.5" y="-224.5" font-family="Helvetica,sans-Serif" font-size="10.00">SDL_VideoQuit</text>
</a>
</g>
</g>
<!-- Node21&#45;&gt;Node33 -->
<g id="edge51_Node000021_Node000033" class="edge">
<title>Node21&#45;&gt;Node33</title>
<g id="a_edge51_Node000021_Node000033"><a xlink:title=" ">
<path fill="none" stroke="#63b8ff" d="M915.95,-210.86C900.59,-212.75 884.8,-215.1 871.39,-217.56"/>
<polygon fill="#63b8ff" stroke="#63b8ff" points="915.99,-214.38 925.51,-209.74 915.18,-207.43 915.99,-214.38"/>
</a>
</g>
</g>
<!-- Node23 -->
<g id="Node000023" class="node">
<title>Node23</title>
<g id="a_Node000023"><a xlink:href="../../d6/df9/SDL__joystick_8c.html#aadf2e0eabb7fee1784bced6566d2f2ee" target="_top" xlink:title=" ">
<polygon fill="white" stroke="#666666" points="716.12,-390 613.12,-390 613.12,-370 716.12,-370 716.12,-390"/>
<text xml:space="preserve" text-anchor="middle" x="664.62" y="-376.5" font-family="Helvetica,sans-Serif" font-size="10.00">SDL_CloseJoystick</text>
</a>
</g>
</g>
<!-- Node22&#45;&gt;Node23 -->
<g id="edge28_Node000022_Node000023" class="edge">
<title>Node22&#45;&gt;Node23</title>
<g id="a_edge28_Node000022_Node000023"><a xlink:title=" ">
<path fill="none" stroke="#63b8ff" d="M776.8,-354.98C755.68,-359.74 732.07,-365.05 712.07,-369.55"/>
<polygon fill="#63b8ff" stroke="#63b8ff" points="777.44,-358.43 786.43,-352.82 775.91,-351.6 777.44,-358.43"/>
</a>
</g>
</g>
<!-- Node23&#45;&gt;Node3 -->
<g id="edge34_Node000023_Node000003" class="edge">
<title>Node23&#45;&gt;Node3</title>
<g id="a_edge34_Node000023_Node000003"><a xlink:title=" ">
<path fill="none" stroke="#63b8ff" d="M727.56,-382.13C773.77,-381.97 837.91,-378.03 891.5,-361 994.95,-328.12 1101.36,-247.97 1137.29,-219.36"/>
<polygon fill="#63b8ff" stroke="#63b8ff" points="727.74,-378.63 717.73,-382.09 727.72,-385.63 727.74,-378.63"/>
</a>
</g>
</g>
<!-- Node23&#45;&gt;Node7 -->
<g id="edge33_Node000023_Node000007" class="edge">
<title>Node23&#45;&gt;Node7</title>
<g id="a_edge33_Node000023_Node000007"><a xlink:title=" ">
<path fill="none" stroke="#63b8ff" d="M601.88,-369.23C531.35,-356.65 420.48,-335.9 380,-323 348.16,-312.86 313.14,-296.17 291.89,-285.39"/>
<polygon fill="#63b8ff" stroke="#63b8ff" points="600.88,-372.61 611.34,-370.92 602.11,-365.72 600.88,-372.61"/>
</a>
</g>
</g>
<!-- Node23&#45;&gt;Node8 -->
<g id="edge32_Node000023_Node000008" class="edge">
<title>Node23&#45;&gt;Node8</title>
<g id="a_edge32_Node000023_Node000008"><a xlink:title=" ">
<path fill="none" stroke="#63b8ff" d="M601.51,-392.27C584.77,-395.06 566.63,-397.6 549.75,-399 399.18,-411.48 220.92,-390.58 134.42,-378.17"/>
<polygon fill="#63b8ff" stroke="#63b8ff" points="602.08,-395.73 611.34,-390.58 600.89,-388.83 602.08,-395.73"/>
</a>
</g>
</g>
<!-- Node24 -->
<g id="Node000024" class="node">
<title>Node24</title>
<g id="a_Node000024"><a xlink:href="../../d0/d82/SDL__gamepad_8c.html#aba8e3cc0575aa23129847fd8418fc191" target="_top" xlink:title=" ">
<polygon fill="white" stroke="#666666" points="519,-390 410.75,-390 410.75,-370 519,-370 519,-390"/>
<text xml:space="preserve" text-anchor="middle" x="464.88" y="-376.5" font-family="Helvetica,sans-Serif" font-size="10.00">SDL_CloseGamepad</text>
</a>
</g>
</g>
<!-- Node23&#45;&gt;Node24 -->
<g id="edge29_Node000023_Node000024" class="edge">
<title>Node23&#45;&gt;Node24</title>
<g id="a_edge29_Node000023_Node000024"><a xlink:title=" ">
<path fill="none" stroke="#63b8ff" d="M601.31,-380C575,-380 544.67,-380 519.39,-380"/>
<polygon fill="#63b8ff" stroke="#63b8ff" points="601.19,-383.5 611.19,-380 601.19,-376.5 601.19,-383.5"/>
</a>
</g>
</g>
<!-- Node25 -->
<g id="Node000025" class="node">
<title>Node25</title>
<g id="a_Node000025"><a xlink:href="../../d0/d82/SDL__gamepad_8c.html#ad49c2e97ac6f1deaafd9aec54dff1659" target="_top" xlink:title=" ">
<polygon fill="white" stroke="#666666" points="324.12,-357 218.12,-357 218.12,-337 324.12,-337 324.12,-357"/>
<text xml:space="preserve" text-anchor="middle" x="271.12" y="-343.5" font-family="Helvetica,sans-Serif" font-size="10.00">SDL_QuitGamepads</text>
</a>
</g>
</g>
<!-- Node24&#45;&gt;Node25 -->
<g id="edge30_Node000024_Node000025" class="edge">
<title>Node24&#45;&gt;Node25</title>
<g id="a_edge30_Node000024_Node000025"><a xlink:title=" ">
<path fill="none" stroke="#63b8ff" d="M399.18,-368.87C374.9,-364.69 347.62,-359.99 324.59,-356.03"/>
<polygon fill="#63b8ff" stroke="#63b8ff" points="398.52,-372.3 408.97,-370.55 399.71,-365.41 398.52,-372.3"/>
</a>
</g>
</g>
<!-- Node25&#45;&gt;Node21 -->
<g id="edge31_Node000025_Node000021" class="edge">
<title>Node25&#45;&gt;Node21</title>
<g id="a_edge31_Node000025_Node000021"><a xlink:title=" ">
<path fill="none" stroke="#63b8ff" d="M294.27,-329.6C315.06,-314.46 347.72,-293.62 380,-285 380,-285 743.5,-285 743.5,-285 809.57,-281.44 829.31,-291.57 891.5,-269 922.71,-257.67 953.73,-233.33 969.9,-219.38"/>
<polygon fill="#63b8ff" stroke="#63b8ff" points="292.18,-326.79 286.28,-335.59 296.38,-332.39 292.18,-326.79"/>
</a>
</g>
</g>
<!-- Node27 -->
<g id="Node000027" class="node">
<title>Node27</title>
<g id="a_Node000027"><a xlink:href="../../de/daf/classCSDLmain.html#a73bd9c42ac6916974009e508257e44ff" target="_top" xlink:title=" ">
<polygon fill="white" stroke="#666666" points="711.25,-542 618,-542 618,-522 711.25,-522 711.25,-542"/>
<text xml:space="preserve" text-anchor="middle" x="664.62" y="-528.5" font-family="Helvetica,sans-Serif" font-size="10.00">CSDLmain::RunL</text>
</a>
</g>
</g>
<!-- Node26&#45;&gt;Node27 -->
<g id="edge38_Node000026_Node000027" class="edge">
<title>Node26&#45;&gt;Node27</title>
<g id="a_edge38_Node000026_Node000027"><a xlink:title=" ">
<path fill="none" stroke="#63b8ff" d="M802.35,-489.87C785.14,-497.46 763.44,-506.45 743.5,-513 733.32,-516.34 722.22,-519.4 711.67,-522.03"/>
<polygon fill="#63b8ff" stroke="#63b8ff" points="803.35,-493.26 811.05,-485.98 800.49,-486.87 803.35,-493.26"/>
</a>
</g>
</g>
<!-- Node28 -->
<g id="Node000028" class="node">
<title>Node28</title>
<g id="a_Node000028"><a xlink:href="../../d3/d6c/SDL__assert_8c.html#af146e7f66c4e41a24337c5b6943af0b0" target="_top" xlink:title=" ">
<polygon fill="white" stroke="#666666" points="717.25,-466 612,-466 612,-446 717.25,-446 717.25,-466"/>
<text xml:space="preserve" text-anchor="middle" x="664.62" y="-452.5" font-family="Helvetica,sans-Serif" font-size="10.00">SDL_AbortAssertion</text>
</a>
</g>
</g>
<!-- Node26&#45;&gt;Node28 -->
<g id="edge39_Node000026_Node000028" class="edge">
<title>Node26&#45;&gt;Node28</title>
<g id="a_edge39_Node000026_Node000028"><a xlink:title=" ">
<path fill="none" stroke="#63b8ff" d="M794.46,-470.49C771.49,-467.91 742.4,-464.64 717.67,-461.86"/>
<polygon fill="#63b8ff" stroke="#63b8ff" points="794.02,-473.97 804.35,-471.61 794.8,-467.01 794.02,-473.97"/>
</a>
</g>
</g>
<!-- Node30 -->
<g id="Node000030" class="node">
<title>Node30</title>
<g id="a_Node000030"><a xlink:href="../../d9/d78/SDL__main__callbacks_8c.html#a2e8bd250bb597fdf72c9da9d001181e7" target="_top" xlink:title=" ">
<polygon fill="white" stroke="#666666" points="726.25,-504 603,-504 603,-484 726.25,-484 726.25,-504"/>
<text xml:space="preserve" text-anchor="middle" x="664.62" y="-490.5" font-family="Helvetica,sans-Serif" font-size="10.00">SDL_QuitMainCallbacks</text>
</a>
</g>
</g>
<!-- Node26&#45;&gt;Node30 -->
<g id="edge41_Node000026_Node000030" class="edge">
<title>Node26&#45;&gt;Node30</title>
<g id="a_edge41_Node000026_Node000030"><a xlink:title=" ">
<path fill="none" stroke="#63b8ff" d="M794.54,-479.5C774.3,-481.77 749.28,-484.59 726.69,-487.13"/>
<polygon fill="#63b8ff" stroke="#63b8ff" points="794.8,-482.99 804.35,-478.39 794.02,-476.03 794.8,-482.99"/>
</a>
</g>
</g>
<!-- Node29 -->
<g id="Node000029" class="node">
<title>Node29</title>
<g id="a_Node000029"><a xlink:href="../../d3/d6c/SDL__assert_8c.html#a0c9a208493d6e9212cff2ab400242102" target="_top" xlink:title=" ">
<polygon fill="white" stroke="#666666" points="520.5,-466 409.25,-466 409.25,-446 520.5,-446 520.5,-466"/>
<text xml:space="preserve" text-anchor="middle" x="464.88" y="-452.5" font-family="Helvetica,sans-Serif" font-size="10.00">SDL_ReportAssertion</text>
</a>
</g>
</g>
<!-- Node28&#45;&gt;Node29 -->
<g id="edge40_Node000028_Node000029" class="edge">
<title>Node28&#45;&gt;Node29</title>
<g id="a_edge40_Node000028_Node000029"><a xlink:title=" ">
<path fill="none" stroke="#63b8ff" d="M600.23,-456C574.71,-456 545.56,-456 520.94,-456"/>
<polygon fill="#63b8ff" stroke="#63b8ff" points="600.16,-459.5 610.15,-456 600.15,-452.5 600.16,-459.5"/>
</a>
</g>
</g>
<!-- Node30&#45;&gt;Node17 -->
<g id="edge44_Node000030_Node000017" class="edge">
<title>Node30&#45;&gt;Node17</title>
<g id="a_edge44_Node000030_Node000017"><a xlink:title=" ">
<path fill="none" stroke="#63b8ff" d="M600.78,-506.39C584.25,-509.13 566.39,-511.62 549.75,-513 474.56,-519.23 455.16,-519.57 380,-513 360.58,-511.3 339.42,-507.92 321.02,-504.47"/>
<polygon fill="#63b8ff" stroke="#63b8ff" points="601.23,-509.87 610.49,-504.73 600.04,-502.97 601.23,-509.87"/>
</a>
</g>
</g>
<!-- Node31 -->
<g id="Node000031" class="node">
<title>Node31</title>
<g id="a_Node000031"><a xlink:href="../../d0/d72/emscripten_2SDL__sysmain__callbacks_8c.html#ad2e127e4f44ae815197361e79da5bf88" target="_top" xlink:title=" ">
<polygon fill="white" stroke="#666666" points="533.25,-504 396.5,-504 396.5,-484 533.25,-484 533.25,-504"/>
<text xml:space="preserve" text-anchor="middle" x="464.88" y="-490.5" font-family="Helvetica,sans-Serif" font-size="10.00">EmscriptenInternalMainloop</text>
</a>
</g>
</g>
<!-- Node30&#45;&gt;Node31 -->
<g id="edge42_Node000030_Node000031" class="edge">
<title>Node30&#45;&gt;Node31</title>
<g id="a_edge42_Node000030_Node000031"><a xlink:title=" ">
<path fill="none" stroke="#63b8ff" d="M591.42,-494C572.5,-494 552.18,-494 533.51,-494"/>
<polygon fill="#63b8ff" stroke="#63b8ff" points="591.17,-497.5 601.17,-494 591.17,-490.5 591.17,-497.5"/>
</a>
</g>
</g>
<!-- Node31&#45;&gt;Node17 -->
<g id="edge43_Node000031_Node000017" class="edge">
<title>Node31&#45;&gt;Node17</title>
<g id="a_edge43_Node000031_Node000017"><a xlink:title=" ">
<path fill="none" stroke="#63b8ff" d="M384.89,-494C371.5,-494 357.66,-494 344.46,-494"/>
<polygon fill="#63b8ff" stroke="#63b8ff" points="384.49,-497.5 394.49,-494 384.49,-490.5 384.49,-497.5"/>
</a>
</g>
</g>
<!-- Node32&#45;&gt;Node19 -->
<g id="edge47_Node000032_Node000019" class="edge">
<title>Node32&#45;&gt;Node19</title>
<g id="a_edge47_Node000032_Node000019"><a xlink:title=" ">
<path fill="none" stroke="#63b8ff" d="M776.77,-164.99C754.94,-169.9 730.45,-175.41 710.03,-180.01"/>
<polygon fill="#63b8ff" stroke="#63b8ff" points="777.44,-168.43 786.43,-162.82 775.91,-161.6 777.44,-168.43"/>
</a>
</g>
</g>
<!-- Node32&#45;&gt;Node21 -->
<g id="edge48_Node000032_Node000021" class="edge">
<title>Node32&#45;&gt;Node21</title>
<g id="a_edge48_Node000032_Node000021"><a xlink:title=" ">
<path fill="none" stroke="#63b8ff" d="M862.23,-167.43C883.52,-177.36 914.19,-189.73 939.08,-198.56"/>
<polygon fill="#63b8ff" stroke="#63b8ff" points="863.92,-164.36 853.39,-163.14 860.87,-170.65 863.92,-164.36"/>
</a>
</g>
</g>
<!-- Node33&#45;&gt;Node20 -->
<g id="edge53_Node000033_Node000020" class="edge">
<title>Node33&#45;&gt;Node20</title>
<g id="a_edge53_Node000033_Node000020"><a xlink:title=" ">
<path fill="none" stroke="#63b8ff" d="M782.41,-239.72C757.23,-245.39 727.54,-252.07 704.39,-257.28"/>
<polygon fill="#63b8ff" stroke="#63b8ff" points="783.16,-243.14 792.14,-237.53 781.62,-236.31 783.16,-243.14"/>
</a>
</g>
</g>
<!-- Node33&#45;&gt;Node21 -->
<g id="edge52_Node000033_Node000021" class="edge">
<title>Node33&#45;&gt;Node21</title>
<g id="a_edge52_Node000033_Node000021"><a xlink:title=" ">
<path fill="none" stroke="#63b8ff" d="M888.93,-227.64C908.01,-225.59 929.09,-222.62 946.3,-219.48"/>
<polygon fill="#63b8ff" stroke="#63b8ff" points="888.78,-224.14 879.18,-228.61 889.48,-231.1 888.78,-224.14"/>
</a>
</g>
</g>
</g>
</svg>

<g id="navigator" transform="translate(0 0)" fill="#404254">
  <rect fill="#f2f5e9" fill-opacity="0.5" stroke="#606060" stroke-width=".5" x="0" y="0" width="60" height="60"/>
  <use id="zoomplus" xlink:href="#zoomPlus" x="17" y="9" onmousedown="handleZoom(evt,'in')"/>
  <use id="zoomminus" xlink:href="#zoomMin" x="42" y="9" onmousedown="handleZoom(evt,'out')"/>
  <use id="reset" xlink:href="#resetDef" x="30" y="36" onmousedown="handleReset()"/>
   <use id="arrowup" xlink:href="#arrowUp" x="0" y="0" onmousedown="handlePan(0,-1)"/>
  <use id="arrowright" xlink:href="#arrowRight" x="0" y="0" onmousedown="handlePan(1,0)"/>
  <use id="arrowdown" xlink:href="#arrowDown" x="0" y="0" onmousedown="handlePan(0,1)"/>
  <use id="arrowleft" xlink:href="#arrowLeft" x="0" y="0" onmousedown="handlePan(-1,0)"/>
</g>
<svg viewBox="0 0 15 15" width="100%" height="30px" preserveAspectRatio="xMaxYMin meet">
 <g id="arrow_out" transform="scale(0.3 0.3)">
  <a xlink:href="SDL__joystick_8c_af07e0774f0c28c56b74454e19a1d23c7_icgraph_org.svg" target="_base">
   <rect id="button" ry="5" rx="5" y="6" x="6" height="38" width="38"
        fill="#f2f5e9" fill-opacity="0.5" stroke="#606060" stroke-width="1.0"/>
   <path id="arrow"
     d="M 11.500037,31.436501 C 11.940474,20.09759 22.043105,11.32322 32.158766,21.979434 L 37.068811,17.246167 C 37.068811,17.246167 37.088388,32 37.088388,32 L 22.160133,31.978069 C 22.160133,31.978069 26.997745,27.140456 26.997745,27.140456 C 18.528582,18.264221 13.291696,25.230495 11.500037,31.436501 z"
     style="fill:#404040;"/>
  </a>
 </g>
</svg>

<style type='text/css'>
<![CDATA[
[data-mouse-over-selected='false'] { opacity: 0.7; }
[data-mouse-over-selected='true']  { opacity: 1.0; }
]]>
</style>
<script type="application/ecmascript"><![CDATA[
document.addEventListener('DOMContentLoaded', (event) => {
  highlightEdges();
  highlightAdjacentNodes();
});
]]></script>
</svg>
