<?xml version="1.0" encoding="UTF-8" standalone="no"?>
<!DOCTYPE svg PUBLIC "-//W3C//DTD SVG 1.1//EN"
 "http://www.w3.org/Graphics/SVG/1.1/DTD/svg11.dtd">
<!-- Generated by graphviz version 13.1.0 (20250701.0955)
 -->
<!-- Title: SDL_CreateJoystickGUIDForName Pages: 1 -->
<svg width="572pt" height="104pt"
 viewBox="0.00 0.00 572.00 104.00" xmlns="http://www.w3.org/2000/svg" xmlns:xlink="http://www.w3.org/1999/xlink">
<g id="graph0" class="graph" transform="scale(1 1) rotate(0) translate(4 100)">
<title>SDL_CreateJoystickGUIDForName</title>
<!-- Node1 -->
<g id="Node000001" class="node">
<title>Node1</title>
<g id="a_Node000001"><a xlink:title=" ">
<polygon fill="#999999" stroke="#666666" points="172.75,-58 0,-58 0,-38 172.75,-38 172.75,-58"/>
<text xml:space="preserve" text-anchor="middle" x="86.38" y="-44.5" font-family="Helvetica,sans-Serif" font-size="10.00">SDL_CreateJoystickGUIDForName</text>
</a>
</g>
</g>
<!-- Node2 -->
<g id="Node000002" class="node">
<title>Node2</title>
<g id="a_Node000002"><a xlink:href="../../d6/df9/SDL__joystick_8c.html#a45ba5e03bfa4c026cf2616439d98219f" target="_top" xlink:title=" ">
<polygon fill="white" stroke="#666666" points="341,-58 208.75,-58 208.75,-38 341,-38 341,-58"/>
<text xml:space="preserve" text-anchor="middle" x="274.88" y="-44.5" font-family="Helvetica,sans-Serif" font-size="10.00">SDL_CreateJoystickGUID</text>
</a>
</g>
</g>
<!-- Node1&#45;&gt;Node2 -->
<g id="edge1_Node000001_Node000002" class="edge">
<title>Node1&#45;&gt;Node2</title>
<g id="a_edge1_Node000001_Node000002"><a xlink:title=" ">
<path fill="none" stroke="#63b8ff" d="M172.98,-48C180.96,-48 189.01,-48 196.91,-48"/>
<polygon fill="#63b8ff" stroke="#63b8ff" points="196.81,-51.5 206.81,-48 196.81,-44.5 196.81,-51.5"/>
</a>
</g>
</g>
<!-- Node3 -->
<g id="Node000003" class="node">
<title>Node3</title>
<g id="a_Node000003"><a xlink:href="../../d2/da2/SDL__crc16_8c.html#ae6965b5d695f8e80c10cba6dace190aa" target="_top" xlink:title=" ">
<polygon fill="white" stroke="#666666" points="444.38,-96 379.62,-96 379.62,-76 444.38,-76 444.38,-96"/>
<text xml:space="preserve" text-anchor="middle" x="412" y="-82.5" font-family="Helvetica,sans-Serif" font-size="10.00">SDL_crc16</text>
</a>
</g>
</g>
<!-- Node2&#45;&gt;Node3 -->
<g id="edge2_Node000002_Node000003" class="edge">
<title>Node2&#45;&gt;Node3</title>
<g id="a_edge2_Node000002_Node000003"><a xlink:title=" ">
<path fill="none" stroke="#63b8ff" d="M313.16,-58.48C330.28,-63.3 350.68,-69.04 368.41,-74.02"/>
<polygon fill="#63b8ff" stroke="#63b8ff" points="367.3,-77.35 377.88,-76.69 369.2,-70.61 367.3,-77.35"/>
</a>
</g>
</g>
<!-- Node5 -->
<g id="Node000005" class="node">
<title>Node5</title>
<g id="a_Node000005"><a xlink:href="../../d2/d5b/SDL__stdinc_8h.html#a490388bcb3278665a58918183f35f4b4" target="_top" xlink:title=" ">
<polygon fill="white" stroke="#666666" points="447,-58 377,-58 377,-38 447,-38 447,-58"/>
<text xml:space="preserve" text-anchor="middle" x="412" y="-44.5" font-family="Helvetica,sans-Serif" font-size="10.00">SDL_strlcpy</text>
</a>
</g>
</g>
<!-- Node2&#45;&gt;Node5 -->
<g id="edge4_Node000002_Node000005" class="edge">
<title>Node2&#45;&gt;Node5</title>
<g id="a_edge4_Node000002_Node000005"><a xlink:title=" ">
<path fill="none" stroke="#63b8ff" d="M341.46,-48C349.59,-48 357.75,-48 365.48,-48"/>
<polygon fill="#63b8ff" stroke="#63b8ff" points="365.31,-51.5 375.31,-48 365.31,-44.5 365.31,-51.5"/>
</a>
</g>
</g>
<!-- Node6 -->
<g id="Node000006" class="node">
<title>Node6</title>
<g id="a_Node000006"><a xlink:href="../../d2/d23/SDL__string_8c.html#a38e76d86236f4a24cf0cc6863ec3ae9d" target="_top" xlink:title=" ">
<polygon fill="white" stroke="#666666" points="444.38,-20 379.62,-20 379.62,0 444.38,0 444.38,-20"/>
<text xml:space="preserve" text-anchor="middle" x="412" y="-6.5" font-family="Helvetica,sans-Serif" font-size="10.00">SDL_strlen</text>
</a>
</g>
</g>
<!-- Node2&#45;&gt;Node6 -->
<g id="edge5_Node000002_Node000006" class="edge">
<title>Node2&#45;&gt;Node6</title>
<g id="a_edge5_Node000002_Node000006"><a xlink:title=" ">
<path fill="none" stroke="#63b8ff" d="M313.16,-37.52C330.28,-32.7 350.68,-26.96 368.41,-21.98"/>
<polygon fill="#63b8ff" stroke="#63b8ff" points="369.2,-25.39 377.88,-19.31 367.3,-18.65 369.2,-25.39"/>
</a>
</g>
</g>
<!-- Node4 -->
<g id="Node000004" class="node">
<title>Node4</title>
<g id="a_Node000004"><a xlink:href="../../d2/da2/SDL__crc16_8c.html#aa15eca8589ad8794e7bd6a2acfe36582" target="_top" xlink:title=" ">
<polygon fill="white" stroke="#666666" points="563.5,-96 483,-96 483,-76 563.5,-76 563.5,-96"/>
<text xml:space="preserve" text-anchor="middle" x="523.25" y="-82.5" font-family="Helvetica,sans-Serif" font-size="10.00">crc16_for_byte</text>
</a>
</g>
</g>
<!-- Node3&#45;&gt;Node4 -->
<g id="edge3_Node000003_Node000004" class="edge">
<title>Node3&#45;&gt;Node4</title>
<g id="a_edge3_Node000003_Node000004"><a xlink:title=" ">
<path fill="none" stroke="#63b8ff" d="M444.6,-86C452.93,-86 462.13,-86 471.21,-86"/>
<polygon fill="#63b8ff" stroke="#63b8ff" points="471.04,-89.5 481.04,-86 471.04,-82.5 471.04,-89.5"/>
</a>
</g>
</g>
</g>
</svg>
