<?xml version="1.0" encoding="UTF-8" standalone="no"?>
<!DOCTYPE svg PUBLIC "-//W3C//DTD SVG 1.1//EN"
 "http://www.w3.org/Graphics/SVG/1.1/DTD/svg11.dtd">
<!-- Generated by graphviz version 13.1.0 (20250701.0955)
 -->
<!-- Title: SDL_VIDPIDIncludedHintChanged Pages: 1 -->
<!--zoomable 496 -->

<svg id="main" version="1.1" xmlns="http://www.w3.org/2000/svg" xmlns:xlink="http://www.w3.org/1999/xlink" xml:space="preserve" onload="init(evt)">

<style type="text/css"><![CDATA[
.node, .edge {opacity: 0.7;}
.node.selected, .edge.selected {opacity: 1;}
.edge:hover path { stroke: red; }
.edge:hover polygon { stroke: red; fill: red; }
]]></style>

<defs>
  <circle id="rim" cx="0" cy="0" r="7"/>
  <circle id="rim2" cx="0" cy="0" r="3.5"/>
  <g id="zoomPlus">
    <use xlink:href="#rim" fill="#404040"><set attributeName="fill" to="#808080" begin="zoomplus.mouseover" end="zoomplus.mouseout"/></use>
    <path d="M-4,0h8M0,-4v8" fill="none" stroke="white" stroke-width="1.5" pointer-events="none"/>
  </g>
  <g id="zoomMin">
    <use xlink:href="#rim" fill="#404040"><set attributeName="fill" to="#808080" begin="zoomminus.mouseover" end="zoomminus.mouseout"/></use>
    <path d="M-4,0h8" fill="none" stroke="white" stroke-width="1.5" pointer-events="none"/>
  </g>
  <g id="arrowUp" transform="translate(30 24)">
    <use xlink:href="#rim"/>
    <path pointer-events="none" fill="none" stroke="white" stroke-width="1.5" d="M0,-3.0v7 M-2.5,-0.5L0,-3.0L2.5,-0.5"/>
  </g>
  <g id="arrowRight" transform="rotate(90) translate(36 -43)">
    <use xlink:href="#rim"/>
    <path pointer-events="none" fill="none" stroke="white" stroke-width="1.5" d="M0,-3.0v7 M-2.5,-0.5L0,-3.0L2.5,-0.5"/>
  </g>
  <g id="arrowDown" transform="rotate(180) translate(-30 -48)">
    <use xlink:href="#rim"/>
    <path pointer-events="none" fill="none" stroke="white" stroke-width="1.5" d="M0,-3.0v7 M-2.5,-0.5L0,-3.0L2.5,-0.5"/>
  </g>
  <g id="arrowLeft" transform="rotate(270) translate(-36 17)">
    <use xlink:href="#rim"/>
    <path pointer-events="none" fill="none" stroke="white" stroke-width="1.5" d="M0,-3.0v7 M-2.5,-0.5L0,-3.0L2.5,-0.5"/>
  </g>
  <g id="resetDef">
    <use xlink:href="#rim2" fill="#404040"><set attributeName="fill" to="#808080" begin="reset.mouseover" end="reset.mouseout"/></use>
  </g>
</defs>
<script type="application/ecmascript">
var viewWidth = 1769;
var viewHeight = 496;
var sectionId = 'dynsection-225';
</script>
<script type="application/ecmascript" xlink:href="../../svg.min.js"/>
<svg id="graph" class="graph">
<g id="viewport">
<title>SDL_VIDPIDIncludedHintChanged</title>
<!-- Node1 -->
<g id="Node000001" class="node">
<title>Node1</title>
<g id="a_Node000001"><a xlink:title=" ">
<polygon fill="#999999" stroke="#666666" points="1760.5,-210 1591.5,-210 1591.5,-190 1760.5,-190 1760.5,-210"/>
<text xml:space="preserve" text-anchor="middle" x="1676" y="-196.5" font-family="Helvetica,sans-Serif" font-size="10.00">SDL_VIDPIDIncludedHintChanged</text>
</a>
</g>
</g>
<!-- Node2 -->
<g id="Node000002" class="node">
<title>Node2</title>
<g id="a_Node000002"><a xlink:href="../../d6/df9/SDL__joystick_8c.html#af07e0774f0c28c56b74454e19a1d23c7" target="_top" xlink:title=" ">
<polygon fill="white" stroke="#666666" points="1554.75,-248 1444.25,-248 1444.25,-228 1554.75,-228 1554.75,-248"/>
<text xml:space="preserve" text-anchor="middle" x="1499.5" y="-234.5" font-family="Helvetica,sans-Serif" font-size="10.00">SDL_FreeVIDPIDList</text>
</a>
</g>
</g>
<!-- Node1&#45;&gt;Node2 -->
<g id="edge1_Node000001_Node000002" class="edge">
<title>Node1&#45;&gt;Node2</title>
<g id="a_edge1_Node000001_Node000002"><a xlink:title=" ">
<path fill="none" stroke="#63b8ff" d="M1615.68,-212.92C1593.78,-217.69 1569.26,-223.03 1548.49,-227.55"/>
<polygon fill="#63b8ff" stroke="#63b8ff" points="1616.35,-216.35 1625.38,-210.81 1614.86,-209.51 1616.35,-216.35"/>
</a>
</g>
</g>
<!-- Node36 -->
<g id="Node000036" class="node">
<title>Node36</title>
<g id="a_Node000036"><a xlink:href="../../d6/df9/SDL__joystick_8c.html#a09f9b026906724ce89c67212e202c429" target="_top" xlink:title=" ">
<polygon fill="white" stroke="#666666" points="1555.5,-191 1443.5,-191 1443.5,-171 1555.5,-171 1555.5,-191"/>
<text xml:space="preserve" text-anchor="middle" x="1499.5" y="-177.5" font-family="Helvetica,sans-Serif" font-size="10.00">SDL_LoadVIDPIDList</text>
</a>
</g>
</g>
<!-- Node1&#45;&gt;Node36 -->
<g id="edge58_Node000001_Node000036" class="edge">
<title>Node1&#45;&gt;Node36</title>
<g id="a_edge58_Node000001_Node000036"><a xlink:title=" ">
<path fill="none" stroke="#63b8ff" d="M1579.78,-189.63C1571.52,-188.73 1563.36,-187.84 1555.59,-187"/>
<polygon fill="#63b8ff" stroke="#63b8ff" points="1579.25,-193.09 1589.57,-190.7 1580.01,-186.14 1579.25,-193.09"/>
</a>
</g>
</g>
<!-- Node3 -->
<g id="Node000003" class="node">
<title>Node3</title>
<g id="a_Node000003"><a xlink:href="../../d0/d82/SDL__gamepad_8c.html#a4ff6f54a3ede529f0aec10fc90823dd3" target="_top" xlink:title=" ">
<polygon fill="white" stroke="#666666" points="1407.5,-229 1264.75,-229 1264.75,-209 1407.5,-209 1407.5,-229"/>
<text xml:space="preserve" text-anchor="middle" x="1336.12" y="-215.5" font-family="Helvetica,sans-Serif" font-size="10.00">SDL_QuitGamepadMappings</text>
</a>
</g>
</g>
<!-- Node2&#45;&gt;Node3 -->
<g id="edge2_Node000002_Node000003" class="edge">
<title>Node2&#45;&gt;Node3</title>
<g id="a_edge2_Node000002_Node000003"><a xlink:title=" ">
<path fill="none" stroke="#63b8ff" d="M1432.5,-230.23C1424.33,-229.27 1415.95,-228.28 1407.72,-227.31"/>
<polygon fill="#63b8ff" stroke="#63b8ff" points="1432.02,-233.7 1442.36,-231.39 1432.84,-226.75 1432.02,-233.7"/>
</a>
</g>
</g>
<!-- Node4 -->
<g id="Node000004" class="node">
<title>Node4</title>
<g id="a_Node000004"><a xlink:href="../../d6/df9/SDL__joystick_8c.html#aa98a95583054633f27bb3bcdff5f97aa" target="_top" xlink:title=" ">
<polygon fill="white" stroke="#666666" points="1201.38,-267 1100.62,-267 1100.62,-247 1201.38,-247 1201.38,-267"/>
<text xml:space="preserve" text-anchor="middle" x="1151" y="-253.5" font-family="Helvetica,sans-Serif" font-size="10.00">SDL_QuitJoysticks</text>
</a>
</g>
</g>
<!-- Node2&#45;&gt;Node4 -->
<g id="edge56_Node000002_Node000004" class="edge">
<title>Node2&#45;&gt;Node4</title>
<g id="a_edge56_Node000002_Node000004"><a xlink:title=" ">
<path fill="none" stroke="#63b8ff" d="M1432.68,-241.61C1365.41,-245.3 1262.45,-250.94 1201.71,-254.27"/>
<polygon fill="#63b8ff" stroke="#63b8ff" points="1432.67,-245.11 1442.47,-241.07 1432.29,-238.13 1432.67,-245.11"/>
</a>
</g>
</g>
<!-- Node11 -->
<g id="Node000011" class="node">
<title>Node11</title>
<g id="a_Node000011"><a xlink:href="../../d6/df9/SDL__joystick_8c.html#a497945f75b33dbfcde319992145025c5" target="_top" xlink:title=" ">
<polygon fill="white" stroke="#666666" points="535.12,-343 394.62,-343 394.62,-323 535.12,-323 535.12,-343"/>
<text xml:space="preserve" text-anchor="middle" x="464.88" y="-329.5" font-family="Helvetica,sans-Serif" font-size="10.00">ShouldAttemptSensorFusion</text>
</a>
</g>
</g>
<!-- Node2&#45;&gt;Node11 -->
<g id="edge57_Node000002_Node000011" class="edge">
<title>Node2&#45;&gt;Node11</title>
<g id="a_edge57_Node000002_Node000011"><a xlink:title=" ">
<path fill="none" stroke="#63b8ff" d="M1478.92,-255.81C1428.65,-299.61 1289.36,-409 1152,-409 1152,-409 1152,-409 834.5,-409 723.62,-409 685.86,-437.66 585.75,-390 564.74,-380 569.97,-363.51 549.75,-352 543.65,-348.53 536.97,-345.69 530.11,-343.37"/>
<polygon fill="#63b8ff" stroke="#63b8ff" points="1480.95,-258.69 1486.11,-249.44 1476.31,-253.45 1480.95,-258.69"/>
</a>
</g>
</g>
<!-- Node3&#45;&gt;Node4 -->
<g id="edge3_Node000003_Node000004" class="edge">
<title>Node3&#45;&gt;Node4</title>
<g id="a_edge3_Node000003_Node000004"><a xlink:title=" ">
<path fill="none" stroke="#63b8ff" d="M1273.41,-231.81C1250.07,-236.65 1223.83,-242.1 1201.73,-246.68"/>
<polygon fill="#63b8ff" stroke="#63b8ff" points="1274.04,-235.25 1283.12,-229.79 1272.62,-228.4 1274.04,-235.25"/>
</a>
</g>
</g>
<!-- Node35 -->
<g id="Node000035" class="node">
<title>Node35</title>
<g id="a_Node000035"><a xlink:href="../../d0/d82/SDL__gamepad_8c.html#aa0b42b7cf85ac2816ef94f66ba9c8d4f" target="_top" xlink:title=" ">
<polygon fill="white" stroke="#666666" points="1228.75,-229 1073.25,-229 1073.25,-209 1228.75,-209 1228.75,-229"/>
<text xml:space="preserve" text-anchor="middle" x="1151" y="-215.5" font-family="Helvetica,sans-Serif" font-size="10.00">SDL_ReloadGamepadMappings</text>
</a>
</g>
</g>
<!-- Node3&#45;&gt;Node35 -->
<g id="edge55_Node000003_Node000035" class="edge">
<title>Node3&#45;&gt;Node35</title>
<g id="a_edge55_Node000003_Node000035"><a xlink:title=" ">
<path fill="none" stroke="#63b8ff" d="M1253.08,-219C1245.07,-219 1236.96,-219 1228.99,-219"/>
<polygon fill="#63b8ff" stroke="#63b8ff" points="1252.81,-222.5 1262.81,-219 1252.81,-215.5 1252.81,-222.5"/>
</a>
</g>
</g>
<!-- Node5 -->
<g id="Node000005" class="node">
<title>Node5</title>
<g id="a_Node000005"><a xlink:href="../../d6/df9/SDL__joystick_8c.html#a9340afa4acb6b0fad4affbb99d4fa014" target="_top" xlink:title=" ">
<polygon fill="white" stroke="#666666" points="1030.5,-153 934.25,-153 934.25,-133 1030.5,-133 1030.5,-153"/>
<text xml:space="preserve" text-anchor="middle" x="982.38" y="-139.5" font-family="Helvetica,sans-Serif" font-size="10.00">SDL_InitJoysticks</text>
</a>
</g>
</g>
<!-- Node4&#45;&gt;Node5 -->
<g id="edge4_Node000004_Node000005" class="edge">
<title>Node4&#45;&gt;Node5</title>
<g id="a_edge4_Node000004_Node000005"><a xlink:title=" ">
<path fill="none" stroke="#63b8ff" d="M1089.91,-245.71C1084.09,-243.57 1078.44,-241.03 1073.25,-238 1035.4,-215.93 1003.54,-173.14 990.15,-153.42"/>
<polygon fill="#63b8ff" stroke="#63b8ff" points="1088.44,-248.92 1099.03,-248.68 1090.61,-242.26 1088.44,-248.92"/>
</a>
</g>
</g>
<!-- Node22 -->
<g id="Node000022" class="node">
<title>Node22</title>
<g id="a_Node000022"><a xlink:href="../../df/d78/SDL_8c.html#a60aa8a910b5236e9eded873051707374" target="_top" xlink:title=" ">
<polygon fill="white" stroke="#666666" points="1037.25,-267 927.5,-267 927.5,-247 1037.25,-247 1037.25,-267"/>
<text xml:space="preserve" text-anchor="middle" x="982.38" y="-253.5" font-family="Helvetica,sans-Serif" font-size="10.00">SDL_QuitSubSystem</text>
</a>
</g>
</g>
<!-- Node4&#45;&gt;Node22 -->
<g id="edge26_Node000004_Node000022" class="edge">
<title>Node4&#45;&gt;Node22</title>
<g id="a_edge26_Node000004_Node000022"><a xlink:title=" ">
<path fill="none" stroke="#63b8ff" d="M1089.06,-250.47C1072.23,-250.13 1054.09,-250.18 1037.67,-250.63"/>
<polygon fill="#63b8ff" stroke="#63b8ff" points="1088.86,-253.97 1098.95,-250.73 1089.04,-246.97 1088.86,-253.97"/>
</a>
</g>
</g>
<!-- Node6 -->
<g id="Node000006" class="node">
<title>Node6</title>
<g id="a_Node000006"><a xlink:href="../../df/d78/SDL_8c.html#aa33d2b8c0a69b16651f78c26f391b6ef" target="_top" xlink:title=" ">
<polygon fill="white" stroke="#666666" points="888.12,-115 782.88,-115 782.88,-95 888.12,-95 888.12,-115"/>
<text xml:space="preserve" text-anchor="middle" x="835.5" y="-101.5" font-family="Helvetica,sans-Serif" font-size="10.00">SDL_InitSubSystem</text>
</a>
</g>
</g>
<!-- Node5&#45;&gt;Node6 -->
<g id="edge5_Node000005_Node000006" class="edge">
<title>Node5&#45;&gt;Node6</title>
<g id="a_edge5_Node000005_Node000006"><a xlink:title=" ">
<path fill="none" stroke="#63b8ff" d="M949.61,-128.97C931.74,-123.24 908.98,-117 888.56,-112.15"/>
<polygon fill="#63b8ff" stroke="#63b8ff" points="948.28,-132.22 958.87,-132.07 950.5,-125.58 948.28,-132.22"/>
</a>
</g>
</g>
<!-- Node6&#45;&gt;Node5 -->
<g id="edge17_Node000006_Node000005" class="edge">
<title>Node6&#45;&gt;Node5</title>
<g id="a_edge17_Node000006_Node000005"><a xlink:title=" ">
<path fill="none" stroke="#63b8ff" d="M868.21,-119.01C887.45,-125.18 912.38,-131.95 933.94,-136.94"/>
<polygon fill="#63b8ff" stroke="#63b8ff" points="869.35,-115.7 858.75,-115.85 867.13,-122.34 869.35,-115.7"/>
</a>
</g>
</g>
<!-- Node7 -->
<g id="Node000007" class="node">
<title>Node7</title>
<g id="a_Node000007"><a xlink:href="../../d6/df9/SDL__joystick_8c.html#a7d2531dc4fbc8de52a29ac3ec171a495" target="_top" xlink:title=" ">
<polygon fill="white" stroke="#666666" points="719.88,-191 609.38,-191 609.38,-171 719.88,-171 719.88,-191"/>
<text xml:space="preserve" text-anchor="middle" x="664.62" y="-177.5" font-family="Helvetica,sans-Serif" font-size="10.00">AttemptSensorFusion</text>
</a>
</g>
</g>
<!-- Node6&#45;&gt;Node7 -->
<g id="edge6_Node000006_Node000007" class="edge">
<title>Node6&#45;&gt;Node7</title>
<g id="a_edge6_Node000006_Node000007"><a xlink:title=" ">
<path fill="none" stroke="#63b8ff" d="M786.1,-120.18C783.82,-121.37 781.6,-122.64 779.5,-124 759.95,-136.6 763.62,-150.32 743.5,-162 736.28,-166.19 728.16,-169.46 719.97,-172.01"/>
<polygon fill="#63b8ff" stroke="#63b8ff" points="787.38,-123.44 795.02,-116.1 784.47,-117.08 787.38,-123.44"/>
</a>
</g>
</g>
<!-- Node10 -->
<g id="Node000010" class="node">
<title>Node10</title>
<g id="a_Node000010"><a xlink:href="../../d6/df9/SDL__joystick_8c.html#a94fd638a34a769ff6a7a01738257215c" target="_top" xlink:title=" ">
<polygon fill="white" stroke="#666666" points="696.25,-229 633,-229 633,-209 696.25,-209 696.25,-229"/>
<text xml:space="preserve" text-anchor="middle" x="664.62" y="-215.5" font-family="Helvetica,sans-Serif" font-size="10.00">IsROGAlly</text>
</a>
</g>
</g>
<!-- Node6&#45;&gt;Node10 -->
<g id="edge9_Node000006_Node000010" class="edge">
<title>Node6&#45;&gt;Node10</title>
<g id="a_edge9_Node000006_Node000010"><a xlink:title=" ">
<path fill="none" stroke="#63b8ff" d="M782.88,-121.24C781.71,-122.11 780.58,-123.03 779.5,-124 751.66,-148.94 772.47,-176.39 743.5,-200 730.34,-210.73 712.04,-215.54 696.48,-217.65"/>
<polygon fill="#63b8ff" stroke="#63b8ff" points="784.5,-124.36 791.26,-116.2 780.89,-118.36 784.5,-124.36"/>
</a>
</g>
</g>
<!-- Node12 -->
<g id="Node000012" class="node">
<title>Node12</title>
<g id="a_Node000012"><a xlink:href="../../df/d78/SDL_8c.html#ac25d0ce460db43ca8c7681eb8e7c5007" target="_top" xlink:title=" ">
<polygon fill="white" stroke="#666666" points="691.75,-39 637.5,-39 637.5,-19 691.75,-19 691.75,-39"/>
<text xml:space="preserve" text-anchor="middle" x="664.62" y="-25.5" font-family="Helvetica,sans-Serif" font-size="10.00">SDL_Init</text>
</a>
</g>
</g>
<!-- Node6&#45;&gt;Node12 -->
<g id="edge12_Node000006_Node000012" class="edge">
<title>Node6&#45;&gt;Node12</title>
<g id="a_edge12_Node000006_Node000012"><a xlink:title=" ">
<path fill="none" stroke="#63b8ff" d="M812.1,-88.11C794.33,-75.43 768.42,-58.52 743.5,-48 726.96,-41.02 707.32,-36.25 691.89,-33.23"/>
<polygon fill="#63b8ff" stroke="#63b8ff" points="809.71,-90.69 819.85,-93.75 813.83,-85.04 809.71,-90.69"/>
</a>
</g>
</g>
<!-- Node17 -->
<g id="Node000017" class="node">
<title>Node17</title>
<g id="a_Node000017"><a xlink:href="../../d9/d78/SDL__main__callbacks_8c.html#a3d21b5bf7aa441418de48c5b2856336a" target="_top" xlink:title=" ">
<polygon fill="white" stroke="#666666" points="524.25,-134 405.5,-134 405.5,-114 524.25,-114 524.25,-134"/>
<text xml:space="preserve" text-anchor="middle" x="464.88" y="-120.5" font-family="Helvetica,sans-Serif" font-size="10.00">SDL_InitMainCallbacks</text>
</a>
</g>
</g>
<!-- Node6&#45;&gt;Node17 -->
<g id="edge18_Node000006_Node000017" class="edge">
<title>Node6&#45;&gt;Node17</title>
<g id="a_edge18_Node000006_Node000017"><a xlink:title=" ">
<path fill="none" stroke="#63b8ff" d="M771.3,-108.26C702.11,-111.82 592.04,-117.5 524.65,-120.97"/>
<polygon fill="#63b8ff" stroke="#63b8ff" points="771.15,-111.77 780.96,-107.76 770.79,-104.78 771.15,-111.77"/>
</a>
</g>
</g>
<!-- Node19 -->
<g id="Node000019" class="node">
<title>Node19</title>
<g id="a_Node000019"><a xlink:href="../../df/d78/SDL_8c.html#a8f0bf712ad7ba759f5b6e04e683c67d4" target="_top" xlink:title=" ">
<polygon fill="white" stroke="#666666" points="743.5,-77 585.75,-77 585.75,-57 743.5,-57 743.5,-77"/>
<text xml:space="preserve" text-anchor="middle" x="664.62" y="-63.5" font-family="Helvetica,sans-Serif" font-size="10.00">SDL_InitOrIncrementSubsystem</text>
</a>
</g>
</g>
<!-- Node6&#45;&gt;Node19 -->
<g id="edge20_Node000006_Node000019" class="edge">
<title>Node6&#45;&gt;Node19</title>
<g id="a_edge20_Node000006_Node000019"><a xlink:title=" ">
<path fill="none" stroke="#63b8ff" d="M799.07,-91.41C782.39,-86.78 761.8,-81.78 741.82,-77.42"/>
<polygon fill="#63b8ff" stroke="#63b8ff" points="797.91,-94.72 808.49,-94.13 799.85,-87.99 797.91,-94.72"/>
</a>
</g>
</g>
<!-- Node20 -->
<g id="Node000020" class="node">
<title>Node20</title>
<g id="a_Node000020"><a xlink:href="../../dc/de1/SDL__sensor_8c.html#abdb7d6b73a301a2c8558ba80edb32331" target="_top" xlink:title=" ">
<polygon fill="white" stroke="#666666" points="709.75,-153 619.5,-153 619.5,-133 709.75,-133 709.75,-153"/>
<text xml:space="preserve" text-anchor="middle" x="664.62" y="-139.5" font-family="Helvetica,sans-Serif" font-size="10.00">SDL_InitSensors</text>
</a>
</g>
</g>
<!-- Node6&#45;&gt;Node20 -->
<g id="edge22_Node000006_Node000020" class="edge">
<title>Node6&#45;&gt;Node20</title>
<g id="a_edge22_Node000006_Node000020"><a xlink:title=" ">
<path fill="none" stroke="#63b8ff" d="M771.37,-112.65C743.01,-118.5 711.21,-126.21 689.96,-132.61"/>
<polygon fill="#63b8ff" stroke="#63b8ff" points="771.86,-116.12 780.97,-110.72 770.48,-109.26 771.86,-116.12"/>
</a>
</g>
</g>
<!-- Node21 -->
<g id="Node000021" class="node">
<title>Node21</title>
<g id="a_Node000021"><a xlink:href="../../d6/d3d/SDL__video_8c.html#ac61dc66ab71d039f9b681916d0fcbc6e" target="_top" xlink:title=" ">
<polygon fill="white" stroke="#666666" points="704.12,-267 625.12,-267 625.12,-247 704.12,-247 704.12,-267"/>
<text xml:space="preserve" text-anchor="middle" x="664.62" y="-253.5" font-family="Helvetica,sans-Serif" font-size="10.00">SDL_VideoInit</text>
</a>
</g>
</g>
<!-- Node6&#45;&gt;Node21 -->
<g id="edge24_Node000006_Node000021" class="edge">
<title>Node6&#45;&gt;Node21</title>
<g id="a_edge24_Node000006_Node000021"><a xlink:title=" ">
<path fill="none" stroke="#63b8ff" d="M775.28,-120.74C747.65,-158.63 779.57,-195.25 743.5,-229 733.03,-238.79 718.38,-243.78 704.61,-246.83"/>
<polygon fill="#63b8ff" stroke="#63b8ff" points="777.82,-123.15 781.64,-113.27 772.49,-118.61 777.82,-123.15"/>
</a>
</g>
</g>
<!-- Node8 -->
<g id="Node000008" class="node">
<title>Node8</title>
<g id="a_Node000008"><a xlink:href="../../d6/df9/SDL__joystick_8c.html#a0c867d96ec6bc9c3aca87c8ee6b53ade" target="_top" xlink:title=" ">
<polygon fill="white" stroke="#666666" points="321.5,-362 220.75,-362 220.75,-342 321.5,-342 321.5,-362"/>
<text xml:space="preserve" text-anchor="middle" x="271.12" y="-348.5" font-family="Helvetica,sans-Serif" font-size="10.00">SDL_OpenJoystick</text>
</a>
</g>
</g>
<!-- Node7&#45;&gt;Node8 -->
<g id="edge7_Node000007_Node000008" class="edge">
<title>Node7&#45;&gt;Node8</title>
<g id="a_edge7_Node000007_Node000008"><a xlink:title=" ">
<path fill="none" stroke="#63b8ff" d="M597.75,-170.15C537.2,-163.56 446.96,-162.53 380,-200 364.89,-208.46 299.66,-308.99 278.66,-341.75"/>
<polygon fill="#63b8ff" stroke="#63b8ff" points="597.23,-173.62 607.57,-171.31 598.05,-166.67 597.23,-173.62"/>
</a>
</g>
</g>
<!-- Node9 -->
<g id="Node000009" class="node">
<title>Node9</title>
<g id="a_Node000009"><a xlink:href="../../d0/d82/SDL__gamepad_8c.html#a011496690758b66ec0f7098f030b6d85" target="_top" xlink:title=" ">
<polygon fill="white" stroke="#666666" points="134.12,-390 28.12,-390 28.12,-370 134.12,-370 134.12,-390"/>
<text xml:space="preserve" text-anchor="middle" x="81.12" y="-376.5" font-family="Helvetica,sans-Serif" font-size="10.00">SDL_OpenGamepad</text>
</a>
</g>
</g>
<!-- Node8&#45;&gt;Node9 -->
<g id="edge8_Node000008_Node000009" class="edge">
<title>Node8&#45;&gt;Node9</title>
<g id="a_edge8_Node000008_Node000009"><a xlink:title=" ">
<path fill="none" stroke="#63b8ff" d="M209.53,-361.03C185.34,-364.63 157.77,-368.73 134.48,-372.2"/>
<polygon fill="#63b8ff" stroke="#63b8ff" points="209.86,-364.51 219.23,-359.58 208.83,-357.59 209.86,-364.51"/>
</a>
</g>
</g>
<!-- Node10&#45;&gt;Node11 -->
<g id="edge10_Node000010_Node000011" class="edge">
<title>Node10&#45;&gt;Node11</title>
<g id="a_edge10_Node000010_Node000011"><a xlink:title=" ">
<path fill="none" stroke="#63b8ff" d="M621.48,-222.32C608.92,-225.04 595.83,-229.79 585.75,-238 556.78,-261.61 578.92,-290.63 549.75,-314 545.44,-317.45 540.62,-320.31 535.54,-322.66"/>
<polygon fill="#63b8ff" stroke="#63b8ff" points="622.03,-225.78 631.28,-220.61 620.83,-218.88 622.03,-225.78"/>
</a>
</g>
</g>
<!-- Node11&#45;&gt;Node8 -->
<g id="edge11_Node000011_Node000008" class="edge">
<title>Node11&#45;&gt;Node8</title>
<g id="a_edge11_Node000011_Node000008"><a xlink:title=" ">
<path fill="none" stroke="#63b8ff" d="M382.97,-341.02C362.22,-343.07 340.51,-345.22 321.86,-347.07"/>
<polygon fill="#63b8ff" stroke="#63b8ff" points="383.27,-344.5 392.87,-340.04 382.58,-337.54 383.27,-344.5"/>
</a>
</g>
</g>
<!-- Node13 -->
<g id="Node000013" class="node">
<title>Node13</title>
<g id="a_Node000013"><a xlink:href="../../d6/d3d/SDL__video_8c.html#a9f3d88531134e2c3e575a3c2db7f8488" target="_top" xlink:title=" ">
<polygon fill="white" stroke="#666666" points="549.75,-39 380,-39 380,-19 549.75,-19 549.75,-39"/>
<text xml:space="preserve" text-anchor="middle" x="464.88" y="-25.5" font-family="Helvetica,sans-Serif" font-size="10.00">SDL_CreateWindowWithProperties</text>
</a>
</g>
</g>
<!-- Node12&#45;&gt;Node13 -->
<g id="edge13_Node000012_Node000013" class="edge">
<title>Node12&#45;&gt;Node13</title>
<g id="a_edge13_Node000012_Node000013"><a xlink:title=" ">
<path fill="none" stroke="#63b8ff" d="M626.12,-29C604.59,-29 576.64,-29 550.13,-29"/>
<polygon fill="#63b8ff" stroke="#63b8ff" points="625.85,-32.5 635.85,-29 625.85,-25.5 625.85,-32.5"/>
</a>
</g>
</g>
<!-- Node14 -->
<g id="Node000014" class="node">
<title>Node14</title>
<g id="a_Node000014"><a xlink:href="../../d6/d3d/SDL__video_8c.html#acc26de39ce1bd675446e4d6c05ebf4b0" target="_top" xlink:title=" ">
<polygon fill="white" stroke="#666666" points="337.62,-20 204.62,-20 204.62,0 337.62,0 337.62,-20"/>
<text xml:space="preserve" text-anchor="middle" x="271.12" y="-6.5" font-family="Helvetica,sans-Serif" font-size="10.00">SDL_CreatePopupWindow</text>
</a>
</g>
</g>
<!-- Node13&#45;&gt;Node14 -->
<g id="edge14_Node000013_Node000014" class="edge">
<title>Node13&#45;&gt;Node14</title>
<g id="a_edge14_Node000013_Node000014"><a xlink:title=" ">
<path fill="none" stroke="#63b8ff" d="M368.58,-19.56C358.23,-18.53 347.88,-17.51 338.01,-16.53"/>
<polygon fill="#63b8ff" stroke="#63b8ff" points="367.97,-23.01 378.26,-20.52 368.66,-16.05 367.97,-23.01"/>
</a>
</g>
</g>
<!-- Node15 -->
<g id="Node000015" class="node">
<title>Node15</title>
<g id="a_Node000015"><a xlink:href="../../d6/d3d/SDL__video_8c.html#a83103c86f9e5c33ab9e1fb6dfa904b7f" target="_top" xlink:title=" ">
<polygon fill="white" stroke="#666666" points="323.75,-58 218.5,-58 218.5,-38 323.75,-38 323.75,-58"/>
<text xml:space="preserve" text-anchor="middle" x="271.12" y="-44.5" font-family="Helvetica,sans-Serif" font-size="10.00">SDL_CreateWindow</text>
</a>
</g>
</g>
<!-- Node13&#45;&gt;Node15 -->
<g id="edge15_Node000013_Node000015" class="edge">
<title>Node13&#45;&gt;Node15</title>
<g id="a_edge15_Node000013_Node000015"><a xlink:title=" ">
<path fill="none" stroke="#63b8ff" d="M368.64,-38.44C353.31,-39.96 337.96,-41.48 324.16,-42.84"/>
<polygon fill="#63b8ff" stroke="#63b8ff" points="368.66,-41.95 378.26,-37.48 367.97,-34.99 368.66,-41.95"/>
</a>
</g>
</g>
<!-- Node16 -->
<g id="Node000016" class="node">
<title>Node16</title>
<g id="a_Node000016"><a xlink:href="../../dd/df3/SDL__render_8c.html#a36f859fae15e4277ba052f9ecfb2816d" target="_top" xlink:title=" ">
<polygon fill="white" stroke="#666666" points="162.25,-58 0,-58 0,-38 162.25,-38 162.25,-58"/>
<text xml:space="preserve" text-anchor="middle" x="81.12" y="-44.5" font-family="Helvetica,sans-Serif" font-size="10.00">SDL_CreateWindowAndRenderer</text>
</a>
</g>
</g>
<!-- Node15&#45;&gt;Node16 -->
<g id="edge16_Node000015_Node000016" class="edge">
<title>Node15&#45;&gt;Node16</title>
<g id="a_edge16_Node000015_Node000016"><a xlink:title=" ">
<path fill="none" stroke="#63b8ff" d="M207.1,-48C192.87,-48 177.58,-48 162.74,-48"/>
<polygon fill="#63b8ff" stroke="#63b8ff" points="206.74,-51.5 216.74,-48 206.74,-44.5 206.74,-51.5"/>
</a>
</g>
</g>
<!-- Node18 -->
<g id="Node000018" class="node">
<title>Node18</title>
<g id="a_Node000018"><a xlink:href="../../dd/db5/generic_2SDL__sysmain__callbacks_8c.html#aa50e1897a91f2547b5f31125020220e2" target="_top" xlink:title=" ">
<polygon fill="white" stroke="#666666" points="344,-229 198.25,-229 198.25,-209 344,-209 344,-229"/>
<text xml:space="preserve" text-anchor="middle" x="271.12" y="-215.5" font-family="Helvetica,sans-Serif" font-size="10.00">SDL_EnterAppMainCallbacks</text>
</a>
</g>
</g>
<!-- Node17&#45;&gt;Node18 -->
<g id="edge19_Node000017_Node000018" class="edge">
<title>Node17&#45;&gt;Node18</title>
<g id="a_edge19_Node000017_Node000018"><a xlink:title=" ">
<path fill="none" stroke="#63b8ff" d="M432.69,-139.45C393.44,-158.9 327.07,-191.78 293.28,-208.52"/>
<polygon fill="#63b8ff" stroke="#63b8ff" points="434.23,-142.6 441.63,-135.02 431.12,-136.32 434.23,-142.6"/>
</a>
</g>
</g>
<!-- Node19&#45;&gt;Node6 -->
<g id="edge21_Node000019_Node000006" class="edge">
<title>Node19&#45;&gt;Node6</title>
<g id="a_edge21_Node000019_Node000006"><a xlink:title=" ">
<path fill="none" stroke="#63b8ff" d="M700.86,-80.53C724.47,-87.1 755.97,-94.41 782.45,-99.58"/>
<polygon fill="#63b8ff" stroke="#63b8ff" points="701.99,-77.22 691.41,-77.81 700.05,-83.94 701.99,-77.22"/>
</a>
</g>
</g>
<!-- Node20&#45;&gt;Node6 -->
<g id="edge23_Node000020_Node000006" class="edge">
<title>Node20&#45;&gt;Node6</title>
<g id="a_edge23_Node000020_Node000006"><a xlink:title=" ">
<path fill="none" stroke="#63b8ff" d="M721.39,-136.84C751.37,-130.88 786.83,-122.41 809.94,-115.45"/>
<polygon fill="#63b8ff" stroke="#63b8ff" points="720.84,-133.38 711.69,-138.71 722.17,-140.26 720.84,-133.38"/>
</a>
</g>
</g>
<!-- Node21&#45;&gt;Node6 -->
<g id="edge25_Node000021_Node000006" class="edge">
<title>Node21&#45;&gt;Node6</title>
<g id="a_edge25_Node000021_Node000006"><a xlink:title=" ">
<path fill="none" stroke="#63b8ff" d="M715.67,-261.47C725.87,-258.79 735.81,-254.19 743.5,-247 782.3,-210.7 742.44,-171.07 779.5,-133 788.52,-123.73 802.27,-118.98 813.77,-115.43"/>
<polygon fill="#63b8ff" stroke="#63b8ff" points="715.22,-257.99 706.09,-263.37 716.58,-264.86 715.22,-257.99"/>
</a>
</g>
</g>
<!-- Node22&#45;&gt;Node4 -->
<g id="edge46_Node000022_Node000004" class="edge">
<title>Node22&#45;&gt;Node4</title>
<g id="a_edge46_Node000022_Node000004"><a xlink:title=" ">
<path fill="none" stroke="#63b8ff" d="M1048.79,-263.61C1065.98,-263.88 1084.25,-263.76 1100.46,-263.23"/>
<polygon fill="#63b8ff" stroke="#63b8ff" points="1049.26,-260.12 1039.19,-263.4 1049.11,-267.12 1049.26,-260.12"/>
</a>
</g>
</g>
<!-- Node22&#45;&gt;Node6 -->
<g id="edge37_Node000022_Node000006" class="edge">
<title>Node22&#45;&gt;Node6</title>
<g id="a_edge37_Node000022_Node000006"><a xlink:title=" ">
<path fill="none" stroke="#63b8ff" d="M969.77,-236.61C950.55,-203.43 912.16,-139.85 891.5,-124 887.09,-120.62 882.04,-117.81 876.82,-115.49"/>
<polygon fill="#63b8ff" stroke="#63b8ff" points="966.73,-238.35 974.75,-245.27 972.8,-234.86 966.73,-238.35"/>
</a>
</g>
</g>
<!-- Node22&#45;&gt;Node7 -->
<g id="edge27_Node000022_Node000007" class="edge">
<title>Node22&#45;&gt;Node7</title>
<g id="a_edge27_Node000022_Node000007"><a xlink:title=" ">
<path fill="none" stroke="#63b8ff" d="M947.81,-242.16C931.14,-235.25 910.53,-227.38 891.5,-222 833.97,-205.74 766.31,-194.46 720.14,-187.9"/>
<polygon fill="#63b8ff" stroke="#63b8ff" points="946.18,-245.27 956.75,-245.94 948.9,-238.82 946.18,-245.27"/>
</a>
</g>
</g>
<!-- Node22&#45;&gt;Node10 -->
<g id="edge36_Node000022_Node000010" class="edge">
<title>Node22&#45;&gt;Node10</title>
<g id="a_edge36_Node000022_Node000010"><a xlink:title=" ">
<path fill="none" stroke="#63b8ff" d="M926.08,-244.18C914.69,-241.86 902.74,-239.65 891.5,-238 822.2,-227.8 740.07,-222.6 696.45,-220.38"/>
<polygon fill="#63b8ff" stroke="#63b8ff" points="925.24,-247.58 935.75,-246.21 926.68,-240.73 925.24,-247.58"/>
</a>
</g>
</g>
<!-- Node22&#45;&gt;Node21 -->
<g id="edge51_Node000022_Node000021" class="edge">
<title>Node22&#45;&gt;Node21</title>
<g id="a_edge51_Node000022_Node000021"><a xlink:title=" ">
<path fill="none" stroke="#63b8ff" d="M929.8,-269.82C917.34,-272.39 904.01,-274.69 891.5,-276 841.99,-281.18 829.11,-280.11 779.5,-276 754.33,-273.91 726.35,-269.28 704.43,-265.11"/>
<polygon fill="#63b8ff" stroke="#63b8ff" points="930.43,-273.27 939.47,-267.74 928.95,-266.43 930.43,-273.27"/>
</a>
</g>
</g>
<!-- Node22&#45;&gt;Node22 -->
<g id="edge50_Node000022_Node000022" class="edge">
<title>Node22&#45;&gt;Node22</title>
<g id="a_edge50_Node000022_Node000022"><a xlink:title=" ">
<path fill="none" stroke="#63b8ff" d="M1008.33,-278.44C1004.99,-282.3 996.34,-285 982.38,-285 956.84,-285 949.07,-275.98 959.04,-267.34"/>
<polygon fill="#63b8ff" stroke="#63b8ff" points="1011.76,-277.74 1006.06,-268.81 1004.95,-279.35 1011.76,-277.74"/>
</a>
</g>
</g>
<!-- Node23 -->
<g id="Node000023" class="node">
<title>Node23</title>
<g id="a_Node000023"><a xlink:href="../../d6/df9/SDL__joystick_8c.html#ac0722362ebd0ebecebff12499774b471" target="_top" xlink:title=" ">
<polygon fill="white" stroke="#666666" points="891.5,-381 779.5,-381 779.5,-361 891.5,-361 891.5,-381"/>
<text xml:space="preserve" text-anchor="middle" x="835.5" y="-367.5" font-family="Helvetica,sans-Serif" font-size="10.00">CleanupSensorFusion</text>
</a>
</g>
</g>
<!-- Node22&#45;&gt;Node23 -->
<g id="edge28_Node000022_Node000023" class="edge">
<title>Node22&#45;&gt;Node23</title>
<g id="a_edge28_Node000022_Node000023"><a xlink:title=" ">
<path fill="none" stroke="#63b8ff" d="M967.53,-276.49C951.47,-297.79 923.12,-331.6 891.5,-352 886.32,-355.34 880.49,-358.17 874.61,-360.54"/>
<polygon fill="#63b8ff" stroke="#63b8ff" points="970.2,-278.76 973.3,-268.63 964.56,-274.62 970.2,-278.76"/>
</a>
</g>
</g>
<!-- Node27 -->
<g id="Node000027" class="node">
<title>Node27</title>
<g id="a_Node000027"><a xlink:href="../../df/d78/SDL_8c.html#abf064fcc4a657a30db8eace18633f362" target="_top" xlink:title=" ">
<polygon fill="white" stroke="#666666" points="864.88,-343 806.12,-343 806.12,-323 864.88,-323 864.88,-343"/>
<text xml:space="preserve" text-anchor="middle" x="835.5" y="-329.5" font-family="Helvetica,sans-Serif" font-size="10.00">SDL_Quit</text>
</a>
</g>
</g>
<!-- Node22&#45;&gt;Node27 -->
<g id="edge38_Node000022_Node000027" class="edge">
<title>Node22&#45;&gt;Node27</title>
<g id="a_edge38_Node000022_Node000027"><a xlink:title=" ">
<path fill="none" stroke="#63b8ff" d="M955.17,-273.22C937.47,-283.9 913.42,-297.92 891.5,-309 882.02,-313.79 871.36,-318.58 861.97,-322.6"/>
<polygon fill="#63b8ff" stroke="#63b8ff" points="956.78,-276.33 963.5,-268.14 953.14,-270.35 956.78,-276.33"/>
</a>
</g>
</g>
<!-- Node33 -->
<g id="Node000033" class="node">
<title>Node33</title>
<g id="a_Node000033"><a xlink:href="../../dc/de1/SDL__sensor_8c.html#af97faaba22b06bf9fc16804bfc2ae7df" target="_top" xlink:title=" ">
<polygon fill="white" stroke="#666666" points="882.88,-153 788.12,-153 788.12,-133 882.88,-133 882.88,-153"/>
<text xml:space="preserve" text-anchor="middle" x="835.5" y="-139.5" font-family="Helvetica,sans-Serif" font-size="10.00">SDL_QuitSensors</text>
</a>
</g>
</g>
<!-- Node22&#45;&gt;Node33 -->
<g id="edge47_Node000022_Node000033" class="edge">
<title>Node22&#45;&gt;Node33</title>
<g id="a_edge47_Node000022_Node000033"><a xlink:title=" ">
<path fill="none" stroke="#63b8ff" d="M970.43,-237.16C954.68,-214.95 923.94,-180.13 891.5,-158 888.92,-156.24 886.19,-154.56 883.37,-152.98"/>
<polygon fill="#63b8ff" stroke="#63b8ff" points="967.45,-239 975.89,-245.4 973.28,-235.13 967.45,-239"/>
</a>
</g>
</g>
<!-- Node34 -->
<g id="Node000034" class="node">
<title>Node34</title>
<g id="a_Node000034"><a xlink:href="../../d6/d3d/SDL__video_8c.html#ae86d31ef3c6aad24cd4d0da9a9551906" target="_top" xlink:title=" ">
<polygon fill="white" stroke="#666666" points="877.25,-267 793.75,-267 793.75,-247 877.25,-247 877.25,-267"/>
<text xml:space="preserve" text-anchor="middle" x="835.5" y="-253.5" font-family="Helvetica,sans-Serif" font-size="10.00">SDL_VideoQuit</text>
</a>
</g>
</g>
<!-- Node22&#45;&gt;Node34 -->
<g id="edge52_Node000022_Node000034" class="edge">
<title>Node22&#45;&gt;Node34</title>
<g id="a_edge52_Node000022_Node000034"><a xlink:title=" ">
<path fill="none" stroke="#63b8ff" d="M915.72,-250.28C902.74,-250.18 889.46,-250.37 877.58,-250.85"/>
<polygon fill="#63b8ff" stroke="#63b8ff" points="915.45,-253.77 925.5,-250.42 915.56,-246.77 915.45,-253.77"/>
</a>
</g>
</g>
<!-- Node24 -->
<g id="Node000024" class="node">
<title>Node24</title>
<g id="a_Node000024"><a xlink:href="../../d6/df9/SDL__joystick_8c.html#aadf2e0eabb7fee1784bced6566d2f2ee" target="_top" xlink:title=" ">
<polygon fill="white" stroke="#666666" points="716.12,-457 613.12,-457 613.12,-437 716.12,-437 716.12,-457"/>
<text xml:space="preserve" text-anchor="middle" x="664.62" y="-443.5" font-family="Helvetica,sans-Serif" font-size="10.00">SDL_CloseJoystick</text>
</a>
</g>
</g>
<!-- Node23&#45;&gt;Node24 -->
<g id="edge29_Node000023_Node000024" class="edge">
<title>Node23&#45;&gt;Node24</title>
<g id="a_edge29_Node000023_Node000024"><a xlink:title=" ">
<path fill="none" stroke="#63b8ff" d="M801.23,-385.97C768.02,-400.92 717.84,-423.5 688.74,-436.6"/>
<polygon fill="#63b8ff" stroke="#63b8ff" points="802.31,-389.32 809.99,-382.03 799.44,-382.94 802.31,-389.32"/>
</a>
</g>
</g>
<!-- Node24&#45;&gt;Node4 -->
<g id="edge35_Node000024_Node000004" class="edge">
<title>Node24&#45;&gt;Node4</title>
<g id="a_edge35_Node000024_Node000004"><a xlink:title=" ">
<path fill="none" stroke="#63b8ff" d="M727.44,-435.38C773.5,-425.77 837.5,-410.4 891.5,-390 986.87,-353.97 1092.68,-291.99 1133.08,-267.45"/>
<polygon fill="#63b8ff" stroke="#63b8ff" points="727,-431.9 717.91,-437.33 728.41,-438.75 727,-431.9"/>
</a>
</g>
</g>
<!-- Node24&#45;&gt;Node8 -->
<g id="edge34_Node000024_Node000008" class="edge">
<title>Node24&#45;&gt;Node8</title>
<g id="a_edge34_Node000024_Node000008"><a xlink:title=" ">
<path fill="none" stroke="#63b8ff" d="M609.17,-433C601.13,-430.14 593.08,-426.82 585.75,-423 567.77,-413.64 568.36,-403.03 549.75,-395 474.74,-362.63 379.03,-354.21 321.83,-352.26"/>
<polygon fill="#63b8ff" stroke="#63b8ff" points="608.05,-436.32 618.65,-436.14 610.25,-429.67 608.05,-436.32"/>
</a>
</g>
</g>
<!-- Node24&#45;&gt;Node9 -->
<g id="edge33_Node000024_Node000009" class="edge">
<title>Node24&#45;&gt;Node9</title>
<g id="a_edge33_Node000024_Node000009"><a xlink:title=" ">
<path fill="none" stroke="#63b8ff" d="M601.38,-435.89C584.65,-433.1 566.54,-430.26 549.75,-428 399.51,-407.78 221.1,-391.63 134.5,-384.29"/>
<polygon fill="#63b8ff" stroke="#63b8ff" points="600.77,-439.33 611.22,-437.55 601.94,-432.43 600.77,-439.33"/>
</a>
</g>
</g>
<!-- Node25 -->
<g id="Node000025" class="node">
<title>Node25</title>
<g id="a_Node000025"><a xlink:href="../../d0/d82/SDL__gamepad_8c.html#aba8e3cc0575aa23129847fd8418fc191" target="_top" xlink:title=" ">
<polygon fill="white" stroke="#666666" points="519,-457 410.75,-457 410.75,-437 519,-437 519,-457"/>
<text xml:space="preserve" text-anchor="middle" x="464.88" y="-443.5" font-family="Helvetica,sans-Serif" font-size="10.00">SDL_CloseGamepad</text>
</a>
</g>
</g>
<!-- Node24&#45;&gt;Node25 -->
<g id="edge30_Node000024_Node000025" class="edge">
<title>Node24&#45;&gt;Node25</title>
<g id="a_edge30_Node000024_Node000025"><a xlink:title=" ">
<path fill="none" stroke="#63b8ff" d="M601.31,-447C575,-447 544.67,-447 519.39,-447"/>
<polygon fill="#63b8ff" stroke="#63b8ff" points="601.19,-450.5 611.19,-447 601.19,-443.5 601.19,-450.5"/>
</a>
</g>
</g>
<!-- Node26 -->
<g id="Node000026" class="node">
<title>Node26</title>
<g id="a_Node000026"><a xlink:href="../../d0/d82/SDL__gamepad_8c.html#ad49c2e97ac6f1deaafd9aec54dff1659" target="_top" xlink:title=" ">
<polygon fill="white" stroke="#666666" points="324.12,-476 218.12,-476 218.12,-456 324.12,-456 324.12,-476"/>
<text xml:space="preserve" text-anchor="middle" x="271.12" y="-462.5" font-family="Helvetica,sans-Serif" font-size="10.00">SDL_QuitGamepads</text>
</a>
</g>
</g>
<!-- Node25&#45;&gt;Node26 -->
<g id="edge31_Node000025_Node000026" class="edge">
<title>Node25&#45;&gt;Node26</title>
<g id="a_edge31_Node000025_Node000026"><a xlink:title=" ">
<path fill="none" stroke="#63b8ff" d="M399.18,-453.41C374.9,-455.82 347.62,-458.52 324.59,-460.8"/>
<polygon fill="#63b8ff" stroke="#63b8ff" points="399.35,-456.91 408.96,-452.44 398.66,-449.94 399.35,-456.91"/>
</a>
</g>
</g>
<!-- Node26&#45;&gt;Node22 -->
<g id="edge32_Node000026_Node000022" class="edge">
<title>Node26&#45;&gt;Node22</title>
<g id="a_edge32_Node000026_Node000022"><a xlink:title=" ">
<path fill="none" stroke="#63b8ff" d="M335.62,-475.33C427.21,-486.69 601.04,-500.44 743.5,-466 815.37,-448.62 836.18,-439.06 891.5,-390 933.62,-352.65 965.23,-291.43 976.69,-267.27"/>
<polygon fill="#63b8ff" stroke="#63b8ff" points="336.2,-471.87 325.83,-474.08 335.31,-478.81 336.2,-471.87"/>
</a>
</g>
</g>
<!-- Node28 -->
<g id="Node000028" class="node">
<title>Node28</title>
<g id="a_Node000028"><a xlink:href="../../de/daf/classCSDLmain.html#a73bd9c42ac6916974009e508257e44ff" target="_top" xlink:title=" ">
<polygon fill="white" stroke="#666666" points="711.25,-381 618,-381 618,-361 711.25,-361 711.25,-381"/>
<text xml:space="preserve" text-anchor="middle" x="664.62" y="-367.5" font-family="Helvetica,sans-Serif" font-size="10.00">CSDLmain::RunL</text>
</a>
</g>
</g>
<!-- Node27&#45;&gt;Node28 -->
<g id="edge39_Node000027_Node000028" class="edge">
<title>Node27&#45;&gt;Node28</title>
<g id="a_edge39_Node000027_Node000028"><a xlink:title=" ">
<path fill="none" stroke="#63b8ff" d="M794.63,-341.97C769.74,-347.57 737.61,-354.8 711.64,-360.65"/>
<polygon fill="#63b8ff" stroke="#63b8ff" points="795.39,-345.39 804.38,-339.78 793.85,-338.56 795.39,-345.39"/>
</a>
</g>
</g>
<!-- Node29 -->
<g id="Node000029" class="node">
<title>Node29</title>
<g id="a_Node000029"><a xlink:href="../../d3/d6c/SDL__assert_8c.html#af146e7f66c4e41a24337c5b6943af0b0" target="_top" xlink:title=" ">
<polygon fill="white" stroke="#666666" points="717.25,-343 612,-343 612,-323 717.25,-323 717.25,-343"/>
<text xml:space="preserve" text-anchor="middle" x="664.62" y="-329.5" font-family="Helvetica,sans-Serif" font-size="10.00">SDL_AbortAssertion</text>
</a>
</g>
</g>
<!-- Node27&#45;&gt;Node29 -->
<g id="edge40_Node000027_Node000029" class="edge">
<title>Node27&#45;&gt;Node29</title>
<g id="a_edge40_Node000027_Node000029"><a xlink:title=" ">
<path fill="none" stroke="#63b8ff" d="M794.46,-333C771.49,-333 742.4,-333 717.67,-333"/>
<polygon fill="#63b8ff" stroke="#63b8ff" points="794.34,-336.5 804.34,-333 794.34,-329.5 794.34,-336.5"/>
</a>
</g>
</g>
<!-- Node31 -->
<g id="Node000031" class="node">
<title>Node31</title>
<g id="a_Node000031"><a xlink:href="../../d9/d78/SDL__main__callbacks_8c.html#a2e8bd250bb597fdf72c9da9d001181e7" target="_top" xlink:title=" ">
<polygon fill="white" stroke="#666666" points="726.25,-305 603,-305 603,-285 726.25,-285 726.25,-305"/>
<text xml:space="preserve" text-anchor="middle" x="664.62" y="-291.5" font-family="Helvetica,sans-Serif" font-size="10.00">SDL_QuitMainCallbacks</text>
</a>
</g>
</g>
<!-- Node27&#45;&gt;Node31 -->
<g id="edge42_Node000027_Node000031" class="edge">
<title>Node27&#45;&gt;Node31</title>
<g id="a_edge42_Node000027_Node000031"><a xlink:title=" ">
<path fill="none" stroke="#63b8ff" d="M794.67,-324.04C769.88,-318.46 737.9,-311.26 711.97,-305.43"/>
<polygon fill="#63b8ff" stroke="#63b8ff" points="793.85,-327.44 804.38,-326.22 795.39,-320.61 793.85,-327.44"/>
</a>
</g>
</g>
<!-- Node30 -->
<g id="Node000030" class="node">
<title>Node30</title>
<g id="a_Node000030"><a xlink:href="../../d3/d6c/SDL__assert_8c.html#a0c9a208493d6e9212cff2ab400242102" target="_top" xlink:title=" ">
<polygon fill="white" stroke="#666666" points="520.5,-305 409.25,-305 409.25,-285 520.5,-285 520.5,-305"/>
<text xml:space="preserve" text-anchor="middle" x="464.88" y="-291.5" font-family="Helvetica,sans-Serif" font-size="10.00">SDL_ReportAssertion</text>
</a>
</g>
</g>
<!-- Node29&#45;&gt;Node30 -->
<g id="edge41_Node000029_Node000030" class="edge">
<title>Node29&#45;&gt;Node30</title>
<g id="a_edge41_Node000029_Node000030"><a xlink:title=" ">
<path fill="none" stroke="#63b8ff" d="M600.48,-320.87C574.66,-315.9 545.09,-310.22 520.25,-305.45"/>
<polygon fill="#63b8ff" stroke="#63b8ff" points="599.7,-324.28 610.18,-322.73 601.02,-317.41 599.7,-324.28"/>
</a>
</g>
</g>
<!-- Node31&#45;&gt;Node18 -->
<g id="edge45_Node000031_Node000018" class="edge">
<title>Node31&#45;&gt;Node18</title>
<g id="a_edge45_Node000031_Node000018"><a xlink:title=" ">
<path fill="none" stroke="#63b8ff" d="M598.7,-282.4C522.36,-267.58 397.06,-243.25 325.91,-229.44"/>
<polygon fill="#63b8ff" stroke="#63b8ff" points="597.63,-285.75 608.11,-284.22 598.96,-278.88 597.63,-285.75"/>
</a>
</g>
</g>
<!-- Node32 -->
<g id="Node000032" class="node">
<title>Node32</title>
<g id="a_Node000032"><a xlink:href="../../d0/d72/emscripten_2SDL__sysmain__callbacks_8c.html#ad2e127e4f44ae815197361e79da5bf88" target="_top" xlink:title=" ">
<polygon fill="white" stroke="#666666" points="533.25,-229 396.5,-229 396.5,-209 533.25,-209 533.25,-229"/>
<text xml:space="preserve" text-anchor="middle" x="464.88" y="-215.5" font-family="Helvetica,sans-Serif" font-size="10.00">EmscriptenInternalMainloop</text>
</a>
</g>
</g>
<!-- Node31&#45;&gt;Node32 -->
<g id="edge43_Node000031_Node000032" class="edge">
<title>Node31&#45;&gt;Node32</title>
<g id="a_edge43_Node000031_Node000032"><a xlink:title=" ">
<path fill="none" stroke="#63b8ff" d="M595.73,-280.68C592.29,-279.26 588.94,-277.7 585.75,-276 566.61,-265.77 568.69,-253.6 549.75,-243 539.57,-237.3 527.93,-232.86 516.62,-229.44"/>
<polygon fill="#63b8ff" stroke="#63b8ff" points="594.23,-283.86 604.82,-284.01 596.64,-277.28 594.23,-283.86"/>
</a>
</g>
</g>
<!-- Node32&#45;&gt;Node18 -->
<g id="edge44_Node000032_Node000018" class="edge">
<title>Node32&#45;&gt;Node18</title>
<g id="a_edge44_Node000032_Node000018"><a xlink:title=" ">
<path fill="none" stroke="#63b8ff" d="M384.89,-219C371.5,-219 357.66,-219 344.46,-219"/>
<polygon fill="#63b8ff" stroke="#63b8ff" points="384.49,-222.5 394.49,-219 384.49,-215.5 384.49,-222.5"/>
</a>
</g>
</g>
<!-- Node33&#45;&gt;Node20 -->
<g id="edge48_Node000033_Node000020" class="edge">
<title>Node33&#45;&gt;Node20</title>
<g id="a_edge48_Node000033_Node000020"><a xlink:title=" ">
<path fill="none" stroke="#63b8ff" d="M776.47,-143C754.71,-143 730.36,-143 710.03,-143"/>
<polygon fill="#63b8ff" stroke="#63b8ff" points="776.39,-146.5 786.39,-143 776.39,-139.5 776.39,-146.5"/>
</a>
</g>
</g>
<!-- Node33&#45;&gt;Node22 -->
<g id="edge49_Node000033_Node000022" class="edge">
<title>Node33&#45;&gt;Node22</title>
<g id="a_edge49_Node000033_Node000022"><a xlink:title=" ">
<path fill="none" stroke="#63b8ff" d="M858.16,-158.39C868.71,-163.36 881.28,-169.03 891.5,-176 922.33,-197.03 951.62,-229.52 967.97,-246.58"/>
<polygon fill="#63b8ff" stroke="#63b8ff" points="859.97,-155.38 849.45,-154.1 856.88,-161.66 859.97,-155.38"/>
</a>
</g>
</g>
<!-- Node34&#45;&gt;Node21 -->
<g id="edge54_Node000034_Node000021" class="edge">
<title>Node34&#45;&gt;Node21</title>
<g id="a_edge54_Node000034_Node000021"><a xlink:title=" ">
<path fill="none" stroke="#63b8ff" d="M782.41,-257C757.23,-257 727.54,-257 704.39,-257"/>
<polygon fill="#63b8ff" stroke="#63b8ff" points="782.11,-260.5 792.11,-257 782.11,-253.5 782.11,-260.5"/>
</a>
</g>
</g>
<!-- Node34&#45;&gt;Node22 -->
<g id="edge53_Node000034_Node000022" class="edge">
<title>Node34&#45;&gt;Node22</title>
<g id="a_edge53_Node000034_Node000022"><a xlink:title=" ">
<path fill="none" stroke="#63b8ff" d="M888.72,-263.51C901.16,-263.81 914.48,-263.83 927.02,-263.56"/>
<polygon fill="#63b8ff" stroke="#63b8ff" points="889.2,-260.02 879.09,-263.2 888.97,-267.02 889.2,-260.02"/>
</a>
</g>
</g>
<!-- Node36&#45;&gt;Node5 -->
<g id="edge62_Node000036_Node000005" class="edge">
<title>Node36&#45;&gt;Node5</title>
<g id="a_edge62_Node000036_Node000005"><a xlink:title=" ">
<path fill="none" stroke="#63b8ff" d="M1444.75,-168.28C1432.56,-165.82 1419.64,-163.53 1407.5,-162 1271.66,-144.89 1109.66,-142.61 1030.97,-142.64"/>
<polygon fill="#63b8ff" stroke="#63b8ff" points="1443.7,-171.64 1454.21,-170.27 1445.14,-164.79 1443.7,-171.64"/>
</a>
</g>
</g>
<!-- Node37 -->
<g id="Node000037" class="node">
<title>Node37</title>
<g id="a_Node000037"><a xlink:href="../../d0/d82/SDL__gamepad_8c.html#a4e2a33d7f8e94d2e0facd4a043e587e0" target="_top" xlink:title=" ">
<polygon fill="white" stroke="#666666" points="1405.25,-191 1267,-191 1267,-171 1405.25,-171 1405.25,-191"/>
<text xml:space="preserve" text-anchor="middle" x="1336.12" y="-177.5" font-family="Helvetica,sans-Serif" font-size="10.00">SDL_InitGamepadMappings</text>
</a>
</g>
</g>
<!-- Node36&#45;&gt;Node37 -->
<g id="edge59_Node000036_Node000037" class="edge">
<title>Node36&#45;&gt;Node37</title>
<g id="a_edge59_Node000036_Node000037"><a xlink:title=" ">
<path fill="none" stroke="#63b8ff" d="M1432.11,-181C1423.38,-181 1414.42,-181 1405.66,-181"/>
<polygon fill="#63b8ff" stroke="#63b8ff" points="1431.9,-184.5 1441.9,-181 1431.9,-177.5 1431.9,-184.5"/>
</a>
</g>
</g>
<!-- Node37&#45;&gt;Node5 -->
<g id="edge60_Node000037_Node000005" class="edge">
<title>Node37&#45;&gt;Node5</title>
<g id="a_edge60_Node000037_Node000005"><a xlink:title=" ">
<path fill="none" stroke="#63b8ff" d="M1255.48,-175.01C1203.51,-170.79 1134.25,-164.54 1073.25,-157 1059.46,-155.3 1044.53,-153.11 1030.87,-150.97"/>
<polygon fill="#63b8ff" stroke="#63b8ff" points="1254.87,-178.48 1265.12,-175.79 1255.43,-171.5 1254.87,-178.48"/>
</a>
</g>
</g>
<!-- Node37&#45;&gt;Node35 -->
<g id="edge61_Node000037_Node000035" class="edge">
<title>Node37&#45;&gt;Node35</title>
<g id="a_edge61_Node000037_Node000035"><a xlink:title=" ">
<path fill="none" stroke="#63b8ff" d="M1273.5,-193.79C1250.36,-198.59 1224.36,-203.99 1202.36,-208.55"/>
<polygon fill="#63b8ff" stroke="#63b8ff" points="1274.04,-197.25 1283.12,-191.79 1272.62,-190.4 1274.04,-197.25"/>
</a>
</g>
</g>
</g>
</svg>

<g id="navigator" transform="translate(0 0)" fill="#404254">
  <rect fill="#f2f5e9" fill-opacity="0.5" stroke="#606060" stroke-width=".5" x="0" y="0" width="60" height="60"/>
  <use id="zoomplus" xlink:href="#zoomPlus" x="17" y="9" onmousedown="handleZoom(evt,'in')"/>
  <use id="zoomminus" xlink:href="#zoomMin" x="42" y="9" onmousedown="handleZoom(evt,'out')"/>
  <use id="reset" xlink:href="#resetDef" x="30" y="36" onmousedown="handleReset()"/>
   <use id="arrowup" xlink:href="#arrowUp" x="0" y="0" onmousedown="handlePan(0,-1)"/>
  <use id="arrowright" xlink:href="#arrowRight" x="0" y="0" onmousedown="handlePan(1,0)"/>
  <use id="arrowdown" xlink:href="#arrowDown" x="0" y="0" onmousedown="handlePan(0,1)"/>
  <use id="arrowleft" xlink:href="#arrowLeft" x="0" y="0" onmousedown="handlePan(-1,0)"/>
</g>
<svg viewBox="0 0 15 15" width="100%" height="30px" preserveAspectRatio="xMaxYMin meet">
 <g id="arrow_out" transform="scale(0.3 0.3)">
  <a xlink:href="SDL__joystick_8c_ae21b13e2362e63620a575f6f7d4ee712_icgraph_org.svg" target="_base">
   <rect id="button" ry="5" rx="5" y="6" x="6" height="38" width="38"
        fill="#f2f5e9" fill-opacity="0.5" stroke="#606060" stroke-width="1.0"/>
   <path id="arrow"
     d="M 11.500037,31.436501 C 11.940474,20.09759 22.043105,11.32322 32.158766,21.979434 L 37.068811,17.246167 C 37.068811,17.246167 37.088388,32 37.088388,32 L 22.160133,31.978069 C 22.160133,31.978069 26.997745,27.140456 26.997745,27.140456 C 18.528582,18.264221 13.291696,25.230495 11.500037,31.436501 z"
     style="fill:#404040;"/>
  </a>
 </g>
</svg>

<style type='text/css'>
<![CDATA[
[data-mouse-over-selected='false'] { opacity: 0.7; }
[data-mouse-over-selected='true']  { opacity: 1.0; }
]]>
</style>
<script type="application/ecmascript"><![CDATA[
document.addEventListener('DOMContentLoaded', (event) => {
  highlightEdges();
  highlightAdjacentNodes();
});
]]></script>
</svg>
