<?xml version="1.0" encoding="UTF-8" standalone="no"?>
<!DOCTYPE svg PUBLIC "-//W3C//DTD SVG 1.1//EN"
 "http://www.w3.org/Graphics/SVG/1.1/DTD/svg11.dtd">
<!-- Generated by graphviz version 13.1.0 (20250701.0955)
 -->
<!-- Title: VkPresentRegionsKHR Pages: 1 -->
<svg width="162pt" height="250pt"
 viewBox="0.00 0.00 162.00 250.00" xmlns="http://www.w3.org/2000/svg" xmlns:xlink="http://www.w3.org/1999/xlink">

<svg id="main" version="1.1" xmlns="http://www.w3.org/2000/svg" xmlns:xlink="http://www.w3.org/1999/xlink" xml:space="preserve">

<style type="text/css"><![CDATA[
.node, .edge {opacity: 0.7;}
.node.selected, .edge.selected {opacity: 1;}
.edge:hover path { stroke: red; }
.edge:hover polygon { stroke: red; fill: red; }
]]></style>
<script type="application/ecmascript" xlink:href="../../svg.min.js"/>
<svg id="graph" class="graph">
<g id="graph0" class="graph" transform="scale(1 1) rotate(0) translate(4 246)">
<title>VkPresentRegionsKHR</title>
<!-- Node1 -->
<g id="Node000001" class="node">
<title>Node1</title>
<g id="a_Node000001"><a xlink:title=" ">
<polygon fill="#999999" stroke="#666666" points="136.25,-20 16.75,-20 16.75,0 136.25,0 136.25,-20"/>
<text xml:space="preserve" text-anchor="middle" x="76.5" y="-6.5" font-family="Helvetica,sans-Serif" font-size="10.00">VkPresentRegionsKHR</text>
</a>
</g>
</g>
<!-- Node2 -->
<g id="Node000002" class="node">
<title>Node2</title>
<g id="a_Node000002"><a xlink:href="../../d6/d79/structVkPresentRegionKHR.html" target="_top" xlink:title=" ">
<polygon fill="white" stroke="#666666" points="133.62,-94 19.37,-94 19.37,-74 133.62,-74 133.62,-94"/>
<text xml:space="preserve" text-anchor="middle" x="76.5" y="-80.5" font-family="Helvetica,sans-Serif" font-size="10.00">VkPresentRegionKHR</text>
</a>
</g>
</g>
<!-- Node2&#45;&gt;Node1 -->
<g id="edge1_Node000001_Node000002" class="edge">
<title>Node2&#45;&gt;Node1</title>
<g id="a_edge1_Node000001_Node000002"><a xlink:title=" ">
<path fill="none" stroke="#9a32cd" stroke-dasharray="5,2" d="M76.5,-62.18C76.5,-48.29 76.5,-30.71 76.5,-20.19"/>
<polygon fill="#9a32cd" stroke="#9a32cd" points="73,-62.07 76.5,-72.07 80,-62.07 73,-62.07"/>
</a>
</g>
<text xml:space="preserve" text-anchor="start" x="79.5" y="-43.5" font-family="Helvetica,sans-Serif" font-size="10.00" fill="grey">pRegions</text>
</g>
<!-- Node3 -->
<g id="Node000003" class="node">
<title>Node3</title>
<g id="a_Node000003"><a xlink:href="../../d9/d87/structVkRectLayerKHR.html" target="_top" xlink:title=" ">
<polygon fill="white" stroke="#666666" points="123.88,-168 29.12,-168 29.12,-148 123.88,-148 123.88,-168"/>
<text xml:space="preserve" text-anchor="middle" x="76.5" y="-154.5" font-family="Helvetica,sans-Serif" font-size="10.00">VkRectLayerKHR</text>
</a>
</g>
</g>
<!-- Node3&#45;&gt;Node2 -->
<g id="edge2_Node000002_Node000003" class="edge">
<title>Node3&#45;&gt;Node2</title>
<g id="a_edge2_Node000002_Node000003"><a xlink:title=" ">
<path fill="none" stroke="#9a32cd" stroke-dasharray="5,2" d="M76.5,-136.18C76.5,-122.29 76.5,-104.71 76.5,-94.19"/>
<polygon fill="#9a32cd" stroke="#9a32cd" points="73,-136.07 76.5,-146.07 80,-136.07 73,-136.07"/>
</a>
</g>
<text xml:space="preserve" text-anchor="start" x="79.5" y="-117.5" font-family="Helvetica,sans-Serif" font-size="10.00" fill="grey">pRectangles</text>
</g>
<!-- Node4 -->
<g id="Node000004" class="node">
<title>Node4</title>
<g id="a_Node000004"><a xlink:href="../../d6/d3e/structVkOffset2D.html" target="_top" xlink:title=" ">
<polygon fill="white" stroke="#666666" points="67,-242 0,-242 0,-222 67,-222 67,-242"/>
<text xml:space="preserve" text-anchor="middle" x="33.5" y="-228.5" font-family="Helvetica,sans-Serif" font-size="10.00">VkOffset2D</text>
</a>
</g>
</g>
<!-- Node4&#45;&gt;Node3 -->
<g id="edge3_Node000003_Node000004" class="edge">
<title>Node4&#45;&gt;Node3</title>
<g id="a_edge3_Node000003_Node000004"><a xlink:title=" ">
<path fill="none" stroke="#9a32cd" stroke-dasharray="5,2" d="M44.93,-211.86C53.37,-197.74 64.47,-179.14 71.01,-168.19"/>
<polygon fill="#9a32cd" stroke="#9a32cd" points="42.02,-209.91 39.9,-220.29 48.03,-213.5 42.02,-209.91"/>
</a>
</g>
<text xml:space="preserve" text-anchor="start" x="63.12" y="-191.5" font-family="Helvetica,sans-Serif" font-size="10.00" fill="grey">offset</text>
</g>
<!-- Node5 -->
<g id="Node000005" class="node">
<title>Node5</title>
<g id="a_Node000005"><a xlink:href="../../d1/d79/structVkExtent2D.html" target="_top" xlink:title=" ">
<polygon fill="white" stroke="#666666" points="154.12,-242 84.88,-242 84.88,-222 154.12,-222 154.12,-242"/>
<text xml:space="preserve" text-anchor="middle" x="119.5" y="-228.5" font-family="Helvetica,sans-Serif" font-size="10.00">VkExtent2D</text>
</a>
</g>
</g>
<!-- Node5&#45;&gt;Node3 -->
<g id="edge4_Node000003_Node000005" class="edge">
<title>Node5&#45;&gt;Node3</title>
<g id="a_edge4_Node000003_Node000005"><a xlink:title=" ">
<path fill="none" stroke="#9a32cd" stroke-dasharray="5,2" d="M109.21,-211.67C104.82,-203.65 99.55,-194.29 94.5,-186 90.86,-180.04 86.53,-173.51 83.02,-168.38"/>
<polygon fill="#9a32cd" stroke="#9a32cd" points="106,-213.09 113.83,-220.23 112.16,-209.77 106,-213.09"/>
</a>
</g>
<text xml:space="preserve" text-anchor="start" x="107.47" y="-191.5" font-family="Helvetica,sans-Serif" font-size="10.00" fill="grey">extent</text>
</g>
</g>
</svg>
</svg>

<style type='text/css'>
<![CDATA[
[data-mouse-over-selected='false'] { opacity: 0.7; }
[data-mouse-over-selected='true']  { opacity: 1.0; }
]]>
</style>
<script type="application/ecmascript"><![CDATA[
document.addEventListener('DOMContentLoaded', (event) => {
  highlightEdges();
  highlightAdjacentNodes();
});
]]></script>
</svg>
