<?xml version="1.0" encoding="UTF-8" standalone="no"?>
<!DOCTYPE svg PUBLIC "-//W3C//DTD SVG 1.1//EN"
 "http://www.w3.org/Graphics/SVG/1.1/DTD/svg11.dtd">
<!-- Generated by graphviz version 13.1.0 (20250701.0955)
 -->
<!-- Title: SDL_LogInfo Pages: 1 -->
<!--zoomable 408 -->

<svg id="main" version="1.1" xmlns="http://www.w3.org/2000/svg" xmlns:xlink="http://www.w3.org/1999/xlink" xml:space="preserve" onload="init(evt)">

<style type="text/css"><![CDATA[
.node, .edge {opacity: 0.7;}
.node.selected, .edge.selected {opacity: 1;}
.edge:hover path { stroke: red; }
.edge:hover polygon { stroke: red; fill: red; }
]]></style>

<defs>
  <circle id="rim" cx="0" cy="0" r="7"/>
  <circle id="rim2" cx="0" cy="0" r="3.5"/>
  <g id="zoomPlus">
    <use xlink:href="#rim" fill="#404040"><set attributeName="fill" to="#808080" begin="zoomplus.mouseover" end="zoomplus.mouseout"/></use>
    <path d="M-4,0h8M0,-4v8" fill="none" stroke="white" stroke-width="1.5" pointer-events="none"/>
  </g>
  <g id="zoomMin">
    <use xlink:href="#rim" fill="#404040"><set attributeName="fill" to="#808080" begin="zoomminus.mouseover" end="zoomminus.mouseout"/></use>
    <path d="M-4,0h8" fill="none" stroke="white" stroke-width="1.5" pointer-events="none"/>
  </g>
  <g id="arrowUp" transform="translate(30 24)">
    <use xlink:href="#rim"/>
    <path pointer-events="none" fill="none" stroke="white" stroke-width="1.5" d="M0,-3.0v7 M-2.5,-0.5L0,-3.0L2.5,-0.5"/>
  </g>
  <g id="arrowRight" transform="rotate(90) translate(36 -43)">
    <use xlink:href="#rim"/>
    <path pointer-events="none" fill="none" stroke="white" stroke-width="1.5" d="M0,-3.0v7 M-2.5,-0.5L0,-3.0L2.5,-0.5"/>
  </g>
  <g id="arrowDown" transform="rotate(180) translate(-30 -48)">
    <use xlink:href="#rim"/>
    <path pointer-events="none" fill="none" stroke="white" stroke-width="1.5" d="M0,-3.0v7 M-2.5,-0.5L0,-3.0L2.5,-0.5"/>
  </g>
  <g id="arrowLeft" transform="rotate(270) translate(-36 17)">
    <use xlink:href="#rim"/>
    <path pointer-events="none" fill="none" stroke="white" stroke-width="1.5" d="M0,-3.0v7 M-2.5,-0.5L0,-3.0L2.5,-0.5"/>
  </g>
  <g id="resetDef">
    <use xlink:href="#rim2" fill="#404040"><set attributeName="fill" to="#808080" begin="reset.mouseover" end="reset.mouseout"/></use>
  </g>
</defs>
<script type="application/ecmascript">
var viewWidth = 1259;
var viewHeight = 408;
var sectionId = 'dynsection-14';
</script>
<script type="application/ecmascript" xlink:href="../../svg.min.js"/>
<svg id="graph" class="graph">
<g id="viewport">
<title>SDL_LogInfo</title>
<!-- Node1 -->
<g id="Node000001" class="node">
<title>Node1</title>
<g id="a_Node000001"><a xlink:title=" ">
<polygon fill="#999999" stroke="#666666" points="1250.5,-267 1177.5,-267 1177.5,-247 1250.5,-247 1250.5,-267"/>
<text xml:space="preserve" text-anchor="middle" x="1214" y="-253.5" font-family="Helvetica,sans-Serif" font-size="10.00">SDL_LogInfo</text>
</a>
</g>
</g>
<!-- Node2 -->
<g id="Node000002" class="node">
<title>Node2</title>
<g id="a_Node000002"><a xlink:href="../../dd/df3/SDL__render_8c.html#a4006a2177c9369434436c35e55db4909" target="_top" xlink:title=" ">
<polygon fill="white" stroke="#666666" points="1141.5,-296 967.25,-296 967.25,-276 1141.5,-276 1141.5,-296"/>
<text xml:space="preserve" text-anchor="middle" x="1054.38" y="-282.5" font-family="Helvetica,sans-Serif" font-size="10.00">SDL_CreateRendererWithProperties</text>
</a>
</g>
</g>
<!-- Node1&#45;&gt;Node2 -->
<g id="edge1_Node000001_Node000002" class="edge">
<title>Node1&#45;&gt;Node2</title>
<g id="a_edge1_Node000001_Node000002"><a xlink:title=" ">
<path fill="none" stroke="#63b8ff" d="M1165.98,-265.65C1149.13,-268.75 1129.94,-272.28 1112.33,-275.52"/>
<polygon fill="#63b8ff" stroke="#63b8ff" points="1166.54,-269.11 1175.74,-263.85 1165.28,-262.22 1166.54,-269.11"/>
</a>
</g>
</g>
<!-- Node10 -->
<g id="Node000010" class="node">
<title>Node10</title>
<g id="a_Node000010"><a xlink:href="../../df/d78/SDL_8c.html#a8132dc64acc4f5ed68ab83f0b40db578" target="_top" xlink:title=" ">
<polygon fill="white" stroke="#666666" points="1107,-229 1001.75,-229 1001.75,-209 1107,-209 1107,-229"/>
<text xml:space="preserve" text-anchor="middle" x="1054.38" y="-215.5" font-family="Helvetica,sans-Serif" font-size="10.00">SDL_InitMainThread</text>
</a>
</g>
</g>
<!-- Node1&#45;&gt;Node10 -->
<g id="edge9_Node000001_Node000010" class="edge">
<title>Node1&#45;&gt;Node10</title>
<g id="a_edge9_Node000001_Node000010"><a xlink:title=" ">
<path fill="none" stroke="#63b8ff" d="M1166.15,-245.71C1144.83,-240.57 1119.76,-234.52 1098.86,-229.48"/>
<polygon fill="#63b8ff" stroke="#63b8ff" points="1165.22,-249.08 1175.76,-248.02 1166.86,-242.28 1165.22,-249.08"/>
</a>
</g>
</g>
<!-- Node3 -->
<g id="Node000003" class="node">
<title>Node3</title>
<g id="a_Node000003"><a xlink:href="../../dd/df3/SDL__render_8c.html#a938956b40b80ca18f9fe8a2584916c19" target="_top" xlink:title=" ">
<polygon fill="white" stroke="#666666" points="914.75,-277 783.25,-277 783.25,-257 914.75,-257 914.75,-277"/>
<text xml:space="preserve" text-anchor="middle" x="849" y="-263.5" font-family="Helvetica,sans-Serif" font-size="10.00">SDL_CreateGPURenderer</text>
</a>
</g>
</g>
<!-- Node2&#45;&gt;Node3 -->
<g id="edge2_Node000002_Node000003" class="edge">
<title>Node2&#45;&gt;Node3</title>
<g id="a_edge2_Node000002_Node000003"><a xlink:title=" ">
<path fill="none" stroke="#63b8ff" d="M955.41,-276.85C941.77,-275.57 928.04,-274.29 915.21,-273.09"/>
<polygon fill="#63b8ff" stroke="#63b8ff" points="955.04,-280.33 965.32,-277.77 955.69,-273.36 955.04,-280.33"/>
</a>
</g>
</g>
<!-- Node4 -->
<g id="Node000004" class="node">
<title>Node4</title>
<g id="a_Node000004"><a xlink:href="../../dd/df3/SDL__render_8c.html#a6a2f5a459a309db3da78480c8338ff72" target="_top" xlink:title=" ">
<polygon fill="white" stroke="#666666" points="903.88,-362 794.12,-362 794.12,-342 903.88,-342 903.88,-362"/>
<text xml:space="preserve" text-anchor="middle" x="849" y="-348.5" font-family="Helvetica,sans-Serif" font-size="10.00">SDL_CreateRenderer</text>
</a>
</g>
</g>
<!-- Node2&#45;&gt;Node4 -->
<g id="edge3_Node000002_Node000004" class="edge">
<title>Node2&#45;&gt;Node4</title>
<g id="a_edge3_Node000002_Node000004"><a xlink:title=" ">
<path fill="none" stroke="#63b8ff" d="M1010.32,-299.97C971.95,-312.42 916.67,-330.36 882.07,-341.59"/>
<polygon fill="#63b8ff" stroke="#63b8ff" points="1011.28,-303.34 1019.71,-296.93 1009.12,-296.68 1011.28,-303.34"/>
</a>
</g>
</g>
<!-- Node9 -->
<g id="Node000009" class="node">
<title>Node9</title>
<g id="a_Node000009"><a xlink:href="../../dd/df3/SDL__render_8c.html#a78f971f18d9db412a4df5e3d9ebbf700" target="_top" xlink:title=" ">
<polygon fill="white" stroke="#666666" points="923.38,-315 774.62,-315 774.62,-295 923.38,-295 923.38,-315"/>
<text xml:space="preserve" text-anchor="middle" x="849" y="-301.5" font-family="Helvetica,sans-Serif" font-size="10.00">SDL_CreateSoftwareRenderer</text>
</a>
</g>
</g>
<!-- Node2&#45;&gt;Node9 -->
<g id="edge8_Node000002_Node000009" class="edge">
<title>Node2&#45;&gt;Node9</title>
<g id="a_edge8_Node000002_Node000009"><a xlink:title=" ">
<path fill="none" stroke="#63b8ff" d="M955.65,-295.13C944.88,-296.14 934.05,-297.15 923.64,-298.12"/>
<polygon fill="#63b8ff" stroke="#63b8ff" points="955.69,-298.64 965.32,-294.23 955.04,-291.67 955.69,-298.64"/>
</a>
</g>
</g>
<!-- Node5 -->
<g id="Node000005" class="node">
<title>Node5</title>
<g id="a_Node000005"><a xlink:href="../../dd/df3/SDL__render_8c.html#a36f859fae15e4277ba052f9ecfb2816d" target="_top" xlink:title=" ">
<polygon fill="white" stroke="#666666" points="162.25,-333 0,-333 0,-313 162.25,-313 162.25,-333"/>
<text xml:space="preserve" text-anchor="middle" x="81.12" y="-319.5" font-family="Helvetica,sans-Serif" font-size="10.00">SDL_CreateWindowAndRenderer</text>
</a>
</g>
</g>
<!-- Node4&#45;&gt;Node5 -->
<g id="edge4_Node000004_Node000005" class="edge">
<title>Node4&#45;&gt;Node5</title>
<g id="a_edge4_Node000004_Node000005"><a xlink:title=" ">
<path fill="none" stroke="#63b8ff" d="M782.49,-349.52C642.59,-344.22 314.97,-331.82 162.64,-326.05"/>
<polygon fill="#63b8ff" stroke="#63b8ff" points="782.2,-353.01 792.33,-349.89 782.47,-346.02 782.2,-353.01"/>
</a>
</g>
</g>
<!-- Node6 -->
<g id="Node000006" class="node">
<title>Node6</title>
<g id="a_Node000006"><a xlink:href="../../d6/d3d/SDL__video_8c.html#ae87638d537fdd872b08bfb7a68f4bf1a" target="_top" xlink:title=" ">
<polygon fill="white" stroke="#666666" points="720.62,-400 583.12,-400 583.12,-380 720.62,-380 720.62,-400"/>
<text xml:space="preserve" text-anchor="middle" x="651.88" y="-386.5" font-family="Helvetica,sans-Serif" font-size="10.00">SDL_CreateWindowTexture</text>
</a>
</g>
</g>
<!-- Node4&#45;&gt;Node6 -->
<g id="edge5_Node000004_Node000006" class="edge">
<title>Node4&#45;&gt;Node6</title>
<g id="a_edge5_Node000004_Node000006"><a xlink:title=" ">
<path fill="none" stroke="#63b8ff" d="M783.01,-364.66C758.19,-369.49 730.19,-374.94 706.53,-379.55"/>
<polygon fill="#63b8ff" stroke="#63b8ff" points="783.53,-368.12 792.68,-362.77 782.19,-361.25 783.53,-368.12"/>
</a>
</g>
</g>
<!-- Node7 -->
<g id="Node000007" class="node">
<title>Node7</title>
<g id="a_Node000007"><a xlink:href="../../d6/d3d/SDL__video_8c.html#ae6c55eb5cc6ca81ba6faa17eab3af85b" target="_top" xlink:title=" ">
<polygon fill="white" stroke="#666666" points="530.62,-400 373.62,-400 373.62,-380 530.62,-380 530.62,-400"/>
<text xml:space="preserve" text-anchor="middle" x="452.12" y="-386.5" font-family="Helvetica,sans-Serif" font-size="10.00">SDL_CreateWindowFramebuffer</text>
</a>
</g>
</g>
<!-- Node6&#45;&gt;Node7 -->
<g id="edge6_Node000006_Node000007" class="edge">
<title>Node6&#45;&gt;Node7</title>
<g id="a_edge6_Node000006_Node000007"><a xlink:title=" ">
<path fill="none" stroke="#63b8ff" d="M571.66,-390C558.2,-390 544.23,-390 530.82,-390"/>
<polygon fill="#63b8ff" stroke="#63b8ff" points="571.31,-393.5 581.31,-390 571.31,-386.5 571.31,-393.5"/>
</a>
</g>
</g>
<!-- Node8 -->
<g id="Node000008" class="node">
<title>Node8</title>
<g id="a_Node000008"><a xlink:href="../../d6/d3d/SDL__video_8c.html#a155d3f01bb23f59e2c724973e020ebe6" target="_top" xlink:title=" ">
<polygon fill="white" stroke="#666666" points="327.5,-400 202,-400 202,-380 327.5,-380 327.5,-400"/>
<text xml:space="preserve" text-anchor="middle" x="264.75" y="-386.5" font-family="Helvetica,sans-Serif" font-size="10.00">SDL_GetWindowSurface</text>
</a>
</g>
</g>
<!-- Node7&#45;&gt;Node8 -->
<g id="edge7_Node000007_Node000008" class="edge">
<title>Node7&#45;&gt;Node8</title>
<g id="a_edge7_Node000007_Node000008"><a xlink:title=" ">
<path fill="none" stroke="#63b8ff" d="M361.87,-390C350.37,-390 338.81,-390 327.88,-390"/>
<polygon fill="#63b8ff" stroke="#63b8ff" points="361.8,-393.5 371.8,-390 361.8,-386.5 361.8,-393.5"/>
</a>
</g>
</g>
<!-- Node11 -->
<g id="Node000011" class="node">
<title>Node11</title>
<g id="a_Node000011"><a xlink:href="../../de/de3/SDL__thread_8c.html#aff04cbcc8060d4478bb5384a742a7de8" target="_top" xlink:title=" ">
<polygon fill="white" stroke="#666666" points="931.25,-118 766.75,-118 766.75,-86 931.25,-86 931.25,-118"/>
<text xml:space="preserve" text-anchor="start" x="774.75" y="-104.5" font-family="Helvetica,sans-Serif" font-size="10.00">SDL_CreateThreadWithProperties</text>
<text xml:space="preserve" text-anchor="middle" x="849" y="-92.5" font-family="Helvetica,sans-Serif" font-size="10.00">Runtime</text>
</a>
</g>
</g>
<!-- Node10&#45;&gt;Node11 -->
<g id="edge10_Node000010_Node000011" class="edge">
<title>Node10&#45;&gt;Node11</title>
<g id="a_edge10_Node000010_Node000011"><a xlink:title=" ">
<path fill="none" stroke="#63b8ff" d="M1025.79,-203.13C987.27,-180.97 917.71,-140.95 878.63,-118.47"/>
<polygon fill="#63b8ff" stroke="#63b8ff" points="1023.6,-205.91 1034.01,-207.86 1027.09,-199.84 1023.6,-205.91"/>
</a>
</g>
</g>
<!-- Node13 -->
<g id="Node000013" class="node">
<title>Node13</title>
<g id="a_Node000013"><a xlink:href="../../df/d78/SDL_8c.html#aa33d2b8c0a69b16651f78c26f391b6ef" target="_top" xlink:title=" ">
<polygon fill="white" stroke="#666666" points="901.62,-229 796.38,-229 796.38,-209 901.62,-209 901.62,-229"/>
<text xml:space="preserve" text-anchor="middle" x="849" y="-215.5" font-family="Helvetica,sans-Serif" font-size="10.00">SDL_InitSubSystem</text>
</a>
</g>
</g>
<!-- Node10&#45;&gt;Node13 -->
<g id="edge12_Node000010_Node000013" class="edge">
<title>Node10&#45;&gt;Node13</title>
<g id="a_edge12_Node000010_Node000013"><a xlink:title=" ">
<path fill="none" stroke="#63b8ff" d="M989.87,-219C961.61,-219 928.74,-219 901.97,-219"/>
<polygon fill="#63b8ff" stroke="#63b8ff" points="989.75,-222.5 999.75,-219 989.75,-215.5 989.75,-222.5"/>
</a>
</g>
</g>
<!-- Node12 -->
<g id="Node000012" class="node">
<title>Node12</title>
<g id="a_Node000012"><a xlink:href="../../de/de3/SDL__thread_8c.html#a37807fc2e3322f6dd2df2d6bd143f153" target="_top" xlink:title=" ">
<polygon fill="white" stroke="#666666" points="720.25,-20 583.5,-20 583.5,0 720.25,0 720.25,-20"/>
<text xml:space="preserve" text-anchor="middle" x="651.88" y="-6.5" font-family="Helvetica,sans-Serif" font-size="10.00">SDL_CreateThreadRuntime</text>
</a>
</g>
</g>
<!-- Node11&#45;&gt;Node12 -->
<g id="edge11_Node000011_Node000012" class="edge">
<title>Node11&#45;&gt;Node12</title>
<g id="a_edge11_Node000011_Node000012"><a xlink:title=" ">
<path fill="none" stroke="#63b8ff" d="M817.51,-79.23C794.66,-63.14 762.08,-42.18 730.75,-29 722.8,-25.66 714.13,-22.82 705.56,-20.43"/>
<polygon fill="#63b8ff" stroke="#63b8ff" points="815.27,-81.93 825.44,-84.91 819.34,-76.24 815.27,-81.93"/>
</a>
</g>
</g>
<!-- Node14 -->
<g id="Node000014" class="node">
<title>Node14</title>
<g id="a_Node000014"><a xlink:href="../../d6/df9/SDL__joystick_8c.html#a7d2531dc4fbc8de52a29ac3ec171a495" target="_top" xlink:title=" ">
<polygon fill="white" stroke="#666666" points="507.38,-134 396.88,-134 396.88,-114 507.38,-114 507.38,-134"/>
<text xml:space="preserve" text-anchor="middle" x="452.12" y="-120.5" font-family="Helvetica,sans-Serif" font-size="10.00">AttemptSensorFusion</text>
</a>
</g>
</g>
<!-- Node13&#45;&gt;Node14 -->
<g id="edge13_Node000013_Node000014" class="edge">
<title>Node13&#45;&gt;Node14</title>
<g id="a_edge13_Node000013_Node000014"><a xlink:title=" ">
<path fill="none" stroke="#63b8ff" d="M827.63,-201.11C805.49,-182.86 768.24,-155.49 730.75,-143 656.39,-118.21 564.77,-117.21 507.63,-119.81"/>
<polygon fill="#63b8ff" stroke="#63b8ff" points="825.36,-203.78 835.26,-207.56 829.88,-198.43 825.36,-203.78"/>
</a>
</g>
</g>
<!-- Node17 -->
<g id="Node000017" class="node">
<title>Node17</title>
<g id="a_Node000017"><a xlink:href="../../d6/df9/SDL__joystick_8c.html#a94fd638a34a769ff6a7a01738257215c" target="_top" xlink:title=" ">
<polygon fill="white" stroke="#666666" points="683.5,-172 620.25,-172 620.25,-152 683.5,-152 683.5,-172"/>
<text xml:space="preserve" text-anchor="middle" x="651.88" y="-158.5" font-family="Helvetica,sans-Serif" font-size="10.00">IsROGAlly</text>
</a>
</g>
</g>
<!-- Node13&#45;&gt;Node17 -->
<g id="edge16_Node000013_Node000017" class="edge">
<title>Node13&#45;&gt;Node17</title>
<g id="a_edge16_Node000013_Node000017"><a xlink:title=" ">
<path fill="none" stroke="#63b8ff" d="M807.01,-204.89C784.6,-197.39 756.29,-188.24 730.75,-181 715.35,-176.63 698.07,-172.36 683.71,-168.97"/>
<polygon fill="#63b8ff" stroke="#63b8ff" points="805.79,-208.17 816.39,-208.05 808.03,-201.54 805.79,-208.17"/>
</a>
</g>
</g>
<!-- Node19 -->
<g id="Node000019" class="node">
<title>Node19</title>
<g id="a_Node000019"><a xlink:href="../../df/d78/SDL_8c.html#ac25d0ce460db43ca8c7681eb8e7c5007" target="_top" xlink:title=" ">
<polygon fill="white" stroke="#666666" points="679,-210 624.75,-210 624.75,-190 679,-190 679,-210"/>
<text xml:space="preserve" text-anchor="middle" x="651.88" y="-196.5" font-family="Helvetica,sans-Serif" font-size="10.00">SDL_Init</text>
</a>
</g>
</g>
<!-- Node13&#45;&gt;Node19 -->
<g id="edge19_Node000013_Node000019" class="edge">
<title>Node13&#45;&gt;Node19</title>
<g id="a_edge19_Node000013_Node000019"><a xlink:title=" ">
<path fill="none" stroke="#63b8ff" d="M784.65,-212.83C748.94,-209.35 706.24,-205.2 679.33,-202.58"/>
<polygon fill="#63b8ff" stroke="#63b8ff" points="784.17,-216.3 794.46,-213.79 784.85,-209.33 784.17,-216.3"/>
</a>
</g>
</g>
<!-- Node23 -->
<g id="Node000023" class="node">
<title>Node23</title>
<g id="a_Node000023"><a xlink:href="../../d6/df9/SDL__joystick_8c.html#a9340afa4acb6b0fad4affbb99d4fa014" target="_top" xlink:title=" ">
<polygon fill="white" stroke="#666666" points="700,-96 603.75,-96 603.75,-76 700,-76 700,-96"/>
<text xml:space="preserve" text-anchor="middle" x="651.88" y="-82.5" font-family="Helvetica,sans-Serif" font-size="10.00">SDL_InitJoysticks</text>
</a>
</g>
</g>
<!-- Node13&#45;&gt;Node23 -->
<g id="edge24_Node000013_Node000023" class="edge">
<title>Node13&#45;&gt;Node23</title>
<g id="a_edge24_Node000013_Node000023"><a xlink:title=" ">
<path fill="none" stroke="#63b8ff" d="M836.6,-199.35C817.22,-172.79 775.56,-126.89 730.75,-101 721.44,-95.62 710.79,-91.32 700.43,-88.17"/>
<polygon fill="#63b8ff" stroke="#63b8ff" points="833.49,-201 842.04,-207.26 839.25,-197.03 833.49,-201"/>
</a>
</g>
</g>
<!-- Node24 -->
<g id="Node000024" class="node">
<title>Node24</title>
<g id="a_Node000024"><a xlink:href="../../d9/d78/SDL__main__callbacks_8c.html#a3d21b5bf7aa441418de48c5b2856336a" target="_top" xlink:title=" ">
<polygon fill="white" stroke="#666666" points="711.25,-58 592.5,-58 592.5,-38 711.25,-38 711.25,-58"/>
<text xml:space="preserve" text-anchor="middle" x="651.88" y="-44.5" font-family="Helvetica,sans-Serif" font-size="10.00">SDL_InitMainCallbacks</text>
</a>
</g>
</g>
<!-- Node13&#45;&gt;Node24 -->
<g id="edge26_Node000013_Node000024" class="edge">
<title>Node13&#45;&gt;Node24</title>
<g id="a_edge26_Node000013_Node000024"><a xlink:title=" ">
<path fill="none" stroke="#63b8ff" d="M830.18,-200.86C812.97,-182.89 786.65,-154.19 766.75,-127 748.38,-101.91 755.79,-85.44 730.75,-67 725.04,-62.79 718.51,-59.5 711.72,-56.94"/>
<polygon fill="#63b8ff" stroke="#63b8ff" points="827.31,-202.93 836.78,-207.68 832.34,-198.06 827.31,-202.93"/>
</a>
</g>
</g>
<!-- Node26 -->
<g id="Node000026" class="node">
<title>Node26</title>
<g id="a_Node000026"><a xlink:href="../../df/d78/SDL_8c.html#a8f0bf712ad7ba759f5b6e04e683c67d4" target="_top" xlink:title=" ">
<polygon fill="white" stroke="#666666" points="730.75,-324 573,-324 573,-304 730.75,-304 730.75,-324"/>
<text xml:space="preserve" text-anchor="middle" x="651.88" y="-310.5" font-family="Helvetica,sans-Serif" font-size="10.00">SDL_InitOrIncrementSubsystem</text>
</a>
</g>
</g>
<!-- Node13&#45;&gt;Node26 -->
<g id="edge28_Node000013_Node000026" class="edge">
<title>Node13&#45;&gt;Node26</title>
<g id="a_edge28_Node000013_Node000026"><a xlink:title=" ">
<path fill="none" stroke="#63b8ff" d="M785.44,-228.14C778.84,-231.21 772.47,-234.83 766.75,-239 745.49,-254.5 752.78,-271.62 730.75,-286 716.42,-295.36 697.88,-300.11 682.49,-303.52"/>
<polygon fill="#63b8ff" stroke="#63b8ff" points="786.65,-231.43 794.52,-224.35 783.95,-224.97 786.65,-231.43"/>
</a>
</g>
</g>
<!-- Node27 -->
<g id="Node000027" class="node">
<title>Node27</title>
<g id="a_Node000027"><a xlink:href="../../dc/de1/SDL__sensor_8c.html#abdb7d6b73a301a2c8558ba80edb32331" target="_top" xlink:title=" ">
<polygon fill="white" stroke="#666666" points="697,-286 606.75,-286 606.75,-266 697,-266 697,-286"/>
<text xml:space="preserve" text-anchor="middle" x="651.88" y="-272.5" font-family="Helvetica,sans-Serif" font-size="10.00">SDL_InitSensors</text>
</a>
</g>
</g>
<!-- Node13&#45;&gt;Node27 -->
<g id="edge30_Node000013_Node000027" class="edge">
<title>Node13&#45;&gt;Node27</title>
<g id="a_edge30_Node000013_Node000027"><a xlink:title=" ">
<path fill="none" stroke="#63b8ff" d="M785.31,-231.61C767.73,-236.97 748.57,-242.95 730.75,-248 709.6,-254 684.89,-259.83 669.07,-265.53"/>
<polygon fill="#63b8ff" stroke="#63b8ff" points="786.01,-235.06 794.57,-228.81 783.98,-228.36 786.01,-235.06"/>
</a>
</g>
</g>
<!-- Node28 -->
<g id="Node000028" class="node">
<title>Node28</title>
<g id="a_Node000028"><a xlink:href="../../d6/d3d/SDL__video_8c.html#ac61dc66ab71d039f9b681916d0fcbc6e" target="_top" xlink:title=" ">
<polygon fill="white" stroke="#666666" points="691.38,-248 612.38,-248 612.38,-228 691.38,-228 691.38,-248"/>
<text xml:space="preserve" text-anchor="middle" x="651.88" y="-234.5" font-family="Helvetica,sans-Serif" font-size="10.00">SDL_VideoInit</text>
</a>
</g>
</g>
<!-- Node13&#45;&gt;Node28 -->
<g id="edge32_Node000013_Node000028" class="edge">
<title>Node13&#45;&gt;Node28</title>
<g id="a_edge32_Node000013_Node000028"><a xlink:title=" ">
<path fill="none" stroke="#63b8ff" d="M784.53,-218.81C753.96,-221.08 718.28,-224.83 691.79,-228.69"/>
<polygon fill="#63b8ff" stroke="#63b8ff" points="784.72,-222.31 794.46,-218.12 784.24,-215.32 784.72,-222.31"/>
</a>
</g>
</g>
<!-- Node15 -->
<g id="Node000015" class="node">
<title>Node15</title>
<g id="a_Node000015"><a xlink:href="../../d6/df9/SDL__joystick_8c.html#a0c867d96ec6bc9c3aca87c8ee6b53ade" target="_top" xlink:title=" ">
<polygon fill="white" stroke="#666666" points="315.12,-162 214.38,-162 214.38,-142 315.12,-142 315.12,-162"/>
<text xml:space="preserve" text-anchor="middle" x="264.75" y="-148.5" font-family="Helvetica,sans-Serif" font-size="10.00">SDL_OpenJoystick</text>
</a>
</g>
</g>
<!-- Node14&#45;&gt;Node15 -->
<g id="edge14_Node000014_Node000015" class="edge">
<title>Node14&#45;&gt;Node15</title>
<g id="a_edge14_Node000014_Node000015"><a xlink:title=" ">
<path fill="none" stroke="#63b8ff" d="M385.13,-133.97C362.22,-137.43 336.93,-141.25 315.55,-144.48"/>
<polygon fill="#63b8ff" stroke="#63b8ff" points="385.65,-137.43 395.01,-132.48 384.6,-130.51 385.65,-137.43"/>
</a>
</g>
</g>
<!-- Node16 -->
<g id="Node000016" class="node">
<title>Node16</title>
<g id="a_Node000016"><a xlink:href="../../d0/d82/SDL__gamepad_8c.html#a011496690758b66ec0f7098f030b6d85" target="_top" xlink:title=" ">
<polygon fill="white" stroke="#666666" points="134.12,-162 28.12,-162 28.12,-142 134.12,-142 134.12,-162"/>
<text xml:space="preserve" text-anchor="middle" x="81.12" y="-148.5" font-family="Helvetica,sans-Serif" font-size="10.00">SDL_OpenGamepad</text>
</a>
</g>
</g>
<!-- Node15&#45;&gt;Node16 -->
<g id="edge15_Node000015_Node000016" class="edge">
<title>Node15&#45;&gt;Node16</title>
<g id="a_edge15_Node000015_Node000016"><a xlink:title=" ">
<path fill="none" stroke="#63b8ff" d="M202.82,-152C180.69,-152 155.89,-152 134.55,-152"/>
<polygon fill="#63b8ff" stroke="#63b8ff" points="202.61,-155.5 212.61,-152 202.61,-148.5 202.61,-155.5"/>
</a>
</g>
</g>
<!-- Node18 -->
<g id="Node000018" class="node">
<title>Node18</title>
<g id="a_Node000018"><a xlink:href="../../d6/df9/SDL__joystick_8c.html#a497945f75b33dbfcde319992145025c5" target="_top" xlink:title=" ">
<polygon fill="white" stroke="#666666" points="522.38,-172 381.88,-172 381.88,-152 522.38,-152 522.38,-172"/>
<text xml:space="preserve" text-anchor="middle" x="452.12" y="-158.5" font-family="Helvetica,sans-Serif" font-size="10.00">ShouldAttemptSensorFusion</text>
</a>
</g>
</g>
<!-- Node17&#45;&gt;Node18 -->
<g id="edge17_Node000017_Node000018" class="edge">
<title>Node17&#45;&gt;Node18</title>
<g id="a_edge17_Node000017_Node000018"><a xlink:title=" ">
<path fill="none" stroke="#63b8ff" d="M608.69,-162C583.69,-162 551.39,-162 522.71,-162"/>
<polygon fill="#63b8ff" stroke="#63b8ff" points="608.46,-165.5 618.46,-162 608.46,-158.5 608.46,-165.5"/>
</a>
</g>
</g>
<!-- Node18&#45;&gt;Node15 -->
<g id="edge18_Node000018_Node000015" class="edge">
<title>Node18&#45;&gt;Node15</title>
<g id="a_edge18_Node000018_Node000015"><a xlink:title=" ">
<path fill="none" stroke="#63b8ff" d="M370.1,-157.63C351.49,-156.63 332.25,-155.59 315.44,-154.68"/>
<polygon fill="#63b8ff" stroke="#63b8ff" points="369.89,-161.12 380.06,-158.17 370.26,-154.13 369.89,-161.12"/>
</a>
</g>
</g>
<!-- Node20 -->
<g id="Node000020" class="node">
<title>Node20</title>
<g id="a_Node000020"><a xlink:href="../../d6/d3d/SDL__video_8c.html#a9f3d88531134e2c3e575a3c2db7f8488" target="_top" xlink:title=" ">
<polygon fill="white" stroke="#666666" points="537,-219 367.25,-219 367.25,-199 537,-199 537,-219"/>
<text xml:space="preserve" text-anchor="middle" x="452.12" y="-205.5" font-family="Helvetica,sans-Serif" font-size="10.00">SDL_CreateWindowWithProperties</text>
</a>
</g>
</g>
<!-- Node19&#45;&gt;Node20 -->
<g id="edge20_Node000019_Node000020" class="edge">
<title>Node19&#45;&gt;Node20</title>
<g id="a_edge20_Node000019_Node000020"><a xlink:title=" ">
<path fill="none" stroke="#63b8ff" d="M613.37,-201.71C591.84,-202.69 563.89,-203.96 537.38,-205.17"/>
<polygon fill="#63b8ff" stroke="#63b8ff" points="613.27,-205.22 623.1,-201.26 612.95,-198.22 613.27,-205.22"/>
</a>
</g>
</g>
<!-- Node21 -->
<g id="Node000021" class="node">
<title>Node21</title>
<g id="a_Node000021"><a xlink:href="../../d6/d3d/SDL__video_8c.html#acc26de39ce1bd675446e4d6c05ebf4b0" target="_top" xlink:title=" ">
<polygon fill="white" stroke="#666666" points="331.25,-219 198.25,-219 198.25,-199 331.25,-199 331.25,-219"/>
<text xml:space="preserve" text-anchor="middle" x="264.75" y="-205.5" font-family="Helvetica,sans-Serif" font-size="10.00">SDL_CreatePopupWindow</text>
</a>
</g>
</g>
<!-- Node20&#45;&gt;Node21 -->
<g id="edge21_Node000020_Node000021" class="edge">
<title>Node20&#45;&gt;Node21</title>
<g id="a_edge21_Node000020_Node000021"><a xlink:title=" ">
<path fill="none" stroke="#63b8ff" d="M355.42,-209C347.33,-209 339.27,-209 331.5,-209"/>
<polygon fill="#63b8ff" stroke="#63b8ff" points="355.33,-212.5 365.33,-209 355.33,-205.5 355.33,-212.5"/>
</a>
</g>
</g>
<!-- Node22 -->
<g id="Node000022" class="node">
<title>Node22</title>
<g id="a_Node000022"><a xlink:href="../../d6/d3d/SDL__video_8c.html#a83103c86f9e5c33ab9e1fb6dfa904b7f" target="_top" xlink:title=" ">
<polygon fill="white" stroke="#666666" points="317.38,-295 212.12,-295 212.12,-275 317.38,-275 317.38,-295"/>
<text xml:space="preserve" text-anchor="middle" x="264.75" y="-281.5" font-family="Helvetica,sans-Serif" font-size="10.00">SDL_CreateWindow</text>
</a>
</g>
</g>
<!-- Node20&#45;&gt;Node22 -->
<g id="edge22_Node000020_Node000022" class="edge">
<title>Node20&#45;&gt;Node22</title>
<g id="a_edge22_Node000020_Node000022"><a xlink:title=" ">
<path fill="none" stroke="#63b8ff" d="M415.55,-223.59C379.1,-238.53 323.34,-261.39 291.13,-274.6"/>
<polygon fill="#63b8ff" stroke="#63b8ff" points="416.41,-227.01 424.34,-219.98 413.76,-220.54 416.41,-227.01"/>
</a>
</g>
</g>
<!-- Node22&#45;&gt;Node5 -->
<g id="edge23_Node000022_Node000005" class="edge">
<title>Node22&#45;&gt;Node5</title>
<g id="a_edge23_Node000022_Node000005"><a xlink:title=" ">
<path fill="none" stroke="#63b8ff" d="M202.63,-297.79C179.68,-302.59 153.89,-307.99 132.07,-312.55"/>
<polygon fill="#63b8ff" stroke="#63b8ff" points="203.09,-301.27 212.16,-295.79 201.65,-294.42 203.09,-301.27"/>
</a>
</g>
</g>
<!-- Node23&#45;&gt;Node13 -->
<g id="edge25_Node000023_Node000013" class="edge">
<title>Node23&#45;&gt;Node13</title>
<g id="a_edge25_Node000023_Node000013"><a xlink:title=" ">
<path fill="none" stroke="#63b8ff" d="M682.59,-99.87C697.68,-104.59 715.91,-110.43 730.75,-119 774.31,-144.17 814.88,-188.24 834.92,-208.71"/>
<polygon fill="#63b8ff" stroke="#63b8ff" points="683.8,-96.59 673.21,-96.91 681.69,-103.26 683.8,-96.59"/>
</a>
</g>
</g>
<!-- Node25 -->
<g id="Node000025" class="node">
<title>Node25</title>
<g id="a_Node000025"><a xlink:href="../../dd/db5/generic_2SDL__sysmain__callbacks_8c.html#aa50e1897a91f2547b5f31125020220e2" target="_top" xlink:title=" ">
<polygon fill="white" stroke="#666666" points="525,-58 379.25,-58 379.25,-38 525,-38 525,-58"/>
<text xml:space="preserve" text-anchor="middle" x="452.12" y="-44.5" font-family="Helvetica,sans-Serif" font-size="10.00">SDL_EnterAppMainCallbacks</text>
</a>
</g>
</g>
<!-- Node24&#45;&gt;Node25 -->
<g id="edge27_Node000024_Node000025" class="edge">
<title>Node24&#45;&gt;Node25</title>
<g id="a_edge27_Node000024_Node000025"><a xlink:title=" ">
<path fill="none" stroke="#63b8ff" d="M580.79,-48C562.81,-48 543.44,-48 525.35,-48"/>
<polygon fill="#63b8ff" stroke="#63b8ff" points="580.57,-51.5 590.57,-48 580.57,-44.5 580.57,-51.5"/>
</a>
</g>
</g>
<!-- Node26&#45;&gt;Node13 -->
<g id="edge29_Node000026_Node000013" class="edge">
<title>Node26&#45;&gt;Node13</title>
<g id="a_edge29_Node000026_Node000013"><a xlink:title=" ">
<path fill="none" stroke="#63b8ff" d="M739.62,-296.57C751.14,-283.94 749.05,-269.91 766.75,-257 785.63,-243.23 811.67,-235.48 829.13,-229.48"/>
<polygon fill="#63b8ff" stroke="#63b8ff" points="737.55,-293.73 732.16,-302.86 742.07,-299.09 737.55,-293.73"/>
</a>
</g>
</g>
<!-- Node27&#45;&gt;Node13 -->
<g id="edge31_Node000027_Node000013" class="edge">
<title>Node27&#45;&gt;Node13</title>
<g id="a_edge31_Node000027_Node000013"><a xlink:title=" ">
<path fill="none" stroke="#63b8ff" d="M708.14,-271.97C715.76,-270.11 723.46,-268.07 730.75,-266 768.63,-255.26 812.63,-240.33 834.38,-229.44"/>
<polygon fill="#63b8ff" stroke="#63b8ff" points="707.52,-268.52 698.57,-274.19 709.1,-275.34 707.52,-268.52"/>
</a>
</g>
</g>
<!-- Node28&#45;&gt;Node13 -->
<g id="edge33_Node000028_Node000013" class="edge">
<title>Node28&#45;&gt;Node13</title>
<g id="a_edge33_Node000028_Node000013"><a xlink:title=" ">
<path fill="none" stroke="#63b8ff" d="M702.92,-239.11C733.05,-237.23 771.16,-233.49 800.77,-229.48"/>
<polygon fill="#63b8ff" stroke="#63b8ff" points="703.1,-235.59 693.32,-239.65 703.5,-242.58 703.1,-235.59"/>
</a>
</g>
</g>
</g>
</svg>

<g id="navigator" transform="translate(0 0)" fill="#404254">
  <rect fill="#f2f5e9" fill-opacity="0.5" stroke="#606060" stroke-width=".5" x="0" y="0" width="60" height="60"/>
  <use id="zoomplus" xlink:href="#zoomPlus" x="17" y="9" onmousedown="handleZoom(evt,'in')"/>
  <use id="zoomminus" xlink:href="#zoomMin" x="42" y="9" onmousedown="handleZoom(evt,'out')"/>
  <use id="reset" xlink:href="#resetDef" x="30" y="36" onmousedown="handleReset()"/>
   <use id="arrowup" xlink:href="#arrowUp" x="0" y="0" onmousedown="handlePan(0,-1)"/>
  <use id="arrowright" xlink:href="#arrowRight" x="0" y="0" onmousedown="handlePan(1,0)"/>
  <use id="arrowdown" xlink:href="#arrowDown" x="0" y="0" onmousedown="handlePan(0,1)"/>
  <use id="arrowleft" xlink:href="#arrowLeft" x="0" y="0" onmousedown="handlePan(-1,0)"/>
</g>
<svg viewBox="0 0 15 15" width="100%" height="30px" preserveAspectRatio="xMaxYMin meet">
 <g id="arrow_out" transform="scale(0.3 0.3)">
  <a xlink:href="SDL__log_8h_a2e012e375d41de5181ca1c35972923c3_icgraph_org.svg" target="_base">
   <rect id="button" ry="5" rx="5" y="6" x="6" height="38" width="38"
        fill="#f2f5e9" fill-opacity="0.5" stroke="#606060" stroke-width="1.0"/>
   <path id="arrow"
     d="M 11.500037,31.436501 C 11.940474,20.09759 22.043105,11.32322 32.158766,21.979434 L 37.068811,17.246167 C 37.068811,17.246167 37.088388,32 37.088388,32 L 22.160133,31.978069 C 22.160133,31.978069 26.997745,27.140456 26.997745,27.140456 C 18.528582,18.264221 13.291696,25.230495 11.500037,31.436501 z"
     style="fill:#404040;"/>
  </a>
 </g>
</svg>

<style type='text/css'>
<![CDATA[
[data-mouse-over-selected='false'] { opacity: 0.7; }
[data-mouse-over-selected='true']  { opacity: 1.0; }
]]>
</style>
<script type="application/ecmascript"><![CDATA[
document.addEventListener('DOMContentLoaded', (event) => {
  highlightEdges();
  highlightAdjacentNodes();
});
]]></script>
</svg>
