<?xml version="1.0" encoding="UTF-8" standalone="no"?>
<!DOCTYPE svg PUBLIC "-//W3C//DTD SVG 1.1//EN"
 "http://www.w3.org/Graphics/SVG/1.1/DTD/svg11.dtd">
<!-- Generated by graphviz version 13.1.0 (20250701.0955)
 -->
<!-- Title: SDL_GetDaysInMonth Pages: 1 -->
<svg width="424pt" height="104pt"
 viewBox="0.00 0.00 424.00 104.00" xmlns="http://www.w3.org/2000/svg" xmlns:xlink="http://www.w3.org/1999/xlink">
<g id="graph0" class="graph" transform="scale(1 1) rotate(0) translate(4 100)">
<title>SDL_GetDaysInMonth</title>
<!-- Node1 -->
<g id="Node000001" class="node">
<title>Node1</title>
<g id="a_Node000001"><a xlink:title=" ">
<polygon fill="#999999" stroke="#666666" points="415.5,-58 300.5,-58 300.5,-38 415.5,-38 415.5,-58"/>
<text xml:space="preserve" text-anchor="middle" x="358" y="-44.5" font-family="Helvetica,sans-Serif" font-size="10.00">SDL_GetDaysInMonth</text>
</a>
</g>
</g>
<!-- Node2 -->
<g id="Node000002" class="node">
<title>Node2</title>
<g id="a_Node000002"><a xlink:href="../../d2/dfb/SDL__time_8c.html#a4b74905076fc1701a38e0859ed60c290" target="_top" xlink:title=" ">
<polygon fill="white" stroke="#666666" points="264.5,-96 151.75,-96 151.75,-76 264.5,-76 264.5,-96"/>
<text xml:space="preserve" text-anchor="middle" x="208.12" y="-82.5" font-family="Helvetica,sans-Serif" font-size="10.00">SDL_DateTimeIsValid</text>
</a>
</g>
</g>
<!-- Node1&#45;&gt;Node2 -->
<g id="edge1_Node000001_Node000002" class="edge">
<title>Node1&#45;&gt;Node2</title>
<g id="a_edge1_Node000001_Node000002"><a xlink:title=" ">
<path fill="none" stroke="#63b8ff" d="M305.19,-61.31C287.03,-65.98 266.91,-71.15 249.79,-75.55"/>
<polygon fill="#63b8ff" stroke="#63b8ff" points="305.92,-64.74 314.74,-58.86 304.18,-57.96 305.92,-64.74"/>
</a>
</g>
</g>
<!-- Node4 -->
<g id="Node000004" class="node">
<title>Node4</title>
<g id="a_Node000004"><a xlink:href="../../d2/dfb/SDL__time_8c.html#a08ca2b3064073cc8c7d22dbe0bbbd8da" target="_top" xlink:title=" ">
<polygon fill="white" stroke="#666666" points="263,-58 153.25,-58 153.25,-38 263,-38 263,-58"/>
<text xml:space="preserve" text-anchor="middle" x="208.12" y="-44.5" font-family="Helvetica,sans-Serif" font-size="10.00">SDL_GetDayOfWeek</text>
</a>
</g>
</g>
<!-- Node1&#45;&gt;Node4 -->
<g id="edge3_Node000001_Node000004" class="edge">
<title>Node1&#45;&gt;Node4</title>
<g id="a_edge3_Node000001_Node000004"><a xlink:title=" ">
<path fill="none" stroke="#63b8ff" d="M288.94,-48C280.26,-48 271.46,-48 263.05,-48"/>
<polygon fill="#63b8ff" stroke="#63b8ff" points="288.74,-51.5 298.74,-48 288.74,-44.5 288.74,-51.5"/>
</a>
</g>
</g>
<!-- Node5 -->
<g id="Node000005" class="node">
<title>Node5</title>
<g id="a_Node000005"><a xlink:href="../../d2/dfb/SDL__time_8c.html#a422f5253cb3c9a86555fc68fda277e74" target="_top" xlink:title=" ">
<polygon fill="white" stroke="#666666" points="260.38,-20 155.88,-20 155.88,0 260.38,0 260.38,-20"/>
<text xml:space="preserve" text-anchor="middle" x="208.12" y="-6.5" font-family="Helvetica,sans-Serif" font-size="10.00">SDL_GetDayOfYear</text>
</a>
</g>
</g>
<!-- Node1&#45;&gt;Node5 -->
<g id="edge4_Node000001_Node000005" class="edge">
<title>Node1&#45;&gt;Node5</title>
<g id="a_edge4_Node000001_Node000005"><a xlink:title=" ">
<path fill="none" stroke="#63b8ff" d="M305.19,-34.69C287.03,-30.02 266.91,-24.85 249.79,-20.45"/>
<polygon fill="#63b8ff" stroke="#63b8ff" points="304.18,-38.04 314.74,-37.14 305.92,-31.26 304.18,-38.04"/>
</a>
</g>
</g>
<!-- Node3 -->
<g id="Node000003" class="node">
<title>Node3</title>
<g id="a_Node000003"><a xlink:href="../../d2/dfb/SDL__time_8c.html#ae053d2238d7218da8178a46643485311" target="_top" xlink:title=" ">
<polygon fill="white" stroke="#666666" points="115.75,-96 0,-96 0,-76 115.75,-76 115.75,-96"/>
<text xml:space="preserve" text-anchor="middle" x="57.88" y="-82.5" font-family="Helvetica,sans-Serif" font-size="10.00">SDL_DateTimeToTime</text>
</a>
</g>
</g>
<!-- Node2&#45;&gt;Node3 -->
<g id="edge2_Node000002_Node000003" class="edge">
<title>Node2&#45;&gt;Node3</title>
<g id="a_edge2_Node000002_Node000003"><a xlink:title=" ">
<path fill="none" stroke="#63b8ff" d="M140.13,-86C132,-86 123.76,-86 115.8,-86"/>
<polygon fill="#63b8ff" stroke="#63b8ff" points="139.99,-89.5 149.99,-86 139.99,-82.5 139.99,-89.5"/>
</a>
</g>
</g>
</g>
</svg>
