<?xml version="1.0" encoding="UTF-8" standalone="no"?>
<!DOCTYPE svg PUBLIC "-//W3C//DTD SVG 1.1//EN"
 "http://www.w3.org/Graphics/SVG/1.1/DTD/svg11.dtd">
<!-- Generated by graphviz version 13.1.0 (20250701.0955)
 -->
<!-- Title: SDL&#45;main/src/hidapi/libusb/hid.c Pages: 1 -->
<!--zoomable 208 -->

<svg id="main" version="1.1" xmlns="http://www.w3.org/2000/svg" xmlns:xlink="http://www.w3.org/1999/xlink" xml:space="preserve" onload="init(evt)">

<style type="text/css"><![CDATA[
.node, .edge {opacity: 0.7;}
.node.selected, .edge.selected {opacity: 1;}
.edge:hover path { stroke: red; }
.edge:hover polygon { stroke: red; fill: red; }
]]></style>

<defs>
  <circle id="rim" cx="0" cy="0" r="7"/>
  <circle id="rim2" cx="0" cy="0" r="3.5"/>
  <g id="zoomPlus">
    <use xlink:href="#rim" fill="#404040"><set attributeName="fill" to="#808080" begin="zoomplus.mouseover" end="zoomplus.mouseout"/></use>
    <path d="M-4,0h8M0,-4v8" fill="none" stroke="white" stroke-width="1.5" pointer-events="none"/>
  </g>
  <g id="zoomMin">
    <use xlink:href="#rim" fill="#404040"><set attributeName="fill" to="#808080" begin="zoomminus.mouseover" end="zoomminus.mouseout"/></use>
    <path d="M-4,0h8" fill="none" stroke="white" stroke-width="1.5" pointer-events="none"/>
  </g>
  <g id="arrowUp" transform="translate(30 24)">
    <use xlink:href="#rim"/>
    <path pointer-events="none" fill="none" stroke="white" stroke-width="1.5" d="M0,-3.0v7 M-2.5,-0.5L0,-3.0L2.5,-0.5"/>
  </g>
  <g id="arrowRight" transform="rotate(90) translate(36 -43)">
    <use xlink:href="#rim"/>
    <path pointer-events="none" fill="none" stroke="white" stroke-width="1.5" d="M0,-3.0v7 M-2.5,-0.5L0,-3.0L2.5,-0.5"/>
  </g>
  <g id="arrowDown" transform="rotate(180) translate(-30 -48)">
    <use xlink:href="#rim"/>
    <path pointer-events="none" fill="none" stroke="white" stroke-width="1.5" d="M0,-3.0v7 M-2.5,-0.5L0,-3.0L2.5,-0.5"/>
  </g>
  <g id="arrowLeft" transform="rotate(270) translate(-36 17)">
    <use xlink:href="#rim"/>
    <path pointer-events="none" fill="none" stroke="white" stroke-width="1.5" d="M0,-3.0v7 M-2.5,-0.5L0,-3.0L2.5,-0.5"/>
  </g>
  <g id="resetDef">
    <use xlink:href="#rim2" fill="#404040"><set attributeName="fill" to="#808080" begin="reset.mouseover" end="reset.mouseout"/></use>
  </g>
</defs>
<script type="application/ecmascript">
var viewWidth = 1260;
var viewHeight = 208;
var sectionId = 'dynsection-0';
</script>
<script type="application/ecmascript" xlink:href="../../svg.min.js"/>
<svg id="graph" class="graph">
<g id="viewport">
<title>SDL&#45;main/src/hidapi/libusb/hid.c</title>
<!-- Node1 -->
<g id="Node000001" class="node">
<title>Node1</title>
<g id="a_Node000001"><a xlink:title=" ">
<polygon fill="#999999" stroke="#666666" points="628.88,-200 524.38,-200 524.38,-168 628.88,-168 628.88,-200"/>
<text xml:space="preserve" text-anchor="start" x="532.38" y="-186.5" font-family="Helvetica,sans-Serif" font-size="10.00">SDL&#45;main/src/hidapi</text>
<text xml:space="preserve" text-anchor="middle" x="576.62" y="-174.5" font-family="Helvetica,sans-Serif" font-size="10.00">/libusb/hid.c</text>
</a>
</g>
</g>
<!-- Node2 -->
<g id="Node000002" class="node">
<title>Node2</title>
<g id="a_Node000002"><a xlink:title=" ">
<polygon fill="#e0e0e0" stroke="#999999" points="45.25,-132 0,-132 0,-112 45.25,-112 45.25,-132"/>
<text xml:space="preserve" text-anchor="middle" x="22.62" y="-118.5" font-family="Helvetica,sans-Serif" font-size="10.00">stdio.h</text>
</a>
</g>
</g>
<!-- Node1&#45;&gt;Node2 -->
<g id="edge1_Node000001_Node000002" class="edge">
<title>Node1&#45;&gt;Node2</title>
<g id="a_edge1_Node000001_Node000002"><a xlink:title=" ">
<path fill="none" stroke="#63b8ff" d="M523.96,-180.93C431.28,-176.63 232.99,-164.44 56.88,-132.09"/>
<polygon fill="#63b8ff" stroke="#63b8ff" points="57.54,-128.65 47.07,-130.26 56.26,-135.53 57.54,-128.65"/>
</a>
</g>
</g>
<!-- Node3 -->
<g id="Node000003" class="node">
<title>Node3</title>
<g id="a_Node000003"><a xlink:title=" ">
<polygon fill="#e0e0e0" stroke="#999999" points="111.75,-132 63.5,-132 63.5,-112 111.75,-112 111.75,-132"/>
<text xml:space="preserve" text-anchor="middle" x="87.62" y="-118.5" font-family="Helvetica,sans-Serif" font-size="10.00">string.h</text>
</a>
</g>
</g>
<!-- Node1&#45;&gt;Node3 -->
<g id="edge2_Node000001_Node000003" class="edge">
<title>Node1&#45;&gt;Node3</title>
<g id="a_edge2_Node000001_Node000003"><a xlink:title=" ">
<path fill="none" stroke="#63b8ff" d="M523.91,-179.77C440.67,-174.08 273.6,-160.32 123.29,-132.24"/>
<polygon fill="#63b8ff" stroke="#63b8ff" points="124,-128.82 113.52,-130.39 122.69,-135.69 124,-128.82"/>
</a>
</g>
</g>
<!-- Node4 -->
<g id="Node000004" class="node">
<title>Node4</title>
<g id="a_Node000004"><a xlink:title=" ">
<polygon fill="#e0e0e0" stroke="#999999" points="177.38,-132 129.88,-132 129.88,-112 177.38,-112 177.38,-132"/>
<text xml:space="preserve" text-anchor="middle" x="153.62" y="-118.5" font-family="Helvetica,sans-Serif" font-size="10.00">stdlib.h</text>
</a>
</g>
</g>
<!-- Node1&#45;&gt;Node4 -->
<g id="edge3_Node000001_Node000004" class="edge">
<title>Node1&#45;&gt;Node4</title>
<g id="a_edge3_Node000001_Node000004"><a xlink:title=" ">
<path fill="none" stroke="#63b8ff" d="M523.89,-178.4C450.72,-171.52 314.14,-156.86 188.63,-132.15"/>
<polygon fill="#63b8ff" stroke="#63b8ff" points="189.66,-128.79 179.17,-130.27 188.29,-135.66 189.66,-128.79"/>
</a>
</g>
</g>
<!-- Node5 -->
<g id="Node000005" class="node">
<title>Node5</title>
<g id="a_Node000005"><a xlink:title=" ">
<polygon fill="#e0e0e0" stroke="#999999" points="243.75,-132 195.5,-132 195.5,-112 243.75,-112 243.75,-132"/>
<text xml:space="preserve" text-anchor="middle" x="219.62" y="-118.5" font-family="Helvetica,sans-Serif" font-size="10.00">ctype.h</text>
</a>
</g>
</g>
<!-- Node1&#45;&gt;Node5 -->
<g id="edge4_Node000001_Node000005" class="edge">
<title>Node1&#45;&gt;Node5</title>
<g id="a_edge4_Node000001_Node000005"><a xlink:title=" ">
<path fill="none" stroke="#63b8ff" d="M524.11,-176.54C462.08,-168.52 355.6,-153.49 255.31,-132.38"/>
<polygon fill="#63b8ff" stroke="#63b8ff" points="256.05,-128.96 245.54,-130.3 254.59,-135.81 256.05,-128.96"/>
</a>
</g>
</g>
<!-- Node6 -->
<g id="Node000006" class="node">
<title>Node6</title>
<g id="a_Node000006"><a xlink:title=" ">
<polygon fill="#e0e0e0" stroke="#999999" points="311.5,-132 261.75,-132 261.75,-112 311.5,-112 311.5,-132"/>
<text xml:space="preserve" text-anchor="middle" x="286.62" y="-118.5" font-family="Helvetica,sans-Serif" font-size="10.00">locale.h</text>
</a>
</g>
</g>
<!-- Node1&#45;&gt;Node6 -->
<g id="edge5_Node000001_Node000006" class="edge">
<title>Node1&#45;&gt;Node6</title>
<g id="a_edge5_Node000001_Node000006"><a xlink:title=" ">
<path fill="none" stroke="#63b8ff" d="M523.96,-173.5C474.49,-164.35 398.17,-149.67 322.92,-132.42"/>
<polygon fill="#63b8ff" stroke="#63b8ff" points="323.84,-129.04 313.31,-130.2 322.26,-135.86 323.84,-129.04"/>
</a>
</g>
</g>
<!-- Node7 -->
<g id="Node000007" class="node">
<title>Node7</title>
<g id="a_Node000007"><a xlink:title=" ">
<polygon fill="#e0e0e0" stroke="#999999" points="375.62,-132 329.62,-132 329.62,-112 375.62,-112 375.62,-132"/>
<text xml:space="preserve" text-anchor="middle" x="352.62" y="-118.5" font-family="Helvetica,sans-Serif" font-size="10.00">errno.h</text>
</a>
</g>
</g>
<!-- Node1&#45;&gt;Node7 -->
<g id="edge6_Node000001_Node000007" class="edge">
<title>Node1&#45;&gt;Node7</title>
<g id="a_edge6_Node000001_Node000007"><a xlink:title=" ">
<path fill="none" stroke="#63b8ff" d="M524.01,-169.24C487.96,-159.77 438.76,-146.74 387.09,-132.65"/>
<polygon fill="#63b8ff" stroke="#63b8ff" points="388.06,-129.29 377.49,-130.02 386.22,-136.04 388.06,-129.29"/>
</a>
</g>
</g>
<!-- Node8 -->
<g id="Node000008" class="node">
<title>Node8</title>
<g id="a_Node000008"><a xlink:title=" ">
<polygon fill="#e0e0e0" stroke="#999999" points="443.88,-132 393.38,-132 393.38,-112 443.88,-112 443.88,-132"/>
<text xml:space="preserve" text-anchor="middle" x="418.62" y="-118.5" font-family="Helvetica,sans-Serif" font-size="10.00">unistd.h</text>
</a>
</g>
</g>
<!-- Node1&#45;&gt;Node8 -->
<g id="edge7_Node000001_Node000008" class="edge">
<title>Node1&#45;&gt;Node8</title>
<g id="a_edge7_Node000001_Node000008"><a xlink:title=" ">
<path fill="none" stroke="#63b8ff" d="M535.94,-167.55C510.56,-157.91 478.23,-145.64 453.94,-136.41"/>
<polygon fill="#63b8ff" stroke="#63b8ff" points="455.41,-133.22 444.81,-132.95 452.92,-139.77 455.41,-133.22"/>
</a>
</g>
</g>
<!-- Node9 -->
<g id="Node000009" class="node">
<title>Node9</title>
<g id="a_Node000009"><a xlink:title=" ">
<polygon fill="#e0e0e0" stroke="#999999" points="529.12,-132 462.12,-132 462.12,-112 529.12,-112 529.12,-132"/>
<text xml:space="preserve" text-anchor="middle" x="495.62" y="-118.5" font-family="Helvetica,sans-Serif" font-size="10.00">sys/types.h</text>
</a>
</g>
</g>
<!-- Node1&#45;&gt;Node9 -->
<g id="edge8_Node000001_Node000009" class="edge">
<title>Node1&#45;&gt;Node9</title>
<g id="a_edge8_Node000001_Node000009"><a xlink:title=" ">
<path fill="none" stroke="#63b8ff" d="M555.77,-167.55C544.05,-158.87 529.43,-148.04 517.55,-139.24"/>
<polygon fill="#63b8ff" stroke="#63b8ff" points="519.66,-136.45 509.54,-133.31 515.49,-142.07 519.66,-136.45"/>
</a>
</g>
</g>
<!-- Node10 -->
<g id="Node000010" class="node">
<title>Node10</title>
<g id="a_Node000010"><a xlink:title=" ">
<polygon fill="#e0e0e0" stroke="#999999" points="606.38,-132 546.88,-132 546.88,-112 606.38,-112 606.38,-132"/>
<text xml:space="preserve" text-anchor="middle" x="576.62" y="-118.5" font-family="Helvetica,sans-Serif" font-size="10.00">sys/stat.h</text>
</a>
</g>
</g>
<!-- Node1&#45;&gt;Node10 -->
<g id="edge9_Node000001_Node000010" class="edge">
<title>Node1&#45;&gt;Node10</title>
<g id="a_edge9_Node000001_Node000010"><a xlink:title=" ">
<path fill="none" stroke="#63b8ff" d="M576.62,-167.55C576.62,-160.34 576.62,-151.66 576.62,-143.88"/>
<polygon fill="#63b8ff" stroke="#63b8ff" points="580.13,-143.92 576.63,-133.92 573.13,-143.92 580.13,-143.92"/>
</a>
</g>
</g>
<!-- Node11 -->
<g id="Node000011" class="node">
<title>Node11</title>
<g id="a_Node000011"><a xlink:title=" ">
<polygon fill="#e0e0e0" stroke="#999999" points="685.12,-132 624.12,-132 624.12,-112 685.12,-112 685.12,-132"/>
<text xml:space="preserve" text-anchor="middle" x="654.62" y="-118.5" font-family="Helvetica,sans-Serif" font-size="10.00">sys/ioctl.h</text>
</a>
</g>
</g>
<!-- Node1&#45;&gt;Node11 -->
<g id="edge10_Node000001_Node000011" class="edge">
<title>Node1&#45;&gt;Node11</title>
<g id="a_edge10_Node000001_Node000011"><a xlink:title=" ">
<path fill="none" stroke="#63b8ff" d="M596.71,-167.55C608,-158.87 622.07,-148.04 633.52,-139.24"/>
<polygon fill="#63b8ff" stroke="#63b8ff" points="635.4,-142.2 641.19,-133.33 631.13,-136.65 635.4,-142.2"/>
</a>
</g>
</g>
<!-- Node12 -->
<g id="Node000012" class="node">
<title>Node12</title>
<g id="a_Node000012"><a xlink:title=" ">
<polygon fill="#e0e0e0" stroke="#999999" points="783.88,-132 703.38,-132 703.38,-112 783.88,-112 783.88,-132"/>
<text xml:space="preserve" text-anchor="middle" x="743.62" y="-118.5" font-family="Helvetica,sans-Serif" font-size="10.00">sys/utsname.h</text>
</a>
</g>
</g>
<!-- Node1&#45;&gt;Node12 -->
<g id="edge11_Node000001_Node000012" class="edge">
<title>Node1&#45;&gt;Node12</title>
<g id="a_edge11_Node000001_Node000012"><a xlink:title=" ">
<path fill="none" stroke="#63b8ff" d="M619.63,-167.55C646.57,-157.87 680.93,-145.53 706.64,-136.29"/>
<polygon fill="#63b8ff" stroke="#63b8ff" points="707.79,-139.59 716.02,-132.92 705.42,-133.01 707.79,-139.59"/>
</a>
</g>
</g>
<!-- Node13 -->
<g id="Node000013" class="node">
<title>Node13</title>
<g id="a_Node000013"><a xlink:title=" ">
<polygon fill="#e0e0e0" stroke="#999999" points="845.12,-132 802.12,-132 802.12,-112 845.12,-112 845.12,-132"/>
<text xml:space="preserve" text-anchor="middle" x="823.62" y="-118.5" font-family="Helvetica,sans-Serif" font-size="10.00">fcntl.h</text>
</a>
</g>
</g>
<!-- Node1&#45;&gt;Node13 -->
<g id="edge12_Node000001_Node000013" class="edge">
<title>Node1&#45;&gt;Node13</title>
<g id="a_edge12_Node000001_Node000013"><a xlink:title=" ">
<path fill="none" stroke="#63b8ff" d="M629.19,-171.37C670.56,-162.05 729.91,-148.27 790.69,-132.41"/>
<polygon fill="#63b8ff" stroke="#63b8ff" points="791.4,-135.84 800.18,-129.91 789.62,-129.07 791.4,-135.84"/>
</a>
</g>
</g>
<!-- Node14 -->
<g id="Node000014" class="node">
<title>Node14</title>
<g id="a_Node000014"><a xlink:title=" ">
<polygon fill="#e0e0e0" stroke="#999999" points="998.88,-20 948.38,-20 948.38,0 998.88,0 998.88,-20"/>
<text xml:space="preserve" text-anchor="middle" x="973.62" y="-6.5" font-family="Helvetica,sans-Serif" font-size="10.00">wchar.h</text>
</a>
</g>
</g>
<!-- Node1&#45;&gt;Node14 -->
<g id="edge13_Node000001_Node000014" class="edge">
<title>Node1&#45;&gt;Node14</title>
<g id="a_edge13_Node000001_Node000014"><a xlink:title=" ">
<path fill="none" stroke="#63b8ff" d="M629.13,-182.66C687.42,-180.25 782.77,-170.1 854.62,-132 901.71,-107.03 941.67,-56.93 961.06,-29.69"/>
<polygon fill="#63b8ff" stroke="#63b8ff" points="963.78,-31.92 966.6,-21.71 958.02,-27.93 963.78,-31.92"/>
</a>
</g>
</g>
<!-- Node15 -->
<g id="Node000015" class="node">
<title>Node15</title>
<g id="a_Node000015"><a xlink:title=" ">
<polygon fill="#e0e0e0" stroke="#999999" points="951.5,-132 901.75,-132 901.75,-112 951.5,-112 951.5,-132"/>
<text xml:space="preserve" text-anchor="middle" x="926.62" y="-118.5" font-family="Helvetica,sans-Serif" font-size="10.00">libusb.h</text>
</a>
</g>
</g>
<!-- Node1&#45;&gt;Node15 -->
<g id="edge14_Node000001_Node000015" class="edge">
<title>Node1&#45;&gt;Node15</title>
<g id="a_edge14_Node000001_Node000015"><a xlink:title=" ">
<path fill="none" stroke="#63b8ff" d="M629.36,-175.41C691.37,-166.24 797.31,-149.81 887.62,-132 888.61,-131.81 889.61,-131.61 890.61,-131.4"/>
<polygon fill="#63b8ff" stroke="#63b8ff" points="890.99,-134.9 900.02,-129.37 889.51,-128.06 890.99,-134.9"/>
</a>
</g>
</g>
<!-- Node16 -->
<g id="Node000016" class="node">
<title>Node16</title>
<g id="a_Node000016"><a xlink:title=" ">
<polygon fill="#e0e0e0" stroke="#999999" points="1016,-132 969.25,-132 969.25,-112 1016,-112 1016,-132"/>
<text xml:space="preserve" text-anchor="middle" x="992.62" y="-118.5" font-family="Helvetica,sans-Serif" font-size="10.00">iconv.h</text>
</a>
</g>
</g>
<!-- Node1&#45;&gt;Node16 -->
<g id="edge15_Node000001_Node000016" class="edge">
<title>Node1&#45;&gt;Node16</title>
<g id="a_edge15_Node000001_Node000016"><a xlink:title=" ">
<path fill="none" stroke="#63b8ff" d="M629.19,-178.41C701.35,-171.58 835.24,-157.03 957.88,-132.33"/>
<polygon fill="#63b8ff" stroke="#63b8ff" points="958.37,-135.8 967.47,-130.37 956.97,-128.94 958.37,-135.8"/>
</a>
</g>
</g>
<!-- Node17 -->
<g id="Node000017" class="node">
<title>Node17</title>
<g id="a_Node000017"><a xlink:href="../../d6/dbd/hidapi__libusb_8h.html" target="_top" xlink:title=" ">
<polygon fill="white" stroke="#666666" points="1114.88,-132 1034.38,-132 1034.38,-112 1114.88,-112 1114.88,-132"/>
<text xml:space="preserve" text-anchor="middle" x="1074.62" y="-118.5" font-family="Helvetica,sans-Serif" font-size="10.00">hidapi_libusb.h</text>
</a>
</g>
</g>
<!-- Node1&#45;&gt;Node17 -->
<g id="edge16_Node000001_Node000017" class="edge">
<title>Node1&#45;&gt;Node17</title>
<g id="a_edge16_Node000001_Node000017"><a xlink:title=" ">
<path fill="none" stroke="#63b8ff" d="M629.19,-178.13C710.98,-170.31 873.91,-153.75 1022.85,-132.17"/>
<polygon fill="#63b8ff" stroke="#63b8ff" points="1023.12,-135.67 1032.5,-130.76 1022.1,-128.74 1023.12,-135.67"/>
</a>
</g>
</g>
<!-- Node20 -->
<g id="Node000020" class="node">
<title>Node20</title>
<g id="a_Node000020"><a xlink:href="../../d0/d23/hidapi__thread__pthread_8h.html" target="_top" xlink:title=" ">
<polygon fill="white" stroke="#666666" points="1252.38,-132 1132.88,-132 1132.88,-112 1252.38,-112 1252.38,-132"/>
<text xml:space="preserve" text-anchor="middle" x="1192.62" y="-118.5" font-family="Helvetica,sans-Serif" font-size="10.00">hidapi_thread_pthread.h</text>
</a>
</g>
</g>
<!-- Node1&#45;&gt;Node20 -->
<g id="edge20_Node000001_Node000020" class="edge">
<title>Node1&#45;&gt;Node20</title>
<g id="a_edge20_Node000001_Node000020"><a xlink:title=" ">
<path fill="none" stroke="#63b8ff" d="M629.11,-178.75C724.73,-170.87 933.96,-152.98 1121.26,-132.23"/>
<polygon fill="#63b8ff" stroke="#63b8ff" points="1121.37,-135.74 1130.93,-131.15 1120.6,-128.78 1121.37,-135.74"/>
</a>
</g>
</g>
<!-- Node18 -->
<g id="Node000018" class="node">
<title>Node18</title>
<g id="a_Node000018"><a xlink:title=" ">
<polygon fill="#e0e0e0" stroke="#999999" points="1012.75,-76 964.5,-76 964.5,-56 1012.75,-56 1012.75,-76"/>
<text xml:space="preserve" text-anchor="middle" x="988.62" y="-62.5" font-family="Helvetica,sans-Serif" font-size="10.00">stdint.h</text>
</a>
</g>
</g>
<!-- Node17&#45;&gt;Node18 -->
<g id="edge17_Node000017_Node000018" class="edge">
<title>Node17&#45;&gt;Node18</title>
<g id="a_edge17_Node000017_Node000018"><a xlink:title=" ">
<path fill="none" stroke="#63b8ff" d="M1059.64,-111.59C1046.9,-103.59 1028.33,-91.93 1013.38,-82.54"/>
<polygon fill="#63b8ff" stroke="#63b8ff" points="1015.33,-79.64 1005,-77.28 1011.61,-85.57 1015.33,-79.64"/>
</a>
</g>
</g>
<!-- Node19 -->
<g id="Node000019" class="node">
<title>Node19</title>
<g id="a_Node000019"><a xlink:href="../../dc/dd0/hidapi_8h.html" target="_top" xlink:title=" ">
<polygon fill="white" stroke="#666666" points="1118.25,-76 1031,-76 1031,-56 1118.25,-56 1118.25,-76"/>
<text xml:space="preserve" text-anchor="middle" x="1074.62" y="-62.5" font-family="Helvetica,sans-Serif" font-size="10.00">../hidapi/hidapi.h</text>
</a>
</g>
</g>
<!-- Node17&#45;&gt;Node19 -->
<g id="edge18_Node000017_Node000019" class="edge">
<title>Node17&#45;&gt;Node19</title>
<g id="a_edge18_Node000017_Node000019"><a xlink:title=" ">
<path fill="none" stroke="#63b8ff" d="M1074.62,-111.59C1074.62,-105.01 1074.62,-95.96 1074.62,-87.73"/>
<polygon fill="#63b8ff" stroke="#63b8ff" points="1078.13,-87.81 1074.63,-77.81 1071.13,-87.81 1078.13,-87.81"/>
</a>
</g>
</g>
<!-- Node19&#45;&gt;Node14 -->
<g id="edge19_Node000019_Node000014" class="edge">
<title>Node19&#45;&gt;Node14</title>
<g id="a_edge19_Node000019_Node000014"><a xlink:title=" ">
<path fill="none" stroke="#63b8ff" d="M1057.03,-55.59C1041.7,-47.4 1019.21,-35.37 1001.44,-25.87"/>
<polygon fill="#63b8ff" stroke="#63b8ff" points="1003.16,-22.82 992.69,-21.19 999.86,-28.99 1003.16,-22.82"/>
</a>
</g>
</g>
<!-- Node21 -->
<g id="Node000021" class="node">
<title>Node21</title>
<g id="a_Node000021"><a xlink:title=" ">
<polygon fill="#e0e0e0" stroke="#999999" points="1220.88,-76 1164.38,-76 1164.38,-56 1220.88,-56 1220.88,-76"/>
<text xml:space="preserve" text-anchor="middle" x="1192.62" y="-62.5" font-family="Helvetica,sans-Serif" font-size="10.00">pthread.h</text>
</a>
</g>
</g>
<!-- Node20&#45;&gt;Node21 -->
<g id="edge21_Node000020_Node000021" class="edge">
<title>Node20&#45;&gt;Node21</title>
<g id="a_edge21_Node000020_Node000021"><a xlink:title=" ">
<path fill="none" stroke="#63b8ff" d="M1192.62,-111.59C1192.62,-105.01 1192.62,-95.96 1192.62,-87.73"/>
<polygon fill="#63b8ff" stroke="#63b8ff" points="1196.13,-87.81 1192.63,-77.81 1189.13,-87.81 1196.13,-87.81"/>
</a>
</g>
</g>
</g>
</svg>

<g id="navigator" transform="translate(0 0)" fill="#404254">
  <rect fill="#f2f5e9" fill-opacity="0.5" stroke="#606060" stroke-width=".5" x="0" y="0" width="60" height="60"/>
  <use id="zoomplus" xlink:href="#zoomPlus" x="17" y="9" onmousedown="handleZoom(evt,'in')"/>
  <use id="zoomminus" xlink:href="#zoomMin" x="42" y="9" onmousedown="handleZoom(evt,'out')"/>
  <use id="reset" xlink:href="#resetDef" x="30" y="36" onmousedown="handleReset()"/>
   <use id="arrowup" xlink:href="#arrowUp" x="0" y="0" onmousedown="handlePan(0,-1)"/>
  <use id="arrowright" xlink:href="#arrowRight" x="0" y="0" onmousedown="handlePan(1,0)"/>
  <use id="arrowdown" xlink:href="#arrowDown" x="0" y="0" onmousedown="handlePan(0,1)"/>
  <use id="arrowleft" xlink:href="#arrowLeft" x="0" y="0" onmousedown="handlePan(-1,0)"/>
</g>
<svg viewBox="0 0 15 15" width="100%" height="30px" preserveAspectRatio="xMaxYMin meet">
 <g id="arrow_out" transform="scale(0.3 0.3)">
  <a xlink:href="libusb_2hid_8c__incl_org.svg" target="_base">
   <rect id="button" ry="5" rx="5" y="6" x="6" height="38" width="38"
        fill="#f2f5e9" fill-opacity="0.5" stroke="#606060" stroke-width="1.0"/>
   <path id="arrow"
     d="M 11.500037,31.436501 C 11.940474,20.09759 22.043105,11.32322 32.158766,21.979434 L 37.068811,17.246167 C 37.068811,17.246167 37.088388,32 37.088388,32 L 22.160133,31.978069 C 22.160133,31.978069 26.997745,27.140456 26.997745,27.140456 C 18.528582,18.264221 13.291696,25.230495 11.500037,31.436501 z"
     style="fill:#404040;"/>
  </a>
 </g>
</svg>

<style type='text/css'>
<![CDATA[
[data-mouse-over-selected='false'] { opacity: 0.7; }
[data-mouse-over-selected='true']  { opacity: 1.0; }
]]>
</style>
<script type="application/ecmascript"><![CDATA[
document.addEventListener('DOMContentLoaded', (event) => {
  highlightEdges();
  highlightAdjacentNodes();
});
]]></script>
</svg>
