<?xml version="1.0" encoding="UTF-8" standalone="no"?>
<!DOCTYPE svg PUBLIC "-//W3C//DTD SVG 1.1//EN"
 "http://www.w3.org/Graphics/SVG/1.1/DTD/svg11.dtd">
<!-- Generated by graphviz version 13.1.0 (20250701.0955)
 -->
<!-- Title: VkLayerInstanceCreateInfo Pages: 1 -->
<svg width="468pt" height="176pt"
 viewBox="0.00 0.00 468.00 176.00" xmlns="http://www.w3.org/2000/svg" xmlns:xlink="http://www.w3.org/1999/xlink">
<g id="graph0" class="graph" transform="scale(1 1) rotate(0) translate(4 172)">
<title>VkLayerInstanceCreateInfo</title>
<!-- Node1 -->
<g id="Node000001" class="node">
<title>Node1</title>
<g id="a_Node000001"><a xlink:title=" ">
<polygon fill="#999999" stroke="#666666" points="301,-20 165.75,-20 165.75,0 301,0 301,-20"/>
<text xml:space="preserve" text-anchor="middle" x="233.38" y="-6.5" font-family="Helvetica,sans-Serif" font-size="10.00">VkLayerInstanceCreateInfo</text>
</a>
</g>
</g>
<!-- Node2 -->
<g id="Node000002" class="node">
<title>Node2</title>
<g id="a_Node000002"><a xlink:href="../../d6/d66/structVkLayerInstanceLink__.html" target="_top" xlink:title=" ">
<polygon fill="white" stroke="#666666" points="112.75,-94 0,-94 0,-74 112.75,-74 112.75,-94"/>
<text xml:space="preserve" text-anchor="middle" x="56.38" y="-80.5" font-family="Helvetica,sans-Serif" font-size="10.00">VkLayerInstanceLink_</text>
</a>
</g>
</g>
<!-- Node2&#45;&gt;Node1 -->
<g id="edge1_Node000001_Node000002" class="edge">
<title>Node2&#45;&gt;Node1</title>
<g id="a_edge1_Node000001_Node000002"><a xlink:title=" ">
<path fill="none" stroke="#9a32cd" stroke-dasharray="5,2" d="M89.77,-69.42C124.97,-55.1 179.48,-32.92 210.23,-20.42"/>
<polygon fill="#9a32cd" stroke="#9a32cd" points="88.86,-66.01 80.92,-73.02 91.5,-72.49 88.86,-66.01"/>
</a>
</g>
<text xml:space="preserve" text-anchor="start" x="168.93" y="-43.5" font-family="Helvetica,sans-Serif" font-size="10.00" fill="grey">pLayerInfo</text>
</g>
<!-- Node2&#45;&gt;Node2 -->
<g id="edge2_Node000002_Node000002" class="edge">
<title>Node2&#45;&gt;Node2</title>
<g id="a_edge2_Node000002_Node000002"><a xlink:title=" ">
<path fill="none" stroke="#9a32cd" stroke-dasharray="5,2" d="M124.27,-88.78C128.32,-87.64 130.75,-86.05 130.75,-84 130.75,-80.46 123.48,-78.27 113.12,-77.44"/>
<polygon fill="#9a32cd" stroke="#9a32cd" points="123.94,-85.29 114.62,-90.32 125.04,-92.2 123.94,-85.29"/>
</a>
</g>
<text xml:space="preserve" text-anchor="start" x="133.75" y="-80.5" font-family="Helvetica,sans-Serif" font-size="10.00" fill="grey">pNext</text>
</g>
<!-- Node3 -->
<g id="Node000003" class="node">
<title>Node3</title>
<g id="a_Node000003"><a xlink:href="../../d9/d45/structVkDeviceCreateInfo.html" target="_top" xlink:title=" ">
<polygon fill="white" stroke="#666666" points="285.62,-94 181.12,-94 181.12,-74 285.62,-74 285.62,-94"/>
<text xml:space="preserve" text-anchor="middle" x="233.38" y="-80.5" font-family="Helvetica,sans-Serif" font-size="10.00">VkDeviceCreateInfo</text>
</a>
</g>
</g>
<!-- Node3&#45;&gt;Node1 -->
<g id="edge3_Node000001_Node000003" class="edge">
<title>Node3&#45;&gt;Node1</title>
<g id="a_edge3_Node000001_Node000003"><a xlink:title=" ">
<path fill="none" stroke="#9a32cd" stroke-dasharray="5,2" d="M233.38,-62.18C233.38,-48.29 233.38,-30.71 233.38,-20.19"/>
<polygon fill="#9a32cd" stroke="#9a32cd" points="229.88,-62.07 233.38,-72.07 236.88,-62.07 229.88,-62.07"/>
</a>
</g>
<text xml:space="preserve" text-anchor="start" x="236.38" y="-43.5" font-family="Helvetica,sans-Serif" font-size="10.00" fill="grey">pfnLayerCreateDevice</text>
</g>
<!-- Node4 -->
<g id="Node000004" class="node">
<title>Node4</title>
<g id="a_Node000004"><a xlink:href="../../d5/d51/structVkDeviceQueueCreateInfo.html" target="_top" xlink:title=" ">
<polygon fill="white" stroke="#666666" points="223.88,-168 90.88,-168 90.88,-148 223.88,-148 223.88,-168"/>
<text xml:space="preserve" text-anchor="middle" x="157.38" y="-154.5" font-family="Helvetica,sans-Serif" font-size="10.00">VkDeviceQueueCreateInfo</text>
</a>
</g>
</g>
<!-- Node4&#45;&gt;Node3 -->
<g id="edge4_Node000003_Node000004" class="edge">
<title>Node4&#45;&gt;Node3</title>
<g id="a_edge4_Node000003_Node000004"><a xlink:title=" ">
<path fill="none" stroke="#9a32cd" stroke-dasharray="5,2" d="M171.5,-139.02C178.62,-130.44 187.64,-120.26 196.62,-112 203.62,-105.57 212.13,-99.23 219.2,-94.32"/>
<polygon fill="#9a32cd" stroke="#9a32cd" points="168.88,-136.7 165.32,-146.68 174.32,-141.1 168.88,-136.7"/>
</a>
</g>
<text xml:space="preserve" text-anchor="start" x="199.62" y="-117.5" font-family="Helvetica,sans-Serif" font-size="10.00" fill="grey">pQueueCreateInfos</text>
</g>
<!-- Node5 -->
<g id="Node000005" class="node">
<title>Node5</title>
<g id="a_Node000005"><a xlink:href="../../d1/dbf/structVkPhysicalDeviceFeatures.html" target="_top" xlink:title=" ">
<polygon fill="white" stroke="#666666" points="376.62,-168 242.12,-168 242.12,-148 376.62,-148 376.62,-168"/>
<text xml:space="preserve" text-anchor="middle" x="309.38" y="-154.5" font-family="Helvetica,sans-Serif" font-size="10.00">VkPhysicalDeviceFeatures</text>
</a>
</g>
</g>
<!-- Node5&#45;&gt;Node3 -->
<g id="edge5_Node000003_Node000005" class="edge">
<title>Node5&#45;&gt;Node3</title>
<g id="a_edge5_Node000003_Node000005"><a xlink:title=" ">
<path fill="none" stroke="#9a32cd" stroke-dasharray="5,2" d="M302.9,-137.04C299.37,-128.52 294.28,-118.96 287.38,-112 279.92,-104.48 269.95,-98.69 260.6,-94.44"/>
<polygon fill="#9a32cd" stroke="#9a32cd" points="299.55,-138.05 306.26,-146.24 306.12,-135.65 299.55,-138.05"/>
</a>
</g>
<text xml:space="preserve" text-anchor="start" x="302.65" y="-117.5" font-family="Helvetica,sans-Serif" font-size="10.00" fill="grey">pEnabledFeatures</text>
</g>
<!-- Node6 -->
<g id="Node000006" class="node">
<title>Node6</title>
<g id="a_Node000006"><a xlink:href="../../d5/ddd/structVkAllocationCallbacks.html" target="_top" xlink:title=" ">
<polygon fill="white" stroke="#666666" points="417.5,-94 303.25,-94 303.25,-74 417.5,-74 417.5,-94"/>
<text xml:space="preserve" text-anchor="middle" x="360.38" y="-80.5" font-family="Helvetica,sans-Serif" font-size="10.00">VkAllocationCallbacks</text>
</a>
</g>
</g>
<!-- Node6&#45;&gt;Node1 -->
<g id="edge6_Node000001_Node000006" class="edge">
<title>Node6&#45;&gt;Node1</title>
<g id="a_edge6_Node000001_Node000006"><a xlink:title=" ">
<path fill="none" stroke="#9a32cd" stroke-dasharray="5,2" d="M354.8,-62.93C351.39,-54.11 346.16,-44.34 338.38,-38 327.72,-29.32 314.61,-23.39 301.3,-19.36"/>
<polygon fill="#9a32cd" stroke="#9a32cd" points="351.38,-63.75 357.81,-72.17 358.04,-61.58 351.38,-63.75"/>
</a>
</g>
<text xml:space="preserve" text-anchor="start" x="354.35" y="-43.5" font-family="Helvetica,sans-Serif" font-size="10.00" fill="grey">pfnLayerDestroyDevice</text>
</g>
</g>
</svg>
