<?xml version="1.0" encoding="UTF-8" standalone="no"?>
<!DOCTYPE svg PUBLIC "-//W3C//DTD SVG 1.1//EN"
 "http://www.w3.org/Graphics/SVG/1.1/DTD/svg11.dtd">
<!-- Generated by graphviz version 13.1.0 (20250701.0955)
 -->
<!-- Title: VkAccelerationStructureInfoNV Pages: 1 -->
<svg width="262pt" height="250pt"
 viewBox="0.00 0.00 262.00 250.00" xmlns="http://www.w3.org/2000/svg" xmlns:xlink="http://www.w3.org/1999/xlink">
<g id="graph0" class="graph" transform="scale(1 1) rotate(0) translate(4 246)">
<title>VkAccelerationStructureInfoNV</title>
<!-- Node1 -->
<g id="Node000001" class="node">
<title>Node1</title>
<g id="a_Node000001"><a xlink:title=" ">
<polygon fill="#999999" stroke="#666666" points="206.62,-20 54.12,-20 54.12,0 206.62,0 206.62,-20"/>
<text xml:space="preserve" text-anchor="middle" x="130.38" y="-6.5" font-family="Helvetica,sans-Serif" font-size="10.00">VkAccelerationStructureInfoNV</text>
</a>
</g>
</g>
<!-- Node2 -->
<g id="Node000002" class="node">
<title>Node2</title>
<g id="a_Node000002"><a xlink:href="../../dd/d87/structVkGeometryNV.html" target="_top" xlink:title=" ">
<polygon fill="white" stroke="#666666" points="172.88,-94 87.88,-94 87.88,-74 172.88,-74 172.88,-94"/>
<text xml:space="preserve" text-anchor="middle" x="130.38" y="-80.5" font-family="Helvetica,sans-Serif" font-size="10.00">VkGeometryNV</text>
</a>
</g>
</g>
<!-- Node2&#45;&gt;Node1 -->
<g id="edge1_Node000001_Node000002" class="edge">
<title>Node2&#45;&gt;Node1</title>
<g id="a_edge1_Node000001_Node000002"><a xlink:title=" ">
<path fill="none" stroke="#9a32cd" stroke-dasharray="5,2" d="M130.38,-62.18C130.38,-48.29 130.38,-30.71 130.38,-20.19"/>
<polygon fill="#9a32cd" stroke="#9a32cd" points="126.88,-62.07 130.38,-72.07 133.88,-62.07 126.88,-62.07"/>
</a>
</g>
<text xml:space="preserve" text-anchor="start" x="133.38" y="-43.5" font-family="Helvetica,sans-Serif" font-size="10.00" fill="grey">pGeometries</text>
</g>
<!-- Node3 -->
<g id="Node000003" class="node">
<title>Node3</title>
<g id="a_Node000003"><a xlink:href="../../dc/dd4/structVkGeometryDataNV.html" target="_top" xlink:title=" ">
<polygon fill="white" stroke="#666666" points="183.38,-168 77.38,-168 77.38,-148 183.38,-148 183.38,-168"/>
<text xml:space="preserve" text-anchor="middle" x="130.38" y="-154.5" font-family="Helvetica,sans-Serif" font-size="10.00">VkGeometryDataNV</text>
</a>
</g>
</g>
<!-- Node3&#45;&gt;Node2 -->
<g id="edge2_Node000002_Node000003" class="edge">
<title>Node3&#45;&gt;Node2</title>
<g id="a_edge2_Node000002_Node000003"><a xlink:title=" ">
<path fill="none" stroke="#9a32cd" stroke-dasharray="5,2" d="M130.38,-136.18C130.38,-122.29 130.38,-104.71 130.38,-94.19"/>
<polygon fill="#9a32cd" stroke="#9a32cd" points="126.88,-136.07 130.38,-146.07 133.88,-136.07 126.88,-136.07"/>
</a>
</g>
<text xml:space="preserve" text-anchor="start" x="133.38" y="-117.5" font-family="Helvetica,sans-Serif" font-size="10.00" fill="grey">geometry</text>
</g>
<!-- Node4 -->
<g id="Node000004" class="node">
<title>Node4</title>
<g id="a_Node000004"><a xlink:href="../../d4/dc4/structVkGeometryTrianglesNV.html" target="_top" xlink:title=" ">
<polygon fill="white" stroke="#666666" points="124.75,-242 0,-242 0,-222 124.75,-222 124.75,-242"/>
<text xml:space="preserve" text-anchor="middle" x="62.38" y="-228.5" font-family="Helvetica,sans-Serif" font-size="10.00">VkGeometryTrianglesNV</text>
</a>
</g>
</g>
<!-- Node4&#45;&gt;Node3 -->
<g id="edge3_Node000003_Node000004" class="edge">
<title>Node4&#45;&gt;Node3</title>
<g id="a_edge3_Node000003_Node000004"><a xlink:title=" ">
<path fill="none" stroke="#9a32cd" stroke-dasharray="5,2" d="M78.9,-213.5C92.4,-199.21 110.95,-179.57 121.7,-168.19"/>
<polygon fill="#9a32cd" stroke="#9a32cd" points="76.63,-210.81 72.3,-220.49 81.71,-215.62 76.63,-210.81"/>
</a>
</g>
<text xml:space="preserve" text-anchor="start" x="107.47" y="-191.5" font-family="Helvetica,sans-Serif" font-size="10.00" fill="grey">triangles</text>
</g>
<!-- Node5 -->
<g id="Node000005" class="node">
<title>Node5</title>
<g id="a_Node000005"><a xlink:href="../../d8/ddc/structVkGeometryAABBNV.html" target="_top" xlink:title=" ">
<polygon fill="white" stroke="#666666" points="254.38,-242 142.38,-242 142.38,-222 254.38,-222 254.38,-242"/>
<text xml:space="preserve" text-anchor="middle" x="198.38" y="-228.5" font-family="Helvetica,sans-Serif" font-size="10.00">VkGeometryAABBNV</text>
</a>
</g>
</g>
<!-- Node5&#45;&gt;Node3 -->
<g id="edge4_Node000003_Node000005" class="edge">
<title>Node5&#45;&gt;Node3</title>
<g id="a_edge4_Node000003_Node000005"><a xlink:title=" ">
<path fill="none" stroke="#9a32cd" stroke-dasharray="5,2" d="M181.85,-213.5C168.35,-199.21 149.8,-179.57 139.05,-168.19"/>
<polygon fill="#9a32cd" stroke="#9a32cd" points="179.04,-215.62 188.45,-220.49 184.12,-210.81 179.04,-215.62"/>
</a>
</g>
<text xml:space="preserve" text-anchor="start" x="175.47" y="-191.5" font-family="Helvetica,sans-Serif" font-size="10.00" fill="grey">aabbs</text>
</g>
</g>
</svg>
