<?xml version="1.0" encoding="UTF-8" standalone="no"?>
<!DOCTYPE svg PUBLIC "-//W3C//DTD SVG 1.1//EN"
 "http://www.w3.org/Graphics/SVG/1.1/DTD/svg11.dtd">
<!-- Generated by graphviz version 13.1.0 (20250701.0955)
 -->
<!-- Title: GetLogPriorityPrefix Pages: 1 -->
<svg width="440pt" height="66pt"
 viewBox="0.00 0.00 440.00 66.00" xmlns="http://www.w3.org/2000/svg" xmlns:xlink="http://www.w3.org/1999/xlink">
<g id="graph0" class="graph" transform="scale(1 1) rotate(0) translate(4 62)">
<title>GetLogPriorityPrefix</title>
<!-- Node1 -->
<g id="Node000001" class="node">
<title>Node1</title>
<g id="a_Node000001"><a xlink:title=" ">
<polygon fill="#999999" stroke="#666666" points="432,-39 328.25,-39 328.25,-19 432,-19 432,-39"/>
<text xml:space="preserve" text-anchor="middle" x="380.12" y="-25.5" font-family="Helvetica,sans-Serif" font-size="10.00">GetLogPriorityPrefix</text>
</a>
</g>
</g>
<!-- Node2 -->
<g id="Node000002" class="node">
<title>Node2</title>
<g id="a_Node000002"><a xlink:href="../../dc/d43/SDL__log_8c.html#a02d4411425cca5acb6f505ac04ca5819" target="_top" xlink:title=" ">
<polygon fill="white" stroke="#666666" points="292.25,-39 206.5,-39 206.5,-19 292.25,-19 292.25,-39"/>
<text xml:space="preserve" text-anchor="middle" x="249.38" y="-25.5" font-family="Helvetica,sans-Serif" font-size="10.00">SDL_LogOutput</text>
</a>
</g>
</g>
<!-- Node1&#45;&gt;Node2 -->
<g id="edge1_Node000001_Node000002" class="edge">
<title>Node1&#45;&gt;Node2</title>
<g id="a_edge1_Node000001_Node000002"><a xlink:title=" ">
<path fill="none" stroke="#63b8ff" d="M316.42,-29C308.26,-29 300.06,-29 292.36,-29"/>
<polygon fill="#63b8ff" stroke="#63b8ff" points="316.36,-32.5 326.36,-29 316.36,-25.5 316.36,-32.5"/>
</a>
</g>
</g>
<!-- Node3 -->
<g id="Node000003" class="node">
<title>Node3</title>
<g id="a_Node000003"><a xlink:href="../../dc/d43/SDL__log_8c.html#afe2099b4d72bdf5b7e129e9f22c2bdc4" target="_top" xlink:title=" ">
<polygon fill="white" stroke="#666666" points="170.5,-58 0,-58 0,-38 170.5,-38 170.5,-58"/>
<text xml:space="preserve" text-anchor="middle" x="85.25" y="-44.5" font-family="Helvetica,sans-Serif" font-size="10.00">SDL_GetDefaultLogOutputFunction</text>
</a>
</g>
</g>
<!-- Node2&#45;&gt;Node3 -->
<g id="edge2_Node000002_Node000003" class="edge">
<title>Node2&#45;&gt;Node3</title>
<g id="a_edge2_Node000002_Node000003"><a xlink:title=" ">
<path fill="none" stroke="#63b8ff" d="M194.86,-35.27C187.17,-36.17 179.1,-37.12 170.99,-38.07"/>
<polygon fill="#63b8ff" stroke="#63b8ff" points="195.17,-38.76 204.7,-34.12 194.36,-31.81 195.17,-38.76"/>
</a>
</g>
</g>
<!-- Node4 -->
<g id="Node000004" class="node">
<title>Node4</title>
<g id="a_Node000004"><a xlink:href="../../dc/d43/SDL__log_8c.html#ae3b65759eac642b10f290b436fd570d2" target="_top" xlink:title=" ">
<polygon fill="white" stroke="#666666" points="140.5,-20 30,-20 30,0 140.5,0 140.5,-20"/>
<text xml:space="preserve" text-anchor="middle" x="85.25" y="-6.5" font-family="Helvetica,sans-Serif" font-size="10.00">SDL_GUARDED_BY</text>
</a>
</g>
</g>
<!-- Node2&#45;&gt;Node4 -->
<g id="edge3_Node000002_Node000004" class="edge">
<title>Node2&#45;&gt;Node4</title>
<g id="a_edge3_Node000002_Node000004"><a xlink:title=" ">
<path fill="none" stroke="#63b8ff" d="M195.07,-22.75C177.64,-20.71 158.26,-18.44 140.75,-16.39"/>
<polygon fill="#63b8ff" stroke="#63b8ff" points="194.36,-26.19 204.7,-23.88 195.17,-19.24 194.36,-26.19"/>
</a>
</g>
</g>
</g>
</svg>
