<?xml version="1.0" encoding="UTF-8" standalone="no"?>
<!DOCTYPE svg PUBLIC "-//W3C//DTD SVG 1.1//EN"
 "http://www.w3.org/Graphics/SVG/1.1/DTD/svg11.dtd">
<!-- Generated by graphviz version 13.1.0 (20250701.0955)
 -->
<!-- Title: SDL_GetStringInteger Pages: 1 -->
<svg width="760pt" height="110pt"
 viewBox="0.00 0.00 760.00 110.00" xmlns="http://www.w3.org/2000/svg" xmlns:xlink="http://www.w3.org/1999/xlink">
<g id="graph0" class="graph" transform="scale(1 1) rotate(0) translate(4 106)">
<title>SDL_GetStringInteger</title>
<!-- Node1 -->
<g id="Node000001" class="node">
<title>Node1</title>
<g id="a_Node000001"><a xlink:title=" ">
<polygon fill="#999999" stroke="#666666" points="112,-58 0,-58 0,-38 112,-38 112,-58"/>
<text xml:space="preserve" text-anchor="middle" x="56" y="-44.5" font-family="Helvetica,sans-Serif" font-size="10.00">SDL_GetStringInteger</text>
</a>
</g>
</g>
<!-- Node2 -->
<g id="Node000002" class="node">
<title>Node2</title>
<g id="a_Node000002"><a xlink:href="../../d2/d23/SDL__string_8c.html#aeb781495f4470bec33217910d5353ac8" target="_top" xlink:title=" ">
<polygon fill="white" stroke="#666666" points="222.12,-96 165.62,-96 165.62,-76 222.12,-76 222.12,-96"/>
<text xml:space="preserve" text-anchor="middle" x="193.88" y="-82.5" font-family="Helvetica,sans-Serif" font-size="10.00">SDL_atoi</text>
</a>
</g>
</g>
<!-- Node1&#45;&gt;Node2 -->
<g id="edge1_Node000001_Node000002" class="edge">
<title>Node1&#45;&gt;Node2</title>
<g id="a_edge1_Node000001_Node000002"><a xlink:title=" ">
<path fill="none" stroke="#63b8ff" d="M94.49,-58.48C113.18,-63.71 135.75,-70.02 154.55,-75.28"/>
<polygon fill="#63b8ff" stroke="#63b8ff" points="153.39,-78.59 163.96,-77.91 155.28,-71.85 153.39,-78.59"/>
</a>
</g>
</g>
<!-- Node7 -->
<g id="Node000007" class="node">
<title>Node7</title>
<g id="a_Node000007"><a xlink:href="../../d3/d02/SDL__stdlib_8c.html#a527e6563dbef9c20dc9bf4804a9a80ed" target="_top" xlink:title=" ">
<polygon fill="white" stroke="#666666" points="227,-58 160.75,-58 160.75,-38 227,-38 227,-58"/>
<text xml:space="preserve" text-anchor="middle" x="193.88" y="-44.5" font-family="Helvetica,sans-Serif" font-size="10.00">SDL_isdigit</text>
</a>
</g>
</g>
<!-- Node1&#45;&gt;Node7 -->
<g id="edge6_Node000001_Node000007" class="edge">
<title>Node1&#45;&gt;Node7</title>
<g id="a_edge6_Node000001_Node000007"><a xlink:title=" ">
<path fill="none" stroke="#63b8ff" d="M112.27,-48C124.5,-48 137.3,-48 149.01,-48"/>
<polygon fill="#63b8ff" stroke="#63b8ff" points="148.77,-51.5 158.77,-48 148.77,-44.5 148.77,-51.5"/>
</a>
</g>
</g>
<!-- Node8 -->
<g id="Node000008" class="node">
<title>Node8</title>
<g id="a_Node000008"><a xlink:href="../../d2/d23/SDL__string_8c.html#a6e2c58a61b519d6e8efb20bd3635f09b" target="_top" xlink:title=" ">
<polygon fill="white" stroke="#666666" points="239.75,-20 148,-20 148,0 239.75,0 239.75,-20"/>
<text xml:space="preserve" text-anchor="middle" x="193.88" y="-6.5" font-family="Helvetica,sans-Serif" font-size="10.00">SDL_strcasecmp</text>
</a>
</g>
</g>
<!-- Node1&#45;&gt;Node8 -->
<g id="edge7_Node000001_Node000008" class="edge">
<title>Node1&#45;&gt;Node8</title>
<g id="a_edge7_Node000001_Node000008"><a xlink:title=" ">
<path fill="none" stroke="#63b8ff" d="M94.49,-37.52C109.93,-33.2 128.03,-28.14 144.45,-23.54"/>
<polygon fill="#63b8ff" stroke="#63b8ff" points="145.36,-26.92 154.05,-20.86 143.48,-20.18 145.36,-26.92"/>
</a>
</g>
</g>
<!-- Node3 -->
<g id="Node000003" class="node">
<title>Node3</title>
<g id="a_Node000003"><a xlink:href="../../d2/d23/SDL__string_8c.html#a8291f282f96ea4c1948eb5a87696b873" target="_top" xlink:title=" ">
<polygon fill="white" stroke="#666666" points="338.25,-96 275.75,-96 275.75,-76 338.25,-76 338.25,-96"/>
<text xml:space="preserve" text-anchor="middle" x="307" y="-82.5" font-family="Helvetica,sans-Serif" font-size="10.00">SDL_strtol</text>
</a>
</g>
</g>
<!-- Node2&#45;&gt;Node3 -->
<g id="edge2_Node000002_Node000003" class="edge">
<title>Node2&#45;&gt;Node3</title>
<g id="a_edge2_Node000002_Node000003"><a xlink:title=" ">
<path fill="none" stroke="#63b8ff" d="M222.34,-86C234.9,-86 250.05,-86 263.98,-86"/>
<polygon fill="#63b8ff" stroke="#63b8ff" points="263.81,-89.5 273.81,-86 263.81,-82.5 263.81,-89.5"/>
</a>
</g>
</g>
<!-- Node4 -->
<g id="Node000004" class="node">
<title>Node4</title>
<g id="a_Node000004"><a xlink:href="../../d2/d23/SDL__string_8c.html#a1bed6e3ed5cfd4a6a39e5735a22168d1" target="_top" xlink:title=" ">
<polygon fill="white" stroke="#666666" points="458.5,-96 374.25,-96 374.25,-76 458.5,-76 458.5,-96"/>
<text xml:space="preserve" text-anchor="middle" x="416.38" y="-82.5" font-family="Helvetica,sans-Serif" font-size="10.00">SDL_ScanLong</text>
</a>
</g>
</g>
<!-- Node3&#45;&gt;Node4 -->
<g id="edge3_Node000003_Node000004" class="edge">
<title>Node3&#45;&gt;Node4</title>
<g id="a_edge3_Node000003_Node000004"><a xlink:title=" ">
<path fill="none" stroke="#63b8ff" d="M338.48,-86C346.07,-86 354.42,-86 362.74,-86"/>
<polygon fill="#63b8ff" stroke="#63b8ff" points="362.48,-89.5 372.48,-86 362.48,-82.5 362.48,-89.5"/>
</a>
</g>
</g>
<!-- Node5 -->
<g id="Node000005" class="node">
<title>Node5</title>
<g id="a_Node000005"><a xlink:href="../../d2/d23/SDL__string_8c.html#a7973bb641d19e0ed46f90e07e09b07ed" target="_top" xlink:title=" ">
<polygon fill="white" stroke="#666666" points="641,-102 494.5,-102 494.5,-70 641,-70 641,-102"/>
<text xml:space="preserve" text-anchor="start" x="502.5" y="-88.5" font-family="Helvetica,sans-Serif" font-size="10.00">SDL_ScanUnsignedLongLong</text>
<text xml:space="preserve" text-anchor="middle" x="567.75" y="-76.5" font-family="Helvetica,sans-Serif" font-size="10.00">Internal</text>
</a>
</g>
</g>
<!-- Node4&#45;&gt;Node5 -->
<g id="edge4_Node000004_Node000005" class="edge">
<title>Node4&#45;&gt;Node5</title>
<g id="a_edge4_Node000004_Node000005"><a xlink:title=" ">
<path fill="none" stroke="#63b8ff" d="M458.98,-86C466.52,-86 474.62,-86 482.87,-86"/>
<polygon fill="#63b8ff" stroke="#63b8ff" points="482.67,-89.5 492.67,-86 482.67,-82.5 482.67,-89.5"/>
</a>
</g>
</g>
<!-- Node6 -->
<g id="Node000006" class="node">
<title>Node6</title>
<g id="a_Node000006"><a xlink:href="../../d3/d02/SDL__stdlib_8c.html#a0f97bab0613d4633dfc9a13c1d8bd9f7" target="_top" xlink:title=" ">
<polygon fill="white" stroke="#666666" points="751.5,-96 677,-96 677,-76 751.5,-76 751.5,-96"/>
<text xml:space="preserve" text-anchor="middle" x="714.25" y="-82.5" font-family="Helvetica,sans-Serif" font-size="10.00">SDL_isspace</text>
</a>
</g>
</g>
<!-- Node5&#45;&gt;Node6 -->
<g id="edge5_Node000005_Node000006" class="edge">
<title>Node5&#45;&gt;Node6</title>
<g id="a_edge5_Node000005_Node000006"><a xlink:title=" ">
<path fill="none" stroke="#63b8ff" d="M641.42,-86C649.54,-86 657.66,-86 665.35,-86"/>
<polygon fill="#63b8ff" stroke="#63b8ff" points="665.15,-89.5 675.15,-86 665.15,-82.5 665.15,-89.5"/>
</a>
</g>
</g>
</g>
</svg>
