<?xml version="1.0" encoding="UTF-8" standalone="no"?>
<!DOCTYPE svg PUBLIC "-//W3C//DTD SVG 1.1//EN"
 "http://www.w3.org/Graphics/SVG/1.1/DTD/svg11.dtd">
<!-- Generated by graphviz version 13.1.0 (20250701.0955)
 -->
<!-- Title: SDL_uclibc_atan2 Pages: 1 -->
<svg width="308pt" height="28pt"
 viewBox="0.00 0.00 308.00 28.00" xmlns="http://www.w3.org/2000/svg" xmlns:xlink="http://www.w3.org/1999/xlink">
<g id="graph0" class="graph" transform="scale(1 1) rotate(0) translate(4 24)">
<title>SDL_uclibc_atan2</title>
<!-- Node1 -->
<g id="Node000001" class="node">
<title>Node1</title>
<g id="a_Node000001"><a xlink:title=" ">
<polygon fill="#999999" stroke="#666666" points="300,-20 204.5,-20 204.5,0 300,0 300,-20"/>
<text xml:space="preserve" text-anchor="middle" x="252.25" y="-6.5" font-family="Helvetica,sans-Serif" font-size="10.00">SDL_uclibc_atan2</text>
</a>
</g>
</g>
<!-- Node2 -->
<g id="Node000002" class="node">
<title>Node2</title>
<g id="a_Node000002"><a xlink:href="../../d3/d02/SDL__stdlib_8c.html#ace1f50fe109d89fa2b5bfb4531b84c2d" target="_top" xlink:title=" ">
<polygon fill="white" stroke="#666666" points="168.5,-20 103.75,-20 103.75,0 168.5,0 168.5,-20"/>
<text xml:space="preserve" text-anchor="middle" x="136.12" y="-6.5" font-family="Helvetica,sans-Serif" font-size="10.00">SDL_atan2</text>
</a>
</g>
</g>
<!-- Node1&#45;&gt;Node2 -->
<g id="edge1_Node000001_Node000002" class="edge">
<title>Node1&#45;&gt;Node2</title>
<g id="a_edge1_Node000001_Node000002"><a xlink:title=" ">
<path fill="none" stroke="#63b8ff" d="M192.9,-10C184.59,-10 176.33,-10 168.8,-10"/>
<polygon fill="#63b8ff" stroke="#63b8ff" points="192.66,-13.5 202.66,-10 192.66,-6.5 192.66,-13.5"/>
</a>
</g>
</g>
<!-- Node3 -->
<g id="Node000003" class="node">
<title>Node3</title>
<g id="a_Node000003"><a xlink:href="../../d3/d02/SDL__stdlib_8c.html#abbea881956dda235dcc7210cda60575b" target="_top" xlink:title=" ">
<polygon fill="white" stroke="#666666" points="67.75,-20 0,-20 0,0 67.75,0 67.75,-20"/>
<text xml:space="preserve" text-anchor="middle" x="33.88" y="-6.5" font-family="Helvetica,sans-Serif" font-size="10.00">SDL_atan2f</text>
</a>
</g>
</g>
<!-- Node2&#45;&gt;Node3 -->
<g id="edge2_Node000002_Node000003" class="edge">
<title>Node2&#45;&gt;Node3</title>
<g id="a_edge2_Node000002_Node000003"><a xlink:title=" ">
<path fill="none" stroke="#63b8ff" d="M91.97,-10C83.98,-10 75.75,-10 68.12,-10"/>
<polygon fill="#63b8ff" stroke="#63b8ff" points="91.89,-13.5 101.89,-10 91.89,-6.5 91.89,-13.5"/>
</a>
</g>
</g>
</g>
</svg>
