<?xml version="1.0" encoding="UTF-8" standalone="no"?>
<!DOCTYPE svg PUBLIC "-//W3C//DTD SVG 1.1//EN"
 "http://www.w3.org/Graphics/SVG/1.1/DTD/svg11.dtd">
<!-- Generated by graphviz version 13.1.0 (20250701.0955)
 -->
<!-- Title: SDL_GetYCbCRtoRGBConversionMatrix Pages: 1 -->
<svg width="381pt" height="104pt"
 viewBox="0.00 0.00 381.00 104.00" xmlns="http://www.w3.org/2000/svg" xmlns:xlink="http://www.w3.org/1999/xlink">
<g id="graph0" class="graph" transform="scale(1 1) rotate(0) translate(4 100)">
<title>SDL_GetYCbCRtoRGBConversionMatrix</title>
<!-- Node1 -->
<g id="Node000001" class="node">
<title>Node1</title>
<g id="a_Node000001"><a xlink:title=" ">
<polygon fill="#999999" stroke="#666666" points="170.5,-64 0,-64 0,-32 170.5,-32 170.5,-64"/>
<text xml:space="preserve" text-anchor="start" x="8" y="-50.5" font-family="Helvetica,sans-Serif" font-size="10.00">SDL_GetYCbCRtoRGBConversion</text>
<text xml:space="preserve" text-anchor="middle" x="85.25" y="-38.5" font-family="Helvetica,sans-Serif" font-size="10.00">Matrix</text>
</a>
</g>
</g>
<!-- Node2 -->
<g id="Node000002" class="node">
<title>Node2</title>
<g id="a_Node000002"><a xlink:href="../../d0/d74/SDL__pixels_8c.html#aa466719a9ee50efffc81e2598769dff6" target="_top" xlink:title=" ">
<polygon fill="white" stroke="#666666" points="373.25,-96 206.5,-96 206.5,-76 373.25,-76 373.25,-96"/>
<text xml:space="preserve" text-anchor="middle" x="289.88" y="-82.5" font-family="Helvetica,sans-Serif" font-size="10.00">SDL_GetBT2020ConversionMatrix</text>
</a>
</g>
</g>
<!-- Node1&#45;&gt;Node2 -->
<g id="edge1_Node000001_Node000002" class="edge">
<title>Node1&#45;&gt;Node2</title>
<g id="a_edge1_Node000001_Node000002"><a xlink:title=" ">
<path fill="none" stroke="#63b8ff" d="M170.71,-63.84C187.83,-67.05 205.61,-70.38 222.02,-73.46"/>
<polygon fill="#63b8ff" stroke="#63b8ff" points="221.17,-76.86 231.64,-75.27 222.46,-69.98 221.17,-76.86"/>
</a>
</g>
</g>
<!-- Node3 -->
<g id="Node000003" class="node">
<title>Node3</title>
<g id="a_Node000003"><a xlink:href="../../d0/d74/SDL__pixels_8c.html#a095faa115b4445905cb7a787d426d191" target="_top" xlink:title=" ">
<polygon fill="white" stroke="#666666" points="370.62,-58 209.12,-58 209.12,-38 370.62,-38 370.62,-58"/>
<text xml:space="preserve" text-anchor="middle" x="289.88" y="-44.5" font-family="Helvetica,sans-Serif" font-size="10.00">SDL_GetBT601ConversionMatrix</text>
</a>
</g>
</g>
<!-- Node1&#45;&gt;Node3 -->
<g id="edge2_Node000001_Node000003" class="edge">
<title>Node1&#45;&gt;Node3</title>
<g id="a_edge2_Node000001_Node000003"><a xlink:title=" ">
<path fill="none" stroke="#63b8ff" d="M170.71,-48C179.57,-48 188.6,-48 197.53,-48"/>
<polygon fill="#63b8ff" stroke="#63b8ff" points="197.25,-51.5 207.25,-48 197.25,-44.5 197.25,-51.5"/>
</a>
</g>
</g>
<!-- Node4 -->
<g id="Node000004" class="node">
<title>Node4</title>
<g id="a_Node000004"><a xlink:href="../../d0/d74/SDL__pixels_8c.html#a2073c0250ec55de3cb465e146dee6dc3" target="_top" xlink:title=" ">
<polygon fill="white" stroke="#666666" points="370.62,-20 209.12,-20 209.12,0 370.62,0 370.62,-20"/>
<text xml:space="preserve" text-anchor="middle" x="289.88" y="-6.5" font-family="Helvetica,sans-Serif" font-size="10.00">SDL_GetBT709ConversionMatrix</text>
</a>
</g>
</g>
<!-- Node1&#45;&gt;Node4 -->
<g id="edge3_Node000001_Node000004" class="edge">
<title>Node1&#45;&gt;Node4</title>
<g id="a_edge3_Node000001_Node000004"><a xlink:title=" ">
<path fill="none" stroke="#63b8ff" d="M170.71,-32.16C187.83,-28.95 205.61,-25.62 222.02,-22.54"/>
<polygon fill="#63b8ff" stroke="#63b8ff" points="222.46,-26.02 231.64,-20.73 221.17,-19.14 222.46,-26.02"/>
</a>
</g>
</g>
</g>
</svg>
