<?xml version="1.0" encoding="UTF-8" standalone="no"?>
<!DOCTYPE svg PUBLIC "-//W3C//DTD SVG 1.1//EN"
 "http://www.w3.org/Graphics/SVG/1.1/DTD/svg11.dtd">
<!-- Generated by graphviz version 13.1.0 (20250701.0955)
 -->
<!-- Title: SDL_PQfromNits Pages: 1 -->
<svg width="419pt" height="28pt"
 viewBox="0.00 0.00 419.00 28.00" xmlns="http://www.w3.org/2000/svg" xmlns:xlink="http://www.w3.org/1999/xlink">
<g id="graph0" class="graph" transform="scale(1 1) rotate(0) translate(4 24)">
<title>SDL_PQfromNits</title>
<!-- Node1 -->
<g id="Node000001" class="node">
<title>Node1</title>
<g id="a_Node000001"><a xlink:title=" ">
<polygon fill="#999999" stroke="#666666" points="92.5,-20 0,-20 0,0 92.5,0 92.5,-20"/>
<text xml:space="preserve" text-anchor="middle" x="46.25" y="-6.5" font-family="Helvetica,sans-Serif" font-size="10.00">SDL_PQfromNits</text>
</a>
</g>
</g>
<!-- Node2 -->
<g id="Node000002" class="node">
<title>Node2</title>
<g id="a_Node000002"><a xlink:href="../../d3/d02/SDL__stdlib_8c.html#ae19105f921d6c5e69d8ca7c9e7f88866" target="_top" xlink:title=" ">
<polygon fill="white" stroke="#666666" points="190.25,-20 128.5,-20 128.5,0 190.25,0 190.25,-20"/>
<text xml:space="preserve" text-anchor="middle" x="159.38" y="-6.5" font-family="Helvetica,sans-Serif" font-size="10.00">SDL_powf</text>
</a>
</g>
</g>
<!-- Node1&#45;&gt;Node2 -->
<g id="edge1_Node000001_Node000002" class="edge">
<title>Node1&#45;&gt;Node2</title>
<g id="a_edge1_Node000001_Node000002"><a xlink:title=" ">
<path fill="none" stroke="#63b8ff" d="M92.77,-10C100.65,-10 108.81,-10 116.59,-10"/>
<polygon fill="#63b8ff" stroke="#63b8ff" points="116.49,-13.5 126.49,-10 116.49,-6.5 116.49,-13.5"/>
</a>
</g>
</g>
<!-- Node3 -->
<g id="Node000003" class="node">
<title>Node3</title>
<g id="a_Node000003"><a xlink:href="../../d3/d02/SDL__stdlib_8c.html#a5ad148d1a87a4eda6008114e627f61da" target="_top" xlink:title=" ">
<polygon fill="white" stroke="#666666" points="285,-20 226.25,-20 226.25,0 285,0 285,-20"/>
<text xml:space="preserve" text-anchor="middle" x="255.62" y="-6.5" font-family="Helvetica,sans-Serif" font-size="10.00">SDL_pow</text>
</a>
</g>
</g>
<!-- Node2&#45;&gt;Node3 -->
<g id="edge2_Node000002_Node000003" class="edge">
<title>Node2&#45;&gt;Node3</title>
<g id="a_edge2_Node000002_Node000003"><a xlink:title=" ">
<path fill="none" stroke="#63b8ff" d="M190.72,-10C198.31,-10 206.57,-10 214.55,-10"/>
<polygon fill="#63b8ff" stroke="#63b8ff" points="214.43,-13.5 224.43,-10 214.43,-6.5 214.43,-13.5"/>
</a>
</g>
</g>
<!-- Node4 -->
<g id="Node000004" class="node">
<title>Node4</title>
<g id="a_Node000004"><a xlink:href="../../de/d5e/e__pow_8c.html#a59c4e50110dd57aa627494f79c8f37d5" target="_top" xlink:title=" ">
<polygon fill="white" stroke="#666666" points="410.5,-20 321,-20 321,0 410.5,0 410.5,-20"/>
<text xml:space="preserve" text-anchor="middle" x="365.75" y="-6.5" font-family="Helvetica,sans-Serif" font-size="10.00">SDL_uclibc_pow</text>
</a>
</g>
</g>
<!-- Node3&#45;&gt;Node4 -->
<g id="edge3_Node000003_Node000004" class="edge">
<title>Node3&#45;&gt;Node4</title>
<g id="a_edge3_Node000003_Node000004"><a xlink:title=" ">
<path fill="none" stroke="#63b8ff" d="M285.32,-10C292.8,-10 301.12,-10 309.49,-10"/>
<polygon fill="#63b8ff" stroke="#63b8ff" points="309.32,-13.5 319.32,-10 309.32,-6.5 309.32,-13.5"/>
</a>
</g>
</g>
</g>
</svg>
