<?xml version="1.0" encoding="UTF-8" standalone="no"?>
<!DOCTYPE svg PUBLIC "-//W3C//DTD SVG 1.1//EN"
 "http://www.w3.org/Graphics/SVG/1.1/DTD/svg11.dtd">
<!-- Generated by graphviz version 13.1.0 (20250701.0955)
 -->
<!-- Title: VkVideoDecodeH264SessionParametersCreateInfoKHR Pages: 1 -->
<svg width="1290pt" height="216pt"
 viewBox="0.00 0.00 1290.00 216.00" xmlns="http://www.w3.org/2000/svg" xmlns:xlink="http://www.w3.org/1999/xlink">
<g id="graph0" class="graph" transform="scale(1 1) rotate(0) translate(4 211.96)">
<title>VkVideoDecodeH264SessionParametersCreateInfoKHR</title>
<!-- Node1 -->
<g id="Node000001" class="node">
<title>Node1</title>
<g id="a_Node000001"><a xlink:title=" ">
<polygon fill="#999999" stroke="#666666" points="1281.5,-107 1136.5,-107 1136.5,-75 1281.5,-75 1281.5,-107"/>
<text xml:space="preserve" text-anchor="start" x="1144.5" y="-93.5" font-family="Helvetica,sans-Serif" font-size="10.00">VkVideoDecodeH264Session</text>
<text xml:space="preserve" text-anchor="middle" x="1209" y="-81.5" font-family="Helvetica,sans-Serif" font-size="10.00">ParametersCreateInfoKHR</text>
</a>
</g>
</g>
<!-- Node2 -->
<g id="Node000002" class="node">
<title>Node2</title>
<g id="a_Node000002"><a xlink:href="../../d5/d6a/structVkVideoDecodeH264SessionParametersAddInfoKHR.html" target="_top" xlink:title=" ">
<polygon fill="white" stroke="#666666" points="1005.25,-107 860.25,-107 860.25,-75 1005.25,-75 1005.25,-107"/>
<text xml:space="preserve" text-anchor="start" x="868.25" y="-93.5" font-family="Helvetica,sans-Serif" font-size="10.00">VkVideoDecodeH264Session</text>
<text xml:space="preserve" text-anchor="middle" x="932.75" y="-81.5" font-family="Helvetica,sans-Serif" font-size="10.00">ParametersAddInfoKHR</text>
</a>
</g>
</g>
<!-- Node2&#45;&gt;Node1 -->
<g id="edge1_Node000001_Node000002" class="edge">
<title>Node2&#45;&gt;Node1</title>
<g id="a_edge1_Node000001_Node000002"><a xlink:title=" ">
<path fill="none" stroke="#9a32cd" stroke-dasharray="5,2" d="M1016.54,-91C1054.69,-91 1099.55,-91 1136.24,-91"/>
<polygon fill="#9a32cd" stroke="#9a32cd" points="1016.96,-87.5 1006.96,-91 1016.96,-94.5 1016.96,-87.5"/>
</a>
</g>
<text xml:space="preserve" text-anchor="start" x="1026.25" y="-96.5" font-family="Helvetica,sans-Serif" font-size="10.00" fill="grey">pParametersAddInfo</text>
</g>
<!-- Node3 -->
<g id="Node000003" class="node">
<title>Node3</title>
<g id="a_Node000003"><a xlink:href="../../df/d78/structStdVideoH264SequenceParameterSet.html" target="_top" xlink:title=" ">
<polygon fill="white" stroke="#666666" points="772.5,-122 590,-122 590,-102 772.5,-102 772.5,-122"/>
<text xml:space="preserve" text-anchor="middle" x="681.25" y="-108.5" font-family="Helvetica,sans-Serif" font-size="10.00">StdVideoH264SequenceParameterSet</text>
</a>
</g>
</g>
<!-- Node3&#45;&gt;Node2 -->
<g id="edge2_Node000002_Node000003" class="edge">
<title>Node3&#45;&gt;Node2</title>
<g id="a_edge2_Node000002_Node000003"><a xlink:title=" ">
<path fill="none" stroke="#9a32cd" stroke-dasharray="5,2" d="M783.9,-103.44C809.42,-101.3 836.28,-99.04 859.99,-97.04"/>
<polygon fill="#9a32cd" stroke="#9a32cd" points="783.86,-99.94 774.19,-104.26 784.44,-106.91 783.86,-99.94"/>
</a>
</g>
<text xml:space="preserve" text-anchor="start" x="793.5" y="-108.26" font-family="Helvetica,sans-Serif" font-size="10.00" fill="grey">pStdSPSs</text>
</g>
<!-- Node4 -->
<g id="Node000004" class="node">
<title>Node4</title>
<g id="a_Node000004"><a xlink:href="../../d3/da8/structStdVideoH264SpsFlags.html" target="_top" xlink:title=" ">
<polygon fill="white" stroke="#666666" points="402.12,-143 281.88,-143 281.88,-123 402.12,-123 402.12,-143"/>
<text xml:space="preserve" text-anchor="middle" x="342" y="-129.5" font-family="Helvetica,sans-Serif" font-size="10.00">StdVideoH264SpsFlags</text>
</a>
</g>
</g>
<!-- Node4&#45;&gt;Node3 -->
<g id="edge3_Node000003_Node000004" class="edge">
<title>Node4&#45;&gt;Node3</title>
<g id="a_edge3_Node000003_Node000004"><a xlink:title=" ">
<path fill="none" stroke="#9a32cd" stroke-dasharray="5,2" d="M413.79,-128.59C464.92,-125.41 534.4,-121.08 589.59,-117.65"/>
<polygon fill="#9a32cd" stroke="#9a32cd" points="413.79,-125.09 404.03,-129.2 414.23,-132.07 413.79,-125.09"/>
</a>
</g>
<text xml:space="preserve" text-anchor="start" x="497.38" y="-131.71" font-family="Helvetica,sans-Serif" font-size="10.00" fill="grey">flags</text>
</g>
<!-- Node5 -->
<g id="Node000005" class="node">
<title>Node5</title>
<g id="a_Node000005"><a xlink:href="../../d8/d96/structStdVideoH264ScalingLists.html" target="_top" xlink:title=" ">
<polygon fill="white" stroke="#666666" points="408.12,-81 275.88,-81 275.88,-61 408.12,-61 408.12,-81"/>
<text xml:space="preserve" text-anchor="middle" x="342" y="-67.5" font-family="Helvetica,sans-Serif" font-size="10.00">StdVideoH264ScalingLists</text>
</a>
</g>
</g>
<!-- Node5&#45;&gt;Node3 -->
<g id="edge4_Node000003_Node000005" class="edge">
<title>Node5&#45;&gt;Node3</title>
<g id="a_edge4_Node000003_Node000005"><a xlink:title=" ">
<path fill="none" stroke="#9a32cd" stroke-dasharray="5,2" d="M419.53,-79.21C464.05,-84.11 521.24,-90.6 572,-97 583.11,-98.4 594.84,-99.95 606.33,-101.51"/>
<polygon fill="#9a32cd" stroke="#9a32cd" points="420.02,-75.75 409.7,-78.14 419.26,-82.7 420.02,-75.75"/>
</a>
</g>
<text xml:space="preserve" text-anchor="start" x="478.62" y="-102.5" font-family="Helvetica,sans-Serif" font-size="10.00" fill="grey">pScalingLists</text>
</g>
<!-- Node9 -->
<g id="Node000009" class="node">
<title>Node9</title>
<g id="a_Node000009"><a xlink:href="../../df/d86/structStdVideoH264PictureParameterSet.html" target="_top" xlink:title=" ">
<polygon fill="white" stroke="#666666" points="766.12,-61 596.38,-61 596.38,-41 766.12,-41 766.12,-61"/>
<text xml:space="preserve" text-anchor="middle" x="681.25" y="-47.5" font-family="Helvetica,sans-Serif" font-size="10.00">StdVideoH264PictureParameterSet</text>
</a>
</g>
</g>
<!-- Node5&#45;&gt;Node9 -->
<g id="edge10_Node000009_Node000005" class="edge">
<title>Node5&#45;&gt;Node9</title>
<g id="a_edge10_Node000009_Node000005"><a xlink:title=" ">
<path fill="none" stroke="#9a32cd" stroke-dasharray="5,2" d="M400.03,-58.38C414.24,-55.75 429.49,-53.36 443.75,-52 494.13,-47.18 550.81,-46.77 596.06,-47.64"/>
<polygon fill="#9a32cd" stroke="#9a32cd" points="399.54,-54.91 390.38,-60.23 400.86,-61.78 399.54,-54.91"/>
</a>
</g>
<text xml:space="preserve" text-anchor="start" x="478.62" y="-57.5" font-family="Helvetica,sans-Serif" font-size="10.00" fill="grey">pScalingLists</text>
</g>
<!-- Node6 -->
<g id="Node000006" class="node">
<title>Node6</title>
<g id="a_Node000006"><a xlink:href="../../d3/d8d/structStdVideoH264SequenceParameterSetVui.html" target="_top" xlink:title=" ">
<polygon fill="white" stroke="#666666" points="425.75,-193 258.25,-193 258.25,-161 425.75,-161 425.75,-193"/>
<text xml:space="preserve" text-anchor="start" x="266.25" y="-179.5" font-family="Helvetica,sans-Serif" font-size="10.00">StdVideoH264SequenceParameter</text>
<text xml:space="preserve" text-anchor="middle" x="342" y="-167.5" font-family="Helvetica,sans-Serif" font-size="10.00">SetVui</text>
</a>
</g>
</g>
<!-- Node6&#45;&gt;Node3 -->
<g id="edge5_Node000003_Node000006" class="edge">
<title>Node6&#45;&gt;Node3</title>
<g id="a_edge5_Node000003_Node000006"><a xlink:title=" ">
<path fill="none" stroke="#9a32cd" stroke-dasharray="5,2" d="M437.33,-169.24C478.95,-164.74 528.24,-157.95 572,-148 600.58,-141.5 632.3,-130.49 653.97,-122.35"/>
<polygon fill="#9a32cd" stroke="#9a32cd" points="437.18,-165.73 427.59,-170.26 437.91,-172.7 437.18,-165.73"/>
</a>
</g>
<text xml:space="preserve" text-anchor="start" x="446.75" y="-173.53" font-family="Helvetica,sans-Serif" font-size="10.00" fill="grey">pSequenceParameterSetVui</text>
</g>
<!-- Node7 -->
<g id="Node000007" class="node">
<title>Node7</title>
<g id="a_Node000007"><a xlink:href="../../dd/d2f/structStdVideoH264SpsVuiFlags.html" target="_top" xlink:title=" ">
<polygon fill="white" stroke="#666666" points="139.38,-207 5.62,-207 5.62,-187 139.38,-187 139.38,-207"/>
<text xml:space="preserve" text-anchor="middle" x="72.5" y="-193.5" font-family="Helvetica,sans-Serif" font-size="10.00">StdVideoH264SpsVuiFlags</text>
</a>
</g>
</g>
<!-- Node7&#45;&gt;Node6 -->
<g id="edge6_Node000006_Node000007" class="edge">
<title>Node7&#45;&gt;Node6</title>
<g id="a_edge6_Node000006_Node000007"><a xlink:title=" ">
<path fill="none" stroke="#9a32cd" stroke-dasharray="5,2" d="M150.77,-191.22C184.33,-188.71 223.71,-185.77 257.9,-183.21"/>
<polygon fill="#9a32cd" stroke="#9a32cd" points="150.84,-187.71 141.13,-191.94 151.37,-194.69 150.84,-187.71"/>
</a>
</g>
<text xml:space="preserve" text-anchor="start" x="191.12" y="-195.46" font-family="Helvetica,sans-Serif" font-size="10.00" fill="grey">flags</text>
</g>
<!-- Node8 -->
<g id="Node000008" class="node">
<title>Node8</title>
<g id="a_Node000008"><a xlink:href="../../d9/dde/structStdVideoH264HrdParameters.html" target="_top" xlink:title=" ">
<polygon fill="white" stroke="#666666" points="145,-166 0,-166 0,-146 145,-146 145,-166"/>
<text xml:space="preserve" text-anchor="middle" x="72.5" y="-152.5" font-family="Helvetica,sans-Serif" font-size="10.00">StdVideoH264HrdParameters</text>
</a>
</g>
</g>
<!-- Node8&#45;&gt;Node6 -->
<g id="edge7_Node000006_Node000008" class="edge">
<title>Node8&#45;&gt;Node6</title>
<g id="a_edge7_Node000006_Node000008"><a xlink:title=" ">
<path fill="none" stroke="#9a32cd" stroke-dasharray="5,2" d="M156.67,-157.92C183.4,-158.96 213.11,-160.55 240.25,-163 245.97,-163.52 251.85,-164.13 257.78,-164.8"/>
<polygon fill="#9a32cd" stroke="#9a32cd" points="157.05,-154.43 146.93,-157.56 156.8,-161.43 157.05,-154.43"/>
</a>
</g>
<text xml:space="preserve" text-anchor="start" x="166" y="-168.5" font-family="Helvetica,sans-Serif" font-size="10.00" fill="grey">pHrdParameters</text>
</g>
<!-- Node9&#45;&gt;Node2 -->
<g id="edge8_Node000002_Node000009" class="edge">
<title>Node9&#45;&gt;Node2</title>
<g id="a_edge8_Node000002_Node000009"><a xlink:title=" ">
<path fill="none" stroke="#9a32cd" stroke-dasharray="5,2" d="M758.64,-63.25C790.86,-68.41 828.17,-74.39 859.88,-79.48"/>
<polygon fill="#9a32cd" stroke="#9a32cd" points="759.4,-59.82 748.97,-61.7 758.29,-66.74 759.4,-59.82"/>
</a>
</g>
<text xml:space="preserve" text-anchor="start" x="793.5" y="-81.26" font-family="Helvetica,sans-Serif" font-size="10.00" fill="grey">pStdPPSs</text>
</g>
<!-- Node10 -->
<g id="Node000010" class="node">
<title>Node10</title>
<g id="a_Node000010"><a xlink:href="../../df/dc3/structStdVideoH264PpsFlags.html" target="_top" xlink:title=" ">
<polygon fill="white" stroke="#666666" points="402.12,-20 281.88,-20 281.88,0 402.12,0 402.12,-20"/>
<text xml:space="preserve" text-anchor="middle" x="342" y="-6.5" font-family="Helvetica,sans-Serif" font-size="10.00">StdVideoH264PpsFlags</text>
</a>
</g>
</g>
<!-- Node10&#45;&gt;Node9 -->
<g id="edge9_Node000009_Node000010" class="edge">
<title>Node10&#45;&gt;Node9</title>
<g id="a_edge9_Node000009_Node000010"><a xlink:title=" ">
<path fill="none" stroke="#9a32cd" stroke-dasharray="5,2" d="M414.11,-11.54C459.5,-13.29 519.46,-17.03 572,-25 596.08,-28.65 622.68,-35.01 643.48,-40.52"/>
<polygon fill="#9a32cd" stroke="#9a32cd" points="414.24,-8.04 404.12,-11.18 413.99,-15.04 414.24,-8.04"/>
</a>
</g>
<text xml:space="preserve" text-anchor="start" x="497.38" y="-30.5" font-family="Helvetica,sans-Serif" font-size="10.00" fill="grey">flags</text>
</g>
</g>
</svg>
