<?xml version="1.0" encoding="UTF-8" standalone="no"?>
<!DOCTYPE svg PUBLIC "-//W3C//DTD SVG 1.1//EN"
 "http://www.w3.org/Graphics/SVG/1.1/DTD/svg11.dtd">
<!-- Generated by graphviz version 13.1.0 (20250701.0955)
 -->
<!-- Title: SDL_PrivateAddGamepadMapping Pages: 1 -->
<svg width="2049pt" height="261pt"
 viewBox="0.00 0.00 2049.00 261.00" xmlns="http://www.w3.org/2000/svg" xmlns:xlink="http://www.w3.org/1999/xlink">
<g id="graph0" class="graph" transform="scale(1 1) rotate(0) translate(4 256.96)">
<title>SDL_PrivateAddGamepadMapping</title>
<!-- Node1 -->
<g id="Node000001" class="node">
<title>Node1</title>
<g id="a_Node000001"><a xlink:title=" ">
<polygon fill="#999999" stroke="#666666" points="2041.25,-77 1873.75,-77 1873.75,-57 2041.25,-57 2041.25,-77"/>
<text xml:space="preserve" text-anchor="middle" x="1957.5" y="-63.5" font-family="Helvetica,sans-Serif" font-size="10.00">SDL_PrivateAddGamepadMapping</text>
</a>
</g>
</g>
<!-- Node2 -->
<g id="Node000002" class="node">
<title>Node2</title>
<g id="a_Node000002"><a xlink:href="../../d0/d82/SDL__gamepad_8c.html#a7545a00066ddb375368f558625fa4663" target="_top" xlink:title=" ">
<polygon fill="white" stroke="#666666" points="1837.75,-115 1701,-115 1701,-95 1837.75,-95 1837.75,-115"/>
<text xml:space="preserve" text-anchor="middle" x="1769.38" y="-101.5" font-family="Helvetica,sans-Serif" font-size="10.00">SDL_AddGamepadMapping</text>
</a>
</g>
</g>
<!-- Node1&#45;&gt;Node2 -->
<g id="edge1_Node000001_Node000002" class="edge">
<title>Node1&#45;&gt;Node2</title>
<g id="a_edge1_Node000001_Node000002"><a xlink:title=" ">
<path fill="none" stroke="#63b8ff" d="M1893.87,-79.79C1870.35,-84.59 1843.92,-89.99 1821.56,-94.55"/>
<polygon fill="#63b8ff" stroke="#63b8ff" points="1894.57,-83.22 1903.66,-77.79 1893.17,-76.36 1894.57,-83.22"/>
</a>
</g>
</g>
<!-- Node5 -->
<g id="Node000005" class="node">
<title>Node5</title>
<g id="a_Node000005"><a xlink:href="../../d0/d82/SDL__gamepad_8c.html#a4e2a33d7f8e94d2e0facd4a043e587e0" target="_top" xlink:title=" ">
<polygon fill="white" stroke="#666666" points="1237.75,-77 1099.5,-77 1099.5,-57 1237.75,-57 1237.75,-77"/>
<text xml:space="preserve" text-anchor="middle" x="1168.62" y="-63.5" font-family="Helvetica,sans-Serif" font-size="10.00">SDL_InitGamepadMappings</text>
</a>
</g>
</g>
<!-- Node1&#45;&gt;Node5 -->
<g id="edge28_Node000001_Node000005" class="edge">
<title>Node1&#45;&gt;Node5</title>
<g id="a_edge28_Node000001_Node000005"><a xlink:title=" ">
<path fill="none" stroke="#63b8ff" d="M1862.13,-67C1701.57,-67 1378.98,-67 1238.09,-67"/>
<polygon fill="#63b8ff" stroke="#63b8ff" points="1861.89,-70.5 1871.89,-67 1861.89,-63.5 1861.89,-70.5"/>
</a>
</g>
</g>
<!-- Node24 -->
<g id="Node000024" class="node">
<title>Node24</title>
<g id="a_Node000024"><a xlink:href="../../d0/d82/SDL__gamepad_8c.html#ade6229bfbfee02f6d5d430350fb5d6ec" target="_top" xlink:title=" ">
<polygon fill="white" stroke="#666666" points="1641,-39 1514,-39 1514,-19 1641,-19 1641,-39"/>
<text xml:space="preserve" text-anchor="middle" x="1577.5" y="-25.5" font-family="Helvetica,sans-Serif" font-size="10.00">SDL_LoadGamepadHints</text>
</a>
</g>
</g>
<!-- Node1&#45;&gt;Node24 -->
<g id="edge29_Node000001_Node000024" class="edge">
<title>Node1&#45;&gt;Node24</title>
<g id="a_edge29_Node000001_Node000024"><a xlink:title=" ">
<path fill="none" stroke="#63b8ff" d="M1862.21,-55.67C1853.94,-54.74 1845.7,-53.84 1837.75,-53 1770.77,-45.95 1693.94,-38.98 1641.41,-34.38"/>
<polygon fill="#63b8ff" stroke="#63b8ff" points="1861.65,-59.12 1871.98,-56.77 1862.43,-52.17 1861.65,-59.12"/>
</a>
</g>
</g>
<!-- Node3 -->
<g id="Node000003" class="node">
<title>Node3</title>
<g id="a_Node000003"><a xlink:href="../../d0/d82/SDL__gamepad_8c.html#ae7b9342a7971f811d07bcc3f1b957d9e" target="_top" xlink:title=" ">
<polygon fill="white" stroke="#666666" points="1665,-115 1490,-115 1490,-95 1665,-95 1665,-115"/>
<text xml:space="preserve" text-anchor="middle" x="1577.5" y="-101.5" font-family="Helvetica,sans-Serif" font-size="10.00">SDL_AddGamepadMappingsFromIO</text>
</a>
</g>
</g>
<!-- Node2&#45;&gt;Node3 -->
<g id="edge2_Node000002_Node000003" class="edge">
<title>Node2&#45;&gt;Node3</title>
<g id="a_edge2_Node000002_Node000003"><a xlink:title=" ">
<path fill="none" stroke="#63b8ff" d="M1689.25,-105C1681.4,-105 1673.4,-105 1665.47,-105"/>
<polygon fill="#63b8ff" stroke="#63b8ff" points="1689.12,-108.5 1699.12,-105 1689.12,-101.5 1689.12,-108.5"/>
</a>
</g>
</g>
<!-- Node4 -->
<g id="Node000004" class="node">
<title>Node4</title>
<g id="a_Node000004"><a xlink:href="../../d0/d82/SDL__gamepad_8c.html#aa1d136d582fef8ba774037676e0f1d54" target="_top" xlink:title=" ">
<polygon fill="white" stroke="#666666" points="1454,-115 1273.75,-115 1273.75,-95 1454,-95 1454,-115"/>
<text xml:space="preserve" text-anchor="middle" x="1363.88" y="-101.5" font-family="Helvetica,sans-Serif" font-size="10.00">SDL_AddGamepadMappingsFromFile</text>
</a>
</g>
</g>
<!-- Node3&#45;&gt;Node4 -->
<g id="edge3_Node000003_Node000004" class="edge">
<title>Node3&#45;&gt;Node4</title>
<g id="a_edge3_Node000003_Node000004"><a xlink:title=" ">
<path fill="none" stroke="#63b8ff" d="M1478.26,-105C1470.26,-105 1462.2,-105 1454.27,-105"/>
<polygon fill="#63b8ff" stroke="#63b8ff" points="1477.99,-108.5 1487.99,-105 1477.99,-101.5 1477.99,-108.5"/>
</a>
</g>
</g>
<!-- Node4&#45;&gt;Node5 -->
<g id="edge4_Node000004_Node000005" class="edge">
<title>Node4&#45;&gt;Node5</title>
<g id="a_edge4_Node000004_Node000005"><a xlink:title=" ">
<path fill="none" stroke="#63b8ff" d="M1298.51,-92.34C1273.93,-87.51 1246.19,-82.06 1222.77,-77.45"/>
<polygon fill="#63b8ff" stroke="#63b8ff" points="1297.58,-95.73 1308.07,-94.22 1298.94,-88.86 1297.58,-95.73"/>
</a>
</g>
</g>
<!-- Node6 -->
<g id="Node000006" class="node">
<title>Node6</title>
<g id="a_Node000006"><a xlink:href="../../d6/df9/SDL__joystick_8c.html#a9340afa4acb6b0fad4affbb99d4fa014" target="_top" xlink:title=" ">
<polygon fill="white" stroke="#666666" points="1033.88,-96 937.62,-96 937.62,-76 1033.88,-76 1033.88,-96"/>
<text xml:space="preserve" text-anchor="middle" x="985.75" y="-82.5" font-family="Helvetica,sans-Serif" font-size="10.00">SDL_InitJoysticks</text>
</a>
</g>
</g>
<!-- Node5&#45;&gt;Node6 -->
<g id="edge5_Node000005_Node000006" class="edge">
<title>Node5&#45;&gt;Node6</title>
<g id="a_edge5_Node000005_Node000006"><a xlink:title=" ">
<path fill="none" stroke="#63b8ff" d="M1087.92,-75.37C1069.56,-77.3 1050.6,-79.29 1034.13,-81.02"/>
<polygon fill="#63b8ff" stroke="#63b8ff" points="1088.16,-78.87 1097.74,-74.34 1087.43,-71.91 1088.16,-78.87"/>
</a>
</g>
</g>
<!-- Node23 -->
<g id="Node000023" class="node">
<title>Node23</title>
<g id="a_Node000023"><a xlink:href="../../d0/d82/SDL__gamepad_8c.html#aa0b42b7cf85ac2816ef94f66ba9c8d4f" target="_top" xlink:title=" ">
<polygon fill="white" stroke="#666666" points="1063.5,-58 908,-58 908,-38 1063.5,-38 1063.5,-58"/>
<text xml:space="preserve" text-anchor="middle" x="985.75" y="-44.5" font-family="Helvetica,sans-Serif" font-size="10.00">SDL_ReloadGamepadMappings</text>
</a>
</g>
</g>
<!-- Node5&#45;&gt;Node23 -->
<g id="edge27_Node000005_Node000023" class="edge">
<title>Node5&#45;&gt;Node23</title>
<g id="a_edge27_Node000005_Node000023"><a xlink:title=" ">
<path fill="none" stroke="#63b8ff" d="M1087.96,-58.63C1079.91,-57.79 1071.74,-56.93 1063.71,-56.08"/>
<polygon fill="#63b8ff" stroke="#63b8ff" points="1087.43,-62.09 1097.74,-59.66 1088.16,-55.13 1087.43,-62.09"/>
</a>
</g>
</g>
<!-- Node7 -->
<g id="Node000007" class="node">
<title>Node7</title>
<g id="a_Node000007"><a xlink:href="../../df/d78/SDL_8c.html#aa33d2b8c0a69b16651f78c26f391b6ef" target="_top" xlink:title=" ">
<polygon fill="white" stroke="#666666" points="872,-96 766.75,-96 766.75,-76 872,-76 872,-96"/>
<text xml:space="preserve" text-anchor="middle" x="819.38" y="-82.5" font-family="Helvetica,sans-Serif" font-size="10.00">SDL_InitSubSystem</text>
</a>
</g>
</g>
<!-- Node6&#45;&gt;Node7 -->
<g id="edge6_Node000006_Node000007" class="edge">
<title>Node6&#45;&gt;Node7</title>
<g id="a_edge6_Node000006_Node000007"><a xlink:title=" ">
<path fill="none" stroke="#63b8ff" d="M925.97,-79.5C908.48,-79.12 889.45,-79.17 872.42,-79.67"/>
<polygon fill="#63b8ff" stroke="#63b8ff" points="925.6,-82.99 935.69,-79.77 925.79,-75.99 925.6,-82.99"/>
</a>
</g>
</g>
<!-- Node7&#45;&gt;Node6 -->
<g id="edge18_Node000007_Node000006" class="edge">
<title>Node7&#45;&gt;Node6</title>
<g id="a_edge18_Node000007_Node000006"><a xlink:title=" ">
<path fill="none" stroke="#63b8ff" d="M883.86,-92.59C901.6,-92.9 920.56,-92.76 937.21,-92.19"/>
<polygon fill="#63b8ff" stroke="#63b8ff" points="884.01,-89.09 873.93,-92.36 883.85,-96.09 884.01,-89.09"/>
</a>
</g>
</g>
<!-- Node8 -->
<g id="Node000008" class="node">
<title>Node8</title>
<g id="a_Node000008"><a xlink:href="../../d6/df9/SDL__joystick_8c.html#a7d2531dc4fbc8de52a29ac3ec171a495" target="_top" xlink:title=" ">
<polygon fill="white" stroke="#666666" points="507.38,-248 396.88,-248 396.88,-228 507.38,-228 507.38,-248"/>
<text xml:space="preserve" text-anchor="middle" x="452.12" y="-234.5" font-family="Helvetica,sans-Serif" font-size="10.00">AttemptSensorFusion</text>
</a>
</g>
</g>
<!-- Node7&#45;&gt;Node8 -->
<g id="edge7_Node000007_Node000008" class="edge">
<title>Node7&#45;&gt;Node8</title>
<g id="a_edge7_Node000007_Node000008"><a xlink:title=" ">
<path fill="none" stroke="#63b8ff" d="M811.34,-107.07C799.87,-137.75 773.97,-193.78 730.75,-219 662.11,-259.06 567.05,-255.48 507.87,-247.81"/>
<polygon fill="#63b8ff" stroke="#63b8ff" points="814.61,-108.35 814.65,-97.76 808.01,-106.01 814.61,-108.35"/>
</a>
</g>
</g>
<!-- Node11 -->
<g id="Node000011" class="node">
<title>Node11</title>
<g id="a_Node000011"><a xlink:href="../../d6/df9/SDL__joystick_8c.html#a94fd638a34a769ff6a7a01738257215c" target="_top" xlink:title=" ">
<polygon fill="white" stroke="#666666" points="683.5,-210 620.25,-210 620.25,-190 683.5,-190 683.5,-210"/>
<text xml:space="preserve" text-anchor="middle" x="651.88" y="-196.5" font-family="Helvetica,sans-Serif" font-size="10.00">IsROGAlly</text>
</a>
</g>
</g>
<!-- Node7&#45;&gt;Node11 -->
<g id="edge10_Node000007_Node000011" class="edge">
<title>Node7&#45;&gt;Node11</title>
<g id="a_edge10_Node000007_Node000011"><a xlink:title=" ">
<path fill="none" stroke="#63b8ff" d="M805.57,-105.72C790.36,-127.5 762.96,-162.02 730.75,-181 716.48,-189.41 698.65,-194.1 683.65,-196.72"/>
<polygon fill="#63b8ff" stroke="#63b8ff" points="808.29,-107.93 811,-97.69 802.49,-104.01 808.29,-107.93"/>
</a>
</g>
</g>
<!-- Node13 -->
<g id="Node000013" class="node">
<title>Node13</title>
<g id="a_Node000013"><a xlink:href="../../df/d78/SDL_8c.html#ac25d0ce460db43ca8c7681eb8e7c5007" target="_top" xlink:title=" ">
<polygon fill="white" stroke="#666666" points="679,-172 624.75,-172 624.75,-152 679,-152 679,-172"/>
<text xml:space="preserve" text-anchor="middle" x="651.88" y="-158.5" font-family="Helvetica,sans-Serif" font-size="10.00">SDL_Init</text>
</a>
</g>
</g>
<!-- Node7&#45;&gt;Node13 -->
<g id="edge13_Node000007_Node000013" class="edge">
<title>Node7&#45;&gt;Node13</title>
<g id="a_edge13_Node000007_Node000013"><a xlink:title=" ">
<path fill="none" stroke="#63b8ff" d="M796.43,-103.29C779.39,-115.94 754.7,-132.65 730.75,-143 714.27,-150.12 694.63,-154.89 679.19,-157.87"/>
<polygon fill="#63b8ff" stroke="#63b8ff" points="798.47,-106.14 804.31,-97.3 794.23,-100.56 798.47,-106.14"/>
</a>
</g>
</g>
<!-- Node18 -->
<g id="Node000018" class="node">
<title>Node18</title>
<g id="a_Node000018"><a xlink:href="../../d9/d78/SDL__main__callbacks_8c.html#a3d21b5bf7aa441418de48c5b2856336a" target="_top" xlink:title=" ">
<polygon fill="white" stroke="#666666" points="711.25,-134 592.5,-134 592.5,-114 711.25,-114 711.25,-134"/>
<text xml:space="preserve" text-anchor="middle" x="651.88" y="-120.5" font-family="Helvetica,sans-Serif" font-size="10.00">SDL_InitMainCallbacks</text>
</a>
</g>
</g>
<!-- Node7&#45;&gt;Node18 -->
<g id="edge19_Node000007_Node000018" class="edge">
<title>Node7&#45;&gt;Node18</title>
<g id="a_edge19_Node000007_Node000018"><a xlink:title=" ">
<path fill="none" stroke="#63b8ff" d="M761.54,-99.05C740.92,-103.78 717.91,-109.07 698.39,-113.55"/>
<polygon fill="#63b8ff" stroke="#63b8ff" points="762.28,-102.47 771.24,-96.82 760.71,-95.65 762.28,-102.47"/>
</a>
</g>
</g>
<!-- Node20 -->
<g id="Node000020" class="node">
<title>Node20</title>
<g id="a_Node000020"><a xlink:href="../../df/d78/SDL_8c.html#a8f0bf712ad7ba759f5b6e04e683c67d4" target="_top" xlink:title=" ">
<polygon fill="white" stroke="#666666" points="730.75,-96 573,-96 573,-76 730.75,-76 730.75,-96"/>
<text xml:space="preserve" text-anchor="middle" x="651.88" y="-82.5" font-family="Helvetica,sans-Serif" font-size="10.00">SDL_InitOrIncrementSubsystem</text>
</a>
</g>
</g>
<!-- Node7&#45;&gt;Node20 -->
<g id="edge21_Node000007_Node000020" class="edge">
<title>Node7&#45;&gt;Node20</title>
<g id="a_edge21_Node000007_Node000020"><a xlink:title=" ">
<path fill="none" stroke="#63b8ff" d="M755.11,-79.42C747.21,-79.28 739.06,-79.23 730.97,-79.26"/>
<polygon fill="#63b8ff" stroke="#63b8ff" points="754.87,-82.91 764.95,-79.65 755.04,-75.92 754.87,-82.91"/>
</a>
</g>
</g>
<!-- Node21 -->
<g id="Node000021" class="node">
<title>Node21</title>
<g id="a_Node000021"><a xlink:href="../../dc/de1/SDL__sensor_8c.html#abdb7d6b73a301a2c8558ba80edb32331" target="_top" xlink:title=" ">
<polygon fill="white" stroke="#666666" points="697,-58 606.75,-58 606.75,-38 697,-38 697,-58"/>
<text xml:space="preserve" text-anchor="middle" x="651.88" y="-44.5" font-family="Helvetica,sans-Serif" font-size="10.00">SDL_InitSensors</text>
</a>
</g>
</g>
<!-- Node7&#45;&gt;Node21 -->
<g id="edge23_Node000007_Node000021" class="edge">
<title>Node7&#45;&gt;Node21</title>
<g id="a_edge23_Node000007_Node000021"><a xlink:title=" ">
<path fill="none" stroke="#63b8ff" d="M783.46,-72.36C758.34,-65.25 724.26,-57.28 697.22,-52.12"/>
<polygon fill="#63b8ff" stroke="#63b8ff" points="782.28,-75.66 792.86,-75.12 784.25,-68.94 782.28,-75.66"/>
</a>
</g>
</g>
<!-- Node22 -->
<g id="Node000022" class="node">
<title>Node22</title>
<g id="a_Node000022"><a xlink:href="../../d6/d3d/SDL__video_8c.html#ac61dc66ab71d039f9b681916d0fcbc6e" target="_top" xlink:title=" ">
<polygon fill="white" stroke="#666666" points="691.38,-20 612.38,-20 612.38,0 691.38,0 691.38,-20"/>
<text xml:space="preserve" text-anchor="middle" x="651.88" y="-6.5" font-family="Helvetica,sans-Serif" font-size="10.00">SDL_VideoInit</text>
</a>
</g>
</g>
<!-- Node7&#45;&gt;Node22 -->
<g id="edge25_Node000007_Node000022" class="edge">
<title>Node7&#45;&gt;Node22</title>
<g id="a_edge25_Node000007_Node000022"><a xlink:title=" ">
<path fill="none" stroke="#63b8ff" d="M804.07,-68C787.4,-52.63 758.58,-32.03 730.75,-20 718.49,-14.7 704.47,-10.7 691.74,-8.25"/>
<polygon fill="#63b8ff" stroke="#63b8ff" points="801.38,-70.25 810.93,-74.84 806.32,-65.3 801.38,-70.25"/>
</a>
</g>
</g>
<!-- Node9 -->
<g id="Node000009" class="node">
<title>Node9</title>
<g id="a_Node000009"><a xlink:href="../../d6/df9/SDL__joystick_8c.html#a0c867d96ec6bc9c3aca87c8ee6b53ade" target="_top" xlink:title=" ">
<polygon fill="white" stroke="#666666" points="315.12,-229 214.38,-229 214.38,-209 315.12,-209 315.12,-229"/>
<text xml:space="preserve" text-anchor="middle" x="264.75" y="-215.5" font-family="Helvetica,sans-Serif" font-size="10.00">SDL_OpenJoystick</text>
</a>
</g>
</g>
<!-- Node8&#45;&gt;Node9 -->
<g id="edge8_Node000008_Node000009" class="edge">
<title>Node8&#45;&gt;Node9</title>
<g id="a_edge8_Node000008_Node000009"><a xlink:title=" ">
<path fill="none" stroke="#63b8ff" d="M385.13,-231.24C362.22,-228.89 336.93,-226.3 315.55,-224.1"/>
<polygon fill="#63b8ff" stroke="#63b8ff" points="384.7,-234.71 395,-232.25 385.41,-227.75 384.7,-234.71"/>
</a>
</g>
</g>
<!-- Node10 -->
<g id="Node000010" class="node">
<title>Node10</title>
<g id="a_Node000010"><a xlink:href="../../d0/d82/SDL__gamepad_8c.html#a011496690758b66ec0f7098f030b6d85" target="_top" xlink:title=" ">
<polygon fill="white" stroke="#666666" points="134.12,-229 28.12,-229 28.12,-209 134.12,-209 134.12,-229"/>
<text xml:space="preserve" text-anchor="middle" x="81.12" y="-215.5" font-family="Helvetica,sans-Serif" font-size="10.00">SDL_OpenGamepad</text>
</a>
</g>
</g>
<!-- Node9&#45;&gt;Node10 -->
<g id="edge9_Node000009_Node000010" class="edge">
<title>Node9&#45;&gt;Node10</title>
<g id="a_edge9_Node000009_Node000010"><a xlink:title=" ">
<path fill="none" stroke="#63b8ff" d="M202.82,-219C180.69,-219 155.89,-219 134.55,-219"/>
<polygon fill="#63b8ff" stroke="#63b8ff" points="202.61,-222.5 212.61,-219 202.61,-215.5 202.61,-222.5"/>
</a>
</g>
</g>
<!-- Node12 -->
<g id="Node000012" class="node">
<title>Node12</title>
<g id="a_Node000012"><a xlink:href="../../d6/df9/SDL__joystick_8c.html#a497945f75b33dbfcde319992145025c5" target="_top" xlink:title=" ">
<polygon fill="white" stroke="#666666" points="522.38,-210 381.88,-210 381.88,-190 522.38,-190 522.38,-210"/>
<text xml:space="preserve" text-anchor="middle" x="452.12" y="-196.5" font-family="Helvetica,sans-Serif" font-size="10.00">ShouldAttemptSensorFusion</text>
</a>
</g>
</g>
<!-- Node11&#45;&gt;Node12 -->
<g id="edge11_Node000011_Node000012" class="edge">
<title>Node11&#45;&gt;Node12</title>
<g id="a_edge11_Node000011_Node000012"><a xlink:title=" ">
<path fill="none" stroke="#63b8ff" d="M608.69,-200C583.69,-200 551.39,-200 522.71,-200"/>
<polygon fill="#63b8ff" stroke="#63b8ff" points="608.46,-203.5 618.46,-200 608.46,-196.5 608.46,-203.5"/>
</a>
</g>
</g>
<!-- Node12&#45;&gt;Node9 -->
<g id="edge12_Node000012_Node000009" class="edge">
<title>Node12&#45;&gt;Node9</title>
<g id="a_edge12_Node000012_Node000009"><a xlink:title=" ">
<path fill="none" stroke="#63b8ff" d="M370.36,-208.28C351.68,-210.19 332.33,-212.18 315.44,-213.91"/>
<polygon fill="#63b8ff" stroke="#63b8ff" points="370.47,-211.78 380.07,-207.28 369.76,-204.82 370.47,-211.78"/>
</a>
</g>
</g>
<!-- Node14 -->
<g id="Node000014" class="node">
<title>Node14</title>
<g id="a_Node000014"><a xlink:href="../../d6/d3d/SDL__video_8c.html#a9f3d88531134e2c3e575a3c2db7f8488" target="_top" xlink:title=" ">
<polygon fill="white" stroke="#666666" points="537,-172 367.25,-172 367.25,-152 537,-152 537,-172"/>
<text xml:space="preserve" text-anchor="middle" x="452.12" y="-158.5" font-family="Helvetica,sans-Serif" font-size="10.00">SDL_CreateWindowWithProperties</text>
</a>
</g>
</g>
<!-- Node13&#45;&gt;Node14 -->
<g id="edge14_Node000013_Node000014" class="edge">
<title>Node13&#45;&gt;Node14</title>
<g id="a_edge14_Node000013_Node000014"><a xlink:title=" ">
<path fill="none" stroke="#63b8ff" d="M613.37,-162C591.84,-162 563.89,-162 537.38,-162"/>
<polygon fill="#63b8ff" stroke="#63b8ff" points="613.1,-165.5 623.1,-162 613.1,-158.5 613.1,-165.5"/>
</a>
</g>
</g>
<!-- Node15 -->
<g id="Node000015" class="node">
<title>Node15</title>
<g id="a_Node000015"><a xlink:href="../../d6/d3d/SDL__video_8c.html#acc26de39ce1bd675446e4d6c05ebf4b0" target="_top" xlink:title=" ">
<polygon fill="white" stroke="#666666" points="331.25,-191 198.25,-191 198.25,-171 331.25,-171 331.25,-191"/>
<text xml:space="preserve" text-anchor="middle" x="264.75" y="-177.5" font-family="Helvetica,sans-Serif" font-size="10.00">SDL_CreatePopupWindow</text>
</a>
</g>
</g>
<!-- Node14&#45;&gt;Node15 -->
<g id="edge15_Node000014_Node000015" class="edge">
<title>Node14&#45;&gt;Node15</title>
<g id="a_edge15_Node000014_Node000015"><a xlink:title=" ">
<path fill="none" stroke="#63b8ff" d="M355.42,-171.81C347.33,-172.64 339.27,-173.46 331.5,-174.26"/>
<polygon fill="#63b8ff" stroke="#63b8ff" points="355.75,-175.29 365.34,-170.79 355.03,-168.33 355.75,-175.29"/>
</a>
</g>
</g>
<!-- Node16 -->
<g id="Node000016" class="node">
<title>Node16</title>
<g id="a_Node000016"><a xlink:href="../../d6/d3d/SDL__video_8c.html#a83103c86f9e5c33ab9e1fb6dfa904b7f" target="_top" xlink:title=" ">
<polygon fill="white" stroke="#666666" points="317.38,-153 212.12,-153 212.12,-133 317.38,-133 317.38,-153"/>
<text xml:space="preserve" text-anchor="middle" x="264.75" y="-139.5" font-family="Helvetica,sans-Serif" font-size="10.00">SDL_CreateWindow</text>
</a>
</g>
</g>
<!-- Node14&#45;&gt;Node16 -->
<g id="edge16_Node000014_Node000016" class="edge">
<title>Node14&#45;&gt;Node16</title>
<g id="a_edge16_Node000014_Node000016"><a xlink:title=" ">
<path fill="none" stroke="#63b8ff" d="M355.44,-152.19C342.45,-150.86 329.54,-149.54 317.73,-148.33"/>
<polygon fill="#63b8ff" stroke="#63b8ff" points="355.03,-155.67 365.34,-153.21 355.75,-148.71 355.03,-155.67"/>
</a>
</g>
</g>
<!-- Node17 -->
<g id="Node000017" class="node">
<title>Node17</title>
<g id="a_Node000017"><a xlink:href="../../dd/df3/SDL__render_8c.html#a36f859fae15e4277ba052f9ecfb2816d" target="_top" xlink:title=" ">
<polygon fill="white" stroke="#666666" points="162.25,-153 0,-153 0,-133 162.25,-133 162.25,-153"/>
<text xml:space="preserve" text-anchor="middle" x="81.12" y="-139.5" font-family="Helvetica,sans-Serif" font-size="10.00">SDL_CreateWindowAndRenderer</text>
</a>
</g>
</g>
<!-- Node16&#45;&gt;Node17 -->
<g id="edge17_Node000016_Node000017" class="edge">
<title>Node16&#45;&gt;Node17</title>
<g id="a_edge17_Node000016_Node000017"><a xlink:title=" ">
<path fill="none" stroke="#63b8ff" d="M200.3,-143C188.14,-143 175.26,-143 162.64,-143"/>
<polygon fill="#63b8ff" stroke="#63b8ff" points="200.19,-146.5 210.19,-143 200.19,-139.5 200.19,-146.5"/>
</a>
</g>
</g>
<!-- Node19 -->
<g id="Node000019" class="node">
<title>Node19</title>
<g id="a_Node000019"><a xlink:href="../../dd/db5/generic_2SDL__sysmain__callbacks_8c.html#aa50e1897a91f2547b5f31125020220e2" target="_top" xlink:title=" ">
<polygon fill="white" stroke="#666666" points="525,-134 379.25,-134 379.25,-114 525,-114 525,-134"/>
<text xml:space="preserve" text-anchor="middle" x="452.12" y="-120.5" font-family="Helvetica,sans-Serif" font-size="10.00">SDL_EnterAppMainCallbacks</text>
</a>
</g>
</g>
<!-- Node18&#45;&gt;Node19 -->
<g id="edge20_Node000018_Node000019" class="edge">
<title>Node18&#45;&gt;Node19</title>
<g id="a_edge20_Node000018_Node000019"><a xlink:title=" ">
<path fill="none" stroke="#63b8ff" d="M580.79,-124C562.81,-124 543.44,-124 525.35,-124"/>
<polygon fill="#63b8ff" stroke="#63b8ff" points="580.57,-127.5 590.57,-124 580.57,-120.5 580.57,-127.5"/>
</a>
</g>
</g>
<!-- Node20&#45;&gt;Node7 -->
<g id="edge22_Node000020_Node000007" class="edge">
<title>Node20&#45;&gt;Node7</title>
<g id="a_edge22_Node000020_Node000007"><a xlink:title=" ">
<path fill="none" stroke="#63b8ff" d="M742.26,-92.73C750.53,-92.68 758.71,-92.54 766.46,-92.31"/>
<polygon fill="#63b8ff" stroke="#63b8ff" points="742.48,-89.23 732.48,-92.74 742.49,-96.23 742.48,-89.23"/>
</a>
</g>
</g>
<!-- Node21&#45;&gt;Node7 -->
<g id="edge24_Node000021_Node000007" class="edge">
<title>Node21&#45;&gt;Node7</title>
<g id="a_edge24_Node000021_Node000007"><a xlink:title=" ">
<path fill="none" stroke="#63b8ff" d="M687.78,-61.64C710.61,-68.1 740.84,-75.27 766.46,-80.4"/>
<polygon fill="#63b8ff" stroke="#63b8ff" points="688.93,-58.33 678.35,-58.87 686.96,-65.05 688.93,-58.33"/>
</a>
</g>
</g>
<!-- Node22&#45;&gt;Node7 -->
<g id="edge26_Node000022_Node000007" class="edge">
<title>Node22&#45;&gt;Node7</title>
<g id="a_edge26_Node000022_Node000007"><a xlink:title=" ">
<path fill="none" stroke="#63b8ff" d="M684.58,-23.41C699.03,-27.22 716.13,-31.68 730.75,-38 754.4,-48.23 778.78,-64.64 795.79,-75.7"/>
<polygon fill="#63b8ff" stroke="#63b8ff" points="685.68,-20.08 675.12,-20.86 683.86,-26.84 685.68,-20.08"/>
</a>
</g>
</g>
<!-- Node24&#45;&gt;Node5 -->
<g id="edge30_Node000024_Node000005" class="edge">
<title>Node24&#45;&gt;Node5</title>
<g id="a_edge30_Node000024_Node000005"><a xlink:title=" ">
<path fill="none" stroke="#63b8ff" d="M1502.67,-33.72C1441.3,-37.92 1351.73,-44.67 1273.75,-53 1262.23,-54.23 1250.02,-55.71 1238.17,-57.24"/>
<polygon fill="#63b8ff" stroke="#63b8ff" points="1502.54,-37.24 1512.28,-33.07 1502.06,-30.26 1502.54,-37.24"/>
</a>
</g>
</g>
</g>
</svg>
