<?xml version="1.0" encoding="UTF-8" standalone="no"?>
<!DOCTYPE svg PUBLIC "-//W3C//DTD SVG 1.1//EN"
 "http://www.w3.org/Graphics/SVG/1.1/DTD/svg11.dtd">
<!-- Generated by graphviz version 13.1.0 (20250701.0955)
 -->
<!-- Title: SDL_PrivateAppendToMappingString Pages: 1 -->
<svg width="269pt" height="122pt"
 viewBox="0.00 0.00 269.00 122.00" xmlns="http://www.w3.org/2000/svg" xmlns:xlink="http://www.w3.org/1999/xlink">
<g id="graph0" class="graph" transform="scale(1 1) rotate(0) translate(4 118)">
<title>SDL_PrivateAppendToMappingString</title>
<!-- Node1 -->
<g id="Node000001" class="node">
<title>Node1</title>
<g id="a_Node000001"><a xlink:title=" ">
<polygon fill="#999999" stroke="#666666" points="151.75,-64 0,-64 0,-32 151.75,-32 151.75,-64"/>
<text xml:space="preserve" text-anchor="start" x="8" y="-50.5" font-family="Helvetica,sans-Serif" font-size="10.00">SDL_PrivateAppendToMapping</text>
<text xml:space="preserve" text-anchor="middle" x="75.88" y="-38.5" font-family="Helvetica,sans-Serif" font-size="10.00">String</text>
</a>
</g>
</g>
<!-- Node2 -->
<g id="Node000002" class="node">
<title>Node2</title>
<g id="a_Node000002"><a xlink:href="../../d2/d5b/SDL__stdinc_8h.html#a5056fbcb8d3d77a21e67c9687f889b40" target="_top" xlink:title=" ">
<polygon fill="white" stroke="#666666" points="260.75,-96 187.75,-96 187.75,-76 260.75,-76 260.75,-96"/>
<text xml:space="preserve" text-anchor="middle" x="224.25" y="-82.5" font-family="Helvetica,sans-Serif" font-size="10.00">SDL_snprintf</text>
</a>
</g>
</g>
<!-- Node1&#45;&gt;Node2 -->
<g id="edge1_Node000001_Node000002" class="edge">
<title>Node1&#45;&gt;Node2</title>
<g id="a_edge1_Node000001_Node000002"><a xlink:title=" ">
<path fill="none" stroke="#63b8ff" d="M140.23,-64.45C152.4,-67.61 164.93,-70.86 176.46,-73.85"/>
<polygon fill="#63b8ff" stroke="#63b8ff" points="175.58,-77.24 186.14,-76.37 177.34,-70.47 175.58,-77.24"/>
</a>
</g>
</g>
<!-- Node3 -->
<g id="Node000003" class="node">
<title>Node3</title>
<g id="a_Node000003"><a xlink:href="../../d2/d5b/SDL__stdinc_8h.html#a1ea53e7ef15ef581589c64af646dfbb7" target="_top" xlink:title=" ">
<polygon fill="white" stroke="#666666" points="258.12,-58 190.38,-58 190.38,-38 258.12,-38 258.12,-58"/>
<text xml:space="preserve" text-anchor="middle" x="224.25" y="-44.5" font-family="Helvetica,sans-Serif" font-size="10.00">SDL_strlcat</text>
</a>
</g>
</g>
<!-- Node1&#45;&gt;Node3 -->
<g id="edge3_Node000001_Node000003" class="edge">
<title>Node1&#45;&gt;Node3</title>
<g id="a_edge3_Node000001_Node000003"><a xlink:title=" ">
<path fill="none" stroke="#63b8ff" d="M152.21,-48C161.25,-48 170.26,-48 178.66,-48"/>
<polygon fill="#63b8ff" stroke="#63b8ff" points="178.57,-51.5 188.57,-48 178.57,-44.5 178.57,-51.5"/>
</a>
</g>
</g>
<!-- Node4 -->
<g id="Node000004" class="node">
<title>Node4</title>
<g id="a_Node000004"><a xlink:href="../../d3/dda/eglext_8h.html#a0f7193911e632cd84da4082d5c628fe3" target="_top" xlink:title=" ">
<polygon fill="white" stroke="#666666" points="241.25,-20 207.25,-20 207.25,0 241.25,0 241.25,-20"/>
<text xml:space="preserve" text-anchor="middle" x="224.25" y="-6.5" font-family="Helvetica,sans-Serif" font-size="10.00">void</text>
</a>
</g>
</g>
<!-- Node1&#45;&gt;Node4 -->
<g id="edge4_Node000001_Node000004" class="edge">
<title>Node1&#45;&gt;Node4</title>
<g id="a_edge4_Node000001_Node000004"><a xlink:title=" ">
<path fill="none" stroke="#63b8ff" d="M140.23,-31.55C159.68,-26.5 180.08,-21.21 195.79,-17.13"/>
<polygon fill="#63b8ff" stroke="#63b8ff" points="196.53,-20.55 205.33,-14.65 194.78,-13.78 196.53,-20.55"/>
</a>
</g>
</g>
<!-- Node2&#45;&gt;Node2 -->
<g id="edge2_Node000002_Node000002" class="edge">
<title>Node2&#45;&gt;Node2</title>
<g id="a_edge2_Node000002_Node000002"><a xlink:title=" ">
<path fill="none" stroke="#63b8ff" d="M200.67,-96.34C190.6,-104.98 198.46,-114 224.25,-114 238.35,-114 247.1,-111.3 250.47,-107.44"/>
<polygon fill="#63b8ff" stroke="#63b8ff" points="253.9,-106.73 248.18,-97.81 247.09,-108.35 253.9,-106.73"/>
</a>
</g>
</g>
</g>
</svg>
