<?xml version="1.0" encoding="UTF-8" standalone="no"?>
<!DOCTYPE svg PUBLIC "-//W3C//DTD SVG 1.1//EN"
 "http://www.w3.org/Graphics/SVG/1.1/DTD/svg11.dtd">
<!-- Generated by graphviz version 13.1.0 (20250701.0955)
 -->
<!-- Title: SDL&#45;main/src/hidapi/mac/hid.c Pages: 1 -->
<!--zoomable 208 -->

<svg id="main" version="1.1" xmlns="http://www.w3.org/2000/svg" xmlns:xlink="http://www.w3.org/1999/xlink" xml:space="preserve" onload="init(evt)">

<style type="text/css"><![CDATA[
.node, .edge {opacity: 0.7;}
.node.selected, .edge.selected {opacity: 1;}
.edge:hover path { stroke: red; }
.edge:hover polygon { stroke: red; fill: red; }
]]></style>

<defs>
  <circle id="rim" cx="0" cy="0" r="7"/>
  <circle id="rim2" cx="0" cy="0" r="3.5"/>
  <g id="zoomPlus">
    <use xlink:href="#rim" fill="#404040"><set attributeName="fill" to="#808080" begin="zoomplus.mouseover" end="zoomplus.mouseout"/></use>
    <path d="M-4,0h8M0,-4v8" fill="none" stroke="white" stroke-width="1.5" pointer-events="none"/>
  </g>
  <g id="zoomMin">
    <use xlink:href="#rim" fill="#404040"><set attributeName="fill" to="#808080" begin="zoomminus.mouseover" end="zoomminus.mouseout"/></use>
    <path d="M-4,0h8" fill="none" stroke="white" stroke-width="1.5" pointer-events="none"/>
  </g>
  <g id="arrowUp" transform="translate(30 24)">
    <use xlink:href="#rim"/>
    <path pointer-events="none" fill="none" stroke="white" stroke-width="1.5" d="M0,-3.0v7 M-2.5,-0.5L0,-3.0L2.5,-0.5"/>
  </g>
  <g id="arrowRight" transform="rotate(90) translate(36 -43)">
    <use xlink:href="#rim"/>
    <path pointer-events="none" fill="none" stroke="white" stroke-width="1.5" d="M0,-3.0v7 M-2.5,-0.5L0,-3.0L2.5,-0.5"/>
  </g>
  <g id="arrowDown" transform="rotate(180) translate(-30 -48)">
    <use xlink:href="#rim"/>
    <path pointer-events="none" fill="none" stroke="white" stroke-width="1.5" d="M0,-3.0v7 M-2.5,-0.5L0,-3.0L2.5,-0.5"/>
  </g>
  <g id="arrowLeft" transform="rotate(270) translate(-36 17)">
    <use xlink:href="#rim"/>
    <path pointer-events="none" fill="none" stroke="white" stroke-width="1.5" d="M0,-3.0v7 M-2.5,-0.5L0,-3.0L2.5,-0.5"/>
  </g>
  <g id="resetDef">
    <use xlink:href="#rim2" fill="#404040"><set attributeName="fill" to="#808080" begin="reset.mouseover" end="reset.mouseout"/></use>
  </g>
</defs>
<script type="application/ecmascript">
var viewWidth = 1378;
var viewHeight = 208;
var sectionId = 'dynsection-0';
</script>
<script type="application/ecmascript" xlink:href="../../svg.min.js"/>
<svg id="graph" class="graph">
<g id="viewport">
<title>SDL&#45;main/src/hidapi/mac/hid.c</title>
<!-- Node1 -->
<g id="Node000001" class="node">
<title>Node1</title>
<g id="a_Node000001"><a xlink:title=" ">
<polygon fill="#999999" stroke="#666666" points="928,-200 823.5,-200 823.5,-168 928,-168 928,-200"/>
<text xml:space="preserve" text-anchor="start" x="831.5" y="-186.5" font-family="Helvetica,sans-Serif" font-size="10.00">SDL&#45;main/src/hidapi</text>
<text xml:space="preserve" text-anchor="middle" x="875.75" y="-174.5" font-family="Helvetica,sans-Serif" font-size="10.00">/mac/hid.c</text>
</a>
</g>
</g>
<!-- Node2 -->
<g id="Node000002" class="node">
<title>Node2</title>
<g id="a_Node000002"><a xlink:title=" ">
<polygon fill="#e0e0e0" stroke="#999999" points="131.5,-132 0,-132 0,-112 131.5,-112 131.5,-132"/>
<text xml:space="preserve" text-anchor="middle" x="65.75" y="-118.5" font-family="Helvetica,sans-Serif" font-size="10.00">IOKit/hid/IOHIDManager.h</text>
</a>
</g>
</g>
<!-- Node1&#45;&gt;Node2 -->
<g id="edge1_Node000001_Node000002" class="edge">
<title>Node1&#45;&gt;Node2</title>
<g id="a_edge1_Node000001_Node000002"><a xlink:title=" ">
<path fill="none" stroke="#63b8ff" d="M823.09,-180.26C704.02,-173.85 404.71,-156.66 143.23,-132.19"/>
<polygon fill="#63b8ff" stroke="#63b8ff" points="143.78,-128.73 133.49,-131.27 143.12,-135.69 143.78,-128.73"/>
</a>
</g>
</g>
<!-- Node3 -->
<g id="Node000003" class="node">
<title>Node3</title>
<g id="a_Node000003"><a xlink:title=" ">
<polygon fill="#e0e0e0" stroke="#999999" points="266,-132 149.5,-132 149.5,-112 266,-112 266,-132"/>
<text xml:space="preserve" text-anchor="middle" x="207.75" y="-118.5" font-family="Helvetica,sans-Serif" font-size="10.00">IOKit/hid/IOHIDKeys.h</text>
</a>
</g>
</g>
<!-- Node1&#45;&gt;Node3 -->
<g id="edge2_Node000001_Node000003" class="edge">
<title>Node1&#45;&gt;Node3</title>
<g id="a_edge2_Node000001_Node000003"><a xlink:title=" ">
<path fill="none" stroke="#63b8ff" d="M823.01,-179.4C720.17,-172.18 485.39,-154.77 277.34,-132.24"/>
<polygon fill="#63b8ff" stroke="#63b8ff" points="278.02,-128.79 267.7,-131.19 277.26,-135.75 278.02,-128.79"/>
</a>
</g>
</g>
<!-- Node4 -->
<g id="Node000004" class="node">
<title>Node4</title>
<g id="a_Node000004"><a xlink:title=" ">
<polygon fill="#e0e0e0" stroke="#999999" points="369.25,-132 284.25,-132 284.25,-112 369.25,-112 369.25,-132"/>
<text xml:space="preserve" text-anchor="middle" x="326.75" y="-118.5" font-family="Helvetica,sans-Serif" font-size="10.00">IOKit/IOKitLib.h</text>
</a>
</g>
</g>
<!-- Node1&#45;&gt;Node4 -->
<g id="edge3_Node000001_Node000004" class="edge">
<title>Node1&#45;&gt;Node4</title>
<g id="a_edge3_Node000001_Node000004"><a xlink:title=" ">
<path fill="none" stroke="#63b8ff" d="M823.01,-178.79C734.09,-171.44 548.47,-154.96 380.83,-132.19"/>
<polygon fill="#63b8ff" stroke="#63b8ff" points="381.44,-128.75 371.06,-130.86 380.49,-135.68 381.44,-128.75"/>
</a>
</g>
</g>
<!-- Node5 -->
<g id="Node000005" class="node">
<title>Node5</title>
<g id="a_Node000005"><a xlink:title=" ">
<polygon fill="#e0e0e0" stroke="#999999" points="499.75,-132 387.75,-132 387.75,-112 499.75,-112 499.75,-132"/>
<text xml:space="preserve" text-anchor="middle" x="443.75" y="-118.5" font-family="Helvetica,sans-Serif" font-size="10.00">IOKit/usb/USBSpec.h</text>
</a>
</g>
</g>
<!-- Node1&#45;&gt;Node5 -->
<g id="edge4_Node000001_Node000005" class="edge">
<title>Node1&#45;&gt;Node5</title>
<g id="a_edge4_Node000001_Node000005"><a xlink:title=" ">
<path fill="none" stroke="#63b8ff" d="M823.21,-175.7C744.88,-164.82 597.48,-144.35 511.25,-132.38"/>
<polygon fill="#63b8ff" stroke="#63b8ff" points="511.91,-128.93 501.52,-131.02 510.94,-135.87 511.91,-128.93"/>
</a>
</g>
</g>
<!-- Node6 -->
<g id="Node000006" class="node">
<title>Node6</title>
<g id="a_Node000006"><a xlink:title=" ">
<polygon fill="#e0e0e0" stroke="#999999" points="683.38,-132 518.12,-132 518.12,-112 683.38,-112 683.38,-132"/>
<text xml:space="preserve" text-anchor="middle" x="600.75" y="-118.5" font-family="Helvetica,sans-Serif" font-size="10.00">CoreFoundation/CoreFoundation.h</text>
</a>
</g>
</g>
<!-- Node1&#45;&gt;Node6 -->
<g id="edge5_Node000001_Node000006" class="edge">
<title>Node1&#45;&gt;Node6</title>
<g id="a_edge5_Node000001_Node000006"><a xlink:title=" ">
<path fill="none" stroke="#63b8ff" d="M823.05,-171.5C774.87,-160.99 703.9,-145.51 655.18,-134.88"/>
<polygon fill="#63b8ff" stroke="#63b8ff" points="656.22,-131.52 645.7,-132.81 654.72,-138.36 656.22,-131.52"/>
</a>
</g>
</g>
<!-- Node7 -->
<g id="Node000007" class="node">
<title>Node7</title>
<g id="a_Node000007"><a xlink:title=" ">
<polygon fill="#e0e0e0" stroke="#999999" points="801.75,-132 701.75,-132 701.75,-112 801.75,-112 801.75,-132"/>
<text xml:space="preserve" text-anchor="middle" x="751.75" y="-118.5" font-family="Helvetica,sans-Serif" font-size="10.00">mach/mach_error.h</text>
</a>
</g>
</g>
<!-- Node1&#45;&gt;Node7 -->
<g id="edge6_Node000001_Node000007" class="edge">
<title>Node1&#45;&gt;Node7</title>
<g id="a_edge6_Node000001_Node000007"><a xlink:title=" ">
<path fill="none" stroke="#63b8ff" d="M843.82,-167.55C824.62,-158.26 800.35,-146.52 781.55,-137.42"/>
<polygon fill="#63b8ff" stroke="#63b8ff" points="783.08,-134.27 772.56,-133.07 780.03,-140.57 783.08,-134.27"/>
</a>
</g>
</g>
<!-- Node8 -->
<g id="Node000008" class="node">
<title>Node8</title>
<g id="a_Node000008"><a xlink:title=" ">
<polygon fill="#e0e0e0" stroke="#999999" points="875.62,-132 819.88,-132 819.88,-112 875.62,-112 875.62,-132"/>
<text xml:space="preserve" text-anchor="middle" x="847.75" y="-118.5" font-family="Helvetica,sans-Serif" font-size="10.00">stdbool.h</text>
</a>
</g>
</g>
<!-- Node1&#45;&gt;Node8 -->
<g id="edge7_Node000001_Node000008" class="edge">
<title>Node1&#45;&gt;Node8</title>
<g id="a_edge7_Node000001_Node000008"><a xlink:title=" ">
<path fill="none" stroke="#63b8ff" d="M868.54,-167.55C865.02,-160 860.73,-150.82 856.97,-142.77"/>
<polygon fill="#63b8ff" stroke="#63b8ff" points="860.18,-141.36 852.78,-133.78 853.84,-144.32 860.18,-141.36"/>
</a>
</g>
</g>
<!-- Node9 -->
<g id="Node000009" class="node">
<title>Node9</title>
<g id="a_Node000009"><a xlink:title=" ">
<polygon fill="#e0e0e0" stroke="#999999" points="1140,-20 1089.5,-20 1089.5,0 1140,0 1140,-20"/>
<text xml:space="preserve" text-anchor="middle" x="1114.75" y="-6.5" font-family="Helvetica,sans-Serif" font-size="10.00">wchar.h</text>
</a>
</g>
</g>
<!-- Node1&#45;&gt;Node9 -->
<g id="edge8_Node000001_Node000009" class="edge">
<title>Node1&#45;&gt;Node9</title>
<g id="a_edge8_Node000001_Node000009"><a xlink:title=" ">
<path fill="none" stroke="#63b8ff" d="M883.07,-167.52C891.06,-151.93 905.1,-127.96 922.75,-112 969.58,-69.65 1037.41,-39.46 1078.65,-23.66"/>
<polygon fill="#63b8ff" stroke="#63b8ff" points="1079.73,-26.99 1087.87,-20.21 1077.28,-20.44 1079.73,-26.99"/>
</a>
</g>
</g>
<!-- Node10 -->
<g id="Node000010" class="node">
<title>Node10</title>
<g id="a_Node000010"><a xlink:title=" ">
<polygon fill="#e0e0e0" stroke="#999999" points="981.62,-132 931.88,-132 931.88,-112 981.62,-112 981.62,-132"/>
<text xml:space="preserve" text-anchor="middle" x="956.75" y="-118.5" font-family="Helvetica,sans-Serif" font-size="10.00">locale.h</text>
</a>
</g>
</g>
<!-- Node1&#45;&gt;Node10 -->
<g id="edge9_Node000001_Node000010" class="edge">
<title>Node1&#45;&gt;Node10</title>
<g id="a_edge9_Node000001_Node000010"><a xlink:title=" ">
<path fill="none" stroke="#63b8ff" d="M896.61,-167.55C908.33,-158.87 922.94,-148.04 934.83,-139.24"/>
<polygon fill="#63b8ff" stroke="#63b8ff" points="936.88,-142.07 942.83,-133.31 932.71,-136.45 936.88,-142.07"/>
</a>
</g>
</g>
<!-- Node11 -->
<g id="Node000011" class="node">
<title>Node11</title>
<g id="a_Node000011"><a xlink:title=" ">
<polygon fill="#e0e0e0" stroke="#999999" points="1056,-132 999.5,-132 999.5,-112 1056,-112 1056,-132"/>
<text xml:space="preserve" text-anchor="middle" x="1027.75" y="-118.5" font-family="Helvetica,sans-Serif" font-size="10.00">pthread.h</text>
</a>
</g>
</g>
<!-- Node1&#45;&gt;Node11 -->
<g id="edge10_Node000001_Node000011" class="edge">
<title>Node1&#45;&gt;Node11</title>
<g id="a_edge10_Node000001_Node000011"><a xlink:title=" ">
<path fill="none" stroke="#63b8ff" d="M914.89,-167.55C939.19,-157.96 970.13,-145.75 993.46,-136.54"/>
<polygon fill="#63b8ff" stroke="#63b8ff" points="994.49,-139.89 1002.51,-132.96 991.92,-133.38 994.49,-139.89"/>
</a>
</g>
</g>
<!-- Node12 -->
<g id="Node000012" class="node">
<title>Node12</title>
<g id="a_Node000012"><a xlink:title=" ">
<polygon fill="#e0e0e0" stroke="#999999" points="1135.62,-132 1073.88,-132 1073.88,-112 1135.62,-112 1135.62,-132"/>
<text xml:space="preserve" text-anchor="middle" x="1104.75" y="-118.5" font-family="Helvetica,sans-Serif" font-size="10.00">sys/time.h</text>
</a>
</g>
</g>
<!-- Node1&#45;&gt;Node12 -->
<g id="edge11_Node000001_Node000012" class="edge">
<title>Node1&#45;&gt;Node12</title>
<g id="a_edge11_Node000001_Node000012"><a xlink:title=" ">
<path fill="none" stroke="#63b8ff" d="M928.29,-169.23C969.15,-158.53 1025.08,-143.87 1062.94,-133.96"/>
<polygon fill="#63b8ff" stroke="#63b8ff" points="1063.34,-137.47 1072.12,-131.55 1061.56,-130.7 1063.34,-137.47"/>
</a>
</g>
</g>
<!-- Node13 -->
<g id="Node000013" class="node">
<title>Node13</title>
<g id="a_Node000013"><a xlink:title=" ">
<polygon fill="#e0e0e0" stroke="#999999" points="1204,-132 1153.5,-132 1153.5,-112 1204,-112 1204,-132"/>
<text xml:space="preserve" text-anchor="middle" x="1178.75" y="-118.5" font-family="Helvetica,sans-Serif" font-size="10.00">unistd.h</text>
</a>
</g>
</g>
<!-- Node1&#45;&gt;Node13 -->
<g id="edge12_Node000001_Node000013" class="edge">
<title>Node1&#45;&gt;Node13</title>
<g id="a_edge12_Node000001_Node000013"><a xlink:title=" ">
<path fill="none" stroke="#63b8ff" d="M928.3,-174.18C980.36,-165.19 1062.56,-150.3 1142.44,-132.41"/>
<polygon fill="#63b8ff" stroke="#63b8ff" points="1142.72,-135.93 1151.7,-130.31 1141.18,-129.1 1142.72,-135.93"/>
</a>
</g>
</g>
<!-- Node14 -->
<g id="Node000014" class="node">
<title>Node14</title>
<g id="a_Node000014"><a xlink:title=" ">
<polygon fill="#e0e0e0" stroke="#999999" points="1267.38,-132 1222.12,-132 1222.12,-112 1267.38,-112 1267.38,-132"/>
<text xml:space="preserve" text-anchor="middle" x="1244.75" y="-118.5" font-family="Helvetica,sans-Serif" font-size="10.00">dlfcn.h</text>
</a>
</g>
</g>
<!-- Node1&#45;&gt;Node14 -->
<g id="edge13_Node000001_Node000014" class="edge">
<title>Node1&#45;&gt;Node14</title>
<g id="a_edge13_Node000001_Node000014"><a xlink:title=" ">
<path fill="none" stroke="#63b8ff" d="M928.36,-177.09C992.71,-169.41 1105.1,-154.53 1210.59,-132.23"/>
<polygon fill="#63b8ff" stroke="#63b8ff" points="1211.24,-135.67 1220.28,-130.15 1209.77,-128.82 1211.24,-135.67"/>
</a>
</g>
</g>
<!-- Node15 -->
<g id="Node000015" class="node">
<title>Node15</title>
<g id="a_Node000015"><a xlink:href="../../df/d8f/hidapi__darwin_8h.html" target="_top" xlink:title=" ">
<polygon fill="white" stroke="#666666" points="1368.5,-132 1285,-132 1285,-112 1368.5,-112 1368.5,-132"/>
<text xml:space="preserve" text-anchor="middle" x="1326.75" y="-118.5" font-family="Helvetica,sans-Serif" font-size="10.00">hidapi_darwin.h</text>
</a>
</g>
</g>
<!-- Node1&#45;&gt;Node15 -->
<g id="edge14_Node000001_Node000015" class="edge">
<title>Node1&#45;&gt;Node15</title>
<g id="a_edge14_Node000001_Node000015"><a xlink:title=" ">
<path fill="none" stroke="#63b8ff" d="M928.42,-177.18C1003.01,-168.74 1143.96,-152.09 1273.47,-132.44"/>
<polygon fill="#63b8ff" stroke="#63b8ff" points="1273.91,-135.92 1283.27,-130.95 1272.85,-129 1273.91,-135.92"/>
</a>
</g>
</g>
<!-- Node16 -->
<g id="Node000016" class="node">
<title>Node16</title>
<g id="a_Node000016"><a xlink:title=" ">
<polygon fill="#e0e0e0" stroke="#999999" points="1264.88,-76 1216.62,-76 1216.62,-56 1264.88,-56 1264.88,-76"/>
<text xml:space="preserve" text-anchor="middle" x="1240.75" y="-62.5" font-family="Helvetica,sans-Serif" font-size="10.00">stdint.h</text>
</a>
</g>
</g>
<!-- Node15&#45;&gt;Node16 -->
<g id="edge15_Node000015_Node000016" class="edge">
<title>Node15&#45;&gt;Node16</title>
<g id="a_edge15_Node000015_Node000016"><a xlink:title=" ">
<path fill="none" stroke="#63b8ff" d="M1311.77,-111.59C1299.02,-103.59 1280.46,-91.93 1265.51,-82.54"/>
<polygon fill="#63b8ff" stroke="#63b8ff" points="1267.46,-79.64 1257.13,-77.28 1263.74,-85.57 1267.46,-79.64"/>
</a>
</g>
</g>
<!-- Node17 -->
<g id="Node000017" class="node">
<title>Node17</title>
<g id="a_Node000017"><a xlink:href="../../dc/dd0/hidapi_8h.html" target="_top" xlink:title=" ">
<polygon fill="white" stroke="#666666" points="1370.38,-76 1283.12,-76 1283.12,-56 1370.38,-56 1370.38,-76"/>
<text xml:space="preserve" text-anchor="middle" x="1326.75" y="-62.5" font-family="Helvetica,sans-Serif" font-size="10.00">../hidapi/hidapi.h</text>
</a>
</g>
</g>
<!-- Node15&#45;&gt;Node17 -->
<g id="edge16_Node000015_Node000017" class="edge">
<title>Node15&#45;&gt;Node17</title>
<g id="a_edge16_Node000015_Node000017"><a xlink:title=" ">
<path fill="none" stroke="#63b8ff" d="M1326.75,-111.59C1326.75,-105.01 1326.75,-95.96 1326.75,-87.73"/>
<polygon fill="#63b8ff" stroke="#63b8ff" points="1330.25,-87.81 1326.75,-77.81 1323.25,-87.81 1330.25,-87.81"/>
</a>
</g>
</g>
<!-- Node17&#45;&gt;Node9 -->
<g id="edge17_Node000017_Node000009" class="edge">
<title>Node17&#45;&gt;Node9</title>
<g id="a_edge17_Node000017_Node000009"><a xlink:title=" ">
<path fill="none" stroke="#63b8ff" d="M1289.82,-55.59C1250.84,-45.67 1189.79,-30.12 1151.05,-20.25"/>
<polygon fill="#63b8ff" stroke="#63b8ff" points="1152.3,-16.95 1141.74,-17.88 1150.57,-23.74 1152.3,-16.95"/>
</a>
</g>
</g>
</g>
</svg>

<g id="navigator" transform="translate(0 0)" fill="#404254">
  <rect fill="#f2f5e9" fill-opacity="0.5" stroke="#606060" stroke-width=".5" x="0" y="0" width="60" height="60"/>
  <use id="zoomplus" xlink:href="#zoomPlus" x="17" y="9" onmousedown="handleZoom(evt,'in')"/>
  <use id="zoomminus" xlink:href="#zoomMin" x="42" y="9" onmousedown="handleZoom(evt,'out')"/>
  <use id="reset" xlink:href="#resetDef" x="30" y="36" onmousedown="handleReset()"/>
   <use id="arrowup" xlink:href="#arrowUp" x="0" y="0" onmousedown="handlePan(0,-1)"/>
  <use id="arrowright" xlink:href="#arrowRight" x="0" y="0" onmousedown="handlePan(1,0)"/>
  <use id="arrowdown" xlink:href="#arrowDown" x="0" y="0" onmousedown="handlePan(0,1)"/>
  <use id="arrowleft" xlink:href="#arrowLeft" x="0" y="0" onmousedown="handlePan(-1,0)"/>
</g>
<svg viewBox="0 0 15 15" width="100%" height="30px" preserveAspectRatio="xMaxYMin meet">
 <g id="arrow_out" transform="scale(0.3 0.3)">
  <a xlink:href="mac_2hid_8c__incl_org.svg" target="_base">
   <rect id="button" ry="5" rx="5" y="6" x="6" height="38" width="38"
        fill="#f2f5e9" fill-opacity="0.5" stroke="#606060" stroke-width="1.0"/>
   <path id="arrow"
     d="M 11.500037,31.436501 C 11.940474,20.09759 22.043105,11.32322 32.158766,21.979434 L 37.068811,17.246167 C 37.068811,17.246167 37.088388,32 37.088388,32 L 22.160133,31.978069 C 22.160133,31.978069 26.997745,27.140456 26.997745,27.140456 C 18.528582,18.264221 13.291696,25.230495 11.500037,31.436501 z"
     style="fill:#404040;"/>
  </a>
 </g>
</svg>

<style type='text/css'>
<![CDATA[
[data-mouse-over-selected='false'] { opacity: 0.7; }
[data-mouse-over-selected='true']  { opacity: 1.0; }
]]>
</style>
<script type="application/ecmascript"><![CDATA[
document.addEventListener('DOMContentLoaded', (event) => {
  highlightEdges();
  highlightAdjacentNodes();
});
]]></script>
</svg>
