<?xml version="1.0" encoding="UTF-8" standalone="no"?>
<!DOCTYPE svg PUBLIC "-//W3C//DTD SVG 1.1//EN"
 "http://www.w3.org/Graphics/SVG/1.1/DTD/svg11.dtd">
<!-- Generated by graphviz version 13.1.0 (20250701.0955)
 -->
<!-- Title: VkRenderPassSampleLocationsBeginInfoEXT Pages: 1 -->
<svg width="413pt" height="278pt"
 viewBox="0.00 0.00 413.00 278.00" xmlns="http://www.w3.org/2000/svg" xmlns:xlink="http://www.w3.org/1999/xlink">
<g id="graph0" class="graph" transform="scale(1 1) rotate(0) translate(4 274)">
<title>VkRenderPassSampleLocationsBeginInfoEXT</title>
<!-- Node1 -->
<g id="Node000001" class="node">
<title>Node1</title>
<g id="a_Node000001"><a xlink:title=" ">
<polygon fill="#999999" stroke="#666666" points="256.88,-32 99.88,-32 99.88,0 256.88,0 256.88,-32"/>
<text xml:space="preserve" text-anchor="start" x="107.88" y="-18.5" font-family="Helvetica,sans-Serif" font-size="10.00">VkRenderPassSampleLocations</text>
<text xml:space="preserve" text-anchor="middle" x="178.38" y="-6.5" font-family="Helvetica,sans-Serif" font-size="10.00">BeginInfoEXT</text>
</a>
</g>
</g>
<!-- Node2 -->
<g id="Node000002" class="node">
<title>Node2</title>
<g id="a_Node000002"><a xlink:href="../../d0/dff/structVkAttachmentSampleLocationsEXT.html" target="_top" xlink:title=" ">
<polygon fill="white" stroke="#666666" points="172.75,-122 0,-122 0,-102 172.75,-102 172.75,-122"/>
<text xml:space="preserve" text-anchor="middle" x="86.38" y="-108.5" font-family="Helvetica,sans-Serif" font-size="10.00">VkAttachmentSampleLocationsEXT</text>
</a>
</g>
</g>
<!-- Node2&#45;&gt;Node1 -->
<g id="edge1_Node000001_Node000002" class="edge">
<title>Node2&#45;&gt;Node1</title>
<g id="a_edge1_Node000001_Node000002"><a xlink:title=" ">
<path fill="none" stroke="#9a32cd" stroke-dasharray="5,2" d="M94.19,-91.16C100.01,-78.28 108.97,-61.75 120.62,-50 127.46,-43.12 136.02,-37.2 144.45,-32.35"/>
<polygon fill="#9a32cd" stroke="#9a32cd" points="90.98,-89.77 90.32,-100.34 97.43,-92.49 90.98,-89.77"/>
</a>
</g>
<text xml:space="preserve" text-anchor="start" x="123.62" y="-71.5" font-family="Helvetica,sans-Serif" font-size="10.00" fill="grey">pAttachmentInitialSample</text>
<text xml:space="preserve" text-anchor="start" x="123.62" y="-55.5" font-family="Helvetica,sans-Serif" font-size="10.00" fill="grey">  Locations</text>
</g>
<!-- Node3 -->
<g id="Node000003" class="node">
<title>Node3</title>
<g id="a_Node000003"><a xlink:href="../../d0/de4/structVkSampleLocationsInfoEXT.html" target="_top" xlink:title=" ">
<polygon fill="white" stroke="#666666" points="247.88,-196 108.88,-196 108.88,-176 247.88,-176 247.88,-196"/>
<text xml:space="preserve" text-anchor="middle" x="178.38" y="-182.5" font-family="Helvetica,sans-Serif" font-size="10.00">VkSampleLocationsInfoEXT</text>
</a>
</g>
</g>
<!-- Node3&#45;&gt;Node2 -->
<g id="edge2_Node000002_Node000003" class="edge">
<title>Node3&#45;&gt;Node2</title>
<g id="a_edge2_Node000002_Node000003"><a xlink:title=" ">
<path fill="none" stroke="#9a32cd" stroke-dasharray="5,2" d="M152.83,-169.51C147.29,-165.9 141.54,-161.95 136.38,-158 121.52,-146.66 105.7,-131.92 95.93,-122.45"/>
<polygon fill="#9a32cd" stroke="#9a32cd" points="150.81,-172.38 161.13,-174.77 154.56,-166.46 150.81,-172.38"/>
</a>
</g>
<text xml:space="preserve" text-anchor="start" x="139.38" y="-145.5" font-family="Helvetica,sans-Serif" font-size="10.00" fill="grey">sampleLocationsInfo</text>
</g>
<!-- Node6 -->
<g id="Node000006" class="node">
<title>Node6</title>
<g id="a_Node000006"><a xlink:href="../../da/d04/structVkSubpassSampleLocationsEXT.html" target="_top" xlink:title=" ">
<polygon fill="white" stroke="#666666" points="351.75,-122 191,-122 191,-102 351.75,-102 351.75,-122"/>
<text xml:space="preserve" text-anchor="middle" x="271.38" y="-108.5" font-family="Helvetica,sans-Serif" font-size="10.00">VkSubpassSampleLocationsEXT</text>
</a>
</g>
</g>
<!-- Node3&#45;&gt;Node6 -->
<g id="edge6_Node000006_Node000003" class="edge">
<title>Node3&#45;&gt;Node6</title>
<g id="a_edge6_Node000006_Node000003"><a xlink:title=" ">
<path fill="none" stroke="#9a32cd" stroke-dasharray="5,2" d="M212.18,-170.66C219.17,-167.01 226.26,-162.75 232.38,-158 245.77,-147.6 258.01,-132.06 265.07,-122.23"/>
<polygon fill="#9a32cd" stroke="#9a32cd" points="210.95,-167.37 203.51,-174.91 214.03,-173.66 210.95,-167.37"/>
</a>
</g>
<text xml:space="preserve" text-anchor="start" x="253.02" y="-145.5" font-family="Helvetica,sans-Serif" font-size="10.00" fill="grey">sampleLocationsInfo</text>
</g>
<!-- Node4 -->
<g id="Node000004" class="node">
<title>Node4</title>
<g id="a_Node000004"><a xlink:href="../../d1/d79/structVkExtent2D.html" target="_top" xlink:title=" ">
<polygon fill="white" stroke="#666666" points="146,-270 76.75,-270 76.75,-250 146,-250 146,-270"/>
<text xml:space="preserve" text-anchor="middle" x="111.38" y="-256.5" font-family="Helvetica,sans-Serif" font-size="10.00">VkExtent2D</text>
</a>
</g>
</g>
<!-- Node4&#45;&gt;Node3 -->
<g id="edge3_Node000003_Node000004" class="edge">
<title>Node4&#45;&gt;Node3</title>
<g id="a_edge3_Node000003_Node000004"><a xlink:title=" ">
<path fill="none" stroke="#9a32cd" stroke-dasharray="5,2" d="M107.35,-238.44C106.84,-230.19 107.79,-221 112.62,-214 118.17,-205.98 126.55,-200.34 135.49,-196.37"/>
<polygon fill="#9a32cd" stroke="#9a32cd" points="103.88,-238.9 108.71,-248.33 110.81,-237.94 103.88,-238.9"/>
</a>
</g>
<text xml:space="preserve" text-anchor="start" x="115.62" y="-219.5" font-family="Helvetica,sans-Serif" font-size="10.00" fill="grey">sampleLocationGridSize</text>
</g>
<!-- Node5 -->
<g id="Node000005" class="node">
<title>Node5</title>
<g id="a_Node000005"><a xlink:href="../../de/db8/structVkSampleLocationEXT.html" target="_top" xlink:title=" ">
<polygon fill="white" stroke="#666666" points="305,-270 187.75,-270 187.75,-250 305,-250 305,-270"/>
<text xml:space="preserve" text-anchor="middle" x="246.38" y="-256.5" font-family="Helvetica,sans-Serif" font-size="10.00">VkSampleLocationEXT</text>
</a>
</g>
</g>
<!-- Node5&#45;&gt;Node3 -->
<g id="edge4_Node000003_Node000005" class="edge">
<title>Node5&#45;&gt;Node3</title>
<g id="a_edge4_Node000003_Node000005"><a xlink:title=" ">
<path fill="none" stroke="#9a32cd" stroke-dasharray="5,2" d="M239.68,-239.25C236.1,-230.78 231.04,-221.19 224.38,-214 217.58,-206.66 208.33,-200.71 199.91,-196.28"/>
<polygon fill="#9a32cd" stroke="#9a32cd" points="236.32,-240.25 243.12,-248.38 242.87,-237.79 236.32,-240.25"/>
</a>
</g>
<text xml:space="preserve" text-anchor="start" x="238.8" y="-219.5" font-family="Helvetica,sans-Serif" font-size="10.00" fill="grey">pSampleLocations</text>
</g>
<!-- Node6&#45;&gt;Node1 -->
<g id="edge5_Node000001_Node000006" class="edge">
<title>Node6&#45;&gt;Node1</title>
<g id="a_edge5_Node000001_Node000006"><a xlink:title=" ">
<path fill="none" stroke="#9a32cd" stroke-dasharray="5,2" d="M264.06,-91.09C258.54,-78.18 249.94,-61.64 238.38,-50 231.51,-43.08 222.88,-37.21 214.33,-32.43"/>
<polygon fill="#9a32cd" stroke="#9a32cd" points="260.77,-92.28 267.7,-100.29 267.27,-89.7 260.77,-92.28"/>
</a>
</g>
<text xml:space="preserve" text-anchor="start" x="263.16" y="-63.5" font-family="Helvetica,sans-Serif" font-size="10.00" fill="grey">pPostSubpassSampleLocations</text>
</g>
</g>
</svg>
