<?xml version="1.0" encoding="UTF-8" standalone="no"?>
<!DOCTYPE svg PUBLIC "-//W3C//DTD SVG 1.1//EN"
 "http://www.w3.org/Graphics/SVG/1.1/DTD/svg11.dtd">
<!-- Generated by graphviz version 13.1.0 (20250701.0955)
 -->
<!-- Title: VkClearValue Pages: 1 -->
<svg width="256pt" height="102pt"
 viewBox="0.00 0.00 256.00 102.00" xmlns="http://www.w3.org/2000/svg" xmlns:xlink="http://www.w3.org/1999/xlink">
<g id="graph0" class="graph" transform="scale(1 1) rotate(0) translate(4 98)">
<title>VkClearValue</title>
<!-- Node1 -->
<g id="Node000001" class="node">
<title>Node1</title>
<g id="a_Node000001"><a xlink:title=" ">
<polygon fill="#999999" stroke="#666666" points="152.88,-20 77.62,-20 77.62,0 152.88,0 152.88,-20"/>
<text xml:space="preserve" text-anchor="middle" x="115.25" y="-6.5" font-family="Helvetica,sans-Serif" font-size="10.00">VkClearValue</text>
</a>
</g>
</g>
<!-- Node2 -->
<g id="Node000002" class="node">
<title>Node2</title>
<g id="a_Node000002"><a xlink:href="../../dd/dd9/unionVkClearColorValue.html" target="_top" xlink:title=" ">
<polygon fill="white" stroke="#666666" points="98.5,-94 0,-94 0,-74 98.5,-74 98.5,-94"/>
<text xml:space="preserve" text-anchor="middle" x="49.25" y="-80.5" font-family="Helvetica,sans-Serif" font-size="10.00">VkClearColorValue</text>
</a>
</g>
</g>
<!-- Node2&#45;&gt;Node1 -->
<g id="edge1_Node000001_Node000002" class="edge">
<title>Node2&#45;&gt;Node1</title>
<g id="a_edge1_Node000001_Node000002"><a xlink:title=" ">
<path fill="none" stroke="#9a32cd" stroke-dasharray="5,2" d="M65.29,-65.5C78.39,-51.21 96.39,-31.57 106.83,-20.19"/>
<polygon fill="#9a32cd" stroke="#9a32cd" points="63.08,-62.73 58.9,-72.47 68.24,-67.47 63.08,-62.73"/>
</a>
</g>
<text xml:space="preserve" text-anchor="start" x="93.1" y="-43.5" font-family="Helvetica,sans-Serif" font-size="10.00" fill="grey">color</text>
</g>
<!-- Node3 -->
<g id="Node000003" class="node">
<title>Node3</title>
<g id="a_Node000003"><a xlink:href="../../db/d68/structVkClearDepthStencilValue.html" target="_top" xlink:title=" ">
<polygon fill="white" stroke="#666666" points="248,-94 116.5,-94 116.5,-74 248,-74 248,-94"/>
<text xml:space="preserve" text-anchor="middle" x="182.25" y="-80.5" font-family="Helvetica,sans-Serif" font-size="10.00">VkClearDepthStencilValue</text>
</a>
</g>
</g>
<!-- Node3&#45;&gt;Node1 -->
<g id="edge2_Node000001_Node000003" class="edge">
<title>Node3&#45;&gt;Node1</title>
<g id="a_edge2_Node000001_Node000003"><a xlink:title=" ">
<path fill="none" stroke="#9a32cd" stroke-dasharray="5,2" d="M165.96,-65.5C152.66,-51.21 134.39,-31.57 123.8,-20.19"/>
<polygon fill="#9a32cd" stroke="#9a32cd" points="163.09,-67.54 172.46,-72.48 168.21,-62.77 163.09,-67.54"/>
</a>
</g>
<text xml:space="preserve" text-anchor="start" x="159.72" y="-43.5" font-family="Helvetica,sans-Serif" font-size="10.00" fill="grey">depthStencil</text>
</g>
</g>
</svg>
