<?xml version="1.0" encoding="UTF-8" standalone="no"?>
<!DOCTYPE svg PUBLIC "-//W3C//DTD SVG 1.1//EN"
 "http://www.w3.org/Graphics/SVG/1.1/DTD/svg11.dtd">
<!-- Generated by graphviz version 13.1.0 (20250701.0955)
 -->
<!-- Title: SDL_BWin::DispatchMessage Pages: 1 -->
<svg width="741pt" height="170pt"
 viewBox="0.00 0.00 741.00 170.00" xmlns="http://www.w3.org/2000/svg" xmlns:xlink="http://www.w3.org/1999/xlink">
<g id="graph0" class="graph" transform="scale(1 1) rotate(0) translate(4 166)">
<title>SDL_BWin::DispatchMessage</title>
<!-- Node1 -->
<g id="Node000001" class="node">
<title>Node1</title>
<g id="a_Node000001"><a xlink:title=" ">
<polygon fill="#999999" stroke="#666666" points="149.5,-105 0,-105 0,-85 149.5,-85 149.5,-105"/>
<text xml:space="preserve" text-anchor="middle" x="74.75" y="-91.5" font-family="Helvetica,sans-Serif" font-size="10.00">SDL_BWin::DispatchMessage</text>
</a>
</g>
</g>
<!-- Node2 -->
<g id="Node000002" class="node">
<title>Node2</title>
<g id="a_Node000002"><a xlink:href="../../d7/d99/classSDL__BWin.html#a1ce3c589a9932ff5174a3f3e78aef894" target="_top" xlink:title=" ">
<polygon fill="white" stroke="#666666" points="324.88,-162 206.12,-162 206.12,-142 324.88,-142 324.88,-162"/>
<text xml:space="preserve" text-anchor="middle" x="265.5" y="-148.5" font-family="Helvetica,sans-Serif" font-size="10.00">SDL_BWin::_KeyEvent</text>
</a>
</g>
</g>
<!-- Node1&#45;&gt;Node2 -->
<g id="edge1_Node000001_Node000002" class="edge">
<title>Node1&#45;&gt;Node2</title>
<g id="a_edge1_Node000001_Node000002"><a xlink:title=" ">
<path fill="none" stroke="#63b8ff" d="M103.48,-105.44C125.52,-113.54 157.25,-124.73 185.5,-133 192.42,-135.03 199.73,-137 207,-138.86"/>
<polygon fill="#63b8ff" stroke="#63b8ff" points="205.91,-142.2 216.46,-141.23 207.61,-135.41 205.91,-142.2"/>
</a>
</g>
</g>
<!-- Node3 -->
<g id="Node000003" class="node">
<title>Node3</title>
<g id="a_Node000003"><a xlink:href="../../d7/d99/classSDL__BWin.html#ada539d956861c24e0ec9ccefa127cde5" target="_top" xlink:title=" ">
<polygon fill="white" stroke="#666666" points="345.12,-124 185.88,-124 185.88,-104 345.12,-104 345.12,-124"/>
<text xml:space="preserve" text-anchor="middle" x="265.5" y="-110.5" font-family="Helvetica,sans-Serif" font-size="10.00">SDL_BWin::_MouseButtonEvent</text>
</a>
</g>
</g>
<!-- Node1&#45;&gt;Node3 -->
<g id="edge2_Node000001_Node000003" class="edge">
<title>Node1&#45;&gt;Node3</title>
<g id="a_edge2_Node000001_Node000003"><a xlink:title=" ">
<path fill="none" stroke="#63b8ff" d="M149.81,-102.45C157.9,-103.27 166.21,-104.11 174.47,-104.94"/>
<polygon fill="#63b8ff" stroke="#63b8ff" points="173.87,-108.39 184.17,-105.91 174.57,-101.43 173.87,-108.39"/>
</a>
</g>
</g>
<!-- Node6 -->
<g id="Node000006" class="node">
<title>Node6</title>
<g id="a_Node000006"><a xlink:href="../../d7/d99/classSDL__BWin.html#a2bf446a5590563566904a839bd5ff50b" target="_top" xlink:title=" ">
<polygon fill="white" stroke="#666666" points="345.5,-86 185.5,-86 185.5,-66 345.5,-66 345.5,-86"/>
<text xml:space="preserve" text-anchor="middle" x="265.5" y="-72.5" font-family="Helvetica,sans-Serif" font-size="10.00">SDL_BWin::_MouseMotionEvent</text>
</a>
</g>
</g>
<!-- Node1&#45;&gt;Node6 -->
<g id="edge5_Node000001_Node000006" class="edge">
<title>Node1&#45;&gt;Node6</title>
<g id="a_edge5_Node000001_Node000006"><a xlink:title=" ">
<path fill="none" stroke="#63b8ff" d="M149.81,-87.55C157.67,-86.75 165.73,-85.94 173.75,-85.13"/>
<polygon fill="#63b8ff" stroke="#63b8ff" points="173.95,-88.63 183.55,-84.15 173.25,-81.67 173.95,-88.63"/>
</a>
</g>
</g>
<!-- Node8 -->
<g id="Node000008" class="node">
<title>Node8</title>
<g id="a_Node000008"><a xlink:href="../../d7/d99/classSDL__BWin.html#a2abd9d44e9f9042847b0f3729a7cd851" target="_top" xlink:title=" ">
<polygon fill="white" stroke="#666666" points="540,-20 381.5,-20 381.5,0 540,0 540,-20"/>
<text xml:space="preserve" text-anchor="middle" x="460.75" y="-6.5" font-family="Helvetica,sans-Serif" font-size="10.00">SDL_BWin::_MouseWheelEvent</text>
</a>
</g>
</g>
<!-- Node1&#45;&gt;Node8 -->
<g id="edge9_Node000001_Node000008" class="edge">
<title>Node1&#45;&gt;Node8</title>
<g id="a_edge9_Node000001_Node000008"><a xlink:title=" ">
<path fill="none" stroke="#63b8ff" d="M101.99,-84.55C124,-76.12 156.4,-64.48 185.5,-57 246.22,-41.4 315.85,-29.54 369.75,-21.63"/>
<polygon fill="#63b8ff" stroke="#63b8ff" points="370.12,-25.12 379.51,-20.22 369.11,-18.19 370.12,-25.12"/>
</a>
</g>
</g>
<!-- Node4 -->
<g id="Node000004" class="node">
<title>Node4</title>
<g id="a_Node000004"><a xlink:href="../../d7/d99/classSDL__BWin.html#acfef89f3195f1a29ae76a8f383528f19" target="_top" xlink:title=" ">
<polygon fill="white" stroke="#666666" points="538.88,-134 382.62,-134 382.62,-114 538.88,-114 538.88,-134"/>
<text xml:space="preserve" text-anchor="middle" x="460.75" y="-120.5" font-family="Helvetica,sans-Serif" font-size="10.00">SDL_BWin::_SendMouseButton</text>
</a>
</g>
</g>
<!-- Node3&#45;&gt;Node4 -->
<g id="edge3_Node000003_Node000004" class="edge">
<title>Node3&#45;&gt;Node4</title>
<g id="a_edge3_Node000003_Node000004"><a xlink:title=" ">
<path fill="none" stroke="#63b8ff" d="M345.38,-118.08C353.87,-118.52 362.55,-118.97 371.15,-119.42"/>
<polygon fill="#63b8ff" stroke="#63b8ff" points="370.69,-122.9 380.86,-119.92 371.05,-115.91 370.69,-122.9"/>
</a>
</g>
</g>
<!-- Node5 -->
<g id="Node000005" class="node">
<title>Node5</title>
<g id="a_Node000005"><a xlink:href="../../d7/d99/classSDL__BWin.html#ac1b9e8d89d63f99157b18afea4441cae" target="_top" xlink:title=" ">
<polygon fill="white" stroke="#666666" points="733,-77 576,-77 576,-57 733,-57 733,-77"/>
<text xml:space="preserve" text-anchor="middle" x="654.5" y="-63.5" font-family="Helvetica,sans-Serif" font-size="10.00">SDL_BWin::_PostWindowEvent</text>
</a>
</g>
</g>
<!-- Node4&#45;&gt;Node5 -->
<g id="edge4_Node000004_Node000005" class="edge">
<title>Node4&#45;&gt;Node5</title>
<g id="a_edge4_Node000004_Node000005"><a xlink:title=" ">
<path fill="none" stroke="#63b8ff" d="M496.92,-113.55C527.91,-104.33 573.27,-90.85 607.2,-80.76"/>
<polygon fill="#63b8ff" stroke="#63b8ff" points="608.19,-84.12 616.78,-77.92 606.2,-77.41 608.19,-84.12"/>
</a>
</g>
</g>
<!-- Node6&#45;&gt;Node5 -->
<g id="edge8_Node000006_Node000005" class="edge">
<title>Node6&#45;&gt;Node5</title>
<g id="a_edge8_Node000006_Node000005"><a xlink:title=" ">
<path fill="none" stroke="#63b8ff" d="M345.75,-74.16C409.3,-72.68 498.46,-70.61 564.47,-69.07"/>
<polygon fill="#63b8ff" stroke="#63b8ff" points="564.25,-72.58 574.17,-68.84 564.09,-65.58 564.25,-72.58"/>
</a>
</g>
</g>
<!-- Node7 -->
<g id="Node000007" class="node">
<title>Node7</title>
<g id="a_Node000007"><a xlink:href="../../d7/d99/classSDL__BWin.html#a6ad18d2eae605ffd2b05accab4fbfbef" target="_top" xlink:title=" ">
<polygon fill="white" stroke="#666666" points="539.62,-58 381.88,-58 381.88,-38 539.62,-38 539.62,-58"/>
<text xml:space="preserve" text-anchor="middle" x="460.75" y="-44.5" font-family="Helvetica,sans-Serif" font-size="10.00">SDL_BWin::_MouseFocusEvent</text>
</a>
</g>
</g>
<!-- Node6&#45;&gt;Node7 -->
<g id="edge6_Node000006_Node000007" class="edge">
<title>Node6&#45;&gt;Node7</title>
<g id="a_edge6_Node000006_Node000007"><a xlink:title=" ">
<path fill="none" stroke="#63b8ff" d="M338.73,-65.53C350.88,-63.77 363.58,-61.93 375.99,-60.14"/>
<polygon fill="#63b8ff" stroke="#63b8ff" points="376.39,-63.61 385.78,-58.72 375.39,-56.69 376.39,-63.61"/>
</a>
</g>
</g>
<!-- Node7&#45;&gt;Node5 -->
<g id="edge7_Node000007_Node000005" class="edge">
<title>Node7&#45;&gt;Node5</title>
<g id="a_edge7_Node000007_Node000005"><a xlink:title=" ">
<path fill="none" stroke="#63b8ff" d="M540.02,-55.76C548.04,-56.55 556.24,-57.36 564.37,-58.17"/>
<polygon fill="#63b8ff" stroke="#63b8ff" points="563.99,-61.65 574.29,-59.15 564.68,-54.68 563.99,-61.65"/>
</a>
</g>
</g>
<!-- Node8&#45;&gt;Node5 -->
<g id="edge10_Node000008_Node000005" class="edge">
<title>Node8&#45;&gt;Node5</title>
<g id="a_edge10_Node000008_Node000005"><a xlink:title=" ">
<path fill="none" stroke="#63b8ff" d="M507.44,-20.4C518.17,-23.04 529.52,-25.98 540,-29 564.82,-36.16 592.31,-45.32 614.01,-52.86"/>
<polygon fill="#63b8ff" stroke="#63b8ff" points="612.77,-56.13 623.36,-56.14 615.08,-49.53 612.77,-56.13"/>
</a>
</g>
</g>
</g>
</svg>
