<?xml version="1.0" encoding="UTF-8" standalone="no"?>
<!DOCTYPE svg PUBLIC "-//W3C//DTD SVG 1.1//EN"
 "http://www.w3.org/Graphics/SVG/1.1/DTD/svg11.dtd">
<!-- Generated by graphviz version 13.1.0 (20250701.0955)
 -->
<!-- Title: SDL_BWin::_SetResizable Pages: 1 -->
<svg width="504pt" height="47pt"
 viewBox="0.00 0.00 504.00 47.00" xmlns="http://www.w3.org/2000/svg" xmlns:xlink="http://www.w3.org/1999/xlink">
<g id="graph0" class="graph" transform="scale(1 1) rotate(0) translate(4 43)">
<title>SDL_BWin::_SetResizable</title>
<!-- Node1 -->
<g id="Node000001" class="node">
<title>Node1</title>
<g id="a_Node000001"><a xlink:title=" ">
<polygon fill="#999999" stroke="#666666" points="495.75,-20 361.25,-20 361.25,0 495.75,0 495.75,-20"/>
<text xml:space="preserve" text-anchor="middle" x="428.5" y="-6.5" font-family="Helvetica,sans-Serif" font-size="10.00">SDL_BWin::_SetResizable</text>
</a>
</g>
</g>
<!-- Node2 -->
<g id="Node000002" class="node">
<title>Node2</title>
<g id="a_Node000002"><a xlink:href="../../d7/d99/classSDL__BWin.html#a04e35f7b40ef54c45767995a86f003b4" target="_top" xlink:title=" ">
<polygon fill="white" stroke="#666666" points="325.25,-39 187.75,-39 187.75,-19 325.25,-19 325.25,-39"/>
<text xml:space="preserve" text-anchor="middle" x="256.5" y="-25.5" font-family="Helvetica,sans-Serif" font-size="10.00">SDL_BWin::_SetFullScreen</text>
</a>
</g>
</g>
<!-- Node1&#45;&gt;Node2 -->
<g id="edge1_Node000001_Node000002" class="edge">
<title>Node1&#45;&gt;Node2</title>
<g id="a_edge1_Node000001_Node000002"><a xlink:title=" ">
<path fill="none" stroke="#63b8ff" d="M349.6,-18.71C341.62,-19.6 333.55,-20.5 325.69,-21.38"/>
<polygon fill="#63b8ff" stroke="#63b8ff" points="349.75,-22.21 359.3,-17.62 348.97,-15.26 349.75,-22.21"/>
</a>
</g>
</g>
<!-- Node3 -->
<g id="Node000003" class="node">
<title>Node3</title>
<g id="a_Node000003"><a xlink:href="../../d7/d99/classSDL__BWin.html#a3cbe2c7ffc73735da7bdcab9c9da9a84" target="_top" xlink:title=" ">
<polygon fill="white" stroke="#666666" points="151.75,-20 0,-20 0,0 151.75,0 151.75,-20"/>
<text xml:space="preserve" text-anchor="middle" x="75.88" y="-6.5" font-family="Helvetica,sans-Serif" font-size="10.00">SDL_BWin::MessageReceived</text>
</a>
</g>
</g>
<!-- Node1&#45;&gt;Node3 -->
<g id="edge3_Node000001_Node000003" class="edge">
<title>Node1&#45;&gt;Node3</title>
<g id="a_edge3_Node000001_Node000003"><a xlink:title=" ">
<path fill="none" stroke="#63b8ff" d="M349.66,-10C290.76,-10 210.34,-10 152.09,-10"/>
<polygon fill="#63b8ff" stroke="#63b8ff" points="349.62,-13.5 359.62,-10 349.62,-6.5 349.62,-13.5"/>
</a>
</g>
</g>
<!-- Node2&#45;&gt;Node3 -->
<g id="edge2_Node000002_Node000003" class="edge">
<title>Node2&#45;&gt;Node3</title>
<g id="a_edge2_Node000002_Node000003"><a xlink:title=" ">
<path fill="none" stroke="#63b8ff" d="M176.25,-20.57C168.25,-19.72 160.14,-18.86 152.18,-18.01"/>
<polygon fill="#63b8ff" stroke="#63b8ff" points="175.64,-24.03 185.95,-21.6 176.38,-17.06 175.64,-24.03"/>
</a>
</g>
</g>
</g>
</svg>
