<?xml version="1.0" encoding="UTF-8" standalone="no"?>
<!DOCTYPE svg PUBLIC "-//W3C//DTD SVG 1.1//EN"
 "http://www.w3.org/Graphics/SVG/1.1/DTD/svg11.dtd">
<!-- Generated by graphviz version 13.1.0 (20250701.0955)
 -->
<!-- Title: SDL_BWin::_MouseMotionEvent Pages: 1 -->
<svg width="555pt" height="47pt"
 viewBox="0.00 0.00 555.00 47.00" xmlns="http://www.w3.org/2000/svg" xmlns:xlink="http://www.w3.org/1999/xlink">
<g id="graph0" class="graph" transform="scale(1 1) rotate(0) translate(4 43)">
<title>SDL_BWin::_MouseMotionEvent</title>
<!-- Node1 -->
<g id="Node000001" class="node">
<title>Node1</title>
<g id="a_Node000001"><a xlink:title=" ">
<polygon fill="#999999" stroke="#666666" points="160,-20 0,-20 0,0 160,0 160,-20"/>
<text xml:space="preserve" text-anchor="middle" x="80" y="-6.5" font-family="Helvetica,sans-Serif" font-size="10.00">SDL_BWin::_MouseMotionEvent</text>
</a>
</g>
</g>
<!-- Node2 -->
<g id="Node000002" class="node">
<title>Node2</title>
<g id="a_Node000002"><a xlink:href="../../d7/d99/classSDL__BWin.html#a6ad18d2eae605ffd2b05accab4fbfbef" target="_top" xlink:title=" ">
<polygon fill="white" stroke="#666666" points="353.75,-39 196,-39 196,-19 353.75,-19 353.75,-39"/>
<text xml:space="preserve" text-anchor="middle" x="274.88" y="-25.5" font-family="Helvetica,sans-Serif" font-size="10.00">SDL_BWin::_MouseFocusEvent</text>
</a>
</g>
</g>
<!-- Node1&#45;&gt;Node2 -->
<g id="edge1_Node000001_Node000002" class="edge">
<title>Node1&#45;&gt;Node2</title>
<g id="a_edge1_Node000001_Node000002"><a xlink:title=" ">
<path fill="none" stroke="#63b8ff" d="M160.28,-17.81C168.19,-18.59 176.26,-19.38 184.27,-20.17"/>
<polygon fill="#63b8ff" stroke="#63b8ff" points="183.72,-23.64 194.01,-21.13 184.41,-16.67 183.72,-23.64"/>
</a>
</g>
</g>
<!-- Node3 -->
<g id="Node000003" class="node">
<title>Node3</title>
<g id="a_Node000003"><a xlink:href="../../d7/d99/classSDL__BWin.html#ac1b9e8d89d63f99157b18afea4441cae" target="_top" xlink:title=" ">
<polygon fill="white" stroke="#666666" points="546.75,-20 389.75,-20 389.75,0 546.75,0 546.75,-20"/>
<text xml:space="preserve" text-anchor="middle" x="468.25" y="-6.5" font-family="Helvetica,sans-Serif" font-size="10.00">SDL_BWin::_PostWindowEvent</text>
</a>
</g>
</g>
<!-- Node1&#45;&gt;Node3 -->
<g id="edge3_Node000001_Node000003" class="edge">
<title>Node1&#45;&gt;Node3</title>
<g id="a_edge3_Node000001_Node000003"><a xlink:title=" ">
<path fill="none" stroke="#63b8ff" d="M160.1,-10C223.42,-10 312.22,-10 378.06,-10"/>
<polygon fill="#63b8ff" stroke="#63b8ff" points="377.74,-13.5 387.74,-10 377.74,-6.5 377.74,-13.5"/>
</a>
</g>
</g>
<!-- Node2&#45;&gt;Node3 -->
<g id="edge2_Node000002_Node000003" class="edge">
<title>Node2&#45;&gt;Node3</title>
<g id="a_edge2_Node000002_Node000003"><a xlink:title=" ">
<path fill="none" stroke="#63b8ff" d="M353.99,-21.24C361.93,-20.46 370.03,-19.65 378.08,-18.85"/>
<polygon fill="#63b8ff" stroke="#63b8ff" points="378.27,-22.35 387.88,-17.88 377.58,-15.39 378.27,-22.35"/>
</a>
</g>
</g>
</g>
</svg>
