<?xml version="1.0" encoding="UTF-8" standalone="no"?>
<!DOCTYPE svg PUBLIC "-//W3C//DTD SVG 1.1//EN"
 "http://www.w3.org/Graphics/SVG/1.1/DTD/svg11.dtd">
<!-- Generated by graphviz version 13.1.0 (20250701.0955)
 -->
<!-- Title: SDL_BWin::MessageReceived Pages: 1 -->
<svg width="710pt" height="399pt"
 viewBox="0.00 0.00 710.00 399.00" xmlns="http://www.w3.org/2000/svg" xmlns:xlink="http://www.w3.org/1999/xlink">
<g id="graph0" class="graph" transform="scale(1 1) rotate(0) translate(4 394.87)">
<title>SDL_BWin::MessageReceived</title>
<!-- Node1 -->
<g id="Node000001" class="node">
<title>Node1</title>
<g id="a_Node000001"><a xlink:title=" ">
<polygon fill="#999999" stroke="#666666" points="151.75,-200.87 0,-200.87 0,-180.87 151.75,-180.87 151.75,-200.87"/>
<text xml:space="preserve" text-anchor="middle" x="75.88" y="-187.37" font-family="Helvetica,sans-Serif" font-size="10.00">SDL_BWin::MessageReceived</text>
</a>
</g>
</g>
<!-- Node2 -->
<g id="Node000002" class="node">
<title>Node2</title>
<g id="a_Node000002"><a xlink:href="../../d7/d99/classSDL__BWin.html#ac83879b1d7a8350627d64d7436d10641" target="_top" xlink:title=" ">
<polygon fill="white" stroke="#666666" points="318.12,-390.87 207.62,-390.87 207.62,-370.87 318.12,-370.87 318.12,-390.87"/>
<text xml:space="preserve" text-anchor="middle" x="262.88" y="-377.37" font-family="Helvetica,sans-Serif" font-size="10.00">SDL_BWin::_MoveTo</text>
</a>
</g>
</g>
<!-- Node1&#45;&gt;Node2 -->
<g id="edge1_Node000001_Node000002" class="edge">
<title>Node1&#45;&gt;Node2</title>
<g id="a_edge1_Node000001_Node000002"><a xlink:title=" ">
<path fill="none" stroke="#63b8ff" d="M80.48,-201.25C91.46,-231.21 127.42,-318.5 187.75,-361.87 190.57,-363.89 193.59,-365.71 196.74,-367.33"/>
<polygon fill="#63b8ff" stroke="#63b8ff" points="195.18,-370.47 205.75,-371.26 197.98,-364.05 195.18,-370.47"/>
</a>
</g>
</g>
<!-- Node3 -->
<g id="Node000003" class="node">
<title>Node3</title>
<g id="a_Node000003"><a xlink:href="../../d7/d99/classSDL__BWin.html#ac3c873162f4fddf8c481a7910bbf63c3" target="_top" xlink:title=" ">
<polygon fill="white" stroke="#666666" points="321.5,-352.87 204.25,-352.87 204.25,-332.87 321.5,-332.87 321.5,-352.87"/>
<text xml:space="preserve" text-anchor="middle" x="262.88" y="-339.37" font-family="Helvetica,sans-Serif" font-size="10.00">SDL_BWin::_ResizeTo</text>
</a>
</g>
</g>
<!-- Node1&#45;&gt;Node3 -->
<g id="edge2_Node000001_Node000003" class="edge">
<title>Node1&#45;&gt;Node3</title>
<g id="a_edge2_Node000001_Node000003"><a xlink:title=" ">
<path fill="none" stroke="#63b8ff" d="M82.98,-201.17C97.83,-225.34 138.24,-286.07 187.75,-318.87 193.24,-322.5 199.32,-325.63 205.58,-328.3"/>
<polygon fill="#63b8ff" stroke="#63b8ff" points="204.18,-331.51 214.77,-331.83 206.69,-324.98 204.18,-331.51"/>
</a>
</g>
</g>
<!-- Node4 -->
<g id="Node000004" class="node">
<title>Node4</title>
<g id="a_Node000004"><a xlink:href="../../d7/d99/classSDL__BWin.html#af85863347147176d7eb909888c63d5c1" target="_top" xlink:title=" ">
<polygon fill="white" stroke="#666666" points="318.12,-276.87 207.62,-276.87 207.62,-256.87 318.12,-256.87 318.12,-276.87"/>
<text xml:space="preserve" text-anchor="middle" x="262.88" y="-263.37" font-family="Helvetica,sans-Serif" font-size="10.00">SDL_BWin::_Restore</text>
</a>
</g>
</g>
<!-- Node1&#45;&gt;Node4 -->
<g id="edge3_Node000001_Node000004" class="edge">
<title>Node1&#45;&gt;Node4</title>
<g id="a_edge3_Node000001_Node000004"><a xlink:title=" ">
<path fill="none" stroke="#63b8ff" d="M96.97,-201.23C118.93,-212.33 155.32,-230.07 187.75,-242.87 196.7,-246.4 206.41,-249.82 215.75,-252.92"/>
<polygon fill="#63b8ff" stroke="#63b8ff" points="214.46,-256.18 225.05,-255.94 216.61,-249.53 214.46,-256.18"/>
</a>
</g>
</g>
<!-- Node5 -->
<g id="Node000005" class="node">
<title>Node5</title>
<g id="a_Node000005"><a xlink:href="../../d7/d99/classSDL__BWin.html#ada35c5f9f97f85e445634b1fa23c5a86" target="_top" xlink:title=" ">
<polygon fill="white" stroke="#666666" points="496.12,-276.87 386.38,-276.87 386.38,-256.87 496.12,-256.87 496.12,-276.87"/>
<text xml:space="preserve" text-anchor="middle" x="441.25" y="-263.37" font-family="Helvetica,sans-Serif" font-size="10.00">SDL_BWin::Minimize</text>
</a>
</g>
</g>
<!-- Node1&#45;&gt;Node5 -->
<g id="edge17_Node000001_Node000005" class="edge">
<title>Node1&#45;&gt;Node5</title>
<g id="a_edge17_Node000001_Node000005"><a xlink:title=" ">
<path fill="none" stroke="#63b8ff" d="M84.61,-201.24C100.91,-222.1 141.15,-268.63 187.75,-285.87 258.09,-311.88 346.81,-294.79 398.18,-280.48"/>
<polygon fill="#63b8ff" stroke="#63b8ff" points="399.08,-283.87 407.72,-277.73 397.14,-277.14 399.08,-283.87"/>
</a>
</g>
</g>
<!-- Node7 -->
<g id="Node000007" class="node">
<title>Node7</title>
<g id="a_Node000007"><a xlink:href="../../d7/d99/classSDL__BWin.html#abf5b9ea4a045faa41a24938cf9ef78fc" target="_top" xlink:title=" ">
<polygon fill="white" stroke="#666666" points="489,-238.87 393.5,-238.87 393.5,-218.87 489,-218.87 489,-238.87"/>
<text xml:space="preserve" text-anchor="middle" x="441.25" y="-225.37" font-family="Helvetica,sans-Serif" font-size="10.00">SDL_BWin::Show</text>
</a>
</g>
</g>
<!-- Node1&#45;&gt;Node7 -->
<g id="edge18_Node000001_Node000007" class="edge">
<title>Node1&#45;&gt;Node7</title>
<g id="a_edge18_Node000001_Node000007"><a xlink:title=" ">
<path fill="none" stroke="#63b8ff" d="M151.99,-200.67C163.94,-202.14 176.18,-203.59 187.75,-204.87 254.28,-212.23 330.82,-219.31 382.03,-223.85"/>
<polygon fill="#63b8ff" stroke="#63b8ff" points="381.43,-227.31 391.7,-224.7 382.04,-220.33 381.43,-227.31"/>
</a>
</g>
</g>
<!-- Node8 -->
<g id="Node000008" class="node">
<title>Node8</title>
<g id="a_Node000008"><a xlink:href="../../d7/d99/classSDL__BWin.html#a841d1939f1f9714aef0db74d3e0b4569" target="_top" xlink:title=" ">
<polygon fill="white" stroke="#666666" points="506.25,-200.87 376.25,-200.87 376.25,-180.87 506.25,-180.87 506.25,-200.87"/>
<text xml:space="preserve" text-anchor="middle" x="441.25" y="-187.37" font-family="Helvetica,sans-Serif" font-size="10.00">SDL_BWin::_SetBordered</text>
</a>
</g>
</g>
<!-- Node1&#45;&gt;Node8 -->
<g id="edge8_Node000001_Node000008" class="edge">
<title>Node1&#45;&gt;Node8</title>
<g id="a_edge8_Node000001_Node000008"><a xlink:title=" ">
<path fill="none" stroke="#63b8ff" d="M152.17,-190.87C214.4,-190.87 302.35,-190.87 364.66,-190.87"/>
<polygon fill="#63b8ff" stroke="#63b8ff" points="364.47,-194.37 374.47,-190.87 364.47,-187.37 364.47,-194.37"/>
</a>
</g>
</g>
<!-- Node9 -->
<g id="Node000009" class="node">
<title>Node9</title>
<g id="a_Node000009"><a xlink:href="../../d7/d99/classSDL__BWin.html#a04e35f7b40ef54c45767995a86f003b4" target="_top" xlink:title=" ">
<polygon fill="white" stroke="#666666" points="331.62,-162.87 194.12,-162.87 194.12,-142.87 331.62,-142.87 331.62,-162.87"/>
<text xml:space="preserve" text-anchor="middle" x="262.88" y="-149.37" font-family="Helvetica,sans-Serif" font-size="10.00">SDL_BWin::_SetFullScreen</text>
</a>
</g>
</g>
<!-- Node1&#45;&gt;Node9 -->
<g id="edge9_Node000001_Node000009" class="edge">
<title>Node1&#45;&gt;Node9</title>
<g id="a_edge9_Node000001_Node000009"><a xlink:title=" ">
<path fill="none" stroke="#63b8ff" d="M127.92,-180.38C150.16,-175.81 176.43,-170.42 199.8,-165.62"/>
<polygon fill="#63b8ff" stroke="#63b8ff" points="200.43,-169.06 209.52,-163.62 199.02,-162.21 200.43,-169.06"/>
</a>
</g>
</g>
<!-- Node10 -->
<g id="Node000010" class="node">
<title>Node10</title>
<g id="a_Node000010"><a xlink:href="../../d7/d99/classSDL__BWin.html#a6cc2e775dfb70b2352b36b5623e8c0ac" target="_top" xlink:title=" ">
<polygon fill="white" stroke="#666666" points="508.5,-143.87 374,-143.87 374,-123.87 508.5,-123.87 508.5,-143.87"/>
<text xml:space="preserve" text-anchor="middle" x="441.25" y="-130.37" font-family="Helvetica,sans-Serif" font-size="10.00">SDL_BWin::_SetResizable</text>
</a>
</g>
</g>
<!-- Node1&#45;&gt;Node10 -->
<g id="edge13_Node000001_Node000010" class="edge">
<title>Node1&#45;&gt;Node10</title>
<g id="a_edge13_Node000001_Node000010"><a xlink:title=" ">
<path fill="none" stroke="#63b8ff" d="M91.4,-180.51C111.77,-166.68 150.52,-142.88 187.75,-133.87 245.09,-119.99 311.92,-120.7 362.42,-124.5"/>
<polygon fill="#63b8ff" stroke="#63b8ff" points="361.82,-127.96 372.07,-125.29 362.39,-120.99 361.82,-127.96"/>
</a>
</g>
</g>
<!-- Node11 -->
<g id="Node000011" class="node">
<title>Node11</title>
<g id="a_Node000011"><a xlink:href="../../d7/d99/classSDL__BWin.html#a56b386902a7f9c6633fe6ad1e4043aa1" target="_top" xlink:title=" ">
<polygon fill="white" stroke="#666666" points="338,-86.87 187.75,-86.87 187.75,-66.87 338,-66.87 338,-86.87"/>
<text xml:space="preserve" text-anchor="middle" x="262.88" y="-73.37" font-family="Helvetica,sans-Serif" font-size="10.00">SDL_BWin::_SetMinimumSize</text>
</a>
</g>
</g>
<!-- Node1&#45;&gt;Node11 -->
<g id="edge12_Node000001_Node000011" class="edge">
<title>Node1&#45;&gt;Node11</title>
<g id="a_edge12_Node000001_Node000011"><a xlink:title=" ">
<path fill="none" stroke="#63b8ff" d="M86.93,-180.49C105.33,-162.03 146.35,-123.35 187.75,-100.87 194.62,-97.14 202.16,-93.87 209.72,-91.04"/>
<polygon fill="#63b8ff" stroke="#63b8ff" points="210.64,-94.43 218.93,-87.84 208.34,-87.82 210.64,-94.43"/>
</a>
</g>
</g>
<!-- Node12 -->
<g id="Node000012" class="node">
<title>Node12</title>
<g id="a_Node000012"><a xlink:href="../../d7/d99/classSDL__BWin.html#a6b862938f4cc3bde88af5de39e92e216" target="_top" xlink:title=" ">
<polygon fill="white" stroke="#666666" points="317.75,-48.87 208,-48.87 208,-28.87 317.75,-28.87 317.75,-48.87"/>
<text xml:space="preserve" text-anchor="middle" x="262.88" y="-35.37" font-family="Helvetica,sans-Serif" font-size="10.00">SDL_BWin::_SetTitle</text>
</a>
</g>
</g>
<!-- Node1&#45;&gt;Node12 -->
<g id="edge14_Node000001_Node000012" class="edge">
<title>Node1&#45;&gt;Node12</title>
<g id="a_edge14_Node000001_Node000012"><a xlink:title=" ">
<path fill="none" stroke="#63b8ff" d="M82.32,-180.69C96.28,-155.63 135.9,-90.62 187.75,-57.87 190.69,-56.01 193.8,-54.34 197.02,-52.82"/>
<polygon fill="#63b8ff" stroke="#63b8ff" points="198.23,-56.11 206.18,-49.1 195.6,-49.62 198.23,-56.11"/>
</a>
</g>
</g>
<!-- Node13 -->
<g id="Node000013" class="node">
<title>Node13</title>
<g id="a_Node000013"><a xlink:href="../../d7/d99/classSDL__BWin.html#ab0e1165c98455cbfda0c5c32919ed312" target="_top" xlink:title=" ">
<polygon fill="white" stroke="#666666" points="486.75,-48.87 395.75,-48.87 395.75,-28.87 486.75,-28.87 486.75,-48.87"/>
<text xml:space="preserve" text-anchor="middle" x="441.25" y="-35.37" font-family="Helvetica,sans-Serif" font-size="10.00">SDL_BWin::Hide</text>
</a>
</g>
</g>
<!-- Node1&#45;&gt;Node13 -->
<g id="edge15_Node000001_Node000013" class="edge">
<title>Node1&#45;&gt;Node13</title>
<g id="a_edge15_Node000001_Node000013"><a xlink:title=" ">
<path fill="none" stroke="#63b8ff" d="M79.73,-180.62C89.06,-149.45 121.84,-55.68 187.75,-19.87 257.02,17.78 353.16,-6.65 404.52,-24.65"/>
<polygon fill="#63b8ff" stroke="#63b8ff" points="403.06,-27.84 413.65,-27.96 405.45,-21.26 403.06,-27.84"/>
</a>
</g>
</g>
<!-- Node4&#45;&gt;Node5 -->
<g id="edge4_Node000004_Node000005" class="edge">
<title>Node4&#45;&gt;Node5</title>
<g id="a_edge4_Node000004_Node000005"><a xlink:title=" ">
<path fill="none" stroke="#63b8ff" d="M318.23,-266.87C336.09,-266.87 356.12,-266.87 374.71,-266.87"/>
<polygon fill="#63b8ff" stroke="#63b8ff" points="374.56,-270.37 384.56,-266.87 374.56,-263.37 374.56,-270.37"/>
</a>
</g>
</g>
<!-- Node4&#45;&gt;Node7 -->
<g id="edge6_Node000004_Node000007" class="edge">
<title>Node4&#45;&gt;Node7</title>
<g id="a_edge6_Node000004_Node000007"><a xlink:title=" ">
<path fill="none" stroke="#63b8ff" d="M312.54,-256.38C334.08,-251.74 359.6,-246.24 382.13,-241.39"/>
<polygon fill="#63b8ff" stroke="#63b8ff" points="382.75,-244.84 391.79,-239.31 381.28,-237.99 382.75,-244.84"/>
</a>
</g>
</g>
<!-- Node6 -->
<g id="Node000006" class="node">
<title>Node6</title>
<g id="a_Node000006"><a xlink:href="../../d7/d99/classSDL__BWin.html#ac1b9e8d89d63f99157b18afea4441cae" target="_top" xlink:title=" ">
<polygon fill="white" stroke="#666666" points="701.5,-238.87 544.5,-238.87 544.5,-218.87 701.5,-218.87 701.5,-238.87"/>
<text xml:space="preserve" text-anchor="middle" x="623" y="-225.37" font-family="Helvetica,sans-Serif" font-size="10.00">SDL_BWin::_PostWindowEvent</text>
</a>
</g>
</g>
<!-- Node5&#45;&gt;Node6 -->
<g id="edge5_Node000005_Node000006" class="edge">
<title>Node5&#45;&gt;Node6</title>
<g id="a_edge5_Node000005_Node000006"><a xlink:title=" ">
<path fill="none" stroke="#63b8ff" d="M491.84,-256.38C513.36,-251.83 538.75,-246.47 561.37,-241.68"/>
<polygon fill="#63b8ff" stroke="#63b8ff" points="562.03,-245.12 571.09,-239.63 560.58,-238.27 562.03,-245.12"/>
</a>
</g>
</g>
<!-- Node7&#45;&gt;Node6 -->
<g id="edge7_Node000007_Node000006" class="edge">
<title>Node7&#45;&gt;Node6</title>
<g id="a_edge7_Node000007_Node000006"><a xlink:title=" ">
<path fill="none" stroke="#63b8ff" d="M489.48,-228.87C502.82,-228.87 517.8,-228.87 532.76,-228.87"/>
<polygon fill="#63b8ff" stroke="#63b8ff" points="532.65,-232.37 542.65,-228.87 532.65,-225.37 532.65,-232.37"/>
</a>
</g>
</g>
<!-- Node9&#45;&gt;Node8 -->
<g id="edge10_Node000009_Node000008" class="edge">
<title>Node9&#45;&gt;Node8</title>
<g id="a_edge10_Node000009_Node000008"><a xlink:title=" ">
<path fill="none" stroke="#63b8ff" d="M312.54,-163.35C333.65,-167.9 358.56,-173.27 380.76,-178.05"/>
<polygon fill="#63b8ff" stroke="#63b8ff" points="379.75,-181.41 390.27,-180.1 381.23,-174.57 379.75,-181.41"/>
</a>
</g>
</g>
<!-- Node9&#45;&gt;Node10 -->
<g id="edge11_Node000009_Node000010" class="edge">
<title>Node9&#45;&gt;Node10</title>
<g id="a_edge11_Node000009_Node000010"><a xlink:title=" ">
<path fill="none" stroke="#63b8ff" d="M332.07,-145.52C342,-144.45 352.28,-143.34 362.39,-142.25"/>
<polygon fill="#63b8ff" stroke="#63b8ff" points="362.62,-145.75 372.19,-141.2 361.87,-138.79 362.62,-145.75"/>
</a>
</g>
</g>
<!-- Node13&#45;&gt;Node6 -->
<g id="edge16_Node000013_Node000006" class="edge">
<title>Node13&#45;&gt;Node6</title>
<g id="a_edge16_Node000013_Node000006"><a xlink:title=" ">
<path fill="none" stroke="#63b8ff" d="M452.17,-49.35C481.46,-80.31 567.8,-171.57 604.82,-210.71"/>
<polygon fill="#63b8ff" stroke="#63b8ff" points="601.87,-212.69 611.29,-217.55 606.96,-207.88 601.87,-212.69"/>
</a>
</g>
</g>
</g>
</svg>
