<?xml version="1.0" encoding="UTF-8" standalone="no"?>
<!DOCTYPE svg PUBLIC "-//W3C//DTD SVG 1.1//EN"
 "http://www.w3.org/Graphics/SVG/1.1/DTD/svg11.dtd">
<!-- Generated by graphviz version 13.1.0 (20250701.0955)
 -->
<!-- Title: SDL&#45;main/src/video/khronos/EGL/eglplatform.h Pages: 1 -->
<!--zoomable 380 -->

<svg id="main" version="1.1" xmlns="http://www.w3.org/2000/svg" xmlns:xlink="http://www.w3.org/1999/xlink" xml:space="preserve" onload="init(evt)">

<style type="text/css"><![CDATA[
.node, .edge {opacity: 0.7;}
.node.selected, .edge.selected {opacity: 1;}
.edge:hover path { stroke: red; }
.edge:hover polygon { stroke: red; fill: red; }
]]></style>

<defs>
  <circle id="rim" cx="0" cy="0" r="7"/>
  <circle id="rim2" cx="0" cy="0" r="3.5"/>
  <g id="zoomPlus">
    <use xlink:href="#rim" fill="#404040"><set attributeName="fill" to="#808080" begin="zoomplus.mouseover" end="zoomplus.mouseout"/></use>
    <path d="M-4,0h8M0,-4v8" fill="none" stroke="white" stroke-width="1.5" pointer-events="none"/>
  </g>
  <g id="zoomMin">
    <use xlink:href="#rim" fill="#404040"><set attributeName="fill" to="#808080" begin="zoomminus.mouseover" end="zoomminus.mouseout"/></use>
    <path d="M-4,0h8" fill="none" stroke="white" stroke-width="1.5" pointer-events="none"/>
  </g>
  <g id="arrowUp" transform="translate(30 24)">
    <use xlink:href="#rim"/>
    <path pointer-events="none" fill="none" stroke="white" stroke-width="1.5" d="M0,-3.0v7 M-2.5,-0.5L0,-3.0L2.5,-0.5"/>
  </g>
  <g id="arrowRight" transform="rotate(90) translate(36 -43)">
    <use xlink:href="#rim"/>
    <path pointer-events="none" fill="none" stroke="white" stroke-width="1.5" d="M0,-3.0v7 M-2.5,-0.5L0,-3.0L2.5,-0.5"/>
  </g>
  <g id="arrowDown" transform="rotate(180) translate(-30 -48)">
    <use xlink:href="#rim"/>
    <path pointer-events="none" fill="none" stroke="white" stroke-width="1.5" d="M0,-3.0v7 M-2.5,-0.5L0,-3.0L2.5,-0.5"/>
  </g>
  <g id="arrowLeft" transform="rotate(270) translate(-36 17)">
    <use xlink:href="#rim"/>
    <path pointer-events="none" fill="none" stroke="white" stroke-width="1.5" d="M0,-3.0v7 M-2.5,-0.5L0,-3.0L2.5,-0.5"/>
  </g>
  <g id="resetDef">
    <use xlink:href="#rim2" fill="#404040"><set attributeName="fill" to="#808080" begin="reset.mouseover" end="reset.mouseout"/></use>
  </g>
</defs>
<script type="application/ecmascript">
var viewWidth = 1756;
var viewHeight = 380;
var sectionId = 'dynsection-1';
</script>
<script type="application/ecmascript" xlink:href="../../svg.min.js"/>
<svg id="graph" class="graph">
<g id="viewport">
<title>SDL&#45;main/src/video/khronos/EGL/eglplatform.h</title>
<!-- Node1 -->
<g id="Node000001" class="node">
<title>Node1</title>
<g id="a_Node000001"><a xlink:title=" ">
<polygon fill="#999999" stroke="#666666" points="877.88,-372 742.62,-372 742.62,-340 877.88,-340 877.88,-372"/>
<text xml:space="preserve" text-anchor="start" x="750.62" y="-358.5" font-family="Helvetica,sans-Serif" font-size="10.00">SDL&#45;main/src/video</text>
<text xml:space="preserve" text-anchor="middle" x="810.25" y="-346.5" font-family="Helvetica,sans-Serif" font-size="10.00">/khronos/EGL/eglplatform.h</text>
</a>
</g>
</g>
<!-- Node2 -->
<g id="Node000002" class="node">
<title>Node2</title>
<g id="a_Node000002"><a xlink:href="../../d2/dcb/SDL__android_8h.html" target="_top" xlink:title=" ">
<polygon fill="white" stroke="#666666" points="481.38,-304 349.12,-304 349.12,-272 481.38,-272 481.38,-304"/>
<text xml:space="preserve" text-anchor="start" x="357.12" y="-290.5" font-family="Helvetica,sans-Serif" font-size="10.00">SDL&#45;main/src/core/android</text>
<text xml:space="preserve" text-anchor="middle" x="415.25" y="-278.5" font-family="Helvetica,sans-Serif" font-size="10.00">/SDL_android.h</text>
</a>
</g>
</g>
<!-- Node1&#45;&gt;Node2 -->
<g id="edge1_Node000001_Node000002" class="edge">
<title>Node1&#45;&gt;Node2</title>
<g id="a_edge1_Node000001_Node000002"><a xlink:title=" ">
<path fill="none" stroke="#63b8ff" d="M731.36,-341.82C658.18,-329.59 550.48,-311.6 481.61,-300.09"/>
<polygon fill="#63b8ff" stroke="#63b8ff" points="730.41,-345.21 740.85,-343.4 731.57,-338.3 730.41,-345.21"/>
</a>
</g>
</g>
<!-- Node8 -->
<g id="Node000008" class="node">
<title>Node8</title>
<g id="a_Node000008"><a xlink:href="../../da/de2/egl_8h.html" target="_top" xlink:title=" ">
<polygon fill="white" stroke="#666666" points="1175.38,-304 1073.12,-304 1073.12,-272 1175.38,-272 1175.38,-304"/>
<text xml:space="preserve" text-anchor="start" x="1081.12" y="-290.5" font-family="Helvetica,sans-Serif" font-size="10.00">SDL&#45;main/src/video</text>
<text xml:space="preserve" text-anchor="middle" x="1124.25" y="-278.5" font-family="Helvetica,sans-Serif" font-size="10.00">/khronos/EGL/egl.h</text>
</a>
</g>
</g>
<!-- Node1&#45;&gt;Node8 -->
<g id="edge7_Node000001_Node000008" class="edge">
<title>Node1&#45;&gt;Node8</title>
<g id="a_edge7_Node000001_Node000008"><a xlink:title=" ">
<path fill="none" stroke="#63b8ff" d="M889.23,-338.4C946.68,-326.32 1022.83,-310.32 1072.65,-299.84"/>
<polygon fill="#63b8ff" stroke="#63b8ff" points="888.54,-334.97 879.48,-340.45 889.98,-341.82 888.54,-334.97"/>
</a>
</g>
</g>
<!-- Node23 -->
<g id="Node000023" class="node">
<title>Node23</title>
<g id="a_Node000023"><a xlink:href="../../d3/dda/eglext_8h.html" target="_top" xlink:title=" ">
<polygon fill="white" stroke="#666666" points="867,-304 753.5,-304 753.5,-272 867,-272 867,-304"/>
<text xml:space="preserve" text-anchor="start" x="761.5" y="-290.5" font-family="Helvetica,sans-Serif" font-size="10.00">SDL&#45;main/src/video</text>
<text xml:space="preserve" text-anchor="middle" x="810.25" y="-278.5" font-family="Helvetica,sans-Serif" font-size="10.00">/khronos/EGL/eglext.h</text>
</a>
</g>
</g>
<!-- Node1&#45;&gt;Node23 -->
<g id="edge27_Node000001_Node000023" class="edge">
<title>Node1&#45;&gt;Node23</title>
<g id="a_edge27_Node000001_Node000023"><a xlink:title=" ">
<path fill="none" stroke="#63b8ff" d="M810.25,-328.31C810.25,-320.12 810.25,-311.38 810.25,-304.22"/>
<polygon fill="#63b8ff" stroke="#63b8ff" points="806.75,-328.18 810.25,-338.18 813.75,-328.18 806.75,-328.18"/>
</a>
</g>
</g>
<!-- Node3 -->
<g id="Node000003" class="node">
<title>Node3</title>
<g id="a_Node000003"><a xlink:href="../../d5/de8/SDL__androiddialog_8c.html" target="_top" xlink:title=" ">
<polygon fill="white" stroke="#666666" points="732,-236 588.5,-236 588.5,-204 732,-204 732,-236"/>
<text xml:space="preserve" text-anchor="start" x="596.5" y="-222.5" font-family="Helvetica,sans-Serif" font-size="10.00">SDL&#45;main/src/dialog</text>
<text xml:space="preserve" text-anchor="middle" x="660.25" y="-210.5" font-family="Helvetica,sans-Serif" font-size="10.00">/android/SDL_androiddialog.c</text>
</a>
</g>
</g>
<!-- Node2&#45;&gt;Node3 -->
<g id="edge2_Node000002_Node000003" class="edge">
<title>Node2&#45;&gt;Node3</title>
<g id="a_edge2_Node000002_Node000003"><a xlink:title=" ">
<path fill="none" stroke="#63b8ff" d="M483.54,-268.6C521.06,-258.5 567.07,-246.1 602.74,-236.49"/>
<polygon fill="#63b8ff" stroke="#63b8ff" points="482.9,-265.15 474.15,-271.13 484.72,-271.91 482.9,-265.15"/>
</a>
</g>
</g>
<!-- Node4 -->
<g id="Node000004" class="node">
<title>Node4</title>
<g id="a_Node000004"><a xlink:href="../../d2/d5c/hid_8cpp.html" target="_top" xlink:title=" ">
<polygon fill="white" stroke="#666666" points="104.5,-236 0,-236 0,-204 104.5,-204 104.5,-236"/>
<text xml:space="preserve" text-anchor="start" x="8" y="-222.5" font-family="Helvetica,sans-Serif" font-size="10.00">SDL&#45;main/src/hidapi</text>
<text xml:space="preserve" text-anchor="middle" x="52.25" y="-210.5" font-family="Helvetica,sans-Serif" font-size="10.00">/android/hid.cpp</text>
</a>
</g>
</g>
<!-- Node2&#45;&gt;Node4 -->
<g id="edge3_Node000002_Node000004" class="edge">
<title>Node2&#45;&gt;Node4</title>
<g id="a_edge3_Node000002_Node000004"><a xlink:title=" ">
<path fill="none" stroke="#63b8ff" d="M337.6,-275.5C276.43,-266.05 189.1,-251.71 113.25,-236 110.47,-235.42 107.63,-234.81 104.77,-234.17"/>
<polygon fill="#63b8ff" stroke="#63b8ff" points="336.8,-278.92 347.21,-276.98 337.86,-272 336.8,-278.92"/>
</a>
</g>
</g>
<!-- Node5 -->
<g id="Node000005" class="node">
<title>Node5</title>
<g id="a_Node000005"><a xlink:href="../../d7/dc1/android_2SDL__syslocale_8c.html" target="_top" xlink:title=" ">
<polygon fill="white" stroke="#666666" points="250.12,-236 122.38,-236 122.38,-204 250.12,-204 250.12,-236"/>
<text xml:space="preserve" text-anchor="start" x="130.38" y="-222.5" font-family="Helvetica,sans-Serif" font-size="10.00">SDL&#45;main/src/locale</text>
<text xml:space="preserve" text-anchor="middle" x="186.25" y="-210.5" font-family="Helvetica,sans-Serif" font-size="10.00">/android/SDL_syslocale.c</text>
</a>
</g>
</g>
<!-- Node2&#45;&gt;Node5 -->
<g id="edge4_Node000002_Node000005" class="edge">
<title>Node2&#45;&gt;Node5</title>
<g id="a_edge4_Node000002_Node000005"><a xlink:title=" ">
<path fill="none" stroke="#63b8ff" d="M350.52,-268.34C315.62,-258.28 273.05,-246.02 240,-236.49"/>
<polygon fill="#63b8ff" stroke="#63b8ff" points="349.53,-271.7 360.11,-271.11 351.47,-264.97 349.53,-271.7"/>
</a>
</g>
</g>
<!-- Node6 -->
<g id="Node000006" class="node">
<title>Node6</title>
<g id="a_Node000006"><a xlink:href="../../d5/d1d/android_2SDL__sysurl_8c.html" target="_top" xlink:title=" ">
<polygon fill="white" stroke="#666666" points="402.5,-236 268,-236 268,-204 402.5,-204 402.5,-236"/>
<text xml:space="preserve" text-anchor="start" x="276" y="-222.5" font-family="Helvetica,sans-Serif" font-size="10.00">SDL&#45;main/src/misc/android</text>
<text xml:space="preserve" text-anchor="middle" x="335.25" y="-210.5" font-family="Helvetica,sans-Serif" font-size="10.00">/SDL_sysurl.c</text>
</a>
</g>
</g>
<!-- Node2&#45;&gt;Node6 -->
<g id="edge5_Node000002_Node000006" class="edge">
<title>Node2&#45;&gt;Node6</title>
<g id="a_edge5_Node000002_Node000006"><a xlink:title=" ">
<path fill="none" stroke="#63b8ff" d="M388.1,-264.6C376.87,-255.34 364.14,-244.83 353.98,-236.45"/>
<polygon fill="#63b8ff" stroke="#63b8ff" points="385.59,-267.07 395.53,-270.73 390.04,-261.67 385.59,-267.07"/>
</a>
</g>
</g>
<!-- Node7 -->
<g id="Node000007" class="node">
<title>Node7</title>
<g id="a_Node000007"><a xlink:href="../../d3/d27/SDL__androidwindow_8h.html" target="_top" xlink:title=" ">
<polygon fill="white" stroke="#666666" points="570.38,-236 420.12,-236 420.12,-204 570.38,-204 570.38,-236"/>
<text xml:space="preserve" text-anchor="start" x="428.12" y="-222.5" font-family="Helvetica,sans-Serif" font-size="10.00">SDL&#45;main/src/video</text>
<text xml:space="preserve" text-anchor="middle" x="495.25" y="-210.5" font-family="Helvetica,sans-Serif" font-size="10.00">/android/SDL_androidwindow.h</text>
</a>
</g>
</g>
<!-- Node2&#45;&gt;Node7 -->
<g id="edge6_Node000002_Node000007" class="edge">
<title>Node2&#45;&gt;Node7</title>
<g id="a_edge6_Node000002_Node000007"><a xlink:title=" ">
<path fill="none" stroke="#63b8ff" d="M442.4,-264.6C453.63,-255.34 466.36,-244.83 476.52,-236.45"/>
<polygon fill="#63b8ff" stroke="#63b8ff" points="440.46,-261.67 434.97,-270.73 444.91,-267.07 440.46,-261.67"/>
</a>
</g>
</g>
<!-- Node9 -->
<g id="Node000009" class="node">
<title>Node9</title>
<g id="a_Node000009"><a xlink:href="../../d0/de1/SDL__egl_8h.html" target="_top" xlink:title=" ">
<polygon fill="white" stroke="#666666" points="870.75,-236 749.75,-236 749.75,-204 870.75,-204 870.75,-236"/>
<text xml:space="preserve" text-anchor="start" x="757.75" y="-222.5" font-family="Helvetica,sans-Serif" font-size="10.00">SDL&#45;main/include/SDL3</text>
<text xml:space="preserve" text-anchor="middle" x="810.25" y="-210.5" font-family="Helvetica,sans-Serif" font-size="10.00">/SDL_egl.h</text>
</a>
</g>
</g>
<!-- Node8&#45;&gt;Node9 -->
<g id="edge8_Node000008_Node000009" class="edge">
<title>Node8&#45;&gt;Node9</title>
<g id="a_edge8_Node000008_Node000009"><a xlink:title=" ">
<path fill="none" stroke="#63b8ff" d="M1061.7,-274.02C1012.4,-263.76 941.92,-249.05 880.25,-236 877.21,-235.36 874.1,-234.7 870.95,-234.03"/>
<polygon fill="#63b8ff" stroke="#63b8ff" points="1060.84,-277.41 1071.34,-276.02 1062.26,-270.56 1060.84,-277.41"/>
</a>
</g>
</g>
<!-- Node12 -->
<g id="Node000012" class="node">
<title>Node12</title>
<g id="a_Node000012"><a xlink:href="../../de/db4/SDL__vivantevideo_8h.html" target="_top" xlink:title=" ">
<polygon fill="white" stroke="#666666" points="1067.88,-168 926.62,-168 926.62,-136 1067.88,-136 1067.88,-168"/>
<text xml:space="preserve" text-anchor="start" x="934.62" y="-154.5" font-family="Helvetica,sans-Serif" font-size="10.00">SDL&#45;main/src/video</text>
<text xml:space="preserve" text-anchor="middle" x="997.25" y="-142.5" font-family="Helvetica,sans-Serif" font-size="10.00">/vivante/SDL_vivantevideo.h</text>
</a>
</g>
</g>
<!-- Node8&#45;&gt;Node12 -->
<g id="edge18_Node000008_Node000012" class="edge">
<title>Node8&#45;&gt;Node12</title>
<g id="a_edge18_Node000008_Node000012"><a xlink:title=" ">
<path fill="none" stroke="#63b8ff" d="M1172.1,-265.66C1183.71,-258.05 1194.67,-248.25 1201.25,-236 1207.98,-223.47 1210,-215.21 1201.25,-204 1192.8,-193.17 1123.78,-177.45 1068.33,-166.33"/>
<polygon fill="#63b8ff" stroke="#63b8ff" points="1170.35,-262.63 1163.57,-270.76 1173.95,-268.63 1170.35,-262.63"/>
</a>
</g>
</g>
<!-- Node13 -->
<g id="Node000013" class="node">
<title>Node13</title>
<g id="a_Node000013"><a xlink:href="../../dc/d6e/SDL__kmsdrmvideo_8h.html" target="_top" xlink:title=" ">
<polygon fill="white" stroke="#666666" points="1037.62,-236 888.88,-236 888.88,-204 1037.62,-204 1037.62,-236"/>
<text xml:space="preserve" text-anchor="start" x="896.88" y="-222.5" font-family="Helvetica,sans-Serif" font-size="10.00">SDL&#45;main/src/video</text>
<text xml:space="preserve" text-anchor="middle" x="963.25" y="-210.5" font-family="Helvetica,sans-Serif" font-size="10.00">/kmsdrm/SDL_kmsdrmvideo.h</text>
</a>
</g>
</g>
<!-- Node8&#45;&gt;Node13 -->
<g id="edge12_Node000008_Node000013" class="edge">
<title>Node8&#45;&gt;Node13</title>
<g id="a_edge12_Node000008_Node000013"><a xlink:title=" ">
<path fill="none" stroke="#63b8ff" d="M1076.17,-267.29C1052.14,-257.44 1023.47,-245.69 1001.04,-236.49"/>
<polygon fill="#63b8ff" stroke="#63b8ff" points="1074.52,-270.4 1085.1,-270.95 1077.18,-263.92 1074.52,-270.4"/>
</a>
</g>
</g>
<!-- Node14 -->
<g id="Node000014" class="node">
<title>Node14</title>
<g id="a_Node000014"><a xlink:href="../../df/de1/SDL__openvrvideo_8h.html" target="_top" xlink:title=" ">
<polygon fill="white" stroke="#666666" points="1192.62,-236 1055.88,-236 1055.88,-204 1192.62,-204 1192.62,-236"/>
<text xml:space="preserve" text-anchor="start" x="1063.88" y="-222.5" font-family="Helvetica,sans-Serif" font-size="10.00">SDL&#45;main/src/video</text>
<text xml:space="preserve" text-anchor="middle" x="1124.25" y="-210.5" font-family="Helvetica,sans-Serif" font-size="10.00">/openvr/SDL_openvrvideo.h</text>
</a>
</g>
</g>
<!-- Node8&#45;&gt;Node14 -->
<g id="edge13_Node000008_Node000014" class="edge">
<title>Node8&#45;&gt;Node14</title>
<g id="a_edge13_Node000008_Node000014"><a xlink:title=" ">
<path fill="none" stroke="#63b8ff" d="M1124.25,-260.31C1124.25,-252.12 1124.25,-243.38 1124.25,-236.22"/>
<polygon fill="#63b8ff" stroke="#63b8ff" points="1120.75,-260.18 1124.25,-270.18 1127.75,-260.18 1120.75,-260.18"/>
</a>
</g>
</g>
<!-- Node15 -->
<g id="Node000015" class="node">
<title>Node15</title>
<g id="a_Node000015"><a xlink:href="../../da/d42/SDL__qnx_8h.html" target="_top" xlink:title=" ">
<polygon fill="white" stroke="#666666" points="1350.38,-236 1248.12,-236 1248.12,-204 1350.38,-204 1350.38,-236"/>
<text xml:space="preserve" text-anchor="start" x="1256.12" y="-222.5" font-family="Helvetica,sans-Serif" font-size="10.00">SDL&#45;main/src/video</text>
<text xml:space="preserve" text-anchor="middle" x="1299.25" y="-210.5" font-family="Helvetica,sans-Serif" font-size="10.00">/qnx/SDL_qnx.h</text>
</a>
</g>
</g>
<!-- Node8&#45;&gt;Node15 -->
<g id="edge14_Node000008_Node000015" class="edge">
<title>Node8&#45;&gt;Node15</title>
<g id="a_edge14_Node000008_Node000015"><a xlink:title=" ">
<path fill="none" stroke="#63b8ff" d="M1175.81,-267.56C1202.07,-257.65 1233.57,-245.77 1258.17,-236.49"/>
<polygon fill="#63b8ff" stroke="#63b8ff" points="1174.82,-264.19 1166.7,-270.99 1177.29,-270.74 1174.82,-264.19"/>
</a>
</g>
</g>
<!-- Node19 -->
<g id="Node000019" class="node">
<title>Node19</title>
<g id="a_Node000019"><a xlink:href="../../df/deb/SDL__waylandvideo_8h.html" target="_top" xlink:title=" ">
<polygon fill="white" stroke="#666666" points="1704.38,-236 1554.12,-236 1554.12,-204 1704.38,-204 1704.38,-236"/>
<text xml:space="preserve" text-anchor="start" x="1562.12" y="-222.5" font-family="Helvetica,sans-Serif" font-size="10.00">SDL&#45;main/src/video</text>
<text xml:space="preserve" text-anchor="middle" x="1629.25" y="-210.5" font-family="Helvetica,sans-Serif" font-size="10.00">/wayland/SDL_waylandvideo.h</text>
</a>
</g>
</g>
<!-- Node8&#45;&gt;Node19 -->
<g id="edge19_Node000008_Node000019" class="edge">
<title>Node8&#45;&gt;Node19</title>
<g id="a_edge19_Node000008_Node000019"><a xlink:title=" ">
<path fill="none" stroke="#63b8ff" d="M1186.64,-278.85C1279.52,-266.71 1453.93,-243.91 1553.84,-230.86"/>
<polygon fill="#63b8ff" stroke="#63b8ff" points="1186.41,-275.35 1176.95,-280.11 1187.32,-282.29 1186.41,-275.35"/>
</a>
</g>
</g>
<!-- Node10 -->
<g id="Node000010" class="node">
<title>Node10</title>
<g id="a_Node000010"><a xlink:href="../../df/da8/SDL__rpivideo_8h.html" target="_top" xlink:title=" ">
<polygon fill="white" stroke="#666666" points="874.88,-168 745.62,-168 745.62,-136 874.88,-136 874.88,-168"/>
<text xml:space="preserve" text-anchor="start" x="753.62" y="-154.5" font-family="Helvetica,sans-Serif" font-size="10.00">SDL&#45;main/src/video</text>
<text xml:space="preserve" text-anchor="middle" x="810.25" y="-142.5" font-family="Helvetica,sans-Serif" font-size="10.00">/raspberry/SDL_rpivideo.h</text>
</a>
</g>
</g>
<!-- Node9&#45;&gt;Node10 -->
<g id="edge9_Node000009_Node000010" class="edge">
<title>Node9&#45;&gt;Node10</title>
<g id="a_edge9_Node000009_Node000010"><a xlink:title=" ">
<path fill="none" stroke="#63b8ff" d="M810.25,-192.31C810.25,-184.12 810.25,-175.38 810.25,-168.22"/>
<polygon fill="#63b8ff" stroke="#63b8ff" points="806.75,-192.18 810.25,-202.18 813.75,-192.18 806.75,-192.18"/>
</a>
</g>
</g>
<!-- Node9&#45;&gt;Node12 -->
<g id="edge11_Node000009_Node000012" class="edge">
<title>Node9&#45;&gt;Node12</title>
<g id="a_edge11_Node000009_Node000012"><a xlink:title=" ">
<path fill="none" stroke="#63b8ff" d="M864.6,-199.82C892.81,-189.86 926.83,-177.85 953.36,-168.49"/>
<polygon fill="#63b8ff" stroke="#63b8ff" points="863.79,-196.39 855.52,-203.02 866.12,-202.99 863.79,-196.39"/>
</a>
</g>
</g>
<!-- Node11 -->
<g id="Node000011" class="node">
<title>Node11</title>
<g id="a_Node000011"><a xlink:href="../../d6/deb/SDL__rpievents__c_8h.html" target="_top" xlink:title=" ">
<polygon fill="white" stroke="#666666" points="883.12,-100 737.38,-100 737.38,-68 883.12,-68 883.12,-100"/>
<text xml:space="preserve" text-anchor="start" x="745.38" y="-86.5" font-family="Helvetica,sans-Serif" font-size="10.00">SDL&#45;main/src/video</text>
<text xml:space="preserve" text-anchor="middle" x="810.25" y="-74.5" font-family="Helvetica,sans-Serif" font-size="10.00">/raspberry/SDL_rpievents_c.h</text>
</a>
</g>
</g>
<!-- Node10&#45;&gt;Node11 -->
<g id="edge10_Node000010_Node000011" class="edge">
<title>Node10&#45;&gt;Node11</title>
<g id="a_edge10_Node000010_Node000011"><a xlink:title=" ">
<path fill="none" stroke="#63b8ff" d="M810.25,-124.31C810.25,-116.12 810.25,-107.38 810.25,-100.22"/>
<polygon fill="#63b8ff" stroke="#63b8ff" points="806.75,-124.18 810.25,-134.18 813.75,-124.18 806.75,-124.18"/>
</a>
</g>
</g>
<!-- Node16 -->
<g id="Node000016" class="node">
<title>Node16</title>
<g id="a_Node000016"><a xlink:href="../../d8/dd8/SDL__qnxgl_8c.html" target="_top" xlink:title=" ">
<polygon fill="white" stroke="#666666" points="1333.38,-168 1231.12,-168 1231.12,-136 1333.38,-136 1333.38,-168"/>
<text xml:space="preserve" text-anchor="start" x="1239.12" y="-154.5" font-family="Helvetica,sans-Serif" font-size="10.00">SDL&#45;main/src/video</text>
<text xml:space="preserve" text-anchor="middle" x="1282.25" y="-142.5" font-family="Helvetica,sans-Serif" font-size="10.00">/qnx/SDL_qnxgl.c</text>
</a>
</g>
</g>
<!-- Node15&#45;&gt;Node16 -->
<g id="edge15_Node000015_Node000016" class="edge">
<title>Node15&#45;&gt;Node16</title>
<g id="a_edge15_Node000015_Node000016"><a xlink:title=" ">
<path fill="none" stroke="#63b8ff" d="M1292.45,-192.6C1290.32,-184.32 1288.03,-175.46 1286.17,-168.22"/>
<polygon fill="#63b8ff" stroke="#63b8ff" points="1289.05,-193.42 1294.93,-202.23 1295.82,-191.67 1289.05,-193.42"/>
</a>
</g>
</g>
<!-- Node17 -->
<g id="Node000017" class="node">
<title>Node17</title>
<g id="a_Node000017"><a xlink:href="../../da/de6/SDL__qnxkeyboard_8c.html" target="_top" xlink:title=" ">
<polygon fill="white" stroke="#666666" points="1477.38,-168 1351.12,-168 1351.12,-136 1477.38,-136 1477.38,-168"/>
<text xml:space="preserve" text-anchor="start" x="1359.12" y="-154.5" font-family="Helvetica,sans-Serif" font-size="10.00">SDL&#45;main/src/video</text>
<text xml:space="preserve" text-anchor="middle" x="1414.25" y="-142.5" font-family="Helvetica,sans-Serif" font-size="10.00">/qnx/SDL_qnxkeyboard.c</text>
</a>
</g>
</g>
<!-- Node15&#45;&gt;Node17 -->
<g id="edge16_Node000015_Node000017" class="edge">
<title>Node15&#45;&gt;Node17</title>
<g id="a_edge16_Node000015_Node000017"><a xlink:title=" ">
<path fill="none" stroke="#63b8ff" d="M1336.19,-197.8C1352.87,-188.23 1372.2,-177.13 1387.46,-168.38"/>
<polygon fill="#63b8ff" stroke="#63b8ff" points="1334.46,-194.76 1327.53,-202.77 1337.94,-200.83 1334.46,-194.76"/>
</a>
</g>
</g>
<!-- Node18 -->
<g id="Node000018" class="node">
<title>Node18</title>
<g id="a_Node000018"><a xlink:href="../../db/dff/SDL__qnxvideo_8c.html" target="_top" xlink:title=" ">
<polygon fill="white" stroke="#666666" points="1213.12,-168 1103.38,-168 1103.38,-136 1213.12,-136 1213.12,-168"/>
<text xml:space="preserve" text-anchor="start" x="1111.38" y="-154.5" font-family="Helvetica,sans-Serif" font-size="10.00">SDL&#45;main/src/video</text>
<text xml:space="preserve" text-anchor="middle" x="1158.25" y="-142.5" font-family="Helvetica,sans-Serif" font-size="10.00">/qnx/SDL_qnxvideo.c</text>
</a>
</g>
</g>
<!-- Node15&#45;&gt;Node18 -->
<g id="edge17_Node000015_Node000018" class="edge">
<title>Node15&#45;&gt;Node18</title>
<g id="a_edge17_Node000015_Node000018"><a xlink:title=" ">
<path fill="none" stroke="#63b8ff" d="M1255.97,-198.74C1235.08,-188.96 1210.42,-177.42 1191.1,-168.38"/>
<polygon fill="#63b8ff" stroke="#63b8ff" points="1254.28,-201.81 1264.82,-202.88 1257.25,-195.47 1254.28,-201.81"/>
</a>
</g>
</g>
<!-- Node20 -->
<g id="Node000020" class="node">
<title>Node20</title>
<g id="a_Node000020"><a xlink:href="../../d5/d59/SDL__waylanddatamanager_8h.html" target="_top" xlink:title=" ">
<polygon fill="white" stroke="#666666" points="1733.88,-100 1550.62,-100 1550.62,-68 1733.88,-68 1733.88,-100"/>
<text xml:space="preserve" text-anchor="start" x="1558.62" y="-86.5" font-family="Helvetica,sans-Serif" font-size="10.00">SDL&#45;main/src/video</text>
<text xml:space="preserve" text-anchor="middle" x="1642.25" y="-74.5" font-family="Helvetica,sans-Serif" font-size="10.00">/wayland/SDL_waylanddatamanager.h</text>
</a>
</g>
</g>
<!-- Node19&#45;&gt;Node20 -->
<g id="edge20_Node000019_Node000020" class="edge">
<title>Node19&#45;&gt;Node20</title>
<g id="a_edge20_Node000019_Node000020"><a xlink:title=" ">
<path fill="none" stroke="#63b8ff" d="M1650.26,-194.75C1655.93,-186.76 1661.31,-177.48 1664.25,-168 1671.49,-144.65 1660.43,-117.15 1651.54,-100.41"/>
<polygon fill="#63b8ff" stroke="#63b8ff" points="1647.56,-192.52 1644.26,-202.59 1653.12,-196.78 1647.56,-192.52"/>
</a>
</g>
</g>
<!-- Node21 -->
<g id="Node000021" class="node">
<title>Node21</title>
<g id="a_Node000021"><a xlink:href="../../d5/d6e/SDL__waylandevents__c_8h.html" target="_top" xlink:title=" ">
<polygon fill="white" stroke="#666666" points="1725.62,-32 1558.88,-32 1558.88,0 1725.62,0 1725.62,-32"/>
<text xml:space="preserve" text-anchor="start" x="1566.88" y="-18.5" font-family="Helvetica,sans-Serif" font-size="10.00">SDL&#45;main/src/video</text>
<text xml:space="preserve" text-anchor="middle" x="1642.25" y="-6.5" font-family="Helvetica,sans-Serif" font-size="10.00">/wayland/SDL_waylandevents_c.h</text>
</a>
</g>
</g>
<!-- Node19&#45;&gt;Node21 -->
<g id="edge23_Node000019_Node000021" class="edge">
<title>Node19&#45;&gt;Node21</title>
<g id="a_edge23_Node000019_Node000021"><a xlink:title=" ">
<path fill="none" stroke="#63b8ff" d="M1661.1,-197.1C1688.79,-175.94 1726.95,-141.1 1743.25,-100 1748.49,-86.78 1750.7,-80.11 1743.25,-68 1733.11,-51.52 1715.82,-40.17 1698.38,-32.45"/>
<polygon fill="#63b8ff" stroke="#63b8ff" points="1659.31,-194.07 1653.37,-202.84 1663.49,-199.69 1659.31,-194.07"/>
</a>
</g>
</g>
<!-- Node22 -->
<g id="Node000022" class="node">
<title>Node22</title>
<g id="a_Node000022"><a xlink:href="../../d2/d55/SDL__waylandwindow_8h.html" target="_top" xlink:title=" ">
<polygon fill="white" stroke="#666666" points="1654.88,-168 1495.62,-168 1495.62,-136 1654.88,-136 1654.88,-168"/>
<text xml:space="preserve" text-anchor="start" x="1503.62" y="-154.5" font-family="Helvetica,sans-Serif" font-size="10.00">SDL&#45;main/src/video</text>
<text xml:space="preserve" text-anchor="middle" x="1575.25" y="-142.5" font-family="Helvetica,sans-Serif" font-size="10.00">/wayland/SDL_waylandwindow.h</text>
</a>
</g>
</g>
<!-- Node19&#45;&gt;Node22 -->
<g id="edge24_Node000019_Node000022" class="edge">
<title>Node19&#45;&gt;Node22</title>
<g id="a_edge24_Node000019_Node000022"><a xlink:title=" ">
<path fill="none" stroke="#63b8ff" d="M1609.51,-194.87C1602.22,-185.96 1594.17,-176.12 1587.71,-168.22"/>
<polygon fill="#63b8ff" stroke="#63b8ff" points="1606.73,-197 1615.77,-202.52 1612.14,-192.57 1606.73,-197"/>
</a>
</g>
</g>
<!-- Node20&#45;&gt;Node21 -->
<g id="edge21_Node000020_Node000021" class="edge">
<title>Node20&#45;&gt;Node21</title>
<g id="a_edge21_Node000020_Node000021"><a xlink:title=" ">
<path fill="none" stroke="#63b8ff" d="M1635.61,-56.31C1635.32,-48.12 1635.6,-39.38 1636.46,-32.22"/>
<polygon fill="#63b8ff" stroke="#63b8ff" points="1632.11,-56.47 1636.34,-66.18 1639.09,-55.95 1632.11,-56.47"/>
</a>
</g>
</g>
<!-- Node21&#45;&gt;Node20 -->
<g id="edge22_Node000021_Node000020" class="edge">
<title>Node21&#45;&gt;Node20</title>
<g id="a_edge22_Node000021_Node000020"><a xlink:title=" ">
<path fill="none" stroke="#63b8ff" d="M1648.89,-43.59C1649.18,-51.79 1648.9,-60.53 1648.05,-67.69"/>
<polygon fill="#63b8ff" stroke="#63b8ff" points="1652.38,-43.45 1648.15,-33.73 1645.4,-43.97 1652.38,-43.45"/>
</a>
</g>
</g>
<!-- Node22&#45;&gt;Node20 -->
<g id="edge25_Node000022_Node000020" class="edge">
<title>Node22&#45;&gt;Node20</title>
<g id="a_edge25_Node000022_Node000020"><a xlink:title=" ">
<path fill="none" stroke="#63b8ff" d="M1598.89,-127.71C1608.16,-118.59 1618.52,-108.37 1626.79,-100.22"/>
<polygon fill="#63b8ff" stroke="#63b8ff" points="1596.54,-125.12 1591.87,-134.63 1601.45,-130.11 1596.54,-125.12"/>
</a>
</g>
</g>
<!-- Node22&#45;&gt;Node21 -->
<g id="edge26_Node000022_Node000021" class="edge">
<title>Node22&#45;&gt;Node21</title>
<g id="a_edge26_Node000022_Node000021"><a xlink:title=" ">
<path fill="none" stroke="#63b8ff" d="M1553.61,-126.78C1541.07,-109.67 1529.82,-86.58 1541.25,-68 1551.39,-51.52 1568.68,-40.17 1586.12,-32.45"/>
<polygon fill="#63b8ff" stroke="#63b8ff" points="1550.7,-128.73 1559.64,-134.41 1556.19,-124.39 1550.7,-128.73"/>
</a>
</g>
</g>
<!-- Node23&#45;&gt;Node9 -->
<g id="edge28_Node000023_Node000009" class="edge">
<title>Node23&#45;&gt;Node9</title>
<g id="a_edge28_Node000023_Node000009"><a xlink:title=" ">
<path fill="none" stroke="#63b8ff" d="M810.25,-260.31C810.25,-252.12 810.25,-243.38 810.25,-236.22"/>
<polygon fill="#63b8ff" stroke="#63b8ff" points="806.75,-260.18 810.25,-270.18 813.75,-260.18 806.75,-260.18"/>
</a>
</g>
</g>
</g>
</svg>

<g id="navigator" transform="translate(0 0)" fill="#404254">
  <rect fill="#f2f5e9" fill-opacity="0.5" stroke="#606060" stroke-width=".5" x="0" y="0" width="60" height="60"/>
  <use id="zoomplus" xlink:href="#zoomPlus" x="17" y="9" onmousedown="handleZoom(evt,'in')"/>
  <use id="zoomminus" xlink:href="#zoomMin" x="42" y="9" onmousedown="handleZoom(evt,'out')"/>
  <use id="reset" xlink:href="#resetDef" x="30" y="36" onmousedown="handleReset()"/>
   <use id="arrowup" xlink:href="#arrowUp" x="0" y="0" onmousedown="handlePan(0,-1)"/>
  <use id="arrowright" xlink:href="#arrowRight" x="0" y="0" onmousedown="handlePan(1,0)"/>
  <use id="arrowdown" xlink:href="#arrowDown" x="0" y="0" onmousedown="handlePan(0,1)"/>
  <use id="arrowleft" xlink:href="#arrowLeft" x="0" y="0" onmousedown="handlePan(-1,0)"/>
</g>
<svg viewBox="0 0 15 15" width="100%" height="30px" preserveAspectRatio="xMaxYMin meet">
 <g id="arrow_out" transform="scale(0.3 0.3)">
  <a xlink:href="eglplatform_8h__dep__incl_org.svg" target="_base">
   <rect id="button" ry="5" rx="5" y="6" x="6" height="38" width="38"
        fill="#f2f5e9" fill-opacity="0.5" stroke="#606060" stroke-width="1.0"/>
   <path id="arrow"
     d="M 11.500037,31.436501 C 11.940474,20.09759 22.043105,11.32322 32.158766,21.979434 L 37.068811,17.246167 C 37.068811,17.246167 37.088388,32 37.088388,32 L 22.160133,31.978069 C 22.160133,31.978069 26.997745,27.140456 26.997745,27.140456 C 18.528582,18.264221 13.291696,25.230495 11.500037,31.436501 z"
     style="fill:#404040;"/>
  </a>
 </g>
</svg>

<style type='text/css'>
<![CDATA[
[data-mouse-over-selected='false'] { opacity: 0.7; }
[data-mouse-over-selected='true']  { opacity: 1.0; }
]]>
</style>
<script type="application/ecmascript"><![CDATA[
document.addEventListener('DOMContentLoaded', (event) => {
  highlightEdges();
  highlightAdjacentNodes();
});
]]></script>
</svg>
