<?xml version="1.0" encoding="UTF-8" standalone="no"?>
<!DOCTYPE svg PUBLIC "-//W3C//DTD SVG 1.1//EN"
 "http://www.w3.org/Graphics/SVG/1.1/DTD/svg11.dtd">
<!-- Generated by graphviz version 13.1.0 (20250701.0955)
 -->
<!-- Title: dump_pp_data Pages: 1 -->
<svg width="280pt" height="66pt"
 viewBox="0.00 0.00 280.00 66.00" xmlns="http://www.w3.org/2000/svg" xmlns:xlink="http://www.w3.org/1999/xlink">
<g id="graph0" class="graph" transform="scale(1 1) rotate(0) translate(4 62)">
<title>dump_pp_data</title>
<!-- Node1 -->
<g id="Node000001" class="node">
<title>Node1</title>
<g id="a_Node000001"><a xlink:title=" ">
<polygon fill="#999999" stroke="#666666" points="79.75,-39 0,-39 0,-19 79.75,-19 79.75,-39"/>
<text xml:space="preserve" text-anchor="middle" x="39.88" y="-25.5" font-family="Helvetica,sans-Serif" font-size="10.00">dump_pp_data</text>
</a>
</g>
</g>
<!-- Node2 -->
<g id="Node000002" class="node">
<title>Node2</title>
<g id="a_Node000002"><a xlink:href="../../d2/d08/pp__data__dump_8c.html#a0a08616d604c36bb330ccbefef652039" target="_top" xlink:title=" ">
<polygon fill="white" stroke="#666666" points="241.25,-58 146.5,-58 146.5,-38 241.25,-38 241.25,-58"/>
<text xml:space="preserve" text-anchor="middle" x="193.88" y="-44.5" font-family="Helvetica,sans-Serif" font-size="10.00">dump_hid_pp_cap</text>
</a>
</g>
</g>
<!-- Node1&#45;&gt;Node2 -->
<g id="edge1_Node000001_Node000002" class="edge">
<title>Node1&#45;&gt;Node2</title>
<g id="a_edge1_Node000001_Node000002"><a xlink:title=" ">
<path fill="none" stroke="#63b8ff" d="M80.02,-33.89C96.7,-35.98 116.51,-38.45 134.84,-40.75"/>
<polygon fill="#63b8ff" stroke="#63b8ff" points="134.16,-44.19 144.51,-41.95 135.02,-37.24 134.16,-44.19"/>
</a>
</g>
</g>
<!-- Node3 -->
<g id="Node000003" class="node">
<title>Node3</title>
<g id="a_Node000003"><a xlink:href="../../d2/d08/pp__data__dump_8c.html#aaa2659b14c5bfaa44ebdd75626ab5578" target="_top" xlink:title=" ">
<polygon fill="white" stroke="#666666" points="272,-20 115.75,-20 115.75,0 272,0 272,-20"/>
<text xml:space="preserve" text-anchor="middle" x="193.88" y="-6.5" font-family="Helvetica,sans-Serif" font-size="10.00">dump_hidp_link_collection_node</text>
</a>
</g>
</g>
<!-- Node1&#45;&gt;Node3 -->
<g id="edge2_Node000001_Node000003" class="edge">
<title>Node1&#45;&gt;Node3</title>
<g id="a_edge2_Node000001_Node000003"><a xlink:title=" ">
<path fill="none" stroke="#63b8ff" d="M80.02,-24.11C87.6,-23.16 95.83,-22.13 104.28,-21.07"/>
<polygon fill="#63b8ff" stroke="#63b8ff" points="104.47,-24.58 113.96,-19.86 103.6,-17.63 104.47,-24.58"/>
</a>
</g>
</g>
</g>
</svg>
