<?xml version="1.0" encoding="UTF-8" standalone="no"?>
<!DOCTYPE svg PUBLIC "-//W3C//DTD SVG 1.1//EN"
 "http://www.w3.org/Graphics/SVG/1.1/DTD/svg11.dtd">
<!-- Generated by graphviz version 13.1.0 (20250701.0955)
 -->
<!-- Title: SDL&#45;main/src/video/wayland/SDL_waylandshmbuffer.h Pages: 1 -->
<svg width="245pt" height="244pt"
 viewBox="0.00 0.00 245.00 244.00" xmlns="http://www.w3.org/2000/svg" xmlns:xlink="http://www.w3.org/1999/xlink">
<g id="graph0" class="graph" transform="scale(1 1) rotate(0) translate(4 240)">
<title>SDL&#45;main/src/video/wayland/SDL_waylandshmbuffer.h</title>
<!-- Node1 -->
<g id="Node000001" class="node">
<title>Node1</title>
<g id="a_Node000001"><a xlink:title=" ">
<polygon fill="#999999" stroke="#666666" points="236.5,-236 66.75,-236 66.75,-204 236.5,-204 236.5,-236"/>
<text xml:space="preserve" text-anchor="start" x="74.75" y="-222.5" font-family="Helvetica,sans-Serif" font-size="10.00">SDL&#45;main/src/video</text>
<text xml:space="preserve" text-anchor="middle" x="151.62" y="-210.5" font-family="Helvetica,sans-Serif" font-size="10.00">/wayland/SDL_waylandshmbuffer.h</text>
</a>
</g>
</g>
<!-- Node2 -->
<g id="Node000002" class="node">
<title>Node2</title>
<g id="a_Node000002"><a xlink:href="../../d2/d55/SDL__waylandwindow_8h.html" target="_top" xlink:title=" ">
<polygon fill="white" stroke="#666666" points="231.25,-168 72,-168 72,-136 231.25,-136 231.25,-168"/>
<text xml:space="preserve" text-anchor="start" x="80" y="-154.5" font-family="Helvetica,sans-Serif" font-size="10.00">SDL&#45;main/src/video</text>
<text xml:space="preserve" text-anchor="middle" x="151.62" y="-142.5" font-family="Helvetica,sans-Serif" font-size="10.00">/wayland/SDL_waylandwindow.h</text>
</a>
</g>
</g>
<!-- Node1&#45;&gt;Node2 -->
<g id="edge1_Node000001_Node000002" class="edge">
<title>Node1&#45;&gt;Node2</title>
<g id="a_edge1_Node000001_Node000002"><a xlink:title=" ">
<path fill="none" stroke="#63b8ff" d="M151.62,-192.31C151.62,-184.12 151.62,-175.38 151.62,-168.22"/>
<polygon fill="#63b8ff" stroke="#63b8ff" points="148.13,-192.18 151.63,-202.18 155.13,-192.18 148.13,-192.18"/>
</a>
</g>
</g>
<!-- Node3 -->
<g id="Node000003" class="node">
<title>Node3</title>
<g id="a_Node000003"><a xlink:href="../../d5/d59/SDL__waylanddatamanager_8h.html" target="_top" xlink:title=" ">
<polygon fill="white" stroke="#666666" points="183.25,-100 0,-100 0,-68 183.25,-68 183.25,-100"/>
<text xml:space="preserve" text-anchor="start" x="8" y="-86.5" font-family="Helvetica,sans-Serif" font-size="10.00">SDL&#45;main/src/video</text>
<text xml:space="preserve" text-anchor="middle" x="91.62" y="-74.5" font-family="Helvetica,sans-Serif" font-size="10.00">/wayland/SDL_waylanddatamanager.h</text>
</a>
</g>
</g>
<!-- Node2&#45;&gt;Node3 -->
<g id="edge2_Node000002_Node000003" class="edge">
<title>Node2&#45;&gt;Node3</title>
<g id="a_edge2_Node000002_Node000003"><a xlink:title=" ">
<path fill="none" stroke="#63b8ff" d="M130.2,-127.43C121.97,-118.38 112.8,-108.29 105.47,-100.22"/>
<polygon fill="#63b8ff" stroke="#63b8ff" points="127.37,-129.53 136.69,-134.57 132.55,-124.82 127.37,-129.53"/>
</a>
</g>
</g>
<!-- Node4 -->
<g id="Node000004" class="node">
<title>Node4</title>
<g id="a_Node000004"><a xlink:href="../../d5/d6e/SDL__waylandevents__c_8h.html" target="_top" xlink:title=" ">
<polygon fill="white" stroke="#666666" points="175,-32 8.25,-32 8.25,0 175,0 175,-32"/>
<text xml:space="preserve" text-anchor="start" x="16.25" y="-18.5" font-family="Helvetica,sans-Serif" font-size="10.00">SDL&#45;main/src/video</text>
<text xml:space="preserve" text-anchor="middle" x="91.62" y="-6.5" font-family="Helvetica,sans-Serif" font-size="10.00">/wayland/SDL_waylandevents_c.h</text>
</a>
</g>
</g>
<!-- Node2&#45;&gt;Node4 -->
<g id="edge5_Node000002_Node000004" class="edge">
<title>Node2&#45;&gt;Node4</title>
<g id="a_edge5_Node000002_Node000004"><a xlink:title=" ">
<path fill="none" stroke="#63b8ff" d="M176.36,-127.31C190.95,-110.36 204.46,-87.23 192.62,-68 182.49,-51.52 165.2,-40.17 147.76,-32.45"/>
<polygon fill="#63b8ff" stroke="#63b8ff" points="173.98,-124.72 169.78,-134.44 179.13,-129.46 173.98,-124.72"/>
</a>
</g>
</g>
<!-- Node3&#45;&gt;Node4 -->
<g id="edge3_Node000003_Node000004" class="edge">
<title>Node3&#45;&gt;Node4</title>
<g id="a_edge3_Node000003_Node000004"><a xlink:title=" ">
<path fill="none" stroke="#63b8ff" d="M84.99,-56.31C84.69,-48.12 84.98,-39.38 85.83,-32.22"/>
<polygon fill="#63b8ff" stroke="#63b8ff" points="81.49,-56.47 85.71,-66.18 88.47,-55.95 81.49,-56.47"/>
</a>
</g>
</g>
<!-- Node4&#45;&gt;Node3 -->
<g id="edge4_Node000004_Node000003" class="edge">
<title>Node4&#45;&gt;Node3</title>
<g id="a_edge4_Node000004_Node000003"><a xlink:title=" ">
<path fill="none" stroke="#63b8ff" d="M98.26,-43.59C98.56,-51.79 98.28,-60.53 97.43,-67.69"/>
<polygon fill="#63b8ff" stroke="#63b8ff" points="101.76,-43.45 97.53,-33.73 94.78,-43.97 101.76,-43.45"/>
</a>
</g>
</g>
</g>
</svg>
