<?xml version="1.0" encoding="UTF-8" standalone="no"?>
<!DOCTYPE svg PUBLIC "-//W3C//DTD SVG 1.1//EN"
 "http://www.w3.org/Graphics/SVG/1.1/DTD/svg11.dtd">
<!-- Generated by graphviz version 13.1.0 (20250701.0955)
 -->
<!-- Title: FindPenByInstanceId Pages: 1 -->
<svg width="279pt" height="218pt"
 viewBox="0.00 0.00 279.00 218.00" xmlns="http://www.w3.org/2000/svg" xmlns:xlink="http://www.w3.org/1999/xlink">
<g id="graph0" class="graph" transform="scale(1 1) rotate(0) translate(4 214)">
<title>FindPenByInstanceId</title>
<!-- Node1 -->
<g id="Node000001" class="node">
<title>Node1</title>
<g id="a_Node000001"><a xlink:title=" ">
<polygon fill="#999999" stroke="#666666" points="271.25,-115 161.5,-115 161.5,-95 271.25,-95 271.25,-115"/>
<text xml:space="preserve" text-anchor="middle" x="216.38" y="-101.5" font-family="Helvetica,sans-Serif" font-size="10.00">FindPenByInstanceId</text>
</a>
</g>
</g>
<!-- Node2 -->
<g id="Node000002" class="node">
<title>Node2</title>
<g id="a_Node000002"><a xlink:href="../../d1/d3a/SDL__pen_8c.html#a339feb5ee8938bc385802e368f2c9368" target="_top" xlink:title=" ">
<polygon fill="white" stroke="#666666" points="113.88,-210 11.62,-210 11.62,-190 113.88,-190 113.88,-210"/>
<text xml:space="preserve" text-anchor="middle" x="62.75" y="-196.5" font-family="Helvetica,sans-Serif" font-size="10.00">SDL_GetPenStatus</text>
</a>
</g>
</g>
<!-- Node1&#45;&gt;Node2 -->
<g id="edge1_Node000001_Node000002" class="edge">
<title>Node1&#45;&gt;Node2</title>
<g id="a_edge1_Node000001_Node000002"><a xlink:title=" ">
<path fill="none" stroke="#63b8ff" d="M197.98,-123.51C180.97,-140.61 153.59,-165.64 125.5,-181 119.4,-184.34 112.63,-187.17 105.88,-189.55"/>
<polygon fill="#63b8ff" stroke="#63b8ff" points="200.36,-126.07 204.82,-116.46 195.34,-121.19 200.36,-126.07"/>
</a>
</g>
</g>
<!-- Node3 -->
<g id="Node000003" class="node">
<title>Node3</title>
<g id="a_Node000003"><a xlink:href="../../d1/d3a/SDL__pen_8c.html#a107e30a79508779c0d9e2e89eccae996" target="_top" xlink:title=" ">
<polygon fill="white" stroke="#666666" points="125.5,-172 0,-172 0,-152 125.5,-152 125.5,-172"/>
<text xml:space="preserve" text-anchor="middle" x="62.75" y="-158.5" font-family="Helvetica,sans-Serif" font-size="10.00">SDL_RemovePenDevice</text>
</a>
</g>
</g>
<!-- Node1&#45;&gt;Node3 -->
<g id="edge2_Node000001_Node000003" class="edge">
<title>Node1&#45;&gt;Node3</title>
<g id="a_edge2_Node000001_Node000003"><a xlink:title=" ">
<path fill="none" stroke="#63b8ff" d="M181.96,-120.08C165.18,-127.41 144.43,-136.1 125.5,-143 117.28,-145.99 108.34,-148.93 99.87,-151.56"/>
<polygon fill="#63b8ff" stroke="#63b8ff" points="183.23,-123.35 190.97,-116.11 180.41,-116.94 183.23,-123.35"/>
</a>
</g>
</g>
<!-- Node4 -->
<g id="Node000004" class="node">
<title>Node4</title>
<g id="a_Node000004"><a xlink:href="../../d1/d3a/SDL__pen_8c.html#a0f254013a92ef70abead676d5c8c7985" target="_top" xlink:title=" ">
<polygon fill="white" stroke="#666666" points="112.75,-134 12.75,-134 12.75,-114 112.75,-114 112.75,-134"/>
<text xml:space="preserve" text-anchor="middle" x="62.75" y="-120.5" font-family="Helvetica,sans-Serif" font-size="10.00">SDL_SendPenAxis</text>
</a>
</g>
</g>
<!-- Node1&#45;&gt;Node4 -->
<g id="edge3_Node000001_Node000004" class="edge">
<title>Node1&#45;&gt;Node4</title>
<g id="a_edge3_Node000001_Node000004"><a xlink:title=" ">
<path fill="none" stroke="#63b8ff" d="M149.89,-113.21C137.57,-114.75 124.87,-116.34 113.14,-117.81"/>
<polygon fill="#63b8ff" stroke="#63b8ff" points="150.07,-116.71 159.56,-111.99 149.2,-109.76 150.07,-116.71"/>
</a>
</g>
</g>
<!-- Node5 -->
<g id="Node000005" class="node">
<title>Node5</title>
<g id="a_Node000005"><a xlink:href="../../d1/d3a/SDL__pen_8c.html#ac948d1adb7baa78aeac1cc8a5de228d7" target="_top" xlink:title=" ">
<polygon fill="white" stroke="#666666" points="117.25,-96 8.25,-96 8.25,-76 117.25,-76 117.25,-96"/>
<text xml:space="preserve" text-anchor="middle" x="62.75" y="-82.5" font-family="Helvetica,sans-Serif" font-size="10.00">SDL_SendPenButton</text>
</a>
</g>
</g>
<!-- Node1&#45;&gt;Node5 -->
<g id="edge4_Node000001_Node000005" class="edge">
<title>Node1&#45;&gt;Node5</title>
<g id="a_edge4_Node000001_Node000005"><a xlink:title=" ">
<path fill="none" stroke="#63b8ff" d="M149.97,-96.8C139.2,-95.45 128.14,-94.07 117.68,-92.76"/>
<polygon fill="#63b8ff" stroke="#63b8ff" points="149.2,-100.24 159.56,-98.01 150.07,-93.29 149.2,-100.24"/>
</a>
</g>
</g>
<!-- Node6 -->
<g id="Node000006" class="node">
<title>Node6</title>
<g id="a_Node000006"><a xlink:href="../../d1/d3a/SDL__pen_8c.html#a41edd6602d203cb2b14b63b41c054afd" target="_top" xlink:title=" ">
<polygon fill="white" stroke="#666666" points="117.62,-58 7.88,-58 7.88,-38 117.62,-38 117.62,-58"/>
<text xml:space="preserve" text-anchor="middle" x="62.75" y="-44.5" font-family="Helvetica,sans-Serif" font-size="10.00">SDL_SendPenMotion</text>
</a>
</g>
</g>
<!-- Node1&#45;&gt;Node6 -->
<g id="edge5_Node000001_Node000006" class="edge">
<title>Node1&#45;&gt;Node6</title>
<g id="a_edge5_Node000001_Node000006"><a xlink:title=" ">
<path fill="none" stroke="#63b8ff" d="M181.96,-89.92C165.18,-82.59 144.43,-73.9 125.5,-67 117.28,-64.01 108.34,-61.07 99.87,-58.44"/>
<polygon fill="#63b8ff" stroke="#63b8ff" points="180.41,-93.06 190.97,-93.89 183.23,-86.65 180.41,-93.06"/>
</a>
</g>
</g>
<!-- Node7 -->
<g id="Node000007" class="node">
<title>Node7</title>
<g id="a_Node000007"><a xlink:href="../../d1/d3a/SDL__pen_8c.html#a7596bb1174624150e8412ea712c04586" target="_top" xlink:title=" ">
<polygon fill="white" stroke="#666666" points="116.12,-20 9.38,-20 9.38,0 116.12,0 116.12,-20"/>
<text xml:space="preserve" text-anchor="middle" x="62.75" y="-6.5" font-family="Helvetica,sans-Serif" font-size="10.00">SDL_SendPenTouch</text>
</a>
</g>
</g>
<!-- Node1&#45;&gt;Node7 -->
<g id="edge6_Node000001_Node000007" class="edge">
<title>Node1&#45;&gt;Node7</title>
<g id="a_edge6_Node000001_Node000007"><a xlink:title=" ">
<path fill="none" stroke="#63b8ff" d="M197.98,-86.49C180.97,-69.39 153.59,-44.36 125.5,-29 119.4,-25.66 112.63,-22.83 105.88,-20.45"/>
<polygon fill="#63b8ff" stroke="#63b8ff" points="195.34,-88.81 204.82,-93.54 200.36,-83.93 195.34,-88.81"/>
</a>
</g>
</g>
</g>
</svg>
