<?xml version="1.0" encoding="UTF-8" standalone="no"?>
<!DOCTYPE svg PUBLIC "-//W3C//DTD SVG 1.1//EN"
 "http://www.w3.org/Graphics/SVG/1.1/DTD/svg11.dtd">
<!-- Generated by graphviz version 13.1.0 (20250701.0955)
 -->
<!-- Title: SDL_InitPen Pages: 1 -->
<svg width="1103pt" height="259pt"
 viewBox="0.00 0.00 1103.00 259.00" xmlns="http://www.w3.org/2000/svg" xmlns:xlink="http://www.w3.org/1999/xlink">
<g id="graph0" class="graph" transform="scale(1 1) rotate(0) translate(4 255.3)">
<title>SDL_InitPen</title>
<!-- Node1 -->
<g id="Node000001" class="node">
<title>Node1</title>
<g id="a_Node000001"><a xlink:title=" ">
<polygon fill="#999999" stroke="#666666" points="1094.5,-115 1023,-115 1023,-95 1094.5,-95 1094.5,-115"/>
<text xml:space="preserve" text-anchor="middle" x="1058.75" y="-101.5" font-family="Helvetica,sans-Serif" font-size="10.00">SDL_InitPen</text>
</a>
</g>
</g>
<!-- Node2 -->
<g id="Node000002" class="node">
<title>Node2</title>
<g id="a_Node000002"><a xlink:href="../../d6/d3d/SDL__video_8c.html#ac61dc66ab71d039f9b681916d0fcbc6e" target="_top" xlink:title=" ">
<polygon fill="white" stroke="#666666" points="987,-115 908,-115 908,-95 987,-95 987,-115"/>
<text xml:space="preserve" text-anchor="middle" x="947.5" y="-101.5" font-family="Helvetica,sans-Serif" font-size="10.00">SDL_VideoInit</text>
</a>
</g>
</g>
<!-- Node1&#45;&gt;Node2 -->
<g id="edge1_Node000001_Node000002" class="edge">
<title>Node1&#45;&gt;Node2</title>
<g id="a_edge1_Node000001_Node000002"><a xlink:title=" ">
<path fill="none" stroke="#63b8ff" d="M1011.2,-105C1003.27,-105 995.1,-105 987.39,-105"/>
<polygon fill="#63b8ff" stroke="#63b8ff" points="1011.07,-108.5 1021.07,-105 1011.07,-101.5 1011.07,-108.5"/>
</a>
</g>
</g>
<!-- Node3 -->
<g id="Node000003" class="node">
<title>Node3</title>
<g id="a_Node000003"><a xlink:href="../../df/d78/SDL_8c.html#aa33d2b8c0a69b16651f78c26f391b6ef" target="_top" xlink:title=" ">
<polygon fill="white" stroke="#666666" points="872,-115 766.75,-115 766.75,-95 872,-95 872,-115"/>
<text xml:space="preserve" text-anchor="middle" x="819.38" y="-101.5" font-family="Helvetica,sans-Serif" font-size="10.00">SDL_InitSubSystem</text>
</a>
</g>
</g>
<!-- Node2&#45;&gt;Node3 -->
<g id="edge2_Node000002_Node000003" class="edge">
<title>Node2&#45;&gt;Node3</title>
<g id="a_edge2_Node000002_Node000003"><a xlink:title=" ">
<path fill="none" stroke="#63b8ff" d="M896.33,-98.38C888.45,-98.22 880.28,-98.21 872.35,-98.34"/>
<polygon fill="#63b8ff" stroke="#63b8ff" points="896.02,-101.87 906.12,-98.67 896.22,-94.87 896.02,-101.87"/>
</a>
</g>
</g>
<!-- Node3&#45;&gt;Node2 -->
<g id="edge22_Node000003_Node000002" class="edge">
<title>Node3&#45;&gt;Node2</title>
<g id="a_edge22_Node000003_Node000002"><a xlink:title=" ">
<path fill="none" stroke="#63b8ff" d="M883.79,-111.75C891.93,-111.75 900.05,-111.59 907.63,-111.29"/>
<polygon fill="#63b8ff" stroke="#63b8ff" points="883.89,-108.25 873.86,-111.67 883.83,-115.25 883.89,-108.25"/>
</a>
</g>
</g>
<!-- Node4 -->
<g id="Node000004" class="node">
<title>Node4</title>
<g id="a_Node000004"><a xlink:href="../../d6/df9/SDL__joystick_8c.html#a7d2531dc4fbc8de52a29ac3ec171a495" target="_top" xlink:title=" ">
<polygon fill="white" stroke="#666666" points="507.38,-248 396.88,-248 396.88,-228 507.38,-228 507.38,-248"/>
<text xml:space="preserve" text-anchor="middle" x="452.12" y="-234.5" font-family="Helvetica,sans-Serif" font-size="10.00">AttemptSensorFusion</text>
</a>
</g>
</g>
<!-- Node3&#45;&gt;Node4 -->
<g id="edge3_Node000003_Node000004" class="edge">
<title>Node3&#45;&gt;Node4</title>
<g id="a_edge3_Node000003_Node000004"><a xlink:title=" ">
<path fill="none" stroke="#63b8ff" d="M809.37,-125.42C796.33,-152.21 769.45,-198.26 730.75,-219 660.91,-256.42 566.62,-253.69 507.86,-246.9"/>
<polygon fill="#63b8ff" stroke="#63b8ff" points="812.42,-127.16 813.46,-116.62 806.07,-124.21 812.42,-127.16"/>
</a>
</g>
</g>
<!-- Node7 -->
<g id="Node000007" class="node">
<title>Node7</title>
<g id="a_Node000007"><a xlink:href="../../d6/df9/SDL__joystick_8c.html#a94fd638a34a769ff6a7a01738257215c" target="_top" xlink:title=" ">
<polygon fill="white" stroke="#666666" points="683.5,-210 620.25,-210 620.25,-190 683.5,-190 683.5,-210"/>
<text xml:space="preserve" text-anchor="middle" x="651.88" y="-196.5" font-family="Helvetica,sans-Serif" font-size="10.00">IsROGAlly</text>
</a>
</g>
</g>
<!-- Node3&#45;&gt;Node7 -->
<g id="edge6_Node000003_Node000007" class="edge">
<title>Node3&#45;&gt;Node7</title>
<g id="a_edge6_Node000003_Node000007"><a xlink:title=" ">
<path fill="none" stroke="#63b8ff" d="M801.97,-123.62C785.61,-141.02 758.93,-166.44 730.75,-181 716.16,-188.54 698.48,-193.16 683.65,-195.96"/>
<polygon fill="#63b8ff" stroke="#63b8ff" points="804.34,-126.21 808.51,-116.47 799.18,-121.48 804.34,-126.21"/>
</a>
</g>
</g>
<!-- Node9 -->
<g id="Node000009" class="node">
<title>Node9</title>
<g id="a_Node000009"><a xlink:href="../../df/d78/SDL_8c.html#ac25d0ce460db43ca8c7681eb8e7c5007" target="_top" xlink:title=" ">
<polygon fill="white" stroke="#666666" points="679,-172 624.75,-172 624.75,-152 679,-152 679,-172"/>
<text xml:space="preserve" text-anchor="middle" x="651.88" y="-158.5" font-family="Helvetica,sans-Serif" font-size="10.00">SDL_Init</text>
</a>
</g>
</g>
<!-- Node3&#45;&gt;Node9 -->
<g id="edge9_Node000003_Node000009" class="edge">
<title>Node3&#45;&gt;Node9</title>
<g id="a_edge9_Node000003_Node000009"><a xlink:title=" ">
<path fill="none" stroke="#63b8ff" d="M787,-120.15C770.52,-127.71 749.83,-136.59 730.75,-143 713.87,-148.68 694.4,-153.43 679.15,-156.76"/>
<polygon fill="#63b8ff" stroke="#63b8ff" points="788.21,-123.45 795.8,-116.05 785.25,-117.1 788.21,-123.45"/>
</a>
</g>
</g>
<!-- Node14 -->
<g id="Node000014" class="node">
<title>Node14</title>
<g id="a_Node000014"><a xlink:href="../../d6/df9/SDL__joystick_8c.html#a9340afa4acb6b0fad4affbb99d4fa014" target="_top" xlink:title=" ">
<polygon fill="white" stroke="#666666" points="700,-134 603.75,-134 603.75,-114 700,-114 700,-134"/>
<text xml:space="preserve" text-anchor="middle" x="651.88" y="-120.5" font-family="Helvetica,sans-Serif" font-size="10.00">SDL_InitJoysticks</text>
</a>
</g>
</g>
<!-- Node3&#45;&gt;Node14 -->
<g id="edge14_Node000003_Node000014" class="edge">
<title>Node3&#45;&gt;Node14</title>
<g id="a_edge14_Node000003_Node000014"><a xlink:title=" ">
<path fill="none" stroke="#63b8ff" d="M755.1,-105.68C734.26,-107.71 711.68,-110.53 693.05,-113.5"/>
<polygon fill="#63b8ff" stroke="#63b8ff" points="755.32,-109.18 764.96,-104.78 754.68,-102.21 755.32,-109.18"/>
</a>
</g>
</g>
<!-- Node15 -->
<g id="Node000015" class="node">
<title>Node15</title>
<g id="a_Node000015"><a xlink:href="../../d9/d78/SDL__main__callbacks_8c.html#a3d21b5bf7aa441418de48c5b2856336a" target="_top" xlink:title=" ">
<polygon fill="white" stroke="#666666" points="711.25,-96 592.5,-96 592.5,-76 711.25,-76 711.25,-96"/>
<text xml:space="preserve" text-anchor="middle" x="651.88" y="-82.5" font-family="Helvetica,sans-Serif" font-size="10.00">SDL_InitMainCallbacks</text>
</a>
</g>
</g>
<!-- Node3&#45;&gt;Node15 -->
<g id="edge16_Node000003_Node000015" class="edge">
<title>Node3&#45;&gt;Node15</title>
<g id="a_edge16_Node000003_Node000015"><a xlink:title=" ">
<path fill="none" stroke="#63b8ff" d="M755.18,-97.74C740.84,-96.1 725.66,-94.36 711.52,-92.73"/>
<polygon fill="#63b8ff" stroke="#63b8ff" points="754.63,-101.2 764.96,-98.87 755.42,-94.25 754.63,-101.2"/>
</a>
</g>
</g>
<!-- Node17 -->
<g id="Node000017" class="node">
<title>Node17</title>
<g id="a_Node000017"><a xlink:href="../../df/d78/SDL_8c.html#a8f0bf712ad7ba759f5b6e04e683c67d4" target="_top" xlink:title=" ">
<polygon fill="white" stroke="#666666" points="730.75,-58 573,-58 573,-38 730.75,-38 730.75,-58"/>
<text xml:space="preserve" text-anchor="middle" x="651.88" y="-44.5" font-family="Helvetica,sans-Serif" font-size="10.00">SDL_InitOrIncrementSubsystem</text>
</a>
</g>
</g>
<!-- Node3&#45;&gt;Node17 -->
<g id="edge18_Node000003_Node000017" class="edge">
<title>Node3&#45;&gt;Node17</title>
<g id="a_edge18_Node000003_Node000017"><a xlink:title=" ">
<path fill="none" stroke="#63b8ff" d="M799.03,-88.41C781.6,-78.18 755.1,-66.21 731.09,-58.11"/>
<polygon fill="#63b8ff" stroke="#63b8ff" points="797.01,-91.27 807.33,-93.69 800.77,-85.37 797.01,-91.27"/>
</a>
</g>
</g>
<!-- Node18 -->
<g id="Node000018" class="node">
<title>Node18</title>
<g id="a_Node000018"><a xlink:href="../../dc/de1/SDL__sensor_8c.html#abdb7d6b73a301a2c8558ba80edb32331" target="_top" xlink:title=" ">
<polygon fill="white" stroke="#666666" points="697,-20 606.75,-20 606.75,0 697,0 697,-20"/>
<text xml:space="preserve" text-anchor="middle" x="651.88" y="-6.5" font-family="Helvetica,sans-Serif" font-size="10.00">SDL_InitSensors</text>
</a>
</g>
</g>
<!-- Node3&#45;&gt;Node18 -->
<g id="edge20_Node000003_Node000018" class="edge">
<title>Node3&#45;&gt;Node18</title>
<g id="a_edge20_Node000003_Node000018"><a xlink:title=" ">
<path fill="none" stroke="#63b8ff" d="M806.88,-85.56C791.35,-65.59 761.97,-36.13 730.75,-20 720.49,-14.7 708.69,-10.84 697.44,-8.35"/>
<polygon fill="#63b8ff" stroke="#63b8ff" points="803.94,-87.46 812.63,-93.53 809.62,-83.37 803.94,-87.46"/>
</a>
</g>
</g>
<!-- Node5 -->
<g id="Node000005" class="node">
<title>Node5</title>
<g id="a_Node000005"><a xlink:href="../../d6/df9/SDL__joystick_8c.html#a0c867d96ec6bc9c3aca87c8ee6b53ade" target="_top" xlink:title=" ">
<polygon fill="white" stroke="#666666" points="315.12,-229 214.38,-229 214.38,-209 315.12,-209 315.12,-229"/>
<text xml:space="preserve" text-anchor="middle" x="264.75" y="-215.5" font-family="Helvetica,sans-Serif" font-size="10.00">SDL_OpenJoystick</text>
</a>
</g>
</g>
<!-- Node4&#45;&gt;Node5 -->
<g id="edge4_Node000004_Node000005" class="edge">
<title>Node4&#45;&gt;Node5</title>
<g id="a_edge4_Node000004_Node000005"><a xlink:title=" ">
<path fill="none" stroke="#63b8ff" d="M385.13,-231.24C362.22,-228.89 336.93,-226.3 315.55,-224.1"/>
<polygon fill="#63b8ff" stroke="#63b8ff" points="384.7,-234.71 395,-232.25 385.41,-227.75 384.7,-234.71"/>
</a>
</g>
</g>
<!-- Node6 -->
<g id="Node000006" class="node">
<title>Node6</title>
<g id="a_Node000006"><a xlink:href="../../d0/d82/SDL__gamepad_8c.html#a011496690758b66ec0f7098f030b6d85" target="_top" xlink:title=" ">
<polygon fill="white" stroke="#666666" points="134.12,-229 28.12,-229 28.12,-209 134.12,-209 134.12,-229"/>
<text xml:space="preserve" text-anchor="middle" x="81.12" y="-215.5" font-family="Helvetica,sans-Serif" font-size="10.00">SDL_OpenGamepad</text>
</a>
</g>
</g>
<!-- Node5&#45;&gt;Node6 -->
<g id="edge5_Node000005_Node000006" class="edge">
<title>Node5&#45;&gt;Node6</title>
<g id="a_edge5_Node000005_Node000006"><a xlink:title=" ">
<path fill="none" stroke="#63b8ff" d="M202.82,-219C180.69,-219 155.89,-219 134.55,-219"/>
<polygon fill="#63b8ff" stroke="#63b8ff" points="202.61,-222.5 212.61,-219 202.61,-215.5 202.61,-222.5"/>
</a>
</g>
</g>
<!-- Node8 -->
<g id="Node000008" class="node">
<title>Node8</title>
<g id="a_Node000008"><a xlink:href="../../d6/df9/SDL__joystick_8c.html#a497945f75b33dbfcde319992145025c5" target="_top" xlink:title=" ">
<polygon fill="white" stroke="#666666" points="522.38,-210 381.88,-210 381.88,-190 522.38,-190 522.38,-210"/>
<text xml:space="preserve" text-anchor="middle" x="452.12" y="-196.5" font-family="Helvetica,sans-Serif" font-size="10.00">ShouldAttemptSensorFusion</text>
</a>
</g>
</g>
<!-- Node7&#45;&gt;Node8 -->
<g id="edge7_Node000007_Node000008" class="edge">
<title>Node7&#45;&gt;Node8</title>
<g id="a_edge7_Node000007_Node000008"><a xlink:title=" ">
<path fill="none" stroke="#63b8ff" d="M608.69,-200C583.69,-200 551.39,-200 522.71,-200"/>
<polygon fill="#63b8ff" stroke="#63b8ff" points="608.46,-203.5 618.46,-200 608.46,-196.5 608.46,-203.5"/>
</a>
</g>
</g>
<!-- Node8&#45;&gt;Node5 -->
<g id="edge8_Node000008_Node000005" class="edge">
<title>Node8&#45;&gt;Node5</title>
<g id="a_edge8_Node000008_Node000005"><a xlink:title=" ">
<path fill="none" stroke="#63b8ff" d="M370.36,-208.28C351.68,-210.19 332.33,-212.18 315.44,-213.91"/>
<polygon fill="#63b8ff" stroke="#63b8ff" points="370.47,-211.78 380.07,-207.28 369.76,-204.82 370.47,-211.78"/>
</a>
</g>
</g>
<!-- Node10 -->
<g id="Node000010" class="node">
<title>Node10</title>
<g id="a_Node000010"><a xlink:href="../../d6/d3d/SDL__video_8c.html#a9f3d88531134e2c3e575a3c2db7f8488" target="_top" xlink:title=" ">
<polygon fill="white" stroke="#666666" points="537,-172 367.25,-172 367.25,-152 537,-152 537,-172"/>
<text xml:space="preserve" text-anchor="middle" x="452.12" y="-158.5" font-family="Helvetica,sans-Serif" font-size="10.00">SDL_CreateWindowWithProperties</text>
</a>
</g>
</g>
<!-- Node9&#45;&gt;Node10 -->
<g id="edge10_Node000009_Node000010" class="edge">
<title>Node9&#45;&gt;Node10</title>
<g id="a_edge10_Node000009_Node000010"><a xlink:title=" ">
<path fill="none" stroke="#63b8ff" d="M613.37,-162C591.84,-162 563.89,-162 537.38,-162"/>
<polygon fill="#63b8ff" stroke="#63b8ff" points="613.1,-165.5 623.1,-162 613.1,-158.5 613.1,-165.5"/>
</a>
</g>
</g>
<!-- Node11 -->
<g id="Node000011" class="node">
<title>Node11</title>
<g id="a_Node000011"><a xlink:href="../../d6/d3d/SDL__video_8c.html#acc26de39ce1bd675446e4d6c05ebf4b0" target="_top" xlink:title=" ">
<polygon fill="white" stroke="#666666" points="331.25,-191 198.25,-191 198.25,-171 331.25,-171 331.25,-191"/>
<text xml:space="preserve" text-anchor="middle" x="264.75" y="-177.5" font-family="Helvetica,sans-Serif" font-size="10.00">SDL_CreatePopupWindow</text>
</a>
</g>
</g>
<!-- Node10&#45;&gt;Node11 -->
<g id="edge11_Node000010_Node000011" class="edge">
<title>Node10&#45;&gt;Node11</title>
<g id="a_edge11_Node000010_Node000011"><a xlink:title=" ">
<path fill="none" stroke="#63b8ff" d="M355.42,-171.81C347.33,-172.64 339.27,-173.46 331.5,-174.26"/>
<polygon fill="#63b8ff" stroke="#63b8ff" points="355.75,-175.29 365.34,-170.79 355.03,-168.33 355.75,-175.29"/>
</a>
</g>
</g>
<!-- Node12 -->
<g id="Node000012" class="node">
<title>Node12</title>
<g id="a_Node000012"><a xlink:href="../../d6/d3d/SDL__video_8c.html#a83103c86f9e5c33ab9e1fb6dfa904b7f" target="_top" xlink:title=" ">
<polygon fill="white" stroke="#666666" points="317.38,-153 212.12,-153 212.12,-133 317.38,-133 317.38,-153"/>
<text xml:space="preserve" text-anchor="middle" x="264.75" y="-139.5" font-family="Helvetica,sans-Serif" font-size="10.00">SDL_CreateWindow</text>
</a>
</g>
</g>
<!-- Node10&#45;&gt;Node12 -->
<g id="edge12_Node000010_Node000012" class="edge">
<title>Node10&#45;&gt;Node12</title>
<g id="a_edge12_Node000010_Node000012"><a xlink:title=" ">
<path fill="none" stroke="#63b8ff" d="M355.44,-152.19C342.45,-150.86 329.54,-149.54 317.73,-148.33"/>
<polygon fill="#63b8ff" stroke="#63b8ff" points="355.03,-155.67 365.34,-153.21 355.75,-148.71 355.03,-155.67"/>
</a>
</g>
</g>
<!-- Node13 -->
<g id="Node000013" class="node">
<title>Node13</title>
<g id="a_Node000013"><a xlink:href="../../dd/df3/SDL__render_8c.html#a36f859fae15e4277ba052f9ecfb2816d" target="_top" xlink:title=" ">
<polygon fill="white" stroke="#666666" points="162.25,-153 0,-153 0,-133 162.25,-133 162.25,-153"/>
<text xml:space="preserve" text-anchor="middle" x="81.12" y="-139.5" font-family="Helvetica,sans-Serif" font-size="10.00">SDL_CreateWindowAndRenderer</text>
</a>
</g>
</g>
<!-- Node12&#45;&gt;Node13 -->
<g id="edge13_Node000012_Node000013" class="edge">
<title>Node12&#45;&gt;Node13</title>
<g id="a_edge13_Node000012_Node000013"><a xlink:title=" ">
<path fill="none" stroke="#63b8ff" d="M200.3,-143C188.14,-143 175.26,-143 162.64,-143"/>
<polygon fill="#63b8ff" stroke="#63b8ff" points="200.19,-146.5 210.19,-143 200.19,-139.5 200.19,-146.5"/>
</a>
</g>
</g>
<!-- Node14&#45;&gt;Node3 -->
<g id="edge15_Node000014_Node000003" class="edge">
<title>Node14&#45;&gt;Node3</title>
<g id="a_edge15_Node000014_Node000003"><a xlink:title=" ">
<path fill="none" stroke="#63b8ff" d="M711.51,-123.76C733.63,-121.71 758.27,-118.68 778.31,-115.48"/>
<polygon fill="#63b8ff" stroke="#63b8ff" points="711.38,-120.26 701.72,-124.6 711.98,-127.23 711.38,-120.26"/>
</a>
</g>
</g>
<!-- Node16 -->
<g id="Node000016" class="node">
<title>Node16</title>
<g id="a_Node000016"><a xlink:href="../../dd/db5/generic_2SDL__sysmain__callbacks_8c.html#aa50e1897a91f2547b5f31125020220e2" target="_top" xlink:title=" ">
<polygon fill="white" stroke="#666666" points="525,-96 379.25,-96 379.25,-76 525,-76 525,-96"/>
<text xml:space="preserve" text-anchor="middle" x="452.12" y="-82.5" font-family="Helvetica,sans-Serif" font-size="10.00">SDL_EnterAppMainCallbacks</text>
</a>
</g>
</g>
<!-- Node15&#45;&gt;Node16 -->
<g id="edge17_Node000015_Node000016" class="edge">
<title>Node15&#45;&gt;Node16</title>
<g id="a_edge17_Node000015_Node000016"><a xlink:title=" ">
<path fill="none" stroke="#63b8ff" d="M580.79,-86C562.81,-86 543.44,-86 525.35,-86"/>
<polygon fill="#63b8ff" stroke="#63b8ff" points="580.57,-89.5 590.57,-86 580.57,-82.5 580.57,-89.5"/>
</a>
</g>
</g>
<!-- Node17&#45;&gt;Node3 -->
<g id="edge19_Node000017_Node000003" class="edge">
<title>Node17&#45;&gt;Node3</title>
<g id="a_edge19_Node000017_Node000003"><a xlink:title=" ">
<path fill="none" stroke="#63b8ff" d="M681.06,-61.67C696,-65.97 714.56,-70.56 730.75,-76 746.78,-81.39 763.95,-88.52 778.8,-94.57"/>
<polygon fill="#63b8ff" stroke="#63b8ff" points="682.47,-58.44 671.88,-58.88 680.43,-65.14 682.47,-58.44"/>
</a>
</g>
</g>
<!-- Node18&#45;&gt;Node3 -->
<g id="edge21_Node000018_Node000003" class="edge">
<title>Node18&#45;&gt;Node3</title>
<g id="a_edge21_Node000018_Node000003"><a xlink:title=" ">
<path fill="none" stroke="#63b8ff" d="M687.85,-23.21C701.74,-26.72 717.52,-31.16 730.75,-38 759.73,-52.97 787.12,-79.43 803.33,-94.56"/>
<polygon fill="#63b8ff" stroke="#63b8ff" points="688.75,-19.83 678.2,-20.81 687.06,-26.62 688.75,-19.83"/>
</a>
</g>
</g>
</g>
</svg>
