<?xml version="1.0" encoding="UTF-8" standalone="no"?>
<!DOCTYPE svg PUBLIC "-//W3C//DTD SVG 1.1//EN"
 "http://www.w3.org/Graphics/SVG/1.1/DTD/svg11.dtd">
<!-- Generated by graphviz version 13.1.0 (20250701.0955)
 -->
<!-- Title: SDL_FlushAudioQueue Pages: 1 -->
<svg width="457pt" height="28pt"
 viewBox="0.00 0.00 457.00 28.00" xmlns="http://www.w3.org/2000/svg" xmlns:xlink="http://www.w3.org/1999/xlink">
<g id="graph0" class="graph" transform="scale(1 1) rotate(0) translate(4 24)">
<title>SDL_FlushAudioQueue</title>
<!-- Node1 -->
<g id="Node000001" class="node">
<title>Node1</title>
<g id="a_Node000001"><a xlink:title=" ">
<polygon fill="#999999" stroke="#666666" points="449.25,-20 331.25,-20 331.25,0 449.25,0 449.25,-20"/>
<text xml:space="preserve" text-anchor="middle" x="390.25" y="-6.5" font-family="Helvetica,sans-Serif" font-size="10.00">SDL_FlushAudioQueue</text>
</a>
</g>
</g>
<!-- Node2 -->
<g id="Node000002" class="node">
<title>Node2</title>
<g id="a_Node000002"><a xlink:href="../../dc/d77/SDL__audiocvt_8c.html#ae83f32dc0bb923ab9bc44e7bce77477c" target="_top" xlink:title=" ">
<polygon fill="white" stroke="#666666" points="295.25,-20 174.25,-20 174.25,0 295.25,0 295.25,-20"/>
<text xml:space="preserve" text-anchor="middle" x="234.75" y="-6.5" font-family="Helvetica,sans-Serif" font-size="10.00">SDL_FlushAudioStream</text>
</a>
</g>
</g>
<!-- Node1&#45;&gt;Node2 -->
<g id="edge1_Node000001_Node000002" class="edge">
<title>Node1&#45;&gt;Node2</title>
<g id="a_edge1_Node000001_Node000002"><a xlink:title=" ">
<path fill="none" stroke="#63b8ff" d="M319.29,-10C311.37,-10 303.36,-10 295.58,-10"/>
<polygon fill="#63b8ff" stroke="#63b8ff" points="319.27,-13.5 329.27,-10 319.27,-6.5 319.27,-13.5"/>
</a>
</g>
</g>
<!-- Node3 -->
<g id="Node000003" class="node">
<title>Node3</title>
<g id="a_Node000003"><a xlink:href="../../dc/d77/SDL__audiocvt_8c.html#a90af0e041cebdc41c97e4f30cfdcf01a" target="_top" xlink:title=" ">
<polygon fill="white" stroke="#666666" points="138.25,-20 0,-20 0,0 138.25,0 138.25,-20"/>
<text xml:space="preserve" text-anchor="middle" x="69.12" y="-6.5" font-family="Helvetica,sans-Serif" font-size="10.00">SDL_ConvertAudioSamples</text>
</a>
</g>
</g>
<!-- Node2&#45;&gt;Node3 -->
<g id="edge2_Node000002_Node000003" class="edge">
<title>Node2&#45;&gt;Node3</title>
<g id="a_edge2_Node000002_Node000003"><a xlink:title=" ">
<path fill="none" stroke="#63b8ff" d="M162.37,-10C154.51,-10 146.52,-10 138.7,-10"/>
<polygon fill="#63b8ff" stroke="#63b8ff" points="162.24,-13.5 172.24,-10 162.24,-6.5 162.24,-13.5"/>
</a>
</g>
</g>
</g>
</svg>
