<?xml version="1.0" encoding="UTF-8" standalone="no"?>
<!DOCTYPE svg PUBLIC "-//W3C//DTD SVG 1.1//EN"
 "http://www.w3.org/Graphics/SVG/1.1/DTD/svg11.dtd">
<!-- Generated by graphviz version 13.1.0 (20250701.0955)
 -->
<!-- Title: SDL_DestroyAudioQueue Pages: 1 -->
<!--zoomable 142 -->

<svg id="main" version="1.1" xmlns="http://www.w3.org/2000/svg" xmlns:xlink="http://www.w3.org/1999/xlink" xml:space="preserve" onload="init(evt)">

<style type="text/css"><![CDATA[
.node, .edge {opacity: 0.7;}
.node.selected, .edge.selected {opacity: 1;}
.edge:hover path { stroke: red; }
.edge:hover polygon { stroke: red; fill: red; }
]]></style>

<defs>
  <circle id="rim" cx="0" cy="0" r="7"/>
  <circle id="rim2" cx="0" cy="0" r="3.5"/>
  <g id="zoomPlus">
    <use xlink:href="#rim" fill="#404040"><set attributeName="fill" to="#808080" begin="zoomplus.mouseover" end="zoomplus.mouseout"/></use>
    <path d="M-4,0h8M0,-4v8" fill="none" stroke="white" stroke-width="1.5" pointer-events="none"/>
  </g>
  <g id="zoomMin">
    <use xlink:href="#rim" fill="#404040"><set attributeName="fill" to="#808080" begin="zoomminus.mouseover" end="zoomminus.mouseout"/></use>
    <path d="M-4,0h8" fill="none" stroke="white" stroke-width="1.5" pointer-events="none"/>
  </g>
  <g id="arrowUp" transform="translate(30 24)">
    <use xlink:href="#rim"/>
    <path pointer-events="none" fill="none" stroke="white" stroke-width="1.5" d="M0,-3.0v7 M-2.5,-0.5L0,-3.0L2.5,-0.5"/>
  </g>
  <g id="arrowRight" transform="rotate(90) translate(36 -43)">
    <use xlink:href="#rim"/>
    <path pointer-events="none" fill="none" stroke="white" stroke-width="1.5" d="M0,-3.0v7 M-2.5,-0.5L0,-3.0L2.5,-0.5"/>
  </g>
  <g id="arrowDown" transform="rotate(180) translate(-30 -48)">
    <use xlink:href="#rim"/>
    <path pointer-events="none" fill="none" stroke="white" stroke-width="1.5" d="M0,-3.0v7 M-2.5,-0.5L0,-3.0L2.5,-0.5"/>
  </g>
  <g id="arrowLeft" transform="rotate(270) translate(-36 17)">
    <use xlink:href="#rim"/>
    <path pointer-events="none" fill="none" stroke="white" stroke-width="1.5" d="M0,-3.0v7 M-2.5,-0.5L0,-3.0L2.5,-0.5"/>
  </g>
  <g id="resetDef">
    <use xlink:href="#rim2" fill="#404040"><set attributeName="fill" to="#808080" begin="reset.mouseover" end="reset.mouseout"/></use>
  </g>
</defs>
<script type="application/ecmascript">
var viewWidth = 670;
var viewHeight = 142;
var sectionId = 'dynsection-11';
</script>
<script type="application/ecmascript" xlink:href="../../svg.min.js"/>
<svg id="graph" class="graph">
<g id="viewport">
<title>SDL_DestroyAudioQueue</title>
<!-- Node1 -->
<g id="Node000001" class="node">
<title>Node1</title>
<g id="a_Node000001"><a xlink:title=" ">
<polygon fill="#999999" stroke="#666666" points="128.5,-77 0,-77 0,-57 128.5,-57 128.5,-77"/>
<text xml:space="preserve" text-anchor="middle" x="64.25" y="-63.5" font-family="Helvetica,sans-Serif" font-size="10.00">SDL_DestroyAudioQueue</text>
</a>
</g>
</g>
<!-- Node2 -->
<g id="Node000002" class="node">
<title>Node2</title>
<g id="a_Node000002"><a xlink:href="../../df/dd6/SDL__audioqueue_8c.html#a1dbe5e735da5521786e73e040b614907" target="_top" xlink:title=" ">
<polygon fill="white" stroke="#666666" points="563.88,-134 458.62,-134 458.62,-114 563.88,-114 563.88,-134"/>
<text xml:space="preserve" text-anchor="middle" x="511.25" y="-120.5" font-family="Helvetica,sans-Serif" font-size="10.00">DestroyMemoryPool</text>
</a>
</g>
</g>
<!-- Node1&#45;&gt;Node2 -->
<g id="edge1_Node000001_Node000002" class="edge">
<title>Node1&#45;&gt;Node2</title>
<g id="a_edge1_Node000001_Node000002"><a xlink:title=" ">
<path fill="none" stroke="#63b8ff" d="M90.48,-77.35C110.26,-84.99 138.67,-94.89 164.5,-100 261.79,-119.23 377.13,-123.65 446.94,-124.35"/>
<polygon fill="#63b8ff" stroke="#63b8ff" points="446.63,-127.85 456.65,-124.43 446.68,-120.85 446.63,-127.85"/>
</a>
</g>
</g>
<!-- Node3 -->
<g id="Node000003" class="node">
<title>Node3</title>
<g id="a_Node000003"><a xlink:href="../../d4/d23/SDL__malloc_8c.html#a883d5d0a9ce20246045f385a6b99ebf2" target="_top" xlink:title=" ">
<polygon fill="white" stroke="#666666" points="662,-77 604.75,-77 604.75,-57 662,-57 662,-77"/>
<text xml:space="preserve" text-anchor="middle" x="633.38" y="-63.5" font-family="Helvetica,sans-Serif" font-size="10.00">SDL_free</text>
</a>
</g>
</g>
<!-- Node1&#45;&gt;Node3 -->
<g id="edge9_Node000001_Node000003" class="edge">
<title>Node1&#45;&gt;Node3</title>
<g id="a_edge9_Node000001_Node000003"><a xlink:title=" ">
<path fill="none" stroke="#63b8ff" d="M128.78,-69.91C140.65,-70.35 152.95,-70.75 164.5,-71 344.12,-74.93 389.22,-79.04 568.75,-72 576.64,-71.69 585.06,-71.17 593.11,-70.57"/>
<polygon fill="#63b8ff" stroke="#63b8ff" points="593.33,-74.06 603.02,-69.78 592.77,-67.09 593.33,-74.06"/>
</a>
</g>
</g>
<!-- Node4 -->
<g id="Node000004" class="node">
<title>Node4</title>
<g id="a_Node000004"><a xlink:href="../../d3/d02/SDL__stdlib_8c.html#a95f8808e97076d94312e5c01f27edd11" target="_top" xlink:title=" ">
<polygon fill="white" stroke="#666666" points="414.38,-58 321.12,-58 321.12,-38 414.38,-38 414.38,-58"/>
<text xml:space="preserve" text-anchor="middle" x="367.75" y="-44.5" font-family="Helvetica,sans-Serif" font-size="10.00">SDL_aligned_free</text>
</a>
</g>
</g>
<!-- Node1&#45;&gt;Node4 -->
<g id="edge3_Node000001_Node000004" class="edge">
<title>Node1&#45;&gt;Node4</title>
<g id="a_edge3_Node000001_Node000004"><a xlink:title=" ">
<path fill="none" stroke="#63b8ff" d="M128.82,-62.99C182.31,-59.62 258.1,-54.85 309.67,-51.6"/>
<polygon fill="#63b8ff" stroke="#63b8ff" points="309.67,-55.1 319.43,-50.98 309.23,-48.12 309.67,-55.1"/>
</a>
</g>
</g>
<!-- Node5 -->
<g id="Node000005" class="node">
<title>Node5</title>
<g id="a_Node000005"><a xlink:href="../../df/dd6/SDL__audioqueue_8c.html#ac6eb15453a3aa4f4a7a0c4c21615ce4f" target="_top" xlink:title=" ">
<polygon fill="white" stroke="#666666" points="281.75,-20 164.5,-20 164.5,0 281.75,0 281.75,-20"/>
<text xml:space="preserve" text-anchor="middle" x="223.12" y="-6.5" font-family="Helvetica,sans-Serif" font-size="10.00">SDL_ClearAudioQueue</text>
</a>
</g>
</g>
<!-- Node1&#45;&gt;Node5 -->
<g id="edge5_Node000001_Node000005" class="edge">
<title>Node1&#45;&gt;Node5</title>
<g id="a_edge5_Node000001_Node000005"><a xlink:title=" ">
<path fill="none" stroke="#63b8ff" d="M94.02,-56.55C118.93,-47.49 155.2,-34.32 182.79,-24.29"/>
<polygon fill="#63b8ff" stroke="#63b8ff" points="183.64,-27.71 191.85,-21 181.25,-21.13 183.64,-27.71"/>
</a>
</g>
</g>
<!-- Node2&#45;&gt;Node3 -->
<g id="edge2_Node000002_Node000003" class="edge">
<title>Node2&#45;&gt;Node3</title>
<g id="a_edge2_Node000002_Node000003"><a xlink:title=" ">
<path fill="none" stroke="#63b8ff" d="M538.03,-113.54C547.73,-109.47 558.82,-104.68 568.75,-100 580.15,-94.63 592.48,-88.35 603.23,-82.71"/>
<polygon fill="#63b8ff" stroke="#63b8ff" points="604.82,-85.83 612.02,-78.06 601.54,-79.65 604.82,-85.83"/>
</a>
</g>
</g>
<!-- Node4&#45;&gt;Node3 -->
<g id="edge4_Node000004_Node000003" class="edge">
<title>Node4&#45;&gt;Node3</title>
<g id="a_edge4_Node000004_Node000003"><a xlink:title=" ">
<path fill="none" stroke="#63b8ff" d="M414.67,-51.31C465.12,-54.95 545.32,-60.73 593,-64.16"/>
<polygon fill="#63b8ff" stroke="#63b8ff" points="592.65,-67.65 602.88,-64.87 593.16,-60.66 592.65,-67.65"/>
</a>
</g>
</g>
<!-- Node6 -->
<g id="Node000006" class="node">
<title>Node6</title>
<g id="a_Node000006"><a xlink:href="../../df/dd6/SDL__audioqueue_8c.html#ae1a7e828c66c81ec9ef92d61550bcda9" target="_top" xlink:title=" ">
<polygon fill="white" stroke="#666666" points="417.75,-20 317.75,-20 317.75,0 417.75,0 417.75,-20"/>
<text xml:space="preserve" text-anchor="middle" x="367.75" y="-6.5" font-family="Helvetica,sans-Serif" font-size="10.00">DestroyAudioTrack</text>
</a>
</g>
</g>
<!-- Node5&#45;&gt;Node6 -->
<g id="edge6_Node000005_Node000006" class="edge">
<title>Node5&#45;&gt;Node6</title>
<g id="a_edge6_Node000005_Node000006"><a xlink:title=" ">
<path fill="none" stroke="#63b8ff" d="M282.14,-10C290.01,-10 298.11,-10 306.03,-10"/>
<polygon fill="#63b8ff" stroke="#63b8ff" points="305.95,-13.5 315.95,-10 305.95,-6.5 305.95,-13.5"/>
</a>
</g>
</g>
<!-- Node7 -->
<g id="Node000007" class="node">
<title>Node7</title>
<g id="a_Node000007"><a xlink:href="../../df/dd6/SDL__audioqueue_8c.html#a646710b2c3c6311998d600bd59425337" target="_top" xlink:title=" ">
<polygon fill="white" stroke="#666666" points="568.75,-20 453.75,-20 453.75,0 568.75,0 568.75,-20"/>
<text xml:space="preserve" text-anchor="middle" x="511.25" y="-6.5" font-family="Helvetica,sans-Serif" font-size="10.00">FreeMemoryPoolBlock</text>
</a>
</g>
</g>
<!-- Node6&#45;&gt;Node7 -->
<g id="edge7_Node000006_Node000007" class="edge">
<title>Node6&#45;&gt;Node7</title>
<g id="a_edge7_Node000006_Node000007"><a xlink:title=" ">
<path fill="none" stroke="#63b8ff" d="M418.24,-10C425.93,-10 433.99,-10 442.01,-10"/>
<polygon fill="#63b8ff" stroke="#63b8ff" points="441.76,-13.5 451.76,-10 441.76,-6.5 441.76,-13.5"/>
</a>
</g>
</g>
<!-- Node7&#45;&gt;Node3 -->
<g id="edge8_Node000007_Node000003" class="edge">
<title>Node7&#45;&gt;Node3</title>
<g id="a_edge8_Node000007_Node000003"><a xlink:title=" ">
<path fill="none" stroke="#63b8ff" d="M538.03,-20.46C547.73,-24.53 558.82,-29.32 568.75,-34 580.15,-39.37 592.48,-45.65 603.23,-51.29"/>
<polygon fill="#63b8ff" stroke="#63b8ff" points="601.54,-54.35 612.02,-55.94 604.82,-48.17 601.54,-54.35"/>
</a>
</g>
</g>
</g>
</svg>

<g id="navigator" transform="translate(0 0)" fill="#404254">
  <rect fill="#f2f5e9" fill-opacity="0.5" stroke="#606060" stroke-width=".5" x="0" y="0" width="60" height="60"/>
  <use id="zoomplus" xlink:href="#zoomPlus" x="17" y="9" onmousedown="handleZoom(evt,'in')"/>
  <use id="zoomminus" xlink:href="#zoomMin" x="42" y="9" onmousedown="handleZoom(evt,'out')"/>
  <use id="reset" xlink:href="#resetDef" x="30" y="36" onmousedown="handleReset()"/>
   <use id="arrowup" xlink:href="#arrowUp" x="0" y="0" onmousedown="handlePan(0,-1)"/>
  <use id="arrowright" xlink:href="#arrowRight" x="0" y="0" onmousedown="handlePan(1,0)"/>
  <use id="arrowdown" xlink:href="#arrowDown" x="0" y="0" onmousedown="handlePan(0,1)"/>
  <use id="arrowleft" xlink:href="#arrowLeft" x="0" y="0" onmousedown="handlePan(-1,0)"/>
</g>
<svg viewBox="0 0 15 15" width="100%" height="30px" preserveAspectRatio="xMaxYMin meet">
 <g id="arrow_out" transform="scale(0.3 0.3)">
  <a xlink:href="SDL__audioqueue_8h_a9472c20998741b4e38747ab517047e57_cgraph_org.svg" target="_base">
   <rect id="button" ry="5" rx="5" y="6" x="6" height="38" width="38"
        fill="#f2f5e9" fill-opacity="0.5" stroke="#606060" stroke-width="1.0"/>
   <path id="arrow"
     d="M 11.500037,31.436501 C 11.940474,20.09759 22.043105,11.32322 32.158766,21.979434 L 37.068811,17.246167 C 37.068811,17.246167 37.088388,32 37.088388,32 L 22.160133,31.978069 C 22.160133,31.978069 26.997745,27.140456 26.997745,27.140456 C 18.528582,18.264221 13.291696,25.230495 11.500037,31.436501 z"
     style="fill:#404040;"/>
  </a>
 </g>
</svg>

<style type='text/css'>
<![CDATA[
[data-mouse-over-selected='false'] { opacity: 0.7; }
[data-mouse-over-selected='true']  { opacity: 1.0; }
]]>
</style>
<script type="application/ecmascript"><![CDATA[
document.addEventListener('DOMContentLoaded', (event) => {
  highlightEdges();
  highlightAdjacentNodes();
});
]]></script>
</svg>
