<?xml version="1.0" encoding="UTF-8" standalone="no"?>
<!DOCTYPE svg PUBLIC "-//W3C//DTD SVG 1.1//EN"
 "http://www.w3.org/Graphics/SVG/1.1/DTD/svg11.dtd">
<!-- Generated by graphviz version 13.1.0 (20250701.0955)
 -->
<!-- Title: SDL_AddTrackToAudioQueue Pages: 1 -->
<svg width="426pt" height="66pt"
 viewBox="0.00 0.00 426.00 66.00" xmlns="http://www.w3.org/2000/svg" xmlns:xlink="http://www.w3.org/1999/xlink">
<g id="graph0" class="graph" transform="scale(1 1) rotate(0) translate(4 62)">
<title>SDL_AddTrackToAudioQueue</title>
<!-- Node1 -->
<g id="Node000001" class="node">
<title>Node1</title>
<g id="a_Node000001"><a xlink:title=" ">
<polygon fill="#999999" stroke="#666666" points="146.5,-39 0,-39 0,-19 146.5,-19 146.5,-39"/>
<text xml:space="preserve" text-anchor="middle" x="73.25" y="-25.5" font-family="Helvetica,sans-Serif" font-size="10.00">SDL_AddTrackToAudioQueue</text>
</a>
</g>
</g>
<!-- Node2 -->
<g id="Node000002" class="node">
<title>Node2</title>
<g id="a_Node000002"><a xlink:href="../../df/dd6/SDL__audioqueue_8c.html#ad8cd3ff8848c071e2be40ff83c17216d" target="_top" xlink:title=" ">
<polygon fill="white" stroke="#666666" points="286.25,-58 196.75,-58 196.75,-38 286.25,-38 286.25,-58"/>
<text xml:space="preserve" text-anchor="middle" x="241.5" y="-44.5" font-family="Helvetica,sans-Serif" font-size="10.00">FlushAudioTrack</text>
</a>
</g>
</g>
<!-- Node1&#45;&gt;Node2 -->
<g id="edge1_Node000001_Node000002" class="edge">
<title>Node1&#45;&gt;Node2</title>
<g id="a_edge1_Node000001_Node000002"><a xlink:title=" ">
<path fill="none" stroke="#63b8ff" d="M146.69,-37.28C159.68,-38.76 173.03,-40.29 185.44,-41.71"/>
<polygon fill="#63b8ff" stroke="#63b8ff" points="184.69,-45.14 195.03,-42.8 185.49,-38.19 184.69,-45.14"/>
</a>
</g>
</g>
<!-- Node3 -->
<g id="Node000003" class="node">
<title>Node3</title>
<g id="a_Node000003"><a xlink:href="../../d6/d9b/SDL__audio_8c.html#ad9975f57d98afef9d31de615d666c546" target="_top" xlink:title=" ">
<polygon fill="white" stroke="#666666" points="300.5,-20 182.5,-20 182.5,0 300.5,0 300.5,-20"/>
<text xml:space="preserve" text-anchor="middle" x="241.5" y="-6.5" font-family="Helvetica,sans-Serif" font-size="10.00">SDL_AudioSpecsEqual</text>
</a>
</g>
</g>
<!-- Node1&#45;&gt;Node3 -->
<g id="edge2_Node000001_Node000003" class="edge">
<title>Node1&#45;&gt;Node3</title>
<g id="a_edge2_Node000001_Node000003"><a xlink:title=" ">
<path fill="none" stroke="#63b8ff" d="M146.69,-20.72C154.62,-19.81 162.69,-18.89 170.6,-17.99"/>
<polygon fill="#63b8ff" stroke="#63b8ff" points="170.99,-21.47 180.52,-16.85 170.19,-14.51 170.99,-21.47"/>
</a>
</g>
</g>
<!-- Node4 -->
<g id="Node000004" class="node">
<title>Node4</title>
<g id="a_Node000004"><a xlink:href="../../d2/d23/SDL__string_8c.html#a9b19109866d9b66767846cffb5fa2852" target="_top" xlink:title=" ">
<polygon fill="white" stroke="#666666" points="417.75,-20 336.5,-20 336.5,0 417.75,0 417.75,-20"/>
<text xml:space="preserve" text-anchor="middle" x="377.12" y="-6.5" font-family="Helvetica,sans-Serif" font-size="10.00">SDL_memcmp</text>
</a>
</g>
</g>
<!-- Node3&#45;&gt;Node4 -->
<g id="edge3_Node000003_Node000004" class="edge">
<title>Node3&#45;&gt;Node4</title>
<g id="a_edge3_Node000003_Node000004"><a xlink:title=" ">
<path fill="none" stroke="#63b8ff" d="M300.72,-10C308.75,-10 316.96,-10 324.85,-10"/>
<polygon fill="#63b8ff" stroke="#63b8ff" points="324.63,-13.5 334.63,-10 324.63,-6.5 324.63,-13.5"/>
</a>
</g>
</g>
</g>
</svg>
