<?xml version="1.0" encoding="UTF-8" standalone="no"?>
<!DOCTYPE svg PUBLIC "-//W3C//DTD SVG 1.1//EN"
 "http://www.w3.org/Graphics/SVG/1.1/DTD/svg11.dtd">
<!-- Generated by graphviz version 13.1.0 (20250701.0955)
 -->
<!-- Title: SDL_ClearAudioQueue Pages: 1 -->
<svg width="506pt" height="28pt"
 viewBox="0.00 0.00 506.00 28.00" xmlns="http://www.w3.org/2000/svg" xmlns:xlink="http://www.w3.org/1999/xlink">
<g id="graph0" class="graph" transform="scale(1 1) rotate(0) translate(4 24)">
<title>SDL_ClearAudioQueue</title>
<!-- Node1 -->
<g id="Node000001" class="node">
<title>Node1</title>
<g id="a_Node000001"><a xlink:title=" ">
<polygon fill="#999999" stroke="#666666" points="117.25,-20 0,-20 0,0 117.25,0 117.25,-20"/>
<text xml:space="preserve" text-anchor="middle" x="58.62" y="-6.5" font-family="Helvetica,sans-Serif" font-size="10.00">SDL_ClearAudioQueue</text>
</a>
</g>
</g>
<!-- Node2 -->
<g id="Node000002" class="node">
<title>Node2</title>
<g id="a_Node000002"><a xlink:href="../../df/dd6/SDL__audioqueue_8c.html#ae1a7e828c66c81ec9ef92d61550bcda9" target="_top" xlink:title=" ">
<polygon fill="white" stroke="#666666" points="253.25,-20 153.25,-20 153.25,0 253.25,0 253.25,-20"/>
<text xml:space="preserve" text-anchor="middle" x="203.25" y="-6.5" font-family="Helvetica,sans-Serif" font-size="10.00">DestroyAudioTrack</text>
</a>
</g>
</g>
<!-- Node1&#45;&gt;Node2 -->
<g id="edge1_Node000001_Node000002" class="edge">
<title>Node1&#45;&gt;Node2</title>
<g id="a_edge1_Node000001_Node000002"><a xlink:title=" ">
<path fill="none" stroke="#63b8ff" d="M117.64,-10C125.51,-10 133.61,-10 141.53,-10"/>
<polygon fill="#63b8ff" stroke="#63b8ff" points="141.45,-13.5 151.45,-10 141.45,-6.5 141.45,-13.5"/>
</a>
</g>
</g>
<!-- Node3 -->
<g id="Node000003" class="node">
<title>Node3</title>
<g id="a_Node000003"><a xlink:href="../../df/dd6/SDL__audioqueue_8c.html#a646710b2c3c6311998d600bd59425337" target="_top" xlink:title=" ">
<polygon fill="white" stroke="#666666" points="404.25,-20 289.25,-20 289.25,0 404.25,0 404.25,-20"/>
<text xml:space="preserve" text-anchor="middle" x="346.75" y="-6.5" font-family="Helvetica,sans-Serif" font-size="10.00">FreeMemoryPoolBlock</text>
</a>
</g>
</g>
<!-- Node2&#45;&gt;Node3 -->
<g id="edge2_Node000002_Node000003" class="edge">
<title>Node2&#45;&gt;Node3</title>
<g id="a_edge2_Node000002_Node000003"><a xlink:title=" ">
<path fill="none" stroke="#63b8ff" d="M253.74,-10C261.43,-10 269.49,-10 277.51,-10"/>
<polygon fill="#63b8ff" stroke="#63b8ff" points="277.26,-13.5 287.26,-10 277.26,-6.5 277.26,-13.5"/>
</a>
</g>
</g>
<!-- Node4 -->
<g id="Node000004" class="node">
<title>Node4</title>
<g id="a_Node000004"><a xlink:href="../../d4/d23/SDL__malloc_8c.html#a883d5d0a9ce20246045f385a6b99ebf2" target="_top" xlink:title=" ">
<polygon fill="white" stroke="#666666" points="497.5,-20 440.25,-20 440.25,0 497.5,0 497.5,-20"/>
<text xml:space="preserve" text-anchor="middle" x="468.88" y="-6.5" font-family="Helvetica,sans-Serif" font-size="10.00">SDL_free</text>
</a>
</g>
</g>
<!-- Node3&#45;&gt;Node4 -->
<g id="edge3_Node000003_Node000004" class="edge">
<title>Node3&#45;&gt;Node4</title>
<g id="a_edge3_Node000003_Node000004"><a xlink:title=" ">
<path fill="none" stroke="#63b8ff" d="M404.65,-10C412.69,-10 420.8,-10 428.41,-10"/>
<polygon fill="#63b8ff" stroke="#63b8ff" points="428.36,-13.5 438.36,-10 428.36,-6.5 428.36,-13.5"/>
</a>
</g>
</g>
</g>
</svg>
