<?xml version="1.0" encoding="UTF-8" standalone="no"?>
<!DOCTYPE svg PUBLIC "-//W3C//DTD SVG 1.1//EN"
 "http://www.w3.org/Graphics/SVG/1.1/DTD/svg11.dtd">
<!-- Generated by graphviz version 13.1.0 (20250701.0955)
 -->
<!-- Title: SDL_CreateAudioTrack Pages: 1 -->
<svg width="1931pt" height="116pt"
 viewBox="0.00 0.00 1931.00 116.00" xmlns="http://www.w3.org/2000/svg" xmlns:xlink="http://www.w3.org/1999/xlink">
<g id="graph0" class="graph" transform="scale(1 1) rotate(0) translate(4 112)">
<title>SDL_CreateAudioTrack</title>
<!-- Node1 -->
<g id="Node000001" class="node">
<title>Node1</title>
<g id="a_Node000001"><a xlink:title=" ">
<polygon fill="#999999" stroke="#666666" points="1922.75,-42 1803.25,-42 1803.25,-22 1922.75,-22 1922.75,-42"/>
<text xml:space="preserve" text-anchor="middle" x="1863" y="-28.5" font-family="Helvetica,sans-Serif" font-size="10.00">SDL_CreateAudioTrack</text>
</a>
</g>
</g>
<!-- Node2 -->
<g id="Node000002" class="node">
<title>Node2</title>
<g id="a_Node000002"><a xlink:href="../../df/dd6/SDL__audioqueue_8c.html#ad961f4bb14f159c4a5cc0449321d6901" target="_top" xlink:title=" ">
<polygon fill="white" stroke="#666666" points="1767.25,-61 1633.5,-61 1633.5,-41 1767.25,-41 1767.25,-61"/>
<text xml:space="preserve" text-anchor="middle" x="1700.38" y="-47.5" font-family="Helvetica,sans-Serif" font-size="10.00">CreateChunkedAudioTrack</text>
</a>
</g>
</g>
<!-- Node1&#45;&gt;Node2 -->
<g id="edge1_Node000001_Node000002" class="edge">
<title>Node1&#45;&gt;Node2</title>
<g id="a_edge1_Node000001_Node000002"><a xlink:title=" ">
<path fill="none" stroke="#63b8ff" d="M1791.84,-40.3C1783.79,-41.25 1775.59,-42.22 1767.59,-43.17"/>
<polygon fill="#63b8ff" stroke="#63b8ff" points="1792.08,-43.8 1801.6,-39.14 1791.26,-36.84 1792.08,-43.8"/>
</a>
</g>
</g>
<!-- Node4 -->
<g id="Node000004" class="node">
<title>Node4</title>
<g id="a_Node000004"><a xlink:href="../../dc/d77/SDL__audiocvt_8c.html#a0cfc2690d4770f3b9c5391764f06df8d" target="_top" xlink:title=" ">
<polygon fill="white" stroke="#666666" points="1434.5,-42 1289.5,-42 1289.5,-22 1434.5,-22 1434.5,-42"/>
<text xml:space="preserve" text-anchor="middle" x="1362" y="-28.5" font-family="Helvetica,sans-Serif" font-size="10.00">PutAudioStreamBufferInternal</text>
</a>
</g>
</g>
<!-- Node1&#45;&gt;Node4 -->
<g id="edge18_Node000001_Node000004" class="edge">
<title>Node1&#45;&gt;Node4</title>
<g id="a_edge18_Node000001_Node000004"><a xlink:title=" ">
<path fill="none" stroke="#63b8ff" d="M1791.34,-32C1696.71,-32 1529.7,-32 1434.59,-32"/>
<polygon fill="#63b8ff" stroke="#63b8ff" points="1791.29,-35.5 1801.29,-32 1791.29,-28.5 1791.29,-35.5"/>
</a>
</g>
</g>
<!-- Node3 -->
<g id="Node000003" class="node">
<title>Node3</title>
<g id="a_Node000003"><a xlink:href="../../df/dd6/SDL__audioqueue_8c.html#acc568d4ea3b66cb76bed4aece82def7a" target="_top" xlink:title=" ">
<polygon fill="white" stroke="#666666" points="1597.5,-61 1470.5,-61 1470.5,-41 1597.5,-41 1597.5,-61"/>
<text xml:space="preserve" text-anchor="middle" x="1534" y="-47.5" font-family="Helvetica,sans-Serif" font-size="10.00">SDL_WriteToAudioQueue</text>
</a>
</g>
</g>
<!-- Node2&#45;&gt;Node3 -->
<g id="edge2_Node000002_Node000003" class="edge">
<title>Node2&#45;&gt;Node3</title>
<g id="a_edge2_Node000002_Node000003"><a xlink:title=" ">
<path fill="none" stroke="#63b8ff" d="M1622.11,-51C1614.03,-51 1605.88,-51 1597.99,-51"/>
<polygon fill="#63b8ff" stroke="#63b8ff" points="1621.95,-54.5 1631.95,-51 1621.95,-47.5 1621.95,-54.5"/>
</a>
</g>
</g>
<!-- Node3&#45;&gt;Node4 -->
<g id="edge3_Node000003_Node000004" class="edge">
<title>Node3&#45;&gt;Node4</title>
<g id="a_edge3_Node000003_Node000004"><a xlink:title=" ">
<path fill="none" stroke="#63b8ff" d="M1458.94,-42.72C1450.91,-41.83 1442.74,-40.91 1434.74,-40.02"/>
<polygon fill="#63b8ff" stroke="#63b8ff" points="1458.35,-46.18 1468.68,-43.81 1459.13,-39.22 1458.35,-46.18"/>
</a>
</g>
</g>
<!-- Node5 -->
<g id="Node000005" class="node">
<title>Node5</title>
<g id="a_Node000005"><a xlink:href="../../dc/d77/SDL__audiocvt_8c.html#a0c7c55ad2b82dbc7ce6b5113ac456452" target="_top" xlink:title=" ">
<polygon fill="white" stroke="#666666" points="1253.5,-62 1140.75,-62 1140.75,-42 1253.5,-42 1253.5,-62"/>
<text xml:space="preserve" text-anchor="middle" x="1197.12" y="-48.5" font-family="Helvetica,sans-Serif" font-size="10.00">PutAudioStreamBuffer</text>
</a>
</g>
</g>
<!-- Node4&#45;&gt;Node5 -->
<g id="edge4_Node000004_Node000005" class="edge">
<title>Node4&#45;&gt;Node5</title>
<g id="a_edge4_Node000004_Node000005"><a xlink:title=" ">
<path fill="none" stroke="#63b8ff" d="M1277.74,-42.22C1269.7,-43.21 1261.68,-44.2 1254,-45.14"/>
<polygon fill="#63b8ff" stroke="#63b8ff" points="1278.09,-45.71 1287.58,-41.01 1277.23,-38.76 1278.09,-45.71"/>
</a>
</g>
</g>
<!-- Node7 -->
<g id="Node000007" class="node">
<title>Node7</title>
<g id="a_Node000007"><a xlink:href="../../dc/d77/SDL__audiocvt_8c.html#a013d8e85ba5cb31a851d3bfd54b33df3" target="_top" xlink:title=" ">
<polygon fill="white" stroke="#666666" points="899.75,-20 739,-20 739,0 899.75,0 899.75,-20"/>
<text xml:space="preserve" text-anchor="middle" x="819.38" y="-6.5" font-family="Helvetica,sans-Serif" font-size="10.00">SDL_PutAudioStreamPlanarData</text>
</a>
</g>
</g>
<!-- Node4&#45;&gt;Node7 -->
<g id="edge17_Node000004_Node000007" class="edge">
<title>Node4&#45;&gt;Node7</title>
<g id="a_edge17_Node000004_Node000007"><a xlink:title=" ">
<path fill="none" stroke="#63b8ff" d="M1277.95,-28.62C1175.1,-24.44 1001.15,-17.36 899.94,-13.24"/>
<polygon fill="#63b8ff" stroke="#63b8ff" points="1277.56,-32.11 1287.7,-29.02 1277.85,-25.11 1277.56,-32.11"/>
</a>
</g>
</g>
<!-- Node6 -->
<g id="Node000006" class="node">
<title>Node6</title>
<g id="a_Node000006"><a xlink:href="../../dc/d77/SDL__audiocvt_8c.html#af2fe3a9702adf846f4f813d2a53389f5" target="_top" xlink:title=" ">
<polygon fill="white" stroke="#666666" points="1086.75,-62 953.75,-62 953.75,-42 1086.75,-42 1086.75,-62"/>
<text xml:space="preserve" text-anchor="middle" x="1020.25" y="-48.5" font-family="Helvetica,sans-Serif" font-size="10.00">SDL_PutAudioStreamData</text>
</a>
</g>
</g>
<!-- Node5&#45;&gt;Node6 -->
<g id="edge5_Node000005_Node000006" class="edge">
<title>Node5&#45;&gt;Node6</title>
<g id="a_edge5_Node000005_Node000006"><a xlink:title=" ">
<path fill="none" stroke="#63b8ff" d="M1129,-52C1115.29,-52 1100.88,-52 1087.22,-52"/>
<polygon fill="#63b8ff" stroke="#63b8ff" points="1128.8,-55.5 1138.8,-52 1128.8,-48.5 1128.8,-55.5"/>
</a>
</g>
</g>
<!-- Node16 -->
<g id="Node000016" class="node">
<title>Node16</title>
<g id="a_Node000016"><a xlink:href="../../dc/d77/SDL__audiocvt_8c.html#af47d703f8e43d5087951d17b6c8436a5" target="_top" xlink:title=" ">
<polygon fill="white" stroke="#666666" points="1104.75,-104 935.75,-104 935.75,-84 1104.75,-84 1104.75,-104"/>
<text xml:space="preserve" text-anchor="middle" x="1020.25" y="-90.5" font-family="Helvetica,sans-Serif" font-size="10.00">SDL_PutAudioStreamDataNoCopy</text>
</a>
</g>
</g>
<!-- Node5&#45;&gt;Node16 -->
<g id="edge15_Node000005_Node000016" class="edge">
<title>Node5&#45;&gt;Node16</title>
<g id="a_edge15_Node000005_Node000016"><a xlink:title=" ">
<path fill="none" stroke="#63b8ff" d="M1141.41,-65.14C1116.68,-71.08 1087.88,-78 1064.67,-83.57"/>
<polygon fill="#63b8ff" stroke="#63b8ff" points="1142.07,-68.58 1150.98,-62.84 1140.44,-61.78 1142.07,-68.58"/>
</a>
</g>
</g>
<!-- Node6&#45;&gt;Node7 -->
<g id="edge6_Node000006_Node000007" class="edge">
<title>Node6&#45;&gt;Node7</title>
<g id="a_edge6_Node000006_Node000007"><a xlink:title=" ">
<path fill="none" stroke="#63b8ff" d="M958.54,-39.18C930.09,-33.17 896.63,-26.1 869.76,-20.43"/>
<polygon fill="#63b8ff" stroke="#63b8ff" points="957.59,-42.56 968.1,-41.2 959.04,-35.71 957.59,-42.56"/>
</a>
</g>
</g>
<!-- Node8 -->
<g id="Node000008" class="node">
<title>Node8</title>
<g id="a_Node000008"><a xlink:href="../../d6/d9b/SDL__audio_8c.html#a3a132c60c931f1c864ba5da2b1c86717" target="_top" xlink:title=" ">
<polygon fill="white" stroke="#666666" points="889.25,-70 749.5,-70 749.5,-38 889.25,-38 889.25,-70"/>
<text xml:space="preserve" text-anchor="start" x="757.5" y="-56.5" font-family="Helvetica,sans-Serif" font-size="10.00">SDL_RecordingAudioThread</text>
<text xml:space="preserve" text-anchor="middle" x="819.38" y="-44.5" font-family="Helvetica,sans-Serif" font-size="10.00">Iterate</text>
</a>
</g>
</g>
<!-- Node6&#45;&gt;Node8 -->
<g id="edge7_Node000006_Node000008" class="edge">
<title>Node6&#45;&gt;Node8</title>
<g id="a_edge7_Node000006_Node000008"><a xlink:title=" ">
<path fill="none" stroke="#63b8ff" d="M942.09,-52.78C924.78,-52.95 906.51,-53.13 889.55,-53.3"/>
<polygon fill="#63b8ff" stroke="#63b8ff" points="941.83,-56.28 951.79,-52.68 941.76,-49.28 941.83,-56.28"/>
</a>
</g>
</g>
<!-- Node9 -->
<g id="Node000009" class="node">
<title>Node9</title>
<g id="a_Node000009"><a xlink:href="../../d3/d8a/SDL__dummyaudio_8c.html#a954b1d30669ef0d1b5d4615515c94498" target="_top" xlink:title=" ">
<polygon fill="white" stroke="#666666" points="703,-83 558,-83 558,-63 703,-63 703,-83"/>
<text xml:space="preserve" text-anchor="middle" x="630.5" y="-69.5" font-family="Helvetica,sans-Serif" font-size="10.00">DUMMYAUDIO_OpenDevice</text>
</a>
</g>
</g>
<!-- Node8&#45;&gt;Node9 -->
<g id="edge8_Node000008_Node000009" class="edge">
<title>Node8&#45;&gt;Node9</title>
<g id="a_edge8_Node000008_Node000009"><a xlink:title=" ">
<path fill="none" stroke="#63b8ff" d="M737.7,-62.2C726.23,-63.37 714.49,-64.56 703.21,-65.71"/>
<polygon fill="#63b8ff" stroke="#63b8ff" points="737.95,-65.69 747.55,-61.2 737.25,-58.73 737.95,-65.69"/>
</a>
</g>
</g>
<!-- Node11 -->
<g id="Node000011" class="node">
<title>Node11</title>
<g id="a_Node000011"><a xlink:href="../../d6/d9b/SDL__audio_8c.html#a78509cdb3b4a17a333ba844e392a3c56" target="_top" xlink:title=" ">
<polygon fill="white" stroke="#666666" points="688,-45 573,-45 573,-25 688,-25 688,-45"/>
<text xml:space="preserve" text-anchor="middle" x="630.5" y="-31.5" font-family="Helvetica,sans-Serif" font-size="10.00">RecordingAudioThread</text>
</a>
</g>
</g>
<!-- Node8&#45;&gt;Node11 -->
<g id="edge10_Node000008_Node000011" class="edge">
<title>Node8&#45;&gt;Node11</title>
<g id="a_edge10_Node000008_Node000011"><a xlink:title=" ">
<path fill="none" stroke="#63b8ff" d="M737.7,-45.8C721.13,-44.11 704.01,-42.37 688.49,-40.79"/>
<polygon fill="#63b8ff" stroke="#63b8ff" points="737.25,-49.27 747.55,-46.8 737.95,-42.31 737.25,-49.27"/>
</a>
</g>
</g>
<!-- Node10 -->
<g id="Node000010" class="node">
<title>Node10</title>
<g id="a_Node000010"><a xlink:href="../../d3/d8a/SDL__dummyaudio_8c.html#a29ca48806a568f46e322654ffd7271ab" target="_top" xlink:title=" ">
<polygon fill="white" stroke="#666666" points="508.12,-83 403.62,-83 403.62,-63 508.12,-63 508.12,-83"/>
<text xml:space="preserve" text-anchor="middle" x="455.88" y="-69.5" font-family="Helvetica,sans-Serif" font-size="10.00">DUMMYAUDIO_Init</text>
</a>
</g>
</g>
<!-- Node9&#45;&gt;Node10 -->
<g id="edge9_Node000009_Node000010" class="edge">
<title>Node9&#45;&gt;Node10</title>
<g id="a_edge9_Node000009_Node000010"><a xlink:title=" ">
<path fill="none" stroke="#63b8ff" d="M546.44,-73C533.45,-73 520.37,-73 508.37,-73"/>
<polygon fill="#63b8ff" stroke="#63b8ff" points="546.28,-76.5 556.28,-73 546.28,-69.5 546.28,-76.5"/>
</a>
</g>
</g>
<!-- Node12 -->
<g id="Node000012" class="node">
<title>Node12</title>
<g id="a_Node000012"><a xlink:href="../../d6/d9b/SDL__audio_8c.html#a67d5d3273196908cd2180bde093c413d" target="_top" xlink:title=" ">
<polygon fill="white" stroke="#666666" points="522,-45 389.75,-45 389.75,-25 522,-25 522,-45"/>
<text xml:space="preserve" text-anchor="middle" x="455.88" y="-31.5" font-family="Helvetica,sans-Serif" font-size="10.00">OpenPhysicalAudioDevice</text>
</a>
</g>
</g>
<!-- Node11&#45;&gt;Node12 -->
<g id="edge11_Node000011_Node000012" class="edge">
<title>Node11&#45;&gt;Node12</title>
<g id="a_edge11_Node000011_Node000012"><a xlink:title=" ">
<path fill="none" stroke="#63b8ff" d="M561.73,-35C548.73,-35 535.14,-35 522.22,-35"/>
<polygon fill="#63b8ff" stroke="#63b8ff" points="561.46,-38.5 571.46,-35 561.46,-31.5 561.46,-38.5"/>
</a>
</g>
</g>
<!-- Node13 -->
<g id="Node000013" class="node">
<title>Node13</title>
<g id="a_Node000013"><a xlink:href="../../d6/d9b/SDL__audio_8c.html#ad4cae8cf429411be160ec61914b28043" target="_top" xlink:title=" ">
<polygon fill="white" stroke="#666666" points="353.75,-64 187,-64 187,-44 353.75,-44 353.75,-64"/>
<text xml:space="preserve" text-anchor="middle" x="270.38" y="-50.5" font-family="Helvetica,sans-Serif" font-size="10.00">SDL_DefaultAudioDeviceChanged</text>
</a>
</g>
</g>
<!-- Node12&#45;&gt;Node13 -->
<g id="edge12_Node000012_Node000013" class="edge">
<title>Node12&#45;&gt;Node13</title>
<g id="a_edge12_Node000012_Node000013"><a xlink:title=" ">
<path fill="none" stroke="#63b8ff" d="M377.99,-42.96C370.11,-43.78 362.08,-44.61 354.14,-45.43"/>
<polygon fill="#63b8ff" stroke="#63b8ff" points="378.31,-46.45 387.9,-41.93 377.59,-39.48 378.31,-46.45"/>
</a>
</g>
</g>
<!-- Node14 -->
<g id="Node000014" class="node">
<title>Node14</title>
<g id="a_Node000014"><a xlink:href="../../d6/d9b/SDL__audio_8c.html#ad4a998b0fa52004c6db6b4182de26f8c" target="_top" xlink:title=" ">
<polygon fill="white" stroke="#666666" points="330.12,-26 210.62,-26 210.62,-6 330.12,-6 330.12,-26"/>
<text xml:space="preserve" text-anchor="middle" x="270.38" y="-12.5" font-family="Helvetica,sans-Serif" font-size="10.00">SDL_OpenAudioDevice</text>
</a>
</g>
</g>
<!-- Node12&#45;&gt;Node14 -->
<g id="edge13_Node000012_Node000014" class="edge">
<title>Node12&#45;&gt;Node14</title>
<g id="a_edge13_Node000012_Node000014"><a xlink:title=" ">
<path fill="none" stroke="#63b8ff" d="M377.96,-27.04C362.06,-25.39 345.55,-23.68 330.41,-22.11"/>
<polygon fill="#63b8ff" stroke="#63b8ff" points="377.59,-30.52 387.9,-28.07 378.31,-23.55 377.59,-30.52"/>
</a>
</g>
</g>
<!-- Node15 -->
<g id="Node000015" class="node">
<title>Node15</title>
<g id="a_Node000015"><a xlink:href="../../d6/d9b/SDL__audio_8c.html#a73ac117b5e299633d58be618680af357" target="_top" xlink:title=" ">
<polygon fill="white" stroke="#666666" points="151,-26 0,-26 0,-6 151,-6 151,-26"/>
<text xml:space="preserve" text-anchor="middle" x="75.5" y="-12.5" font-family="Helvetica,sans-Serif" font-size="10.00">SDL_OpenAudioDeviceStream</text>
</a>
</g>
</g>
<!-- Node14&#45;&gt;Node15 -->
<g id="edge14_Node000014_Node000015" class="edge">
<title>Node14&#45;&gt;Node15</title>
<g id="a_edge14_Node000014_Node000015"><a xlink:title=" ">
<path fill="none" stroke="#63b8ff" d="M199.07,-16C183.52,-16 166.99,-16 151.26,-16"/>
<polygon fill="#63b8ff" stroke="#63b8ff" points="198.68,-19.5 208.68,-16 198.68,-12.5 198.68,-19.5"/>
</a>
</g>
</g>
<!-- Node17 -->
<g id="Node000017" class="node">
<title>Node17</title>
<g id="a_Node000017"><a xlink:href="../../dc/d77/SDL__audiocvt_8c.html#a90af0e041cebdc41c97e4f30cfdcf01a" target="_top" xlink:title=" ">
<polygon fill="white" stroke="#666666" points="888.5,-108 750.25,-108 750.25,-88 888.5,-88 888.5,-108"/>
<text xml:space="preserve" text-anchor="middle" x="819.38" y="-94.5" font-family="Helvetica,sans-Serif" font-size="10.00">SDL_ConvertAudioSamples</text>
</a>
</g>
</g>
<!-- Node16&#45;&gt;Node17 -->
<g id="edge16_Node000016_Node000017" class="edge">
<title>Node16&#45;&gt;Node17</title>
<g id="a_edge16_Node000016_Node000017"><a xlink:title=" ">
<path fill="none" stroke="#63b8ff" d="M924.16,-95.91C912.29,-96.15 900.34,-96.39 888.98,-96.62"/>
<polygon fill="#63b8ff" stroke="#63b8ff" points="924.04,-99.42 933.97,-95.72 923.9,-92.42 924.04,-99.42"/>
</a>
</g>
</g>
</g>
</svg>
