<?xml version="1.0" encoding="UTF-8" standalone="no"?>
<!DOCTYPE svg PUBLIC "-//W3C//DTD SVG 1.1//EN"
 "http://www.w3.org/Graphics/SVG/1.1/DTD/svg11.dtd">
<!-- Generated by graphviz version 13.1.0 (20250701.0955)
 -->
<!-- Title: SDL&#45;main/src/video/directx/d3d12.h Pages: 1 -->
<svg width="268pt" height="188pt"
 viewBox="0.00 0.00 268.00 188.00" xmlns="http://www.w3.org/2000/svg" xmlns:xlink="http://www.w3.org/1999/xlink">
<g id="graph0" class="graph" transform="scale(1 1) rotate(0) translate(4 184)">
<title>SDL&#45;main/src/video/directx/d3d12.h</title>
<!-- Node1 -->
<g id="Node000001" class="node">
<title>Node1</title>
<g id="a_Node000001"><a xlink:title=" ">
<polygon fill="#999999" stroke="#666666" points="178.5,-180 76.25,-180 76.25,-148 178.5,-148 178.5,-180"/>
<text xml:space="preserve" text-anchor="start" x="84.25" y="-166.5" font-family="Helvetica,sans-Serif" font-size="10.00">SDL&#45;main/src/video</text>
<text xml:space="preserve" text-anchor="middle" x="127.38" y="-154.5" font-family="Helvetica,sans-Serif" font-size="10.00">/directx/d3d12.h</text>
</a>
</g>
</g>
<!-- Node2 -->
<g id="Node000002" class="node">
<title>Node2</title>
<g id="a_Node000002"><a xlink:href="../../d6/d4a/SDL__d3d12_8h.html" target="_top" xlink:title=" ">
<polygon fill="white" stroke="#666666" points="114.62,-112 4.12,-112 4.12,-80 114.62,-80 114.62,-112"/>
<text xml:space="preserve" text-anchor="start" x="12.12" y="-98.5" font-family="Helvetica,sans-Serif" font-size="10.00">SDL&#45;main/src/video</text>
<text xml:space="preserve" text-anchor="middle" x="59.38" y="-86.5" font-family="Helvetica,sans-Serif" font-size="10.00">/directx/SDL_d3d12.h</text>
</a>
</g>
</g>
<!-- Node1&#45;&gt;Node2 -->
<g id="edge1_Node000001_Node000002" class="edge">
<title>Node1&#45;&gt;Node2</title>
<g id="a_edge1_Node000001_Node000002"><a xlink:title=" ">
<path fill="none" stroke="#63b8ff" d="M103.38,-139.71C93.98,-130.59 83.46,-120.37 75.06,-112.22"/>
<polygon fill="#63b8ff" stroke="#63b8ff" points="100.9,-142.18 110.52,-146.64 105.78,-137.16 100.9,-142.18"/>
</a>
</g>
</g>
<!-- Node4 -->
<g id="Node000004" class="node">
<title>Node4</title>
<g id="a_Node000004"><a xlink:href="../../d5/d39/d3d12sdklayers_8h.html" target="_top" xlink:title=" ">
<polygon fill="white" stroke="#666666" points="260.25,-112 132.5,-112 132.5,-80 260.25,-80 260.25,-112"/>
<text xml:space="preserve" text-anchor="start" x="140.5" y="-98.5" font-family="Helvetica,sans-Serif" font-size="10.00">SDL&#45;main/src/video</text>
<text xml:space="preserve" text-anchor="middle" x="196.38" y="-86.5" font-family="Helvetica,sans-Serif" font-size="10.00">/directx/d3d12sdklayers.h</text>
</a>
</g>
</g>
<!-- Node1&#45;&gt;Node4 -->
<g id="edge3_Node000001_Node000004" class="edge">
<title>Node1&#45;&gt;Node4</title>
<g id="a_edge3_Node000001_Node000004"><a xlink:title=" ">
<path fill="none" stroke="#63b8ff" d="M151.43,-139.99C161.05,-130.79 171.85,-120.46 180.46,-112.22"/>
<polygon fill="#63b8ff" stroke="#63b8ff" points="149.28,-137.2 144.47,-146.65 154.12,-142.26 149.28,-137.2"/>
</a>
</g>
</g>
<!-- Node3 -->
<g id="Node000003" class="node">
<title>Node3</title>
<g id="a_Node000003"><a xlink:href="../../d6/dfe/SDL__render__d3d12__xbox_8h.html" target="_top" xlink:title=" ">
<polygon fill="white" stroke="#666666" points="118.75,-44 0,-44 0,0 118.75,0 118.75,-44"/>
<text xml:space="preserve" text-anchor="start" x="8" y="-30.5" font-family="Helvetica,sans-Serif" font-size="10.00">SDL&#45;main/src/render</text>
<text xml:space="preserve" text-anchor="start" x="8" y="-18.5" font-family="Helvetica,sans-Serif" font-size="10.00">/direct3d12/SDL_render</text>
<text xml:space="preserve" text-anchor="middle" x="59.38" y="-6.5" font-family="Helvetica,sans-Serif" font-size="10.00">_d3d12_xbox.h</text>
</a>
</g>
</g>
<!-- Node2&#45;&gt;Node3 -->
<g id="edge2_Node000002_Node000003" class="edge">
<title>Node2&#45;&gt;Node3</title>
<g id="a_edge2_Node000002_Node000003"><a xlink:title=" ">
<path fill="none" stroke="#63b8ff" d="M59.38,-68.38C59.38,-60.43 59.38,-51.82 59.38,-44.26"/>
<polygon fill="#63b8ff" stroke="#63b8ff" points="55.88,-68.22 59.38,-78.22 62.88,-68.22 55.88,-68.22"/>
</a>
</g>
</g>
</g>
</svg>
