<?xml version="1.0" encoding="UTF-8" standalone="no"?>
<!DOCTYPE svg PUBLIC "-//W3C//DTD SVG 1.1//EN"
 "http://www.w3.org/Graphics/SVG/1.1/DTD/svg11.dtd">
<!-- Generated by graphviz version 13.1.0 (20250701.0955)
 -->
<!-- Title: SDL&#45;main/include/SDL3/SDL_gamepad.h Pages: 1 -->
<!--zoomable 432 -->

<svg id="main" version="1.1" xmlns="http://www.w3.org/2000/svg" xmlns:xlink="http://www.w3.org/1999/xlink" xml:space="preserve" onload="init(evt)">

<style type="text/css"><![CDATA[
.node, .edge {opacity: 0.7;}
.node.selected, .edge.selected {opacity: 1;}
.edge:hover path { stroke: red; }
.edge:hover polygon { stroke: red; fill: red; }
]]></style>

<defs>
  <circle id="rim" cx="0" cy="0" r="7"/>
  <circle id="rim2" cx="0" cy="0" r="3.5"/>
  <g id="zoomPlus">
    <use xlink:href="#rim" fill="#404040"><set attributeName="fill" to="#808080" begin="zoomplus.mouseover" end="zoomplus.mouseout"/></use>
    <path d="M-4,0h8M0,-4v8" fill="none" stroke="white" stroke-width="1.5" pointer-events="none"/>
  </g>
  <g id="zoomMin">
    <use xlink:href="#rim" fill="#404040"><set attributeName="fill" to="#808080" begin="zoomminus.mouseover" end="zoomminus.mouseout"/></use>
    <path d="M-4,0h8" fill="none" stroke="white" stroke-width="1.5" pointer-events="none"/>
  </g>
  <g id="arrowUp" transform="translate(30 24)">
    <use xlink:href="#rim"/>
    <path pointer-events="none" fill="none" stroke="white" stroke-width="1.5" d="M0,-3.0v7 M-2.5,-0.5L0,-3.0L2.5,-0.5"/>
  </g>
  <g id="arrowRight" transform="rotate(90) translate(36 -43)">
    <use xlink:href="#rim"/>
    <path pointer-events="none" fill="none" stroke="white" stroke-width="1.5" d="M0,-3.0v7 M-2.5,-0.5L0,-3.0L2.5,-0.5"/>
  </g>
  <g id="arrowDown" transform="rotate(180) translate(-30 -48)">
    <use xlink:href="#rim"/>
    <path pointer-events="none" fill="none" stroke="white" stroke-width="1.5" d="M0,-3.0v7 M-2.5,-0.5L0,-3.0L2.5,-0.5"/>
  </g>
  <g id="arrowLeft" transform="rotate(270) translate(-36 17)">
    <use xlink:href="#rim"/>
    <path pointer-events="none" fill="none" stroke="white" stroke-width="1.5" d="M0,-3.0v7 M-2.5,-0.5L0,-3.0L2.5,-0.5"/>
  </g>
  <g id="resetDef">
    <use xlink:href="#rim2" fill="#404040"><set attributeName="fill" to="#808080" begin="reset.mouseover" end="reset.mouseout"/></use>
  </g>
</defs>
<script type="application/ecmascript">
var viewWidth = 1384;
var viewHeight = 432;
var sectionId = 'dynsection-0';
</script>
<script type="application/ecmascript" xlink:href="../../svg.min.js"/>
<svg id="graph" class="graph">
<g id="viewport">
<title>SDL&#45;main/include/SDL3/SDL_gamepad.h</title>
<!-- Node1 -->
<g id="Node000001" class="node">
<title>Node1</title>
<g id="a_Node000001"><a xlink:title=" ">
<polygon fill="#999999" stroke="#666666" points="911.88,-424 790.88,-424 790.88,-392 911.88,-392 911.88,-424"/>
<text xml:space="preserve" text-anchor="start" x="798.88" y="-410.5" font-family="Helvetica,sans-Serif" font-size="10.00">SDL&#45;main/include/SDL3</text>
<text xml:space="preserve" text-anchor="middle" x="851.38" y="-398.5" font-family="Helvetica,sans-Serif" font-size="10.00">/SDL_gamepad.h</text>
</a>
</g>
</g>
<!-- Node2 -->
<g id="Node000002" class="node">
<title>Node2</title>
<g id="a_Node000002"><a xlink:href="../../d2/d5b/SDL__stdinc_8h.html" target="_top" xlink:title=" ">
<polygon fill="white" stroke="#666666" points="375.88,-76 272.88,-76 272.88,-56 375.88,-56 375.88,-76"/>
<text xml:space="preserve" text-anchor="middle" x="324.38" y="-62.5" font-family="Helvetica,sans-Serif" font-size="10.00">SDL3/SDL_stdinc.h</text>
</a>
</g>
</g>
<!-- Node1&#45;&gt;Node2 -->
<g id="edge1_Node000001_Node000002" class="edge">
<title>Node1&#45;&gt;Node2</title>
<g id="a_edge1_Node000001_Node000002"><a xlink:title=" ">
<path fill="none" stroke="#63b8ff" d="M790.39,-404.11C609.8,-394.74 90.38,-361.66 90.38,-291 90.38,-291 90.38,-291 90.38,-233 90.38,-144.71 202.57,-99.1 271.59,-79.39"/>
<polygon fill="#63b8ff" stroke="#63b8ff" points="272.1,-82.88 280.81,-76.85 270.24,-76.13 272.1,-82.88"/>
</a>
</g>
</g>
<!-- Node8 -->
<g id="Node000008" class="node">
<title>Node8</title>
<g id="a_Node000008"><a xlink:href="../../d8/d5f/SDL__begin__code_8h.html" target="_top" xlink:title=" ">
<polygon fill="white" stroke="#666666" points="712.5,-20 586.25,-20 586.25,0 712.5,0 712.5,-20"/>
<text xml:space="preserve" text-anchor="middle" x="649.38" y="-6.5" font-family="Helvetica,sans-Serif" font-size="10.00">SDL3/SDL_begin_code.h</text>
</a>
</g>
</g>
<!-- Node1&#45;&gt;Node8 -->
<g id="edge65_Node000001_Node000008" class="edge">
<title>Node1&#45;&gt;Node8</title>
<g id="a_edge65_Node000001_Node000008"><a xlink:title=" ">
<path fill="none" stroke="#63b8ff" d="M911.93,-403.99C1034.49,-396.25 1300.38,-370.3 1300.38,-291 1300.38,-291 1300.38,-291 1300.38,-177 1300.38,-59.28 895.6,-23.99 724.4,-14.34"/>
<polygon fill="#63b8ff" stroke="#63b8ff" points="724.67,-10.85 714.49,-13.79 724.29,-17.84 724.67,-10.85"/>
</a>
</g>
</g>
<!-- Node9 -->
<g id="Node000009" class="node">
<title>Node9</title>
<g id="a_Node000009"><a xlink:href="../../d9/d73/SDL__close__code_8h.html" target="_top" xlink:title=" ">
<polygon fill="white" stroke="#666666" points="1092.5,-20 966.25,-20 966.25,0 1092.5,0 1092.5,-20"/>
<text xml:space="preserve" text-anchor="middle" x="1029.38" y="-6.5" font-family="Helvetica,sans-Serif" font-size="10.00">SDL3/SDL_close_code.h</text>
</a>
</g>
</g>
<!-- Node1&#45;&gt;Node9 -->
<g id="edge66_Node000001_Node000009" class="edge">
<title>Node1&#45;&gt;Node9</title>
<g id="a_edge66_Node000001_Node000009"><a xlink:title=" ">
<path fill="none" stroke="#63b8ff" d="M911.95,-405.44C1020.91,-401.81 1245.06,-390.29 1314.38,-356 1350.16,-338.3 1376.38,-330.92 1376.38,-291 1376.38,-291 1376.38,-291 1376.38,-121 1376.38,-74.15 1336.22,-74.96 1293.38,-56 1233.14,-29.35 1158.72,-18.41 1104.26,-13.96"/>
<polygon fill="#63b8ff" stroke="#63b8ff" points="1104.7,-10.48 1094.47,-13.22 1104.18,-17.46 1104.7,-10.48"/>
</a>
</g>
</g>
<!-- Node10 -->
<g id="Node000010" class="node">
<title>Node10</title>
<g id="a_Node000010"><a xlink:href="../../da/d16/SDL__error_8h.html" target="_top" xlink:title=" ">
<polygon fill="white" stroke="#666666" points="830.5,-132 734.25,-132 734.25,-112 830.5,-112 830.5,-132"/>
<text xml:space="preserve" text-anchor="middle" x="782.38" y="-118.5" font-family="Helvetica,sans-Serif" font-size="10.00">SDL3/SDL_error.h</text>
</a>
</g>
</g>
<!-- Node1&#45;&gt;Node10 -->
<g id="edge9_Node000001_Node000010" class="edge">
<title>Node1&#45;&gt;Node10</title>
<g id="a_edge9_Node000001_Node000010"><a xlink:title=" ">
<path fill="none" stroke="#63b8ff" d="M847.67,-391.73C836.06,-343.95 800.42,-197.28 787.3,-143.25"/>
<polygon fill="#63b8ff" stroke="#63b8ff" points="790.78,-142.77 785.02,-133.87 783.98,-144.42 790.78,-142.77"/>
</a>
</g>
</g>
<!-- Node11 -->
<g id="Node000011" class="node">
<title>Node11</title>
<g id="a_Node000011"><a xlink:href="../../dc/d28/SDL__guid_8h.html" target="_top" xlink:title=" ">
<polygon fill="white" stroke="#666666" points="564.75,-132 470,-132 470,-112 564.75,-112 564.75,-132"/>
<text xml:space="preserve" text-anchor="middle" x="517.38" y="-118.5" font-family="Helvetica,sans-Serif" font-size="10.00">SDL3/SDL_guid.h</text>
</a>
</g>
</g>
<!-- Node1&#45;&gt;Node11 -->
<g id="edge13_Node000001_Node000011" class="edge">
<title>Node1&#45;&gt;Node11</title>
<g id="a_edge13_Node000001_Node000011"><a xlink:title=" ">
<path fill="none" stroke="#63b8ff" d="M790.52,-397.74C697.64,-382.24 527.45,-347.93 491.38,-300 456.1,-253.12 470.75,-223.29 490.38,-168 493.6,-158.91 498.78,-149.64 503.74,-141.9"/>
<polygon fill="#63b8ff" stroke="#63b8ff" points="506.59,-143.93 509.32,-133.69 500.8,-140 506.59,-143.93"/>
</a>
</g>
</g>
<!-- Node12 -->
<g id="Node000012" class="node">
<title>Node12</title>
<g id="a_Node000012"><a xlink:href="../../d8/d35/SDL__iostream_8h.html" target="_top" xlink:title=" ">
<polygon fill="white" stroke="#666666" points="1186.5,-244 1072.25,-244 1072.25,-224 1186.5,-224 1186.5,-244"/>
<text xml:space="preserve" text-anchor="middle" x="1129.38" y="-230.5" font-family="Helvetica,sans-Serif" font-size="10.00">SDL3/SDL_iostream.h</text>
</a>
</g>
</g>
<!-- Node1&#45;&gt;Node12 -->
<g id="edge17_Node000001_Node000012" class="edge">
<title>Node1&#45;&gt;Node12</title>
<g id="a_edge17_Node000001_Node000012"><a xlink:title=" ">
<path fill="none" stroke="#63b8ff" d="M912.16,-398.05C947.34,-390.79 991.25,-378.01 1025.38,-356 1066.9,-329.21 1101.06,-280.99 1117.95,-254.22"/>
<polygon fill="#63b8ff" stroke="#63b8ff" points="1120.88,-256.14 1123.13,-245.78 1114.92,-252.47 1120.88,-256.14"/>
</a>
</g>
</g>
<!-- Node13 -->
<g id="Node000013" class="node">
<title>Node13</title>
<g id="a_Node000013"><a xlink:href="../../d6/d40/SDL__properties_8h.html" target="_top" xlink:title=" ">
<polygon fill="white" stroke="#666666" points="1044.12,-188 924.62,-188 924.62,-168 1044.12,-168 1044.12,-188"/>
<text xml:space="preserve" text-anchor="middle" x="984.38" y="-174.5" font-family="Helvetica,sans-Serif" font-size="10.00">SDL3/SDL_properties.h</text>
</a>
</g>
</g>
<!-- Node1&#45;&gt;Node13 -->
<g id="edge63_Node000001_Node000013" class="edge">
<title>Node1&#45;&gt;Node13</title>
<g id="a_edge63_Node000001_Node000013"><a xlink:title=" ">
<path fill="none" stroke="#63b8ff" d="M867.54,-391.67C894.87,-364.7 949.72,-305.73 975.38,-244 981.27,-229.81 983.45,-212.53 984.2,-199.35"/>
<polygon fill="#63b8ff" stroke="#63b8ff" points="987.69,-199.83 984.5,-189.72 980.69,-199.61 987.69,-199.83"/>
</a>
</g>
</g>
<!-- Node14 -->
<g id="Node000014" class="node">
<title>Node14</title>
<g id="a_Node000014"><a xlink:href="../../d6/d85/SDL__joystick_8h.html" target="_top" xlink:title=" ">
<polygon fill="white" stroke="#666666" points="729.62,-356 619.12,-356 619.12,-336 729.62,-336 729.62,-356"/>
<text xml:space="preserve" text-anchor="middle" x="674.38" y="-342.5" font-family="Helvetica,sans-Serif" font-size="10.00">SDL3/SDL_joystick.h</text>
</a>
</g>
</g>
<!-- Node1&#45;&gt;Node14 -->
<g id="edge27_Node000001_Node000014" class="edge">
<title>Node1&#45;&gt;Node14</title>
<g id="a_edge27_Node000001_Node000014"><a xlink:title=" ">
<path fill="none" stroke="#63b8ff" d="M805.79,-391.55C777.07,-381.81 740.4,-369.38 713.1,-360.13"/>
<polygon fill="#63b8ff" stroke="#63b8ff" points="714.42,-356.88 703.82,-356.98 712.17,-363.51 714.42,-356.88"/>
</a>
</g>
</g>
<!-- Node18 -->
<g id="Node000018" class="node">
<title>Node18</title>
<g id="a_Node000018"><a xlink:href="../../de/d91/SDL__power_8h.html" target="_top" xlink:title=" ">
<polygon fill="white" stroke="#666666" points="639.88,-188 536.88,-188 536.88,-168 639.88,-168 639.88,-188"/>
<text xml:space="preserve" text-anchor="middle" x="588.38" y="-174.5" font-family="Helvetica,sans-Serif" font-size="10.00">SDL3/SDL_power.h</text>
</a>
</g>
</g>
<!-- Node1&#45;&gt;Node18 -->
<g id="edge62_Node000001_Node000018" class="edge">
<title>Node1&#45;&gt;Node18</title>
<g id="a_edge62_Node000001_Node000018"><a xlink:title=" ">
<path fill="none" stroke="#63b8ff" d="M834.98,-391.66C800.65,-359.7 718.42,-283.98 646.38,-224 634.56,-214.16 621,-203.6 609.96,-195.18"/>
<polygon fill="#63b8ff" stroke="#63b8ff" points="612.31,-192.57 602.22,-189.33 608.08,-198.15 612.31,-192.57"/>
</a>
</g>
</g>
<!-- Node19 -->
<g id="Node000019" class="node">
<title>Node19</title>
<g id="a_Node000019"><a xlink:href="../../d9/d6e/SDL__sensor_8h.html" target="_top" xlink:title=" ">
<polygon fill="white" stroke="#666666" points="945.38,-244 839.38,-244 839.38,-224 945.38,-224 945.38,-244"/>
<text xml:space="preserve" text-anchor="middle" x="892.38" y="-230.5" font-family="Helvetica,sans-Serif" font-size="10.00">SDL3/SDL_sensor.h</text>
</a>
</g>
</g>
<!-- Node1&#45;&gt;Node19 -->
<g id="edge64_Node000001_Node000019" class="edge">
<title>Node1&#45;&gt;Node19</title>
<g id="a_edge64_Node000001_Node000019"><a xlink:title=" ">
<path fill="none" stroke="#63b8ff" d="M855.01,-391.74C862.41,-360.69 879.22,-290.18 887.53,-255.31"/>
<polygon fill="#63b8ff" stroke="#63b8ff" points="890.91,-256.22 889.83,-245.68 884.11,-254.6 890.91,-256.22"/>
</a>
</g>
</g>
<!-- Node3 -->
<g id="Node000003" class="node">
<title>Node3</title>
<g id="a_Node000003"><a xlink:href="../../d3/d8b/SDL__platform__defines_8h.html" target="_top" xlink:title=" ">
<polygon fill="white" stroke="#666666" points="148.75,-20 0,-20 0,0 148.75,0 148.75,-20"/>
<text xml:space="preserve" text-anchor="middle" x="74.38" y="-6.5" font-family="Helvetica,sans-Serif" font-size="10.00">SDL3/SDL_platform_defines.h</text>
</a>
</g>
</g>
<!-- Node2&#45;&gt;Node3 -->
<g id="edge2_Node000002_Node000003" class="edge">
<title>Node2&#45;&gt;Node3</title>
<g id="a_edge2_Node000002_Node000003"><a xlink:title=" ">
<path fill="none" stroke="#63b8ff" d="M280.54,-55.53C238.46,-46.44 174.74,-32.68 129.29,-22.86"/>
<polygon fill="#63b8ff" stroke="#63b8ff" points="130.15,-19.47 119.64,-20.78 128.67,-26.31 130.15,-19.47"/>
</a>
</g>
</g>
<!-- Node4 -->
<g id="Node000004" class="node">
<title>Node4</title>
<g id="a_Node000004"><a xlink:title=" ">
<polygon fill="#e0e0e0" stroke="#999999" points="329,-20 277.75,-20 277.75,0 329,0 329,-20"/>
<text xml:space="preserve" text-anchor="middle" x="303.38" y="-6.5" font-family="Helvetica,sans-Serif" font-size="10.00">stdarg.h</text>
</a>
</g>
</g>
<!-- Node2&#45;&gt;Node4 -->
<g id="edge3_Node000002_Node000004" class="edge">
<title>Node2&#45;&gt;Node4</title>
<g id="a_edge3_Node000002_Node000004"><a xlink:title=" ">
<path fill="none" stroke="#63b8ff" d="M320.72,-55.59C318.07,-48.78 314.39,-39.32 311.1,-30.86"/>
<polygon fill="#63b8ff" stroke="#63b8ff" points="314.43,-29.76 307.54,-21.71 307.9,-32.3 314.43,-29.76"/>
</a>
</g>
</g>
<!-- Node5 -->
<g id="Node000005" class="node">
<title>Node5</title>
<g id="a_Node000005"><a xlink:title=" ">
<polygon fill="#e0e0e0" stroke="#999999" points="395.5,-20 347.25,-20 347.25,0 395.5,0 395.5,-20"/>
<text xml:space="preserve" text-anchor="middle" x="371.38" y="-6.5" font-family="Helvetica,sans-Serif" font-size="10.00">stdint.h</text>
</a>
</g>
</g>
<!-- Node2&#45;&gt;Node5 -->
<g id="edge4_Node000002_Node000005" class="edge">
<title>Node2&#45;&gt;Node5</title>
<g id="a_edge4_Node000002_Node000005"><a xlink:title=" ">
<path fill="none" stroke="#63b8ff" d="M332.56,-55.59C338.96,-48.24 348.05,-37.8 355.83,-28.87"/>
<polygon fill="#63b8ff" stroke="#63b8ff" points="358.36,-31.28 362.29,-21.44 353.08,-26.69 358.36,-31.28"/>
</a>
</g>
</g>
<!-- Node6 -->
<g id="Node000006" class="node">
<title>Node6</title>
<g id="a_Node000006"><a xlink:title=" ">
<polygon fill="#e0e0e0" stroke="#999999" points="461.5,-20 413.25,-20 413.25,0 461.5,0 461.5,-20"/>
<text xml:space="preserve" text-anchor="middle" x="437.38" y="-6.5" font-family="Helvetica,sans-Serif" font-size="10.00">string.h</text>
</a>
</g>
</g>
<!-- Node2&#45;&gt;Node6 -->
<g id="edge5_Node000002_Node000006" class="edge">
<title>Node2&#45;&gt;Node6</title>
<g id="a_edge5_Node000002_Node000006"><a xlink:title=" ">
<path fill="none" stroke="#63b8ff" d="M344.06,-55.59C361.53,-47.24 387.33,-34.92 407.37,-25.34"/>
<polygon fill="#63b8ff" stroke="#63b8ff" points="408.66,-28.6 416.17,-21.13 405.64,-22.29 408.66,-28.6"/>
</a>
</g>
</g>
<!-- Node7 -->
<g id="Node000007" class="node">
<title>Node7</title>
<g id="a_Node000007"><a xlink:title=" ">
<polygon fill="#e0e0e0" stroke="#999999" points="259.62,-20 209.12,-20 209.12,0 259.62,0 259.62,-20"/>
<text xml:space="preserve" text-anchor="middle" x="234.38" y="-6.5" font-family="Helvetica,sans-Serif" font-size="10.00">wchar.h</text>
</a>
</g>
</g>
<!-- Node2&#45;&gt;Node7 -->
<g id="edge6_Node000002_Node000007" class="edge">
<title>Node2&#45;&gt;Node7</title>
<g id="a_edge6_Node000002_Node000007"><a xlink:title=" ">
<path fill="none" stroke="#63b8ff" d="M308.7,-55.59C295.23,-47.51 275.56,-35.71 259.83,-26.27"/>
<polygon fill="#63b8ff" stroke="#63b8ff" points="261.85,-23.4 251.47,-21.26 258.25,-29.4 261.85,-23.4"/>
</a>
</g>
</g>
<!-- Node2&#45;&gt;Node8 -->
<g id="edge7_Node000002_Node000008" class="edge">
<title>Node2&#45;&gt;Node8</title>
<g id="a_edge7_Node000002_Node000008"><a xlink:title=" ">
<path fill="none" stroke="#63b8ff" d="M376.23,-56.38C431.74,-47.16 520.04,-32.49 581.15,-22.34"/>
<polygon fill="#63b8ff" stroke="#63b8ff" points="581.45,-25.83 590.74,-20.74 580.3,-18.93 581.45,-25.83"/>
</a>
</g>
</g>
<!-- Node2&#45;&gt;Node9 -->
<g id="edge8_Node000002_Node000009" class="edge">
<title>Node2&#45;&gt;Node9</title>
<g id="a_edge8_Node000002_Node000009"><a xlink:title=" ">
<path fill="none" stroke="#63b8ff" d="M376.22,-61.03C499.59,-51.58 811.06,-27.72 954.7,-16.72"/>
<polygon fill="#63b8ff" stroke="#63b8ff" points="954.78,-20.22 964.49,-15.97 954.25,-13.24 954.78,-20.22"/>
</a>
</g>
</g>
<!-- Node10&#45;&gt;Node2 -->
<g id="edge10_Node000010_Node000002" class="edge">
<title>Node10&#45;&gt;Node2</title>
<g id="a_edge10_Node000010_Node000002"><a xlink:title=" ">
<path fill="none" stroke="#63b8ff" d="M733.79,-115.27C650.37,-105.44 479.93,-85.34 387.45,-74.44"/>
<polygon fill="#63b8ff" stroke="#63b8ff" points="388.14,-70.99 377.8,-73.3 387.32,-77.95 388.14,-70.99"/>
</a>
</g>
</g>
<!-- Node10&#45;&gt;Node8 -->
<g id="edge11_Node000010_Node000008" class="edge">
<title>Node10&#45;&gt;Node8</title>
<g id="a_edge11_Node000010_Node000008"><a xlink:title=" ">
<path fill="none" stroke="#63b8ff" d="M771.04,-111.62C748.46,-92.95 697.64,-50.92 669.34,-27.52"/>
<polygon fill="#63b8ff" stroke="#63b8ff" points="671.79,-25 661.85,-21.32 667.33,-30.39 671.79,-25"/>
</a>
</g>
</g>
<!-- Node10&#45;&gt;Node9 -->
<g id="edge12_Node000010_Node000009" class="edge">
<title>Node10&#45;&gt;Node9</title>
<g id="a_edge12_Node000010_Node000009"><a xlink:title=" ">
<path fill="none" stroke="#63b8ff" d="M813.7,-111.55C839.96,-103.27 878.21,-90.33 910.38,-76 943.91,-61.07 980.74,-40.21 1004.41,-26.19"/>
<polygon fill="#63b8ff" stroke="#63b8ff" points="1005.92,-29.36 1012.7,-21.23 1002.32,-23.36 1005.92,-29.36"/>
</a>
</g>
</g>
<!-- Node11&#45;&gt;Node2 -->
<g id="edge14_Node000011_Node000002" class="edge">
<title>Node11&#45;&gt;Node2</title>
<g id="a_edge14_Node000011_Node000002"><a xlink:title=" ">
<path fill="none" stroke="#63b8ff" d="M483.76,-111.59C451.99,-102.71 404.11,-89.31 369.13,-79.52"/>
<polygon fill="#63b8ff" stroke="#63b8ff" points="370.29,-76.21 359.71,-76.89 368.4,-82.95 370.29,-76.21"/>
</a>
</g>
</g>
<!-- Node11&#45;&gt;Node8 -->
<g id="edge15_Node000011_Node000008" class="edge">
<title>Node11&#45;&gt;Node8</title>
<g id="a_edge15_Node000011_Node000008"><a xlink:title=" ">
<path fill="none" stroke="#63b8ff" d="M528.63,-111.62C551.03,-92.95 601.48,-50.92 629.56,-27.52"/>
<polygon fill="#63b8ff" stroke="#63b8ff" points="631.54,-30.41 636.99,-21.32 627.06,-25.04 631.54,-30.41"/>
</a>
</g>
</g>
<!-- Node11&#45;&gt;Node9 -->
<g id="edge16_Node000011_Node000009" class="edge">
<title>Node11&#45;&gt;Node9</title>
<g id="a_edge16_Node000011_Node000009"><a xlink:title=" ">
<path fill="none" stroke="#63b8ff" d="M561.47,-111.53C654.76,-91.48 871.9,-44.83 974.2,-22.85"/>
<polygon fill="#63b8ff" stroke="#63b8ff" points="974.68,-26.33 983.72,-20.81 973.21,-19.49 974.68,-26.33"/>
</a>
</g>
</g>
<!-- Node12&#45;&gt;Node2 -->
<g id="edge18_Node000012_Node000002" class="edge">
<title>Node12&#45;&gt;Node2</title>
<g id="a_edge18_Node000012_Node000002"><a xlink:title=" ">
<path fill="none" stroke="#63b8ff" d="M1125.31,-223.94C1118.49,-209.81 1103.41,-182.63 1082.38,-168 1005.89,-114.81 972.11,-128.28 880.38,-112 703.63,-80.64 491.35,-71.1 387.65,-68.23"/>
<polygon fill="#63b8ff" stroke="#63b8ff" points="387.75,-64.73 377.66,-67.96 387.57,-71.72 387.75,-64.73"/>
</a>
</g>
</g>
<!-- Node12&#45;&gt;Node8 -->
<g id="edge25_Node000012_Node000008" class="edge">
<title>Node12&#45;&gt;Node8</title>
<g id="a_edge25_Node000012_Node000008"><a xlink:title=" ">
<path fill="none" stroke="#63b8ff" d="M1128.39,-223.89C1126.47,-210.17 1121.03,-184.12 1106.38,-168 1026.91,-80.61 977.48,-93.18 865.38,-56 819.41,-40.76 766.18,-29.6 724.06,-22.2"/>
<polygon fill="#63b8ff" stroke="#63b8ff" points="724.7,-18.76 714.26,-20.52 723.52,-25.66 724.7,-18.76"/>
</a>
</g>
</g>
<!-- Node12&#45;&gt;Node9 -->
<g id="edge26_Node000012_Node000009" class="edge">
<title>Node12&#45;&gt;Node9</title>
<g id="a_edge26_Node000012_Node000009"><a xlink:title=" ">
<path fill="none" stroke="#63b8ff" d="M1156.32,-223.6C1172.22,-216.49 1191.02,-205.01 1200.38,-188 1204.66,-180.21 1202.6,-176.61 1200.38,-168 1186.14,-112.91 1180.83,-93.87 1138.38,-56 1121.94,-41.34 1100.07,-31.05 1080.23,-24.06"/>
<polygon fill="#63b8ff" stroke="#63b8ff" points="1081.5,-20.79 1070.91,-20.97 1079.3,-27.43 1081.5,-20.79"/>
</a>
</g>
</g>
<!-- Node12&#45;&gt;Node10 -->
<g id="edge19_Node000012_Node000010" class="edge">
<title>Node12&#45;&gt;Node10</title>
<g id="a_edge19_Node000012_Node000010"><a xlink:title=" ">
<path fill="none" stroke="#63b8ff" d="M1121.59,-223.67C1108.92,-209.17 1082.33,-181.49 1053.38,-168 1016.85,-150.98 910.47,-136.82 842.37,-129.17"/>
<polygon fill="#63b8ff" stroke="#63b8ff" points="842.79,-125.69 832.46,-128.07 842.02,-132.65 842.79,-125.69"/>
</a>
</g>
</g>
<!-- Node12&#45;&gt;Node13 -->
<g id="edge20_Node000012_Node000013" class="edge">
<title>Node12&#45;&gt;Node13</title>
<g id="a_edge20_Node000012_Node000013"><a xlink:title=" ">
<path fill="none" stroke="#63b8ff" d="M1104.12,-223.59C1080.97,-214.97 1046.45,-202.12 1020.41,-192.42"/>
<polygon fill="#63b8ff" stroke="#63b8ff" points="1021.84,-189.22 1011.25,-189.01 1019.4,-195.78 1021.84,-189.22"/>
</a>
</g>
</g>
<!-- Node13&#45;&gt;Node2 -->
<g id="edge21_Node000013_Node000002" class="edge">
<title>Node13&#45;&gt;Node2</title>
<g id="a_edge21_Node000013_Node000002"><a xlink:title=" ">
<path fill="none" stroke="#63b8ff" d="M968.5,-167.74C942.5,-153.07 888.77,-124.84 839.38,-112 755.63,-90.23 505.85,-75.73 387.68,-69.89"/>
<polygon fill="#63b8ff" stroke="#63b8ff" points="387.99,-66.4 377.83,-69.41 387.65,-73.39 387.99,-66.4"/>
</a>
</g>
</g>
<!-- Node13&#45;&gt;Node8 -->
<g id="edge23_Node000013_Node000008" class="edge">
<title>Node13&#45;&gt;Node8</title>
<g id="a_edge23_Node000013_Node000008"><a xlink:title=" ">
<path fill="none" stroke="#63b8ff" d="M974.55,-167.89C960.6,-155.06 934.08,-131.09 910.38,-112 877.69,-85.69 872.39,-73.75 834.38,-56 799.65,-39.79 758.42,-29.03 723.72,-22.11"/>
<polygon fill="#63b8ff" stroke="#63b8ff" points="724.66,-18.73 714.18,-20.28 723.34,-25.6 724.66,-18.73"/>
</a>
</g>
</g>
<!-- Node13&#45;&gt;Node9 -->
<g id="edge24_Node000013_Node000009" class="edge">
<title>Node13&#45;&gt;Node9</title>
<g id="a_edge24_Node000013_Node000009"><a xlink:title=" ">
<path fill="none" stroke="#63b8ff" d="M996.25,-167.72C1005.78,-159.49 1018.5,-146.54 1024.38,-132 1037.79,-98.8 1035.57,-56.22 1032.58,-31.43"/>
<polygon fill="#63b8ff" stroke="#63b8ff" points="1036.07,-31.16 1031.23,-21.74 1029.14,-32.13 1036.07,-31.16"/>
</a>
</g>
</g>
<!-- Node13&#45;&gt;Node10 -->
<g id="edge22_Node000013_Node000010" class="edge">
<title>Node13&#45;&gt;Node10</title>
<g id="a_edge22_Node000013_Node000010"><a xlink:title=" ">
<path fill="none" stroke="#63b8ff" d="M949.19,-167.59C915.79,-158.67 865.4,-145.19 828.74,-135.39"/>
<polygon fill="#63b8ff" stroke="#63b8ff" points="829.86,-132.07 819.3,-132.87 828.05,-138.83 829.86,-132.07"/>
</a>
</g>
</g>
<!-- Node14&#45;&gt;Node2 -->
<g id="edge28_Node000014_Node000002" class="edge">
<title>Node14&#45;&gt;Node2</title>
<g id="a_edge28_Node000014_Node000002"><a xlink:title=" ">
<path fill="none" stroke="#63b8ff" d="M618.64,-344.36C490.48,-342.3 183.43,-333.85 152.38,-300 128.17,-273.62 78.26,-282.34 246.38,-112 258.92,-99.29 275.81,-88.96 290.66,-81.42"/>
<polygon fill="#63b8ff" stroke="#63b8ff" points="292.17,-84.57 299.66,-77.08 289.13,-78.27 292.17,-84.57"/>
</a>
</g>
</g>
<!-- Node14&#45;&gt;Node8 -->
<g id="edge60_Node000014_Node000008" class="edge">
<title>Node14&#45;&gt;Node8</title>
<g id="a_edge60_Node000014_Node000008"><a xlink:title=" ">
<path fill="none" stroke="#63b8ff" d="M618.78,-340.51C497.42,-327.56 221.5,-279.58 246.38,-112 250.19,-86.27 243.42,-72.68 263.38,-56 286.76,-36.46 469.39,-22.09 574.85,-15.32"/>
<polygon fill="#63b8ff" stroke="#63b8ff" points="574.79,-18.83 584.54,-14.71 574.34,-11.85 574.79,-18.83"/>
</a>
</g>
</g>
<!-- Node14&#45;&gt;Node9 -->
<g id="edge61_Node000014_Node000009" class="edge">
<title>Node14&#45;&gt;Node9</title>
<g id="a_edge61_Node000014_Node000009"><a xlink:title=" ">
<path fill="none" stroke="#63b8ff" d="M729.85,-342.98C889.43,-335.69 1338.38,-304.06 1338.38,-179 1338.38,-179 1338.38,-179 1338.38,-121 1338.38,-72.73 1295.43,-75.72 1251.38,-56 1204.82,-35.16 1148.45,-23.89 1104.16,-17.84"/>
<polygon fill="#63b8ff" stroke="#63b8ff" points="1104.75,-14.38 1094.38,-16.57 1103.85,-21.32 1104.75,-14.38"/>
</a>
</g>
</g>
<!-- Node14&#45;&gt;Node10 -->
<g id="edge29_Node000014_Node000010" class="edge">
<title>Node14&#45;&gt;Node10</title>
<g id="a_edge29_Node000014_Node000010"><a xlink:title=" ">
<path fill="none" stroke="#63b8ff" d="M678.88,-335.74C695.07,-302.46 750.57,-188.39 772.93,-142.42"/>
<polygon fill="#63b8ff" stroke="#63b8ff" points="775.96,-144.18 777.19,-133.66 769.67,-141.12 775.96,-144.18"/>
</a>
</g>
</g>
<!-- Node14&#45;&gt;Node11 -->
<g id="edge30_Node000014_Node000011" class="edge">
<title>Node14&#45;&gt;Node11</title>
<g id="a_edge30_Node000014_Node000011"><a xlink:title=" ">
<path fill="none" stroke="#63b8ff" d="M619.02,-337.6C575.26,-330.48 519.3,-318.12 505.38,-300 469.63,-253.49 493.72,-178.21 508.39,-142.71"/>
<polygon fill="#63b8ff" stroke="#63b8ff" points="511.54,-144.26 512.3,-133.69 505.11,-141.47 511.54,-144.26"/>
</a>
</g>
</g>
<!-- Node14&#45;&gt;Node13 -->
<g id="edge53_Node000014_Node000013" class="edge">
<title>Node14&#45;&gt;Node13</title>
<g id="a_edge53_Node000014_Node000013"><a xlink:title=" ">
<path fill="none" stroke="#63b8ff" d="M729.87,-337.92C791.6,-327.39 890.97,-302.16 954.38,-244 967.4,-232.05 975.21,-213.33 979.58,-199.04"/>
<polygon fill="#63b8ff" stroke="#63b8ff" points="982.85,-200.35 982.09,-189.78 976.09,-198.52 982.85,-200.35"/>
</a>
</g>
</g>
<!-- Node15 -->
<g id="Node000015" class="node">
<title>Node15</title>
<g id="a_Node000015"><a xlink:href="../../df/dd9/SDL__mutex_8h.html" target="_top" xlink:title=" ">
<polygon fill="white" stroke="#666666" points="618.25,-300 514.5,-300 514.5,-280 618.25,-280 618.25,-300"/>
<text xml:space="preserve" text-anchor="middle" x="566.38" y="-286.5" font-family="Helvetica,sans-Serif" font-size="10.00">SDL3/SDL_mutex.h</text>
</a>
</g>
</g>
<!-- Node14&#45;&gt;Node15 -->
<g id="edge31_Node000014_Node000015" class="edge">
<title>Node14&#45;&gt;Node15</title>
<g id="a_edge31_Node000014_Node000015"><a xlink:title=" ">
<path fill="none" stroke="#63b8ff" d="M655.56,-335.59C639.02,-327.32 614.66,-315.14 595.58,-305.6"/>
<polygon fill="#63b8ff" stroke="#63b8ff" points="597.2,-302.5 586.69,-301.16 594.07,-308.76 597.2,-302.5"/>
</a>
</g>
</g>
<!-- Node14&#45;&gt;Node18 -->
<g id="edge48_Node000014_Node000018" class="edge">
<title>Node14&#45;&gt;Node18</title>
<g id="a_edge48_Node000014_Node000018"><a xlink:title=" ">
<path fill="none" stroke="#63b8ff" d="M671.95,-335.71C666.24,-314.74 650.64,-262.61 627.38,-224 621.4,-214.09 613.2,-204.25 605.86,-196.31"/>
<polygon fill="#63b8ff" stroke="#63b8ff" points="608.61,-194.11 599.15,-189.33 603.56,-198.97 608.61,-194.11"/>
</a>
</g>
</g>
<!-- Node14&#45;&gt;Node19 -->
<g id="edge54_Node000014_Node000019" class="edge">
<title>Node14&#45;&gt;Node19</title>
<g id="a_edge54_Node000014_Node000019"><a xlink:title=" ">
<path fill="none" stroke="#63b8ff" d="M692.96,-335.62C731.09,-316.38 818.38,-272.34 863.77,-249.43"/>
<polygon fill="#63b8ff" stroke="#63b8ff" points="865.13,-252.67 872.48,-245.04 861.98,-246.42 865.13,-252.67"/>
</a>
</g>
</g>
<!-- Node15&#45;&gt;Node2 -->
<g id="edge32_Node000015_Node000002" class="edge">
<title>Node15&#45;&gt;Node2</title>
<g id="a_edge32_Node000015_Node000002"><a xlink:title=" ">
<path fill="none" stroke="#63b8ff" d="M514.13,-281.18C439.53,-266.8 305.73,-228.26 253.38,-132 241.83,-110.77 265.98,-92.79 289.18,-81.15"/>
<polygon fill="#63b8ff" stroke="#63b8ff" points="290.36,-84.47 297.93,-77.06 287.39,-78.13 290.36,-84.47"/>
</a>
</g>
</g>
<!-- Node15&#45;&gt;Node8 -->
<g id="edge46_Node000015_Node000008" class="edge">
<title>Node15&#45;&gt;Node8</title>
<g id="a_edge46_Node000015_Node000008"><a xlink:title=" ">
<path fill="none" stroke="#63b8ff" d="M548.75,-279.66C535.27,-271.73 517.08,-259.24 505.38,-244 467.72,-194.95 429.64,-165.08 461.38,-112 490.21,-63.78 550.85,-37.24 595.5,-23.63"/>
<polygon fill="#63b8ff" stroke="#63b8ff" points="596.4,-27.01 605.03,-20.86 594.45,-20.29 596.4,-27.01"/>
</a>
</g>
</g>
<!-- Node15&#45;&gt;Node9 -->
<g id="edge47_Node000015_Node000009" class="edge">
<title>Node15&#45;&gt;Node9</title>
<g id="a_edge47_Node000015_Node000009"><a xlink:title=" ">
<path fill="none" stroke="#63b8ff" d="M618.69,-287.31C760.19,-282.45 1143.38,-267.27 1195.38,-244 1233.24,-227.05 1262.38,-220.49 1262.38,-179 1262.38,-179 1262.38,-179 1262.38,-121 1262.38,-49.71 1172.07,-24.55 1103.9,-15.71"/>
<polygon fill="#63b8ff" stroke="#63b8ff" points="1104.58,-12.27 1094.24,-14.56 1103.75,-19.22 1104.58,-12.27"/>
</a>
</g>
</g>
<!-- Node15&#45;&gt;Node10 -->
<g id="edge38_Node000015_Node000010" class="edge">
<title>Node15&#45;&gt;Node10</title>
<g id="a_edge38_Node000015_Node000010"><a xlink:title=" ">
<path fill="none" stroke="#63b8ff" d="M579.07,-279.79C591.46,-270.77 610.81,-256.57 627.38,-244 675.99,-207.1 732.3,-162.72 761.85,-139.31"/>
<polygon fill="#63b8ff" stroke="#63b8ff" points="763.95,-142.11 769.61,-133.16 759.6,-136.63 763.95,-142.11"/>
</a>
</g>
</g>
<!-- Node16 -->
<g id="Node000016" class="node">
<title>Node16</title>
<g id="a_Node000016"><a xlink:href="../../d2/dd2/SDL__atomic_8h.html" target="_top" xlink:title=" ">
<polygon fill="white" stroke="#666666" points="376.38,-132 270.38,-132 270.38,-112 376.38,-112 376.38,-132"/>
<text xml:space="preserve" text-anchor="middle" x="323.38" y="-118.5" font-family="Helvetica,sans-Serif" font-size="10.00">SDL3/SDL_atomic.h</text>
</a>
</g>
</g>
<!-- Node15&#45;&gt;Node16 -->
<g id="edge33_Node000015_Node000016" class="edge">
<title>Node15&#45;&gt;Node16</title>
<g id="a_edge33_Node000015_Node000016"><a xlink:title=" ">
<path fill="none" stroke="#63b8ff" d="M535.58,-279.65C512.72,-271.95 481.32,-259.75 456.38,-244 408.89,-214.01 362.46,-166.42 339.06,-140.77"/>
<polygon fill="#63b8ff" stroke="#63b8ff" points="341.82,-138.6 332.53,-133.51 336.61,-143.29 341.82,-138.6"/>
</a>
</g>
</g>
<!-- Node17 -->
<g id="Node000017" class="node">
<title>Node17</title>
<g id="a_Node000017"><a xlink:href="../../dd/d1d/SDL__thread_8h.html" target="_top" xlink:title=" ">
<polygon fill="white" stroke="#666666" points="618.25,-244 514.5,-244 514.5,-224 618.25,-224 618.25,-244"/>
<text xml:space="preserve" text-anchor="middle" x="566.38" y="-230.5" font-family="Helvetica,sans-Serif" font-size="10.00">SDL3/SDL_thread.h</text>
</a>
</g>
</g>
<!-- Node15&#45;&gt;Node17 -->
<g id="edge39_Node000015_Node000017" class="edge">
<title>Node15&#45;&gt;Node17</title>
<g id="a_edge39_Node000015_Node000017"><a xlink:title=" ">
<path fill="none" stroke="#63b8ff" d="M566.38,-279.59C566.38,-273.01 566.38,-263.96 566.38,-255.73"/>
<polygon fill="#63b8ff" stroke="#63b8ff" points="569.88,-255.81 566.38,-245.81 562.88,-255.81 569.88,-255.81"/>
</a>
</g>
</g>
<!-- Node16&#45;&gt;Node2 -->
<g id="edge34_Node000016_Node000002" class="edge">
<title>Node16&#45;&gt;Node2</title>
<g id="a_edge34_Node000016_Node000002"><a xlink:title=" ">
<path fill="none" stroke="#63b8ff" d="M323.55,-111.59C323.67,-105.01 323.84,-95.96 323.99,-87.73"/>
<polygon fill="#63b8ff" stroke="#63b8ff" points="327.49,-87.87 324.17,-77.81 320.49,-87.75 327.49,-87.87"/>
</a>
</g>
</g>
<!-- Node16&#45;&gt;Node3 -->
<g id="edge35_Node000016_Node000003" class="edge">
<title>Node16&#45;&gt;Node3</title>
<g id="a_edge35_Node000016_Node000003"><a xlink:title=" ">
<path fill="none" stroke="#63b8ff" d="M302.15,-111.62C258.32,-92.26 157.63,-47.78 106.07,-25"/>
<polygon fill="#63b8ff" stroke="#63b8ff" points="107.5,-21.81 96.94,-20.97 104.67,-28.21 107.5,-21.81"/>
</a>
</g>
</g>
<!-- Node16&#45;&gt;Node8 -->
<g id="edge36_Node000016_Node000008" class="edge">
<title>Node16&#45;&gt;Node8</title>
<g id="a_edge36_Node000016_Node000008"><a xlink:title=" ">
<path fill="none" stroke="#63b8ff" d="M335.22,-111.69C353.92,-97.46 391.9,-70.46 428.38,-56 475.25,-37.41 530.89,-26.13 574.62,-19.52"/>
<polygon fill="#63b8ff" stroke="#63b8ff" points="574.87,-23.02 584.26,-18.11 573.86,-16.09 574.87,-23.02"/>
</a>
</g>
</g>
<!-- Node16&#45;&gt;Node9 -->
<g id="edge37_Node000016_Node000009" class="edge">
<title>Node16&#45;&gt;Node9</title>
<g id="a_edge37_Node000016_Node000009"><a xlink:title=" ">
<path fill="none" stroke="#63b8ff" d="M376.71,-112.07C453.35,-99.3 599.09,-75.23 723.38,-56 802.3,-43.78 892.82,-30.57 954.81,-21.65"/>
<polygon fill="#63b8ff" stroke="#63b8ff" points="955.14,-25.13 964.54,-20.25 954.14,-18.2 955.14,-25.13"/>
</a>
</g>
</g>
<!-- Node17&#45;&gt;Node2 -->
<g id="edge40_Node000017_Node000002" class="edge">
<title>Node17&#45;&gt;Node2</title>
<g id="a_edge40_Node000017_Node000002"><a xlink:title=" ">
<path fill="none" stroke="#63b8ff" d="M514.15,-233.29C442.98,-230.49 317.91,-213.45 261.38,-132 248.15,-112.94 271.12,-94.25 292.95,-81.84"/>
<polygon fill="#63b8ff" stroke="#63b8ff" points="294.57,-84.94 301.75,-77.15 291.28,-78.76 294.57,-84.94"/>
</a>
</g>
</g>
<!-- Node17&#45;&gt;Node8 -->
<g id="edge44_Node000017_Node000008" class="edge">
<title>Node17&#45;&gt;Node8</title>
<g id="a_edge44_Node000017_Node000008"><a xlink:title=" ">
<path fill="none" stroke="#63b8ff" d="M553.85,-223.6C538.97,-211.22 517.35,-188.59 527.38,-168 538.75,-144.66 555.99,-151.28 573.38,-132 602.33,-99.89 627.09,-55.41 639.94,-30.29"/>
<polygon fill="#63b8ff" stroke="#63b8ff" points="642.96,-32.09 644.3,-21.58 636.7,-28.96 642.96,-32.09"/>
</a>
</g>
</g>
<!-- Node17&#45;&gt;Node9 -->
<g id="edge45_Node000017_Node000009" class="edge">
<title>Node17&#45;&gt;Node9</title>
<g id="a_edge45_Node000017_Node000009"><a xlink:title=" ">
<path fill="none" stroke="#63b8ff" d="M599.89,-223.51C668.29,-203.21 827.37,-151.23 944.38,-76 967.84,-60.91 993.03,-41.15 1009.84,-27.4"/>
<polygon fill="#63b8ff" stroke="#63b8ff" points="1011.61,-30.48 1017.09,-21.41 1007.15,-25.08 1011.61,-30.48"/>
</a>
</g>
</g>
<!-- Node17&#45;&gt;Node10 -->
<g id="edge41_Node000017_Node000010" class="edge">
<title>Node17&#45;&gt;Node10</title>
<g id="a_edge41_Node000017_Node000010"><a xlink:title=" ">
<path fill="none" stroke="#63b8ff" d="M584.28,-223.67C608.68,-210.98 653.75,-187.62 692.38,-168 712.63,-157.71 735.52,-146.27 753.15,-137.5"/>
<polygon fill="#63b8ff" stroke="#63b8ff" points="754.63,-140.67 762.02,-133.09 751.51,-134.4 754.63,-140.67"/>
</a>
</g>
</g>
<!-- Node17&#45;&gt;Node13 -->
<g id="edge42_Node000017_Node000013" class="edge">
<title>Node17&#45;&gt;Node13</title>
<g id="a_edge42_Node000017_Node000013"><a xlink:title=" ">
<path fill="none" stroke="#63b8ff" d="M618.47,-226.27C692.75,-216.67 829.34,-199.03 912.99,-188.22"/>
<polygon fill="#63b8ff" stroke="#63b8ff" points="913.2,-191.72 922.67,-186.97 912.31,-184.78 913.2,-191.72"/>
</a>
</g>
</g>
<!-- Node17&#45;&gt;Node16 -->
<g id="edge43_Node000017_Node000016" class="edge">
<title>Node17&#45;&gt;Node16</title>
<g id="a_edge43_Node000017_Node000016"><a xlink:title=" ">
<path fill="none" stroke="#63b8ff" d="M542.15,-223.62C519.73,-214.82 485.56,-201.08 456.38,-188 419.89,-171.64 378.64,-151.16 351.88,-137.61"/>
<polygon fill="#63b8ff" stroke="#63b8ff" points="353.55,-134.53 343.05,-133.12 350.37,-140.77 353.55,-134.53"/>
</a>
</g>
</g>
<!-- Node18&#45;&gt;Node2 -->
<g id="edge49_Node000018_Node000002" class="edge">
<title>Node18&#45;&gt;Node2</title>
<g id="a_edge49_Node000018_Node000002"><a xlink:title=" ">
<path fill="none" stroke="#63b8ff" d="M589.14,-167.96C589.8,-153.85 588.8,-126.7 573.38,-112 547.28,-87.13 452.28,-75.65 387.46,-70.62"/>
<polygon fill="#63b8ff" stroke="#63b8ff" points="387.88,-67.14 377.64,-69.89 387.36,-74.12 387.88,-67.14"/>
</a>
</g>
</g>
<!-- Node18&#45;&gt;Node8 -->
<g id="edge51_Node000018_Node000008" class="edge">
<title>Node18&#45;&gt;Node8</title>
<g id="a_edge51_Node000018_Node000008"><a xlink:title=" ">
<path fill="none" stroke="#63b8ff" d="M607.05,-167.58C620.04,-159.93 636.39,-147.81 644.38,-132 660.59,-99.89 657.36,-56.65 653.44,-31.5"/>
<polygon fill="#63b8ff" stroke="#63b8ff" points="656.94,-31.18 651.75,-21.94 650.04,-32.4 656.94,-31.18"/>
</a>
</g>
</g>
<!-- Node18&#45;&gt;Node9 -->
<g id="edge52_Node000018_Node000009" class="edge">
<title>Node18&#45;&gt;Node9</title>
<g id="a_edge52_Node000018_Node000009"><a xlink:title=" ">
<path fill="none" stroke="#63b8ff" d="M606.23,-167.66C632.09,-154.34 681.65,-129.56 725.38,-112 816.28,-75.49 926.02,-41.41 985.63,-23.69"/>
<polygon fill="#63b8ff" stroke="#63b8ff" points="986.46,-27.1 995.06,-20.91 984.48,-20.38 986.46,-27.1"/>
</a>
</g>
</g>
<!-- Node18&#45;&gt;Node10 -->
<g id="edge50_Node000018_Node000010" class="edge">
<title>Node18&#45;&gt;Node10</title>
<g id="a_edge50_Node000018_Node000010"><a xlink:title=" ">
<path fill="none" stroke="#63b8ff" d="M622.17,-167.59C654.1,-158.71 702.22,-145.31 737.39,-135.52"/>
<polygon fill="#63b8ff" stroke="#63b8ff" points="738.17,-138.94 746.86,-132.89 736.29,-132.2 738.17,-138.94"/>
</a>
</g>
</g>
<!-- Node19&#45;&gt;Node2 -->
<g id="edge55_Node000019_Node000002" class="edge">
<title>Node19&#45;&gt;Node2</title>
<g id="a_edge55_Node000019_Node000002"><a xlink:title=" ">
<path fill="none" stroke="#63b8ff" d="M839.17,-233.24C766.71,-232.06 633.83,-224.48 527.38,-188 489.75,-175.11 392.66,-112.33 347.78,-82.63"/>
<polygon fill="#63b8ff" stroke="#63b8ff" points="349.82,-79.79 339.55,-77.17 345.94,-85.62 349.82,-79.79"/>
</a>
</g>
</g>
<!-- Node19&#45;&gt;Node8 -->
<g id="edge58_Node000019_Node000008" class="edge">
<title>Node19&#45;&gt;Node8</title>
<g id="a_edge58_Node000019_Node000008"><a xlink:title=" ">
<path fill="none" stroke="#63b8ff" d="M890.5,-223.65C885.66,-201.67 870.87,-145.97 839.38,-112 798.46,-67.86 733.8,-39.28 691.48,-24.15"/>
<polygon fill="#63b8ff" stroke="#63b8ff" points="692.72,-20.88 682.13,-20.91 690.43,-27.49 692.72,-20.88"/>
</a>
</g>
</g>
<!-- Node19&#45;&gt;Node9 -->
<g id="edge59_Node000019_Node000009" class="edge">
<title>Node19&#45;&gt;Node9</title>
<g id="a_edge59_Node000019_Node000009"><a xlink:title=" ">
<path fill="none" stroke="#63b8ff" d="M945.56,-225.16C987.2,-217.81 1040.22,-205.34 1053.38,-188 1089.23,-140.74 1058.1,-65.28 1040.07,-30.15"/>
<polygon fill="#63b8ff" stroke="#63b8ff" points="1043.29,-28.75 1035.49,-21.58 1037.12,-32.05 1043.29,-28.75"/>
</a>
</g>
</g>
<!-- Node19&#45;&gt;Node10 -->
<g id="edge56_Node000019_Node000010" class="edge">
<title>Node19&#45;&gt;Node10</title>
<g id="a_edge56_Node000019_Node000010"><a xlink:title=" ">
<path fill="none" stroke="#63b8ff" d="M883,-223.62C864.57,-205.19 823.38,-164.01 799.82,-140.44"/>
<polygon fill="#63b8ff" stroke="#63b8ff" points="802.35,-138.02 792.8,-133.43 797.4,-142.97 802.35,-138.02"/>
</a>
</g>
</g>
<!-- Node19&#45;&gt;Node13 -->
<g id="edge57_Node000019_Node000013" class="edge">
<title>Node19&#45;&gt;Node13</title>
<g id="a_edge57_Node000019_Node000013"><a xlink:title=" ">
<path fill="none" stroke="#63b8ff" d="M908.4,-223.59C922.17,-215.51 942.28,-203.71 958.35,-194.27"/>
<polygon fill="#63b8ff" stroke="#63b8ff" points="960.07,-197.33 966.92,-189.25 956.52,-191.29 960.07,-197.33"/>
</a>
</g>
</g>
</g>
</svg>

<g id="navigator" transform="translate(0 0)" fill="#404254">
  <rect fill="#f2f5e9" fill-opacity="0.5" stroke="#606060" stroke-width=".5" x="0" y="0" width="60" height="60"/>
  <use id="zoomplus" xlink:href="#zoomPlus" x="17" y="9" onmousedown="handleZoom(evt,'in')"/>
  <use id="zoomminus" xlink:href="#zoomMin" x="42" y="9" onmousedown="handleZoom(evt,'out')"/>
  <use id="reset" xlink:href="#resetDef" x="30" y="36" onmousedown="handleReset()"/>
   <use id="arrowup" xlink:href="#arrowUp" x="0" y="0" onmousedown="handlePan(0,-1)"/>
  <use id="arrowright" xlink:href="#arrowRight" x="0" y="0" onmousedown="handlePan(1,0)"/>
  <use id="arrowdown" xlink:href="#arrowDown" x="0" y="0" onmousedown="handlePan(0,1)"/>
  <use id="arrowleft" xlink:href="#arrowLeft" x="0" y="0" onmousedown="handlePan(-1,0)"/>
</g>
<svg viewBox="0 0 15 15" width="100%" height="30px" preserveAspectRatio="xMaxYMin meet">
 <g id="arrow_out" transform="scale(0.3 0.3)">
  <a xlink:href="SDL__gamepad_8h__incl_org.svg" target="_base">
   <rect id="button" ry="5" rx="5" y="6" x="6" height="38" width="38"
        fill="#f2f5e9" fill-opacity="0.5" stroke="#606060" stroke-width="1.0"/>
   <path id="arrow"
     d="M 11.500037,31.436501 C 11.940474,20.09759 22.043105,11.32322 32.158766,21.979434 L 37.068811,17.246167 C 37.068811,17.246167 37.088388,32 37.088388,32 L 22.160133,31.978069 C 22.160133,31.978069 26.997745,27.140456 26.997745,27.140456 C 18.528582,18.264221 13.291696,25.230495 11.500037,31.436501 z"
     style="fill:#404040;"/>
  </a>
 </g>
</svg>

<style type='text/css'>
<![CDATA[
[data-mouse-over-selected='false'] { opacity: 0.7; }
[data-mouse-over-selected='true']  { opacity: 1.0; }
]]>
</style>
<script type="application/ecmascript"><![CDATA[
document.addEventListener('DOMContentLoaded', (event) => {
  highlightEdges();
  highlightAdjacentNodes();
});
]]></script>
</svg>
