<?xml version="1.0" encoding="UTF-8" standalone="no"?>
<!DOCTYPE svg PUBLIC "-//W3C//DTD SVG 1.1//EN"
 "http://www.w3.org/Graphics/SVG/1.1/DTD/svg11.dtd">
<!-- Generated by graphviz version 13.1.0 (20250701.0955)
 -->
<!-- Title: RenderModel_t Pages: 1 -->
<svg width="123pt" height="192pt"
 viewBox="0.00 0.00 123.00 192.00" xmlns="http://www.w3.org/2000/svg" xmlns:xlink="http://www.w3.org/1999/xlink">
<g id="graph0" class="graph" transform="scale(1 1) rotate(0) translate(4 188)">
<title>RenderModel_t</title>
<!-- Node1 -->
<g id="Node000001" class="node">
<title>Node1</title>
<g id="a_Node000001"><a xlink:title=" ">
<polygon fill="#999999" stroke="#666666" points="98.5,-20 16.5,-20 16.5,0 98.5,0 98.5,-20"/>
<text xml:space="preserve" text-anchor="middle" x="57.5" y="-6.5" font-family="Helvetica,sans-Serif" font-size="10.00">RenderModel_t</text>
</a>
</g>
</g>
<!-- Node2 -->
<g id="Node000002" class="node">
<title>Node2</title>
<g id="a_Node000002"><a xlink:href="../../d8/da5/structRenderModel__Vertex__t.html" target="_top" xlink:title=" ">
<polygon fill="white" stroke="#666666" points="115,-94 0,-94 0,-74 115,-74 115,-94"/>
<text xml:space="preserve" text-anchor="middle" x="57.5" y="-80.5" font-family="Helvetica,sans-Serif" font-size="10.00">RenderModel_Vertex_t</text>
</a>
</g>
</g>
<!-- Node2&#45;&gt;Node1 -->
<g id="edge1_Node000001_Node000002" class="edge">
<title>Node2&#45;&gt;Node1</title>
<g id="a_edge1_Node000001_Node000002"><a xlink:title=" ">
<path fill="none" stroke="#9a32cd" stroke-dasharray="5,2" d="M57.5,-62.18C57.5,-48.29 57.5,-30.71 57.5,-20.19"/>
<polygon fill="#9a32cd" stroke="#9a32cd" points="54,-62.07 57.5,-72.07 61,-62.07 54,-62.07"/>
</a>
</g>
<text xml:space="preserve" text-anchor="start" x="60.5" y="-43.5" font-family="Helvetica,sans-Serif" font-size="10.00" fill="grey">rVertexData</text>
</g>
<!-- Node3 -->
<g id="Node000003" class="node">
<title>Node3</title>
<g id="a_Node000003"><a xlink:href="../../db/d70/structHmdVector3__t.html" target="_top" xlink:title=" ">
<polygon fill="white" stroke="#666666" points="96.62,-184 18.38,-184 18.38,-164 96.62,-164 96.62,-184"/>
<text xml:space="preserve" text-anchor="middle" x="57.5" y="-170.5" font-family="Helvetica,sans-Serif" font-size="10.00">HmdVector3_t</text>
</a>
</g>
</g>
<!-- Node3&#45;&gt;Node2 -->
<g id="edge2_Node000002_Node000003" class="edge">
<title>Node3&#45;&gt;Node2</title>
<g id="a_edge2_Node000002_Node000003"><a xlink:title=" ">
<path fill="none" stroke="#9a32cd" stroke-dasharray="5,2" d="M57.5,-152.09C57.5,-133.77 57.5,-108.01 57.5,-94.35"/>
<polygon fill="#9a32cd" stroke="#9a32cd" points="54,-152.07 57.5,-162.07 61,-152.07 54,-152.07"/>
</a>
</g>
<text xml:space="preserve" text-anchor="start" x="60.5" y="-133.5" font-family="Helvetica,sans-Serif" font-size="10.00" fill="grey">vNormal</text>
<text xml:space="preserve" text-anchor="start" x="60.5" y="-117.5" font-family="Helvetica,sans-Serif" font-size="10.00" fill="grey">vPosition</text>
</g>
</g>
</svg>
