<?xml version="1.0" encoding="UTF-8" standalone="no"?>
<!DOCTYPE svg PUBLIC "-//W3C//DTD SVG 1.1//EN"
 "http://www.w3.org/Graphics/SVG/1.1/DTD/svg11.dtd">
<!-- Generated by graphviz version 13.1.0 (20250701.0955)
 -->
<!-- Title: SDL_GetSurfaceBlendMode Pages: 1 -->
<!--zoomable 216 -->

<svg id="main" version="1.1" xmlns="http://www.w3.org/2000/svg" xmlns:xlink="http://www.w3.org/1999/xlink" xml:space="preserve" onload="init(evt)">

<style type="text/css"><![CDATA[
.node, .edge {opacity: 0.7;}
.node.selected, .edge.selected {opacity: 1;}
.edge:hover path { stroke: red; }
.edge:hover polygon { stroke: red; fill: red; }
]]></style>

<defs>
  <circle id="rim" cx="0" cy="0" r="7"/>
  <circle id="rim2" cx="0" cy="0" r="3.5"/>
  <g id="zoomPlus">
    <use xlink:href="#rim" fill="#404040"><set attributeName="fill" to="#808080" begin="zoomplus.mouseover" end="zoomplus.mouseout"/></use>
    <path d="M-4,0h8M0,-4v8" fill="none" stroke="white" stroke-width="1.5" pointer-events="none"/>
  </g>
  <g id="zoomMin">
    <use xlink:href="#rim" fill="#404040"><set attributeName="fill" to="#808080" begin="zoomminus.mouseover" end="zoomminus.mouseout"/></use>
    <path d="M-4,0h8" fill="none" stroke="white" stroke-width="1.5" pointer-events="none"/>
  </g>
  <g id="arrowUp" transform="translate(30 24)">
    <use xlink:href="#rim"/>
    <path pointer-events="none" fill="none" stroke="white" stroke-width="1.5" d="M0,-3.0v7 M-2.5,-0.5L0,-3.0L2.5,-0.5"/>
  </g>
  <g id="arrowRight" transform="rotate(90) translate(36 -43)">
    <use xlink:href="#rim"/>
    <path pointer-events="none" fill="none" stroke="white" stroke-width="1.5" d="M0,-3.0v7 M-2.5,-0.5L0,-3.0L2.5,-0.5"/>
  </g>
  <g id="arrowDown" transform="rotate(180) translate(-30 -48)">
    <use xlink:href="#rim"/>
    <path pointer-events="none" fill="none" stroke="white" stroke-width="1.5" d="M0,-3.0v7 M-2.5,-0.5L0,-3.0L2.5,-0.5"/>
  </g>
  <g id="arrowLeft" transform="rotate(270) translate(-36 17)">
    <use xlink:href="#rim"/>
    <path pointer-events="none" fill="none" stroke="white" stroke-width="1.5" d="M0,-3.0v7 M-2.5,-0.5L0,-3.0L2.5,-0.5"/>
  </g>
  <g id="resetDef">
    <use xlink:href="#rim2" fill="#404040"><set attributeName="fill" to="#808080" begin="reset.mouseover" end="reset.mouseout"/></use>
  </g>
</defs>
<script type="application/ecmascript">
var viewWidth = 1431;
var viewHeight = 216;
var sectionId = 'dynsection-42';
</script>
<script type="application/ecmascript" xlink:href="../../svg.min.js"/>
<svg id="graph" class="graph">
<g id="viewport">
<title>SDL_GetSurfaceBlendMode</title>
<!-- Node1 -->
<g id="Node000001" class="node">
<title>Node1</title>
<g id="a_Node000001"><a xlink:title=" ">
<polygon fill="#999999" stroke="#666666" points="1422.5,-83 1283.5,-83 1283.5,-63 1422.5,-63 1422.5,-83"/>
<text xml:space="preserve" text-anchor="middle" x="1353" y="-69.5" font-family="Helvetica,sans-Serif" font-size="10.00">SDL_GetSurfaceBlendMode</text>
</a>
</g>
</g>
<!-- Node2 -->
<g id="Node000002" class="node">
<title>Node2</title>
<g id="a_Node000002"><a xlink:href="../../d4/d8e/SDL__surface_8c.html#a70a8f09bcea477ab3da4030650caf69e" target="_top" xlink:title=" ">
<polygon fill="white" stroke="#666666" points="1236.25,-112 1098,-112 1098,-80 1236.25,-80 1236.25,-112"/>
<text xml:space="preserve" text-anchor="start" x="1106" y="-98.5" font-family="Helvetica,sans-Serif" font-size="10.00">SDL_BlitSurfaceUnchecked</text>
<text xml:space="preserve" text-anchor="middle" x="1167.12" y="-86.5" font-family="Helvetica,sans-Serif" font-size="10.00">Scaled</text>
</a>
</g>
</g>
<!-- Node1&#45;&gt;Node2 -->
<g id="edge1_Node000001_Node000002" class="edge">
<title>Node1&#45;&gt;Node2</title>
<g id="a_edge1_Node000001_Node000002"><a xlink:title=" ">
<path fill="none" stroke="#63b8ff" d="M1271.85,-83.03C1260.09,-84.5 1248.08,-86 1236.59,-87.44"/>
<polygon fill="#63b8ff" stroke="#63b8ff" points="1272.02,-86.53 1281.51,-81.82 1271.15,-79.59 1272.02,-86.53"/>
</a>
</g>
</g>
<!-- Node9 -->
<g id="Node000009" class="node">
<title>Node9</title>
<g id="a_Node000009"><a xlink:href="../../dd/df3/SDL__render_8c.html#abc1bc59a9829fde62785a433482df6b7" target="_top" xlink:title=" ">
<polygon fill="white" stroke="#666666" points="1247.5,-61 1086.75,-61 1086.75,-41 1247.5,-41 1247.5,-61"/>
<text xml:space="preserve" text-anchor="middle" x="1167.12" y="-47.5" font-family="Helvetica,sans-Serif" font-size="10.00">SDL_UpdateTextureFromSurface</text>
</a>
</g>
</g>
<!-- Node1&#45;&gt;Node9 -->
<g id="edge11_Node000001_Node000009" class="edge">
<title>Node1&#45;&gt;Node9</title>
<g id="a_edge11_Node000001_Node000009"><a xlink:title=" ">
<path fill="none" stroke="#63b8ff" d="M1271.81,-63.41C1263.82,-62.45 1255.7,-61.48 1247.71,-60.52"/>
<polygon fill="#63b8ff" stroke="#63b8ff" points="1271.16,-66.85 1281.51,-64.57 1271.99,-59.9 1271.16,-66.85"/>
</a>
</g>
</g>
<!-- Node2&#45;&gt;Node2 -->
<g id="edge10_Node000002_Node000002" class="edge">
<title>Node2&#45;&gt;Node2</title>
<g id="a_edge10_Node000002_Node000002"><a xlink:title=" ">
<path fill="none" stroke="#63b8ff" d="M1198.1,-123.71C1192.94,-127.48 1182.61,-130 1167.12,-130 1138.81,-130 1127.75,-121.58 1133.94,-112.44"/>
<polygon fill="#63b8ff" stroke="#63b8ff" points="1201.53,-124.41 1200.02,-113.93 1194.66,-123.07 1201.53,-124.41"/>
</a>
</g>
</g>
<!-- Node3 -->
<g id="Node000003" class="node">
<title>Node3</title>
<g id="a_Node000003"><a xlink:href="../../d4/d8e/SDL__surface_8c.html#ad03c3bf7986461a0cdc686217bd73682" target="_top" xlink:title=" ">
<polygon fill="white" stroke="#666666" points="1030.88,-151 912.12,-151 912.12,-131 1030.88,-131 1030.88,-151"/>
<text xml:space="preserve" text-anchor="middle" x="971.5" y="-137.5" font-family="Helvetica,sans-Serif" font-size="10.00">SDL_BlitSurfaceScaled</text>
</a>
</g>
</g>
<!-- Node2&#45;&gt;Node3 -->
<g id="edge2_Node000002_Node000003" class="edge">
<title>Node2&#45;&gt;Node3</title>
<g id="a_edge2_Node000002_Node000003"><a xlink:title=" ">
<path fill="none" stroke="#63b8ff" d="M1086.55,-114.49C1063.04,-119.96 1038.14,-125.74 1017.62,-130.51"/>
<polygon fill="#63b8ff" stroke="#63b8ff" points="1087.17,-117.94 1096.11,-112.27 1085.58,-111.13 1087.17,-117.94"/>
</a>
</g>
</g>
<!-- Node8 -->
<g id="Node000008" class="node">
<title>Node8</title>
<g id="a_Node000008"><a xlink:href="../../d4/d8e/SDL__surface_8c.html#ac272f372110e77bff24f3bf5aba3e467" target="_top" xlink:title=" ">
<polygon fill="white" stroke="#666666" points="1036.5,-112 906.5,-112 906.5,-80 1036.5,-80 1036.5,-112"/>
<text xml:space="preserve" text-anchor="start" x="914.5" y="-98.5" font-family="Helvetica,sans-Serif" font-size="10.00">SDL_BlitSurfaceTiledWith</text>
<text xml:space="preserve" text-anchor="middle" x="971.5" y="-86.5" font-family="Helvetica,sans-Serif" font-size="10.00">Scale</text>
</a>
</g>
</g>
<!-- Node2&#45;&gt;Node8 -->
<g id="edge9_Node000002_Node000008" class="edge">
<title>Node2&#45;&gt;Node8</title>
<g id="a_edge9_Node000002_Node000008"><a xlink:title=" ">
<path fill="none" stroke="#63b8ff" d="M1086.29,-96C1069.78,-96 1052.6,-96 1036.73,-96"/>
<polygon fill="#63b8ff" stroke="#63b8ff" points="1086.07,-99.5 1096.07,-96 1086.07,-92.5 1086.07,-99.5"/>
</a>
</g>
</g>
<!-- Node4 -->
<g id="Node000004" class="node">
<title>Node4</title>
<g id="a_Node000004"><a xlink:href="../../d4/d8e/SDL__surface_8c.html#a5158f541548d706c129d2fb600a1036f" target="_top" xlink:title=" ">
<polygon fill="white" stroke="#666666" points="832.25,-208 720.25,-208 720.25,-188 832.25,-188 832.25,-208"/>
<text xml:space="preserve" text-anchor="middle" x="776.25" y="-194.5" font-family="Helvetica,sans-Serif" font-size="10.00">SDL_BlitSurface9Grid</text>
</a>
</g>
</g>
<!-- Node3&#45;&gt;Node4 -->
<g id="edge3_Node000003_Node000004" class="edge">
<title>Node3&#45;&gt;Node4</title>
<g id="a_edge3_Node000003_Node000004"><a xlink:title=" ">
<path fill="none" stroke="#63b8ff" d="M930.75,-155.15C908.9,-162.69 881.24,-171.85 856.25,-179 845.81,-181.99 834.5,-184.9 823.79,-187.5"/>
<polygon fill="#63b8ff" stroke="#63b8ff" points="931.87,-158.46 940.17,-151.87 929.57,-151.85 931.87,-158.46"/>
</a>
</g>
</g>
<!-- Node5 -->
<g id="Node000005" class="node">
<title>Node5</title>
<g id="a_Node000005"><a xlink:href="../../d4/d8e/SDL__surface_8c.html#af5aa021ea1c9fde2c52baa1363327d87" target="_top" xlink:title=" ">
<polygon fill="white" stroke="#666666" points="825.12,-152 727.38,-152 727.38,-132 825.12,-132 825.12,-152"/>
<text xml:space="preserve" text-anchor="middle" x="776.25" y="-138.5" font-family="Helvetica,sans-Serif" font-size="10.00">SDL_ClearSurface</text>
</a>
</g>
</g>
<!-- Node3&#45;&gt;Node5 -->
<g id="edge4_Node000003_Node000005" class="edge">
<title>Node3&#45;&gt;Node5</title>
<g id="a_edge4_Node000003_Node000005"><a xlink:title=" ">
<path fill="none" stroke="#63b8ff" d="M900.48,-141.36C875.54,-141.49 848.04,-141.63 825.36,-141.75"/>
<polygon fill="#63b8ff" stroke="#63b8ff" points="900.24,-144.86 910.22,-141.31 900.2,-137.86 900.24,-144.86"/>
</a>
</g>
</g>
<!-- Node6 -->
<g id="Node000006" class="node">
<title>Node6</title>
<g id="a_Node000006"><a xlink:href="../../d4/d8e/SDL__surface_8c.html#aa16878687639cda1ecd63fbf62d1c6bf" target="_top" xlink:title=" ">
<polygon fill="white" stroke="#666666" points="825.88,-96 726.62,-96 726.62,-76 825.88,-76 825.88,-96"/>
<text xml:space="preserve" text-anchor="middle" x="776.25" y="-82.5" font-family="Helvetica,sans-Serif" font-size="10.00">SDL_ScaleSurface</text>
</a>
</g>
</g>
<!-- Node3&#45;&gt;Node6 -->
<g id="edge6_Node000003_Node000006" class="edge">
<title>Node3&#45;&gt;Node6</title>
<g id="a_edge6_Node000003_Node000006"><a xlink:title=" ">
<path fill="none" stroke="#63b8ff" d="M917.29,-127.75C908.9,-125.55 900.32,-123.26 892.25,-121 864.31,-113.18 832.81,-103.54 809.85,-96.35"/>
<polygon fill="#63b8ff" stroke="#63b8ff" points="916.15,-131.06 926.71,-130.18 917.9,-124.29 916.15,-131.06"/>
</a>
</g>
</g>
<!-- Node5&#45;&gt;Node5 -->
<g id="edge5_Node000005_Node000005" class="edge">
<title>Node5&#45;&gt;Node5</title>
<g id="a_edge5_Node000005_Node000005"><a xlink:title=" ">
<path fill="none" stroke="#63b8ff" d="M807.64,-163.11C803.9,-167.14 793.43,-170 776.25,-170 745.7,-170 736.39,-160.98 748.33,-152.34"/>
<polygon fill="#63b8ff" stroke="#63b8ff" points="811.03,-162.23 804.64,-153.78 804.37,-164.37 811.03,-162.23"/>
</a>
</g>
</g>
<!-- Node6&#45;&gt;Node6 -->
<g id="edge8_Node000006_Node000006" class="edge">
<title>Node6&#45;&gt;Node6</title>
<g id="a_edge8_Node000006_Node000006"><a xlink:title=" ">
<path fill="none" stroke="#63b8ff" d="M807.64,-107.11C803.9,-111.14 793.43,-114 776.25,-114 745.7,-114 736.39,-104.98 748.33,-96.34"/>
<polygon fill="#63b8ff" stroke="#63b8ff" points="811.03,-106.23 804.64,-97.78 804.37,-108.37 811.03,-106.23"/>
</a>
</g>
</g>
<!-- Node7 -->
<g id="Node000007" class="node">
<title>Node7</title>
<g id="a_Node000007"><a xlink:href="../../d4/d8e/SDL__surface_8c.html#acb7a1f4494f58df920f4739ee788ff49" target="_top" xlink:title=" ">
<polygon fill="white" stroke="#666666" points="659.12,-96 541.88,-96 541.88,-76 659.12,-76 659.12,-96"/>
<text xml:space="preserve" text-anchor="middle" x="600.5" y="-82.5" font-family="Helvetica,sans-Serif" font-size="10.00">SDL_GetSurfaceImage</text>
</a>
</g>
</g>
<!-- Node6&#45;&gt;Node7 -->
<g id="edge7_Node000006_Node000007" class="edge">
<title>Node6&#45;&gt;Node7</title>
<g id="a_edge7_Node000006_Node000007"><a xlink:title=" ">
<path fill="none" stroke="#63b8ff" d="M715.13,-86C697.12,-86 677.41,-86 659.53,-86"/>
<polygon fill="#63b8ff" stroke="#63b8ff" points="714.88,-89.5 724.88,-86 714.87,-82.5 714.88,-89.5"/>
</a>
</g>
</g>
<!-- Node10 -->
<g id="Node000010" class="node">
<title>Node10</title>
<g id="a_Node000010"><a xlink:href="../../dd/df3/SDL__render_8c.html#a659ed30d6b429f74931157face78f0bb" target="_top" xlink:title=" ">
<polygon fill="white" stroke="#666666" points="1050.75,-58 892.25,-58 892.25,-38 1050.75,-38 1050.75,-58"/>
<text xml:space="preserve" text-anchor="middle" x="971.5" y="-44.5" font-family="Helvetica,sans-Serif" font-size="10.00">SDL_CreateTextureFromSurface</text>
</a>
</g>
</g>
<!-- Node9&#45;&gt;Node10 -->
<g id="edge12_Node000009_Node000010" class="edge">
<title>Node9&#45;&gt;Node10</title>
<g id="a_edge12_Node000009_Node000010"><a xlink:title=" ">
<path fill="none" stroke="#63b8ff" d="M1074.96,-49.59C1066.93,-49.46 1058.85,-49.34 1050.94,-49.22"/>
<polygon fill="#63b8ff" stroke="#63b8ff" points="1074.69,-53.08 1084.74,-49.74 1074.79,-46.08 1074.69,-53.08"/>
</a>
</g>
</g>
<!-- Node11 -->
<g id="Node000011" class="node">
<title>Node11</title>
<g id="a_Node000011"><a xlink:href="../../dd/df3/SDL__render_8c.html#a97cf2e1e2e704b4c9d9969fde83ff9b5" target="_top" xlink:title=" ">
<polygon fill="white" stroke="#666666" points="833.75,-58 718.75,-58 718.75,-38 833.75,-38 833.75,-58"/>
<text xml:space="preserve" text-anchor="middle" x="776.25" y="-44.5" font-family="Helvetica,sans-Serif" font-size="10.00">CreateDebugTextAtlas</text>
</a>
</g>
</g>
<!-- Node10&#45;&gt;Node11 -->
<g id="edge13_Node000010_Node000011" class="edge">
<title>Node10&#45;&gt;Node11</title>
<g id="a_edge13_Node000010_Node000011"><a xlink:title=" ">
<path fill="none" stroke="#63b8ff" d="M880.48,-48C864.71,-48 848.7,-48 834.15,-48"/>
<polygon fill="#63b8ff" stroke="#63b8ff" points="880.38,-51.5 890.38,-48 880.38,-44.5 880.38,-51.5"/>
</a>
</g>
</g>
<!-- Node14 -->
<g id="Node000014" class="node">
<title>Node14</title>
<g id="a_Node000014"><a xlink:href="../../dd/df3/SDL__render_8c.html#a00ff4c00fc3f0f1cd18c189c47362fe8" target="_top" xlink:title=" ">
<polygon fill="white" stroke="#666666" points="856.25,-20 696.25,-20 696.25,0 856.25,0 856.25,-20"/>
<text xml:space="preserve" text-anchor="middle" x="776.25" y="-6.5" font-family="Helvetica,sans-Serif" font-size="10.00">SDL_RenderApplyWindowShape</text>
</a>
</g>
</g>
<!-- Node10&#45;&gt;Node14 -->
<g id="edge16_Node000010_Node000014" class="edge">
<title>Node10&#45;&gt;Node14</title>
<g id="a_edge16_Node000010_Node000014"><a xlink:title=" ">
<path fill="none" stroke="#63b8ff" d="M906.13,-35.34C881.55,-30.51 853.82,-25.06 830.39,-20.45"/>
<polygon fill="#63b8ff" stroke="#63b8ff" points="905.21,-38.73 915.7,-37.22 906.56,-31.86 905.21,-38.73"/>
</a>
</g>
</g>
<!-- Node12 -->
<g id="Node000012" class="node">
<title>Node12</title>
<g id="a_Node000012"><a xlink:href="../../dd/df3/SDL__render_8c.html#abea8c4ab0178e48c260dbf830cf7fd17" target="_top" xlink:title=" ">
<polygon fill="white" stroke="#666666" points="660.25,-58 540.75,-58 540.75,-38 660.25,-38 660.25,-58"/>
<text xml:space="preserve" text-anchor="middle" x="600.5" y="-44.5" font-family="Helvetica,sans-Serif" font-size="10.00">SDL_RenderDebugText</text>
</a>
</g>
</g>
<!-- Node11&#45;&gt;Node12 -->
<g id="edge14_Node000011_Node000012" class="edge">
<title>Node11&#45;&gt;Node12</title>
<g id="a_edge14_Node000011_Node000012"><a xlink:title=" ">
<path fill="none" stroke="#63b8ff" d="M706.86,-48C691.57,-48 675.48,-48 660.61,-48"/>
<polygon fill="#63b8ff" stroke="#63b8ff" points="706.84,-51.5 716.84,-48 706.84,-44.5 706.84,-51.5"/>
</a>
</g>
</g>
<!-- Node13 -->
<g id="Node000013" class="node">
<title>Node13</title>
<g id="a_Node000013"><a xlink:href="../../dd/df3/SDL__render_8c.html#a9088b0bec7523287068b9391ab923dc8" target="_top" xlink:title=" ">
<polygon fill="white" stroke="#666666" points="504.75,-58 354.5,-58 354.5,-38 504.75,-38 504.75,-58"/>
<text xml:space="preserve" text-anchor="middle" x="429.62" y="-44.5" font-family="Helvetica,sans-Serif" font-size="10.00">SDL_RenderDebugTextFormat</text>
</a>
</g>
</g>
<!-- Node12&#45;&gt;Node13 -->
<g id="edge15_Node000012_Node000013" class="edge">
<title>Node12&#45;&gt;Node13</title>
<g id="a_edge15_Node000012_Node000013"><a xlink:title=" ">
<path fill="none" stroke="#63b8ff" d="M529.01,-48C521.11,-48 513.04,-48 505.1,-48"/>
<polygon fill="#63b8ff" stroke="#63b8ff" points="528.92,-51.5 538.92,-48 528.92,-44.5 528.92,-51.5"/>
</a>
</g>
</g>
<!-- Node15 -->
<g id="Node000015" class="node">
<title>Node15</title>
<g id="a_Node000015"><a xlink:href="../../dd/df3/SDL__render_8c.html#a0e1304d4ab1c78d549d9018cda3a85d4" target="_top" xlink:title=" ">
<polygon fill="white" stroke="#666666" points="653.5,-20 547.5,-20 547.5,0 653.5,0 653.5,-20"/>
<text xml:space="preserve" text-anchor="middle" x="600.5" y="-6.5" font-family="Helvetica,sans-Serif" font-size="10.00">SDL_RenderPresent</text>
</a>
</g>
</g>
<!-- Node14&#45;&gt;Node15 -->
<g id="edge17_Node000014_Node000015" class="edge">
<title>Node14&#45;&gt;Node15</title>
<g id="a_edge17_Node000014_Node000015"><a xlink:title=" ">
<path fill="none" stroke="#63b8ff" d="M684.56,-10C674.02,-10 663.55,-10 653.78,-10"/>
<polygon fill="#63b8ff" stroke="#63b8ff" points="684.49,-13.5 694.49,-10 684.49,-6.5 684.49,-13.5"/>
</a>
</g>
</g>
<!-- Node16 -->
<g id="Node000016" class="node">
<title>Node16</title>
<g id="a_Node000016"><a xlink:href="../../d6/d3d/SDL__video_8c.html#af9c2e408ee20cc71dbff39d4fb0f7594" target="_top" xlink:title=" ">
<polygon fill="white" stroke="#666666" points="499.5,-20 359.75,-20 359.75,0 499.5,0 499.5,-20"/>
<text xml:space="preserve" text-anchor="middle" x="429.62" y="-6.5" font-family="Helvetica,sans-Serif" font-size="10.00">SDL_UpdateWindowTexture</text>
</a>
</g>
</g>
<!-- Node15&#45;&gt;Node16 -->
<g id="edge18_Node000015_Node000016" class="edge">
<title>Node15&#45;&gt;Node16</title>
<g id="a_edge18_Node000015_Node000016"><a xlink:title=" ">
<path fill="none" stroke="#63b8ff" d="M536.29,-10C524.42,-10 511.95,-10 499.91,-10"/>
<polygon fill="#63b8ff" stroke="#63b8ff" points="535.94,-13.5 545.94,-10 535.94,-6.5 535.94,-13.5"/>
</a>
</g>
</g>
<!-- Node17 -->
<g id="Node000017" class="node">
<title>Node17</title>
<g id="a_Node000017"><a xlink:href="../../d6/d3d/SDL__video_8c.html#ae6c55eb5cc6ca81ba6faa17eab3af85b" target="_top" xlink:title=" ">
<polygon fill="white" stroke="#666666" points="318.5,-20 161.5,-20 161.5,0 318.5,0 318.5,-20"/>
<text xml:space="preserve" text-anchor="middle" x="240" y="-6.5" font-family="Helvetica,sans-Serif" font-size="10.00">SDL_CreateWindowFramebuffer</text>
</a>
</g>
</g>
<!-- Node16&#45;&gt;Node17 -->
<g id="edge19_Node000016_Node000017" class="edge">
<title>Node16&#45;&gt;Node17</title>
<g id="a_edge19_Node000016_Node000017"><a xlink:title=" ">
<path fill="none" stroke="#63b8ff" d="M348.06,-10C338.39,-10 328.53,-10 318.9,-10"/>
<polygon fill="#63b8ff" stroke="#63b8ff" points="347.78,-13.5 357.78,-10 347.78,-6.5 347.78,-13.5"/>
</a>
</g>
</g>
<!-- Node18 -->
<g id="Node000018" class="node">
<title>Node18</title>
<g id="a_Node000018"><a xlink:href="../../d6/d3d/SDL__video_8c.html#a155d3f01bb23f59e2c724973e020ebe6" target="_top" xlink:title=" ">
<polygon fill="white" stroke="#666666" points="125.5,-20 0,-20 0,0 125.5,0 125.5,-20"/>
<text xml:space="preserve" text-anchor="middle" x="62.75" y="-6.5" font-family="Helvetica,sans-Serif" font-size="10.00">SDL_GetWindowSurface</text>
</a>
</g>
</g>
<!-- Node17&#45;&gt;Node18 -->
<g id="edge20_Node000017_Node000018" class="edge">
<title>Node17&#45;&gt;Node18</title>
<g id="a_edge20_Node000017_Node000018"><a xlink:title=" ">
<path fill="none" stroke="#63b8ff" d="M149.74,-10C141.68,-10 133.64,-10 125.89,-10"/>
<polygon fill="#63b8ff" stroke="#63b8ff" points="149.6,-13.5 159.6,-10 149.6,-6.5 149.6,-13.5"/>
</a>
</g>
</g>
</g>
</svg>

<g id="navigator" transform="translate(0 0)" fill="#404254">
  <rect fill="#f2f5e9" fill-opacity="0.5" stroke="#606060" stroke-width=".5" x="0" y="0" width="60" height="60"/>
  <use id="zoomplus" xlink:href="#zoomPlus" x="17" y="9" onmousedown="handleZoom(evt,'in')"/>
  <use id="zoomminus" xlink:href="#zoomMin" x="42" y="9" onmousedown="handleZoom(evt,'out')"/>
  <use id="reset" xlink:href="#resetDef" x="30" y="36" onmousedown="handleReset()"/>
   <use id="arrowup" xlink:href="#arrowUp" x="0" y="0" onmousedown="handlePan(0,-1)"/>
  <use id="arrowright" xlink:href="#arrowRight" x="0" y="0" onmousedown="handlePan(1,0)"/>
  <use id="arrowdown" xlink:href="#arrowDown" x="0" y="0" onmousedown="handlePan(0,1)"/>
  <use id="arrowleft" xlink:href="#arrowLeft" x="0" y="0" onmousedown="handlePan(-1,0)"/>
</g>
<svg viewBox="0 0 15 15" width="100%" height="30px" preserveAspectRatio="xMaxYMin meet">
 <g id="arrow_out" transform="scale(0.3 0.3)">
  <a xlink:href="SDL__surface_8h_a636f1ae748fdb5c6e86d05b8b33ce04f_icgraph_org.svg" target="_base">
   <rect id="button" ry="5" rx="5" y="6" x="6" height="38" width="38"
        fill="#f2f5e9" fill-opacity="0.5" stroke="#606060" stroke-width="1.0"/>
   <path id="arrow"
     d="M 11.500037,31.436501 C 11.940474,20.09759 22.043105,11.32322 32.158766,21.979434 L 37.068811,17.246167 C 37.068811,17.246167 37.088388,32 37.088388,32 L 22.160133,31.978069 C 22.160133,31.978069 26.997745,27.140456 26.997745,27.140456 C 18.528582,18.264221 13.291696,25.230495 11.500037,31.436501 z"
     style="fill:#404040;"/>
  </a>
 </g>
</svg>

<style type='text/css'>
<![CDATA[
[data-mouse-over-selected='false'] { opacity: 0.7; }
[data-mouse-over-selected='true']  { opacity: 1.0; }
]]>
</style>
<script type="application/ecmascript"><![CDATA[
document.addEventListener('DOMContentLoaded', (event) => {
  highlightEdges();
  highlightAdjacentNodes();
});
]]></script>
</svg>
