<?xml version="1.0" encoding="UTF-8" standalone="no"?>
<!DOCTYPE svg PUBLIC "-//W3C//DTD SVG 1.1//EN"
 "http://www.w3.org/Graphics/SVG/1.1/DTD/svg11.dtd">
<!-- Generated by graphviz version 13.1.0 (20250701.0955)
 -->
<!-- Title: SDL_MapSurfaceRGBA Pages: 1 -->
<svg width="281pt" height="84pt"
 viewBox="0.00 0.00 281.00 84.00" xmlns="http://www.w3.org/2000/svg" xmlns:xlink="http://www.w3.org/1999/xlink">
<g id="graph0" class="graph" transform="scale(1 1) rotate(0) translate(4 80)">
<title>SDL_MapSurfaceRGBA</title>
<!-- Node1 -->
<g id="Node000001" class="node">
<title>Node1</title>
<g id="a_Node000001"><a xlink:title=" ">
<polygon fill="#999999" stroke="#666666" points="272.75,-39 151,-39 151,-19 272.75,-19 272.75,-39"/>
<text xml:space="preserve" text-anchor="middle" x="211.88" y="-25.5" font-family="Helvetica,sans-Serif" font-size="10.00">SDL_MapSurfaceRGBA</text>
</a>
</g>
</g>
<!-- Node2 -->
<g id="Node000002" class="node">
<title>Node2</title>
<g id="a_Node000002"><a xlink:href="../../d4/d8e/SDL__surface_8c.html#af5aa021ea1c9fde2c52baa1363327d87" target="_top" xlink:title=" ">
<polygon fill="white" stroke="#666666" points="106.38,-58 8.62,-58 8.62,-38 106.38,-38 106.38,-58"/>
<text xml:space="preserve" text-anchor="middle" x="57.5" y="-44.5" font-family="Helvetica,sans-Serif" font-size="10.00">SDL_ClearSurface</text>
</a>
</g>
</g>
<!-- Node1&#45;&gt;Node2 -->
<g id="edge1_Node000001_Node000002" class="edge">
<title>Node1&#45;&gt;Node2</title>
<g id="a_edge1_Node000001_Node000002"><a xlink:title=" ">
<path fill="none" stroke="#63b8ff" d="M139.55,-37.89C128.37,-39.29 117.05,-40.7 106.56,-42.01"/>
<polygon fill="#63b8ff" stroke="#63b8ff" points="139.66,-41.41 149.15,-36.7 138.79,-34.46 139.66,-41.41"/>
</a>
</g>
</g>
<!-- Node3 -->
<g id="Node000003" class="node">
<title>Node3</title>
<g id="a_Node000003"><a xlink:href="../../d4/d8e/SDL__surface_8c.html#a3d916e4a1cc5ad5dfa735936f4a7a305" target="_top" xlink:title=" ">
<polygon fill="white" stroke="#666666" points="115,-20 0,-20 0,0 115,0 115,-20"/>
<text xml:space="preserve" text-anchor="middle" x="57.5" y="-6.5" font-family="Helvetica,sans-Serif" font-size="10.00">SDL_MapSurfaceRGB</text>
</a>
</g>
</g>
<!-- Node1&#45;&gt;Node3 -->
<g id="edge3_Node000001_Node000003" class="edge">
<title>Node1&#45;&gt;Node3</title>
<g id="a_edge3_Node000001_Node000003"><a xlink:title=" ">
<path fill="none" stroke="#63b8ff" d="M139.34,-20.08C131.28,-19.07 123.15,-18.06 115.31,-17.08"/>
<polygon fill="#63b8ff" stroke="#63b8ff" points="138.79,-23.54 149.15,-21.3 139.66,-16.59 138.79,-23.54"/>
</a>
</g>
</g>
<!-- Node2&#45;&gt;Node2 -->
<g id="edge2_Node000002_Node000002" class="edge">
<title>Node2&#45;&gt;Node2</title>
<g id="a_edge2_Node000002_Node000002"><a xlink:title=" ">
<path fill="none" stroke="#63b8ff" d="M84.78,-69.44C81.27,-73.3 72.18,-76 57.5,-76 30.67,-76 22.49,-66.98 32.97,-58.34"/>
<polygon fill="#63b8ff" stroke="#63b8ff" points="88.2,-68.67 82.39,-59.81 81.41,-70.36 88.2,-68.67"/>
</a>
</g>
</g>
</g>
</svg>
