<?xml version="1.0" encoding="UTF-8" standalone="no"?>
<!DOCTYPE svg PUBLIC "-//W3C//DTD SVG 1.1//EN"
 "http://www.w3.org/Graphics/SVG/1.1/DTD/svg11.dtd">
<!-- Generated by graphviz version 13.1.0 (20250701.0955)
 -->
<!-- Title: SDL&#45;main/src/haptic/SDL_haptic_c.h Pages: 1 -->
<svg width="238pt" height="108pt"
 viewBox="0.00 0.00 238.00 108.00" xmlns="http://www.w3.org/2000/svg" xmlns:xlink="http://www.w3.org/1999/xlink">
<g id="graph0" class="graph" transform="scale(1 1) rotate(0) translate(4 104)">
<title>SDL&#45;main/src/haptic/SDL_haptic_c.h</title>
<!-- Node1 -->
<g id="Node000001" class="node">
<title>Node1</title>
<g id="a_Node000001"><a xlink:title=" ">
<polygon fill="#999999" stroke="#666666" points="168,-100 62.75,-100 62.75,-68 168,-68 168,-100"/>
<text xml:space="preserve" text-anchor="start" x="70.75" y="-86.5" font-family="Helvetica,sans-Serif" font-size="10.00">SDL&#45;main/src/haptic</text>
<text xml:space="preserve" text-anchor="middle" x="115.38" y="-74.5" font-family="Helvetica,sans-Serif" font-size="10.00">/SDL_haptic_c.h</text>
</a>
</g>
</g>
<!-- Node2 -->
<g id="Node000002" class="node">
<title>Node2</title>
<g id="a_Node000002"><a xlink:href="../../df/d78/SDL_8c.html" target="_top" xlink:title=" ">
<polygon fill="white" stroke="#666666" points="106.75,-26 0,-26 0,-6 106.75,-6 106.75,-26"/>
<text xml:space="preserve" text-anchor="middle" x="53.38" y="-12.5" font-family="Helvetica,sans-Serif" font-size="10.00">SDL&#45;main/src/SDL.c</text>
</a>
</g>
</g>
<!-- Node1&#45;&gt;Node2 -->
<g id="edge1_Node000001_Node000002" class="edge">
<title>Node1&#45;&gt;Node2</title>
<g id="a_edge1_Node000001_Node000002"><a xlink:title=" ">
<path fill="none" stroke="#63b8ff" d="M93.18,-59.37C82.44,-47.95 70.17,-34.88 62.13,-26.32"/>
<polygon fill="#63b8ff" stroke="#63b8ff" points="90.56,-61.7 99.96,-66.59 95.66,-56.9 90.56,-61.7"/>
</a>
</g>
</g>
<!-- Node3 -->
<g id="Node000003" class="node">
<title>Node3</title>
<g id="a_Node000003"><a xlink:href="../../dd/dd3/SDL__haptic_8c.html" target="_top" xlink:title=" ">
<polygon fill="white" stroke="#666666" points="230,-32 124.75,-32 124.75,0 230,0 230,-32"/>
<text xml:space="preserve" text-anchor="start" x="132.75" y="-18.5" font-family="Helvetica,sans-Serif" font-size="10.00">SDL&#45;main/src/haptic</text>
<text xml:space="preserve" text-anchor="middle" x="177.38" y="-6.5" font-family="Helvetica,sans-Serif" font-size="10.00">/SDL_haptic.c</text>
</a>
</g>
</g>
<!-- Node1&#45;&gt;Node3 -->
<g id="edge2_Node000001_Node000003" class="edge">
<title>Node1&#45;&gt;Node3</title>
<g id="a_edge2_Node000001_Node000003"><a xlink:title=" ">
<path fill="none" stroke="#63b8ff" d="M137.52,-59.43C146.02,-50.38 155.5,-40.29 163.07,-32.22"/>
<polygon fill="#63b8ff" stroke="#63b8ff" points="135.09,-56.9 130.79,-66.59 140.19,-61.7 135.09,-56.9"/>
</a>
</g>
</g>
</g>
</svg>
