<?xml version="1.0" encoding="UTF-8" standalone="no"?>
<!DOCTYPE svg PUBLIC "-//W3C//DTD SVG 1.1//EN"
 "http://www.w3.org/Graphics/SVG/1.1/DTD/svg11.dtd">
<!-- Generated by graphviz version 13.1.0 (20250701.0955)
 -->
<!-- Title: VkBindSparseInfo Pages: 1 -->
<svg width="810pt" height="157pt"
 viewBox="0.00 0.00 810.00 157.00" xmlns="http://www.w3.org/2000/svg" xmlns:xlink="http://www.w3.org/1999/xlink">
<g id="graph0" class="graph" transform="scale(1 1) rotate(0) translate(4 153)">
<title>VkBindSparseInfo</title>
<!-- Node1 -->
<g id="Node000001" class="node">
<title>Node1</title>
<g id="a_Node000001"><a xlink:title=" ">
<polygon fill="#999999" stroke="#666666" points="802,-105 707.25,-105 707.25,-85 802,-85 802,-105"/>
<text xml:space="preserve" text-anchor="middle" x="754.62" y="-91.5" font-family="Helvetica,sans-Serif" font-size="10.00">VkBindSparseInfo</text>
</a>
</g>
</g>
<!-- Node2 -->
<g id="Node000002" class="node">
<title>Node2</title>
<g id="a_Node000002"><a xlink:href="../../d9/d42/structVkSparseBufferMemoryBindInfo.html" target="_top" xlink:title=" ">
<polygon fill="white" stroke="#666666" points="573.75,-149 418.25,-149 418.25,-129 573.75,-129 573.75,-149"/>
<text xml:space="preserve" text-anchor="middle" x="496" y="-135.5" font-family="Helvetica,sans-Serif" font-size="10.00">VkSparseBufferMemoryBindInfo</text>
</a>
</g>
</g>
<!-- Node2&#45;&gt;Node1 -->
<g id="edge1_Node000001_Node000002" class="edge">
<title>Node2&#45;&gt;Node1</title>
<g id="a_edge1_Node000001_Node000002"><a xlink:title=" ">
<path fill="none" stroke="#9a32cd" stroke-dasharray="5,2" d="M585.63,-131.25C618.4,-127.52 655.72,-122.24 689.25,-115 700.69,-112.53 713.01,-108.94 723.79,-105.48"/>
<polygon fill="#9a32cd" stroke="#9a32cd" points="585.3,-127.77 575.74,-132.35 586.06,-134.73 585.3,-127.77"/>
</a>
</g>
<text xml:space="preserve" text-anchor="start" x="613.12" y="-135.63" font-family="Helvetica,sans-Serif" font-size="10.00" fill="grey">pBufferBinds</text>
</g>
<!-- Node3 -->
<g id="Node000003" class="node">
<title>Node3</title>
<g id="a_Node000003"><a xlink:href="../../de/d01/structVkSparseMemoryBind.html" target="_top" xlink:title=" ">
<polygon fill="white" stroke="#666666" points="332,-127 218.5,-127 218.5,-107 332,-107 332,-127"/>
<text xml:space="preserve" text-anchor="middle" x="275.25" y="-113.5" font-family="Helvetica,sans-Serif" font-size="10.00">VkSparseMemoryBind</text>
</a>
</g>
</g>
<!-- Node3&#45;&gt;Node2 -->
<g id="edge2_Node000002_Node000003" class="edge">
<title>Node3&#45;&gt;Node2</title>
<g id="a_edge2_Node000002_Node000003"><a xlink:title=" ">
<path fill="none" stroke="#9a32cd" stroke-dasharray="5,2" d="M343.59,-123.77C367.15,-126.14 393.78,-128.82 418.06,-131.26"/>
<polygon fill="#9a32cd" stroke="#9a32cd" points="344.11,-120.31 333.81,-122.79 343.4,-127.27 344.11,-120.31"/>
</a>
</g>
<text xml:space="preserve" text-anchor="start" x="366.5" y="-134.82" font-family="Helvetica,sans-Serif" font-size="10.00" fill="grey">pBinds</text>
</g>
<!-- Node4 -->
<g id="Node000004" class="node">
<title>Node4</title>
<g id="a_Node000004"><a xlink:href="../../df/d72/structVkSparseImageOpaqueMemoryBindInfo.html" target="_top" xlink:title=" ">
<polygon fill="white" stroke="#666666" points="573.38,-111 418.62,-111 418.62,-79 573.38,-79 573.38,-111"/>
<text xml:space="preserve" text-anchor="start" x="426.62" y="-97.5" font-family="Helvetica,sans-Serif" font-size="10.00">VkSparseImageOpaqueMemory</text>
<text xml:space="preserve" text-anchor="middle" x="496" y="-85.5" font-family="Helvetica,sans-Serif" font-size="10.00">BindInfo</text>
</a>
</g>
</g>
<!-- Node3&#45;&gt;Node4 -->
<g id="edge4_Node000004_Node000003" class="edge">
<title>Node3&#45;&gt;Node4</title>
<g id="a_edge4_Node000004_Node000003"><a xlink:title=" ">
<path fill="none" stroke="#9a32cd" stroke-dasharray="5,2" d="M343.69,-106.41C350.37,-105.52 357.06,-104.7 363.5,-104 381.24,-102.07 400.38,-100.49 418.42,-99.21"/>
<polygon fill="#9a32cd" stroke="#9a32cd" points="343.42,-102.91 333.99,-107.74 344.37,-109.85 343.42,-102.91"/>
</a>
</g>
<text xml:space="preserve" text-anchor="start" x="366.5" y="-109.5" font-family="Helvetica,sans-Serif" font-size="10.00" fill="grey">pBinds</text>
</g>
<!-- Node4&#45;&gt;Node1 -->
<g id="edge3_Node000001_Node000004" class="edge">
<title>Node4&#45;&gt;Node1</title>
<g id="a_edge3_Node000001_Node000004"><a xlink:title=" ">
<path fill="none" stroke="#9a32cd" stroke-dasharray="5,2" d="M585,-95C625.86,-95 672.8,-95 706.76,-95"/>
<polygon fill="#9a32cd" stroke="#9a32cd" points="585.16,-91.5 575.16,-95 585.16,-98.5 585.16,-91.5"/>
</a>
</g>
<text xml:space="preserve" text-anchor="start" x="595.5" y="-100.5" font-family="Helvetica,sans-Serif" font-size="10.00" fill="grey">pImageOpaqueBinds</text>
</g>
<!-- Node5 -->
<g id="Node000005" class="node">
<title>Node5</title>
<g id="a_Node000005"><a xlink:href="../../d4/d58/structVkSparseImageMemoryBindInfo.html" target="_top" xlink:title=" ">
<polygon fill="white" stroke="#666666" points="574.5,-61 417.5,-61 417.5,-41 574.5,-41 574.5,-61"/>
<text xml:space="preserve" text-anchor="middle" x="496" y="-47.5" font-family="Helvetica,sans-Serif" font-size="10.00">VkSparseImageMemoryBindInfo</text>
</a>
</g>
</g>
<!-- Node5&#45;&gt;Node1 -->
<g id="edge5_Node000001_Node000005" class="edge">
<title>Node5&#45;&gt;Node1</title>
<g id="a_edge5_Node000001_Node000005"><a xlink:title=" ">
<path fill="none" stroke="#9a32cd" stroke-dasharray="5,2" d="M586.17,-57.17C618.86,-60.49 655.98,-65.5 689.25,-73 702.04,-75.88 715.84,-80.4 727.37,-84.6"/>
<polygon fill="#9a32cd" stroke="#9a32cd" points="586.61,-53.7 576.32,-56.22 585.93,-60.67 586.61,-53.7"/>
</a>
</g>
<text xml:space="preserve" text-anchor="start" x="612.38" y="-78.5" font-family="Helvetica,sans-Serif" font-size="10.00" fill="grey">pImageBinds</text>
</g>
<!-- Node6 -->
<g id="Node000006" class="node">
<title>Node6</title>
<g id="a_Node000006"><a xlink:href="../../d7/d01/structVkSparseImageMemoryBind.html" target="_top" xlink:title=" ">
<polygon fill="white" stroke="#666666" points="345.5,-61 205,-61 205,-41 345.5,-41 345.5,-61"/>
<text xml:space="preserve" text-anchor="middle" x="275.25" y="-47.5" font-family="Helvetica,sans-Serif" font-size="10.00">VkSparseImageMemoryBind</text>
</a>
</g>
</g>
<!-- Node6&#45;&gt;Node5 -->
<g id="edge6_Node000005_Node000006" class="edge">
<title>Node6&#45;&gt;Node5</title>
<g id="a_edge6_Node000005_Node000006"><a xlink:title=" ">
<path fill="none" stroke="#9a32cd" stroke-dasharray="5,2" d="M357.17,-51C376.82,-51 397.8,-51 417.31,-51"/>
<polygon fill="#9a32cd" stroke="#9a32cd" points="357.28,-47.5 347.28,-51 357.28,-54.5 357.28,-47.5"/>
</a>
</g>
<text xml:space="preserve" text-anchor="start" x="366.5" y="-56.5" font-family="Helvetica,sans-Serif" font-size="10.00" fill="grey">pBinds</text>
</g>
<!-- Node7 -->
<g id="Node000007" class="node">
<title>Node7</title>
<g id="a_Node000007"><a xlink:href="../../d7/d32/structVkImageSubresource.html" target="_top" xlink:title=" ">
<polygon fill="white" stroke="#666666" points="109.75,-102 0,-102 0,-82 109.75,-82 109.75,-102"/>
<text xml:space="preserve" text-anchor="middle" x="54.88" y="-88.5" font-family="Helvetica,sans-Serif" font-size="10.00">VkImageSubresource</text>
</a>
</g>
</g>
<!-- Node7&#45;&gt;Node6 -->
<g id="edge7_Node000006_Node000007" class="edge">
<title>Node7&#45;&gt;Node6</title>
<g id="a_edge7_Node000006_Node000007"><a xlink:title=" ">
<path fill="none" stroke="#9a32cd" stroke-dasharray="5,2" d="M121.29,-81.66C142.31,-78.17 165.67,-74.11 187,-70 200.4,-67.42 214.89,-64.37 228.15,-61.47"/>
<polygon fill="#9a32cd" stroke="#9a32cd" points="121,-78.16 111.7,-83.24 122.14,-85.07 121,-78.16"/>
</a>
</g>
<text xml:space="preserve" text-anchor="start" x="130.75" y="-85.78" font-family="Helvetica,sans-Serif" font-size="10.00" fill="grey">subresource</text>
</g>
<!-- Node8 -->
<g id="Node000008" class="node">
<title>Node8</title>
<g id="a_Node000008"><a xlink:href="../../d7/d88/structVkOffset3D.html" target="_top" xlink:title=" ">
<polygon fill="white" stroke="#666666" points="88.38,-61 21.38,-61 21.38,-41 88.38,-41 88.38,-61"/>
<text xml:space="preserve" text-anchor="middle" x="54.88" y="-47.5" font-family="Helvetica,sans-Serif" font-size="10.00">VkOffset3D</text>
</a>
</g>
</g>
<!-- Node8&#45;&gt;Node6 -->
<g id="edge8_Node000006_Node000008" class="edge">
<title>Node8&#45;&gt;Node6</title>
<g id="a_edge8_Node000006_Node000008"><a xlink:title=" ">
<path fill="none" stroke="#9a32cd" stroke-dasharray="5,2" d="M99.94,-51C129.98,-51 170.37,-51 204.71,-51"/>
<polygon fill="#9a32cd" stroke="#9a32cd" points="100.08,-47.5 90.08,-51 100.08,-54.5 100.08,-47.5"/>
</a>
</g>
<text xml:space="preserve" text-anchor="start" x="145.38" y="-56.5" font-family="Helvetica,sans-Serif" font-size="10.00" fill="grey">offset</text>
</g>
<!-- Node9 -->
<g id="Node000009" class="node">
<title>Node9</title>
<g id="a_Node000009"><a xlink:href="../../d0/d02/structVkExtent3D.html" target="_top" xlink:title=" ">
<polygon fill="white" stroke="#666666" points="89.5,-20 20.25,-20 20.25,0 89.5,0 89.5,-20"/>
<text xml:space="preserve" text-anchor="middle" x="54.88" y="-6.5" font-family="Helvetica,sans-Serif" font-size="10.00">VkExtent3D</text>
</a>
</g>
</g>
<!-- Node9&#45;&gt;Node6 -->
<g id="edge9_Node000006_Node000009" class="edge">
<title>Node9&#45;&gt;Node6</title>
<g id="a_edge9_Node000006_Node000009"><a xlink:title=" ">
<path fill="none" stroke="#9a32cd" stroke-dasharray="5,2" d="M101.13,-15.39C126.49,-18.7 158.63,-23.38 187,-29 203.24,-32.22 220.99,-36.54 236.22,-40.5"/>
<polygon fill="#9a32cd" stroke="#9a32cd" points="101.86,-11.95 91.5,-14.16 100.98,-18.9 101.86,-11.95"/>
</a>
</g>
<text xml:space="preserve" text-anchor="start" x="143.88" y="-34.5" font-family="Helvetica,sans-Serif" font-size="10.00" fill="grey">extent</text>
</g>
</g>
</svg>
