<?xml version="1.0" encoding="UTF-8" standalone="no"?>
<!DOCTYPE svg PUBLIC "-//W3C//DTD SVG 1.1//EN"
 "http://www.w3.org/Graphics/SVG/1.1/DTD/svg11.dtd">
<!-- Generated by graphviz version 13.1.0 (20250701.0955)
 -->
<!-- Title: SDL_CleanupTLS Pages: 1 -->
<svg width="1058pt" height="123pt"
 viewBox="0.00 0.00 1058.00 123.00" xmlns="http://www.w3.org/2000/svg" xmlns:xlink="http://www.w3.org/1999/xlink">
<g id="graph0" class="graph" transform="scale(1 1) rotate(0) translate(4 119)">
<title>SDL_CleanupTLS</title>
<!-- Node1 -->
<g id="Node000001" class="node">
<title>Node1</title>
<g id="a_Node000001"><a xlink:title=" ">
<polygon fill="#999999" stroke="#666666" points="1049.5,-58 954.75,-58 954.75,-38 1049.5,-38 1049.5,-58"/>
<text xml:space="preserve" text-anchor="middle" x="1002.12" y="-44.5" font-family="Helvetica,sans-Serif" font-size="10.00">SDL_CleanupTLS</text>
</a>
</g>
</g>
<!-- Node2 -->
<g id="Node000002" class="node">
<title>Node2</title>
<g id="a_Node000002"><a xlink:href="../../de/de3/SDL__thread_8c.html#a0c79c1971ae4fc0934dfc00c4810262e" target="_top" xlink:title=" ">
<polygon fill="white" stroke="#666666" points="918.75,-77 821,-77 821,-57 918.75,-57 918.75,-77"/>
<text xml:space="preserve" text-anchor="middle" x="869.88" y="-63.5" font-family="Helvetica,sans-Serif" font-size="10.00">SDL_QuitTLSData</text>
</a>
</g>
</g>
<!-- Node1&#45;&gt;Node2 -->
<g id="edge1_Node000001_Node000002" class="edge">
<title>Node1&#45;&gt;Node2</title>
<g id="a_edge1_Node000001_Node000002"><a xlink:title=" ">
<path fill="none" stroke="#63b8ff" d="M943.18,-56.45C935.09,-57.63 926.84,-58.84 918.96,-59.99"/>
<polygon fill="#63b8ff" stroke="#63b8ff" points="943.58,-59.93 952.97,-55.02 942.57,-53 943.58,-59.93"/>
</a>
</g>
</g>
<!-- Node11 -->
<g id="Node000011" class="node">
<title>Node11</title>
<g id="a_Node000011"><a xlink:href="../../de/de3/SDL__thread_8c.html#a3efab294b703dce9517f640314fcee4a" target="_top" xlink:title=" ">
<polygon fill="white" stroke="#666666" points="914.25,-39 825.5,-39 825.5,-19 914.25,-19 914.25,-39"/>
<text xml:space="preserve" text-anchor="middle" x="869.88" y="-25.5" font-family="Helvetica,sans-Serif" font-size="10.00">SDL_RunThread</text>
</a>
</g>
</g>
<!-- Node1&#45;&gt;Node11 -->
<g id="edge11_Node000001_Node000011" class="edge">
<title>Node1&#45;&gt;Node11</title>
<g id="a_edge11_Node000001_Node000011"><a xlink:title=" ">
<path fill="none" stroke="#63b8ff" d="M943.3,-39.57C933.66,-38.16 923.81,-36.72 914.6,-35.38"/>
<polygon fill="#63b8ff" stroke="#63b8ff" points="942.57,-43 952.97,-40.98 943.58,-36.07 942.57,-43"/>
</a>
</g>
</g>
<!-- Node3 -->
<g id="Node000003" class="node">
<title>Node3</title>
<g id="a_Node000003"><a xlink:href="../../df/d78/SDL_8c.html#a652101eb891907f7e2d79adad7e59a6e" target="_top" xlink:title=" ">
<polygon fill="white" stroke="#666666" points="785,-77 675.25,-77 675.25,-57 785,-57 785,-77"/>
<text xml:space="preserve" text-anchor="middle" x="730.12" y="-63.5" font-family="Helvetica,sans-Serif" font-size="10.00">SDL_QuitMainThread</text>
</a>
</g>
</g>
<!-- Node2&#45;&gt;Node3 -->
<g id="edge2_Node000002_Node000003" class="edge">
<title>Node2&#45;&gt;Node3</title>
<g id="a_edge2_Node000002_Node000003"><a xlink:title=" ">
<path fill="none" stroke="#63b8ff" d="M809.45,-67C801.38,-67 793.13,-67 785.16,-67"/>
<polygon fill="#63b8ff" stroke="#63b8ff" points="809.18,-70.5 819.18,-67 809.18,-63.5 809.18,-70.5"/>
</a>
</g>
</g>
<!-- Node4 -->
<g id="Node000004" class="node">
<title>Node4</title>
<g id="a_Node000004"><a xlink:href="../../df/d78/SDL_8c.html#abf064fcc4a657a30db8eace18633f362" target="_top" xlink:title=" ">
<polygon fill="white" stroke="#666666" points="605.88,-77 547.12,-77 547.12,-57 605.88,-57 605.88,-77"/>
<text xml:space="preserve" text-anchor="middle" x="576.5" y="-63.5" font-family="Helvetica,sans-Serif" font-size="10.00">SDL_Quit</text>
</a>
</g>
</g>
<!-- Node3&#45;&gt;Node4 -->
<g id="edge3_Node000003_Node000004" class="edge">
<title>Node3&#45;&gt;Node4</title>
<g id="a_edge3_Node000003_Node000004"><a xlink:title=" ">
<path fill="none" stroke="#63b8ff" d="M663.52,-67C643.54,-67 622.59,-67 606.37,-67"/>
<polygon fill="#63b8ff" stroke="#63b8ff" points="663.3,-70.5 673.3,-67 663.3,-63.5 663.3,-70.5"/>
</a>
</g>
</g>
<!-- Node5 -->
<g id="Node000005" class="node">
<title>Node5</title>
<g id="a_Node000005"><a xlink:href="../../de/daf/classCSDLmain.html#a73bd9c42ac6916974009e508257e44ff" target="_top" xlink:title=" ">
<polygon fill="white" stroke="#666666" points="462.75,-115 369.5,-115 369.5,-95 462.75,-95 462.75,-115"/>
<text xml:space="preserve" text-anchor="middle" x="416.12" y="-101.5" font-family="Helvetica,sans-Serif" font-size="10.00">CSDLmain::RunL</text>
</a>
</g>
</g>
<!-- Node4&#45;&gt;Node5 -->
<g id="edge4_Node000004_Node000005" class="edge">
<title>Node4&#45;&gt;Node5</title>
<g id="a_edge4_Node000004_Node000005"><a xlink:title=" ">
<path fill="none" stroke="#63b8ff" d="M535.81,-76.52C512.99,-82 484.29,-88.88 460.83,-94.51"/>
<polygon fill="#63b8ff" stroke="#63b8ff" points="536.44,-79.97 545.35,-74.23 534.81,-73.16 536.44,-79.97"/>
</a>
</g>
</g>
<!-- Node6 -->
<g id="Node000006" class="node">
<title>Node6</title>
<g id="a_Node000006"><a xlink:href="../../d3/d6c/SDL__assert_8c.html#af146e7f66c4e41a24337c5b6943af0b0" target="_top" xlink:title=" ">
<polygon fill="white" stroke="#666666" points="468.75,-77 363.5,-77 363.5,-57 468.75,-57 468.75,-77"/>
<text xml:space="preserve" text-anchor="middle" x="416.12" y="-63.5" font-family="Helvetica,sans-Serif" font-size="10.00">SDL_AbortAssertion</text>
</a>
</g>
</g>
<!-- Node4&#45;&gt;Node6 -->
<g id="edge5_Node000004_Node000006" class="edge">
<title>Node4&#45;&gt;Node6</title>
<g id="a_edge5_Node000004_Node000006"><a xlink:title=" ">
<path fill="none" stroke="#63b8ff" d="M535.52,-67C515.33,-67 490.6,-67 468.97,-67"/>
<polygon fill="#63b8ff" stroke="#63b8ff" points="535.31,-70.5 545.31,-67 535.31,-63.5 535.31,-70.5"/>
</a>
</g>
</g>
<!-- Node8 -->
<g id="Node000008" class="node">
<title>Node8</title>
<g id="a_Node000008"><a xlink:href="../../d9/d78/SDL__main__callbacks_8c.html#a2e8bd250bb597fdf72c9da9d001181e7" target="_top" xlink:title=" ">
<polygon fill="white" stroke="#666666" points="477.75,-39 354.5,-39 354.5,-19 477.75,-19 477.75,-39"/>
<text xml:space="preserve" text-anchor="middle" x="416.12" y="-25.5" font-family="Helvetica,sans-Serif" font-size="10.00">SDL_QuitMainCallbacks</text>
</a>
</g>
</g>
<!-- Node4&#45;&gt;Node8 -->
<g id="edge7_Node000004_Node000008" class="edge">
<title>Node4&#45;&gt;Node8</title>
<g id="a_edge7_Node000004_Node000008"><a xlink:title=" ">
<path fill="none" stroke="#63b8ff" d="M535.81,-57.48C512.99,-52 484.29,-45.12 460.83,-39.49"/>
<polygon fill="#63b8ff" stroke="#63b8ff" points="534.81,-60.84 545.35,-59.77 536.44,-54.03 534.81,-60.84"/>
</a>
</g>
</g>
<!-- Node7 -->
<g id="Node000007" class="node">
<title>Node7</title>
<g id="a_Node000007"><a xlink:href="../../d3/d6c/SDL__assert_8c.html#a0c9a208493d6e9212cff2ab400242102" target="_top" xlink:title=" ">
<polygon fill="white" stroke="#666666" points="305.75,-77 194.5,-77 194.5,-57 305.75,-57 305.75,-77"/>
<text xml:space="preserve" text-anchor="middle" x="250.12" y="-63.5" font-family="Helvetica,sans-Serif" font-size="10.00">SDL_ReportAssertion</text>
</a>
</g>
</g>
<!-- Node6&#45;&gt;Node7 -->
<g id="edge6_Node000006_Node000007" class="edge">
<title>Node6&#45;&gt;Node7</title>
<g id="a_edge6_Node000006_Node000007"><a xlink:title=" ">
<path fill="none" stroke="#63b8ff" d="M351.89,-67C336.78,-67 320.78,-67 306.08,-67"/>
<polygon fill="#63b8ff" stroke="#63b8ff" points="351.72,-70.5 361.72,-67 351.72,-63.5 351.72,-70.5"/>
</a>
</g>
</g>
<!-- Node9 -->
<g id="Node000009" class="node">
<title>Node9</title>
<g id="a_Node000009"><a xlink:href="../../d0/d72/emscripten_2SDL__sysmain__callbacks_8c.html#ad2e127e4f44ae815197361e79da5bf88" target="_top" xlink:title=" ">
<polygon fill="white" stroke="#666666" points="318.5,-39 181.75,-39 181.75,-19 318.5,-19 318.5,-39"/>
<text xml:space="preserve" text-anchor="middle" x="250.12" y="-25.5" font-family="Helvetica,sans-Serif" font-size="10.00">EmscriptenInternalMainloop</text>
</a>
</g>
</g>
<!-- Node8&#45;&gt;Node9 -->
<g id="edge8_Node000008_Node000009" class="edge">
<title>Node8&#45;&gt;Node9</title>
<g id="a_edge8_Node000008_Node000009"><a xlink:title=" ">
<path fill="none" stroke="#63b8ff" d="M342.61,-29C334.71,-29 326.69,-29 318.86,-29"/>
<polygon fill="#63b8ff" stroke="#63b8ff" points="342.54,-32.5 352.54,-29 342.54,-25.5 342.54,-32.5"/>
</a>
</g>
</g>
<!-- Node10 -->
<g id="Node000010" class="node">
<title>Node10</title>
<g id="a_Node000010"><a xlink:href="../../dd/db5/generic_2SDL__sysmain__callbacks_8c.html#aa50e1897a91f2547b5f31125020220e2" target="_top" xlink:title=" ">
<polygon fill="white" stroke="#666666" points="145.75,-20 0,-20 0,0 145.75,0 145.75,-20"/>
<text xml:space="preserve" text-anchor="middle" x="72.88" y="-6.5" font-family="Helvetica,sans-Serif" font-size="10.00">SDL_EnterAppMainCallbacks</text>
</a>
</g>
</g>
<!-- Node8&#45;&gt;Node10 -->
<g id="edge10_Node000008_Node000010" class="edge">
<title>Node8&#45;&gt;Node10</title>
<g id="a_edge10_Node000008_Node000010"><a xlink:title=" ">
<path fill="none" stroke="#63b8ff" d="M360.45,-16.33C346.82,-13.71 332.19,-11.33 318.5,-10 260.7,-4.37 194.84,-4.76 146.04,-6.34"/>
<polygon fill="#63b8ff" stroke="#63b8ff" points="359.64,-19.74 370.14,-18.28 361.02,-12.88 359.64,-19.74"/>
</a>
</g>
</g>
<!-- Node9&#45;&gt;Node10 -->
<g id="edge9_Node000009_Node000010" class="edge">
<title>Node9&#45;&gt;Node10</title>
<g id="a_edge9_Node000009_Node000010"><a xlink:title=" ">
<path fill="none" stroke="#63b8ff" d="M170.14,-20.44C162.13,-19.57 154.03,-18.69 146.1,-17.83"/>
<polygon fill="#63b8ff" stroke="#63b8ff" points="169.55,-23.89 179.86,-21.49 170.3,-16.93 169.55,-23.89"/>
</a>
</g>
</g>
<!-- Node12 -->
<g id="Node000012" class="node">
<title>Node12</title>
<g id="a_Node000012"><a xlink:href="../../d4/d22/pthread_2SDL__systhread_8c.html#ac8d7a9b2e32d27a5325a68b379f299cd" target="_top" xlink:title=" ">
<polygon fill="white" stroke="#666666" points="762.12,-39 698.12,-39 698.12,-19 762.12,-19 762.12,-39"/>
<text xml:space="preserve" text-anchor="middle" x="730.12" y="-25.5" font-family="Helvetica,sans-Serif" font-size="10.00">RunThread</text>
</a>
</g>
</g>
<!-- Node11&#45;&gt;Node12 -->
<g id="edge12_Node000011_Node000012" class="edge">
<title>Node11&#45;&gt;Node12</title>
<g id="a_edge12_Node000011_Node000012"><a xlink:title=" ">
<path fill="none" stroke="#63b8ff" d="M813.96,-29C796.36,-29 777.49,-29 762.21,-29"/>
<polygon fill="#63b8ff" stroke="#63b8ff" points="813.78,-32.5 823.78,-29 813.78,-25.5 813.78,-32.5"/>
</a>
</g>
</g>
<!-- Node13 -->
<g id="Node000013" class="node">
<title>Node13</title>
<g id="a_Node000013"><a xlink:href="../../d4/d22/pthread_2SDL__systhread_8c.html#aed3a250ee44c2270be3345bdc77e931d" target="_top" xlink:title=" ">
<polygon fill="white" stroke="#666666" points="639.25,-39 513.75,-39 513.75,-19 639.25,-19 639.25,-39"/>
<text xml:space="preserve" text-anchor="middle" x="576.5" y="-25.5" font-family="Helvetica,sans-Serif" font-size="10.00">SDL_SYS_CreateThread</text>
</a>
</g>
</g>
<!-- Node12&#45;&gt;Node13 -->
<g id="edge13_Node000012_Node000013" class="edge">
<title>Node12&#45;&gt;Node13</title>
<g id="a_edge13_Node000012_Node000013"><a xlink:title=" ">
<path fill="none" stroke="#63b8ff" d="M686.51,-29C671.94,-29 655.33,-29 639.54,-29"/>
<polygon fill="#63b8ff" stroke="#63b8ff" points="686.19,-32.5 696.19,-29 686.19,-25.5 686.19,-32.5"/>
</a>
</g>
</g>
</g>
</svg>
