<?xml version="1.0" encoding="UTF-8" standalone="no"?>
<!DOCTYPE svg PUBLIC "-//W3C//DTD SVG 1.1//EN"
 "http://www.w3.org/Graphics/SVG/1.1/DTD/svg11.dtd">
<!-- Generated by graphviz version 13.1.0 (20250701.0955)
 -->
<!-- Title: Fcitx_SetCapabilities Pages: 1 -->
<svg width="570pt" height="28pt"
 viewBox="0.00 0.00 570.00 28.00" xmlns="http://www.w3.org/2000/svg" xmlns:xlink="http://www.w3.org/1999/xlink">
<g id="graph0" class="graph" transform="scale(1 1) rotate(0) translate(4 24)">
<title>Fcitx_SetCapabilities</title>
<!-- Node1 -->
<g id="Node000001" class="node">
<title>Node1</title>
<g id="a_Node000001"><a xlink:title=" ">
<polygon fill="#999999" stroke="#666666" points="562.25,-20 453.25,-20 453.25,0 562.25,0 562.25,-20"/>
<text xml:space="preserve" text-anchor="middle" x="507.75" y="-6.5" font-family="Helvetica,sans-Serif" font-size="10.00">Fcitx_SetCapabilities</text>
</a>
</g>
</g>
<!-- Node2 -->
<g id="Node000002" class="node">
<title>Node2</title>
<g id="a_Node000002"><a xlink:href="../../d8/d3d/SDL__fcitx_8c.html#a66b7c030eae52c5b2def477c77be1630" target="_top" xlink:title=" ">
<polygon fill="white" stroke="#666666" points="417.25,-20 314.25,-20 314.25,0 417.25,0 417.25,-20"/>
<text xml:space="preserve" text-anchor="middle" x="365.75" y="-6.5" font-family="Helvetica,sans-Serif" font-size="10.00">FcitxClientCreateIC</text>
</a>
</g>
</g>
<!-- Node1&#45;&gt;Node2 -->
<g id="edge1_Node000001_Node000002" class="edge">
<title>Node1&#45;&gt;Node2</title>
<g id="a_edge1_Node000001_Node000002"><a xlink:title=" ">
<path fill="none" stroke="#63b8ff" d="M441.61,-10C433.46,-10 425.22,-10 417.34,-10"/>
<polygon fill="#63b8ff" stroke="#63b8ff" points="441.51,-13.5 451.51,-10 441.51,-6.5 441.51,-13.5"/>
</a>
</g>
</g>
<!-- Node3 -->
<g id="Node000003" class="node">
<title>Node3</title>
<g id="a_Node000003"><a xlink:href="../../d8/d3d/SDL__fcitx_8c.html#a9599338ba69d63761b97538897945a2b" target="_top" xlink:title=" ">
<polygon fill="white" stroke="#666666" points="278.25,-20 197,-20 197,0 278.25,0 278.25,-20"/>
<text xml:space="preserve" text-anchor="middle" x="237.62" y="-6.5" font-family="Helvetica,sans-Serif" font-size="10.00">SDL_Fcitx_Init</text>
</a>
</g>
</g>
<!-- Node2&#45;&gt;Node3 -->
<g id="edge2_Node000002_Node000003" class="edge">
<title>Node2&#45;&gt;Node3</title>
<g id="a_edge2_Node000002_Node000003"><a xlink:title=" ">
<path fill="none" stroke="#63b8ff" d="M302.39,-10C294.26,-10 286.12,-10 278.5,-10"/>
<polygon fill="#63b8ff" stroke="#63b8ff" points="302.3,-13.5 312.3,-10 302.3,-6.5 302.3,-13.5"/>
</a>
</g>
</g>
<!-- Node4 -->
<g id="Node000004" class="node">
<title>Node4</title>
<g id="a_Node000004"><a xlink:href="../../d6/dca/SDL__ime_8c.html#a43c3ce1b3fb7c51d28e85239d2df465f" target="_top" xlink:title=" ">
<polygon fill="white" stroke="#666666" points="161,-20 113.5,-20 113.5,0 161,0 161,-20"/>
<text xml:space="preserve" text-anchor="middle" x="137.25" y="-6.5" font-family="Helvetica,sans-Serif" font-size="10.00">InitIME</text>
</a>
</g>
</g>
<!-- Node3&#45;&gt;Node4 -->
<g id="edge3_Node000003_Node000004" class="edge">
<title>Node3&#45;&gt;Node4</title>
<g id="a_edge3_Node000003_Node000004"><a xlink:title=" ">
<path fill="none" stroke="#63b8ff" d="M185.21,-10C176.82,-10 168.52,-10 161.28,-10"/>
<polygon fill="#63b8ff" stroke="#63b8ff" points="185.1,-13.5 195.1,-10 185.1,-6.5 185.1,-13.5"/>
</a>
</g>
</g>
<!-- Node5 -->
<g id="Node000005" class="node">
<title>Node5</title>
<g id="a_Node000005"><a xlink:href="../../d6/dca/SDL__ime_8c.html#aad8672e65d5ef336bee91410b6d6cebf" target="_top" xlink:title=" ">
<polygon fill="white" stroke="#666666" points="77.5,-20 0,-20 0,0 77.5,0 77.5,-20"/>
<text xml:space="preserve" text-anchor="middle" x="38.75" y="-6.5" font-family="Helvetica,sans-Serif" font-size="10.00">SDL_IME_Init</text>
</a>
</g>
</g>
<!-- Node4&#45;&gt;Node5 -->
<g id="edge4_Node000004_Node000005" class="edge">
<title>Node4&#45;&gt;Node5</title>
<g id="a_edge4_Node000004_Node000005"><a xlink:title=" ">
<path fill="none" stroke="#63b8ff" d="M102.06,-10C94.24,-10 85.89,-10 77.92,-10"/>
<polygon fill="#63b8ff" stroke="#63b8ff" points="101.87,-13.5 111.87,-10 101.87,-6.5 101.87,-13.5"/>
</a>
</g>
</g>
</g>
</svg>
