<?xml version="1.0" encoding="UTF-8" standalone="no"?>
<!DOCTYPE svg PUBLIC "-//W3C//DTD SVG 1.1//EN"
 "http://www.w3.org/Graphics/SVG/1.1/DTD/svg11.dtd">
<!-- Generated by graphviz version 13.1.0 (20250701.0955)
 -->
<!-- Title: SDL_Fcitx_Quit Pages: 1 -->
<svg width="253pt" height="66pt"
 viewBox="0.00 0.00 253.00 66.00" xmlns="http://www.w3.org/2000/svg" xmlns:xlink="http://www.w3.org/1999/xlink">
<g id="graph0" class="graph" transform="scale(1 1) rotate(0) translate(4 62)">
<title>SDL_Fcitx_Quit</title>
<!-- Node1 -->
<g id="Node000001" class="node">
<title>Node1</title>
<g id="a_Node000001"><a xlink:title=" ">
<polygon fill="#999999" stroke="#666666" points="85.75,-39 0,-39 0,-19 85.75,-19 85.75,-39"/>
<text xml:space="preserve" text-anchor="middle" x="42.88" y="-25.5" font-family="Helvetica,sans-Serif" font-size="10.00">SDL_Fcitx_Quit</text>
</a>
</g>
</g>
<!-- Node2 -->
<g id="Node000002" class="node">
<title>Node2</title>
<g id="a_Node000002"><a xlink:href="../../d8/d3d/SDL__fcitx_8c.html#ac5d5068a1bb56117f5c76bf2a41938a1" target="_top" xlink:title=" ">
<polygon fill="white" stroke="#666666" points="245,-58 121.75,-58 121.75,-38 245,-38 245,-58"/>
<text xml:space="preserve" text-anchor="middle" x="183.38" y="-44.5" font-family="Helvetica,sans-Serif" font-size="10.00">FcitxClientICCallMethod</text>
</a>
</g>
</g>
<!-- Node1&#45;&gt;Node2 -->
<g id="edge1_Node000001_Node000002" class="edge">
<title>Node1&#45;&gt;Node2</title>
<g id="a_edge1_Node000001_Node000002"><a xlink:title=" ">
<path fill="none" stroke="#63b8ff" d="M86.18,-34.8C93.84,-35.85 102.02,-36.98 110.25,-38.11"/>
<polygon fill="#63b8ff" stroke="#63b8ff" points="109.58,-41.55 119.96,-39.44 110.53,-34.61 109.58,-41.55"/>
</a>
</g>
</g>
<!-- Node3 -->
<g id="Node000003" class="node">
<title>Node3</title>
<g id="a_Node000003"><a xlink:href="../../d4/d23/SDL__malloc_8c.html#a883d5d0a9ce20246045f385a6b99ebf2" target="_top" xlink:title=" ">
<polygon fill="white" stroke="#666666" points="212,-20 154.75,-20 154.75,0 212,0 212,-20"/>
<text xml:space="preserve" text-anchor="middle" x="183.38" y="-6.5" font-family="Helvetica,sans-Serif" font-size="10.00">SDL_free</text>
</a>
</g>
</g>
<!-- Node1&#45;&gt;Node3 -->
<g id="edge2_Node000001_Node000003" class="edge">
<title>Node1&#45;&gt;Node3</title>
<g id="a_edge2_Node000001_Node000003"><a xlink:title=" ">
<path fill="none" stroke="#63b8ff" d="M86.18,-23.2C104.24,-20.72 125.19,-17.85 142.92,-15.41"/>
<polygon fill="#63b8ff" stroke="#63b8ff" points="143.39,-18.88 152.82,-14.05 142.44,-11.95 143.39,-18.88"/>
</a>
</g>
</g>
</g>
</svg>
