<?xml version="1.0" encoding="UTF-8" standalone="no"?>
<!DOCTYPE svg PUBLIC "-//W3C//DTD SVG 1.1//EN"
 "http://www.w3.org/Graphics/SVG/1.1/DTD/svg11.dtd">
<!-- Generated by graphviz version 13.1.0 (20250701.0955)
 -->
<!-- Title: SDL_Fcitx_ProcessKeyEvent Pages: 1 -->
<svg width="352pt" height="28pt"
 viewBox="0.00 0.00 352.00 28.00" xmlns="http://www.w3.org/2000/svg" xmlns:xlink="http://www.w3.org/1999/xlink">
<g id="graph0" class="graph" transform="scale(1 1) rotate(0) translate(4 24)">
<title>SDL_Fcitx_ProcessKeyEvent</title>
<!-- Node1 -->
<g id="Node000001" class="node">
<title>Node1</title>
<g id="a_Node000001"><a xlink:title=" ">
<polygon fill="#999999" stroke="#666666" points="343.5,-20 197,-20 197,0 343.5,0 343.5,-20"/>
<text xml:space="preserve" text-anchor="middle" x="270.25" y="-6.5" font-family="Helvetica,sans-Serif" font-size="10.00">SDL_Fcitx_ProcessKeyEvent</text>
</a>
</g>
</g>
<!-- Node2 -->
<g id="Node000002" class="node">
<title>Node2</title>
<g id="a_Node000002"><a xlink:href="../../d6/dca/SDL__ime_8c.html#a43c3ce1b3fb7c51d28e85239d2df465f" target="_top" xlink:title=" ">
<polygon fill="white" stroke="#666666" points="161,-20 113.5,-20 113.5,0 161,0 161,-20"/>
<text xml:space="preserve" text-anchor="middle" x="137.25" y="-6.5" font-family="Helvetica,sans-Serif" font-size="10.00">InitIME</text>
</a>
</g>
</g>
<!-- Node1&#45;&gt;Node2 -->
<g id="edge1_Node000001_Node000002" class="edge">
<title>Node1&#45;&gt;Node2</title>
<g id="a_edge1_Node000001_Node000002"><a xlink:title=" ">
<path fill="none" stroke="#63b8ff" d="M185.51,-10C176.72,-10 168.4,-10 161.27,-10"/>
<polygon fill="#63b8ff" stroke="#63b8ff" points="185.34,-13.5 195.34,-10 185.34,-6.5 185.34,-13.5"/>
</a>
</g>
</g>
<!-- Node3 -->
<g id="Node000003" class="node">
<title>Node3</title>
<g id="a_Node000003"><a xlink:href="../../d6/dca/SDL__ime_8c.html#aad8672e65d5ef336bee91410b6d6cebf" target="_top" xlink:title=" ">
<polygon fill="white" stroke="#666666" points="77.5,-20 0,-20 0,0 77.5,0 77.5,-20"/>
<text xml:space="preserve" text-anchor="middle" x="38.75" y="-6.5" font-family="Helvetica,sans-Serif" font-size="10.00">SDL_IME_Init</text>
</a>
</g>
</g>
<!-- Node2&#45;&gt;Node3 -->
<g id="edge2_Node000002_Node000003" class="edge">
<title>Node2&#45;&gt;Node3</title>
<g id="a_edge2_Node000002_Node000003"><a xlink:title=" ">
<path fill="none" stroke="#63b8ff" d="M102.06,-10C94.24,-10 85.89,-10 77.92,-10"/>
<polygon fill="#63b8ff" stroke="#63b8ff" points="101.87,-13.5 111.87,-10 101.87,-6.5 101.87,-13.5"/>
</a>
</g>
</g>
</g>
</svg>
