<?xml version="1.0" encoding="UTF-8" standalone="no"?>
<!DOCTYPE svg PUBLIC "-//W3C//DTD SVG 1.1//EN"
 "http://www.w3.org/Graphics/SVG/1.1/DTD/svg11.dtd">
<!-- Generated by graphviz version 13.1.0 (20250701.0955)
 -->
<!-- Title: FcitxClientICCallMethod Pages: 1 -->
<svg width="474pt" height="104pt"
 viewBox="0.00 0.00 474.00 104.00" xmlns="http://www.w3.org/2000/svg" xmlns:xlink="http://www.w3.org/1999/xlink">

<svg id="main" version="1.1" xmlns="http://www.w3.org/2000/svg" xmlns:xlink="http://www.w3.org/1999/xlink" xml:space="preserve">

<style type="text/css"><![CDATA[
.node, .edge {opacity: 0.7;}
.node.selected, .edge.selected {opacity: 1;}
.edge:hover path { stroke: red; }
.edge:hover polygon { stroke: red; fill: red; }
]]></style>
<script type="application/ecmascript" xlink:href="../../svg.min.js"/>
<svg id="graph" class="graph">
<g id="graph0" class="graph" transform="scale(1 1) rotate(0) translate(4 100)">
<title>FcitxClientICCallMethod</title>
<!-- Node1 -->
<g id="Node000001" class="node">
<title>Node1</title>
<g id="a_Node000001"><a xlink:title=" ">
<polygon fill="#999999" stroke="#666666" points="466,-58 342.75,-58 342.75,-38 466,-38 466,-58"/>
<text xml:space="preserve" text-anchor="middle" x="404.38" y="-44.5" font-family="Helvetica,sans-Serif" font-size="10.00">FcitxClientICCallMethod</text>
</a>
</g>
</g>
<!-- Node2 -->
<g id="Node000002" class="node">
<title>Node2</title>
<g id="a_Node000002"><a xlink:href="../../d8/d3d/SDL__fcitx_8c.html#a04cbe2fdb44828e54ad9303c6cd5fdab" target="_top" xlink:title=" ">
<polygon fill="white" stroke="#666666" points="294.75,-96 209,-96 209,-76 294.75,-76 294.75,-96"/>
<text xml:space="preserve" text-anchor="middle" x="251.88" y="-82.5" font-family="Helvetica,sans-Serif" font-size="10.00">SDL_Fcitx_Quit</text>
</a>
</g>
</g>
<!-- Node1&#45;&gt;Node2 -->
<g id="edge1_Node000001_Node000002" class="edge">
<title>Node1&#45;&gt;Node2</title>
<g id="a_edge1_Node000001_Node000002"><a xlink:title=" ">
<path fill="none" stroke="#63b8ff" d="M350.91,-61.25C332.36,-65.93 311.77,-71.13 294.26,-75.55"/>
<polygon fill="#63b8ff" stroke="#63b8ff" points="351.55,-64.7 360.38,-58.85 349.83,-57.91 351.55,-64.7"/>
</a>
</g>
</g>
<!-- Node5 -->
<g id="Node000005" class="node">
<title>Node5</title>
<g id="a_Node000005"><a xlink:href="../../d8/d3d/SDL__fcitx_8c.html#a11ce84e93c3190504f91f263e0e0313d" target="_top" xlink:title=" ">
<polygon fill="white" stroke="#666666" points="298.88,-58 204.88,-58 204.88,-38 298.88,-38 298.88,-58"/>
<text xml:space="preserve" text-anchor="middle" x="251.88" y="-44.5" font-family="Helvetica,sans-Serif" font-size="10.00">SDL_Fcitx_Reset</text>
</a>
</g>
</g>
<!-- Node1&#45;&gt;Node5 -->
<g id="edge4_Node000001_Node000005" class="edge">
<title>Node1&#45;&gt;Node5</title>
<g id="a_edge4_Node000001_Node000005"><a xlink:title=" ">
<path fill="none" stroke="#63b8ff" d="M331.25,-48C320.3,-48 309.26,-48 299.06,-48"/>
<polygon fill="#63b8ff" stroke="#63b8ff" points="331.08,-51.5 341.08,-48 331.08,-44.5 331.08,-51.5"/>
</a>
</g>
</g>
<!-- Node6 -->
<g id="Node000006" class="node">
<title>Node6</title>
<g id="a_Node000006"><a xlink:href="../../d8/d3d/SDL__fcitx_8c.html#a98f655ad64118c365784b17b6297af49" target="_top" xlink:title=" ">
<polygon fill="white" stroke="#666666" points="306.75,-20 197,-20 197,0 306.75,0 306.75,-20"/>
<text xml:space="preserve" text-anchor="middle" x="251.88" y="-6.5" font-family="Helvetica,sans-Serif" font-size="10.00">SDL_Fcitx_SetFocus</text>
</a>
</g>
</g>
<!-- Node1&#45;&gt;Node6 -->
<g id="edge6_Node000001_Node000006" class="edge">
<title>Node1&#45;&gt;Node6</title>
<g id="a_edge6_Node000001_Node000006"><a xlink:title=" ">
<path fill="none" stroke="#63b8ff" d="M350.91,-34.75C332.36,-30.07 311.77,-24.87 294.26,-20.45"/>
<polygon fill="#63b8ff" stroke="#63b8ff" points="349.83,-38.09 360.38,-37.15 351.55,-31.3 349.83,-38.09"/>
</a>
</g>
</g>
<!-- Node3 -->
<g id="Node000003" class="node">
<title>Node3</title>
<g id="a_Node000003"><a xlink:href="../../d6/dca/SDL__ime_8c.html#a43c3ce1b3fb7c51d28e85239d2df465f" target="_top" xlink:title=" ">
<polygon fill="white" stroke="#666666" points="161,-58 113.5,-58 113.5,-38 161,-38 161,-58"/>
<text xml:space="preserve" text-anchor="middle" x="137.25" y="-44.5" font-family="Helvetica,sans-Serif" font-size="10.00">InitIME</text>
</a>
</g>
</g>
<!-- Node2&#45;&gt;Node3 -->
<g id="edge2_Node000002_Node000003" class="edge">
<title>Node2&#45;&gt;Node3</title>
<g id="a_edge2_Node000002_Node000003"><a xlink:title=" ">
<path fill="none" stroke="#63b8ff" d="M208.99,-71.87C192.88,-66.43 175.08,-60.43 161.36,-55.8"/>
<polygon fill="#63b8ff" stroke="#63b8ff" points="207.77,-75.15 218.37,-75.03 210.01,-68.52 207.77,-75.15"/>
</a>
</g>
</g>
<!-- Node4 -->
<g id="Node000004" class="node">
<title>Node4</title>
<g id="a_Node000004"><a xlink:href="../../d6/dca/SDL__ime_8c.html#aad8672e65d5ef336bee91410b6d6cebf" target="_top" xlink:title=" ">
<polygon fill="white" stroke="#666666" points="77.5,-58 0,-58 0,-38 77.5,-38 77.5,-58"/>
<text xml:space="preserve" text-anchor="middle" x="38.75" y="-44.5" font-family="Helvetica,sans-Serif" font-size="10.00">SDL_IME_Init</text>
</a>
</g>
</g>
<!-- Node3&#45;&gt;Node4 -->
<g id="edge3_Node000003_Node000004" class="edge">
<title>Node3&#45;&gt;Node4</title>
<g id="a_edge3_Node000003_Node000004"><a xlink:title=" ">
<path fill="none" stroke="#63b8ff" d="M102.06,-48C94.24,-48 85.89,-48 77.92,-48"/>
<polygon fill="#63b8ff" stroke="#63b8ff" points="101.87,-51.5 111.87,-48 101.87,-44.5 101.87,-51.5"/>
</a>
</g>
</g>
<!-- Node5&#45;&gt;Node3 -->
<g id="edge5_Node000005_Node000003" class="edge">
<title>Node5&#45;&gt;Node3</title>
<g id="a_edge5_Node000005_Node000003"><a xlink:title=" ">
<path fill="none" stroke="#63b8ff" d="M193.13,-48C181.79,-48 170.54,-48 161.2,-48"/>
<polygon fill="#63b8ff" stroke="#63b8ff" points="192.9,-51.5 202.9,-48 192.9,-44.5 192.9,-51.5"/>
</a>
</g>
</g>
<!-- Node6&#45;&gt;Node3 -->
<g id="edge7_Node000006_Node000003" class="edge">
<title>Node6&#45;&gt;Node3</title>
<g id="a_edge7_Node000006_Node000003"><a xlink:title=" ">
<path fill="none" stroke="#63b8ff" d="M208.99,-24.13C192.88,-29.57 175.08,-35.57 161.36,-40.2"/>
<polygon fill="#63b8ff" stroke="#63b8ff" points="210.01,-27.48 218.37,-20.97 207.77,-20.85 210.01,-27.48"/>
</a>
</g>
</g>
</g>
</svg>
</svg>

<style type='text/css'>
<![CDATA[
[data-mouse-over-selected='false'] { opacity: 0.7; }
[data-mouse-over-selected='true']  { opacity: 1.0; }
]]>
</style>
<script type="application/ecmascript"><![CDATA[
document.addEventListener('DOMContentLoaded', (event) => {
  highlightEdges();
  highlightAdjacentNodes();
});
]]></script>
</svg>
