<?xml version="1.0" encoding="UTF-8" standalone="no"?>
<!DOCTYPE svg PUBLIC "-//W3C//DTD SVG 1.1//EN"
 "http://www.w3.org/Graphics/SVG/1.1/DTD/svg11.dtd">
<!-- Generated by graphviz version 13.1.0 (20250701.0955)
 -->
<!-- Title: VkMemoryToImageCopyEXT Pages: 1 -->
<svg width="335pt" height="102pt"
 viewBox="0.00 0.00 335.00 102.00" xmlns="http://www.w3.org/2000/svg" xmlns:xlink="http://www.w3.org/1999/xlink">
<g id="graph0" class="graph" transform="scale(1 1) rotate(0) translate(4 98)">
<title>VkMemoryToImageCopyEXT</title>
<!-- Node1 -->
<g id="Node000001" class="node">
<title>Node1</title>
<g id="a_Node000001"><a xlink:title=" ">
<polygon fill="#999999" stroke="#666666" points="262.25,-20 118.75,-20 118.75,0 262.25,0 262.25,-20"/>
<text xml:space="preserve" text-anchor="middle" x="190.5" y="-6.5" font-family="Helvetica,sans-Serif" font-size="10.00">VkMemoryToImageCopyEXT</text>
</a>
</g>
</g>
<!-- Node2 -->
<g id="Node000002" class="node">
<title>Node2</title>
<g id="a_Node000002"><a xlink:href="../../d6/db6/structVkImageSubresourceLayers.html" target="_top" xlink:title=" ">
<polygon fill="white" stroke="#666666" points="139,-94 0,-94 0,-74 139,-74 139,-94"/>
<text xml:space="preserve" text-anchor="middle" x="69.5" y="-80.5" font-family="Helvetica,sans-Serif" font-size="10.00">VkImageSubresourceLayers</text>
</a>
</g>
</g>
<!-- Node2&#45;&gt;Node1 -->
<g id="edge1_Node000001_Node000002" class="edge">
<title>Node2&#45;&gt;Node1</title>
<g id="a_edge1_Node000001_Node000002"><a xlink:title=" ">
<path fill="none" stroke="#9a32cd" stroke-dasharray="5,2" d="M78.48,-63.61C83.51,-54.65 90.58,-44.58 99.5,-38 110.24,-30.08 123.3,-24.46 136.12,-20.49"/>
<polygon fill="#9a32cd" stroke="#9a32cd" points="75.47,-61.81 74.05,-72.31 81.71,-64.98 75.47,-61.81"/>
</a>
</g>
<text xml:space="preserve" text-anchor="start" x="102.5" y="-43.5" font-family="Helvetica,sans-Serif" font-size="10.00" fill="grey">imageSubresource</text>
</g>
<!-- Node3 -->
<g id="Node000003" class="node">
<title>Node3</title>
<g id="a_Node000003"><a xlink:href="../../d7/d88/structVkOffset3D.html" target="_top" xlink:title=" ">
<polygon fill="white" stroke="#666666" points="224,-94 157,-94 157,-74 224,-74 224,-94"/>
<text xml:space="preserve" text-anchor="middle" x="190.5" y="-80.5" font-family="Helvetica,sans-Serif" font-size="10.00">VkOffset3D</text>
</a>
</g>
</g>
<!-- Node3&#45;&gt;Node1 -->
<g id="edge2_Node000001_Node000003" class="edge">
<title>Node3&#45;&gt;Node1</title>
<g id="a_edge2_Node000001_Node000003"><a xlink:title=" ">
<path fill="none" stroke="#9a32cd" stroke-dasharray="5,2" d="M190.5,-62.18C190.5,-48.29 190.5,-30.71 190.5,-20.19"/>
<polygon fill="#9a32cd" stroke="#9a32cd" points="187,-62.07 190.5,-72.07 194,-62.07 187,-62.07"/>
</a>
</g>
<text xml:space="preserve" text-anchor="start" x="193.5" y="-43.5" font-family="Helvetica,sans-Serif" font-size="10.00" fill="grey">imageOffset</text>
</g>
<!-- Node4 -->
<g id="Node000004" class="node">
<title>Node4</title>
<g id="a_Node000004"><a xlink:href="../../d0/d02/structVkExtent3D.html" target="_top" xlink:title=" ">
<polygon fill="white" stroke="#666666" points="311.12,-94 241.88,-94 241.88,-74 311.12,-74 311.12,-94"/>
<text xml:space="preserve" text-anchor="middle" x="276.5" y="-80.5" font-family="Helvetica,sans-Serif" font-size="10.00">VkExtent3D</text>
</a>
</g>
</g>
<!-- Node4&#45;&gt;Node1 -->
<g id="edge3_Node000001_Node000004" class="edge">
<title>Node4&#45;&gt;Node1</title>
<g id="a_edge3_Node000001_Node000004"><a xlink:title=" ">
<path fill="none" stroke="#9a32cd" stroke-dasharray="5,2" d="M269.74,-62.84C266.05,-54.29 260.73,-44.75 253.5,-38 245.24,-30.28 234.44,-24.57 224.11,-20.45"/>
<polygon fill="#9a32cd" stroke="#9a32cd" points="266.45,-64.02 273.26,-72.13 272.99,-61.54 266.45,-64.02"/>
</a>
</g>
<text xml:space="preserve" text-anchor="start" x="269.34" y="-43.5" font-family="Helvetica,sans-Serif" font-size="10.00" fill="grey">imageExtent</text>
</g>
</g>
</svg>
