<?xml version="1.0" encoding="UTF-8" standalone="no"?>
<!DOCTYPE svg PUBLIC "-//W3C//DTD SVG 1.1//EN"
 "http://www.w3.org/Graphics/SVG/1.1/DTD/svg11.dtd">
<!-- Generated by graphviz version 13.1.0 (20250701.0955)
 -->
<!-- Title: SDL_GL_MakeCurrent Pages: 1 -->
<!--zoomable 588 -->

<svg id="main" version="1.1" xmlns="http://www.w3.org/2000/svg" xmlns:xlink="http://www.w3.org/1999/xlink" xml:space="preserve" onload="init(evt)">

<style type="text/css"><![CDATA[
.node, .edge {opacity: 0.7;}
.node.selected, .edge.selected {opacity: 1;}
.edge:hover path { stroke: red; }
.edge:hover polygon { stroke: red; fill: red; }
]]></style>

<defs>
  <circle id="rim" cx="0" cy="0" r="7"/>
  <circle id="rim2" cx="0" cy="0" r="3.5"/>
  <g id="zoomPlus">
    <use xlink:href="#rim" fill="#404040"><set attributeName="fill" to="#808080" begin="zoomplus.mouseover" end="zoomplus.mouseout"/></use>
    <path d="M-4,0h8M0,-4v8" fill="none" stroke="white" stroke-width="1.5" pointer-events="none"/>
  </g>
  <g id="zoomMin">
    <use xlink:href="#rim" fill="#404040"><set attributeName="fill" to="#808080" begin="zoomminus.mouseover" end="zoomminus.mouseout"/></use>
    <path d="M-4,0h8" fill="none" stroke="white" stroke-width="1.5" pointer-events="none"/>
  </g>
  <g id="arrowUp" transform="translate(30 24)">
    <use xlink:href="#rim"/>
    <path pointer-events="none" fill="none" stroke="white" stroke-width="1.5" d="M0,-3.0v7 M-2.5,-0.5L0,-3.0L2.5,-0.5"/>
  </g>
  <g id="arrowRight" transform="rotate(90) translate(36 -43)">
    <use xlink:href="#rim"/>
    <path pointer-events="none" fill="none" stroke="white" stroke-width="1.5" d="M0,-3.0v7 M-2.5,-0.5L0,-3.0L2.5,-0.5"/>
  </g>
  <g id="arrowDown" transform="rotate(180) translate(-30 -48)">
    <use xlink:href="#rim"/>
    <path pointer-events="none" fill="none" stroke="white" stroke-width="1.5" d="M0,-3.0v7 M-2.5,-0.5L0,-3.0L2.5,-0.5"/>
  </g>
  <g id="arrowLeft" transform="rotate(270) translate(-36 17)">
    <use xlink:href="#rim"/>
    <path pointer-events="none" fill="none" stroke="white" stroke-width="1.5" d="M0,-3.0v7 M-2.5,-0.5L0,-3.0L2.5,-0.5"/>
  </g>
  <g id="resetDef">
    <use xlink:href="#rim2" fill="#404040"><set attributeName="fill" to="#808080" begin="reset.mouseover" end="reset.mouseout"/></use>
  </g>
</defs>
<script type="application/ecmascript">
var viewWidth = 1765;
var viewHeight = 588;
var sectionId = 'dynsection-171';
</script>
<script type="application/ecmascript" xlink:href="../../svg.min.js"/>
<svg id="graph" class="graph">
<g id="viewport">
<title>SDL_GL_MakeCurrent</title>
<!-- Node1 -->
<g id="Node000001" class="node">
<title>Node1</title>
<g id="a_Node000001"><a xlink:title=" ">
<polygon fill="#999999" stroke="#666666" points="1757,-495 1642,-495 1642,-475 1757,-475 1757,-495"/>
<text xml:space="preserve" text-anchor="middle" x="1699.5" y="-481.5" font-family="Helvetica,sans-Serif" font-size="10.00">SDL_GL_MakeCurrent</text>
</a>
</g>
</g>
<!-- Node2 -->
<g id="Node000002" class="node">
<title>Node2</title>
<g id="a_Node000002"><a xlink:href="../../d6/d3d/SDL__video_8c.html#ac30d0db0be5833d27c6d0ea8c3748fa9" target="_top" xlink:title=" ">
<polygon fill="white" stroke="#666666" points="1597.38,-514 1486.88,-514 1486.88,-494 1597.38,-494 1597.38,-514"/>
<text xml:space="preserve" text-anchor="middle" x="1542.12" y="-500.5" font-family="Helvetica,sans-Serif" font-size="10.00">SDL_DestroyWindow</text>
</a>
</g>
</g>
<!-- Node1&#45;&gt;Node2 -->
<g id="edge1_Node000001_Node000002" class="edge">
<title>Node1&#45;&gt;Node2</title>
<g id="a_edge1_Node000001_Node000002"><a xlink:title=" ">
<path fill="none" stroke="#63b8ff" d="M1630.31,-493.34C1619.42,-494.67 1608.28,-496.03 1597.76,-497.32"/>
<polygon fill="#63b8ff" stroke="#63b8ff" points="1630.52,-496.84 1640.02,-492.15 1629.67,-489.89 1630.52,-496.84"/>
</a>
</g>
</g>
<!-- Node34 -->
<g id="Node000034" class="node">
<title>Node34</title>
<g id="a_Node000034"><a xlink:href="../../d6/d3d/SDL__video_8c.html#a4e08ccd886a4a5f9a7cef115f12be689" target="_top" xlink:title=" ">
<polygon fill="white" stroke="#666666" points="1606,-476 1478.25,-476 1478.25,-456 1606,-456 1606,-476"/>
<text xml:space="preserve" text-anchor="middle" x="1542.12" y="-462.5" font-family="Helvetica,sans-Serif" font-size="10.00">SDL_GL_DestroyContext</text>
</a>
</g>
</g>
<!-- Node1&#45;&gt;Node34 -->
<g id="edge57_Node000001_Node000034" class="edge">
<title>Node1&#45;&gt;Node34</title>
<g id="a_edge57_Node000001_Node000034"><a xlink:title=" ">
<path fill="none" stroke="#63b8ff" d="M1630.1,-476.64C1622.22,-475.67 1614.2,-474.69 1606.38,-473.74"/>
<polygon fill="#63b8ff" stroke="#63b8ff" points="1629.67,-480.11 1640.02,-477.85 1630.52,-473.16 1629.67,-480.11"/>
</a>
</g>
</g>
<!-- Node2&#45;&gt;Node2 -->
<g id="edge7_Node000002_Node000002" class="edge">
<title>Node2&#45;&gt;Node2</title>
<g id="a_edge7_Node000002_Node000002"><a xlink:title=" ">
<path fill="none" stroke="#63b8ff" d="M1567.16,-525.44C1563.93,-529.3 1555.59,-532 1542.12,-532 1517.51,-532 1510.01,-522.98 1519.62,-514.34"/>
<polygon fill="#63b8ff" stroke="#63b8ff" points="1570.6,-524.79 1564.96,-515.81 1563.77,-526.34 1570.6,-524.79"/>
</a>
</g>
</g>
<!-- Node3 -->
<g id="Node000003" class="node">
<title>Node3</title>
<g id="a_Node000003"><a xlink:href="../../dd/df3/SDL__render_8c.html#a36f859fae15e4277ba052f9ecfb2816d" target="_top" xlink:title=" ">
<polygon fill="white" stroke="#666666" points="162.25,-571 0,-571 0,-551 162.25,-551 162.25,-571"/>
<text xml:space="preserve" text-anchor="middle" x="81.12" y="-557.5" font-family="Helvetica,sans-Serif" font-size="10.00">SDL_CreateWindowAndRenderer</text>
</a>
</g>
</g>
<!-- Node2&#45;&gt;Node3 -->
<g id="edge2_Node000002_Node000003" class="edge">
<title>Node2&#45;&gt;Node3</title>
<g id="a_edge2_Node000002_Node000003"><a xlink:title=" ">
<path fill="none" stroke="#63b8ff" d="M1483.91,-516.9C1382.6,-538.59 1164.76,-580 978.5,-580 978.5,-580 978.5,-580 451.12,-580 351.7,-580 237.4,-573.03 162.68,-567.54"/>
<polygon fill="#63b8ff" stroke="#63b8ff" points="1484.58,-520.34 1493.62,-514.81 1483.1,-513.5 1484.58,-520.34"/>
</a>
</g>
</g>
<!-- Node4 -->
<g id="Node000004" class="node">
<title>Node4</title>
<g id="a_Node000004"><a xlink:href="../../d6/d3d/SDL__video_8c.html#a9f3d88531134e2c3e575a3c2db7f8488" target="_top" xlink:title=" ">
<polygon fill="white" stroke="#666666" points="537,-533 367.25,-533 367.25,-513 537,-513 537,-533"/>
<text xml:space="preserve" text-anchor="middle" x="452.12" y="-519.5" font-family="Helvetica,sans-Serif" font-size="10.00">SDL_CreateWindowWithProperties</text>
</a>
</g>
</g>
<!-- Node2&#45;&gt;Node4 -->
<g id="edge3_Node000002_Node000004" class="edge">
<title>Node2&#45;&gt;Node4</title>
<g id="a_edge3_Node000002_Node000004"><a xlink:title=" ">
<path fill="none" stroke="#63b8ff" d="M1483.43,-516.79C1428.55,-527.82 1343.5,-542 1268.88,-542 1268.88,-542 1268.88,-542 827.38,-542 727.67,-542 613.23,-535.19 537.41,-529.73"/>
<polygon fill="#63b8ff" stroke="#63b8ff" points="1484.09,-520.22 1493.19,-514.79 1482.69,-513.36 1484.09,-520.22"/>
</a>
</g>
</g>
<!-- Node7 -->
<g id="Node000007" class="node">
<title>Node7</title>
<g id="a_Node000007"><a xlink:href="../../d6/d3d/SDL__video_8c.html#ae86d31ef3c6aad24cd4d0da9a9551906" target="_top" xlink:title=" ">
<polygon fill="white" stroke="#666666" points="1442.25,-201 1358.75,-201 1358.75,-181 1442.25,-181 1442.25,-201"/>
<text xml:space="preserve" text-anchor="middle" x="1400.5" y="-187.5" font-family="Helvetica,sans-Serif" font-size="10.00">SDL_VideoQuit</text>
</a>
</g>
</g>
<!-- Node2&#45;&gt;Node7 -->
<g id="edge8_Node000002_Node000007" class="edge">
<title>Node2&#45;&gt;Node7</title>
<g id="a_edge8_Node000002_Node000007"><a xlink:title=" ">
<path fill="none" stroke="#63b8ff" d="M1480.51,-487.18C1479.73,-486.48 1478.98,-485.75 1478.25,-485 1437.18,-442.34 1409.12,-248.4 1402.83,-201.32"/>
<polygon fill="#63b8ff" stroke="#63b8ff" points="1478.29,-489.89 1488.49,-492.73 1482.29,-484.15 1478.29,-489.89"/>
</a>
</g>
</g>
<!-- Node5 -->
<g id="Node000005" class="node">
<title>Node5</title>
<g id="a_Node000005"><a xlink:href="../../d6/d3d/SDL__video_8c.html#acc26de39ce1bd675446e4d6c05ebf4b0" target="_top" xlink:title=" ">
<polygon fill="white" stroke="#666666" points="331.25,-514 198.25,-514 198.25,-494 331.25,-494 331.25,-514"/>
<text xml:space="preserve" text-anchor="middle" x="264.75" y="-500.5" font-family="Helvetica,sans-Serif" font-size="10.00">SDL_CreatePopupWindow</text>
</a>
</g>
</g>
<!-- Node4&#45;&gt;Node5 -->
<g id="edge4_Node000004_Node000005" class="edge">
<title>Node4&#45;&gt;Node5</title>
<g id="a_edge4_Node000004_Node000005"><a xlink:title=" ">
<path fill="none" stroke="#63b8ff" d="M355.42,-513.19C347.33,-512.36 339.27,-511.54 331.5,-510.74"/>
<polygon fill="#63b8ff" stroke="#63b8ff" points="355.03,-516.67 365.34,-514.21 355.75,-509.71 355.03,-516.67"/>
</a>
</g>
</g>
<!-- Node6 -->
<g id="Node000006" class="node">
<title>Node6</title>
<g id="a_Node000006"><a xlink:href="../../d6/d3d/SDL__video_8c.html#a83103c86f9e5c33ab9e1fb6dfa904b7f" target="_top" xlink:title=" ">
<polygon fill="white" stroke="#666666" points="317.38,-552 212.12,-552 212.12,-532 317.38,-532 317.38,-552"/>
<text xml:space="preserve" text-anchor="middle" x="264.75" y="-538.5" font-family="Helvetica,sans-Serif" font-size="10.00">SDL_CreateWindow</text>
</a>
</g>
</g>
<!-- Node4&#45;&gt;Node6 -->
<g id="edge5_Node000004_Node000006" class="edge">
<title>Node4&#45;&gt;Node6</title>
<g id="a_edge5_Node000004_Node000006"><a xlink:title=" ">
<path fill="none" stroke="#63b8ff" d="M355.44,-532.81C342.45,-534.14 329.54,-535.46 317.73,-536.67"/>
<polygon fill="#63b8ff" stroke="#63b8ff" points="355.75,-536.29 365.34,-531.79 355.03,-529.33 355.75,-536.29"/>
</a>
</g>
</g>
<!-- Node6&#45;&gt;Node3 -->
<g id="edge6_Node000006_Node000003" class="edge">
<title>Node6&#45;&gt;Node3</title>
<g id="a_edge6_Node000006_Node000003"><a xlink:title=" ">
<path fill="none" stroke="#63b8ff" d="M200.3,-548.64C188.14,-549.91 175.26,-551.26 162.64,-552.58"/>
<polygon fill="#63b8ff" stroke="#63b8ff" points="200.62,-552.12 210.2,-547.6 199.89,-545.16 200.62,-552.12"/>
</a>
</g>
</g>
<!-- Node8 -->
<g id="Node000008" class="node">
<title>Node8</title>
<g id="a_Node000008"><a xlink:href="../../df/d78/SDL_8c.html#a60aa8a910b5236e9eded873051707374" target="_top" xlink:title=" ">
<polygon fill="white" stroke="#666666" points="1322.75,-201 1213,-201 1213,-181 1322.75,-181 1322.75,-201"/>
<text xml:space="preserve" text-anchor="middle" x="1267.88" y="-187.5" font-family="Helvetica,sans-Serif" font-size="10.00">SDL_QuitSubSystem</text>
</a>
</g>
</g>
<!-- Node7&#45;&gt;Node8 -->
<g id="edge9_Node000007_Node000008" class="edge">
<title>Node7&#45;&gt;Node8</title>
<g id="a_edge9_Node000007_Node000008"><a xlink:title=" ">
<path fill="none" stroke="#63b8ff" d="M1347.18,-184.37C1339.26,-184.22 1331.08,-184.21 1323.12,-184.34"/>
<polygon fill="#63b8ff" stroke="#63b8ff" points="1346.92,-187.86 1357.01,-184.64 1347.12,-180.87 1346.92,-187.86"/>
</a>
</g>
</g>
<!-- Node26 -->
<g id="Node000026" class="node">
<title>Node26</title>
<g id="a_Node000026"><a xlink:href="../../d6/d3d/SDL__video_8c.html#ac61dc66ab71d039f9b681916d0fcbc6e" target="_top" xlink:title=" ">
<polygon fill="white" stroke="#666666" points="691.38,-20 612.38,-20 612.38,0 691.38,0 691.38,-20"/>
<text xml:space="preserve" text-anchor="middle" x="651.88" y="-6.5" font-family="Helvetica,sans-Serif" font-size="10.00">SDL_VideoInit</text>
</a>
</g>
</g>
<!-- Node7&#45;&gt;Node26 -->
<g id="edge56_Node000007_Node000026" class="edge">
<title>Node7&#45;&gt;Node26</title>
<g id="a_edge56_Node000007_Node000026"><a xlink:title=" ">
<path fill="none" stroke="#63b8ff" d="M1385.29,-171.63C1348,-123.26 1241.9,-1 1122,-1 1122,-1 1122,-1 976.5,-1 873.64,-1 752.47,-5.6 691.72,-8.22"/>
<polygon fill="#63b8ff" stroke="#63b8ff" points="1382.27,-173.44 1391.09,-179.31 1387.85,-169.22 1382.27,-173.44"/>
</a>
</g>
</g>
<!-- Node8&#45;&gt;Node7 -->
<g id="edge55_Node000008_Node000007" class="edge">
<title>Node8&#45;&gt;Node7</title>
<g id="a_edge55_Node000008_Node000007"><a xlink:title=" ">
<path fill="none" stroke="#63b8ff" d="M1334.6,-197.75C1342.75,-197.75 1350.9,-197.6 1358.53,-197.31"/>
<polygon fill="#63b8ff" stroke="#63b8ff" points="1334.66,-194.25 1324.63,-197.67 1334.61,-201.25 1334.66,-194.25"/>
</a>
</g>
</g>
<!-- Node8&#45;&gt;Node8 -->
<g id="edge53_Node000008_Node000008" class="edge">
<title>Node8&#45;&gt;Node8</title>
<g id="a_edge53_Node000008_Node000008"><a xlink:title=" ">
<path fill="none" stroke="#63b8ff" d="M1291.32,-212.44C1288.3,-216.3 1280.48,-219 1267.88,-219 1244.82,-219 1237.8,-209.98 1246.8,-201.34"/>
<polygon fill="#63b8ff" stroke="#63b8ff" points="1294.77,-211.87 1289.26,-202.82 1287.93,-213.33 1294.77,-211.87"/>
</a>
</g>
</g>
<!-- Node9 -->
<g id="Node000009" class="node">
<title>Node9</title>
<g id="a_Node000009"><a xlink:href="../../d6/df9/SDL__joystick_8c.html#a7d2531dc4fbc8de52a29ac3ec171a495" target="_top" xlink:title=" ">
<polygon fill="white" stroke="#666666" points="707.12,-96 596.62,-96 596.62,-76 707.12,-76 707.12,-96"/>
<text xml:space="preserve" text-anchor="middle" x="651.88" y="-82.5" font-family="Helvetica,sans-Serif" font-size="10.00">AttemptSensorFusion</text>
</a>
</g>
</g>
<!-- Node8&#45;&gt;Node9 -->
<g id="edge10_Node000008_Node000009" class="edge">
<title>Node8&#45;&gt;Node9</title>
<g id="a_edge10_Node000008_Node000009"><a xlink:title=" ">
<path fill="none" stroke="#63b8ff" d="M1246.08,-173.74C1228.76,-160.41 1202.83,-142.8 1177,-134 1133.32,-119.12 832.24,-97.84 707.17,-89.52"/>
<polygon fill="#63b8ff" stroke="#63b8ff" points="1243.57,-176.21 1253.58,-179.68 1247.92,-170.73 1243.57,-176.21"/>
</a>
</g>
</g>
<!-- Node12 -->
<g id="Node000012" class="node">
<title>Node12</title>
<g id="a_Node000012"><a xlink:href="../../d6/df9/SDL__joystick_8c.html#ac0722362ebd0ebecebff12499774b471" target="_top" xlink:title=" ">
<polygon fill="white" stroke="#666666" points="1177,-295 1065,-295 1065,-275 1177,-275 1177,-295"/>
<text xml:space="preserve" text-anchor="middle" x="1121" y="-281.5" font-family="Helvetica,sans-Serif" font-size="10.00">CleanupSensorFusion</text>
</a>
</g>
</g>
<!-- Node8&#45;&gt;Node12 -->
<g id="edge13_Node000008_Node000012" class="edge">
<title>Node8&#45;&gt;Node12</title>
<g id="a_edge13_Node000008_Node000012"><a xlink:title=" ">
<path fill="none" stroke="#63b8ff" d="M1247.37,-208.53C1229.83,-223.71 1202.91,-245.59 1177,-261 1168.4,-266.11 1158.52,-270.77 1149.52,-274.59"/>
<polygon fill="#63b8ff" stroke="#63b8ff" points="1249.29,-211.5 1254.49,-202.28 1244.67,-206.25 1249.29,-211.5"/>
</a>
</g>
</g>
<!-- Node16 -->
<g id="Node000016" class="node">
<title>Node16</title>
<g id="a_Node000016"><a xlink:href="../../d6/df9/SDL__joystick_8c.html#aa98a95583054633f27bb3bcdff5f97aa" target="_top" xlink:title=" ">
<polygon fill="white" stroke="#666666" points="878.75,-248 778,-248 778,-228 878.75,-228 878.75,-248"/>
<text xml:space="preserve" text-anchor="middle" x="828.38" y="-234.5" font-family="Helvetica,sans-Serif" font-size="10.00">SDL_QuitJoysticks</text>
</a>
</g>
</g>
<!-- Node8&#45;&gt;Node16 -->
<g id="edge49_Node000008_Node000016" class="edge">
<title>Node8&#45;&gt;Node16</title>
<g id="a_edge49_Node000008_Node000016"><a xlink:title=" ">
<path fill="none" stroke="#63b8ff" d="M1201.25,-189.41C1193.08,-190.24 1184.85,-191.15 1177,-192 1067.94,-203.87 939.59,-217.42 873.56,-227.53"/>
<polygon fill="#63b8ff" stroke="#63b8ff" points="1201.58,-192.89 1211.19,-188.43 1200.9,-185.92 1201.58,-192.89"/>
</a>
</g>
</g>
<!-- Node18 -->
<g id="Node000018" class="node">
<title>Node18</title>
<g id="a_Node000018"><a xlink:href="../../df/d78/SDL_8c.html#aa33d2b8c0a69b16651f78c26f391b6ef" target="_top" xlink:title=" ">
<polygon fill="white" stroke="#666666" points="881,-163 775.75,-163 775.75,-143 881,-143 881,-163"/>
<text xml:space="preserve" text-anchor="middle" x="828.38" y="-149.5" font-family="Helvetica,sans-Serif" font-size="10.00">SDL_InitSubSystem</text>
</a>
</g>
</g>
<!-- Node8&#45;&gt;Node18 -->
<g id="edge40_Node000008_Node000018" class="edge">
<title>Node8&#45;&gt;Node18</title>
<g id="a_edge40_Node000008_Node000018"><a xlink:title=" ">
<path fill="none" stroke="#63b8ff" d="M1201.14,-190.03C1132.31,-188.39 1021.2,-183.96 926,-172 909.55,-169.93 891.69,-166.71 875.85,-163.49"/>
<polygon fill="#63b8ff" stroke="#63b8ff" points="1201.06,-193.53 1211.13,-190.26 1201.21,-186.53 1201.06,-193.53"/>
</a>
</g>
</g>
<!-- Node19 -->
<g id="Node000019" class="node">
<title>Node19</title>
<g id="a_Node000019"><a xlink:href="../../d6/df9/SDL__joystick_8c.html#a94fd638a34a769ff6a7a01738257215c" target="_top" xlink:title=" ">
<polygon fill="white" stroke="#666666" points="683.5,-58 620.25,-58 620.25,-38 683.5,-38 683.5,-58"/>
<text xml:space="preserve" text-anchor="middle" x="651.88" y="-44.5" font-family="Helvetica,sans-Serif" font-size="10.00">IsROGAlly</text>
</a>
</g>
</g>
<!-- Node8&#45;&gt;Node19 -->
<g id="edge39_Node000008_Node000019" class="edge">
<title>Node8&#45;&gt;Node19</title>
<g id="a_edge39_Node000008_Node000019"><a xlink:title=" ">
<path fill="none" stroke="#63b8ff" d="M1250.88,-171.99C1234.39,-153.81 1206.92,-127.25 1177,-114 1087.37,-74.32 782.02,-54.89 683.67,-49.56"/>
<polygon fill="#63b8ff" stroke="#63b8ff" points="1248.24,-174.28 1257.47,-179.49 1253.5,-169.66 1248.24,-174.28"/>
</a>
</g>
</g>
<!-- Node8&#45;&gt;Node26 -->
<g id="edge54_Node000008_Node000026" class="edge">
<title>Node8&#45;&gt;Node26</title>
<g id="a_edge54_Node000008_Node000026"><a xlink:title=" ">
<path fill="none" stroke="#63b8ff" d="M1256.38,-170.92C1242.07,-145.79 1213.95,-103.55 1177,-83 1093.3,-36.45 798.27,-17.3 691.67,-11.8"/>
<polygon fill="#63b8ff" stroke="#63b8ff" points="1253.2,-172.41 1261.07,-179.5 1259.34,-169.05 1253.2,-172.41"/>
</a>
</g>
</g>
<!-- Node27 -->
<g id="Node000027" class="node">
<title>Node27</title>
<g id="a_Node000027"><a xlink:href="../../df/d78/SDL_8c.html#abf064fcc4a657a30db8eace18633f362" target="_top" xlink:title=" ">
<polygon fill="white" stroke="#666666" points="1006.88,-467 948.12,-467 948.12,-447 1006.88,-447 1006.88,-467"/>
<text xml:space="preserve" text-anchor="middle" x="977.5" y="-453.5" font-family="Helvetica,sans-Serif" font-size="10.00">SDL_Quit</text>
</a>
</g>
</g>
<!-- Node8&#45;&gt;Node27 -->
<g id="edge41_Node000008_Node000027" class="edge">
<title>Node8&#45;&gt;Node27</title>
<g id="a_edge41_Node000008_Node000027"><a xlink:title=" ">
<path fill="none" stroke="#63b8ff" d="M1264.08,-212.59C1257.34,-255.66 1236.12,-352.55 1177,-404 1128.3,-446.39 1049.24,-455.33 1007.09,-456.93"/>
<polygon fill="#63b8ff" stroke="#63b8ff" points="1267.53,-213.18 1265.49,-202.78 1260.6,-212.18 1267.53,-213.18"/>
</a>
</g>
</g>
<!-- Node33 -->
<g id="Node000033" class="node">
<title>Node33</title>
<g id="a_Node000033"><a xlink:href="../../dc/de1/SDL__sensor_8c.html#af97faaba22b06bf9fc16804bfc2ae7df" target="_top" xlink:title=" ">
<polygon fill="white" stroke="#666666" points="1168.38,-163 1073.62,-163 1073.62,-143 1168.38,-143 1168.38,-163"/>
<text xml:space="preserve" text-anchor="middle" x="1121" y="-149.5" font-family="Helvetica,sans-Serif" font-size="10.00">SDL_QuitSensors</text>
</a>
</g>
</g>
<!-- Node8&#45;&gt;Node33 -->
<g id="edge50_Node000008_Node000033" class="edge">
<title>Node8&#45;&gt;Node33</title>
<g id="a_edge50_Node000008_Node000033"><a xlink:title=" ">
<path fill="none" stroke="#63b8ff" d="M1235.11,-176.97C1215.7,-170.75 1190.51,-163.92 1168.84,-158.92"/>
<polygon fill="#63b8ff" stroke="#63b8ff" points="1233.78,-180.22 1244.37,-180.07 1236,-173.58 1233.78,-180.22"/>
</a>
</g>
</g>
<!-- Node10 -->
<g id="Node000010" class="node">
<title>Node10</title>
<g id="a_Node000010"><a xlink:href="../../d6/df9/SDL__joystick_8c.html#a0c867d96ec6bc9c3aca87c8ee6b53ade" target="_top" xlink:title=" ">
<polygon fill="white" stroke="#666666" points="315.12,-229 214.38,-229 214.38,-209 315.12,-209 315.12,-229"/>
<text xml:space="preserve" text-anchor="middle" x="264.75" y="-215.5" font-family="Helvetica,sans-Serif" font-size="10.00">SDL_OpenJoystick</text>
</a>
</g>
</g>
<!-- Node9&#45;&gt;Node10 -->
<g id="edge11_Node000009_Node000010" class="edge">
<title>Node9&#45;&gt;Node10</title>
<g id="a_edge11_Node000009_Node000010"><a xlink:title=" ">
<path fill="none" stroke="#63b8ff" d="M593.35,-99.24C586.46,-101.06 579.55,-102.99 573,-105 466.38,-137.67 342.92,-187.14 290.9,-208.53"/>
<polygon fill="#63b8ff" stroke="#63b8ff" points="593.82,-102.73 602.64,-96.85 592.08,-95.95 593.82,-102.73"/>
</a>
</g>
</g>
<!-- Node11 -->
<g id="Node000011" class="node">
<title>Node11</title>
<g id="a_Node000011"><a xlink:href="../../d0/d82/SDL__gamepad_8c.html#a011496690758b66ec0f7098f030b6d85" target="_top" xlink:title=" ">
<polygon fill="white" stroke="#666666" points="134.12,-305 28.12,-305 28.12,-285 134.12,-285 134.12,-305"/>
<text xml:space="preserve" text-anchor="middle" x="81.12" y="-291.5" font-family="Helvetica,sans-Serif" font-size="10.00">SDL_OpenGamepad</text>
</a>
</g>
</g>
<!-- Node10&#45;&gt;Node11 -->
<g id="edge12_Node000010_Node000011" class="edge">
<title>Node10&#45;&gt;Node11</title>
<g id="a_edge12_Node000010_Node000011"><a xlink:title=" ">
<path fill="none" stroke="#63b8ff" d="M228.43,-233.78C192.71,-248.72 138.42,-271.45 106.99,-284.6"/>
<polygon fill="#63b8ff" stroke="#63b8ff" points="229.61,-237.08 237.48,-229.99 226.9,-230.62 229.61,-237.08"/>
</a>
</g>
</g>
<!-- Node13 -->
<g id="Node000013" class="node">
<title>Node13</title>
<g id="a_Node000013"><a xlink:href="../../d6/df9/SDL__joystick_8c.html#aadf2e0eabb7fee1784bced6566d2f2ee" target="_top" xlink:title=" ">
<polygon fill="white" stroke="#666666" points="1029,-295 926,-295 926,-275 1029,-275 1029,-295"/>
<text xml:space="preserve" text-anchor="middle" x="977.5" y="-281.5" font-family="Helvetica,sans-Serif" font-size="10.00">SDL_CloseJoystick</text>
</a>
</g>
</g>
<!-- Node12&#45;&gt;Node13 -->
<g id="edge14_Node000012_Node000013" class="edge">
<title>Node12&#45;&gt;Node13</title>
<g id="a_edge14_Node000012_Node000013"><a xlink:title=" ">
<path fill="none" stroke="#63b8ff" d="M1053.41,-285C1045.23,-285 1036.97,-285 1029.07,-285"/>
<polygon fill="#63b8ff" stroke="#63b8ff" points="1053.37,-288.5 1063.37,-285 1053.37,-281.5 1053.37,-288.5"/>
</a>
</g>
</g>
<!-- Node13&#45;&gt;Node10 -->
<g id="edge19_Node000013_Node000010" class="edge">
<title>Node13&#45;&gt;Node10</title>
<g id="a_edge19_Node000013_Node000010"><a xlink:title=" ">
<path fill="none" stroke="#63b8ff" d="M914.55,-281.74C835.28,-277.33 693.75,-268.65 573,-257 481.92,-248.21 376.09,-234.31 315.42,-225.98"/>
<polygon fill="#63b8ff" stroke="#63b8ff" points="914.1,-285.22 924.28,-282.27 914.48,-278.23 914.1,-285.22"/>
</a>
</g>
</g>
<!-- Node13&#45;&gt;Node11 -->
<g id="edge18_Node000013_Node000011" class="edge">
<title>Node13&#45;&gt;Node11</title>
<g id="a_edge18_Node000013_Node000011"><a xlink:title=" ">
<path fill="none" stroke="#63b8ff" d="M914.35,-293.89C849.3,-302.42 744.14,-314 652.88,-314 652.88,-314 652.88,-314 451.12,-314 338.07,-314 205.78,-304.99 134.33,-299.38"/>
<polygon fill="#63b8ff" stroke="#63b8ff" points="914.67,-297.38 924.12,-292.59 913.74,-290.44 914.67,-297.38"/>
</a>
</g>
</g>
<!-- Node14 -->
<g id="Node000014" class="node">
<title>Node14</title>
<g id="a_Node000014"><a xlink:href="../../d0/d82/SDL__gamepad_8c.html#aba8e3cc0575aa23129847fd8418fc191" target="_top" xlink:title=" ">
<polygon fill="white" stroke="#666666" points="882.5,-362 774.25,-362 774.25,-342 882.5,-342 882.5,-362"/>
<text xml:space="preserve" text-anchor="middle" x="828.38" y="-348.5" font-family="Helvetica,sans-Serif" font-size="10.00">SDL_CloseGamepad</text>
</a>
</g>
</g>
<!-- Node13&#45;&gt;Node14 -->
<g id="edge15_Node000013_Node000014" class="edge">
<title>Node13&#45;&gt;Node14</title>
<g id="a_edge15_Node000013_Node000014"><a xlink:title=" ">
<path fill="none" stroke="#63b8ff" d="M946.65,-300.62C930.12,-309.07 909.1,-319.49 890,-328 879.35,-332.75 867.46,-337.56 857.04,-341.61"/>
<polygon fill="#63b8ff" stroke="#63b8ff" points="948.17,-303.77 955.45,-296.08 944.96,-297.55 948.17,-303.77"/>
</a>
</g>
</g>
<!-- Node13&#45;&gt;Node16 -->
<g id="edge20_Node000013_Node000016" class="edge">
<title>Node13&#45;&gt;Node16</title>
<g id="a_edge20_Node000013_Node000016"><a xlink:title=" ">
<path fill="none" stroke="#63b8ff" d="M933.13,-271.14C910.43,-263.9 883.1,-255.16 862.19,-248.48"/>
<polygon fill="#63b8ff" stroke="#63b8ff" points="931.82,-274.4 942.41,-274.11 933.95,-267.73 931.82,-274.4"/>
</a>
</g>
</g>
<!-- Node15 -->
<g id="Node000015" class="node">
<title>Node15</title>
<g id="a_Node000015"><a xlink:href="../../d0/d82/SDL__gamepad_8c.html#ad49c2e97ac6f1deaafd9aec54dff1659" target="_top" xlink:title=" ">
<polygon fill="white" stroke="#666666" points="704.88,-381 598.88,-381 598.88,-361 704.88,-361 704.88,-381"/>
<text xml:space="preserve" text-anchor="middle" x="651.88" y="-367.5" font-family="Helvetica,sans-Serif" font-size="10.00">SDL_QuitGamepads</text>
</a>
</g>
</g>
<!-- Node14&#45;&gt;Node15 -->
<g id="edge16_Node000014_Node000015" class="edge">
<title>Node14&#45;&gt;Node15</title>
<g id="a_edge16_Node000014_Node000015"><a xlink:title=" ">
<path fill="none" stroke="#63b8ff" d="M762.81,-359.03C743.85,-361.09 723.35,-363.33 705.25,-365.3"/>
<polygon fill="#63b8ff" stroke="#63b8ff" points="763,-362.53 772.57,-357.97 762.25,-355.57 763,-362.53"/>
</a>
</g>
</g>
<!-- Node15&#45;&gt;Node8 -->
<g id="edge17_Node000015_Node000008" class="edge">
<title>Node15&#45;&gt;Node8</title>
<g id="a_edge17_Node000015_Node000008"><a xlink:title=" ">
<path fill="none" stroke="#63b8ff" d="M716.62,-379.17C821.4,-389.26 1032.79,-395.24 1177,-304 1219.15,-277.33 1250.08,-223.84 1261.76,-201.34"/>
<polygon fill="#63b8ff" stroke="#63b8ff" points="717.1,-375.7 706.8,-378.18 716.4,-382.67 717.1,-375.7"/>
</a>
</g>
</g>
<!-- Node16&#45;&gt;Node8 -->
<g id="edge38_Node000016_Node000008" class="edge">
<title>Node16&#45;&gt;Node8</title>
<g id="a_edge38_Node000016_Node000008"><a xlink:title=" ">
<path fill="none" stroke="#63b8ff" d="M890.32,-238.13C959.73,-233.29 1076.55,-220.93 1177,-210 1198.69,-207.64 1223.33,-204.89 1241.31,-201.44"/>
<polygon fill="#63b8ff" stroke="#63b8ff" points="890.44,-234.61 880.69,-238.76 890.9,-241.6 890.44,-234.61"/>
</a>
</g>
</g>
<!-- Node17 -->
<g id="Node000017" class="node">
<title>Node17</title>
<g id="a_Node000017"><a xlink:href="../../d6/df9/SDL__joystick_8c.html#a9340afa4acb6b0fad4affbb99d4fa014" target="_top" xlink:title=" ">
<polygon fill="white" stroke="#666666" points="700,-248 603.75,-248 603.75,-228 700,-228 700,-248"/>
<text xml:space="preserve" text-anchor="middle" x="651.88" y="-234.5" font-family="Helvetica,sans-Serif" font-size="10.00">SDL_InitJoysticks</text>
</a>
</g>
</g>
<!-- Node16&#45;&gt;Node17 -->
<g id="edge21_Node000016_Node000017" class="edge">
<title>Node16&#45;&gt;Node17</title>
<g id="a_edge21_Node000016_Node000017"><a xlink:title=" ">
<path fill="none" stroke="#63b8ff" d="M766.44,-238C744.8,-238 720.79,-238 700.43,-238"/>
<polygon fill="#63b8ff" stroke="#63b8ff" points="766.32,-241.5 776.32,-238 766.32,-234.5 766.32,-241.5"/>
</a>
</g>
</g>
<!-- Node17&#45;&gt;Node18 -->
<g id="edge22_Node000017_Node000018" class="edge">
<title>Node17&#45;&gt;Node18</title>
<g id="a_edge22_Node000017_Node000018"><a xlink:title=" ">
<path fill="none" stroke="#63b8ff" d="M710.98,-235.23C717.76,-233.21 724.49,-230.79 730.75,-228 767.86,-211.46 805.96,-180.48 820.85,-163.43"/>
<polygon fill="#63b8ff" stroke="#63b8ff" points="710.53,-231.73 701.78,-237.69 712.34,-238.49 710.53,-231.73"/>
</a>
</g>
</g>
<!-- Node18&#45;&gt;Node9 -->
<g id="edge23_Node000018_Node000009" class="edge">
<title>Node18&#45;&gt;Node9</title>
<g id="a_edge23_Node000018_Node000009"><a xlink:title=" ">
<path fill="none" stroke="#63b8ff" d="M786.73,-138.29C779.95,-135.44 773.07,-132.31 766.75,-129 749.72,-120.08 748.36,-112.73 730.75,-105 723.1,-101.64 714.76,-98.82 706.48,-96.46"/>
<polygon fill="#63b8ff" stroke="#63b8ff" points="785.23,-141.45 795.81,-141.94 787.84,-134.96 785.23,-141.45"/>
</a>
</g>
</g>
<!-- Node18&#45;&gt;Node17 -->
<g id="edge29_Node000018_Node000017" class="edge">
<title>Node18&#45;&gt;Node17</title>
<g id="a_edge29_Node000018_Node000017"><a xlink:title=" ">
<path fill="none" stroke="#63b8ff" d="M797.24,-169.93C778.98,-182.7 754.66,-199.34 730.75,-210 712.45,-218.16 690.09,-223.15 674.04,-227.56"/>
<polygon fill="#63b8ff" stroke="#63b8ff" points="799.03,-172.95 805.22,-164.35 795.01,-167.22 799.03,-172.95"/>
</a>
</g>
</g>
<!-- Node18&#45;&gt;Node19 -->
<g id="edge24_Node000018_Node000019" class="edge">
<title>Node18&#45;&gt;Node19</title>
<g id="a_edge24_Node000018_Node000019"><a xlink:title=" ">
<path fill="none" stroke="#63b8ff" d="M811.55,-134.3C793.85,-114.6 763.37,-84.12 730.75,-67 716.21,-59.37 698.53,-54.74 683.69,-51.96"/>
<polygon fill="#63b8ff" stroke="#63b8ff" points="808.73,-136.4 817.96,-141.61 814,-131.79 808.73,-136.4"/>
</a>
</g>
</g>
<!-- Node21 -->
<g id="Node000021" class="node">
<title>Node21</title>
<g id="a_Node000021"><a xlink:href="../../df/d78/SDL_8c.html#ac25d0ce460db43ca8c7681eb8e7c5007" target="_top" xlink:title=" ">
<polygon fill="white" stroke="#666666" points="679,-210 624.75,-210 624.75,-190 679,-190 679,-210"/>
<text xml:space="preserve" text-anchor="middle" x="651.88" y="-196.5" font-family="Helvetica,sans-Serif" font-size="10.00">SDL_Init</text>
</a>
</g>
</g>
<!-- Node18&#45;&gt;Node21 -->
<g id="edge27_Node000018_Node000021" class="edge">
<title>Node18&#45;&gt;Node21</title>
<g id="a_edge27_Node000018_Node000021"><a xlink:title=" ">
<path fill="none" stroke="#63b8ff" d="M781.84,-166.63C765.74,-171.33 747.48,-176.54 730.75,-181 713.67,-185.56 694.37,-190.27 679.26,-193.86"/>
<polygon fill="#63b8ff" stroke="#63b8ff" points="782.53,-170.07 791.14,-163.9 780.56,-163.36 782.53,-170.07"/>
</a>
</g>
</g>
<!-- Node22 -->
<g id="Node000022" class="node">
<title>Node22</title>
<g id="a_Node000022"><a xlink:href="../../d9/d78/SDL__main__callbacks_8c.html#a3d21b5bf7aa441418de48c5b2856336a" target="_top" xlink:title=" ">
<polygon fill="white" stroke="#666666" points="711.25,-172 592.5,-172 592.5,-152 711.25,-152 711.25,-172"/>
<text xml:space="preserve" text-anchor="middle" x="651.88" y="-158.5" font-family="Helvetica,sans-Serif" font-size="10.00">SDL_InitMainCallbacks</text>
</a>
</g>
</g>
<!-- Node18&#45;&gt;Node22 -->
<g id="edge30_Node000018_Node000022" class="edge">
<title>Node18&#45;&gt;Node22</title>
<g id="a_edge30_Node000018_Node000022"><a xlink:title=" ">
<path fill="none" stroke="#63b8ff" d="M764.4,-156.25C747.17,-157.14 728.57,-158.1 711.6,-158.97"/>
<polygon fill="#63b8ff" stroke="#63b8ff" points="764.17,-159.76 773.98,-155.75 763.81,-152.77 764.17,-159.76"/>
</a>
</g>
</g>
<!-- Node24 -->
<g id="Node000024" class="node">
<title>Node24</title>
<g id="a_Node000024"><a xlink:href="../../df/d78/SDL_8c.html#a8f0bf712ad7ba759f5b6e04e683c67d4" target="_top" xlink:title=" ">
<polygon fill="white" stroke="#666666" points="730.75,-134 573,-134 573,-114 730.75,-114 730.75,-134"/>
<text xml:space="preserve" text-anchor="middle" x="651.88" y="-120.5" font-family="Helvetica,sans-Serif" font-size="10.00">SDL_InitOrIncrementSubsystem</text>
</a>
</g>
</g>
<!-- Node18&#45;&gt;Node24 -->
<g id="edge32_Node000018_Node000024" class="edge">
<title>Node18&#45;&gt;Node24</title>
<g id="a_edge32_Node000018_Node000024"><a xlink:title=" ">
<path fill="none" stroke="#63b8ff" d="M785.72,-140.22C769.28,-136.78 749.83,-133.26 730.96,-130.26"/>
<polygon fill="#63b8ff" stroke="#63b8ff" points="784.58,-143.56 795.1,-142.27 786.08,-136.72 784.58,-143.56"/>
</a>
</g>
</g>
<!-- Node25 -->
<g id="Node000025" class="node">
<title>Node25</title>
<g id="a_Node000025"><a xlink:href="../../dc/de1/SDL__sensor_8c.html#abdb7d6b73a301a2c8558ba80edb32331" target="_top" xlink:title=" ">
<polygon fill="white" stroke="#666666" points="1022.62,-163 932.38,-163 932.38,-143 1022.62,-143 1022.62,-163"/>
<text xml:space="preserve" text-anchor="middle" x="977.5" y="-149.5" font-family="Helvetica,sans-Serif" font-size="10.00">SDL_InitSensors</text>
</a>
</g>
</g>
<!-- Node18&#45;&gt;Node25 -->
<g id="edge34_Node000018_Node000025" class="edge">
<title>Node18&#45;&gt;Node25</title>
<g id="a_edge34_Node000018_Node000025"><a xlink:title=" ">
<path fill="none" stroke="#63b8ff" d="M892.71,-159.69C905.93,-159.84 919.6,-159.7 931.96,-159.26"/>
<polygon fill="#63b8ff" stroke="#63b8ff" points="892.83,-156.19 882.77,-159.51 892.71,-163.19 892.83,-156.19"/>
</a>
</g>
</g>
<!-- Node18&#45;&gt;Node26 -->
<g id="edge36_Node000018_Node000026" class="edge">
<title>Node18&#45;&gt;Node26</title>
<g id="a_edge36_Node000018_Node000026"><a xlink:title=" ">
<path fill="none" stroke="#63b8ff" d="M819.86,-132.28C806.04,-102.18 774.03,-47.99 730.75,-20 719.18,-12.52 704.91,-7.98 691.77,-5.75"/>
<polygon fill="#63b8ff" stroke="#63b8ff" points="816.5,-133.33 823.65,-141.14 822.93,-130.57 816.5,-133.33"/>
</a>
</g>
</g>
<!-- Node20 -->
<g id="Node000020" class="node">
<title>Node20</title>
<g id="a_Node000020"><a xlink:href="../../d6/df9/SDL__joystick_8c.html#a497945f75b33dbfcde319992145025c5" target="_top" xlink:title=" ">
<polygon fill="white" stroke="#666666" points="522.38,-96 381.88,-96 381.88,-76 522.38,-76 522.38,-96"/>
<text xml:space="preserve" text-anchor="middle" x="452.12" y="-82.5" font-family="Helvetica,sans-Serif" font-size="10.00">ShouldAttemptSensorFusion</text>
</a>
</g>
</g>
<!-- Node19&#45;&gt;Node20 -->
<g id="edge25_Node000019_Node000020" class="edge">
<title>Node19&#45;&gt;Node20</title>
<g id="a_edge25_Node000019_Node000020"><a xlink:title=" ">
<path fill="none" stroke="#63b8ff" d="M608.81,-56.08C579.32,-61.75 539.61,-69.38 507.68,-75.52"/>
<polygon fill="#63b8ff" stroke="#63b8ff" points="609.33,-59.55 618.49,-54.22 608.01,-52.67 609.33,-59.55"/>
</a>
</g>
</g>
<!-- Node20&#45;&gt;Node10 -->
<g id="edge26_Node000020_Node000010" class="edge">
<title>Node20&#45;&gt;Node10</title>
<g id="a_edge26_Node000020_Node000010"><a xlink:title=" ">
<path fill="none" stroke="#63b8ff" d="M427.3,-103.09C388.31,-131.07 312.04,-185.79 280.23,-208.61"/>
<polygon fill="#63b8ff" stroke="#63b8ff" points="429.26,-105.99 435.35,-97.32 425.18,-100.3 429.26,-105.99"/>
</a>
</g>
</g>
<!-- Node21&#45;&gt;Node4 -->
<g id="edge28_Node000021_Node000004" class="edge">
<title>Node21&#45;&gt;Node4</title>
<g id="a_edge28_Node000021_Node000004"><a xlink:title=" ">
<path fill="none" stroke="#63b8ff" d="M613.13,-200.61C598.66,-202.82 583.19,-207.93 573,-219 503.52,-294.48 585.79,-356.75 537,-447 521.3,-476.04 490.08,-499.7 470.48,-512.53"/>
<polygon fill="#63b8ff" stroke="#63b8ff" points="613.33,-204.11 622.9,-199.57 612.59,-197.15 613.33,-204.11"/>
</a>
</g>
</g>
<!-- Node23 -->
<g id="Node000023" class="node">
<title>Node23</title>
<g id="a_Node000023"><a xlink:href="../../dd/db5/generic_2SDL__sysmain__callbacks_8c.html#aa50e1897a91f2547b5f31125020220e2" target="_top" xlink:title=" ">
<polygon fill="white" stroke="#666666" points="525,-438 379.25,-438 379.25,-418 525,-418 525,-438"/>
<text xml:space="preserve" text-anchor="middle" x="452.12" y="-424.5" font-family="Helvetica,sans-Serif" font-size="10.00">SDL_EnterAppMainCallbacks</text>
</a>
</g>
</g>
<!-- Node22&#45;&gt;Node23 -->
<g id="edge31_Node000022_Node000023" class="edge">
<title>Node22&#45;&gt;Node23</title>
<g id="a_edge31_Node000022_Node000023"><a xlink:title=" ">
<path fill="none" stroke="#63b8ff" d="M581.76,-175.12C578.67,-176.85 575.73,-178.8 573,-181 492.15,-246.27 462.07,-379.49 454.92,-417.6"/>
<polygon fill="#63b8ff" stroke="#63b8ff" points="583.11,-178.35 590.69,-170.95 580.15,-172.01 583.11,-178.35"/>
</a>
</g>
</g>
<!-- Node24&#45;&gt;Node18 -->
<g id="edge33_Node000024_Node000018" class="edge">
<title>Node24&#45;&gt;Node18</title>
<g id="a_edge33_Node000024_Node000018"><a xlink:title=" ">
<path fill="none" stroke="#63b8ff" d="M695.03,-136.88C719.23,-141.94 749.82,-147.14 775.49,-150.61"/>
<polygon fill="#63b8ff" stroke="#63b8ff" points="696.05,-133.52 685.53,-134.82 694.56,-140.36 696.05,-133.52"/>
</a>
</g>
</g>
<!-- Node25&#45;&gt;Node18 -->
<g id="edge35_Node000025_Node000018" class="edge">
<title>Node25&#45;&gt;Node18</title>
<g id="a_edge35_Node000025_Node000018"><a xlink:title=" ">
<path fill="none" stroke="#63b8ff" d="M920.8,-146.43C907.83,-146.16 894.06,-146.19 881.26,-146.52"/>
<polygon fill="#63b8ff" stroke="#63b8ff" points="920.35,-149.92 930.45,-146.7 920.55,-142.92 920.35,-149.92"/>
</a>
</g>
</g>
<!-- Node26&#45;&gt;Node18 -->
<g id="edge37_Node000026_Node000018" class="edge">
<title>Node26&#45;&gt;Node18</title>
<g id="a_edge37_Node000026_Node000018"><a xlink:title=" ">
<path fill="none" stroke="#63b8ff" d="M693,-23.02C705.8,-26.27 719.54,-30.75 730.75,-38 773.83,-65.86 805.75,-119.68 819.66,-142.73"/>
<polygon fill="#63b8ff" stroke="#63b8ff" points="694.09,-19.68 683.55,-20.79 692.48,-26.49 694.09,-19.68"/>
</a>
</g>
</g>
<!-- Node28 -->
<g id="Node000028" class="node">
<title>Node28</title>
<g id="a_Node000028"><a xlink:href="../../de/daf/classCSDLmain.html#a73bd9c42ac6916974009e508257e44ff" target="_top" xlink:title=" ">
<polygon fill="white" stroke="#666666" points="875,-438 781.75,-438 781.75,-418 875,-418 875,-438"/>
<text xml:space="preserve" text-anchor="middle" x="828.38" y="-424.5" font-family="Helvetica,sans-Serif" font-size="10.00">CSDLmain::RunL</text>
</a>
</g>
</g>
<!-- Node27&#45;&gt;Node28 -->
<g id="edge42_Node000027_Node000028" class="edge">
<title>Node27&#45;&gt;Node28</title>
<g id="a_edge42_Node000027_Node000028"><a xlink:title=" ">
<path fill="none" stroke="#63b8ff" d="M936.57,-449.13C917.67,-445.4 895,-440.94 875.39,-437.07"/>
<polygon fill="#63b8ff" stroke="#63b8ff" points="935.81,-452.55 946.3,-451.05 937.16,-445.68 935.81,-452.55"/>
</a>
</g>
</g>
<!-- Node29 -->
<g id="Node000029" class="node">
<title>Node29</title>
<g id="a_Node000029"><a xlink:href="../../d3/d6c/SDL__assert_8c.html#af146e7f66c4e41a24337c5b6943af0b0" target="_top" xlink:title=" ">
<polygon fill="white" stroke="#666666" points="881,-514 775.75,-514 775.75,-494 881,-494 881,-514"/>
<text xml:space="preserve" text-anchor="middle" x="828.38" y="-500.5" font-family="Helvetica,sans-Serif" font-size="10.00">SDL_AbortAssertion</text>
</a>
</g>
</g>
<!-- Node27&#45;&gt;Node29 -->
<g id="edge43_Node000027_Node000029" class="edge">
<title>Node27&#45;&gt;Node29</title>
<g id="a_edge43_Node000027_Node000029"><a xlink:title=" ">
<path fill="none" stroke="#63b8ff" d="M936.91,-469.9C922.19,-474.68 905.34,-480.11 890,-485 881.28,-487.78 871.84,-490.75 863.06,-493.5"/>
<polygon fill="#63b8ff" stroke="#63b8ff" points="937.82,-473.29 946.25,-466.87 935.66,-466.63 937.82,-473.29"/>
</a>
</g>
</g>
<!-- Node31 -->
<g id="Node000031" class="node">
<title>Node31</title>
<g id="a_Node000031"><a xlink:href="../../d9/d78/SDL__main__callbacks_8c.html#a2e8bd250bb597fdf72c9da9d001181e7" target="_top" xlink:title=" ">
<polygon fill="white" stroke="#666666" points="890,-476 766.75,-476 766.75,-456 890,-456 890,-476"/>
<text xml:space="preserve" text-anchor="middle" x="828.38" y="-462.5" font-family="Helvetica,sans-Serif" font-size="10.00">SDL_QuitMainCallbacks</text>
</a>
</g>
</g>
<!-- Node27&#45;&gt;Node31 -->
<g id="edge45_Node000027_Node000031" class="edge">
<title>Node27&#45;&gt;Node31</title>
<g id="a_edge45_Node000027_Node000031"><a xlink:title=" ">
<path fill="none" stroke="#63b8ff" d="M936.4,-459.45C922.18,-460.32 905.84,-461.32 890.28,-462.27"/>
<polygon fill="#63b8ff" stroke="#63b8ff" points="936.51,-462.95 946.27,-458.85 936.08,-455.97 936.51,-462.95"/>
</a>
</g>
</g>
<!-- Node30 -->
<g id="Node000030" class="node">
<title>Node30</title>
<g id="a_Node000030"><a xlink:href="../../d3/d6c/SDL__assert_8c.html#a0c9a208493d6e9212cff2ab400242102" target="_top" xlink:title=" ">
<polygon fill="white" stroke="#666666" points="707.5,-514 596.25,-514 596.25,-494 707.5,-494 707.5,-514"/>
<text xml:space="preserve" text-anchor="middle" x="651.88" y="-500.5" font-family="Helvetica,sans-Serif" font-size="10.00">SDL_ReportAssertion</text>
</a>
</g>
</g>
<!-- Node29&#45;&gt;Node30 -->
<g id="edge44_Node000029_Node000030" class="edge">
<title>Node29&#45;&gt;Node30</title>
<g id="a_edge44_Node000029_Node000030"><a xlink:title=" ">
<path fill="none" stroke="#63b8ff" d="M763.98,-504C745.61,-504 725.71,-504 707.9,-504"/>
<polygon fill="#63b8ff" stroke="#63b8ff" points="763.98,-507.5 773.98,-504 763.98,-500.5 763.98,-507.5"/>
</a>
</g>
</g>
<!-- Node31&#45;&gt;Node23 -->
<g id="edge48_Node000031_Node000023" class="edge">
<title>Node31&#45;&gt;Node23</title>
<g id="a_edge48_Node000031_Node000023"><a xlink:title=" ">
<path fill="none" stroke="#63b8ff" d="M755.1,-462.2C704.1,-459.12 634.24,-454.13 573,-447 553.43,-444.72 532.16,-441.57 513.05,-438.49"/>
<polygon fill="#63b8ff" stroke="#63b8ff" points="754.63,-465.67 764.82,-462.77 755.05,-458.69 754.63,-465.67"/>
</a>
</g>
</g>
<!-- Node32 -->
<g id="Node000032" class="node">
<title>Node32</title>
<g id="a_Node000032"><a xlink:href="../../d0/d72/emscripten_2SDL__sysmain__callbacks_8c.html#ad2e127e4f44ae815197361e79da5bf88" target="_top" xlink:title=" ">
<polygon fill="white" stroke="#666666" points="720.25,-438 583.5,-438 583.5,-418 720.25,-418 720.25,-438"/>
<text xml:space="preserve" text-anchor="middle" x="651.88" y="-424.5" font-family="Helvetica,sans-Serif" font-size="10.00">EmscriptenInternalMainloop</text>
</a>
</g>
</g>
<!-- Node31&#45;&gt;Node32 -->
<g id="edge46_Node000031_Node000032" class="edge">
<title>Node31&#45;&gt;Node32</title>
<g id="a_edge46_Node000031_Node000032"><a xlink:title=" ">
<path fill="none" stroke="#63b8ff" d="M768.05,-453.08C746.15,-448.31 721.63,-442.97 700.86,-438.45"/>
<polygon fill="#63b8ff" stroke="#63b8ff" points="767.24,-456.49 777.75,-455.19 768.73,-449.65 767.24,-456.49"/>
</a>
</g>
</g>
<!-- Node32&#45;&gt;Node23 -->
<g id="edge47_Node000032_Node000023" class="edge">
<title>Node32&#45;&gt;Node23</title>
<g id="a_edge47_Node000032_Node000023"><a xlink:title=" ">
<path fill="none" stroke="#63b8ff" d="M571.99,-428C556.54,-428 540.41,-428 525.2,-428"/>
<polygon fill="#63b8ff" stroke="#63b8ff" points="571.58,-431.5 581.58,-428 571.58,-424.5 571.58,-431.5"/>
</a>
</g>
</g>
<!-- Node33&#45;&gt;Node8 -->
<g id="edge52_Node000033_Node000008" class="edge">
<title>Node33&#45;&gt;Node8</title>
<g id="a_edge52_Node000033_Node000008"><a xlink:title=" ">
<path fill="none" stroke="#63b8ff" d="M1153.55,-166.96C1170.79,-172.49 1192.63,-178.51 1212.52,-183.3"/>
<polygon fill="#63b8ff" stroke="#63b8ff" points="1154.98,-163.75 1144.39,-163.89 1152.76,-170.39 1154.98,-163.75"/>
</a>
</g>
</g>
<!-- Node33&#45;&gt;Node25 -->
<g id="edge51_Node000033_Node000025" class="edge">
<title>Node33&#45;&gt;Node25</title>
<g id="a_edge51_Node000033_Node000025"><a xlink:title=" ">
<path fill="none" stroke="#63b8ff" d="M1061.97,-153C1048.88,-153 1035.19,-153 1022.78,-153"/>
<polygon fill="#63b8ff" stroke="#63b8ff" points="1061.76,-156.5 1071.76,-153 1061.76,-149.5 1061.76,-156.5"/>
</a>
</g>
</g>
</g>
</svg>

<g id="navigator" transform="translate(0 0)" fill="#404254">
  <rect fill="#f2f5e9" fill-opacity="0.5" stroke="#606060" stroke-width=".5" x="0" y="0" width="60" height="60"/>
  <use id="zoomplus" xlink:href="#zoomPlus" x="17" y="9" onmousedown="handleZoom(evt,'in')"/>
  <use id="zoomminus" xlink:href="#zoomMin" x="42" y="9" onmousedown="handleZoom(evt,'out')"/>
  <use id="reset" xlink:href="#resetDef" x="30" y="36" onmousedown="handleReset()"/>
   <use id="arrowup" xlink:href="#arrowUp" x="0" y="0" onmousedown="handlePan(0,-1)"/>
  <use id="arrowright" xlink:href="#arrowRight" x="0" y="0" onmousedown="handlePan(1,0)"/>
  <use id="arrowdown" xlink:href="#arrowDown" x="0" y="0" onmousedown="handlePan(0,1)"/>
  <use id="arrowleft" xlink:href="#arrowLeft" x="0" y="0" onmousedown="handlePan(-1,0)"/>
</g>
<svg viewBox="0 0 15 15" width="100%" height="30px" preserveAspectRatio="xMaxYMin meet">
 <g id="arrow_out" transform="scale(0.3 0.3)">
  <a xlink:href="SDL__video_8c_a36065e4382fde857c6e394d51fff060a_icgraph_org.svg" target="_base">
   <rect id="button" ry="5" rx="5" y="6" x="6" height="38" width="38"
        fill="#f2f5e9" fill-opacity="0.5" stroke="#606060" stroke-width="1.0"/>
   <path id="arrow"
     d="M 11.500037,31.436501 C 11.940474,20.09759 22.043105,11.32322 32.158766,21.979434 L 37.068811,17.246167 C 37.068811,17.246167 37.088388,32 37.088388,32 L 22.160133,31.978069 C 22.160133,31.978069 26.997745,27.140456 26.997745,27.140456 C 18.528582,18.264221 13.291696,25.230495 11.500037,31.436501 z"
     style="fill:#404040;"/>
  </a>
 </g>
</svg>

<style type='text/css'>
<![CDATA[
[data-mouse-over-selected='false'] { opacity: 0.7; }
[data-mouse-over-selected='true']  { opacity: 1.0; }
]]>
</style>
<script type="application/ecmascript"><![CDATA[
document.addEventListener('DOMContentLoaded', (event) => {
  highlightEdges();
  highlightAdjacentNodes();
});
]]></script>
</svg>
