<?xml version="1.0" encoding="UTF-8" standalone="no"?>
<!DOCTYPE svg PUBLIC "-//W3C//DTD SVG 1.1//EN"
 "http://www.w3.org/Graphics/SVG/1.1/DTD/svg11.dtd">
<!-- Generated by graphviz version 13.1.0 (20250701.0955)
 -->
<!-- Title: SDL_CleanupWindowTextureData Pages: 1 -->
<svg width="701pt" height="28pt"
 viewBox="0.00 0.00 701.00 28.00" xmlns="http://www.w3.org/2000/svg" xmlns:xlink="http://www.w3.org/1999/xlink">
<g id="graph0" class="graph" transform="scale(1 1) rotate(0) translate(4 24)">
<title>SDL_CleanupWindowTextureData</title>
<!-- Node1 -->
<g id="Node000001" class="node">
<title>Node1</title>
<g id="a_Node000001"><a xlink:title=" ">
<polygon fill="#999999" stroke="#666666" points="693.25,-20 528,-20 528,0 693.25,0 693.25,-20"/>
<text xml:space="preserve" text-anchor="middle" x="610.62" y="-6.5" font-family="Helvetica,sans-Serif" font-size="10.00">SDL_CleanupWindowTextureData</text>
</a>
</g>
</g>
<!-- Node2 -->
<g id="Node000002" class="node">
<title>Node2</title>
<g id="a_Node000002"><a xlink:href="../../d6/d3d/SDL__video_8c.html#ae87638d537fdd872b08bfb7a68f4bf1a" target="_top" xlink:title=" ">
<polygon fill="white" stroke="#666666" points="492,-20 354.5,-20 354.5,0 492,0 492,-20"/>
<text xml:space="preserve" text-anchor="middle" x="423.25" y="-6.5" font-family="Helvetica,sans-Serif" font-size="10.00">SDL_CreateWindowTexture</text>
</a>
</g>
</g>
<!-- Node1&#45;&gt;Node2 -->
<g id="edge1_Node000001_Node000002" class="edge">
<title>Node1&#45;&gt;Node2</title>
<g id="a_edge1_Node000001_Node000002"><a xlink:title=" ">
<path fill="none" stroke="#63b8ff" d="M516.2,-10C508.19,-10 500.19,-10 492.43,-10"/>
<polygon fill="#63b8ff" stroke="#63b8ff" points="515.99,-13.5 525.99,-10 515.99,-6.5 515.99,-13.5"/>
</a>
</g>
</g>
<!-- Node3 -->
<g id="Node000003" class="node">
<title>Node3</title>
<g id="a_Node000003"><a xlink:href="../../d6/d3d/SDL__video_8c.html#ae6c55eb5cc6ca81ba6faa17eab3af85b" target="_top" xlink:title=" ">
<polygon fill="white" stroke="#666666" points="318.5,-20 161.5,-20 161.5,0 318.5,0 318.5,-20"/>
<text xml:space="preserve" text-anchor="middle" x="240" y="-6.5" font-family="Helvetica,sans-Serif" font-size="10.00">SDL_CreateWindowFramebuffer</text>
</a>
</g>
</g>
<!-- Node2&#45;&gt;Node3 -->
<g id="edge2_Node000002_Node000003" class="edge">
<title>Node2&#45;&gt;Node3</title>
<g id="a_edge2_Node000002_Node000003"><a xlink:title=" ">
<path fill="none" stroke="#63b8ff" d="M342.73,-10C334.8,-10 326.75,-10 318.83,-10"/>
<polygon fill="#63b8ff" stroke="#63b8ff" points="342.73,-13.5 352.73,-10 342.73,-6.5 342.73,-13.5"/>
</a>
</g>
</g>
<!-- Node4 -->
<g id="Node000004" class="node">
<title>Node4</title>
<g id="a_Node000004"><a xlink:href="../../d6/d3d/SDL__video_8c.html#a155d3f01bb23f59e2c724973e020ebe6" target="_top" xlink:title=" ">
<polygon fill="white" stroke="#666666" points="125.5,-20 0,-20 0,0 125.5,0 125.5,-20"/>
<text xml:space="preserve" text-anchor="middle" x="62.75" y="-6.5" font-family="Helvetica,sans-Serif" font-size="10.00">SDL_GetWindowSurface</text>
</a>
</g>
</g>
<!-- Node3&#45;&gt;Node4 -->
<g id="edge3_Node000003_Node000004" class="edge">
<title>Node3&#45;&gt;Node4</title>
<g id="a_edge3_Node000003_Node000004"><a xlink:title=" ">
<path fill="none" stroke="#63b8ff" d="M149.74,-10C141.68,-10 133.64,-10 125.89,-10"/>
<polygon fill="#63b8ff" stroke="#63b8ff" points="149.6,-13.5 159.6,-10 149.6,-6.5 149.6,-13.5"/>
</a>
</g>
</g>
</g>
</svg>
