<?xml version="1.0" encoding="UTF-8" standalone="no"?>
<!DOCTYPE svg PUBLIC "-//W3C//DTD SVG 1.1//EN"
 "http://www.w3.org/Graphics/SVG/1.1/DTD/svg11.dtd">
<!-- Generated by graphviz version 13.1.0 (20250701.0955)
 -->
<!-- Title: SDL_GetWindowPosition Pages: 1 -->
<!--zoomable 142 -->

<svg id="main" version="1.1" xmlns="http://www.w3.org/2000/svg" xmlns:xlink="http://www.w3.org/1999/xlink" xml:space="preserve" onload="init(evt)">

<style type="text/css"><![CDATA[
.node, .edge {opacity: 0.7;}
.node.selected, .edge.selected {opacity: 1;}
.edge:hover path { stroke: red; }
.edge:hover polygon { stroke: red; fill: red; }
]]></style>

<defs>
  <circle id="rim" cx="0" cy="0" r="7"/>
  <circle id="rim2" cx="0" cy="0" r="3.5"/>
  <g id="zoomPlus">
    <use xlink:href="#rim" fill="#404040"><set attributeName="fill" to="#808080" begin="zoomplus.mouseover" end="zoomplus.mouseout"/></use>
    <path d="M-4,0h8M0,-4v8" fill="none" stroke="white" stroke-width="1.5" pointer-events="none"/>
  </g>
  <g id="zoomMin">
    <use xlink:href="#rim" fill="#404040"><set attributeName="fill" to="#808080" begin="zoomminus.mouseover" end="zoomminus.mouseout"/></use>
    <path d="M-4,0h8" fill="none" stroke="white" stroke-width="1.5" pointer-events="none"/>
  </g>
  <g id="arrowUp" transform="translate(30 24)">
    <use xlink:href="#rim"/>
    <path pointer-events="none" fill="none" stroke="white" stroke-width="1.5" d="M0,-3.0v7 M-2.5,-0.5L0,-3.0L2.5,-0.5"/>
  </g>
  <g id="arrowRight" transform="rotate(90) translate(36 -43)">
    <use xlink:href="#rim"/>
    <path pointer-events="none" fill="none" stroke="white" stroke-width="1.5" d="M0,-3.0v7 M-2.5,-0.5L0,-3.0L2.5,-0.5"/>
  </g>
  <g id="arrowDown" transform="rotate(180) translate(-30 -48)">
    <use xlink:href="#rim"/>
    <path pointer-events="none" fill="none" stroke="white" stroke-width="1.5" d="M0,-3.0v7 M-2.5,-0.5L0,-3.0L2.5,-0.5"/>
  </g>
  <g id="arrowLeft" transform="rotate(270) translate(-36 17)">
    <use xlink:href="#rim"/>
    <path pointer-events="none" fill="none" stroke="white" stroke-width="1.5" d="M0,-3.0v7 M-2.5,-0.5L0,-3.0L2.5,-0.5"/>
  </g>
  <g id="resetDef">
    <use xlink:href="#rim2" fill="#404040"><set attributeName="fill" to="#808080" begin="reset.mouseover" end="reset.mouseout"/></use>
  </g>
</defs>
<script type="application/ecmascript">
var viewWidth = 1082;
var viewHeight = 142;
var sectionId = 'dynsection-140';
</script>
<script type="application/ecmascript" xlink:href="../../svg.min.js"/>
<svg id="graph" class="graph">
<g id="viewport">
<title>SDL_GetWindowPosition</title>
<!-- Node1 -->
<g id="Node000001" class="node">
<title>Node1</title>
<g id="a_Node000001"><a xlink:title=" ">
<polygon fill="#999999" stroke="#666666" points="1073.5,-96 946.5,-96 946.5,-76 1073.5,-76 1073.5,-96"/>
<text xml:space="preserve" text-anchor="middle" x="1010" y="-82.5" font-family="Helvetica,sans-Serif" font-size="10.00">SDL_GetWindowPosition</text>
</a>
</g>
</g>
<!-- Node2 -->
<g id="Node000002" class="node">
<title>Node2</title>
<g id="a_Node000002"><a xlink:href="../../df/d50/classSDL__BLooper.html#a50d39349c5cccaf37b039106eef808bc" target="_top" xlink:title=" ">
<polygon fill="white" stroke="#666666" points="910.5,-124 738.5,-124 738.5,-104 910.5,-104 910.5,-124"/>
<text xml:space="preserve" text-anchor="middle" x="824.5" y="-110.5" font-family="Helvetica,sans-Serif" font-size="10.00">SDL_BLooper::_HandleMouseMove</text>
</a>
</g>
</g>
<!-- Node1&#45;&gt;Node2 -->
<g id="edge1_Node000001_Node000002" class="edge">
<title>Node1&#45;&gt;Node2</title>
<g id="a_edge1_Node000001_Node000002"><a xlink:title=" ">
<path fill="none" stroke="#63b8ff" d="M934.97,-97.3C921.53,-99.35 907.56,-101.48 894.28,-103.51"/>
<polygon fill="#63b8ff" stroke="#63b8ff" points="935.25,-100.79 944.61,-95.83 934.2,-93.87 935.25,-100.79"/>
</a>
</g>
</g>
<!-- Node4 -->
<g id="Node000004" class="node">
<title>Node4</title>
<g id="a_Node000004"><a xlink:href="../../d8/d3d/SDL__fcitx_8c.html#ae42b39de507c4f398a2a4bbc9a3a85a4" target="_top" xlink:title=" ">
<polygon fill="white" stroke="#666666" points="904.5,-77 744.5,-77 744.5,-57 904.5,-57 904.5,-77"/>
<text xml:space="preserve" text-anchor="middle" x="824.5" y="-63.5" font-family="Helvetica,sans-Serif" font-size="10.00">SDL_Fcitx_UpdateTextInputArea</text>
</a>
</g>
</g>
<!-- Node1&#45;&gt;Node4 -->
<g id="edge3_Node000001_Node000004" class="edge">
<title>Node1&#45;&gt;Node4</title>
<g id="a_edge3_Node000001_Node000004"><a xlink:title=" ">
<path fill="none" stroke="#63b8ff" d="M934.72,-78.31C924.88,-77.29 914.77,-76.24 904.85,-75.22"/>
<polygon fill="#63b8ff" stroke="#63b8ff" points="934.29,-81.78 944.6,-79.33 935.01,-74.82 934.29,-81.78"/>
</a>
</g>
</g>
<!-- Node3 -->
<g id="Node000003" class="node">
<title>Node3</title>
<g id="a_Node000003"><a xlink:href="../../df/d50/classSDL__BLooper.html#a5af46ad176704d2ad29595213710d8af" target="_top" xlink:title=" ">
<polygon fill="white" stroke="#666666" points="702.5,-134 538.75,-134 538.75,-114 702.5,-114 702.5,-134"/>
<text xml:space="preserve" text-anchor="middle" x="620.62" y="-120.5" font-family="Helvetica,sans-Serif" font-size="10.00">SDL_BLooper::MessageReceived</text>
</a>
</g>
</g>
<!-- Node2&#45;&gt;Node3 -->
<g id="edge2_Node000002_Node000003" class="edge">
<title>Node2&#45;&gt;Node3</title>
<g id="a_edge2_Node000002_Node000003"><a xlink:title=" ">
<path fill="none" stroke="#63b8ff" d="M726.84,-118.79C718.79,-119.19 710.7,-119.59 702.78,-119.98"/>
<polygon fill="#63b8ff" stroke="#63b8ff" points="726.85,-122.29 736.67,-118.3 726.51,-115.3 726.85,-122.29"/>
</a>
</g>
</g>
<!-- Node5 -->
<g id="Node000005" class="node">
<title>Node5</title>
<g id="a_Node000005"><a xlink:href="../../d8/d3d/SDL__fcitx_8c.html#ae2a17a5e6962c20316702ab6938a04d7" target="_top" xlink:title=" ">
<polygon fill="white" stroke="#666666" points="674.38,-96 566.88,-96 566.88,-76 674.38,-76 674.38,-96"/>
<text xml:space="preserve" text-anchor="middle" x="620.62" y="-82.5" font-family="Helvetica,sans-Serif" font-size="10.00">DBus_MessageFilter</text>
</a>
</g>
</g>
<!-- Node4&#45;&gt;Node5 -->
<g id="edge4_Node000004_Node000005" class="edge">
<title>Node4&#45;&gt;Node5</title>
<g id="a_edge4_Node000004_Node000005"><a xlink:title=" ">
<path fill="none" stroke="#63b8ff" d="M732.72,-75.54C712.85,-77.41 692.45,-79.33 674.64,-81.01"/>
<polygon fill="#63b8ff" stroke="#63b8ff" points="732.87,-79.05 742.5,-74.62 732.21,-72.08 732.87,-79.05"/>
</a>
</g>
</g>
<!-- Node8 -->
<g id="Node000008" class="node">
<title>Node8</title>
<g id="a_Node000008"><a xlink:href="../../d6/dca/SDL__ime_8c.html#a43c3ce1b3fb7c51d28e85239d2df465f" target="_top" xlink:title=" ">
<polygon fill="white" stroke="#666666" points="161,-58 113.5,-58 113.5,-38 161,-38 161,-58"/>
<text xml:space="preserve" text-anchor="middle" x="137.25" y="-44.5" font-family="Helvetica,sans-Serif" font-size="10.00">InitIME</text>
</a>
</g>
</g>
<!-- Node4&#45;&gt;Node8 -->
<g id="edge10_Node000004_Node000008" class="edge">
<title>Node4&#45;&gt;Node8</title>
<g id="a_edge10_Node000004_Node000008"><a xlink:title=" ">
<path fill="none" stroke="#63b8ff" d="M733.02,-64.49C573.39,-60.07 250.2,-51.1 161.32,-48.64"/>
<polygon fill="#63b8ff" stroke="#63b8ff" points="732.62,-67.98 742.71,-64.76 732.81,-60.98 732.62,-67.98"/>
</a>
</g>
</g>
<!-- Node11 -->
<g id="Node000011" class="node">
<title>Node11</title>
<g id="a_Node000011"><a xlink:href="../../d8/d3d/SDL__fcitx_8c.html#a207758bbbddba50357f0c7515467e0d2" target="_top" xlink:title=" ">
<polygon fill="white" stroke="#666666" points="343.5,-20 197,-20 197,0 343.5,0 343.5,-20"/>
<text xml:space="preserve" text-anchor="middle" x="270.25" y="-6.5" font-family="Helvetica,sans-Serif" font-size="10.00">SDL_Fcitx_ProcessKeyEvent</text>
</a>
</g>
</g>
<!-- Node4&#45;&gt;Node11 -->
<g id="edge11_Node000004_Node000011" class="edge">
<title>Node4&#45;&gt;Node11</title>
<g id="a_edge11_Node000004_Node000011"><a xlink:title=" ">
<path fill="none" stroke="#63b8ff" d="M781.76,-53.28C758.66,-46.28 729.28,-38.35 702.5,-34 577.6,-13.72 429.97,-9.75 343.86,-9.4"/>
<polygon fill="#63b8ff" stroke="#63b8ff" points="780.53,-56.56 791.11,-56.17 782.59,-49.87 780.53,-56.56"/>
</a>
</g>
</g>
<!-- Node6 -->
<g id="Node000006" class="node">
<title>Node6</title>
<g id="a_Node000006"><a xlink:href="../../d8/d3d/SDL__fcitx_8c.html#a66b7c030eae52c5b2def477c77be1630" target="_top" xlink:title=" ">
<polygon fill="white" stroke="#666666" points="492.62,-134 389.62,-134 389.62,-114 492.62,-114 492.62,-134"/>
<text xml:space="preserve" text-anchor="middle" x="441.12" y="-120.5" font-family="Helvetica,sans-Serif" font-size="10.00">FcitxClientCreateIC</text>
</a>
</g>
</g>
<!-- Node5&#45;&gt;Node6 -->
<g id="edge5_Node000005_Node000006" class="edge">
<title>Node5&#45;&gt;Node6</title>
<g id="a_edge5_Node000005_Node000006"><a xlink:title=" ">
<path fill="none" stroke="#63b8ff" d="M559.59,-98.85C537.24,-103.64 512.16,-109.01 490.94,-113.55"/>
<polygon fill="#63b8ff" stroke="#63b8ff" points="560.13,-102.32 569.17,-96.8 558.66,-95.47 560.13,-102.32"/>
</a>
</g>
</g>
<!-- Node10 -->
<g id="Node000010" class="node">
<title>Node10</title>
<g id="a_Node000010"><a xlink:href="../../d4/d9f/SDL__system__theme_8c.html#a57eec74b9111f621d99a4b9e9ac939cd" target="_top" xlink:title=" ">
<polygon fill="white" stroke="#666666" points="502.75,-96 379.5,-96 379.5,-76 502.75,-76 502.75,-96"/>
<text xml:space="preserve" text-anchor="middle" x="441.12" y="-82.5" font-family="Helvetica,sans-Serif" font-size="10.00">SDL_SystemTheme_Init</text>
</a>
</g>
</g>
<!-- Node5&#45;&gt;Node10 -->
<g id="edge9_Node000005_Node000010" class="edge">
<title>Node5&#45;&gt;Node10</title>
<g id="a_edge9_Node000005_Node000010"><a xlink:title=" ">
<path fill="none" stroke="#63b8ff" d="M555.8,-86C538.64,-86 520.12,-86 503.12,-86"/>
<polygon fill="#63b8ff" stroke="#63b8ff" points="555.34,-89.5 565.34,-86 555.34,-82.5 555.34,-89.5"/>
</a>
</g>
</g>
<!-- Node7 -->
<g id="Node000007" class="node">
<title>Node7</title>
<g id="a_Node000007"><a xlink:href="../../d8/d3d/SDL__fcitx_8c.html#a9599338ba69d63761b97538897945a2b" target="_top" xlink:title=" ">
<polygon fill="white" stroke="#666666" points="310.88,-115 229.62,-115 229.62,-95 310.88,-95 310.88,-115"/>
<text xml:space="preserve" text-anchor="middle" x="270.25" y="-101.5" font-family="Helvetica,sans-Serif" font-size="10.00">SDL_Fcitx_Init</text>
</a>
</g>
</g>
<!-- Node6&#45;&gt;Node7 -->
<g id="edge6_Node000006_Node000007" class="edge">
<title>Node6&#45;&gt;Node7</title>
<g id="a_edge6_Node000006_Node000007"><a xlink:title=" ">
<path fill="none" stroke="#63b8ff" d="M378.02,-117.01C355.68,-114.5 331.1,-111.73 311.15,-109.49"/>
<polygon fill="#63b8ff" stroke="#63b8ff" points="377.62,-120.49 387.95,-118.13 378.41,-113.53 377.62,-120.49"/>
</a>
</g>
</g>
<!-- Node7&#45;&gt;Node8 -->
<g id="edge7_Node000007_Node000008" class="edge">
<title>Node7&#45;&gt;Node8</title>
<g id="a_edge7_Node000007_Node000008"><a xlink:title=" ">
<path fill="none" stroke="#63b8ff" d="M234.77,-90C211.56,-79.9 181.59,-66.86 161.25,-58.01"/>
<polygon fill="#63b8ff" stroke="#63b8ff" points="233.27,-93.16 243.83,-93.94 236.06,-86.74 233.27,-93.16"/>
</a>
</g>
</g>
<!-- Node9 -->
<g id="Node000009" class="node">
<title>Node9</title>
<g id="a_Node000009"><a xlink:href="../../d6/dca/SDL__ime_8c.html#aad8672e65d5ef336bee91410b6d6cebf" target="_top" xlink:title=" ">
<polygon fill="white" stroke="#666666" points="77.5,-58 0,-58 0,-38 77.5,-38 77.5,-58"/>
<text xml:space="preserve" text-anchor="middle" x="38.75" y="-44.5" font-family="Helvetica,sans-Serif" font-size="10.00">SDL_IME_Init</text>
</a>
</g>
</g>
<!-- Node8&#45;&gt;Node9 -->
<g id="edge8_Node000008_Node000009" class="edge">
<title>Node8&#45;&gt;Node9</title>
<g id="a_edge8_Node000008_Node000009"><a xlink:title=" ">
<path fill="none" stroke="#63b8ff" d="M102.06,-48C94.24,-48 85.89,-48 77.92,-48"/>
<polygon fill="#63b8ff" stroke="#63b8ff" points="101.87,-51.5 111.87,-48 101.87,-44.5 101.87,-51.5"/>
</a>
</g>
</g>
<!-- Node11&#45;&gt;Node8 -->
<g id="edge12_Node000011_Node000008" class="edge">
<title>Node11&#45;&gt;Node8</title>
<g id="a_edge12_Node000011_Node000008"><a xlink:title=" ">
<path fill="none" stroke="#63b8ff" d="M222.29,-23.62C201.64,-29.61 178.32,-36.38 161.49,-41.26"/>
<polygon fill="#63b8ff" stroke="#63b8ff" points="223.02,-27.05 231.65,-20.91 221.07,-20.33 223.02,-27.05"/>
</a>
</g>
</g>
</g>
</svg>

<g id="navigator" transform="translate(0 0)" fill="#404254">
  <rect fill="#f2f5e9" fill-opacity="0.5" stroke="#606060" stroke-width=".5" x="0" y="0" width="60" height="60"/>
  <use id="zoomplus" xlink:href="#zoomPlus" x="17" y="9" onmousedown="handleZoom(evt,'in')"/>
  <use id="zoomminus" xlink:href="#zoomMin" x="42" y="9" onmousedown="handleZoom(evt,'out')"/>
  <use id="reset" xlink:href="#resetDef" x="30" y="36" onmousedown="handleReset()"/>
   <use id="arrowup" xlink:href="#arrowUp" x="0" y="0" onmousedown="handlePan(0,-1)"/>
  <use id="arrowright" xlink:href="#arrowRight" x="0" y="0" onmousedown="handlePan(1,0)"/>
  <use id="arrowdown" xlink:href="#arrowDown" x="0" y="0" onmousedown="handlePan(0,1)"/>
  <use id="arrowleft" xlink:href="#arrowLeft" x="0" y="0" onmousedown="handlePan(-1,0)"/>
</g>
<svg viewBox="0 0 15 15" width="100%" height="30px" preserveAspectRatio="xMaxYMin meet">
 <g id="arrow_out" transform="scale(0.3 0.3)">
  <a xlink:href="SDL__video_8c_a2069ae1c556b81f7edfdfc98d261426a_icgraph_org.svg" target="_base">
   <rect id="button" ry="5" rx="5" y="6" x="6" height="38" width="38"
        fill="#f2f5e9" fill-opacity="0.5" stroke="#606060" stroke-width="1.0"/>
   <path id="arrow"
     d="M 11.500037,31.436501 C 11.940474,20.09759 22.043105,11.32322 32.158766,21.979434 L 37.068811,17.246167 C 37.068811,17.246167 37.088388,32 37.088388,32 L 22.160133,31.978069 C 22.160133,31.978069 26.997745,27.140456 26.997745,27.140456 C 18.528582,18.264221 13.291696,25.230495 11.500037,31.436501 z"
     style="fill:#404040;"/>
  </a>
 </g>
</svg>

<style type='text/css'>
<![CDATA[
[data-mouse-over-selected='false'] { opacity: 0.7; }
[data-mouse-over-selected='true']  { opacity: 1.0; }
]]>
</style>
<script type="application/ecmascript"><![CDATA[
document.addEventListener('DOMContentLoaded', (event) => {
  highlightEdges();
  highlightAdjacentNodes();
});
]]></script>
</svg>
