<?xml version="1.0" encoding="UTF-8" standalone="no"?>
<!DOCTYPE svg PUBLIC "-//W3C//DTD SVG 1.1//EN"
 "http://www.w3.org/Graphics/SVG/1.1/DTD/svg11.dtd">
<!-- Generated by graphviz version 13.1.0 (20250701.0955)
 -->
<!-- Title: IsAcceptingDragAndDrop Pages: 1 -->
<svg width="1907pt" height="574pt"
 viewBox="0.00 0.00 1907.00 574.00" xmlns="http://www.w3.org/2000/svg" xmlns:xlink="http://www.w3.org/1999/xlink">
<g id="graph0" class="graph" transform="scale(1 1) rotate(0) translate(4 570.2)">
<title>IsAcceptingDragAndDrop</title>
<!-- Node1 -->
<g id="Node000001" class="node">
<title>Node1</title>
<g id="a_Node000001"><a xlink:title=" ">
<polygon fill="#999999" stroke="#666666" points="1898.75,-373.2 1771.75,-373.2 1771.75,-353.2 1898.75,-353.2 1898.75,-373.2"/>
<text xml:space="preserve" text-anchor="middle" x="1835.25" y="-359.7" font-family="Helvetica,sans-Serif" font-size="10.00">IsAcceptingDragAndDrop</text>
</a>
</g>
</g>
<!-- Node2 -->
<g id="Node000002" class="node">
<title>Node2</title>
<g id="a_Node000002"><a xlink:href="../../d6/d3d/SDL__video_8c.html#a3ffd99baf4f9fb856cb1ca337f8a82f4" target="_top" xlink:title=" ">
<polygon fill="white" stroke="#666666" points="1726,-396.2 1583.25,-396.2 1583.25,-376.2 1726,-376.2 1726,-396.2"/>
<text xml:space="preserve" text-anchor="middle" x="1654.62" y="-382.7" font-family="Helvetica,sans-Serif" font-size="10.00">PrepareDragAndDropSupport</text>
</a>
</g>
</g>
<!-- Node1&#45;&gt;Node2 -->
<g id="edge1_Node000001_Node000002" class="edge">
<title>Node1&#45;&gt;Node2</title>
<g id="a_edge1_Node000001_Node000002"><a xlink:title=" ">
<path fill="none" stroke="#63b8ff" d="M1760.19,-372.74C1748.96,-374.18 1737.4,-375.67 1726.25,-377.1"/>
<polygon fill="#63b8ff" stroke="#63b8ff" points="1760.3,-376.25 1769.77,-371.5 1759.41,-369.31 1760.3,-376.25"/>
</a>
</g>
</g>
<!-- Node9 -->
<g id="Node000009" class="node">
<title>Node9</title>
<g id="a_Node000009"><a xlink:href="../../d6/d3d/SDL__video_8c.html#a8d8cd1491bd0af0a441b48b20c0df4df" target="_top" xlink:title=" ">
<polygon fill="white" stroke="#666666" points="1735.75,-354.2 1573.5,-354.2 1573.5,-334.2 1735.75,-334.2 1735.75,-354.2"/>
<text xml:space="preserve" text-anchor="middle" x="1654.62" y="-340.7" font-family="Helvetica,sans-Serif" font-size="10.00">SDL_ToggleDragAndDropSupport</text>
</a>
</g>
</g>
<!-- Node1&#45;&gt;Node9 -->
<g id="edge8_Node000001_Node000009" class="edge">
<title>Node1&#45;&gt;Node9</title>
<g id="a_edge8_Node000001_Node000009"><a xlink:title=" ">
<path fill="none" stroke="#63b8ff" d="M1759.93,-355.29C1752.09,-354.46 1744.09,-353.61 1736.18,-352.77"/>
<polygon fill="#63b8ff" stroke="#63b8ff" points="1759.45,-358.76 1769.77,-356.34 1760.19,-351.8 1759.45,-358.76"/>
</a>
</g>
</g>
<!-- Node3 -->
<g id="Node000003" class="node">
<title>Node3</title>
<g id="a_Node000003"><a xlink:href="../../d6/d3d/SDL__video_8c.html#a85c65a55c98c9a30b0f96e0f7e54c336" target="_top" xlink:title=" ">
<polygon fill="white" stroke="#666666" points="1537.5,-415.2 1398.5,-415.2 1398.5,-395.2 1537.5,-395.2 1537.5,-415.2"/>
<text xml:space="preserve" text-anchor="middle" x="1468" y="-401.7" font-family="Helvetica,sans-Serif" font-size="10.00">SDL_FinishWindowCreation</text>
</a>
</g>
</g>
<!-- Node2&#45;&gt;Node3 -->
<g id="edge2_Node000002_Node000003" class="edge">
<title>Node2&#45;&gt;Node3</title>
<g id="a_edge2_Node000002_Node000003"><a xlink:title=" ">
<path fill="none" stroke="#63b8ff" d="M1571.59,-394.64C1560.32,-395.8 1548.84,-396.98 1537.84,-398.11"/>
<polygon fill="#63b8ff" stroke="#63b8ff" points="1571.68,-398.15 1581.27,-393.65 1570.96,-391.19 1571.68,-398.15"/>
</a>
</g>
</g>
<!-- Node4 -->
<g id="Node000004" class="node">
<title>Node4</title>
<g id="a_Node000004"><a xlink:href="../../d6/d3d/SDL__video_8c.html#a9f3d88531134e2c3e575a3c2db7f8488" target="_top" xlink:title=" ">
<polygon fill="white" stroke="#666666" points="549.75,-538.2 380,-538.2 380,-518.2 549.75,-518.2 549.75,-538.2"/>
<text xml:space="preserve" text-anchor="middle" x="464.88" y="-524.7" font-family="Helvetica,sans-Serif" font-size="10.00">SDL_CreateWindowWithProperties</text>
</a>
</g>
</g>
<!-- Node3&#45;&gt;Node4 -->
<g id="edge3_Node000003_Node000004" class="edge">
<title>Node3&#45;&gt;Node4</title>
<g id="a_edge3_Node000003_Node000004"><a xlink:title=" ">
<path fill="none" stroke="#63b8ff" d="M1446.1,-422.8C1394.32,-464.57 1254.4,-566.2 1119,-566.2 1119,-566.2 1119,-566.2 834.5,-566.2 723.62,-566.2 695.87,-560.11 585.75,-547.2 566.18,-544.9 544.92,-541.75 525.81,-538.67"/>
<polygon fill="#63b8ff" stroke="#63b8ff" points="1448.31,-425.52 1453.82,-416.47 1443.87,-420.11 1448.31,-425.52"/>
</a>
</g>
</g>
<!-- Node8 -->
<g id="Node000008" class="node">
<title>Node8</title>
<g id="a_Node000008"><a xlink:href="../../d6/d3d/SDL__video_8c.html#ac71558ab32ba69c961258e4cb6bcaa01" target="_top" xlink:title=" ">
<polygon fill="white" stroke="#666666" points="1338.5,-415.2 1222.75,-415.2 1222.75,-395.2 1338.5,-395.2 1338.5,-415.2"/>
<text xml:space="preserve" text-anchor="middle" x="1280.62" y="-401.7" font-family="Helvetica,sans-Serif" font-size="10.00">SDL_RecreateWindow</text>
</a>
</g>
</g>
<!-- Node3&#45;&gt;Node8 -->
<g id="edge7_Node000003_Node000008" class="edge">
<title>Node3&#45;&gt;Node8</title>
<g id="a_edge7_Node000003_Node000008"><a xlink:title=" ">
<path fill="none" stroke="#63b8ff" d="M1387.09,-405.2C1370.83,-405.2 1354.03,-405.2 1338.75,-405.2"/>
<polygon fill="#63b8ff" stroke="#63b8ff" points="1386.72,-408.7 1396.72,-405.2 1386.72,-401.7 1386.72,-408.7"/>
</a>
</g>
</g>
<!-- Node5 -->
<g id="Node000005" class="node">
<title>Node5</title>
<g id="a_Node000005"><a xlink:href="../../d6/d3d/SDL__video_8c.html#acc26de39ce1bd675446e4d6c05ebf4b0" target="_top" xlink:title=" ">
<polygon fill="white" stroke="#666666" points="337.62,-538.2 204.62,-538.2 204.62,-518.2 337.62,-518.2 337.62,-538.2"/>
<text xml:space="preserve" text-anchor="middle" x="271.12" y="-524.7" font-family="Helvetica,sans-Serif" font-size="10.00">SDL_CreatePopupWindow</text>
</a>
</g>
</g>
<!-- Node4&#45;&gt;Node5 -->
<g id="edge4_Node000004_Node000005" class="edge">
<title>Node4&#45;&gt;Node5</title>
<g id="a_edge4_Node000004_Node000005"><a xlink:title=" ">
<path fill="none" stroke="#63b8ff" d="M368.58,-528.2C358.23,-528.2 347.88,-528.2 338.01,-528.2"/>
<polygon fill="#63b8ff" stroke="#63b8ff" points="368.26,-531.7 378.26,-528.2 368.26,-524.7 368.26,-531.7"/>
</a>
</g>
</g>
<!-- Node6 -->
<g id="Node000006" class="node">
<title>Node6</title>
<g id="a_Node000006"><a xlink:href="../../d6/d3d/SDL__video_8c.html#a83103c86f9e5c33ab9e1fb6dfa904b7f" target="_top" xlink:title=" ">
<polygon fill="white" stroke="#666666" points="323.75,-500.2 218.5,-500.2 218.5,-480.2 323.75,-480.2 323.75,-500.2"/>
<text xml:space="preserve" text-anchor="middle" x="271.12" y="-486.7" font-family="Helvetica,sans-Serif" font-size="10.00">SDL_CreateWindow</text>
</a>
</g>
</g>
<!-- Node4&#45;&gt;Node6 -->
<g id="edge5_Node000004_Node000006" class="edge">
<title>Node4&#45;&gt;Node6</title>
<g id="a_edge5_Node000004_Node000006"><a xlink:title=" ">
<path fill="none" stroke="#63b8ff" d="M399.92,-515.52C375.31,-510.65 347.54,-505.14 324.19,-500.52"/>
<polygon fill="#63b8ff" stroke="#63b8ff" points="399,-518.91 409.49,-517.42 400.36,-512.04 399,-518.91"/>
</a>
</g>
</g>
<!-- Node7 -->
<g id="Node000007" class="node">
<title>Node7</title>
<g id="a_Node000007"><a xlink:href="../../dd/df3/SDL__render_8c.html#a36f859fae15e4277ba052f9ecfb2816d" target="_top" xlink:title=" ">
<polygon fill="white" stroke="#666666" points="162.25,-500.2 0,-500.2 0,-480.2 162.25,-480.2 162.25,-500.2"/>
<text xml:space="preserve" text-anchor="middle" x="81.12" y="-486.7" font-family="Helvetica,sans-Serif" font-size="10.00">SDL_CreateWindowAndRenderer</text>
</a>
</g>
</g>
<!-- Node6&#45;&gt;Node7 -->
<g id="edge6_Node000006_Node000007" class="edge">
<title>Node6&#45;&gt;Node7</title>
<g id="a_edge6_Node000006_Node000007"><a xlink:title=" ">
<path fill="none" stroke="#63b8ff" d="M207.1,-490.2C192.87,-490.2 177.58,-490.2 162.74,-490.2"/>
<polygon fill="#63b8ff" stroke="#63b8ff" points="206.74,-493.7 216.74,-490.2 206.74,-486.7 206.74,-493.7"/>
</a>
</g>
</g>
<!-- Node10 -->
<g id="Node000010" class="node">
<title>Node10</title>
<g id="a_Node000010"><a xlink:href="../../d4/d07/SDL__events_8c.html#a181681ccbe655c9b9b982a9bde584825" target="_top" xlink:title=" ">
<polygon fill="white" stroke="#666666" points="1526.25,-345.2 1409.75,-345.2 1409.75,-325.2 1526.25,-325.2 1526.25,-345.2"/>
<text xml:space="preserve" text-anchor="middle" x="1468" y="-331.7" font-family="Helvetica,sans-Serif" font-size="10.00">SDL_SetEventEnabled</text>
</a>
</g>
</g>
<!-- Node9&#45;&gt;Node10 -->
<g id="edge9_Node000009_Node000010" class="edge">
<title>Node9&#45;&gt;Node10</title>
<g id="a_edge9_Node000009_Node000010"><a xlink:title=" ">
<path fill="none" stroke="#63b8ff" d="M1561.76,-339.72C1549.82,-339.14 1537.86,-338.56 1526.7,-338.01"/>
<polygon fill="#63b8ff" stroke="#63b8ff" points="1561.51,-343.21 1571.67,-340.2 1561.85,-336.22 1561.51,-343.21"/>
</a>
</g>
</g>
<!-- Node10&#45;&gt;Node10 -->
<g id="edge63_Node000010_Node000010" class="edge">
<title>Node10&#45;&gt;Node10</title>
<g id="a_edge63_Node000010_Node000010"><a xlink:title=" ">
<path fill="none" stroke="#63b8ff" d="M1501.33,-356.31C1497.36,-360.34 1486.25,-363.2 1468,-363.2 1435.56,-363.2 1425.68,-354.17 1438.35,-345.54"/>
<polygon fill="#63b8ff" stroke="#63b8ff" points="1504.69,-355.3 1498.14,-346.97 1498.06,-357.56 1504.69,-355.3"/>
</a>
</g>
</g>
<!-- Node11 -->
<g id="Node000011" class="node">
<title>Node11</title>
<g id="a_Node000011"><a xlink:href="../../d4/d07/SDL__events_8c.html#ac04ae9c50bed0b1bc2fd5b6e8a38beed" target="_top" xlink:title=" ">
<polygon fill="white" stroke="#666666" points="1346.38,-368.2 1214.88,-368.2 1214.88,-348.2 1346.38,-348.2 1346.38,-368.2"/>
<text xml:space="preserve" text-anchor="middle" x="1280.62" y="-354.7" font-family="Helvetica,sans-Serif" font-size="10.00">SDL_PollSentinelChanged</text>
</a>
</g>
</g>
<!-- Node10&#45;&gt;Node11 -->
<g id="edge10_Node000010_Node000011" class="edge">
<title>Node10&#45;&gt;Node11</title>
<g id="a_edge10_Node000010_Node000011"><a xlink:title=" ">
<path fill="none" stroke="#63b8ff" d="M1397.95,-343.77C1381.16,-345.85 1363.26,-348.07 1346.67,-350.13"/>
<polygon fill="#63b8ff" stroke="#63b8ff" points="1398.37,-347.24 1407.86,-342.54 1397.51,-340.29 1398.37,-347.24"/>
</a>
</g>
</g>
<!-- Node41 -->
<g id="Node000041" class="node">
<title>Node41</title>
<g id="a_Node000041"><a xlink:href="../../d0/d82/SDL__gamepad_8c.html#a4bf0010cfce4b71c0d71d7ae4cc45dff" target="_top" xlink:title=" ">
<polygon fill="white" stroke="#666666" points="1362.5,-330.2 1198.75,-330.2 1198.75,-310.2 1362.5,-310.2 1362.5,-330.2"/>
<text xml:space="preserve" text-anchor="middle" x="1280.62" y="-316.7" font-family="Helvetica,sans-Serif" font-size="10.00">SDL_SetGamepadEventsEnabled</text>
</a>
</g>
</g>
<!-- Node10&#45;&gt;Node41 -->
<g id="edge64_Node000010_Node000041" class="edge">
<title>Node10&#45;&gt;Node41</title>
<g id="a_edge64_Node000010_Node000041"><a xlink:title=" ">
<path fill="none" stroke="#63b8ff" d="M1398.05,-329.62C1386.53,-328.69 1374.49,-327.71 1362.71,-326.76"/>
<polygon fill="#63b8ff" stroke="#63b8ff" points="1397.6,-333.09 1407.85,-330.41 1398.17,-326.12 1397.6,-333.09"/>
</a>
</g>
</g>
<!-- Node42 -->
<g id="Node000042" class="node">
<title>Node42</title>
<g id="a_Node000042"><a xlink:href="../../d6/df9/SDL__joystick_8c.html#a57c826578bb5709b00a2354a8189a5d3" target="_top" xlink:title=" ">
<polygon fill="white" stroke="#666666" points="1359.88,-292.2 1201.38,-292.2 1201.38,-272.2 1359.88,-272.2 1359.88,-292.2"/>
<text xml:space="preserve" text-anchor="middle" x="1280.62" y="-278.7" font-family="Helvetica,sans-Serif" font-size="10.00">SDL_SetJoystickEventsEnabled</text>
</a>
</g>
</g>
<!-- Node10&#45;&gt;Node42 -->
<g id="edge65_Node000010_Node000042" class="edge">
<title>Node10&#45;&gt;Node42</title>
<g id="a_edge65_Node000010_Node000042"><a xlink:title=" ">
<path fill="none" stroke="#63b8ff" d="M1426.23,-321.05C1407.01,-314.61 1383.7,-307.13 1362.5,-301.2 1351.8,-298.21 1340.23,-295.3 1329.26,-292.69"/>
<polygon fill="#63b8ff" stroke="#63b8ff" points="1424.99,-324.33 1435.59,-324.22 1427.24,-317.7 1424.99,-324.33"/>
</a>
</g>
</g>
<!-- Node12 -->
<g id="Node000012" class="node">
<title>Node12</title>
<g id="a_Node000012"><a xlink:href="../../d4/d07/SDL__events_8c.html#aef1bd4c1c88d3fd3b2086ff62ec0340e" target="_top" xlink:title=" ">
<polygon fill="white" stroke="#666666" points="1024.88,-368.2 939.88,-368.2 939.88,-348.2 1024.88,-348.2 1024.88,-368.2"/>
<text xml:space="preserve" text-anchor="middle" x="982.38" y="-354.7" font-family="Helvetica,sans-Serif" font-size="10.00">SDL_InitEvents</text>
</a>
</g>
</g>
<!-- Node11&#45;&gt;Node12 -->
<g id="edge11_Node000011_Node000012" class="edge">
<title>Node11&#45;&gt;Node12</title>
<g id="a_edge11_Node000011_Node000012"><a xlink:title=" ">
<path fill="none" stroke="#63b8ff" d="M1203.15,-358.2C1146.36,-358.2 1071.05,-358.2 1024.96,-358.2"/>
<polygon fill="#63b8ff" stroke="#63b8ff" points="1203.1,-361.7 1213.1,-358.2 1203.1,-354.7 1203.1,-361.7"/>
</a>
</g>
</g>
<!-- Node26 -->
<g id="Node000026" class="node">
<title>Node26</title>
<g id="a_Node000026"><a xlink:href="../../d4/d07/SDL__events_8c.html#a1afad4b7e54f4b7f5259da409d1dc9da" target="_top" xlink:title=" ">
<polygon fill="white" stroke="#666666" points="1162.75,-302.2 1073.25,-302.2 1073.25,-282.2 1162.75,-282.2 1162.75,-302.2"/>
<text xml:space="preserve" text-anchor="middle" x="1118" y="-288.7" font-family="Helvetica,sans-Serif" font-size="10.00">SDL_QuitEvents</text>
</a>
</g>
</g>
<!-- Node11&#45;&gt;Node26 -->
<g id="edge31_Node000011_Node000026" class="edge">
<title>Node11&#45;&gt;Node26</title>
<g id="a_edge31_Node000011_Node000026"><a xlink:title=" ">
<path fill="none" stroke="#63b8ff" d="M1214.12,-344.61C1208.86,-342.98 1203.68,-341.18 1198.75,-339.2 1174.59,-329.5 1149.07,-313.26 1133.59,-302.63"/>
<polygon fill="#63b8ff" stroke="#63b8ff" points="1212.95,-347.92 1223.53,-347.32 1214.89,-341.19 1212.95,-347.92"/>
</a>
</g>
</g>
<!-- Node13 -->
<g id="Node000013" class="node">
<title>Node13</title>
<g id="a_Node000013"><a xlink:href="../../df/d78/SDL_8c.html#aa33d2b8c0a69b16651f78c26f391b6ef" target="_top" xlink:title=" ">
<polygon fill="white" stroke="#666666" points="888.12,-368.2 782.88,-368.2 782.88,-348.2 888.12,-348.2 888.12,-368.2"/>
<text xml:space="preserve" text-anchor="middle" x="835.5" y="-354.7" font-family="Helvetica,sans-Serif" font-size="10.00">SDL_InitSubSystem</text>
</a>
</g>
</g>
<!-- Node12&#45;&gt;Node13 -->
<g id="edge12_Node000012_Node000013" class="edge">
<title>Node12&#45;&gt;Node13</title>
<g id="a_edge12_Node000012_Node000013"><a xlink:title=" ">
<path fill="none" stroke="#63b8ff" d="M927.96,-358.2C915.11,-358.2 901.4,-358.2 888.61,-358.2"/>
<polygon fill="#63b8ff" stroke="#63b8ff" points="927.96,-361.7 937.96,-358.2 927.96,-354.7 927.96,-361.7"/>
</a>
</g>
</g>
<!-- Node14 -->
<g id="Node000014" class="node">
<title>Node14</title>
<g id="a_Node000014"><a xlink:href="../../d6/df9/SDL__joystick_8c.html#a7d2531dc4fbc8de52a29ac3ec171a495" target="_top" xlink:title=" ">
<polygon fill="white" stroke="#666666" points="719.88,-538.2 609.38,-538.2 609.38,-518.2 719.88,-518.2 719.88,-538.2"/>
<text xml:space="preserve" text-anchor="middle" x="664.62" y="-524.7" font-family="Helvetica,sans-Serif" font-size="10.00">AttemptSensorFusion</text>
</a>
</g>
</g>
<!-- Node13&#45;&gt;Node14 -->
<g id="edge13_Node000013_Node000014" class="edge">
<title>Node13&#45;&gt;Node14</title>
<g id="a_edge13_Node000013_Node000014"><a xlink:title=" ">
<path fill="none" stroke="#63b8ff" d="M827.79,-379.2C816.14,-412.18 788.97,-475.78 743.5,-509.2 736.55,-514.31 728.4,-518.06 720.03,-520.81"/>
<polygon fill="#63b8ff" stroke="#63b8ff" points="831.02,-380.58 830.9,-369.99 824.39,-378.34 831.02,-380.58"/>
</a>
</g>
</g>
<!-- Node17 -->
<g id="Node000017" class="node">
<title>Node17</title>
<g id="a_Node000017"><a xlink:href="../../d6/df9/SDL__joystick_8c.html#a94fd638a34a769ff6a7a01738257215c" target="_top" xlink:title=" ">
<polygon fill="white" stroke="#666666" points="696.25,-462.2 633,-462.2 633,-442.2 696.25,-442.2 696.25,-462.2"/>
<text xml:space="preserve" text-anchor="middle" x="664.62" y="-448.7" font-family="Helvetica,sans-Serif" font-size="10.00">IsROGAlly</text>
</a>
</g>
</g>
<!-- Node13&#45;&gt;Node17 -->
<g id="edge16_Node000013_Node000017" class="edge">
<title>Node13&#45;&gt;Node17</title>
<g id="a_edge16_Node000013_Node000017"><a xlink:title=" ">
<path fill="none" stroke="#63b8ff" d="M815.41,-376.19C797.9,-391.84 770.64,-414.16 743.5,-428.2 728.8,-435.8 711.27,-441.47 696.57,-445.38"/>
<polygon fill="#63b8ff" stroke="#63b8ff" points="817.48,-379.03 822.51,-369.71 812.76,-373.86 817.48,-379.03"/>
</a>
</g>
</g>
<!-- Node19 -->
<g id="Node000019" class="node">
<title>Node19</title>
<g id="a_Node000019"><a xlink:href="../../df/d78/SDL_8c.html#ac25d0ce460db43ca8c7681eb8e7c5007" target="_top" xlink:title=" ">
<polygon fill="white" stroke="#666666" points="691.75,-500.2 637.5,-500.2 637.5,-480.2 691.75,-480.2 691.75,-500.2"/>
<text xml:space="preserve" text-anchor="middle" x="664.62" y="-486.7" font-family="Helvetica,sans-Serif" font-size="10.00">SDL_Init</text>
</a>
</g>
</g>
<!-- Node13&#45;&gt;Node19 -->
<g id="edge19_Node000013_Node000019" class="edge">
<title>Node13&#45;&gt;Node19</title>
<g id="a_edge19_Node000013_Node000019"><a xlink:title=" ">
<path fill="none" stroke="#63b8ff" d="M823.89,-378.26C809.28,-403.87 780.52,-447.68 743.5,-471.2 728.11,-480.98 708.08,-485.72 692.19,-488.03"/>
<polygon fill="#63b8ff" stroke="#63b8ff" points="826.77,-380.28 828.54,-369.84 820.64,-376.9 826.77,-380.28"/>
</a>
</g>
</g>
<!-- Node20 -->
<g id="Node000020" class="node">
<title>Node20</title>
<g id="a_Node000020"><a xlink:href="../../d6/df9/SDL__joystick_8c.html#a9340afa4acb6b0fad4affbb99d4fa014" target="_top" xlink:title=" ">
<polygon fill="white" stroke="#666666" points="319.25,-415.2 223,-415.2 223,-395.2 319.25,-395.2 319.25,-415.2"/>
<text xml:space="preserve" text-anchor="middle" x="271.12" y="-401.7" font-family="Helvetica,sans-Serif" font-size="10.00">SDL_InitJoysticks</text>
</a>
</g>
</g>
<!-- Node13&#45;&gt;Node20 -->
<g id="edge21_Node000013_Node000020" class="edge">
<title>Node13&#45;&gt;Node20</title>
<g id="a_edge21_Node000013_Node000020"><a xlink:title=" ">
<path fill="none" stroke="#63b8ff" d="M771.34,-358.1C762.02,-359.16 752.52,-360.27 743.5,-361.2 588.81,-377.13 404.85,-388.65 319.71,-397.22"/>
<polygon fill="#63b8ff" stroke="#63b8ff" points="771.54,-361.6 781.08,-357.01 770.76,-354.64 771.54,-361.6"/>
</a>
</g>
</g>
<!-- Node21 -->
<g id="Node000021" class="node">
<title>Node21</title>
<g id="a_Node000021"><a xlink:href="../../d9/d78/SDL__main__callbacks_8c.html#a3d21b5bf7aa441418de48c5b2856336a" target="_top" xlink:title=" ">
<polygon fill="white" stroke="#666666" points="524.25,-363.2 405.5,-363.2 405.5,-343.2 524.25,-343.2 524.25,-363.2"/>
<text xml:space="preserve" text-anchor="middle" x="464.88" y="-349.7" font-family="Helvetica,sans-Serif" font-size="10.00">SDL_InitMainCallbacks</text>
</a>
</g>
</g>
<!-- Node13&#45;&gt;Node21 -->
<g id="edge23_Node000013_Node000021" class="edge">
<title>Node13&#45;&gt;Node21</title>
<g id="a_edge23_Node000013_Node000021"><a xlink:title=" ">
<path fill="none" stroke="#63b8ff" d="M771.3,-357.34C702.11,-356.4 592.04,-354.91 524.65,-354"/>
<polygon fill="#63b8ff" stroke="#63b8ff" points="770.91,-360.84 780.95,-357.47 771,-353.84 770.91,-360.84"/>
</a>
</g>
</g>
<!-- Node23 -->
<g id="Node000023" class="node">
<title>Node23</title>
<g id="a_Node000023"><a xlink:href="../../df/d78/SDL_8c.html#a8f0bf712ad7ba759f5b6e04e683c67d4" target="_top" xlink:title=" ">
<polygon fill="white" stroke="#666666" points="743.5,-330.2 585.75,-330.2 585.75,-310.2 743.5,-310.2 743.5,-330.2"/>
<text xml:space="preserve" text-anchor="middle" x="664.62" y="-316.7" font-family="Helvetica,sans-Serif" font-size="10.00">SDL_InitOrIncrementSubsystem</text>
</a>
</g>
</g>
<!-- Node13&#45;&gt;Node23 -->
<g id="edge25_Node000013_Node000023" class="edge">
<title>Node13&#45;&gt;Node23</title>
<g id="a_edge25_Node000013_Node000023"><a xlink:title=" ">
<path fill="none" stroke="#63b8ff" d="M799.07,-344.61C782.39,-339.98 761.8,-334.98 741.82,-330.62"/>
<polygon fill="#63b8ff" stroke="#63b8ff" points="797.91,-347.92 808.49,-347.33 799.85,-341.19 797.91,-347.92"/>
</a>
</g>
</g>
<!-- Node24 -->
<g id="Node000024" class="node">
<title>Node24</title>
<g id="a_Node000024"><a xlink:href="../../dc/de1/SDL__sensor_8c.html#abdb7d6b73a301a2c8558ba80edb32331" target="_top" xlink:title=" ">
<polygon fill="white" stroke="#666666" points="709.75,-292.2 619.5,-292.2 619.5,-272.2 709.75,-272.2 709.75,-292.2"/>
<text xml:space="preserve" text-anchor="middle" x="664.62" y="-278.7" font-family="Helvetica,sans-Serif" font-size="10.00">SDL_InitSensors</text>
</a>
</g>
</g>
<!-- Node13&#45;&gt;Node24 -->
<g id="edge27_Node000013_Node000024" class="edge">
<title>Node13&#45;&gt;Node24</title>
<g id="a_edge27_Node000013_Node000024"><a xlink:title=" ">
<path fill="none" stroke="#63b8ff" d="M808.96,-343.78C799.26,-340.17 788.41,-335.94 779.5,-330.2 759.95,-317.6 763.62,-303.88 743.5,-292.2 733.39,-286.33 721.53,-282.27 710.16,-279.78"/>
<polygon fill="#63b8ff" stroke="#63b8ff" points="807.62,-347.02 818.21,-347.25 810.08,-340.46 807.62,-347.02"/>
</a>
</g>
</g>
<!-- Node25 -->
<g id="Node000025" class="node">
<title>Node25</title>
<g id="a_Node000025"><a xlink:href="../../d6/d3d/SDL__video_8c.html#ac61dc66ab71d039f9b681916d0fcbc6e" target="_top" xlink:title=" ">
<polygon fill="white" stroke="#666666" points="704.12,-254.2 625.12,-254.2 625.12,-234.2 704.12,-234.2 704.12,-254.2"/>
<text xml:space="preserve" text-anchor="middle" x="664.62" y="-240.7" font-family="Helvetica,sans-Serif" font-size="10.00">SDL_VideoInit</text>
</a>
</g>
</g>
<!-- Node13&#45;&gt;Node25 -->
<g id="edge29_Node000013_Node000025" class="edge">
<title>Node13&#45;&gt;Node25</title>
<g id="a_edge29_Node000013_Node000025"><a xlink:title=" ">
<path fill="none" stroke="#63b8ff" d="M804.66,-344.01C795.77,-340.74 786.54,-336.5 779.5,-330.2 751.66,-305.26 772.47,-277.81 743.5,-254.2 732.5,-245.23 717.9,-240.39 704.32,-238.39"/>
<polygon fill="#63b8ff" stroke="#63b8ff" points="803.51,-347.32 814.11,-347.24 805.78,-340.69 803.51,-347.32"/>
</a>
</g>
</g>
<!-- Node15 -->
<g id="Node000015" class="node">
<title>Node15</title>
<g id="a_Node000015"><a xlink:href="../../d6/df9/SDL__joystick_8c.html#a0c867d96ec6bc9c3aca87c8ee6b53ade" target="_top" xlink:title=" ">
<polygon fill="white" stroke="#666666" points="321.5,-462.2 220.75,-462.2 220.75,-442.2 321.5,-442.2 321.5,-462.2"/>
<text xml:space="preserve" text-anchor="middle" x="271.12" y="-448.7" font-family="Helvetica,sans-Serif" font-size="10.00">SDL_OpenJoystick</text>
</a>
</g>
</g>
<!-- Node14&#45;&gt;Node15 -->
<g id="edge14_Node000014_Node000015" class="edge">
<title>Node14&#45;&gt;Node15</title>
<g id="a_edge14_Node000014_Node000015"><a xlink:title=" ">
<path fill="none" stroke="#63b8ff" d="M598.5,-515.56C520.68,-500.45 392.19,-475.51 321.89,-461.86"/>
<polygon fill="#63b8ff" stroke="#63b8ff" points="597.63,-518.95 608.11,-517.42 598.96,-512.08 597.63,-518.95"/>
</a>
</g>
</g>
<!-- Node16 -->
<g id="Node000016" class="node">
<title>Node16</title>
<g id="a_Node000016"><a xlink:href="../../d0/d82/SDL__gamepad_8c.html#a011496690758b66ec0f7098f030b6d85" target="_top" xlink:title=" ">
<polygon fill="white" stroke="#666666" points="134.12,-361.2 28.12,-361.2 28.12,-341.2 134.12,-341.2 134.12,-361.2"/>
<text xml:space="preserve" text-anchor="middle" x="81.12" y="-347.7" font-family="Helvetica,sans-Serif" font-size="10.00">SDL_OpenGamepad</text>
</a>
</g>
</g>
<!-- Node15&#45;&gt;Node16 -->
<g id="edge15_Node000015_Node000016" class="edge">
<title>Node15&#45;&gt;Node16</title>
<g id="a_edge15_Node000015_Node000016"><a xlink:title=" ">
<path fill="none" stroke="#63b8ff" d="M228.78,-437.64C218.63,-433.65 207.91,-429.06 198.25,-424.2 159.96,-404.93 118.11,-376.67 96.63,-361.58"/>
<polygon fill="#63b8ff" stroke="#63b8ff" points="227.49,-440.89 238.08,-441.19 229.99,-434.35 227.49,-440.89"/>
</a>
</g>
</g>
<!-- Node18 -->
<g id="Node000018" class="node">
<title>Node18</title>
<g id="a_Node000018"><a xlink:href="../../d6/df9/SDL__joystick_8c.html#a497945f75b33dbfcde319992145025c5" target="_top" xlink:title=" ">
<polygon fill="white" stroke="#666666" points="535.12,-462.2 394.62,-462.2 394.62,-442.2 535.12,-442.2 535.12,-462.2"/>
<text xml:space="preserve" text-anchor="middle" x="464.88" y="-448.7" font-family="Helvetica,sans-Serif" font-size="10.00">ShouldAttemptSensorFusion</text>
</a>
</g>
</g>
<!-- Node17&#45;&gt;Node18 -->
<g id="edge17_Node000017_Node000018" class="edge">
<title>Node17&#45;&gt;Node18</title>
<g id="a_edge17_Node000017_Node000018"><a xlink:title=" ">
<path fill="none" stroke="#63b8ff" d="M621.44,-452.2C596.44,-452.2 564.14,-452.2 535.46,-452.2"/>
<polygon fill="#63b8ff" stroke="#63b8ff" points="621.21,-455.7 631.21,-452.2 621.21,-448.7 621.21,-455.7"/>
</a>
</g>
</g>
<!-- Node18&#45;&gt;Node15 -->
<g id="edge18_Node000018_Node000015" class="edge">
<title>Node18&#45;&gt;Node15</title>
<g id="a_edge18_Node000018_Node000015"><a xlink:title=" ">
<path fill="none" stroke="#63b8ff" d="M382.97,-452.2C362.22,-452.2 340.51,-452.2 321.86,-452.2"/>
<polygon fill="#63b8ff" stroke="#63b8ff" points="382.86,-455.7 392.86,-452.2 382.86,-448.7 382.86,-455.7"/>
</a>
</g>
</g>
<!-- Node19&#45;&gt;Node4 -->
<g id="edge20_Node000019_Node000004" class="edge">
<title>Node19&#45;&gt;Node4</title>
<g id="a_edge20_Node000019_Node000004"><a xlink:title=" ">
<path fill="none" stroke="#63b8ff" d="M626.16,-497.4C596.24,-503.15 553.91,-511.28 520.26,-517.75"/>
<polygon fill="#63b8ff" stroke="#63b8ff" points="626.72,-500.85 635.88,-495.53 625.4,-493.98 626.72,-500.85"/>
</a>
</g>
</g>
<!-- Node20&#45;&gt;Node13 -->
<g id="edge22_Node000020_Node000013" class="edge">
<title>Node20&#45;&gt;Node13</title>
<g id="a_edge22_Node000020_Node000013"><a xlink:title=" ">
<path fill="none" stroke="#63b8ff" d="M330.95,-407.7C420.24,-405.68 595.31,-394.46 743.5,-379.2 767.12,-376.77 794.07,-373.1 812.48,-368.69"/>
<polygon fill="#63b8ff" stroke="#63b8ff" points="331.15,-404.2 321.22,-407.89 331.29,-411.2 331.15,-404.2"/>
</a>
</g>
</g>
<!-- Node22 -->
<g id="Node000022" class="node">
<title>Node22</title>
<g id="a_Node000022"><a xlink:href="../../dd/db5/generic_2SDL__sysmain__callbacks_8c.html#aa50e1897a91f2547b5f31125020220e2" target="_top" xlink:title=" ">
<polygon fill="white" stroke="#666666" points="344,-84.2 198.25,-84.2 198.25,-64.2 344,-64.2 344,-84.2"/>
<text xml:space="preserve" text-anchor="middle" x="271.12" y="-70.7" font-family="Helvetica,sans-Serif" font-size="10.00">SDL_EnterAppMainCallbacks</text>
</a>
</g>
</g>
<!-- Node21&#45;&gt;Node22 -->
<g id="edge24_Node000021_Node000022" class="edge">
<title>Node21&#45;&gt;Node22</title>
<g id="a_edge24_Node000021_Node000022"><a xlink:title=" ">
<path fill="none" stroke="#63b8ff" d="M450.44,-333.65C412.87,-278.98 307.6,-125.82 279.24,-84.55"/>
<polygon fill="#63b8ff" stroke="#63b8ff" points="447.42,-335.43 455.97,-341.69 453.19,-331.47 447.42,-335.43"/>
</a>
</g>
</g>
<!-- Node23&#45;&gt;Node13 -->
<g id="edge26_Node000023_Node000013" class="edge">
<title>Node23&#45;&gt;Node13</title>
<g id="a_edge26_Node000023_Node000013"><a xlink:title=" ">
<path fill="none" stroke="#63b8ff" d="M700.86,-333.73C724.47,-340.29 755.97,-347.61 782.45,-352.77"/>
<polygon fill="#63b8ff" stroke="#63b8ff" points="701.99,-330.42 691.41,-331.01 700.05,-337.14 701.99,-330.42"/>
</a>
</g>
</g>
<!-- Node24&#45;&gt;Node13 -->
<g id="edge28_Node000024_Node000013" class="edge">
<title>Node24&#45;&gt;Node13</title>
<g id="a_edge28_Node000024_Node000013"><a xlink:title=" ">
<path fill="none" stroke="#63b8ff" d="M703.11,-295.29C716.49,-298.65 731.28,-303.1 743.5,-310.2 763.62,-321.88 759.95,-335.6 779.5,-348.2 780.52,-348.86 781.56,-349.49 782.63,-350.11"/>
<polygon fill="#63b8ff" stroke="#63b8ff" points="704.29,-291.98 693.75,-293.05 702.66,-298.78 704.29,-291.98"/>
</a>
</g>
</g>
<!-- Node25&#45;&gt;Node13 -->
<g id="edge30_Node000025_Node000013" class="edge">
<title>Node25&#45;&gt;Node13</title>
<g id="a_edge30_Node000025_Node000013"><a xlink:title=" ">
<path fill="none" stroke="#63b8ff" d="M712.49,-257.34C723.55,-260.48 734.68,-265.01 743.5,-272.2 772.47,-295.81 751.66,-323.26 779.5,-348.2 780.55,-349.14 781.66,-350.04 782.8,-350.89"/>
<polygon fill="#63b8ff" stroke="#63b8ff" points="713.56,-254 703.01,-254.99 711.87,-260.79 713.56,-254"/>
</a>
</g>
</g>
<!-- Node27 -->
<g id="Node000027" class="node">
<title>Node27</title>
<g id="a_Node000027"><a xlink:href="../../df/d78/SDL_8c.html#a60aa8a910b5236e9eded873051707374" target="_top" xlink:title=" ">
<polygon fill="white" stroke="#666666" points="1037.25,-273.2 927.5,-273.2 927.5,-253.2 1037.25,-253.2 1037.25,-273.2"/>
<text xml:space="preserve" text-anchor="middle" x="982.38" y="-259.7" font-family="Helvetica,sans-Serif" font-size="10.00">SDL_QuitSubSystem</text>
</a>
</g>
</g>
<!-- Node26&#45;&gt;Node27 -->
<g id="edge32_Node000026_Node000027" class="edge">
<title>Node26&#45;&gt;Node27</title>
<g id="a_edge32_Node000026_Node000027"><a xlink:title=" ">
<path fill="none" stroke="#63b8ff" d="M1061.77,-280.21C1051.76,-278.04 1041.39,-275.79 1031.6,-273.66"/>
<polygon fill="#63b8ff" stroke="#63b8ff" points="1060.88,-283.6 1071.4,-282.3 1062.37,-276.76 1060.88,-283.6"/>
</a>
</g>
</g>
<!-- Node27&#45;&gt;Node13 -->
<g id="edge45_Node000027_Node000013" class="edge">
<title>Node27&#45;&gt;Node13</title>
<g id="a_edge45_Node000027_Node000013"><a xlink:title=" ">
<path fill="none" stroke="#63b8ff" d="M963.86,-281.49C946.76,-298.44 919.33,-323.37 891.5,-339.2 885.7,-342.5 879.24,-345.36 872.84,-347.78"/>
<polygon fill="#63b8ff" stroke="#63b8ff" points="966.2,-284.09 970.74,-274.52 961.22,-279.18 966.2,-284.09"/>
</a>
</g>
</g>
<!-- Node27&#45;&gt;Node14 -->
<g id="edge33_Node000027_Node000014" class="edge">
<title>Node27&#45;&gt;Node14</title>
<g id="a_edge33_Node000027_Node000014"><a xlink:title=" ">
<path fill="none" stroke="#63b8ff" d="M966.25,-282.42C954.83,-297.4 939.19,-318.99 927.5,-339.2 908.38,-372.25 916.78,-388.58 891.5,-417.2 840.23,-475.25 814.9,-479.2 743.5,-509.2 735.55,-512.54 726.88,-515.38 718.3,-517.76"/>
<polygon fill="#63b8ff" stroke="#63b8ff" points="968.79,-284.86 972.13,-274.81 963.25,-280.58 968.79,-284.86"/>
</a>
</g>
</g>
<!-- Node27&#45;&gt;Node17 -->
<g id="edge44_Node000027_Node000017" class="edge">
<title>Node27&#45;&gt;Node17</title>
<g id="a_edge44_Node000027_Node000017"><a xlink:title=" ">
<path fill="none" stroke="#63b8ff" d="M968.04,-282.71C947.94,-311.63 910.25,-363.88 891.5,-377.2 830.52,-420.5 742.86,-440.06 696.73,-447.81"/>
<polygon fill="#63b8ff" stroke="#63b8ff" points="970.69,-285.02 973.49,-274.8 964.93,-281.04 970.69,-285.02"/>
</a>
</g>
</g>
<!-- Node27&#45;&gt;Node25 -->
<g id="edge59_Node000027_Node000025" class="edge">
<title>Node27&#45;&gt;Node25</title>
<g id="a_edge59_Node000027_Node000025"><a xlink:title=" ">
<path fill="none" stroke="#63b8ff" d="M915.94,-265.93C876.38,-266.9 824.96,-266.97 779.5,-263.2 754.33,-261.11 726.35,-256.48 704.43,-252.31"/>
<polygon fill="#63b8ff" stroke="#63b8ff" points="915.88,-269.43 925.78,-265.66 915.69,-262.43 915.88,-269.43"/>
</a>
</g>
</g>
<!-- Node27&#45;&gt;Node27 -->
<g id="edge58_Node000027_Node000027" class="edge">
<title>Node27&#45;&gt;Node27</title>
<g id="a_edge58_Node000027_Node000027"><a xlink:title=" ">
<path fill="none" stroke="#63b8ff" d="M1006.35,-284.64C1003.26,-288.5 995.27,-291.2 982.38,-291.2 958.8,-291.2 951.62,-282.17 960.83,-273.54"/>
<polygon fill="#63b8ff" stroke="#63b8ff" points="1009.8,-284.04 1004.25,-275.02 1002.96,-285.53 1009.8,-284.04"/>
</a>
</g>
</g>
<!-- Node28 -->
<g id="Node000028" class="node">
<title>Node28</title>
<g id="a_Node000028"><a xlink:href="../../d6/df9/SDL__joystick_8c.html#ac0722362ebd0ebecebff12499774b471" target="_top" xlink:title=" ">
<polygon fill="white" stroke="#666666" points="891.5,-216.2 779.5,-216.2 779.5,-196.2 891.5,-196.2 891.5,-216.2"/>
<text xml:space="preserve" text-anchor="middle" x="835.5" y="-202.7" font-family="Helvetica,sans-Serif" font-size="10.00">CleanupSensorFusion</text>
</a>
</g>
</g>
<!-- Node27&#45;&gt;Node28 -->
<g id="edge34_Node000027_Node000028" class="edge">
<title>Node27&#45;&gt;Node28</title>
<g id="a_edge34_Node000027_Node000028"><a xlink:title=" ">
<path fill="none" stroke="#63b8ff" d="M947.51,-248.24C930.76,-241.01 910.18,-232.37 891.5,-225.2 883.95,-222.3 875.75,-219.36 868.04,-216.69"/>
<polygon fill="#63b8ff" stroke="#63b8ff" points="945.94,-251.38 956.51,-252.16 948.73,-244.96 945.94,-251.38"/>
</a>
</g>
</g>
<!-- Node32 -->
<g id="Node000032" class="node">
<title>Node32</title>
<g id="a_Node000032"><a xlink:href="../../d6/df9/SDL__joystick_8c.html#aa98a95583054633f27bb3bcdff5f97aa" target="_top" xlink:title=" ">
<polygon fill="white" stroke="#666666" points="515.25,-172.2 414.5,-172.2 414.5,-152.2 515.25,-152.2 515.25,-172.2"/>
<text xml:space="preserve" text-anchor="middle" x="464.88" y="-158.7" font-family="Helvetica,sans-Serif" font-size="10.00">SDL_QuitJoysticks</text>
</a>
</g>
</g>
<!-- Node27&#45;&gt;Node32 -->
<g id="edge54_Node000027_Node000032" class="edge">
<title>Node27&#45;&gt;Node32</title>
<g id="a_edge54_Node000027_Node000032"><a xlink:title=" ">
<path fill="none" stroke="#63b8ff" d="M970.36,-243.47C954.91,-222.52 924.93,-191.56 891.5,-178.2 757.13,-124.48 579.77,-138.23 503.44,-151.74"/>
<polygon fill="#63b8ff" stroke="#63b8ff" points="967.35,-245.28 975.87,-251.57 973.14,-241.34 967.35,-245.28"/>
</a>
</g>
</g>
<!-- Node33 -->
<g id="Node000033" class="node">
<title>Node33</title>
<g id="a_Node000033"><a xlink:href="../../df/d78/SDL_8c.html#abf064fcc4a657a30db8eace18633f362" target="_top" xlink:title=" ">
<polygon fill="white" stroke="#666666" points="864.88,-103.2 806.12,-103.2 806.12,-83.2 864.88,-83.2 864.88,-103.2"/>
<text xml:space="preserve" text-anchor="middle" x="835.5" y="-89.7" font-family="Helvetica,sans-Serif" font-size="10.00">SDL_Quit</text>
</a>
</g>
</g>
<!-- Node27&#45;&gt;Node33 -->
<g id="edge46_Node000027_Node000033" class="edge">
<title>Node27&#45;&gt;Node33</title>
<g id="a_edge46_Node000027_Node000033"><a xlink:title=" ">
<path fill="none" stroke="#63b8ff" d="M969.85,-243.33C954.11,-217.14 924.1,-170.39 891.5,-136.2 879.46,-123.57 863.56,-111.54 851.95,-103.43"/>
<polygon fill="#63b8ff" stroke="#63b8ff" points="966.63,-244.77 974.74,-251.6 972.66,-241.21 966.63,-244.77"/>
</a>
</g>
</g>
<!-- Node39 -->
<g id="Node000039" class="node">
<title>Node39</title>
<g id="a_Node000039"><a xlink:href="../../dc/de1/SDL__sensor_8c.html#af97faaba22b06bf9fc16804bfc2ae7df" target="_top" xlink:title=" ">
<polygon fill="white" stroke="#666666" points="882.88,-330.2 788.12,-330.2 788.12,-310.2 882.88,-310.2 882.88,-330.2"/>
<text xml:space="preserve" text-anchor="middle" x="835.5" y="-316.7" font-family="Helvetica,sans-Serif" font-size="10.00">SDL_QuitSensors</text>
</a>
</g>
</g>
<!-- Node27&#45;&gt;Node39 -->
<g id="edge55_Node000027_Node000039" class="edge">
<title>Node27&#45;&gt;Node39</title>
<g id="a_edge55_Node000027_Node000039"><a xlink:title=" ">
<path fill="none" stroke="#63b8ff" d="M928.52,-277.47C901.36,-287.52 870.23,-300.48 852.03,-309.71"/>
<polygon fill="#63b8ff" stroke="#63b8ff" points="929.45,-280.85 937.66,-274.15 927.06,-274.27 929.45,-280.85"/>
</a>
</g>
</g>
<!-- Node40 -->
<g id="Node000040" class="node">
<title>Node40</title>
<g id="a_Node000040"><a xlink:href="../../d6/d3d/SDL__video_8c.html#ae86d31ef3c6aad24cd4d0da9a9551906" target="_top" xlink:title=" ">
<polygon fill="white" stroke="#666666" points="877.25,-254.2 793.75,-254.2 793.75,-234.2 877.25,-234.2 877.25,-254.2"/>
<text xml:space="preserve" text-anchor="middle" x="835.5" y="-240.7" font-family="Helvetica,sans-Serif" font-size="10.00">SDL_VideoQuit</text>
</a>
</g>
</g>
<!-- Node27&#45;&gt;Node40 -->
<g id="edge60_Node000027_Node000040" class="edge">
<title>Node27&#45;&gt;Node40</title>
<g id="a_edge60_Node000027_Node000040"><a xlink:title=" ">
<path fill="none" stroke="#63b8ff" d="M935.2,-250.8C916.72,-247.78 895.61,-245.07 877.67,-243.44"/>
<polygon fill="#63b8ff" stroke="#63b8ff" points="934.36,-254.21 944.81,-252.46 935.55,-247.31 934.36,-254.21"/>
</a>
</g>
</g>
<!-- Node29 -->
<g id="Node000029" class="node">
<title>Node29</title>
<g id="a_Node000029"><a xlink:href="../../d6/df9/SDL__joystick_8c.html#aadf2e0eabb7fee1784bced6566d2f2ee" target="_top" xlink:title=" ">
<polygon fill="white" stroke="#666666" points="716.12,-216.2 613.12,-216.2 613.12,-196.2 716.12,-196.2 716.12,-216.2"/>
<text xml:space="preserve" text-anchor="middle" x="664.62" y="-202.7" font-family="Helvetica,sans-Serif" font-size="10.00">SDL_CloseJoystick</text>
</a>
</g>
</g>
<!-- Node28&#45;&gt;Node29 -->
<g id="edge35_Node000028_Node000029" class="edge">
<title>Node28&#45;&gt;Node29</title>
<g id="a_edge35_Node000028_Node000029"><a xlink:title=" ">
<path fill="none" stroke="#63b8ff" d="M768.1,-206.2C750.93,-206.2 732.71,-206.2 716.47,-206.2"/>
<polygon fill="#63b8ff" stroke="#63b8ff" points="767.69,-209.7 777.69,-206.2 767.69,-202.7 767.69,-209.7"/>
</a>
</g>
</g>
<!-- Node29&#45;&gt;Node15 -->
<g id="edge40_Node000029_Node000015" class="edge">
<title>Node29&#45;&gt;Node15</title>
<g id="a_edge40_Node000029_Node000015"><a xlink:title=" ">
<path fill="none" stroke="#63b8ff" d="M602.4,-217.51C596.59,-219.65 590.94,-222.19 585.75,-225.2 565.63,-236.88 568.89,-249.98 549.75,-263.2 482.45,-309.66 437.37,-275.92 380,-334.2 349.78,-364.9 374.6,-393.87 344,-424.2 336.11,-432.02 325.77,-437.72 315.42,-441.84"/>
<polygon fill="#63b8ff" stroke="#63b8ff" points="603.1,-220.97 611.53,-214.55 600.94,-214.31 603.1,-220.97"/>
</a>
</g>
</g>
<!-- Node29&#45;&gt;Node16 -->
<g id="edge39_Node000029_Node000016" class="edge">
<title>Node29&#45;&gt;Node16</title>
<g id="a_edge39_Node000029_Node000016"><a xlink:title=" ">
<path fill="none" stroke="#63b8ff" d="M601.74,-217C544.04,-227.45 455.76,-244.44 380,-263.2 282.12,-287.44 168.29,-323.22 114.05,-340.75"/>
<polygon fill="#63b8ff" stroke="#63b8ff" points="602.15,-220.48 611.37,-215.26 600.91,-213.59 602.15,-220.48"/>
</a>
</g>
</g>
<!-- Node30 -->
<g id="Node000030" class="node">
<title>Node30</title>
<g id="a_Node000030"><a xlink:href="../../d0/d82/SDL__gamepad_8c.html#aba8e3cc0575aa23129847fd8418fc191" target="_top" xlink:title=" ">
<polygon fill="white" stroke="#666666" points="519,-214.2 410.75,-214.2 410.75,-194.2 519,-194.2 519,-214.2"/>
<text xml:space="preserve" text-anchor="middle" x="464.88" y="-200.7" font-family="Helvetica,sans-Serif" font-size="10.00">SDL_CloseGamepad</text>
</a>
</g>
</g>
<!-- Node29&#45;&gt;Node30 -->
<g id="edge36_Node000029_Node000030" class="edge">
<title>Node29&#45;&gt;Node30</title>
<g id="a_edge36_Node000029_Node000030"><a xlink:title=" ">
<path fill="none" stroke="#63b8ff" d="M601.31,-205.57C575,-205.3 544.67,-205 519.39,-204.74"/>
<polygon fill="#63b8ff" stroke="#63b8ff" points="601.15,-209.07 611.19,-205.67 601.22,-202.07 601.15,-209.07"/>
</a>
</g>
</g>
<!-- Node29&#45;&gt;Node32 -->
<g id="edge41_Node000029_Node000032" class="edge">
<title>Node29&#45;&gt;Node32</title>
<g id="a_edge41_Node000029_Node000032"><a xlink:title=" ">
<path fill="none" stroke="#63b8ff" d="M605.53,-193.27C576.06,-186.71 540.72,-178.85 512.97,-172.68"/>
<polygon fill="#63b8ff" stroke="#63b8ff" points="604.51,-196.63 615.03,-195.39 606.03,-189.8 604.51,-196.63"/>
</a>
</g>
</g>
<!-- Node31 -->
<g id="Node000031" class="node">
<title>Node31</title>
<g id="a_Node000031"><a xlink:href="../../d0/d82/SDL__gamepad_8c.html#ad49c2e97ac6f1deaafd9aec54dff1659" target="_top" xlink:title=" ">
<polygon fill="white" stroke="#666666" points="324.12,-27.2 218.12,-27.2 218.12,-7.2 324.12,-7.2 324.12,-27.2"/>
<text xml:space="preserve" text-anchor="middle" x="271.12" y="-13.7" font-family="Helvetica,sans-Serif" font-size="10.00">SDL_QuitGamepads</text>
</a>
</g>
</g>
<!-- Node30&#45;&gt;Node31 -->
<g id="edge37_Node000030_Node000031" class="edge">
<title>Node30&#45;&gt;Node31</title>
<g id="a_edge37_Node000030_Node000031"><a xlink:title=" ">
<path fill="none" stroke="#63b8ff" d="M399.75,-194.24C392.44,-191 385.62,-186.76 380,-181.2 338.6,-140.24 380.68,-100.43 344,-55.2 333.78,-42.59 318.23,-33.64 304.21,-27.61"/>
<polygon fill="#63b8ff" stroke="#63b8ff" points="398.31,-197.44 408.9,-197.65 400.76,-190.88 398.31,-197.44"/>
</a>
</g>
</g>
<!-- Node31&#45;&gt;Node27 -->
<g id="edge38_Node000031_Node000027" class="edge">
<title>Node31&#45;&gt;Node27</title>
<g id="a_edge38_Node000031_Node000027"><a xlink:title=" ">
<path fill="none" stroke="#63b8ff" d="M335.55,-9.91C426.69,-1.07 599.6,9.55 743.5,-17.2 812.8,-30.08 839.79,-26.29 891.5,-74.2 948,-126.55 972.56,-221.81 979.33,-253.01"/>
<polygon fill="#63b8ff" stroke="#63b8ff" points="335.42,-6.4 325.82,-10.88 336.11,-13.37 335.42,-6.4"/>
</a>
</g>
</g>
<!-- Node32&#45;&gt;Node20 -->
<g id="edge42_Node000032_Node000020" class="edge">
<title>Node32&#45;&gt;Node20</title>
<g id="a_edge42_Node000032_Node000020"><a xlink:title=" ">
<path fill="none" stroke="#63b8ff" d="M403.53,-172C395.04,-175.23 386.87,-179.51 380,-185.2 309.37,-243.64 281.21,-359.59 274.07,-394.81"/>
<polygon fill="#63b8ff" stroke="#63b8ff" points="404.54,-175.35 412.96,-168.91 402.37,-168.7 404.54,-175.35"/>
</a>
</g>
</g>
<!-- Node32&#45;&gt;Node27 -->
<g id="edge43_Node000032_Node000027" class="edge">
<title>Node32&#45;&gt;Node27</title>
<g id="a_edge43_Node000032_Node000027"><a xlink:title=" ">
<path fill="none" stroke="#63b8ff" d="M526.85,-160.06C611.91,-154.28 769.44,-147.4 891.5,-196.2 923,-208.79 951.44,-237.01 967.54,-252.84"/>
<polygon fill="#63b8ff" stroke="#63b8ff" points="526.84,-156.55 517.11,-160.74 527.32,-163.54 526.84,-156.55"/>
</a>
</g>
</g>
<!-- Node34 -->
<g id="Node000034" class="node">
<title>Node34</title>
<g id="a_Node000034"><a xlink:href="../../de/daf/classCSDLmain.html#a73bd9c42ac6916974009e508257e44ff" target="_top" xlink:title=" ">
<polygon fill="white" stroke="#666666" points="711.25,-122.2 618,-122.2 618,-102.2 711.25,-102.2 711.25,-122.2"/>
<text xml:space="preserve" text-anchor="middle" x="664.62" y="-108.7" font-family="Helvetica,sans-Serif" font-size="10.00">CSDLmain::RunL</text>
</a>
</g>
</g>
<!-- Node33&#45;&gt;Node34 -->
<g id="edge47_Node000033_Node000034" class="edge">
<title>Node33&#45;&gt;Node34</title>
<g id="a_edge47_Node000033_Node000034"><a xlink:title=" ">
<path fill="none" stroke="#63b8ff" d="M794.63,-97.68C769.74,-100.49 737.61,-104.1 711.64,-107.02"/>
<polygon fill="#63b8ff" stroke="#63b8ff" points="794.8,-101.19 804.35,-96.59 794.02,-94.23 794.8,-101.19"/>
</a>
</g>
</g>
<!-- Node35 -->
<g id="Node000035" class="node">
<title>Node35</title>
<g id="a_Node000035"><a xlink:href="../../d3/d6c/SDL__assert_8c.html#af146e7f66c4e41a24337c5b6943af0b0" target="_top" xlink:title=" ">
<polygon fill="white" stroke="#666666" points="717.25,-84.2 612,-84.2 612,-64.2 717.25,-64.2 717.25,-84.2"/>
<text xml:space="preserve" text-anchor="middle" x="664.62" y="-70.7" font-family="Helvetica,sans-Serif" font-size="10.00">SDL_AbortAssertion</text>
</a>
</g>
</g>
<!-- Node33&#45;&gt;Node35 -->
<g id="edge48_Node000033_Node000035" class="edge">
<title>Node33&#45;&gt;Node35</title>
<g id="a_edge48_Node000033_Node000035"><a xlink:title=" ">
<path fill="none" stroke="#63b8ff" d="M794.46,-88.69C771.49,-86.11 742.4,-82.84 717.67,-80.05"/>
<polygon fill="#63b8ff" stroke="#63b8ff" points="794.02,-92.17 804.35,-89.81 794.8,-85.21 794.02,-92.17"/>
</a>
</g>
</g>
<!-- Node37 -->
<g id="Node000037" class="node">
<title>Node37</title>
<g id="a_Node000037"><a xlink:href="../../d9/d78/SDL__main__callbacks_8c.html#a2e8bd250bb597fdf72c9da9d001181e7" target="_top" xlink:title=" ">
<polygon fill="white" stroke="#666666" points="726.25,-46.2 603,-46.2 603,-26.2 726.25,-26.2 726.25,-46.2"/>
<text xml:space="preserve" text-anchor="middle" x="664.62" y="-32.7" font-family="Helvetica,sans-Serif" font-size="10.00">SDL_QuitMainCallbacks</text>
</a>
</g>
</g>
<!-- Node33&#45;&gt;Node37 -->
<g id="edge50_Node000033_Node000037" class="edge">
<title>Node33&#45;&gt;Node37</title>
<g id="a_edge50_Node000033_Node000037"><a xlink:title=" ">
<path fill="none" stroke="#63b8ff" d="M802.35,-78.33C785.14,-70.74 763.44,-61.75 743.5,-55.2 733.98,-52.07 723.66,-49.2 713.73,-46.69"/>
<polygon fill="#63b8ff" stroke="#63b8ff" points="800.49,-81.33 811.05,-82.22 803.35,-74.94 800.49,-81.33"/>
</a>
</g>
</g>
<!-- Node36 -->
<g id="Node000036" class="node">
<title>Node36</title>
<g id="a_Node000036"><a xlink:href="../../d3/d6c/SDL__assert_8c.html#a0c9a208493d6e9212cff2ab400242102" target="_top" xlink:title=" ">
<polygon fill="white" stroke="#666666" points="520.5,-122.2 409.25,-122.2 409.25,-102.2 520.5,-102.2 520.5,-122.2"/>
<text xml:space="preserve" text-anchor="middle" x="464.88" y="-108.7" font-family="Helvetica,sans-Serif" font-size="10.00">SDL_ReportAssertion</text>
</a>
</g>
</g>
<!-- Node35&#45;&gt;Node36 -->
<g id="edge49_Node000035_Node000036" class="edge">
<title>Node35&#45;&gt;Node36</title>
<g id="a_edge49_Node000035_Node000036"><a xlink:title=" ">
<path fill="none" stroke="#63b8ff" d="M600.48,-86.33C574.66,-91.29 545.09,-96.98 520.25,-101.75"/>
<polygon fill="#63b8ff" stroke="#63b8ff" points="601.02,-89.79 610.18,-84.47 599.7,-82.92 601.02,-89.79"/>
</a>
</g>
</g>
<!-- Node37&#45;&gt;Node22 -->
<g id="edge53_Node000037_Node000022" class="edge">
<title>Node37&#45;&gt;Node22</title>
<g id="a_edge53_Node000037_Node000022"><a xlink:title=" ">
<path fill="none" stroke="#63b8ff" d="M596.61,-48.49C581.25,-51 564.97,-53.41 549.75,-55.2 480.3,-63.35 400.62,-68.36 344.5,-71.17"/>
<polygon fill="#63b8ff" stroke="#63b8ff" points="596.82,-52.01 606.1,-46.91 595.66,-45.1 596.82,-52.01"/>
</a>
</g>
</g>
<!-- Node38 -->
<g id="Node000038" class="node">
<title>Node38</title>
<g id="a_Node000038"><a xlink:href="../../d0/d72/emscripten_2SDL__sysmain__callbacks_8c.html#ad2e127e4f44ae815197361e79da5bf88" target="_top" xlink:title=" ">
<polygon fill="white" stroke="#666666" points="533.25,-46.2 396.5,-46.2 396.5,-26.2 533.25,-26.2 533.25,-46.2"/>
<text xml:space="preserve" text-anchor="middle" x="464.88" y="-32.7" font-family="Helvetica,sans-Serif" font-size="10.00">EmscriptenInternalMainloop</text>
</a>
</g>
</g>
<!-- Node37&#45;&gt;Node38 -->
<g id="edge51_Node000037_Node000038" class="edge">
<title>Node37&#45;&gt;Node38</title>
<g id="a_edge51_Node000037_Node000038"><a xlink:title=" ">
<path fill="none" stroke="#63b8ff" d="M591.42,-36.2C572.5,-36.2 552.18,-36.2 533.51,-36.2"/>
<polygon fill="#63b8ff" stroke="#63b8ff" points="591.17,-39.7 601.17,-36.2 591.17,-32.7 591.17,-39.7"/>
</a>
</g>
</g>
<!-- Node38&#45;&gt;Node22 -->
<g id="edge52_Node000038_Node000022" class="edge">
<title>Node38&#45;&gt;Node22</title>
<g id="a_edge52_Node000038_Node000022"><a xlink:title=" ">
<path fill="none" stroke="#63b8ff" d="M399.68,-48.92C375.37,-53.74 347.99,-59.16 324.86,-63.75"/>
<polygon fill="#63b8ff" stroke="#63b8ff" points="400.36,-52.35 409.49,-46.98 399,-45.49 400.36,-52.35"/>
</a>
</g>
</g>
<!-- Node39&#45;&gt;Node24 -->
<g id="edge56_Node000039_Node000024" class="edge">
<title>Node39&#45;&gt;Node24</title>
<g id="a_edge56_Node000039_Node000024"><a xlink:title=" ">
<path fill="none" stroke="#63b8ff" d="M776.77,-307.21C754.94,-302.3 730.45,-296.79 710.03,-292.19"/>
<polygon fill="#63b8ff" stroke="#63b8ff" points="775.91,-310.6 786.43,-309.38 777.44,-303.77 775.91,-310.6"/>
</a>
</g>
</g>
<!-- Node39&#45;&gt;Node27 -->
<g id="edge57_Node000039_Node000027" class="edge">
<title>Node39&#45;&gt;Node27</title>
<g id="a_edge57_Node000039_Node000027"><a xlink:title=" ">
<path fill="none" stroke="#63b8ff" d="M889.47,-305.89C916.61,-295.84 947.7,-282.89 965.87,-273.67"/>
<polygon fill="#63b8ff" stroke="#63b8ff" points="888.53,-302.5 880.33,-309.2 890.92,-309.08 888.53,-302.5"/>
</a>
</g>
</g>
<!-- Node40&#45;&gt;Node25 -->
<g id="edge62_Node000040_Node000025" class="edge">
<title>Node40&#45;&gt;Node25</title>
<g id="a_edge62_Node000040_Node000025"><a xlink:title=" ">
<path fill="none" stroke="#63b8ff" d="M782.41,-244.2C757.23,-244.2 727.54,-244.2 704.39,-244.2"/>
<polygon fill="#63b8ff" stroke="#63b8ff" points="782.11,-247.7 792.11,-244.2 782.11,-240.7 782.11,-247.7"/>
</a>
</g>
</g>
<!-- Node40&#45;&gt;Node27 -->
<g id="edge61_Node000040_Node000027" class="edge">
<title>Node40&#45;&gt;Node27</title>
<g id="a_edge61_Node000040_Node000027"><a xlink:title=" ">
<path fill="none" stroke="#63b8ff" d="M882.38,-256.54C896.56,-258.87 912.32,-261.02 927.02,-262.63"/>
<polygon fill="#63b8ff" stroke="#63b8ff" points="883.33,-253.16 872.88,-254.9 882.14,-260.06 883.33,-253.16"/>
</a>
</g>
</g>
</g>
</svg>
