<?xml version="1.0" encoding="UTF-8" standalone="no"?>
<!DOCTYPE svg PUBLIC "-//W3C//DTD SVG 1.1//EN"
 "http://www.w3.org/Graphics/SVG/1.1/DTD/svg11.dtd">
<!-- Generated by graphviz version 13.1.0 (20250701.0955)
 -->
<!-- Title: PrepareDragAndDropSupport Pages: 1 -->
<svg width="899pt" height="85pt"
 viewBox="0.00 0.00 899.00 85.00" xmlns="http://www.w3.org/2000/svg" xmlns:xlink="http://www.w3.org/1999/xlink">
<g id="graph0" class="graph" transform="scale(1 1) rotate(0) translate(4 81)">
<title>PrepareDragAndDropSupport</title>
<!-- Node1 -->
<g id="Node000001" class="node">
<title>Node1</title>
<g id="a_Node000001"><a xlink:title=" ">
<polygon fill="#999999" stroke="#666666" points="890.75,-39 748,-39 748,-19 890.75,-19 890.75,-39"/>
<text xml:space="preserve" text-anchor="middle" x="819.38" y="-25.5" font-family="Helvetica,sans-Serif" font-size="10.00">PrepareDragAndDropSupport</text>
</a>
</g>
</g>
<!-- Node2 -->
<g id="Node000002" class="node">
<title>Node2</title>
<g id="a_Node000002"><a xlink:href="../../d6/d3d/SDL__video_8c.html#a85c65a55c98c9a30b0f96e0f7e54c336" target="_top" xlink:title=" ">
<polygon fill="white" stroke="#666666" points="712,-39 573,-39 573,-19 712,-19 712,-39"/>
<text xml:space="preserve" text-anchor="middle" x="642.5" y="-25.5" font-family="Helvetica,sans-Serif" font-size="10.00">SDL_FinishWindowCreation</text>
</a>
</g>
</g>
<!-- Node1&#45;&gt;Node2 -->
<g id="edge1_Node000001_Node000002" class="edge">
<title>Node1&#45;&gt;Node2</title>
<g id="a_edge1_Node000001_Node000002"><a xlink:title=" ">
<path fill="none" stroke="#63b8ff" d="M736.45,-29C728.4,-29 720.3,-29 712.4,-29"/>
<polygon fill="#63b8ff" stroke="#63b8ff" points="736.24,-32.5 746.24,-29 736.24,-25.5 736.24,-32.5"/>
</a>
</g>
</g>
<!-- Node3 -->
<g id="Node000003" class="node">
<title>Node3</title>
<g id="a_Node000003"><a xlink:href="../../d6/d3d/SDL__video_8c.html#a9f3d88531134e2c3e575a3c2db7f8488" target="_top" xlink:title=" ">
<polygon fill="white" stroke="#666666" points="537,-58 367.25,-58 367.25,-38 537,-38 537,-58"/>
<text xml:space="preserve" text-anchor="middle" x="452.12" y="-44.5" font-family="Helvetica,sans-Serif" font-size="10.00">SDL_CreateWindowWithProperties</text>
</a>
</g>
</g>
<!-- Node2&#45;&gt;Node3 -->
<g id="edge2_Node000002_Node000003" class="edge">
<title>Node2&#45;&gt;Node3</title>
<g id="a_edge2_Node000002_Node000003"><a xlink:title=" ">
<path fill="none" stroke="#63b8ff" d="M561.27,-37.09C553.39,-37.89 545.37,-38.7 537.45,-39.49"/>
<polygon fill="#63b8ff" stroke="#63b8ff" points="561.59,-40.58 571.19,-36.09 560.89,-33.61 561.59,-40.58"/>
</a>
</g>
</g>
<!-- Node7 -->
<g id="Node000007" class="node">
<title>Node7</title>
<g id="a_Node000007"><a xlink:href="../../d6/d3d/SDL__video_8c.html#ac71558ab32ba69c961258e4cb6bcaa01" target="_top" xlink:title=" ">
<polygon fill="white" stroke="#666666" points="510,-20 394.25,-20 394.25,0 510,0 510,-20"/>
<text xml:space="preserve" text-anchor="middle" x="452.12" y="-6.5" font-family="Helvetica,sans-Serif" font-size="10.00">SDL_RecreateWindow</text>
</a>
</g>
</g>
<!-- Node2&#45;&gt;Node7 -->
<g id="edge6_Node000002_Node000007" class="edge">
<title>Node2&#45;&gt;Node7</title>
<g id="a_edge6_Node000002_Node000007"><a xlink:title=" ">
<path fill="none" stroke="#63b8ff" d="M561.5,-20.93C544.29,-19.2 526.44,-17.39 510.3,-15.77"/>
<polygon fill="#63b8ff" stroke="#63b8ff" points="560.89,-24.39 571.19,-21.91 561.59,-17.42 560.89,-24.39"/>
</a>
</g>
</g>
<!-- Node4 -->
<g id="Node000004" class="node">
<title>Node4</title>
<g id="a_Node000004"><a xlink:href="../../d6/d3d/SDL__video_8c.html#acc26de39ce1bd675446e4d6c05ebf4b0" target="_top" xlink:title=" ">
<polygon fill="white" stroke="#666666" points="331.25,-77 198.25,-77 198.25,-57 331.25,-57 331.25,-77"/>
<text xml:space="preserve" text-anchor="middle" x="264.75" y="-63.5" font-family="Helvetica,sans-Serif" font-size="10.00">SDL_CreatePopupWindow</text>
</a>
</g>
</g>
<!-- Node3&#45;&gt;Node4 -->
<g id="edge3_Node000003_Node000004" class="edge">
<title>Node3&#45;&gt;Node4</title>
<g id="a_edge3_Node000003_Node000004"><a xlink:title=" ">
<path fill="none" stroke="#63b8ff" d="M355.42,-57.81C347.33,-58.64 339.27,-59.46 331.5,-60.26"/>
<polygon fill="#63b8ff" stroke="#63b8ff" points="355.75,-61.29 365.34,-56.79 355.03,-54.33 355.75,-61.29"/>
</a>
</g>
</g>
<!-- Node5 -->
<g id="Node000005" class="node">
<title>Node5</title>
<g id="a_Node000005"><a xlink:href="../../d6/d3d/SDL__video_8c.html#a83103c86f9e5c33ab9e1fb6dfa904b7f" target="_top" xlink:title=" ">
<polygon fill="white" stroke="#666666" points="317.38,-39 212.12,-39 212.12,-19 317.38,-19 317.38,-39"/>
<text xml:space="preserve" text-anchor="middle" x="264.75" y="-25.5" font-family="Helvetica,sans-Serif" font-size="10.00">SDL_CreateWindow</text>
</a>
</g>
</g>
<!-- Node3&#45;&gt;Node5 -->
<g id="edge4_Node000003_Node000005" class="edge">
<title>Node3&#45;&gt;Node5</title>
<g id="a_edge4_Node000003_Node000005"><a xlink:title=" ">
<path fill="none" stroke="#63b8ff" d="M355.44,-38.19C342.45,-36.86 329.54,-35.54 317.73,-34.33"/>
<polygon fill="#63b8ff" stroke="#63b8ff" points="355.03,-41.67 365.34,-39.21 355.75,-34.71 355.03,-41.67"/>
</a>
</g>
</g>
<!-- Node6 -->
<g id="Node000006" class="node">
<title>Node6</title>
<g id="a_Node000006"><a xlink:href="../../dd/df3/SDL__render_8c.html#a36f859fae15e4277ba052f9ecfb2816d" target="_top" xlink:title=" ">
<polygon fill="white" stroke="#666666" points="162.25,-39 0,-39 0,-19 162.25,-19 162.25,-39"/>
<text xml:space="preserve" text-anchor="middle" x="81.12" y="-25.5" font-family="Helvetica,sans-Serif" font-size="10.00">SDL_CreateWindowAndRenderer</text>
</a>
</g>
</g>
<!-- Node5&#45;&gt;Node6 -->
<g id="edge5_Node000005_Node000006" class="edge">
<title>Node5&#45;&gt;Node6</title>
<g id="a_edge5_Node000005_Node000006"><a xlink:title=" ">
<path fill="none" stroke="#63b8ff" d="M200.3,-29C188.14,-29 175.26,-29 162.64,-29"/>
<polygon fill="#63b8ff" stroke="#63b8ff" points="200.19,-32.5 210.19,-29 200.19,-25.5 200.19,-32.5"/>
</a>
</g>
</g>
</g>
</svg>
