<?xml version="1.0" encoding="UTF-8" standalone="no"?>
<!DOCTYPE svg PUBLIC "-//W3C//DTD SVG 1.1//EN"
 "http://www.w3.org/Graphics/SVG/1.1/DTD/svg11.dtd">
<!-- Generated by graphviz version 13.1.0 (20250701.0955)
 -->
<!-- Title: SDL_SetWindowTextureVSync Pages: 1 -->
<!--zoomable 132 -->

<svg id="main" version="1.1" xmlns="http://www.w3.org/2000/svg" xmlns:xlink="http://www.w3.org/1999/xlink" xml:space="preserve" onload="init(evt)">

<style type="text/css"><![CDATA[
.node, .edge {opacity: 0.7;}
.node.selected, .edge.selected {opacity: 1;}
.edge:hover path { stroke: red; }
.edge:hover polygon { stroke: red; fill: red; }
]]></style>

<defs>
  <circle id="rim" cx="0" cy="0" r="7"/>
  <circle id="rim2" cx="0" cy="0" r="3.5"/>
  <g id="zoomPlus">
    <use xlink:href="#rim" fill="#404040"><set attributeName="fill" to="#808080" begin="zoomplus.mouseover" end="zoomplus.mouseout"/></use>
    <path d="M-4,0h8M0,-4v8" fill="none" stroke="white" stroke-width="1.5" pointer-events="none"/>
  </g>
  <g id="zoomMin">
    <use xlink:href="#rim" fill="#404040"><set attributeName="fill" to="#808080" begin="zoomminus.mouseover" end="zoomminus.mouseout"/></use>
    <path d="M-4,0h8" fill="none" stroke="white" stroke-width="1.5" pointer-events="none"/>
  </g>
  <g id="arrowUp" transform="translate(30 24)">
    <use xlink:href="#rim"/>
    <path pointer-events="none" fill="none" stroke="white" stroke-width="1.5" d="M0,-3.0v7 M-2.5,-0.5L0,-3.0L2.5,-0.5"/>
  </g>
  <g id="arrowRight" transform="rotate(90) translate(36 -43)">
    <use xlink:href="#rim"/>
    <path pointer-events="none" fill="none" stroke="white" stroke-width="1.5" d="M0,-3.0v7 M-2.5,-0.5L0,-3.0L2.5,-0.5"/>
  </g>
  <g id="arrowDown" transform="rotate(180) translate(-30 -48)">
    <use xlink:href="#rim"/>
    <path pointer-events="none" fill="none" stroke="white" stroke-width="1.5" d="M0,-3.0v7 M-2.5,-0.5L0,-3.0L2.5,-0.5"/>
  </g>
  <g id="arrowLeft" transform="rotate(270) translate(-36 17)">
    <use xlink:href="#rim"/>
    <path pointer-events="none" fill="none" stroke="white" stroke-width="1.5" d="M0,-3.0v7 M-2.5,-0.5L0,-3.0L2.5,-0.5"/>
  </g>
  <g id="resetDef">
    <use xlink:href="#rim2" fill="#404040"><set attributeName="fill" to="#808080" begin="reset.mouseover" end="reset.mouseout"/></use>
  </g>
</defs>
<script type="application/ecmascript">
var viewWidth = 1261;
var viewHeight = 132;
var sectionId = 'dynsection-272';
</script>
<script type="application/ecmascript" xlink:href="../../svg.min.js"/>
<svg id="graph" class="graph">
<g id="viewport">
<title>SDL_SetWindowTextureVSync</title>
<!-- Node1 -->
<g id="Node000001" class="node">
<title>Node1</title>
<g id="a_Node000001"><a xlink:title=" ">
<polygon fill="#999999" stroke="#666666" points="1252.75,-77 1100.25,-77 1100.25,-57 1252.75,-57 1252.75,-77"/>
<text xml:space="preserve" text-anchor="middle" x="1176.5" y="-63.5" font-family="Helvetica,sans-Serif" font-size="10.00">SDL_SetWindowTextureVSync</text>
</a>
</g>
</g>
<!-- Node2 -->
<g id="Node000002" class="node">
<title>Node2</title>
<g id="a_Node000002"><a xlink:href="../../d6/d3d/SDL__video_8c.html#ae6c55eb5cc6ca81ba6faa17eab3af85b" target="_top" xlink:title=" ">
<polygon fill="white" stroke="#666666" points="318.5,-96 161.5,-96 161.5,-76 318.5,-76 318.5,-96"/>
<text xml:space="preserve" text-anchor="middle" x="240" y="-82.5" font-family="Helvetica,sans-Serif" font-size="10.00">SDL_CreateWindowFramebuffer</text>
</a>
</g>
</g>
<!-- Node1&#45;&gt;Node2 -->
<g id="edge1_Node000001_Node000002" class="edge">
<title>Node1&#45;&gt;Node2</title>
<g id="a_edge1_Node000001_Node000002"><a xlink:title=" ">
<path fill="none" stroke="#63b8ff" d="M1125.89,-80.27C1058.45,-97.11 933.83,-124 825.62,-124 825.62,-124 825.62,-124 626.12,-124 505.11,-124 474.68,-119.23 354.5,-105 335.75,-102.78 315.38,-99.61 297.13,-96.49"/>
<polygon fill="#63b8ff" stroke="#63b8ff" points="1126.7,-83.67 1135.54,-77.83 1124.98,-76.89 1126.7,-83.67"/>
</a>
</g>
</g>
<!-- Node4 -->
<g id="Node000004" class="node">
<title>Node4</title>
<g id="a_Node000004"><a xlink:href="../../dd/df3/SDL__render_8c.html#a9e680cc6471ac29dedf61e566f25a98b" target="_top" xlink:title=" ">
<polygon fill="white" stroke="#666666" points="1064.25,-77 947.75,-77 947.75,-57 1064.25,-57 1064.25,-77"/>
<text xml:space="preserve" text-anchor="middle" x="1006" y="-63.5" font-family="Helvetica,sans-Serif" font-size="10.00">SDL_SetRenderVSync</text>
</a>
</g>
</g>
<!-- Node1&#45;&gt;Node4 -->
<g id="edge3_Node000001_Node000004" class="edge">
<title>Node1&#45;&gt;Node4</title>
<g id="a_edge3_Node000001_Node000004"><a xlink:title=" ">
<path fill="none" stroke="#63b8ff" d="M1088.63,-60.25C1080.49,-60.27 1072.39,-60.37 1064.62,-60.56"/>
<polygon fill="#63b8ff" stroke="#63b8ff" points="1088.6,-63.75 1098.61,-60.28 1088.62,-56.75 1088.6,-63.75"/>
</a>
</g>
</g>
<!-- Node3 -->
<g id="Node000003" class="node">
<title>Node3</title>
<g id="a_Node000003"><a xlink:href="../../d6/d3d/SDL__video_8c.html#a155d3f01bb23f59e2c724973e020ebe6" target="_top" xlink:title=" ">
<polygon fill="white" stroke="#666666" points="125.5,-96 0,-96 0,-76 125.5,-76 125.5,-96"/>
<text xml:space="preserve" text-anchor="middle" x="62.75" y="-82.5" font-family="Helvetica,sans-Serif" font-size="10.00">SDL_GetWindowSurface</text>
</a>
</g>
</g>
<!-- Node2&#45;&gt;Node3 -->
<g id="edge2_Node000002_Node000003" class="edge">
<title>Node2&#45;&gt;Node3</title>
<g id="a_edge2_Node000002_Node000003"><a xlink:title=" ">
<path fill="none" stroke="#63b8ff" d="M149.74,-86C141.68,-86 133.64,-86 125.89,-86"/>
<polygon fill="#63b8ff" stroke="#63b8ff" points="149.6,-89.5 159.6,-86 149.6,-82.5 149.6,-89.5"/>
</a>
</g>
</g>
<!-- Node4&#45;&gt;Node1 -->
<g id="edge11_Node000004_Node000001" class="edge">
<title>Node4&#45;&gt;Node1</title>
<g id="a_edge11_Node000004_Node000001"><a xlink:title=" ">
<path fill="none" stroke="#63b8ff" d="M1076.07,-73.65C1084,-73.76 1092.11,-73.78 1100.12,-73.72"/>
<polygon fill="#63b8ff" stroke="#63b8ff" points="1076.2,-70.15 1066.13,-73.47 1076.07,-77.15 1076.2,-70.15"/>
</a>
</g>
</g>
<!-- Node5 -->
<g id="Node000005" class="node">
<title>Node5</title>
<g id="a_Node000005"><a xlink:href="../../dd/df3/SDL__render_8c.html#a4006a2177c9369434436c35e55db4909" target="_top" xlink:title=" ">
<polygon fill="white" stroke="#666666" points="911.75,-67 737.5,-67 737.5,-47 911.75,-47 911.75,-67"/>
<text xml:space="preserve" text-anchor="middle" x="824.62" y="-53.5" font-family="Helvetica,sans-Serif" font-size="10.00">SDL_CreateRendererWithProperties</text>
</a>
</g>
</g>
<!-- Node4&#45;&gt;Node5 -->
<g id="edge4_Node000004_Node000005" class="edge">
<title>Node4&#45;&gt;Node5</title>
<g id="a_edge4_Node000004_Node000005"><a xlink:title=" ">
<path fill="none" stroke="#63b8ff" d="M935.95,-63.15C928.1,-62.71 920.03,-62.26 911.99,-61.81"/>
<polygon fill="#63b8ff" stroke="#63b8ff" points="935.57,-66.63 945.75,-63.7 935.96,-59.65 935.57,-66.63"/>
</a>
</g>
</g>
<!-- Node6 -->
<g id="Node000006" class="node">
<title>Node6</title>
<g id="a_Node000006"><a xlink:href="../../dd/df3/SDL__render_8c.html#a938956b40b80ca18f9fe8a2584916c19" target="_top" xlink:title=" ">
<polygon fill="white" stroke="#666666" points="692.88,-96 561.38,-96 561.38,-76 692.88,-76 692.88,-96"/>
<text xml:space="preserve" text-anchor="middle" x="627.12" y="-82.5" font-family="Helvetica,sans-Serif" font-size="10.00">SDL_CreateGPURenderer</text>
</a>
</g>
</g>
<!-- Node5&#45;&gt;Node6 -->
<g id="edge5_Node000005_Node000006" class="edge">
<title>Node5&#45;&gt;Node6</title>
<g id="a_edge5_Node000005_Node000006"><a xlink:title=" ">
<path fill="none" stroke="#63b8ff" d="M741.89,-69.12C725.6,-71.54 708.7,-74.05 693.07,-76.37"/>
<polygon fill="#63b8ff" stroke="#63b8ff" points="742.17,-72.62 751.55,-67.69 741.14,-65.7 742.17,-72.62"/>
</a>
</g>
</g>
<!-- Node7 -->
<g id="Node000007" class="node">
<title>Node7</title>
<g id="a_Node000007"><a xlink:href="../../dd/df3/SDL__render_8c.html#a6a2f5a459a309db3da78480c8338ff72" target="_top" xlink:title=" ">
<polygon fill="white" stroke="#666666" points="682,-58 572.25,-58 572.25,-38 682,-38 682,-58"/>
<text xml:space="preserve" text-anchor="middle" x="627.12" y="-44.5" font-family="Helvetica,sans-Serif" font-size="10.00">SDL_CreateRenderer</text>
</a>
</g>
</g>
<!-- Node5&#45;&gt;Node7 -->
<g id="edge6_Node000005_Node000007" class="edge">
<title>Node5&#45;&gt;Node7</title>
<g id="a_edge6_Node000005_Node000007"><a xlink:title=" ">
<path fill="none" stroke="#63b8ff" d="M725.65,-52.49C710.75,-51.8 695.86,-51.12 682.36,-50.5"/>
<polygon fill="#63b8ff" stroke="#63b8ff" points="725.36,-55.98 735.51,-52.94 725.68,-48.99 725.36,-55.98"/>
</a>
</g>
</g>
<!-- Node10 -->
<g id="Node000010" class="node">
<title>Node10</title>
<g id="a_Node000010"><a xlink:href="../../dd/df3/SDL__render_8c.html#a78f971f18d9db412a4df5e3d9ebbf700" target="_top" xlink:title=" ">
<polygon fill="white" stroke="#666666" points="701.5,-20 552.75,-20 552.75,0 701.5,0 701.5,-20"/>
<text xml:space="preserve" text-anchor="middle" x="627.12" y="-6.5" font-family="Helvetica,sans-Serif" font-size="10.00">SDL_CreateSoftwareRenderer</text>
</a>
</g>
</g>
<!-- Node5&#45;&gt;Node10 -->
<g id="edge10_Node000005_Node000010" class="edge">
<title>Node5&#45;&gt;Node10</title>
<g id="a_edge10_Node000005_Node000010"><a xlink:title=" ">
<path fill="none" stroke="#63b8ff" d="M769.26,-43.93C738.49,-36.53 700.53,-27.41 671.73,-20.48"/>
<polygon fill="#63b8ff" stroke="#63b8ff" points="768.22,-47.28 778.77,-46.22 769.86,-40.47 768.22,-47.28"/>
</a>
</g>
</g>
<!-- Node8 -->
<g id="Node000008" class="node">
<title>Node8</title>
<g id="a_Node000008"><a xlink:href="../../dd/df3/SDL__render_8c.html#a36f859fae15e4277ba052f9ecfb2816d" target="_top" xlink:title=" ">
<polygon fill="white" stroke="#666666" points="516.75,-96 354.5,-96 354.5,-76 516.75,-76 516.75,-96"/>
<text xml:space="preserve" text-anchor="middle" x="435.62" y="-82.5" font-family="Helvetica,sans-Serif" font-size="10.00">SDL_CreateWindowAndRenderer</text>
</a>
</g>
</g>
<!-- Node7&#45;&gt;Node8 -->
<g id="edge7_Node000007_Node000008" class="edge">
<title>Node7&#45;&gt;Node8</title>
<g id="a_edge7_Node000007_Node000008"><a xlink:title=" ">
<path fill="none" stroke="#63b8ff" d="M562.68,-60.72C538.66,-65.54 511.6,-70.96 488.74,-75.55"/>
<polygon fill="#63b8ff" stroke="#63b8ff" points="563.24,-64.18 572.36,-58.78 561.86,-57.32 563.24,-64.18"/>
</a>
</g>
</g>
<!-- Node9 -->
<g id="Node000009" class="node">
<title>Node9</title>
<g id="a_Node000009"><a xlink:href="../../d6/d3d/SDL__video_8c.html#ae87638d537fdd872b08bfb7a68f4bf1a" target="_top" xlink:title=" ">
<polygon fill="white" stroke="#666666" points="504.38,-58 366.88,-58 366.88,-38 504.38,-38 504.38,-58"/>
<text xml:space="preserve" text-anchor="middle" x="435.62" y="-44.5" font-family="Helvetica,sans-Serif" font-size="10.00">SDL_CreateWindowTexture</text>
</a>
</g>
</g>
<!-- Node7&#45;&gt;Node9 -->
<g id="edge8_Node000007_Node000009" class="edge">
<title>Node7&#45;&gt;Node9</title>
<g id="a_edge8_Node000007_Node000009"><a xlink:title=" ">
<path fill="none" stroke="#63b8ff" d="M560.54,-48C542.52,-48 522.94,-48 504.78,-48"/>
<polygon fill="#63b8ff" stroke="#63b8ff" points="560.31,-51.5 570.31,-48 560.31,-44.5 560.31,-51.5"/>
</a>
</g>
</g>
<!-- Node9&#45;&gt;Node2 -->
<g id="edge9_Node000009_Node000002" class="edge">
<title>Node9&#45;&gt;Node2</title>
<g id="a_edge9_Node000009_Node000002"><a xlink:title=" ">
<path fill="none" stroke="#63b8ff" d="M370.13,-60.66C345.5,-65.49 317.72,-70.94 294.25,-75.55"/>
<polygon fill="#63b8ff" stroke="#63b8ff" points="370.58,-64.14 379.72,-58.78 369.23,-57.27 370.58,-64.14"/>
</a>
</g>
</g>
</g>
</svg>

<g id="navigator" transform="translate(0 0)" fill="#404254">
  <rect fill="#f2f5e9" fill-opacity="0.5" stroke="#606060" stroke-width=".5" x="0" y="0" width="60" height="60"/>
  <use id="zoomplus" xlink:href="#zoomPlus" x="17" y="9" onmousedown="handleZoom(evt,'in')"/>
  <use id="zoomminus" xlink:href="#zoomMin" x="42" y="9" onmousedown="handleZoom(evt,'out')"/>
  <use id="reset" xlink:href="#resetDef" x="30" y="36" onmousedown="handleReset()"/>
   <use id="arrowup" xlink:href="#arrowUp" x="0" y="0" onmousedown="handlePan(0,-1)"/>
  <use id="arrowright" xlink:href="#arrowRight" x="0" y="0" onmousedown="handlePan(1,0)"/>
  <use id="arrowdown" xlink:href="#arrowDown" x="0" y="0" onmousedown="handlePan(0,1)"/>
  <use id="arrowleft" xlink:href="#arrowLeft" x="0" y="0" onmousedown="handlePan(-1,0)"/>
</g>
<svg viewBox="0 0 15 15" width="100%" height="30px" preserveAspectRatio="xMaxYMin meet">
 <g id="arrow_out" transform="scale(0.3 0.3)">
  <a xlink:href="SDL__video_8c_a49cff7a2fcc8a9e0a9d9ab2e08252043_icgraph_org.svg" target="_base">
   <rect id="button" ry="5" rx="5" y="6" x="6" height="38" width="38"
        fill="#f2f5e9" fill-opacity="0.5" stroke="#606060" stroke-width="1.0"/>
   <path id="arrow"
     d="M 11.500037,31.436501 C 11.940474,20.09759 22.043105,11.32322 32.158766,21.979434 L 37.068811,17.246167 C 37.068811,17.246167 37.088388,32 37.088388,32 L 22.160133,31.978069 C 22.160133,31.978069 26.997745,27.140456 26.997745,27.140456 C 18.528582,18.264221 13.291696,25.230495 11.500037,31.436501 z"
     style="fill:#404040;"/>
  </a>
 </g>
</svg>

<style type='text/css'>
<![CDATA[
[data-mouse-over-selected='false'] { opacity: 0.7; }
[data-mouse-over-selected='true']  { opacity: 1.0; }
]]>
</style>
<script type="application/ecmascript"><![CDATA[
document.addEventListener('DOMContentLoaded', (event) => {
  highlightEdges();
  highlightAdjacentNodes();
});
]]></script>
</svg>
