<?xml version="1.0" encoding="UTF-8" standalone="no"?>
<!DOCTYPE svg PUBLIC "-//W3C//DTD SVG 1.1//EN"
 "http://www.w3.org/Graphics/SVG/1.1/DTD/svg11.dtd">
<!-- Generated by graphviz version 13.1.0 (20250701.0955)
 -->
<!-- Title: SDL_DllNotSupported Pages: 1 -->
<svg width="855pt" height="85pt"
 viewBox="0.00 0.00 855.00 85.00" xmlns="http://www.w3.org/2000/svg" xmlns:xlink="http://www.w3.org/1999/xlink">
<g id="graph0" class="graph" transform="scale(1 1) rotate(0) translate(4 81)">
<title>SDL_DllNotSupported</title>
<!-- Node1 -->
<g id="Node000001" class="node">
<title>Node1</title>
<g id="a_Node000001"><a xlink:title=" ">
<polygon fill="#999999" stroke="#666666" points="847.25,-39 734.5,-39 734.5,-19 847.25,-19 847.25,-39"/>
<text xml:space="preserve" text-anchor="middle" x="790.88" y="-25.5" font-family="Helvetica,sans-Serif" font-size="10.00">SDL_DllNotSupported</text>
</a>
</g>
</g>
<!-- Node2 -->
<g id="Node000002" class="node">
<title>Node2</title>
<g id="a_Node000002"><a xlink:href="../../d6/d3d/SDL__video_8c.html#a2836853a7134fb3b5667b18ccb637afe" target="_top" xlink:title=" ">
<polygon fill="white" stroke="#666666" points="690.25,-58 581.25,-58 581.25,-38 690.25,-38 690.25,-58"/>
<text xml:space="preserve" text-anchor="middle" x="635.75" y="-44.5" font-family="Helvetica,sans-Serif" font-size="10.00">SDL_GL_LoadLibrary</text>
</a>
</g>
</g>
<!-- Node1&#45;&gt;Node2 -->
<g id="edge1_Node000001_Node000002" class="edge">
<title>Node1&#45;&gt;Node2</title>
<g id="a_edge1_Node000001_Node000002"><a xlink:title=" ">
<path fill="none" stroke="#63b8ff" d="M723.01,-37.3C712.19,-38.64 701.1,-40.02 690.63,-41.31"/>
<polygon fill="#63b8ff" stroke="#63b8ff" points="723.17,-40.8 732.66,-36.1 722.3,-33.86 723.17,-40.8"/>
</a>
</g>
</g>
<!-- Node8 -->
<g id="Node000008" class="node">
<title>Node8</title>
<g id="a_Node000008"><a xlink:href="../../d6/d3d/SDL__video_8c.html#a51f08732f909cf8345b427cb9632fb9c" target="_top" xlink:title=" ">
<polygon fill="white" stroke="#666666" points="698.5,-20 573,-20 573,0 698.5,0 698.5,-20"/>
<text xml:space="preserve" text-anchor="middle" x="635.75" y="-6.5" font-family="Helvetica,sans-Serif" font-size="10.00">SDL_Vulkan_LoadLibrary</text>
</a>
</g>
</g>
<!-- Node1&#45;&gt;Node8 -->
<g id="edge7_Node000001_Node000008" class="edge">
<title>Node1&#45;&gt;Node8</title>
<g id="a_edge7_Node000001_Node000008"><a xlink:title=" ">
<path fill="none" stroke="#63b8ff" d="M722.98,-20.7C714.98,-19.71 706.83,-18.7 698.9,-17.71"/>
<polygon fill="#63b8ff" stroke="#63b8ff" points="722.3,-24.14 732.66,-21.9 723.17,-17.2 722.3,-24.14"/>
</a>
</g>
</g>
<!-- Node3 -->
<g id="Node000003" class="node">
<title>Node3</title>
<g id="a_Node000003"><a xlink:href="../../d6/d3d/SDL__video_8c.html#a9f3d88531134e2c3e575a3c2db7f8488" target="_top" xlink:title=" ">
<polygon fill="white" stroke="#666666" points="537,-58 367.25,-58 367.25,-38 537,-38 537,-58"/>
<text xml:space="preserve" text-anchor="middle" x="452.12" y="-44.5" font-family="Helvetica,sans-Serif" font-size="10.00">SDL_CreateWindowWithProperties</text>
</a>
</g>
</g>
<!-- Node2&#45;&gt;Node3 -->
<g id="edge2_Node000002_Node000003" class="edge">
<title>Node2&#45;&gt;Node3</title>
<g id="a_edge2_Node000002_Node000003"><a xlink:title=" ">
<path fill="none" stroke="#63b8ff" d="M569.97,-48C559.37,-48 548.25,-48 537.26,-48"/>
<polygon fill="#63b8ff" stroke="#63b8ff" points="569.73,-51.5 579.73,-48 569.73,-44.5 569.73,-51.5"/>
</a>
</g>
</g>
<!-- Node7 -->
<g id="Node000007" class="node">
<title>Node7</title>
<g id="a_Node000007"><a xlink:href="../../d6/d3d/SDL__video_8c.html#ac71558ab32ba69c961258e4cb6bcaa01" target="_top" xlink:title=" ">
<polygon fill="white" stroke="#666666" points="510,-20 394.25,-20 394.25,0 510,0 510,-20"/>
<text xml:space="preserve" text-anchor="middle" x="452.12" y="-6.5" font-family="Helvetica,sans-Serif" font-size="10.00">SDL_RecreateWindow</text>
</a>
</g>
</g>
<!-- Node2&#45;&gt;Node7 -->
<g id="edge6_Node000002_Node000007" class="edge">
<title>Node2&#45;&gt;Node7</title>
<g id="a_edge6_Node000002_Node000007"><a xlink:title=" ">
<path fill="none" stroke="#63b8ff" d="M573.63,-35.21C550.68,-30.41 524.89,-25.01 503.07,-20.45"/>
<polygon fill="#63b8ff" stroke="#63b8ff" points="572.65,-38.58 583.16,-37.21 574.09,-31.73 572.65,-38.58"/>
</a>
</g>
</g>
<!-- Node4 -->
<g id="Node000004" class="node">
<title>Node4</title>
<g id="a_Node000004"><a xlink:href="../../d6/d3d/SDL__video_8c.html#acc26de39ce1bd675446e4d6c05ebf4b0" target="_top" xlink:title=" ">
<polygon fill="white" stroke="#666666" points="331.25,-77 198.25,-77 198.25,-57 331.25,-57 331.25,-77"/>
<text xml:space="preserve" text-anchor="middle" x="264.75" y="-63.5" font-family="Helvetica,sans-Serif" font-size="10.00">SDL_CreatePopupWindow</text>
</a>
</g>
</g>
<!-- Node3&#45;&gt;Node4 -->
<g id="edge3_Node000003_Node000004" class="edge">
<title>Node3&#45;&gt;Node4</title>
<g id="a_edge3_Node000003_Node000004"><a xlink:title=" ">
<path fill="none" stroke="#63b8ff" d="M355.42,-57.81C347.33,-58.64 339.27,-59.46 331.5,-60.26"/>
<polygon fill="#63b8ff" stroke="#63b8ff" points="355.75,-61.29 365.34,-56.79 355.03,-54.33 355.75,-61.29"/>
</a>
</g>
</g>
<!-- Node5 -->
<g id="Node000005" class="node">
<title>Node5</title>
<g id="a_Node000005"><a xlink:href="../../d6/d3d/SDL__video_8c.html#a83103c86f9e5c33ab9e1fb6dfa904b7f" target="_top" xlink:title=" ">
<polygon fill="white" stroke="#666666" points="317.38,-39 212.12,-39 212.12,-19 317.38,-19 317.38,-39"/>
<text xml:space="preserve" text-anchor="middle" x="264.75" y="-25.5" font-family="Helvetica,sans-Serif" font-size="10.00">SDL_CreateWindow</text>
</a>
</g>
</g>
<!-- Node3&#45;&gt;Node5 -->
<g id="edge4_Node000003_Node000005" class="edge">
<title>Node3&#45;&gt;Node5</title>
<g id="a_edge4_Node000003_Node000005"><a xlink:title=" ">
<path fill="none" stroke="#63b8ff" d="M355.44,-38.19C342.45,-36.86 329.54,-35.54 317.73,-34.33"/>
<polygon fill="#63b8ff" stroke="#63b8ff" points="355.03,-41.67 365.34,-39.21 355.75,-34.71 355.03,-41.67"/>
</a>
</g>
</g>
<!-- Node6 -->
<g id="Node000006" class="node">
<title>Node6</title>
<g id="a_Node000006"><a xlink:href="../../dd/df3/SDL__render_8c.html#a36f859fae15e4277ba052f9ecfb2816d" target="_top" xlink:title=" ">
<polygon fill="white" stroke="#666666" points="162.25,-39 0,-39 0,-19 162.25,-19 162.25,-39"/>
<text xml:space="preserve" text-anchor="middle" x="81.12" y="-25.5" font-family="Helvetica,sans-Serif" font-size="10.00">SDL_CreateWindowAndRenderer</text>
</a>
</g>
</g>
<!-- Node5&#45;&gt;Node6 -->
<g id="edge5_Node000005_Node000006" class="edge">
<title>Node5&#45;&gt;Node6</title>
<g id="a_edge5_Node000005_Node000006"><a xlink:title=" ">
<path fill="none" stroke="#63b8ff" d="M200.3,-29C188.14,-29 175.26,-29 162.64,-29"/>
<polygon fill="#63b8ff" stroke="#63b8ff" points="200.19,-32.5 210.19,-29 200.19,-25.5 200.19,-32.5"/>
</a>
</g>
</g>
<!-- Node8&#45;&gt;Node3 -->
<g id="edge8_Node000008_Node000003" class="edge">
<title>Node8&#45;&gt;Node3</title>
<g id="a_edge8_Node000008_Node000003"><a xlink:title=" ">
<path fill="none" stroke="#63b8ff" d="M573.63,-22.79C550.68,-27.59 524.89,-32.99 503.07,-37.55"/>
<polygon fill="#63b8ff" stroke="#63b8ff" points="574.09,-26.27 583.16,-20.79 572.65,-19.42 574.09,-26.27"/>
</a>
</g>
</g>
<!-- Node8&#45;&gt;Node7 -->
<g id="edge9_Node000008_Node000007" class="edge">
<title>Node8&#45;&gt;Node7</title>
<g id="a_edge9_Node000008_Node000007"><a xlink:title=" ">
<path fill="none" stroke="#63b8ff" d="M561.66,-10C544.55,-10 526.56,-10 510.26,-10"/>
<polygon fill="#63b8ff" stroke="#63b8ff" points="561.24,-13.5 571.24,-10 561.24,-6.5 561.24,-13.5"/>
</a>
</g>
</g>
</g>
</svg>
