<?xml version="1.0" encoding="UTF-8" standalone="no"?>
<!DOCTYPE svg PUBLIC "-//W3C//DTD SVG 1.1//EN"
 "http://www.w3.org/Graphics/SVG/1.1/DTD/svg11.dtd">
<!-- Generated by graphviz version 13.1.0 (20250701.0955)
 -->
<!-- Title: SDL_MinimizeWindow Pages: 1 -->
<svg width="402pt" height="28pt"
 viewBox="0.00 0.00 402.00 28.00" xmlns="http://www.w3.org/2000/svg" xmlns:xlink="http://www.w3.org/1999/xlink">
<g id="graph0" class="graph" transform="scale(1 1) rotate(0) translate(4 24)">
<title>SDL_MinimizeWindow</title>
<!-- Node1 -->
<g id="Node000001" class="node">
<title>Node1</title>
<g id="a_Node000001"><a xlink:title=" ">
<polygon fill="#999999" stroke="#666666" points="115,-20 0,-20 0,0 115,0 115,-20"/>
<text xml:space="preserve" text-anchor="middle" x="57.5" y="-6.5" font-family="Helvetica,sans-Serif" font-size="10.00">SDL_MinimizeWindow</text>
</a>
</g>
</g>
<!-- Node2 -->
<g id="Node000002" class="node">
<title>Node2</title>
<g id="a_Node000002"><a xlink:href="../../d6/d3d/SDL__video_8c.html#a9502e75835ea8d15ed28063f0d071207" target="_top" xlink:title=" ">
<polygon fill="white" stroke="#666666" points="259.25,-20 151,-20 151,0 259.25,0 259.25,-20"/>
<text xml:space="preserve" text-anchor="middle" x="205.12" y="-6.5" font-family="Helvetica,sans-Serif" font-size="10.00">SDL_SyncIfRequired</text>
</a>
</g>
</g>
<!-- Node1&#45;&gt;Node2 -->
<g id="edge1_Node000001_Node000002" class="edge">
<title>Node1&#45;&gt;Node2</title>
<g id="a_edge1_Node000001_Node000002"><a xlink:title=" ">
<path fill="none" stroke="#63b8ff" d="M115.22,-10C123.14,-10 131.34,-10 139.4,-10"/>
<polygon fill="#63b8ff" stroke="#63b8ff" points="139.15,-13.5 149.15,-10 139.15,-6.5 139.15,-13.5"/>
</a>
</g>
</g>
<!-- Node3 -->
<g id="Node000003" class="node">
<title>Node3</title>
<g id="a_Node000003"><a xlink:href="../../d6/d3d/SDL__video_8c.html#a9841972a80aaa76befaedf533146a195" target="_top" xlink:title=" ">
<polygon fill="white" stroke="#666666" points="393.75,-20 295.25,-20 295.25,0 393.75,0 393.75,-20"/>
<text xml:space="preserve" text-anchor="middle" x="344.5" y="-6.5" font-family="Helvetica,sans-Serif" font-size="10.00">SDL_SyncWindow</text>
</a>
</g>
</g>
<!-- Node2&#45;&gt;Node3 -->
<g id="edge2_Node000002_Node000003" class="edge">
<title>Node2&#45;&gt;Node3</title>
<g id="a_edge2_Node000002_Node000003"><a xlink:title=" ">
<path fill="none" stroke="#63b8ff" d="M259.63,-10C267.43,-10 275.5,-10 283.41,-10"/>
<polygon fill="#63b8ff" stroke="#63b8ff" points="283.33,-13.5 293.33,-10 283.33,-6.5 283.33,-13.5"/>
</a>
</g>
</g>
</g>
</svg>
