<?xml version="1.0" encoding="UTF-8" standalone="no"?>
<!DOCTYPE svg PUBLIC "-//W3C//DTD SVG 1.1//EN"
 "http://www.w3.org/Graphics/SVG/1.1/DTD/svg11.dtd">
<!-- Generated by graphviz version 13.1.0 (20250701.0955)
 -->
<!-- Title: SDL_ShowSimpleMessageBox Pages: 1 -->
<!--zoomable 142 -->

<svg id="main" version="1.1" xmlns="http://www.w3.org/2000/svg" xmlns:xlink="http://www.w3.org/1999/xlink" xml:space="preserve" onload="init(evt)">

<style type="text/css"><![CDATA[
.node, .edge {opacity: 0.7;}
.node.selected, .edge.selected {opacity: 1;}
.edge:hover path { stroke: red; }
.edge:hover polygon { stroke: red; fill: red; }
]]></style>

<defs>
  <circle id="rim" cx="0" cy="0" r="7"/>
  <circle id="rim2" cx="0" cy="0" r="3.5"/>
  <g id="zoomPlus">
    <use xlink:href="#rim" fill="#404040"><set attributeName="fill" to="#808080" begin="zoomplus.mouseover" end="zoomplus.mouseout"/></use>
    <path d="M-4,0h8M0,-4v8" fill="none" stroke="white" stroke-width="1.5" pointer-events="none"/>
  </g>
  <g id="zoomMin">
    <use xlink:href="#rim" fill="#404040"><set attributeName="fill" to="#808080" begin="zoomminus.mouseover" end="zoomminus.mouseout"/></use>
    <path d="M-4,0h8" fill="none" stroke="white" stroke-width="1.5" pointer-events="none"/>
  </g>
  <g id="arrowUp" transform="translate(30 24)">
    <use xlink:href="#rim"/>
    <path pointer-events="none" fill="none" stroke="white" stroke-width="1.5" d="M0,-3.0v7 M-2.5,-0.5L0,-3.0L2.5,-0.5"/>
  </g>
  <g id="arrowRight" transform="rotate(90) translate(36 -43)">
    <use xlink:href="#rim"/>
    <path pointer-events="none" fill="none" stroke="white" stroke-width="1.5" d="M0,-3.0v7 M-2.5,-0.5L0,-3.0L2.5,-0.5"/>
  </g>
  <g id="arrowDown" transform="rotate(180) translate(-30 -48)">
    <use xlink:href="#rim"/>
    <path pointer-events="none" fill="none" stroke="white" stroke-width="1.5" d="M0,-3.0v7 M-2.5,-0.5L0,-3.0L2.5,-0.5"/>
  </g>
  <g id="arrowLeft" transform="rotate(270) translate(-36 17)">
    <use xlink:href="#rim"/>
    <path pointer-events="none" fill="none" stroke="white" stroke-width="1.5" d="M0,-3.0v7 M-2.5,-0.5L0,-3.0L2.5,-0.5"/>
  </g>
  <g id="resetDef">
    <use xlink:href="#rim2" fill="#404040"><set attributeName="fill" to="#808080" begin="reset.mouseover" end="reset.mouseout"/></use>
  </g>
</defs>
<script type="application/ecmascript">
var viewWidth = 1259;
var viewHeight = 142;
var sectionId = 'dynsection-281';
</script>
<script type="application/ecmascript" xlink:href="../../svg.min.js"/>
<svg id="graph" class="graph">
<g id="viewport">
<title>SDL_ShowSimpleMessageBox</title>
<!-- Node1 -->
<g id="Node000001" class="node">
<title>Node1</title>
<g id="a_Node000001"><a xlink:title=" ">
<polygon fill="#999999" stroke="#666666" points="1250.75,-96 1098.25,-96 1098.25,-76 1250.75,-76 1250.75,-96"/>
<text xml:space="preserve" text-anchor="middle" x="1174.5" y="-82.5" font-family="Helvetica,sans-Serif" font-size="10.00">SDL_ShowSimpleMessageBox</text>
</a>
</g>
</g>
<!-- Node2 -->
<g id="Node000002" class="node">
<title>Node2</title>
<g id="a_Node000002"><a xlink:href="../../d0/d25/SDL__sysmain__runapp_8cpp.html#a56ca6916e1e3a33d1fba53a70483179f" target="_top" xlink:title=" ">
<polygon fill="white" stroke="#666666" points="1044.25,-134 966.75,-134 966.75,-114 1044.25,-114 1044.25,-134"/>
<text xml:space="preserve" text-anchor="middle" x="1005.5" y="-120.5" font-family="Helvetica,sans-Serif" font-size="10.00">OutOfMemory</text>
</a>
</g>
</g>
<!-- Node1&#45;&gt;Node2 -->
<g id="edge1_Node000001_Node000002" class="edge">
<title>Node1&#45;&gt;Node2</title>
<g id="a_edge1_Node000001_Node000002"><a xlink:title=" ">
<path fill="none" stroke="#63b8ff" d="M1116.42,-98.99C1092.69,-104.39 1065.79,-110.51 1044.54,-115.34"/>
<polygon fill="#63b8ff" stroke="#63b8ff" points="1116.97,-102.45 1125.95,-96.82 1115.42,-95.63 1116.97,-102.45"/>
</a>
</g>
</g>
<!-- Node3 -->
<g id="Node000003" class="node">
<title>Node3</title>
<g id="a_Node000003"><a xlink:href="../../d0/d25/SDL__sysmain__runapp_8cpp.html#aa1d3da2fdcf7543ec8ae709656fc029e" target="_top" xlink:title=" ">
<polygon fill="white" stroke="#666666" points="869.25,-134 793.25,-134 793.25,-114 869.25,-114 869.25,-134"/>
<text xml:space="preserve" text-anchor="middle" x="831.25" y="-120.5" font-family="Helvetica,sans-Serif" font-size="10.00">SDL_RunApp</text>
</a>
</g>
</g>
<!-- Node1&#45;&gt;Node3 -->
<g id="edge16_Node000001_Node000003" class="edge">
<title>Node1&#45;&gt;Node3</title>
<g id="a_edge16_Node000001_Node000003"><a xlink:title=" ">
<path fill="none" stroke="#63b8ff" d="M1086.67,-91.77C1044.89,-94.94 994.14,-99.39 948.75,-105 922.21,-108.28 892.45,-113.15 869.66,-117.14"/>
<polygon fill="#63b8ff" stroke="#63b8ff" points="1086.7,-95.27 1096.41,-91.04 1086.18,-88.29 1086.7,-95.27"/>
</a>
</g>
</g>
<!-- Node4 -->
<g id="Node000004" class="node">
<title>Node4</title>
<g id="a_Node000004"><a xlink:href="../../d3/d6c/SDL__assert_8c.html#a3af85a0e9a1d38712ea2827dc42c96e3" target="_top" xlink:title=" ">
<polygon fill="white" stroke="#666666" points="1062.25,-58 948.75,-58 948.75,-38 1062.25,-38 1062.25,-58"/>
<text xml:space="preserve" text-anchor="middle" x="1005.5" y="-44.5" font-family="Helvetica,sans-Serif" font-size="10.00">SDL_PromptAssertion</text>
</a>
</g>
</g>
<!-- Node1&#45;&gt;Node4 -->
<g id="edge3_Node000001_Node000004" class="edge">
<title>Node1&#45;&gt;Node4</title>
<g id="a_edge3_Node000001_Node000004"><a xlink:title=" ">
<path fill="none" stroke="#63b8ff" d="M1116.44,-73.02C1095.56,-68.26 1072.21,-62.95 1052.43,-58.45"/>
<polygon fill="#63b8ff" stroke="#63b8ff" points="1115.42,-76.37 1125.95,-75.18 1116.97,-69.55 1115.42,-76.37"/>
</a>
</g>
</g>
<!-- Node2&#45;&gt;Node3 -->
<g id="edge2_Node000002_Node000003" class="edge">
<title>Node2&#45;&gt;Node3</title>
<g id="a_edge2_Node000002_Node000003"><a xlink:title=" ">
<path fill="none" stroke="#63b8ff" d="M955.01,-124C927.76,-124 894.51,-124 869.48,-124"/>
<polygon fill="#63b8ff" stroke="#63b8ff" points="954.76,-127.5 964.76,-124 954.76,-120.5 954.76,-127.5"/>
</a>
</g>
</g>
<!-- Node5 -->
<g id="Node000005" class="node">
<title>Node5</title>
<g id="a_Node000005"><a xlink:href="../../d3/d6c/SDL__assert_8c.html#ac9a17a64b90ccec712fee6826e899721" target="_top" xlink:title=" ">
<polygon fill="white" stroke="#666666" points="906.75,-96 755.75,-96 755.75,-76 906.75,-76 906.75,-96"/>
<text xml:space="preserve" text-anchor="middle" x="831.25" y="-82.5" font-family="Helvetica,sans-Serif" font-size="10.00">SDL_GenerateAssertionReport</text>
</a>
</g>
</g>
<!-- Node4&#45;&gt;Node5 -->
<g id="edge4_Node000004_Node000005" class="edge">
<title>Node4&#45;&gt;Node5</title>
<g id="a_edge4_Node000004_Node000005"><a xlink:title=" ">
<path fill="none" stroke="#63b8ff" d="M945.94,-60.92C924.33,-65.69 900.12,-71.03 879.62,-75.55"/>
<polygon fill="#63b8ff" stroke="#63b8ff" points="946.49,-64.38 955.5,-58.81 944.98,-57.55 946.49,-64.38"/>
</a>
</g>
</g>
<!-- Node14 -->
<g id="Node000014" class="node">
<title>Node14</title>
<g id="a_Node000014"><a xlink:href="../../d3/d6c/SDL__assert_8c.html#aa2e8e2dec8b48cbb4f333b9004ce719e" target="_top" xlink:title=" ">
<polygon fill="white" stroke="#666666" points="912.75,-58 749.75,-58 749.75,-38 912.75,-38 912.75,-58"/>
<text xml:space="preserve" text-anchor="middle" x="831.25" y="-44.5" font-family="Helvetica,sans-Serif" font-size="10.00">SDL_GetDefaultAssertionHandler</text>
</a>
</g>
</g>
<!-- Node4&#45;&gt;Node14 -->
<g id="edge14_Node000004_Node000014" class="edge">
<title>Node4&#45;&gt;Node14</title>
<g id="a_edge14_Node000004_Node000014"><a xlink:title=" ">
<path fill="none" stroke="#63b8ff" d="M937.23,-48C929.36,-48 921.26,-48 913.23,-48"/>
<polygon fill="#63b8ff" stroke="#63b8ff" points="937.06,-51.5 947.06,-48 937.06,-44.5 937.06,-51.5"/>
</a>
</g>
</g>
<!-- Node15 -->
<g id="Node000015" class="node">
<title>Node15</title>
<g id="a_Node000015"><a xlink:href="../../d3/d6c/SDL__assert_8c.html#a4f35537f919f74fb363ef1bf285fad37" target="_top" xlink:title=" ">
<polygon fill="white" stroke="#666666" points="896.62,-20 765.88,-20 765.88,0 896.62,0 896.62,-20"/>
<text xml:space="preserve" text-anchor="middle" x="831.25" y="-6.5" font-family="Helvetica,sans-Serif" font-size="10.00">SDL_SetAssertionHandler</text>
</a>
</g>
</g>
<!-- Node4&#45;&gt;Node15 -->
<g id="edge15_Node000004_Node000015" class="edge">
<title>Node4&#45;&gt;Node15</title>
<g id="a_edge15_Node000004_Node000015"><a xlink:title=" ">
<path fill="none" stroke="#63b8ff" d="M945.94,-35.08C924.33,-30.31 900.12,-24.97 879.62,-20.45"/>
<polygon fill="#63b8ff" stroke="#63b8ff" points="944.98,-38.45 955.5,-37.19 946.49,-31.62 944.98,-38.45"/>
</a>
</g>
</g>
<!-- Node6 -->
<g id="Node000006" class="node">
<title>Node6</title>
<g id="a_Node000006"><a xlink:href="../../d3/d6c/SDL__assert_8c.html#a7d820602db52458de241b45061682b93" target="_top" xlink:title=" ">
<polygon fill="white" stroke="#666666" points="713.75,-96 608.5,-96 608.5,-76 713.75,-76 713.75,-96"/>
<text xml:space="preserve" text-anchor="middle" x="661.12" y="-82.5" font-family="Helvetica,sans-Serif" font-size="10.00">SDL_AssertionsQuit</text>
</a>
</g>
</g>
<!-- Node5&#45;&gt;Node6 -->
<g id="edge5_Node000005_Node000006" class="edge">
<title>Node5&#45;&gt;Node6</title>
<g id="a_edge5_Node000005_Node000006"><a xlink:title=" ">
<path fill="none" stroke="#63b8ff" d="M744.3,-86C733.94,-86 723.62,-86 713.97,-86"/>
<polygon fill="#63b8ff" stroke="#63b8ff" points="744.02,-89.5 754.02,-86 744.02,-82.5 744.02,-89.5"/>
</a>
</g>
</g>
<!-- Node7 -->
<g id="Node000007" class="node">
<title>Node7</title>
<g id="a_Node000007"><a xlink:href="../../df/d78/SDL_8c.html#abf064fcc4a657a30db8eace18633f362" target="_top" xlink:title=" ">
<polygon fill="white" stroke="#666666" points="572.5,-96 513.75,-96 513.75,-76 572.5,-76 572.5,-96"/>
<text xml:space="preserve" text-anchor="middle" x="543.12" y="-82.5" font-family="Helvetica,sans-Serif" font-size="10.00">SDL_Quit</text>
</a>
</g>
</g>
<!-- Node6&#45;&gt;Node7 -->
<g id="edge6_Node000006_Node000007" class="edge">
<title>Node6&#45;&gt;Node7</title>
<g id="a_edge6_Node000006_Node000007"><a xlink:title=" ">
<path fill="none" stroke="#63b8ff" d="M596.77,-86C588.38,-86 580.15,-86 572.77,-86"/>
<polygon fill="#63b8ff" stroke="#63b8ff" points="596.72,-89.5 606.72,-86 596.72,-82.5 596.72,-89.5"/>
</a>
</g>
</g>
<!-- Node8 -->
<g id="Node000008" class="node">
<title>Node8</title>
<g id="a_Node000008"><a xlink:href="../../de/daf/classCSDLmain.html#a73bd9c42ac6916974009e508257e44ff" target="_top" xlink:title=" ">
<polygon fill="white" stroke="#666666" points="462.75,-134 369.5,-134 369.5,-114 462.75,-114 462.75,-134"/>
<text xml:space="preserve" text-anchor="middle" x="416.12" y="-120.5" font-family="Helvetica,sans-Serif" font-size="10.00">CSDLmain::RunL</text>
</a>
</g>
</g>
<!-- Node7&#45;&gt;Node8 -->
<g id="edge7_Node000007_Node000008" class="edge">
<title>Node7&#45;&gt;Node8</title>
<g id="a_edge7_Node000007_Node000008"><a xlink:title=" ">
<path fill="none" stroke="#63b8ff" d="M502.54,-98.03C486.13,-103.02 467.26,-108.76 451.45,-113.57"/>
<polygon fill="#63b8ff" stroke="#63b8ff" points="503.45,-101.42 512,-95.16 501.41,-94.72 503.45,-101.42"/>
</a>
</g>
</g>
<!-- Node9 -->
<g id="Node000009" class="node">
<title>Node9</title>
<g id="a_Node000009"><a xlink:href="../../d3/d6c/SDL__assert_8c.html#af146e7f66c4e41a24337c5b6943af0b0" target="_top" xlink:title=" ">
<polygon fill="white" stroke="#666666" points="468.75,-96 363.5,-96 363.5,-76 468.75,-76 468.75,-96"/>
<text xml:space="preserve" text-anchor="middle" x="416.12" y="-82.5" font-family="Helvetica,sans-Serif" font-size="10.00">SDL_AbortAssertion</text>
</a>
</g>
</g>
<!-- Node7&#45;&gt;Node9 -->
<g id="edge8_Node000007_Node000009" class="edge">
<title>Node7&#45;&gt;Node9</title>
<g id="a_edge8_Node000007_Node000009"><a xlink:title=" ">
<path fill="none" stroke="#63b8ff" d="M502.12,-86C491.66,-86 480.23,-86 469.24,-86"/>
<polygon fill="#63b8ff" stroke="#63b8ff" points="501.93,-89.5 511.93,-86 501.93,-82.5 501.93,-89.5"/>
</a>
</g>
</g>
<!-- Node11 -->
<g id="Node000011" class="node">
<title>Node11</title>
<g id="a_Node000011"><a xlink:href="../../d9/d78/SDL__main__callbacks_8c.html#a2e8bd250bb597fdf72c9da9d001181e7" target="_top" xlink:title=" ">
<polygon fill="white" stroke="#666666" points="477.75,-58 354.5,-58 354.5,-38 477.75,-38 477.75,-58"/>
<text xml:space="preserve" text-anchor="middle" x="416.12" y="-44.5" font-family="Helvetica,sans-Serif" font-size="10.00">SDL_QuitMainCallbacks</text>
</a>
</g>
</g>
<!-- Node7&#45;&gt;Node11 -->
<g id="edge10_Node000007_Node000011" class="edge">
<title>Node7&#45;&gt;Node11</title>
<g id="a_edge10_Node000007_Node000011"><a xlink:title=" ">
<path fill="none" stroke="#63b8ff" d="M502.54,-73.97C486.13,-68.98 467.26,-63.24 451.45,-58.43"/>
<polygon fill="#63b8ff" stroke="#63b8ff" points="501.41,-77.28 512,-76.84 503.45,-70.58 501.41,-77.28"/>
</a>
</g>
</g>
<!-- Node10 -->
<g id="Node000010" class="node">
<title>Node10</title>
<g id="a_Node000010"><a xlink:href="../../d3/d6c/SDL__assert_8c.html#a0c9a208493d6e9212cff2ab400242102" target="_top" xlink:title=" ">
<polygon fill="white" stroke="#666666" points="305.75,-96 194.5,-96 194.5,-76 305.75,-76 305.75,-96"/>
<text xml:space="preserve" text-anchor="middle" x="250.12" y="-82.5" font-family="Helvetica,sans-Serif" font-size="10.00">SDL_ReportAssertion</text>
</a>
</g>
</g>
<!-- Node9&#45;&gt;Node10 -->
<g id="edge9_Node000009_Node000010" class="edge">
<title>Node9&#45;&gt;Node10</title>
<g id="a_edge9_Node000009_Node000010"><a xlink:title=" ">
<path fill="none" stroke="#63b8ff" d="M351.89,-86C336.78,-86 320.78,-86 306.08,-86"/>
<polygon fill="#63b8ff" stroke="#63b8ff" points="351.72,-89.5 361.72,-86 351.72,-82.5 351.72,-89.5"/>
</a>
</g>
</g>
<!-- Node12 -->
<g id="Node000012" class="node">
<title>Node12</title>
<g id="a_Node000012"><a xlink:href="../../d0/d72/emscripten_2SDL__sysmain__callbacks_8c.html#ad2e127e4f44ae815197361e79da5bf88" target="_top" xlink:title=" ">
<polygon fill="white" stroke="#666666" points="318.5,-58 181.75,-58 181.75,-38 318.5,-38 318.5,-58"/>
<text xml:space="preserve" text-anchor="middle" x="250.12" y="-44.5" font-family="Helvetica,sans-Serif" font-size="10.00">EmscriptenInternalMainloop</text>
</a>
</g>
</g>
<!-- Node11&#45;&gt;Node12 -->
<g id="edge11_Node000011_Node000012" class="edge">
<title>Node11&#45;&gt;Node12</title>
<g id="a_edge11_Node000011_Node000012"><a xlink:title=" ">
<path fill="none" stroke="#63b8ff" d="M342.61,-48C334.71,-48 326.69,-48 318.86,-48"/>
<polygon fill="#63b8ff" stroke="#63b8ff" points="342.54,-51.5 352.54,-48 342.54,-44.5 342.54,-51.5"/>
</a>
</g>
</g>
<!-- Node13 -->
<g id="Node000013" class="node">
<title>Node13</title>
<g id="a_Node000013"><a xlink:href="../../dd/db5/generic_2SDL__sysmain__callbacks_8c.html#aa50e1897a91f2547b5f31125020220e2" target="_top" xlink:title=" ">
<polygon fill="white" stroke="#666666" points="145.75,-39 0,-39 0,-19 145.75,-19 145.75,-39"/>
<text xml:space="preserve" text-anchor="middle" x="72.88" y="-25.5" font-family="Helvetica,sans-Serif" font-size="10.00">SDL_EnterAppMainCallbacks</text>
</a>
</g>
</g>
<!-- Node11&#45;&gt;Node13 -->
<g id="edge13_Node000011_Node000013" class="edge">
<title>Node11&#45;&gt;Node13</title>
<g id="a_edge13_Node000011_Node000013"><a xlink:title=" ">
<path fill="none" stroke="#63b8ff" d="M360.45,-35.33C346.82,-32.71 332.19,-30.33 318.5,-29 260.7,-23.37 194.84,-23.76 146.04,-25.34"/>
<polygon fill="#63b8ff" stroke="#63b8ff" points="359.64,-38.74 370.14,-37.28 361.02,-31.88 359.64,-38.74"/>
</a>
</g>
</g>
<!-- Node12&#45;&gt;Node13 -->
<g id="edge12_Node000012_Node000013" class="edge">
<title>Node12&#45;&gt;Node13</title>
<g id="a_edge12_Node000012_Node000013"><a xlink:title=" ">
<path fill="none" stroke="#63b8ff" d="M170.14,-39.44C162.13,-38.57 154.03,-37.69 146.1,-36.83"/>
<polygon fill="#63b8ff" stroke="#63b8ff" points="169.55,-42.89 179.86,-40.49 170.3,-35.93 169.55,-42.89"/>
</a>
</g>
</g>
</g>
</svg>

<g id="navigator" transform="translate(0 0)" fill="#404254">
  <rect fill="#f2f5e9" fill-opacity="0.5" stroke="#606060" stroke-width=".5" x="0" y="0" width="60" height="60"/>
  <use id="zoomplus" xlink:href="#zoomPlus" x="17" y="9" onmousedown="handleZoom(evt,'in')"/>
  <use id="zoomminus" xlink:href="#zoomMin" x="42" y="9" onmousedown="handleZoom(evt,'out')"/>
  <use id="reset" xlink:href="#resetDef" x="30" y="36" onmousedown="handleReset()"/>
   <use id="arrowup" xlink:href="#arrowUp" x="0" y="0" onmousedown="handlePan(0,-1)"/>
  <use id="arrowright" xlink:href="#arrowRight" x="0" y="0" onmousedown="handlePan(1,0)"/>
  <use id="arrowdown" xlink:href="#arrowDown" x="0" y="0" onmousedown="handlePan(0,1)"/>
  <use id="arrowleft" xlink:href="#arrowLeft" x="0" y="0" onmousedown="handlePan(-1,0)"/>
</g>
<svg viewBox="0 0 15 15" width="100%" height="30px" preserveAspectRatio="xMaxYMin meet">
 <g id="arrow_out" transform="scale(0.3 0.3)">
  <a xlink:href="SDL__video_8c_a4057c6b63808daafec9f7a39c6a20b6d_icgraph_org.svg" target="_base">
   <rect id="button" ry="5" rx="5" y="6" x="6" height="38" width="38"
        fill="#f2f5e9" fill-opacity="0.5" stroke="#606060" stroke-width="1.0"/>
   <path id="arrow"
     d="M 11.500037,31.436501 C 11.940474,20.09759 22.043105,11.32322 32.158766,21.979434 L 37.068811,17.246167 C 37.068811,17.246167 37.088388,32 37.088388,32 L 22.160133,31.978069 C 22.160133,31.978069 26.997745,27.140456 26.997745,27.140456 C 18.528582,18.264221 13.291696,25.230495 11.500037,31.436501 z"
     style="fill:#404040;"/>
  </a>
 </g>
</svg>

<style type='text/css'>
<![CDATA[
[data-mouse-over-selected='false'] { opacity: 0.7; }
[data-mouse-over-selected='true']  { opacity: 1.0; }
]]>
</style>
<script type="application/ecmascript"><![CDATA[
document.addEventListener('DOMContentLoaded', (event) => {
  highlightEdges();
  highlightAdjacentNodes();
});
]]></script>
</svg>
