<?xml version="1.0" encoding="UTF-8" standalone="no"?>
<!DOCTYPE svg PUBLIC "-//W3C//DTD SVG 1.1//EN"
 "http://www.w3.org/Graphics/SVG/1.1/DTD/svg11.dtd">
<!-- Generated by graphviz version 13.1.0 (20250701.0955)
 -->
<!-- Title: SDL_SetWindowSize Pages: 1 -->
<!--zoomable 85 -->

<svg id="main" version="1.1" xmlns="http://www.w3.org/2000/svg" xmlns:xlink="http://www.w3.org/1999/xlink" xml:space="preserve" onload="init(evt)">

<style type="text/css"><![CDATA[
.node, .edge {opacity: 0.7;}
.node.selected, .edge.selected {opacity: 1;}
.edge:hover path { stroke: red; }
.edge:hover polygon { stroke: red; fill: red; }
]]></style>

<defs>
  <circle id="rim" cx="0" cy="0" r="7"/>
  <circle id="rim2" cx="0" cy="0" r="3.5"/>
  <g id="zoomPlus">
    <use xlink:href="#rim" fill="#404040"><set attributeName="fill" to="#808080" begin="zoomplus.mouseover" end="zoomplus.mouseout"/></use>
    <path d="M-4,0h8M0,-4v8" fill="none" stroke="white" stroke-width="1.5" pointer-events="none"/>
  </g>
  <g id="zoomMin">
    <use xlink:href="#rim" fill="#404040"><set attributeName="fill" to="#808080" begin="zoomminus.mouseover" end="zoomminus.mouseout"/></use>
    <path d="M-4,0h8" fill="none" stroke="white" stroke-width="1.5" pointer-events="none"/>
  </g>
  <g id="arrowUp" transform="translate(30 24)">
    <use xlink:href="#rim"/>
    <path pointer-events="none" fill="none" stroke="white" stroke-width="1.5" d="M0,-3.0v7 M-2.5,-0.5L0,-3.0L2.5,-0.5"/>
  </g>
  <g id="arrowRight" transform="rotate(90) translate(36 -43)">
    <use xlink:href="#rim"/>
    <path pointer-events="none" fill="none" stroke="white" stroke-width="1.5" d="M0,-3.0v7 M-2.5,-0.5L0,-3.0L2.5,-0.5"/>
  </g>
  <g id="arrowDown" transform="rotate(180) translate(-30 -48)">
    <use xlink:href="#rim"/>
    <path pointer-events="none" fill="none" stroke="white" stroke-width="1.5" d="M0,-3.0v7 M-2.5,-0.5L0,-3.0L2.5,-0.5"/>
  </g>
  <g id="arrowLeft" transform="rotate(270) translate(-36 17)">
    <use xlink:href="#rim"/>
    <path pointer-events="none" fill="none" stroke="white" stroke-width="1.5" d="M0,-3.0v7 M-2.5,-0.5L0,-3.0L2.5,-0.5"/>
  </g>
  <g id="resetDef">
    <use xlink:href="#rim2" fill="#404040"><set attributeName="fill" to="#808080" begin="reset.mouseover" end="reset.mouseout"/></use>
  </g>
</defs>
<script type="application/ecmascript">
var viewWidth = 711;
var viewHeight = 85;
var sectionId = 'dynsection-269';
</script>
<script type="application/ecmascript" xlink:href="../../svg.min.js"/>
<svg id="graph" class="graph">
<g id="viewport">
<title>SDL_SetWindowSize</title>
<!-- Node1 -->
<g id="Node000001" class="node">
<title>Node1</title>
<g id="a_Node000001"><a xlink:title=" ">
<polygon fill="#999999" stroke="#666666" points="110.5,-39 0,-39 0,-19 110.5,-19 110.5,-39"/>
<text xml:space="preserve" text-anchor="middle" x="55.25" y="-25.5" font-family="Helvetica,sans-Serif" font-size="10.00">SDL_SetWindowSize</text>
</a>
</g>
</g>
<!-- Node2 -->
<g id="Node000002" class="node">
<title>Node2</title>
<g id="a_Node000002"><a xlink:href="../../d3/d02/SDL__stdlib_8c.html#a1254f3a8fee9c352daa9bcffedd1abfc" target="_top" xlink:title=" ">
<polygon fill="white" stroke="#666666" points="234.5,-58 166.75,-58 166.75,-38 234.5,-38 234.5,-58"/>
<text xml:space="preserve" text-anchor="middle" x="200.62" y="-44.5" font-family="Helvetica,sans-Serif" font-size="10.00">SDL_roundf</text>
</a>
</g>
</g>
<!-- Node1&#45;&gt;Node2 -->
<g id="edge1_Node000001_Node000002" class="edge">
<title>Node1&#45;&gt;Node2</title>
<g id="a_edge1_Node000001_Node000002"><a xlink:title=" ">
<path fill="none" stroke="#63b8ff" d="M110.86,-36.24C125.45,-38.17 141.05,-40.24 155.03,-42.09"/>
<polygon fill="#63b8ff" stroke="#63b8ff" points="154.46,-45.55 164.83,-43.39 155.38,-38.61 154.46,-45.55"/>
</a>
</g>
</g>
<!-- Node7 -->
<g id="Node000007" class="node">
<title>Node7</title>
<g id="a_Node000007"><a xlink:href="../../d6/d3d/SDL__video_8c.html#a9502e75835ea8d15ed28063f0d071207" target="_top" xlink:title=" ">
<polygon fill="white" stroke="#666666" points="254.75,-20 146.5,-20 146.5,0 254.75,0 254.75,-20"/>
<text xml:space="preserve" text-anchor="middle" x="200.62" y="-6.5" font-family="Helvetica,sans-Serif" font-size="10.00">SDL_SyncIfRequired</text>
</a>
</g>
</g>
<!-- Node1&#45;&gt;Node7 -->
<g id="edge7_Node000001_Node000007" class="edge">
<title>Node1&#45;&gt;Node7</title>
<g id="a_edge7_Node000001_Node000007"><a xlink:title=" ">
<path fill="none" stroke="#63b8ff" d="M110.86,-21.76C118.72,-20.72 126.86,-19.64 134.89,-18.58"/>
<polygon fill="#63b8ff" stroke="#63b8ff" points="135.16,-22.07 144.61,-17.29 134.24,-15.13 135.16,-22.07"/>
</a>
</g>
</g>
<!-- Node3 -->
<g id="Node000003" class="node">
<title>Node3</title>
<g id="a_Node000003"><a xlink:href="../../d3/d02/SDL__stdlib_8c.html#a6aa2d7674e36a88baf05ed1fae599bdb" target="_top" xlink:title=" ">
<polygon fill="white" stroke="#666666" points="372.38,-58 307.62,-58 307.62,-38 372.38,-38 372.38,-58"/>
<text xml:space="preserve" text-anchor="middle" x="340" y="-44.5" font-family="Helvetica,sans-Serif" font-size="10.00">SDL_round</text>
</a>
</g>
</g>
<!-- Node2&#45;&gt;Node3 -->
<g id="edge2_Node000002_Node000003" class="edge">
<title>Node2&#45;&gt;Node3</title>
<g id="a_edge2_Node000002_Node000003"><a xlink:title=" ">
<path fill="none" stroke="#63b8ff" d="M234.88,-48C253.25,-48 276.27,-48 295.99,-48"/>
<polygon fill="#63b8ff" stroke="#63b8ff" points="295.95,-51.5 305.95,-48 295.95,-44.5 295.95,-51.5"/>
</a>
</g>
</g>
<!-- Node4 -->
<g id="Node000004" class="node">
<title>Node4</title>
<g id="a_Node000004"><a xlink:href="../../d3/d02/SDL__stdlib_8c.html#a697b0197d0b0798c81ee242f114aace8" target="_top" xlink:title=" ">
<polygon fill="white" stroke="#666666" points="481,-77 425.25,-77 425.25,-57 481,-57 481,-77"/>
<text xml:space="preserve" text-anchor="middle" x="453.12" y="-63.5" font-family="Helvetica,sans-Serif" font-size="10.00">SDL_ceil</text>
</a>
</g>
</g>
<!-- Node3&#45;&gt;Node4 -->
<g id="edge3_Node000003_Node000004" class="edge">
<title>Node3&#45;&gt;Node4</title>
<g id="a_edge3_Node000003_Node000004"><a xlink:title=" ">
<path fill="none" stroke="#63b8ff" d="M372.84,-53.44C385.54,-55.62 400.28,-58.13 413.57,-60.41"/>
<polygon fill="#63b8ff" stroke="#63b8ff" points="412.86,-63.84 423.31,-62.07 414.04,-56.94 412.86,-63.84"/>
</a>
</g>
</g>
<!-- Node5 -->
<g id="Node000005" class="node">
<title>Node5</title>
<g id="a_Node000005"><a xlink:href="../../d3/d02/SDL__stdlib_8c.html#a8c898f41276f7bc9cbd3e89c726c2d0a" target="_top" xlink:title=" ">
<polygon fill="white" stroke="#666666" points="576.5,-58 517,-58 517,-38 576.5,-38 576.5,-58"/>
<text xml:space="preserve" text-anchor="middle" x="546.75" y="-44.5" font-family="Helvetica,sans-Serif" font-size="10.00">SDL_floor</text>
</a>
</g>
</g>
<!-- Node3&#45;&gt;Node5 -->
<g id="edge6_Node000003_Node000005" class="edge">
<title>Node3&#45;&gt;Node5</title>
<g id="a_edge6_Node000003_Node000005"><a xlink:title=" ">
<path fill="none" stroke="#63b8ff" d="M372.54,-48C408.23,-48 466.43,-48 505.39,-48"/>
<polygon fill="#63b8ff" stroke="#63b8ff" points="505.31,-51.5 515.31,-48 505.31,-44.5 505.31,-51.5"/>
</a>
</g>
</g>
<!-- Node4&#45;&gt;Node5 -->
<g id="edge4_Node000004_Node000005" class="edge">
<title>Node4&#45;&gt;Node5</title>
<g id="a_edge4_Node000004_Node000005"><a xlink:title=" ">
<path fill="none" stroke="#63b8ff" d="M481.12,-61.4C488.81,-59.81 497.36,-58.03 505.66,-56.31"/>
<polygon fill="#63b8ff" stroke="#63b8ff" points="506.15,-59.79 515.23,-54.33 504.73,-52.93 506.15,-59.79"/>
</a>
</g>
</g>
<!-- Node6 -->
<g id="Node000006" class="node">
<title>Node6</title>
<g id="a_Node000006"><a xlink:href="../../d3/dcc/s__floor_8c.html#a70f5eb094fdaee73475597eee76f67f1" target="_top" xlink:title=" ">
<polygon fill="white" stroke="#666666" points="702.75,-58 612.5,-58 612.5,-38 702.75,-38 702.75,-58"/>
<text xml:space="preserve" text-anchor="middle" x="657.62" y="-44.5" font-family="Helvetica,sans-Serif" font-size="10.00">SDL_uclibc_floor</text>
</a>
</g>
</g>
<!-- Node5&#45;&gt;Node6 -->
<g id="edge5_Node000005_Node000006" class="edge">
<title>Node5&#45;&gt;Node6</title>
<g id="a_edge5_Node000005_Node000006"><a xlink:title=" ">
<path fill="none" stroke="#63b8ff" d="M576.93,-48C584.37,-48 592.63,-48 600.93,-48"/>
<polygon fill="#63b8ff" stroke="#63b8ff" points="600.69,-51.5 610.69,-48 600.69,-44.5 600.69,-51.5"/>
</a>
</g>
</g>
<!-- Node8 -->
<g id="Node000008" class="node">
<title>Node8</title>
<g id="a_Node000008"><a xlink:href="../../d6/d3d/SDL__video_8c.html#a9841972a80aaa76befaedf533146a195" target="_top" xlink:title=" ">
<polygon fill="white" stroke="#666666" points="389.25,-20 290.75,-20 290.75,0 389.25,0 389.25,-20"/>
<text xml:space="preserve" text-anchor="middle" x="340" y="-6.5" font-family="Helvetica,sans-Serif" font-size="10.00">SDL_SyncWindow</text>
</a>
</g>
</g>
<!-- Node7&#45;&gt;Node8 -->
<g id="edge8_Node000007_Node000008" class="edge">
<title>Node7&#45;&gt;Node8</title>
<g id="a_edge8_Node000007_Node000008"><a xlink:title=" ">
<path fill="none" stroke="#63b8ff" d="M255.13,-10C262.93,-10 271,-10 278.91,-10"/>
<polygon fill="#63b8ff" stroke="#63b8ff" points="278.83,-13.5 288.83,-10 278.83,-6.5 278.83,-13.5"/>
</a>
</g>
</g>
</g>
</svg>

<g id="navigator" transform="translate(0 0)" fill="#404254">
  <rect fill="#f2f5e9" fill-opacity="0.5" stroke="#606060" stroke-width=".5" x="0" y="0" width="60" height="60"/>
  <use id="zoomplus" xlink:href="#zoomPlus" x="17" y="9" onmousedown="handleZoom(evt,'in')"/>
  <use id="zoomminus" xlink:href="#zoomMin" x="42" y="9" onmousedown="handleZoom(evt,'out')"/>
  <use id="reset" xlink:href="#resetDef" x="30" y="36" onmousedown="handleReset()"/>
   <use id="arrowup" xlink:href="#arrowUp" x="0" y="0" onmousedown="handlePan(0,-1)"/>
  <use id="arrowright" xlink:href="#arrowRight" x="0" y="0" onmousedown="handlePan(1,0)"/>
  <use id="arrowdown" xlink:href="#arrowDown" x="0" y="0" onmousedown="handlePan(0,1)"/>
  <use id="arrowleft" xlink:href="#arrowLeft" x="0" y="0" onmousedown="handlePan(-1,0)"/>
</g>
<svg viewBox="0 0 15 15" width="100%" height="30px" preserveAspectRatio="xMaxYMin meet">
 <g id="arrow_out" transform="scale(0.3 0.3)">
  <a xlink:href="SDL__video_8c_a02013636ca539196866cf2ae6e991889_cgraph_org.svg" target="_base">
   <rect id="button" ry="5" rx="5" y="6" x="6" height="38" width="38"
        fill="#f2f5e9" fill-opacity="0.5" stroke="#606060" stroke-width="1.0"/>
   <path id="arrow"
     d="M 11.500037,31.436501 C 11.940474,20.09759 22.043105,11.32322 32.158766,21.979434 L 37.068811,17.246167 C 37.068811,17.246167 37.088388,32 37.088388,32 L 22.160133,31.978069 C 22.160133,31.978069 26.997745,27.140456 26.997745,27.140456 C 18.528582,18.264221 13.291696,25.230495 11.500037,31.436501 z"
     style="fill:#404040;"/>
  </a>
 </g>
</svg>

<style type='text/css'>
<![CDATA[
[data-mouse-over-selected='false'] { opacity: 0.7; }
[data-mouse-over-selected='true']  { opacity: 1.0; }
]]>
</style>
<script type="application/ecmascript"><![CDATA[
document.addEventListener('DOMContentLoaded', (event) => {
  highlightEdges();
  highlightAdjacentNodes();
});
]]></script>
</svg>
