<?xml version="1.0" encoding="UTF-8" standalone="no"?>
<!DOCTYPE svg PUBLIC "-//W3C//DTD SVG 1.1//EN"
 "http://www.w3.org/Graphics/SVG/1.1/DTD/svg11.dtd">
<!-- Generated by graphviz version 13.1.0 (20250701.0955)
 -->
<!-- Title: hidapi_thread_mutex_lock Pages: 1 -->
<svg width="425pt" height="123pt"
 viewBox="0.00 0.00 425.00 123.00" xmlns="http://www.w3.org/2000/svg" xmlns:xlink="http://www.w3.org/1999/xlink">

<svg id="main" version="1.1" xmlns="http://www.w3.org/2000/svg" xmlns:xlink="http://www.w3.org/1999/xlink" xml:space="preserve">

<style type="text/css"><![CDATA[
.node, .edge {opacity: 0.7;}
.node.selected, .edge.selected {opacity: 1;}
.edge:hover path { stroke: red; }
.edge:hover polygon { stroke: red; fill: red; }
]]></style>
<script type="application/ecmascript" xlink:href="../../svg.min.js"/>
<svg id="graph" class="graph">
<g id="graph0" class="graph" transform="scale(1 1) rotate(0) translate(4 119)">
<title>hidapi_thread_mutex_lock</title>
<!-- Node1 -->
<g id="Node000001" class="node">
<title>Node1</title>
<g id="a_Node000001"><a xlink:title=" ">
<polygon fill="#999999" stroke="#666666" points="417,-58 287.75,-58 287.75,-38 417,-38 417,-58"/>
<text xml:space="preserve" text-anchor="middle" x="352.38" y="-44.5" font-family="Helvetica,sans-Serif" font-size="10.00">hidapi_thread_mutex_lock</text>
</a>
</g>
</g>
<!-- Node2 -->
<g id="Node000002" class="node">
<title>Node2</title>
<g id="a_Node000002"><a xlink:href="../../d6/dcf/libusb_2hid_8c.html#a9593b490d488dcb8017ceabebccc77bf" target="_top" xlink:title=" ">
<polygon fill="white" stroke="#666666" points="235.25,-115 119.5,-115 119.5,-95 235.25,-95 235.25,-115"/>
<text xml:space="preserve" text-anchor="middle" x="177.38" y="-101.5" font-family="Helvetica,sans-Serif" font-size="10.00">PLATFORM_hid_close</text>
</a>
</g>
</g>
<!-- Node1&#45;&gt;Node2 -->
<g id="edge1_Node000001_Node000002" class="edge">
<title>Node1&#45;&gt;Node2</title>
<g id="a_edge1_Node000001_Node000002"><a xlink:title=" ">
<path fill="none" stroke="#63b8ff" d="M315.77,-62.68C296.92,-70.18 273.27,-79.13 251.75,-86 242.22,-89.04 231.89,-91.95 222.06,-94.54"/>
<polygon fill="#63b8ff" stroke="#63b8ff" points="316.88,-66.01 324.86,-59.03 314.27,-59.51 316.88,-66.01"/>
</a>
</g>
</g>
<!-- Node3 -->
<g id="Node000003" class="node">
<title>Node3</title>
<g id="a_Node000003"><a xlink:href="../../d6/dcf/libusb_2hid_8c.html#a2a73a1b3bac9b258d879868e8e71abfa" target="_top" xlink:title=" ">
<polygon fill="white" stroke="#666666" points="251.75,-77 103,-77 103,-57 251.75,-57 251.75,-77"/>
<text xml:space="preserve" text-anchor="middle" x="177.38" y="-63.5" font-family="Helvetica,sans-Serif" font-size="10.00">PLATFORM_hid_read_timeout</text>
</a>
</g>
</g>
<!-- Node1&#45;&gt;Node3 -->
<g id="edge2_Node000001_Node000003" class="edge">
<title>Node1&#45;&gt;Node3</title>
<g id="a_edge2_Node000001_Node000003"><a xlink:title=" ">
<path fill="none" stroke="#63b8ff" d="M276.2,-56.26C268.16,-57.14 259.99,-58.04 251.97,-58.92"/>
<polygon fill="#63b8ff" stroke="#63b8ff" points="276.39,-59.76 285.94,-55.19 275.62,-52.8 276.39,-59.76"/>
</a>
</g>
</g>
<!-- Node4 -->
<g id="Node000004" class="node">
<title>Node4</title>
<g id="a_Node000004"><a xlink:href="../../d6/dcf/libusb_2hid_8c.html#aa2e50f50e42895534d389328c4c57d9c" target="_top" xlink:title=" ">
<polygon fill="white" stroke="#666666" points="215.38,-39 139.38,-39 139.38,-19 215.38,-19 215.38,-39"/>
<text xml:space="preserve" text-anchor="middle" x="177.38" y="-25.5" font-family="Helvetica,sans-Serif" font-size="10.00">read_callback</text>
</a>
</g>
</g>
<!-- Node1&#45;&gt;Node4 -->
<g id="edge3_Node000001_Node000004" class="edge">
<title>Node1&#45;&gt;Node4</title>
<g id="a_edge3_Node000001_Node000004"><a xlink:title=" ">
<path fill="none" stroke="#63b8ff" d="M276.26,-39.75C255.29,-37.45 233.41,-35.04 215.67,-33.1"/>
<polygon fill="#63b8ff" stroke="#63b8ff" points="275.62,-43.2 285.94,-40.81 276.39,-36.24 275.62,-43.2"/>
</a>
</g>
</g>
<!-- Node5 -->
<g id="Node000005" class="node">
<title>Node5</title>
<g id="a_Node000005"><a xlink:href="../../d6/dcf/libusb_2hid_8c.html#a6017e697733bf1fba149c4302a72e218" target="_top" xlink:title=" ">
<polygon fill="white" stroke="#666666" points="67,-20 0,-20 0,0 67,0 67,-20"/>
<text xml:space="preserve" text-anchor="middle" x="33.5" y="-6.5" font-family="Helvetica,sans-Serif" font-size="10.00">read_thread</text>
</a>
</g>
</g>
<!-- Node1&#45;&gt;Node5 -->
<g id="edge5_Node000001_Node000005" class="edge">
<title>Node1&#45;&gt;Node5</title>
<g id="a_edge5_Node000001_Node000005"><a xlink:title=" ">
<path fill="none" stroke="#63b8ff" d="M320.38,-32.81C301.13,-24.24 275.6,-14.39 251.75,-10 187.21,1.89 110.04,-2.38 67.22,-6.34"/>
<polygon fill="#63b8ff" stroke="#63b8ff" points="318.72,-35.91 329.27,-36.9 321.65,-29.54 318.72,-35.91"/>
</a>
</g>
</g>
<!-- Node4&#45;&gt;Node5 -->
<g id="edge4_Node000004_Node000005" class="edge">
<title>Node4&#45;&gt;Node5</title>
<g id="a_edge4_Node000004_Node000005"><a xlink:title=" ">
<path fill="none" stroke="#63b8ff" d="M127.7,-22.48C107.72,-19.81 85.12,-16.78 67.18,-14.38"/>
<polygon fill="#63b8ff" stroke="#63b8ff" points="127.22,-25.95 137.6,-23.81 128.15,-19.01 127.22,-25.95"/>
</a>
</g>
</g>
</g>
</svg>
</svg>

<style type='text/css'>
<![CDATA[
[data-mouse-over-selected='false'] { opacity: 0.7; }
[data-mouse-over-selected='true']  { opacity: 1.0; }
]]>
</style>
<script type="application/ecmascript"><![CDATA[
document.addEventListener('DOMContentLoaded', (event) => {
  highlightEdges();
  highlightAdjacentNodes();
});
]]></script>
</svg>
