<?xml version="1.0" encoding="UTF-8" standalone="no"?>
<!DOCTYPE svg PUBLIC "-//W3C//DTD SVG 1.1//EN"
 "http://www.w3.org/Graphics/SVG/1.1/DTD/svg11.dtd">
<!-- Generated by graphviz version 13.1.0 (20250701.0955)
 -->
<!-- Title: hidapi_thread_mutex_unlock Pages: 1 -->
<svg width="451pt" height="164pt"
 viewBox="0.00 0.00 451.00 164.00" xmlns="http://www.w3.org/2000/svg" xmlns:xlink="http://www.w3.org/1999/xlink">
<g id="graph0" class="graph" transform="scale(1 1) rotate(0) translate(4 159.7)">
<title>hidapi_thread_mutex_unlock</title>
<!-- Node1 -->
<g id="Node000001" class="node">
<title>Node1</title>
<g id="a_Node000001"><a xlink:title=" ">
<polygon fill="#999999" stroke="#666666" points="442.5,-85.7 336.5,-85.7 336.5,-53.7 442.5,-53.7 442.5,-85.7"/>
<text xml:space="preserve" text-anchor="start" x="344.5" y="-72.2" font-family="Helvetica,sans-Serif" font-size="10.00">hidapi_thread_mutex</text>
<text xml:space="preserve" text-anchor="middle" x="389.5" y="-60.2" font-family="Helvetica,sans-Serif" font-size="10.00">_unlock</text>
</a>
</g>
</g>
<!-- Node2 -->
<g id="Node000002" class="node">
<title>Node2</title>
<g id="a_Node000002"><a xlink:href="../../d6/dcf/libusb_2hid_8c.html#aa79ddd1d3b6785f93702e47c1b68e3dd" target="_top" xlink:title=" ">
<polygon fill="white" stroke="#666666" points="283.62,-155.7 201.62,-155.7 201.62,-135.7 283.62,-135.7 283.62,-155.7"/>
<text xml:space="preserve" text-anchor="middle" x="242.62" y="-142.2" font-family="Helvetica,sans-Serif" font-size="10.00">cleanup_mutex</text>
</a>
</g>
</g>
<!-- Node1&#45;&gt;Node2 -->
<g id="edge1_Node000001_Node000002" class="edge">
<title>Node1&#45;&gt;Node2</title>
<g id="a_edge1_Node000001_Node000002"><a xlink:title=" ">
<path fill="none" stroke="#63b8ff" d="M353.41,-91.9C337.53,-101.56 318.35,-112.71 300.5,-121.7 290.83,-126.56 279.94,-131.33 270.29,-135.31"/>
<polygon fill="#63b8ff" stroke="#63b8ff" points="354.85,-95.12 361.54,-86.9 351.19,-89.16 354.85,-95.12"/>
</a>
</g>
</g>
<!-- Node3 -->
<g id="Node000003" class="node">
<title>Node3</title>
<g id="a_Node000003"><a xlink:href="../../d6/dcf/libusb_2hid_8c.html#a2a73a1b3bac9b258d879868e8e71abfa" target="_top" xlink:title=" ">
<polygon fill="white" stroke="#666666" points="148.75,-136.7 0,-136.7 0,-116.7 148.75,-116.7 148.75,-136.7"/>
<text xml:space="preserve" text-anchor="middle" x="74.38" y="-123.2" font-family="Helvetica,sans-Serif" font-size="10.00">PLATFORM_hid_read_timeout</text>
</a>
</g>
</g>
<!-- Node1&#45;&gt;Node3 -->
<g id="edge4_Node000001_Node000003" class="edge">
<title>Node1&#45;&gt;Node3</title>
<g id="a_edge4_Node000001_Node000003"><a xlink:title=" ">
<path fill="none" stroke="#63b8ff" d="M325.24,-83.71C316.93,-85.45 308.52,-87.15 300.5,-88.7 247.37,-98.91 186.89,-109.04 142.01,-116.26"/>
<polygon fill="#63b8ff" stroke="#63b8ff" points="325.92,-87.15 334.98,-81.65 324.47,-80.3 325.92,-87.15"/>
</a>
</g>
</g>
<!-- Node4 -->
<g id="Node000004" class="node">
<title>Node4</title>
<g id="a_Node000004"><a xlink:href="../../d6/dcf/libusb_2hid_8c.html#a9593b490d488dcb8017ceabebccc77bf" target="_top" xlink:title=" ">
<polygon fill="white" stroke="#666666" points="300.5,-79.7 184.75,-79.7 184.75,-59.7 300.5,-59.7 300.5,-79.7"/>
<text xml:space="preserve" text-anchor="middle" x="242.62" y="-66.2" font-family="Helvetica,sans-Serif" font-size="10.00">PLATFORM_hid_close</text>
</a>
</g>
</g>
<!-- Node1&#45;&gt;Node4 -->
<g id="edge3_Node000001_Node000004" class="edge">
<title>Node1&#45;&gt;Node4</title>
<g id="a_edge3_Node000001_Node000004"><a xlink:title=" ">
<path fill="none" stroke="#63b8ff" d="M324.95,-69.7C316.9,-69.7 308.7,-69.7 300.75,-69.7"/>
<polygon fill="#63b8ff" stroke="#63b8ff" points="324.68,-73.2 334.68,-69.7 324.68,-66.2 324.68,-73.2"/>
</a>
</g>
</g>
<!-- Node5 -->
<g id="Node000005" class="node">
<title>Node5</title>
<g id="a_Node000005"><a xlink:href="../../d6/dcf/libusb_2hid_8c.html#aa2e50f50e42895534d389328c4c57d9c" target="_top" xlink:title=" ">
<polygon fill="white" stroke="#666666" points="280.62,-41.7 204.62,-41.7 204.62,-21.7 280.62,-21.7 280.62,-41.7"/>
<text xml:space="preserve" text-anchor="middle" x="242.62" y="-28.2" font-family="Helvetica,sans-Serif" font-size="10.00">read_callback</text>
</a>
</g>
</g>
<!-- Node1&#45;&gt;Node5 -->
<g id="edge5_Node000001_Node000005" class="edge">
<title>Node1&#45;&gt;Node5</title>
<g id="a_edge5_Node000001_Node000005"><a xlink:title=" ">
<path fill="none" stroke="#63b8ff" d="M325.29,-53.12C310.12,-49.14 294.41,-45.02 280.86,-41.46"/>
<polygon fill="#63b8ff" stroke="#63b8ff" points="324.17,-56.44 334.73,-55.59 325.95,-49.67 324.17,-56.44"/>
</a>
</g>
</g>
<!-- Node6 -->
<g id="Node000006" class="node">
<title>Node6</title>
<g id="a_Node000006"><a xlink:href="../../d6/dcf/libusb_2hid_8c.html#a6017e697733bf1fba149c4302a72e218" target="_top" xlink:title=" ">
<polygon fill="white" stroke="#666666" points="107.88,-22.7 40.88,-22.7 40.88,-2.7 107.88,-2.7 107.88,-22.7"/>
<text xml:space="preserve" text-anchor="middle" x="74.38" y="-9.2" font-family="Helvetica,sans-Serif" font-size="10.00">read_thread</text>
</a>
</g>
</g>
<!-- Node1&#45;&gt;Node6 -->
<g id="edge7_Node000001_Node000006" class="edge">
<title>Node1&#45;&gt;Node6</title>
<g id="a_edge7_Node000001_Node000006"><a xlink:title=" ">
<path fill="none" stroke="#63b8ff" d="M361.22,-46.12C344.81,-33.53 322.83,-19.29 300.5,-12.7 234.53,6.8 152.86,-0.51 108.26,-6.98"/>
<polygon fill="#63b8ff" stroke="#63b8ff" points="359.01,-48.84 369.01,-52.33 363.37,-43.36 359.01,-48.84"/>
</a>
</g>
</g>
<!-- Node2&#45;&gt;Node3 -->
<g id="edge2_Node000002_Node000003" class="edge">
<title>Node2&#45;&gt;Node3</title>
<g id="a_edge2_Node000002_Node000003"><a xlink:title=" ">
<path fill="none" stroke="#63b8ff" d="M190.27,-139.83C177.23,-138.34 162.95,-136.7 149.04,-135.11"/>
<polygon fill="#63b8ff" stroke="#63b8ff" points="189.54,-143.27 199.88,-140.92 190.34,-136.31 189.54,-143.27"/>
</a>
</g>
</g>
<!-- Node5&#45;&gt;Node6 -->
<g id="edge6_Node000005_Node000006" class="edge">
<title>Node5&#45;&gt;Node6</title>
<g id="a_edge6_Node000005_Node000006"><a xlink:title=" ">
<path fill="none" stroke="#63b8ff" d="M193.05,-26.14C165.81,-23.03 132.54,-19.23 108.34,-16.46"/>
<polygon fill="#63b8ff" stroke="#63b8ff" points="192.48,-29.6 202.81,-27.26 193.27,-22.65 192.48,-29.6"/>
</a>
</g>
</g>
</g>
</svg>
