<?xml version="1.0" encoding="UTF-8" standalone="no"?>
<!DOCTYPE svg PUBLIC "-//W3C//DTD SVG 1.1//EN"
 "http://www.w3.org/Graphics/SVG/1.1/DTD/svg11.dtd">
<!-- Generated by graphviz version 13.1.0 (20250701.0955)
 -->
<!-- Title: CHIDDevice::ReadReport Pages: 1 -->
<svg width="325pt" height="160pt"
 viewBox="0.00 0.00 325.00 160.00" xmlns="http://www.w3.org/2000/svg" xmlns:xlink="http://www.w3.org/1999/xlink">
<g id="graph0" class="graph" transform="scale(1 1) rotate(0) translate(4 156)">
<title>CHIDDevice::ReadReport</title>
<!-- Node1 -->
<g id="Node000001" class="node">
<title>Node1</title>
<g id="a_Node000001"><a xlink:title=" ">
<polygon fill="#999999" stroke="#666666" points="130.75,-77 0,-77 0,-57 130.75,-57 130.75,-77"/>
<text xml:space="preserve" text-anchor="middle" x="65.38" y="-63.5" font-family="Helvetica,sans-Serif" font-size="10.00">CHIDDevice::ReadReport</text>
</a>
</g>
</g>
<!-- Node2 -->
<g id="Node000002" class="node">
<title>Node2</title>
<g id="a_Node000002"><a xlink:href="../../d7/d09/classCHIDDevice.html#add40838276f4e7cd0baf44463a857ccf" target="_top" xlink:title=" ">
<polygon fill="white" stroke="#666666" points="317,-134 166.75,-134 166.75,-114 317,-114 317,-134"/>
<text xml:space="preserve" text-anchor="middle" x="241.88" y="-120.5" font-family="Helvetica,sans-Serif" font-size="10.00">CHIDDevice::ExceptionCheck</text>
</a>
</g>
</g>
<!-- Node1&#45;&gt;Node2 -->
<g id="edge1_Node000001_Node000002" class="edge">
<title>Node1&#45;&gt;Node2</title>
<g id="a_edge1_Node000001_Node000002"><a xlink:title=" ">
<path fill="none" stroke="#63b8ff" d="M91.68,-77.47C111.81,-85.59 140.81,-96.79 166.75,-105 172.92,-106.95 179.42,-108.85 185.91,-110.64"/>
<polygon fill="#63b8ff" stroke="#63b8ff" points="184.72,-113.94 195.29,-113.15 186.53,-107.18 184.72,-113.94"/>
</a>
</g>
</g>
<!-- Node3 -->
<g id="Node000003" class="node">
<title>Node3</title>
<g id="a_Node000003"><a xlink:href="../../d2/d5c/hid_8cpp.html#af11e28544aec2649912f769a993b4ed1" target="_top" xlink:title=" ">
<polygon fill="white" stroke="#666666" points="288.5,-96 195.25,-96 195.25,-76 288.5,-76 288.5,-96"/>
<text xml:space="preserve" text-anchor="middle" x="241.88" y="-82.5" font-family="Helvetica,sans-Serif" font-size="10.00">get_timespec_ms</text>
</a>
</g>
</g>
<!-- Node1&#45;&gt;Node3 -->
<g id="edge3_Node000001_Node000003" class="edge">
<title>Node1&#45;&gt;Node3</title>
<g id="a_edge3_Node000001_Node000003"><a xlink:title=" ">
<path fill="none" stroke="#63b8ff" d="M130.86,-74.02C148.13,-75.9 166.69,-77.92 183.55,-79.76"/>
<polygon fill="#63b8ff" stroke="#63b8ff" points="183.09,-83.23 193.41,-80.83 183.85,-76.27 183.09,-83.23"/>
</a>
</g>
</g>
<!-- Node4 -->
<g id="Node000004" class="node">
<title>Node4</title>
<g id="a_Node000004"><a xlink:href="../../d2/d5c/hid_8cpp.html#a372773a730381bce518e206cfb83765a" target="_top" xlink:title=" ">
<polygon fill="white" stroke="#666666" points="281.75,-58 202,-58 202,-38 281.75,-38 281.75,-58"/>
<text xml:space="preserve" text-anchor="middle" x="241.88" y="-44.5" font-family="Helvetica,sans-Serif" font-size="10.00">NewByteArray</text>
</a>
</g>
</g>
<!-- Node1&#45;&gt;Node4 -->
<g id="edge4_Node000001_Node000004" class="edge">
<title>Node1&#45;&gt;Node4</title>
<g id="a_edge4_Node000001_Node000004"><a xlink:title=" ">
<path fill="none" stroke="#63b8ff" d="M130.86,-59.98C150.55,-57.83 171.92,-55.51 190.53,-53.48"/>
<polygon fill="#63b8ff" stroke="#63b8ff" points="190.66,-56.99 200.22,-52.43 189.9,-50.03 190.66,-56.99"/>
</a>
</g>
</g>
<!-- Node5 -->
<g id="Node000005" class="node">
<title>Node5</title>
<g id="a_Node000005"><a xlink:href="../../d5/d75/SDL__core__unsupported_8c.html#a6cd0dafa9f187b994afe2fdbce3d4db7" target="_top" xlink:title=" ">
<polygon fill="white" stroke="#666666" points="303.12,-20 180.62,-20 180.62,0 303.12,0 303.12,-20"/>
<text xml:space="preserve" text-anchor="middle" x="241.88" y="-6.5" font-family="Helvetica,sans-Serif" font-size="10.00">SDL_GetAndroidJNIEnv</text>
</a>
</g>
</g>
<!-- Node1&#45;&gt;Node5 -->
<g id="edge5_Node000001_Node000005" class="edge">
<title>Node1&#45;&gt;Node5</title>
<g id="a_edge5_Node000001_Node000005"><a xlink:title=" ">
<path fill="none" stroke="#63b8ff" d="M91.68,-56.53C111.81,-48.41 140.81,-37.21 166.75,-29 172.92,-27.05 179.42,-25.15 185.91,-23.36"/>
<polygon fill="#63b8ff" stroke="#63b8ff" points="186.53,-26.82 195.29,-20.85 184.72,-20.06 186.53,-26.82"/>
</a>
</g>
</g>
<!-- Node2&#45;&gt;Node2 -->
<g id="edge2_Node000002_Node000002" class="edge">
<title>Node2&#45;&gt;Node2</title>
<g id="a_edge2_Node000002_Node000002"><a xlink:title=" ">
<path fill="none" stroke="#63b8ff" d="M213.83,-134.34C201.85,-142.98 211.19,-152 241.88,-152 259.13,-152 269.64,-149.14 273.4,-145.11"/>
<polygon fill="#63b8ff" stroke="#63b8ff" points="276.79,-144.22 270.38,-135.78 270.13,-146.37 276.79,-144.22"/>
</a>
</g>
</g>
</g>
</svg>
