<?xml version="1.0" encoding="UTF-8" standalone="no"?>
<!DOCTYPE svg PUBLIC "-//W3C//DTD SVG 1.1//EN"
 "http://www.w3.org/Graphics/SVG/1.1/DTD/svg11.dtd">
<!-- Generated by graphviz version 13.1.0 (20250701.0955)
 -->
<!-- Title: CHIDDevice::ExceptionCheck Pages: 1 -->
<!--zoomable 142 -->

<svg id="main" version="1.1" xmlns="http://www.w3.org/2000/svg" xmlns:xlink="http://www.w3.org/1999/xlink" xml:space="preserve" onload="init(evt)">

<style type="text/css"><![CDATA[
.node, .edge {opacity: 0.7;}
.node.selected, .edge.selected {opacity: 1;}
.edge:hover path { stroke: red; }
.edge:hover polygon { stroke: red; fill: red; }
]]></style>

<defs>
  <circle id="rim" cx="0" cy="0" r="7"/>
  <circle id="rim2" cx="0" cy="0" r="3.5"/>
  <g id="zoomPlus">
    <use xlink:href="#rim" fill="#404040"><set attributeName="fill" to="#808080" begin="zoomplus.mouseover" end="zoomplus.mouseout"/></use>
    <path d="M-4,0h8M0,-4v8" fill="none" stroke="white" stroke-width="1.5" pointer-events="none"/>
  </g>
  <g id="zoomMin">
    <use xlink:href="#rim" fill="#404040"><set attributeName="fill" to="#808080" begin="zoomminus.mouseover" end="zoomminus.mouseout"/></use>
    <path d="M-4,0h8" fill="none" stroke="white" stroke-width="1.5" pointer-events="none"/>
  </g>
  <g id="arrowUp" transform="translate(30 24)">
    <use xlink:href="#rim"/>
    <path pointer-events="none" fill="none" stroke="white" stroke-width="1.5" d="M0,-3.0v7 M-2.5,-0.5L0,-3.0L2.5,-0.5"/>
  </g>
  <g id="arrowRight" transform="rotate(90) translate(36 -43)">
    <use xlink:href="#rim"/>
    <path pointer-events="none" fill="none" stroke="white" stroke-width="1.5" d="M0,-3.0v7 M-2.5,-0.5L0,-3.0L2.5,-0.5"/>
  </g>
  <g id="arrowDown" transform="rotate(180) translate(-30 -48)">
    <use xlink:href="#rim"/>
    <path pointer-events="none" fill="none" stroke="white" stroke-width="1.5" d="M0,-3.0v7 M-2.5,-0.5L0,-3.0L2.5,-0.5"/>
  </g>
  <g id="arrowLeft" transform="rotate(270) translate(-36 17)">
    <use xlink:href="#rim"/>
    <path pointer-events="none" fill="none" stroke="white" stroke-width="1.5" d="M0,-3.0v7 M-2.5,-0.5L0,-3.0L2.5,-0.5"/>
  </g>
  <g id="resetDef">
    <use xlink:href="#rim2" fill="#404040"><set attributeName="fill" to="#808080" begin="reset.mouseover" end="reset.mouseout"/></use>
  </g>
</defs>
<script type="application/ecmascript">
var viewWidth = 638;
var viewHeight = 142;
var sectionId = 'dynsection-7';
</script>
<script type="application/ecmascript" xlink:href="../../svg.min.js"/>
<svg id="graph" class="graph">
<g id="viewport">
<title>CHIDDevice::ExceptionCheck</title>
<!-- Node1 -->
<g id="Node000001" class="node">
<title>Node1</title>
<g id="a_Node000001"><a xlink:title=" ">
<polygon fill="#999999" stroke="#666666" points="630.25,-77 480,-77 480,-57 630.25,-57 630.25,-77"/>
<text xml:space="preserve" text-anchor="middle" x="555.12" y="-63.5" font-family="Helvetica,sans-Serif" font-size="10.00">CHIDDevice::ExceptionCheck</text>
</a>
</g>
</g>
<!-- Node1&#45;&gt;Node1 -->
<g id="edge5_Node000001_Node000001" class="edge">
<title>Node1&#45;&gt;Node1</title>
<g id="a_edge5_Node000001_Node000001"><a xlink:title=" ">
<path fill="none" stroke="#63b8ff" d="M586.65,-88.11C582.89,-92.14 572.38,-95 555.12,-95 524.44,-95 515.1,-85.98 527.08,-77.34"/>
<polygon fill="#63b8ff" stroke="#63b8ff" points="590.04,-87.22 583.63,-78.78 583.38,-89.37 590.04,-87.22"/>
</a>
</g>
</g>
<!-- Node2 -->
<g id="Node000002" class="node">
<title>Node2</title>
<g id="a_Node000002"><a xlink:href="../../d7/d09/classCHIDDevice.html#a839d47080e6d467a2d1b7268014ccb3e" target="_top" xlink:title=" ">
<polygon fill="white" stroke="#666666" points="432.75,-134 324.5,-134 324.5,-114 432.75,-114 432.75,-134"/>
<text xml:space="preserve" text-anchor="middle" x="378.62" y="-120.5" font-family="Helvetica,sans-Serif" font-size="10.00">CHIDDevice::BOpen</text>
</a>
</g>
</g>
<!-- Node1&#45;&gt;Node2 -->
<g id="edge1_Node000001_Node000002" class="edge">
<title>Node1&#45;&gt;Node2</title>
<g id="a_edge1_Node000001_Node000002"><a xlink:title=" ">
<path fill="none" stroke="#63b8ff" d="M514.54,-81.14C493.64,-88.49 467.51,-97.48 444,-105 435.01,-107.88 425.26,-110.83 416.14,-113.53"/>
<polygon fill="#63b8ff" stroke="#63b8ff" points="515.57,-84.49 523.83,-77.86 513.24,-77.89 515.57,-84.49"/>
</a>
</g>
</g>
<!-- Node5 -->
<g id="Node000005" class="node">
<title>Node5</title>
<g id="a_Node000005"><a xlink:href="../../d7/d09/classCHIDDevice.html#aa6d33370121c3f073d51653b29f55ba7" target="_top" xlink:title=" ">
<polygon fill="white" stroke="#666666" points="430.5,-96 326.75,-96 326.75,-76 430.5,-76 430.5,-96"/>
<text xml:space="preserve" text-anchor="middle" x="378.62" y="-82.5" font-family="Helvetica,sans-Serif" font-size="10.00">CHIDDevice::Close</text>
</a>
</g>
</g>
<!-- Node1&#45;&gt;Node5 -->
<g id="edge4_Node000001_Node000005" class="edge">
<title>Node1&#45;&gt;Node5</title>
<g id="a_edge4_Node000001_Node000005"><a xlink:title=" ">
<path fill="none" stroke="#63b8ff" d="M468.4,-76.33C455.6,-77.73 442.76,-79.13 430.97,-80.41"/>
<polygon fill="#63b8ff" stroke="#63b8ff" points="468.55,-79.84 478.11,-75.28 467.79,-72.88 468.55,-79.84"/>
</a>
</g>
</g>
<!-- Node6 -->
<g id="Node000006" class="node">
<title>Node6</title>
<g id="a_Node000006"><a xlink:href="../../d7/d09/classCHIDDevice.html#a84679949d93e3307a6fe15abd93b574e" target="_top" xlink:title=" ">
<polygon fill="white" stroke="#666666" points="444,-58 313.25,-58 313.25,-38 444,-38 444,-58"/>
<text xml:space="preserve" text-anchor="middle" x="378.62" y="-44.5" font-family="Helvetica,sans-Serif" font-size="10.00">CHIDDevice::ReadReport</text>
</a>
</g>
</g>
<!-- Node1&#45;&gt;Node6 -->
<g id="edge6_Node000001_Node000006" class="edge">
<title>Node1&#45;&gt;Node6</title>
<g id="a_edge6_Node000001_Node000006"><a xlink:title=" ">
<path fill="none" stroke="#63b8ff" d="M468.24,-57.65C460.17,-56.77 452.08,-55.89 444.25,-55.04"/>
<polygon fill="#63b8ff" stroke="#63b8ff" points="467.79,-61.12 478.11,-58.72 468.55,-54.16 467.79,-61.12"/>
</a>
</g>
</g>
<!-- Node7 -->
<g id="Node000007" class="node">
<title>Node7</title>
<g id="a_Node000007"><a xlink:href="../../d7/d09/classCHIDDevice.html#a17085aba38125efb622c59135e00c328" target="_top" xlink:title=" ">
<polygon fill="white" stroke="#666666" points="443.62,-20 313.62,-20 313.62,0 443.62,0 443.62,-20"/>
<text xml:space="preserve" text-anchor="middle" x="378.62" y="-6.5" font-family="Helvetica,sans-Serif" font-size="10.00">CHIDDevice::WriteReport</text>
</a>
</g>
</g>
<!-- Node1&#45;&gt;Node7 -->
<g id="edge7_Node000001_Node000007" class="edge">
<title>Node1&#45;&gt;Node7</title>
<g id="a_edge7_Node000001_Node000007"><a xlink:title=" ">
<path fill="none" stroke="#63b8ff" d="M514.54,-52.86C493.64,-45.51 467.51,-36.52 444,-29 435.01,-26.12 425.26,-23.17 416.14,-20.47"/>
<polygon fill="#63b8ff" stroke="#63b8ff" points="513.24,-56.11 523.83,-56.14 515.57,-49.51 513.24,-56.11"/>
</a>
</g>
</g>
<!-- Node3 -->
<g id="Node000003" class="node">
<title>Node3</title>
<g id="a_Node000003"><a xlink:href="../../d2/d5c/hid_8cpp.html#a0e569381b03120d85110c54f4cdff5b5" target="_top" xlink:title=" ">
<polygon fill="white" stroke="#666666" points="277.25,-134 139.75,-134 139.75,-114 277.25,-114 277.25,-134"/>
<text xml:space="preserve" text-anchor="middle" x="208.5" y="-120.5" font-family="Helvetica,sans-Serif" font-size="10.00">PLATFORM_hid_open_path</text>
</a>
</g>
</g>
<!-- Node2&#45;&gt;Node3 -->
<g id="edge2_Node000002_Node000003" class="edge">
<title>Node2&#45;&gt;Node3</title>
<g id="a_edge2_Node000002_Node000003"><a xlink:title=" ">
<path fill="none" stroke="#63b8ff" d="M313,-124C301.36,-124 289.19,-124 277.46,-124"/>
<polygon fill="#63b8ff" stroke="#63b8ff" points="312.92,-127.5 322.92,-124 312.92,-120.5 312.92,-127.5"/>
</a>
</g>
</g>
<!-- Node4 -->
<g id="Node000004" class="node">
<title>Node4</title>
<g id="a_Node000004"><a xlink:href="../../dc/dd7/SDL__hidapi_8c.html#a89071dc2a232f38999a1ad08c3f06cd4" target="_top" xlink:title=" ">
<polygon fill="white" stroke="#666666" points="103.75,-134 0,-134 0,-114 103.75,-114 103.75,-134"/>
<text xml:space="preserve" text-anchor="middle" x="51.88" y="-120.5" font-family="Helvetica,sans-Serif" font-size="10.00">SDL_hid_open_path</text>
</a>
</g>
</g>
<!-- Node3&#45;&gt;Node4 -->
<g id="edge3_Node000003_Node000004" class="edge">
<title>Node3&#45;&gt;Node4</title>
<g id="a_edge3_Node000003_Node000004"><a xlink:title=" ">
<path fill="none" stroke="#63b8ff" d="M128.37,-124C120.06,-124 111.77,-124 103.9,-124"/>
<polygon fill="#63b8ff" stroke="#63b8ff" points="128.17,-127.5 138.17,-124 128.17,-120.5 128.17,-127.5"/>
</a>
</g>
</g>
</g>
</svg>

<g id="navigator" transform="translate(0 0)" fill="#404254">
  <rect fill="#f2f5e9" fill-opacity="0.5" stroke="#606060" stroke-width=".5" x="0" y="0" width="60" height="60"/>
  <use id="zoomplus" xlink:href="#zoomPlus" x="17" y="9" onmousedown="handleZoom(evt,'in')"/>
  <use id="zoomminus" xlink:href="#zoomMin" x="42" y="9" onmousedown="handleZoom(evt,'out')"/>
  <use id="reset" xlink:href="#resetDef" x="30" y="36" onmousedown="handleReset()"/>
   <use id="arrowup" xlink:href="#arrowUp" x="0" y="0" onmousedown="handlePan(0,-1)"/>
  <use id="arrowright" xlink:href="#arrowRight" x="0" y="0" onmousedown="handlePan(1,0)"/>
  <use id="arrowdown" xlink:href="#arrowDown" x="0" y="0" onmousedown="handlePan(0,1)"/>
  <use id="arrowleft" xlink:href="#arrowLeft" x="0" y="0" onmousedown="handlePan(-1,0)"/>
</g>
<svg viewBox="0 0 15 15" width="100%" height="30px" preserveAspectRatio="xMaxYMin meet">
 <g id="arrow_out" transform="scale(0.3 0.3)">
  <a xlink:href="classCHIDDevice_add40838276f4e7cd0baf44463a857ccf_icgraph_org.svg" target="_base">
   <rect id="button" ry="5" rx="5" y="6" x="6" height="38" width="38"
        fill="#f2f5e9" fill-opacity="0.5" stroke="#606060" stroke-width="1.0"/>
   <path id="arrow"
     d="M 11.500037,31.436501 C 11.940474,20.09759 22.043105,11.32322 32.158766,21.979434 L 37.068811,17.246167 C 37.068811,17.246167 37.088388,32 37.088388,32 L 22.160133,31.978069 C 22.160133,31.978069 26.997745,27.140456 26.997745,27.140456 C 18.528582,18.264221 13.291696,25.230495 11.500037,31.436501 z"
     style="fill:#404040;"/>
  </a>
 </g>
</svg>

<style type='text/css'>
<![CDATA[
[data-mouse-over-selected='false'] { opacity: 0.7; }
[data-mouse-over-selected='true']  { opacity: 1.0; }
]]>
</style>
<script type="application/ecmascript"><![CDATA[
document.addEventListener('DOMContentLoaded', (event) => {
  highlightEdges();
  highlightAdjacentNodes();
});
]]></script>
</svg>
