<?xml version="1.0" encoding="UTF-8" standalone="no"?>
<!DOCTYPE svg PUBLIC "-//W3C//DTD SVG 1.1//EN"
 "http://www.w3.org/Graphics/SVG/1.1/DTD/svg11.dtd">
<!-- Generated by graphviz version 13.1.0 (20250701.0955)
 -->
<!-- Title: SDL&#45;main/src/video/haiku/SDL_bkeyboard.h Pages: 1 -->
<svg width="255pt" height="244pt"
 viewBox="0.00 0.00 255.00 244.00" xmlns="http://www.w3.org/2000/svg" xmlns:xlink="http://www.w3.org/1999/xlink">
<g id="graph0" class="graph" transform="scale(1 1) rotate(0) translate(4 240)">
<title>SDL&#45;main/src/video/haiku/SDL_bkeyboard.h</title>
<!-- Node1 -->
<g id="Node000001" class="node">
<title>Node1</title>
<g id="a_Node000001"><a xlink:title=" ">
<polygon fill="#999999" stroke="#666666" points="189.75,-236 66.5,-236 66.5,-204 189.75,-204 189.75,-236"/>
<text xml:space="preserve" text-anchor="start" x="74.5" y="-222.5" font-family="Helvetica,sans-Serif" font-size="10.00">SDL&#45;main/src/video</text>
<text xml:space="preserve" text-anchor="middle" x="128.12" y="-210.5" font-family="Helvetica,sans-Serif" font-size="10.00">/haiku/SDL_bkeyboard.h</text>
</a>
</g>
</g>
<!-- Node2 -->
<g id="Node000002" class="node">
<title>Node2</title>
<g id="a_Node000002"><a xlink:href="../../d5/d4e/SDL__BApp_8h.html" target="_top" xlink:title=" ">
<polygon fill="white" stroke="#666666" points="190.12,-168 66.12,-168 66.12,-136 190.12,-136 190.12,-168"/>
<text xml:space="preserve" text-anchor="start" x="74.12" y="-154.5" font-family="Helvetica,sans-Serif" font-size="10.00">SDL&#45;main/src/core/haiku</text>
<text xml:space="preserve" text-anchor="middle" x="128.12" y="-142.5" font-family="Helvetica,sans-Serif" font-size="10.00">/SDL_BApp.h</text>
</a>
</g>
</g>
<!-- Node1&#45;&gt;Node2 -->
<g id="edge1_Node000001_Node000002" class="edge">
<title>Node1&#45;&gt;Node2</title>
<g id="a_edge1_Node000001_Node000002"><a xlink:title=" ">
<path fill="none" stroke="#63b8ff" d="M128.12,-192.31C128.12,-184.12 128.12,-175.38 128.12,-168.22"/>
<polygon fill="#63b8ff" stroke="#63b8ff" points="124.63,-192.18 128.13,-202.18 131.63,-192.18 124.63,-192.18"/>
</a>
</g>
</g>
<!-- Node3 -->
<g id="Node000003" class="node">
<title>Node3</title>
<g id="a_Node000003"><a xlink:href="../../d4/d2f/SDL__BWin_8h.html" target="_top" xlink:title=" ">
<polygon fill="white" stroke="#666666" points="117.25,-100 15,-100 15,-68 117.25,-68 117.25,-100"/>
<text xml:space="preserve" text-anchor="start" x="23" y="-86.5" font-family="Helvetica,sans-Serif" font-size="10.00">SDL&#45;main/src/video</text>
<text xml:space="preserve" text-anchor="middle" x="66.12" y="-74.5" font-family="Helvetica,sans-Serif" font-size="10.00">/haiku/SDL_BWin.h</text>
</a>
</g>
</g>
<!-- Node2&#45;&gt;Node3 -->
<g id="edge2_Node000002_Node000003" class="edge">
<title>Node2&#45;&gt;Node3</title>
<g id="a_edge2_Node000002_Node000003"><a xlink:title=" ">
<path fill="none" stroke="#63b8ff" d="M105.98,-127.43C97.48,-118.38 88,-108.29 80.43,-100.22"/>
<polygon fill="#63b8ff" stroke="#63b8ff" points="103.31,-129.7 112.71,-134.59 108.41,-124.9 103.31,-129.7"/>
</a>
</g>
</g>
<!-- Node5 -->
<g id="Node000005" class="node">
<title>Node5</title>
<g id="a_Node000005"><a xlink:href="../../d0/d0c/SDL__bvideo_8cc.html" target="_top" xlink:title=" ">
<polygon fill="white" stroke="#666666" points="247.12,-100 135.12,-100 135.12,-68 247.12,-68 247.12,-100"/>
<text xml:space="preserve" text-anchor="start" x="143.12" y="-86.5" font-family="Helvetica,sans-Serif" font-size="10.00">SDL&#45;main/src/video</text>
<text xml:space="preserve" text-anchor="middle" x="191.12" y="-74.5" font-family="Helvetica,sans-Serif" font-size="10.00">/haiku/SDL_bvideo.cc</text>
</a>
</g>
</g>
<!-- Node2&#45;&gt;Node5 -->
<g id="edge4_Node000002_Node000005" class="edge">
<title>Node2&#45;&gt;Node5</title>
<g id="a_edge4_Node000002_Node000005"><a xlink:title=" ">
<path fill="none" stroke="#63b8ff" d="M150.62,-127.43C159.27,-118.38 168.89,-108.29 176.59,-100.22"/>
<polygon fill="#63b8ff" stroke="#63b8ff" points="148.15,-124.95 143.78,-134.6 153.22,-129.78 148.15,-124.95"/>
</a>
</g>
</g>
<!-- Node4 -->
<g id="Node000004" class="node">
<title>Node4</title>
<g id="a_Node000004"><a xlink:href="../../d3/d70/SDL__haikudialog_8cc.html" target="_top" xlink:title=" ">
<polygon fill="white" stroke="#666666" points="132.25,-32 0,-32 0,0 132.25,0 132.25,-32"/>
<text xml:space="preserve" text-anchor="start" x="8" y="-18.5" font-family="Helvetica,sans-Serif" font-size="10.00">SDL&#45;main/src/dialog</text>
<text xml:space="preserve" text-anchor="middle" x="66.12" y="-6.5" font-family="Helvetica,sans-Serif" font-size="10.00">/haiku/SDL_haikudialog.cc</text>
</a>
</g>
</g>
<!-- Node3&#45;&gt;Node4 -->
<g id="edge3_Node000003_Node000004" class="edge">
<title>Node3&#45;&gt;Node4</title>
<g id="a_edge3_Node000003_Node000004"><a xlink:title=" ">
<path fill="none" stroke="#63b8ff" d="M66.12,-56.31C66.12,-48.12 66.12,-39.38 66.12,-32.22"/>
<polygon fill="#63b8ff" stroke="#63b8ff" points="62.63,-56.18 66.13,-66.18 69.63,-56.18 62.63,-56.18"/>
</a>
</g>
</g>
</g>
</svg>
