<?xml version="1.0" encoding="UTF-8" standalone="no"?>
<!DOCTYPE svg PUBLIC "-//W3C//DTD SVG 1.1//EN"
 "http://www.w3.org/Graphics/SVG/1.1/DTD/svg11.dtd">
<!-- Generated by graphviz version 13.1.0 (20250701.0955)
 -->
<!-- Title: SDL&#45;main/src/render/gpu/shaders/dxil.h Pages: 1 -->
<!--zoomable 96 -->

<svg id="main" version="1.1" xmlns="http://www.w3.org/2000/svg" xmlns:xlink="http://www.w3.org/1999/xlink" xml:space="preserve" onload="init(evt)">

<style type="text/css"><![CDATA[
.node, .edge {opacity: 0.7;}
.node.selected, .edge.selected {opacity: 1;}
.edge:hover path { stroke: red; }
.edge:hover polygon { stroke: red; fill: red; }
]]></style>

<defs>
  <circle id="rim" cx="0" cy="0" r="7"/>
  <circle id="rim2" cx="0" cy="0" r="3.5"/>
  <g id="zoomPlus">
    <use xlink:href="#rim" fill="#404040"><set attributeName="fill" to="#808080" begin="zoomplus.mouseover" end="zoomplus.mouseout"/></use>
    <path d="M-4,0h8M0,-4v8" fill="none" stroke="white" stroke-width="1.5" pointer-events="none"/>
  </g>
  <g id="zoomMin">
    <use xlink:href="#rim" fill="#404040"><set attributeName="fill" to="#808080" begin="zoomminus.mouseover" end="zoomminus.mouseout"/></use>
    <path d="M-4,0h8" fill="none" stroke="white" stroke-width="1.5" pointer-events="none"/>
  </g>
  <g id="arrowUp" transform="translate(30 24)">
    <use xlink:href="#rim"/>
    <path pointer-events="none" fill="none" stroke="white" stroke-width="1.5" d="M0,-3.0v7 M-2.5,-0.5L0,-3.0L2.5,-0.5"/>
  </g>
  <g id="arrowRight" transform="rotate(90) translate(36 -43)">
    <use xlink:href="#rim"/>
    <path pointer-events="none" fill="none" stroke="white" stroke-width="1.5" d="M0,-3.0v7 M-2.5,-0.5L0,-3.0L2.5,-0.5"/>
  </g>
  <g id="arrowDown" transform="rotate(180) translate(-30 -48)">
    <use xlink:href="#rim"/>
    <path pointer-events="none" fill="none" stroke="white" stroke-width="1.5" d="M0,-3.0v7 M-2.5,-0.5L0,-3.0L2.5,-0.5"/>
  </g>
  <g id="arrowLeft" transform="rotate(270) translate(-36 17)">
    <use xlink:href="#rim"/>
    <path pointer-events="none" fill="none" stroke="white" stroke-width="1.5" d="M0,-3.0v7 M-2.5,-0.5L0,-3.0L2.5,-0.5"/>
  </g>
  <g id="resetDef">
    <use xlink:href="#rim2" fill="#404040"><set attributeName="fill" to="#808080" begin="reset.mouseover" end="reset.mouseout"/></use>
  </g>
</defs>
<script type="application/ecmascript">
var viewWidth = 1042;
var viewHeight = 96;
var sectionId = 'dynsection-0';
</script>
<script type="application/ecmascript" xlink:href="../../svg.min.js"/>
<svg id="graph" class="graph">
<g id="viewport">
<title>SDL&#45;main/src/render/gpu/shaders/dxil.h</title>
<!-- Node1 -->
<g id="Node000001" class="node">
<title>Node1</title>
<g id="a_Node000001"><a xlink:title=" ">
<polygon fill="#999999" stroke="#666666" points="546.38,-88 440.38,-88 440.38,-56 546.38,-56 546.38,-88"/>
<text xml:space="preserve" text-anchor="start" x="448.38" y="-74.5" font-family="Helvetica,sans-Serif" font-size="10.00">SDL&#45;main/src/render</text>
<text xml:space="preserve" text-anchor="middle" x="493.38" y="-62.5" font-family="Helvetica,sans-Serif" font-size="10.00">/gpu/shaders/dxil.h</text>
</a>
</g>
</g>
<!-- Node2 -->
<g id="Node000002" class="node">
<title>Node2</title>
<g id="a_Node000002"><a xlink:href="../../dd/d4d/color_8frag_8dxil_8h.html" target="_top" xlink:title=" ">
<polygon fill="white" stroke="#666666" points="82.75,-20 0,-20 0,0 82.75,0 82.75,-20"/>
<text xml:space="preserve" text-anchor="middle" x="41.38" y="-6.5" font-family="Helvetica,sans-Serif" font-size="10.00">color.frag.dxil.h</text>
</a>
</g>
</g>
<!-- Node1&#45;&gt;Node2 -->
<g id="edge1_Node000001_Node000002" class="edge">
<title>Node1&#45;&gt;Node2</title>
<g id="a_edge1_Node000001_Node000002"><a xlink:title=" ">
<path fill="none" stroke="#63b8ff" d="M439.93,-65.11C364.98,-56.66 224.12,-40.06 94.4,-20.4"/>
<polygon fill="#63b8ff" stroke="#63b8ff" points="95,-16.95 84.59,-18.9 93.94,-23.87 95,-16.95"/>
</a>
</g>
</g>
<!-- Node3 -->
<g id="Node000003" class="node">
<title>Node3</title>
<g id="a_Node000003"><a xlink:href="../../d8/da4/linepoint_8vert_8dxil_8h.html" target="_top" xlink:title=" ">
<polygon fill="white" stroke="#666666" points="198.25,-20 100.5,-20 100.5,0 198.25,0 198.25,-20"/>
<text xml:space="preserve" text-anchor="middle" x="149.38" y="-6.5" font-family="Helvetica,sans-Serif" font-size="10.00">linepoint.vert.dxil.h</text>
</a>
</g>
</g>
<!-- Node1&#45;&gt;Node3 -->
<g id="edge2_Node000001_Node000003" class="edge">
<title>Node1&#45;&gt;Node3</title>
<g id="a_edge2_Node000001_Node000003"><a xlink:title=" ">
<path fill="none" stroke="#63b8ff" d="M440,-61.69C377.78,-50.84 275.18,-32.94 210,-21.57"/>
<polygon fill="#63b8ff" stroke="#63b8ff" points="210.63,-18.13 200.18,-19.86 209.43,-25.03 210.63,-18.13"/>
</a>
</g>
</g>
<!-- Node4 -->
<g id="Node000004" class="node">
<title>Node4</title>
<g id="a_Node000004"><a xlink:href="../../dd/d66/texture__rgb_8frag_8dxil_8h.html" target="_top" xlink:title=" ">
<polygon fill="white" stroke="#666666" points="326.62,-20 216.12,-20 216.12,0 326.62,0 326.62,-20"/>
<text xml:space="preserve" text-anchor="middle" x="271.38" y="-6.5" font-family="Helvetica,sans-Serif" font-size="10.00">texture_rgb.frag.dxil.h</text>
</a>
</g>
</g>
<!-- Node1&#45;&gt;Node4 -->
<g id="edge3_Node000001_Node000004" class="edge">
<title>Node1&#45;&gt;Node4</title>
<g id="a_edge3_Node000001_Node000004"><a xlink:title=" ">
<path fill="none" stroke="#63b8ff" d="M439.92,-56.55C402.52,-46.45 353.09,-33.08 317.44,-23.45"/>
<polygon fill="#63b8ff" stroke="#63b8ff" points="318.41,-20.09 307.84,-20.86 316.58,-26.84 318.41,-20.09"/>
</a>
</g>
</g>
<!-- Node5 -->
<g id="Node000005" class="node">
<title>Node5</title>
<g id="a_Node000005"><a xlink:href="../../d8/da5/texture__rgb__pixelart_8frag_8dxil_8h.html" target="_top" xlink:title=" ">
<polygon fill="white" stroke="#666666" points="492,-20 344.75,-20 344.75,0 492,0 492,-20"/>
<text xml:space="preserve" text-anchor="middle" x="418.38" y="-6.5" font-family="Helvetica,sans-Serif" font-size="10.00">texture_rgb_pixelart.frag.dxil.h</text>
</a>
</g>
</g>
<!-- Node1&#45;&gt;Node5 -->
<g id="edge4_Node000001_Node000005" class="edge">
<title>Node1&#45;&gt;Node5</title>
<g id="a_edge4_Node000001_Node000005"><a xlink:title=" ">
<path fill="none" stroke="#63b8ff" d="M474.06,-55.55C463.32,-46.95 449.95,-36.26 439,-27.5"/>
<polygon fill="#63b8ff" stroke="#63b8ff" points="441.31,-24.87 431.32,-21.35 436.94,-30.33 441.31,-24.87"/>
</a>
</g>
</g>
<!-- Node6 -->
<g id="Node000006" class="node">
<title>Node6</title>
<g id="a_Node000006"><a xlink:href="../../de/df9/texture__rgba_8frag_8dxil_8h.html" target="_top" xlink:title=" ">
<polygon fill="white" stroke="#666666" points="626.25,-20 510.5,-20 510.5,0 626.25,0 626.25,-20"/>
<text xml:space="preserve" text-anchor="middle" x="568.38" y="-6.5" font-family="Helvetica,sans-Serif" font-size="10.00">texture_rgba.frag.dxil.h</text>
</a>
</g>
</g>
<!-- Node1&#45;&gt;Node6 -->
<g id="edge5_Node000001_Node000006" class="edge">
<title>Node1&#45;&gt;Node6</title>
<g id="a_edge5_Node000001_Node000006"><a xlink:title=" ">
<path fill="none" stroke="#63b8ff" d="M512.69,-55.55C523.43,-46.95 536.8,-36.26 547.75,-27.5"/>
<polygon fill="#63b8ff" stroke="#63b8ff" points="549.81,-30.33 555.43,-21.35 545.44,-24.87 549.81,-30.33"/>
</a>
</g>
</g>
<!-- Node7 -->
<g id="Node000007" class="node">
<title>Node7</title>
<g id="a_Node000007"><a xlink:href="../../da/dc4/texture__rgba__pixelart_8frag_8dxil_8h.html" target="_top" xlink:title=" ">
<polygon fill="white" stroke="#666666" points="796.62,-20 644.12,-20 644.12,0 796.62,0 796.62,-20"/>
<text xml:space="preserve" text-anchor="middle" x="720.38" y="-6.5" font-family="Helvetica,sans-Serif" font-size="10.00">texture_rgba_pixelart.frag.dxil.h</text>
</a>
</g>
</g>
<!-- Node1&#45;&gt;Node7 -->
<g id="edge6_Node000001_Node000007" class="edge">
<title>Node1&#45;&gt;Node7</title>
<g id="a_edge6_Node000001_Node000007"><a xlink:title=" ">
<path fill="none" stroke="#63b8ff" d="M546.6,-56.93C585.07,-46.76 636.57,-33.15 673.5,-23.39"/>
<polygon fill="#63b8ff" stroke="#63b8ff" points="674.23,-26.82 683,-20.88 672.44,-20.05 674.23,-26.82"/>
</a>
</g>
</g>
<!-- Node8 -->
<g id="Node000008" class="node">
<title>Node8</title>
<g id="a_Node000008"><a xlink:href="../../dc/dc2/tri__color_8vert_8dxil_8h.html" target="_top" xlink:title=" ">
<polygon fill="white" stroke="#666666" points="910.5,-20 814.25,-20 814.25,0 910.5,0 910.5,-20"/>
<text xml:space="preserve" text-anchor="middle" x="862.38" y="-6.5" font-family="Helvetica,sans-Serif" font-size="10.00">tri_color.vert.dxil.h</text>
</a>
</g>
</g>
<!-- Node1&#45;&gt;Node8 -->
<g id="edge7_Node000001_Node000008" class="edge">
<title>Node1&#45;&gt;Node8</title>
<g id="a_edge7_Node000001_Node000008"><a xlink:title=" ">
<path fill="none" stroke="#63b8ff" d="M546.64,-62.34C614.65,-51.28 731.99,-32.2 802.87,-20.67"/>
<polygon fill="#63b8ff" stroke="#63b8ff" points="803.03,-24.2 812.34,-19.14 801.91,-17.29 803.03,-24.2"/>
</a>
</g>
</g>
<!-- Node9 -->
<g id="Node000009" class="node">
<title>Node9</title>
<g id="a_Node000009"><a xlink:href="../../d5/ddf/tri__texture_8vert_8dxil_8h.html" target="_top" xlink:title=" ">
<polygon fill="white" stroke="#666666" points="1034,-20 928.75,-20 928.75,0 1034,0 1034,-20"/>
<text xml:space="preserve" text-anchor="middle" x="981.38" y="-6.5" font-family="Helvetica,sans-Serif" font-size="10.00">tri_texture.vert.dxil.h</text>
</a>
</g>
</g>
<!-- Node1&#45;&gt;Node9 -->
<g id="edge8_Node000001_Node000009" class="edge">
<title>Node1&#45;&gt;Node9</title>
<g id="a_edge8_Node000001_Node000009"><a xlink:title=" ">
<path fill="none" stroke="#63b8ff" d="M546.56,-65.07C625.11,-56.2 777.07,-38.7 916.95,-20.29"/>
<polygon fill="#63b8ff" stroke="#63b8ff" points="917.33,-23.77 926.79,-18.99 916.41,-16.83 917.33,-23.77"/>
</a>
</g>
</g>
</g>
</svg>

<g id="navigator" transform="translate(0 0)" fill="#404254">
  <rect fill="#f2f5e9" fill-opacity="0.5" stroke="#606060" stroke-width=".5" x="0" y="0" width="60" height="60"/>
  <use id="zoomplus" xlink:href="#zoomPlus" x="17" y="9" onmousedown="handleZoom(evt,'in')"/>
  <use id="zoomminus" xlink:href="#zoomMin" x="42" y="9" onmousedown="handleZoom(evt,'out')"/>
  <use id="reset" xlink:href="#resetDef" x="30" y="36" onmousedown="handleReset()"/>
   <use id="arrowup" xlink:href="#arrowUp" x="0" y="0" onmousedown="handlePan(0,-1)"/>
  <use id="arrowright" xlink:href="#arrowRight" x="0" y="0" onmousedown="handlePan(1,0)"/>
  <use id="arrowdown" xlink:href="#arrowDown" x="0" y="0" onmousedown="handlePan(0,1)"/>
  <use id="arrowleft" xlink:href="#arrowLeft" x="0" y="0" onmousedown="handlePan(-1,0)"/>
</g>
<svg viewBox="0 0 15 15" width="100%" height="30px" preserveAspectRatio="xMaxYMin meet">
 <g id="arrow_out" transform="scale(0.3 0.3)">
  <a xlink:href="dxil_8h__incl_org.svg" target="_base">
   <rect id="button" ry="5" rx="5" y="6" x="6" height="38" width="38"
        fill="#f2f5e9" fill-opacity="0.5" stroke="#606060" stroke-width="1.0"/>
   <path id="arrow"
     d="M 11.500037,31.436501 C 11.940474,20.09759 22.043105,11.32322 32.158766,21.979434 L 37.068811,17.246167 C 37.068811,17.246167 37.088388,32 37.088388,32 L 22.160133,31.978069 C 22.160133,31.978069 26.997745,27.140456 26.997745,27.140456 C 18.528582,18.264221 13.291696,25.230495 11.500037,31.436501 z"
     style="fill:#404040;"/>
  </a>
 </g>
</svg>

<style type='text/css'>
<![CDATA[
[data-mouse-over-selected='false'] { opacity: 0.7; }
[data-mouse-over-selected='true']  { opacity: 1.0; }
]]>
</style>
<script type="application/ecmascript"><![CDATA[
document.addEventListener('DOMContentLoaded', (event) => {
  highlightEdges();
  highlightAdjacentNodes();
});
]]></script>
</svg>
