<?xml version="1.0" encoding="UTF-8" standalone="no"?>
<!DOCTYPE svg PUBLIC "-//W3C//DTD SVG 1.1//EN"
 "http://www.w3.org/Graphics/SVG/1.1/DTD/svg11.dtd">
<!-- Generated by graphviz version 13.1.0 (20250701.0955)
 -->
<!-- Title: SDL_AsyncIOQueueInterface Pages: 1 -->
<svg width="602pt" height="358pt"
 viewBox="0.00 0.00 602.00 358.00" xmlns="http://www.w3.org/2000/svg" xmlns:xlink="http://www.w3.org/1999/xlink">
<g id="graph0" class="graph" transform="scale(1 1) rotate(0) translate(4 354)">
<title>SDL_AsyncIOQueueInterface</title>
<!-- Node1 -->
<g id="Node000001" class="node">
<title>Node1</title>
<g id="a_Node000001"><a xlink:title=" ">
<polygon fill="#999999" stroke="#666666" points="145.75,-350 0,-350 0,-330 145.75,-330 145.75,-350"/>
<text xml:space="preserve" text-anchor="middle" x="72.88" y="-336.5" font-family="Helvetica,sans-Serif" font-size="10.00">SDL_AsyncIOQueueInterface</text>
</a>
</g>
</g>
<!-- Node8 -->
<g id="Node000008" class="node">
<title>Node8</title>
<g id="a_Node000008"><a xlink:href="../../d0/d61/structSDL__AsyncIOQueue.html" target="_top" xlink:title=" ">
<polygon fill="white" stroke="#666666" points="256.62,-269 149.12,-269 149.12,-249 256.62,-249 256.62,-269"/>
<text xml:space="preserve" text-anchor="middle" x="202.88" y="-255.5" font-family="Helvetica,sans-Serif" font-size="10.00">SDL_AsyncIOQueue</text>
</a>
</g>
</g>
<!-- Node1&#45;&gt;Node8 -->
<g id="edge10_Node000008_Node000001" class="edge">
<title>Node1&#45;&gt;Node8</title>
<g id="a_edge10_Node000008_Node000001"><a xlink:title=" ">
<path fill="none" stroke="#9a32cd" stroke-dasharray="5,2" d="M98.01,-323.73C124.51,-307.62 165.4,-282.78 187.47,-269.36"/>
<polygon fill="#9a32cd" stroke="#9a32cd" points="96.32,-320.66 89.59,-328.84 99.96,-326.64 96.32,-320.66"/>
</a>
</g>
<text xml:space="preserve" text-anchor="start" x="148.66" y="-299.5" font-family="Helvetica,sans-Serif" font-size="10.00" fill="grey">iface</text>
</g>
<!-- Node2 -->
<g id="Node000002" class="node">
<title>Node2</title>
<g id="a_Node000002"><a xlink:href="../../df/dc4/structSDL__AsyncIOTask.html" target="_top" xlink:title=" ">
<polygon fill="white" stroke="#666666" points="138.88,-149 38.88,-149 38.88,-129 138.88,-129 138.88,-149"/>
<text xml:space="preserve" text-anchor="middle" x="88.88" y="-135.5" font-family="Helvetica,sans-Serif" font-size="10.00">SDL_AsyncIOTask</text>
</a>
</g>
</g>
<!-- Node2&#45;&gt;Node1 -->
<g id="edge1_Node000001_Node000002" class="edge">
<title>Node2&#45;&gt;Node1</title>
<g id="a_edge1_Node000001_Node000002"><a xlink:title=" ">
<path fill="none" stroke="#9a32cd" stroke-dasharray="5,2" d="M87.24,-160.39C83.82,-202.85 76.07,-299.31 73.63,-329.67"/>
<polygon fill="#9a32cd" stroke="#9a32cd" points="90.71,-160.84 88.02,-150.59 83.73,-160.28 90.71,-160.84"/>
</a>
</g>
<text xml:space="preserve" text-anchor="start" x="83.61" y="-263.5" font-family="Helvetica,sans-Serif" font-size="10.00" fill="grey">get_results</text>
<text xml:space="preserve" text-anchor="start" x="83.61" y="-247.5" font-family="Helvetica,sans-Serif" font-size="10.00" fill="grey">wait_results</text>
</g>
<!-- Node2&#45;&gt;Node2 -->
<g id="edge12_Node000002_Node000002" class="edge">
<title>Node2&#45;&gt;Node2</title>
<g id="a_edge12_Node000002_Node000002"><a xlink:title=" ">
<path fill="none" stroke="#9a32cd" stroke-dasharray="5,2" d="M119.32,-152.19C138.51,-155.49 156.88,-151.09 156.88,-139 156.88,-124.6 130.84,-121.11 108.37,-128.54"/>
<polygon fill="#9a32cd" stroke="#9a32cd" points="120.38,-148.85 109.83,-149.83 118.69,-155.64 120.38,-148.85"/>
</a>
</g>
<text xml:space="preserve" text-anchor="start" x="159.88" y="-175.5" font-family="Helvetica,sans-Serif" font-size="10.00" fill="grey">asyncionext</text>
<text xml:space="preserve" text-anchor="start" x="159.88" y="-159.5" font-family="Helvetica,sans-Serif" font-size="10.00" fill="grey">asyncioprev</text>
<text xml:space="preserve" text-anchor="start" x="159.88" y="-143.5" font-family="Helvetica,sans-Serif" font-size="10.00" fill="grey">queuenext</text>
<text xml:space="preserve" text-anchor="start" x="159.88" y="-127.5" font-family="Helvetica,sans-Serif" font-size="10.00" fill="grey">queueprev</text>
<text xml:space="preserve" text-anchor="start" x="159.88" y="-111.5" font-family="Helvetica,sans-Serif" font-size="10.00" fill="grey">threadpoolnext</text>
<text xml:space="preserve" text-anchor="start" x="159.88" y="-95.5" font-family="Helvetica,sans-Serif" font-size="10.00" fill="grey">threadpoolprev</text>
</g>
<!-- Node3 -->
<g id="Node000003" class="node">
<title>Node3</title>
<g id="a_Node000003"><a xlink:href="../../da/d74/structSDL__AsyncIO.html" target="_top" xlink:title=" ">
<polygon fill="white" stroke="#666666" points="301.38,-20 222.38,-20 222.38,0 301.38,0 301.38,-20"/>
<text xml:space="preserve" text-anchor="middle" x="261.88" y="-6.5" font-family="Helvetica,sans-Serif" font-size="10.00">SDL_AsyncIO</text>
</a>
</g>
</g>
<!-- Node2&#45;&gt;Node3 -->
<g id="edge8_Node000003_Node000002" class="edge">
<title>Node2&#45;&gt;Node3</title>
<g id="a_edge8_Node000003_Node000002"><a xlink:title=" ">
<path fill="none" stroke="#9a32cd" stroke-dasharray="5,2" d="M117.67,-123.33C140.48,-111.07 172.59,-92.37 197.88,-72 214.09,-58.93 215,-52.32 230.12,-38 236.53,-31.93 244.05,-25.51 250.15,-20.46"/>
<polygon fill="#9a32cd" stroke="#9a32cd" points="116.14,-120.18 108.94,-127.94 119.41,-126.37 116.14,-120.18"/>
</a>
</g>
<text xml:space="preserve" text-anchor="start" x="233.12" y="-59.5" font-family="Helvetica,sans-Serif" font-size="10.00" fill="grey">closing</text>
<text xml:space="preserve" text-anchor="start" x="233.12" y="-43.5" font-family="Helvetica,sans-Serif" font-size="10.00" fill="grey">tasks</text>
</g>
<!-- Node3&#45;&gt;Node2 -->
<g id="edge2_Node000002_Node000003" class="edge">
<title>Node3&#45;&gt;Node2</title>
<g id="a_edge2_Node000002_Node000003"><a xlink:title=" ">
<path fill="none" stroke="#9a32cd" stroke-dasharray="5,2" d="M210.76,-16.87C192.92,-20.76 173.53,-27.24 158.12,-38 123.85,-61.95 101.17,-108.67 92.65,-128.61"/>
<polygon fill="#9a32cd" stroke="#9a32cd" points="211.27,-20.34 220.42,-15 209.94,-13.47 211.27,-20.34"/>
</a>
</g>
<text xml:space="preserve" text-anchor="start" x="161.12" y="-51.5" font-family="Helvetica,sans-Serif" font-size="10.00" fill="grey">asyncio</text>
</g>
<!-- Node4 -->
<g id="Node000004" class="node">
<title>Node4</title>
<g id="a_Node000004"><a xlink:href="../../d8/db4/structSDL__AsyncIOInterface.html" target="_top" xlink:title=" ">
<polygon fill="white" stroke="#666666" points="361.5,-149 244.25,-149 244.25,-129 361.5,-129 361.5,-149"/>
<text xml:space="preserve" text-anchor="middle" x="302.88" y="-135.5" font-family="Helvetica,sans-Serif" font-size="10.00">SDL_AsyncIOInterface</text>
</a>
</g>
</g>
<!-- Node4&#45;&gt;Node3 -->
<g id="edge3_Node000003_Node000004" class="edge">
<title>Node4&#45;&gt;Node3</title>
<g id="a_edge3_Node000003_Node000004"><a xlink:title=" ">
<path fill="none" stroke="#9a32cd" stroke-dasharray="5,2" d="M296.45,-118.11C287.48,-90.31 271.54,-40.95 264.91,-20.39"/>
<polygon fill="#9a32cd" stroke="#9a32cd" points="293.06,-118.99 299.46,-127.43 299.72,-116.83 293.06,-118.99"/>
</a>
</g>
<text xml:space="preserve" text-anchor="start" x="284.15" y="-51.5" font-family="Helvetica,sans-Serif" font-size="10.00" fill="grey">iface</text>
</g>
<!-- Node5 -->
<g id="Node000005" class="node">
<title>Node5</title>
<g id="a_Node000005"><a xlink:href="../../d0/df2/structSDL__Mutex.html" target="_top" xlink:title=" ">
<polygon fill="white" stroke="#666666" points="447.75,-149 380,-149 380,-129 447.75,-129 447.75,-149"/>
<text xml:space="preserve" text-anchor="middle" x="413.88" y="-135.5" font-family="Helvetica,sans-Serif" font-size="10.00">SDL_Mutex</text>
</a>
</g>
</g>
<!-- Node5&#45;&gt;Node3 -->
<g id="edge4_Node000003_Node000005" class="edge">
<title>Node5&#45;&gt;Node3</title>
<g id="a_edge4_Node000003_Node000005"><a xlink:title=" ">
<path fill="none" stroke="#9a32cd" stroke-dasharray="5,2" d="M399.03,-120.17C380.38,-98.61 346.61,-62.21 311.88,-38 302.33,-31.34 290.96,-25.09 281.47,-20.28"/>
<polygon fill="#9a32cd" stroke="#9a32cd" points="396.14,-122.17 405.28,-127.52 401.47,-117.64 396.14,-122.17"/>
</a>
</g>
<text xml:space="preserve" text-anchor="start" x="354.22" y="-51.5" font-family="Helvetica,sans-Serif" font-size="10.00" fill="grey">lock</text>
</g>
<!-- Node6 -->
<g id="Node000006" class="node">
<title>Node6</title>
<g id="a_Node000006"><a xlink:href="../../d8/d0b/structSDL__Semaphore.html" target="_top" xlink:title=" ">
<polygon fill="white" stroke="#666666" points="531,-20 440.75,-20 440.75,0 531,0 531,-20"/>
<text xml:space="preserve" text-anchor="middle" x="485.88" y="-6.5" font-family="Helvetica,sans-Serif" font-size="10.00">SDL_Semaphore</text>
</a>
</g>
</g>
<!-- Node5&#45;&gt;Node6 -->
<g id="edge6_Node000006_Node000005" class="edge">
<title>Node5&#45;&gt;Node6</title>
<g id="a_edge6_Node000006_Node000005"><a xlink:title=" ">
<path fill="none" stroke="#9a32cd" stroke-dasharray="5,2" d="M405.49,-118.08C397.79,-96.3 389.87,-61.41 406.62,-38 414.58,-26.89 427.37,-20.3 440.39,-16.4"/>
<polygon fill="#9a32cd" stroke="#9a32cd" points="402.17,-119.19 409.05,-127.26 408.7,-116.67 402.17,-119.19"/>
</a>
</g>
<text xml:space="preserve" text-anchor="start" x="409.62" y="-51.5" font-family="Helvetica,sans-Serif" font-size="10.00" fill="grey">count_lock</text>
</g>
<!-- Node6&#45;&gt;Node5 -->
<g id="edge5_Node000005_Node000006" class="edge">
<title>Node6&#45;&gt;Node5</title>
<g id="a_edge5_Node000005_Node000006"><a xlink:title=" ">
<path fill="none" stroke="#9a32cd" stroke-dasharray="5,2" d="M480.25,-31.3C476.46,-43.49 470.88,-59.09 463.88,-72 451.94,-93.98 433.13,-116.57 422.31,-128.79"/>
<polygon fill="#9a32cd" stroke="#9a32cd" points="483.54,-32.5 483,-21.92 476.83,-30.53 483.54,-32.5"/>
</a>
</g>
<text xml:space="preserve" text-anchor="start" x="481.08" y="-51.5" font-family="Helvetica,sans-Serif" font-size="10.00" fill="grey">sem</text>
</g>
<!-- Node7 -->
<g id="Node000007" class="node">
<title>Node7</title>
<g id="a_Node000007"><a xlink:href="../../d0/d07/structSDL__Condition.html" target="_top" xlink:title=" ">
<polygon fill="white" stroke="#666666" points="574.88,-149 492.88,-149 492.88,-129 574.88,-129 574.88,-149"/>
<text xml:space="preserve" text-anchor="middle" x="533.88" y="-135.5" font-family="Helvetica,sans-Serif" font-size="10.00">SDL_Condition</text>
</a>
</g>
</g>
<!-- Node7&#45;&gt;Node6 -->
<g id="edge7_Node000006_Node000007" class="edge">
<title>Node7&#45;&gt;Node6</title>
<g id="a_edge7_Node000006_Node000007"><a xlink:title=" ">
<path fill="none" stroke="#9a32cd" stroke-dasharray="5,2" d="M532.6,-117.2C530.58,-96.14 525.35,-63.18 511.88,-38 508.31,-31.34 502.64,-25.18 497.5,-20.42"/>
<polygon fill="#9a32cd" stroke="#9a32cd" points="529.11,-117.39 533.38,-127.09 536.09,-116.84 529.11,-117.39"/>
</a>
</g>
<text xml:space="preserve" text-anchor="start" x="527.74" y="-51.5" font-family="Helvetica,sans-Serif" font-size="10.00" fill="grey">count_nonzero</text>
</g>
<!-- Node8&#45;&gt;Node2 -->
<g id="edge9_Node000002_Node000008" class="edge">
<title>Node8&#45;&gt;Node2</title>
<g id="a_edge9_Node000002_Node000008"><a xlink:title=" ">
<path fill="none" stroke="#9a32cd" stroke-dasharray="5,2" d="M186.19,-240.73C161.68,-215.36 116.8,-168.91 97.78,-149.22"/>
<polygon fill="#9a32cd" stroke="#9a32cd" points="183.41,-242.89 192.88,-247.65 188.45,-238.03 183.41,-242.89"/>
</a>
</g>
<text xml:space="preserve" text-anchor="start" x="172.19" y="-211.5" font-family="Helvetica,sans-Serif" font-size="10.00" fill="grey">queue</text>
</g>
<!-- Node9 -->
<g id="Node000009" class="node">
<title>Node9</title>
<g id="a_Node000009"><a xlink:href="../../d1/dbc/structSDL__AtomicInt.html" target="_top" xlink:title=" ">
<polygon fill="white" stroke="#666666" points="246.25,-350 163.5,-350 163.5,-330 246.25,-330 246.25,-350"/>
<text xml:space="preserve" text-anchor="middle" x="204.88" y="-336.5" font-family="Helvetica,sans-Serif" font-size="10.00">SDL_AtomicInt</text>
</a>
</g>
</g>
<!-- Node9&#45;&gt;Node8 -->
<g id="edge11_Node000008_Node000009" class="edge">
<title>Node9&#45;&gt;Node8</title>
<g id="a_edge11_Node000008_Node000009"><a xlink:title=" ">
<path fill="none" stroke="#9a32cd" stroke-dasharray="5,2" d="M204.35,-318.32C203.95,-302.48 203.42,-281.35 203.11,-269.36"/>
<polygon fill="#9a32cd" stroke="#9a32cd" points="200.85,-318.21 204.6,-328.11 207.85,-318.03 200.85,-318.21"/>
</a>
</g>
<text xml:space="preserve" text-anchor="start" x="207.17" y="-299.5" font-family="Helvetica,sans-Serif" font-size="10.00" fill="grey">tasks_inflight</text>
</g>
</g>
</svg>
