<?xml version="1.0" encoding="UTF-8" standalone="no"?>
<!DOCTYPE svg PUBLIC "-//W3C//DTD SVG 1.1//EN"
 "http://www.w3.org/Graphics/SVG/1.1/DTD/svg11.dtd">
<!-- Generated by graphviz version 13.1.0 (20250701.0955)
 -->
<!-- Title: CallbackLooper Pages: 1 -->
<svg width="114pt" height="176pt"
 viewBox="0.00 0.00 114.00 176.00" xmlns="http://www.w3.org/2000/svg" xmlns:xlink="http://www.w3.org/1999/xlink">
<g id="graph0" class="graph" transform="scale(1 1) rotate(0) translate(4 172)">
<title>CallbackLooper</title>
<!-- Node1 -->
<g id="Node000001" class="node">
<title>Node1</title>
<g id="a_Node000001"><a xlink:title=" ">
<polygon fill="#999999" stroke="#666666" points="94.75,-20 11.25,-20 11.25,0 94.75,0 94.75,-20"/>
<text xml:space="preserve" text-anchor="middle" x="53" y="-6.5" font-family="Helvetica,sans-Serif" font-size="10.00">CallbackLooper</text>
</a>
</g>
</g>
<!-- Node2 -->
<g id="Node000002" class="node">
<title>Node2</title>
<g id="a_Node000002"><a xlink:href="../../dc/d2f/classSDLBRefFilter.html" target="_top" xlink:title=" ">
<polygon fill="white" stroke="#666666" points="92.88,-94 13.12,-94 13.12,-74 92.88,-74 92.88,-94"/>
<text xml:space="preserve" text-anchor="middle" x="53" y="-80.5" font-family="Helvetica,sans-Serif" font-size="10.00">SDLBRefFilter</text>
</a>
</g>
</g>
<!-- Node2&#45;&gt;Node1 -->
<g id="edge1_Node000001_Node000002" class="edge">
<title>Node2&#45;&gt;Node1</title>
<g id="a_edge1_Node000001_Node000002"><a xlink:title=" ">
<path fill="none" stroke="#9a32cd" stroke-dasharray="5,2" d="M53,-62.18C53,-48.29 53,-30.71 53,-20.19"/>
<polygon fill="#9a32cd" stroke="#9a32cd" points="49.5,-62.07 53,-72.07 56.5,-62.07 49.5,-62.07"/>
</a>
</g>
<text xml:space="preserve" text-anchor="start" x="56" y="-43.5" font-family="Helvetica,sans-Serif" font-size="10.00" fill="grey">m_filter</text>
</g>
<!-- Node3 -->
<g id="Node000003" class="node">
<title>Node3</title>
<g id="a_Node000003"><a xlink:href="../../d0/d89/structSDL__DialogFileFilter.html" target="_top" xlink:title=" ">
<polygon fill="white" stroke="#666666" points="106,-168 0,-168 0,-148 106,-148 106,-168"/>
<text xml:space="preserve" text-anchor="middle" x="53" y="-154.5" font-family="Helvetica,sans-Serif" font-size="10.00">SDL_DialogFileFilter</text>
</a>
</g>
</g>
<!-- Node3&#45;&gt;Node2 -->
<g id="edge2_Node000002_Node000003" class="edge">
<title>Node3&#45;&gt;Node2</title>
<g id="a_edge2_Node000002_Node000003"><a xlink:title=" ">
<path fill="none" stroke="#9a32cd" stroke-dasharray="5,2" d="M53,-136.18C53,-122.29 53,-104.71 53,-94.19"/>
<polygon fill="#9a32cd" stroke="#9a32cd" points="49.5,-136.07 53,-146.07 56.5,-136.07 49.5,-136.07"/>
</a>
</g>
<text xml:space="preserve" text-anchor="start" x="56" y="-117.5" font-family="Helvetica,sans-Serif" font-size="10.00" fill="grey">m_filters</text>
</g>
</g>
</svg>
