<?xml version="1.0" encoding="UTF-8" standalone="no"?>
<!DOCTYPE svg PUBLIC "-//W3C//DTD SVG 1.1//EN"
 "http://www.w3.org/Graphics/SVG/1.1/DTD/svg11.dtd">
<!-- Generated by graphviz version 13.1.0 (20250701.0955)
 -->
<!-- Title: SDL_uclibc_atan Pages: 1 -->
<svg width="491pt" height="85pt"
 viewBox="0.00 0.00 491.00 85.00" xmlns="http://www.w3.org/2000/svg" xmlns:xlink="http://www.w3.org/1999/xlink">

<svg id="main" version="1.1" xmlns="http://www.w3.org/2000/svg" xmlns:xlink="http://www.w3.org/1999/xlink" xml:space="preserve">

<style type="text/css"><![CDATA[
.node, .edge {opacity: 0.7;}
.node.selected, .edge.selected {opacity: 1;}
.edge:hover path { stroke: red; }
.edge:hover polygon { stroke: red; fill: red; }
]]></style>
<script type="application/ecmascript" xlink:href="../../svg.min.js"/>
<svg id="graph" class="graph">
<g id="graph0" class="graph" transform="scale(1 1) rotate(0) translate(4 81)">
<title>SDL_uclibc_atan</title>
<!-- Node1 -->
<g id="Node000001" class="node">
<title>Node1</title>
<g id="a_Node000001"><a xlink:title=" ">
<polygon fill="#999999" stroke="#666666" points="482.75,-39 392.5,-39 392.5,-19 482.75,-19 482.75,-39"/>
<text xml:space="preserve" text-anchor="middle" x="437.62" y="-25.5" font-family="Helvetica,sans-Serif" font-size="10.00">SDL_uclibc_atan</text>
</a>
</g>
</g>
<!-- Node2 -->
<g id="Node000002" class="node">
<title>Node2</title>
<g id="a_Node000002"><a xlink:href="../../d3/d02/SDL__stdlib_8c.html#a788072ac8949a31b064fe7ae7058cebf" target="_top" xlink:title=" ">
<polygon fill="white" stroke="#666666" points="356.5,-39 297,-39 297,-19 356.5,-19 356.5,-39"/>
<text xml:space="preserve" text-anchor="middle" x="326.75" y="-25.5" font-family="Helvetica,sans-Serif" font-size="10.00">SDL_atan</text>
</a>
</g>
</g>
<!-- Node1&#45;&gt;Node2 -->
<g id="edge1_Node000001_Node000002" class="edge">
<title>Node1&#45;&gt;Node2</title>
<g id="a_edge1_Node000001_Node000002"><a xlink:title=" ">
<path fill="none" stroke="#63b8ff" d="M380.79,-29C372.51,-29 364.28,-29 356.86,-29"/>
<polygon fill="#63b8ff" stroke="#63b8ff" points="380.51,-32.5 390.51,-29 380.51,-25.5 380.51,-32.5"/>
</a>
</g>
</g>
<!-- Node3 -->
<g id="Node000003" class="node">
<title>Node3</title>
<g id="a_Node000003"><a xlink:href="../../d3/d02/SDL__stdlib_8c.html#a8c9c050ae2636209aaa2bd1bb3ed3a14" target="_top" xlink:title=" ">
<polygon fill="white" stroke="#666666" points="260.62,-58 198.88,-58 198.88,-38 260.62,-38 260.62,-58"/>
<text xml:space="preserve" text-anchor="middle" x="229.75" y="-44.5" font-family="Helvetica,sans-Serif" font-size="10.00">SDL_acos</text>
</a>
</g>
</g>
<!-- Node2&#45;&gt;Node3 -->
<g id="edge2_Node000002_Node000003" class="edge">
<title>Node2&#45;&gt;Node3</title>
<g id="a_edge2_Node000002_Node000003"><a xlink:title=" ">
<path fill="none" stroke="#63b8ff" d="M285.7,-37.01C277.4,-38.67 268.78,-40.39 260.91,-41.97"/>
<polygon fill="#63b8ff" stroke="#63b8ff" points="286.13,-40.49 295.25,-35.1 284.75,-33.63 286.13,-40.49"/>
</a>
</g>
</g>
<!-- Node7 -->
<g id="Node000007" class="node">
<title>Node7</title>
<g id="a_Node000007"><a xlink:href="../../d3/d02/SDL__stdlib_8c.html#a360a0b4f02fd7b9b0319eb6b43725d65" target="_top" xlink:title=" ">
<polygon fill="white" stroke="#666666" points="261,-20 198.5,-20 198.5,0 261,0 261,-20"/>
<text xml:space="preserve" text-anchor="middle" x="229.75" y="-6.5" font-family="Helvetica,sans-Serif" font-size="10.00">SDL_atanf</text>
</a>
</g>
</g>
<!-- Node2&#45;&gt;Node7 -->
<g id="edge6_Node000002_Node000007" class="edge">
<title>Node2&#45;&gt;Node7</title>
<g id="a_edge6_Node000002_Node000007"><a xlink:title=" ">
<path fill="none" stroke="#63b8ff" d="M285.53,-20.96C277.4,-19.33 268.97,-17.64 261.24,-16.1"/>
<polygon fill="#63b8ff" stroke="#63b8ff" points="284.75,-24.37 295.25,-22.9 286.13,-17.51 284.75,-24.37"/>
</a>
</g>
</g>
<!-- Node4 -->
<g id="Node000004" class="node">
<title>Node4</title>
<g id="a_Node000004"><a xlink:href="../../d3/d02/SDL__stdlib_8c.html#a14baa47bc0619389b42fc01148d32474" target="_top" xlink:title=" ">
<polygon fill="white" stroke="#666666" points="162.5,-77 97.75,-77 97.75,-57 162.5,-57 162.5,-77"/>
<text xml:space="preserve" text-anchor="middle" x="130.12" y="-63.5" font-family="Helvetica,sans-Serif" font-size="10.00">SDL_acosf</text>
</a>
</g>
</g>
<!-- Node3&#45;&gt;Node4 -->
<g id="edge3_Node000003_Node000004" class="edge">
<title>Node3&#45;&gt;Node4</title>
<g id="a_edge3_Node000003_Node000004"><a xlink:title=" ">
<path fill="none" stroke="#63b8ff" d="M187.15,-56.1C179,-57.68 170.57,-59.32 162.81,-60.83"/>
<polygon fill="#63b8ff" stroke="#63b8ff" points="187.76,-59.54 196.91,-54.2 186.43,-52.67 187.76,-59.54"/>
</a>
</g>
</g>
<!-- Node5 -->
<g id="Node000005" class="node">
<title>Node5</title>
<g id="a_Node000005"><a xlink:href="../../d3/d02/SDL__stdlib_8c.html#ad04476d1325fef67558cfe64cb8743dc" target="_top" xlink:title=" ">
<polygon fill="white" stroke="#666666" points="159.5,-39 100.75,-39 100.75,-19 159.5,-19 159.5,-39"/>
<text xml:space="preserve" text-anchor="middle" x="130.12" y="-25.5" font-family="Helvetica,sans-Serif" font-size="10.00">SDL_asin</text>
</a>
</g>
</g>
<!-- Node3&#45;&gt;Node5 -->
<g id="edge4_Node000003_Node000005" class="edge">
<title>Node3&#45;&gt;Node5</title>
<g id="a_edge4_Node000003_Node000005"><a xlink:title=" ">
<path fill="none" stroke="#63b8ff" d="M187.35,-39.94C178.07,-38.14 168.42,-36.26 159.79,-34.58"/>
<polygon fill="#63b8ff" stroke="#63b8ff" points="186.43,-43.33 196.91,-41.8 187.76,-36.46 186.43,-43.33"/>
</a>
</g>
</g>
<!-- Node6 -->
<g id="Node000006" class="node">
<title>Node6</title>
<g id="a_Node000006"><a xlink:href="../../d3/d02/SDL__stdlib_8c.html#ad4f3bc06f5e54fa794d6ac2d1d01bc7c" target="_top" xlink:title=" ">
<polygon fill="white" stroke="#666666" points="61.75,-39 0,-39 0,-19 61.75,-19 61.75,-39"/>
<text xml:space="preserve" text-anchor="middle" x="30.88" y="-25.5" font-family="Helvetica,sans-Serif" font-size="10.00">SDL_asinf</text>
</a>
</g>
</g>
<!-- Node5&#45;&gt;Node6 -->
<g id="edge5_Node000005_Node000006" class="edge">
<title>Node5&#45;&gt;Node6</title>
<g id="a_edge5_Node000005_Node000006"><a xlink:title=" ">
<path fill="none" stroke="#63b8ff" d="M88.96,-29C79.95,-29 70.54,-29 62.01,-29"/>
<polygon fill="#63b8ff" stroke="#63b8ff" points="88.96,-32.5 98.96,-29 88.96,-25.5 88.96,-32.5"/>
</a>
</g>
</g>
</g>
</svg>
</svg>

<style type='text/css'>
<![CDATA[
[data-mouse-over-selected='false'] { opacity: 0.7; }
[data-mouse-over-selected='true']  { opacity: 1.0; }
]]>
</style>
<script type="application/ecmascript"><![CDATA[
document.addEventListener('DOMContentLoaded', (event) => {
  highlightEdges();
  highlightAdjacentNodes();
});
]]></script>
</svg>
