<?xml version="1.0" encoding="UTF-8" standalone="no"?>
<!DOCTYPE svg PUBLIC "-//W3C//DTD SVG 1.1//EN"
 "http://www.w3.org/Graphics/SVG/1.1/DTD/svg11.dtd">
<!-- Generated by graphviz version 13.1.0 (20250701.0955)
 -->
<!-- Title: VkEnumerateInstanceVersionChain Pages: 1 -->
<svg width="221pt" height="114pt"
 viewBox="0.00 0.00 221.00 114.00" xmlns="http://www.w3.org/2000/svg" xmlns:xlink="http://www.w3.org/1999/xlink">
<g id="graph0" class="graph" transform="scale(1 1) rotate(0) translate(4 110)">
<title>VkEnumerateInstanceVersionChain</title>
<!-- Node1 -->
<g id="Node000001" class="node">
<title>Node1</title>
<g id="a_Node000001"><a xlink:title=" ">
<polygon fill="#999999" stroke="#666666" points="145,-32 0,-32 0,0 145,0 145,-32"/>
<text xml:space="preserve" text-anchor="start" x="8" y="-18.5" font-family="Helvetica,sans-Serif" font-size="10.00">VkEnumerateInstanceVersion</text>
<text xml:space="preserve" text-anchor="middle" x="72.5" y="-6.5" font-family="Helvetica,sans-Serif" font-size="10.00">Chain</text>
</a>
</g>
</g>
<!-- Node1&#45;&gt;Node1 -->
<g id="edge2_Node000001_Node000001" class="edge">
<title>Node1&#45;&gt;Node1</title>
<g id="a_edge2_Node000001_Node000001"><a xlink:title=" ">
<path fill="none" stroke="#9a32cd" stroke-dasharray="5,2" d="M156.56,-21.14C160.62,-19.85 163,-18.14 163,-16 163,-12.3 155.87,-9.88 145.29,-8.72"/>
<polygon fill="#9a32cd" stroke="#9a32cd" points="155.95,-17.69 146.78,-22.99 157.25,-24.57 155.95,-17.69"/>
</a>
</g>
<text xml:space="preserve" text-anchor="start" x="166" y="-12.5" font-family="Helvetica,sans-Serif" font-size="10.00" fill="grey">pNextLink</text>
</g>
<!-- Node2 -->
<g id="Node000002" class="node">
<title>Node2</title>
<g id="a_Node000002"><a xlink:href="../../df/d19/structVkChainHeader.html" target="_top" xlink:title=" ">
<polygon fill="white" stroke="#666666" points="115,-106 30,-106 30,-86 115,-86 115,-106"/>
<text xml:space="preserve" text-anchor="middle" x="72.5" y="-92.5" font-family="Helvetica,sans-Serif" font-size="10.00">VkChainHeader</text>
</a>
</g>
</g>
<!-- Node2&#45;&gt;Node1 -->
<g id="edge1_Node000001_Node000002" class="edge">
<title>Node2&#45;&gt;Node1</title>
<g id="a_edge1_Node000001_Node000002"><a xlink:title=" ">
<path fill="none" stroke="#9a32cd" stroke-dasharray="5,2" d="M72.5,-74.51C72.5,-61.32 72.5,-44.47 72.5,-32.42"/>
<polygon fill="#9a32cd" stroke="#9a32cd" points="69,-74.23 72.5,-84.23 76,-74.23 69,-74.23"/>
</a>
</g>
<text xml:space="preserve" text-anchor="start" x="75.5" y="-55.5" font-family="Helvetica,sans-Serif" font-size="10.00" fill="grey">header</text>
</g>
</g>
</svg>
