<?xml version="1.0" encoding="UTF-8" standalone="no"?>
<!DOCTYPE svg PUBLIC "-//W3C//DTD SVG 1.1//EN"
 "http://www.w3.org/Graphics/SVG/1.1/DTD/svg11.dtd">
<!-- Generated by graphviz version 13.1.0 (20250701.0955)
 -->
<!-- Title: VkCopyMemoryToImageIndirectCommandNV Pages: 1 -->
<svg width="335pt" height="114pt"
 viewBox="0.00 0.00 335.00 114.00" xmlns="http://www.w3.org/2000/svg" xmlns:xlink="http://www.w3.org/1999/xlink">

<svg id="main" version="1.1" xmlns="http://www.w3.org/2000/svg" xmlns:xlink="http://www.w3.org/1999/xlink" xml:space="preserve">

<style type="text/css"><![CDATA[
.node, .edge {opacity: 0.7;}
.node.selected, .edge.selected {opacity: 1;}
.edge:hover path { stroke: red; }
.edge:hover polygon { stroke: red; fill: red; }
]]></style>
<script type="application/ecmascript" xlink:href="../../svg.min.js"/>
<svg id="graph" class="graph">
<g id="graph0" class="graph" transform="scale(1 1) rotate(0) translate(4 110)">
<title>VkCopyMemoryToImageIndirectCommandNV</title>
<!-- Node1 -->
<g id="Node000001" class="node">
<title>Node1</title>
<g id="a_Node000001"><a xlink:title=" ">
<polygon fill="#999999" stroke="#666666" points="268.62,-32 112.38,-32 112.38,0 268.62,0 268.62,-32"/>
<text xml:space="preserve" text-anchor="start" x="120.38" y="-18.5" font-family="Helvetica,sans-Serif" font-size="10.00">VkCopyMemoryToImageIndirect</text>
<text xml:space="preserve" text-anchor="middle" x="190.5" y="-6.5" font-family="Helvetica,sans-Serif" font-size="10.00">CommandNV</text>
</a>
</g>
</g>
<!-- Node2 -->
<g id="Node000002" class="node">
<title>Node2</title>
<g id="a_Node000002"><a xlink:href="../../d6/db6/structVkImageSubresourceLayers.html" target="_top" xlink:title=" ">
<polygon fill="white" stroke="#666666" points="139,-106 0,-106 0,-86 139,-86 139,-106"/>
<text xml:space="preserve" text-anchor="middle" x="69.5" y="-92.5" font-family="Helvetica,sans-Serif" font-size="10.00">VkImageSubresourceLayers</text>
</a>
</g>
</g>
<!-- Node2&#45;&gt;Node1 -->
<g id="edge1_Node000001_Node000002" class="edge">
<title>Node2&#45;&gt;Node1</title>
<g id="a_edge1_Node000001_Node000002"><a xlink:title=" ">
<path fill="none" stroke="#9a32cd" stroke-dasharray="5,2" d="M78.65,-75.83C83.73,-66.94 90.78,-56.84 99.5,-50 108.75,-42.74 119.75,-36.98 130.85,-32.45"/>
<polygon fill="#9a32cd" stroke="#9a32cd" points="75.68,-73.96 74.17,-84.45 81.89,-77.2 75.68,-73.96"/>
</a>
</g>
<text xml:space="preserve" text-anchor="start" x="102.5" y="-55.5" font-family="Helvetica,sans-Serif" font-size="10.00" fill="grey">imageSubresource</text>
</g>
<!-- Node3 -->
<g id="Node000003" class="node">
<title>Node3</title>
<g id="a_Node000003"><a xlink:href="../../d7/d88/structVkOffset3D.html" target="_top" xlink:title=" ">
<polygon fill="white" stroke="#666666" points="224,-106 157,-106 157,-86 224,-86 224,-106"/>
<text xml:space="preserve" text-anchor="middle" x="190.5" y="-92.5" font-family="Helvetica,sans-Serif" font-size="10.00">VkOffset3D</text>
</a>
</g>
</g>
<!-- Node3&#45;&gt;Node1 -->
<g id="edge2_Node000001_Node000003" class="edge">
<title>Node3&#45;&gt;Node1</title>
<g id="a_edge2_Node000001_Node000003"><a xlink:title=" ">
<path fill="none" stroke="#9a32cd" stroke-dasharray="5,2" d="M190.5,-74.51C190.5,-61.32 190.5,-44.47 190.5,-32.42"/>
<polygon fill="#9a32cd" stroke="#9a32cd" points="187,-74.23 190.5,-84.23 194,-74.23 187,-74.23"/>
</a>
</g>
<text xml:space="preserve" text-anchor="start" x="193.5" y="-55.5" font-family="Helvetica,sans-Serif" font-size="10.00" fill="grey">imageOffset</text>
</g>
<!-- Node4 -->
<g id="Node000004" class="node">
<title>Node4</title>
<g id="a_Node000004"><a xlink:href="../../d0/d02/structVkExtent3D.html" target="_top" xlink:title=" ">
<polygon fill="white" stroke="#666666" points="311.12,-106 241.88,-106 241.88,-86 311.12,-86 311.12,-106"/>
<text xml:space="preserve" text-anchor="middle" x="276.5" y="-92.5" font-family="Helvetica,sans-Serif" font-size="10.00">VkExtent3D</text>
</a>
</g>
</g>
<!-- Node4&#45;&gt;Node1 -->
<g id="edge3_Node000001_Node000004" class="edge">
<title>Node4&#45;&gt;Node1</title>
<g id="a_edge3_Node000001_Node000004"><a xlink:title=" ">
<path fill="none" stroke="#9a32cd" stroke-dasharray="5,2" d="M269.49,-75.1C265.75,-66.6 260.46,-57.03 253.5,-50 246.55,-42.98 237.79,-37.13 229.03,-32.39"/>
<polygon fill="#9a32cd" stroke="#9a32cd" points="266.19,-76.26 273.09,-84.29 272.7,-73.71 266.19,-76.26"/>
</a>
</g>
<text xml:space="preserve" text-anchor="start" x="269.07" y="-55.5" font-family="Helvetica,sans-Serif" font-size="10.00" fill="grey">imageExtent</text>
</g>
</g>
</svg>
</svg>

<style type='text/css'>
<![CDATA[
[data-mouse-over-selected='false'] { opacity: 0.7; }
[data-mouse-over-selected='true']  { opacity: 1.0; }
]]>
</style>
<script type="application/ecmascript"><![CDATA[
document.addEventListener('DOMContentLoaded', (event) => {
  highlightEdges();
  highlightAdjacentNodes();
});
]]></script>
</svg>
