<?xml version="1.0" encoding="UTF-8" standalone="no"?>
<!DOCTYPE svg PUBLIC "-//W3C//DTD SVG 1.1//EN"
 "http://www.w3.org/Graphics/SVG/1.1/DTD/svg11.dtd">
<!-- Generated by graphviz version 13.1.0 (20250701.0955)
 -->
<!-- Title: SDL_Semaphore Pages: 1 -->
<svg width="123pt" height="176pt"
 viewBox="0.00 0.00 123.00 176.00" xmlns="http://www.w3.org/2000/svg" xmlns:xlink="http://www.w3.org/1999/xlink">

<svg id="main" version="1.1" xmlns="http://www.w3.org/2000/svg" xmlns:xlink="http://www.w3.org/1999/xlink" xml:space="preserve">

<style type="text/css"><![CDATA[
.node, .edge {opacity: 0.7;}
.node.selected, .edge.selected {opacity: 1;}
.edge:hover path { stroke: red; }
.edge:hover polygon { stroke: red; fill: red; }
]]></style>
<script type="application/ecmascript" xlink:href="../../svg.min.js"/>
<svg id="graph" class="graph">
<g id="graph0" class="graph" transform="scale(1 1) rotate(0) translate(4 172)">
<title>SDL_Semaphore</title>
<!-- Node1 -->
<g id="Node000001" class="node">
<title>Node1</title>
<g id="a_Node000001"><a xlink:title=" ">
<polygon fill="#999999" stroke="#666666" points="90.25,-94 0,-94 0,-74 90.25,-74 90.25,-94"/>
<text xml:space="preserve" text-anchor="middle" x="45.12" y="-80.5" font-family="Helvetica,sans-Serif" font-size="10.00">SDL_Semaphore</text>
</a>
</g>
</g>
<!-- Node2 -->
<g id="Node000002" class="node">
<title>Node2</title>
<g id="a_Node000002"><a xlink:href="../../d0/df2/structSDL__Mutex.html" target="_top" xlink:title=" ">
<polygon fill="white" stroke="#666666" points="79,-20 11.25,-20 11.25,0 79,0 79,-20"/>
<text xml:space="preserve" text-anchor="middle" x="45.12" y="-6.5" font-family="Helvetica,sans-Serif" font-size="10.00">SDL_Mutex</text>
</a>
</g>
</g>
<!-- Node1&#45;&gt;Node2 -->
<g id="edge2_Node000002_Node000001" class="edge">
<title>Node1&#45;&gt;Node2</title>
<g id="a_edge2_Node000002_Node000001"><a xlink:title=" ">
<path fill="none" stroke="#9a32cd" stroke-dasharray="5,2" d="M24.36,-65.72C21.93,-62.75 19.81,-59.48 18.38,-56 15.33,-48.6 15.33,-45.4 18.38,-38 21.24,-31.04 26.86,-24.93 32.21,-20.29"/>
<polygon fill="#9a32cd" stroke="#9a32cd" points="21.64,-67.95 31.15,-72.64 26.63,-63.05 21.64,-67.95"/>
</a>
</g>
<text xml:space="preserve" text-anchor="start" x="21.38" y="-43.5" font-family="Helvetica,sans-Serif" font-size="10.00" fill="grey">sem</text>
</g>
<!-- Node2&#45;&gt;Node1 -->
<g id="edge1_Node000001_Node000002" class="edge">
<title>Node2&#45;&gt;Node1</title>
<g id="a_edge1_Node000001_Node000002"><a xlink:title=" ">
<path fill="none" stroke="#9a32cd" stroke-dasharray="5,2" d="M46.82,-31.83C46.95,-33.91 47.05,-36 47.12,-38 47.42,-45.99 47.42,-48.01 47.12,-56 46.91,-61.82 46.43,-68.34 46,-73.51"/>
<polygon fill="#9a32cd" stroke="#9a32cd" points="50.32,-31.72 46.11,-22 43.34,-32.22 50.32,-31.72"/>
</a>
</g>
<text xml:space="preserve" text-anchor="start" x="50.35" y="-43.5" font-family="Helvetica,sans-Serif" font-size="10.00" fill="grey">count_lock</text>
</g>
<!-- Node3 -->
<g id="Node000003" class="node">
<title>Node3</title>
<g id="a_Node000003"><a xlink:href="../../d0/d07/structSDL__Condition.html" target="_top" xlink:title=" ">
<polygon fill="white" stroke="#666666" points="86.12,-168 4.12,-168 4.12,-148 86.12,-148 86.12,-168"/>
<text xml:space="preserve" text-anchor="middle" x="45.12" y="-154.5" font-family="Helvetica,sans-Serif" font-size="10.00">SDL_Condition</text>
</a>
</g>
</g>
<!-- Node3&#45;&gt;Node1 -->
<g id="edge3_Node000001_Node000003" class="edge">
<title>Node3&#45;&gt;Node1</title>
<g id="a_edge3_Node000001_Node000003"><a xlink:title=" ">
<path fill="none" stroke="#9a32cd" stroke-dasharray="5,2" d="M45.12,-136.18C45.12,-122.29 45.12,-104.71 45.12,-94.19"/>
<polygon fill="#9a32cd" stroke="#9a32cd" points="41.63,-136.07 45.13,-146.07 48.63,-136.07 41.63,-136.07"/>
</a>
</g>
<text xml:space="preserve" text-anchor="start" x="48.12" y="-117.5" font-family="Helvetica,sans-Serif" font-size="10.00" fill="grey">count_nonzero</text>
</g>
</g>
</svg>
</svg>

<style type='text/css'>
<![CDATA[
[data-mouse-over-selected='false'] { opacity: 0.7; }
[data-mouse-over-selected='true']  { opacity: 1.0; }
]]>
</style>
<script type="application/ecmascript"><![CDATA[
document.addEventListener('DOMContentLoaded', (event) => {
  highlightEdges();
  highlightAdjacentNodes();
});
]]></script>
</svg>
