<?xml version="1.0" encoding="UTF-8" standalone="no"?>
<!DOCTYPE svg PUBLIC "-//W3C//DTD SVG 1.1//EN"
 "http://www.w3.org/Graphics/SVG/1.1/DTD/svg11.dtd">
<!-- Generated by graphviz version 13.1.0 (20250701.0955)
 -->
<!-- Title: internal_bulk_free Pages: 1 -->
<svg width="386pt" height="180pt"
 viewBox="0.00 0.00 386.00 180.00" xmlns="http://www.w3.org/2000/svg" xmlns:xlink="http://www.w3.org/1999/xlink">
<g id="graph0" class="graph" transform="scale(1 1) rotate(0) translate(4 176)">
<title>internal_bulk_free</title>
<!-- Node1 -->
<g id="Node000001" class="node">
<title>Node1</title>
<g id="a_Node000001"><a xlink:title=" ">
<polygon fill="#999999" stroke="#666666" points="92.5,-115 0,-115 0,-95 92.5,-95 92.5,-115"/>
<text xml:space="preserve" text-anchor="middle" x="46.25" y="-101.5" font-family="Helvetica,sans-Serif" font-size="10.00">internal_bulk_free</text>
</a>
</g>
</g>
<!-- Node2 -->
<g id="Node000002" class="node">
<title>Node2</title>
<g id="a_Node000002"><a xlink:href="../../d4/d23/SDL__malloc_8c.html#a2d20e33b2d417733503759c0594f882d" target="_top" xlink:title=" ">
<polygon fill="white" stroke="#666666" points="209.75,-134 128.5,-134 128.5,-114 209.75,-114 209.75,-134"/>
<text xml:space="preserve" text-anchor="middle" x="169.12" y="-120.5" font-family="Helvetica,sans-Serif" font-size="10.00">dispose_chunk</text>
</a>
</g>
</g>
<!-- Node1&#45;&gt;Node2 -->
<g id="edge1_Node000001_Node000002" class="edge">
<title>Node1&#45;&gt;Node2</title>
<g id="a_edge1_Node000001_Node000002"><a xlink:title=" ">
<path fill="none" stroke="#63b8ff" d="M92.95,-112.18C100.85,-113.43 109.12,-114.73 117.16,-115.99"/>
<polygon fill="#63b8ff" stroke="#63b8ff" points="116.39,-119.41 126.81,-117.51 117.47,-112.49 116.39,-119.41"/>
</a>
</g>
</g>
<!-- Node3 -->
<g id="Node000003" class="node">
<title>Node3</title>
<g id="a_Node000003"><a xlink:href="../../d4/d23/SDL__malloc_8c.html#a3de256edbbbbd4018cd3563f55ee50ab" target="_top" xlink:title=" ">
<polygon fill="white" stroke="#666666" points="195.88,-96 142.38,-96 142.38,-76 195.88,-76 195.88,-96"/>
<text xml:space="preserve" text-anchor="middle" x="169.12" y="-82.5" font-family="Helvetica,sans-Serif" font-size="10.00">sys_trim</text>
</a>
</g>
</g>
<!-- Node1&#45;&gt;Node3 -->
<g id="edge2_Node000001_Node000003" class="edge">
<title>Node1&#45;&gt;Node3</title>
<g id="a_edge2_Node000001_Node000003"><a xlink:title=" ">
<path fill="none" stroke="#63b8ff" d="M92.95,-97.82C105.38,-95.86 118.7,-93.77 130.63,-91.89"/>
<polygon fill="#63b8ff" stroke="#63b8ff" points="131.17,-95.35 140.5,-90.34 130.08,-88.44 131.17,-95.35"/>
</a>
</g>
</g>
<!-- Node4 -->
<g id="Node000004" class="node">
<title>Node4</title>
<g id="a_Node000004"><a xlink:href="../../d4/d23/SDL__malloc_8c.html#ab22b9d57eca306724cb8c4f928d0e824" target="_top" xlink:title=" ">
<polygon fill="white" stroke="#666666" points="359.25,-172 264.5,-172 264.5,-152 359.25,-152 359.25,-172"/>
<text xml:space="preserve" text-anchor="middle" x="311.88" y="-158.5" font-family="Helvetica,sans-Serif" font-size="10.00">has_segment_link</text>
</a>
</g>
</g>
<!-- Node3&#45;&gt;Node4 -->
<g id="edge3_Node000003_Node000004" class="edge">
<title>Node3&#45;&gt;Node4</title>
<g id="a_edge3_Node000003_Node000004"><a xlink:title=" ">
<path fill="none" stroke="#63b8ff" d="M195.23,-96.32C200.23,-98.85 205.31,-101.76 209.75,-105 228.55,-118.7 225.89,-130.88 245.75,-143 248.21,-144.5 250.8,-145.89 253.47,-147.18"/>
<polygon fill="#63b8ff" stroke="#63b8ff" points="252.07,-150.39 262.65,-151.04 254.79,-143.94 252.07,-150.39"/>
</a>
</g>
</g>
<!-- Node5 -->
<g id="Node000005" class="node">
<title>Node5</title>
<g id="a_Node000005"><a xlink:href="../../d4/d23/SDL__malloc_8c.html#a09ce4644252dfd54eb489e77d0adfd20" target="_top" xlink:title=" ">
<polygon fill="white" stroke="#666666" points="335.62,-134 288.12,-134 288.12,-114 335.62,-114 335.62,-134"/>
<text xml:space="preserve" text-anchor="middle" x="311.88" y="-120.5" font-family="Helvetica,sans-Serif" font-size="10.00">init_top</text>
</a>
</g>
</g>
<!-- Node3&#45;&gt;Node5 -->
<g id="edge4_Node000003_Node000005" class="edge">
<title>Node3&#45;&gt;Node5</title>
<g id="a_edge4_Node000003_Node000005"><a xlink:title=" ">
<path fill="none" stroke="#63b8ff" d="M196.27,-93.06C218.92,-99.17 251.84,-108.06 276.6,-114.75"/>
<polygon fill="#63b8ff" stroke="#63b8ff" points="275.64,-118.11 286.21,-117.34 277.47,-111.36 275.64,-118.11"/>
</a>
</g>
</g>
<!-- Node6 -->
<g id="Node000006" class="node">
<title>Node6</title>
<g id="a_Node000006"><a xlink:href="../../d4/d23/SDL__malloc_8c.html#a949111e5f127c26e3b9f11bf26c8038a" target="_top" xlink:title=" ">
<polygon fill="white" stroke="#666666" points="378,-96 245.75,-96 245.75,-76 378,-76 378,-96"/>
<text xml:space="preserve" text-anchor="middle" x="311.88" y="-82.5" font-family="Helvetica,sans-Serif" font-size="10.00">release_unused_segments</text>
</a>
</g>
</g>
<!-- Node3&#45;&gt;Node6 -->
<g id="edge5_Node000003_Node000006" class="edge">
<title>Node3&#45;&gt;Node6</title>
<g id="a_edge5_Node000003_Node000006"><a xlink:title=" ">
<path fill="none" stroke="#63b8ff" d="M196.27,-86C207.14,-86 220.37,-86 233.94,-86"/>
<polygon fill="#63b8ff" stroke="#63b8ff" points="233.85,-89.5 243.85,-86 233.85,-82.5 233.85,-89.5"/>
</a>
</g>
</g>
<!-- Node7 -->
<g id="Node000007" class="node">
<title>Node7</title>
<g id="a_Node000007"><a xlink:href="../../d4/d23/SDL__malloc_8c.html#adc1656892fa59cbd2e3b60a2608dfefc" target="_top" xlink:title=" ">
<polygon fill="white" stroke="#666666" points="356.62,-58 267.12,-58 267.12,-38 356.62,-38 356.62,-58"/>
<text xml:space="preserve" text-anchor="middle" x="311.88" y="-44.5" font-family="Helvetica,sans-Serif" font-size="10.00">segment_holding</text>
</a>
</g>
</g>
<!-- Node3&#45;&gt;Node7 -->
<g id="edge6_Node000003_Node000007" class="edge">
<title>Node3&#45;&gt;Node7</title>
<g id="a_edge6_Node000003_Node000007"><a xlink:title=" ">
<path fill="none" stroke="#63b8ff" d="M196.27,-78.94C214.41,-74.04 239.15,-67.36 261,-61.46"/>
<polygon fill="#63b8ff" stroke="#63b8ff" points="261.91,-64.84 270.65,-58.86 260.09,-58.09 261.91,-64.84"/>
</a>
</g>
</g>
<!-- Node8 -->
<g id="Node000008" class="node">
<title>Node8</title>
<g id="a_Node000008"><a xlink:href="../../d3/dda/eglext_8h.html#a0f7193911e632cd84da4082d5c628fe3" target="_top" xlink:title=" ">
<polygon fill="white" stroke="#666666" points="328.88,-20 294.88,-20 294.88,0 328.88,0 328.88,-20"/>
<text xml:space="preserve" text-anchor="middle" x="311.88" y="-6.5" font-family="Helvetica,sans-Serif" font-size="10.00">void</text>
</a>
</g>
</g>
<!-- Node3&#45;&gt;Node8 -->
<g id="edge7_Node000003_Node000008" class="edge">
<title>Node3&#45;&gt;Node8</title>
<g id="a_edge7_Node000003_Node000008"><a xlink:title=" ">
<path fill="none" stroke="#63b8ff" d="M181.04,-75.71C195.02,-63.05 220.47,-41.68 245.75,-29 257.51,-23.1 271.42,-18.73 283.35,-15.68"/>
<polygon fill="#63b8ff" stroke="#63b8ff" points="284.07,-19.11 293,-13.41 282.47,-12.29 284.07,-19.11"/>
</a>
</g>
</g>
</g>
</svg>
