<?xml version="1.0" encoding="UTF-8" standalone="no"?>
<!DOCTYPE svg PUBLIC "-//W3C//DTD SVG 1.1//EN"
 "http://www.w3.org/Graphics/SVG/1.1/DTD/svg11.dtd">
<!-- Generated by graphviz version 13.1.0 (20250701.0955)
 -->
<!-- Title: dlbulk_free Pages: 1 -->
<svg width="485pt" height="180pt"
 viewBox="0.00 0.00 485.00 180.00" xmlns="http://www.w3.org/2000/svg" xmlns:xlink="http://www.w3.org/1999/xlink">
<g id="graph0" class="graph" transform="scale(1 1) rotate(0) translate(4 176)">
<title>dlbulk_free</title>
<!-- Node1 -->
<g id="Node000001" class="node">
<title>Node1</title>
<g id="a_Node000001"><a xlink:title=" ">
<polygon fill="#999999" stroke="#666666" points="63.25,-115 0,-115 0,-95 63.25,-95 63.25,-115"/>
<text xml:space="preserve" text-anchor="middle" x="31.62" y="-101.5" font-family="Helvetica,sans-Serif" font-size="10.00">dlbulk_free</text>
</a>
</g>
</g>
<!-- Node2 -->
<g id="Node000002" class="node">
<title>Node2</title>
<g id="a_Node000002"><a xlink:href="../../d4/d23/SDL__malloc_8c.html#aa2888b3de06df35c3b18b31b1e15fe8c" target="_top" xlink:title=" ">
<polygon fill="white" stroke="#666666" points="191.75,-115 99.25,-115 99.25,-95 191.75,-95 191.75,-115"/>
<text xml:space="preserve" text-anchor="middle" x="145.5" y="-101.5" font-family="Helvetica,sans-Serif" font-size="10.00">internal_bulk_free</text>
</a>
</g>
</g>
<!-- Node1&#45;&gt;Node2 -->
<g id="edge1_Node000001_Node000002" class="edge">
<title>Node1&#45;&gt;Node2</title>
<g id="a_edge1_Node000001_Node000002"><a xlink:title=" ">
<path fill="none" stroke="#63b8ff" d="M63.49,-105C71.05,-105 79.38,-105 87.73,-105"/>
<polygon fill="#63b8ff" stroke="#63b8ff" points="87.56,-108.5 97.56,-105 87.56,-101.5 87.56,-108.5"/>
</a>
</g>
</g>
<!-- Node3 -->
<g id="Node000003" class="node">
<title>Node3</title>
<g id="a_Node000003"><a xlink:href="../../d4/d23/SDL__malloc_8c.html#a2d20e33b2d417733503759c0594f882d" target="_top" xlink:title=" ">
<polygon fill="white" stroke="#666666" points="309,-134 227.75,-134 227.75,-114 309,-114 309,-134"/>
<text xml:space="preserve" text-anchor="middle" x="268.38" y="-120.5" font-family="Helvetica,sans-Serif" font-size="10.00">dispose_chunk</text>
</a>
</g>
</g>
<!-- Node2&#45;&gt;Node3 -->
<g id="edge2_Node000002_Node000003" class="edge">
<title>Node2&#45;&gt;Node3</title>
<g id="a_edge2_Node000002_Node000003"><a xlink:title=" ">
<path fill="none" stroke="#63b8ff" d="M192.2,-112.18C200.1,-113.43 208.37,-114.73 216.41,-115.99"/>
<polygon fill="#63b8ff" stroke="#63b8ff" points="215.64,-119.41 226.06,-117.51 216.72,-112.49 215.64,-119.41"/>
</a>
</g>
</g>
<!-- Node4 -->
<g id="Node000004" class="node">
<title>Node4</title>
<g id="a_Node000004"><a xlink:href="../../d4/d23/SDL__malloc_8c.html#a3de256edbbbbd4018cd3563f55ee50ab" target="_top" xlink:title=" ">
<polygon fill="white" stroke="#666666" points="295.12,-96 241.62,-96 241.62,-76 295.12,-76 295.12,-96"/>
<text xml:space="preserve" text-anchor="middle" x="268.38" y="-82.5" font-family="Helvetica,sans-Serif" font-size="10.00">sys_trim</text>
</a>
</g>
</g>
<!-- Node2&#45;&gt;Node4 -->
<g id="edge3_Node000002_Node000004" class="edge">
<title>Node2&#45;&gt;Node4</title>
<g id="a_edge3_Node000002_Node000004"><a xlink:title=" ">
<path fill="none" stroke="#63b8ff" d="M192.2,-97.82C204.63,-95.86 217.95,-93.77 229.88,-91.89"/>
<polygon fill="#63b8ff" stroke="#63b8ff" points="230.42,-95.35 239.75,-90.34 229.33,-88.44 230.42,-95.35"/>
</a>
</g>
</g>
<!-- Node5 -->
<g id="Node000005" class="node">
<title>Node5</title>
<g id="a_Node000005"><a xlink:href="../../d4/d23/SDL__malloc_8c.html#ab22b9d57eca306724cb8c4f928d0e824" target="_top" xlink:title=" ">
<polygon fill="white" stroke="#666666" points="458.5,-172 363.75,-172 363.75,-152 458.5,-152 458.5,-172"/>
<text xml:space="preserve" text-anchor="middle" x="411.12" y="-158.5" font-family="Helvetica,sans-Serif" font-size="10.00">has_segment_link</text>
</a>
</g>
</g>
<!-- Node4&#45;&gt;Node5 -->
<g id="edge4_Node000004_Node000005" class="edge">
<title>Node4&#45;&gt;Node5</title>
<g id="a_edge4_Node000004_Node000005"><a xlink:title=" ">
<path fill="none" stroke="#63b8ff" d="M294.48,-96.32C299.48,-98.85 304.56,-101.76 309,-105 327.8,-118.7 325.14,-130.88 345,-143 347.46,-144.5 350.05,-145.89 352.72,-147.18"/>
<polygon fill="#63b8ff" stroke="#63b8ff" points="351.32,-150.39 361.9,-151.04 354.04,-143.94 351.32,-150.39"/>
</a>
</g>
</g>
<!-- Node6 -->
<g id="Node000006" class="node">
<title>Node6</title>
<g id="a_Node000006"><a xlink:href="../../d4/d23/SDL__malloc_8c.html#a09ce4644252dfd54eb489e77d0adfd20" target="_top" xlink:title=" ">
<polygon fill="white" stroke="#666666" points="434.88,-134 387.38,-134 387.38,-114 434.88,-114 434.88,-134"/>
<text xml:space="preserve" text-anchor="middle" x="411.12" y="-120.5" font-family="Helvetica,sans-Serif" font-size="10.00">init_top</text>
</a>
</g>
</g>
<!-- Node4&#45;&gt;Node6 -->
<g id="edge5_Node000004_Node000006" class="edge">
<title>Node4&#45;&gt;Node6</title>
<g id="a_edge5_Node000004_Node000006"><a xlink:title=" ">
<path fill="none" stroke="#63b8ff" d="M295.52,-93.06C318.17,-99.17 351.09,-108.06 375.85,-114.75"/>
<polygon fill="#63b8ff" stroke="#63b8ff" points="374.89,-118.11 385.46,-117.34 376.72,-111.36 374.89,-118.11"/>
</a>
</g>
</g>
<!-- Node7 -->
<g id="Node000007" class="node">
<title>Node7</title>
<g id="a_Node000007"><a xlink:href="../../d4/d23/SDL__malloc_8c.html#a949111e5f127c26e3b9f11bf26c8038a" target="_top" xlink:title=" ">
<polygon fill="white" stroke="#666666" points="477.25,-96 345,-96 345,-76 477.25,-76 477.25,-96"/>
<text xml:space="preserve" text-anchor="middle" x="411.12" y="-82.5" font-family="Helvetica,sans-Serif" font-size="10.00">release_unused_segments</text>
</a>
</g>
</g>
<!-- Node4&#45;&gt;Node7 -->
<g id="edge6_Node000004_Node000007" class="edge">
<title>Node4&#45;&gt;Node7</title>
<g id="a_edge6_Node000004_Node000007"><a xlink:title=" ">
<path fill="none" stroke="#63b8ff" d="M295.52,-86C306.39,-86 319.62,-86 333.19,-86"/>
<polygon fill="#63b8ff" stroke="#63b8ff" points="333.1,-89.5 343.1,-86 333.1,-82.5 333.1,-89.5"/>
</a>
</g>
</g>
<!-- Node8 -->
<g id="Node000008" class="node">
<title>Node8</title>
<g id="a_Node000008"><a xlink:href="../../d4/d23/SDL__malloc_8c.html#adc1656892fa59cbd2e3b60a2608dfefc" target="_top" xlink:title=" ">
<polygon fill="white" stroke="#666666" points="455.88,-58 366.38,-58 366.38,-38 455.88,-38 455.88,-58"/>
<text xml:space="preserve" text-anchor="middle" x="411.12" y="-44.5" font-family="Helvetica,sans-Serif" font-size="10.00">segment_holding</text>
</a>
</g>
</g>
<!-- Node4&#45;&gt;Node8 -->
<g id="edge7_Node000004_Node000008" class="edge">
<title>Node4&#45;&gt;Node8</title>
<g id="a_edge7_Node000004_Node000008"><a xlink:title=" ">
<path fill="none" stroke="#63b8ff" d="M295.52,-78.94C313.66,-74.04 338.4,-67.36 360.25,-61.46"/>
<polygon fill="#63b8ff" stroke="#63b8ff" points="361.16,-64.84 369.9,-58.86 359.34,-58.09 361.16,-64.84"/>
</a>
</g>
</g>
<!-- Node9 -->
<g id="Node000009" class="node">
<title>Node9</title>
<g id="a_Node000009"><a xlink:href="../../d3/dda/eglext_8h.html#a0f7193911e632cd84da4082d5c628fe3" target="_top" xlink:title=" ">
<polygon fill="white" stroke="#666666" points="428.12,-20 394.12,-20 394.12,0 428.12,0 428.12,-20"/>
<text xml:space="preserve" text-anchor="middle" x="411.12" y="-6.5" font-family="Helvetica,sans-Serif" font-size="10.00">void</text>
</a>
</g>
</g>
<!-- Node4&#45;&gt;Node9 -->
<g id="edge8_Node000004_Node000009" class="edge">
<title>Node4&#45;&gt;Node9</title>
<g id="a_edge8_Node000004_Node000009"><a xlink:title=" ">
<path fill="none" stroke="#63b8ff" d="M280.29,-75.71C294.27,-63.05 319.72,-41.68 345,-29 356.76,-23.1 370.67,-18.73 382.6,-15.68"/>
<polygon fill="#63b8ff" stroke="#63b8ff" points="383.32,-19.11 392.25,-13.41 381.72,-12.29 383.32,-19.11"/>
</a>
</g>
</g>
</g>
</svg>
