<?xml version="1.0" encoding="UTF-8" standalone="no"?>
<!DOCTYPE svg PUBLIC "-//W3C//DTD SVG 1.1//EN"
 "http://www.w3.org/Graphics/SVG/1.1/DTD/svg11.dtd">
<!-- Generated by graphviz version 13.1.0 (20250701.0955)
 -->
<!-- Title: dlrealloc_in_place Pages: 1 -->
<svg width="417pt" height="66pt"
 viewBox="0.00 0.00 417.00 66.00" xmlns="http://www.w3.org/2000/svg" xmlns:xlink="http://www.w3.org/1999/xlink">
<g id="graph0" class="graph" transform="scale(1 1) rotate(0) translate(4 62)">
<title>dlrealloc_in_place</title>
<!-- Node1 -->
<g id="Node000001" class="node">
<title>Node1</title>
<g id="a_Node000001"><a xlink:title=" ">
<polygon fill="#999999" stroke="#666666" points="93.25,-39 0,-39 0,-19 93.25,-19 93.25,-39"/>
<text xml:space="preserve" text-anchor="middle" x="46.62" y="-25.5" font-family="Helvetica,sans-Serif" font-size="10.00">dlrealloc_in_place</text>
</a>
</g>
</g>
<!-- Node2 -->
<g id="Node000002" class="node">
<title>Node2</title>
<g id="a_Node000002"><a xlink:href="../../d4/d23/SDL__malloc_8c.html#af8adec320537d6e63bc68e76633a1f0e" target="_top" xlink:title=" ">
<polygon fill="white" stroke="#666666" points="221.75,-39 129.25,-39 129.25,-19 221.75,-19 221.75,-39"/>
<text xml:space="preserve" text-anchor="middle" x="175.5" y="-25.5" font-family="Helvetica,sans-Serif" font-size="10.00">try_realloc_chunk</text>
</a>
</g>
</g>
<!-- Node1&#45;&gt;Node2 -->
<g id="edge1_Node000001_Node000002" class="edge">
<title>Node1&#45;&gt;Node2</title>
<g id="a_edge1_Node000001_Node000002"><a xlink:title=" ">
<path fill="none" stroke="#63b8ff" d="M93.43,-29C101.25,-29 109.45,-29 117.51,-29"/>
<polygon fill="#63b8ff" stroke="#63b8ff" points="117.25,-32.5 127.25,-29 117.25,-25.5 117.25,-32.5"/>
</a>
</g>
</g>
<!-- Node3 -->
<g id="Node000003" class="node">
<title>Node3</title>
<g id="a_Node000003"><a xlink:href="../../d4/d23/SDL__malloc_8c.html#a2d20e33b2d417733503759c0594f882d" target="_top" xlink:title=" ">
<polygon fill="white" stroke="#666666" points="339,-58 257.75,-58 257.75,-38 339,-38 339,-58"/>
<text xml:space="preserve" text-anchor="middle" x="298.38" y="-44.5" font-family="Helvetica,sans-Serif" font-size="10.00">dispose_chunk</text>
</a>
</g>
</g>
<!-- Node2&#45;&gt;Node3 -->
<g id="edge2_Node000002_Node000003" class="edge">
<title>Node2&#45;&gt;Node3</title>
<g id="a_edge2_Node000002_Node000003"><a xlink:title=" ">
<path fill="none" stroke="#63b8ff" d="M222.2,-36.18C230.1,-37.43 238.37,-38.73 246.41,-39.99"/>
<polygon fill="#63b8ff" stroke="#63b8ff" points="245.64,-43.41 256.06,-41.51 246.72,-36.49 245.64,-43.41"/>
</a>
</g>
</g>
<!-- Node4 -->
<g id="Node000004" class="node">
<title>Node4</title>
<g id="a_Node000004"><a xlink:href="../../d4/d23/SDL__malloc_8c.html#a614d873251d4d24875c099b0fdf89c8d" target="_top" xlink:title=" ">
<polygon fill="white" stroke="#666666" points="335.62,-20 261.12,-20 261.12,0 335.62,0 335.62,-20"/>
<text xml:space="preserve" text-anchor="middle" x="298.38" y="-6.5" font-family="Helvetica,sans-Serif" font-size="10.00">mmap_resize</text>
</a>
</g>
</g>
<!-- Node2&#45;&gt;Node4 -->
<g id="edge3_Node000002_Node000004" class="edge">
<title>Node2&#45;&gt;Node4</title>
<g id="a_edge3_Node000002_Node000004"><a xlink:title=" ">
<path fill="none" stroke="#63b8ff" d="M222.2,-21.82C231.13,-20.41 240.52,-18.94 249.52,-17.52"/>
<polygon fill="#63b8ff" stroke="#63b8ff" points="249.81,-21.02 259.15,-16.01 248.73,-14.1 249.81,-21.02"/>
</a>
</g>
</g>
<!-- Node5 -->
<g id="Node000005" class="node">
<title>Node5</title>
<g id="a_Node000005"><a xlink:href="../../d3/dda/eglext_8h.html#a0f7193911e632cd84da4082d5c628fe3" target="_top" xlink:title=" ">
<polygon fill="white" stroke="#666666" points="409,-20 375,-20 375,0 409,0 409,-20"/>
<text xml:space="preserve" text-anchor="middle" x="392" y="-6.5" font-family="Helvetica,sans-Serif" font-size="10.00">void</text>
</a>
</g>
</g>
<!-- Node4&#45;&gt;Node5 -->
<g id="edge4_Node000004_Node000005" class="edge">
<title>Node4&#45;&gt;Node5</title>
<g id="a_edge4_Node000004_Node000005"><a xlink:title=" ">
<path fill="none" stroke="#63b8ff" d="M336.11,-10C345.18,-10 354.75,-10 363.3,-10"/>
<polygon fill="#63b8ff" stroke="#63b8ff" points="363.06,-13.5 373.06,-10 363.06,-6.5 363.06,-13.5"/>
</a>
</g>
</g>
</g>
</svg>
