<?xml version="1.0" encoding="UTF-8" standalone="no"?>
<!DOCTYPE svg PUBLIC "-//W3C//DTD SVG 1.1//EN"
 "http://www.w3.org/Graphics/SVG/1.1/DTD/svg11.dtd">
<!-- Generated by graphviz version 13.1.0 (20250701.0955)
 -->
<!-- Title: segment_holding Pages: 1 -->
<!--zoomable 218 -->

<svg id="main" version="1.1" xmlns="http://www.w3.org/2000/svg" xmlns:xlink="http://www.w3.org/1999/xlink" xml:space="preserve" onload="init(evt)">

<style type="text/css"><![CDATA[
.node, .edge {opacity: 0.7;}
.node.selected, .edge.selected {opacity: 1;}
.edge:hover path { stroke: red; }
.edge:hover polygon { stroke: red; fill: red; }
]]></style>

<defs>
  <circle id="rim" cx="0" cy="0" r="7"/>
  <circle id="rim2" cx="0" cy="0" r="3.5"/>
  <g id="zoomPlus">
    <use xlink:href="#rim" fill="#404040"><set attributeName="fill" to="#808080" begin="zoomplus.mouseover" end="zoomplus.mouseout"/></use>
    <path d="M-4,0h8M0,-4v8" fill="none" stroke="white" stroke-width="1.5" pointer-events="none"/>
  </g>
  <g id="zoomMin">
    <use xlink:href="#rim" fill="#404040"><set attributeName="fill" to="#808080" begin="zoomminus.mouseover" end="zoomminus.mouseout"/></use>
    <path d="M-4,0h8" fill="none" stroke="white" stroke-width="1.5" pointer-events="none"/>
  </g>
  <g id="arrowUp" transform="translate(30 24)">
    <use xlink:href="#rim"/>
    <path pointer-events="none" fill="none" stroke="white" stroke-width="1.5" d="M0,-3.0v7 M-2.5,-0.5L0,-3.0L2.5,-0.5"/>
  </g>
  <g id="arrowRight" transform="rotate(90) translate(36 -43)">
    <use xlink:href="#rim"/>
    <path pointer-events="none" fill="none" stroke="white" stroke-width="1.5" d="M0,-3.0v7 M-2.5,-0.5L0,-3.0L2.5,-0.5"/>
  </g>
  <g id="arrowDown" transform="rotate(180) translate(-30 -48)">
    <use xlink:href="#rim"/>
    <path pointer-events="none" fill="none" stroke="white" stroke-width="1.5" d="M0,-3.0v7 M-2.5,-0.5L0,-3.0L2.5,-0.5"/>
  </g>
  <g id="arrowLeft" transform="rotate(270) translate(-36 17)">
    <use xlink:href="#rim"/>
    <path pointer-events="none" fill="none" stroke="white" stroke-width="1.5" d="M0,-3.0v7 M-2.5,-0.5L0,-3.0L2.5,-0.5"/>
  </g>
  <g id="resetDef">
    <use xlink:href="#rim2" fill="#404040"><set attributeName="fill" to="#808080" begin="reset.mouseover" end="reset.mouseout"/></use>
  </g>
</defs>
<script type="application/ecmascript">
var viewWidth = 656;
var viewHeight = 218;
var sectionId = 'dynsection-49';
</script>
<script type="application/ecmascript" xlink:href="../../svg.min.js"/>
<svg id="graph" class="graph">
<g id="viewport">
<title>segment_holding</title>
<!-- Node1 -->
<g id="Node000001" class="node">
<title>Node1</title>
<g id="a_Node000001"><a xlink:title=" ">
<polygon fill="#999999" stroke="#666666" points="648,-96 558.5,-96 558.5,-76 648,-76 648,-96"/>
<text xml:space="preserve" text-anchor="middle" x="603.25" y="-82.5" font-family="Helvetica,sans-Serif" font-size="10.00">segment_holding</text>
</a>
</g>
</g>
<!-- Node2 -->
<g id="Node000002" class="node">
<title>Node2</title>
<g id="a_Node000002"><a xlink:href="../../d4/d23/SDL__malloc_8c.html#aecee517bb2a61c5b79a745f3e0b4aa86" target="_top" xlink:title=" ">
<polygon fill="white" stroke="#666666" points="522.5,-134 448,-134 448,-114 522.5,-114 522.5,-134"/>
<text xml:space="preserve" text-anchor="middle" x="485.25" y="-120.5" font-family="Helvetica,sans-Serif" font-size="10.00">add_segment</text>
</a>
</g>
</g>
<!-- Node1&#45;&gt;Node2 -->
<g id="edge1_Node000001_Node000002" class="edge">
<title>Node1&#45;&gt;Node2</title>
<g id="a_edge1_Node000001_Node000002"><a xlink:title=" ">
<path fill="none" stroke="#63b8ff" d="M559.58,-99.98C545.88,-104.47 530.94,-109.36 518.15,-113.55"/>
<polygon fill="#63b8ff" stroke="#63b8ff" points="560.39,-103.39 568.81,-96.96 558.21,-96.74 560.39,-103.39"/>
</a>
</g>
</g>
<!-- Node3 -->
<g id="Node000003" class="node">
<title>Node3</title>
<g id="a_Node000003"><a xlink:href="../../d4/d23/SDL__malloc_8c.html#a726dbaacf5aca0a8435e3ce4d44844f4" target="_top" xlink:title=" ">
<polygon fill="white" stroke="#666666" points="394.38,-134 337.12,-134 337.12,-114 394.38,-114 394.38,-134"/>
<text xml:space="preserve" text-anchor="middle" x="365.75" y="-120.5" font-family="Helvetica,sans-Serif" font-size="10.00">sys_alloc</text>
</a>
</g>
</g>
<!-- Node1&#45;&gt;Node3 -->
<g id="edge10_Node000001_Node000003" class="edge">
<title>Node1&#45;&gt;Node3</title>
<g id="a_edge10_Node000001_Node000003"><a xlink:title=" ">
<path fill="none" stroke="#63b8ff" d="M546.86,-91.37C517.39,-94.59 480.6,-99.2 448,-105 430.17,-108.17 410.38,-112.78 394.8,-116.66"/>
<polygon fill="#63b8ff" stroke="#63b8ff" points="547.1,-94.86 556.68,-90.32 546.36,-87.9 547.1,-94.86"/>
</a>
</g>
</g>
<!-- Node11 -->
<g id="Node000011" class="node">
<title>Node11</title>
<g id="a_Node000011"><a xlink:href="../../d4/d23/SDL__malloc_8c.html#a3de256edbbbbd4018cd3563f55ee50ab" target="_top" xlink:title=" ">
<polygon fill="white" stroke="#666666" points="512,-58 458.5,-58 458.5,-38 512,-38 512,-58"/>
<text xml:space="preserve" text-anchor="middle" x="485.25" y="-44.5" font-family="Helvetica,sans-Serif" font-size="10.00">sys_trim</text>
</a>
</g>
</g>
<!-- Node1&#45;&gt;Node11 -->
<g id="edge11_Node000001_Node000011" class="edge">
<title>Node1&#45;&gt;Node11</title>
<g id="a_edge11_Node000001_Node000011"><a xlink:title=" ">
<path fill="none" stroke="#63b8ff" d="M559.59,-72.03C543.73,-66.83 526.22,-61.09 512.29,-56.53"/>
<polygon fill="#63b8ff" stroke="#63b8ff" points="558.21,-75.26 568.81,-75.04 560.39,-68.61 558.21,-75.26"/>
</a>
</g>
</g>
<!-- Node2&#45;&gt;Node3 -->
<g id="edge2_Node000002_Node000003" class="edge">
<title>Node2&#45;&gt;Node3</title>
<g id="a_edge2_Node000002_Node000003"><a xlink:title=" ">
<path fill="none" stroke="#63b8ff" d="M436.56,-124C422.33,-124 407.2,-124 394.67,-124"/>
<polygon fill="#63b8ff" stroke="#63b8ff" points="436.2,-127.5 446.2,-124 436.2,-120.5 436.2,-127.5"/>
</a>
</g>
</g>
<!-- Node4 -->
<g id="Node000004" class="node">
<title>Node4</title>
<g id="a_Node000004"><a xlink:href="../../d4/d23/SDL__malloc_8c.html#a018ffd885ac72f4cb8ac0f972f6b4900" target="_top" xlink:title=" ">
<polygon fill="white" stroke="#666666" points="277.88,-134 225.88,-134 225.88,-114 277.88,-114 277.88,-134"/>
<text xml:space="preserve" text-anchor="middle" x="251.88" y="-120.5" font-family="Helvetica,sans-Serif" font-size="10.00">dlmalloc</text>
</a>
</g>
</g>
<!-- Node3&#45;&gt;Node4 -->
<g id="edge3_Node000003_Node000004" class="edge">
<title>Node3&#45;&gt;Node4</title>
<g id="a_edge3_Node000003_Node000004"><a xlink:title=" ">
<path fill="none" stroke="#63b8ff" d="M325.75,-124C309.97,-124 292.21,-124 278.17,-124"/>
<polygon fill="#63b8ff" stroke="#63b8ff" points="325.29,-127.5 335.29,-124 325.29,-120.5 325.29,-127.5"/>
</a>
</g>
</g>
<!-- Node5 -->
<g id="Node000005" class="node">
<title>Node5</title>
<g id="a_Node000005"><a xlink:href="../../d4/d23/SDL__malloc_8c.html#a557252c43fb14a209ead0e6dfe6216ad" target="_top" xlink:title=" ">
<polygon fill="white" stroke="#666666" points="161.75,-210 112.75,-210 112.75,-190 161.75,-190 161.75,-210"/>
<text xml:space="preserve" text-anchor="middle" x="137.25" y="-196.5" font-family="Helvetica,sans-Serif" font-size="10.00">dlcalloc</text>
</a>
</g>
</g>
<!-- Node4&#45;&gt;Node5 -->
<g id="edge4_Node000004_Node000005" class="edge">
<title>Node4&#45;&gt;Node5</title>
<g id="a_edge4_Node000004_Node000005"><a xlink:title=" ">
<path fill="none" stroke="#63b8ff" d="M232.91,-142.14C220.16,-154.29 202.18,-170.02 184.25,-181 177.32,-185.24 169.28,-188.93 161.88,-191.9"/>
<polygon fill="#63b8ff" stroke="#63b8ff" points="235.05,-144.95 239.76,-135.46 230.16,-139.94 235.05,-144.95"/>
</a>
</g>
</g>
<!-- Node6 -->
<g id="Node000006" class="node">
<title>Node6</title>
<g id="a_Node000006"><a xlink:href="../../d4/d23/SDL__malloc_8c.html#a789f1726140c8d0ef5b54d893d806262" target="_top" xlink:title=" ">
<polygon fill="white" stroke="#666666" points="170,-172 104.5,-172 104.5,-152 170,-152 170,-172"/>
<text xml:space="preserve" text-anchor="middle" x="137.25" y="-158.5" font-family="Helvetica,sans-Serif" font-size="10.00">dlmemalign</text>
</a>
</g>
</g>
<!-- Node4&#45;&gt;Node6 -->
<g id="edge5_Node000004_Node000006" class="edge">
<title>Node4&#45;&gt;Node6</title>
<g id="a_edge5_Node000004_Node000006"><a xlink:title=" ">
<path fill="none" stroke="#63b8ff" d="M214.83,-136.16C200.09,-141.14 183.21,-146.83 169.06,-151.6"/>
<polygon fill="#63b8ff" stroke="#63b8ff" points="215.81,-139.53 224.17,-133.01 213.57,-132.89 215.81,-139.53"/>
</a>
</g>
</g>
<!-- Node9 -->
<g id="Node000009" class="node">
<title>Node9</title>
<g id="a_Node000009"><a xlink:href="../../d4/d23/SDL__malloc_8c.html#a61f04155b5dceea889ba3cef64968684" target="_top" xlink:title=" ">
<polygon fill="white" stroke="#666666" points="184.25,-134 90.25,-134 90.25,-114 184.25,-114 184.25,-134"/>
<text xml:space="preserve" text-anchor="middle" x="137.25" y="-120.5" font-family="Helvetica,sans-Serif" font-size="10.00">dlposix_memalign</text>
</a>
</g>
</g>
<!-- Node4&#45;&gt;Node9 -->
<g id="edge8_Node000004_Node000009" class="edge">
<title>Node4&#45;&gt;Node9</title>
<g id="a_edge8_Node000004_Node000009"><a xlink:title=" ">
<path fill="none" stroke="#63b8ff" d="M214.22,-124C204.81,-124 194.56,-124 184.72,-124"/>
<polygon fill="#63b8ff" stroke="#63b8ff" points="214.09,-127.5 224.09,-124 214.09,-120.5 214.09,-127.5"/>
</a>
</g>
</g>
<!-- Node10 -->
<g id="Node000010" class="node">
<title>Node10</title>
<g id="a_Node000010"><a xlink:href="../../d4/d23/SDL__malloc_8c.html#a79e7e77bbc6d5208678b007bf89aab61" target="_top" xlink:title=" ">
<polygon fill="white" stroke="#666666" points="163.25,-96 111.25,-96 111.25,-76 163.25,-76 163.25,-96"/>
<text xml:space="preserve" text-anchor="middle" x="137.25" y="-82.5" font-family="Helvetica,sans-Serif" font-size="10.00">dlrealloc</text>
</a>
</g>
</g>
<!-- Node4&#45;&gt;Node10 -->
<g id="edge9_Node000004_Node000010" class="edge">
<title>Node4&#45;&gt;Node10</title>
<g id="a_edge9_Node000004_Node000010"><a xlink:title=" ">
<path fill="none" stroke="#63b8ff" d="M215.04,-111.91C198.25,-106.24 178.64,-99.63 163.44,-94.5"/>
<polygon fill="#63b8ff" stroke="#63b8ff" points="213.57,-115.11 224.17,-114.99 215.81,-108.47 213.57,-115.11"/>
</a>
</g>
</g>
<!-- Node7 -->
<g id="Node000007" class="node">
<title>Node7</title>
<g id="a_Node000007"><a xlink:href="../../d4/d23/SDL__malloc_8c.html#ade3c6d7e2b557fe3af01a7f6979e9396" target="_top" xlink:title=" ">
<polygon fill="white" stroke="#666666" points="54.25,-191 0,-191 0,-171 54.25,-171 54.25,-191"/>
<text xml:space="preserve" text-anchor="middle" x="27.12" y="-177.5" font-family="Helvetica,sans-Serif" font-size="10.00">dlpvalloc</text>
</a>
</g>
</g>
<!-- Node6&#45;&gt;Node7 -->
<g id="edge6_Node000006_Node000007" class="edge">
<title>Node6&#45;&gt;Node7</title>
<g id="a_edge6_Node000006_Node000007"><a xlink:title=" ">
<path fill="none" stroke="#63b8ff" d="M92.97,-169.61C79.96,-171.89 66.08,-174.33 54.51,-176.36"/>
<polygon fill="#63b8ff" stroke="#63b8ff" points="93.37,-173.09 102.61,-167.91 92.16,-166.19 93.37,-173.09"/>
</a>
</g>
</g>
<!-- Node8 -->
<g id="Node000008" class="node">
<title>Node8</title>
<g id="a_Node000008"><a xlink:href="../../d4/d23/SDL__malloc_8c.html#ab3764c29825f2f5caf6bb138e6f2dc12" target="_top" xlink:title=" ">
<polygon fill="white" stroke="#666666" points="51.62,-153 2.62,-153 2.62,-133 51.62,-133 51.62,-153"/>
<text xml:space="preserve" text-anchor="middle" x="27.12" y="-139.5" font-family="Helvetica,sans-Serif" font-size="10.00">dlvalloc</text>
</a>
</g>
</g>
<!-- Node6&#45;&gt;Node8 -->
<g id="edge7_Node000006_Node000008" class="edge">
<title>Node6&#45;&gt;Node8</title>
<g id="a_edge7_Node000006_Node000008"><a xlink:title=" ">
<path fill="none" stroke="#63b8ff" d="M93.17,-154.43C79.18,-151.97 64.16,-149.33 52.08,-147.21"/>
<polygon fill="#63b8ff" stroke="#63b8ff" points="92.16,-157.81 102.61,-156.09 93.37,-150.91 92.16,-157.81"/>
</a>
</g>
</g>
<!-- Node12 -->
<g id="Node000012" class="node">
<title>Node12</title>
<g id="a_Node000012"><a xlink:href="../../d4/d23/SDL__malloc_8c.html#a1b80f9ee2d497077e4741029c8e23700" target="_top" xlink:title=" ">
<polygon fill="white" stroke="#666666" points="271.88,-96 231.88,-96 231.88,-76 271.88,-76 271.88,-96"/>
<text xml:space="preserve" text-anchor="middle" x="251.88" y="-82.5" font-family="Helvetica,sans-Serif" font-size="10.00">dlfree</text>
</a>
</g>
</g>
<!-- Node11&#45;&gt;Node12 -->
<g id="edge12_Node000011_Node000012" class="edge">
<title>Node11&#45;&gt;Node12</title>
<g id="a_edge12_Node000011_Node000012"><a xlink:title=" ">
<path fill="none" stroke="#63b8ff" d="M447.25,-58.78C436.01,-61.77 423.56,-64.8 412,-67 361.98,-76.52 302.16,-82.14 272.11,-84.57"/>
<polygon fill="#63b8ff" stroke="#63b8ff" points="447.85,-62.25 456.57,-56.23 446,-55.5 447.85,-62.25"/>
</a>
</g>
</g>
<!-- Node13 -->
<g id="Node000013" class="node">
<title>Node13</title>
<g id="a_Node000013"><a xlink:href="../../d4/d23/SDL__malloc_8c.html#a0cb0780a1d244f7541f85d2ece3999fc" target="_top" xlink:title=" ">
<polygon fill="white" stroke="#666666" points="402.62,-58 328.88,-58 328.88,-38 402.62,-38 402.62,-58"/>
<text xml:space="preserve" text-anchor="middle" x="365.75" y="-44.5" font-family="Helvetica,sans-Serif" font-size="10.00">dlmalloc_trim</text>
</a>
</g>
</g>
<!-- Node11&#45;&gt;Node13 -->
<g id="edge14_Node000011_Node000013" class="edge">
<title>Node11&#45;&gt;Node13</title>
<g id="a_edge14_Node000011_Node000013"><a xlink:title=" ">
<path fill="none" stroke="#63b8ff" d="M446.91,-48C432.87,-48 416.94,-48 403,-48"/>
<polygon fill="#63b8ff" stroke="#63b8ff" points="446.66,-51.5 456.66,-48 446.66,-44.5 446.66,-51.5"/>
</a>
</g>
</g>
<!-- Node14 -->
<g id="Node000014" class="node">
<title>Node14</title>
<g id="a_Node000014"><a xlink:href="../../d4/d23/SDL__malloc_8c.html#aa2888b3de06df35c3b18b31b1e15fe8c" target="_top" xlink:title=" ">
<polygon fill="white" stroke="#666666" points="412,-20 319.5,-20 319.5,0 412,0 412,-20"/>
<text xml:space="preserve" text-anchor="middle" x="365.75" y="-6.5" font-family="Helvetica,sans-Serif" font-size="10.00">internal_bulk_free</text>
</a>
</g>
</g>
<!-- Node11&#45;&gt;Node14 -->
<g id="edge15_Node000011_Node000014" class="edge">
<title>Node11&#45;&gt;Node14</title>
<g id="a_edge15_Node000011_Node000014"><a xlink:title=" ">
<path fill="none" stroke="#63b8ff" d="M447.38,-36.08C431.89,-31.07 414.02,-25.29 399.05,-20.44"/>
<polygon fill="#63b8ff" stroke="#63b8ff" points="446.14,-39.35 456.73,-39.1 448.3,-32.69 446.14,-39.35"/>
</a>
</g>
</g>
<!-- Node12&#45;&gt;Node10 -->
<g id="edge13_Node000012_Node000010" class="edge">
<title>Node12&#45;&gt;Node10</title>
<g id="a_edge13_Node000012_Node000010"><a xlink:title=" ">
<path fill="none" stroke="#63b8ff" d="M220.06,-86C202.36,-86 180.4,-86 163.69,-86"/>
<polygon fill="#63b8ff" stroke="#63b8ff" points="220,-89.5 230,-86 220,-82.5 220,-89.5"/>
</a>
</g>
</g>
<!-- Node15 -->
<g id="Node000015" class="node">
<title>Node15</title>
<g id="a_Node000015"><a xlink:href="../../d4/d23/SDL__malloc_8c.html#a8e02204694aaa24ccc23b1cd2c403b7e" target="_top" xlink:title=" ">
<polygon fill="white" stroke="#666666" points="283.5,-20 220.25,-20 220.25,0 283.5,0 283.5,-20"/>
<text xml:space="preserve" text-anchor="middle" x="251.88" y="-6.5" font-family="Helvetica,sans-Serif" font-size="10.00">dlbulk_free</text>
</a>
</g>
</g>
<!-- Node14&#45;&gt;Node15 -->
<g id="edge16_Node000014_Node000015" class="edge">
<title>Node14&#45;&gt;Node15</title>
<g id="a_edge16_Node000014_Node000015"><a xlink:title=" ">
<path fill="none" stroke="#63b8ff" d="M308.01,-10C299.73,-10 291.47,-10 283.96,-10"/>
<polygon fill="#63b8ff" stroke="#63b8ff" points="307.73,-13.5 317.73,-10 307.73,-6.5 307.73,-13.5"/>
</a>
</g>
</g>
</g>
</svg>

<g id="navigator" transform="translate(0 0)" fill="#404254">
  <rect fill="#f2f5e9" fill-opacity="0.5" stroke="#606060" stroke-width=".5" x="0" y="0" width="60" height="60"/>
  <use id="zoomplus" xlink:href="#zoomPlus" x="17" y="9" onmousedown="handleZoom(evt,'in')"/>
  <use id="zoomminus" xlink:href="#zoomMin" x="42" y="9" onmousedown="handleZoom(evt,'out')"/>
  <use id="reset" xlink:href="#resetDef" x="30" y="36" onmousedown="handleReset()"/>
   <use id="arrowup" xlink:href="#arrowUp" x="0" y="0" onmousedown="handlePan(0,-1)"/>
  <use id="arrowright" xlink:href="#arrowRight" x="0" y="0" onmousedown="handlePan(1,0)"/>
  <use id="arrowdown" xlink:href="#arrowDown" x="0" y="0" onmousedown="handlePan(0,1)"/>
  <use id="arrowleft" xlink:href="#arrowLeft" x="0" y="0" onmousedown="handlePan(-1,0)"/>
</g>
<svg viewBox="0 0 15 15" width="100%" height="30px" preserveAspectRatio="xMaxYMin meet">
 <g id="arrow_out" transform="scale(0.3 0.3)">
  <a xlink:href="SDL__malloc_8c_adc1656892fa59cbd2e3b60a2608dfefc_icgraph_org.svg" target="_base">
   <rect id="button" ry="5" rx="5" y="6" x="6" height="38" width="38"
        fill="#f2f5e9" fill-opacity="0.5" stroke="#606060" stroke-width="1.0"/>
   <path id="arrow"
     d="M 11.500037,31.436501 C 11.940474,20.09759 22.043105,11.32322 32.158766,21.979434 L 37.068811,17.246167 C 37.068811,17.246167 37.088388,32 37.088388,32 L 22.160133,31.978069 C 22.160133,31.978069 26.997745,27.140456 26.997745,27.140456 C 18.528582,18.264221 13.291696,25.230495 11.500037,31.436501 z"
     style="fill:#404040;"/>
  </a>
 </g>
</svg>

<style type='text/css'>
<![CDATA[
[data-mouse-over-selected='false'] { opacity: 0.7; }
[data-mouse-over-selected='true']  { opacity: 1.0; }
]]>
</style>
<script type="application/ecmascript"><![CDATA[
document.addEventListener('DOMContentLoaded', (event) => {
  highlightEdges();
  highlightAdjacentNodes();
});
]]></script>
</svg>
