<?xml version="1.0" encoding="UTF-8" standalone="no"?>
<!DOCTYPE svg PUBLIC "-//W3C//DTD SVG 1.1//EN"
 "http://www.w3.org/Graphics/SVG/1.1/DTD/svg11.dtd">
<!-- Generated by graphviz version 13.1.0 (20250701.0955)
 -->
<!-- Title: sys_trim Pages: 1 -->
<svg width="289pt" height="104pt"
 viewBox="0.00 0.00 289.00 104.00" xmlns="http://www.w3.org/2000/svg" xmlns:xlink="http://www.w3.org/1999/xlink">

<svg id="main" version="1.1" xmlns="http://www.w3.org/2000/svg" xmlns:xlink="http://www.w3.org/1999/xlink" xml:space="preserve">

<style type="text/css"><![CDATA[
.node, .edge {opacity: 0.7;}
.node.selected, .edge.selected {opacity: 1;}
.edge:hover path { stroke: red; }
.edge:hover polygon { stroke: red; fill: red; }
]]></style>
<script type="application/ecmascript" xlink:href="../../svg.min.js"/>
<svg id="graph" class="graph">
<g id="graph0" class="graph" transform="scale(1 1) rotate(0) translate(4 100)">
<title>sys_trim</title>
<!-- Node1 -->
<g id="Node000001" class="node">
<title>Node1</title>
<g id="a_Node000001"><a xlink:title=" ">
<polygon fill="#999999" stroke="#666666" points="281.25,-58 227.75,-58 227.75,-38 281.25,-38 281.25,-58"/>
<text xml:space="preserve" text-anchor="middle" x="254.5" y="-44.5" font-family="Helvetica,sans-Serif" font-size="10.00">sys_trim</text>
</a>
</g>
</g>
<!-- Node2 -->
<g id="Node000002" class="node">
<title>Node2</title>
<g id="a_Node000002"><a xlink:href="../../d4/d23/SDL__malloc_8c.html#a1b80f9ee2d497077e4741029c8e23700" target="_top" xlink:title=" ">
<polygon fill="white" stroke="#666666" points="165.5,-96 125.5,-96 125.5,-76 165.5,-76 165.5,-96"/>
<text xml:space="preserve" text-anchor="middle" x="145.5" y="-82.5" font-family="Helvetica,sans-Serif" font-size="10.00">dlfree</text>
</a>
</g>
</g>
<!-- Node1&#45;&gt;Node2 -->
<g id="edge1_Node000001_Node000002" class="edge">
<title>Node1&#45;&gt;Node2</title>
<g id="a_edge1_Node000001_Node000002"><a xlink:title=" ">
<path fill="none" stroke="#63b8ff" d="M216.52,-61.13C199.41,-67.21 179.8,-74.17 165.69,-79.18"/>
<polygon fill="#63b8ff" stroke="#63b8ff" points="217.65,-64.45 225.9,-57.8 215.3,-57.85 217.65,-64.45"/>
</a>
</g>
</g>
<!-- Node4 -->
<g id="Node000004" class="node">
<title>Node4</title>
<g id="a_Node000004"><a xlink:href="../../d4/d23/SDL__malloc_8c.html#a0cb0780a1d244f7541f85d2ece3999fc" target="_top" xlink:title=" ">
<polygon fill="white" stroke="#666666" points="182.38,-58 108.62,-58 108.62,-38 182.38,-38 182.38,-58"/>
<text xml:space="preserve" text-anchor="middle" x="145.5" y="-44.5" font-family="Helvetica,sans-Serif" font-size="10.00">dlmalloc_trim</text>
</a>
</g>
</g>
<!-- Node1&#45;&gt;Node4 -->
<g id="edge3_Node000001_Node000004" class="edge">
<title>Node1&#45;&gt;Node4</title>
<g id="a_edge3_Node000001_Node000004"><a xlink:title=" ">
<path fill="none" stroke="#63b8ff" d="M216,-48C205.13,-48 193.28,-48 182.5,-48"/>
<polygon fill="#63b8ff" stroke="#63b8ff" points="215.81,-51.5 225.81,-48 215.81,-44.5 215.81,-51.5"/>
</a>
</g>
</g>
<!-- Node5 -->
<g id="Node000005" class="node">
<title>Node5</title>
<g id="a_Node000005"><a xlink:href="../../d4/d23/SDL__malloc_8c.html#aa2888b3de06df35c3b18b31b1e15fe8c" target="_top" xlink:title=" ">
<polygon fill="white" stroke="#666666" points="191.75,-20 99.25,-20 99.25,0 191.75,0 191.75,-20"/>
<text xml:space="preserve" text-anchor="middle" x="145.5" y="-6.5" font-family="Helvetica,sans-Serif" font-size="10.00">internal_bulk_free</text>
</a>
</g>
</g>
<!-- Node1&#45;&gt;Node5 -->
<g id="edge4_Node000001_Node000005" class="edge">
<title>Node1&#45;&gt;Node5</title>
<g id="a_edge4_Node000001_Node000005"><a xlink:title=" ">
<path fill="none" stroke="#63b8ff" d="M216.57,-34.88C203.24,-30.15 188.39,-24.88 175.8,-20.4"/>
<polygon fill="#63b8ff" stroke="#63b8ff" points="215.3,-38.15 225.9,-38.2 217.65,-31.55 215.3,-38.15"/>
</a>
</g>
</g>
<!-- Node3 -->
<g id="Node000003" class="node">
<title>Node3</title>
<g id="a_Node000003"><a xlink:href="../../d4/d23/SDL__malloc_8c.html#a79e7e77bbc6d5208678b007bf89aab61" target="_top" xlink:title=" ">
<polygon fill="white" stroke="#666666" points="57.62,-96 5.62,-96 5.62,-76 57.62,-76 57.62,-96"/>
<text xml:space="preserve" text-anchor="middle" x="31.62" y="-82.5" font-family="Helvetica,sans-Serif" font-size="10.00">dlrealloc</text>
</a>
</g>
</g>
<!-- Node2&#45;&gt;Node3 -->
<g id="edge2_Node000002_Node000003" class="edge">
<title>Node2&#45;&gt;Node3</title>
<g id="a_edge2_Node000002_Node000003"><a xlink:title=" ">
<path fill="none" stroke="#63b8ff" d="M113.62,-86C96.05,-86 74.31,-86 57.78,-86"/>
<polygon fill="#63b8ff" stroke="#63b8ff" points="113.5,-89.5 123.5,-86 113.5,-82.5 113.5,-89.5"/>
</a>
</g>
</g>
<!-- Node6 -->
<g id="Node000006" class="node">
<title>Node6</title>
<g id="a_Node000006"><a xlink:href="../../d4/d23/SDL__malloc_8c.html#a8e02204694aaa24ccc23b1cd2c403b7e" target="_top" xlink:title=" ">
<polygon fill="white" stroke="#666666" points="63.25,-20 0,-20 0,0 63.25,0 63.25,-20"/>
<text xml:space="preserve" text-anchor="middle" x="31.62" y="-6.5" font-family="Helvetica,sans-Serif" font-size="10.00">dlbulk_free</text>
</a>
</g>
</g>
<!-- Node5&#45;&gt;Node6 -->
<g id="edge5_Node000005_Node000006" class="edge">
<title>Node5&#45;&gt;Node6</title>
<g id="a_edge5_Node000005_Node000006"><a xlink:title=" ">
<path fill="none" stroke="#63b8ff" d="M87.76,-10C79.48,-10 71.22,-10 63.71,-10"/>
<polygon fill="#63b8ff" stroke="#63b8ff" points="87.48,-13.5 97.48,-10 87.48,-6.5 87.48,-13.5"/>
</a>
</g>
</g>
</g>
</svg>
</svg>

<style type='text/css'>
<![CDATA[
[data-mouse-over-selected='false'] { opacity: 0.7; }
[data-mouse-over-selected='true']  { opacity: 1.0; }
]]>
</style>
<script type="application/ecmascript"><![CDATA[
document.addEventListener('DOMContentLoaded', (event) => {
  highlightEdges();
  highlightAdjacentNodes();
});
]]></script>
</svg>
