<?xml version="1.0" encoding="UTF-8" standalone="no"?>
<!DOCTYPE svg PUBLIC "-//W3C//DTD SVG 1.1//EN"
 "http://www.w3.org/Graphics/SVG/1.1/DTD/svg11.dtd">
<!-- Generated by graphviz version 13.1.0 (20250701.0955)
 -->
<!-- Title: dlindependent_calloc Pages: 1 -->
<svg width="277pt" height="28pt"
 viewBox="0.00 0.00 277.00 28.00" xmlns="http://www.w3.org/2000/svg" xmlns:xlink="http://www.w3.org/1999/xlink">
<g id="graph0" class="graph" transform="scale(1 1) rotate(0) translate(4 24)">
<title>dlindependent_calloc</title>
<!-- Node1 -->
<g id="Node000001" class="node">
<title>Node1</title>
<g id="a_Node000001"><a xlink:title=" ">
<polygon fill="#999999" stroke="#666666" points="106.75,-20 0,-20 0,0 106.75,0 106.75,-20"/>
<text xml:space="preserve" text-anchor="middle" x="53.38" y="-6.5" font-family="Helvetica,sans-Serif" font-size="10.00">dlindependent_calloc</text>
</a>
</g>
</g>
<!-- Node2 -->
<g id="Node000002" class="node">
<title>Node2</title>
<g id="a_Node000002"><a xlink:href="../../d4/d23/SDL__malloc_8c.html#a6156a11ac0c98046018896db06f45979" target="_top" xlink:title=" ">
<polygon fill="white" stroke="#666666" points="181.25,-20 142.75,-20 142.75,0 181.25,0 181.25,-20"/>
<text xml:space="preserve" text-anchor="middle" x="162" y="-6.5" font-family="Helvetica,sans-Serif" font-size="10.00">ialloc</text>
</a>
</g>
</g>
<!-- Node1&#45;&gt;Node2 -->
<g id="edge1_Node000001_Node000002" class="edge">
<title>Node1&#45;&gt;Node2</title>
<g id="a_edge1_Node000001_Node000002"><a xlink:title=" ">
<path fill="none" stroke="#63b8ff" d="M107.06,-10C115.36,-10 123.69,-10 131.22,-10"/>
<polygon fill="#63b8ff" stroke="#63b8ff" points="131.15,-13.5 141.15,-10 131.15,-6.5 131.15,-13.5"/>
</a>
</g>
</g>
<!-- Node3 -->
<g id="Node000003" class="node">
<title>Node3</title>
<g id="a_Node000003"><a xlink:href="../../d6/d8c/SDL__memset_8c.html#aa470f523bb3aef22ee14757d45ab934f" target="_top" xlink:title=" ">
<polygon fill="white" stroke="#666666" points="268.5,-20 217.25,-20 217.25,0 268.5,0 268.5,-20"/>
<text xml:space="preserve" text-anchor="middle" x="242.88" y="-6.5" font-family="Helvetica,sans-Serif" font-size="10.00">memset</text>
</a>
</g>
</g>
<!-- Node2&#45;&gt;Node3 -->
<g id="edge2_Node000002_Node000003" class="edge">
<title>Node2&#45;&gt;Node3</title>
<g id="a_edge2_Node000002_Node000003"><a xlink:title=" ">
<path fill="none" stroke="#63b8ff" d="M181.69,-10C188.81,-10 197.2,-10 205.41,-10"/>
<polygon fill="#63b8ff" stroke="#63b8ff" points="205.24,-13.5 215.24,-10 205.24,-6.5 205.24,-13.5"/>
</a>
</g>
</g>
</g>
</svg>
