<?xml version="1.0" encoding="UTF-8" standalone="no"?>
<!DOCTYPE svg PUBLIC "-//W3C//DTD SVG 1.1//EN"
 "http://www.w3.org/Graphics/SVG/1.1/DTD/svg11.dtd">
<!-- Generated by graphviz version 13.1.0 (20250701.0955)
 -->
<!-- Title: tmalloc_large Pages: 1 -->
<svg width="390pt" height="142pt"
 viewBox="0.00 0.00 390.00 142.00" xmlns="http://www.w3.org/2000/svg" xmlns:xlink="http://www.w3.org/1999/xlink">
<g id="graph0" class="graph" transform="scale(1 1) rotate(0) translate(4 138)">
<title>tmalloc_large</title>
<!-- Node1 -->
<g id="Node000001" class="node">
<title>Node1</title>
<g id="a_Node000001"><a xlink:title=" ">
<polygon fill="#999999" stroke="#666666" points="382,-77 308.25,-77 308.25,-57 382,-57 382,-77"/>
<text xml:space="preserve" text-anchor="middle" x="345.12" y="-63.5" font-family="Helvetica,sans-Serif" font-size="10.00">tmalloc_large</text>
</a>
</g>
</g>
<!-- Node2 -->
<g id="Node000002" class="node">
<title>Node2</title>
<g id="a_Node000002"><a xlink:href="../../d4/d23/SDL__malloc_8c.html#a018ffd885ac72f4cb8ac0f972f6b4900" target="_top" xlink:title=" ">
<polygon fill="white" stroke="#666666" points="272.25,-77 220.25,-77 220.25,-57 272.25,-57 272.25,-77"/>
<text xml:space="preserve" text-anchor="middle" x="246.25" y="-63.5" font-family="Helvetica,sans-Serif" font-size="10.00">dlmalloc</text>
</a>
</g>
</g>
<!-- Node1&#45;&gt;Node2 -->
<g id="edge1_Node000001_Node000002" class="edge">
<title>Node1&#45;&gt;Node2</title>
<g id="a_edge1_Node000001_Node000002"><a xlink:title=" ">
<path fill="none" stroke="#63b8ff" d="M296.32,-67C288.13,-67 279.92,-67 272.62,-67"/>
<polygon fill="#63b8ff" stroke="#63b8ff" points="296.26,-70.5 306.26,-67 296.26,-63.5 296.26,-70.5"/>
</a>
</g>
</g>
<!-- Node3 -->
<g id="Node000003" class="node">
<title>Node3</title>
<g id="a_Node000003"><a xlink:href="../../d4/d23/SDL__malloc_8c.html#a557252c43fb14a209ead0e6dfe6216ad" target="_top" xlink:title=" ">
<polygon fill="white" stroke="#666666" points="161.75,-134 112.75,-134 112.75,-114 161.75,-114 161.75,-134"/>
<text xml:space="preserve" text-anchor="middle" x="137.25" y="-120.5" font-family="Helvetica,sans-Serif" font-size="10.00">dlcalloc</text>
</a>
</g>
</g>
<!-- Node2&#45;&gt;Node3 -->
<g id="edge2_Node000002_Node000003" class="edge">
<title>Node2&#45;&gt;Node3</title>
<g id="a_edge2_Node000002_Node000003"><a xlink:title=" ">
<path fill="none" stroke="#63b8ff" d="M220.8,-83.53C209.86,-90.58 196.66,-98.63 184.25,-105 177.18,-108.63 169.25,-112.11 161.99,-115.07"/>
<polygon fill="#63b8ff" stroke="#63b8ff" points="222.41,-86.65 228.85,-78.24 218.57,-80.8 222.41,-86.65"/>
</a>
</g>
</g>
<!-- Node4 -->
<g id="Node000004" class="node">
<title>Node4</title>
<g id="a_Node000004"><a xlink:href="../../d4/d23/SDL__malloc_8c.html#a789f1726140c8d0ef5b54d893d806262" target="_top" xlink:title=" ">
<polygon fill="white" stroke="#666666" points="170,-96 104.5,-96 104.5,-76 170,-76 170,-96"/>
<text xml:space="preserve" text-anchor="middle" x="137.25" y="-82.5" font-family="Helvetica,sans-Serif" font-size="10.00">dlmemalign</text>
</a>
</g>
</g>
<!-- Node2&#45;&gt;Node4 -->
<g id="edge3_Node000002_Node000004" class="edge">
<title>Node2&#45;&gt;Node4</title>
<g id="a_edge3_Node000002_Node000004"><a xlink:title=" ">
<path fill="none" stroke="#63b8ff" d="M208.89,-73.46C196.38,-75.68 182.48,-78.15 170.34,-80.3"/>
<polygon fill="#63b8ff" stroke="#63b8ff" points="209.17,-76.96 218.4,-71.77 207.94,-70.07 209.17,-76.96"/>
</a>
</g>
</g>
<!-- Node7 -->
<g id="Node000007" class="node">
<title>Node7</title>
<g id="a_Node000007"><a xlink:href="../../d4/d23/SDL__malloc_8c.html#a61f04155b5dceea889ba3cef64968684" target="_top" xlink:title=" ">
<polygon fill="white" stroke="#666666" points="184.25,-58 90.25,-58 90.25,-38 184.25,-38 184.25,-58"/>
<text xml:space="preserve" text-anchor="middle" x="137.25" y="-44.5" font-family="Helvetica,sans-Serif" font-size="10.00">dlposix_memalign</text>
</a>
</g>
</g>
<!-- Node2&#45;&gt;Node7 -->
<g id="edge6_Node000002_Node000007" class="edge">
<title>Node2&#45;&gt;Node7</title>
<g id="a_edge6_Node000002_Node000007"><a xlink:title=" ">
<path fill="none" stroke="#63b8ff" d="M208.58,-60.49C200.79,-59.1 192.47,-57.63 184.38,-56.19"/>
<polygon fill="#63b8ff" stroke="#63b8ff" points="207.94,-63.93 218.4,-62.23 209.17,-57.04 207.94,-63.93"/>
</a>
</g>
</g>
<!-- Node8 -->
<g id="Node000008" class="node">
<title>Node8</title>
<g id="a_Node000008"><a xlink:href="../../d4/d23/SDL__malloc_8c.html#a79e7e77bbc6d5208678b007bf89aab61" target="_top" xlink:title=" ">
<polygon fill="white" stroke="#666666" points="163.25,-20 111.25,-20 111.25,0 163.25,0 163.25,-20"/>
<text xml:space="preserve" text-anchor="middle" x="137.25" y="-6.5" font-family="Helvetica,sans-Serif" font-size="10.00">dlrealloc</text>
</a>
</g>
</g>
<!-- Node2&#45;&gt;Node8 -->
<g id="edge7_Node000002_Node000008" class="edge">
<title>Node2&#45;&gt;Node8</title>
<g id="a_edge7_Node000002_Node000008"><a xlink:title=" ">
<path fill="none" stroke="#63b8ff" d="M220.8,-50.47C209.86,-43.42 196.66,-35.37 184.25,-29 177.64,-25.61 170.28,-22.35 163.42,-19.52"/>
<polygon fill="#63b8ff" stroke="#63b8ff" points="218.57,-53.2 228.85,-55.76 222.41,-47.35 218.57,-53.2"/>
</a>
</g>
</g>
<!-- Node5 -->
<g id="Node000005" class="node">
<title>Node5</title>
<g id="a_Node000005"><a xlink:href="../../d4/d23/SDL__malloc_8c.html#ade3c6d7e2b557fe3af01a7f6979e9396" target="_top" xlink:title=" ">
<polygon fill="white" stroke="#666666" points="54.25,-115 0,-115 0,-95 54.25,-95 54.25,-115"/>
<text xml:space="preserve" text-anchor="middle" x="27.12" y="-101.5" font-family="Helvetica,sans-Serif" font-size="10.00">dlpvalloc</text>
</a>
</g>
</g>
<!-- Node4&#45;&gt;Node5 -->
<g id="edge4_Node000004_Node000005" class="edge">
<title>Node4&#45;&gt;Node5</title>
<g id="a_edge4_Node000004_Node000005"><a xlink:title=" ">
<path fill="none" stroke="#63b8ff" d="M92.97,-93.61C79.96,-95.89 66.08,-98.33 54.51,-100.36"/>
<polygon fill="#63b8ff" stroke="#63b8ff" points="93.37,-97.09 102.61,-91.91 92.16,-90.19 93.37,-97.09"/>
</a>
</g>
</g>
<!-- Node6 -->
<g id="Node000006" class="node">
<title>Node6</title>
<g id="a_Node000006"><a xlink:href="../../d4/d23/SDL__malloc_8c.html#ab3764c29825f2f5caf6bb138e6f2dc12" target="_top" xlink:title=" ">
<polygon fill="white" stroke="#666666" points="51.62,-77 2.62,-77 2.62,-57 51.62,-57 51.62,-77"/>
<text xml:space="preserve" text-anchor="middle" x="27.12" y="-63.5" font-family="Helvetica,sans-Serif" font-size="10.00">dlvalloc</text>
</a>
</g>
</g>
<!-- Node4&#45;&gt;Node6 -->
<g id="edge5_Node000004_Node000006" class="edge">
<title>Node4&#45;&gt;Node6</title>
<g id="a_edge5_Node000004_Node000006"><a xlink:title=" ">
<path fill="none" stroke="#63b8ff" d="M93.17,-78.43C79.18,-75.97 64.16,-73.33 52.08,-71.21"/>
<polygon fill="#63b8ff" stroke="#63b8ff" points="92.16,-81.81 102.61,-80.09 93.37,-74.91 92.16,-81.81"/>
</a>
</g>
</g>
</g>
</svg>
