<?xml version="1.0" encoding="UTF-8" standalone="no"?>
<!DOCTYPE svg PUBLIC "-//W3C//DTD SVG 1.1//EN"
 "http://www.w3.org/Graphics/SVG/1.1/DTD/svg11.dtd">
<!-- Generated by graphviz version 13.1.0 (20250701.0955)
 -->
<!-- Title: dlmalloc_trim Pages: 1 -->
<svg width="340pt" height="180pt"
 viewBox="0.00 0.00 340.00 180.00" xmlns="http://www.w3.org/2000/svg" xmlns:xlink="http://www.w3.org/1999/xlink">

<svg id="main" version="1.1" xmlns="http://www.w3.org/2000/svg" xmlns:xlink="http://www.w3.org/1999/xlink" xml:space="preserve">

<style type="text/css"><![CDATA[
.node, .edge {opacity: 0.7;}
.node.selected, .edge.selected {opacity: 1;}
.edge:hover path { stroke: red; }
.edge:hover polygon { stroke: red; fill: red; }
]]></style>
<script type="application/ecmascript" xlink:href="../../svg.min.js"/>
<svg id="graph" class="graph">
<g id="graph0" class="graph" transform="scale(1 1) rotate(0) translate(4 176)">
<title>dlmalloc_trim</title>
<!-- Node1 -->
<g id="Node000001" class="node">
<title>Node1</title>
<g id="a_Node000001"><a xlink:title=" ">
<polygon fill="#999999" stroke="#666666" points="73.75,-96 0,-96 0,-76 73.75,-76 73.75,-96"/>
<text xml:space="preserve" text-anchor="middle" x="36.88" y="-82.5" font-family="Helvetica,sans-Serif" font-size="10.00">dlmalloc_trim</text>
</a>
</g>
</g>
<!-- Node2 -->
<g id="Node000002" class="node">
<title>Node2</title>
<g id="a_Node000002"><a xlink:href="../../d4/d23/SDL__malloc_8c.html#a3de256edbbbbd4018cd3563f55ee50ab" target="_top" xlink:title=" ">
<polygon fill="white" stroke="#666666" points="163.25,-96 109.75,-96 109.75,-76 163.25,-76 163.25,-96"/>
<text xml:space="preserve" text-anchor="middle" x="136.5" y="-82.5" font-family="Helvetica,sans-Serif" font-size="10.00">sys_trim</text>
</a>
</g>
</g>
<!-- Node1&#45;&gt;Node2 -->
<g id="edge1_Node000001_Node000002" class="edge">
<title>Node1&#45;&gt;Node2</title>
<g id="a_edge1_Node000001_Node000002"><a xlink:title=" ">
<path fill="none" stroke="#63b8ff" d="M74.23,-86C82,-86 90.23,-86 98.05,-86"/>
<polygon fill="#63b8ff" stroke="#63b8ff" points="97.97,-89.5 107.97,-86 97.97,-82.5 97.97,-89.5"/>
</a>
</g>
</g>
<!-- Node3 -->
<g id="Node000003" class="node">
<title>Node3</title>
<g id="a_Node000003"><a xlink:href="../../d4/d23/SDL__malloc_8c.html#ab22b9d57eca306724cb8c4f928d0e824" target="_top" xlink:title=" ">
<polygon fill="white" stroke="#666666" points="312.75,-172 218,-172 218,-152 312.75,-152 312.75,-172"/>
<text xml:space="preserve" text-anchor="middle" x="265.38" y="-158.5" font-family="Helvetica,sans-Serif" font-size="10.00">has_segment_link</text>
</a>
</g>
</g>
<!-- Node2&#45;&gt;Node3 -->
<g id="edge2_Node000002_Node000003" class="edge">
<title>Node2&#45;&gt;Node3</title>
<g id="a_edge2_Node000002_Node000003"><a xlink:title=" ">
<path fill="none" stroke="#63b8ff" d="M146.03,-96.39C157.04,-109.16 177.41,-130.65 199.25,-143 202.04,-144.58 204.97,-146.03 207.98,-147.37"/>
<polygon fill="#63b8ff" stroke="#63b8ff" points="206.44,-150.53 217.03,-150.96 209.02,-144.02 206.44,-150.53"/>
</a>
</g>
</g>
<!-- Node4 -->
<g id="Node000004" class="node">
<title>Node4</title>
<g id="a_Node000004"><a xlink:href="../../d4/d23/SDL__malloc_8c.html#a09ce4644252dfd54eb489e77d0adfd20" target="_top" xlink:title=" ">
<polygon fill="white" stroke="#666666" points="289.12,-134 241.62,-134 241.62,-114 289.12,-114 289.12,-134"/>
<text xml:space="preserve" text-anchor="middle" x="265.38" y="-120.5" font-family="Helvetica,sans-Serif" font-size="10.00">init_top</text>
</a>
</g>
</g>
<!-- Node2&#45;&gt;Node4 -->
<g id="edge3_Node000002_Node000004" class="edge">
<title>Node2&#45;&gt;Node4</title>
<g id="a_edge3_Node000002_Node000004"><a xlink:title=" ">
<path fill="none" stroke="#63b8ff" d="M163.61,-94.13C174.61,-97.52 187.54,-101.49 199.25,-105 209.33,-108.02 220.31,-111.25 230.33,-114.17"/>
<polygon fill="#63b8ff" stroke="#63b8ff" points="229.11,-117.46 239.69,-116.89 231.06,-110.74 229.11,-117.46"/>
</a>
</g>
</g>
<!-- Node5 -->
<g id="Node000005" class="node">
<title>Node5</title>
<g id="a_Node000005"><a xlink:href="../../d4/d23/SDL__malloc_8c.html#a949111e5f127c26e3b9f11bf26c8038a" target="_top" xlink:title=" ">
<polygon fill="white" stroke="#666666" points="331.5,-96 199.25,-96 199.25,-76 331.5,-76 331.5,-96"/>
<text xml:space="preserve" text-anchor="middle" x="265.38" y="-82.5" font-family="Helvetica,sans-Serif" font-size="10.00">release_unused_segments</text>
</a>
</g>
</g>
<!-- Node2&#45;&gt;Node5 -->
<g id="edge4_Node000002_Node000005" class="edge">
<title>Node2&#45;&gt;Node5</title>
<g id="a_edge4_Node000002_Node000005"><a xlink:title=" ">
<path fill="none" stroke="#63b8ff" d="M163.48,-86C170.69,-86 178.9,-86 187.46,-86"/>
<polygon fill="#63b8ff" stroke="#63b8ff" points="187.34,-89.5 197.34,-86 187.34,-82.5 187.34,-89.5"/>
</a>
</g>
</g>
<!-- Node6 -->
<g id="Node000006" class="node">
<title>Node6</title>
<g id="a_Node000006"><a xlink:href="../../d4/d23/SDL__malloc_8c.html#adc1656892fa59cbd2e3b60a2608dfefc" target="_top" xlink:title=" ">
<polygon fill="white" stroke="#666666" points="310.12,-58 220.62,-58 220.62,-38 310.12,-38 310.12,-58"/>
<text xml:space="preserve" text-anchor="middle" x="265.38" y="-44.5" font-family="Helvetica,sans-Serif" font-size="10.00">segment_holding</text>
</a>
</g>
</g>
<!-- Node2&#45;&gt;Node6 -->
<g id="edge5_Node000002_Node000006" class="edge">
<title>Node2&#45;&gt;Node6</title>
<g id="a_edge5_Node000002_Node000006"><a xlink:title=" ">
<path fill="none" stroke="#63b8ff" d="M163.61,-77.87C174.61,-74.48 187.54,-70.51 199.25,-67 205.1,-65.25 211.26,-63.42 217.35,-61.63"/>
<polygon fill="#63b8ff" stroke="#63b8ff" points="218.11,-65.05 226.72,-58.88 216.14,-58.34 218.11,-65.05"/>
</a>
</g>
</g>
<!-- Node7 -->
<g id="Node000007" class="node">
<title>Node7</title>
<g id="a_Node000007"><a xlink:href="../../d3/dda/eglext_8h.html#a0f7193911e632cd84da4082d5c628fe3" target="_top" xlink:title=" ">
<polygon fill="white" stroke="#666666" points="282.38,-20 248.38,-20 248.38,0 282.38,0 282.38,-20"/>
<text xml:space="preserve" text-anchor="middle" x="265.38" y="-6.5" font-family="Helvetica,sans-Serif" font-size="10.00">void</text>
</a>
</g>
</g>
<!-- Node2&#45;&gt;Node7 -->
<g id="edge6_Node000002_Node000007" class="edge">
<title>Node2&#45;&gt;Node7</title>
<g id="a_edge6_Node000002_Node000007"><a xlink:title=" ">
<path fill="none" stroke="#63b8ff" d="M146.03,-75.61C157.04,-62.84 177.41,-41.35 199.25,-29 210.78,-22.48 224.76,-18.02 236.8,-15.07"/>
<polygon fill="#63b8ff" stroke="#63b8ff" points="237.54,-18.49 246.56,-12.93 236.04,-11.65 237.54,-18.49"/>
</a>
</g>
</g>
</g>
</svg>
</svg>

<style type='text/css'>
<![CDATA[
[data-mouse-over-selected='false'] { opacity: 0.7; }
[data-mouse-over-selected='true']  { opacity: 1.0; }
]]>
</style>
<script type="application/ecmascript"><![CDATA[
document.addEventListener('DOMContentLoaded', (event) => {
  highlightEdges();
  highlightAdjacentNodes();
});
]]></script>
</svg>
