<?xml version="1.0" encoding="UTF-8" standalone="no"?>
<!DOCTYPE svg PUBLIC "-//W3C//DTD SVG 1.1//EN"
 "http://www.w3.org/Graphics/SVG/1.1/DTD/svg11.dtd">
<!-- Generated by graphviz version 13.1.0 (20250701.0955)
 -->
<!-- Title: dlrealloc Pages: 1 -->
<svg width="586pt" height="370pt"
 viewBox="0.00 0.00 586.00 370.00" xmlns="http://www.w3.org/2000/svg" xmlns:xlink="http://www.w3.org/1999/xlink">
<g id="graph0" class="graph" transform="scale(1 1) rotate(0) translate(4 366)">
<title>dlrealloc</title>
<!-- Node1 -->
<g id="Node000001" class="node">
<title>Node1</title>
<g id="a_Node000001"><a xlink:title=" ">
<polygon fill="#999999" stroke="#666666" points="52,-134 0,-134 0,-114 52,-114 52,-134"/>
<text xml:space="preserve" text-anchor="middle" x="26" y="-120.5" font-family="Helvetica,sans-Serif" font-size="10.00">dlrealloc</text>
</a>
</g>
</g>
<!-- Node2 -->
<g id="Node000002" class="node">
<title>Node2</title>
<g id="a_Node000002"><a xlink:href="../../d4/d23/SDL__malloc_8c.html#a1b80f9ee2d497077e4741029c8e23700" target="_top" xlink:title=" ">
<polygon fill="white" stroke="#666666" points="277.12,-324 237.12,-324 237.12,-304 277.12,-304 277.12,-324"/>
<text xml:space="preserve" text-anchor="middle" x="257.12" y="-310.5" font-family="Helvetica,sans-Serif" font-size="10.00">dlfree</text>
</a>
</g>
</g>
<!-- Node1&#45;&gt;Node2 -->
<g id="edge1_Node000001_Node000002" class="edge">
<title>Node1&#45;&gt;Node2</title>
<g id="a_edge1_Node000001_Node000002"><a xlink:title=" ">
<path fill="none" stroke="#63b8ff" d="M39.65,-134.49C77.12,-165.56 187.9,-257.43 234.78,-296.3"/>
<polygon fill="#63b8ff" stroke="#63b8ff" points="232.42,-298.89 242.35,-302.58 236.89,-293.5 232.42,-298.89"/>
</a>
</g>
</g>
<!-- Node9 -->
<g id="Node000009" class="node">
<title>Node9</title>
<g id="a_Node000009"><a xlink:href="../../d4/d23/SDL__malloc_8c.html#a018ffd885ac72f4cb8ac0f972f6b4900" target="_top" xlink:title=" ">
<polygon fill="white" stroke="#666666" points="160.25,-134 108.25,-134 108.25,-114 160.25,-114 160.25,-134"/>
<text xml:space="preserve" text-anchor="middle" x="134.25" y="-120.5" font-family="Helvetica,sans-Serif" font-size="10.00">dlmalloc</text>
</a>
</g>
</g>
<!-- Node1&#45;&gt;Node9 -->
<g id="edge9_Node000001_Node000009" class="edge">
<title>Node1&#45;&gt;Node9</title>
<g id="a_edge9_Node000001_Node000009"><a xlink:title=" ">
<path fill="none" stroke="#63b8ff" d="M52.45,-124C65.72,-124 82.19,-124 96.8,-124"/>
<polygon fill="#63b8ff" stroke="#63b8ff" points="96.49,-127.5 106.49,-124 96.49,-120.5 96.49,-127.5"/>
</a>
</g>
</g>
<!-- Node17 -->
<g id="Node000017" class="node">
<title>Node17</title>
<g id="a_Node000017"><a xlink:href="../../d4/d23/SDL__malloc_8c.html#af8adec320537d6e63bc68e76633a1f0e" target="_top" xlink:title=" ">
<polygon fill="white" stroke="#666666" points="180.5,-58 88,-58 88,-38 180.5,-38 180.5,-58"/>
<text xml:space="preserve" text-anchor="middle" x="134.25" y="-44.5" font-family="Helvetica,sans-Serif" font-size="10.00">try_realloc_chunk</text>
</a>
</g>
</g>
<!-- Node1&#45;&gt;Node17 -->
<g id="edge23_Node000001_Node000017" class="edge">
<title>Node1&#45;&gt;Node17</title>
<g id="a_edge23_Node000001_Node000017"><a xlink:title=" ">
<path fill="none" stroke="#63b8ff" d="M41.33,-113.75C58.84,-101.23 88.7,-79.87 109.62,-64.9"/>
<polygon fill="#63b8ff" stroke="#63b8ff" points="111.48,-67.88 117.58,-59.21 107.41,-62.18 111.48,-67.88"/>
</a>
</g>
</g>
<!-- Node3 -->
<g id="Node000003" class="node">
<title>Node3</title>
<g id="a_Node000003"><a xlink:href="../../d4/d23/SDL__malloc_8c.html#a949111e5f127c26e3b9f11bf26c8038a" target="_top" xlink:title=" ">
<polygon fill="white" stroke="#666666" points="578,-362 445.75,-362 445.75,-342 578,-342 578,-362"/>
<text xml:space="preserve" text-anchor="middle" x="511.88" y="-348.5" font-family="Helvetica,sans-Serif" font-size="10.00">release_unused_segments</text>
</a>
</g>
</g>
<!-- Node2&#45;&gt;Node3 -->
<g id="edge2_Node000002_Node000003" class="edge">
<title>Node2&#45;&gt;Node3</title>
<g id="a_edge2_Node000002_Node000003"><a xlink:title=" ">
<path fill="none" stroke="#63b8ff" d="M277.55,-319.67C292.73,-323.92 314.43,-329.55 333.75,-333 366.43,-338.83 402.83,-343.11 434.1,-346.12"/>
<polygon fill="#63b8ff" stroke="#63b8ff" points="433.58,-349.58 443.87,-347.03 434.23,-342.61 433.58,-349.58"/>
</a>
</g>
</g>
<!-- Node4 -->
<g id="Node000004" class="node">
<title>Node4</title>
<g id="a_Node000004"><a xlink:href="../../d4/d23/SDL__malloc_8c.html#a3de256edbbbbd4018cd3563f55ee50ab" target="_top" xlink:title=" ">
<polygon fill="white" stroke="#666666" points="398.5,-324 345,-324 345,-304 398.5,-304 398.5,-324"/>
<text xml:space="preserve" text-anchor="middle" x="371.75" y="-310.5" font-family="Helvetica,sans-Serif" font-size="10.00">sys_trim</text>
</a>
</g>
</g>
<!-- Node2&#45;&gt;Node4 -->
<g id="edge3_Node000002_Node000004" class="edge">
<title>Node2&#45;&gt;Node4</title>
<g id="a_edge3_Node000002_Node000004"><a xlink:title=" ">
<path fill="none" stroke="#63b8ff" d="M277.49,-314C292.83,-314 314.73,-314 333.45,-314"/>
<polygon fill="#63b8ff" stroke="#63b8ff" points="333.38,-317.5 343.38,-314 333.38,-310.5 333.38,-317.5"/>
</a>
</g>
</g>
<!-- Node4&#45;&gt;Node3 -->
<g id="edge6_Node000004_Node000003" class="edge">
<title>Node4&#45;&gt;Node3</title>
<g id="a_edge6_Node000004_Node000003"><a xlink:title=" ">
<path fill="none" stroke="#63b8ff" d="M398.73,-321.15C416.5,-326.04 440.6,-332.67 461.91,-338.53"/>
<polygon fill="#63b8ff" stroke="#63b8ff" points="460.72,-341.83 471.29,-341.11 462.57,-335.08 460.72,-341.83"/>
</a>
</g>
</g>
<!-- Node5 -->
<g id="Node000005" class="node">
<title>Node5</title>
<g id="a_Node000005"><a xlink:href="../../d4/d23/SDL__malloc_8c.html#ab22b9d57eca306724cb8c4f928d0e824" target="_top" xlink:title=" ">
<polygon fill="white" stroke="#666666" points="559.25,-324 464.5,-324 464.5,-304 559.25,-304 559.25,-324"/>
<text xml:space="preserve" text-anchor="middle" x="511.88" y="-310.5" font-family="Helvetica,sans-Serif" font-size="10.00">has_segment_link</text>
</a>
</g>
</g>
<!-- Node4&#45;&gt;Node5 -->
<g id="edge4_Node000004_Node000005" class="edge">
<title>Node4&#45;&gt;Node5</title>
<g id="a_edge4_Node000004_Node000005"><a xlink:title=" ">
<path fill="none" stroke="#63b8ff" d="M398.73,-314C413.94,-314 433.79,-314 452.55,-314"/>
<polygon fill="#63b8ff" stroke="#63b8ff" points="452.53,-317.5 462.53,-314 452.53,-310.5 452.53,-317.5"/>
</a>
</g>
</g>
<!-- Node6 -->
<g id="Node000006" class="node">
<title>Node6</title>
<g id="a_Node000006"><a xlink:href="../../d4/d23/SDL__malloc_8c.html#a09ce4644252dfd54eb489e77d0adfd20" target="_top" xlink:title=" ">
<polygon fill="white" stroke="#666666" points="535.62,-248 488.12,-248 488.12,-228 535.62,-228 535.62,-248"/>
<text xml:space="preserve" text-anchor="middle" x="511.88" y="-234.5" font-family="Helvetica,sans-Serif" font-size="10.00">init_top</text>
</a>
</g>
</g>
<!-- Node4&#45;&gt;Node6 -->
<g id="edge5_Node000004_Node000006" class="edge">
<title>Node4&#45;&gt;Node6</title>
<g id="a_edge5_Node000004_Node000006"><a xlink:title=" ">
<path fill="none" stroke="#63b8ff" d="M383.22,-303.69C396.64,-291.01 421.14,-269.61 445.75,-257 455.35,-252.08 466.41,-248.25 476.66,-245.36"/>
<polygon fill="#63b8ff" stroke="#63b8ff" points="477.5,-248.76 486.3,-242.87 475.74,-241.98 477.5,-248.76"/>
</a>
</g>
</g>
<!-- Node7 -->
<g id="Node000007" class="node">
<title>Node7</title>
<g id="a_Node000007"><a xlink:href="../../d4/d23/SDL__malloc_8c.html#adc1656892fa59cbd2e3b60a2608dfefc" target="_top" xlink:title=" ">
<polygon fill="white" stroke="#666666" points="556.62,-286 467.12,-286 467.12,-266 556.62,-266 556.62,-286"/>
<text xml:space="preserve" text-anchor="middle" x="511.88" y="-272.5" font-family="Helvetica,sans-Serif" font-size="10.00">segment_holding</text>
</a>
</g>
</g>
<!-- Node4&#45;&gt;Node7 -->
<g id="edge7_Node000004_Node000007" class="edge">
<title>Node4&#45;&gt;Node7</title>
<g id="a_edge7_Node000004_Node000007"><a xlink:title=" ">
<path fill="none" stroke="#63b8ff" d="M398.73,-306.85C416.5,-301.96 440.6,-295.33 461.91,-289.47"/>
<polygon fill="#63b8ff" stroke="#63b8ff" points="462.57,-292.92 471.29,-286.89 460.72,-286.17 462.57,-292.92"/>
</a>
</g>
</g>
<!-- Node8 -->
<g id="Node000008" class="node">
<title>Node8</title>
<g id="a_Node000008"><a xlink:href="../../d3/dda/eglext_8h.html#a0f7193911e632cd84da4082d5c628fe3" target="_top" xlink:title=" ">
<polygon fill="white" stroke="#666666" points="528.88,-134 494.88,-134 494.88,-114 528.88,-114 528.88,-134"/>
<text xml:space="preserve" text-anchor="middle" x="511.88" y="-120.5" font-family="Helvetica,sans-Serif" font-size="10.00">void</text>
</a>
</g>
</g>
<!-- Node4&#45;&gt;Node8 -->
<g id="edge8_Node000004_Node000008" class="edge">
<title>Node4&#45;&gt;Node8</title>
<g id="a_edge8_Node000004_Node000008"><a xlink:title=" ">
<path fill="none" stroke="#63b8ff" d="M380.37,-303.51C402.64,-272.88 467.83,-183.21 496.77,-143.41"/>
<polygon fill="#63b8ff" stroke="#63b8ff" points="499.51,-145.59 502.55,-135.45 493.84,-141.48 499.51,-145.59"/>
</a>
</g>
</g>
<!-- Node10 -->
<g id="Node000010" class="node">
<title>Node10</title>
<g id="a_Node000010"><a xlink:href="../../d4/d23/SDL__malloc_8c.html#a726dbaacf5aca0a8435e3ce4d44844f4" target="_top" xlink:title=" ">
<polygon fill="white" stroke="#666666" points="285.75,-172 228.5,-172 228.5,-152 285.75,-152 285.75,-172"/>
<text xml:space="preserve" text-anchor="middle" x="257.12" y="-158.5" font-family="Helvetica,sans-Serif" font-size="10.00">sys_alloc</text>
</a>
</g>
</g>
<!-- Node9&#45;&gt;Node10 -->
<g id="edge10_Node000009_Node000010" class="edge">
<title>Node9&#45;&gt;Node10</title>
<g id="a_edge10_Node000009_Node000010"><a xlink:title=" ">
<path fill="none" stroke="#63b8ff" d="M160.59,-131.97C177.06,-137.14 198.86,-144 217.47,-149.85"/>
<polygon fill="#63b8ff" stroke="#63b8ff" points="216.26,-153.13 226.84,-152.79 218.35,-146.46 216.26,-153.13"/>
</a>
</g>
</g>
<!-- Node15 -->
<g id="Node000015" class="node">
<title>Node15</title>
<g id="a_Node000015"><a xlink:href="../../d4/d23/SDL__malloc_8c.html#a3b1418d10b9d8c0b0f76f49700dbfcf7" target="_top" xlink:title=" ">
<polygon fill="white" stroke="#666666" points="294,-134 220.25,-134 220.25,-114 294,-114 294,-134"/>
<text xml:space="preserve" text-anchor="middle" x="257.12" y="-120.5" font-family="Helvetica,sans-Serif" font-size="10.00">tmalloc_large</text>
</a>
</g>
</g>
<!-- Node9&#45;&gt;Node15 -->
<g id="edge21_Node000009_Node000015" class="edge">
<title>Node9&#45;&gt;Node15</title>
<g id="a_edge21_Node000009_Node000015"><a xlink:title=" ">
<path fill="none" stroke="#63b8ff" d="M160.59,-124C174.54,-124 192.31,-124 208.72,-124"/>
<polygon fill="#63b8ff" stroke="#63b8ff" points="208.3,-127.5 218.3,-124 208.3,-120.5 208.3,-127.5"/>
</a>
</g>
</g>
<!-- Node16 -->
<g id="Node000016" class="node">
<title>Node16</title>
<g id="a_Node000016"><a xlink:href="../../d4/d23/SDL__malloc_8c.html#a11496157d710a0e954cca1e11fd1713f" target="_top" xlink:title=" ">
<polygon fill="white" stroke="#666666" points="295.12,-96 219.12,-96 219.12,-76 295.12,-76 295.12,-96"/>
<text xml:space="preserve" text-anchor="middle" x="257.12" y="-82.5" font-family="Helvetica,sans-Serif" font-size="10.00">tmalloc_small</text>
</a>
</g>
</g>
<!-- Node9&#45;&gt;Node16 -->
<g id="edge22_Node000009_Node000016" class="edge">
<title>Node9&#45;&gt;Node16</title>
<g id="a_edge22_Node000009_Node000016"><a xlink:title=" ">
<path fill="none" stroke="#63b8ff" d="M160.59,-116.03C175.61,-111.31 195.06,-105.2 212.48,-99.72"/>
<polygon fill="#63b8ff" stroke="#63b8ff" points="213.08,-103.2 221.57,-96.86 210.98,-96.52 213.08,-103.2"/>
</a>
</g>
</g>
<!-- Node10&#45;&gt;Node6 -->
<g id="edge16_Node000010_Node000006" class="edge">
<title>Node10&#45;&gt;Node6</title>
<g id="a_edge16_Node000010_Node000006"><a xlink:title=" ">
<path fill="none" stroke="#63b8ff" d="M286.14,-170.42C332.88,-184.48 426.61,-212.66 476.99,-227.81"/>
<polygon fill="#63b8ff" stroke="#63b8ff" points="475.9,-231.14 486.48,-230.66 477.91,-224.43 475.9,-231.14"/>
</a>
</g>
</g>
<!-- Node10&#45;&gt;Node7 -->
<g id="edge19_Node000010_Node000007" class="edge">
<title>Node10&#45;&gt;Node7</title>
<g id="a_edge19_Node000010_Node000007"><a xlink:title=" ">
<path fill="none" stroke="#63b8ff" d="M262.82,-172.24C272.7,-192.44 297.73,-237.2 333.75,-257 370.8,-277.37 418.79,-281.4 455.47,-280.74"/>
<polygon fill="#63b8ff" stroke="#63b8ff" points="455.56,-284.24 465.44,-280.42 455.33,-277.24 455.56,-284.24"/>
</a>
</g>
</g>
<!-- Node10&#45;&gt;Node8 -->
<g id="edge20_Node000010_Node000008" class="edge">
<title>Node10&#45;&gt;Node8</title>
<g id="a_edge20_Node000010_Node000008"><a xlink:title=" ">
<path fill="none" stroke="#63b8ff" d="M286.15,-151.58C290.37,-149.2 294.41,-146.35 297.75,-143 324.12,-116.51 302.17,-86.99 333.75,-67 384.65,-34.79 455.37,-79.74 490.04,-106.54"/>
<polygon fill="#63b8ff" stroke="#63b8ff" points="487.63,-109.1 497.63,-112.59 491.99,-103.62 487.63,-109.1"/>
</a>
</g>
</g>
<!-- Node11 -->
<g id="Node000011" class="node">
<title>Node11</title>
<g id="a_Node000011"><a xlink:href="../../d4/d23/SDL__malloc_8c.html#aecee517bb2a61c5b79a745f3e0b4aa86" target="_top" xlink:title=" ">
<polygon fill="white" stroke="#666666" points="409,-248 334.5,-248 334.5,-228 409,-228 409,-248"/>
<text xml:space="preserve" text-anchor="middle" x="371.75" y="-234.5" font-family="Helvetica,sans-Serif" font-size="10.00">add_segment</text>
</a>
</g>
</g>
<!-- Node10&#45;&gt;Node11 -->
<g id="edge11_Node000010_Node000011" class="edge">
<title>Node10&#45;&gt;Node11</title>
<g id="a_edge11_Node000010_Node000011"><a xlink:title=" ">
<path fill="none" stroke="#63b8ff" d="M273.11,-172.48C288.31,-183.07 312.55,-199.84 333.75,-214 337.34,-216.39 341.13,-218.9 344.88,-221.34"/>
<polygon fill="#63b8ff" stroke="#63b8ff" points="342.92,-224.24 353.21,-226.76 346.73,-218.37 342.92,-224.24"/>
</a>
</g>
</g>
<!-- Node12 -->
<g id="Node000012" class="node">
<title>Node12</title>
<g id="a_Node000012"><a xlink:href="../../d4/d23/SDL__malloc_8c.html#a5609388ac4c1fc24595689b52c6698b9" target="_top" xlink:title=" ">
<polygon fill="white" stroke="#666666" points="397.75,-172 345.75,-172 345.75,-152 397.75,-152 397.75,-172"/>
<text xml:space="preserve" text-anchor="middle" x="371.75" y="-158.5" font-family="Helvetica,sans-Serif" font-size="10.00">init_bins</text>
</a>
</g>
</g>
<!-- Node10&#45;&gt;Node12 -->
<g id="edge15_Node000010_Node000012" class="edge">
<title>Node10&#45;&gt;Node12</title>
<g id="a_edge15_Node000010_Node000012"><a xlink:title=" ">
<path fill="none" stroke="#63b8ff" d="M285.96,-162C300.5,-162 318.47,-162 334.12,-162"/>
<polygon fill="#63b8ff" stroke="#63b8ff" points="334.02,-165.5 344.02,-162 334.02,-158.5 334.02,-165.5"/>
</a>
</g>
</g>
<!-- Node13 -->
<g id="Node000013" class="node">
<title>Node13</title>
<g id="a_Node000013"><a xlink:href="../../d4/d23/SDL__malloc_8c.html#a15fab72f66aa46b46a4677be26a1b5d1" target="_top" xlink:title=" ">
<polygon fill="white" stroke="#666666" points="406,-134 337.5,-134 337.5,-114 406,-114 406,-134"/>
<text xml:space="preserve" text-anchor="middle" x="371.75" y="-120.5" font-family="Helvetica,sans-Serif" font-size="10.00">mmap_alloc</text>
</a>
</g>
</g>
<!-- Node10&#45;&gt;Node13 -->
<g id="edge17_Node000010_Node000013" class="edge">
<title>Node10&#45;&gt;Node13</title>
<g id="a_edge17_Node000010_Node000013"><a xlink:title=" ">
<path fill="none" stroke="#63b8ff" d="M285.96,-152.61C298.94,-148.23 314.66,-142.93 329.01,-138.08"/>
<polygon fill="#63b8ff" stroke="#63b8ff" points="329.87,-141.49 338.23,-134.97 327.63,-134.85 329.87,-141.49"/>
</a>
</g>
</g>
<!-- Node14 -->
<g id="Node000014" class="node">
<title>Node14</title>
<g id="a_Node000014"><a xlink:href="../../d4/d23/SDL__malloc_8c.html#a378b748c27be5a7a156907cc56b8a58e" target="_top" xlink:title=" ">
<polygon fill="white" stroke="#666666" points="409.75,-96 333.75,-96 333.75,-76 409.75,-76 409.75,-96"/>
<text xml:space="preserve" text-anchor="middle" x="371.75" y="-82.5" font-family="Helvetica,sans-Serif" font-size="10.00">prepend_alloc</text>
</a>
</g>
</g>
<!-- Node10&#45;&gt;Node14 -->
<g id="edge18_Node000010_Node000014" class="edge">
<title>Node10&#45;&gt;Node14</title>
<g id="a_edge18_Node000010_Node000014"><a xlink:title=" ">
<path fill="none" stroke="#63b8ff" d="M283.23,-151.68C288.23,-149.15 293.31,-146.24 297.75,-143 316.55,-129.3 315.14,-118.96 333.75,-105 335.09,-104 336.48,-103.02 337.92,-102.08"/>
<polygon fill="#63b8ff" stroke="#63b8ff" points="339.58,-105.16 346.42,-97.06 336.02,-99.13 339.58,-105.16"/>
</a>
</g>
</g>
<!-- Node11&#45;&gt;Node6 -->
<g id="edge12_Node000011_Node000006" class="edge">
<title>Node11&#45;&gt;Node6</title>
<g id="a_edge12_Node000011_Node000006"><a xlink:title=" ">
<path fill="none" stroke="#63b8ff" d="M409.4,-238C430.25,-238 456.19,-238 476.62,-238"/>
<polygon fill="#63b8ff" stroke="#63b8ff" points="476.42,-241.5 486.42,-238 476.42,-234.5 476.42,-241.5"/>
</a>
</g>
</g>
<!-- Node11&#45;&gt;Node7 -->
<g id="edge13_Node000011_Node000007" class="edge">
<title>Node11&#45;&gt;Node7</title>
<g id="a_edge13_Node000011_Node000007"><a xlink:title=" ">
<path fill="none" stroke="#63b8ff" d="M409.4,-248.08C425.53,-252.52 444.71,-257.8 462.03,-262.56"/>
<polygon fill="#63b8ff" stroke="#63b8ff" points="461.06,-265.92 471.63,-265.2 462.91,-259.18 461.06,-265.92"/>
</a>
</g>
</g>
<!-- Node11&#45;&gt;Node8 -->
<g id="edge14_Node000011_Node000008" class="edge">
<title>Node11&#45;&gt;Node8</title>
<g id="a_edge14_Node000011_Node000008"><a xlink:title=" ">
<path fill="none" stroke="#63b8ff" d="M385.01,-227.88C408.6,-208.41 460.57,-165.52 489.81,-141.38"/>
<polygon fill="#63b8ff" stroke="#63b8ff" points="491.79,-144.29 497.28,-135.22 487.34,-138.89 491.79,-144.29"/>
</a>
</g>
</g>
<!-- Node18 -->
<g id="Node000018" class="node">
<title>Node18</title>
<g id="a_Node000018"><a xlink:href="../../d4/d23/SDL__malloc_8c.html#a2d20e33b2d417733503759c0594f882d" target="_top" xlink:title=" ">
<polygon fill="white" stroke="#666666" points="297.75,-58 216.5,-58 216.5,-38 297.75,-38 297.75,-58"/>
<text xml:space="preserve" text-anchor="middle" x="257.12" y="-44.5" font-family="Helvetica,sans-Serif" font-size="10.00">dispose_chunk</text>
</a>
</g>
</g>
<!-- Node17&#45;&gt;Node18 -->
<g id="edge24_Node000017_Node000018" class="edge">
<title>Node17&#45;&gt;Node18</title>
<g id="a_edge24_Node000017_Node000018"><a xlink:title=" ">
<path fill="none" stroke="#63b8ff" d="M180.95,-48C188.76,-48 196.93,-48 204.88,-48"/>
<polygon fill="#63b8ff" stroke="#63b8ff" points="204.79,-51.5 214.79,-48 204.79,-44.5 204.79,-51.5"/>
</a>
</g>
</g>
<!-- Node19 -->
<g id="Node000019" class="node">
<title>Node19</title>
<g id="a_Node000019"><a xlink:href="../../d4/d23/SDL__malloc_8c.html#a614d873251d4d24875c099b0fdf89c8d" target="_top" xlink:title=" ">
<polygon fill="white" stroke="#666666" points="409,-20 334.5,-20 334.5,0 409,0 409,-20"/>
<text xml:space="preserve" text-anchor="middle" x="371.75" y="-6.5" font-family="Helvetica,sans-Serif" font-size="10.00">mmap_resize</text>
</a>
</g>
</g>
<!-- Node17&#45;&gt;Node19 -->
<g id="edge25_Node000017_Node000019" class="edge">
<title>Node17&#45;&gt;Node19</title>
<g id="a_edge25_Node000017_Node000019"><a xlink:title=" ">
<path fill="none" stroke="#63b8ff" d="M175.99,-37.57C188.89,-34.51 203.24,-31.36 216.5,-29 251.95,-22.69 292.36,-17.8 322.92,-14.56"/>
<polygon fill="#63b8ff" stroke="#63b8ff" points="323.03,-18.06 332.62,-13.55 322.31,-11.1 323.03,-18.06"/>
</a>
</g>
</g>
<!-- Node19&#45;&gt;Node8 -->
<g id="edge26_Node000019_Node000008" class="edge">
<title>Node19&#45;&gt;Node8</title>
<g id="a_edge26_Node000019_Node000008"><a xlink:title=" ">
<path fill="none" stroke="#63b8ff" d="M390.07,-20.47C396.4,-24.49 403.54,-29.27 409.75,-34 440.06,-57.11 472.55,-87.05 492.29,-105.9"/>
<polygon fill="#63b8ff" stroke="#63b8ff" points="489.69,-108.26 499.32,-112.67 494.54,-103.21 489.69,-108.26"/>
</a>
</g>
</g>
</g>
</svg>
