<?xml version="1.0" encoding="UTF-8" standalone="no"?>
<!DOCTYPE svg PUBLIC "-//W3C//DTD SVG 1.1//EN"
 "http://www.w3.org/Graphics/SVG/1.1/DTD/svg11.dtd">
<!-- Generated by graphviz version 13.1.0 (20250701.0955)
 -->
<!-- Title: GenericAsyncIOQueueData Pages: 1 -->
<!--zoomable 434 -->

<svg id="main" version="1.1" xmlns="http://www.w3.org/2000/svg" xmlns:xlink="http://www.w3.org/1999/xlink" xml:space="preserve" onload="init(evt)">

<style type="text/css"><![CDATA[
.node, .edge {opacity: 0.7;}
.node.selected, .edge.selected {opacity: 1;}
.edge:hover path { stroke: red; }
.edge:hover polygon { stroke: red; fill: red; }
]]></style>

<defs>
  <circle id="rim" cx="0" cy="0" r="7"/>
  <circle id="rim2" cx="0" cy="0" r="3.5"/>
  <g id="zoomPlus">
    <use xlink:href="#rim" fill="#404040"><set attributeName="fill" to="#808080" begin="zoomplus.mouseover" end="zoomplus.mouseout"/></use>
    <path d="M-4,0h8M0,-4v8" fill="none" stroke="white" stroke-width="1.5" pointer-events="none"/>
  </g>
  <g id="zoomMin">
    <use xlink:href="#rim" fill="#404040"><set attributeName="fill" to="#808080" begin="zoomminus.mouseover" end="zoomminus.mouseout"/></use>
    <path d="M-4,0h8" fill="none" stroke="white" stroke-width="1.5" pointer-events="none"/>
  </g>
  <g id="arrowUp" transform="translate(30 24)">
    <use xlink:href="#rim"/>
    <path pointer-events="none" fill="none" stroke="white" stroke-width="1.5" d="M0,-3.0v7 M-2.5,-0.5L0,-3.0L2.5,-0.5"/>
  </g>
  <g id="arrowRight" transform="rotate(90) translate(36 -43)">
    <use xlink:href="#rim"/>
    <path pointer-events="none" fill="none" stroke="white" stroke-width="1.5" d="M0,-3.0v7 M-2.5,-0.5L0,-3.0L2.5,-0.5"/>
  </g>
  <g id="arrowDown" transform="rotate(180) translate(-30 -48)">
    <use xlink:href="#rim"/>
    <path pointer-events="none" fill="none" stroke="white" stroke-width="1.5" d="M0,-3.0v7 M-2.5,-0.5L0,-3.0L2.5,-0.5"/>
  </g>
  <g id="arrowLeft" transform="rotate(270) translate(-36 17)">
    <use xlink:href="#rim"/>
    <path pointer-events="none" fill="none" stroke="white" stroke-width="1.5" d="M0,-3.0v7 M-2.5,-0.5L0,-3.0L2.5,-0.5"/>
  </g>
  <g id="resetDef">
    <use xlink:href="#rim2" fill="#404040"><set attributeName="fill" to="#808080" begin="reset.mouseover" end="reset.mouseout"/></use>
  </g>
</defs>
<script type="application/ecmascript">
var viewWidth = 579;
var viewHeight = 434;
var sectionId = 'dynsection-0';
</script>
<script type="application/ecmascript" xlink:href="../../svg.min.js"/>
<svg id="graph" class="graph">
<g id="viewport">
<title>GenericAsyncIOQueueData</title>
<!-- Node1 -->
<g id="Node000001" class="node">
<title>Node1</title>
<g id="a_Node000001"><a xlink:title=" ">
<polygon fill="#999999" stroke="#666666" points="373.62,-94 236.12,-94 236.12,-74 373.62,-74 373.62,-94"/>
<text xml:space="preserve" text-anchor="middle" x="304.88" y="-80.5" font-family="Helvetica,sans-Serif" font-size="10.00">GenericAsyncIOQueueData</text>
</a>
</g>
</g>
<!-- Node2 -->
<g id="Node000002" class="node">
<title>Node2</title>
<g id="a_Node000002"><a xlink:href="../../d0/df2/structSDL__Mutex.html" target="_top" xlink:title=" ">
<polygon fill="white" stroke="#666666" points="532.75,-426 465,-426 465,-406 532.75,-406 532.75,-426"/>
<text xml:space="preserve" text-anchor="middle" x="498.88" y="-412.5" font-family="Helvetica,sans-Serif" font-size="10.00">SDL_Mutex</text>
</a>
</g>
</g>
<!-- Node2&#45;&gt;Node1 -->
<g id="edge1_Node000001_Node000002" class="edge">
<title>Node2&#45;&gt;Node1</title>
<g id="a_edge1_Node000001_Node000002"><a xlink:title=" ">
<path fill="none" stroke="#9a32cd" stroke-dasharray="5,2" d="M543.93,-406.19C553.34,-402.21 562.13,-396.41 567.88,-388 572.38,-381.39 570.56,-377.54 567.88,-370 519.42,-233.95 367.52,-125.8 319.55,-94.31"/>
<polygon fill="#9a32cd" stroke="#9a32cd" points="542.88,-402.85 534.61,-409.47 545.2,-409.46 542.88,-402.85"/>
</a>
</g>
<text xml:space="preserve" text-anchor="start" x="543.48" y="-293.5" font-family="Helvetica,sans-Serif" font-size="10.00" fill="grey">lock</text>
</g>
<!-- Node3 -->
<g id="Node000003" class="node">
<title>Node3</title>
<g id="a_Node000003"><a xlink:href="../../d8/d0b/structSDL__Semaphore.html" target="_top" xlink:title=" ">
<polygon fill="white" stroke="#666666" points="528,-352 437.75,-352 437.75,-332 528,-332 528,-352"/>
<text xml:space="preserve" text-anchor="middle" x="482.88" y="-338.5" font-family="Helvetica,sans-Serif" font-size="10.00">SDL_Semaphore</text>
</a>
</g>
</g>
<!-- Node2&#45;&gt;Node3 -->
<g id="edge3_Node000003_Node000002" class="edge">
<title>Node2&#45;&gt;Node3</title>
<g id="a_edge3_Node000003_Node000002"><a xlink:title=" ">
<path fill="none" stroke="#9a32cd" stroke-dasharray="5,2" d="M508.31,-395.2C510.84,-387.19 512.09,-377.98 508.88,-370 506.1,-363.12 500.64,-357.01 495.44,-352.36"/>
<polygon fill="#9a32cd" stroke="#9a32cd" points="505.11,-393.78 504.62,-404.37 511.6,-396.4 505.11,-393.78"/>
</a>
</g>
<text xml:space="preserve" text-anchor="start" x="513.8" y="-375.5" font-family="Helvetica,sans-Serif" font-size="10.00" fill="grey">count_lock</text>
</g>
<!-- Node6 -->
<g id="Node000006" class="node">
<title>Node6</title>
<g id="a_Node000006"><a xlink:href="../../da/d74/structSDL__AsyncIO.html" target="_top" xlink:title=" ">
<polygon fill="white" stroke="#666666" points="246.38,-352 167.38,-352 167.38,-332 246.38,-332 246.38,-352"/>
<text xml:space="preserve" text-anchor="middle" x="206.88" y="-338.5" font-family="Helvetica,sans-Serif" font-size="10.00">SDL_AsyncIO</text>
</a>
</g>
</g>
<!-- Node2&#45;&gt;Node6 -->
<g id="edge9_Node000006_Node000002" class="edge">
<title>Node2&#45;&gt;Node6</title>
<g id="a_edge9_Node000006_Node000002"><a xlink:title=" ">
<path fill="none" stroke="#9a32cd" stroke-dasharray="5,2" d="M453.36,-406.96C426.84,-402.03 392.83,-395.28 362.88,-388 318.64,-377.25 268.13,-362.15 236.87,-352.47"/>
<polygon fill="#9a32cd" stroke="#9a32cd" points="452.65,-410.39 463.12,-408.76 453.91,-403.51 452.65,-410.39"/>
</a>
</g>
<text xml:space="preserve" text-anchor="start" x="365.88" y="-375.5" font-family="Helvetica,sans-Serif" font-size="10.00" fill="grey">lock</text>
</g>
<!-- Node3&#45;&gt;Node2 -->
<g id="edge2_Node000002_Node000003" class="edge">
<title>Node3&#45;&gt;Node2</title>
<g id="a_edge2_Node000002_Node000003"><a xlink:title=" ">
<path fill="none" stroke="#9a32cd" stroke-dasharray="5,2" d="M481.43,-363.8C481.42,-371.52 482.04,-380.27 484.12,-388 485.85,-394.39 489.37,-400.93 492.53,-405.97"/>
<polygon fill="#9a32cd" stroke="#9a32cd" points="484.92,-364.13 481.81,-354.01 477.93,-363.86 484.92,-364.13"/>
</a>
</g>
<text xml:space="preserve" text-anchor="start" x="487.12" y="-375.5" font-family="Helvetica,sans-Serif" font-size="10.00" fill="grey">sem</text>
</g>
<!-- Node4 -->
<g id="Node000004" class="node">
<title>Node4</title>
<g id="a_Node000004"><a xlink:href="../../d0/d07/structSDL__Condition.html" target="_top" xlink:title=" ">
<polygon fill="white" stroke="#666666" points="414.88,-426 332.88,-426 332.88,-406 414.88,-406 414.88,-426"/>
<text xml:space="preserve" text-anchor="middle" x="373.88" y="-412.5" font-family="Helvetica,sans-Serif" font-size="10.00">SDL_Condition</text>
</a>
</g>
</g>
<!-- Node4&#45;&gt;Node1 -->
<g id="edge5_Node000001_Node000004" class="edge">
<title>Node4&#45;&gt;Node1</title>
<g id="a_edge5_Node000001_Node000004"><a xlink:title=" ">
<path fill="none" stroke="#9a32cd" stroke-dasharray="5,2" d="M335.27,-399.69C330.81,-396.45 326.81,-392.59 323.88,-388 291.78,-337.83 301.54,-140.1 304.27,-94.44"/>
<polygon fill="#9a32cd" stroke="#9a32cd" points="333.22,-402.55 343.59,-404.72 336.84,-396.56 333.22,-402.55"/>
</a>
</g>
<text xml:space="preserve" text-anchor="start" x="308.1" y="-293.5" font-family="Helvetica,sans-Serif" font-size="10.00" fill="grey">condition</text>
</g>
<!-- Node4&#45;&gt;Node3 -->
<g id="edge4_Node000003_Node000004" class="edge">
<title>Node4&#45;&gt;Node3</title>
<g id="a_edge4_Node000003_Node000004"><a xlink:title=" ">
<path fill="none" stroke="#9a32cd" stroke-dasharray="5,2" d="M384.67,-396.14C390.6,-387.18 398.68,-376.93 408.12,-370 418.69,-362.24 431.71,-356.52 443.9,-352.4"/>
<polygon fill="#9a32cd" stroke="#9a32cd" points="381.78,-394.16 379.52,-404.51 387.74,-397.83 381.78,-394.16"/>
</a>
</g>
<text xml:space="preserve" text-anchor="start" x="411.12" y="-375.5" font-family="Helvetica,sans-Serif" font-size="10.00" fill="grey">count_nonzero</text>
</g>
<!-- Node5 -->
<g id="Node000005" class="node">
<title>Node5</title>
<g id="a_Node000005"><a xlink:href="../../df/dc4/structSDL__AsyncIOTask.html" target="_top" xlink:title=" ">
<polygon fill="white" stroke="#666666" points="193.88,-223 93.88,-223 93.88,-203 193.88,-203 193.88,-223"/>
<text xml:space="preserve" text-anchor="middle" x="143.88" y="-209.5" font-family="Helvetica,sans-Serif" font-size="10.00">SDL_AsyncIOTask</text>
</a>
</g>
</g>
<!-- Node5&#45;&gt;Node1 -->
<g id="edge6_Node000001_Node000005" class="edge">
<title>Node5&#45;&gt;Node1</title>
<g id="a_edge6_Node000001_Node000005"><a xlink:title=" ">
<path fill="none" stroke="#9a32cd" stroke-dasharray="5,2" d="M157.79,-193.76C167.74,-180.6 181.34,-162.36 192.88,-146 203.35,-131.14 201.01,-122.82 215.62,-112 226.42,-104 239.6,-98.35 252.48,-94.37"/>
<polygon fill="#9a32cd" stroke="#9a32cd" points="155.17,-191.42 151.91,-201.5 160.75,-195.65 155.17,-191.42"/>
</a>
</g>
<text xml:space="preserve" text-anchor="start" x="218.62" y="-125.5" font-family="Helvetica,sans-Serif" font-size="10.00" fill="grey">completed_tasks</text>
</g>
<!-- Node5&#45;&gt;Node5 -->
<g id="edge15_Node000005_Node000005" class="edge">
<title>Node5&#45;&gt;Node5</title>
<g id="a_edge15_Node000005_Node000005"><a xlink:title=" ">
<path fill="none" stroke="#9a32cd" stroke-dasharray="5,2" d="M171.38,-226.95C191.59,-231.7 211.88,-227.05 211.88,-213 211.88,-196.43 183.65,-192.93 160.61,-202.51"/>
<polygon fill="#9a32cd" stroke="#9a32cd" points="172.64,-223.68 162.05,-223.95 170.49,-230.35 172.64,-223.68"/>
</a>
</g>
<text xml:space="preserve" text-anchor="start" x="214.88" y="-249.5" font-family="Helvetica,sans-Serif" font-size="10.00" fill="grey">asyncionext</text>
<text xml:space="preserve" text-anchor="start" x="214.88" y="-233.5" font-family="Helvetica,sans-Serif" font-size="10.00" fill="grey">asyncioprev</text>
<text xml:space="preserve" text-anchor="start" x="214.88" y="-217.5" font-family="Helvetica,sans-Serif" font-size="10.00" fill="grey">queuenext</text>
<text xml:space="preserve" text-anchor="start" x="214.88" y="-201.5" font-family="Helvetica,sans-Serif" font-size="10.00" fill="grey">queueprev</text>
<text xml:space="preserve" text-anchor="start" x="214.88" y="-185.5" font-family="Helvetica,sans-Serif" font-size="10.00" fill="grey">threadpoolnext</text>
<text xml:space="preserve" text-anchor="start" x="214.88" y="-169.5" font-family="Helvetica,sans-Serif" font-size="10.00" fill="grey">threadpoolprev</text>
</g>
<!-- Node5&#45;&gt;Node6 -->
<g id="edge10_Node000006_Node000005" class="edge">
<title>Node5&#45;&gt;Node6</title>
<g id="a_edge10_Node000006_Node000005"><a xlink:title=" ">
<path fill="none" stroke="#9a32cd" stroke-dasharray="5,2" d="M156.94,-232.66C165.6,-245.56 176.8,-263.33 184.88,-280 193.41,-297.63 200.51,-319.47 204.18,-331.66"/>
<polygon fill="#9a32cd" stroke="#9a32cd" points="160.04,-231 151.51,-224.72 154.27,-234.95 160.04,-231"/>
</a>
</g>
<text xml:space="preserve" text-anchor="start" x="201.05" y="-301.5" font-family="Helvetica,sans-Serif" font-size="10.00" fill="grey">closing</text>
<text xml:space="preserve" text-anchor="start" x="201.05" y="-285.5" font-family="Helvetica,sans-Serif" font-size="10.00" fill="grey">tasks</text>
</g>
<!-- Node9 -->
<g id="Node000009" class="node">
<title>Node9</title>
<g id="a_Node000009"><a xlink:href="../../d3/d75/structSDL__AsyncIOQueueInterface.html" target="_top" xlink:title=" ">
<polygon fill="white" stroke="#666666" points="145.75,-94 0,-94 0,-74 145.75,-74 145.75,-94"/>
<text xml:space="preserve" text-anchor="middle" x="72.88" y="-80.5" font-family="Helvetica,sans-Serif" font-size="10.00">SDL_AsyncIOQueueInterface</text>
</a>
</g>
</g>
<!-- Node5&#45;&gt;Node9 -->
<g id="edge13_Node000009_Node000005" class="edge">
<title>Node5&#45;&gt;Node9</title>
<g id="a_edge13_Node000009_Node000005"><a xlink:title=" ">
<path fill="none" stroke="#9a32cd" stroke-dasharray="5,2" d="M133.17,-192.85C117.71,-165.2 89.72,-115.14 78.13,-94.39"/>
<polygon fill="#9a32cd" stroke="#9a32cd" points="130.1,-194.52 138.03,-201.55 136.21,-191.11 130.1,-194.52"/>
</a>
</g>
<text xml:space="preserve" text-anchor="start" x="109.25" y="-133.5" font-family="Helvetica,sans-Serif" font-size="10.00" fill="grey">get_results</text>
<text xml:space="preserve" text-anchor="start" x="109.25" y="-117.5" font-family="Helvetica,sans-Serif" font-size="10.00" fill="grey">wait_results</text>
</g>
<!-- Node6&#45;&gt;Node5 -->
<g id="edge7_Node000005_Node000006" class="edge">
<title>Node6&#45;&gt;Node5</title>
<g id="a_edge7_Node000005_Node000006"><a xlink:title=" ">
<path fill="none" stroke="#9a32cd" stroke-dasharray="5,2" d="M157.54,-326.15C152.68,-322.87 148.36,-318.87 145.12,-314 126.32,-285.64 135.58,-242.09 140.95,-223.23"/>
<polygon fill="#9a32cd" stroke="#9a32cd" points="155.65,-329.11 166.1,-330.89 159.04,-322.98 155.65,-329.11"/>
</a>
</g>
<text xml:space="preserve" text-anchor="start" x="148.12" y="-293.5" font-family="Helvetica,sans-Serif" font-size="10.00" fill="grey">asyncio</text>
</g>
<!-- Node7 -->
<g id="Node000007" class="node">
<title>Node7</title>
<g id="a_Node000007"><a xlink:href="../../d8/db4/structSDL__AsyncIOInterface.html" target="_top" xlink:title=" ">
<polygon fill="white" stroke="#666666" points="265.5,-426 148.25,-426 148.25,-406 265.5,-406 265.5,-426"/>
<text xml:space="preserve" text-anchor="middle" x="206.88" y="-412.5" font-family="Helvetica,sans-Serif" font-size="10.00">SDL_AsyncIOInterface</text>
</a>
</g>
</g>
<!-- Node7&#45;&gt;Node6 -->
<g id="edge8_Node000006_Node000007" class="edge">
<title>Node7&#45;&gt;Node6</title>
<g id="a_edge8_Node000006_Node000007"><a xlink:title=" ">
<path fill="none" stroke="#9a32cd" stroke-dasharray="5,2" d="M206.88,-394.18C206.88,-380.29 206.88,-362.71 206.88,-352.19"/>
<polygon fill="#9a32cd" stroke="#9a32cd" points="203.38,-394.07 206.88,-404.07 210.38,-394.07 203.38,-394.07"/>
</a>
</g>
<text xml:space="preserve" text-anchor="start" x="209.88" y="-375.5" font-family="Helvetica,sans-Serif" font-size="10.00" fill="grey">iface</text>
</g>
<!-- Node8 -->
<g id="Node000008" class="node">
<title>Node8</title>
<g id="a_Node000008"><a xlink:href="../../d0/d61/structSDL__AsyncIOQueue.html" target="_top" xlink:title=" ">
<polygon fill="white" stroke="#666666" points="235.62,-20 128.12,-20 128.12,0 235.62,0 235.62,-20"/>
<text xml:space="preserve" text-anchor="middle" x="181.88" y="-6.5" font-family="Helvetica,sans-Serif" font-size="10.00">SDL_AsyncIOQueue</text>
</a>
</g>
</g>
<!-- Node8&#45;&gt;Node5 -->
<g id="edge11_Node000005_Node000008" class="edge">
<title>Node8&#45;&gt;Node5</title>
<g id="a_edge11_Node000005_Node000008"><a xlink:title=" ">
<path fill="none" stroke="#9a32cd" stroke-dasharray="5,2" d="M181.31,-31.57C180.21,-58.26 177.04,-106.14 167.88,-146 163.07,-166.91 153.53,-190.27 148.03,-202.82"/>
<polygon fill="#9a32cd" stroke="#9a32cd" points="184.8,-31.92 181.64,-21.81 177.8,-31.68 184.8,-31.92"/>
</a>
</g>
<text xml:space="preserve" text-anchor="start" x="181.47" y="-80.5" font-family="Helvetica,sans-Serif" font-size="10.00" fill="grey">queue</text>
</g>
<!-- Node9&#45;&gt;Node8 -->
<g id="edge12_Node000008_Node000009" class="edge">
<title>Node9&#45;&gt;Node8</title>
<g id="a_edge12_Node000008_Node000009"><a xlink:title=" ">
<path fill="none" stroke="#9a32cd" stroke-dasharray="5,2" d="M96.43,-67.39C109.52,-58.73 126.09,-47.76 140.88,-38 149.69,-32.18 159.59,-25.66 167.45,-20.49"/>
<polygon fill="#9a32cd" stroke="#9a32cd" points="94.86,-64.23 88.46,-72.67 98.73,-70.07 94.86,-64.23"/>
</a>
</g>
<text xml:space="preserve" text-anchor="start" x="143.88" y="-43.5" font-family="Helvetica,sans-Serif" font-size="10.00" fill="grey">iface</text>
</g>
<!-- Node10 -->
<g id="Node000010" class="node">
<title>Node10</title>
<g id="a_Node000010"><a xlink:href="../../d1/dbc/structSDL__AtomicInt.html" target="_top" xlink:title=" ">
<polygon fill="white" stroke="#666666" points="474.25,-94 391.5,-94 391.5,-74 474.25,-74 474.25,-94"/>
<text xml:space="preserve" text-anchor="middle" x="432.88" y="-80.5" font-family="Helvetica,sans-Serif" font-size="10.00">SDL_AtomicInt</text>
</a>
</g>
</g>
<!-- Node10&#45;&gt;Node8 -->
<g id="edge14_Node000008_Node000010" class="edge">
<title>Node10&#45;&gt;Node8</title>
<g id="a_edge14_Node000008_Node000010"><a xlink:title=" ">
<path fill="none" stroke="#9a32cd" stroke-dasharray="5,2" d="M388.75,-70.34C338.97,-56.06 259.16,-33.17 214.62,-20.39"/>
<polygon fill="#9a32cd" stroke="#9a32cd" points="387.77,-73.7 398.35,-73.1 389.7,-66.97 387.77,-73.7"/>
</a>
</g>
<text xml:space="preserve" text-anchor="start" x="340.24" y="-43.5" font-family="Helvetica,sans-Serif" font-size="10.00" fill="grey">tasks_inflight</text>
</g>
</g>
</svg>

<g id="navigator" transform="translate(0 0)" fill="#404254">
  <rect fill="#f2f5e9" fill-opacity="0.5" stroke="#606060" stroke-width=".5" x="0" y="0" width="60" height="60"/>
  <use id="zoomplus" xlink:href="#zoomPlus" x="17" y="9" onmousedown="handleZoom(evt,'in')"/>
  <use id="zoomminus" xlink:href="#zoomMin" x="42" y="9" onmousedown="handleZoom(evt,'out')"/>
  <use id="reset" xlink:href="#resetDef" x="30" y="36" onmousedown="handleReset()"/>
   <use id="arrowup" xlink:href="#arrowUp" x="0" y="0" onmousedown="handlePan(0,-1)"/>
  <use id="arrowright" xlink:href="#arrowRight" x="0" y="0" onmousedown="handlePan(1,0)"/>
  <use id="arrowdown" xlink:href="#arrowDown" x="0" y="0" onmousedown="handlePan(0,1)"/>
  <use id="arrowleft" xlink:href="#arrowLeft" x="0" y="0" onmousedown="handlePan(-1,0)"/>
</g>
<svg viewBox="0 0 15 15" width="100%" height="30px" preserveAspectRatio="xMaxYMin meet">
 <g id="arrow_out" transform="scale(0.3 0.3)">
  <a xlink:href="structGenericAsyncIOQueueData__coll__graph_org.svg" target="_base">
   <rect id="button" ry="5" rx="5" y="6" x="6" height="38" width="38"
        fill="#f2f5e9" fill-opacity="0.5" stroke="#606060" stroke-width="1.0"/>
   <path id="arrow"
     d="M 11.500037,31.436501 C 11.940474,20.09759 22.043105,11.32322 32.158766,21.979434 L 37.068811,17.246167 C 37.068811,17.246167 37.088388,32 37.088388,32 L 22.160133,31.978069 C 22.160133,31.978069 26.997745,27.140456 26.997745,27.140456 C 18.528582,18.264221 13.291696,25.230495 11.500037,31.436501 z"
     style="fill:#404040;"/>
  </a>
 </g>
</svg>

<style type='text/css'>
<![CDATA[
[data-mouse-over-selected='false'] { opacity: 0.7; }
[data-mouse-over-selected='true']  { opacity: 1.0; }
]]>
</style>
<script type="application/ecmascript"><![CDATA[
document.addEventListener('DOMContentLoaded', (event) => {
  highlightEdges();
  highlightAdjacentNodes();
});
]]></script>
</svg>
