<?xml version="1.0" encoding="UTF-8" standalone="no"?>
<!DOCTYPE svg PUBLIC "-//W3C//DTD SVG 1.1//EN"
 "http://www.w3.org/Graphics/SVG/1.1/DTD/svg11.dtd">
<!-- Generated by graphviz version 13.1.0 (20250701.0955)
 -->
<!-- Title: SDL_GUIDToString Pages: 1 -->
<svg width="517pt" height="104pt"
 viewBox="0.00 0.00 517.00 104.00" xmlns="http://www.w3.org/2000/svg" xmlns:xlink="http://www.w3.org/1999/xlink">
<g id="graph0" class="graph" transform="scale(1 1) rotate(0) translate(4 100)">
<title>SDL_GUIDToString</title>
<!-- Node1 -->
<g id="Node000001" class="node">
<title>Node1</title>
<g id="a_Node000001"><a xlink:title=" ">
<polygon fill="#999999" stroke="#666666" points="509.25,-39 407,-39 407,-19 509.25,-19 509.25,-39"/>
<text xml:space="preserve" text-anchor="middle" x="458.12" y="-25.5" font-family="Helvetica,sans-Serif" font-size="10.00">SDL_GUIDToString</text>
</a>
</g>
</g>
<!-- Node2 -->
<g id="Node000002" class="node">
<title>Node2</title>
<g id="a_Node000002"><a xlink:href="../../d0/d82/SDL__gamepad_8c.html#a0f52a31fcb42bfeb2c7443af03469241" target="_top" xlink:title=" ">
<polygon fill="white" stroke="#666666" points="344.75,-58 237.25,-58 237.25,-38 344.75,-38 344.75,-58"/>
<text xml:space="preserve" text-anchor="middle" x="291" y="-44.5" font-family="Helvetica,sans-Serif" font-size="10.00">CreateMappingString</text>
</a>
</g>
</g>
<!-- Node1&#45;&gt;Node2 -->
<g id="edge1_Node000001_Node000002" class="edge">
<title>Node1&#45;&gt;Node2</title>
<g id="a_edge1_Node000001_Node000002"><a xlink:title=" ">
<path fill="none" stroke="#63b8ff" d="M395.43,-36.1C378.85,-38.01 361.06,-40.05 344.99,-41.9"/>
<polygon fill="#63b8ff" stroke="#63b8ff" points="395.65,-39.6 405.18,-34.98 394.85,-32.64 395.65,-39.6"/>
</a>
</g>
</g>
<!-- Node6 -->
<g id="Node000006" class="node">
<title>Node6</title>
<g id="a_Node000006"><a xlink:href="../../d0/d82/SDL__gamepad_8c.html#a3e990a65736f0995dd6feb792ac5a963" target="_top" xlink:title=" ">
<polygon fill="white" stroke="#666666" points="371,-20 211,-20 211,0 371,0 371,-20"/>
<text xml:space="preserve" text-anchor="middle" x="291" y="-6.5" font-family="Helvetica,sans-Serif" font-size="10.00">SDL_GetGamepadMappingForID</text>
</a>
</g>
</g>
<!-- Node1&#45;&gt;Node6 -->
<g id="edge5_Node000001_Node000006" class="edge">
<title>Node1&#45;&gt;Node6</title>
<g id="a_edge5_Node000001_Node000006"><a xlink:title=" ">
<path fill="none" stroke="#63b8ff" d="M395.4,-21.9C387.55,-20.99 379.42,-20.06 371.34,-19.13"/>
<polygon fill="#63b8ff" stroke="#63b8ff" points="394.85,-25.36 405.18,-23.02 395.65,-18.4 394.85,-25.36"/>
</a>
</g>
</g>
<!-- Node3 -->
<g id="Node000003" class="node">
<title>Node3</title>
<g id="a_Node000003"><a xlink:href="../../d0/d82/SDL__gamepad_8c.html#a4d16bfc36921fbbd729294b5691173c9" target="_top" xlink:title=" ">
<polygon fill="white" stroke="#666666" points="155.12,-96 19.88,-96 19.88,-76 155.12,-76 155.12,-96"/>
<text xml:space="preserve" text-anchor="middle" x="87.5" y="-82.5" font-family="Helvetica,sans-Serif" font-size="10.00">SDL_GetGamepadMapping</text>
</a>
</g>
</g>
<!-- Node2&#45;&gt;Node3 -->
<g id="edge2_Node000002_Node000003" class="edge">
<title>Node2&#45;&gt;Node3</title>
<g id="a_edge2_Node000002_Node000003"><a xlink:title=" ">
<path fill="none" stroke="#63b8ff" d="M225.8,-60.11C199.53,-65.06 169.43,-70.74 144.12,-75.51"/>
<polygon fill="#63b8ff" stroke="#63b8ff" points="226.13,-63.61 235.31,-58.31 224.83,-56.73 226.13,-63.61"/>
</a>
</g>
</g>
<!-- Node4 -->
<g id="Node000004" class="node">
<title>Node4</title>
<g id="a_Node000004"><a xlink:href="../../d0/d82/SDL__gamepad_8c.html#a04fdb549e3d410cf819b1ceb78c7cae8" target="_top" xlink:title=" ">
<polygon fill="white" stroke="#666666" points="175,-58 0,-58 0,-38 175,-38 175,-58"/>
<text xml:space="preserve" text-anchor="middle" x="87.5" y="-44.5" font-family="Helvetica,sans-Serif" font-size="10.00">SDL_GetGamepadMappingForGUID</text>
</a>
</g>
</g>
<!-- Node2&#45;&gt;Node4 -->
<g id="edge3_Node000002_Node000004" class="edge">
<title>Node2&#45;&gt;Node4</title>
<g id="a_edge3_Node000002_Node000004"><a xlink:title=" ">
<path fill="none" stroke="#63b8ff" d="M225.42,-48C209.43,-48 192.03,-48 175.17,-48"/>
<polygon fill="#63b8ff" stroke="#63b8ff" points="225.28,-51.5 235.28,-48 225.28,-44.5 225.28,-51.5"/>
</a>
</g>
</g>
<!-- Node5 -->
<g id="Node000005" class="node">
<title>Node5</title>
<g id="a_Node000005"><a xlink:href="../../d0/d82/SDL__gamepad_8c.html#a26bfbc1dd35cdbd779357d14e5f11a31" target="_top" xlink:title=" ">
<polygon fill="white" stroke="#666666" points="157.75,-20 17.25,-20 17.25,0 157.75,0 157.75,-20"/>
<text xml:space="preserve" text-anchor="middle" x="87.5" y="-6.5" font-family="Helvetica,sans-Serif" font-size="10.00">SDL_GetGamepadMappings</text>
</a>
</g>
</g>
<!-- Node2&#45;&gt;Node5 -->
<g id="edge4_Node000002_Node000005" class="edge">
<title>Node2&#45;&gt;Node5</title>
<g id="a_edge4_Node000002_Node000005"><a xlink:title=" ">
<path fill="none" stroke="#63b8ff" d="M225.8,-35.89C199.53,-30.94 169.43,-25.26 144.12,-20.49"/>
<polygon fill="#63b8ff" stroke="#63b8ff" points="224.83,-39.27 235.31,-37.69 226.13,-32.39 224.83,-39.27"/>
</a>
</g>
</g>
</g>
</svg>
