<?xml version="1.0" encoding="UTF-8" standalone="no"?>
<!DOCTYPE svg PUBLIC "-//W3C//DTD SVG 1.1//EN"
 "http://www.w3.org/Graphics/SVG/1.1/DTD/svg11.dtd">
<!-- Generated by graphviz version 13.1.0 (20250701.0955)
 -->
<!-- Title: SDL&#45;main/src/video/yuv2rgb/yuv_rgb.h Pages: 1 -->
<svg width="264pt" height="108pt"
 viewBox="0.00 0.00 264.00 108.00" xmlns="http://www.w3.org/2000/svg" xmlns:xlink="http://www.w3.org/1999/xlink">
<g id="graph0" class="graph" transform="scale(1 1) rotate(0) translate(4 104)">
<title>SDL&#45;main/src/video/yuv2rgb/yuv_rgb.h</title>
<!-- Node1 -->
<g id="Node000001" class="node">
<title>Node1</title>
<g id="a_Node000001"><a xlink:title=" ">
<polygon fill="#999999" stroke="#666666" points="170.25,-100 68,-100 68,-68 170.25,-68 170.25,-100"/>
<text xml:space="preserve" text-anchor="start" x="76" y="-86.5" font-family="Helvetica,sans-Serif" font-size="10.00">SDL&#45;main/src/video</text>
<text xml:space="preserve" text-anchor="middle" x="119.12" y="-74.5" font-family="Helvetica,sans-Serif" font-size="10.00">/yuv2rgb/yuv_rgb.h</text>
</a>
</g>
</g>
<!-- Node2 -->
<g id="Node000002" class="node">
<title>Node2</title>
<g id="a_Node000002"><a xlink:href="../../d8/d49/SDL__yuv_8c.html" target="_top" xlink:title=" ">
<polygon fill="white" stroke="#666666" points="102.25,-32 0,-32 0,0 102.25,0 102.25,-32"/>
<text xml:space="preserve" text-anchor="start" x="8" y="-18.5" font-family="Helvetica,sans-Serif" font-size="10.00">SDL&#45;main/src/video</text>
<text xml:space="preserve" text-anchor="middle" x="51.12" y="-6.5" font-family="Helvetica,sans-Serif" font-size="10.00">/SDL_yuv.c</text>
</a>
</g>
</g>
<!-- Node1&#45;&gt;Node2 -->
<g id="edge1_Node000001_Node000002" class="edge">
<title>Node1&#45;&gt;Node2</title>
<g id="a_edge1_Node000001_Node000002"><a xlink:title=" ">
<path fill="none" stroke="#63b8ff" d="M95.13,-59.71C85.73,-50.59 75.21,-40.37 66.81,-32.22"/>
<polygon fill="#63b8ff" stroke="#63b8ff" points="92.65,-62.18 102.27,-66.64 97.53,-57.16 92.65,-62.18"/>
</a>
</g>
</g>
<!-- Node3 -->
<g id="Node000003" class="node">
<title>Node3</title>
<g id="a_Node000003"><a xlink:href="../../df/d89/yuv__rgb__internal_8h.html" target="_top" xlink:title=" ">
<polygon fill="white" stroke="#666666" points="256.12,-32 120.12,-32 120.12,0 256.12,0 256.12,-32"/>
<text xml:space="preserve" text-anchor="start" x="128.12" y="-18.5" font-family="Helvetica,sans-Serif" font-size="10.00">SDL&#45;main/src/video</text>
<text xml:space="preserve" text-anchor="middle" x="188.12" y="-6.5" font-family="Helvetica,sans-Serif" font-size="10.00">/yuv2rgb/yuv_rgb_internal.h</text>
</a>
</g>
</g>
<!-- Node1&#45;&gt;Node3 -->
<g id="edge2_Node000001_Node000003" class="edge">
<title>Node1&#45;&gt;Node3</title>
<g id="a_edge2_Node000001_Node000003"><a xlink:title=" ">
<path fill="none" stroke="#63b8ff" d="M143.18,-59.99C152.8,-50.79 163.6,-40.46 172.21,-32.22"/>
<polygon fill="#63b8ff" stroke="#63b8ff" points="141.03,-57.2 136.22,-66.65 145.87,-62.26 141.03,-57.2"/>
</a>
</g>
</g>
</g>
</svg>
