<?xml version="1.0" encoding="UTF-8" standalone="no"?>
<!DOCTYPE svg PUBLIC "-//W3C//DTD SVG 1.1//EN"
 "http://www.w3.org/Graphics/SVG/1.1/DTD/svg11.dtd">
<!-- Generated by graphviz version 13.1.0 (20250701.0955)
 -->
<!-- Title: SDL_SendMouseWheel Pages: 1 -->
<svg width="512pt" height="78pt"
 viewBox="0.00 0.00 512.00 78.00" xmlns="http://www.w3.org/2000/svg" xmlns:xlink="http://www.w3.org/1999/xlink">
<g id="graph0" class="graph" transform="scale(1 1) rotate(0) translate(4 74)">
<title>SDL_SendMouseWheel</title>
<!-- Node1 -->
<g id="Node000001" class="node">
<title>Node1</title>
<g id="a_Node000001"><a xlink:title=" ">
<polygon fill="#999999" stroke="#666666" points="504,-42 383.75,-42 383.75,-22 504,-22 504,-42"/>
<text xml:space="preserve" text-anchor="middle" x="443.88" y="-28.5" font-family="Helvetica,sans-Serif" font-size="10.00">SDL_SendMouseWheel</text>
</a>
</g>
</g>
<!-- Node2 -->
<g id="Node000002" class="node">
<title>Node2</title>
<g id="a_Node000002"><a xlink:href="../../df/d50/classSDL__BLooper.html#a9fad3593d742f332b361e09992753051" target="_top" xlink:title=" ">
<polygon fill="white" stroke="#666666" points="347.75,-70 199.75,-70 199.75,-38 347.75,-38 347.75,-70"/>
<text xml:space="preserve" text-anchor="start" x="207.75" y="-56.5" font-family="Helvetica,sans-Serif" font-size="10.00">SDL_BLooper::_HandleMouse</text>
<text xml:space="preserve" text-anchor="middle" x="273.75" y="-44.5" font-family="Helvetica,sans-Serif" font-size="10.00">Wheel</text>
</a>
</g>
</g>
<!-- Node1&#45;&gt;Node2 -->
<g id="edge1_Node000001_Node000002" class="edge">
<title>Node1&#45;&gt;Node2</title>
<g id="a_edge1_Node000001_Node000002"><a xlink:title=" ">
<path fill="none" stroke="#63b8ff" d="M372.43,-41.22C364.43,-42.26 356.26,-43.33 348.22,-44.39"/>
<polygon fill="#63b8ff" stroke="#63b8ff" points="372.64,-44.72 382.1,-39.95 371.73,-37.78 372.64,-44.72"/>
</a>
</g>
</g>
<!-- Node4 -->
<g id="Node000004" class="node">
<title>Node4</title>
<g id="a_Node000004"><a xlink:href="../../d0/d59/SDL__wscons__mouse_8c.html#a4f8889eff0acd332bc81e4393b79d135" target="_top" xlink:title=" ">
<polygon fill="white" stroke="#666666" points="311,-20 236.5,-20 236.5,0 311,0 311,-20"/>
<text xml:space="preserve" text-anchor="middle" x="273.75" y="-6.5" font-family="Helvetica,sans-Serif" font-size="10.00">updateMouse</text>
</a>
</g>
</g>
<!-- Node1&#45;&gt;Node4 -->
<g id="edge3_Node000001_Node000004" class="edge">
<title>Node1&#45;&gt;Node4</title>
<g id="a_edge3_Node000001_Node000004"><a xlink:title=" ">
<path fill="none" stroke="#63b8ff" d="M372.36,-22.77C351.25,-20.01 328.96,-17.09 311.02,-14.75"/>
<polygon fill="#63b8ff" stroke="#63b8ff" points="371.73,-26.22 382.1,-24.05 372.64,-19.28 371.73,-26.22"/>
</a>
</g>
</g>
<!-- Node3 -->
<g id="Node000003" class="node">
<title>Node3</title>
<g id="a_Node000003"><a xlink:href="../../df/d50/classSDL__BLooper.html#a5af46ad176704d2ad29595213710d8af" target="_top" xlink:title=" ">
<polygon fill="white" stroke="#666666" points="163.75,-64 0,-64 0,-44 163.75,-44 163.75,-64"/>
<text xml:space="preserve" text-anchor="middle" x="81.88" y="-50.5" font-family="Helvetica,sans-Serif" font-size="10.00">SDL_BLooper::MessageReceived</text>
</a>
</g>
</g>
<!-- Node2&#45;&gt;Node3 -->
<g id="edge2_Node000002_Node000003" class="edge">
<title>Node2&#45;&gt;Node3</title>
<g id="a_edge2_Node000002_Node000003"><a xlink:title=" ">
<path fill="none" stroke="#63b8ff" d="M188.09,-54C180.08,-54 171.96,-54 163.97,-54"/>
<polygon fill="#63b8ff" stroke="#63b8ff" points="187.83,-57.5 197.83,-54 187.83,-50.5 187.83,-57.5"/>
</a>
</g>
</g>
<!-- Node5 -->
<g id="Node000005" class="node">
<title>Node5</title>
<g id="a_Node000005"><a xlink:href="../../d7/da0/SDL__wscons__kbd_8c.html#a8c541b9db4e4dab29285b65e025d386c" target="_top" xlink:title=" ">
<polygon fill="white" stroke="#666666" points="155.88,-20 7.88,-20 7.88,0 155.88,0 155.88,-20"/>
<text xml:space="preserve" text-anchor="middle" x="81.88" y="-6.5" font-family="Helvetica,sans-Serif" font-size="10.00">SDL_WSCONS_PumpEvents</text>
</a>
</g>
</g>
<!-- Node4&#45;&gt;Node5 -->
<g id="edge4_Node000004_Node000005" class="edge">
<title>Node4&#45;&gt;Node5</title>
<g id="a_edge4_Node000004_Node000005"><a xlink:title=" ">
<path fill="none" stroke="#63b8ff" d="M224.75,-10C204.01,-10 179.28,-10 156.32,-10"/>
<polygon fill="#63b8ff" stroke="#63b8ff" points="224.63,-13.5 234.63,-10 224.63,-6.5 224.63,-13.5"/>
</a>
</g>
</g>
</g>
</svg>
