<?xml version="1.0" encoding="UTF-8" standalone="no"?>
<!DOCTYPE svg PUBLIC "-//W3C//DTD SVG 1.1//EN"
 "http://www.w3.org/Graphics/SVG/1.1/DTD/svg11.dtd">
<!-- Generated by graphviz version 13.1.0 (20250701.0955)
 -->
<!-- Title: set_callback Pages: 1 -->
<svg width="435pt" height="78pt"
 viewBox="0.00 0.00 435.00 78.00" xmlns="http://www.w3.org/2000/svg" xmlns:xlink="http://www.w3.org/1999/xlink">

<svg id="main" version="1.1" xmlns="http://www.w3.org/2000/svg" xmlns:xlink="http://www.w3.org/1999/xlink" xml:space="preserve">

<style type="text/css"><![CDATA[
.node, .edge {opacity: 0.7;}
.node.selected, .edge.selected {opacity: 1;}
.edge:hover path { stroke: red; }
.edge:hover polygon { stroke: red; fill: red; }
]]></style>
<script type="application/ecmascript" xlink:href="../../svg.min.js"/>
<svg id="graph" class="graph">
<g id="graph0" class="graph" transform="scale(1 1) rotate(0) translate(4 74)">
<title>set_callback</title>
<!-- Node1 -->
<g id="Node000001" class="node">
<title>Node1</title>
<g id="a_Node000001"><a xlink:title=" ">
<polygon fill="#999999" stroke="#666666" points="426.75,-51 356,-51 356,-31 426.75,-31 426.75,-51"/>
<text xml:space="preserve" text-anchor="middle" x="391.38" y="-37.5" font-family="Helvetica,sans-Serif" font-size="10.00">set_callback</text>
</a>
</g>
</g>
<!-- Node2 -->
<g id="Node000002" class="node">
<title>Node2</title>
<g id="a_Node000002"><a xlink:href="../../d4/d8b/SDL__unixdialog_8c.html#ab2f9e0de0e94da023d667425d1320a1d" target="_top" xlink:title=" ">
<polygon fill="white" stroke="#666666" points="320,-32 190.75,-32 190.75,-12 320,-12 320,-32"/>
<text xml:space="preserve" text-anchor="middle" x="255.38" y="-18.5" font-family="Helvetica,sans-Serif" font-size="10.00">detect_available_methods</text>
</a>
</g>
</g>
<!-- Node1&#45;&gt;Node2 -->
<g id="edge1_Node000001_Node000002" class="edge">
<title>Node1&#45;&gt;Node2</title>
<g id="a_edge1_Node000001_Node000002"><a xlink:title=" ">
<path fill="none" stroke="#63b8ff" d="M344.22,-34.46C336.53,-33.37 328.44,-32.22 320.4,-31.08"/>
<polygon fill="#63b8ff" stroke="#63b8ff" points="343.63,-37.91 354.02,-35.85 344.61,-30.98 343.63,-37.91"/>
</a>
</g>
</g>
<!-- Node3 -->
<g id="Node000003" class="node">
<title>Node3</title>
<g id="a_Node000003"><a xlink:href="../../d4/d8b/SDL__unixdialog_8c.html#a925198d8e6633242b15a3b0e250a60c8" target="_top" xlink:title=" ">
<polygon fill="white" stroke="#666666" points="113.88,-70 40.88,-70 40.88,-50 113.88,-50 113.88,-70"/>
<text xml:space="preserve" text-anchor="middle" x="77.38" y="-56.5" font-family="Helvetica,sans-Serif" font-size="10.00">hint_callback</text>
</a>
</g>
</g>
<!-- Node2&#45;&gt;Node3 -->
<g id="edge2_Node000002_Node000003" class="edge">
<title>Node2&#45;&gt;Node3</title>
<g id="a_edge2_Node000002_Node000003"><a xlink:title=" ">
<path fill="none" stroke="#63b8ff" d="M194.64,-34.9C167.92,-40.67 137.32,-47.27 114.21,-52.26"/>
<polygon fill="#63b8ff" stroke="#63b8ff" points="195.3,-38.34 204.34,-32.8 193.82,-31.49 195.3,-38.34"/>
</a>
</g>
</g>
<!-- Node4 -->
<g id="Node000004" class="node">
<title>Node4</title>
<g id="a_Node000004"><a xlink:href="../../d4/d8b/SDL__unixdialog_8c.html#ac5e36f40c4a1019ab9545659a3637e8d" target="_top" xlink:title=" ">
<polygon fill="white" stroke="#666666" points="154.75,-32 0,-32 0,0 154.75,0 154.75,-32"/>
<text xml:space="preserve" text-anchor="start" x="8" y="-18.5" font-family="Helvetica,sans-Serif" font-size="10.00">SDL_SYS_ShowFileDialogWith</text>
<text xml:space="preserve" text-anchor="middle" x="77.38" y="-6.5" font-family="Helvetica,sans-Serif" font-size="10.00">Properties</text>
</a>
</g>
</g>
<!-- Node2&#45;&gt;Node4 -->
<g id="edge4_Node000002_Node000004" class="edge">
<title>Node2&#45;&gt;Node4</title>
<g id="a_edge4_Node000002_Node000004"><a xlink:title=" ">
<path fill="none" stroke="#63b8ff" d="M178.96,-19.43C171.1,-19.16 163.11,-18.89 155.24,-18.62"/>
<polygon fill="#63b8ff" stroke="#63b8ff" points="178.71,-22.92 188.82,-19.77 178.95,-15.93 178.71,-22.92"/>
</a>
</g>
</g>
<!-- Node3&#45;&gt;Node1 -->
<g id="edge3_Node000003_Node000001" class="edge">
<title>Node3&#45;&gt;Node1</title>
<g id="a_edge3_Node000003_Node000001"><a xlink:title=" ">
<path fill="none" stroke="#63b8ff" d="M125.3,-57.14C188.53,-53.29 299.63,-46.53 355.79,-43.11"/>
<polygon fill="#63b8ff" stroke="#63b8ff" points="125.35,-53.63 115.58,-57.73 125.78,-60.62 125.35,-53.63"/>
</a>
</g>
</g>
</g>
</svg>
</svg>

<style type='text/css'>
<![CDATA[
[data-mouse-over-selected='false'] { opacity: 0.7; }
[data-mouse-over-selected='true']  { opacity: 1.0; }
]]>
</style>
<script type="application/ecmascript"><![CDATA[
document.addEventListener('DOMContentLoaded', (event) => {
  highlightEdges();
  highlightAdjacentNodes();
});
]]></script>
</svg>
