<?xml version="1.0" encoding="UTF-8" standalone="no"?>
<!DOCTYPE svg PUBLIC "-//W3C//DTD SVG 1.1//EN"
 "http://www.w3.org/Graphics/SVG/1.1/DTD/svg11.dtd">
<!-- Generated by graphviz version 13.1.0 (20250701.0955)
 -->
<!-- Title: hint_callback Pages: 1 -->
<svg width="544pt" height="53pt"
 viewBox="0.00 0.00 544.00 53.00" xmlns="http://www.w3.org/2000/svg" xmlns:xlink="http://www.w3.org/1999/xlink">
<g id="graph0" class="graph" transform="scale(1 1) rotate(0) translate(4 49)">
<title>hint_callback</title>
<!-- Node1 -->
<g id="Node000001" class="node">
<title>Node1</title>
<g id="a_Node000001"><a xlink:title=" ">
<polygon fill="#999999" stroke="#666666" points="535.75,-26 462.75,-26 462.75,-6 535.75,-6 535.75,-26"/>
<text xml:space="preserve" text-anchor="middle" x="499.25" y="-12.5" font-family="Helvetica,sans-Serif" font-size="10.00">hint_callback</text>
</a>
</g>
</g>
<!-- Node2 -->
<g id="Node000002" class="node">
<title>Node2</title>
<g id="a_Node000002"><a xlink:href="../../d4/d8b/SDL__unixdialog_8c.html#a01eadec5086a813f0c8c2bc6baa38150" target="_top" xlink:title=" ">
<polygon fill="white" stroke="#666666" points="426.75,-45 356,-45 356,-25 426.75,-25 426.75,-45"/>
<text xml:space="preserve" text-anchor="middle" x="391.38" y="-31.5" font-family="Helvetica,sans-Serif" font-size="10.00">set_callback</text>
</a>
</g>
</g>
<!-- Node1&#45;&gt;Node2 -->
<g id="edge1_Node000001_Node000002" class="edge">
<title>Node1&#45;&gt;Node2</title>
<g id="a_edge1_Node000001_Node000002"><a xlink:title=" ">
<path fill="none" stroke="#63b8ff" d="M451.17,-24.45C443.08,-25.9 434.8,-27.39 427.11,-28.77"/>
<polygon fill="#63b8ff" stroke="#63b8ff" points="451.69,-27.91 460.92,-22.7 450.45,-21.02 451.69,-27.91"/>
</a>
</g>
</g>
<!-- Node3 -->
<g id="Node000003" class="node">
<title>Node3</title>
<g id="a_Node000003"><a xlink:href="../../d4/d8b/SDL__unixdialog_8c.html#ab2f9e0de0e94da023d667425d1320a1d" target="_top" xlink:title=" ">
<polygon fill="white" stroke="#666666" points="320,-26 190.75,-26 190.75,-6 320,-6 320,-26"/>
<text xml:space="preserve" text-anchor="middle" x="255.38" y="-12.5" font-family="Helvetica,sans-Serif" font-size="10.00">detect_available_methods</text>
</a>
</g>
</g>
<!-- Node2&#45;&gt;Node3 -->
<g id="edge2_Node000002_Node000003" class="edge">
<title>Node2&#45;&gt;Node3</title>
<g id="a_edge2_Node000002_Node000003"><a xlink:title=" ">
<path fill="none" stroke="#63b8ff" d="M344.22,-28.46C336.53,-27.37 328.44,-26.22 320.4,-25.08"/>
<polygon fill="#63b8ff" stroke="#63b8ff" points="343.63,-31.91 354.02,-29.85 344.61,-24.98 343.63,-31.91"/>
</a>
</g>
</g>
<!-- Node3&#45;&gt;Node1 -->
<g id="edge3_Node000003_Node000001" class="edge">
<title>Node3&#45;&gt;Node1</title>
<g id="a_edge3_Node000003_Node000001"><a xlink:title=" ">
<path fill="none" stroke="#63b8ff" d="M331.71,-16C375.23,-16 427.99,-16 462.3,-16"/>
<polygon fill="#63b8ff" stroke="#63b8ff" points="331.79,-12.5 321.79,-16 331.79,-19.5 331.79,-12.5"/>
</a>
</g>
</g>
<!-- Node4 -->
<g id="Node000004" class="node">
<title>Node4</title>
<g id="a_Node000004"><a xlink:href="../../d4/d8b/SDL__unixdialog_8c.html#ac5e36f40c4a1019ab9545659a3637e8d" target="_top" xlink:title=" ">
<polygon fill="white" stroke="#666666" points="154.75,-32 0,-32 0,0 154.75,0 154.75,-32"/>
<text xml:space="preserve" text-anchor="start" x="8" y="-18.5" font-family="Helvetica,sans-Serif" font-size="10.00">SDL_SYS_ShowFileDialogWith</text>
<text xml:space="preserve" text-anchor="middle" x="77.38" y="-6.5" font-family="Helvetica,sans-Serif" font-size="10.00">Properties</text>
</a>
</g>
</g>
<!-- Node3&#45;&gt;Node4 -->
<g id="edge4_Node000003_Node000004" class="edge">
<title>Node3&#45;&gt;Node4</title>
<g id="a_edge4_Node000003_Node000004"><a xlink:title=" ">
<path fill="none" stroke="#63b8ff" d="M178.96,-16C171.1,-16 163.11,-16 155.24,-16"/>
<polygon fill="#63b8ff" stroke="#63b8ff" points="178.82,-19.5 188.82,-16 178.82,-12.5 178.82,-19.5"/>
</a>
</g>
</g>
</g>
</svg>
