<?xml version="1.0" encoding="UTF-8" standalone="no"?>
<!DOCTYPE svg PUBLIC "-//W3C//DTD SVG 1.1//EN"
 "http://www.w3.org/Graphics/SVG/1.1/DTD/svg11.dtd">
<!-- Generated by graphviz version 13.1.0 (20250701.0955)
 -->
<!-- Title: SincTable Pages: 1 -->
<svg width="644pt" height="104pt"
 viewBox="0.00 0.00 644.00 104.00" xmlns="http://www.w3.org/2000/svg" xmlns:xlink="http://www.w3.org/1999/xlink">
<g id="graph0" class="graph" transform="scale(1 1) rotate(0) translate(4 100)">
<title>SincTable</title>
<!-- Node1 -->
<g id="Node000001" class="node">
<title>Node1</title>
<g id="a_Node000001"><a xlink:title=" ">
<polygon fill="#999999" stroke="#666666" points="58.75,-58 0,-58 0,-38 58.75,-38 58.75,-58"/>
<text xml:space="preserve" text-anchor="middle" x="29.38" y="-44.5" font-family="Helvetica,sans-Serif" font-size="10.00">SincTable</text>
</a>
</g>
</g>
<!-- Node2 -->
<g id="Node000002" class="node">
<title>Node2</title>
<g id="a_Node000002"><a xlink:href="../../d3/d02/SDL__stdlib_8c.html#a648f19f0cdae5c87c0b0095e61f3e2d7" target="_top" xlink:title=" ">
<polygon fill="white" stroke="#666666" points="151.25,-58 94.75,-58 94.75,-38 151.25,-38 151.25,-58"/>
<text xml:space="preserve" text-anchor="middle" x="123" y="-44.5" font-family="Helvetica,sans-Serif" font-size="10.00">SDL_sinf</text>
</a>
</g>
</g>
<!-- Node1&#45;&gt;Node2 -->
<g id="edge1_Node000001_Node000002" class="edge">
<title>Node1&#45;&gt;Node2</title>
<g id="a_edge1_Node000001_Node000002"><a xlink:title=" ">
<path fill="none" stroke="#63b8ff" d="M59.11,-48C66.66,-48 74.93,-48 82.92,-48"/>
<polygon fill="#63b8ff" stroke="#63b8ff" points="82.79,-51.5 92.79,-48 82.79,-44.5 82.79,-51.5"/>
</a>
</g>
</g>
<!-- Node3 -->
<g id="Node000003" class="node">
<title>Node3</title>
<g id="a_Node000003"><a xlink:href="../../d3/d02/SDL__stdlib_8c.html#a56fda7c53d64a33b28a76d5a5c14bcb9" target="_top" xlink:title=" ">
<polygon fill="white" stroke="#666666" points="240.75,-58 187.25,-58 187.25,-38 240.75,-38 240.75,-58"/>
<text xml:space="preserve" text-anchor="middle" x="214" y="-44.5" font-family="Helvetica,sans-Serif" font-size="10.00">SDL_sin</text>
</a>
</g>
</g>
<!-- Node2&#45;&gt;Node3 -->
<g id="edge2_Node000002_Node000003" class="edge">
<title>Node2&#45;&gt;Node3</title>
<g id="a_edge2_Node000002_Node000003"><a xlink:title=" ">
<path fill="none" stroke="#63b8ff" d="M151.67,-48C159.21,-48 167.51,-48 175.5,-48"/>
<polygon fill="#63b8ff" stroke="#63b8ff" points="175.35,-51.5 185.35,-48 175.35,-44.5 175.35,-51.5"/>
</a>
</g>
</g>
<!-- Node4 -->
<g id="Node000004" class="node">
<title>Node4</title>
<g id="a_Node000004"><a xlink:href="../../de/d0d/s__sin_8c.html#ab2daeb832f8f35bc2237cfca8f0a187a" target="_top" xlink:title=" ">
<polygon fill="white" stroke="#666666" points="361,-58 276.75,-58 276.75,-38 361,-38 361,-58"/>
<text xml:space="preserve" text-anchor="middle" x="318.88" y="-44.5" font-family="Helvetica,sans-Serif" font-size="10.00">SDL_uclibc_sin</text>
</a>
</g>
</g>
<!-- Node3&#45;&gt;Node4 -->
<g id="edge3_Node000003_Node000004" class="edge">
<title>Node3&#45;&gt;Node4</title>
<g id="a_edge3_Node000003_Node000004"><a xlink:title=" ">
<path fill="none" stroke="#63b8ff" d="M241.23,-48C248.59,-48 256.88,-48 265.2,-48"/>
<polygon fill="#63b8ff" stroke="#63b8ff" points="264.99,-51.5 274.99,-48 264.99,-44.5 264.99,-51.5"/>
</a>
</g>
</g>
<!-- Node5 -->
<g id="Node000005" class="node">
<title>Node5</title>
<g id="a_Node000005"><a xlink:href="../../d6/d16/e__rem__pio2_8c.html#abb840868a6f0a5a076ee3ac86992db6a" target="_top" xlink:title=" ">
<polygon fill="white" stroke="#666666" points="502.25,-96 397,-96 397,-76 502.25,-76 502.25,-96"/>
<text xml:space="preserve" text-anchor="middle" x="449.62" y="-82.5" font-family="Helvetica,sans-Serif" font-size="10.00">__ieee754_rem_pio2</text>
</a>
</g>
</g>
<!-- Node4&#45;&gt;Node5 -->
<g id="edge4_Node000004_Node000005" class="edge">
<title>Node4&#45;&gt;Node5</title>
<g id="a_edge4_Node000004_Node000005"><a xlink:title=" ">
<path fill="none" stroke="#63b8ff" d="M355.4,-58.48C369.89,-62.76 386.85,-67.77 402.29,-72.33"/>
<polygon fill="#63b8ff" stroke="#63b8ff" points="401.19,-75.65 411.77,-75.12 403.17,-68.93 401.19,-75.65"/>
</a>
</g>
</g>
<!-- Node7 -->
<g id="Node000007" class="node">
<title>Node7</title>
<g id="a_Node000007"><a xlink:href="../../d5/dfd/k__cos_8c.html#a5468a5a3c3d5d5e34e73fac9d6bc0122" target="_top" xlink:title=" ">
<polygon fill="white" stroke="#666666" points="486.5,-58 412.75,-58 412.75,-38 486.5,-38 486.5,-58"/>
<text xml:space="preserve" text-anchor="middle" x="449.62" y="-44.5" font-family="Helvetica,sans-Serif" font-size="10.00">__kernel_cos</text>
</a>
</g>
</g>
<!-- Node4&#45;&gt;Node7 -->
<g id="edge6_Node000004_Node000007" class="edge">
<title>Node4&#45;&gt;Node7</title>
<g id="a_edge6_Node000004_Node000007"><a xlink:title=" ">
<path fill="none" stroke="#63b8ff" d="M361.32,-48C374.06,-48 388.17,-48 401.27,-48"/>
<polygon fill="#63b8ff" stroke="#63b8ff" points="400.95,-51.5 410.95,-48 400.95,-44.5 400.95,-51.5"/>
</a>
</g>
</g>
<!-- Node8 -->
<g id="Node000008" class="node">
<title>Node8</title>
<g id="a_Node000008"><a xlink:href="../../d0/d13/k__sin_8c.html#adcc3cb89edf47f34f1e8058e198be293" target="_top" xlink:title=" ">
<polygon fill="white" stroke="#666666" points="485,-20 414.25,-20 414.25,0 485,0 485,-20"/>
<text xml:space="preserve" text-anchor="middle" x="449.62" y="-6.5" font-family="Helvetica,sans-Serif" font-size="10.00">__kernel_sin</text>
</a>
</g>
</g>
<!-- Node4&#45;&gt;Node8 -->
<g id="edge7_Node000004_Node000008" class="edge">
<title>Node4&#45;&gt;Node8</title>
<g id="a_edge7_Node000004_Node000008"><a xlink:title=" ">
<path fill="none" stroke="#63b8ff" d="M355.4,-37.52C370.27,-33.12 387.74,-27.97 403.51,-23.31"/>
<polygon fill="#63b8ff" stroke="#63b8ff" points="404.06,-26.8 412.66,-20.62 402.07,-20.09 404.06,-26.8"/>
</a>
</g>
</g>
<!-- Node6 -->
<g id="Node000006" class="node">
<title>Node6</title>
<g id="a_Node000006"><a xlink:href="../../d8/d6e/k__rem__pio2_8c.html#a96906e13fc34f043f809bacb48ed7454" target="_top" xlink:title=" ">
<polygon fill="white" stroke="#666666" points="636,-96 538.25,-96 538.25,-76 636,-76 636,-96"/>
<text xml:space="preserve" text-anchor="middle" x="587.12" y="-82.5" font-family="Helvetica,sans-Serif" font-size="10.00">__kernel_rem_pio2</text>
</a>
</g>
</g>
<!-- Node5&#45;&gt;Node6 -->
<g id="edge5_Node000005_Node000006" class="edge">
<title>Node5&#45;&gt;Node6</title>
<g id="a_edge5_Node000005_Node000006"><a xlink:title=" ">
<path fill="none" stroke="#63b8ff" d="M502.63,-86C510.45,-86 518.57,-86 526.53,-86"/>
<polygon fill="#63b8ff" stroke="#63b8ff" points="526.53,-89.5 536.53,-86 526.53,-82.5 526.53,-89.5"/>
</a>
</g>
</g>
</g>
</svg>
