<?xml version="1.0" encoding="UTF-8" standalone="no"?>
<!DOCTYPE svg PUBLIC "-//W3C//DTD SVG 1.1//EN"
 "http://www.w3.org/Graphics/SVG/1.1/DTD/svg11.dtd">
<!-- Generated by graphviz version 13.1.0 (20250701.0955)
 -->
<!-- Title: SetupAudioResampler Pages: 1 -->
<svg width="1035pt" height="332pt"
 viewBox="0.00 0.00 1035.00 332.00" xmlns="http://www.w3.org/2000/svg" xmlns:xlink="http://www.w3.org/1999/xlink">
<g id="graph0" class="graph" transform="scale(1 1) rotate(0) translate(4 328)">
<title>SetupAudioResampler</title>
<!-- Node1 -->
<g id="Node000001" class="node">
<title>Node1</title>
<g id="a_Node000001"><a xlink:title=" ">
<polygon fill="#999999" stroke="#666666" points="113.5,-134 0,-134 0,-114 113.5,-114 113.5,-134"/>
<text xml:space="preserve" text-anchor="middle" x="56.75" y="-120.5" font-family="Helvetica,sans-Serif" font-size="10.00">SetupAudioResampler</text>
</a>
</g>
</g>
<!-- Node2 -->
<g id="Node000002" class="node">
<title>Node2</title>
<g id="a_Node000002"><a xlink:href="../../d0/d15/SDL__audioresample_8c.html#a6beceb0e86cee15eaf150d37db2125fd" target="_top" xlink:title=" ">
<polygon fill="white" stroke="#666666" points="275.38,-248 150.62,-248 150.62,-228 275.38,-228 275.38,-248"/>
<text xml:space="preserve" text-anchor="middle" x="213" y="-234.5" font-family="Helvetica,sans-Serif" font-size="10.00">GenerateResamplerFilter</text>
</a>
</g>
</g>
<!-- Node1&#45;&gt;Node2 -->
<g id="edge1_Node000001_Node000002" class="edge">
<title>Node1&#45;&gt;Node2</title>
<g id="a_edge1_Node000001_Node000002"><a xlink:title=" ">
<path fill="none" stroke="#63b8ff" d="M64.83,-134.23C78.77,-153.64 111.75,-195.91 149.5,-219 151.91,-220.48 154.45,-221.84 157.06,-223.11"/>
<polygon fill="#63b8ff" stroke="#63b8ff" points="155.45,-226.23 166.02,-226.93 158.19,-219.79 155.45,-226.23"/>
</a>
</g>
</g>
<!-- Node17 -->
<g id="Node000017" class="node">
<title>Node17</title>
<g id="a_Node000017"><a xlink:href="../../d0/d15/SDL__audioresample_8c.html#ac17b29ea6721dd62cafb09810cd03ef8" target="_top" xlink:title=" ">
<polygon fill="white" stroke="#666666" points="276.5,-210 149.5,-210 149.5,-190 276.5,-190 276.5,-210"/>
<text xml:space="preserve" text-anchor="middle" x="213" y="-196.5" font-family="Helvetica,sans-Serif" font-size="10.00">ResampleFrame_Generic</text>
</a>
</g>
</g>
<!-- Node1&#45;&gt;Node17 -->
<g id="edge16_Node000001_Node000017" class="edge">
<title>Node1&#45;&gt;Node17</title>
<g id="a_edge16_Node000001_Node000017"><a xlink:title=" ">
<path fill="none" stroke="#63b8ff" d="M71.72,-134.3C89.17,-146.78 120.29,-167.76 149.5,-181 153.29,-182.72 157.27,-184.33 161.32,-185.84"/>
<polygon fill="#63b8ff" stroke="#63b8ff" points="160.06,-189.1 170.65,-189.07 162.35,-182.49 160.06,-189.1"/>
</a>
</g>
</g>
<!-- Node18 -->
<g id="Node000018" class="node">
<title>Node18</title>
<g id="a_Node000018"><a xlink:href="../../d0/d15/SDL__audioresample_8c.html#ad84047dd0b7ab9b28a7ebdec66cbdc8b" target="_top" xlink:title=" ">
<polygon fill="white" stroke="#666666" points="271.62,-172 154.38,-172 154.38,-152 271.62,-152 271.62,-172"/>
<text xml:space="preserve" text-anchor="middle" x="213" y="-158.5" font-family="Helvetica,sans-Serif" font-size="10.00">ResampleFrame_Mono</text>
</a>
</g>
</g>
<!-- Node1&#45;&gt;Node18 -->
<g id="edge17_Node000001_Node000018" class="edge">
<title>Node1&#45;&gt;Node18</title>
<g id="a_edge17_Node000001_Node000018"><a xlink:title=" ">
<path fill="none" stroke="#63b8ff" d="M100.31,-134.48C118.35,-138.93 139.57,-144.16 158.64,-148.85"/>
<polygon fill="#63b8ff" stroke="#63b8ff" points="157.56,-152.19 168.11,-151.19 159.24,-145.4 157.56,-152.19"/>
</a>
</g>
</g>
<!-- Node19 -->
<g id="Node000019" class="node">
<title>Node19</title>
<g id="a_Node000019"><a xlink:href="../../d0/d15/SDL__audioresample_8c.html#a0ad7edbd3fbfe06615ffa3034b970196" target="_top" xlink:title=" ">
<polygon fill="white" stroke="#666666" points="273.88,-134 152.12,-134 152.12,-114 273.88,-114 273.88,-134"/>
<text xml:space="preserve" text-anchor="middle" x="213" y="-120.5" font-family="Helvetica,sans-Serif" font-size="10.00">ResampleFrame_Stereo</text>
</a>
</g>
</g>
<!-- Node1&#45;&gt;Node19 -->
<g id="edge18_Node000001_Node000019" class="edge">
<title>Node1&#45;&gt;Node19</title>
<g id="a_edge18_Node000001_Node000019"><a xlink:title=" ">
<path fill="none" stroke="#63b8ff" d="M113.87,-124C122.54,-124 131.58,-124 140.52,-124"/>
<polygon fill="#63b8ff" stroke="#63b8ff" points="140.24,-127.5 150.24,-124 140.24,-120.5 140.24,-127.5"/>
</a>
</g>
</g>
<!-- Node20 -->
<g id="Node000020" class="node">
<title>Node20</title>
<g id="a_Node000020"><a xlink:href="../../d8/d58/SDL__cpuinfo_8c.html#a9278d6af5637835a131e51ad40aea1d7" target="_top" xlink:title=" ">
<polygon fill="white" stroke="#666666" points="257,-96 169,-96 169,-76 257,-76 257,-96"/>
<text xml:space="preserve" text-anchor="middle" x="213" y="-82.5" font-family="Helvetica,sans-Serif" font-size="10.00">SDL_HasNEON</text>
</a>
</g>
</g>
<!-- Node1&#45;&gt;Node20 -->
<g id="edge19_Node000001_Node000020" class="edge">
<title>Node1&#45;&gt;Node20</title>
<g id="a_edge19_Node000001_Node000020"><a xlink:title=" ">
<path fill="none" stroke="#63b8ff" d="M100.31,-113.52C118.35,-109.07 139.57,-103.84 158.64,-99.15"/>
<polygon fill="#63b8ff" stroke="#63b8ff" points="159.24,-102.6 168.11,-96.81 157.56,-95.81 159.24,-102.6"/>
</a>
</g>
</g>
<!-- Node21 -->
<g id="Node000021" class="node">
<title>Node21</title>
<g id="a_Node000021"><a xlink:href="../../d8/d58/SDL__cpuinfo_8c.html#a6a11a9174056b52c71dcba24e8c3d32b" target="_top" xlink:title=" ">
<polygon fill="white" stroke="#666666" points="252.5,-58 173.5,-58 173.5,-38 252.5,-38 252.5,-58"/>
<text xml:space="preserve" text-anchor="middle" x="213" y="-44.5" font-family="Helvetica,sans-Serif" font-size="10.00">SDL_HasSSE</text>
</a>
</g>
</g>
<!-- Node1&#45;&gt;Node21 -->
<g id="edge20_Node000001_Node000021" class="edge">
<title>Node1&#45;&gt;Node21</title>
<g id="a_edge20_Node000001_Node000021"><a xlink:title=" ">
<path fill="none" stroke="#63b8ff" d="M71.72,-113.7C89.17,-101.22 120.29,-80.24 149.5,-67 153.57,-65.16 157.86,-63.43 162.22,-61.83"/>
<polygon fill="#63b8ff" stroke="#63b8ff" points="163.32,-65.15 171.65,-58.6 161.05,-58.53 163.32,-65.15"/>
</a>
</g>
</g>
<!-- Node22 -->
<g id="Node000022" class="node">
<title>Node22</title>
<g id="a_Node000022"><a xlink:href="../../d0/d15/SDL__audioresample_8c.html#af675884a48cc21226534a2511704eccf" target="_top" xlink:title=" ">
<polygon fill="white" stroke="#666666" points="251.75,-20 174.25,-20 174.25,0 251.75,0 251.75,-20"/>
<text xml:space="preserve" text-anchor="middle" x="213" y="-6.5" font-family="Helvetica,sans-Serif" font-size="10.00">Transpose4x4</text>
</a>
</g>
</g>
<!-- Node1&#45;&gt;Node22 -->
<g id="edge21_Node000001_Node000022" class="edge">
<title>Node1&#45;&gt;Node22</title>
<g id="a_edge21_Node000001_Node000022"><a xlink:title=" ">
<path fill="none" stroke="#63b8ff" d="M64.83,-113.77C78.77,-94.36 111.75,-52.09 149.5,-29 153.81,-26.37 158.51,-24.07 163.33,-22.08"/>
<polygon fill="#63b8ff" stroke="#63b8ff" points="164.37,-25.43 172.57,-18.71 161.97,-18.85 164.37,-25.43"/>
</a>
</g>
</g>
<!-- Node3 -->
<g id="Node000003" class="node">
<title>Node3</title>
<g id="a_Node000003"><a xlink:href="../../d0/d15/SDL__audioresample_8c.html#a43f3086a13eec196d3238255e2d397f5" target="_top" xlink:title=" ">
<polygon fill="white" stroke="#666666" points="390.38,-324 336.12,-324 336.12,-304 390.38,-304 390.38,-324"/>
<text xml:space="preserve" text-anchor="middle" x="363.25" y="-310.5" font-family="Helvetica,sans-Serif" font-size="10.00">BesselI0</text>
</a>
</g>
</g>
<!-- Node2&#45;&gt;Node3 -->
<g id="edge2_Node000002_Node000003" class="edge">
<title>Node2&#45;&gt;Node3</title>
<g id="a_edge2_Node000002_Node000003"><a xlink:title=" ">
<path fill="none" stroke="#63b8ff" d="M229.95,-248.3C249.09,-260.4 282.36,-280.64 312.5,-295 316.56,-296.94 320.88,-298.82 325.2,-300.61"/>
<polygon fill="#63b8ff" stroke="#63b8ff" points="323.85,-303.84 334.43,-304.26 326.42,-297.33 323.85,-303.84"/>
</a>
</g>
</g>
<!-- Node4 -->
<g id="Node000004" class="node">
<title>Node4</title>
<g id="a_Node000004"><a xlink:href="../../d0/d15/SDL__audioresample_8c.html#ad7f5eaea7c10e8fed2198f0f16832f91" target="_top" xlink:title=" ">
<polygon fill="white" stroke="#666666" points="414,-286 312.5,-286 312.5,-266 414,-266 414,-286"/>
<text xml:space="preserve" text-anchor="middle" x="363.25" y="-272.5" font-family="Helvetica,sans-Serif" font-size="10.00">CubicLeastSquares</text>
</a>
</g>
</g>
<!-- Node2&#45;&gt;Node4 -->
<g id="edge3_Node000002_Node000004" class="edge">
<title>Node2&#45;&gt;Node4</title>
<g id="a_edge3_Node000002_Node000004"><a xlink:title=" ">
<path fill="none" stroke="#63b8ff" d="M254.9,-248.48C272.08,-252.89 292.25,-258.06 310.45,-262.72"/>
<polygon fill="#63b8ff" stroke="#63b8ff" points="309.46,-266.08 320.01,-265.17 311.2,-259.3 309.46,-266.08"/>
</a>
</g>
</g>
<!-- Node5 -->
<g id="Node000005" class="node">
<title>Node5</title>
<g id="a_Node000005"><a xlink:href="../../d3/d02/SDL__stdlib_8c.html#a7939a341655cf7115443a8318e1ca3f9" target="_top" xlink:title=" ">
<polygon fill="white" stroke="#666666" points="393.38,-248 333.12,-248 333.12,-228 393.38,-228 393.38,-248"/>
<text xml:space="preserve" text-anchor="middle" x="363.25" y="-234.5" font-family="Helvetica,sans-Serif" font-size="10.00">SDL_sqrtf</text>
</a>
</g>
</g>
<!-- Node2&#45;&gt;Node5 -->
<g id="edge4_Node000002_Node000005" class="edge">
<title>Node2&#45;&gt;Node5</title>
<g id="a_edge4_Node000002_Node000005"><a xlink:title=" ">
<path fill="none" stroke="#63b8ff" d="M275.58,-238C291.12,-238 307.42,-238 321.63,-238"/>
<polygon fill="#63b8ff" stroke="#63b8ff" points="321.5,-241.5 331.5,-238 321.5,-234.5 321.5,-241.5"/>
</a>
</g>
</g>
<!-- Node8 -->
<g id="Node000008" class="node">
<title>Node8</title>
<g id="a_Node000008"><a xlink:href="../../d0/d15/SDL__audioresample_8c.html#adf5a40b77ef86a096a64e612c58238ee" target="_top" xlink:title=" ">
<polygon fill="white" stroke="#666666" points="381,-210 345.5,-210 345.5,-190 381,-190 381,-210"/>
<text xml:space="preserve" text-anchor="middle" x="363.25" y="-196.5" font-family="Helvetica,sans-Serif" font-size="10.00">Sinc</text>
</a>
</g>
</g>
<!-- Node2&#45;&gt;Node8 -->
<g id="edge7_Node000002_Node000008" class="edge">
<title>Node2&#45;&gt;Node8</title>
<g id="a_edge7_Node000002_Node000008"><a xlink:title=" ">
<path fill="none" stroke="#63b8ff" d="M254.9,-227.52C280.04,-221.07 311.6,-212.98 333.98,-207.25"/>
<polygon fill="#63b8ff" stroke="#63b8ff" points="334.78,-210.65 343.6,-204.78 333.04,-203.87 334.78,-210.65"/>
</a>
</g>
</g>
<!-- Node9 -->
<g id="Node000009" class="node">
<title>Node9</title>
<g id="a_Node000009"><a xlink:href="../../d0/d15/SDL__audioresample_8c.html#a40dffa94a7ecc2f0d53a5d6be3ec6314" target="_top" xlink:title=" ">
<polygon fill="white" stroke="#666666" points="392.62,-172 333.88,-172 333.88,-152 392.62,-152 392.62,-172"/>
<text xml:space="preserve" text-anchor="middle" x="363.25" y="-158.5" font-family="Helvetica,sans-Serif" font-size="10.00">SincTable</text>
</a>
</g>
</g>
<!-- Node2&#45;&gt;Node9 -->
<g id="edge8_Node000002_Node000009" class="edge">
<title>Node2&#45;&gt;Node9</title>
<g id="a_edge8_Node000002_Node000009"><a xlink:title=" ">
<path fill="none" stroke="#63b8ff" d="M258.62,-227.57C264.85,-225.23 271,-222.4 276.5,-219 296.29,-206.77 293.15,-193.92 312.5,-181 315.79,-178.8 319.37,-176.81 323.05,-175.01"/>
<polygon fill="#63b8ff" stroke="#63b8ff" points="324.37,-178.26 332.15,-171.07 321.59,-171.83 324.37,-178.26"/>
</a>
</g>
</g>
<!-- Node6 -->
<g id="Node000006" class="node">
<title>Node6</title>
<g id="a_Node000006"><a xlink:href="../../d3/d02/SDL__stdlib_8c.html#a02d47ef45f0d5825cb809b30897ab34f" target="_top" xlink:title=" ">
<polygon fill="white" stroke="#666666" points="507.25,-248 450,-248 450,-228 507.25,-228 507.25,-248"/>
<text xml:space="preserve" text-anchor="middle" x="478.62" y="-234.5" font-family="Helvetica,sans-Serif" font-size="10.00">SDL_sqrt</text>
</a>
</g>
</g>
<!-- Node5&#45;&gt;Node6 -->
<g id="edge5_Node000005_Node000006" class="edge">
<title>Node5&#45;&gt;Node6</title>
<g id="a_edge5_Node000005_Node000006"><a xlink:title=" ">
<path fill="none" stroke="#63b8ff" d="M393.74,-238C407.41,-238 423.84,-238 438.53,-238"/>
<polygon fill="#63b8ff" stroke="#63b8ff" points="438.33,-241.5 448.33,-238 438.33,-234.5 438.33,-241.5"/>
</a>
</g>
</g>
<!-- Node7 -->
<g id="Node000007" class="node">
<title>Node7</title>
<g id="a_Node000007"><a xlink:href="../../df/dbb/e__sqrt_8c.html#ac9b2af84b69e7f80a48f5eec3abf1ae2" target="_top" xlink:title=" ">
<polygon fill="white" stroke="#666666" points="631.25,-248 543.25,-248 543.25,-228 631.25,-228 631.25,-248"/>
<text xml:space="preserve" text-anchor="middle" x="587.25" y="-234.5" font-family="Helvetica,sans-Serif" font-size="10.00">SDL_uclibc_sqrt</text>
</a>
</g>
</g>
<!-- Node6&#45;&gt;Node7 -->
<g id="edge6_Node000006_Node000007" class="edge">
<title>Node6&#45;&gt;Node7</title>
<g id="a_edge6_Node000006_Node000007"><a xlink:title=" ">
<path fill="none" stroke="#63b8ff" d="M507.64,-238C515.11,-238 523.43,-238 531.8,-238"/>
<polygon fill="#63b8ff" stroke="#63b8ff" points="531.64,-241.5 541.64,-238 531.64,-234.5 531.64,-241.5"/>
</a>
</g>
</g>
<!-- Node10 -->
<g id="Node000010" class="node">
<title>Node10</title>
<g id="a_Node000010"><a xlink:href="../../d3/d02/SDL__stdlib_8c.html#a648f19f0cdae5c87c0b0095e61f3e2d7" target="_top" xlink:title=" ">
<polygon fill="white" stroke="#666666" points="506.88,-172 450.38,-172 450.38,-152 506.88,-152 506.88,-172"/>
<text xml:space="preserve" text-anchor="middle" x="478.62" y="-158.5" font-family="Helvetica,sans-Serif" font-size="10.00">SDL_sinf</text>
</a>
</g>
</g>
<!-- Node9&#45;&gt;Node10 -->
<g id="edge9_Node000009_Node000010" class="edge">
<title>Node9&#45;&gt;Node10</title>
<g id="a_edge9_Node000009_Node000010"><a xlink:title=" ">
<path fill="none" stroke="#63b8ff" d="M392.86,-162C406.87,-162 423.94,-162 439.08,-162"/>
<polygon fill="#63b8ff" stroke="#63b8ff" points="438.68,-165.5 448.68,-162 438.68,-158.5 438.68,-165.5"/>
</a>
</g>
</g>
<!-- Node11 -->
<g id="Node000011" class="node">
<title>Node11</title>
<g id="a_Node000011"><a xlink:href="../../d3/d02/SDL__stdlib_8c.html#a56fda7c53d64a33b28a76d5a5c14bcb9" target="_top" xlink:title=" ">
<polygon fill="white" stroke="#666666" points="614,-172 560.5,-172 560.5,-152 614,-152 614,-172"/>
<text xml:space="preserve" text-anchor="middle" x="587.25" y="-158.5" font-family="Helvetica,sans-Serif" font-size="10.00">SDL_sin</text>
</a>
</g>
</g>
<!-- Node10&#45;&gt;Node11 -->
<g id="edge10_Node000010_Node000011" class="edge">
<title>Node10&#45;&gt;Node11</title>
<g id="a_edge10_Node000010_Node000011"><a xlink:title=" ">
<path fill="none" stroke="#63b8ff" d="M507.36,-162C519.96,-162 535.06,-162 548.66,-162"/>
<polygon fill="#63b8ff" stroke="#63b8ff" points="548.61,-165.5 558.61,-162 548.61,-158.5 548.61,-165.5"/>
</a>
</g>
</g>
<!-- Node12 -->
<g id="Node000012" class="node">
<title>Node12</title>
<g id="a_Node000012"><a xlink:href="../../de/d0d/s__sin_8c.html#ab2daeb832f8f35bc2237cfca8f0a187a" target="_top" xlink:title=" ">
<polygon fill="white" stroke="#666666" points="751.5,-172 667.25,-172 667.25,-152 751.5,-152 751.5,-172"/>
<text xml:space="preserve" text-anchor="middle" x="709.38" y="-158.5" font-family="Helvetica,sans-Serif" font-size="10.00">SDL_uclibc_sin</text>
</a>
</g>
</g>
<!-- Node11&#45;&gt;Node12 -->
<g id="edge11_Node000011_Node000012" class="edge">
<title>Node11&#45;&gt;Node12</title>
<g id="a_edge11_Node000011_Node000012"><a xlink:title=" ">
<path fill="none" stroke="#63b8ff" d="M614.32,-162C626.4,-162 641.23,-162 655.51,-162"/>
<polygon fill="#63b8ff" stroke="#63b8ff" points="655.26,-165.5 665.26,-162 655.26,-158.5 655.26,-165.5"/>
</a>
</g>
</g>
<!-- Node13 -->
<g id="Node000013" class="node">
<title>Node13</title>
<g id="a_Node000013"><a xlink:href="../../d6/d16/e__rem__pio2_8c.html#abb840868a6f0a5a076ee3ac86992db6a" target="_top" xlink:title=" ">
<polygon fill="white" stroke="#666666" points="892.75,-210 787.5,-210 787.5,-190 892.75,-190 892.75,-210"/>
<text xml:space="preserve" text-anchor="middle" x="840.12" y="-196.5" font-family="Helvetica,sans-Serif" font-size="10.00">__ieee754_rem_pio2</text>
</a>
</g>
</g>
<!-- Node12&#45;&gt;Node13 -->
<g id="edge12_Node000012_Node000013" class="edge">
<title>Node12&#45;&gt;Node13</title>
<g id="a_edge12_Node000012_Node000013"><a xlink:title=" ">
<path fill="none" stroke="#63b8ff" d="M745.9,-172.48C760.39,-176.76 777.35,-181.77 792.79,-186.33"/>
<polygon fill="#63b8ff" stroke="#63b8ff" points="791.69,-189.65 802.27,-189.12 793.67,-182.93 791.69,-189.65"/>
</a>
</g>
</g>
<!-- Node15 -->
<g id="Node000015" class="node">
<title>Node15</title>
<g id="a_Node000015"><a xlink:href="../../d5/dfd/k__cos_8c.html#a5468a5a3c3d5d5e34e73fac9d6bc0122" target="_top" xlink:title=" ">
<polygon fill="white" stroke="#666666" points="877,-172 803.25,-172 803.25,-152 877,-152 877,-172"/>
<text xml:space="preserve" text-anchor="middle" x="840.12" y="-158.5" font-family="Helvetica,sans-Serif" font-size="10.00">__kernel_cos</text>
</a>
</g>
</g>
<!-- Node12&#45;&gt;Node15 -->
<g id="edge14_Node000012_Node000015" class="edge">
<title>Node12&#45;&gt;Node15</title>
<g id="a_edge14_Node000012_Node000015"><a xlink:title=" ">
<path fill="none" stroke="#63b8ff" d="M751.82,-162C764.56,-162 778.67,-162 791.77,-162"/>
<polygon fill="#63b8ff" stroke="#63b8ff" points="791.45,-165.5 801.45,-162 791.45,-158.5 791.45,-165.5"/>
</a>
</g>
</g>
<!-- Node16 -->
<g id="Node000016" class="node">
<title>Node16</title>
<g id="a_Node000016"><a xlink:href="../../d0/d13/k__sin_8c.html#adcc3cb89edf47f34f1e8058e198be293" target="_top" xlink:title=" ">
<polygon fill="white" stroke="#666666" points="875.5,-134 804.75,-134 804.75,-114 875.5,-114 875.5,-134"/>
<text xml:space="preserve" text-anchor="middle" x="840.12" y="-120.5" font-family="Helvetica,sans-Serif" font-size="10.00">__kernel_sin</text>
</a>
</g>
</g>
<!-- Node12&#45;&gt;Node16 -->
<g id="edge15_Node000012_Node000016" class="edge">
<title>Node12&#45;&gt;Node16</title>
<g id="a_edge15_Node000012_Node000016"><a xlink:title=" ">
<path fill="none" stroke="#63b8ff" d="M745.9,-151.52C760.77,-147.12 778.24,-141.97 794.01,-137.31"/>
<polygon fill="#63b8ff" stroke="#63b8ff" points="794.56,-140.8 803.16,-134.62 792.57,-134.09 794.56,-140.8"/>
</a>
</g>
</g>
<!-- Node14 -->
<g id="Node000014" class="node">
<title>Node14</title>
<g id="a_Node000014"><a xlink:href="../../d8/d6e/k__rem__pio2_8c.html#a96906e13fc34f043f809bacb48ed7454" target="_top" xlink:title=" ">
<polygon fill="white" stroke="#666666" points="1026.5,-210 928.75,-210 928.75,-190 1026.5,-190 1026.5,-210"/>
<text xml:space="preserve" text-anchor="middle" x="977.62" y="-196.5" font-family="Helvetica,sans-Serif" font-size="10.00">__kernel_rem_pio2</text>
</a>
</g>
</g>
<!-- Node13&#45;&gt;Node14 -->
<g id="edge13_Node000013_Node000014" class="edge">
<title>Node13&#45;&gt;Node14</title>
<g id="a_edge13_Node000013_Node000014"><a xlink:title=" ">
<path fill="none" stroke="#63b8ff" d="M893.13,-200C900.95,-200 909.07,-200 917.03,-200"/>
<polygon fill="#63b8ff" stroke="#63b8ff" points="917.03,-203.5 927.03,-200 917.03,-196.5 917.03,-203.5"/>
</a>
</g>
</g>
</g>
</svg>
