<?xml version="1.0" encoding="UTF-8" standalone="no"?>
<!DOCTYPE svg PUBLIC "-//W3C//DTD SVG 1.1//EN"
 "http://www.w3.org/Graphics/SVG/1.1/DTD/svg11.dtd">
<!-- Generated by graphviz version 13.1.0 (20250701.0955)
 -->
<!-- Title: convert_filter Pages: 1 -->
<svg width="855pt" height="145pt"
 viewBox="0.00 0.00 855.00 145.00" xmlns="http://www.w3.org/2000/svg" xmlns:xlink="http://www.w3.org/1999/xlink">
<g id="graph0" class="graph" transform="scale(1 1) rotate(0) translate(4 141.24)">
<title>convert_filter</title>
<!-- Node1 -->
<g id="Node000001" class="node">
<title>Node1</title>
<g id="a_Node000001"><a xlink:title=" ">
<polygon fill="#999999" stroke="#666666" points="846.75,-92.24 774.5,-92.24 774.5,-72.24 846.75,-72.24 846.75,-92.24"/>
<text xml:space="preserve" text-anchor="middle" x="810.62" y="-78.74" font-family="Helvetica,sans-Serif" font-size="10.00">convert_filter</text>
</a>
</g>
</g>
<!-- Node2 -->
<g id="Node000002" class="node">
<title>Node2</title>
<g id="a_Node000002"><a xlink:href="../../dc/d8c/SDL__dialog__utils_8c.html#a07df0e3bc8907db7b828a602d3977107" target="_top" xlink:title=" ">
<polygon fill="white" stroke="#666666" points="728,-112.24 650.5,-112.24 650.5,-92.24 728,-92.24 728,-112.24"/>
<text xml:space="preserve" text-anchor="middle" x="689.25" y="-98.74" font-family="Helvetica,sans-Serif" font-size="10.00">convert_filters</text>
</a>
</g>
</g>
<!-- Node1&#45;&gt;Node2 -->
<g id="edge1_Node000001_Node000002" class="edge">
<title>Node1&#45;&gt;Node2</title>
<g id="a_edge1_Node000001_Node000002"><a xlink:title=" ">
<path fill="none" stroke="#63b8ff" d="M762.95,-90.06C751.47,-91.99 739.32,-94.02 728.31,-95.87"/>
<polygon fill="#63b8ff" stroke="#63b8ff" points="763.35,-93.54 772.64,-88.44 762.2,-86.64 763.35,-93.54"/>
</a>
</g>
</g>
<!-- Node6 -->
<g id="Node000006" class="node">
<title>Node6</title>
<g id="a_Node000006"><a xlink:href="../../d1/dc1/SDL__zenitydialog_8c.html#aec352c1f695a4c57f058b37e1c513fd4" target="_top" xlink:title=" ">
<polygon fill="white" stroke="#666666" points="738.5,-73.24 640,-73.24 640,-53.24 738.5,-53.24 738.5,-73.24"/>
<text xml:space="preserve" text-anchor="middle" x="689.25" y="-59.74" font-family="Helvetica,sans-Serif" font-size="10.00">create_zenity_args</text>
</a>
</g>
</g>
<!-- Node1&#45;&gt;Node6 -->
<g id="edge5_Node000001_Node000006" class="edge">
<title>Node1&#45;&gt;Node6</title>
<g id="a_edge5_Node000001_Node000006"><a xlink:title=" ">
<path fill="none" stroke="#63b8ff" d="M762.8,-74.79C754.87,-73.53 746.62,-72.21 738.64,-70.95"/>
<polygon fill="#63b8ff" stroke="#63b8ff" points="762.21,-78.24 772.64,-76.36 763.31,-71.33 762.21,-78.24"/>
</a>
</g>
</g>
<!-- Node3 -->
<g id="Node000003" class="node">
<title>Node3</title>
<g id="a_Node000003"><a xlink:href="../../d5/d4b/SDL__windowsdialog_8c.html#ab2b8eae4ad71e316816248756fd0744f" target="_top" xlink:title=" ">
<polygon fill="white" stroke="#666666" points="572.88,-125.24 493.88,-125.24 493.88,-105.24 572.88,-105.24 572.88,-125.24"/>
<text xml:space="preserve" text-anchor="middle" x="533.38" y="-111.74" font-family="Helvetica,sans-Serif" font-size="10.00">win_get_filters</text>
</a>
</g>
</g>
<!-- Node2&#45;&gt;Node3 -->
<g id="edge2_Node000002_Node000003" class="edge">
<title>Node2&#45;&gt;Node3</title>
<g id="a_edge2_Node000002_Node000003"><a xlink:title=" ">
<path fill="none" stroke="#63b8ff" d="M638.81,-106.42C617.61,-108.21 593.2,-110.27 573.31,-111.95"/>
<polygon fill="#63b8ff" stroke="#63b8ff" points="639.04,-109.91 648.71,-105.58 638.45,-102.94 639.04,-109.91"/>
</a>
</g>
</g>
<!-- Node4 -->
<g id="Node000004" class="node">
<title>Node4</title>
<g id="a_Node000004"><a xlink:href="../../d5/d4b/SDL__windowsdialog_8c.html#a13e98493c52e0f892bfd26a7cf43c36f" target="_top" xlink:title=" ">
<polygon fill="white" stroke="#666666" points="404.25,-128.24 320,-128.24 320,-108.24 404.25,-108.24 404.25,-128.24"/>
<text xml:space="preserve" text-anchor="middle" x="362.12" y="-114.74" font-family="Helvetica,sans-Serif" font-size="10.00">ShowFileDialog</text>
</a>
</g>
</g>
<!-- Node3&#45;&gt;Node4 -->
<g id="edge3_Node000003_Node000004" class="edge">
<title>Node3&#45;&gt;Node4</title>
<g id="a_edge3_Node000003_Node000004"><a xlink:title=" ">
<path fill="none" stroke="#63b8ff" d="M482.22,-116.13C457.54,-116.57 428.14,-117.09 404.73,-117.51"/>
<polygon fill="#63b8ff" stroke="#63b8ff" points="482.1,-119.63 492.03,-115.96 481.97,-112.64 482.1,-119.63"/>
</a>
</g>
</g>
<!-- Node5 -->
<g id="Node000005" class="node">
<title>Node5</title>
<g id="a_Node000005"><a xlink:href="../../d5/d4b/SDL__windowsdialog_8c.html#ac5e36f40c4a1019ab9545659a3637e8d" target="_top" xlink:title=" ">
<polygon fill="white" stroke="#666666" points="261.5,-137.24 106.75,-137.24 106.75,-105.24 261.5,-105.24 261.5,-137.24"/>
<text xml:space="preserve" text-anchor="start" x="114.75" y="-123.74" font-family="Helvetica,sans-Serif" font-size="10.00">SDL_SYS_ShowFileDialogWith</text>
<text xml:space="preserve" text-anchor="middle" x="184.12" y="-111.74" font-family="Helvetica,sans-Serif" font-size="10.00">Properties</text>
</a>
</g>
</g>
<!-- Node4&#45;&gt;Node5 -->
<g id="edge4_Node000004_Node000005" class="edge">
<title>Node4&#45;&gt;Node5</title>
<g id="a_edge4_Node000004_Node000005"><a xlink:title=" ">
<path fill="none" stroke="#63b8ff" d="M308.45,-119.14C293.75,-119.39 277.47,-119.67 261.69,-119.94"/>
<polygon fill="#63b8ff" stroke="#63b8ff" points="308.41,-122.64 318.35,-118.97 308.29,-115.64 308.41,-122.64"/>
</a>
</g>
</g>
<!-- Node7 -->
<g id="Node000007" class="node">
<title>Node7</title>
<g id="a_Node000007"><a xlink:href="../../d1/dc1/SDL__zenitydialog_8c.html#adec0ab89b8e1608f083d6bde91db76f8" target="_top" xlink:title=" ">
<polygon fill="white" stroke="#666666" points="604,-76.24 462.75,-76.24 462.75,-44.24 604,-44.24 604,-76.24"/>
<text xml:space="preserve" text-anchor="start" x="470.75" y="-62.74" font-family="Helvetica,sans-Serif" font-size="10.00">SDL_Zenity_ShowFileDialog</text>
<text xml:space="preserve" text-anchor="middle" x="533.38" y="-50.74" font-family="Helvetica,sans-Serif" font-size="10.00">WithProperties</text>
</a>
</g>
</g>
<!-- Node6&#45;&gt;Node7 -->
<g id="edge6_Node000006_Node000007" class="edge">
<title>Node6&#45;&gt;Node7</title>
<g id="a_edge6_Node000006_Node000007"><a xlink:title=" ">
<path fill="none" stroke="#63b8ff" d="M628.3,-62.07C620.46,-61.92 612.37,-61.76 604.39,-61.61"/>
<polygon fill="#63b8ff" stroke="#63b8ff" points="627.98,-65.57 638.05,-62.26 628.12,-58.57 627.98,-65.57"/>
</a>
</g>
</g>
<!-- Node8 -->
<g id="Node000008" class="node">
<title>Node8</title>
<g id="a_Node000008"><a xlink:href="../../d4/d8b/SDL__unixdialog_8c.html#ab2f9e0de0e94da023d667425d1320a1d" target="_top" xlink:title=" ">
<polygon fill="white" stroke="#666666" points="426.75,-48.24 297.5,-48.24 297.5,-28.24 426.75,-28.24 426.75,-48.24"/>
<text xml:space="preserve" text-anchor="middle" x="362.12" y="-34.74" font-family="Helvetica,sans-Serif" font-size="10.00">detect_available_methods</text>
</a>
</g>
</g>
<!-- Node7&#45;&gt;Node8 -->
<g id="edge7_Node000007_Node000008" class="edge">
<title>Node7&#45;&gt;Node8</title>
<g id="a_edge7_Node000007_Node000008"><a xlink:title=" ">
<path fill="none" stroke="#63b8ff" d="M451.18,-49.69C443.09,-48.64 434.96,-47.58 427.08,-46.56"/>
<polygon fill="#63b8ff" stroke="#63b8ff" points="450.69,-53.15 461.06,-50.97 451.59,-46.21 450.69,-53.15"/>
</a>
</g>
</g>
<!-- Node9 -->
<g id="Node000009" class="node">
<title>Node9</title>
<g id="a_Node000009"><a xlink:href="../../d4/d8b/SDL__unixdialog_8c.html#a925198d8e6633242b15a3b0e250a60c8" target="_top" xlink:title=" ">
<polygon fill="white" stroke="#666666" points="220.62,-87.24 147.62,-87.24 147.62,-67.24 220.62,-67.24 220.62,-87.24"/>
<text xml:space="preserve" text-anchor="middle" x="184.12" y="-73.74" font-family="Helvetica,sans-Serif" font-size="10.00">hint_callback</text>
</a>
</g>
</g>
<!-- Node8&#45;&gt;Node9 -->
<g id="edge8_Node000008_Node000009" class="edge">
<title>Node8&#45;&gt;Node9</title>
<g id="a_edge8_Node000008_Node000009"><a xlink:title=" ">
<path fill="none" stroke="#63b8ff" d="M303.04,-51.11C275.94,-57.12 244.55,-64.08 220.97,-69.3"/>
<polygon fill="#63b8ff" stroke="#63b8ff" points="303.48,-54.6 312.48,-49.02 301.96,-47.77 303.48,-54.6"/>
</a>
</g>
</g>
<!-- Node11 -->
<g id="Node000011" class="node">
<title>Node11</title>
<g id="a_Node000011"><a xlink:href="../../d4/d8b/SDL__unixdialog_8c.html#ac5e36f40c4a1019ab9545659a3637e8d" target="_top" xlink:title=" ">
<polygon fill="white" stroke="#666666" points="261.5,-49.24 106.75,-49.24 106.75,-17.24 261.5,-17.24 261.5,-49.24"/>
<text xml:space="preserve" text-anchor="start" x="114.75" y="-35.74" font-family="Helvetica,sans-Serif" font-size="10.00">SDL_SYS_ShowFileDialogWith</text>
<text xml:space="preserve" text-anchor="middle" x="184.12" y="-23.74" font-family="Helvetica,sans-Serif" font-size="10.00">Properties</text>
</a>
</g>
</g>
<!-- Node8&#45;&gt;Node11 -->
<g id="edge11_Node000008_Node000011" class="edge">
<title>Node8&#45;&gt;Node11</title>
<g id="a_edge11_Node000008_Node000011"><a xlink:title=" ">
<path fill="none" stroke="#63b8ff" d="M285.71,-36.1C277.85,-35.88 269.86,-35.65 261.99,-35.43"/>
<polygon fill="#63b8ff" stroke="#63b8ff" points="285.48,-39.59 295.57,-36.38 285.68,-32.6 285.48,-39.59"/>
</a>
</g>
</g>
<!-- Node10 -->
<g id="Node000010" class="node">
<title>Node10</title>
<g id="a_Node000010"><a xlink:href="../../d4/d8b/SDL__unixdialog_8c.html#a01eadec5086a813f0c8c2bc6baa38150" target="_top" xlink:title=" ">
<polygon fill="white" stroke="#666666" points="70.75,-43.24 0,-43.24 0,-23.24 70.75,-23.24 70.75,-43.24"/>
<text xml:space="preserve" text-anchor="middle" x="35.38" y="-29.74" font-family="Helvetica,sans-Serif" font-size="10.00">set_callback</text>
</a>
</g>
</g>
<!-- Node9&#45;&gt;Node10 -->
<g id="edge9_Node000009_Node000010" class="edge">
<title>Node9&#45;&gt;Node10</title>
<g id="a_edge9_Node000009_Node000010"><a xlink:title=" ">
<path fill="none" stroke="#63b8ff" d="M136.02,-66.29C126.3,-63.81 116.15,-61.08 106.75,-58.24 92.47,-53.94 76.82,-48.46 63.91,-43.73"/>
<polygon fill="#63b8ff" stroke="#63b8ff" points="135.16,-69.68 145.71,-68.7 136.85,-62.89 135.16,-69.68"/>
</a>
</g>
</g>
<!-- Node10&#45;&gt;Node8 -->
<g id="edge10_Node000010_Node000008" class="edge">
<title>Node10&#45;&gt;Node8</title>
<g id="a_edge10_Node000010_Node000008"><a xlink:title=" ">
<path fill="none" stroke="#63b8ff" d="M69.75,-18.76C81.25,-14.49 94.36,-10.38 106.75,-8.24 174.53,3.44 193.46,1.78 261.5,-8.24 286.7,-11.95 314.36,-20.68 334.13,-27.77"/>
<polygon fill="#63b8ff" stroke="#63b8ff" points="68.74,-15.4 60.71,-22.3 71.29,-21.92 68.74,-15.4"/>
</a>
</g>
</g>
</g>
</svg>
