<?xml version="1.0" encoding="UTF-8" standalone="no"?>
<!DOCTYPE svg PUBLIC "-//W3C//DTD SVG 1.1//EN"
 "http://www.w3.org/Graphics/SVG/1.1/DTD/svg11.dtd">
<!-- Generated by graphviz version 13.1.0 (20250701.0955)
 -->
<!-- Title: validate_list Pages: 1 -->
<svg width="580pt" height="116pt"
 viewBox="0.00 0.00 580.00 116.00" xmlns="http://www.w3.org/2000/svg" xmlns:xlink="http://www.w3.org/1999/xlink">
<g id="graph0" class="graph" transform="scale(1 1) rotate(0) translate(4 112)">
<title>validate_list</title>
<!-- Node1 -->
<g id="Node000001" class="node">
<title>Node1</title>
<g id="a_Node000001"><a xlink:title=" ">
<polygon fill="#999999" stroke="#666666" points="571.75,-48 504,-48 504,-28 571.75,-28 571.75,-48"/>
<text xml:space="preserve" text-anchor="middle" x="537.88" y="-34.5" font-family="Helvetica,sans-Serif" font-size="10.00">validate_list</text>
</a>
</g>
</g>
<!-- Node2 -->
<g id="Node000002" class="node">
<title>Node2</title>
<g id="a_Node000002"><a xlink:href="../../dc/d8c/SDL__dialog__utils_8c.html#a30900328c46ada6b80987b9cdd8246e6" target="_top" xlink:title=" ">
<polygon fill="white" stroke="#666666" points="468,-48 389,-48 389,-28 468,-28 468,-48"/>
<text xml:space="preserve" text-anchor="middle" x="428.5" y="-34.5" font-family="Helvetica,sans-Serif" font-size="10.00">validate_filters</text>
</a>
</g>
</g>
<!-- Node1&#45;&gt;Node2 -->
<g id="edge1_Node000001_Node000002" class="edge">
<title>Node1&#45;&gt;Node2</title>
<g id="a_edge1_Node000001_Node000002"><a xlink:title=" ">
<path fill="none" stroke="#63b8ff" d="M492.37,-38C484.39,-38 476.13,-38 468.32,-38"/>
<polygon fill="#63b8ff" stroke="#63b8ff" points="492.27,-41.5 502.27,-38 492.27,-34.5 492.27,-41.5"/>
</a>
</g>
</g>
<!-- Node3 -->
<g id="Node000003" class="node">
<title>Node3</title>
<g id="a_Node000003"><a xlink:href="../../d5/d90/SDL__dialog_8c.html#afeb87a06176ceeefd467f332adde0395" target="_top" xlink:title=" ">
<polygon fill="white" stroke="#666666" points="353,-70 179.5,-70 179.5,-50 353,-50 353,-70"/>
<text xml:space="preserve" text-anchor="middle" x="266.25" y="-56.5" font-family="Helvetica,sans-Serif" font-size="10.00">SDL_ShowFileDialogWithProperties</text>
</a>
</g>
</g>
<!-- Node2&#45;&gt;Node3 -->
<g id="edge2_Node000002_Node000003" class="edge">
<title>Node2&#45;&gt;Node3</title>
<g id="a_edge2_Node000002_Node000003"><a xlink:title=" ">
<path fill="none" stroke="#63b8ff" d="M377.44,-44.87C366.71,-46.35 355.13,-47.94 343.66,-49.51"/>
<polygon fill="#63b8ff" stroke="#63b8ff" points="377.78,-48.36 387.21,-43.53 376.83,-41.42 377.78,-48.36"/>
</a>
</g>
</g>
<!-- Node7 -->
<g id="Node000007" class="node">
<title>Node7</title>
<g id="a_Node000007"><a xlink:href="../../d3/d70/SDL__haikudialog_8cc.html#ac5e36f40c4a1019ab9545659a3637e8d" target="_top" xlink:title=" ">
<polygon fill="white" stroke="#666666" points="343.62,-32 188.88,-32 188.88,0 343.62,0 343.62,-32"/>
<text xml:space="preserve" text-anchor="start" x="196.88" y="-18.5" font-family="Helvetica,sans-Serif" font-size="10.00">SDL_SYS_ShowFileDialogWith</text>
<text xml:space="preserve" text-anchor="middle" x="266.25" y="-6.5" font-family="Helvetica,sans-Serif" font-size="10.00">Properties</text>
</a>
</g>
</g>
<!-- Node2&#45;&gt;Node7 -->
<g id="edge6_Node000002_Node000007" class="edge">
<title>Node2&#45;&gt;Node7</title>
<g id="a_edge6_Node000002_Node000007"><a xlink:title=" ">
<path fill="none" stroke="#63b8ff" d="M377.52,-31.14C366.86,-29.68 355.37,-28.1 343.98,-26.53"/>
<polygon fill="#63b8ff" stroke="#63b8ff" points="376.83,-34.58 387.21,-32.47 377.78,-27.64 376.83,-34.58"/>
</a>
</g>
</g>
<!-- Node4 -->
<g id="Node000004" class="node">
<title>Node4</title>
<g id="a_Node000004"><a xlink:href="../../d5/d90/SDL__dialog_8c.html#a9d24edcedadce0f9c572719bd39b1fb8" target="_top" xlink:title=" ">
<polygon fill="white" stroke="#666666" points="137.88,-108 5.62,-108 5.62,-88 137.88,-88 137.88,-108"/>
<text xml:space="preserve" text-anchor="middle" x="71.75" y="-94.5" font-family="Helvetica,sans-Serif" font-size="10.00">SDL_ShowOpenFileDialog</text>
</a>
</g>
</g>
<!-- Node3&#45;&gt;Node4 -->
<g id="edge3_Node000003_Node000004" class="edge">
<title>Node3&#45;&gt;Node4</title>
<g id="a_edge3_Node000003_Node000004"><a xlink:title=" ">
<path fill="none" stroke="#63b8ff" d="M201.13,-72.66C176.65,-77.49 149.02,-82.94 125.69,-87.55"/>
<polygon fill="#63b8ff" stroke="#63b8ff" points="201.52,-76.15 210.65,-70.78 200.17,-69.28 201.52,-76.15"/>
</a>
</g>
</g>
<!-- Node5 -->
<g id="Node000005" class="node">
<title>Node5</title>
<g id="a_Node000005"><a xlink:href="../../d5/d90/SDL__dialog_8c.html#a7a44d9109fd7a36801ef00359407626c" target="_top" xlink:title=" ">
<polygon fill="white" stroke="#666666" points="143.5,-70 0,-70 0,-50 143.5,-50 143.5,-70"/>
<text xml:space="preserve" text-anchor="middle" x="71.75" y="-56.5" font-family="Helvetica,sans-Serif" font-size="10.00">SDL_ShowOpenFolderDialog</text>
</a>
</g>
</g>
<!-- Node3&#45;&gt;Node5 -->
<g id="edge4_Node000003_Node000005" class="edge">
<title>Node3&#45;&gt;Node5</title>
<g id="a_edge4_Node000003_Node000005"><a xlink:title=" ">
<path fill="none" stroke="#63b8ff" d="M167.74,-60C159.68,-60 151.62,-60 143.8,-60"/>
<polygon fill="#63b8ff" stroke="#63b8ff" points="167.62,-63.5 177.62,-60 167.62,-56.5 167.62,-63.5"/>
</a>
</g>
</g>
<!-- Node6 -->
<g id="Node000006" class="node">
<title>Node6</title>
<g id="a_Node000006"><a xlink:href="../../d5/d90/SDL__dialog_8c.html#a74ab1be5d6432bf65623aeb1594c673a" target="_top" xlink:title=" ">
<polygon fill="white" stroke="#666666" points="137.5,-32 6,-32 6,-12 137.5,-12 137.5,-32"/>
<text xml:space="preserve" text-anchor="middle" x="71.75" y="-18.5" font-family="Helvetica,sans-Serif" font-size="10.00">SDL_ShowSaveFileDialog</text>
</a>
</g>
</g>
<!-- Node3&#45;&gt;Node6 -->
<g id="edge5_Node000003_Node000006" class="edge">
<title>Node3&#45;&gt;Node6</title>
<g id="a_edge5_Node000003_Node000006"><a xlink:title=" ">
<path fill="none" stroke="#63b8ff" d="M201.13,-47.34C176.65,-42.51 149.02,-37.06 125.69,-32.45"/>
<polygon fill="#63b8ff" stroke="#63b8ff" points="200.17,-50.72 210.65,-49.22 201.52,-43.85 200.17,-50.72"/>
</a>
</g>
</g>
</g>
</svg>
