<?xml version="1.0" encoding="UTF-8" standalone="no"?>
<!DOCTYPE svg PUBLIC "-//W3C//DTD SVG 1.1//EN"
 "http://www.w3.org/Graphics/SVG/1.1/DTD/svg11.dtd">
<!-- Generated by graphviz version 13.1.0 (20250701.0955)
 -->
<!-- Title: SDL&#45;main/src/hidapi/netbsd/hid.c Pages: 1 -->
<!--zoomable 152 -->

<svg id="main" version="1.1" xmlns="http://www.w3.org/2000/svg" xmlns:xlink="http://www.w3.org/1999/xlink" xml:space="preserve" onload="init(evt)">

<style type="text/css"><![CDATA[
.node, .edge {opacity: 0.7;}
.node.selected, .edge.selected {opacity: 1;}
.edge:hover path { stroke: red; }
.edge:hover polygon { stroke: red; fill: red; }
]]></style>

<defs>
  <circle id="rim" cx="0" cy="0" r="7"/>
  <circle id="rim2" cx="0" cy="0" r="3.5"/>
  <g id="zoomPlus">
    <use xlink:href="#rim" fill="#404040"><set attributeName="fill" to="#808080" begin="zoomplus.mouseover" end="zoomplus.mouseout"/></use>
    <path d="M-4,0h8M0,-4v8" fill="none" stroke="white" stroke-width="1.5" pointer-events="none"/>
  </g>
  <g id="zoomMin">
    <use xlink:href="#rim" fill="#404040"><set attributeName="fill" to="#808080" begin="zoomminus.mouseover" end="zoomminus.mouseout"/></use>
    <path d="M-4,0h8" fill="none" stroke="white" stroke-width="1.5" pointer-events="none"/>
  </g>
  <g id="arrowUp" transform="translate(30 24)">
    <use xlink:href="#rim"/>
    <path pointer-events="none" fill="none" stroke="white" stroke-width="1.5" d="M0,-3.0v7 M-2.5,-0.5L0,-3.0L2.5,-0.5"/>
  </g>
  <g id="arrowRight" transform="rotate(90) translate(36 -43)">
    <use xlink:href="#rim"/>
    <path pointer-events="none" fill="none" stroke="white" stroke-width="1.5" d="M0,-3.0v7 M-2.5,-0.5L0,-3.0L2.5,-0.5"/>
  </g>
  <g id="arrowDown" transform="rotate(180) translate(-30 -48)">
    <use xlink:href="#rim"/>
    <path pointer-events="none" fill="none" stroke="white" stroke-width="1.5" d="M0,-3.0v7 M-2.5,-0.5L0,-3.0L2.5,-0.5"/>
  </g>
  <g id="arrowLeft" transform="rotate(270) translate(-36 17)">
    <use xlink:href="#rim"/>
    <path pointer-events="none" fill="none" stroke="white" stroke-width="1.5" d="M0,-3.0v7 M-2.5,-0.5L0,-3.0L2.5,-0.5"/>
  </g>
  <g id="resetDef">
    <use xlink:href="#rim2" fill="#404040"><set attributeName="fill" to="#808080" begin="reset.mouseover" end="reset.mouseout"/></use>
  </g>
</defs>
<script type="application/ecmascript">
var viewWidth = 1042;
var viewHeight = 152;
var sectionId = 'dynsection-0';
</script>
<script type="application/ecmascript" xlink:href="../../svg.min.js"/>
<svg id="graph" class="graph">
<g id="viewport">
<title>SDL&#45;main/src/hidapi/netbsd/hid.c</title>
<!-- Node1 -->
<g id="Node000001" class="node">
<title>Node1</title>
<g id="a_Node000001"><a xlink:title=" ">
<polygon fill="#999999" stroke="#666666" points="508,-144 403.5,-144 403.5,-112 508,-112 508,-144"/>
<text xml:space="preserve" text-anchor="start" x="411.5" y="-130.5" font-family="Helvetica,sans-Serif" font-size="10.00">SDL&#45;main/src/hidapi</text>
<text xml:space="preserve" text-anchor="middle" x="455.75" y="-118.5" font-family="Helvetica,sans-Serif" font-size="10.00">/netbsd/hid.c</text>
</a>
</g>
</g>
<!-- Node2 -->
<g id="Node000002" class="node">
<title>Node2</title>
<g id="a_Node000002"><a xlink:title=" ">
<polygon fill="#e0e0e0" stroke="#999999" points="47.5,-76 0,-76 0,-56 47.5,-56 47.5,-76"/>
<text xml:space="preserve" text-anchor="middle" x="23.75" y="-62.5" font-family="Helvetica,sans-Serif" font-size="10.00">stdlib.h</text>
</a>
</g>
</g>
<!-- Node1&#45;&gt;Node2 -->
<g id="edge1_Node000001_Node000002" class="edge">
<title>Node1&#45;&gt;Node2</title>
<g id="a_edge1_Node000001_Node000002"><a xlink:title=" ">
<path fill="none" stroke="#63b8ff" d="M403.25,-122.79C328.59,-116.26 187.36,-101.9 58.96,-76.42"/>
<polygon fill="#63b8ff" stroke="#63b8ff" points="59.75,-73.01 49.25,-74.46 58.36,-79.87 59.75,-73.01"/>
</a>
</g>
</g>
<!-- Node3 -->
<g id="Node000003" class="node">
<title>Node3</title>
<g id="a_Node000003"><a xlink:title=" ">
<polygon fill="#e0e0e0" stroke="#999999" points="116.38,-76 65.12,-76 65.12,-56 116.38,-56 116.38,-76"/>
<text xml:space="preserve" text-anchor="middle" x="90.75" y="-62.5" font-family="Helvetica,sans-Serif" font-size="10.00">stdarg.h</text>
</a>
</g>
</g>
<!-- Node1&#45;&gt;Node3 -->
<g id="edge2_Node000001_Node000003" class="edge">
<title>Node1&#45;&gt;Node3</title>
<g id="a_edge2_Node000001_Node000003"><a xlink:title=" ">
<path fill="none" stroke="#63b8ff" d="M403.17,-120.5C340.11,-112.34 231.01,-97.09 127.92,-76.27"/>
<polygon fill="#63b8ff" stroke="#63b8ff" points="128.66,-72.85 118.16,-74.27 127.26,-79.7 128.66,-72.85"/>
</a>
</g>
</g>
<!-- Node4 -->
<g id="Node000004" class="node">
<title>Node4</title>
<g id="a_Node000004"><a xlink:title=" ">
<polygon fill="#e0e0e0" stroke="#999999" points="182.88,-76 134.62,-76 134.62,-56 182.88,-56 182.88,-76"/>
<text xml:space="preserve" text-anchor="middle" x="158.75" y="-62.5" font-family="Helvetica,sans-Serif" font-size="10.00">string.h</text>
</a>
</g>
</g>
<!-- Node1&#45;&gt;Node4 -->
<g id="edge3_Node000001_Node000004" class="edge">
<title>Node1&#45;&gt;Node4</title>
<g id="a_edge3_Node000001_Node000004"><a xlink:title=" ">
<path fill="none" stroke="#63b8ff" d="M403.41,-118.09C352.37,-109.13 272.32,-94.38 194.21,-76.44"/>
<polygon fill="#63b8ff" stroke="#63b8ff" points="195.21,-73.08 184.68,-74.23 193.63,-79.9 195.21,-73.08"/>
</a>
</g>
</g>
<!-- Node5 -->
<g id="Node000005" class="node">
<title>Node5</title>
<g id="a_Node000005"><a xlink:title=" ">
<polygon fill="#e0e0e0" stroke="#999999" points="250.62,-76 200.88,-76 200.88,-56 250.62,-56 250.62,-76"/>
<text xml:space="preserve" text-anchor="middle" x="225.75" y="-62.5" font-family="Helvetica,sans-Serif" font-size="10.00">locale.h</text>
</a>
</g>
</g>
<!-- Node1&#45;&gt;Node5 -->
<g id="edge4_Node000001_Node000005" class="edge">
<title>Node1&#45;&gt;Node5</title>
<g id="a_edge4_Node000001_Node000005"><a xlink:title=" ">
<path fill="none" stroke="#63b8ff" d="M403.32,-113.42C366.39,-103.84 315.47,-90.61 262.07,-76.6"/>
<polygon fill="#63b8ff" stroke="#63b8ff" points="263.02,-73.23 252.46,-74.08 261.25,-80 263.02,-73.23"/>
</a>
</g>
</g>
<!-- Node6 -->
<g id="Node000006" class="node">
<title>Node6</title>
<g id="a_Node000006"><a xlink:title=" ">
<polygon fill="#e0e0e0" stroke="#999999" points="316.88,-76 268.62,-76 268.62,-56 316.88,-56 316.88,-76"/>
<text xml:space="preserve" text-anchor="middle" x="292.75" y="-62.5" font-family="Helvetica,sans-Serif" font-size="10.00">ctype.h</text>
</a>
</g>
</g>
<!-- Node1&#45;&gt;Node6 -->
<g id="edge5_Node000001_Node000006" class="edge">
<title>Node1&#45;&gt;Node6</title>
<g id="a_edge5_Node000001_Node000006"><a xlink:title=" ">
<path fill="none" stroke="#63b8ff" d="M413.77,-111.55C387.15,-101.75 353.1,-89.22 327.91,-79.94"/>
<polygon fill="#63b8ff" stroke="#63b8ff" points="329.37,-76.75 318.78,-76.58 326.95,-83.32 329.37,-76.75"/>
</a>
</g>
</g>
<!-- Node7 -->
<g id="Node000007" class="node">
<title>Node7</title>
<g id="a_Node000007"><a xlink:title=" ">
<polygon fill="#e0e0e0" stroke="#999999" points="380.75,-76 334.75,-76 334.75,-56 380.75,-56 380.75,-76"/>
<text xml:space="preserve" text-anchor="middle" x="357.75" y="-62.5" font-family="Helvetica,sans-Serif" font-size="10.00">errno.h</text>
</a>
</g>
</g>
<!-- Node1&#45;&gt;Node7 -->
<g id="edge6_Node000001_Node000007" class="edge">
<title>Node1&#45;&gt;Node7</title>
<g id="a_edge6_Node000001_Node000007"><a xlink:title=" ">
<path fill="none" stroke="#63b8ff" d="M430.51,-111.55C415.77,-102.52 397.23,-91.17 382.56,-82.19"/>
<polygon fill="#63b8ff" stroke="#63b8ff" points="384.76,-79.43 374.41,-77.2 381.11,-85.4 384.76,-79.43"/>
</a>
</g>
</g>
<!-- Node8 -->
<g id="Node000008" class="node">
<title>Node8</title>
<g id="a_Node000008"><a xlink:title=" ">
<polygon fill="#e0e0e0" stroke="#999999" points="449,-76 398.5,-76 398.5,-56 449,-56 449,-76"/>
<text xml:space="preserve" text-anchor="middle" x="423.75" y="-62.5" font-family="Helvetica,sans-Serif" font-size="10.00">unistd.h</text>
</a>
</g>
</g>
<!-- Node1&#45;&gt;Node8 -->
<g id="edge7_Node000001_Node000008" class="edge">
<title>Node1&#45;&gt;Node8</title>
<g id="a_edge7_Node000001_Node000008"><a xlink:title=" ">
<path fill="none" stroke="#63b8ff" d="M447.51,-111.55C443.44,-103.91 438.48,-94.61 434.14,-86.49"/>
<polygon fill="#63b8ff" stroke="#63b8ff" points="437.27,-84.92 429.48,-77.74 431.1,-88.21 437.27,-84.92"/>
</a>
</g>
</g>
<!-- Node9 -->
<g id="Node000009" class="node">
<title>Node9</title>
<g id="a_Node000009"><a xlink:title=" ">
<polygon fill="#e0e0e0" stroke="#999999" points="510.25,-76 467.25,-76 467.25,-56 510.25,-56 510.25,-76"/>
<text xml:space="preserve" text-anchor="middle" x="488.75" y="-62.5" font-family="Helvetica,sans-Serif" font-size="10.00">fcntl.h</text>
</a>
</g>
</g>
<!-- Node1&#45;&gt;Node9 -->
<g id="edge8_Node000001_Node000009" class="edge">
<title>Node1&#45;&gt;Node9</title>
<g id="a_edge8_Node000001_Node000009"><a xlink:title=" ">
<path fill="none" stroke="#63b8ff" d="M464.25,-111.55C468.45,-103.91 473.56,-94.61 478.03,-86.49"/>
<polygon fill="#63b8ff" stroke="#63b8ff" points="481.09,-88.18 482.85,-77.73 474.96,-84.81 481.09,-88.18"/>
</a>
</g>
</g>
<!-- Node10 -->
<g id="Node000010" class="node">
<title>Node10</title>
<g id="a_Node000010"><a xlink:title=" ">
<polygon fill="#e0e0e0" stroke="#999999" points="575.12,-76 528.38,-76 528.38,-56 575.12,-56 575.12,-76"/>
<text xml:space="preserve" text-anchor="middle" x="551.75" y="-62.5" font-family="Helvetica,sans-Serif" font-size="10.00">iconv.h</text>
</a>
</g>
</g>
<!-- Node1&#45;&gt;Node10 -->
<g id="edge9_Node000001_Node000010" class="edge">
<title>Node1&#45;&gt;Node10</title>
<g id="a_edge9_Node000001_Node000010"><a xlink:title=" ">
<path fill="none" stroke="#63b8ff" d="M480.47,-111.55C494.78,-102.61 512.72,-91.39 527.03,-82.45"/>
<polygon fill="#63b8ff" stroke="#63b8ff" points="528.79,-85.48 535.41,-77.21 525.08,-79.54 528.79,-85.48"/>
</a>
</g>
</g>
<!-- Node11 -->
<g id="Node000011" class="node">
<title>Node11</title>
<g id="a_Node000011"><a xlink:title=" ">
<polygon fill="#e0e0e0" stroke="#999999" points="632.38,-76 593.12,-76 593.12,-56 632.38,-56 632.38,-76"/>
<text xml:space="preserve" text-anchor="middle" x="612.75" y="-62.5" font-family="Helvetica,sans-Serif" font-size="10.00">poll.h</text>
</a>
</g>
</g>
<!-- Node1&#45;&gt;Node11 -->
<g id="edge10_Node000001_Node000011" class="edge">
<title>Node1&#45;&gt;Node11</title>
<g id="a_edge10_Node000001_Node000011"><a xlink:title=" ">
<path fill="none" stroke="#63b8ff" d="M496.18,-111.55C523.13,-101.25 557.97,-87.94 582.52,-78.55"/>
<polygon fill="#63b8ff" stroke="#63b8ff" points="583.5,-81.92 591.59,-75.09 581,-75.39 583.5,-81.92"/>
</a>
</g>
</g>
<!-- Node12 -->
<g id="Node000012" class="node">
<title>Node12</title>
<g id="a_Node000012"><a xlink:title=" ">
<polygon fill="#e0e0e0" stroke="#999999" points="725,-76 650.5,-76 650.5,-56 725,-56 725,-76"/>
<text xml:space="preserve" text-anchor="middle" x="687.75" y="-62.5" font-family="Helvetica,sans-Serif" font-size="10.00">sys/drvctlio.h</text>
</a>
</g>
</g>
<!-- Node1&#45;&gt;Node12 -->
<g id="edge11_Node000001_Node000012" class="edge">
<title>Node1&#45;&gt;Node12</title>
<g id="a_edge11_Node000001_Node000012"><a xlink:title=" ">
<path fill="none" stroke="#63b8ff" d="M508.39,-113.39C548.06,-103.13 601.99,-89.18 640.32,-79.27"/>
<polygon fill="#63b8ff" stroke="#63b8ff" points="640.92,-82.73 649.73,-76.83 639.17,-75.95 640.92,-82.73"/>
</a>
</g>
</g>
<!-- Node13 -->
<g id="Node000013" class="node">
<title>Node13</title>
<g id="a_Node000013"><a xlink:title=" ">
<polygon fill="#e0e0e0" stroke="#999999" points="820.5,-76 743,-76 743,-56 820.5,-56 820.5,-76"/>
<text xml:space="preserve" text-anchor="middle" x="781.75" y="-62.5" font-family="Helvetica,sans-Serif" font-size="10.00">dev/usb/usb.h</text>
</a>
</g>
</g>
<!-- Node1&#45;&gt;Node13 -->
<g id="edge12_Node000001_Node000013" class="edge">
<title>Node1&#45;&gt;Node13</title>
<g id="a_edge12_Node000001_Node000013"><a xlink:title=" ">
<path fill="none" stroke="#63b8ff" d="M508.28,-117.43C561.79,-107.66 647.47,-91.98 731.42,-76.43"/>
<polygon fill="#63b8ff" stroke="#63b8ff" points="732.04,-79.87 741.23,-74.61 730.76,-72.99 732.04,-79.87"/>
</a>
</g>
</g>
<!-- Node14 -->
<g id="Node000014" class="node">
<title>Node14</title>
<g id="a_Node000014"><a xlink:title=" ">
<polygon fill="#e0e0e0" stroke="#999999" points="928.88,-76 838.62,-76 838.62,-56 928.88,-56 928.88,-76"/>
<text xml:space="preserve" text-anchor="middle" x="883.75" y="-62.5" font-family="Helvetica,sans-Serif" font-size="10.00">dev/usb/usbhid.h</text>
</a>
</g>
</g>
<!-- Node1&#45;&gt;Node14 -->
<g id="edge13_Node000001_Node000014" class="edge">
<title>Node1&#45;&gt;Node14</title>
<g id="a_edge13_Node000001_Node000014"><a xlink:title=" ">
<path fill="none" stroke="#63b8ff" d="M508.47,-120.31C578.75,-111.28 707.31,-94.39 827.19,-76.35"/>
<polygon fill="#63b8ff" stroke="#63b8ff" points="827.53,-79.84 836.9,-74.89 826.49,-72.92 827.53,-79.84"/>
</a>
</g>
</g>
<!-- Node15 -->
<g id="Node000015" class="node">
<title>Node15</title>
<g id="a_Node000015"><a xlink:href="../../dc/dd0/hidapi_8h.html" target="_top" xlink:title=" ">
<polygon fill="white" stroke="#666666" points="1034.38,-76 947.12,-76 947.12,-56 1034.38,-56 1034.38,-76"/>
<text xml:space="preserve" text-anchor="middle" x="990.75" y="-62.5" font-family="Helvetica,sans-Serif" font-size="10.00">../hidapi/hidapi.h</text>
</a>
</g>
</g>
<!-- Node1&#45;&gt;Node15 -->
<g id="edge14_Node000001_Node000015" class="edge">
<title>Node1&#45;&gt;Node15</title>
<g id="a_edge14_Node000001_Node000015"><a xlink:title=" ">
<path fill="none" stroke="#63b8ff" d="M508.3,-122.53C595.03,-114.91 773.81,-98.2 935.69,-76.2"/>
<polygon fill="#63b8ff" stroke="#63b8ff" points="935.89,-79.71 945.32,-74.88 934.94,-72.77 935.89,-79.71"/>
</a>
</g>
</g>
<!-- Node16 -->
<g id="Node000016" class="node">
<title>Node16</title>
<g id="a_Node000016"><a xlink:title=" ">
<polygon fill="#e0e0e0" stroke="#999999" points="1016,-20 965.5,-20 965.5,0 1016,0 1016,-20"/>
<text xml:space="preserve" text-anchor="middle" x="990.75" y="-6.5" font-family="Helvetica,sans-Serif" font-size="10.00">wchar.h</text>
</a>
</g>
</g>
<!-- Node15&#45;&gt;Node16 -->
<g id="edge15_Node000015_Node000016" class="edge">
<title>Node15&#45;&gt;Node16</title>
<g id="a_edge15_Node000015_Node000016"><a xlink:title=" ">
<path fill="none" stroke="#63b8ff" d="M990.75,-55.59C990.75,-49.01 990.75,-39.96 990.75,-31.73"/>
<polygon fill="#63b8ff" stroke="#63b8ff" points="994.25,-31.81 990.75,-21.81 987.25,-31.81 994.25,-31.81"/>
</a>
</g>
</g>
</g>
</svg>

<g id="navigator" transform="translate(0 0)" fill="#404254">
  <rect fill="#f2f5e9" fill-opacity="0.5" stroke="#606060" stroke-width=".5" x="0" y="0" width="60" height="60"/>
  <use id="zoomplus" xlink:href="#zoomPlus" x="17" y="9" onmousedown="handleZoom(evt,'in')"/>
  <use id="zoomminus" xlink:href="#zoomMin" x="42" y="9" onmousedown="handleZoom(evt,'out')"/>
  <use id="reset" xlink:href="#resetDef" x="30" y="36" onmousedown="handleReset()"/>
   <use id="arrowup" xlink:href="#arrowUp" x="0" y="0" onmousedown="handlePan(0,-1)"/>
  <use id="arrowright" xlink:href="#arrowRight" x="0" y="0" onmousedown="handlePan(1,0)"/>
  <use id="arrowdown" xlink:href="#arrowDown" x="0" y="0" onmousedown="handlePan(0,1)"/>
  <use id="arrowleft" xlink:href="#arrowLeft" x="0" y="0" onmousedown="handlePan(-1,0)"/>
</g>
<svg viewBox="0 0 15 15" width="100%" height="30px" preserveAspectRatio="xMaxYMin meet">
 <g id="arrow_out" transform="scale(0.3 0.3)">
  <a xlink:href="netbsd_2hid_8c__incl_org.svg" target="_base">
   <rect id="button" ry="5" rx="5" y="6" x="6" height="38" width="38"
        fill="#f2f5e9" fill-opacity="0.5" stroke="#606060" stroke-width="1.0"/>
   <path id="arrow"
     d="M 11.500037,31.436501 C 11.940474,20.09759 22.043105,11.32322 32.158766,21.979434 L 37.068811,17.246167 C 37.068811,17.246167 37.088388,32 37.088388,32 L 22.160133,31.978069 C 22.160133,31.978069 26.997745,27.140456 26.997745,27.140456 C 18.528582,18.264221 13.291696,25.230495 11.500037,31.436501 z"
     style="fill:#404040;"/>
  </a>
 </g>
</svg>

<style type='text/css'>
<![CDATA[
[data-mouse-over-selected='false'] { opacity: 0.7; }
[data-mouse-over-selected='true']  { opacity: 1.0; }
]]>
</style>
<script type="application/ecmascript"><![CDATA[
document.addEventListener('DOMContentLoaded', (event) => {
  highlightEdges();
  highlightAdjacentNodes();
});
]]></script>
</svg>
