<?xml version="1.0" encoding="UTF-8" standalone="no"?>
<!DOCTYPE svg PUBLIC "-//W3C//DTD SVG 1.1//EN"
 "http://www.w3.org/Graphics/SVG/1.1/DTD/svg11.dtd">
<!-- Generated by graphviz version 13.1.0 (20250701.0955)
 -->
<!-- Title: NewByteArray Pages: 1 -->
<svg width="255pt" height="66pt"
 viewBox="0.00 0.00 255.00 66.00" xmlns="http://www.w3.org/2000/svg" xmlns:xlink="http://www.w3.org/1999/xlink">
<g id="graph0" class="graph" transform="scale(1 1) rotate(0) translate(4 62)">
<title>NewByteArray</title>
<!-- Node1 -->
<g id="Node000001" class="node">
<title>Node1</title>
<g id="a_Node000001"><a xlink:title=" ">
<polygon fill="#999999" stroke="#666666" points="246.5,-39 166.75,-39 166.75,-19 246.5,-19 246.5,-39"/>
<text xml:space="preserve" text-anchor="middle" x="206.62" y="-25.5" font-family="Helvetica,sans-Serif" font-size="10.00">NewByteArray</text>
</a>
</g>
</g>
<!-- Node2 -->
<g id="Node000002" class="node">
<title>Node2</title>
<g id="a_Node000002"><a xlink:href="../../d7/d09/classCHIDDevice.html#a84679949d93e3307a6fe15abd93b574e" target="_top" xlink:title=" ">
<polygon fill="white" stroke="#666666" points="130.75,-58 0,-58 0,-38 130.75,-38 130.75,-58"/>
<text xml:space="preserve" text-anchor="middle" x="65.38" y="-44.5" font-family="Helvetica,sans-Serif" font-size="10.00">CHIDDevice::ReadReport</text>
</a>
</g>
</g>
<!-- Node1&#45;&gt;Node2 -->
<g id="edge1_Node000001_Node000002" class="edge">
<title>Node1&#45;&gt;Node2</title>
<g id="a_edge1_Node000001_Node000002"><a xlink:title=" ">
<path fill="none" stroke="#63b8ff" d="M155.26,-35.87C147.4,-36.94 139.19,-38.06 131.07,-39.17"/>
<polygon fill="#63b8ff" stroke="#63b8ff" points="155.53,-39.37 164.97,-34.55 154.58,-32.43 155.53,-39.37"/>
</a>
</g>
</g>
<!-- Node3 -->
<g id="Node000003" class="node">
<title>Node3</title>
<g id="a_Node000003"><a xlink:href="../../d7/d09/classCHIDDevice.html#a17085aba38125efb622c59135e00c328" target="_top" xlink:title=" ">
<polygon fill="white" stroke="#666666" points="130.38,-20 0.38,-20 0.38,0 130.38,0 130.38,-20"/>
<text xml:space="preserve" text-anchor="middle" x="65.38" y="-6.5" font-family="Helvetica,sans-Serif" font-size="10.00">CHIDDevice::WriteReport</text>
</a>
</g>
</g>
<!-- Node1&#45;&gt;Node3 -->
<g id="edge2_Node000001_Node000003" class="edge">
<title>Node1&#45;&gt;Node3</title>
<g id="a_edge2_Node000001_Node000003"><a xlink:title=" ">
<path fill="none" stroke="#63b8ff" d="M155.18,-22.12C147.26,-21.04 138.98,-19.91 130.8,-18.79"/>
<polygon fill="#63b8ff" stroke="#63b8ff" points="154.58,-25.57 164.97,-23.45 155.53,-18.63 154.58,-25.57"/>
</a>
</g>
</g>
</g>
</svg>
