<?xml version="1.0" encoding="UTF-8" standalone="no"?>
<!DOCTYPE svg PUBLIC "-//W3C//DTD SVG 1.1//EN"
 "http://www.w3.org/Graphics/SVG/1.1/DTD/svg11.dtd">
<!-- Generated by graphviz version 13.1.0 (20250701.0955)
 -->
<!-- Title: SDL&#45;main/src/video/uikit/SDL_uikitvideo.h Pages: 1 -->
<svg width="362pt" height="176pt"
 viewBox="0.00 0.00 362.00 176.00" xmlns="http://www.w3.org/2000/svg" xmlns:xlink="http://www.w3.org/1999/xlink">
<g id="graph0" class="graph" transform="scale(1 1) rotate(0) translate(4 172)">
<title>SDL&#45;main/src/video/uikit/SDL_uikitvideo.h</title>
<!-- Node1 -->
<g id="Node000001" class="node">
<title>Node1</title>
<g id="a_Node000001"><a xlink:title=" ">
<polygon fill="#999999" stroke="#666666" points="205.25,-168 91,-168 91,-136 205.25,-136 205.25,-168"/>
<text xml:space="preserve" text-anchor="start" x="99" y="-154.5" font-family="Helvetica,sans-Serif" font-size="10.00">SDL&#45;main/src/video</text>
<text xml:space="preserve" text-anchor="middle" x="148.12" y="-142.5" font-family="Helvetica,sans-Serif" font-size="10.00">/uikit/SDL_uikitvideo.h</text>
</a>
</g>
</g>
<!-- Node2 -->
<g id="Node000002" class="node">
<title>Node2</title>
<g id="a_Node000002"><a xlink:href="../../d6/d9e/SDL__uikitmodes_8h.html" target="_top" xlink:title=" ">
<polygon fill="white" stroke="#666666" points="120.25,-100 0,-100 0,-68 120.25,-68 120.25,-100"/>
<text xml:space="preserve" text-anchor="start" x="8" y="-86.5" font-family="Helvetica,sans-Serif" font-size="10.00">SDL&#45;main/src/video</text>
<text xml:space="preserve" text-anchor="middle" x="60.12" y="-74.5" font-family="Helvetica,sans-Serif" font-size="10.00">/uikit/SDL_uikitmodes.h</text>
</a>
</g>
</g>
<!-- Node1&#45;&gt;Node2 -->
<g id="edge1_Node000001_Node000002" class="edge">
<title>Node1&#45;&gt;Node2</title>
<g id="a_edge1_Node000001_Node000002"><a xlink:title=" ">
<path fill="none" stroke="#63b8ff" d="M118.62,-128.87C106.19,-119.55 92.01,-108.91 80.73,-100.45"/>
<polygon fill="#63b8ff" stroke="#63b8ff" points="116.4,-131.58 126.5,-134.78 120.6,-125.98 116.4,-131.58"/>
</a>
</g>
</g>
<!-- Node3 -->
<g id="Node000003" class="node">
<title>Node3</title>
<g id="a_Node000003"><a xlink:href="../../d5/d29/SDL__uikitpen_8h.html" target="_top" xlink:title=" ">
<polygon fill="white" stroke="#666666" points="201.5,-32 94.75,-32 94.75,0 201.5,0 201.5,-32"/>
<text xml:space="preserve" text-anchor="start" x="102.75" y="-18.5" font-family="Helvetica,sans-Serif" font-size="10.00">SDL&#45;main/src/video</text>
<text xml:space="preserve" text-anchor="middle" x="148.12" y="-6.5" font-family="Helvetica,sans-Serif" font-size="10.00">/uikit/SDL_uikitpen.h</text>
</a>
</g>
</g>
<!-- Node1&#45;&gt;Node3 -->
<g id="edge2_Node000001_Node000003" class="edge">
<title>Node1&#45;&gt;Node3</title>
<g id="a_edge2_Node000001_Node000003"><a xlink:title=" ">
<path fill="none" stroke="#63b8ff" d="M148.12,-124.45C148.12,-96.84 148.12,-54.6 148.12,-32.19"/>
<polygon fill="#63b8ff" stroke="#63b8ff" points="144.63,-124.11 148.13,-134.11 151.63,-124.11 144.63,-124.11"/>
</a>
</g>
</g>
<!-- Node4 -->
<g id="Node000004" class="node">
<title>Node4</title>
<g id="a_Node000004"><a xlink:href="../../d5/d6b/SDL__uikitwindow_8h.html" target="_top" xlink:title=" ">
<polygon fill="white" stroke="#666666" points="299.75,-100 176.5,-100 176.5,-68 299.75,-68 299.75,-100"/>
<text xml:space="preserve" text-anchor="start" x="184.5" y="-86.5" font-family="Helvetica,sans-Serif" font-size="10.00">SDL&#45;main/src/video</text>
<text xml:space="preserve" text-anchor="middle" x="238.12" y="-74.5" font-family="Helvetica,sans-Serif" font-size="10.00">/uikit/SDL_uikitwindow.h</text>
</a>
</g>
</g>
<!-- Node1&#45;&gt;Node4 -->
<g id="edge3_Node000001_Node000004" class="edge">
<title>Node1&#45;&gt;Node4</title>
<g id="a_edge3_Node000001_Node000004"><a xlink:title=" ">
<path fill="none" stroke="#63b8ff" d="M177.93,-129.15C190.73,-119.75 205.4,-109 217.05,-100.45"/>
<polygon fill="#63b8ff" stroke="#63b8ff" points="176.21,-126.06 170.22,-134.8 180.35,-131.71 176.21,-126.06"/>
</a>
</g>
</g>
<!-- Node4&#45;&gt;Node3 -->
<g id="edge5_Node000004_Node000003" class="edge">
<title>Node4&#45;&gt;Node3</title>
<g id="a_edge5_Node000004_Node000003"><a xlink:title=" ">
<path fill="none" stroke="#63b8ff" d="M208.32,-61.15C195.52,-51.75 180.85,-41 169.2,-32.45"/>
<polygon fill="#63b8ff" stroke="#63b8ff" points="205.9,-63.71 216.03,-66.8 210.04,-58.06 205.9,-63.71"/>
</a>
</g>
</g>
<!-- Node5 -->
<g id="Node000005" class="node">
<title>Node5</title>
<g id="a_Node000005"><a xlink:href="../../df/ddd/SDL__uikitmetalview_8h.html" target="_top" xlink:title=" ">
<polygon fill="white" stroke="#666666" points="354.38,-32 219.88,-32 219.88,0 354.38,0 354.38,-32"/>
<text xml:space="preserve" text-anchor="start" x="227.88" y="-18.5" font-family="Helvetica,sans-Serif" font-size="10.00">SDL&#45;main/src/video</text>
<text xml:space="preserve" text-anchor="middle" x="287.12" y="-6.5" font-family="Helvetica,sans-Serif" font-size="10.00">/uikit/SDL_uikitmetalview.h</text>
</a>
</g>
</g>
<!-- Node4&#45;&gt;Node5 -->
<g id="edge4_Node000004_Node000005" class="edge">
<title>Node4&#45;&gt;Node5</title>
<g id="a_edge4_Node000004_Node000005"><a xlink:title=" ">
<path fill="none" stroke="#63b8ff" d="M256.25,-58.59C262.81,-49.75 270.02,-40.04 275.82,-32.22"/>
<polygon fill="#63b8ff" stroke="#63b8ff" points="253.54,-56.36 250.39,-66.48 259.16,-60.53 253.54,-56.36"/>
</a>
</g>
</g>
</g>
</svg>
