<?xml version="1.0" encoding="UTF-8" standalone="no"?>
<!DOCTYPE svg PUBLIC "-//W3C//DTD SVG 1.1//EN"
 "http://www.w3.org/Graphics/SVG/1.1/DTD/svg11.dtd">
<!-- Generated by graphviz version 13.1.0 (20250701.0955)
 -->
<!-- Title: TrayWindowProc Pages: 1 -->
<svg width="436pt" height="198pt"
 viewBox="0.00 0.00 436.00 198.00" xmlns="http://www.w3.org/2000/svg" xmlns:xlink="http://www.w3.org/1999/xlink">

<svg id="main" version="1.1" xmlns="http://www.w3.org/2000/svg" xmlns:xlink="http://www.w3.org/1999/xlink" xml:space="preserve">

<style type="text/css"><![CDATA[
.node, .edge {opacity: 0.7;}
.node.selected, .edge.selected {opacity: 1;}
.edge:hover path { stroke: red; }
.edge:hover polygon { stroke: red; fill: red; }
]]></style>
<script type="application/ecmascript" xlink:href="../../svg.min.js"/>
<svg id="graph" class="graph">
<g id="graph0" class="graph" transform="scale(1 1) rotate(0) translate(4 194)">
<title>TrayWindowProc</title>
<!-- Node1 -->
<g id="Node000001" class="node">
<title>Node1</title>
<g id="a_Node000001"><a xlink:title=" ">
<polygon fill="#999999" stroke="#666666" points="91,-96 0,-96 0,-76 91,-76 91,-96"/>
<text xml:space="preserve" text-anchor="middle" x="45.5" y="-82.5" font-family="Helvetica,sans-Serif" font-size="10.00">TrayWindowProc</text>
</a>
</g>
</g>
<!-- Node2 -->
<g id="Node000002" class="node">
<title>Node2</title>
<g id="a_Node000002"><a xlink:href="../../d1/d09/windows_2SDL__tray_8c.html#a84a020530eac7696e6353cf9596b3eee" target="_top" xlink:title=" ">
<polygon fill="white" stroke="#666666" points="256.62,-172 161.88,-172 161.88,-152 256.62,-152 256.62,-172"/>
<text xml:space="preserve" text-anchor="middle" x="209.25" y="-158.5" font-family="Helvetica,sans-Serif" font-size="10.00">find_entry_with_id</text>
</a>
</g>
</g>
<!-- Node1&#45;&gt;Node2 -->
<g id="edge1_Node000001_Node000002" class="edge">
<title>Node1&#45;&gt;Node2</title>
<g id="a_edge1_Node000001_Node000002"><a xlink:title=" ">
<path fill="none" stroke="#63b8ff" d="M58.14,-96.48C73.03,-109.34 100.14,-130.91 127,-143 134.45,-146.35 142.55,-149.15 150.67,-151.47"/>
<polygon fill="#63b8ff" stroke="#63b8ff" points="149.66,-154.83 160.22,-153.97 151.43,-148.05 149.66,-154.83"/>
</a>
</g>
</g>
<!-- Node4 -->
<g id="Node000004" class="node">
<title>Node4</title>
<g id="a_Node000004"><a xlink:href="../../d2/daf/dummy_2SDL__tray_8c.html#aa433994da8bafef8f4d12e4406f5780b" target="_top" xlink:title=" ">
<polygon fill="white" stroke="#666666" points="278.38,-134 140.12,-134 140.12,-114 278.38,-114 278.38,-134"/>
<text xml:space="preserve" text-anchor="middle" x="209.25" y="-120.5" font-family="Helvetica,sans-Serif" font-size="10.00">SDL_GetTrayEntryChecked</text>
</a>
</g>
</g>
<!-- Node1&#45;&gt;Node4 -->
<g id="edge4_Node000001_Node000004" class="edge">
<title>Node1&#45;&gt;Node4</title>
<g id="a_edge4_Node000001_Node000004"><a xlink:title=" ">
<path fill="none" stroke="#63b8ff" d="M90.78,-96.47C102.55,-99.25 115.26,-102.24 127,-105 135.24,-106.94 143.94,-108.98 152.48,-110.97"/>
<polygon fill="#63b8ff" stroke="#63b8ff" points="151.54,-114.35 162.07,-113.22 153.13,-107.53 151.54,-114.35"/>
</a>
</g>
</g>
<!-- Node5 -->
<g id="Node000005" class="node">
<title>Node5</title>
<g id="a_Node000005"><a xlink:href="../../d2/daf/dummy_2SDL__tray_8c.html#ab390553f61537894348b085dc159325f" target="_top" xlink:title=" ">
<polygon fill="white" stroke="#666666" points="278,-96 140.5,-96 140.5,-76 278,-76 278,-96"/>
<text xml:space="preserve" text-anchor="middle" x="209.25" y="-82.5" font-family="Helvetica,sans-Serif" font-size="10.00">SDL_SetTrayEntryChecked</text>
</a>
</g>
</g>
<!-- Node1&#45;&gt;Node5 -->
<g id="edge5_Node000001_Node000005" class="edge">
<title>Node1&#45;&gt;Node5</title>
<g id="a_edge5_Node000001_Node000005"><a xlink:title=" ">
<path fill="none" stroke="#63b8ff" d="M91.13,-86C102.84,-86 115.84,-86 128.79,-86"/>
<polygon fill="#63b8ff" stroke="#63b8ff" points="128.61,-89.5 138.61,-86 128.61,-82.5 128.61,-89.5"/>
</a>
</g>
</g>
<!-- Node6 -->
<g id="Node000006" class="node">
<title>Node6</title>
<g id="a_Node000006"><a xlink:href="../../d2/d23/SDL__string_8c.html#a8cf0e4ab93dec3239f05ffe102afc3ad" target="_top" xlink:title=" ">
<polygon fill="white" stroke="#666666" points="248,-58 170.5,-58 170.5,-38 248,-38 248,-58"/>
<text xml:space="preserve" text-anchor="middle" x="209.25" y="-44.5" font-family="Helvetica,sans-Serif" font-size="10.00">SDL_wcscmp</text>
</a>
</g>
</g>
<!-- Node1&#45;&gt;Node6 -->
<g id="edge6_Node000001_Node000006" class="edge">
<title>Node1&#45;&gt;Node6</title>
<g id="a_edge6_Node000001_Node000006"><a xlink:title=" ">
<path fill="none" stroke="#63b8ff" d="M90.78,-75.53C102.55,-72.75 115.26,-69.76 127,-67 137.36,-64.57 148.46,-61.97 159.02,-59.49"/>
<polygon fill="#63b8ff" stroke="#63b8ff" points="159.8,-62.91 168.74,-57.22 158.21,-56.09 159.8,-62.91"/>
</a>
</g>
</g>
<!-- Node7 -->
<g id="Node000007" class="node">
<title>Node7</title>
<g id="a_Node000007"><a xlink:href="../../d2/d07/SDL__windowswindow_8h.html#ac82b37640c73f07fc5177b4941af06cb" target="_top" xlink:title=" ">
<polygon fill="white" stroke="#666666" points="291.5,-20 127,-20 127,0 291.5,0 291.5,-20"/>
<text xml:space="preserve" text-anchor="middle" x="209.25" y="-6.5" font-family="Helvetica,sans-Serif" font-size="10.00">WIN_UpdateDarkModeForHWND</text>
</a>
</g>
</g>
<!-- Node1&#45;&gt;Node7 -->
<g id="edge7_Node000001_Node000007" class="edge">
<title>Node1&#45;&gt;Node7</title>
<g id="a_edge7_Node000001_Node000007"><a xlink:title=" ">
<path fill="none" stroke="#63b8ff" d="M58.14,-75.52C73.03,-62.66 100.14,-41.09 127,-29 131.24,-27.09 135.68,-25.37 140.23,-23.8"/>
<polygon fill="#63b8ff" stroke="#63b8ff" points="141,-27.23 149.5,-20.9 138.91,-20.55 141,-27.23"/>
</a>
</g>
</g>
<!-- Node3 -->
<g id="Node000003" class="node">
<title>Node3</title>
<g id="a_Node000003"><a xlink:href="../../d1/d09/windows_2SDL__tray_8c.html#a2477fc2494b3300aaeb252fca2f10d65" target="_top" xlink:title=" ">
<polygon fill="white" stroke="#666666" points="428.25,-172 327.5,-172 327.5,-152 428.25,-152 428.25,-172"/>
<text xml:space="preserve" text-anchor="middle" x="377.88" y="-158.5" font-family="Helvetica,sans-Serif" font-size="10.00">find_entry_in_menu</text>
</a>
</g>
</g>
<!-- Node2&#45;&gt;Node3 -->
<g id="edge2_Node000002_Node000003" class="edge">
<title>Node2&#45;&gt;Node3</title>
<g id="a_edge2_Node000002_Node000003"><a xlink:title=" ">
<path fill="none" stroke="#63b8ff" d="M257.11,-162C275.29,-162 296.35,-162 315.7,-162"/>
<polygon fill="#63b8ff" stroke="#63b8ff" points="315.66,-165.5 325.66,-162 315.66,-158.5 315.66,-165.5"/>
</a>
</g>
</g>
<!-- Node3&#45;&gt;Node3 -->
<g id="edge3_Node000003_Node000003" class="edge">
<title>Node3&#45;&gt;Node3</title>
<g id="a_edge3_Node000003_Node000003"><a xlink:title=" ">
<path fill="none" stroke="#63b8ff" d="M351.08,-172.34C339.63,-180.98 348.56,-190 377.88,-190 393.9,-190 403.84,-187.3 407.68,-183.44"/>
<polygon fill="#63b8ff" stroke="#63b8ff" points="411.06,-182.53 405.06,-173.8 404.3,-184.37 411.06,-182.53"/>
</a>
</g>
</g>
</g>
</svg>
</svg>

<style type='text/css'>
<![CDATA[
[data-mouse-over-selected='false'] { opacity: 0.7; }
[data-mouse-over-selected='true']  { opacity: 1.0; }
]]>
</style>
<script type="application/ecmascript"><![CDATA[
document.addEventListener('DOMContentLoaded', (event) => {
  highlightEdges();
  highlightAdjacentNodes();
});
]]></script>
</svg>
