<?xml version="1.0" encoding="UTF-8" standalone="no"?>
<!DOCTYPE svg PUBLIC "-//W3C//DTD SVG 1.1//EN"
 "http://www.w3.org/Graphics/SVG/1.1/DTD/svg11.dtd">
<!-- Generated by graphviz version 13.1.0 (20250701.0955)
 -->
<!-- Title: find_entry_with_id Pages: 1 -->
<svg width="355pt" height="28pt"
 viewBox="0.00 0.00 355.00 28.00" xmlns="http://www.w3.org/2000/svg" xmlns:xlink="http://www.w3.org/1999/xlink">
<g id="graph0" class="graph" transform="scale(1 1) rotate(0) translate(4 24)">
<title>find_entry_with_id</title>
<!-- Node1 -->
<g id="Node000001" class="node">
<title>Node1</title>
<g id="a_Node000001"><a xlink:title=" ">
<polygon fill="#999999" stroke="#666666" points="347.25,-20 252.5,-20 252.5,0 347.25,0 347.25,-20"/>
<text xml:space="preserve" text-anchor="middle" x="299.88" y="-6.5" font-family="Helvetica,sans-Serif" font-size="10.00">find_entry_with_id</text>
</a>
</g>
</g>
<!-- Node2 -->
<g id="Node000002" class="node">
<title>Node2</title>
<g id="a_Node000002"><a xlink:href="../../d1/d09/windows_2SDL__tray_8c.html#a600fd270703b77bf2cfc52af32b42943" target="_top" xlink:title=" ">
<polygon fill="white" stroke="#666666" points="216.5,-20 125.5,-20 125.5,0 216.5,0 216.5,-20"/>
<text xml:space="preserve" text-anchor="middle" x="171" y="-6.5" font-family="Helvetica,sans-Serif" font-size="10.00">TrayWindowProc</text>
</a>
</g>
</g>
<!-- Node1&#45;&gt;Node2 -->
<g id="edge1_Node000001_Node000002" class="edge">
<title>Node1&#45;&gt;Node2</title>
<g id="a_edge1_Node000001_Node000002"><a xlink:title=" ">
<path fill="none" stroke="#63b8ff" d="M241.01,-10C232.89,-10 224.65,-10 216.83,-10"/>
<polygon fill="#63b8ff" stroke="#63b8ff" points="240.84,-13.5 250.84,-10 240.84,-6.5 240.84,-13.5"/>
</a>
</g>
</g>
<!-- Node3 -->
<g id="Node000003" class="node">
<title>Node3</title>
<g id="a_Node000003"><a xlink:href="../../d1/d09/windows_2SDL__tray_8c.html#a206a4c41714798d7da6da4c129f0973b" target="_top" xlink:title=" ">
<polygon fill="white" stroke="#666666" points="89.5,-20 0,-20 0,0 89.5,0 89.5,-20"/>
<text xml:space="preserve" text-anchor="middle" x="44.75" y="-6.5" font-family="Helvetica,sans-Serif" font-size="10.00">SDL_CreateTray</text>
</a>
</g>
</g>
<!-- Node2&#45;&gt;Node3 -->
<g id="edge2_Node000002_Node000003" class="edge">
<title>Node2&#45;&gt;Node3</title>
<g id="a_edge2_Node000002_Node000003"><a xlink:title=" ">
<path fill="none" stroke="#63b8ff" d="M113.85,-10C105.75,-10 97.52,-10 89.71,-10"/>
<polygon fill="#63b8ff" stroke="#63b8ff" points="113.63,-13.5 123.63,-10 113.63,-6.5 113.63,-13.5"/>
</a>
</g>
</g>
</g>
</svg>
