<?xml version="1.0" encoding="UTF-8" standalone="no"?>
<!DOCTYPE svg PUBLIC "-//W3C//DTD SVG 1.1//EN"
 "http://www.w3.org/Graphics/SVG/1.1/DTD/svg11.dtd">
<!-- Generated by graphviz version 13.1.0 (20250701.0955)
 -->
<!-- Title: SDL&#45;main/src/hidapi/SDL_hidapi_mac.h Pages: 1 -->
<svg width="1378pt" height="264pt"
 viewBox="0.00 0.00 1378.00 264.00" xmlns="http://www.w3.org/2000/svg" xmlns:xlink="http://www.w3.org/1999/xlink">
<g id="graph0" class="graph" transform="scale(1 1) rotate(0) translate(4 260)">
<title>SDL&#45;main/src/hidapi/SDL_hidapi_mac.h</title>
<!-- Node1 -->
<g id="Node000001" class="node">
<title>Node1</title>
<g id="a_Node000001"><a xlink:title=" ">
<polygon fill="#999999" stroke="#666666" points="928,-256 823.5,-256 823.5,-224 928,-224 928,-256"/>
<text xml:space="preserve" text-anchor="start" x="831.5" y="-242.5" font-family="Helvetica,sans-Serif" font-size="10.00">SDL&#45;main/src/hidapi</text>
<text xml:space="preserve" text-anchor="middle" x="875.75" y="-230.5" font-family="Helvetica,sans-Serif" font-size="10.00">/SDL_hidapi_mac.h</text>
</a>
</g>
</g>
<!-- Node2 -->
<g id="Node000002" class="node">
<title>Node2</title>
<g id="a_Node000002"><a xlink:href="../../d1/de6/mac_2hid_8c.html" target="_top" xlink:title=" ">
<polygon fill="white" stroke="#666666" points="905.12,-188 846.38,-188 846.38,-168 905.12,-168 905.12,-188"/>
<text xml:space="preserve" text-anchor="middle" x="875.75" y="-174.5" font-family="Helvetica,sans-Serif" font-size="10.00">mac/hid.c</text>
</a>
</g>
</g>
<!-- Node1&#45;&gt;Node2 -->
<g id="edge1_Node000001_Node000002" class="edge">
<title>Node1&#45;&gt;Node2</title>
<g id="a_edge1_Node000001_Node000002"><a xlink:title=" ">
<path fill="none" stroke="#63b8ff" d="M875.75,-223.55C875.75,-216.34 875.75,-207.66 875.75,-199.88"/>
<polygon fill="#63b8ff" stroke="#63b8ff" points="879.25,-199.92 875.75,-189.92 872.25,-199.92 879.25,-199.92"/>
</a>
</g>
</g>
<!-- Node3 -->
<g id="Node000003" class="node">
<title>Node3</title>
<g id="a_Node000003"><a xlink:title=" ">
<polygon fill="#e0e0e0" stroke="#999999" points="131.5,-132 0,-132 0,-112 131.5,-112 131.5,-132"/>
<text xml:space="preserve" text-anchor="middle" x="65.75" y="-118.5" font-family="Helvetica,sans-Serif" font-size="10.00">IOKit/hid/IOHIDManager.h</text>
</a>
</g>
</g>
<!-- Node2&#45;&gt;Node3 -->
<g id="edge2_Node000002_Node000003" class="edge">
<title>Node2&#45;&gt;Node3</title>
<g id="a_edge2_Node000002_Node000003"><a xlink:title=" ">
<path fill="none" stroke="#63b8ff" d="M845.95,-175.8C747.4,-171.7 422.89,-157.15 143.17,-132.17"/>
<polygon fill="#63b8ff" stroke="#63b8ff" points="143.76,-128.71 133.49,-131.3 143.13,-135.68 143.76,-128.71"/>
</a>
</g>
</g>
<!-- Node4 -->
<g id="Node000004" class="node">
<title>Node4</title>
<g id="a_Node000004"><a xlink:title=" ">
<polygon fill="#e0e0e0" stroke="#999999" points="266,-132 149.5,-132 149.5,-112 266,-112 266,-132"/>
<text xml:space="preserve" text-anchor="middle" x="207.75" y="-118.5" font-family="Helvetica,sans-Serif" font-size="10.00">IOKit/hid/IOHIDKeys.h</text>
</a>
</g>
</g>
<!-- Node2&#45;&gt;Node4 -->
<g id="edge3_Node000002_Node000004" class="edge">
<title>Node2&#45;&gt;Node4</title>
<g id="a_edge3_Node000002_Node000004"><a xlink:title=" ">
<path fill="none" stroke="#63b8ff" d="M845.99,-175.39C759.79,-170.61 502.29,-155.38 277.54,-132.24"/>
<polygon fill="#63b8ff" stroke="#63b8ff" points="278,-128.76 267.7,-131.21 277.28,-135.73 278,-128.76"/>
</a>
</g>
</g>
<!-- Node5 -->
<g id="Node000005" class="node">
<title>Node5</title>
<g id="a_Node000005"><a xlink:title=" ">
<polygon fill="#e0e0e0" stroke="#999999" points="369.25,-132 284.25,-132 284.25,-112 369.25,-112 369.25,-132"/>
<text xml:space="preserve" text-anchor="middle" x="326.75" y="-118.5" font-family="Helvetica,sans-Serif" font-size="10.00">IOKit/IOKitLib.h</text>
</a>
</g>
</g>
<!-- Node2&#45;&gt;Node5 -->
<g id="edge4_Node000002_Node000005" class="edge">
<title>Node2&#45;&gt;Node5</title>
<g id="a_edge4_Node000002_Node000005"><a xlink:title=" ">
<path fill="none" stroke="#63b8ff" d="M845.97,-175.15C770.2,-170.26 563.76,-155.82 380.74,-132.15"/>
<polygon fill="#63b8ff" stroke="#63b8ff" points="381.43,-128.71 371.06,-130.89 380.52,-135.65 381.43,-128.71"/>
</a>
</g>
</g>
<!-- Node6 -->
<g id="Node000006" class="node">
<title>Node6</title>
<g id="a_Node000006"><a xlink:title=" ">
<polygon fill="#e0e0e0" stroke="#999999" points="499.75,-132 387.75,-132 387.75,-112 499.75,-112 499.75,-132"/>
<text xml:space="preserve" text-anchor="middle" x="443.75" y="-118.5" font-family="Helvetica,sans-Serif" font-size="10.00">IOKit/usb/USBSpec.h</text>
</a>
</g>
</g>
<!-- Node2&#45;&gt;Node6 -->
<g id="edge5_Node000002_Node000006" class="edge">
<title>Node2&#45;&gt;Node6</title>
<g id="a_edge5_Node000002_Node000006"><a xlink:title=" ">
<path fill="none" stroke="#63b8ff" d="M846.24,-173.54C785.58,-166.39 642.27,-149.33 511.14,-132.3"/>
<polygon fill="#63b8ff" stroke="#63b8ff" points="511.98,-128.88 501.61,-131.05 511.08,-135.82 511.98,-128.88"/>
</a>
</g>
</g>
<!-- Node7 -->
<g id="Node000007" class="node">
<title>Node7</title>
<g id="a_Node000007"><a xlink:title=" ">
<polygon fill="#e0e0e0" stroke="#999999" points="683.38,-132 518.12,-132 518.12,-112 683.38,-112 683.38,-132"/>
<text xml:space="preserve" text-anchor="middle" x="600.75" y="-118.5" font-family="Helvetica,sans-Serif" font-size="10.00">CoreFoundation/CoreFoundation.h</text>
</a>
</g>
</g>
<!-- Node2&#45;&gt;Node7 -->
<g id="edge6_Node000002_Node000007" class="edge">
<title>Node2&#45;&gt;Node7</title>
<g id="a_edge6_Node000002_Node000007"><a xlink:title=" ">
<path fill="none" stroke="#63b8ff" d="M846.06,-171.17C801.66,-162.45 717.07,-145.84 659.79,-134.59"/>
<polygon fill="#63b8ff" stroke="#63b8ff" points="660.69,-131.2 650.2,-132.71 659.34,-138.07 660.69,-131.2"/>
</a>
</g>
</g>
<!-- Node8 -->
<g id="Node000008" class="node">
<title>Node8</title>
<g id="a_Node000008"><a xlink:title=" ">
<polygon fill="#e0e0e0" stroke="#999999" points="801.75,-132 701.75,-132 701.75,-112 801.75,-112 801.75,-132"/>
<text xml:space="preserve" text-anchor="middle" x="751.75" y="-118.5" font-family="Helvetica,sans-Serif" font-size="10.00">mach/mach_error.h</text>
</a>
</g>
</g>
<!-- Node2&#45;&gt;Node8 -->
<g id="edge7_Node000002_Node000008" class="edge">
<title>Node2&#45;&gt;Node8</title>
<g id="a_edge7_Node000002_Node000008"><a xlink:title=" ">
<path fill="none" stroke="#63b8ff" d="M854.15,-167.59C834.8,-159.17 806.15,-146.69 784.07,-137.07"/>
<polygon fill="#63b8ff" stroke="#63b8ff" points="785.47,-133.87 774.91,-133.08 782.68,-140.29 785.47,-133.87"/>
</a>
</g>
</g>
<!-- Node9 -->
<g id="Node000009" class="node">
<title>Node9</title>
<g id="a_Node000009"><a xlink:title=" ">
<polygon fill="#e0e0e0" stroke="#999999" points="875.62,-132 819.88,-132 819.88,-112 875.62,-112 875.62,-132"/>
<text xml:space="preserve" text-anchor="middle" x="847.75" y="-118.5" font-family="Helvetica,sans-Serif" font-size="10.00">stdbool.h</text>
</a>
</g>
</g>
<!-- Node2&#45;&gt;Node9 -->
<g id="edge8_Node000002_Node000009" class="edge">
<title>Node2&#45;&gt;Node9</title>
<g id="a_edge8_Node000002_Node000009"><a xlink:title=" ">
<path fill="none" stroke="#63b8ff" d="M870.87,-167.59C867.26,-160.63 862.21,-150.89 857.75,-142.29"/>
<polygon fill="#63b8ff" stroke="#63b8ff" points="860.98,-140.91 853.27,-133.64 854.76,-144.13 860.98,-140.91"/>
</a>
</g>
</g>
<!-- Node10 -->
<g id="Node000010" class="node">
<title>Node10</title>
<g id="a_Node000010"><a xlink:title=" ">
<polygon fill="#e0e0e0" stroke="#999999" points="1140,-20 1089.5,-20 1089.5,0 1140,0 1140,-20"/>
<text xml:space="preserve" text-anchor="middle" x="1114.75" y="-6.5" font-family="Helvetica,sans-Serif" font-size="10.00">wchar.h</text>
</a>
</g>
</g>
<!-- Node2&#45;&gt;Node10 -->
<g id="edge9_Node000002_Node000010" class="edge">
<title>Node2&#45;&gt;Node10</title>
<g id="a_edge9_Node000002_Node000010"><a xlink:title=" ">
<path fill="none" stroke="#63b8ff" d="M880.71,-167.56C888.27,-153.89 903.81,-128.42 922.75,-112 970.31,-70.74 1037.63,-40.3 1078.62,-24.14"/>
<polygon fill="#63b8ff" stroke="#63b8ff" points="1079.72,-27.47 1087.79,-20.6 1077.2,-20.94 1079.72,-27.47"/>
</a>
</g>
</g>
<!-- Node11 -->
<g id="Node000011" class="node">
<title>Node11</title>
<g id="a_Node000011"><a xlink:title=" ">
<polygon fill="#e0e0e0" stroke="#999999" points="981.62,-132 931.88,-132 931.88,-112 981.62,-112 981.62,-132"/>
<text xml:space="preserve" text-anchor="middle" x="956.75" y="-118.5" font-family="Helvetica,sans-Serif" font-size="10.00">locale.h</text>
</a>
</g>
</g>
<!-- Node2&#45;&gt;Node11 -->
<g id="edge10_Node000002_Node000011" class="edge">
<title>Node2&#45;&gt;Node11</title>
<g id="a_edge10_Node000002_Node000011"><a xlink:title=" ">
<path fill="none" stroke="#63b8ff" d="M889.86,-167.59C901.75,-159.67 919.02,-148.16 933.03,-138.82"/>
<polygon fill="#63b8ff" stroke="#63b8ff" points="934.89,-141.78 941.27,-133.32 931.01,-135.95 934.89,-141.78"/>
</a>
</g>
</g>
<!-- Node12 -->
<g id="Node000012" class="node">
<title>Node12</title>
<g id="a_Node000012"><a xlink:title=" ">
<polygon fill="#e0e0e0" stroke="#999999" points="1056,-132 999.5,-132 999.5,-112 1056,-112 1056,-132"/>
<text xml:space="preserve" text-anchor="middle" x="1027.75" y="-118.5" font-family="Helvetica,sans-Serif" font-size="10.00">pthread.h</text>
</a>
</g>
</g>
<!-- Node2&#45;&gt;Node12 -->
<g id="edge11_Node000002_Node000012" class="edge">
<title>Node2&#45;&gt;Node12</title>
<g id="a_edge11_Node000002_Node000012"><a xlink:title=" ">
<path fill="none" stroke="#63b8ff" d="M902.23,-167.59C926.6,-158.94 963,-146 990.34,-136.29"/>
<polygon fill="#63b8ff" stroke="#63b8ff" points="991.39,-139.63 999.64,-132.99 989.05,-133.04 991.39,-139.63"/>
</a>
</g>
</g>
<!-- Node13 -->
<g id="Node000013" class="node">
<title>Node13</title>
<g id="a_Node000013"><a xlink:title=" ">
<polygon fill="#e0e0e0" stroke="#999999" points="1135.62,-132 1073.88,-132 1073.88,-112 1135.62,-112 1135.62,-132"/>
<text xml:space="preserve" text-anchor="middle" x="1104.75" y="-118.5" font-family="Helvetica,sans-Serif" font-size="10.00">sys/time.h</text>
</a>
</g>
</g>
<!-- Node2&#45;&gt;Node13 -->
<g id="edge12_Node000002_Node000013" class="edge">
<title>Node2&#45;&gt;Node13</title>
<g id="a_edge12_Node000002_Node000013"><a xlink:title=" ">
<path fill="none" stroke="#63b8ff" d="M905.22,-170.05C945.2,-160.62 1016.86,-143.72 1062.54,-132.95"/>
<polygon fill="#63b8ff" stroke="#63b8ff" points="1063.16,-136.4 1072.09,-130.7 1061.55,-129.59 1063.16,-136.4"/>
</a>
</g>
</g>
<!-- Node14 -->
<g id="Node000014" class="node">
<title>Node14</title>
<g id="a_Node000014"><a xlink:title=" ">
<polygon fill="#e0e0e0" stroke="#999999" points="1204,-132 1153.5,-132 1153.5,-112 1204,-112 1204,-132"/>
<text xml:space="preserve" text-anchor="middle" x="1178.75" y="-118.5" font-family="Helvetica,sans-Serif" font-size="10.00">unistd.h</text>
</a>
</g>
</g>
<!-- Node2&#45;&gt;Node14 -->
<g id="edge13_Node000002_Node000014" class="edge">
<title>Node2&#45;&gt;Node14</title>
<g id="a_edge13_Node000002_Node000014"><a xlink:title=" ">
<path fill="none" stroke="#63b8ff" d="M905.38,-172.96C953.17,-166.26 1050.43,-151.79 1142.05,-132.42"/>
<polygon fill="#63b8ff" stroke="#63b8ff" points="1142.67,-135.87 1151.71,-130.36 1141.2,-129.03 1142.67,-135.87"/>
</a>
</g>
</g>
<!-- Node15 -->
<g id="Node000015" class="node">
<title>Node15</title>
<g id="a_Node000015"><a xlink:title=" ">
<polygon fill="#e0e0e0" stroke="#999999" points="1267.38,-132 1222.12,-132 1222.12,-112 1267.38,-112 1267.38,-132"/>
<text xml:space="preserve" text-anchor="middle" x="1244.75" y="-118.5" font-family="Helvetica,sans-Serif" font-size="10.00">dlfcn.h</text>
</a>
</g>
</g>
<!-- Node2&#45;&gt;Node15 -->
<g id="edge14_Node000002_Node000015" class="edge">
<title>Node2&#45;&gt;Node15</title>
<g id="a_edge14_Node000002_Node000015"><a xlink:title=" ">
<path fill="none" stroke="#63b8ff" d="M905.29,-174.47C962.41,-169.28 1092.14,-156.03 1210.7,-132.15"/>
<polygon fill="#63b8ff" stroke="#63b8ff" points="1211.2,-135.62 1220.29,-130.19 1209.79,-128.76 1211.2,-135.62"/>
</a>
</g>
</g>
<!-- Node16 -->
<g id="Node000016" class="node">
<title>Node16</title>
<g id="a_Node000016"><a xlink:href="../../df/d8f/hidapi__darwin_8h.html" target="_top" xlink:title=" ">
<polygon fill="white" stroke="#666666" points="1368.5,-132 1285,-132 1285,-112 1368.5,-112 1368.5,-132"/>
<text xml:space="preserve" text-anchor="middle" x="1326.75" y="-118.5" font-family="Helvetica,sans-Serif" font-size="10.00">hidapi_darwin.h</text>
</a>
</g>
</g>
<!-- Node2&#45;&gt;Node16 -->
<g id="edge15_Node000002_Node000016" class="edge">
<title>Node2&#45;&gt;Node16</title>
<g id="a_edge15_Node000002_Node000016"><a xlink:title=" ">
<path fill="none" stroke="#63b8ff" d="M905.52,-174.34C970.48,-168.39 1130.08,-152.99 1273.59,-132.39"/>
<polygon fill="#63b8ff" stroke="#63b8ff" points="1273.88,-135.88 1283.27,-130.98 1272.87,-128.95 1273.88,-135.88"/>
</a>
</g>
</g>
<!-- Node17 -->
<g id="Node000017" class="node">
<title>Node17</title>
<g id="a_Node000017"><a xlink:title=" ">
<polygon fill="#e0e0e0" stroke="#999999" points="1264.88,-76 1216.62,-76 1216.62,-56 1264.88,-56 1264.88,-76"/>
<text xml:space="preserve" text-anchor="middle" x="1240.75" y="-62.5" font-family="Helvetica,sans-Serif" font-size="10.00">stdint.h</text>
</a>
</g>
</g>
<!-- Node16&#45;&gt;Node17 -->
<g id="edge16_Node000016_Node000017" class="edge">
<title>Node16&#45;&gt;Node17</title>
<g id="a_edge16_Node000016_Node000017"><a xlink:title=" ">
<path fill="none" stroke="#63b8ff" d="M1311.77,-111.59C1299.02,-103.59 1280.46,-91.93 1265.51,-82.54"/>
<polygon fill="#63b8ff" stroke="#63b8ff" points="1267.46,-79.64 1257.13,-77.28 1263.74,-85.57 1267.46,-79.64"/>
</a>
</g>
</g>
<!-- Node18 -->
<g id="Node000018" class="node">
<title>Node18</title>
<g id="a_Node000018"><a xlink:href="../../dc/dd0/hidapi_8h.html" target="_top" xlink:title=" ">
<polygon fill="white" stroke="#666666" points="1370.38,-76 1283.12,-76 1283.12,-56 1370.38,-56 1370.38,-76"/>
<text xml:space="preserve" text-anchor="middle" x="1326.75" y="-62.5" font-family="Helvetica,sans-Serif" font-size="10.00">../hidapi/hidapi.h</text>
</a>
</g>
</g>
<!-- Node16&#45;&gt;Node18 -->
<g id="edge17_Node000016_Node000018" class="edge">
<title>Node16&#45;&gt;Node18</title>
<g id="a_edge17_Node000016_Node000018"><a xlink:title=" ">
<path fill="none" stroke="#63b8ff" d="M1326.75,-111.59C1326.75,-105.01 1326.75,-95.96 1326.75,-87.73"/>
<polygon fill="#63b8ff" stroke="#63b8ff" points="1330.25,-87.81 1326.75,-77.81 1323.25,-87.81 1330.25,-87.81"/>
</a>
</g>
</g>
<!-- Node18&#45;&gt;Node10 -->
<g id="edge18_Node000018_Node000010" class="edge">
<title>Node18&#45;&gt;Node10</title>
<g id="a_edge18_Node000018_Node000010"><a xlink:title=" ">
<path fill="none" stroke="#63b8ff" d="M1289.82,-55.59C1250.84,-45.67 1189.79,-30.12 1151.05,-20.25"/>
<polygon fill="#63b8ff" stroke="#63b8ff" points="1152.3,-16.95 1141.74,-17.88 1150.57,-23.74 1152.3,-16.95"/>
</a>
</g>
</g>
</g>
</svg>
