<?xml version="1.0" encoding="UTF-8" standalone="no"?>
<!DOCTYPE svg PUBLIC "-//W3C//DTD SVG 1.1//EN"
 "http://www.w3.org/Graphics/SVG/1.1/DTD/svg11.dtd">
<!-- Generated by graphviz version 13.1.0 (20250701.0955)
 -->
<!-- Title: SDL_DispatchMainCallbackEvents Pages: 1 -->
<svg width="900pt" height="161pt"
 viewBox="0.00 0.00 900.00 161.00" xmlns="http://www.w3.org/2000/svg" xmlns:xlink="http://www.w3.org/1999/xlink">
<g id="graph0" class="graph" transform="scale(1 1) rotate(0) translate(4 157)">
<title>SDL_DispatchMainCallbackEvents</title>
<!-- Node1 -->
<g id="Node000001" class="node">
<title>Node1</title>
<g id="a_Node000001"><a xlink:title=" ">
<polygon fill="#999999" stroke="#666666" points="892.25,-85 753.25,-85 753.25,-53 892.25,-53 892.25,-85"/>
<text xml:space="preserve" text-anchor="start" x="761.25" y="-71.5" font-family="Helvetica,sans-Serif" font-size="10.00">SDL_DispatchMainCallback</text>
<text xml:space="preserve" text-anchor="middle" x="822.75" y="-59.5" font-family="Helvetica,sans-Serif" font-size="10.00">Events</text>
</a>
</g>
</g>
<!-- Node2 -->
<g id="Node000002" class="node">
<title>Node2</title>
<g id="a_Node000002"><a xlink:href="../../d9/d78/SDL__main__callbacks_8c.html#a02814527c162e7032c1293045fed18c6" target="_top" xlink:title=" ">
<polygon fill="white" stroke="#666666" points="519.75,-112 386.75,-112 386.75,-92 519.75,-92 519.75,-112"/>
<text xml:space="preserve" text-anchor="middle" x="453.25" y="-98.5" font-family="Helvetica,sans-Serif" font-size="10.00">SDL_IterateMainCallbacks</text>
</a>
</g>
</g>
<!-- Node1&#45;&gt;Node2 -->
<g id="edge1_Node000001_Node000002" class="edge">
<title>Node1&#45;&gt;Node2</title>
<g id="a_edge1_Node000001_Node000002"><a xlink:title=" ">
<path fill="none" stroke="#63b8ff" d="M741.82,-76.18C675.48,-82.13 582.26,-90.51 520.13,-96.08"/>
<polygon fill="#63b8ff" stroke="#63b8ff" points="741.9,-79.68 751.55,-75.3 741.28,-72.71 741.9,-79.68"/>
</a>
</g>
</g>
<!-- Node7 -->
<g id="Node000007" class="node">
<title>Node7</title>
<g id="a_Node000007"><a xlink:href="../../d9/d78/SDL__main__callbacks_8c.html#a7eca517a704a9cba7064a1b66ee8a9c9" target="_top" xlink:title=" ">
<polygon fill="white" stroke="#666666" points="717.25,-60 555.75,-60 555.75,-40 717.25,-40 717.25,-60"/>
<text xml:space="preserve" text-anchor="middle" x="636.5" y="-46.5" font-family="Helvetica,sans-Serif" font-size="10.00">SDL_MainCallbackEventWatcher</text>
</a>
</g>
</g>
<!-- Node1&#45;&gt;Node7 -->
<g id="edge7_Node000001_Node000007" class="edge">
<title>Node1&#45;&gt;Node7</title>
<g id="a_edge7_Node000001_Node000007"><a xlink:title=" ">
<path fill="none" stroke="#63b8ff" d="M741.65,-60.74C733.62,-59.91 725.48,-59.07 717.46,-58.25"/>
<polygon fill="#63b8ff" stroke="#63b8ff" points="741.07,-64.2 751.37,-61.74 741.79,-57.24 741.07,-64.2"/>
</a>
</g>
</g>
<!-- Node3 -->
<g id="Node000003" class="node">
<title>Node3</title>
<g id="a_Node000003"><a xlink:href="../../d0/d72/emscripten_2SDL__sysmain__callbacks_8c.html#ad2e127e4f44ae815197361e79da5bf88" target="_top" xlink:title=" ">
<polygon fill="white" stroke="#666666" points="334.62,-77 197.88,-77 197.88,-57 334.62,-57 334.62,-77"/>
<text xml:space="preserve" text-anchor="middle" x="266.25" y="-63.5" font-family="Helvetica,sans-Serif" font-size="10.00">EmscriptenInternalMainloop</text>
</a>
</g>
</g>
<!-- Node2&#45;&gt;Node3 -->
<g id="edge2_Node000002_Node000003" class="edge">
<title>Node2&#45;&gt;Node3</title>
<g id="a_edge2_Node000002_Node000003"><a xlink:title=" ">
<path fill="none" stroke="#63b8ff" d="M385.71,-89.41C365,-85.49 342.4,-81.22 322.54,-77.46"/>
<polygon fill="#63b8ff" stroke="#63b8ff" points="385.03,-92.84 395.51,-91.26 386.33,-85.97 385.03,-92.84"/>
</a>
</g>
</g>
<!-- Node5 -->
<g id="Node000005" class="node">
<title>Node5</title>
<g id="a_Node000005"><a xlink:href="../../dd/db5/generic_2SDL__sysmain__callbacks_8c.html#a124349564f2819800810af0832885c0b" target="_top" xlink:title=" ">
<polygon fill="white" stroke="#666666" points="337.25,-115 195.25,-115 195.25,-95 337.25,-95 337.25,-115"/>
<text xml:space="preserve" text-anchor="middle" x="266.25" y="-101.5" font-family="Helvetica,sans-Serif" font-size="10.00">GenericIterateMainCallbacks</text>
</a>
</g>
</g>
<!-- Node2&#45;&gt;Node5 -->
<g id="edge4_Node000002_Node000005" class="edge">
<title>Node2&#45;&gt;Node5</title>
<g id="a_edge4_Node000002_Node000005"><a xlink:title=" ">
<path fill="none" stroke="#63b8ff" d="M375.17,-103.25C362.68,-103.45 349.8,-103.66 337.49,-103.86"/>
<polygon fill="#63b8ff" stroke="#63b8ff" points="375.05,-106.75 384.99,-103.09 374.94,-99.75 375.05,-106.75"/>
</a>
</g>
</g>
<!-- Node6 -->
<g id="Node000006" class="node">
<title>Node6</title>
<g id="a_Node000006"><a xlink:href="../../d6/d3d/SDL__video_8c.html#a9419886780a3f2bd0f44ba528f4ebd8f" target="_top" xlink:title=" ">
<polygon fill="white" stroke="#666666" points="350.75,-153 181.75,-153 181.75,-133 350.75,-133 350.75,-153"/>
<text xml:space="preserve" text-anchor="middle" x="266.25" y="-139.5" font-family="Helvetica,sans-Serif" font-size="10.00">SDL_OnWindowLiveResizeUpdate</text>
</a>
</g>
</g>
<!-- Node2&#45;&gt;Node6 -->
<g id="edge6_Node000002_Node000006" class="edge">
<title>Node2&#45;&gt;Node6</title>
<g id="a_edge6_Node000002_Node000006"><a xlink:title=" ">
<path fill="none" stroke="#63b8ff" d="M393.99,-114.91C368.32,-120.6 338.56,-127.2 314.33,-132.57"/>
<polygon fill="#63b8ff" stroke="#63b8ff" points="394.6,-118.36 403.61,-112.78 393.09,-111.53 394.6,-118.36"/>
</a>
</g>
</g>
<!-- Node4 -->
<g id="Node000004" class="node">
<title>Node4</title>
<g id="a_Node000004"><a xlink:href="../../dd/db5/generic_2SDL__sysmain__callbacks_8c.html#aa50e1897a91f2547b5f31125020220e2" target="_top" xlink:title=" ">
<polygon fill="white" stroke="#666666" points="145.75,-58 0,-58 0,-38 145.75,-38 145.75,-58"/>
<text xml:space="preserve" text-anchor="middle" x="72.88" y="-44.5" font-family="Helvetica,sans-Serif" font-size="10.00">SDL_EnterAppMainCallbacks</text>
</a>
</g>
</g>
<!-- Node3&#45;&gt;Node4 -->
<g id="edge3_Node000003_Node000004" class="edge">
<title>Node3&#45;&gt;Node4</title>
<g id="a_edge3_Node000003_Node000004"><a xlink:title=" ">
<path fill="none" stroke="#63b8ff" d="M186.42,-59.17C173.06,-57.85 159.25,-56.48 146.07,-55.17"/>
<polygon fill="#63b8ff" stroke="#63b8ff" points="185.71,-62.62 196,-60.13 186.4,-55.65 185.71,-62.62"/>
</a>
</g>
</g>
<!-- Node5&#45;&gt;Node4 -->
<g id="edge5_Node000005_Node000004" class="edge">
<title>Node5&#45;&gt;Node4</title>
<g id="a_edge5_Node000005_Node000004"><a xlink:title=" ">
<path fill="none" stroke="#63b8ff" d="M204.11,-91.94C196.55,-90.08 188.95,-88.08 181.75,-86 153.71,-77.9 122.3,-66.57 100.64,-58.4"/>
<polygon fill="#63b8ff" stroke="#63b8ff" points="203.1,-95.3 213.64,-94.22 204.73,-88.49 203.1,-95.3"/>
</a>
</g>
</g>
<!-- Node8 -->
<g id="Node000008" class="node">
<title>Node8</title>
<g id="a_Node000008"><a xlink:href="../../d9/d78/SDL__main__callbacks_8c.html#a3d21b5bf7aa441418de48c5b2856336a" target="_top" xlink:title=" ">
<polygon fill="white" stroke="#666666" points="512.62,-20 393.88,-20 393.88,0 512.62,0 512.62,-20"/>
<text xml:space="preserve" text-anchor="middle" x="453.25" y="-6.5" font-family="Helvetica,sans-Serif" font-size="10.00">SDL_InitMainCallbacks</text>
</a>
</g>
</g>
<!-- Node7&#45;&gt;Node8 -->
<g id="edge8_Node000007_Node000008" class="edge">
<title>Node7&#45;&gt;Node8</title>
<g id="a_edge8_Node000007_Node000008"><a xlink:title=" ">
<path fill="none" stroke="#63b8ff" d="M577.42,-37.18C553,-31.79 524.95,-25.6 501.79,-20.49"/>
<polygon fill="#63b8ff" stroke="#63b8ff" points="576.35,-40.53 586.87,-39.27 577.86,-33.7 576.35,-40.53"/>
</a>
</g>
</g>
<!-- Node9 -->
<g id="Node000009" class="node">
<title>Node9</title>
<g id="a_Node000009"><a xlink:href="../../d9/d78/SDL__main__callbacks_8c.html#a2e8bd250bb597fdf72c9da9d001181e7" target="_top" xlink:title=" ">
<polygon fill="white" stroke="#666666" points="514.88,-60 391.62,-60 391.62,-40 514.88,-40 514.88,-60"/>
<text xml:space="preserve" text-anchor="middle" x="453.25" y="-46.5" font-family="Helvetica,sans-Serif" font-size="10.00">SDL_QuitMainCallbacks</text>
</a>
</g>
</g>
<!-- Node7&#45;&gt;Node9 -->
<g id="edge10_Node000007_Node000009" class="edge">
<title>Node7&#45;&gt;Node9</title>
<g id="a_edge10_Node000007_Node000009"><a xlink:title=" ">
<path fill="none" stroke="#63b8ff" d="M544.06,-50C534.33,-50 524.6,-50 515.34,-50"/>
<polygon fill="#63b8ff" stroke="#63b8ff" points="543.96,-53.5 553.96,-50 543.96,-46.5 543.96,-53.5"/>
</a>
</g>
</g>
<!-- Node8&#45;&gt;Node4 -->
<g id="edge9_Node000008_Node000004" class="edge">
<title>Node8&#45;&gt;Node4</title>
<g id="a_edge9_Node000008_Node000004"><a xlink:title=" ">
<path fill="none" stroke="#63b8ff" d="M382.23,-17.03C315,-23.78 213.91,-33.94 145.99,-40.76"/>
<polygon fill="#63b8ff" stroke="#63b8ff" points="382.44,-20.53 392.04,-16.05 381.74,-13.56 382.44,-20.53"/>
</a>
</g>
</g>
<!-- Node9&#45;&gt;Node3 -->
<g id="edge11_Node000009_Node000003" class="edge">
<title>Node9&#45;&gt;Node3</title>
<g id="a_edge11_Node000009_Node000003"><a xlink:title=" ">
<path fill="none" stroke="#63b8ff" d="M380,-56.64C365.18,-58 349.63,-59.43 334.98,-60.78"/>
<polygon fill="#63b8ff" stroke="#63b8ff" points="380.02,-60.15 389.65,-55.75 379.38,-53.18 380.02,-60.15"/>
</a>
</g>
</g>
<!-- Node9&#45;&gt;Node4 -->
<g id="edge12_Node000009_Node000004" class="edge">
<title>Node9&#45;&gt;Node4</title>
<g id="a_edge12_Node000009_Node000004"><a xlink:title=" ">
<path fill="none" stroke="#63b8ff" d="M379.92,-48.4C370.12,-48.23 360.19,-48.09 350.75,-48 281.29,-47.32 202.03,-47.4 146.17,-47.61"/>
<polygon fill="#63b8ff" stroke="#63b8ff" points="379.76,-51.9 389.82,-48.58 379.89,-44.9 379.76,-51.9"/>
</a>
</g>
</g>
</g>
</svg>
