<?xml version="1.0" encoding="UTF-8" standalone="no"?>
<!DOCTYPE svg PUBLIC "-//W3C//DTD SVG 1.1//EN"
 "http://www.w3.org/Graphics/SVG/1.1/DTD/svg11.dtd">
<!-- Generated by graphviz version 13.1.0 (20250701.0955)
 -->
<!-- Title: SDL_CloseSensor Pages: 1 -->
<svg width="2054pt" height="476pt"
 viewBox="0.00 0.00 2054.00 476.00" xmlns="http://www.w3.org/2000/svg" xmlns:xlink="http://www.w3.org/1999/xlink">
<g id="graph0" class="graph" transform="scale(1 1) rotate(0) translate(4 471.91)">
<title>SDL_CloseSensor</title>
<!-- Node1 -->
<g id="Node000001" class="node">
<title>Node1</title>
<g id="a_Node000001"><a xlink:title=" ">
<polygon fill="#999999" stroke="#666666" points="2045.5,-248.91 1948.5,-248.91 1948.5,-228.91 2045.5,-228.91 2045.5,-248.91"/>
<text xml:space="preserve" text-anchor="middle" x="1997" y="-235.41" font-family="Helvetica,sans-Serif" font-size="10.00">SDL_CloseSensor</text>
</a>
</g>
</g>
<!-- Node2 -->
<g id="Node000002" class="node">
<title>Node2</title>
<g id="a_Node000002"><a xlink:href="../../d6/df9/SDL__joystick_8c.html#ac0722362ebd0ebecebff12499774b471" target="_top" xlink:title=" ">
<polygon fill="white" stroke="#666666" points="1886.62,-248.91 1774.62,-248.91 1774.62,-228.91 1886.62,-228.91 1886.62,-248.91"/>
<text xml:space="preserve" text-anchor="middle" x="1830.62" y="-235.41" font-family="Helvetica,sans-Serif" font-size="10.00">CleanupSensorFusion</text>
</a>
</g>
</g>
<!-- Node1&#45;&gt;Node2 -->
<g id="edge1_Node000001_Node000002" class="edge">
<title>Node1&#45;&gt;Node2</title>
<g id="a_edge1_Node000001_Node000002"><a xlink:title=" ">
<path fill="none" stroke="#63b8ff" d="M1936.96,-238.91C1920.65,-238.91 1903,-238.91 1886.91,-238.91"/>
<polygon fill="#63b8ff" stroke="#63b8ff" points="1936.5,-242.41 1946.5,-238.91 1936.5,-235.41 1936.5,-242.41"/>
</a>
</g>
</g>
<!-- Node31 -->
<g id="Node000031" class="node">
<title>Node31</title>
<g id="a_Node000031"><a xlink:href="../../dc/de1/SDL__sensor_8c.html#af97faaba22b06bf9fc16804bfc2ae7df" target="_top" xlink:title=" ">
<polygon fill="white" stroke="#666666" points="1138.75,-277.91 1044,-277.91 1044,-257.91 1138.75,-257.91 1138.75,-277.91"/>
<text xml:space="preserve" text-anchor="middle" x="1091.38" y="-264.41" font-family="Helvetica,sans-Serif" font-size="10.00">SDL_QuitSensors</text>
</a>
</g>
</g>
<!-- Node1&#45;&gt;Node31 -->
<g id="edge53_Node000001_Node000031" class="edge">
<title>Node1&#45;&gt;Node31</title>
<g id="a_edge53_Node000001_Node000031"><a xlink:title=" ">
<path fill="none" stroke="#63b8ff" d="M1973.98,-255.85C1922.5,-293.72 1788.98,-381.91 1662.25,-381.91 1662.25,-381.91 1662.25,-381.91 1375.5,-381.91 1265.02,-381.91 1146.69,-306.29 1106.59,-278.23"/>
<polygon fill="#63b8ff" stroke="#63b8ff" points="1975.76,-258.89 1981.68,-250.1 1971.57,-253.29 1975.76,-258.89"/>
</a>
</g>
</g>
<!-- Node33 -->
<g id="Node000033" class="node">
<title>Node33</title>
<g id="a_Node000033"><a xlink:href="../../d0/d82/SDL__gamepad_8c.html#a7fd8823fb75488feada2853f4f4e3bbc" target="_top" xlink:title=" ">
<polygon fill="white" stroke="#666666" points="1912.5,-210.91 1748.75,-210.91 1748.75,-190.91 1912.5,-190.91 1912.5,-210.91"/>
<text xml:space="preserve" text-anchor="middle" x="1830.62" y="-197.41" font-family="Helvetica,sans-Serif" font-size="10.00">SDL_SetGamepadSensorEnabled</text>
</a>
</g>
</g>
<!-- Node1&#45;&gt;Node33 -->
<g id="edge54_Node000001_Node000033" class="edge">
<title>Node1&#45;&gt;Node33</title>
<g id="a_edge54_Node000001_Node000033"><a xlink:title=" ">
<path fill="none" stroke="#63b8ff" d="M1939.55,-225.86C1919.07,-221.13 1896.21,-215.84 1876.83,-211.36"/>
<polygon fill="#63b8ff" stroke="#63b8ff" points="1938.64,-229.25 1949.17,-228.09 1940.22,-222.43 1938.64,-229.25"/>
</a>
</g>
</g>
<!-- Node3 -->
<g id="Node000003" class="node">
<title>Node3</title>
<g id="a_Node000003"><a xlink:href="../../d6/df9/SDL__joystick_8c.html#aadf2e0eabb7fee1784bced6566d2f2ee" target="_top" xlink:title=" ">
<polygon fill="white" stroke="#666666" points="1712.75,-248.91 1609.75,-248.91 1609.75,-228.91 1712.75,-228.91 1712.75,-248.91"/>
<text xml:space="preserve" text-anchor="middle" x="1661.25" y="-235.41" font-family="Helvetica,sans-Serif" font-size="10.00">SDL_CloseJoystick</text>
</a>
</g>
</g>
<!-- Node2&#45;&gt;Node3 -->
<g id="edge2_Node000002_Node000003" class="edge">
<title>Node2&#45;&gt;Node3</title>
<g id="a_edge2_Node000002_Node000003"><a xlink:title=" ">
<path fill="none" stroke="#63b8ff" d="M1763.05,-238.91C1746.46,-238.91 1728.92,-238.91 1713.22,-238.91"/>
<polygon fill="#63b8ff" stroke="#63b8ff" points="1762.84,-242.41 1772.84,-238.91 1762.84,-235.41 1762.84,-242.41"/>
</a>
</g>
</g>
<!-- Node4 -->
<g id="Node000004" class="node">
<title>Node4</title>
<g id="a_Node000004"><a xlink:href="../../d0/d82/SDL__gamepad_8c.html#aba8e3cc0575aa23129847fd8418fc191" target="_top" xlink:title=" ">
<polygon fill="white" stroke="#666666" points="1573.75,-229.91 1465.5,-229.91 1465.5,-209.91 1573.75,-209.91 1573.75,-229.91"/>
<text xml:space="preserve" text-anchor="middle" x="1519.62" y="-216.41" font-family="Helvetica,sans-Serif" font-size="10.00">SDL_CloseGamepad</text>
</a>
</g>
</g>
<!-- Node3&#45;&gt;Node4 -->
<g id="edge3_Node000003_Node000004" class="edge">
<title>Node3&#45;&gt;Node4</title>
<g id="a_edge3_Node000003_Node000004"><a xlink:title=" ">
<path fill="none" stroke="#63b8ff" d="M1598.17,-230.47C1590.1,-229.37 1581.89,-228.25 1573.97,-227.17"/>
<polygon fill="#63b8ff" stroke="#63b8ff" points="1597.57,-233.92 1607.95,-231.8 1598.51,-226.98 1597.57,-233.92"/>
</a>
</g>
</g>
<!-- Node8 -->
<g id="Node000008" class="node">
<title>Node8</title>
<g id="a_Node000008"><a xlink:href="../../d6/df9/SDL__joystick_8c.html#a0c867d96ec6bc9c3aca87c8ee6b53ade" target="_top" xlink:title=" ">
<polygon fill="white" stroke="#666666" points="315.12,-68.91 214.38,-68.91 214.38,-48.91 315.12,-48.91 315.12,-68.91"/>
<text xml:space="preserve" text-anchor="middle" x="264.75" y="-55.41" font-family="Helvetica,sans-Serif" font-size="10.00">SDL_OpenJoystick</text>
</a>
</g>
</g>
<!-- Node3&#45;&gt;Node8 -->
<g id="edge51_Node000003_Node000008" class="edge">
<title>Node3&#45;&gt;Node8</title>
<g id="a_edge51_Node000003_Node000008"><a xlink:title=" ">
<path fill="none" stroke="#63b8ff" d="M1649.16,-218.68C1616.07,-161.34 1511.99,-1.91 1377.5,-1.91 1377.5,-1.91 1377.5,-1.91 650.88,-1.91 524.54,-1.91 490.74,5.74 367.25,-20.91 338.93,-27.03 307.95,-39.54 287.76,-48.53"/>
<polygon fill="#63b8ff" stroke="#63b8ff" points="1645.95,-220.12 1653.91,-227.11 1652.04,-216.68 1645.95,-220.12"/>
</a>
</g>
</g>
<!-- Node9 -->
<g id="Node000009" class="node">
<title>Node9</title>
<g id="a_Node000009"><a xlink:href="../../d0/d82/SDL__gamepad_8c.html#a011496690758b66ec0f7098f030b6d85" target="_top" xlink:title=" ">
<polygon fill="white" stroke="#666666" points="134.12,-258.91 28.12,-258.91 28.12,-238.91 134.12,-238.91 134.12,-258.91"/>
<text xml:space="preserve" text-anchor="middle" x="81.12" y="-245.41" font-family="Helvetica,sans-Serif" font-size="10.00">SDL_OpenGamepad</text>
</a>
</g>
</g>
<!-- Node3&#45;&gt;Node9 -->
<g id="edge50_Node000003_Node000009" class="edge">
<title>Node3&#45;&gt;Node9</title>
<g id="a_edge50_Node000003_Node000009"><a xlink:title=" ">
<path fill="none" stroke="#63b8ff" d="M1632.41,-254.6C1551.65,-298.59 1309.25,-419.91 1092.38,-419.91 1092.38,-419.91 1092.38,-419.91 451.12,-419.91 297.55,-419.91 138.58,-296.48 94.23,-259.35"/>
<polygon fill="#63b8ff" stroke="#63b8ff" points="1633.89,-257.78 1640.97,-249.89 1630.52,-251.65 1633.89,-257.78"/>
</a>
</g>
</g>
<!-- Node30 -->
<g id="Node000030" class="node">
<title>Node30</title>
<g id="a_Node000030"><a xlink:href="../../d6/df9/SDL__joystick_8c.html#aa98a95583054633f27bb3bcdff5f97aa" target="_top" xlink:title=" ">
<polygon fill="white" stroke="#666666" points="1141.75,-239.91 1041,-239.91 1041,-219.91 1141.75,-219.91 1141.75,-239.91"/>
<text xml:space="preserve" text-anchor="middle" x="1091.38" y="-226.41" font-family="Helvetica,sans-Serif" font-size="10.00">SDL_QuitJoysticks</text>
</a>
</g>
</g>
<!-- Node3&#45;&gt;Node30 -->
<g id="edge52_Node000003_Node000030" class="edge">
<title>Node3&#45;&gt;Node30</title>
<g id="a_edge52_Node000003_Node000030"><a xlink:title=" ">
<path fill="none" stroke="#63b8ff" d="M1598.19,-239.64C1530.62,-240.25 1419.37,-240.78 1323.5,-238.91 1260.87,-237.69 1188.74,-234.62 1141.95,-232.4"/>
<polygon fill="#63b8ff" stroke="#63b8ff" points="1597.99,-243.14 1607.96,-239.54 1597.92,-236.14 1597.99,-243.14"/>
</a>
</g>
</g>
<!-- Node5 -->
<g id="Node000005" class="node">
<title>Node5</title>
<g id="a_Node000005"><a xlink:href="../../d0/d82/SDL__gamepad_8c.html#ad49c2e97ac6f1deaafd9aec54dff1659" target="_top" xlink:title=" ">
<polygon fill="white" stroke="#666666" points="1429.5,-229.91 1323.5,-229.91 1323.5,-209.91 1429.5,-209.91 1429.5,-229.91"/>
<text xml:space="preserve" text-anchor="middle" x="1376.5" y="-216.41" font-family="Helvetica,sans-Serif" font-size="10.00">SDL_QuitGamepads</text>
</a>
</g>
</g>
<!-- Node4&#45;&gt;Node5 -->
<g id="edge4_Node000004_Node000005" class="edge">
<title>Node4&#45;&gt;Node5</title>
<g id="a_edge4_Node000004_Node000005"><a xlink:title=" ">
<path fill="none" stroke="#63b8ff" d="M1454.01,-219.91C1445.97,-219.91 1437.82,-219.91 1429.99,-219.91"/>
<polygon fill="#63b8ff" stroke="#63b8ff" points="1453.76,-223.41 1463.76,-219.91 1453.76,-216.41 1453.76,-223.41"/>
</a>
</g>
</g>
<!-- Node6 -->
<g id="Node000006" class="node">
<title>Node6</title>
<g id="a_Node000006"><a xlink:href="../../df/d78/SDL_8c.html#a60aa8a910b5236e9eded873051707374" target="_top" xlink:title=" ">
<polygon fill="white" stroke="#666666" points="1287.5,-201.91 1177.75,-201.91 1177.75,-181.91 1287.5,-181.91 1287.5,-201.91"/>
<text xml:space="preserve" text-anchor="middle" x="1232.62" y="-188.41" font-family="Helvetica,sans-Serif" font-size="10.00">SDL_QuitSubSystem</text>
</a>
</g>
</g>
<!-- Node5&#45;&gt;Node6 -->
<g id="edge5_Node000005_Node000006" class="edge">
<title>Node5&#45;&gt;Node6</title>
<g id="a_edge5_Node000005_Node000006"><a xlink:title=" ">
<path fill="none" stroke="#63b8ff" d="M1311.8,-207.34C1303.44,-205.69 1294.94,-204.01 1286.78,-202.4"/>
<polygon fill="#63b8ff" stroke="#63b8ff" points="1311.1,-210.77 1321.59,-209.27 1312.46,-203.9 1311.1,-210.77"/>
</a>
</g>
</g>
<!-- Node6&#45;&gt;Node2 -->
<g id="edge9_Node000006_Node000002" class="edge">
<title>Node6&#45;&gt;Node2</title>
<g id="a_edge9_Node000006_Node000002"><a xlink:title=" ">
<path fill="none" stroke="#63b8ff" d="M1299.39,-191.53C1367.98,-191.62 1478.58,-193.17 1573.75,-200.91 1635.9,-205.97 1651.08,-210.69 1712.75,-219.91 1732.88,-222.92 1754.92,-226.45 1774.38,-229.64"/>
<polygon fill="#63b8ff" stroke="#63b8ff" points="1299.43,-188.03 1289.43,-191.52 1299.43,-195.03 1299.43,-188.03"/>
</a>
</g>
</g>
<!-- Node6&#45;&gt;Node6 -->
<g id="edge45_Node000006_Node000006" class="edge">
<title>Node6&#45;&gt;Node6</title>
<g id="a_edge45_Node000006_Node000006"><a xlink:title=" ">
<path fill="none" stroke="#63b8ff" d="M1257.59,-213.36C1254.37,-217.21 1246.05,-219.91 1232.62,-219.91 1208.07,-219.91 1200.59,-210.89 1210.18,-202.25"/>
<polygon fill="#63b8ff" stroke="#63b8ff" points="1261.03,-212.7 1255.4,-203.73 1254.21,-214.25 1261.03,-212.7"/>
</a>
</g>
</g>
<!-- Node7 -->
<g id="Node000007" class="node">
<title>Node7</title>
<g id="a_Node000007"><a xlink:href="../../d6/df9/SDL__joystick_8c.html#a7d2531dc4fbc8de52a29ac3ec171a495" target="_top" xlink:title=" ">
<polygon fill="white" stroke="#666666" points="707.12,-87.91 596.62,-87.91 596.62,-67.91 707.12,-67.91 707.12,-87.91"/>
<text xml:space="preserve" text-anchor="middle" x="651.88" y="-74.41" font-family="Helvetica,sans-Serif" font-size="10.00">AttemptSensorFusion</text>
</a>
</g>
</g>
<!-- Node6&#45;&gt;Node7 -->
<g id="edge6_Node000006_Node000007" class="edge">
<title>Node6&#45;&gt;Node7</title>
<g id="a_edge6_Node000006_Node000007"><a xlink:title=" ">
<path fill="none" stroke="#63b8ff" d="M1215.33,-173.09C1198.78,-155.41 1171.42,-129.94 1141.75,-117.91 993.78,-57.91 800.31,-64.35 707.37,-72.08"/>
<polygon fill="#63b8ff" stroke="#63b8ff" points="1212.63,-175.32 1221.94,-180.39 1217.82,-170.63 1212.63,-175.32"/>
</a>
</g>
</g>
<!-- Node10 -->
<g id="Node000010" class="node">
<title>Node10</title>
<g id="a_Node000010"><a xlink:href="../../d6/df9/SDL__joystick_8c.html#a94fd638a34a769ff6a7a01738257215c" target="_top" xlink:title=" ">
<polygon fill="white" stroke="#666666" points="683.5,-49.91 620.25,-49.91 620.25,-29.91 683.5,-29.91 683.5,-49.91"/>
<text xml:space="preserve" text-anchor="middle" x="651.88" y="-36.41" font-family="Helvetica,sans-Serif" font-size="10.00">IsROGAlly</text>
</a>
</g>
</g>
<!-- Node6&#45;&gt;Node10 -->
<g id="edge10_Node000006_Node000010" class="edge">
<title>Node6&#45;&gt;Node10</title>
<g id="a_edge10_Node000006_Node000010"><a xlink:title=" ">
<path fill="none" stroke="#63b8ff" d="M1221.19,-171.71C1206.97,-146.44 1178.93,-104.06 1141.75,-83.91 987.41,-0.27 764.9,-22.75 683.87,-34.72"/>
<polygon fill="#63b8ff" stroke="#63b8ff" points="1218.03,-173.22 1225.87,-180.34 1224.19,-169.88 1218.03,-173.22"/>
</a>
</g>
</g>
<!-- Node12 -->
<g id="Node000012" class="node">
<title>Node12</title>
<g id="a_Node000012"><a xlink:href="../../df/d78/SDL_8c.html#aa33d2b8c0a69b16651f78c26f391b6ef" target="_top" xlink:title=" ">
<polygon fill="white" stroke="#666666" points="881,-163.91 775.75,-163.91 775.75,-143.91 881,-143.91 881,-163.91"/>
<text xml:space="preserve" text-anchor="middle" x="828.38" y="-150.41" font-family="Helvetica,sans-Serif" font-size="10.00">SDL_InitSubSystem</text>
</a>
</g>
</g>
<!-- Node6&#45;&gt;Node12 -->
<g id="edge13_Node000006_Node000012" class="edge">
<title>Node6&#45;&gt;Node12</title>
<g id="a_edge13_Node000006_Node000012"><a xlink:title=" ">
<path fill="none" stroke="#63b8ff" d="M1211.62,-174.48C1194.42,-160.72 1168.25,-142.61 1141.75,-134.91 1046.01,-107.11 927.02,-128.93 867.31,-143.52"/>
<polygon fill="#63b8ff" stroke="#63b8ff" points="1209.1,-176.94 1219.04,-180.62 1213.57,-171.55 1209.1,-176.94"/>
</a>
</g>
</g>
<!-- Node23 -->
<g id="Node000023" class="node">
<title>Node23</title>
<g id="a_Node000023"><a xlink:href="../../d6/d3d/SDL__video_8c.html#ac61dc66ab71d039f9b681916d0fcbc6e" target="_top" xlink:title=" ">
<polygon fill="white" stroke="#666666" points="1005,-163.91 926,-163.91 926,-143.91 1005,-143.91 1005,-163.91"/>
<text xml:space="preserve" text-anchor="middle" x="965.5" y="-150.41" font-family="Helvetica,sans-Serif" font-size="10.00">SDL_VideoInit</text>
</a>
</g>
</g>
<!-- Node6&#45;&gt;Node23 -->
<g id="edge46_Node000006_Node000023" class="edge">
<title>Node6&#45;&gt;Node23</title>
<g id="a_edge46_Node000006_Node000023"><a xlink:title=" ">
<path fill="none" stroke="#63b8ff" d="M1166.38,-187.85C1129.41,-184.94 1082.41,-180.21 1041,-172.91 1028.51,-170.71 1015.03,-167.53 1003.02,-164.39"/>
<polygon fill="#63b8ff" stroke="#63b8ff" points="1165.76,-191.31 1176,-188.58 1166.29,-184.33 1165.76,-191.31"/>
</a>
</g>
</g>
<!-- Node24 -->
<g id="Node000024" class="node">
<title>Node24</title>
<g id="a_Node000024"><a xlink:href="../../df/d78/SDL_8c.html#abf064fcc4a657a30db8eace18633f362" target="_top" xlink:title=" ">
<polygon fill="white" stroke="#666666" points="994.88,-334.91 936.12,-334.91 936.12,-314.91 994.88,-314.91 994.88,-334.91"/>
<text xml:space="preserve" text-anchor="middle" x="965.5" y="-321.41" font-family="Helvetica,sans-Serif" font-size="10.00">SDL_Quit</text>
</a>
</g>
</g>
<!-- Node6&#45;&gt;Node24 -->
<g id="edge31_Node000006_Node000024" class="edge">
<title>Node6&#45;&gt;Node24</title>
<g id="a_edge31_Node000006_Node000024"><a xlink:title=" ">
<path fill="none" stroke="#63b8ff" d="M1218.7,-211.44C1203.12,-233.34 1174.87,-268.24 1141.75,-286.91 1094.97,-313.29 1031.66,-321.37 995.34,-323.84"/>
<polygon fill="#63b8ff" stroke="#63b8ff" points="1221.47,-213.59 1224.26,-203.37 1215.7,-209.62 1221.47,-213.59"/>
</a>
</g>
</g>
<!-- Node6&#45;&gt;Node30 -->
<g id="edge39_Node000006_Node000030" class="edge">
<title>Node6&#45;&gt;Node30</title>
<g id="a_edge39_Node000006_Node000030"><a xlink:title=" ">
<path fill="none" stroke="#63b8ff" d="M1166.32,-203C1146.81,-208.22 1126.85,-214.27 1112.59,-219.47"/>
<polygon fill="#63b8ff" stroke="#63b8ff" points="1167.13,-206.4 1175.92,-200.49 1165.36,-199.63 1167.13,-206.4"/>
</a>
</g>
</g>
<!-- Node6&#45;&gt;Node31 -->
<g id="edge42_Node000006_Node000031" class="edge">
<title>Node6&#45;&gt;Node31</title>
<g id="a_edge42_Node000006_Node000031"><a xlink:title=" ">
<path fill="none" stroke="#63b8ff" d="M1196.83,-208.05C1180.54,-218.04 1160.61,-230.42 1141.75,-239.91 1128.95,-246.35 1113.42,-252 1103.23,-257.47"/>
<polygon fill="#63b8ff" stroke="#63b8ff" points="1198.45,-211.16 1205.17,-202.97 1194.81,-205.19 1198.45,-211.16"/>
</a>
</g>
</g>
<!-- Node32 -->
<g id="Node000032" class="node">
<title>Node32</title>
<g id="a_Node000032"><a xlink:href="../../d6/d3d/SDL__video_8c.html#ae86d31ef3c6aad24cd4d0da9a9551906" target="_top" xlink:title=" ">
<polygon fill="white" stroke="#666666" points="1133.12,-163.91 1049.62,-163.91 1049.62,-143.91 1133.12,-143.91 1133.12,-163.91"/>
<text xml:space="preserve" text-anchor="middle" x="1091.38" y="-150.41" font-family="Helvetica,sans-Serif" font-size="10.00">SDL_VideoQuit</text>
</a>
</g>
</g>
<!-- Node6&#45;&gt;Node32 -->
<g id="edge47_Node000006_Node000032" class="edge">
<title>Node6&#45;&gt;Node32</title>
<g id="a_edge47_Node000006_Node000032"><a xlink:title=" ">
<path fill="none" stroke="#63b8ff" d="M1200.77,-177.78C1180.93,-171.18 1154.92,-163.91 1133.35,-158.88"/>
<polygon fill="#63b8ff" stroke="#63b8ff" points="1199.35,-180.99 1209.95,-180.96 1201.65,-174.38 1199.35,-180.99"/>
</a>
</g>
</g>
<!-- Node7&#45;&gt;Node8 -->
<g id="edge7_Node000007_Node000008" class="edge">
<title>Node7&#45;&gt;Node8</title>
<g id="a_edge7_Node000007_Node000008"><a xlink:title=" ">
<path fill="none" stroke="#63b8ff" d="M585.14,-74.67C508.75,-70.9 384.39,-64.77 315.56,-61.37"/>
<polygon fill="#63b8ff" stroke="#63b8ff" points="584.84,-78.16 595,-75.16 585.19,-71.17 584.84,-78.16"/>
</a>
</g>
</g>
<!-- Node8&#45;&gt;Node9 -->
<g id="edge8_Node000008_Node000009" class="edge">
<title>Node8&#45;&gt;Node9</title>
<g id="a_edge8_Node000008_Node000009"><a xlink:title=" ">
<path fill="none" stroke="#63b8ff" d="M246.07,-77.41C208.37,-116.84 121.16,-208.08 91.9,-238.69"/>
<polygon fill="#63b8ff" stroke="#63b8ff" points="248.3,-80.14 252.68,-70.49 243.24,-75.3 248.3,-80.14"/>
</a>
</g>
</g>
<!-- Node11 -->
<g id="Node000011" class="node">
<title>Node11</title>
<g id="a_Node000011"><a xlink:href="../../d6/df9/SDL__joystick_8c.html#a497945f75b33dbfcde319992145025c5" target="_top" xlink:title=" ">
<polygon fill="white" stroke="#666666" points="522.38,-49.91 381.88,-49.91 381.88,-29.91 522.38,-29.91 522.38,-49.91"/>
<text xml:space="preserve" text-anchor="middle" x="452.12" y="-36.41" font-family="Helvetica,sans-Serif" font-size="10.00">ShouldAttemptSensorFusion</text>
</a>
</g>
</g>
<!-- Node10&#45;&gt;Node11 -->
<g id="edge11_Node000010_Node000011" class="edge">
<title>Node10&#45;&gt;Node11</title>
<g id="a_edge11_Node000010_Node000011"><a xlink:title=" ">
<path fill="none" stroke="#63b8ff" d="M608.69,-39.91C583.69,-39.91 551.39,-39.91 522.71,-39.91"/>
<polygon fill="#63b8ff" stroke="#63b8ff" points="608.46,-43.41 618.46,-39.91 608.46,-36.41 608.46,-43.41"/>
</a>
</g>
</g>
<!-- Node11&#45;&gt;Node8 -->
<g id="edge12_Node000011_Node000008" class="edge">
<title>Node11&#45;&gt;Node8</title>
<g id="a_edge12_Node000011_Node000008"><a xlink:title=" ">
<path fill="none" stroke="#63b8ff" d="M370.36,-48.19C351.68,-50.11 332.33,-52.09 315.44,-53.82"/>
<polygon fill="#63b8ff" stroke="#63b8ff" points="370.47,-51.7 380.07,-47.2 369.76,-44.73 370.47,-51.7"/>
</a>
</g>
</g>
<!-- Node12&#45;&gt;Node7 -->
<g id="edge14_Node000012_Node000007" class="edge">
<title>Node12&#45;&gt;Node7</title>
<g id="a_edge14_Node000012_Node000007"><a xlink:title=" ">
<path fill="none" stroke="#63b8ff" d="M803.7,-137.26C784.74,-124.61 757.06,-107.61 730.75,-96.91 722.63,-93.61 713.79,-90.78 705.07,-88.4"/>
<polygon fill="#63b8ff" stroke="#63b8ff" points="801.53,-140.02 811.76,-142.75 805.47,-134.23 801.53,-140.02"/>
</a>
</g>
</g>
<!-- Node12&#45;&gt;Node10 -->
<g id="edge15_Node000012_Node000010" class="edge">
<title>Node12&#45;&gt;Node10</title>
<g id="a_edge15_Node000012_Node000010"><a xlink:title=" ">
<path fill="none" stroke="#63b8ff" d="M813.02,-134.52C795.87,-112.78 765.15,-78.07 730.75,-58.91 716.4,-50.92 698.74,-46.26 683.86,-43.56"/>
<polygon fill="#63b8ff" stroke="#63b8ff" points="810.12,-136.5 818.99,-142.3 815.67,-132.23 810.12,-136.5"/>
</a>
</g>
</g>
<!-- Node13 -->
<g id="Node000013" class="node">
<title>Node13</title>
<g id="a_Node000013"><a xlink:href="../../df/d78/SDL_8c.html#ac25d0ce460db43ca8c7681eb8e7c5007" target="_top" xlink:title=" ">
<polygon fill="white" stroke="#666666" points="679,-163.91 624.75,-163.91 624.75,-143.91 679,-143.91 679,-163.91"/>
<text xml:space="preserve" text-anchor="middle" x="651.88" y="-150.41" font-family="Helvetica,sans-Serif" font-size="10.00">SDL_Init</text>
</a>
</g>
</g>
<!-- Node12&#45;&gt;Node13 -->
<g id="edge16_Node000012_Node000013" class="edge">
<title>Node12&#45;&gt;Node13</title>
<g id="a_edge16_Node000012_Node000013"><a xlink:title=" ">
<path fill="none" stroke="#63b8ff" d="M764.06,-153.91C734.73,-153.91 701.5,-153.91 679.07,-153.91"/>
<polygon fill="#63b8ff" stroke="#63b8ff" points="763.98,-157.41 773.98,-153.91 763.98,-150.41 763.98,-157.41"/>
</a>
</g>
</g>
<!-- Node18 -->
<g id="Node000018" class="node">
<title>Node18</title>
<g id="a_Node000018"><a xlink:href="../../d6/df9/SDL__joystick_8c.html#a9340afa4acb6b0fad4affbb99d4fa014" target="_top" xlink:title=" ">
<polygon fill="white" stroke="#666666" points="700,-239.91 603.75,-239.91 603.75,-219.91 700,-219.91 700,-239.91"/>
<text xml:space="preserve" text-anchor="middle" x="651.88" y="-226.41" font-family="Helvetica,sans-Serif" font-size="10.00">SDL_InitJoysticks</text>
</a>
</g>
</g>
<!-- Node12&#45;&gt;Node18 -->
<g id="edge21_Node000012_Node000018" class="edge">
<title>Node12&#45;&gt;Node18</title>
<g id="a_edge21_Node000012_Node000018"><a xlink:title=" ">
<path fill="none" stroke="#63b8ff" d="M791.91,-170.12C774.18,-180.5 752.02,-193.27 730.75,-201.91 711.67,-209.67 688.62,-214.81 672.57,-219.5"/>
<polygon fill="#63b8ff" stroke="#63b8ff" points="793.63,-173.17 800.49,-165.09 790.09,-167.13 793.63,-173.17"/>
</a>
</g>
</g>
<!-- Node19 -->
<g id="Node000019" class="node">
<title>Node19</title>
<g id="a_Node000019"><a xlink:href="../../d9/d78/SDL__main__callbacks_8c.html#a3d21b5bf7aa441418de48c5b2856336a" target="_top" xlink:title=" ">
<polygon fill="white" stroke="#666666" points="711.25,-201.91 592.5,-201.91 592.5,-181.91 711.25,-181.91 711.25,-201.91"/>
<text xml:space="preserve" text-anchor="middle" x="651.88" y="-188.41" font-family="Helvetica,sans-Serif" font-size="10.00">SDL_InitMainCallbacks</text>
</a>
</g>
</g>
<!-- Node12&#45;&gt;Node19 -->
<g id="edge23_Node000012_Node000019" class="edge">
<title>Node12&#45;&gt;Node19</title>
<g id="a_edge23_Node000012_Node000019"><a xlink:title=" ">
<path fill="none" stroke="#63b8ff" d="M768.05,-166.83C746.15,-171.6 721.63,-176.94 700.86,-181.46"/>
<polygon fill="#63b8ff" stroke="#63b8ff" points="768.73,-170.27 777.75,-164.72 767.24,-163.43 768.73,-170.27"/>
</a>
</g>
</g>
<!-- Node21 -->
<g id="Node000021" class="node">
<title>Node21</title>
<g id="a_Node000021"><a xlink:href="../../df/d78/SDL_8c.html#a8f0bf712ad7ba759f5b6e04e683c67d4" target="_top" xlink:title=" ">
<polygon fill="white" stroke="#666666" points="730.75,-125.91 573,-125.91 573,-105.91 730.75,-105.91 730.75,-125.91"/>
<text xml:space="preserve" text-anchor="middle" x="651.88" y="-112.41" font-family="Helvetica,sans-Serif" font-size="10.00">SDL_InitOrIncrementSubsystem</text>
</a>
</g>
</g>
<!-- Node12&#45;&gt;Node21 -->
<g id="edge25_Node000012_Node000021" class="edge">
<title>Node12&#45;&gt;Node21</title>
<g id="a_edge25_Node000012_Node000021"><a xlink:title=" ">
<path fill="none" stroke="#63b8ff" d="M791.21,-140.44C773.78,-135.75 752.16,-130.67 731.23,-126.26"/>
<polygon fill="#63b8ff" stroke="#63b8ff" points="789.97,-143.73 800.54,-143.05 791.85,-136.99 789.97,-143.73"/>
</a>
</g>
</g>
<!-- Node22 -->
<g id="Node000022" class="node">
<title>Node22</title>
<g id="a_Node000022"><a xlink:href="../../dc/de1/SDL__sensor_8c.html#abdb7d6b73a301a2c8558ba80edb32331" target="_top" xlink:title=" ">
<polygon fill="white" stroke="#666666" points="697,-277.91 606.75,-277.91 606.75,-257.91 697,-257.91 697,-277.91"/>
<text xml:space="preserve" text-anchor="middle" x="651.88" y="-264.41" font-family="Helvetica,sans-Serif" font-size="10.00">SDL_InitSensors</text>
</a>
</g>
</g>
<!-- Node12&#45;&gt;Node22 -->
<g id="edge27_Node000012_Node000022" class="edge">
<title>Node12&#45;&gt;Node22</title>
<g id="a_edge27_Node000012_Node000022"><a xlink:title=" ">
<path fill="none" stroke="#63b8ff" d="M807.63,-172.84C789.85,-192.65 761.8,-222.62 730.75,-239.91 714.58,-248.92 694.19,-253.69 678.33,-257.47"/>
<polygon fill="#63b8ff" stroke="#63b8ff" points="810.22,-175.2 814.27,-165.41 805,-170.54 810.22,-175.2"/>
</a>
</g>
</g>
<!-- Node12&#45;&gt;Node23 -->
<g id="edge29_Node000012_Node000023" class="edge">
<title>Node12&#45;&gt;Node23</title>
<g id="a_edge29_Node000012_Node000023"><a xlink:title=" ">
<path fill="none" stroke="#63b8ff" d="M892.46,-160.65C903.83,-160.72 915.37,-160.53 925.78,-160.08"/>
<polygon fill="#63b8ff" stroke="#63b8ff" points="892.76,-157.15 882.72,-160.52 892.67,-164.15 892.76,-157.15"/>
</a>
</g>
</g>
<!-- Node14 -->
<g id="Node000014" class="node">
<title>Node14</title>
<g id="a_Node000014"><a xlink:href="../../d6/d3d/SDL__video_8c.html#a9f3d88531134e2c3e575a3c2db7f8488" target="_top" xlink:title=" ">
<polygon fill="white" stroke="#666666" points="537,-220.91 367.25,-220.91 367.25,-200.91 537,-200.91 537,-220.91"/>
<text xml:space="preserve" text-anchor="middle" x="452.12" y="-207.41" font-family="Helvetica,sans-Serif" font-size="10.00">SDL_CreateWindowWithProperties</text>
</a>
</g>
</g>
<!-- Node13&#45;&gt;Node14 -->
<g id="edge17_Node000013_Node000014" class="edge">
<title>Node13&#45;&gt;Node14</title>
<g id="a_edge17_Node000013_Node000014"><a xlink:title=" ">
<path fill="none" stroke="#63b8ff" d="M613.6,-162.47C600.69,-165.57 586.16,-169.23 573,-172.91 542.52,-181.45 508.11,-192.51 484,-200.49"/>
<polygon fill="#63b8ff" stroke="#63b8ff" points="614.05,-165.96 622.97,-160.24 612.44,-159.14 614.05,-165.96"/>
</a>
</g>
</g>
<!-- Node15 -->
<g id="Node000015" class="node">
<title>Node15</title>
<g id="a_Node000015"><a xlink:href="../../d6/d3d/SDL__video_8c.html#acc26de39ce1bd675446e4d6c05ebf4b0" target="_top" xlink:title=" ">
<polygon fill="white" stroke="#666666" points="331.25,-220.91 198.25,-220.91 198.25,-200.91 331.25,-200.91 331.25,-220.91"/>
<text xml:space="preserve" text-anchor="middle" x="264.75" y="-207.41" font-family="Helvetica,sans-Serif" font-size="10.00">SDL_CreatePopupWindow</text>
</a>
</g>
</g>
<!-- Node14&#45;&gt;Node15 -->
<g id="edge18_Node000014_Node000015" class="edge">
<title>Node14&#45;&gt;Node15</title>
<g id="a_edge18_Node000014_Node000015"><a xlink:title=" ">
<path fill="none" stroke="#63b8ff" d="M355.42,-210.91C347.33,-210.91 339.27,-210.91 331.5,-210.91"/>
<polygon fill="#63b8ff" stroke="#63b8ff" points="355.33,-214.41 365.33,-210.91 355.33,-207.41 355.33,-214.41"/>
</a>
</g>
</g>
<!-- Node16 -->
<g id="Node000016" class="node">
<title>Node16</title>
<g id="a_Node000016"><a xlink:href="../../d6/d3d/SDL__video_8c.html#a83103c86f9e5c33ab9e1fb6dfa904b7f" target="_top" xlink:title=" ">
<polygon fill="white" stroke="#666666" points="317.38,-467.91 212.12,-467.91 212.12,-447.91 317.38,-447.91 317.38,-467.91"/>
<text xml:space="preserve" text-anchor="middle" x="264.75" y="-454.41" font-family="Helvetica,sans-Serif" font-size="10.00">SDL_CreateWindow</text>
</a>
</g>
</g>
<!-- Node14&#45;&gt;Node16 -->
<g id="edge19_Node000014_Node000016" class="edge">
<title>Node14&#45;&gt;Node16</title>
<g id="a_edge19_Node000014_Node000016"><a xlink:title=" ">
<path fill="none" stroke="#63b8ff" d="M428.51,-228.26C410.58,-242.71 385.57,-264.5 367.25,-286.91 322.03,-342.25 283.58,-419.9 270.51,-447.6"/>
<polygon fill="#63b8ff" stroke="#63b8ff" points="430.32,-231.29 435.99,-222.34 425.98,-225.8 430.32,-231.29"/>
</a>
</g>
</g>
<!-- Node17 -->
<g id="Node000017" class="node">
<title>Node17</title>
<g id="a_Node000017"><a xlink:href="../../dd/df3/SDL__render_8c.html#a36f859fae15e4277ba052f9ecfb2816d" target="_top" xlink:title=" ">
<polygon fill="white" stroke="#666666" points="162.25,-467.91 0,-467.91 0,-447.91 162.25,-447.91 162.25,-467.91"/>
<text xml:space="preserve" text-anchor="middle" x="81.12" y="-454.41" font-family="Helvetica,sans-Serif" font-size="10.00">SDL_CreateWindowAndRenderer</text>
</a>
</g>
</g>
<!-- Node16&#45;&gt;Node17 -->
<g id="edge20_Node000016_Node000017" class="edge">
<title>Node16&#45;&gt;Node17</title>
<g id="a_edge20_Node000016_Node000017"><a xlink:title=" ">
<path fill="none" stroke="#63b8ff" d="M200.3,-457.91C188.14,-457.91 175.26,-457.91 162.64,-457.91"/>
<polygon fill="#63b8ff" stroke="#63b8ff" points="200.19,-461.41 210.19,-457.91 200.19,-454.41 200.19,-461.41"/>
</a>
</g>
</g>
<!-- Node18&#45;&gt;Node12 -->
<g id="edge22_Node000018_Node000012" class="edge">
<title>Node18&#45;&gt;Node12</title>
<g id="a_edge22_Node000018_Node000012"><a xlink:title=" ">
<path fill="none" stroke="#63b8ff" d="M710.8,-226.74C717.62,-224.78 724.4,-222.49 730.75,-219.91 766.47,-205.39 804.74,-179.23 820.24,-163.96"/>
<polygon fill="#63b8ff" stroke="#63b8ff" points="710.37,-223.23 701.58,-229.14 712.14,-230 710.37,-223.23"/>
</a>
</g>
</g>
<!-- Node20 -->
<g id="Node000020" class="node">
<title>Node20</title>
<g id="a_Node000020"><a xlink:href="../../dd/db5/generic_2SDL__sysmain__callbacks_8c.html#aa50e1897a91f2547b5f31125020220e2" target="_top" xlink:title=" ">
<polygon fill="white" stroke="#666666" points="525,-315.91 379.25,-315.91 379.25,-295.91 525,-295.91 525,-315.91"/>
<text xml:space="preserve" text-anchor="middle" x="452.12" y="-302.41" font-family="Helvetica,sans-Serif" font-size="10.00">SDL_EnterAppMainCallbacks</text>
</a>
</g>
</g>
<!-- Node19&#45;&gt;Node20 -->
<g id="edge24_Node000019_Node000020" class="edge">
<title>Node19&#45;&gt;Node20</title>
<g id="a_edge24_Node000019_Node000020"><a xlink:title=" ">
<path fill="none" stroke="#63b8ff" d="M584.63,-205.94C580.63,-207.44 576.72,-209.09 573,-210.91 526.96,-233.42 482.2,-275.99 462.97,-295.57"/>
<polygon fill="#63b8ff" stroke="#63b8ff" points="585.58,-209.31 593.93,-202.8 583.34,-202.68 585.58,-209.31"/>
</a>
</g>
</g>
<!-- Node21&#45;&gt;Node12 -->
<g id="edge26_Node000021_Node000012" class="edge">
<title>Node21&#45;&gt;Node12</title>
<g id="a_edge26_Node000021_Node000012"><a xlink:title=" ">
<path fill="none" stroke="#63b8ff" d="M688.93,-129.35C713.93,-136.09 747.61,-143.64 775.49,-148.85"/>
<polygon fill="#63b8ff" stroke="#63b8ff" points="690.14,-126.06 679.57,-126.73 688.25,-132.8 690.14,-126.06"/>
</a>
</g>
</g>
<!-- Node22&#45;&gt;Node12 -->
<g id="edge28_Node000022_Node000012" class="edge">
<title>Node22&#45;&gt;Node12</title>
<g id="a_edge28_Node000022_Node000012"><a xlink:title=" ">
<path fill="none" stroke="#63b8ff" d="M708.29,-267.23C716.09,-264.87 723.81,-261.78 730.75,-257.91 773.5,-234.11 810.57,-186.27 822.97,-164.34"/>
<polygon fill="#63b8ff" stroke="#63b8ff" points="707.53,-263.81 698.73,-269.71 709.29,-270.58 707.53,-263.81"/>
</a>
</g>
</g>
<!-- Node23&#45;&gt;Node12 -->
<g id="edge30_Node000023_Node000012" class="edge">
<title>Node23&#45;&gt;Node12</title>
<g id="a_edge30_Node000023_Node000012"><a xlink:title=" ">
<path fill="none" stroke="#63b8ff" d="M914.35,-147.37C903.54,-147.11 892.08,-147.1 881.2,-147.33"/>
<polygon fill="#63b8ff" stroke="#63b8ff" points="914.16,-150.86 924.27,-147.69 914.39,-143.87 914.16,-150.86"/>
</a>
</g>
</g>
<!-- Node25 -->
<g id="Node000025" class="node">
<title>Node25</title>
<g id="a_Node000025"><a xlink:href="../../de/daf/classCSDLmain.html#a73bd9c42ac6916974009e508257e44ff" target="_top" xlink:title=" ">
<polygon fill="white" stroke="#666666" points="875,-315.91 781.75,-315.91 781.75,-295.91 875,-295.91 875,-315.91"/>
<text xml:space="preserve" text-anchor="middle" x="828.38" y="-302.41" font-family="Helvetica,sans-Serif" font-size="10.00">CSDLmain::RunL</text>
</a>
</g>
</g>
<!-- Node24&#45;&gt;Node25 -->
<g id="edge32_Node000024_Node000025" class="edge">
<title>Node24&#45;&gt;Node25</title>
<g id="a_edge32_Node000024_Node000025"><a xlink:title=" ">
<path fill="none" stroke="#63b8ff" d="M924.54,-319.29C909.06,-317.12 891.26,-314.62 875.27,-312.37"/>
<polygon fill="#63b8ff" stroke="#63b8ff" points="923.95,-322.75 934.34,-320.67 924.93,-315.81 923.95,-322.75"/>
</a>
</g>
</g>
<!-- Node26 -->
<g id="Node000026" class="node">
<title>Node26</title>
<g id="a_Node000026"><a xlink:href="../../d3/d6c/SDL__assert_8c.html#af146e7f66c4e41a24337c5b6943af0b0" target="_top" xlink:title=" ">
<polygon fill="white" stroke="#666666" points="881,-391.91 775.75,-391.91 775.75,-371.91 881,-371.91 881,-391.91"/>
<text xml:space="preserve" text-anchor="middle" x="828.38" y="-378.41" font-family="Helvetica,sans-Serif" font-size="10.00">SDL_AbortAssertion</text>
</a>
</g>
</g>
<!-- Node24&#45;&gt;Node26 -->
<g id="edge33_Node000024_Node000026" class="edge">
<title>Node24&#45;&gt;Node26</title>
<g id="a_edge33_Node000024_Node000026"><a xlink:title=" ">
<path fill="none" stroke="#63b8ff" d="M936.42,-340.65C922.68,-347.98 905.75,-356.48 890,-362.91 882.44,-366 874.19,-368.89 866.27,-371.44"/>
<polygon fill="#63b8ff" stroke="#63b8ff" points="937.78,-343.89 944.9,-336.05 934.44,-337.74 937.78,-343.89"/>
</a>
</g>
</g>
<!-- Node28 -->
<g id="Node000028" class="node">
<title>Node28</title>
<g id="a_Node000028"><a xlink:href="../../d9/d78/SDL__main__callbacks_8c.html#a2e8bd250bb597fdf72c9da9d001181e7" target="_top" xlink:title=" ">
<polygon fill="white" stroke="#666666" points="890,-353.91 766.75,-353.91 766.75,-333.91 890,-333.91 890,-353.91"/>
<text xml:space="preserve" text-anchor="middle" x="828.38" y="-340.41" font-family="Helvetica,sans-Serif" font-size="10.00">SDL_QuitMainCallbacks</text>
</a>
</g>
</g>
<!-- Node24&#45;&gt;Node28 -->
<g id="edge35_Node000024_Node000028" class="edge">
<title>Node24&#45;&gt;Node28</title>
<g id="a_edge35_Node000024_Node000028"><a xlink:title=" ">
<path fill="none" stroke="#63b8ff" d="M924.64,-330.52C913.85,-332.04 901.91,-333.71 890.24,-335.35"/>
<polygon fill="#63b8ff" stroke="#63b8ff" points="924.93,-334.01 934.34,-329.15 923.95,-327.08 924.93,-334.01"/>
</a>
</g>
</g>
<!-- Node27 -->
<g id="Node000027" class="node">
<title>Node27</title>
<g id="a_Node000027"><a xlink:href="../../d3/d6c/SDL__assert_8c.html#a0c9a208493d6e9212cff2ab400242102" target="_top" xlink:title=" ">
<polygon fill="white" stroke="#666666" points="707.5,-391.91 596.25,-391.91 596.25,-371.91 707.5,-371.91 707.5,-391.91"/>
<text xml:space="preserve" text-anchor="middle" x="651.88" y="-378.41" font-family="Helvetica,sans-Serif" font-size="10.00">SDL_ReportAssertion</text>
</a>
</g>
</g>
<!-- Node26&#45;&gt;Node27 -->
<g id="edge34_Node000026_Node000027" class="edge">
<title>Node26&#45;&gt;Node27</title>
<g id="a_edge34_Node000026_Node000027"><a xlink:title=" ">
<path fill="none" stroke="#63b8ff" d="M763.98,-381.91C745.61,-381.91 725.71,-381.91 707.9,-381.91"/>
<polygon fill="#63b8ff" stroke="#63b8ff" points="763.98,-385.41 773.98,-381.91 763.98,-378.41 763.98,-385.41"/>
</a>
</g>
</g>
<!-- Node28&#45;&gt;Node20 -->
<g id="edge38_Node000028_Node000020" class="edge">
<title>Node28&#45;&gt;Node20</title>
<g id="a_edge38_Node000028_Node000020"><a xlink:title=" ">
<path fill="none" stroke="#63b8ff" d="M769.45,-331.29C756.75,-328.87 743.33,-326.57 730.75,-324.91 661.3,-315.75 581.46,-310.87 525.28,-308.36"/>
<polygon fill="#63b8ff" stroke="#63b8ff" points="768.42,-334.66 778.91,-333.15 769.77,-327.79 768.42,-334.66"/>
</a>
</g>
</g>
<!-- Node29 -->
<g id="Node000029" class="node">
<title>Node29</title>
<g id="a_Node000029"><a xlink:href="../../d0/d72/emscripten_2SDL__sysmain__callbacks_8c.html#ad2e127e4f44ae815197361e79da5bf88" target="_top" xlink:title=" ">
<polygon fill="white" stroke="#666666" points="720.25,-353.91 583.5,-353.91 583.5,-333.91 720.25,-333.91 720.25,-353.91"/>
<text xml:space="preserve" text-anchor="middle" x="651.88" y="-340.41" font-family="Helvetica,sans-Serif" font-size="10.00">EmscriptenInternalMainloop</text>
</a>
</g>
</g>
<!-- Node28&#45;&gt;Node29 -->
<g id="edge36_Node000028_Node000029" class="edge">
<title>Node28&#45;&gt;Node29</title>
<g id="a_edge36_Node000028_Node000029"><a xlink:title=" ">
<path fill="none" stroke="#63b8ff" d="M755.11,-343.91C743.73,-343.91 732,-343.91 720.72,-343.91"/>
<polygon fill="#63b8ff" stroke="#63b8ff" points="754.83,-347.41 764.83,-343.91 754.83,-340.41 754.83,-347.41"/>
</a>
</g>
</g>
<!-- Node29&#45;&gt;Node20 -->
<g id="edge37_Node000029_Node000020" class="edge">
<title>Node29&#45;&gt;Node20</title>
<g id="a_edge37_Node000029_Node000020"><a xlink:title=" ">
<path fill="none" stroke="#63b8ff" d="M585.01,-331.26C559.85,-326.42 531.48,-320.97 507.51,-316.36"/>
<polygon fill="#63b8ff" stroke="#63b8ff" points="584.35,-334.69 594.83,-333.14 585.67,-327.82 584.35,-334.69"/>
</a>
</g>
</g>
<!-- Node30&#45;&gt;Node6 -->
<g id="edge41_Node000030_Node000006" class="edge">
<title>Node30&#45;&gt;Node6</title>
<g id="a_edge41_Node000030_Node000006"><a xlink:title=" ">
<path fill="none" stroke="#63b8ff" d="M1153.22,-220.01C1174.09,-214.54 1196.03,-207.97 1211.38,-202.37"/>
<polygon fill="#63b8ff" stroke="#63b8ff" points="1152.41,-216.6 1143.59,-222.46 1154.14,-223.39 1152.41,-216.6"/>
</a>
</g>
</g>
<!-- Node30&#45;&gt;Node18 -->
<g id="edge40_Node000030_Node000018" class="edge">
<title>Node30&#45;&gt;Node18</title>
<g id="a_edge40_Node000030_Node000018"><a xlink:title=" ">
<path fill="none" stroke="#63b8ff" d="M1029.19,-229.91C941,-229.91 780.02,-229.91 700.26,-229.91"/>
<polygon fill="#63b8ff" stroke="#63b8ff" points="1029.1,-233.41 1039.1,-229.91 1029.1,-226.41 1029.1,-233.41"/>
</a>
</g>
</g>
<!-- Node31&#45;&gt;Node6 -->
<g id="edge44_Node000031_Node000006" class="edge">
<title>Node31&#45;&gt;Node6</title>
<g id="a_edge44_Node000031_Node000006"><a xlink:title=" ">
<path fill="none" stroke="#63b8ff" d="M1148.87,-254.13C1180.57,-237.08 1210.99,-215.49 1224.46,-202.12"/>
<polygon fill="#63b8ff" stroke="#63b8ff" points="1147.6,-250.84 1140.35,-258.56 1150.83,-257.05 1147.6,-250.84"/>
</a>
</g>
</g>
<!-- Node31&#45;&gt;Node22 -->
<g id="edge43_Node000031_Node000022" class="edge">
<title>Node31&#45;&gt;Node22</title>
<g id="a_edge43_Node000031_Node000022"><a xlink:title=" ">
<path fill="none" stroke="#63b8ff" d="M1032.11,-267.91C943.55,-267.91 776.98,-267.91 697.4,-267.91"/>
<polygon fill="#63b8ff" stroke="#63b8ff" points="1032.04,-271.41 1042.04,-267.91 1032.04,-264.41 1032.04,-271.41"/>
</a>
</g>
</g>
<!-- Node32&#45;&gt;Node6 -->
<g id="edge48_Node000032_Node000006" class="edge">
<title>Node32&#45;&gt;Node6</title>
<g id="a_edge48_Node000032_Node000006"><a xlink:title=" ">
<path fill="none" stroke="#63b8ff" d="M1123.38,-168.1C1139.27,-173.38 1159.08,-179.08 1177.39,-183.71"/>
<polygon fill="#63b8ff" stroke="#63b8ff" points="1124.61,-164.82 1114.02,-164.85 1122.32,-171.44 1124.61,-164.82"/>
</a>
</g>
</g>
<!-- Node32&#45;&gt;Node23 -->
<g id="edge49_Node000032_Node000023" class="edge">
<title>Node32&#45;&gt;Node23</title>
<g id="a_edge49_Node000032_Node000023"><a xlink:title=" ">
<path fill="none" stroke="#63b8ff" d="M1037.63,-153.91C1026.84,-153.91 1015.67,-153.91 1005.47,-153.91"/>
<polygon fill="#63b8ff" stroke="#63b8ff" points="1037.61,-157.41 1047.61,-153.91 1037.61,-150.41 1037.61,-157.41"/>
</a>
</g>
</g>
</g>
</svg>
