<?xml version="1.0" encoding="UTF-8" standalone="no"?>
<!DOCTYPE svg PUBLIC "-//W3C//DTD SVG 1.1//EN"
 "http://www.w3.org/Graphics/SVG/1.1/DTD/svg11.dtd">
<!-- Generated by graphviz version 13.1.0 (20250701.0955)
 -->
<!-- Title: SDL_GetDriverAndSensorIndex Pages: 1 -->
<svg width="995pt" height="154pt"
 viewBox="0.00 0.00 995.00 154.00" xmlns="http://www.w3.org/2000/svg" xmlns:xlink="http://www.w3.org/1999/xlink">
<g id="graph0" class="graph" transform="scale(1 1) rotate(0) translate(4 150)">
<title>SDL_GetDriverAndSensorIndex</title>
<!-- Node1 -->
<g id="Node000001" class="node">
<title>Node1</title>
<g id="a_Node000001"><a xlink:title=" ">
<polygon fill="#999999" stroke="#666666" points="987,-80 832.25,-80 832.25,-60 987,-60 987,-80"/>
<text xml:space="preserve" text-anchor="middle" x="909.62" y="-66.5" font-family="Helvetica,sans-Serif" font-size="10.00">SDL_GetDriverAndSensorIndex</text>
</a>
</g>
</g>
<!-- Node2 -->
<g id="Node000002" class="node">
<title>Node2</title>
<g id="a_Node000002"><a xlink:href="../../dc/de1/SDL__sensor_8c.html#a59c4ea57213987d43f39f70622ba2d1d" target="_top" xlink:title=" ">
<polygon fill="white" stroke="#666666" points="794.75,-146 656.5,-146 656.5,-126 794.75,-126 794.75,-146"/>
<text xml:space="preserve" text-anchor="middle" x="725.62" y="-132.5" font-family="Helvetica,sans-Serif" font-size="10.00">SDL_GetSensorNameForID</text>
</a>
</g>
</g>
<!-- Node1&#45;&gt;Node2 -->
<g id="edge1_Node000001_Node000002" class="edge">
<title>Node1&#45;&gt;Node2</title>
<g id="a_edge1_Node000001_Node000002"><a xlink:title=" ">
<path fill="none" stroke="#63b8ff" d="M875.94,-84.99C853.74,-94.85 823.57,-107.6 796.25,-117 787.36,-120.06 777.71,-122.95 768.5,-125.52"/>
<polygon fill="#63b8ff" stroke="#63b8ff" points="877.07,-88.32 884.76,-81.04 874.21,-81.94 877.07,-88.32"/>
</a>
</g>
</g>
<!-- Node7 -->
<g id="Node000007" class="node">
<title>Node7</title>
<g id="a_Node000007"><a xlink:href="../../dc/de1/SDL__sensor_8c.html#a2a81bd5fa2ee3ceb01c27ea6f50c83c9" target="_top" xlink:title=" ">
<polygon fill="white" stroke="#666666" points="796.25,-108 655,-108 655,-76 796.25,-76 796.25,-108"/>
<text xml:space="preserve" text-anchor="start" x="663" y="-94.5" font-family="Helvetica,sans-Serif" font-size="10.00">SDL_GetSensorNonPortable</text>
<text xml:space="preserve" text-anchor="middle" x="725.62" y="-82.5" font-family="Helvetica,sans-Serif" font-size="10.00">TypeForID</text>
</a>
</g>
</g>
<!-- Node1&#45;&gt;Node7 -->
<g id="edge6_Node000001_Node000007" class="edge">
<title>Node1&#45;&gt;Node7</title>
<g id="a_edge6_Node000001_Node000007"><a xlink:title=" ">
<path fill="none" stroke="#63b8ff" d="M820.6,-80.64C812.52,-81.62 804.42,-82.6 796.53,-83.55"/>
<polygon fill="#63b8ff" stroke="#63b8ff" points="820.96,-84.12 830.47,-79.45 820.12,-77.17 820.96,-84.12"/>
</a>
</g>
</g>
<!-- Node8 -->
<g id="Node000008" class="node">
<title>Node8</title>
<g id="a_Node000008"><a xlink:href="../../dc/de1/SDL__sensor_8c.html#a0930a5587651156fdd6fb085a8892193" target="_top" xlink:title=" ">
<polygon fill="white" stroke="#666666" points="792.12,-58 659.12,-58 659.12,-38 792.12,-38 792.12,-58"/>
<text xml:space="preserve" text-anchor="middle" x="725.62" y="-44.5" font-family="Helvetica,sans-Serif" font-size="10.00">SDL_GetSensorTypeForID</text>
</a>
</g>
</g>
<!-- Node1&#45;&gt;Node8 -->
<g id="edge7_Node000001_Node000008" class="edge">
<title>Node1&#45;&gt;Node8</title>
<g id="a_edge7_Node000001_Node000008"><a xlink:title=" ">
<path fill="none" stroke="#63b8ff" d="M820.83,-59.39C811.3,-58.24 801.73,-57.08 792.53,-55.97"/>
<polygon fill="#63b8ff" stroke="#63b8ff" points="820.12,-62.83 830.47,-60.55 820.96,-55.88 820.12,-62.83"/>
</a>
</g>
</g>
<!-- Node10 -->
<g id="Node000010" class="node">
<title>Node10</title>
<g id="a_Node000010"><a xlink:href="../../dc/de1/SDL__sensor_8c.html#a416bbcea36a65628a5683c11a2420aa9" target="_top" xlink:title=" ">
<polygon fill="white" stroke="#666666" points="773,-20 678.25,-20 678.25,0 773,0 773,-20"/>
<text xml:space="preserve" text-anchor="middle" x="725.62" y="-6.5" font-family="Helvetica,sans-Serif" font-size="10.00">SDL_OpenSensor</text>
</a>
</g>
</g>
<!-- Node1&#45;&gt;Node10 -->
<g id="edge11_Node000001_Node000010" class="edge">
<title>Node1&#45;&gt;Node10</title>
<g id="a_edge11_Node000001_Node000010"><a xlink:title=" ">
<path fill="none" stroke="#63b8ff" d="M871.3,-55.49C849.56,-47.27 821.53,-37.04 796.25,-29 786.94,-26.04 776.84,-23.11 767.29,-20.48"/>
<polygon fill="#63b8ff" stroke="#63b8ff" points="870.04,-58.76 880.63,-59.05 872.54,-52.22 870.04,-58.76"/>
</a>
</g>
</g>
<!-- Node3 -->
<g id="Node000003" class="node">
<title>Node3</title>
<g id="a_Node000003"><a xlink:href="../../d6/df9/SDL__joystick_8c.html#a94fd638a34a769ff6a7a01738257215c" target="_top" xlink:title=" ">
<polygon fill="white" stroke="#666666" points="568.75,-96 505.5,-96 505.5,-76 568.75,-76 568.75,-96"/>
<text xml:space="preserve" text-anchor="middle" x="537.12" y="-82.5" font-family="Helvetica,sans-Serif" font-size="10.00">IsROGAlly</text>
</a>
</g>
</g>
<!-- Node2&#45;&gt;Node3 -->
<g id="edge2_Node000002_Node000003" class="edge">
<title>Node2&#45;&gt;Node3</title>
<g id="a_edge2_Node000002_Node000003"><a xlink:title=" ">
<path fill="none" stroke="#63b8ff" d="M674.55,-122.57C640.98,-113.58 597.84,-102.01 569.15,-94.32"/>
<polygon fill="#63b8ff" stroke="#63b8ff" points="673.5,-125.92 684.07,-125.13 675.31,-119.16 673.5,-125.92"/>
</a>
</g>
</g>
<!-- Node4 -->
<g id="Node000004" class="node">
<title>Node4</title>
<g id="a_Node000004"><a xlink:href="../../d6/df9/SDL__joystick_8c.html#a497945f75b33dbfcde319992145025c5" target="_top" xlink:title=" ">
<polygon fill="white" stroke="#666666" points="419.25,-96 278.75,-96 278.75,-76 419.25,-76 419.25,-96"/>
<text xml:space="preserve" text-anchor="middle" x="349" y="-82.5" font-family="Helvetica,sans-Serif" font-size="10.00">ShouldAttemptSensorFusion</text>
</a>
</g>
</g>
<!-- Node3&#45;&gt;Node4 -->
<g id="edge3_Node000003_Node000004" class="edge">
<title>Node3&#45;&gt;Node4</title>
<g id="a_edge3_Node000003_Node000004"><a xlink:title=" ">
<path fill="none" stroke="#63b8ff" d="M494.1,-86C472.08,-86 444.54,-86 419.45,-86"/>
<polygon fill="#63b8ff" stroke="#63b8ff" points="493.88,-89.5 503.88,-86 493.88,-82.5 493.88,-89.5"/>
</a>
</g>
</g>
<!-- Node5 -->
<g id="Node000005" class="node">
<title>Node5</title>
<g id="a_Node000005"><a xlink:href="../../d6/df9/SDL__joystick_8c.html#a0c867d96ec6bc9c3aca87c8ee6b53ade" target="_top" xlink:title=" ">
<polygon fill="white" stroke="#666666" points="242.75,-77 142,-77 142,-57 242.75,-57 242.75,-77"/>
<text xml:space="preserve" text-anchor="middle" x="192.38" y="-63.5" font-family="Helvetica,sans-Serif" font-size="10.00">SDL_OpenJoystick</text>
</a>
</g>
</g>
<!-- Node4&#45;&gt;Node5 -->
<g id="edge4_Node000004_Node000005" class="edge">
<title>Node4&#45;&gt;Node5</title>
<g id="a_edge4_Node000004_Node000005"><a xlink:title=" ">
<path fill="none" stroke="#63b8ff" d="M267.22,-76.07C259.03,-75.07 250.9,-74.07 243.19,-73.12"/>
<polygon fill="#63b8ff" stroke="#63b8ff" points="266.52,-79.51 276.87,-77.26 267.38,-72.57 266.52,-79.51"/>
</a>
</g>
</g>
<!-- Node6 -->
<g id="Node000006" class="node">
<title>Node6</title>
<g id="a_Node000006"><a xlink:href="../../d0/d82/SDL__gamepad_8c.html#a011496690758b66ec0f7098f030b6d85" target="_top" xlink:title=" ">
<polygon fill="white" stroke="#666666" points="106,-77 0,-77 0,-57 106,-57 106,-77"/>
<text xml:space="preserve" text-anchor="middle" x="53" y="-63.5" font-family="Helvetica,sans-Serif" font-size="10.00">SDL_OpenGamepad</text>
</a>
</g>
</g>
<!-- Node5&#45;&gt;Node6 -->
<g id="edge5_Node000005_Node000006" class="edge">
<title>Node5&#45;&gt;Node6</title>
<g id="a_edge5_Node000005_Node000006"><a xlink:title=" ">
<path fill="none" stroke="#63b8ff" d="M130.51,-67C122.44,-67 114.22,-67 106.3,-67"/>
<polygon fill="#63b8ff" stroke="#63b8ff" points="130.27,-70.5 140.27,-67 130.27,-63.5 130.27,-70.5"/>
</a>
</g>
</g>
<!-- Node8&#45;&gt;Node3 -->
<g id="edge10_Node000008_Node000003" class="edge">
<title>Node8&#45;&gt;Node3</title>
<g id="a_edge10_Node000008_Node000003"><a xlink:title=" ">
<path fill="none" stroke="#63b8ff" d="M661.91,-60.78C630.63,-67.15 594.19,-74.58 568.99,-79.71"/>
<polygon fill="#63b8ff" stroke="#63b8ff" points="662.59,-64.21 671.69,-58.79 661.19,-57.35 662.59,-64.21"/>
</a>
</g>
</g>
<!-- Node9 -->
<g id="Node000009" class="node">
<title>Node9</title>
<g id="a_Node000009"><a xlink:href="../../d6/df9/SDL__joystick_8c.html#a7d2531dc4fbc8de52a29ac3ec171a495" target="_top" xlink:title=" ">
<polygon fill="white" stroke="#666666" points="404.25,-58 293.75,-58 293.75,-38 404.25,-38 404.25,-58"/>
<text xml:space="preserve" text-anchor="middle" x="349" y="-44.5" font-family="Helvetica,sans-Serif" font-size="10.00">AttemptSensorFusion</text>
</a>
</g>
</g>
<!-- Node8&#45;&gt;Node9 -->
<g id="edge8_Node000008_Node000009" class="edge">
<title>Node8&#45;&gt;Node9</title>
<g id="a_edge8_Node000008_Node000009"><a xlink:title=" ">
<path fill="none" stroke="#63b8ff" d="M647.63,-48C575.23,-48 468.68,-48 404.64,-48"/>
<polygon fill="#63b8ff" stroke="#63b8ff" points="647.43,-51.5 657.43,-48 647.43,-44.5 647.43,-51.5"/>
</a>
</g>
</g>
<!-- Node9&#45;&gt;Node5 -->
<g id="edge9_Node000009_Node000005" class="edge">
<title>Node9&#45;&gt;Node5</title>
<g id="a_edge9_Node000009_Node000005"><a xlink:title=" ">
<path fill="none" stroke="#63b8ff" d="M282.12,-56.09C269.02,-57.71 255.46,-59.37 243.01,-60.9"/>
<polygon fill="#63b8ff" stroke="#63b8ff" points="282.48,-59.58 291.98,-54.88 281.63,-52.63 282.48,-59.58"/>
</a>
</g>
</g>
<!-- Node11 -->
<g id="Node000011" class="node">
<title>Node11</title>
<g id="a_Node000011"><a xlink:href="../../d0/d82/SDL__gamepad_8c.html#a7fd8823fb75488feada2853f4f4e3bbc" target="_top" xlink:title=" ">
<polygon fill="white" stroke="#666666" points="619,-20 455.25,-20 455.25,0 619,0 619,-20"/>
<text xml:space="preserve" text-anchor="middle" x="537.12" y="-6.5" font-family="Helvetica,sans-Serif" font-size="10.00">SDL_SetGamepadSensorEnabled</text>
</a>
</g>
</g>
<!-- Node10&#45;&gt;Node11 -->
<g id="edge12_Node000010_Node000011" class="edge">
<title>Node10&#45;&gt;Node11</title>
<g id="a_edge12_Node000010_Node000011"><a xlink:title=" ">
<path fill="none" stroke="#63b8ff" d="M666.85,-10C651.8,-10 635.3,-10 619.29,-10"/>
<polygon fill="#63b8ff" stroke="#63b8ff" points="666.53,-13.5 676.53,-10 666.53,-6.5 666.53,-13.5"/>
</a>
</g>
</g>
</g>
</svg>
