<?xml version="1.0" encoding="UTF-8" standalone="no"?>
<!DOCTYPE svg PUBLIC "-//W3C//DTD SVG 1.1//EN"
 "http://www.w3.org/Graphics/SVG/1.1/DTD/svg11.dtd">
<!-- Generated by graphviz version 13.1.0 (20250701.0955)
 -->
<!-- Title: SDL_SensorsOpened Pages: 1 -->
<svg width="1121pt" height="104pt"
 viewBox="0.00 0.00 1121.00 104.00" xmlns="http://www.w3.org/2000/svg" xmlns:xlink="http://www.w3.org/1999/xlink">
<g id="graph0" class="graph" transform="scale(1 1) rotate(0) translate(4 100)">
<title>SDL_SensorsOpened</title>
<!-- Node1 -->
<g id="Node000001" class="node">
<title>Node1</title>
<g id="a_Node000001"><a xlink:title=" ">
<polygon fill="#999999" stroke="#666666" points="1113.25,-58 1002.75,-58 1002.75,-38 1113.25,-38 1113.25,-58"/>
<text xml:space="preserve" text-anchor="middle" x="1058" y="-44.5" font-family="Helvetica,sans-Serif" font-size="10.00">SDL_SensorsOpened</text>
</a>
</g>
</g>
<!-- Node2 -->
<g id="Node000002" class="node">
<title>Node2</title>
<g id="a_Node000002"><a xlink:href="../../d4/d07/SDL__events_8c.html#a74576b5dee7334f1727b7dc686f23623" target="_top" xlink:title=" ">
<polygon fill="white" stroke="#666666" points="966.75,-64 845,-64 845,-32 966.75,-32 966.75,-64"/>
<text xml:space="preserve" text-anchor="start" x="853" y="-50.5" font-family="Helvetica,sans-Serif" font-size="10.00">SDL_events_get_polling</text>
<text xml:space="preserve" text-anchor="middle" x="905.88" y="-38.5" font-family="Helvetica,sans-Serif" font-size="10.00">_interval</text>
</a>
</g>
</g>
<!-- Node1&#45;&gt;Node2 -->
<g id="edge1_Node000001_Node000002" class="edge">
<title>Node1&#45;&gt;Node2</title>
<g id="a_edge1_Node000001_Node000002"><a xlink:title=" ">
<path fill="none" stroke="#63b8ff" d="M990.89,-48C982.95,-48 974.88,-48 967.04,-48"/>
<polygon fill="#63b8ff" stroke="#63b8ff" points="990.86,-51.5 1000.86,-48 990.86,-44.5 990.86,-51.5"/>
</a>
</g>
</g>
<!-- Node3 -->
<g id="Node000003" class="node">
<title>Node3</title>
<g id="a_Node000003"><a xlink:href="../../d4/d07/SDL__events_8c.html#a04e12aac9448fe0c4c345fe8ba667921" target="_top" xlink:title=" ">
<polygon fill="white" stroke="#666666" points="809,-64 688,-64 688,-32 809,-32 809,-64"/>
<text xml:space="preserve" text-anchor="start" x="696" y="-50.5" font-family="Helvetica,sans-Serif" font-size="10.00">SDL_WaitEventTimeout</text>
<text xml:space="preserve" text-anchor="middle" x="748.5" y="-38.5" font-family="Helvetica,sans-Serif" font-size="10.00">_Device</text>
</a>
</g>
</g>
<!-- Node2&#45;&gt;Node3 -->
<g id="edge2_Node000002_Node000003" class="edge">
<title>Node2&#45;&gt;Node3</title>
<g id="a_edge2_Node000002_Node000003"><a xlink:title=" ">
<path fill="none" stroke="#63b8ff" d="M833.51,-48C825.45,-48 817.3,-48 809.41,-48"/>
<polygon fill="#63b8ff" stroke="#63b8ff" points="833.29,-51.5 843.29,-48 833.29,-44.5 833.29,-51.5"/>
</a>
</g>
</g>
<!-- Node4 -->
<g id="Node000004" class="node">
<title>Node4</title>
<g id="a_Node000004"><a xlink:href="../../d4/d07/SDL__events_8c.html#aa685860fb3af1f87c9f24d4a214abccf" target="_top" xlink:title=" ">
<polygon fill="white" stroke="#666666" points="652,-58 516.75,-58 516.75,-38 652,-38 652,-58"/>
<text xml:space="preserve" text-anchor="middle" x="584.38" y="-44.5" font-family="Helvetica,sans-Serif" font-size="10.00">SDL_WaitEventTimeoutNS</text>
</a>
</g>
</g>
<!-- Node3&#45;&gt;Node4 -->
<g id="edge3_Node000003_Node000004" class="edge">
<title>Node3&#45;&gt;Node4</title>
<g id="a_edge3_Node000003_Node000004"><a xlink:title=" ">
<path fill="none" stroke="#63b8ff" d="M676.15,-48C668.26,-48 660.25,-48 652.41,-48"/>
<polygon fill="#63b8ff" stroke="#63b8ff" points="676.08,-51.5 686.08,-48 676.08,-44.5 676.08,-51.5"/>
</a>
</g>
</g>
<!-- Node5 -->
<g id="Node000005" class="node">
<title>Node5</title>
<g id="a_Node000005"><a xlink:href="../../d4/d07/SDL__events_8c.html#a130c82ed745859da20c4bb4486205637" target="_top" xlink:title=" ">
<polygon fill="white" stroke="#666666" points="461.62,-96 378.88,-96 378.88,-76 461.62,-76 461.62,-96"/>
<text xml:space="preserve" text-anchor="middle" x="420.25" y="-82.5" font-family="Helvetica,sans-Serif" font-size="10.00">SDL_PollEvent</text>
</a>
</g>
</g>
<!-- Node4&#45;&gt;Node5 -->
<g id="edge4_Node000004_Node000005" class="edge">
<title>Node4&#45;&gt;Node5</title>
<g id="a_edge4_Node000004_Node000005"><a xlink:title=" ">
<path fill="none" stroke="#63b8ff" d="M527.64,-61.06C506.07,-66.12 481.84,-71.8 461.95,-76.46"/>
<polygon fill="#63b8ff" stroke="#63b8ff" points="528.23,-64.52 537.17,-58.83 526.64,-57.7 528.23,-64.52"/>
</a>
</g>
</g>
<!-- Node7 -->
<g id="Node000007" class="node">
<title>Node7</title>
<g id="a_Node000007"><a xlink:href="../../d4/d07/SDL__events_8c.html#a5f00af913f9c78cac0ca05e491cff746" target="_top" xlink:title=" ">
<polygon fill="white" stroke="#666666" points="463.12,-58 377.38,-58 377.38,-38 463.12,-38 463.12,-58"/>
<text xml:space="preserve" text-anchor="middle" x="420.25" y="-44.5" font-family="Helvetica,sans-Serif" font-size="10.00">SDL_WaitEvent</text>
</a>
</g>
</g>
<!-- Node4&#45;&gt;Node7 -->
<g id="edge6_Node000004_Node000007" class="edge">
<title>Node4&#45;&gt;Node7</title>
<g id="a_edge6_Node000004_Node000007"><a xlink:title=" ">
<path fill="none" stroke="#63b8ff" d="M505.03,-48C490.66,-48 476.18,-48 463.39,-48"/>
<polygon fill="#63b8ff" stroke="#63b8ff" points="504.98,-51.5 514.98,-48 504.98,-44.5 504.98,-51.5"/>
</a>
</g>
</g>
<!-- Node10 -->
<g id="Node000010" class="node">
<title>Node10</title>
<g id="a_Node000010"><a xlink:href="../../d4/d07/SDL__events_8c.html#affea6479e3fdc619bb435d181f4d5c26" target="_top" xlink:title=" ">
<polygon fill="white" stroke="#666666" points="480.75,-20 359.75,-20 359.75,0 480.75,0 480.75,-20"/>
<text xml:space="preserve" text-anchor="middle" x="420.25" y="-6.5" font-family="Helvetica,sans-Serif" font-size="10.00">SDL_WaitEventTimeout</text>
</a>
</g>
</g>
<!-- Node4&#45;&gt;Node10 -->
<g id="edge9_Node000004_Node000010" class="edge">
<title>Node4&#45;&gt;Node10</title>
<g id="a_edge9_Node000004_Node000010"><a xlink:title=" ">
<path fill="none" stroke="#63b8ff" d="M527.7,-34.95C507.5,-30.22 484.95,-24.93 465.83,-20.45"/>
<polygon fill="#63b8ff" stroke="#63b8ff" points="526.64,-38.3 537.17,-37.17 528.23,-31.48 526.64,-38.3"/>
</a>
</g>
</g>
<!-- Node6 -->
<g id="Node000006" class="node">
<title>Node6</title>
<g id="a_Node000006"><a xlink:href="../../de/daf/classCSDLmain.html#a73bd9c42ac6916974009e508257e44ff" target="_top" xlink:title=" ">
<polygon fill="white" stroke="#666666" points="299.38,-96 206.12,-96 206.12,-76 299.38,-76 299.38,-96"/>
<text xml:space="preserve" text-anchor="middle" x="252.75" y="-82.5" font-family="Helvetica,sans-Serif" font-size="10.00">CSDLmain::RunL</text>
</a>
</g>
</g>
<!-- Node5&#45;&gt;Node6 -->
<g id="edge5_Node000005_Node000006" class="edge">
<title>Node5&#45;&gt;Node6</title>
<g id="a_edge5_Node000005_Node000006"><a xlink:title=" ">
<path fill="none" stroke="#63b8ff" d="M367.42,-86C345.72,-86 320.69,-86 299.66,-86"/>
<polygon fill="#63b8ff" stroke="#63b8ff" points="367.25,-89.5 377.25,-86 367.25,-82.5 367.25,-89.5"/>
</a>
</g>
</g>
<!-- Node8 -->
<g id="Node000008" class="node">
<title>Node8</title>
<g id="a_Node000008"><a xlink:href="../../dd/db5/generic_2SDL__sysmain__callbacks_8c.html#a124349564f2819800810af0832885c0b" target="_top" xlink:title=" ">
<polygon fill="white" stroke="#666666" points="323.75,-58 181.75,-58 181.75,-38 323.75,-38 323.75,-58"/>
<text xml:space="preserve" text-anchor="middle" x="252.75" y="-44.5" font-family="Helvetica,sans-Serif" font-size="10.00">GenericIterateMainCallbacks</text>
</a>
</g>
</g>
<!-- Node7&#45;&gt;Node8 -->
<g id="edge7_Node000007_Node000008" class="edge">
<title>Node7&#45;&gt;Node8</title>
<g id="a_edge7_Node000007_Node000008"><a xlink:title=" ">
<path fill="none" stroke="#63b8ff" d="M365.75,-48C352.49,-48 338.08,-48 324.15,-48"/>
<polygon fill="#63b8ff" stroke="#63b8ff" points="365.55,-51.5 375.55,-48 365.55,-44.5 365.55,-51.5"/>
</a>
</g>
</g>
<!-- Node9 -->
<g id="Node000009" class="node">
<title>Node9</title>
<g id="a_Node000009"><a xlink:href="../../dd/db5/generic_2SDL__sysmain__callbacks_8c.html#aa50e1897a91f2547b5f31125020220e2" target="_top" xlink:title=" ">
<polygon fill="white" stroke="#666666" points="145.75,-58 0,-58 0,-38 145.75,-38 145.75,-58"/>
<text xml:space="preserve" text-anchor="middle" x="72.88" y="-44.5" font-family="Helvetica,sans-Serif" font-size="10.00">SDL_EnterAppMainCallbacks</text>
</a>
</g>
</g>
<!-- Node8&#45;&gt;Node9 -->
<g id="edge8_Node000008_Node000009" class="edge">
<title>Node8&#45;&gt;Node9</title>
<g id="a_edge8_Node000008_Node000009"><a xlink:title=" ">
<path fill="none" stroke="#63b8ff" d="M170.14,-48C162.09,-48 153.95,-48 146,-48"/>
<polygon fill="#63b8ff" stroke="#63b8ff" points="169.94,-51.5 179.94,-48 169.94,-44.5 169.94,-51.5"/>
</a>
</g>
</g>
</g>
</svg>
