<?xml version="1.0" encoding="UTF-8" standalone="no"?>
<!DOCTYPE svg PUBLIC "-//W3C//DTD SVG 1.1//EN"
 "http://www.w3.org/Graphics/SVG/1.1/DTD/svg11.dtd">
<!-- Generated by graphviz version 13.1.0 (20250701.0955)
 -->
<!-- Title: SDL_DebugLogBackend Pages: 1 -->
<!--zoomable 426 -->

<svg id="main" version="1.1" xmlns="http://www.w3.org/2000/svg" xmlns:xlink="http://www.w3.org/1999/xlink" xml:space="preserve" onload="init(evt)">

<style type="text/css"><![CDATA[
.node, .edge {opacity: 0.7;}
.node.selected, .edge.selected {opacity: 1;}
.edge:hover path { stroke: red; }
.edge:hover polygon { stroke: red; fill: red; }
]]></style>

<defs>
  <circle id="rim" cx="0" cy="0" r="7"/>
  <circle id="rim2" cx="0" cy="0" r="3.5"/>
  <g id="zoomPlus">
    <use xlink:href="#rim" fill="#404040"><set attributeName="fill" to="#808080" begin="zoomplus.mouseover" end="zoomplus.mouseout"/></use>
    <path d="M-4,0h8M0,-4v8" fill="none" stroke="white" stroke-width="1.5" pointer-events="none"/>
  </g>
  <g id="zoomMin">
    <use xlink:href="#rim" fill="#404040"><set attributeName="fill" to="#808080" begin="zoomminus.mouseover" end="zoomminus.mouseout"/></use>
    <path d="M-4,0h8" fill="none" stroke="white" stroke-width="1.5" pointer-events="none"/>
  </g>
  <g id="arrowUp" transform="translate(30 24)">
    <use xlink:href="#rim"/>
    <path pointer-events="none" fill="none" stroke="white" stroke-width="1.5" d="M0,-3.0v7 M-2.5,-0.5L0,-3.0L2.5,-0.5"/>
  </g>
  <g id="arrowRight" transform="rotate(90) translate(36 -43)">
    <use xlink:href="#rim"/>
    <path pointer-events="none" fill="none" stroke="white" stroke-width="1.5" d="M0,-3.0v7 M-2.5,-0.5L0,-3.0L2.5,-0.5"/>
  </g>
  <g id="arrowDown" transform="rotate(180) translate(-30 -48)">
    <use xlink:href="#rim"/>
    <path pointer-events="none" fill="none" stroke="white" stroke-width="1.5" d="M0,-3.0v7 M-2.5,-0.5L0,-3.0L2.5,-0.5"/>
  </g>
  <g id="arrowLeft" transform="rotate(270) translate(-36 17)">
    <use xlink:href="#rim"/>
    <path pointer-events="none" fill="none" stroke="white" stroke-width="1.5" d="M0,-3.0v7 M-2.5,-0.5L0,-3.0L2.5,-0.5"/>
  </g>
  <g id="resetDef">
    <use xlink:href="#rim2" fill="#404040"><set attributeName="fill" to="#808080" begin="reset.mouseover" end="reset.mouseout"/></use>
  </g>
</defs>
<script type="application/ecmascript">
var viewWidth = 1306;
var viewHeight = 426;
var sectionId = 'dynsection-12';
</script>
<script type="application/ecmascript" xlink:href="../../svg.min.js"/>
<svg id="graph" class="graph">
<g id="viewport">
<title>SDL_DebugLogBackend</title>
<!-- Node1 -->
<g id="Node000001" class="node">
<title>Node1</title>
<g id="a_Node000001"><a xlink:title=" ">
<polygon fill="#999999" stroke="#666666" points="1297.75,-134 1174.5,-134 1174.5,-114 1297.75,-114 1297.75,-134"/>
<text xml:space="preserve" text-anchor="middle" x="1236.12" y="-120.5" font-family="Helvetica,sans-Serif" font-size="10.00">SDL_DebugLogBackend</text>
</a>
</g>
</g>
<!-- Node2 -->
<g id="Node000002" class="node">
<title>Node2</title>
<g id="a_Node000002"><a xlink:href="../../db/d6b/SDL__camera_8c.html#a1c95febe36642a6bee0885f1078c6cc2" target="_top" xlink:title=" ">
<polygon fill="white" stroke="#666666" points="1089.38,-248 1000.62,-248 1000.62,-228 1089.38,-228 1089.38,-248"/>
<text xml:space="preserve" text-anchor="middle" x="1045" y="-234.5" font-family="Helvetica,sans-Serif" font-size="10.00">SDL_CameraInit</text>
</a>
</g>
</g>
<!-- Node1&#45;&gt;Node2 -->
<g id="edge1_Node000001_Node000002" class="edge">
<title>Node1&#45;&gt;Node2</title>
<g id="a_edge1_Node000001_Node000002"><a xlink:title=" ">
<path fill="none" stroke="#63b8ff" d="M1221.16,-143.28C1204.18,-165.21 1173.42,-200.38 1138.5,-219 1123.6,-226.94 1105.71,-231.57 1089.66,-234.26"/>
<polygon fill="#63b8ff" stroke="#63b8ff" points="1223.83,-145.54 1227.04,-135.45 1218.24,-141.34 1223.83,-145.54"/>
</a>
</g>
</g>
<!-- Node19 -->
<g id="Node000019" class="node">
<title>Node19</title>
<g id="a_Node000019"><a xlink:href="../../d6/d3d/SDL__video_8c.html#ac61dc66ab71d039f9b681916d0fcbc6e" target="_top" xlink:title=" ">
<polygon fill="white" stroke="#666666" points="691.38,-148 612.38,-148 612.38,-128 691.38,-128 691.38,-148"/>
<text xml:space="preserve" text-anchor="middle" x="651.88" y="-134.5" font-family="Helvetica,sans-Serif" font-size="10.00">SDL_VideoInit</text>
</a>
</g>
</g>
<!-- Node1&#45;&gt;Node19 -->
<g id="edge38_Node000001_Node000019" class="edge">
<title>Node1&#45;&gt;Node19</title>
<g id="a_edge38_Node000001_Node000019"><a xlink:title=" ">
<path fill="none" stroke="#63b8ff" d="M1180.45,-136.67C1166.82,-139.29 1152.19,-141.67 1138.5,-143 974.06,-159.01 931.93,-146.62 766.75,-143 741.82,-142.45 713.85,-141.23 691.86,-140.14"/>
<polygon fill="#63b8ff" stroke="#63b8ff" points="1181.02,-140.12 1190.14,-134.72 1179.64,-133.26 1181.02,-140.12"/>
</a>
</g>
</g>
<!-- Node20 -->
<g id="Node000020" class="node">
<title>Node20</title>
<g id="a_Node000020"><a xlink:href="../../de/dc9/SDL__gpu_8c.html#a1ed137c70f32104973916ca8e3c2e279" target="_top" xlink:title=" ">
<polygon fill="white" stroke="#666666" points="1138.5,-134 951.5,-134 951.5,-114 1138.5,-114 1138.5,-134"/>
<text xml:space="preserve" text-anchor="middle" x="1045" y="-120.5" font-family="Helvetica,sans-Serif" font-size="10.00">SDL_CreateGPUDeviceWithProperties</text>
</a>
</g>
</g>
<!-- Node1&#45;&gt;Node20 -->
<g id="edge24_Node000001_Node000020" class="edge">
<title>Node1&#45;&gt;Node20</title>
<g id="a_edge24_Node000001_Node000020"><a xlink:title=" ">
<path fill="none" stroke="#63b8ff" d="M1162.87,-124C1154.98,-124 1146.87,-124 1138.78,-124"/>
<polygon fill="#63b8ff" stroke="#63b8ff" points="1162.73,-127.5 1172.73,-124 1162.73,-120.5 1162.73,-127.5"/>
</a>
</g>
</g>
<!-- Node22 -->
<g id="Node000022" class="node">
<title>Node22</title>
<g id="a_Node000022"><a xlink:href="../../dd/df3/SDL__render_8c.html#a4006a2177c9369434436c35e55db4909" target="_top" xlink:title=" ">
<polygon fill="white" stroke="#666666" points="1132.12,-96 957.88,-96 957.88,-76 1132.12,-76 1132.12,-96"/>
<text xml:space="preserve" text-anchor="middle" x="1045" y="-82.5" font-family="Helvetica,sans-Serif" font-size="10.00">SDL_CreateRendererWithProperties</text>
</a>
</g>
</g>
<!-- Node1&#45;&gt;Node22 -->
<g id="edge26_Node000001_Node000022" class="edge">
<title>Node1&#45;&gt;Node22</title>
<g id="a_edge26_Node000001_Node000022"><a xlink:title=" ">
<path fill="none" stroke="#63b8ff" d="M1171.81,-111.28C1147.83,-106.46 1120.83,-101.04 1098.01,-96.45"/>
<polygon fill="#63b8ff" stroke="#63b8ff" points="1170.97,-114.68 1181.46,-113.22 1172.35,-107.82 1170.97,-114.68"/>
</a>
</g>
</g>
<!-- Node29 -->
<g id="Node000029" class="node">
<title>Node29</title>
<g id="a_Node000029"><a xlink:href="../../d6/d9b/SDL__audio_8c.html#a817d3e1809f55afa3541214c9ddf4e48" target="_top" xlink:title=" ">
<polygon fill="white" stroke="#666666" points="1084.5,-210 1005.5,-210 1005.5,-190 1084.5,-190 1084.5,-210"/>
<text xml:space="preserve" text-anchor="middle" x="1045" y="-196.5" font-family="Helvetica,sans-Serif" font-size="10.00">SDL_InitAudio</text>
</a>
</g>
</g>
<!-- Node1&#45;&gt;Node29 -->
<g id="edge34_Node000001_Node000029" class="edge">
<title>Node1&#45;&gt;Node29</title>
<g id="a_edge34_Node000001_Node000029"><a xlink:title=" ">
<path fill="none" stroke="#63b8ff" d="M1208.91,-140.34C1189.92,-151.61 1163.34,-166.26 1138.5,-176 1121.36,-182.72 1101.69,-188.13 1084.91,-192.1"/>
<polygon fill="#63b8ff" stroke="#63b8ff" points="1210.56,-143.43 1217.31,-135.26 1206.95,-137.44 1210.56,-143.43"/>
</a>
</g>
</g>
<!-- Node30 -->
<g id="Node000030" class="node">
<title>Node30</title>
<g id="a_Node000030"><a xlink:href="../../d1/deb/SDL__storage_8c.html#a0882509488c0f48cf252698d78fabcd8" target="_top" xlink:title=" ">
<polygon fill="white" stroke="#666666" points="1103.25,-58 986.75,-58 986.75,-38 1103.25,-38 1103.25,-58"/>
<text xml:space="preserve" text-anchor="middle" x="1045" y="-44.5" font-family="Helvetica,sans-Serif" font-size="10.00">SDL_OpenTitleStorage</text>
</a>
</g>
</g>
<!-- Node1&#45;&gt;Node30 -->
<g id="edge36_Node000001_Node000030" class="edge">
<title>Node1&#45;&gt;Node30</title>
<g id="a_edge36_Node000001_Node000030"><a xlink:title=" ">
<path fill="none" stroke="#63b8ff" d="M1211.55,-107.08C1192.65,-94.28 1165,-77.21 1138.5,-67 1127.49,-62.76 1115.35,-59.4 1103.59,-56.76"/>
<polygon fill="#63b8ff" stroke="#63b8ff" points="1209.38,-109.83 1219.59,-112.65 1213.36,-104.08 1209.38,-109.83"/>
</a>
</g>
</g>
<!-- Node31 -->
<g id="Node000031" class="node">
<title>Node31</title>
<g id="a_Node000031"><a xlink:href="../../d1/deb/SDL__storage_8c.html#a1b006e600e7d7e8c1c5dc81c1961f6d6" target="_top" xlink:title=" ">
<polygon fill="white" stroke="#666666" points="1104.38,-20 985.62,-20 985.62,0 1104.38,0 1104.38,-20"/>
<text xml:space="preserve" text-anchor="middle" x="1045" y="-6.5" font-family="Helvetica,sans-Serif" font-size="10.00">SDL_OpenUserStorage</text>
</a>
</g>
</g>
<!-- Node1&#45;&gt;Node31 -->
<g id="edge37_Node000001_Node000031" class="edge">
<title>Node1&#45;&gt;Node31</title>
<g id="a_edge37_Node000001_Node000031"><a xlink:title=" ">
<path fill="none" stroke="#63b8ff" d="M1221.16,-104.72C1204.18,-82.79 1173.42,-47.62 1138.5,-29 1128.08,-23.45 1116.21,-19.52 1104.52,-16.73"/>
<polygon fill="#63b8ff" stroke="#63b8ff" points="1218.24,-106.66 1227.04,-112.55 1223.83,-102.46 1218.24,-106.66"/>
</a>
</g>
</g>
<!-- Node3 -->
<g id="Node000003" class="node">
<title>Node3</title>
<g id="a_Node000003"><a xlink:href="../../df/d78/SDL_8c.html#aa33d2b8c0a69b16651f78c26f391b6ef" target="_top" xlink:title=" ">
<polygon fill="white" stroke="#666666" points="893.75,-243 788.5,-243 788.5,-223 893.75,-223 893.75,-243"/>
<text xml:space="preserve" text-anchor="middle" x="841.12" y="-229.5" font-family="Helvetica,sans-Serif" font-size="10.00">SDL_InitSubSystem</text>
</a>
</g>
</g>
<!-- Node2&#45;&gt;Node3 -->
<g id="edge2_Node000002_Node000003" class="edge">
<title>Node2&#45;&gt;Node3</title>
<g id="a_edge2_Node000002_Node000003"><a xlink:title=" ">
<path fill="none" stroke="#63b8ff" d="M988.81,-236.63C959.27,-235.9 923.1,-235.01 894.07,-234.29"/>
<polygon fill="#63b8ff" stroke="#63b8ff" points="988.6,-240.13 998.68,-236.88 988.77,-233.13 988.6,-240.13"/>
</a>
</g>
</g>
<!-- Node4 -->
<g id="Node000004" class="node">
<title>Node4</title>
<g id="a_Node000004"><a xlink:href="../../d6/df9/SDL__joystick_8c.html#a7d2531dc4fbc8de52a29ac3ec171a495" target="_top" xlink:title=" ">
<polygon fill="white" stroke="#666666" points="507.38,-414 396.88,-414 396.88,-394 507.38,-394 507.38,-414"/>
<text xml:space="preserve" text-anchor="middle" x="452.12" y="-400.5" font-family="Helvetica,sans-Serif" font-size="10.00">AttemptSensorFusion</text>
</a>
</g>
</g>
<!-- Node3&#45;&gt;Node4 -->
<g id="edge3_Node000003_Node000004" class="edge">
<title>Node3&#45;&gt;Node4</title>
<g id="a_edge3_Node000003_Node000004"><a xlink:title=" ">
<path fill="none" stroke="#63b8ff" d="M832.14,-253.76C817.73,-287.99 783.86,-355.45 730.75,-385 661.41,-423.58 566.76,-420.47 507.82,-413.29"/>
<polygon fill="#63b8ff" stroke="#63b8ff" points="835.36,-255.14 835.86,-244.55 828.87,-252.51 835.36,-255.14"/>
</a>
</g>
</g>
<!-- Node7 -->
<g id="Node000007" class="node">
<title>Node7</title>
<g id="a_Node000007"><a xlink:href="../../d6/df9/SDL__joystick_8c.html#a94fd638a34a769ff6a7a01738257215c" target="_top" xlink:title=" ">
<polygon fill="white" stroke="#666666" points="683.5,-376 620.25,-376 620.25,-356 683.5,-356 683.5,-376"/>
<text xml:space="preserve" text-anchor="middle" x="651.88" y="-362.5" font-family="Helvetica,sans-Serif" font-size="10.00">IsROGAlly</text>
</a>
</g>
</g>
<!-- Node3&#45;&gt;Node7 -->
<g id="edge6_Node000003_Node000007" class="edge">
<title>Node3&#45;&gt;Node7</title>
<g id="a_edge6_Node000003_Node000007"><a xlink:title=" ">
<path fill="none" stroke="#63b8ff" d="M826.91,-252.52C808.46,-278.22 772.5,-322.94 730.75,-347 716.52,-355.2 698.86,-359.88 683.96,-362.54"/>
<polygon fill="#63b8ff" stroke="#63b8ff" points="829.57,-254.82 832.44,-244.63 823.84,-250.81 829.57,-254.82"/>
</a>
</g>
</g>
<!-- Node9 -->
<g id="Node000009" class="node">
<title>Node9</title>
<g id="a_Node000009"><a xlink:href="../../df/d78/SDL_8c.html#ac25d0ce460db43ca8c7681eb8e7c5007" target="_top" xlink:title=" ">
<polygon fill="white" stroke="#666666" points="679,-338 624.75,-338 624.75,-318 679,-318 679,-338"/>
<text xml:space="preserve" text-anchor="middle" x="651.88" y="-324.5" font-family="Helvetica,sans-Serif" font-size="10.00">SDL_Init</text>
</a>
</g>
</g>
<!-- Node3&#45;&gt;Node9 -->
<g id="edge9_Node000003_Node000009" class="edge">
<title>Node3&#45;&gt;Node9</title>
<g id="a_edge9_Node000003_Node000009"><a xlink:title=" ">
<path fill="none" stroke="#63b8ff" d="M819.92,-250.5C798.96,-267.78 764.57,-293.76 730.75,-309 714.38,-316.37 694.74,-321.14 679.27,-324.06"/>
<polygon fill="#63b8ff" stroke="#63b8ff" points="821.99,-253.33 827.39,-244.21 817.49,-247.97 821.99,-253.33"/>
</a>
</g>
</g>
<!-- Node14 -->
<g id="Node000014" class="node">
<title>Node14</title>
<g id="a_Node000014"><a xlink:href="../../d6/df9/SDL__joystick_8c.html#a9340afa4acb6b0fad4affbb99d4fa014" target="_top" xlink:title=" ">
<polygon fill="white" stroke="#666666" points="700,-300 603.75,-300 603.75,-280 700,-280 700,-300"/>
<text xml:space="preserve" text-anchor="middle" x="651.88" y="-286.5" font-family="Helvetica,sans-Serif" font-size="10.00">SDL_InitJoysticks</text>
</a>
</g>
</g>
<!-- Node3&#45;&gt;Node14 -->
<g id="edge14_Node000003_Node000014" class="edge">
<title>Node3&#45;&gt;Node14</title>
<g id="a_edge14_Node000003_Node000014"><a xlink:title=" ">
<path fill="none" stroke="#63b8ff" d="M778.47,-246.85C762.99,-251.92 746.34,-257.4 730.75,-262 709.79,-268.18 685.25,-273.93 669.4,-279.52"/>
<polygon fill="#63b8ff" stroke="#63b8ff" points="779.12,-250.32 787.54,-243.89 776.95,-243.67 779.12,-250.32"/>
</a>
</g>
</g>
<!-- Node15 -->
<g id="Node000015" class="node">
<title>Node15</title>
<g id="a_Node000015"><a xlink:href="../../d9/d78/SDL__main__callbacks_8c.html#a3d21b5bf7aa441418de48c5b2856336a" target="_top" xlink:title=" ">
<polygon fill="white" stroke="#666666" points="711.25,-262 592.5,-262 592.5,-242 711.25,-242 711.25,-262"/>
<text xml:space="preserve" text-anchor="middle" x="651.88" y="-248.5" font-family="Helvetica,sans-Serif" font-size="10.00">SDL_InitMainCallbacks</text>
</a>
</g>
</g>
<!-- Node3&#45;&gt;Node15 -->
<g id="edge16_Node000003_Node000015" class="edge">
<title>Node3&#45;&gt;Node15</title>
<g id="a_edge16_Node000003_Node000015"><a xlink:title=" ">
<path fill="none" stroke="#63b8ff" d="M777.29,-239.38C756.09,-241.53 732.51,-243.92 711.64,-246.04"/>
<polygon fill="#63b8ff" stroke="#63b8ff" points="777.36,-242.89 786.96,-238.39 776.65,-235.92 777.36,-242.89"/>
</a>
</g>
</g>
<!-- Node17 -->
<g id="Node000017" class="node">
<title>Node17</title>
<g id="a_Node000017"><a xlink:href="../../df/d78/SDL_8c.html#a8f0bf712ad7ba759f5b6e04e683c67d4" target="_top" xlink:title=" ">
<polygon fill="white" stroke="#666666" points="730.75,-224 573,-224 573,-204 730.75,-204 730.75,-224"/>
<text xml:space="preserve" text-anchor="middle" x="651.88" y="-210.5" font-family="Helvetica,sans-Serif" font-size="10.00">SDL_InitOrIncrementSubsystem</text>
</a>
</g>
</g>
<!-- Node3&#45;&gt;Node17 -->
<g id="edge18_Node000003_Node000017" class="edge">
<title>Node3&#45;&gt;Node17</title>
<g id="a_edge18_Node000003_Node000017"><a xlink:title=" ">
<path fill="none" stroke="#63b8ff" d="M783.66,-221.02C767.1,-218.87 748.69,-216.86 731.04,-215.26"/>
<polygon fill="#63b8ff" stroke="#63b8ff" points="782.92,-224.45 793.3,-222.32 783.86,-217.51 782.92,-224.45"/>
</a>
</g>
</g>
<!-- Node18 -->
<g id="Node000018" class="node">
<title>Node18</title>
<g id="a_Node000018"><a xlink:href="../../dc/de1/SDL__sensor_8c.html#abdb7d6b73a301a2c8558ba80edb32331" target="_top" xlink:title=" ">
<polygon fill="white" stroke="#666666" points="697,-186 606.75,-186 606.75,-166 697,-166 697,-186"/>
<text xml:space="preserve" text-anchor="middle" x="651.88" y="-172.5" font-family="Helvetica,sans-Serif" font-size="10.00">SDL_InitSensors</text>
</a>
</g>
</g>
<!-- Node3&#45;&gt;Node18 -->
<g id="edge20_Node000003_Node000018" class="edge">
<title>Node3&#45;&gt;Node18</title>
<g id="a_edge20_Node000003_Node000018"><a xlink:title=" ">
<path fill="none" stroke="#63b8ff" d="M817.51,-217.53C795.54,-207.28 761.12,-194.96 730.75,-186 719.94,-182.81 708.17,-179.74 697.14,-177.31"/>
<polygon fill="#63b8ff" stroke="#63b8ff" points="815.92,-220.65 826.43,-222 819.06,-214.39 815.92,-220.65"/>
</a>
</g>
</g>
<!-- Node3&#45;&gt;Node19 -->
<g id="edge22_Node000003_Node000019" class="edge">
<title>Node3&#45;&gt;Node19</title>
<g id="a_edge22_Node000003_Node000019"><a xlink:title=" ">
<path fill="none" stroke="#63b8ff" d="M825.64,-214.21C805.65,-194.38 767.86,-164.72 730.75,-148 718.57,-142.51 704.57,-138.47 691.84,-136.03"/>
<polygon fill="#63b8ff" stroke="#63b8ff" points="823.06,-216.57 832.47,-221.44 828.15,-211.77 823.06,-216.57"/>
</a>
</g>
</g>
<!-- Node5 -->
<g id="Node000005" class="node">
<title>Node5</title>
<g id="a_Node000005"><a xlink:href="../../d6/df9/SDL__joystick_8c.html#a0c867d96ec6bc9c3aca87c8ee6b53ade" target="_top" xlink:title=" ">
<polygon fill="white" stroke="#666666" points="315.12,-395 214.38,-395 214.38,-375 315.12,-375 315.12,-395"/>
<text xml:space="preserve" text-anchor="middle" x="264.75" y="-381.5" font-family="Helvetica,sans-Serif" font-size="10.00">SDL_OpenJoystick</text>
</a>
</g>
</g>
<!-- Node4&#45;&gt;Node5 -->
<g id="edge4_Node000004_Node000005" class="edge">
<title>Node4&#45;&gt;Node5</title>
<g id="a_edge4_Node000004_Node000005"><a xlink:title=" ">
<path fill="none" stroke="#63b8ff" d="M385.13,-397.24C362.22,-394.89 336.93,-392.3 315.55,-390.1"/>
<polygon fill="#63b8ff" stroke="#63b8ff" points="384.7,-400.71 395,-398.25 385.41,-393.75 384.7,-400.71"/>
</a>
</g>
</g>
<!-- Node6 -->
<g id="Node000006" class="node">
<title>Node6</title>
<g id="a_Node000006"><a xlink:href="../../d0/d82/SDL__gamepad_8c.html#a011496690758b66ec0f7098f030b6d85" target="_top" xlink:title=" ">
<polygon fill="white" stroke="#666666" points="134.12,-395 28.12,-395 28.12,-375 134.12,-375 134.12,-395"/>
<text xml:space="preserve" text-anchor="middle" x="81.12" y="-381.5" font-family="Helvetica,sans-Serif" font-size="10.00">SDL_OpenGamepad</text>
</a>
</g>
</g>
<!-- Node5&#45;&gt;Node6 -->
<g id="edge5_Node000005_Node000006" class="edge">
<title>Node5&#45;&gt;Node6</title>
<g id="a_edge5_Node000005_Node000006"><a xlink:title=" ">
<path fill="none" stroke="#63b8ff" d="M202.82,-385C180.69,-385 155.89,-385 134.55,-385"/>
<polygon fill="#63b8ff" stroke="#63b8ff" points="202.61,-388.5 212.61,-385 202.61,-381.5 202.61,-388.5"/>
</a>
</g>
</g>
<!-- Node8 -->
<g id="Node000008" class="node">
<title>Node8</title>
<g id="a_Node000008"><a xlink:href="../../d6/df9/SDL__joystick_8c.html#a497945f75b33dbfcde319992145025c5" target="_top" xlink:title=" ">
<polygon fill="white" stroke="#666666" points="522.38,-376 381.88,-376 381.88,-356 522.38,-356 522.38,-376"/>
<text xml:space="preserve" text-anchor="middle" x="452.12" y="-362.5" font-family="Helvetica,sans-Serif" font-size="10.00">ShouldAttemptSensorFusion</text>
</a>
</g>
</g>
<!-- Node7&#45;&gt;Node8 -->
<g id="edge7_Node000007_Node000008" class="edge">
<title>Node7&#45;&gt;Node8</title>
<g id="a_edge7_Node000007_Node000008"><a xlink:title=" ">
<path fill="none" stroke="#63b8ff" d="M608.69,-366C583.69,-366 551.39,-366 522.71,-366"/>
<polygon fill="#63b8ff" stroke="#63b8ff" points="608.46,-369.5 618.46,-366 608.46,-362.5 608.46,-369.5"/>
</a>
</g>
</g>
<!-- Node8&#45;&gt;Node5 -->
<g id="edge8_Node000008_Node000005" class="edge">
<title>Node8&#45;&gt;Node5</title>
<g id="a_edge8_Node000008_Node000005"><a xlink:title=" ">
<path fill="none" stroke="#63b8ff" d="M370.36,-374.28C351.68,-376.19 332.33,-378.18 315.44,-379.91"/>
<polygon fill="#63b8ff" stroke="#63b8ff" points="370.47,-377.78 380.07,-373.28 369.76,-370.82 370.47,-377.78"/>
</a>
</g>
</g>
<!-- Node10 -->
<g id="Node000010" class="node">
<title>Node10</title>
<g id="a_Node000010"><a xlink:href="../../d6/d3d/SDL__video_8c.html#a9f3d88531134e2c3e575a3c2db7f8488" target="_top" xlink:title=" ">
<polygon fill="white" stroke="#666666" points="537,-319 367.25,-319 367.25,-299 537,-299 537,-319"/>
<text xml:space="preserve" text-anchor="middle" x="452.12" y="-305.5" font-family="Helvetica,sans-Serif" font-size="10.00">SDL_CreateWindowWithProperties</text>
</a>
</g>
</g>
<!-- Node9&#45;&gt;Node10 -->
<g id="edge10_Node000009_Node000010" class="edge">
<title>Node9&#45;&gt;Node10</title>
<g id="a_edge10_Node000009_Node000010"><a xlink:title=" ">
<path fill="none" stroke="#63b8ff" d="M613.37,-324.4C591.84,-322.33 563.89,-319.64 537.38,-317.09"/>
<polygon fill="#63b8ff" stroke="#63b8ff" points="612.82,-327.86 623.11,-325.33 613.49,-320.89 612.82,-327.86"/>
</a>
</g>
</g>
<!-- Node11 -->
<g id="Node000011" class="node">
<title>Node11</title>
<g id="a_Node000011"><a xlink:href="../../d6/d3d/SDL__video_8c.html#acc26de39ce1bd675446e4d6c05ebf4b0" target="_top" xlink:title=" ">
<polygon fill="white" stroke="#666666" points="331.25,-319 198.25,-319 198.25,-299 331.25,-299 331.25,-319"/>
<text xml:space="preserve" text-anchor="middle" x="264.75" y="-305.5" font-family="Helvetica,sans-Serif" font-size="10.00">SDL_CreatePopupWindow</text>
</a>
</g>
</g>
<!-- Node10&#45;&gt;Node11 -->
<g id="edge11_Node000010_Node000011" class="edge">
<title>Node10&#45;&gt;Node11</title>
<g id="a_edge11_Node000010_Node000011"><a xlink:title=" ">
<path fill="none" stroke="#63b8ff" d="M355.42,-309C347.33,-309 339.27,-309 331.5,-309"/>
<polygon fill="#63b8ff" stroke="#63b8ff" points="355.33,-312.5 365.33,-309 355.33,-305.5 355.33,-312.5"/>
</a>
</g>
</g>
<!-- Node12 -->
<g id="Node000012" class="node">
<title>Node12</title>
<g id="a_Node000012"><a xlink:href="../../d6/d3d/SDL__video_8c.html#a83103c86f9e5c33ab9e1fb6dfa904b7f" target="_top" xlink:title=" ">
<polygon fill="white" stroke="#666666" points="317.38,-215 212.12,-215 212.12,-195 317.38,-195 317.38,-215"/>
<text xml:space="preserve" text-anchor="middle" x="264.75" y="-201.5" font-family="Helvetica,sans-Serif" font-size="10.00">SDL_CreateWindow</text>
</a>
</g>
</g>
<!-- Node10&#45;&gt;Node12 -->
<g id="edge12_Node000010_Node000012" class="edge">
<title>Node10&#45;&gt;Node12</title>
<g id="a_edge12_Node000010_Node000012"><a xlink:title=" ">
<path fill="none" stroke="#63b8ff" d="M414.89,-294.01C399.89,-287.45 382.48,-279.34 367.25,-271 334.99,-253.33 299.4,-228.98 280.11,-215.34"/>
<polygon fill="#63b8ff" stroke="#63b8ff" points="413.35,-297.16 423.92,-297.91 416.12,-290.73 413.35,-297.16"/>
</a>
</g>
</g>
<!-- Node13 -->
<g id="Node000013" class="node">
<title>Node13</title>
<g id="a_Node000013"><a xlink:href="../../dd/df3/SDL__render_8c.html#a36f859fae15e4277ba052f9ecfb2816d" target="_top" xlink:title=" ">
<polygon fill="white" stroke="#666666" points="162.25,-160 0,-160 0,-140 162.25,-140 162.25,-160"/>
<text xml:space="preserve" text-anchor="middle" x="81.12" y="-146.5" font-family="Helvetica,sans-Serif" font-size="10.00">SDL_CreateWindowAndRenderer</text>
</a>
</g>
</g>
<!-- Node12&#45;&gt;Node13 -->
<g id="edge13_Node000012_Node000013" class="edge">
<title>Node12&#45;&gt;Node13</title>
<g id="a_edge13_Node000012_Node000013"><a xlink:title=" ">
<path fill="none" stroke="#63b8ff" d="M218.45,-191.28C186.9,-181.73 145.46,-169.18 116.59,-160.44"/>
<polygon fill="#63b8ff" stroke="#63b8ff" points="217.13,-194.54 227.71,-194.09 219.16,-187.84 217.13,-194.54"/>
</a>
</g>
</g>
<!-- Node14&#45;&gt;Node3 -->
<g id="edge15_Node000014_Node000003" class="edge">
<title>Node14&#45;&gt;Node3</title>
<g id="a_edge15_Node000014_Node000003"><a xlink:title=" ">
<path fill="none" stroke="#63b8ff" d="M711.39,-285.31C717.95,-283.64 724.51,-281.84 730.75,-280 766.42,-269.48 807.65,-254.32 827.78,-243.32"/>
<polygon fill="#63b8ff" stroke="#63b8ff" points="710.8,-281.85 701.9,-287.6 712.44,-288.65 710.8,-281.85"/>
</a>
</g>
</g>
<!-- Node16 -->
<g id="Node000016" class="node">
<title>Node16</title>
<g id="a_Node000016"><a xlink:href="../../dd/db5/generic_2SDL__sysmain__callbacks_8c.html#aa50e1897a91f2547b5f31125020220e2" target="_top" xlink:title=" ">
<polygon fill="white" stroke="#666666" points="525,-262 379.25,-262 379.25,-242 525,-242 525,-262"/>
<text xml:space="preserve" text-anchor="middle" x="452.12" y="-248.5" font-family="Helvetica,sans-Serif" font-size="10.00">SDL_EnterAppMainCallbacks</text>
</a>
</g>
</g>
<!-- Node15&#45;&gt;Node16 -->
<g id="edge17_Node000015_Node000016" class="edge">
<title>Node15&#45;&gt;Node16</title>
<g id="a_edge17_Node000015_Node000016"><a xlink:title=" ">
<path fill="none" stroke="#63b8ff" d="M580.79,-252C562.81,-252 543.44,-252 525.35,-252"/>
<polygon fill="#63b8ff" stroke="#63b8ff" points="580.57,-255.5 590.57,-252 580.57,-248.5 580.57,-255.5"/>
</a>
</g>
</g>
<!-- Node17&#45;&gt;Node3 -->
<g id="edge19_Node000017_Node000003" class="edge">
<title>Node17&#45;&gt;Node3</title>
<g id="a_edge19_Node000017_Node000003"><a xlink:title=" ">
<path fill="none" stroke="#63b8ff" d="M709.52,-226.01C734.63,-229.26 763.96,-232.18 788.46,-233.87"/>
<polygon fill="#63b8ff" stroke="#63b8ff" points="710.19,-222.56 699.81,-224.7 709.25,-229.5 710.19,-222.56"/>
</a>
</g>
</g>
<!-- Node18&#45;&gt;Node3 -->
<g id="edge21_Node000018_Node000003" class="edge">
<title>Node18&#45;&gt;Node3</title>
<g id="a_edge21_Node000018_Node000003"><a xlink:title=" ">
<path fill="none" stroke="#63b8ff" d="M680.03,-189.91C695.07,-194.42 714.05,-199.07 730.75,-204 749.93,-209.66 770.73,-216.66 788.98,-222.58"/>
<polygon fill="#63b8ff" stroke="#63b8ff" points="681.44,-186.68 670.84,-186.94 679.29,-193.34 681.44,-186.68"/>
</a>
</g>
</g>
<!-- Node19&#45;&gt;Node3 -->
<g id="edge23_Node000019_Node000003" class="edge">
<title>Node19&#45;&gt;Node3</title>
<g id="a_edge23_Node000019_Node000003"><a xlink:title=" ">
<path fill="none" stroke="#63b8ff" d="M685.27,-151.36C699.61,-155.09 716.43,-159.55 730.75,-166 764.9,-181.39 799.63,-207.73 820.53,-222.73"/>
<polygon fill="#63b8ff" stroke="#63b8ff" points="686.42,-148.04 675.86,-148.88 684.63,-154.81 686.42,-148.04"/>
</a>
</g>
</g>
<!-- Node21 -->
<g id="Node000021" class="node">
<title>Node21</title>
<g id="a_Node000021"><a xlink:href="../../de/dc9/SDL__gpu_8c.html#a122c3b8baf4b5e842b552eb88145c4c5" target="_top" xlink:title=" ">
<polygon fill="white" stroke="#666666" points="902.38,-134 779.88,-134 779.88,-114 902.38,-114 902.38,-134"/>
<text xml:space="preserve" text-anchor="middle" x="841.12" y="-120.5" font-family="Helvetica,sans-Serif" font-size="10.00">SDL_CreateGPUDevice</text>
</a>
</g>
</g>
<!-- Node20&#45;&gt;Node21 -->
<g id="edge25_Node000020_Node000021" class="edge">
<title>Node20&#45;&gt;Node21</title>
<g id="a_edge25_Node000020_Node000021"><a xlink:title=" ">
<path fill="none" stroke="#63b8ff" d="M939.83,-124C927.08,-124 914.39,-124 902.59,-124"/>
<polygon fill="#63b8ff" stroke="#63b8ff" points="939.53,-127.5 949.53,-124 939.53,-120.5 939.53,-127.5"/>
</a>
</g>
</g>
<!-- Node23 -->
<g id="Node000023" class="node">
<title>Node23</title>
<g id="a_Node000023"><a xlink:href="../../dd/df3/SDL__render_8c.html#a938956b40b80ca18f9fe8a2584916c19" target="_top" xlink:title=" ">
<polygon fill="white" stroke="#666666" points="906.88,-96 775.38,-96 775.38,-76 906.88,-76 906.88,-96"/>
<text xml:space="preserve" text-anchor="middle" x="841.12" y="-82.5" font-family="Helvetica,sans-Serif" font-size="10.00">SDL_CreateGPURenderer</text>
</a>
</g>
</g>
<!-- Node22&#45;&gt;Node23 -->
<g id="edge27_Node000022_Node000023" class="edge">
<title>Node22&#45;&gt;Node23</title>
<g id="a_edge27_Node000022_Node000023"><a xlink:title=" ">
<path fill="none" stroke="#63b8ff" d="M946.35,-86C933.03,-86 919.63,-86 907.08,-86"/>
<polygon fill="#63b8ff" stroke="#63b8ff" points="945.99,-89.5 955.99,-86 945.99,-82.5 945.99,-89.5"/>
</a>
</g>
</g>
<!-- Node24 -->
<g id="Node000024" class="node">
<title>Node24</title>
<g id="a_Node000024"><a xlink:href="../../dd/df3/SDL__render_8c.html#a6a2f5a459a309db3da78480c8338ff72" target="_top" xlink:title=" ">
<polygon fill="white" stroke="#666666" points="896,-58 786.25,-58 786.25,-38 896,-38 896,-58"/>
<text xml:space="preserve" text-anchor="middle" x="841.12" y="-44.5" font-family="Helvetica,sans-Serif" font-size="10.00">SDL_CreateRenderer</text>
</a>
</g>
</g>
<!-- Node22&#45;&gt;Node24 -->
<g id="edge28_Node000022_Node000024" class="edge">
<title>Node22&#45;&gt;Node24</title>
<g id="a_edge28_Node000022_Node000024"><a xlink:title=" ">
<path fill="none" stroke="#63b8ff" d="M977.27,-73.44C950.98,-68.49 921.17,-62.88 896.25,-58.19"/>
<polygon fill="#63b8ff" stroke="#63b8ff" points="976.34,-76.83 986.81,-75.24 977.64,-69.95 976.34,-76.83"/>
</a>
</g>
</g>
<!-- Node28 -->
<g id="Node000028" class="node">
<title>Node28</title>
<g id="a_Node000028"><a xlink:href="../../dd/df3/SDL__render_8c.html#a78f971f18d9db412a4df5e3d9ebbf700" target="_top" xlink:title=" ">
<polygon fill="white" stroke="#666666" points="915.5,-20 766.75,-20 766.75,0 915.5,0 915.5,-20"/>
<text xml:space="preserve" text-anchor="middle" x="841.12" y="-6.5" font-family="Helvetica,sans-Serif" font-size="10.00">SDL_CreateSoftwareRenderer</text>
</a>
</g>
</g>
<!-- Node22&#45;&gt;Node28 -->
<g id="edge33_Node000022_Node000028" class="edge">
<title>Node22&#45;&gt;Node28</title>
<g id="a_edge33_Node000022_Node000028"><a xlink:title=" ">
<path fill="none" stroke="#63b8ff" d="M960.79,-71.56C957.6,-70.17 954.48,-68.66 951.5,-67 931.17,-55.69 935.54,-40.82 915.5,-29 909.72,-25.59 903.33,-22.79 896.8,-20.48"/>
<polygon fill="#63b8ff" stroke="#63b8ff" points="959.24,-74.71 969.83,-75 961.74,-68.17 959.24,-74.71"/>
</a>
</g>
</g>
<!-- Node24&#45;&gt;Node13 -->
<g id="edge29_Node000024_Node000013" class="edge">
<title>Node24&#45;&gt;Node13</title>
<g id="a_edge29_Node000024_Node000013"><a xlink:title=" ">
<path fill="none" stroke="#63b8ff" d="M775.02,-59.8C760.47,-62.3 745.1,-64.84 730.75,-67 526.72,-97.76 285.46,-126.68 162.68,-140.87"/>
<polygon fill="#63b8ff" stroke="#63b8ff" points="775.22,-63.32 784.47,-58.16 774.02,-56.42 775.22,-63.32"/>
</a>
</g>
</g>
<!-- Node25 -->
<g id="Node000025" class="node">
<title>Node25</title>
<g id="a_Node000025"><a xlink:href="../../d6/d3d/SDL__video_8c.html#ae87638d537fdd872b08bfb7a68f4bf1a" target="_top" xlink:title=" ">
<polygon fill="white" stroke="#666666" points="720.62,-58 583.12,-58 583.12,-38 720.62,-38 720.62,-58"/>
<text xml:space="preserve" text-anchor="middle" x="651.88" y="-44.5" font-family="Helvetica,sans-Serif" font-size="10.00">SDL_CreateWindowTexture</text>
</a>
</g>
</g>
<!-- Node24&#45;&gt;Node25 -->
<g id="edge30_Node000024_Node000025" class="edge">
<title>Node24&#45;&gt;Node25</title>
<g id="a_edge30_Node000024_Node000025"><a xlink:title=" ">
<path fill="none" stroke="#63b8ff" d="M774.75,-48C757.33,-48 738.47,-48 720.92,-48"/>
<polygon fill="#63b8ff" stroke="#63b8ff" points="774.45,-51.5 784.45,-48 774.45,-44.5 774.45,-51.5"/>
</a>
</g>
</g>
<!-- Node26 -->
<g id="Node000026" class="node">
<title>Node26</title>
<g id="a_Node000026"><a xlink:href="../../d6/d3d/SDL__video_8c.html#ae6c55eb5cc6ca81ba6faa17eab3af85b" target="_top" xlink:title=" ">
<polygon fill="white" stroke="#666666" points="530.62,-58 373.62,-58 373.62,-38 530.62,-38 530.62,-58"/>
<text xml:space="preserve" text-anchor="middle" x="452.12" y="-44.5" font-family="Helvetica,sans-Serif" font-size="10.00">SDL_CreateWindowFramebuffer</text>
</a>
</g>
</g>
<!-- Node25&#45;&gt;Node26 -->
<g id="edge31_Node000025_Node000026" class="edge">
<title>Node25&#45;&gt;Node26</title>
<g id="a_edge31_Node000025_Node000026"><a xlink:title=" ">
<path fill="none" stroke="#63b8ff" d="M571.66,-48C558.2,-48 544.23,-48 530.82,-48"/>
<polygon fill="#63b8ff" stroke="#63b8ff" points="571.31,-51.5 581.31,-48 571.31,-44.5 571.31,-51.5"/>
</a>
</g>
</g>
<!-- Node27 -->
<g id="Node000027" class="node">
<title>Node27</title>
<g id="a_Node000027"><a xlink:href="../../d6/d3d/SDL__video_8c.html#a155d3f01bb23f59e2c724973e020ebe6" target="_top" xlink:title=" ">
<polygon fill="white" stroke="#666666" points="327.5,-58 202,-58 202,-38 327.5,-38 327.5,-58"/>
<text xml:space="preserve" text-anchor="middle" x="264.75" y="-44.5" font-family="Helvetica,sans-Serif" font-size="10.00">SDL_GetWindowSurface</text>
</a>
</g>
</g>
<!-- Node26&#45;&gt;Node27 -->
<g id="edge32_Node000026_Node000027" class="edge">
<title>Node26&#45;&gt;Node27</title>
<g id="a_edge32_Node000026_Node000027"><a xlink:title=" ">
<path fill="none" stroke="#63b8ff" d="M361.87,-48C350.37,-48 338.81,-48 327.88,-48"/>
<polygon fill="#63b8ff" stroke="#63b8ff" points="361.8,-51.5 371.8,-48 361.8,-44.5 361.8,-51.5"/>
</a>
</g>
</g>
<!-- Node29&#45;&gt;Node3 -->
<g id="edge35_Node000029_Node000003" class="edge">
<title>Node29&#45;&gt;Node3</title>
<g id="a_edge35_Node000029_Node000003"><a xlink:title=" ">
<path fill="none" stroke="#63b8ff" d="M993.85,-208.2C963.42,-213.17 924.65,-219.51 893.92,-224.53"/>
<polygon fill="#63b8ff" stroke="#63b8ff" points="994.28,-211.67 1003.58,-206.61 993.15,-204.77 994.28,-211.67"/>
</a>
</g>
</g>
</g>
</svg>

<g id="navigator" transform="translate(0 0)" fill="#404254">
  <rect fill="#f2f5e9" fill-opacity="0.5" stroke="#606060" stroke-width=".5" x="0" y="0" width="60" height="60"/>
  <use id="zoomplus" xlink:href="#zoomPlus" x="17" y="9" onmousedown="handleZoom(evt,'in')"/>
  <use id="zoomminus" xlink:href="#zoomMin" x="42" y="9" onmousedown="handleZoom(evt,'out')"/>
  <use id="reset" xlink:href="#resetDef" x="30" y="36" onmousedown="handleReset()"/>
   <use id="arrowup" xlink:href="#arrowUp" x="0" y="0" onmousedown="handlePan(0,-1)"/>
  <use id="arrowright" xlink:href="#arrowRight" x="0" y="0" onmousedown="handlePan(1,0)"/>
  <use id="arrowdown" xlink:href="#arrowDown" x="0" y="0" onmousedown="handlePan(0,1)"/>
  <use id="arrowleft" xlink:href="#arrowLeft" x="0" y="0" onmousedown="handlePan(-1,0)"/>
</g>
<svg viewBox="0 0 15 15" width="100%" height="30px" preserveAspectRatio="xMaxYMin meet">
 <g id="arrow_out" transform="scale(0.3 0.3)">
  <a xlink:href="SDL__utils_8c_af7e4783f4a1adbe30d586b2e45032c05_icgraph_org.svg" target="_base">
   <rect id="button" ry="5" rx="5" y="6" x="6" height="38" width="38"
        fill="#f2f5e9" fill-opacity="0.5" stroke="#606060" stroke-width="1.0"/>
   <path id="arrow"
     d="M 11.500037,31.436501 C 11.940474,20.09759 22.043105,11.32322 32.158766,21.979434 L 37.068811,17.246167 C 37.068811,17.246167 37.088388,32 37.088388,32 L 22.160133,31.978069 C 22.160133,31.978069 26.997745,27.140456 26.997745,27.140456 C 18.528582,18.264221 13.291696,25.230495 11.500037,31.436501 z"
     style="fill:#404040;"/>
  </a>
 </g>
</svg>

<style type='text/css'>
<![CDATA[
[data-mouse-over-selected='false'] { opacity: 0.7; }
[data-mouse-over-selected='true']  { opacity: 1.0; }
]]>
</style>
<script type="application/ecmascript"><![CDATA[
document.addEventListener('DOMContentLoaded', (event) => {
  highlightEdges();
  highlightAdjacentNodes();
});
]]></script>
</svg>
