<?xml version="1.0" encoding="UTF-8" standalone="no"?>
<!DOCTYPE svg PUBLIC "-//W3C//DTD SVG 1.1//EN"
 "http://www.w3.org/Graphics/SVG/1.1/DTD/svg11.dtd">
<!-- Generated by graphviz version 13.1.0 (20250701.0955)
 -->
<!-- Title: SurfaceList Pages: 1 -->
<svg width="911pt" height="370pt"
 viewBox="0.00 0.00 911.00 370.00" xmlns="http://www.w3.org/2000/svg" xmlns:xlink="http://www.w3.org/1999/xlink">
<g id="graph0" class="graph" transform="scale(1 1) rotate(0) translate(4 366)">
<title>SurfaceList</title>
<!-- Node1 -->
<g id="Node000001" class="node">
<title>Node1</title>
<g id="a_Node000001"><a xlink:title=" ">
<polygon fill="#999999" stroke="#666666" points="860.12,-94 794.62,-94 794.62,-74 860.12,-74 860.12,-94"/>
<text xml:space="preserve" text-anchor="middle" x="827.38" y="-80.5" font-family="Helvetica,sans-Serif" font-size="10.00">SurfaceList</text>
</a>
</g>
</g>
<!-- Node1&#45;&gt;Node1 -->
<g id="edge22_Node000001_Node000001" class="edge">
<title>Node1&#45;&gt;Node1</title>
<g id="a_edge22_Node000001_Node000001"><a xlink:title=" ">
<path fill="none" stroke="#9a32cd" stroke-dasharray="5,2" d="M871.81,-89.44C875.69,-88.29 878.12,-86.48 878.12,-84 878.12,-79.59 870.44,-77.28 860.57,-77.08"/>
<polygon fill="#9a32cd" stroke="#9a32cd" points="871.53,-85.95 862.07,-90.73 872.44,-92.89 871.53,-85.95"/>
</a>
</g>
<text xml:space="preserve" text-anchor="start" x="881.12" y="-80.5" font-family="Helvetica,sans-Serif" font-size="10.00" fill="grey">next</text>
</g>
<!-- Node2 -->
<g id="Node000002" class="node">
<title>Node2</title>
<g id="a_Node000002"><a xlink:href="../../d0/de5/structSDL__Surface.html" target="_top" xlink:title=" ">
<polygon fill="white" stroke="#666666" points="733.62,-191 659.12,-191 659.12,-171 733.62,-171 733.62,-191"/>
<text xml:space="preserve" text-anchor="middle" x="696.38" y="-177.5" font-family="Helvetica,sans-Serif" font-size="10.00">SDL_Surface</text>
</a>
</g>
</g>
<!-- Node2&#45;&gt;Node1 -->
<g id="edge1_Node000001_Node000002" class="edge">
<title>Node2&#45;&gt;Node1</title>
<g id="a_edge1_Node000001_Node000002"><a xlink:title=" ">
<path fill="none" stroke="#9a32cd" stroke-dasharray="5,2" d="M730.32,-165.92C741.9,-160.44 754.62,-153.64 765.38,-146 787.29,-130.44 808.7,-107.02 819.72,-94.2"/>
<polygon fill="#9a32cd" stroke="#9a32cd" points="729.13,-162.61 721.48,-169.94 732.03,-168.99 729.13,-162.61"/>
</a>
</g>
<text xml:space="preserve" text-anchor="start" x="805.36" y="-125.5" font-family="Helvetica,sans-Serif" font-size="10.00" fill="grey">surface</text>
</g>
<!-- Node2&#45;&gt;Node2 -->
<g id="edge5_Node000002_Node000002" class="edge">
<title>Node2&#45;&gt;Node2</title>
<g id="a_edge5_Node000002_Node000002"><a xlink:title=" ">
<path fill="none" stroke="#9a32cd" stroke-dasharray="5,2" d="M745.36,-187.27C749.23,-185.89 751.62,-183.8 751.62,-181 751.62,-176.02 744.06,-173.29 734.08,-172.82"/>
<polygon fill="#9a32cd" stroke="#9a32cd" points="744.84,-183.8 735.57,-188.92 746.01,-190.71 744.84,-183.8"/>
</a>
</g>
<text xml:space="preserve" text-anchor="start" x="754.62" y="-177.5" font-family="Helvetica,sans-Serif" font-size="10.00" fill="grey">images</text>
</g>
<!-- Node7 -->
<g id="Node000007" class="node">
<title>Node7</title>
<g id="a_Node000007"><a xlink:href="../../d5/da9/structSDL__BlitMap.html" target="_top" xlink:title=" ">
<polygon fill="white" stroke="#666666" points="733.25,-20 659.5,-20 659.5,0 733.25,0 733.25,-20"/>
<text xml:space="preserve" text-anchor="middle" x="696.38" y="-6.5" font-family="Helvetica,sans-Serif" font-size="10.00">SDL_BlitMap</text>
</a>
</g>
</g>
<!-- Node2&#45;&gt;Node7 -->
<g id="edge8_Node000007_Node000002" class="edge">
<title>Node2&#45;&gt;Node7</title>
<g id="a_edge8_Node000007_Node000002"><a xlink:title=" ">
<path fill="none" stroke="#9a32cd" stroke-dasharray="5,2" d="M696.38,-159.68C696.38,-122.85 696.38,-46.44 696.38,-20.13"/>
<polygon fill="#9a32cd" stroke="#9a32cd" points="692.88,-159.4 696.38,-169.4 699.88,-159.4 692.88,-159.4"/>
</a>
</g>
<text xml:space="preserve" text-anchor="start" x="699.38" y="-80.5" font-family="Helvetica,sans-Serif" font-size="10.00" fill="grey">blit</text>
</g>
<!-- Node8 -->
<g id="Node000008" class="node">
<title>Node8</title>
<g id="a_Node000008"><a xlink:href="../../d0/d1d/structSDL__BlitInfo.html" target="_top" xlink:title=" ">
<polygon fill="white" stroke="#666666" points="627.12,-94 555.62,-94 555.62,-74 627.12,-74 627.12,-94"/>
<text xml:space="preserve" text-anchor="middle" x="591.38" y="-80.5" font-family="Helvetica,sans-Serif" font-size="10.00">SDL_BlitInfo</text>
</a>
</g>
</g>
<!-- Node2&#45;&gt;Node8 -->
<g id="edge10_Node000008_Node000002" class="edge">
<title>Node2&#45;&gt;Node8</title>
<g id="a_edge10_Node000008_Node000002"><a xlink:title=" ">
<path fill="none" stroke="#9a32cd" stroke-dasharray="5,2" d="M656.34,-166.05C645.43,-160.93 634.2,-154.3 625.38,-146 617.16,-138.28 602.93,-109.58 595.77,-94.46"/>
<polygon fill="#9a32cd" stroke="#9a32cd" points="654.66,-169.13 665.23,-169.9 657.44,-162.71 654.66,-169.13"/>
</a>
</g>
<text xml:space="preserve" text-anchor="start" x="628.38" y="-133.5" font-family="Helvetica,sans-Serif" font-size="10.00" fill="grey">dst_surface</text>
<text xml:space="preserve" text-anchor="start" x="628.38" y="-117.5" font-family="Helvetica,sans-Serif" font-size="10.00" fill="grey">src_surface</text>
</g>
<!-- Node3 -->
<g id="Node000003" class="node">
<title>Node3</title>
<g id="a_Node000003"><a xlink:href="../../d3/d2d/structSDL__PixelFormatDetails.html" target="_top" xlink:title=" ">
<polygon fill="white" stroke="#666666" points="596.38,-272 472.38,-272 472.38,-252 596.38,-252 596.38,-272"/>
<text xml:space="preserve" text-anchor="middle" x="534.38" y="-258.5" font-family="Helvetica,sans-Serif" font-size="10.00">SDL_PixelFormatDetails</text>
</a>
</g>
</g>
<!-- Node3&#45;&gt;Node2 -->
<g id="edge2_Node000002_Node000003" class="edge">
<title>Node3&#45;&gt;Node2</title>
<g id="a_edge2_Node000002_Node000003"><a xlink:title=" ">
<path fill="none" stroke="#9a32cd" stroke-dasharray="5,2" d="M563.93,-246.59C596.77,-230.57 648.86,-205.17 676.93,-191.48"/>
<polygon fill="#9a32cd" stroke="#9a32cd" points="562.41,-243.43 554.96,-250.96 565.48,-249.73 562.41,-243.43"/>
</a>
</g>
<text xml:space="preserve" text-anchor="start" x="628.07" y="-221.5" font-family="Helvetica,sans-Serif" font-size="10.00" fill="grey">fmt</text>
</g>
<!-- Node3&#45;&gt;Node8 -->
<g id="edge11_Node000008_Node000003" class="edge">
<title>Node3&#45;&gt;Node8</title>
<g id="a_edge11_Node000008_Node000003"><a xlink:title=" ">
<path fill="none" stroke="#9a32cd" stroke-dasharray="5,2" d="M529.3,-240.41C525.33,-220.34 521.76,-189.24 530.38,-164 540.33,-134.81 565.93,-108.02 580.61,-94.4"/>
<polygon fill="#9a32cd" stroke="#9a32cd" points="525.87,-241.11 531.46,-250.11 532.71,-239.59 525.87,-241.11"/>
</a>
</g>
<text xml:space="preserve" text-anchor="start" x="533.38" y="-185.5" font-family="Helvetica,sans-Serif" font-size="10.00" fill="grey">dst_fmt</text>
<text xml:space="preserve" text-anchor="start" x="533.38" y="-169.5" font-family="Helvetica,sans-Serif" font-size="10.00" fill="grey">src_fmt</text>
</g>
<!-- Node4 -->
<g id="Node000004" class="node">
<title>Node4</title>
<g id="a_Node000004"><a xlink:href="../../d4/da3/structSDL__Palette.html" target="_top" xlink:title=" ">
<polygon fill="white" stroke="#666666" points="686.12,-272 614.62,-272 614.62,-252 686.12,-252 686.12,-272"/>
<text xml:space="preserve" text-anchor="middle" x="650.38" y="-258.5" font-family="Helvetica,sans-Serif" font-size="10.00">SDL_Palette</text>
</a>
</g>
</g>
<!-- Node4&#45;&gt;Node2 -->
<g id="edge3_Node000002_Node000004" class="edge">
<title>Node4&#45;&gt;Node2</title>
<g id="a_edge3_Node000002_Node000004"><a xlink:title=" ">
<path fill="none" stroke="#9a32cd" stroke-dasharray="5,2" d="M660.22,-241.38C664.35,-233.41 669.31,-224.17 674.12,-216 679.14,-207.49 685.32,-198.12 689.9,-191.38"/>
<polygon fill="#9a32cd" stroke="#9a32cd" points="657.15,-239.7 655.72,-250.2 663.38,-242.88 657.15,-239.7"/>
</a>
</g>
<text xml:space="preserve" text-anchor="start" x="677.12" y="-221.5" font-family="Helvetica,sans-Serif" font-size="10.00" fill="grey">palette</text>
</g>
<!-- Node4&#45;&gt;Node8 -->
<g id="edge12_Node000008_Node000004" class="edge">
<title>Node4&#45;&gt;Node8</title>
<g id="a_edge12_Node000008_Node000004"><a xlink:title=" ">
<path fill="none" stroke="#9a32cd" stroke-dasharray="5,2" d="M636.89,-242.32C628.77,-230.22 618.88,-213.83 612.88,-198 598.93,-161.22 593.71,-114.13 592.05,-94.38"/>
<polygon fill="#9a32cd" stroke="#9a32cd" points="633.97,-244.26 642.56,-250.47 639.72,-240.26 633.97,-244.26"/>
</a>
</g>
<text xml:space="preserve" text-anchor="start" x="615.88" y="-185.5" font-family="Helvetica,sans-Serif" font-size="10.00" fill="grey">dst_pal</text>
<text xml:space="preserve" text-anchor="start" x="615.88" y="-169.5" font-family="Helvetica,sans-Serif" font-size="10.00" fill="grey">src_pal</text>
</g>
<!-- Node5 -->
<g id="Node000005" class="node">
<title>Node5</title>
<g id="a_Node000005"><a xlink:href="../../d7/d0a/structSDL__Color.html" target="_top" xlink:title=" ">
<polygon fill="white" stroke="#666666" points="682.38,-362 618.38,-362 618.38,-342 682.38,-342 682.38,-362"/>
<text xml:space="preserve" text-anchor="middle" x="650.38" y="-348.5" font-family="Helvetica,sans-Serif" font-size="10.00">SDL_Color</text>
</a>
</g>
</g>
<!-- Node5&#45;&gt;Node4 -->
<g id="edge4_Node000004_Node000005" class="edge">
<title>Node5&#45;&gt;Node4</title>
<g id="a_edge4_Node000004_Node000005"><a xlink:title=" ">
<path fill="none" stroke="#9a32cd" stroke-dasharray="5,2" d="M650.38,-330.09C650.38,-311.77 650.38,-286.01 650.38,-272.35"/>
<polygon fill="#9a32cd" stroke="#9a32cd" points="646.88,-330.07 650.38,-340.07 653.88,-330.07 646.88,-330.07"/>
</a>
</g>
<text xml:space="preserve" text-anchor="start" x="653.38" y="-303.5" font-family="Helvetica,sans-Serif" font-size="10.00" fill="grey">colors</text>
</g>
<!-- Node6 -->
<g id="Node000006" class="node">
<title>Node6</title>
<g id="a_Node000006"><a xlink:href="../../dd/da6/structSDL__Rect.html" target="_top" xlink:title=" ">
<polygon fill="white" stroke="#666666" points="766.25,-272 704.5,-272 704.5,-252 766.25,-252 766.25,-272"/>
<text xml:space="preserve" text-anchor="middle" x="735.38" y="-258.5" font-family="Helvetica,sans-Serif" font-size="10.00">SDL_Rect</text>
</a>
</g>
</g>
<!-- Node6&#45;&gt;Node2 -->
<g id="edge6_Node000002_Node000006" class="edge">
<title>Node6&#45;&gt;Node2</title>
<g id="a_edge6_Node000002_Node000006"><a xlink:title=" ">
<path fill="none" stroke="#9a32cd" stroke-dasharray="5,2" d="M725.86,-241.72C717.97,-225.74 707.09,-203.71 701,-191.36"/>
<polygon fill="#9a32cd" stroke="#9a32cd" points="722.51,-242.85 730.08,-250.27 728.79,-239.75 722.51,-242.85"/>
</a>
</g>
<text xml:space="preserve" text-anchor="start" x="724.65" y="-221.5" font-family="Helvetica,sans-Serif" font-size="10.00" fill="grey">clip_rect</text>
</g>
<!-- Node7&#45;&gt;Node2 -->
<g id="edge7_Node000002_Node000007" class="edge">
<title>Node7&#45;&gt;Node2</title>
<g id="a_edge7_Node000002_Node000007"><a xlink:title=" ">
<path fill="none" stroke="#9a32cd" stroke-dasharray="5,2" d="M707.14,-30.46C708.32,-32.96 709.43,-35.51 710.38,-38 716.21,-53.43 717.36,-57.63 719.38,-74 723.32,-106.01 719.32,-115.02 710.38,-146 707.9,-154.59 703.94,-163.95 700.87,-170.67"/>
<polygon fill="#9a32cd" stroke="#9a32cd" points="710.26,-28.86 702.55,-21.59 704.04,-32.08 710.26,-28.86"/>
</a>
</g>
<text xml:space="preserve" text-anchor="start" x="723.87" y="-80.5" font-family="Helvetica,sans-Serif" font-size="10.00" fill="grey">map</text>
</g>
<!-- Node8&#45;&gt;Node7 -->
<g id="edge9_Node000007_Node000008" class="edge">
<title>Node8&#45;&gt;Node7</title>
<g id="a_edge9_Node000007_Node000008"><a xlink:title=" ">
<path fill="none" stroke="#9a32cd" stroke-dasharray="5,2" d="M614.51,-67.13C635.37,-52.83 665.35,-32.27 682.64,-20.42"/>
<polygon fill="#9a32cd" stroke="#9a32cd" points="612.62,-64.19 606.35,-72.73 616.58,-69.96 612.62,-64.19"/>
</a>
</g>
<text xml:space="preserve" text-anchor="start" x="659.37" y="-43.5" font-family="Helvetica,sans-Serif" font-size="10.00" fill="grey">info</text>
</g>
<!-- Node9 -->
<g id="Node000009" class="node">
<title>Node9</title>
<g id="a_Node000009"><a xlink:href="../../da/d27/structSDL__HashTable.html" target="_top" xlink:title=" ">
<polygon fill="white" stroke="#666666" points="456,-191 368.75,-191 368.75,-171 456,-171 456,-191"/>
<text xml:space="preserve" text-anchor="middle" x="412.38" y="-177.5" font-family="Helvetica,sans-Serif" font-size="10.00">SDL_HashTable</text>
</a>
</g>
</g>
<!-- Node9&#45;&gt;Node8 -->
<g id="edge13_Node000008_Node000009" class="edge">
<title>Node9&#45;&gt;Node8</title>
<g id="a_edge13_Node000008_Node000009"><a xlink:title=" ">
<path fill="none" stroke="#9a32cd" stroke-dasharray="5,2" d="M416.21,-159.82C420.23,-144.34 428.14,-123.71 443.12,-112 460.19,-98.67 517.15,-91.29 555.29,-87.74"/>
<polygon fill="#9a32cd" stroke="#9a32cd" points="412.84,-158.86 414.08,-169.38 419.67,-160.38 412.84,-158.86"/>
</a>
</g>
<text xml:space="preserve" text-anchor="start" x="446.12" y="-125.5" font-family="Helvetica,sans-Serif" font-size="10.00" fill="grey">palette_map</text>
</g>
<!-- Node10 -->
<g id="Node000010" class="node">
<title>Node10</title>
<g id="a_Node000010"><a xlink:href="../../db/ddc/structSDL__RWLock.html" target="_top" xlink:title=" ">
<polygon fill="white" stroke="#666666" points="218.5,-272 140.25,-272 140.25,-252 218.5,-252 218.5,-272"/>
<text xml:space="preserve" text-anchor="middle" x="179.38" y="-258.5" font-family="Helvetica,sans-Serif" font-size="10.00">SDL_RWLock</text>
</a>
</g>
</g>
<!-- Node10&#45;&gt;Node9 -->
<g id="edge14_Node000009_Node000010" class="edge">
<title>Node10&#45;&gt;Node9</title>
<g id="a_edge14_Node000009_Node000010"><a xlink:title=" ">
<path fill="none" stroke="#9a32cd" stroke-dasharray="5,2" d="M217.65,-248.02C264.53,-232.13 342.81,-205.59 384.41,-191.48"/>
<polygon fill="#9a32cd" stroke="#9a32cd" points="216.8,-244.62 208.45,-251.14 219.05,-251.25 216.8,-244.62"/>
</a>
</g>
<text xml:space="preserve" text-anchor="start" x="312.83" y="-221.5" font-family="Helvetica,sans-Serif" font-size="10.00" fill="grey">lock</text>
</g>
<!-- Node11 -->
<g id="Node000011" class="node">
<title>Node11</title>
<g id="a_Node000011"><a xlink:href="../../d0/df2/structSDL__Mutex.html" target="_top" xlink:title=" ">
<polygon fill="white" stroke="#666666" points="368.25,-362 300.5,-362 300.5,-342 368.25,-342 368.25,-362"/>
<text xml:space="preserve" text-anchor="middle" x="334.38" y="-348.5" font-family="Helvetica,sans-Serif" font-size="10.00">SDL_Mutex</text>
</a>
</g>
</g>
<!-- Node11&#45;&gt;Node10 -->
<g id="edge15_Node000010_Node000011" class="edge">
<title>Node11&#45;&gt;Node10</title>
<g id="a_edge15_Node000010_Node000011"><a xlink:title=" ">
<path fill="none" stroke="#9a32cd" stroke-dasharray="5,2" d="M304.3,-335.98C298.68,-332.46 293.1,-328.43 288.38,-324 275.07,-311.52 280.01,-300.9 265.38,-290 251.82,-279.91 234.4,-273.52 218.78,-269.52"/>
<polygon fill="#9a32cd" stroke="#9a32cd" points="302.54,-339 312.95,-340.96 306.04,-332.94 302.54,-339"/>
</a>
</g>
<text xml:space="preserve" text-anchor="start" x="291.38" y="-303.5" font-family="Helvetica,sans-Serif" font-size="10.00" fill="grey">lock</text>
</g>
<!-- Node12 -->
<g id="Node000012" class="node">
<title>Node12</title>
<g id="a_Node000012"><a xlink:href="../../d8/d0b/structSDL__Semaphore.html" target="_top" xlink:title=" ">
<polygon fill="white" stroke="#666666" points="352.5,-272 262.25,-272 262.25,-252 352.5,-252 352.5,-272"/>
<text xml:space="preserve" text-anchor="middle" x="307.38" y="-258.5" font-family="Helvetica,sans-Serif" font-size="10.00">SDL_Semaphore</text>
</a>
</g>
</g>
<!-- Node11&#45;&gt;Node12 -->
<g id="edge17_Node000012_Node000011" class="edge">
<title>Node11&#45;&gt;Node12</title>
<g id="a_edge17_Node000012_Node000011"><a xlink:title=" ">
<path fill="none" stroke="#9a32cd" stroke-dasharray="5,2" d="M328.12,-330.61C322.49,-312.27 314.47,-286.14 310.24,-272.35"/>
<polygon fill="#9a32cd" stroke="#9a32cd" points="324.76,-331.6 331.04,-340.14 331.45,-329.55 324.76,-331.6"/>
</a>
</g>
<text xml:space="preserve" text-anchor="start" x="328.64" y="-303.5" font-family="Helvetica,sans-Serif" font-size="10.00" fill="grey">count_lock</text>
</g>
<!-- Node12&#45;&gt;Node11 -->
<g id="edge16_Node000011_Node000012" class="edge">
<title>Node12&#45;&gt;Node11</title>
<g id="a_edge16_Node000011_Node000012"><a xlink:title=" ">
<path fill="none" stroke="#9a32cd" stroke-dasharray="5,2" d="M360.86,-275.64C373.54,-279.75 384.52,-284.65 388.38,-290 397.21,-302.26 396.32,-311.15 388.38,-324 383.53,-331.85 375.63,-337.49 367.35,-341.52"/>
<polygon fill="#9a32cd" stroke="#9a32cd" points="361.97,-272.32 351.38,-272.81 359.97,-279.02 361.97,-272.32"/>
</a>
</g>
<text xml:space="preserve" text-anchor="start" x="397.67" y="-303.5" font-family="Helvetica,sans-Serif" font-size="10.00" fill="grey">sem</text>
</g>
<!-- Node13 -->
<g id="Node000013" class="node">
<title>Node13</title>
<g id="a_Node000013"><a xlink:href="../../d0/d07/structSDL__Condition.html" target="_top" xlink:title=" ">
<polygon fill="white" stroke="#666666" points="209.38,-362 127.38,-362 127.38,-342 209.38,-342 209.38,-362"/>
<text xml:space="preserve" text-anchor="middle" x="168.38" y="-348.5" font-family="Helvetica,sans-Serif" font-size="10.00">SDL_Condition</text>
</a>
</g>
</g>
<!-- Node13&#45;&gt;Node10 -->
<g id="edge19_Node000010_Node000013" class="edge">
<title>Node13&#45;&gt;Node10</title>
<g id="a_edge19_Node000010_Node000013"><a xlink:title=" ">
<path fill="none" stroke="#9a32cd" stroke-dasharray="5,2" d="M136.82,-335.24C133.03,-332.04 129.69,-328.3 127.38,-324 120.21,-310.7 119.53,-302.91 127.38,-290 132.13,-282.18 139.97,-276.52 148.13,-272.47"/>
<polygon fill="#9a32cd" stroke="#9a32cd" points="134.74,-338.05 144.95,-340.89 138.74,-332.31 134.74,-338.05"/>
</a>
</g>
<text xml:space="preserve" text-anchor="start" x="130.38" y="-303.5" font-family="Helvetica,sans-Serif" font-size="10.00" fill="grey">condition</text>
</g>
<!-- Node13&#45;&gt;Node12 -->
<g id="edge18_Node000012_Node000013" class="edge">
<title>Node13&#45;&gt;Node12</title>
<g id="a_edge18_Node000012_Node000013"><a xlink:title=" ">
<path fill="none" stroke="#9a32cd" stroke-dasharray="5,2" d="M172.58,-330.54C176.38,-317.12 183.34,-300.22 195.62,-290 214.04,-274.68 239.74,-267.79 261.86,-264.8"/>
<polygon fill="#9a32cd" stroke="#9a32cd" points="169.21,-329.58 170.27,-340.12 176.01,-331.22 169.21,-329.58"/>
</a>
</g>
<text xml:space="preserve" text-anchor="start" x="198.62" y="-303.5" font-family="Helvetica,sans-Serif" font-size="10.00" fill="grey">count_nonzero</text>
</g>
<!-- Node14 -->
<g id="Node000014" class="node">
<title>Node14</title>
<g id="a_Node000014"><a xlink:href="../../d1/dbc/structSDL__AtomicInt.html" target="_top" xlink:title=" ">
<polygon fill="white" stroke="#666666" points="82.75,-362 0,-362 0,-342 82.75,-342 82.75,-362"/>
<text xml:space="preserve" text-anchor="middle" x="41.38" y="-348.5" font-family="Helvetica,sans-Serif" font-size="10.00">SDL_AtomicInt</text>
</a>
</g>
</g>
<!-- Node14&#45;&gt;Node10 -->
<g id="edge20_Node000010_Node000014" class="edge">
<title>Node14&#45;&gt;Node10</title>
<g id="a_edge20_Node000010_Node000014"><a xlink:title=" ">
<path fill="none" stroke="#9a32cd" stroke-dasharray="5,2" d="M40.69,-330.33C41.4,-317.06 44.61,-300.43 55.12,-290 66.96,-278.26 108.06,-270.98 139.78,-266.98"/>
<polygon fill="#9a32cd" stroke="#9a32cd" points="37.19,-330.17 40.63,-340.19 44.19,-330.21 37.19,-330.17"/>
</a>
</g>
<text xml:space="preserve" text-anchor="start" x="58.12" y="-311.5" font-family="Helvetica,sans-Serif" font-size="10.00" fill="grey">reader_count</text>
<text xml:space="preserve" text-anchor="start" x="58.12" y="-295.5" font-family="Helvetica,sans-Serif" font-size="10.00" fill="grey">writer_count</text>
</g>
<!-- Node15 -->
<g id="Node000015" class="node">
<title>Node15</title>
<g id="a_Node000015"><a xlink:href="../../d7/dae/structSDL__HashItem.html" target="_top" xlink:title=" ">
<polygon fill="white" stroke="#666666" points="454.12,-272 370.62,-272 370.62,-252 454.12,-252 454.12,-272"/>
<text xml:space="preserve" text-anchor="middle" x="412.38" y="-258.5" font-family="Helvetica,sans-Serif" font-size="10.00">SDL_HashItem</text>
</a>
</g>
</g>
<!-- Node15&#45;&gt;Node9 -->
<g id="edge21_Node000009_Node000015" class="edge">
<title>Node15&#45;&gt;Node9</title>
<g id="a_edge21_Node000009_Node000015"><a xlink:title=" ">
<path fill="none" stroke="#9a32cd" stroke-dasharray="5,2" d="M412.38,-240.32C412.38,-224.48 412.38,-203.35 412.38,-191.36"/>
<polygon fill="#9a32cd" stroke="#9a32cd" points="408.88,-240.11 412.38,-250.11 415.88,-240.11 408.88,-240.11"/>
</a>
</g>
<text xml:space="preserve" text-anchor="start" x="415.38" y="-221.5" font-family="Helvetica,sans-Serif" font-size="10.00" fill="grey">table</text>
</g>
</g>
</svg>
