<?xml version="1.0" encoding="UTF-8" standalone="no"?>
<!DOCTYPE svg PUBLIC "-//W3C//DTD SVG 1.1//EN"
 "http://www.w3.org/Graphics/SVG/1.1/DTD/svg11.dtd">
<!-- Generated by graphviz version 13.1.0 (20250701.0955)
 -->
<!-- Title: SDL&#45;main/src/sensor/SDL_sensor_c.h Pages: 1 -->
<svg width="500pt" height="176pt"
 viewBox="0.00 0.00 500.00 176.00" xmlns="http://www.w3.org/2000/svg" xmlns:xlink="http://www.w3.org/1999/xlink">

<svg id="main" version="1.1" xmlns="http://www.w3.org/2000/svg" xmlns:xlink="http://www.w3.org/1999/xlink" xml:space="preserve">

<style type="text/css"><![CDATA[
.node, .edge {opacity: 0.7;}
.node.selected, .edge.selected {opacity: 1;}
.edge:hover path { stroke: red; }
.edge:hover polygon { stroke: red; fill: red; }
]]></style>
<script type="application/ecmascript" xlink:href="../../svg.min.js"/>
<svg id="graph" class="graph">
<g id="graph0" class="graph" transform="scale(1 1) rotate(0) translate(4 172)">
<title>SDL&#45;main/src/sensor/SDL_sensor_c.h</title>
<!-- Node1 -->
<g id="Node000001" class="node">
<title>Node1</title>
<g id="a_Node000001"><a xlink:title=" ">
<polygon fill="#999999" stroke="#666666" points="297.5,-168 189.25,-168 189.25,-136 297.5,-136 297.5,-168"/>
<text xml:space="preserve" text-anchor="start" x="197.25" y="-154.5" font-family="Helvetica,sans-Serif" font-size="10.00">SDL&#45;main/src/sensor</text>
<text xml:space="preserve" text-anchor="middle" x="243.38" y="-142.5" font-family="Helvetica,sans-Serif" font-size="10.00">/SDL_sensor_c.h</text>
</a>
</g>
</g>
<!-- Node2 -->
<g id="Node000002" class="node">
<title>Node2</title>
<g id="a_Node000002"><a xlink:href="../../df/d78/SDL_8c.html" target="_top" xlink:title=" ">
<polygon fill="white" stroke="#666666" points="106.75,-94 0,-94 0,-74 106.75,-74 106.75,-94"/>
<text xml:space="preserve" text-anchor="middle" x="53.38" y="-80.5" font-family="Helvetica,sans-Serif" font-size="10.00">SDL&#45;main/src/SDL.c</text>
</a>
</g>
</g>
<!-- Node1&#45;&gt;Node2 -->
<g id="edge1_Node000001_Node000002" class="edge">
<title>Node1&#45;&gt;Node2</title>
<g id="a_edge1_Node000001_Node000002"><a xlink:title=" ">
<path fill="none" stroke="#63b8ff" d="M188.18,-131.83C152.86,-119.56 108.57,-104.17 80.61,-94.46"/>
<polygon fill="#63b8ff" stroke="#63b8ff" points="186.8,-135.05 197.4,-135.03 189.1,-128.44 186.8,-135.05"/>
</a>
</g>
</g>
<!-- Node3 -->
<g id="Node000003" class="node">
<title>Node3</title>
<g id="a_Node000003"><a xlink:href="../../d4/d07/SDL__events_8c.html" target="_top" xlink:title=" ">
<polygon fill="white" stroke="#666666" points="233.5,-100 125.25,-100 125.25,-68 233.5,-68 233.5,-100"/>
<text xml:space="preserve" text-anchor="start" x="133.25" y="-86.5" font-family="Helvetica,sans-Serif" font-size="10.00">SDL&#45;main/src/events</text>
<text xml:space="preserve" text-anchor="middle" x="179.38" y="-74.5" font-family="Helvetica,sans-Serif" font-size="10.00">/SDL_events.c</text>
</a>
</g>
</g>
<!-- Node1&#45;&gt;Node3 -->
<g id="edge2_Node000001_Node000003" class="edge">
<title>Node1&#45;&gt;Node3</title>
<g id="a_edge2_Node000001_Node000003"><a xlink:title=" ">
<path fill="none" stroke="#63b8ff" d="M220.52,-127.43C211.74,-118.38 201.96,-108.29 194.14,-100.22"/>
<polygon fill="#63b8ff" stroke="#63b8ff" points="218,-129.86 227.48,-134.61 223.03,-124.99 218,-129.86"/>
</a>
</g>
</g>
<!-- Node4 -->
<g id="Node000004" class="node">
<title>Node4</title>
<g id="a_Node000004"><a xlink:href="../../d6/df9/SDL__joystick_8c.html" target="_top" xlink:title=" ">
<polygon fill="white" stroke="#666666" points="364.75,-100 252,-100 252,-68 364.75,-68 364.75,-100"/>
<text xml:space="preserve" text-anchor="start" x="260" y="-86.5" font-family="Helvetica,sans-Serif" font-size="10.00">SDL&#45;main/src/joystick</text>
<text xml:space="preserve" text-anchor="middle" x="308.38" y="-74.5" font-family="Helvetica,sans-Serif" font-size="10.00">/SDL_joystick.c</text>
</a>
</g>
</g>
<!-- Node1&#45;&gt;Node4 -->
<g id="edge3_Node000001_Node000004" class="edge">
<title>Node1&#45;&gt;Node4</title>
<g id="a_edge3_Node000001_Node000004"><a xlink:title=" ">
<path fill="none" stroke="#63b8ff" d="M266.31,-127.71C275.3,-118.59 285.36,-108.37 293.38,-100.22"/>
<polygon fill="#63b8ff" stroke="#63b8ff" points="264.04,-125.03 259.51,-134.61 269.02,-129.95 264.04,-125.03"/>
</a>
</g>
</g>
<!-- Node5 -->
<g id="Node000005" class="node">
<title>Node5</title>
<g id="a_Node000005"><a xlink:href="../../d7/da7/SDL__syssensor_8h.html" target="_top" xlink:title=" ">
<polygon fill="white" stroke="#666666" points="491.5,-100 383.25,-100 383.25,-68 491.5,-68 491.5,-100"/>
<text xml:space="preserve" text-anchor="start" x="391.25" y="-86.5" font-family="Helvetica,sans-Serif" font-size="10.00">SDL&#45;main/src/sensor</text>
<text xml:space="preserve" text-anchor="middle" x="437.38" y="-74.5" font-family="Helvetica,sans-Serif" font-size="10.00">/SDL_syssensor.h</text>
</a>
</g>
</g>
<!-- Node1&#45;&gt;Node5 -->
<g id="edge4_Node000001_Node000005" class="edge">
<title>Node1&#45;&gt;Node5</title>
<g id="a_edge4_Node000001_Node000005"><a xlink:title=" ">
<path fill="none" stroke="#63b8ff" d="M299.75,-131.82C329.03,-121.86 364.32,-109.85 391.84,-100.49"/>
<polygon fill="#63b8ff" stroke="#63b8ff" points="298.63,-128.5 290.29,-135.04 300.89,-135.13 298.63,-128.5"/>
</a>
</g>
</g>
<!-- Node6 -->
<g id="Node000006" class="node">
<title>Node6</title>
<g id="a_Node000006"><a xlink:href="../../dc/de1/SDL__sensor_8c.html" target="_top" xlink:title=" ">
<polygon fill="white" stroke="#666666" points="491.5,-32 383.25,-32 383.25,0 491.5,0 491.5,-32"/>
<text xml:space="preserve" text-anchor="start" x="391.25" y="-18.5" font-family="Helvetica,sans-Serif" font-size="10.00">SDL&#45;main/src/sensor</text>
<text xml:space="preserve" text-anchor="middle" x="437.38" y="-6.5" font-family="Helvetica,sans-Serif" font-size="10.00">/SDL_sensor.c</text>
</a>
</g>
</g>
<!-- Node5&#45;&gt;Node6 -->
<g id="edge5_Node000005_Node000006" class="edge">
<title>Node5&#45;&gt;Node6</title>
<g id="a_edge5_Node000005_Node000006"><a xlink:title=" ">
<path fill="none" stroke="#63b8ff" d="M437.38,-56.31C437.38,-48.12 437.38,-39.38 437.38,-32.22"/>
<polygon fill="#63b8ff" stroke="#63b8ff" points="433.88,-56.18 437.38,-66.18 440.88,-56.18 433.88,-56.18"/>
</a>
</g>
</g>
</g>
</svg>
</svg>

<style type='text/css'>
<![CDATA[
[data-mouse-over-selected='false'] { opacity: 0.7; }
[data-mouse-over-selected='true']  { opacity: 1.0; }
]]>
</style>
<script type="application/ecmascript"><![CDATA[
document.addEventListener('DOMContentLoaded', (event) => {
  highlightEdges();
  highlightAdjacentNodes();
});
]]></script>
</svg>
