<?xml version="1.0" encoding="UTF-8" standalone="no"?>
<!DOCTYPE svg PUBLIC "-//W3C//DTD SVG 1.1//EN"
 "http://www.w3.org/Graphics/SVG/1.1/DTD/svg11.dtd">
<!-- Generated by graphviz version 13.1.0 (20250701.0955)
 -->
<!-- Title: SDL&#45;main/src/video/android/SDL_androidvideo.h Pages: 1 -->
<svg width="644pt" height="108pt"
 viewBox="0.00 0.00 644.00 108.00" xmlns="http://www.w3.org/2000/svg" xmlns:xlink="http://www.w3.org/1999/xlink">
<g id="graph0" class="graph" transform="scale(1 1) rotate(0) translate(4 104)">
<title>SDL&#45;main/src/video/android/SDL_androidvideo.h</title>
<!-- Node1 -->
<g id="Node000001" class="node">
<title>Node1</title>
<g id="a_Node000001"><a xlink:title=" ">
<polygon fill="#999999" stroke="#666666" points="399.5,-100 258.25,-100 258.25,-68 399.5,-68 399.5,-100"/>
<text xml:space="preserve" text-anchor="start" x="266.25" y="-86.5" font-family="Helvetica,sans-Serif" font-size="10.00">SDL&#45;main/src/video</text>
<text xml:space="preserve" text-anchor="middle" x="328.88" y="-74.5" font-family="Helvetica,sans-Serif" font-size="10.00">/android/SDL_androidvideo.h</text>
</a>
</g>
</g>
<!-- Node2 -->
<g id="Node000002" class="node">
<title>Node2</title>
<g id="a_Node000002"><a xlink:href="../../de/dd7/SDL__androidkeyboard_8h.html" target="_top" xlink:title=" ">
<polygon fill="white" stroke="#666666" points="157.75,-32 0,-32 0,0 157.75,0 157.75,-32"/>
<text xml:space="preserve" text-anchor="start" x="8" y="-18.5" font-family="Helvetica,sans-Serif" font-size="10.00">SDL&#45;main/src/video</text>
<text xml:space="preserve" text-anchor="middle" x="78.88" y="-6.5" font-family="Helvetica,sans-Serif" font-size="10.00">/android/SDL_androidkeyboard.h</text>
</a>
</g>
</g>
<!-- Node1&#45;&gt;Node2 -->
<g id="edge1_Node000001_Node000002" class="edge">
<title>Node1&#45;&gt;Node2</title>
<g id="a_edge1_Node000001_Node000002"><a xlink:title=" ">
<path fill="none" stroke="#63b8ff" d="M259.2,-64.6C220.91,-54.5 173.95,-42.1 137.55,-32.49"/>
<polygon fill="#63b8ff" stroke="#63b8ff" points="258.24,-67.97 268.8,-67.14 260.02,-61.2 258.24,-67.97"/>
</a>
</g>
</g>
<!-- Node3 -->
<g id="Node000003" class="node">
<title>Node3</title>
<g id="a_Node000003"><a xlink:href="../../dc/df1/SDL__androidmouse_8h.html" target="_top" xlink:title=" ">
<polygon fill="white" stroke="#666666" points="323.5,-32 176.25,-32 176.25,0 323.5,0 323.5,-32"/>
<text xml:space="preserve" text-anchor="start" x="184.25" y="-18.5" font-family="Helvetica,sans-Serif" font-size="10.00">SDL&#45;main/src/video</text>
<text xml:space="preserve" text-anchor="middle" x="249.88" y="-6.5" font-family="Helvetica,sans-Serif" font-size="10.00">/android/SDL_androidmouse.h</text>
</a>
</g>
</g>
<!-- Node1&#45;&gt;Node3 -->
<g id="edge2_Node000001_Node000003" class="edge">
<title>Node1&#45;&gt;Node3</title>
<g id="a_edge2_Node000001_Node000003"><a xlink:title=" ">
<path fill="none" stroke="#63b8ff" d="M301.73,-60.32C290.73,-51.13 278.3,-40.75 268.37,-32.45"/>
<polygon fill="#63b8ff" stroke="#63b8ff" points="299.47,-63 309.39,-66.72 303.96,-57.62 299.47,-63"/>
</a>
</g>
</g>
<!-- Node4 -->
<g id="Node000004" class="node">
<title>Node4</title>
<g id="a_Node000004"><a xlink:href="../../d0/d1d/SDL__androidpen_8h.html" target="_top" xlink:title=" ">
<polygon fill="white" stroke="#666666" points="475.75,-32 342,-32 342,0 475.75,0 475.75,-32"/>
<text xml:space="preserve" text-anchor="start" x="350" y="-18.5" font-family="Helvetica,sans-Serif" font-size="10.00">SDL&#45;main/src/video</text>
<text xml:space="preserve" text-anchor="middle" x="408.88" y="-6.5" font-family="Helvetica,sans-Serif" font-size="10.00">/android/SDL_androidpen.h</text>
</a>
</g>
</g>
<!-- Node1&#45;&gt;Node4 -->
<g id="edge3_Node000001_Node000004" class="edge">
<title>Node1&#45;&gt;Node4</title>
<g id="a_edge3_Node000001_Node000004"><a xlink:title=" ">
<path fill="none" stroke="#63b8ff" d="M356.03,-60.6C367.25,-51.34 379.99,-40.83 390.14,-32.45"/>
<polygon fill="#63b8ff" stroke="#63b8ff" points="354.08,-57.67 348.6,-66.73 358.54,-63.07 354.08,-57.67"/>
</a>
</g>
</g>
<!-- Node5 -->
<g id="Node000005" class="node">
<title>Node5</title>
<g id="a_Node000005"><a xlink:href="../../d5/d95/SDL__androidtouch_8h.html" target="_top" xlink:title=" ">
<polygon fill="white" stroke="#666666" points="635.88,-32 493.88,-32 493.88,0 635.88,0 635.88,-32"/>
<text xml:space="preserve" text-anchor="start" x="501.88" y="-18.5" font-family="Helvetica,sans-Serif" font-size="10.00">SDL&#45;main/src/video</text>
<text xml:space="preserve" text-anchor="middle" x="564.88" y="-6.5" font-family="Helvetica,sans-Serif" font-size="10.00">/android/SDL_androidtouch.h</text>
</a>
</g>
</g>
<!-- Node1&#45;&gt;Node5 -->
<g id="edge4_Node000001_Node000005" class="edge">
<title>Node1&#45;&gt;Node5</title>
<g id="a_edge4_Node000001_Node000005"><a xlink:title=" ">
<path fill="none" stroke="#63b8ff" d="M395.12,-64.47C431.17,-54.39 475.27,-42.06 509.48,-32.49"/>
<polygon fill="#63b8ff" stroke="#63b8ff" points="394.35,-61.05 385.66,-67.12 396.24,-67.8 394.35,-61.05"/>
</a>
</g>
</g>
</g>
</svg>
