<?xml version="1.0" encoding="UTF-8" standalone="no"?>
<!DOCTYPE svg PUBLIC "-//W3C//DTD SVG 1.1//EN"
 "http://www.w3.org/Graphics/SVG/1.1/DTD/svg11.dtd">
<!-- Generated by graphviz version 13.1.0 (20250701.0955)
 -->
<!-- Title: CommandBufferCommonHeader Pages: 1 -->
<svg width="374pt" height="102pt"
 viewBox="0.00 0.00 374.00 102.00" xmlns="http://www.w3.org/2000/svg" xmlns:xlink="http://www.w3.org/1999/xlink">

<svg id="main" version="1.1" xmlns="http://www.w3.org/2000/svg" xmlns:xlink="http://www.w3.org/1999/xlink" xml:space="preserve">

<style type="text/css"><![CDATA[
.node, .edge {opacity: 0.7;}
.node.selected, .edge.selected {opacity: 1;}
.edge:hover path { stroke: red; }
.edge:hover polygon { stroke: red; fill: red; }
]]></style>
<script type="application/ecmascript" xlink:href="../../svg.min.js"/>
<svg id="graph" class="graph">
<g id="graph0" class="graph" transform="scale(1 1) rotate(0) translate(4 98)">
<title>CommandBufferCommonHeader</title>
<!-- Node1 -->
<g id="Node000001" class="node">
<title>Node1</title>
<g id="a_Node000001"><a xlink:title=" ">
<polygon fill="#999999" stroke="#666666" points="268.5,-20 110.75,-20 110.75,0 268.5,0 268.5,-20"/>
<text xml:space="preserve" text-anchor="middle" x="189.62" y="-6.5" font-family="Helvetica,sans-Serif" font-size="10.00">CommandBufferCommonHeader</text>
</a>
</g>
</g>
<!-- Node2 -->
<g id="Node000002" class="node">
<title>Node2</title>
<g id="a_Node000002"><a xlink:href="../../d1/d5c/structSDL__GPUDevice.html" target="_top" xlink:title=" ">
<polygon fill="white" stroke="#666666" points="93.25,-94 0,-94 0,-74 93.25,-74 93.25,-94"/>
<text xml:space="preserve" text-anchor="middle" x="46.62" y="-80.5" font-family="Helvetica,sans-Serif" font-size="10.00">SDL_GPUDevice</text>
</a>
</g>
</g>
<!-- Node2&#45;&gt;Node1 -->
<g id="edge1_Node000001_Node000002" class="edge">
<title>Node2&#45;&gt;Node1</title>
<g id="a_edge1_Node000001_Node000002"><a xlink:title=" ">
<path fill="none" stroke="#9a32cd" stroke-dasharray="5,2" d="M66.05,-66.34C77.67,-57.03 93.06,-45.76 108.12,-38 122.17,-30.76 138.56,-24.89 152.94,-20.49"/>
<polygon fill="#9a32cd" stroke="#9a32cd" points="63.92,-63.56 58.44,-72.63 68.38,-68.96 63.92,-63.56"/>
</a>
</g>
<text xml:space="preserve" text-anchor="start" x="111.12" y="-43.5" font-family="Helvetica,sans-Serif" font-size="10.00" fill="grey">device</text>
</g>
<!-- Node3 -->
<g id="Node000003" class="node">
<title>Node3</title>
<g id="a_Node000003"><a xlink:href="../../de/dfc/structRenderPass.html" target="_top" xlink:title=" ">
<polygon fill="white" stroke="#666666" points="181.62,-94 111.62,-94 111.62,-74 181.62,-74 181.62,-94"/>
<text xml:space="preserve" text-anchor="middle" x="146.62" y="-80.5" font-family="Helvetica,sans-Serif" font-size="10.00">RenderPass</text>
</a>
</g>
</g>
<!-- Node3&#45;&gt;Node1 -->
<g id="edge2_Node000001_Node000003" class="edge">
<title>Node3&#45;&gt;Node1</title>
<g id="a_edge2_Node000001_Node000003"><a xlink:title=" ">
<path fill="none" stroke="#9a32cd" stroke-dasharray="5,2" d="M145.84,-62.22C146.39,-54.18 148.1,-45.2 152.38,-38 156.69,-30.72 163.82,-24.84 170.69,-20.45"/>
<polygon fill="#9a32cd" stroke="#9a32cd" points="142.34,-62.15 145.76,-72.18 149.34,-62.21 142.34,-62.15"/>
</a>
</g>
<text xml:space="preserve" text-anchor="start" x="155.38" y="-43.5" font-family="Helvetica,sans-Serif" font-size="10.00" fill="grey">render_pass</text>
</g>
<!-- Node4 -->
<g id="Node000004" class="node">
<title>Node4</title>
<g id="a_Node000004"><a xlink:href="../../d5/dd7/structComputePass.html" target="_top" xlink:title=" ">
<polygon fill="white" stroke="#666666" points="277.75,-94 199.5,-94 199.5,-74 277.75,-74 277.75,-94"/>
<text xml:space="preserve" text-anchor="middle" x="238.62" y="-80.5" font-family="Helvetica,sans-Serif" font-size="10.00">ComputePass</text>
</a>
</g>
</g>
<!-- Node4&#45;&gt;Node1 -->
<g id="edge3_Node000001_Node000004" class="edge">
<title>Node4&#45;&gt;Node1</title>
<g id="a_edge3_Node000001_Node000004"><a xlink:title=" ">
<path fill="none" stroke="#9a32cd" stroke-dasharray="5,2" d="M228.08,-64.07C223.31,-55.88 217.45,-46.3 211.62,-38 207.32,-31.86 202.02,-25.34 197.7,-20.24"/>
<polygon fill="#9a32cd" stroke="#9a32cd" points="224.88,-65.52 232.87,-72.48 230.96,-62.06 224.88,-65.52"/>
</a>
</g>
<text xml:space="preserve" text-anchor="start" x="225.63" y="-43.5" font-family="Helvetica,sans-Serif" font-size="10.00" fill="grey">compute_pass</text>
</g>
<!-- Node5 -->
<g id="Node000005" class="node">
<title>Node5</title>
<g id="a_Node000005"><a xlink:href="../../d9/d43/structPass.html" target="_top" xlink:title=" ">
<polygon fill="white" stroke="#666666" points="345.88,-94 307.38,-94 307.38,-74 345.88,-74 345.88,-94"/>
<text xml:space="preserve" text-anchor="middle" x="326.62" y="-80.5" font-family="Helvetica,sans-Serif" font-size="10.00">Pass</text>
</a>
</g>
</g>
<!-- Node5&#45;&gt;Node1 -->
<g id="edge4_Node000001_Node000005" class="edge">
<title>Node5&#45;&gt;Node1</title>
<g id="a_edge4_Node000001_Node000005"><a xlink:title=" ">
<path fill="none" stroke="#9a32cd" stroke-dasharray="5,2" d="M317.76,-63.44C312.76,-54.46 305.68,-44.39 296.62,-38 285.36,-30.04 271.96,-24.42 258.53,-20.46"/>
<polygon fill="#9a32cd" stroke="#9a32cd" points="314.54,-64.83 322.15,-72.21 320.8,-61.7 314.54,-64.83"/>
</a>
</g>
<text xml:space="preserve" text-anchor="start" x="315.59" y="-43.5" font-family="Helvetica,sans-Serif" font-size="10.00" fill="grey">copy_pass</text>
</g>
</g>
</svg>
</svg>

<style type='text/css'>
<![CDATA[
[data-mouse-over-selected='false'] { opacity: 0.7; }
[data-mouse-over-selected='true']  { opacity: 1.0; }
]]>
</style>
<script type="application/ecmascript"><![CDATA[
document.addEventListener('DOMContentLoaded', (event) => {
  highlightEdges();
  highlightAdjacentNodes();
});
]]></script>
</svg>
