<?xml version="1.0" encoding="UTF-8" standalone="no"?>
<!DOCTYPE svg PUBLIC "-//W3C//DTD SVG 1.1//EN"
 "http://www.w3.org/Graphics/SVG/1.1/DTD/svg11.dtd">
<!-- Generated by graphviz version 13.1.0 (20250701.0955)
 -->
<!-- Title: MainWindow::getDataFromTextField Pages: 1 -->
<svg width="449pt" height="140pt"
 viewBox="0.00 0.00 449.00 140.00" xmlns="http://www.w3.org/2000/svg" xmlns:xlink="http://www.w3.org/1999/xlink">
<g id="graph0" class="graph" transform="scale(1 1) rotate(0) translate(4 136)">
<title>MainWindow::getDataFromTextField</title>
<!-- Node1 -->
<g id="Node000001" class="node">
<title>Node1</title>
<g id="a_Node000001"><a xlink:title=" ">
<polygon fill="#999999" stroke="#666666" points="441,-82 287,-82 287,-50 441,-50 441,-82"/>
<text xml:space="preserve" text-anchor="start" x="295" y="-68.5" font-family="Helvetica,sans-Serif" font-size="10.00">MainWindow::getDataFromText</text>
<text xml:space="preserve" text-anchor="middle" x="364" y="-56.5" font-family="Helvetica,sans-Serif" font-size="10.00">Field</text>
</a>
</g>
</g>
<!-- Node2 -->
<g id="Node000002" class="node">
<title>Node2</title>
<g id="a_Node000002"><a xlink:href="../../d6/d1a/classMainWindow.html#ab198cd229ee6b9245d552bf027ecbce6" target="_top" xlink:title=" ">
<polygon fill="white" stroke="#666666" points="247.62,-132 110.12,-132 110.12,-100 247.62,-100 247.62,-132"/>
<text xml:space="preserve" text-anchor="start" x="118.12" y="-118.5" font-family="Helvetica,sans-Serif" font-size="10.00">MainWindow::onGetFeature</text>
<text xml:space="preserve" text-anchor="middle" x="178.88" y="-106.5" font-family="Helvetica,sans-Serif" font-size="10.00">Report</text>
</a>
</g>
</g>
<!-- Node1&#45;&gt;Node2 -->
<g id="edge1_Node000001_Node000002" class="edge">
<title>Node1&#45;&gt;Node2</title>
<g id="a_edge1_Node000001_Node000002"><a xlink:title=" ">
<path fill="none" stroke="#63b8ff" d="M291.74,-85.46C274.68,-90.11 256.63,-95.04 240.13,-99.55"/>
<polygon fill="#63b8ff" stroke="#63b8ff" points="292.6,-88.85 301.32,-82.84 290.76,-82.1 292.6,-88.85"/>
</a>
</g>
</g>
<!-- Node4 -->
<g id="Node000004" class="node">
<title>Node4</title>
<g id="a_Node000004"><a xlink:href="../../d6/d1a/classMainWindow.html#ad48029256791a3a8f2fe2f63a229e2dd" target="_top" xlink:title=" ">
<polygon fill="white" stroke="#666666" points="251,-82 106.75,-82 106.75,-50 251,-50 251,-82"/>
<text xml:space="preserve" text-anchor="start" x="114.75" y="-68.5" font-family="Helvetica,sans-Serif" font-size="10.00">MainWindow::onSendFeature</text>
<text xml:space="preserve" text-anchor="middle" x="178.88" y="-56.5" font-family="Helvetica,sans-Serif" font-size="10.00">Report</text>
</a>
</g>
</g>
<!-- Node1&#45;&gt;Node4 -->
<g id="edge3_Node000001_Node000004" class="edge">
<title>Node1&#45;&gt;Node4</title>
<g id="a_edge3_Node000001_Node000004"><a xlink:title=" ">
<path fill="none" stroke="#63b8ff" d="M275.36,-66C267.33,-66 259.26,-66 251.4,-66"/>
<polygon fill="#63b8ff" stroke="#63b8ff" points="275.15,-69.5 285.15,-66 275.15,-62.5 275.15,-69.5"/>
</a>
</g>
</g>
<!-- Node5 -->
<g id="Node000005" class="node">
<title>Node5</title>
<g id="a_Node000005"><a xlink:href="../../d6/d1a/classMainWindow.html#abc0b34287583fe5b4a4976e8e9a007fc" target="_top" xlink:title=" ">
<polygon fill="white" stroke="#666666" points="249.12,-32 108.62,-32 108.62,0 249.12,0 249.12,-32"/>
<text xml:space="preserve" text-anchor="start" x="116.62" y="-18.5" font-family="Helvetica,sans-Serif" font-size="10.00">MainWindow::onSendOutput</text>
<text xml:space="preserve" text-anchor="middle" x="178.88" y="-6.5" font-family="Helvetica,sans-Serif" font-size="10.00">Report</text>
</a>
</g>
</g>
<!-- Node1&#45;&gt;Node5 -->
<g id="edge5_Node000001_Node000005" class="edge">
<title>Node1&#45;&gt;Node5</title>
<g id="a_edge5_Node000001_Node000005"><a xlink:title=" ">
<path fill="none" stroke="#63b8ff" d="M291.74,-46.54C274.68,-41.89 256.63,-36.96 240.13,-32.45"/>
<polygon fill="#63b8ff" stroke="#63b8ff" points="290.76,-49.9 301.32,-49.16 292.6,-43.15 290.76,-49.9"/>
</a>
</g>
</g>
<!-- Node3 -->
<g id="Node000003" class="node">
<title>Node3</title>
<g id="a_Node000003"><a xlink:href="../../df/dac/test_8cpp.html#a4dc6303ae36b2488e905fc23ce06171c" target="_top" xlink:title=" ">
<polygon fill="white" stroke="#666666" points="70.75,-76 0,-76 0,-56 70.75,-56 70.75,-76"/>
<text xml:space="preserve" text-anchor="middle" x="35.38" y="-62.5" font-family="Helvetica,sans-Serif" font-size="10.00">FXDEFMAP</text>
</a>
</g>
</g>
<!-- Node2&#45;&gt;Node3 -->
<g id="edge2_Node000002_Node000003" class="edge">
<title>Node2&#45;&gt;Node3</title>
<g id="a_edge2_Node000002_Node000003"><a xlink:title=" ">
<path fill="none" stroke="#63b8ff" d="M120.42,-95.82C115.79,-94.19 111.19,-92.57 106.75,-91 93.3,-86.25 78.42,-80.96 65.81,-76.48"/>
<polygon fill="#63b8ff" stroke="#63b8ff" points="119.17,-99.09 129.76,-99.11 121.49,-92.49 119.17,-99.09"/>
</a>
</g>
</g>
<!-- Node4&#45;&gt;Node3 -->
<g id="edge4_Node000004_Node000003" class="edge">
<title>Node4&#45;&gt;Node3</title>
<g id="a_edge4_Node000004_Node000003"><a xlink:title=" ">
<path fill="none" stroke="#63b8ff" d="M94.91,-66C86.63,-66 78.59,-66 71.24,-66"/>
<polygon fill="#63b8ff" stroke="#63b8ff" points="94.78,-69.5 104.78,-66 94.78,-62.5 94.78,-69.5"/>
</a>
</g>
</g>
<!-- Node5&#45;&gt;Node3 -->
<g id="edge6_Node000005_Node000003" class="edge">
<title>Node5&#45;&gt;Node3</title>
<g id="a_edge6_Node000005_Node000003"><a xlink:title=" ">
<path fill="none" stroke="#63b8ff" d="M120.42,-36.18C115.79,-37.81 111.19,-39.43 106.75,-41 93.3,-45.75 78.42,-51.04 65.81,-55.52"/>
<polygon fill="#63b8ff" stroke="#63b8ff" points="121.49,-39.51 129.76,-32.89 119.17,-32.91 121.49,-39.51"/>
</a>
</g>
</g>
</g>
</svg>
