<?xml version="1.0" encoding="UTF-8" standalone="no"?>
<!DOCTYPE svg PUBLIC "-//W3C//DTD SVG 1.1//EN"
 "http://www.w3.org/Graphics/SVG/1.1/DTD/svg11.dtd">
<!-- Generated by graphviz version 13.1.0 (20250701.0955)
 -->
<!-- Title: MainWindow::create Pages: 1 -->
<svg width="272pt" height="78pt"
 viewBox="0.00 0.00 272.00 78.00" xmlns="http://www.w3.org/2000/svg" xmlns:xlink="http://www.w3.org/1999/xlink">
<g id="graph0" class="graph" transform="scale(1 1) rotate(0) translate(4 74)">
<title>MainWindow::create</title>
<!-- Node1 -->
<g id="Node000001" class="node">
<title>Node1</title>
<g id="a_Node000001"><a xlink:title=" ">
<polygon fill="#999999" stroke="#666666" points="105.25,-42 0,-42 0,-22 105.25,-22 105.25,-42"/>
<text xml:space="preserve" text-anchor="middle" x="52.62" y="-28.5" font-family="Helvetica,sans-Serif" font-size="10.00">MainWindow::create</text>
</a>
</g>
</g>
<!-- Node2 -->
<g id="Node000002" class="node">
<title>Node2</title>
<g id="a_Node000002"><a xlink:href="../../d1/d59/mac__support__cocoa_8m.html#afb0eaab4bd9d0cd7bd2f0f88da10ca24" target="_top" xlink:title=" ">
<polygon fill="white" stroke="#666666" points="253.62,-70 151.38,-70 151.38,-38 253.62,-38 253.62,-70"/>
<text xml:space="preserve" text-anchor="start" x="159.38" y="-56.5" font-family="Helvetica,sans-Serif" font-size="10.00">init_apple_message</text>
<text xml:space="preserve" text-anchor="middle" x="202.5" y="-44.5" font-family="Helvetica,sans-Serif" font-size="10.00">_system</text>
</a>
</g>
</g>
<!-- Node1&#45;&gt;Node2 -->
<g id="edge1_Node000001_Node000002" class="edge">
<title>Node1&#45;&gt;Node2</title>
<g id="a_edge1_Node000001_Node000002"><a xlink:title=" ">
<path fill="none" stroke="#63b8ff" d="M105.34,-39.69C116.46,-41.35 128.32,-43.11 139.78,-44.82"/>
<polygon fill="#63b8ff" stroke="#63b8ff" points="139.15,-48.26 149.56,-46.27 140.18,-41.34 139.15,-48.26"/>
</a>
</g>
</g>
<!-- Node3 -->
<g id="Node000003" class="node">
<title>Node3</title>
<g id="a_Node000003"><a xlink:href="../../d6/d1a/classMainWindow.html#ad43a1a941132f48e2d5353dfdfdcdddb" target="_top" xlink:title=" ">
<polygon fill="white" stroke="#666666" points="263.75,-20 141.25,-20 141.25,0 263.75,0 263.75,-20"/>
<text xml:space="preserve" text-anchor="middle" x="202.5" y="-6.5" font-family="Helvetica,sans-Serif" font-size="10.00">MainWindow::onRescan</text>
</a>
</g>
</g>
<!-- Node1&#45;&gt;Node3 -->
<g id="edge2_Node000001_Node000003" class="edge">
<title>Node1&#45;&gt;Node3</title>
<g id="a_edge2_Node000001_Node000003"><a xlink:title=" ">
<path fill="none" stroke="#63b8ff" d="M105.34,-24.31C113.25,-23.13 121.52,-21.9 129.76,-20.67"/>
<polygon fill="#63b8ff" stroke="#63b8ff" points="130.06,-24.17 139.44,-19.23 129.03,-17.24 130.06,-24.17"/>
</a>
</g>
</g>
</g>
</svg>
