<?xml version="1.0" encoding="UTF-8" standalone="no"?>
<!DOCTYPE svg PUBLIC "-//W3C//DTD SVG 1.1//EN"
 "http://www.w3.org/Graphics/SVG/1.1/DTD/svg11.dtd">
<!-- Generated by graphviz version 13.1.0 (20250701.0955)
 -->
<!-- Title: MainWindow::onSendOutputReport Pages: 1 -->
<svg width="339pt" height="128pt"
 viewBox="0.00 0.00 339.00 128.00" xmlns="http://www.w3.org/2000/svg" xmlns:xlink="http://www.w3.org/1999/xlink">
<g id="graph0" class="graph" transform="scale(1 1) rotate(0) translate(4 124)">
<title>MainWindow::onSendOutputReport</title>
<!-- Node1 -->
<g id="Node000001" class="node">
<title>Node1</title>
<g id="a_Node000001"><a xlink:title=" ">
<polygon fill="#999999" stroke="#666666" points="140.5,-70 0,-70 0,-38 140.5,-38 140.5,-70"/>
<text xml:space="preserve" text-anchor="start" x="8" y="-56.5" font-family="Helvetica,sans-Serif" font-size="10.00">MainWindow::onSendOutput</text>
<text xml:space="preserve" text-anchor="middle" x="70.25" y="-44.5" font-family="Helvetica,sans-Serif" font-size="10.00">Report</text>
</a>
</g>
</g>
<!-- Node2 -->
<g id="Node000002" class="node">
<title>Node2</title>
<g id="a_Node000002"><a xlink:href="../../d6/d1a/classMainWindow.html#a82c45aa4782b2f60fd49d1fc2b8768c4" target="_top" xlink:title=" ">
<polygon fill="white" stroke="#666666" points="330.5,-120 176.5,-120 176.5,-88 330.5,-88 330.5,-120"/>
<text xml:space="preserve" text-anchor="start" x="184.5" y="-106.5" font-family="Helvetica,sans-Serif" font-size="10.00">MainWindow::getDataFromText</text>
<text xml:space="preserve" text-anchor="middle" x="253.5" y="-94.5" font-family="Helvetica,sans-Serif" font-size="10.00">Field</text>
</a>
</g>
</g>
<!-- Node1&#45;&gt;Node2 -->
<g id="edge1_Node000001_Node000002" class="edge">
<title>Node1&#45;&gt;Node2</title>
<g id="a_edge1_Node000001_Node000002"><a xlink:title=" ">
<path fill="none" stroke="#63b8ff" d="M130.85,-70.44C147.18,-74.95 165.05,-79.88 181.94,-84.53"/>
<polygon fill="#63b8ff" stroke="#63b8ff" points="180.84,-87.86 191.41,-87.15 182.7,-81.11 180.84,-87.86"/>
</a>
</g>
</g>
<!-- Node3 -->
<g id="Node000003" class="node">
<title>Node3</title>
<g id="a_Node000003"><a xlink:href="../../d6/d1a/classMainWindow.html#a4ebfa46956a6bb12515fd7e51151a100" target="_top" xlink:title=" ">
<polygon fill="white" stroke="#666666" points="325.25,-70 181.75,-70 181.75,-38 325.25,-38 325.25,-70"/>
<text xml:space="preserve" text-anchor="start" x="189.75" y="-56.5" font-family="Helvetica,sans-Serif" font-size="10.00">MainWindow::getLengthFrom</text>
<text xml:space="preserve" text-anchor="middle" x="253.5" y="-44.5" font-family="Helvetica,sans-Serif" font-size="10.00">TextField</text>
</a>
</g>
</g>
<!-- Node1&#45;&gt;Node3 -->
<g id="edge2_Node000001_Node000003" class="edge">
<title>Node1&#45;&gt;Node3</title>
<g id="a_edge2_Node000001_Node000003"><a xlink:title=" ">
<path fill="none" stroke="#63b8ff" d="M140.81,-54C150.35,-54 160.22,-54 169.97,-54"/>
<polygon fill="#63b8ff" stroke="#63b8ff" points="169.82,-57.5 179.81,-54 169.81,-50.5 169.82,-57.5"/>
</a>
</g>
</g>
<!-- Node4 -->
<g id="Node000004" class="node">
<title>Node4</title>
<g id="a_Node000004"><a xlink:href="../../d6/d8c/SDL__memset_8c.html#aa470f523bb3aef22ee14757d45ab934f" target="_top" xlink:title=" ">
<polygon fill="white" stroke="#666666" points="279.12,-20 227.88,-20 227.88,0 279.12,0 279.12,-20"/>
<text xml:space="preserve" text-anchor="middle" x="253.5" y="-6.5" font-family="Helvetica,sans-Serif" font-size="10.00">memset</text>
</a>
</g>
</g>
<!-- Node1&#45;&gt;Node4 -->
<g id="edge3_Node000001_Node000004" class="edge">
<title>Node1&#45;&gt;Node4</title>
<g id="a_edge3_Node000001_Node000004"><a xlink:title=" ">
<path fill="none" stroke="#63b8ff" d="M139,-37.55C165.37,-31.15 194.51,-24.08 216.66,-18.7"/>
<polygon fill="#63b8ff" stroke="#63b8ff" points="217.19,-22.17 226.08,-16.41 215.54,-15.37 217.19,-22.17"/>
</a>
</g>
</g>
</g>
</svg>
