<?xml version="1.0" encoding="UTF-8" standalone="no"?>
<!DOCTYPE svg PUBLIC "-//W3C//DTD SVG 1.1//EN"
 "http://www.w3.org/Graphics/SVG/1.1/DTD/svg11.dtd">
<!-- Generated by graphviz version 13.1.0 (20250701.0955)
 -->
<!-- Title: SDL_PutAudioStreamData Pages: 1 -->
<svg width="1077pt" height="110pt"
 viewBox="0.00 0.00 1077.00 110.00" xmlns="http://www.w3.org/2000/svg" xmlns:xlink="http://www.w3.org/1999/xlink">
<g id="graph0" class="graph" transform="scale(1 1) rotate(0) translate(4 106)">
<title>SDL_PutAudioStreamData</title>
<!-- Node1 -->
<g id="Node000001" class="node">
<title>Node1</title>
<g id="a_Node000001"><a xlink:title=" ">
<polygon fill="#999999" stroke="#666666" points="1068.75,-80 935.75,-80 935.75,-60 1068.75,-60 1068.75,-80"/>
<text xml:space="preserve" text-anchor="middle" x="1002.25" y="-66.5" font-family="Helvetica,sans-Serif" font-size="10.00">SDL_PutAudioStreamData</text>
</a>
</g>
</g>
<!-- Node2 -->
<g id="Node000002" class="node">
<title>Node2</title>
<g id="a_Node000002"><a xlink:href="../../dc/d77/SDL__audiocvt_8c.html#a013d8e85ba5cb31a851d3bfd54b33df3" target="_top" xlink:title=" ">
<polygon fill="white" stroke="#666666" points="899.75,-102 739,-102 739,-82 899.75,-82 899.75,-102"/>
<text xml:space="preserve" text-anchor="middle" x="819.38" y="-88.5" font-family="Helvetica,sans-Serif" font-size="10.00">SDL_PutAudioStreamPlanarData</text>
</a>
</g>
</g>
<!-- Node1&#45;&gt;Node2 -->
<g id="edge1_Node000001_Node000002" class="edge">
<title>Node1&#45;&gt;Node2</title>
<g id="a_edge1_Node000001_Node000002"><a xlink:title=" ">
<path fill="none" stroke="#63b8ff" d="M924.22,-79.37C916.2,-80.34 908.04,-81.34 899.99,-82.32"/>
<polygon fill="#63b8ff" stroke="#63b8ff" points="924.43,-82.87 933.94,-78.19 923.59,-75.92 924.43,-82.87"/>
</a>
</g>
</g>
<!-- Node3 -->
<g id="Node000003" class="node">
<title>Node3</title>
<g id="a_Node000003"><a xlink:href="../../d6/d9b/SDL__audio_8c.html#a3a132c60c931f1c864ba5da2b1c86717" target="_top" xlink:title=" ">
<polygon fill="white" stroke="#666666" points="889.25,-64 749.5,-64 749.5,-32 889.25,-32 889.25,-64"/>
<text xml:space="preserve" text-anchor="start" x="757.5" y="-50.5" font-family="Helvetica,sans-Serif" font-size="10.00">SDL_RecordingAudioThread</text>
<text xml:space="preserve" text-anchor="middle" x="819.38" y="-38.5" font-family="Helvetica,sans-Serif" font-size="10.00">Iterate</text>
</a>
</g>
</g>
<!-- Node1&#45;&gt;Node3 -->
<g id="edge2_Node000001_Node000003" class="edge">
<title>Node1&#45;&gt;Node3</title>
<g id="a_edge2_Node000001_Node000003"><a xlink:title=" ">
<path fill="none" stroke="#63b8ff" d="M924.07,-60.61C912.58,-59.22 900.8,-57.78 889.49,-56.41"/>
<polygon fill="#63b8ff" stroke="#63b8ff" points="923.59,-64.08 933.94,-61.81 924.43,-57.13 923.59,-64.08"/>
</a>
</g>
</g>
<!-- Node4 -->
<g id="Node000004" class="node">
<title>Node4</title>
<g id="a_Node000004"><a xlink:href="../../d3/d8a/SDL__dummyaudio_8c.html#a954b1d30669ef0d1b5d4615515c94498" target="_top" xlink:title=" ">
<polygon fill="white" stroke="#666666" points="703,-77 558,-77 558,-57 703,-57 703,-77"/>
<text xml:space="preserve" text-anchor="middle" x="630.5" y="-63.5" font-family="Helvetica,sans-Serif" font-size="10.00">DUMMYAUDIO_OpenDevice</text>
</a>
</g>
</g>
<!-- Node3&#45;&gt;Node4 -->
<g id="edge3_Node000003_Node000004" class="edge">
<title>Node3&#45;&gt;Node4</title>
<g id="a_edge3_Node000003_Node000004"><a xlink:title=" ">
<path fill="none" stroke="#63b8ff" d="M737.7,-56.2C726.23,-57.37 714.49,-58.56 703.21,-59.71"/>
<polygon fill="#63b8ff" stroke="#63b8ff" points="737.95,-59.69 747.55,-55.2 737.25,-52.73 737.95,-59.69"/>
</a>
</g>
</g>
<!-- Node6 -->
<g id="Node000006" class="node">
<title>Node6</title>
<g id="a_Node000006"><a xlink:href="../../d6/d9b/SDL__audio_8c.html#a78509cdb3b4a17a333ba844e392a3c56" target="_top" xlink:title=" ">
<polygon fill="white" stroke="#666666" points="688,-39 573,-39 573,-19 688,-19 688,-39"/>
<text xml:space="preserve" text-anchor="middle" x="630.5" y="-25.5" font-family="Helvetica,sans-Serif" font-size="10.00">RecordingAudioThread</text>
</a>
</g>
</g>
<!-- Node3&#45;&gt;Node6 -->
<g id="edge5_Node000003_Node000006" class="edge">
<title>Node3&#45;&gt;Node6</title>
<g id="a_edge5_Node000003_Node000006"><a xlink:title=" ">
<path fill="none" stroke="#63b8ff" d="M737.7,-39.8C721.13,-38.11 704.01,-36.37 688.49,-34.79"/>
<polygon fill="#63b8ff" stroke="#63b8ff" points="737.25,-43.27 747.55,-40.8 737.95,-36.31 737.25,-43.27"/>
</a>
</g>
</g>
<!-- Node5 -->
<g id="Node000005" class="node">
<title>Node5</title>
<g id="a_Node000005"><a xlink:href="../../d3/d8a/SDL__dummyaudio_8c.html#a29ca48806a568f46e322654ffd7271ab" target="_top" xlink:title=" ">
<polygon fill="white" stroke="#666666" points="508.12,-77 403.62,-77 403.62,-57 508.12,-57 508.12,-77"/>
<text xml:space="preserve" text-anchor="middle" x="455.88" y="-63.5" font-family="Helvetica,sans-Serif" font-size="10.00">DUMMYAUDIO_Init</text>
</a>
</g>
</g>
<!-- Node4&#45;&gt;Node5 -->
<g id="edge4_Node000004_Node000005" class="edge">
<title>Node4&#45;&gt;Node5</title>
<g id="a_edge4_Node000004_Node000005"><a xlink:title=" ">
<path fill="none" stroke="#63b8ff" d="M546.44,-67C533.45,-67 520.37,-67 508.37,-67"/>
<polygon fill="#63b8ff" stroke="#63b8ff" points="546.28,-70.5 556.28,-67 546.28,-63.5 546.28,-70.5"/>
</a>
</g>
</g>
<!-- Node7 -->
<g id="Node000007" class="node">
<title>Node7</title>
<g id="a_Node000007"><a xlink:href="../../d6/d9b/SDL__audio_8c.html#a67d5d3273196908cd2180bde093c413d" target="_top" xlink:title=" ">
<polygon fill="white" stroke="#666666" points="522,-39 389.75,-39 389.75,-19 522,-19 522,-39"/>
<text xml:space="preserve" text-anchor="middle" x="455.88" y="-25.5" font-family="Helvetica,sans-Serif" font-size="10.00">OpenPhysicalAudioDevice</text>
</a>
</g>
</g>
<!-- Node6&#45;&gt;Node7 -->
<g id="edge6_Node000006_Node000007" class="edge">
<title>Node6&#45;&gt;Node7</title>
<g id="a_edge6_Node000006_Node000007"><a xlink:title=" ">
<path fill="none" stroke="#63b8ff" d="M561.73,-29C548.73,-29 535.14,-29 522.22,-29"/>
<polygon fill="#63b8ff" stroke="#63b8ff" points="561.46,-32.5 571.46,-29 561.46,-25.5 561.46,-32.5"/>
</a>
</g>
</g>
<!-- Node8 -->
<g id="Node000008" class="node">
<title>Node8</title>
<g id="a_Node000008"><a xlink:href="../../d6/d9b/SDL__audio_8c.html#ad4cae8cf429411be160ec61914b28043" target="_top" xlink:title=" ">
<polygon fill="white" stroke="#666666" points="353.75,-58 187,-58 187,-38 353.75,-38 353.75,-58"/>
<text xml:space="preserve" text-anchor="middle" x="270.38" y="-44.5" font-family="Helvetica,sans-Serif" font-size="10.00">SDL_DefaultAudioDeviceChanged</text>
</a>
</g>
</g>
<!-- Node7&#45;&gt;Node8 -->
<g id="edge7_Node000007_Node000008" class="edge">
<title>Node7&#45;&gt;Node8</title>
<g id="a_edge7_Node000007_Node000008"><a xlink:title=" ">
<path fill="none" stroke="#63b8ff" d="M377.99,-36.96C370.11,-37.78 362.08,-38.61 354.14,-39.43"/>
<polygon fill="#63b8ff" stroke="#63b8ff" points="378.31,-40.45 387.9,-35.93 377.59,-33.48 378.31,-40.45"/>
</a>
</g>
</g>
<!-- Node9 -->
<g id="Node000009" class="node">
<title>Node9</title>
<g id="a_Node000009"><a xlink:href="../../d6/d9b/SDL__audio_8c.html#ad4a998b0fa52004c6db6b4182de26f8c" target="_top" xlink:title=" ">
<polygon fill="white" stroke="#666666" points="330.12,-20 210.62,-20 210.62,0 330.12,0 330.12,-20"/>
<text xml:space="preserve" text-anchor="middle" x="270.38" y="-6.5" font-family="Helvetica,sans-Serif" font-size="10.00">SDL_OpenAudioDevice</text>
</a>
</g>
</g>
<!-- Node7&#45;&gt;Node9 -->
<g id="edge8_Node000007_Node000009" class="edge">
<title>Node7&#45;&gt;Node9</title>
<g id="a_edge8_Node000007_Node000009"><a xlink:title=" ">
<path fill="none" stroke="#63b8ff" d="M377.96,-21.04C362.06,-19.39 345.55,-17.68 330.41,-16.11"/>
<polygon fill="#63b8ff" stroke="#63b8ff" points="377.59,-24.52 387.9,-22.07 378.31,-17.55 377.59,-24.52"/>
</a>
</g>
</g>
<!-- Node10 -->
<g id="Node000010" class="node">
<title>Node10</title>
<g id="a_Node000010"><a xlink:href="../../d6/d9b/SDL__audio_8c.html#a73ac117b5e299633d58be618680af357" target="_top" xlink:title=" ">
<polygon fill="white" stroke="#666666" points="151,-20 0,-20 0,0 151,0 151,-20"/>
<text xml:space="preserve" text-anchor="middle" x="75.5" y="-6.5" font-family="Helvetica,sans-Serif" font-size="10.00">SDL_OpenAudioDeviceStream</text>
</a>
</g>
</g>
<!-- Node9&#45;&gt;Node10 -->
<g id="edge9_Node000009_Node000010" class="edge">
<title>Node9&#45;&gt;Node10</title>
<g id="a_edge9_Node000009_Node000010"><a xlink:title=" ">
<path fill="none" stroke="#63b8ff" d="M199.07,-10C183.52,-10 166.99,-10 151.26,-10"/>
<polygon fill="#63b8ff" stroke="#63b8ff" points="198.68,-13.5 208.68,-10 198.68,-6.5 198.68,-13.5"/>
</a>
</g>
</g>
</g>
</svg>
