<?xml version="1.0" encoding="UTF-8" standalone="no"?>
<!DOCTYPE svg PUBLIC "-//W3C//DTD SVG 1.1//EN"
 "http://www.w3.org/Graphics/SVG/1.1/DTD/svg11.dtd">
<!-- Generated by graphviz version 13.1.0 (20250701.0955)
 -->
<!-- Title: SDL&#45;main/src/stdlib/SDL_vacopy.h Pages: 1 -->
<svg width="542pt" height="108pt"
 viewBox="0.00 0.00 542.00 108.00" xmlns="http://www.w3.org/2000/svg" xmlns:xlink="http://www.w3.org/1999/xlink">
<g id="graph0" class="graph" transform="scale(1 1) rotate(0) translate(4 104)">
<title>SDL&#45;main/src/stdlib/SDL_vacopy.h</title>
<!-- Node1 -->
<g id="Node000001" class="node">
<title>Node1</title>
<g id="a_Node000001"><a xlink:title=" ">
<polygon fill="#999999" stroke="#666666" points="332.88,-100 230.62,-100 230.62,-68 332.88,-68 332.88,-100"/>
<text xml:space="preserve" text-anchor="start" x="238.62" y="-86.5" font-family="Helvetica,sans-Serif" font-size="10.00">SDL&#45;main/src/stdlib</text>
<text xml:space="preserve" text-anchor="middle" x="281.75" y="-74.5" font-family="Helvetica,sans-Serif" font-size="10.00">/SDL_vacopy.h</text>
</a>
</g>
</g>
<!-- Node2 -->
<g id="Node000002" class="node">
<title>Node2</title>
<g id="a_Node000002"><a xlink:href="../../d9/d63/SDL__error_8c.html" target="_top" xlink:title=" ">
<polygon fill="white" stroke="#666666" points="131.5,-26 0,-26 0,-6 131.5,-6 131.5,-26"/>
<text xml:space="preserve" text-anchor="middle" x="65.75" y="-12.5" font-family="Helvetica,sans-Serif" font-size="10.00">SDL&#45;main/src/SDL_error.c</text>
</a>
</g>
</g>
<!-- Node1&#45;&gt;Node2 -->
<g id="edge1_Node000001_Node000002" class="edge">
<title>Node1&#45;&gt;Node2</title>
<g id="a_edge1_Node000001_Node000002"><a xlink:title=" ">
<path fill="none" stroke="#63b8ff" d="M220.3,-64.22C179.93,-51.89 128.84,-36.28 96.71,-26.46"/>
<polygon fill="#63b8ff" stroke="#63b8ff" points="219.07,-67.51 229.66,-67.08 221.12,-60.81 219.07,-67.51"/>
</a>
</g>
</g>
<!-- Node3 -->
<g id="Node000003" class="node">
<title>Node3</title>
<g id="a_Node000003"><a xlink:href="../../dc/d43/SDL__log_8c.html" target="_top" xlink:title=" ">
<polygon fill="white" stroke="#666666" points="274.12,-26 149.38,-26 149.38,-6 274.12,-6 274.12,-26"/>
<text xml:space="preserve" text-anchor="middle" x="211.75" y="-12.5" font-family="Helvetica,sans-Serif" font-size="10.00">SDL&#45;main/src/SDL_log.c</text>
</a>
</g>
</g>
<!-- Node1&#45;&gt;Node3 -->
<g id="edge2_Node000001_Node000003" class="edge">
<title>Node1&#45;&gt;Node3</title>
<g id="a_edge2_Node000001_Node000003"><a xlink:title=" ">
<path fill="none" stroke="#63b8ff" d="M257.4,-60.04C245.12,-48.46 230.89,-35.05 221.63,-26.32"/>
<polygon fill="#63b8ff" stroke="#63b8ff" points="254.74,-62.34 264.41,-66.65 259.54,-57.25 254.74,-62.34"/>
</a>
</g>
</g>
<!-- Node4 -->
<g id="Node000004" class="node">
<title>Node4</title>
<g id="a_Node000004"><a xlink:href="../../d3/d18/SDL__dbus_8c.html" target="_top" xlink:title=" ">
<polygon fill="white" stroke="#666666" points="413.25,-32 292.25,-32 292.25,0 413.25,0 413.25,-32"/>
<text xml:space="preserve" text-anchor="start" x="300.25" y="-18.5" font-family="Helvetica,sans-Serif" font-size="10.00">SDL&#45;main/src/core/linux</text>
<text xml:space="preserve" text-anchor="middle" x="352.75" y="-6.5" font-family="Helvetica,sans-Serif" font-size="10.00">/SDL_dbus.c</text>
</a>
</g>
</g>
<!-- Node1&#45;&gt;Node4 -->
<g id="edge3_Node000001_Node000004" class="edge">
<title>Node1&#45;&gt;Node4</title>
<g id="a_edge3_Node000001_Node000004"><a xlink:title=" ">
<path fill="none" stroke="#63b8ff" d="M306.51,-59.99C316.4,-50.79 327.52,-40.46 336.37,-32.22"/>
<polygon fill="#63b8ff" stroke="#63b8ff" points="304.27,-57.29 299.33,-66.66 309.03,-62.42 304.27,-57.29"/>
</a>
</g>
</g>
<!-- Node5 -->
<g id="Node000005" class="node">
<title>Node5</title>
<g id="a_Node000005"><a xlink:href="../../d2/d23/SDL__string_8c.html" target="_top" xlink:title=" ">
<polygon fill="white" stroke="#666666" points="533.88,-32 431.62,-32 431.62,0 533.88,0 533.88,-32"/>
<text xml:space="preserve" text-anchor="start" x="439.62" y="-18.5" font-family="Helvetica,sans-Serif" font-size="10.00">SDL&#45;main/src/stdlib</text>
<text xml:space="preserve" text-anchor="middle" x="482.75" y="-6.5" font-family="Helvetica,sans-Serif" font-size="10.00">/SDL_string.c</text>
</a>
</g>
</g>
<!-- Node1&#45;&gt;Node5 -->
<g id="edge4_Node000001_Node000005" class="edge">
<title>Node1&#45;&gt;Node5</title>
<g id="a_edge4_Node000001_Node000005"><a xlink:title=" ">
<path fill="none" stroke="#63b8ff" d="M339.76,-63.95C370.17,-53.97 406.94,-41.89 435.57,-32.49"/>
<polygon fill="#63b8ff" stroke="#63b8ff" points="338.72,-60.61 330.31,-67.05 340.91,-67.26 338.72,-60.61"/>
</a>
</g>
</g>
</g>
</svg>
