<?xml version="1.0" encoding="UTF-8" standalone="no"?>
<!DOCTYPE svg PUBLIC "-//W3C//DTD SVG 1.1//EN"
 "http://www.w3.org/Graphics/SVG/1.1/DTD/svg11.dtd">
<!-- Generated by graphviz version 13.1.0 (20250701.0955)
 -->
<!-- Title: SDL&#45;main/src/video/khronos/vulkan/vk_platform.h Pages: 1 -->
<svg width="284pt" height="256pt"
 viewBox="0.00 0.00 284.00 256.00" xmlns="http://www.w3.org/2000/svg" xmlns:xlink="http://www.w3.org/1999/xlink">

<svg id="main" version="1.1" xmlns="http://www.w3.org/2000/svg" xmlns:xlink="http://www.w3.org/1999/xlink" xml:space="preserve">

<style type="text/css"><![CDATA[
.node, .edge {opacity: 0.7;}
.node.selected, .edge.selected {opacity: 1;}
.edge:hover path { stroke: red; }
.edge:hover polygon { stroke: red; fill: red; }
]]></style>
<script type="application/ecmascript" xlink:href="../../svg.min.js"/>
<svg id="graph" class="graph">
<g id="graph0" class="graph" transform="scale(1 1) rotate(0) translate(4 252)">
<title>SDL&#45;main/src/video/khronos/vulkan/vk_platform.h</title>
<!-- Node1 -->
<g id="Node000001" class="node">
<title>Node1</title>
<g id="a_Node000001"><a xlink:title=" ">
<polygon fill="#999999" stroke="#666666" points="179,-248 31.75,-248 31.75,-216 179,-216 179,-248"/>
<text xml:space="preserve" text-anchor="start" x="39.75" y="-234.5" font-family="Helvetica,sans-Serif" font-size="10.00">SDL&#45;main/src/video</text>
<text xml:space="preserve" text-anchor="middle" x="105.38" y="-222.5" font-family="Helvetica,sans-Serif" font-size="10.00">/khronos/vulkan/vk_platform.h</text>
</a>
</g>
</g>
<!-- Node2 -->
<g id="Node000002" class="node">
<title>Node2</title>
<g id="a_Node000002"><a xlink:href="../../d8/d55/vulkan_8h.html" target="_top" xlink:title=" ">
<polygon fill="white" stroke="#666666" points="124.75,-100 0,-100 0,-68 124.75,-68 124.75,-100"/>
<text xml:space="preserve" text-anchor="start" x="8" y="-86.5" font-family="Helvetica,sans-Serif" font-size="10.00">SDL&#45;main/src/video</text>
<text xml:space="preserve" text-anchor="middle" x="62.38" y="-74.5" font-family="Helvetica,sans-Serif" font-size="10.00">/khronos/vulkan/vulkan.h</text>
</a>
</g>
</g>
<!-- Node1&#45;&gt;Node2 -->
<g id="edge1_Node000001_Node000002" class="edge">
<title>Node1&#45;&gt;Node2</title>
<g id="a_edge1_Node000001_Node000002"><a xlink:title=" ">
<path fill="none" stroke="#63b8ff" d="M91.93,-205.58C88.1,-197.57 84.2,-188.56 81.38,-180 72.37,-152.69 66.91,-119.47 64.29,-100.43"/>
<polygon fill="#63b8ff" stroke="#63b8ff" points="88.75,-207.04 96.34,-214.42 95.01,-203.91 88.75,-207.04"/>
</a>
</g>
</g>
<!-- Node4 -->
<g id="Node000004" class="node">
<title>Node4</title>
<g id="a_Node000004"><a xlink:href="../../de/d3d/vulkan__core_8h.html" target="_top" xlink:title=" ">
<polygon fill="white" stroke="#666666" points="206.62,-180 90.12,-180 90.12,-136 206.62,-136 206.62,-180"/>
<text xml:space="preserve" text-anchor="start" x="98.12" y="-166.5" font-family="Helvetica,sans-Serif" font-size="10.00">SDL&#45;main/src/video</text>
<text xml:space="preserve" text-anchor="start" x="98.12" y="-154.5" font-family="Helvetica,sans-Serif" font-size="10.00">/khronos/vulkan/vulkan</text>
<text xml:space="preserve" text-anchor="middle" x="148.38" y="-142.5" font-family="Helvetica,sans-Serif" font-size="10.00">_core.h</text>
</a>
</g>
</g>
<!-- Node1&#45;&gt;Node4 -->
<g id="edge3_Node000001_Node000004" class="edge">
<title>Node1&#45;&gt;Node4</title>
<g id="a_edge3_Node000001_Node000004"><a xlink:title=" ">
<path fill="none" stroke="#63b8ff" d="M120.27,-206.06C125.29,-197.65 130.85,-188.35 135.68,-180.26"/>
<polygon fill="#63b8ff" stroke="#63b8ff" points="117.39,-204.05 115.27,-214.43 123.4,-207.64 117.39,-204.05"/>
</a>
</g>
</g>
<!-- Node3 -->
<g id="Node000003" class="node">
<title>Node3</title>
<g id="a_Node000003"><a xlink:href="../../dc/d5e/vk__icd_8h.html" target="_top" xlink:title=" ">
<polygon fill="white" stroke="#666666" points="124.75,-32 0,-32 0,0 124.75,0 124.75,-32"/>
<text xml:space="preserve" text-anchor="start" x="8" y="-18.5" font-family="Helvetica,sans-Serif" font-size="10.00">SDL&#45;main/src/video</text>
<text xml:space="preserve" text-anchor="middle" x="62.38" y="-6.5" font-family="Helvetica,sans-Serif" font-size="10.00">/khronos/vulkan/vk_icd.h</text>
</a>
</g>
</g>
<!-- Node2&#45;&gt;Node3 -->
<g id="edge2_Node000002_Node000003" class="edge">
<title>Node2&#45;&gt;Node3</title>
<g id="a_edge2_Node000002_Node000003"><a xlink:title=" ">
<path fill="none" stroke="#63b8ff" d="M62.38,-56.31C62.38,-48.12 62.38,-39.38 62.38,-32.22"/>
<polygon fill="#63b8ff" stroke="#63b8ff" points="58.88,-56.18 62.38,-66.18 65.88,-56.18 58.88,-56.18"/>
</a>
</g>
</g>
<!-- Node4&#45;&gt;Node2 -->
<g id="edge5_Node000004_Node000002" class="edge">
<title>Node4&#45;&gt;Node2</title>
<g id="a_edge5_Node000004_Node000002"><a xlink:title=" ">
<path fill="none" stroke="#63b8ff" d="M114.47,-128.62C102.96,-118.98 90.54,-108.58 80.71,-100.35"/>
<polygon fill="#63b8ff" stroke="#63b8ff" points="111.96,-131.08 121.88,-134.82 116.46,-125.71 111.96,-131.08"/>
</a>
</g>
</g>
<!-- Node5 -->
<g id="Node000005" class="node">
<title>Node5</title>
<g id="a_Node000005"><a xlink:href="../../d6/d8f/vk__layer_8h.html" target="_top" xlink:title=" ">
<polygon fill="white" stroke="#666666" points="275.88,-100 142.88,-100 142.88,-68 275.88,-68 275.88,-100"/>
<text xml:space="preserve" text-anchor="start" x="150.88" y="-86.5" font-family="Helvetica,sans-Serif" font-size="10.00">SDL&#45;main/src/video</text>
<text xml:space="preserve" text-anchor="middle" x="209.38" y="-74.5" font-family="Helvetica,sans-Serif" font-size="10.00">/khronos/vulkan/vk_layer.h</text>
</a>
</g>
</g>
<!-- Node4&#45;&gt;Node5 -->
<g id="edge4_Node000004_Node000005" class="edge">
<title>Node4&#45;&gt;Node5</title>
<g id="a_edge4_Node000004_Node000005"><a xlink:title=" ">
<path fill="none" stroke="#63b8ff" d="M173.68,-127.13C181.56,-117.83 189.92,-107.97 196.56,-100.13"/>
<polygon fill="#63b8ff" stroke="#63b8ff" points="171.12,-124.74 167.33,-134.63 176.46,-129.26 171.12,-124.74"/>
</a>
</g>
</g>
</g>
</svg>
</svg>

<style type='text/css'>
<![CDATA[
[data-mouse-over-selected='false'] { opacity: 0.7; }
[data-mouse-over-selected='true']  { opacity: 1.0; }
]]>
</style>
<script type="application/ecmascript"><![CDATA[
document.addEventListener('DOMContentLoaded', (event) => {
  highlightEdges();
  highlightAdjacentNodes();
});
]]></script>
</svg>
