<?xml version="1.0" encoding="UTF-8" standalone="no"?>
<!DOCTYPE svg PUBLIC "-//W3C//DTD SVG 1.1//EN"
 "http://www.w3.org/Graphics/SVG/1.1/DTD/svg11.dtd">
<!-- Generated by graphviz version 13.1.0 (20250701.0955)
 -->
<!-- Title: SDL&#45;main/src/video/x11/SDL_x11keyboard.h Pages: 1 -->
<svg width="162pt" height="244pt"
 viewBox="0.00 0.00 162.00 244.00" xmlns="http://www.w3.org/2000/svg" xmlns:xlink="http://www.w3.org/1999/xlink">
<g id="graph0" class="graph" transform="scale(1 1) rotate(0) translate(4 240)">
<title>SDL&#45;main/src/video/x11/SDL_x11keyboard.h</title>
<!-- Node1 -->
<g id="Node000001" class="node">
<title>Node1</title>
<g id="a_Node000001"><a xlink:title=" ">
<polygon fill="#999999" stroke="#666666" points="124.75,-236 0,-236 0,-204 124.75,-204 124.75,-236"/>
<text xml:space="preserve" text-anchor="start" x="8" y="-222.5" font-family="Helvetica,sans-Serif" font-size="10.00">SDL&#45;main/src/video</text>
<text xml:space="preserve" text-anchor="middle" x="62.38" y="-210.5" font-family="Helvetica,sans-Serif" font-size="10.00">/x11/SDL_x11keyboard.h</text>
</a>
</g>
</g>
<!-- Node2 -->
<g id="Node000002" class="node">
<title>Node2</title>
<g id="a_Node000002"><a xlink:href="../../d9/d89/SDL__x11video_8h.html" target="_top" xlink:title=" ">
<polygon fill="white" stroke="#666666" points="116.5,-168 8.25,-168 8.25,-136 116.5,-136 116.5,-168"/>
<text xml:space="preserve" text-anchor="start" x="16.25" y="-154.5" font-family="Helvetica,sans-Serif" font-size="10.00">SDL&#45;main/src/video</text>
<text xml:space="preserve" text-anchor="middle" x="62.38" y="-142.5" font-family="Helvetica,sans-Serif" font-size="10.00">/x11/SDL_x11video.h</text>
</a>
</g>
</g>
<!-- Node1&#45;&gt;Node2 -->
<g id="edge1_Node000001_Node000002" class="edge">
<title>Node1&#45;&gt;Node2</title>
<g id="a_edge1_Node000001_Node000002"><a xlink:title=" ">
<path fill="none" stroke="#63b8ff" d="M62.38,-192.31C62.38,-184.12 62.38,-175.38 62.38,-168.22"/>
<polygon fill="#63b8ff" stroke="#63b8ff" points="58.88,-192.18 62.38,-202.18 65.88,-192.18 58.88,-192.18"/>
</a>
</g>
</g>
<!-- Node3 -->
<g id="Node000003" class="node">
<title>Node3</title>
<g id="a_Node000003"><a xlink:href="../../dc/dd9/SDL__x11pen_8c.html" target="_top" xlink:title=" ">
<polygon fill="white" stroke="#666666" points="113.5,-32 11.25,-32 11.25,0 113.5,0 113.5,-32"/>
<text xml:space="preserve" text-anchor="start" x="19.25" y="-18.5" font-family="Helvetica,sans-Serif" font-size="10.00">SDL&#45;main/src/video</text>
<text xml:space="preserve" text-anchor="middle" x="62.38" y="-6.5" font-family="Helvetica,sans-Serif" font-size="10.00">/x11/SDL_x11pen.c</text>
</a>
</g>
</g>
<!-- Node2&#45;&gt;Node3 -->
<g id="edge2_Node000002_Node000003" class="edge">
<title>Node2&#45;&gt;Node3</title>
<g id="a_edge2_Node000002_Node000003"><a xlink:title=" ">
<path fill="none" stroke="#63b8ff" d="M50.17,-125.37C46.98,-117.42 43.98,-108.51 42.38,-100 39.73,-86.03 39.73,-81.97 42.38,-68 44.74,-55.48 50.11,-42.09 54.69,-32.18"/>
<polygon fill="#63b8ff" stroke="#63b8ff" points="46.91,-126.64 54.09,-134.43 53.33,-123.87 46.91,-126.64"/>
</a>
</g>
</g>
<!-- Node4 -->
<g id="Node000004" class="node">
<title>Node4</title>
<g id="a_Node000004"><a xlink:href="../../de/d80/SDL__x11pen_8h.html" target="_top" xlink:title=" ">
<polygon fill="white" stroke="#666666" points="153.5,-100 51.25,-100 51.25,-68 153.5,-68 153.5,-100"/>
<text xml:space="preserve" text-anchor="start" x="59.25" y="-86.5" font-family="Helvetica,sans-Serif" font-size="10.00">SDL&#45;main/src/video</text>
<text xml:space="preserve" text-anchor="middle" x="102.38" y="-74.5" font-family="Helvetica,sans-Serif" font-size="10.00">/x11/SDL_x11pen.h</text>
</a>
</g>
</g>
<!-- Node2&#45;&gt;Node4 -->
<g id="edge3_Node000002_Node000004" class="edge">
<title>Node2&#45;&gt;Node4</title>
<g id="a_edge3_Node000002_Node000004"><a xlink:title=" ">
<path fill="none" stroke="#63b8ff" d="M77.51,-126.02C82.77,-117.34 88.51,-107.88 93.15,-100.22"/>
<polygon fill="#63b8ff" stroke="#63b8ff" points="74.63,-124.03 72.44,-134.4 80.61,-127.66 74.63,-124.03"/>
</a>
</g>
</g>
<!-- Node4&#45;&gt;Node3 -->
<g id="edge4_Node000004_Node000003" class="edge">
<title>Node4&#45;&gt;Node3</title>
<g id="a_edge4_Node000004_Node000003"><a xlink:title=" ">
<path fill="none" stroke="#63b8ff" d="M87.24,-58.02C81.98,-49.34 76.24,-39.88 71.6,-32.22"/>
<polygon fill="#63b8ff" stroke="#63b8ff" points="84.14,-59.66 92.31,-66.4 90.12,-56.03 84.14,-59.66"/>
</a>
</g>
</g>
</g>
</svg>
