<?xml version="1.0" encoding="UTF-8" standalone="no"?>
<!DOCTYPE svg PUBLIC "-//W3C//DTD SVG 1.1//EN"
 "http://www.w3.org/Graphics/SVG/1.1/DTD/svg11.dtd">
<!-- Generated by graphviz version 13.1.0 (20250701.0955)
 -->
<!-- Title: UnrefPhysicalCamera Pages: 1 -->
<!--zoomable 446 -->

<svg id="main" version="1.1" xmlns="http://www.w3.org/2000/svg" xmlns:xlink="http://www.w3.org/1999/xlink" xml:space="preserve" onload="init(evt)">

<style type="text/css"><![CDATA[
.node, .edge {opacity: 0.7;}
.node.selected, .edge.selected {opacity: 1;}
.edge:hover path { stroke: red; }
.edge:hover polygon { stroke: red; fill: red; }
]]></style>

<defs>
  <circle id="rim" cx="0" cy="0" r="7"/>
  <circle id="rim2" cx="0" cy="0" r="3.5"/>
  <g id="zoomPlus">
    <use xlink:href="#rim" fill="#404040"><set attributeName="fill" to="#808080" begin="zoomplus.mouseover" end="zoomplus.mouseout"/></use>
    <path d="M-4,0h8M0,-4v8" fill="none" stroke="white" stroke-width="1.5" pointer-events="none"/>
  </g>
  <g id="zoomMin">
    <use xlink:href="#rim" fill="#404040"><set attributeName="fill" to="#808080" begin="zoomminus.mouseover" end="zoomminus.mouseout"/></use>
    <path d="M-4,0h8" fill="none" stroke="white" stroke-width="1.5" pointer-events="none"/>
  </g>
  <g id="arrowUp" transform="translate(30 24)">
    <use xlink:href="#rim"/>
    <path pointer-events="none" fill="none" stroke="white" stroke-width="1.5" d="M0,-3.0v7 M-2.5,-0.5L0,-3.0L2.5,-0.5"/>
  </g>
  <g id="arrowRight" transform="rotate(90) translate(36 -43)">
    <use xlink:href="#rim"/>
    <path pointer-events="none" fill="none" stroke="white" stroke-width="1.5" d="M0,-3.0v7 M-2.5,-0.5L0,-3.0L2.5,-0.5"/>
  </g>
  <g id="arrowDown" transform="rotate(180) translate(-30 -48)">
    <use xlink:href="#rim"/>
    <path pointer-events="none" fill="none" stroke="white" stroke-width="1.5" d="M0,-3.0v7 M-2.5,-0.5L0,-3.0L2.5,-0.5"/>
  </g>
  <g id="arrowLeft" transform="rotate(270) translate(-36 17)">
    <use xlink:href="#rim"/>
    <path pointer-events="none" fill="none" stroke="white" stroke-width="1.5" d="M0,-3.0v7 M-2.5,-0.5L0,-3.0L2.5,-0.5"/>
  </g>
  <g id="resetDef">
    <use xlink:href="#rim2" fill="#404040"><set attributeName="fill" to="#808080" begin="reset.mouseover" end="reset.mouseout"/></use>
  </g>
</defs>
<script type="application/ecmascript">
var viewWidth = 870;
var viewHeight = 446;
var sectionId = 'dynsection-58';
</script>
<script type="application/ecmascript" xlink:href="../../svg.min.js"/>
<svg id="graph" class="graph">
<g id="viewport">
<title>UnrefPhysicalCamera</title>
<!-- Node1 -->
<g id="Node000001" class="node">
<title>Node1</title>
<g id="a_Node000001"><a xlink:title=" ">
<polygon fill="#999999" stroke="#666666" points="861.75,-229 749.75,-229 749.75,-209 861.75,-209 861.75,-229"/>
<text xml:space="preserve" text-anchor="middle" x="805.75" y="-215.5" font-family="Helvetica,sans-Serif" font-size="10.00">UnrefPhysicalCamera</text>
</a>
</g>
</g>
<!-- Node2 -->
<g id="Node000002" class="node">
<title>Node2</title>
<g id="a_Node000002"><a xlink:href="../../db/d6b/SDL__camera_8c.html#ab22ee16a96e2cb69d7d87f64f8c234e1" target="_top" xlink:title=" ">
<polygon fill="white" stroke="#666666" points="713.75,-229 627.25,-229 627.25,-209 713.75,-209 713.75,-229"/>
<text xml:space="preserve" text-anchor="middle" x="670.5" y="-215.5" font-family="Helvetica,sans-Serif" font-size="10.00">ReleaseCamera</text>
</a>
</g>
</g>
<!-- Node1&#45;&gt;Node2 -->
<g id="edge1_Node000001_Node000002" class="edge">
<title>Node1&#45;&gt;Node2</title>
<g id="a_edge1_Node000001_Node000002"><a xlink:title=" ">
<path fill="none" stroke="#63b8ff" d="M737.89,-219C729.72,-219 721.55,-219 713.88,-219"/>
<polygon fill="#63b8ff" stroke="#63b8ff" points="737.88,-222.5 747.88,-219 737.88,-215.5 737.88,-222.5"/>
</a>
</g>
</g>
<!-- Node3 -->
<g id="Node000003" class="node">
<title>Node3</title>
<g id="a_Node000003"><a xlink:href="../../db/d6b/SDL__camera_8c.html#adb656bd4baa9b1811c13486a98370d16" target="_top" xlink:title=" ">
<polygon fill="white" stroke="#666666" points="573.62,-438 437.62,-438 437.62,-418 573.62,-418 573.62,-438"/>
<text xml:space="preserve" text-anchor="middle" x="505.62" y="-424.5" font-family="Helvetica,sans-Serif" font-size="10.00">SDL_AcquireCameraFrame</text>
</a>
</g>
</g>
<!-- Node2&#45;&gt;Node3 -->
<g id="edge2_Node000002_Node000003" class="edge">
<title>Node2&#45;&gt;Node3</title>
<g id="a_edge2_Node000002_Node000003"><a xlink:title=" ">
<path fill="none" stroke="#63b8ff" d="M667.07,-240.54C661.41,-280.24 643.56,-364.9 591.25,-409 586.07,-413.37 580.1,-416.79 573.77,-419.46"/>
<polygon fill="#63b8ff" stroke="#63b8ff" points="670.54,-241 668.34,-230.64 663.6,-240.11 670.54,-241"/>
</a>
</g>
</g>
<!-- Node4 -->
<g id="Node000004" class="node">
<title>Node4</title>
<g id="a_Node000004"><a xlink:href="../../db/d6b/SDL__camera_8c.html#acd24207c14e2b43ccdf28e8107f3f2a5" target="_top" xlink:title=" ">
<polygon fill="white" stroke="#666666" points="573.25,-400 438,-400 438,-380 573.25,-380 573.25,-400"/>
<text xml:space="preserve" text-anchor="middle" x="505.62" y="-386.5" font-family="Helvetica,sans-Serif" font-size="10.00">SDL_CameraDisconnected</text>
</a>
</g>
</g>
<!-- Node2&#45;&gt;Node4 -->
<g id="edge3_Node000002_Node000004" class="edge">
<title>Node2&#45;&gt;Node4</title>
<g id="a_edge3_Node000002_Node000004"><a xlink:title=" ">
<path fill="none" stroke="#63b8ff" d="M664.03,-240.11C654.64,-272.16 632.35,-332.83 591.25,-366 584,-371.85 575.4,-376.28 566.51,-379.62"/>
<polygon fill="#63b8ff" stroke="#63b8ff" points="667.31,-241.38 666.61,-230.81 660.57,-239.51 667.31,-241.38"/>
</a>
</g>
</g>
<!-- Node6 -->
<g id="Node000006" class="node">
<title>Node6</title>
<g id="a_Node000006"><a xlink:href="../../db/d6b/SDL__camera_8c.html#a52469fec975f103f2456d9e03a868fba" target="_top" xlink:title=" ">
<polygon fill="white" stroke="#666666" points="98.5,-381 0,-381 0,-361 98.5,-361 98.5,-381"/>
<text xml:space="preserve" text-anchor="middle" x="49.25" y="-367.5" font-family="Helvetica,sans-Serif" font-size="10.00">SDL_OpenCamera</text>
</a>
</g>
</g>
<!-- Node2&#45;&gt;Node6 -->
<g id="edge16_Node000002_Node000006" class="edge">
<title>Node2&#45;&gt;Node6</title>
<g id="a_edge16_Node000002_Node000006"><a xlink:title=" ">
<path fill="none" stroke="#63b8ff" d="M661.92,-239.71C650.91,-266.48 627.73,-312.13 591.25,-333 549.11,-357.11 223.71,-367.04 98.83,-369.98"/>
<polygon fill="#63b8ff" stroke="#63b8ff" points="665.1,-241.21 665.47,-230.62 658.57,-238.66 665.1,-241.21"/>
</a>
</g>
</g>
<!-- Node8 -->
<g id="Node000008" class="node">
<title>Node8</title>
<g id="a_Node000008"><a xlink:href="../../db/d6b/SDL__camera_8c.html#aaf114744da523edc8f10da088e887bc8" target="_top" xlink:title=" ">
<polygon fill="white" stroke="#666666" points="587.5,-324 423.75,-324 423.75,-304 587.5,-304 587.5,-324"/>
<text xml:space="preserve" text-anchor="middle" x="505.62" y="-310.5" font-family="Helvetica,sans-Serif" font-size="10.00">SDL_CameraPermissionOutcome</text>
</a>
</g>
</g>
<!-- Node2&#45;&gt;Node8 -->
<g id="edge8_Node000002_Node000008" class="edge">
<title>Node2&#45;&gt;Node8</title>
<g id="a_edge8_Node000002_Node000008"><a xlink:title=" ">
<path fill="none" stroke="#63b8ff" d="M654.93,-238.26C640.64,-255.77 617.25,-280.94 591.25,-295 584.89,-298.44 577.94,-301.26 570.85,-303.56"/>
<polygon fill="#63b8ff" stroke="#63b8ff" points="657.5,-240.65 660.95,-230.64 652.01,-236.31 657.5,-240.65"/>
</a>
</g>
</g>
<!-- Node9 -->
<g id="Node000009" class="node">
<title>Node9</title>
<g id="a_Node000009"><a xlink:href="../../db/d6b/SDL__camera_8c.html#ad07f724e49b2712b4393d71a88f9c9da" target="_top" xlink:title=" ">
<polygon fill="white" stroke="#666666" points="566.5,-286 444.75,-286 444.75,-266 566.5,-266 566.5,-286"/>
<text xml:space="preserve" text-anchor="middle" x="505.62" y="-272.5" font-family="Helvetica,sans-Serif" font-size="10.00">SDL_GetCameraFormat</text>
</a>
</g>
</g>
<!-- Node2&#45;&gt;Node9 -->
<g id="edge9_Node000002_Node000009" class="edge">
<title>Node2&#45;&gt;Node9</title>
<g id="a_edge9_Node000002_Node000009"><a xlink:title=" ">
<path fill="none" stroke="#63b8ff" d="M641.16,-234.73C626.59,-242.31 608.34,-251.02 591.25,-257 581.87,-260.28 571.7,-263.13 561.77,-265.56"/>
<polygon fill="#63b8ff" stroke="#63b8ff" points="642.53,-237.97 649.71,-230.18 639.24,-231.79 642.53,-237.97"/>
</a>
</g>
</g>
<!-- Node10 -->
<g id="Node000010" class="node">
<title>Node10</title>
<g id="a_Node000010"><a xlink:href="../../db/d6b/SDL__camera_8c.html#aabba86e97fffff0d55fae7efe2ecff94" target="_top" xlink:title=" ">
<polygon fill="white" stroke="#666666" points="556.38,-248 454.88,-248 454.88,-228 556.38,-228 556.38,-248"/>
<text xml:space="preserve" text-anchor="middle" x="505.62" y="-234.5" font-family="Helvetica,sans-Serif" font-size="10.00">SDL_GetCameraID</text>
</a>
</g>
</g>
<!-- Node2&#45;&gt;Node10 -->
<g id="edge10_Node000002_Node000010" class="edge">
<title>Node2&#45;&gt;Node10</title>
<g id="a_edge10_Node000002_Node000010"><a xlink:title=" ">
<path fill="none" stroke="#63b8ff" d="M615.89,-225.25C596.79,-227.48 575.37,-229.98 556.59,-232.17"/>
<polygon fill="#63b8ff" stroke="#63b8ff" points="616.1,-228.75 625.63,-224.12 615.29,-221.8 616.1,-228.75"/>
</a>
</g>
</g>
<!-- Node11 -->
<g id="Node000011" class="node">
<title>Node11</title>
<g id="a_Node000011"><a xlink:href="../../db/d6b/SDL__camera_8c.html#a52e6a78e489760b12c2652f6fbb3e70e" target="_top" xlink:title=" ">
<polygon fill="white" stroke="#666666" points="564.25,-210 447,-210 447,-190 564.25,-190 564.25,-210"/>
<text xml:space="preserve" text-anchor="middle" x="505.62" y="-196.5" font-family="Helvetica,sans-Serif" font-size="10.00">SDL_GetCameraName</text>
</a>
</g>
</g>
<!-- Node2&#45;&gt;Node11 -->
<g id="edge11_Node000002_Node000011" class="edge">
<title>Node2&#45;&gt;Node11</title>
<g id="a_edge11_Node000002_Node000011"><a xlink:title=" ">
<path fill="none" stroke="#63b8ff" d="M616.07,-212.77C599.63,-210.85 581.46,-208.73 564.72,-206.78"/>
<polygon fill="#63b8ff" stroke="#63b8ff" points="615.29,-216.2 625.63,-213.88 616.1,-209.25 615.29,-216.2"/>
</a>
</g>
</g>
<!-- Node12 -->
<g id="Node000012" class="node">
<title>Node12</title>
<g id="a_Node000012"><a xlink:href="../../db/d6b/SDL__camera_8c.html#ac15e9525ddbbd34f7b1335bcfb678751" target="_top" xlink:title=" ">
<polygon fill="white" stroke="#666666" points="587.12,-172 424.12,-172 424.12,-152 587.12,-152 587.12,-172"/>
<text xml:space="preserve" text-anchor="middle" x="505.62" y="-158.5" font-family="Helvetica,sans-Serif" font-size="10.00">SDL_GetCameraPermissionState</text>
</a>
</g>
</g>
<!-- Node2&#45;&gt;Node12 -->
<g id="edge12_Node000002_Node000012" class="edge">
<title>Node2&#45;&gt;Node12</title>
<g id="a_edge12_Node000002_Node000012"><a xlink:title=" ">
<path fill="none" stroke="#63b8ff" d="M641.16,-203.27C626.59,-195.69 608.34,-186.98 591.25,-181 581.87,-177.72 571.7,-174.87 561.77,-172.44"/>
<polygon fill="#63b8ff" stroke="#63b8ff" points="639.24,-206.21 649.71,-207.82 642.53,-200.03 639.24,-206.21"/>
</a>
</g>
</g>
<!-- Node13 -->
<g id="Node000013" class="node">
<title>Node13</title>
<g id="a_Node000013"><a xlink:href="../../db/d6b/SDL__camera_8c.html#a5af1812f716601276da09d886ac6af8b" target="_top" xlink:title=" ">
<polygon fill="white" stroke="#666666" points="568.75,-134 442.5,-134 442.5,-114 568.75,-114 568.75,-134"/>
<text xml:space="preserve" text-anchor="middle" x="505.62" y="-120.5" font-family="Helvetica,sans-Serif" font-size="10.00">SDL_GetCameraPosition</text>
</a>
</g>
</g>
<!-- Node2&#45;&gt;Node13 -->
<g id="edge13_Node000002_Node000013" class="edge">
<title>Node2&#45;&gt;Node13</title>
<g id="a_edge13_Node000002_Node000013"><a xlink:title=" ">
<path fill="none" stroke="#63b8ff" d="M654.93,-199.74C640.64,-182.23 617.25,-157.06 591.25,-143 584.36,-139.27 576.78,-136.28 569.07,-133.87"/>
<polygon fill="#63b8ff" stroke="#63b8ff" points="652.01,-201.69 660.95,-207.36 657.5,-197.35 652.01,-201.69"/>
</a>
</g>
</g>
<!-- Node14 -->
<g id="Node000014" class="node">
<title>Node14</title>
<g id="a_Node000014"><a xlink:href="../../db/d6b/SDL__camera_8c.html#aac8ec527b1a4e4c41b376f7fff527b72" target="_top" xlink:title=" ">
<polygon fill="white" stroke="#666666" points="573.25,-96 438,-96 438,-76 573.25,-76 573.25,-96"/>
<text xml:space="preserve" text-anchor="middle" x="505.62" y="-82.5" font-family="Helvetica,sans-Serif" font-size="10.00">SDL_GetCameraProperties</text>
</a>
</g>
</g>
<!-- Node2&#45;&gt;Node14 -->
<g id="edge14_Node000002_Node000014" class="edge">
<title>Node2&#45;&gt;Node14</title>
<g id="a_edge14_Node000002_Node000014"><a xlink:title=" ">
<path fill="none" stroke="#63b8ff" d="M661.07,-198.32C649.38,-172.33 625.71,-128.33 591.25,-105 585.76,-101.29 579.66,-98.29 573.32,-95.87"/>
<polygon fill="#63b8ff" stroke="#63b8ff" points="657.71,-199.35 664.88,-207.15 664.14,-196.59 657.71,-199.35"/>
</a>
</g>
</g>
<!-- Node15 -->
<g id="Node000015" class="node">
<title>Node15</title>
<g id="a_Node000015"><a xlink:href="../../db/d6b/SDL__camera_8c.html#ac0d4f13cf5999309fef70689c342fdfa" target="_top" xlink:title=" ">
<polygon fill="white" stroke="#666666" points="591.25,-58 420,-58 420,-38 591.25,-38 591.25,-58"/>
<text xml:space="preserve" text-anchor="middle" x="505.62" y="-44.5" font-family="Helvetica,sans-Serif" font-size="10.00">SDL_GetCameraSupportedFormats</text>
</a>
</g>
</g>
<!-- Node2&#45;&gt;Node15 -->
<g id="edge15_Node000002_Node000015" class="edge">
<title>Node2&#45;&gt;Node15</title>
<g id="a_edge15_Node000002_Node000015"><a xlink:title=" ">
<path fill="none" stroke="#63b8ff" d="M664.6,-197.37C655.87,-164 634.35,-100.32 591.25,-67 586.84,-63.59 581.94,-60.77 576.78,-58.44"/>
<polygon fill="#63b8ff" stroke="#63b8ff" points="661.2,-198.2 666.98,-207.09 668,-196.54 661.2,-198.2"/>
</a>
</g>
</g>
<!-- Node16 -->
<g id="Node000016" class="node">
<title>Node16</title>
<g id="a_Node000016"><a xlink:href="../../db/d6b/SDL__camera_8c.html#a8fc1cdd8252e34f341fab7774213065d" target="_top" xlink:title=" ">
<polygon fill="white" stroke="#666666" points="575.12,-20 436.12,-20 436.12,0 575.12,0 575.12,-20"/>
<text xml:space="preserve" text-anchor="middle" x="505.62" y="-6.5" font-family="Helvetica,sans-Serif" font-size="10.00">SDL_ReleaseCameraFrame</text>
</a>
</g>
</g>
<!-- Node2&#45;&gt;Node16 -->
<g id="edge17_Node000002_Node000016" class="edge">
<title>Node2&#45;&gt;Node16</title>
<g id="a_edge17_Node000002_Node000016"><a xlink:title=" ">
<path fill="none" stroke="#63b8ff" d="M667.07,-197.46C661.41,-157.76 643.56,-73.1 591.25,-29 586.53,-25.02 581.15,-21.83 575.45,-19.27"/>
<polygon fill="#63b8ff" stroke="#63b8ff" points="663.6,-197.89 668.34,-207.36 670.54,-197 663.6,-197.89"/>
</a>
</g>
</g>
<!-- Node5 -->
<g id="Node000005" class="node">
<title>Node5</title>
<g id="a_Node000005"><a xlink:href="../../db/d6b/SDL__camera_8c.html#a03e068ea12aee6918e95902871cb3523" target="_top" xlink:title=" ">
<polygon fill="white" stroke="#666666" points="215,-400 134.5,-400 134.5,-380 215,-380 215,-400"/>
<text xml:space="preserve" text-anchor="middle" x="174.75" y="-386.5" font-family="Helvetica,sans-Serif" font-size="10.00">CameraThread</text>
</a>
</g>
</g>
<!-- Node4&#45;&gt;Node5 -->
<g id="edge4_Node000004_Node000005" class="edge">
<title>Node4&#45;&gt;Node5</title>
<g id="a_edge4_Node000004_Node000005"><a xlink:title=" ">
<path fill="none" stroke="#63b8ff" d="M438.53,-402.32C420.88,-405.08 401.77,-407.61 384,-409 325.07,-413.61 309.66,-416.29 251,-409 237.23,-407.29 222.36,-403.88 209.5,-400.41"/>
<polygon fill="#63b8ff" stroke="#63b8ff" points="439.09,-405.77 448.4,-400.71 437.97,-398.86 439.09,-405.77"/>
</a>
</g>
</g>
<!-- Node7 -->
<g id="Node000007" class="node">
<title>Node7</title>
<g id="a_Node000007"><a xlink:href="../../db/d6b/SDL__camera_8c.html#aada59aeebd93ce01f07435a3741fc972" target="_top" xlink:title=" ">
<polygon fill="white" stroke="#666666" points="384,-400 251,-400 251,-380 384,-380 384,-400"/>
<text xml:space="preserve" text-anchor="middle" x="317.5" y="-386.5" font-family="Helvetica,sans-Serif" font-size="10.00">SDL_CameraThreadIterate</text>
</a>
</g>
</g>
<!-- Node4&#45;&gt;Node7 -->
<g id="edge6_Node000004_Node000007" class="edge">
<title>Node4&#45;&gt;Node7</title>
<g id="a_edge6_Node000004_Node000007"><a xlink:title=" ">
<path fill="none" stroke="#63b8ff" d="M426.53,-390C412.45,-390 397.9,-390 384.22,-390"/>
<polygon fill="#63b8ff" stroke="#63b8ff" points="426.18,-393.5 436.18,-390 426.18,-386.5 426.18,-393.5"/>
</a>
</g>
</g>
<!-- Node5&#45;&gt;Node6 -->
<g id="edge5_Node000005_Node000006" class="edge">
<title>Node5&#45;&gt;Node6</title>
<g id="a_edge5_Node000005_Node000006"><a xlink:title=" ">
<path fill="none" stroke="#63b8ff" d="M123.19,-382.22C115.13,-380.98 106.82,-379.7 98.82,-378.47"/>
<polygon fill="#63b8ff" stroke="#63b8ff" points="122.42,-385.64 132.84,-383.71 123.49,-378.73 122.42,-385.64"/>
</a>
</g>
</g>
<!-- Node7&#45;&gt;Node5 -->
<g id="edge7_Node000007_Node000005" class="edge">
<title>Node7&#45;&gt;Node5</title>
<g id="a_edge7_Node000007_Node000005"><a xlink:title=" ">
<path fill="none" stroke="#63b8ff" d="M239.38,-390C231.14,-390 223.02,-390 215.48,-390"/>
<polygon fill="#63b8ff" stroke="#63b8ff" points="239.14,-393.5 249.14,-390 239.14,-386.5 239.14,-393.5"/>
</a>
</g>
</g>
</g>
</svg>

<g id="navigator" transform="translate(0 0)" fill="#404254">
  <rect fill="#f2f5e9" fill-opacity="0.5" stroke="#606060" stroke-width=".5" x="0" y="0" width="60" height="60"/>
  <use id="zoomplus" xlink:href="#zoomPlus" x="17" y="9" onmousedown="handleZoom(evt,'in')"/>
  <use id="zoomminus" xlink:href="#zoomMin" x="42" y="9" onmousedown="handleZoom(evt,'out')"/>
  <use id="reset" xlink:href="#resetDef" x="30" y="36" onmousedown="handleReset()"/>
   <use id="arrowup" xlink:href="#arrowUp" x="0" y="0" onmousedown="handlePan(0,-1)"/>
  <use id="arrowright" xlink:href="#arrowRight" x="0" y="0" onmousedown="handlePan(1,0)"/>
  <use id="arrowdown" xlink:href="#arrowDown" x="0" y="0" onmousedown="handlePan(0,1)"/>
  <use id="arrowleft" xlink:href="#arrowLeft" x="0" y="0" onmousedown="handlePan(-1,0)"/>
</g>
<svg viewBox="0 0 15 15" width="100%" height="30px" preserveAspectRatio="xMaxYMin meet">
 <g id="arrow_out" transform="scale(0.3 0.3)">
  <a xlink:href="SDL__camera_8c_ac5d9e3c62323ba5c687a9ec0c635cd90_icgraph_org.svg" target="_base">
   <rect id="button" ry="5" rx="5" y="6" x="6" height="38" width="38"
        fill="#f2f5e9" fill-opacity="0.5" stroke="#606060" stroke-width="1.0"/>
   <path id="arrow"
     d="M 11.500037,31.436501 C 11.940474,20.09759 22.043105,11.32322 32.158766,21.979434 L 37.068811,17.246167 C 37.068811,17.246167 37.088388,32 37.088388,32 L 22.160133,31.978069 C 22.160133,31.978069 26.997745,27.140456 26.997745,27.140456 C 18.528582,18.264221 13.291696,25.230495 11.500037,31.436501 z"
     style="fill:#404040;"/>
  </a>
 </g>
</svg>

<style type='text/css'>
<![CDATA[
[data-mouse-over-selected='false'] { opacity: 0.7; }
[data-mouse-over-selected='true']  { opacity: 1.0; }
]]>
</style>
<script type="application/ecmascript"><![CDATA[
document.addEventListener('DOMContentLoaded', (event) => {
  highlightEdges();
  highlightAdjacentNodes();
});
]]></script>
</svg>
