<?xml version="1.0" encoding="UTF-8" standalone="no"?>
<!DOCTYPE svg PUBLIC "-//W3C//DTD SVG 1.1//EN"
 "http://www.w3.org/Graphics/SVG/1.1/DTD/svg11.dtd">
<!-- Generated by graphviz version 13.1.0 (20250701.0955)
 -->
<!-- Title: ChooseBestCameraSpec Pages: 1 -->
<svg width="455pt" height="66pt"
 viewBox="0.00 0.00 455.00 66.00" xmlns="http://www.w3.org/2000/svg" xmlns:xlink="http://www.w3.org/1999/xlink">
<g id="graph0" class="graph" transform="scale(1 1) rotate(0) translate(4 62)">
<title>ChooseBestCameraSpec</title>
<!-- Node1 -->
<g id="Node000001" class="node">
<title>Node1</title>
<g id="a_Node000001"><a xlink:title=" ">
<polygon fill="#999999" stroke="#666666" points="127,-39 0,-39 0,-19 127,-19 127,-39"/>
<text xml:space="preserve" text-anchor="middle" x="63.5" y="-25.5" font-family="Helvetica,sans-Serif" font-size="10.00">ChooseBestCameraSpec</text>
</a>
</g>
</g>
<!-- Node2 -->
<g id="Node000002" class="node">
<title>Node2</title>
<g id="a_Node000002"><a xlink:href="../../d3/d02/SDL__stdlib_8c.html#a1bfac1d9107e571f57ab6625dcacbdd5" target="_top" xlink:title=" ">
<polygon fill="white" stroke="#666666" points="222.5,-58 166,-58 166,-38 222.5,-38 222.5,-58"/>
<text xml:space="preserve" text-anchor="middle" x="194.25" y="-44.5" font-family="Helvetica,sans-Serif" font-size="10.00">SDL_abs</text>
</a>
</g>
</g>
<!-- Node1&#45;&gt;Node2 -->
<g id="edge1_Node000001_Node000002" class="edge">
<title>Node1&#45;&gt;Node2</title>
<g id="a_edge1_Node000001_Node000002"><a xlink:title=" ">
<path fill="none" stroke="#63b8ff" d="M127.37,-38.28C136.58,-39.64 145.84,-41 154.38,-42.26"/>
<polygon fill="#63b8ff" stroke="#63b8ff" points="153.62,-45.69 164.02,-43.69 154.64,-38.76 153.62,-45.69"/>
</a>
</g>
</g>
<!-- Node3 -->
<g id="Node000003" class="node">
<title>Node3</title>
<g id="a_Node000003"><a xlink:href="../../d3/d02/SDL__stdlib_8c.html#abf7b7019d7427e1f535ca9c911c2172a" target="_top" xlink:title=" ">
<polygon fill="white" stroke="#666666" points="225.5,-20 163,-20 163,0 225.5,0 225.5,-20"/>
<text xml:space="preserve" text-anchor="middle" x="194.25" y="-6.5" font-family="Helvetica,sans-Serif" font-size="10.00">SDL_fabsf</text>
</a>
</g>
</g>
<!-- Node1&#45;&gt;Node3 -->
<g id="edge2_Node000001_Node000003" class="edge">
<title>Node1&#45;&gt;Node3</title>
<g id="a_edge2_Node000001_Node000003"><a xlink:title=" ">
<path fill="none" stroke="#63b8ff" d="M127.37,-19.72C135.51,-18.52 143.68,-17.32 151.36,-16.18"/>
<polygon fill="#63b8ff" stroke="#63b8ff" points="151.7,-19.67 161.08,-14.75 150.67,-12.75 151.7,-19.67"/>
</a>
</g>
</g>
<!-- Node4 -->
<g id="Node000004" class="node">
<title>Node4</title>
<g id="a_Node000004"><a xlink:href="../../d3/d02/SDL__stdlib_8c.html#a827ffb37b67dd4b746a8a1b3d6c4caf1" target="_top" xlink:title=" ">
<polygon fill="white" stroke="#666666" points="321,-20 261.5,-20 261.5,0 321,0 321,-20"/>
<text xml:space="preserve" text-anchor="middle" x="291.25" y="-6.5" font-family="Helvetica,sans-Serif" font-size="10.00">SDL_fabs</text>
</a>
</g>
</g>
<!-- Node3&#45;&gt;Node4 -->
<g id="edge3_Node000003_Node000004" class="edge">
<title>Node3&#45;&gt;Node4</title>
<g id="a_edge3_Node000003_Node000004"><a xlink:title=" ">
<path fill="none" stroke="#63b8ff" d="M225.83,-10C233.41,-10 241.65,-10 249.63,-10"/>
<polygon fill="#63b8ff" stroke="#63b8ff" points="249.51,-13.5 259.51,-10 249.51,-6.5 249.51,-13.5"/>
</a>
</g>
</g>
<!-- Node5 -->
<g id="Node000005" class="node">
<title>Node5</title>
<g id="a_Node000005"><a xlink:href="../../dc/d49/s__fabs_8c.html#ab3ba83fc0468bd245bd1bb6518823b79" target="_top" xlink:title=" ">
<polygon fill="white" stroke="#666666" points="447.25,-20 357,-20 357,0 447.25,0 447.25,-20"/>
<text xml:space="preserve" text-anchor="middle" x="402.12" y="-6.5" font-family="Helvetica,sans-Serif" font-size="10.00">SDL_uclibc_fabs</text>
</a>
</g>
</g>
<!-- Node4&#45;&gt;Node5 -->
<g id="edge4_Node000004_Node000005" class="edge">
<title>Node4&#45;&gt;Node5</title>
<g id="a_edge4_Node000004_Node000005"><a xlink:title=" ">
<path fill="none" stroke="#63b8ff" d="M321.43,-10C328.87,-10 337.13,-10 345.43,-10"/>
<polygon fill="#63b8ff" stroke="#63b8ff" points="345.19,-13.5 355.19,-10 345.19,-6.5 345.19,-13.5"/>
</a>
</g>
</g>
</g>
</svg>
