<?xml version="1.0" encoding="UTF-8" standalone="no"?>
<!DOCTYPE svg PUBLIC "-//W3C//DTD SVG 1.1//EN"
 "http://www.w3.org/Graphics/SVG/1.1/DTD/svg11.dtd">
<!-- Generated by graphviz version 13.1.0 (20250701.0955)
 -->
<!-- Title: SDL_GetCameraThreadName Pages: 1 -->
<svg width="264pt" height="84pt"
 viewBox="0.00 0.00 264.00 84.00" xmlns="http://www.w3.org/2000/svg" xmlns:xlink="http://www.w3.org/1999/xlink">

<svg id="main" version="1.1" xmlns="http://www.w3.org/2000/svg" xmlns:xlink="http://www.w3.org/1999/xlink" xml:space="preserve">

<style type="text/css"><![CDATA[
.node, .edge {opacity: 0.7;}
.node.selected, .edge.selected {opacity: 1;}
.edge:hover path { stroke: red; }
.edge:hover polygon { stroke: red; fill: red; }
]]></style>
<script type="application/ecmascript" xlink:href="../../svg.min.js"/>
<svg id="graph" class="graph">
<g id="graph0" class="graph" transform="scale(1 1) rotate(0) translate(4 80)">
<title>SDL_GetCameraThreadName</title>
<!-- Node1 -->
<g id="Node000001" class="node">
<title>Node1</title>
<g id="a_Node000001"><a xlink:title=" ">
<polygon fill="#999999" stroke="#666666" points="147.25,-39 0,-39 0,-19 147.25,-19 147.25,-39"/>
<text xml:space="preserve" text-anchor="middle" x="73.62" y="-25.5" font-family="Helvetica,sans-Serif" font-size="10.00">SDL_GetCameraThreadName</text>
</a>
</g>
</g>
<!-- Node2 -->
<g id="Node000002" class="node">
<title>Node2</title>
<g id="a_Node000002"><a xlink:href="../../d2/d5b/SDL__stdinc_8h.html#a5056fbcb8d3d77a21e67c9687f889b40" target="_top" xlink:title=" ">
<polygon fill="white" stroke="#666666" points="256.25,-58 183.25,-58 183.25,-38 256.25,-38 256.25,-58"/>
<text xml:space="preserve" text-anchor="middle" x="219.75" y="-44.5" font-family="Helvetica,sans-Serif" font-size="10.00">SDL_snprintf</text>
</a>
</g>
</g>
<!-- Node1&#45;&gt;Node2 -->
<g id="edge1_Node000001_Node000002" class="edge">
<title>Node1&#45;&gt;Node2</title>
<g id="a_edge1_Node000001_Node000002"><a xlink:title=" ">
<path fill="none" stroke="#63b8ff" d="M147.53,-38.61C155.69,-39.69 163.84,-40.76 171.55,-41.78"/>
<polygon fill="#63b8ff" stroke="#63b8ff" points="171,-45.23 181.37,-43.07 171.91,-38.29 171,-45.23"/>
</a>
</g>
</g>
<!-- Node3 -->
<g id="Node000003" class="node">
<title>Node3</title>
<g id="a_Node000003"><a xlink:href="../../d3/dda/eglext_8h.html#a0f7193911e632cd84da4082d5c628fe3" target="_top" xlink:title=" ">
<polygon fill="white" stroke="#666666" points="236.75,-20 202.75,-20 202.75,0 236.75,0 236.75,-20"/>
<text xml:space="preserve" text-anchor="middle" x="219.75" y="-6.5" font-family="Helvetica,sans-Serif" font-size="10.00">void</text>
</a>
</g>
</g>
<!-- Node1&#45;&gt;Node3 -->
<g id="edge3_Node000001_Node000003" class="edge">
<title>Node1&#45;&gt;Node3</title>
<g id="a_edge3_Node000001_Node000003"><a xlink:title=" ">
<path fill="none" stroke="#63b8ff" d="M147.53,-19.39C163.19,-17.32 178.8,-15.27 191.4,-13.61"/>
<polygon fill="#63b8ff" stroke="#63b8ff" points="191.5,-17.12 200.95,-12.35 190.58,-10.18 191.5,-17.12"/>
</a>
</g>
</g>
<!-- Node2&#45;&gt;Node2 -->
<g id="edge2_Node000002_Node000002" class="edge">
<title>Node2&#45;&gt;Node2</title>
<g id="a_edge2_Node000002_Node000002"><a xlink:title=" ">
<path fill="none" stroke="#63b8ff" d="M196.53,-58.34C186.61,-66.98 194.35,-76 219.75,-76 233.64,-76 242.25,-73.3 245.58,-69.44"/>
<polygon fill="#63b8ff" stroke="#63b8ff" points="249.01,-68.75 243.31,-59.81 242.19,-70.35 249.01,-68.75"/>
</a>
</g>
</g>
</g>
</svg>
</svg>

<style type='text/css'>
<![CDATA[
[data-mouse-over-selected='false'] { opacity: 0.7; }
[data-mouse-over-selected='true']  { opacity: 1.0; }
]]>
</style>
<script type="application/ecmascript"><![CDATA[
document.addEventListener('DOMContentLoaded', (event) => {
  highlightEdges();
  highlightAdjacentNodes();
});
]]></script>
</svg>
