<?xml version="1.0" encoding="UTF-8" standalone="no"?>
<!DOCTYPE svg PUBLIC "-//W3C//DTD SVG 1.1//EN"
 "http://www.w3.org/Graphics/SVG/1.1/DTD/svg11.dtd">
<!-- Generated by graphviz version 13.1.0 (20250701.0955)
 -->
<!-- Title: SDL_NextAudioQueueIter Pages: 1 -->
<svg width="2233pt" height="233pt"
 viewBox="0.00 0.00 2233.00 233.00" xmlns="http://www.w3.org/2000/svg" xmlns:xlink="http://www.w3.org/1999/xlink">
<g id="graph0" class="graph" transform="scale(1 1) rotate(0) translate(4 229)">
<title>SDL_NextAudioQueueIter</title>
<!-- Node1 -->
<g id="Node000001" class="node">
<title>Node1</title>
<g id="a_Node000001"><a xlink:title=" ">
<polygon fill="#999999" stroke="#666666" points="2225.25,-39 2096,-39 2096,-19 2225.25,-19 2225.25,-39"/>
<text xml:space="preserve" text-anchor="middle" x="2160.62" y="-25.5" font-family="Helvetica,sans-Serif" font-size="10.00">SDL_NextAudioQueueIter</text>
</a>
</g>
</g>
<!-- Node2 -->
<g id="Node000002" class="node">
<title>Node2</title>
<g id="a_Node000002"><a xlink:href="../../dc/d77/SDL__audiocvt_8c.html#a24cc90df57e6ff3051c07285b91236f3" target="_top" xlink:title=" ">
<polygon fill="white" stroke="#666666" points="2042,-58 1934.5,-58 1934.5,-38 2042,-38 2042,-58"/>
<text xml:space="preserve" text-anchor="middle" x="1988.25" y="-44.5" font-family="Helvetica,sans-Serif" font-size="10.00">NextAudioStreamIter</text>
</a>
</g>
</g>
<!-- Node1&#45;&gt;Node2 -->
<g id="edge1_Node000001_Node000002" class="edge">
<title>Node1&#45;&gt;Node2</title>
<g id="a_edge1_Node000001_Node000002"><a xlink:title=" ">
<path fill="none" stroke="#63b8ff" d="M2084.44,-37.38C2070.27,-38.96 2055.72,-40.59 2042.4,-42.07"/>
<polygon fill="#63b8ff" stroke="#63b8ff" points="2084.64,-40.88 2094.19,-36.3 2083.87,-33.93 2084.64,-40.88"/>
</a>
</g>
</g>
<!-- Node24 -->
<g id="Node000024" class="node">
<title>Node24</title>
<g id="a_Node000024"><a xlink:href="../../df/dd6/SDL__audioqueue_8c.html#ab99fe6b8773a1179bcb6892782df7401" target="_top" xlink:title=" ">
<polygon fill="white" stroke="#666666" points="2060,-20 1916.5,-20 1916.5,0 2060,0 2060,-20"/>
<text xml:space="preserve" text-anchor="middle" x="1988.25" y="-6.5" font-family="Helvetica,sans-Serif" font-size="10.00">SDL_GetAudioQueueQueued</text>
</a>
</g>
</g>
<!-- Node1&#45;&gt;Node24 -->
<g id="edge29_Node000001_Node000024" class="edge">
<title>Node1&#45;&gt;Node24</title>
<g id="a_edge29_Node000001_Node000024"><a xlink:title=" ">
<path fill="none" stroke="#63b8ff" d="M2084.49,-20.62C2076.48,-19.73 2068.35,-18.82 2060.4,-17.93"/>
<polygon fill="#63b8ff" stroke="#63b8ff" points="2083.87,-24.07 2094.19,-21.7 2084.64,-17.12 2083.87,-24.07"/>
</a>
</g>
</g>
<!-- Node3 -->
<g id="Node000003" class="node">
<title>Node3</title>
<g id="a_Node000003"><a xlink:href="../../dc/d77/SDL__audiocvt_8c.html#af54bf2a4988f314e148e8d1f4e88bc0c" target="_top" xlink:title=" ">
<polygon fill="white" stroke="#666666" points="1880.5,-96 1719.75,-96 1719.75,-76 1880.5,-76 1880.5,-96"/>
<text xml:space="preserve" text-anchor="middle" x="1800.12" y="-82.5" font-family="Helvetica,sans-Serif" font-size="10.00">GetAudioStreamAvailableFrames</text>
</a>
</g>
</g>
<!-- Node2&#45;&gt;Node3 -->
<g id="edge2_Node000002_Node000003" class="edge">
<title>Node2&#45;&gt;Node3</title>
<g id="a_edge2_Node000002_Node000003"><a xlink:title=" ">
<path fill="none" stroke="#63b8ff" d="M1924.62,-60.79C1901.1,-65.59 1874.67,-70.99 1852.31,-75.55"/>
<polygon fill="#63b8ff" stroke="#63b8ff" points="1925.32,-64.22 1934.41,-58.79 1923.92,-57.36 1925.32,-64.22"/>
</a>
</g>
</g>
<!-- Node23 -->
<g id="Node000023" class="node">
<title>Node23</title>
<g id="a_Node000023"><a xlink:href="../../dc/d77/SDL__audiocvt_8c.html#ad64f69c0afe2f21854b8a58c355a04d8" target="_top" xlink:title=" ">
<polygon fill="white" stroke="#666666" points="1663.12,-58 1551.88,-58 1551.88,-38 1663.12,-38 1663.12,-58"/>
<text xml:space="preserve" text-anchor="middle" x="1607.5" y="-44.5" font-family="Helvetica,sans-Serif" font-size="10.00">GetAudioStreamHead</text>
</a>
</g>
</g>
<!-- Node2&#45;&gt;Node23 -->
<g id="edge27_Node000002_Node000023" class="edge">
<title>Node2&#45;&gt;Node23</title>
<g id="a_edge27_Node000002_Node000023"><a xlink:title=" ">
<path fill="none" stroke="#63b8ff" d="M1922.87,-48C1849.89,-48 1732.14,-48 1663.35,-48"/>
<polygon fill="#63b8ff" stroke="#63b8ff" points="1922.67,-51.5 1932.67,-48 1922.67,-44.5 1922.67,-51.5"/>
</a>
</g>
</g>
<!-- Node4 -->
<g id="Node000004" class="node">
<title>Node4</title>
<g id="a_Node000004"><a xlink:href="../../dc/d77/SDL__audiocvt_8c.html#a89230523a1cb9ff52caa16b3b91a1771" target="_top" xlink:title=" ">
<polygon fill="white" stroke="#666666" points="1683.75,-134 1531.25,-134 1531.25,-114 1683.75,-114 1683.75,-134"/>
<text xml:space="preserve" text-anchor="middle" x="1607.5" y="-120.5" font-family="Helvetica,sans-Serif" font-size="10.00">SDL_GetAudioStreamAvailable</text>
</a>
</g>
</g>
<!-- Node3&#45;&gt;Node4 -->
<g id="edge3_Node000003_Node000004" class="edge">
<title>Node3&#45;&gt;Node4</title>
<g id="a_edge3_Node000003_Node000004"><a xlink:title=" ">
<path fill="none" stroke="#63b8ff" d="M1735.31,-98.72C1711.14,-103.54 1683.92,-108.96 1660.92,-113.55"/>
<polygon fill="#63b8ff" stroke="#63b8ff" points="1735.92,-102.17 1745.05,-96.78 1734.56,-95.3 1735.92,-102.17"/>
</a>
</g>
</g>
<!-- Node19 -->
<g id="Node000019" class="node">
<title>Node19</title>
<g id="a_Node000019"><a xlink:href="../../dc/d77/SDL__audiocvt_8c.html#a3ba5e9e434f54078c84d9a1469d44fea" target="_top" xlink:title=" ">
<polygon fill="white" stroke="#666666" points="1495.25,-77 1313.5,-77 1313.5,-57 1495.25,-57 1495.25,-77"/>
<text xml:space="preserve" text-anchor="middle" x="1404.38" y="-63.5" font-family="Helvetica,sans-Serif" font-size="10.00">SDL_GetAudioStreamDataAdjustGain</text>
</a>
</g>
</g>
<!-- Node3&#45;&gt;Node19 -->
<g id="edge20_Node000003_Node000019" class="edge">
<title>Node3&#45;&gt;Node19</title>
<g id="a_edge20_Node000003_Node000019"><a xlink:title=" ">
<path fill="none" stroke="#63b8ff" d="M1708.18,-81.61C1644.33,-78.53 1559.3,-74.43 1495.61,-71.35"/>
<polygon fill="#63b8ff" stroke="#63b8ff" points="1707.77,-85.1 1717.93,-82.08 1708.11,-78.1 1707.77,-85.1"/>
</a>
</g>
</g>
<!-- Node5 -->
<g id="Node000005" class="node">
<title>Node5</title>
<g id="a_Node000005"><a xlink:href="../../dc/d77/SDL__audiocvt_8c.html#a0cfc2690d4770f3b9c5391764f06df8d" target="_top" xlink:title=" ">
<polygon fill="white" stroke="#666666" points="1476.88,-181 1331.88,-181 1331.88,-161 1476.88,-161 1476.88,-181"/>
<text xml:space="preserve" text-anchor="middle" x="1404.38" y="-167.5" font-family="Helvetica,sans-Serif" font-size="10.00">PutAudioStreamBufferInternal</text>
</a>
</g>
</g>
<!-- Node4&#45;&gt;Node5 -->
<g id="edge4_Node000004_Node000005" class="edge">
<title>Node4&#45;&gt;Node5</title>
<g id="a_edge4_Node000004_Node000005"><a xlink:title=" ">
<path fill="none" stroke="#63b8ff" d="M1550.73,-137.03C1519.01,-144.44 1479.82,-153.6 1450.12,-160.54"/>
<polygon fill="#63b8ff" stroke="#63b8ff" points="1551.2,-140.52 1560.14,-134.83 1549.61,-133.7 1551.2,-140.52"/>
</a>
</g>
</g>
<!-- Node18 -->
<g id="Node000018" class="node">
<title>Node18</title>
<g id="a_Node000018"><a xlink:href="../../dc/d77/SDL__audiocvt_8c.html#a90af0e041cebdc41c97e4f30cfdcf01a" target="_top" xlink:title=" ">
<polygon fill="white" stroke="#666666" points="890,-124 751.75,-124 751.75,-104 890,-104 890,-124"/>
<text xml:space="preserve" text-anchor="middle" x="820.88" y="-110.5" font-family="Helvetica,sans-Serif" font-size="10.00">SDL_ConvertAudioSamples</text>
</a>
</g>
</g>
<!-- Node4&#45;&gt;Node18 -->
<g id="edge19_Node000004_Node000018" class="edge">
<title>Node4&#45;&gt;Node18</title>
<g id="a_edge19_Node000004_Node000018"><a xlink:title=" ">
<path fill="none" stroke="#63b8ff" d="M1519.42,-122.89C1361.95,-120.88 1032.98,-116.69 890.32,-114.87"/>
<polygon fill="#63b8ff" stroke="#63b8ff" points="1519.35,-126.39 1529.4,-123.02 1519.44,-119.39 1519.35,-126.39"/>
</a>
</g>
</g>
<!-- Node6 -->
<g id="Node000006" class="node">
<title>Node6</title>
<g id="a_Node000006"><a xlink:href="../../dc/d77/SDL__audiocvt_8c.html#a0c7c55ad2b82dbc7ce6b5113ac456452" target="_top" xlink:title=" ">
<polygon fill="white" stroke="#666666" points="1267,-181 1154.25,-181 1154.25,-161 1267,-161 1267,-181"/>
<text xml:space="preserve" text-anchor="middle" x="1210.62" y="-167.5" font-family="Helvetica,sans-Serif" font-size="10.00">PutAudioStreamBuffer</text>
</a>
</g>
</g>
<!-- Node5&#45;&gt;Node6 -->
<g id="edge5_Node000005_Node000006" class="edge">
<title>Node5&#45;&gt;Node6</title>
<g id="a_edge5_Node000005_Node000006"><a xlink:title=" ">
<path fill="none" stroke="#63b8ff" d="M1320.15,-171C1302.35,-171 1283.96,-171 1267.49,-171"/>
<polygon fill="#63b8ff" stroke="#63b8ff" points="1319.92,-174.5 1329.92,-171 1319.92,-167.5 1319.92,-174.5"/>
</a>
</g>
</g>
<!-- Node8 -->
<g id="Node000008" class="node">
<title>Node8</title>
<g id="a_Node000008"><a xlink:href="../../dc/d77/SDL__audiocvt_8c.html#a013d8e85ba5cb31a851d3bfd54b33df3" target="_top" xlink:title=" ">
<polygon fill="white" stroke="#666666" points="901.25,-225 740.5,-225 740.5,-205 901.25,-205 901.25,-225"/>
<text xml:space="preserve" text-anchor="middle" x="820.88" y="-211.5" font-family="Helvetica,sans-Serif" font-size="10.00">SDL_PutAudioStreamPlanarData</text>
</a>
</g>
</g>
<!-- Node5&#45;&gt;Node8 -->
<g id="edge18_Node000005_Node000008" class="edge">
<title>Node5&#45;&gt;Node8</title>
<g id="a_edge18_Node000005_Node000008"><a xlink:title=" ">
<path fill="none" stroke="#63b8ff" d="M1326.16,-183.13C1310.09,-185.52 1293.26,-187.93 1277.5,-190 1202.23,-199.89 1183.5,-203.98 1107.75,-209 1038.28,-213.61 959.13,-214.97 901.75,-215.26"/>
<polygon fill="#63b8ff" stroke="#63b8ff" points="1326.27,-186.66 1335.64,-181.71 1325.23,-179.73 1326.27,-186.66"/>
</a>
</g>
</g>
<!-- Node7 -->
<g id="Node000007" class="node">
<title>Node7</title>
<g id="a_Node000007"><a xlink:href="../../dc/d77/SDL__audiocvt_8c.html#af2fe3a9702adf846f4f813d2a53389f5" target="_top" xlink:title=" ">
<polygon fill="white" stroke="#666666" points="1089.75,-200 956.75,-200 956.75,-180 1089.75,-180 1089.75,-200"/>
<text xml:space="preserve" text-anchor="middle" x="1023.25" y="-186.5" font-family="Helvetica,sans-Serif" font-size="10.00">SDL_PutAudioStreamData</text>
</a>
</g>
</g>
<!-- Node6&#45;&gt;Node7 -->
<g id="edge6_Node000006_Node000007" class="edge">
<title>Node6&#45;&gt;Node7</title>
<g id="a_edge6_Node000006_Node000007"><a xlink:title=" ">
<path fill="none" stroke="#63b8ff" d="M1142.71,-177.86C1125.59,-179.61 1107.19,-181.5 1090.12,-183.25"/>
<polygon fill="#63b8ff" stroke="#63b8ff" points="1142.66,-181.38 1152.25,-176.88 1141.94,-174.42 1142.66,-181.38"/>
</a>
</g>
</g>
<!-- Node17 -->
<g id="Node000017" class="node">
<title>Node17</title>
<g id="a_Node000017"><a xlink:href="../../dc/d77/SDL__audiocvt_8c.html#af47d703f8e43d5087951d17b6c8436a5" target="_top" xlink:title=" ">
<polygon fill="white" stroke="#666666" points="1107.75,-162 938.75,-162 938.75,-142 1107.75,-142 1107.75,-162"/>
<text xml:space="preserve" text-anchor="middle" x="1023.25" y="-148.5" font-family="Helvetica,sans-Serif" font-size="10.00">SDL_PutAudioStreamDataNoCopy</text>
</a>
</g>
</g>
<!-- Node6&#45;&gt;Node17 -->
<g id="edge16_Node000006_Node000017" class="edge">
<title>Node6&#45;&gt;Node17</title>
<g id="a_edge16_Node000006_Node000017"><a xlink:title=" ">
<path fill="none" stroke="#63b8ff" d="M1142.37,-164.11C1131.24,-162.97 1119.57,-161.77 1108.08,-160.59"/>
<polygon fill="#63b8ff" stroke="#63b8ff" points="1141.94,-167.58 1152.25,-165.12 1142.66,-160.62 1141.94,-167.58"/>
</a>
</g>
</g>
<!-- Node7&#45;&gt;Node8 -->
<g id="edge7_Node000007_Node000008" class="edge">
<title>Node7&#45;&gt;Node8</title>
<g id="a_edge7_Node000007_Node000008"><a xlink:title=" ">
<path fill="none" stroke="#63b8ff" d="M945.06,-199.63C930.75,-201.42 915.79,-203.28 901.42,-205.08"/>
<polygon fill="#63b8ff" stroke="#63b8ff" points="945.37,-203.12 954.86,-198.41 944.5,-196.17 945.37,-203.12"/>
</a>
</g>
</g>
<!-- Node9 -->
<g id="Node000009" class="node">
<title>Node9</title>
<g id="a_Node000009"><a xlink:href="../../d6/d9b/SDL__audio_8c.html#a3a132c60c931f1c864ba5da2b1c86717" target="_top" xlink:title=" ">
<polygon fill="white" stroke="#666666" points="890.75,-174 751,-174 751,-142 890.75,-142 890.75,-174"/>
<text xml:space="preserve" text-anchor="start" x="759" y="-160.5" font-family="Helvetica,sans-Serif" font-size="10.00">SDL_RecordingAudioThread</text>
<text xml:space="preserve" text-anchor="middle" x="820.88" y="-148.5" font-family="Helvetica,sans-Serif" font-size="10.00">Iterate</text>
</a>
</g>
</g>
<!-- Node7&#45;&gt;Node9 -->
<g id="edge8_Node000007_Node000009" class="edge">
<title>Node7&#45;&gt;Node9</title>
<g id="a_edge8_Node000007_Node000009"><a xlink:title=" ">
<path fill="none" stroke="#63b8ff" d="M945.37,-177.72C927.51,-174.87 908.59,-171.85 891.08,-169.05"/>
<polygon fill="#63b8ff" stroke="#63b8ff" points="944.72,-181.16 955.15,-179.28 945.82,-174.25 944.72,-181.16"/>
</a>
</g>
</g>
<!-- Node10 -->
<g id="Node000010" class="node">
<title>Node10</title>
<g id="a_Node000010"><a xlink:href="../../d3/d8a/SDL__dummyaudio_8c.html#a954b1d30669ef0d1b5d4615515c94498" target="_top" xlink:title=" ">
<polygon fill="white" stroke="#666666" points="703,-128 558,-128 558,-108 703,-108 703,-128"/>
<text xml:space="preserve" text-anchor="middle" x="630.5" y="-114.5" font-family="Helvetica,sans-Serif" font-size="10.00">DUMMYAUDIO_OpenDevice</text>
</a>
</g>
</g>
<!-- Node9&#45;&gt;Node10 -->
<g id="edge9_Node000009_Node000010" class="edge">
<title>Node9&#45;&gt;Node10</title>
<g id="a_edge9_Node000009_Node000010"><a xlink:title=" ">
<path fill="none" stroke="#63b8ff" d="M739.53,-140.94C719.53,-136.69 698.67,-132.26 680.68,-128.44"/>
<polygon fill="#63b8ff" stroke="#63b8ff" points="738.54,-144.31 749.05,-142.96 740,-137.46 738.54,-144.31"/>
</a>
</g>
</g>
<!-- Node12 -->
<g id="Node000012" class="node">
<title>Node12</title>
<g id="a_Node000012"><a xlink:href="../../d6/d9b/SDL__audio_8c.html#a78509cdb3b4a17a333ba844e392a3c56" target="_top" xlink:title=" ">
<polygon fill="white" stroke="#666666" points="688,-167 573,-167 573,-147 688,-147 688,-167"/>
<text xml:space="preserve" text-anchor="middle" x="630.5" y="-153.5" font-family="Helvetica,sans-Serif" font-size="10.00">RecordingAudioThread</text>
</a>
</g>
</g>
<!-- Node9&#45;&gt;Node12 -->
<g id="edge11_Node000009_Node000012" class="edge">
<title>Node9&#45;&gt;Node12</title>
<g id="a_edge11_Node000009_Node000012"><a xlink:title=" ">
<path fill="none" stroke="#63b8ff" d="M739.37,-157.57C722.2,-157.48 704.42,-157.39 688.36,-157.3"/>
<polygon fill="#63b8ff" stroke="#63b8ff" points="739,-161.07 749.02,-157.62 739.04,-154.07 739,-161.07"/>
</a>
</g>
</g>
<!-- Node11 -->
<g id="Node000011" class="node">
<title>Node11</title>
<g id="a_Node000011"><a xlink:href="../../d3/d8a/SDL__dummyaudio_8c.html#a29ca48806a568f46e322654ffd7271ab" target="_top" xlink:title=" ">
<polygon fill="white" stroke="#666666" points="508.12,-128 403.62,-128 403.62,-108 508.12,-108 508.12,-128"/>
<text xml:space="preserve" text-anchor="middle" x="455.88" y="-114.5" font-family="Helvetica,sans-Serif" font-size="10.00">DUMMYAUDIO_Init</text>
</a>
</g>
</g>
<!-- Node10&#45;&gt;Node11 -->
<g id="edge10_Node000010_Node000011" class="edge">
<title>Node10&#45;&gt;Node11</title>
<g id="a_edge10_Node000010_Node000011"><a xlink:title=" ">
<path fill="none" stroke="#63b8ff" d="M546.44,-118C533.45,-118 520.37,-118 508.37,-118"/>
<polygon fill="#63b8ff" stroke="#63b8ff" points="546.28,-121.5 556.28,-118 546.28,-114.5 546.28,-121.5"/>
</a>
</g>
</g>
<!-- Node13 -->
<g id="Node000013" class="node">
<title>Node13</title>
<g id="a_Node000013"><a xlink:href="../../d6/d9b/SDL__audio_8c.html#a67d5d3273196908cd2180bde093c413d" target="_top" xlink:title=" ">
<polygon fill="white" stroke="#666666" points="522,-167 389.75,-167 389.75,-147 522,-147 522,-167"/>
<text xml:space="preserve" text-anchor="middle" x="455.88" y="-153.5" font-family="Helvetica,sans-Serif" font-size="10.00">OpenPhysicalAudioDevice</text>
</a>
</g>
</g>
<!-- Node12&#45;&gt;Node13 -->
<g id="edge12_Node000012_Node000013" class="edge">
<title>Node12&#45;&gt;Node13</title>
<g id="a_edge12_Node000012_Node000013"><a xlink:title=" ">
<path fill="none" stroke="#63b8ff" d="M561.73,-157C548.73,-157 535.14,-157 522.22,-157"/>
<polygon fill="#63b8ff" stroke="#63b8ff" points="561.46,-160.5 571.46,-157 561.46,-153.5 561.46,-160.5"/>
</a>
</g>
</g>
<!-- Node14 -->
<g id="Node000014" class="node">
<title>Node14</title>
<g id="a_Node000014"><a xlink:href="../../d6/d9b/SDL__audio_8c.html#ad4cae8cf429411be160ec61914b28043" target="_top" xlink:title=" ">
<polygon fill="white" stroke="#666666" points="353.75,-186 187,-186 187,-166 353.75,-166 353.75,-186"/>
<text xml:space="preserve" text-anchor="middle" x="270.38" y="-172.5" font-family="Helvetica,sans-Serif" font-size="10.00">SDL_DefaultAudioDeviceChanged</text>
</a>
</g>
</g>
<!-- Node13&#45;&gt;Node14 -->
<g id="edge13_Node000013_Node000014" class="edge">
<title>Node13&#45;&gt;Node14</title>
<g id="a_edge13_Node000013_Node000014"><a xlink:title=" ">
<path fill="none" stroke="#63b8ff" d="M377.99,-164.96C370.11,-165.78 362.08,-166.61 354.14,-167.43"/>
<polygon fill="#63b8ff" stroke="#63b8ff" points="378.31,-168.45 387.9,-163.93 377.59,-161.48 378.31,-168.45"/>
</a>
</g>
</g>
<!-- Node15 -->
<g id="Node000015" class="node">
<title>Node15</title>
<g id="a_Node000015"><a xlink:href="../../d6/d9b/SDL__audio_8c.html#ad4a998b0fa52004c6db6b4182de26f8c" target="_top" xlink:title=" ">
<polygon fill="white" stroke="#666666" points="330.12,-148 210.62,-148 210.62,-128 330.12,-128 330.12,-148"/>
<text xml:space="preserve" text-anchor="middle" x="270.38" y="-134.5" font-family="Helvetica,sans-Serif" font-size="10.00">SDL_OpenAudioDevice</text>
</a>
</g>
</g>
<!-- Node13&#45;&gt;Node15 -->
<g id="edge14_Node000013_Node000015" class="edge">
<title>Node13&#45;&gt;Node15</title>
<g id="a_edge14_Node000013_Node000015"><a xlink:title=" ">
<path fill="none" stroke="#63b8ff" d="M377.96,-149.04C362.06,-147.39 345.55,-145.68 330.41,-144.11"/>
<polygon fill="#63b8ff" stroke="#63b8ff" points="377.59,-152.52 387.9,-150.07 378.31,-145.55 377.59,-152.52"/>
</a>
</g>
</g>
<!-- Node16 -->
<g id="Node000016" class="node">
<title>Node16</title>
<g id="a_Node000016"><a xlink:href="../../d6/d9b/SDL__audio_8c.html#a73ac117b5e299633d58be618680af357" target="_top" xlink:title=" ">
<polygon fill="white" stroke="#666666" points="151,-148 0,-148 0,-128 151,-128 151,-148"/>
<text xml:space="preserve" text-anchor="middle" x="75.5" y="-134.5" font-family="Helvetica,sans-Serif" font-size="10.00">SDL_OpenAudioDeviceStream</text>
</a>
</g>
</g>
<!-- Node15&#45;&gt;Node16 -->
<g id="edge15_Node000015_Node000016" class="edge">
<title>Node15&#45;&gt;Node16</title>
<g id="a_edge15_Node000015_Node000016"><a xlink:title=" ">
<path fill="none" stroke="#63b8ff" d="M199.07,-138C183.52,-138 166.99,-138 151.26,-138"/>
<polygon fill="#63b8ff" stroke="#63b8ff" points="198.68,-141.5 208.68,-138 198.68,-134.5 198.68,-141.5"/>
</a>
</g>
</g>
<!-- Node17&#45;&gt;Node18 -->
<g id="edge17_Node000017_Node000018" class="edge">
<title>Node17&#45;&gt;Node18</title>
<g id="a_edge17_Node000017_Node000018"><a xlink:title=" ">
<path fill="none" stroke="#63b8ff" d="M955.86,-139.41C930.28,-134.56 901.38,-129.08 876.98,-124.45"/>
<polygon fill="#63b8ff" stroke="#63b8ff" points="955,-142.81 965.48,-141.23 956.31,-135.93 955,-142.81"/>
</a>
</g>
</g>
<!-- Node20 -->
<g id="Node000020" class="node">
<title>Node20</title>
<g id="a_Node000020"><a xlink:href="../../dc/d77/SDL__audiocvt_8c.html#a2cb08c5a71b1cb8d4fb4e1d4d3e8f9d6" target="_top" xlink:title=" ">
<polygon fill="white" stroke="#666666" points="1277.5,-86 1143.75,-86 1143.75,-66 1277.5,-66 1277.5,-86"/>
<text xml:space="preserve" text-anchor="middle" x="1210.62" y="-72.5" font-family="Helvetica,sans-Serif" font-size="10.00">SDL_GetAudioStreamData</text>
</a>
</g>
</g>
<!-- Node19&#45;&gt;Node20 -->
<g id="edge21_Node000019_Node000020" class="edge">
<title>Node19&#45;&gt;Node20</title>
<g id="a_edge21_Node000019_Node000020"><a xlink:title=" ">
<path fill="none" stroke="#63b8ff" d="M1301.72,-71.77C1293.66,-72.15 1285.66,-72.52 1277.95,-72.89"/>
<polygon fill="#63b8ff" stroke="#63b8ff" points="1301.78,-75.27 1311.6,-71.31 1301.45,-68.28 1301.78,-75.27"/>
</a>
</g>
</g>
<!-- Node21 -->
<g id="Node000021" class="node">
<title>Node21</title>
<g id="a_Node000021"><a xlink:href="../../d6/d9b/SDL__audio_8c.html#a8768a1f42de2a99b41a2fe823cc04720" target="_top" xlink:title=" ">
<polygon fill="white" stroke="#666666" points="902.75,-86 739,-86 739,-66 902.75,-66 902.75,-86"/>
<text xml:space="preserve" text-anchor="middle" x="820.88" y="-72.5" font-family="Helvetica,sans-Serif" font-size="10.00">SDL_PlaybackAudioThreadIterate</text>
</a>
</g>
</g>
<!-- Node19&#45;&gt;Node21 -->
<g id="edge23_Node000019_Node000021" class="edge">
<title>Node19&#45;&gt;Node21</title>
<g id="a_edge23_Node000019_Node000021"><a xlink:title=" ">
<path fill="none" stroke="#63b8ff" d="M1301.52,-58.22C1293.4,-57.73 1285.32,-57.31 1277.5,-57 1146.38,-51.8 994.05,-61.3 902.94,-68.64"/>
<polygon fill="#63b8ff" stroke="#63b8ff" points="1301.3,-61.71 1311.5,-58.86 1301.75,-54.72 1301.3,-61.71"/>
</a>
</g>
</g>
<!-- Node20&#45;&gt;Node18 -->
<g id="edge22_Node000020_Node000018" class="edge">
<title>Node20&#45;&gt;Node18</title>
<g id="a_edge22_Node000020_Node000018"><a xlink:title=" ">
<path fill="none" stroke="#63b8ff" d="M1132.08,-82.23C1077.88,-86.74 1003.85,-93.22 938.75,-100 923.1,-101.63 906.29,-103.55 890.43,-105.43"/>
<polygon fill="#63b8ff" stroke="#63b8ff" points="1132.15,-85.74 1141.83,-81.42 1131.57,-78.76 1132.15,-85.74"/>
</a>
</g>
</g>
<!-- Node21&#45;&gt;Node10 -->
<g id="edge24_Node000021_Node000010" class="edge">
<title>Node21&#45;&gt;Node10</title>
<g id="a_edge24_Node000021_Node000010"><a xlink:title=" ">
<path fill="none" stroke="#63b8ff" d="M761.65,-88.98C734.86,-94.95 703.5,-101.95 678.28,-107.57"/>
<polygon fill="#63b8ff" stroke="#63b8ff" points="762.35,-92.41 771.35,-86.82 760.83,-85.58 762.35,-92.41"/>
</a>
</g>
</g>
<!-- Node22 -->
<g id="Node000022" class="node">
<title>Node22</title>
<g id="a_Node000022"><a xlink:href="../../d6/d9b/SDL__audio_8c.html#a3473ee34d8a21ca17ce7dc8be4d62295" target="_top" xlink:title=" ">
<polygon fill="white" stroke="#666666" points="686.12,-89 574.88,-89 574.88,-69 686.12,-69 686.12,-89"/>
<text xml:space="preserve" text-anchor="middle" x="630.5" y="-75.5" font-family="Helvetica,sans-Serif" font-size="10.00">PlaybackAudioThread</text>
</a>
</g>
</g>
<!-- Node21&#45;&gt;Node22 -->
<g id="edge25_Node000021_Node000022" class="edge">
<title>Node21&#45;&gt;Node22</title>
<g id="a_edge25_Node000021_Node000022"><a xlink:title=" ">
<path fill="none" stroke="#63b8ff" d="M727.41,-77.47C713.38,-77.7 699.31,-77.92 686.43,-78.13"/>
<polygon fill="#63b8ff" stroke="#63b8ff" points="727.16,-80.98 737.11,-77.32 727.05,-73.98 727.16,-80.98"/>
</a>
</g>
</g>
<!-- Node22&#45;&gt;Node13 -->
<g id="edge26_Node000022_Node000013" class="edge">
<title>Node22&#45;&gt;Node13</title>
<g id="a_edge26_Node000022_Node000013"><a xlink:title=" ">
<path fill="none" stroke="#63b8ff" d="M568.42,-93.59C564.81,-95.21 561.3,-97.01 558,-99 538.08,-111.01 541.77,-124.74 522,-137 515.77,-140.87 508.74,-144.03 501.65,-146.61"/>
<polygon fill="#63b8ff" stroke="#63b8ff" points="569.42,-96.96 577.43,-90.02 566.84,-90.45 569.42,-96.96"/>
</a>
</g>
</g>
<!-- Node23&#45;&gt;Node19 -->
<g id="edge28_Node000023_Node000019" class="edge">
<title>Node23&#45;&gt;Node19</title>
<g id="a_edge28_Node000023_Node000019"><a xlink:title=" ">
<path fill="none" stroke="#63b8ff" d="M1540.3,-54.25C1525.96,-55.61 1510.56,-57.06 1495.48,-58.49"/>
<polygon fill="#63b8ff" stroke="#63b8ff" points="1540.41,-57.76 1550.03,-53.33 1539.75,-50.79 1540.41,-57.76"/>
</a>
</g>
</g>
<!-- Node25 -->
<g id="Node000025" class="node">
<title>Node25</title>
<g id="a_Node000025"><a xlink:href="../../dc/d77/SDL__audiocvt_8c.html#a679134609b28cf355393c2ffea309fb8" target="_top" xlink:title=" ">
<polygon fill="white" stroke="#666666" points="1873.38,-20 1726.88,-20 1726.88,0 1873.38,0 1873.38,-20"/>
<text xml:space="preserve" text-anchor="middle" x="1800.12" y="-6.5" font-family="Helvetica,sans-Serif" font-size="10.00">SDL_GetAudioStreamQueued</text>
</a>
</g>
</g>
<!-- Node24&#45;&gt;Node25 -->
<g id="edge30_Node000024_Node000025" class="edge">
<title>Node24&#45;&gt;Node25</title>
<g id="a_edge30_Node000024_Node000025"><a xlink:title=" ">
<path fill="none" stroke="#63b8ff" d="M1904.6,-10C1894.33,-10 1883.89,-10 1873.79,-10"/>
<polygon fill="#63b8ff" stroke="#63b8ff" points="1904.57,-13.5 1914.57,-10 1904.57,-6.5 1904.57,-13.5"/>
</a>
</g>
</g>
</g>
</svg>
