<?xml version="1.0" encoding="UTF-8" standalone="no"?>
<!DOCTYPE svg PUBLIC "-//W3C//DTD SVG 1.1//EN"
 "http://www.w3.org/Graphics/SVG/1.1/DTD/svg11.dtd">
<!-- Generated by graphviz version 13.1.0 (20250701.0955)
 -->
<!-- Title: FlushAudioTrack Pages: 1 -->
<!--zoomable 142 -->

<svg id="main" version="1.1" xmlns="http://www.w3.org/2000/svg" xmlns:xlink="http://www.w3.org/1999/xlink" xml:space="preserve" onload="init(evt)">

<style type="text/css"><![CDATA[
.node, .edge {opacity: 0.7;}
.node.selected, .edge.selected {opacity: 1;}
.edge:hover path { stroke: red; }
.edge:hover polygon { stroke: red; fill: red; }
]]></style>

<defs>
  <circle id="rim" cx="0" cy="0" r="7"/>
  <circle id="rim2" cx="0" cy="0" r="3.5"/>
  <g id="zoomPlus">
    <use xlink:href="#rim" fill="#404040"><set attributeName="fill" to="#808080" begin="zoomplus.mouseover" end="zoomplus.mouseout"/></use>
    <path d="M-4,0h8M0,-4v8" fill="none" stroke="white" stroke-width="1.5" pointer-events="none"/>
  </g>
  <g id="zoomMin">
    <use xlink:href="#rim" fill="#404040"><set attributeName="fill" to="#808080" begin="zoomminus.mouseover" end="zoomminus.mouseout"/></use>
    <path d="M-4,0h8" fill="none" stroke="white" stroke-width="1.5" pointer-events="none"/>
  </g>
  <g id="arrowUp" transform="translate(30 24)">
    <use xlink:href="#rim"/>
    <path pointer-events="none" fill="none" stroke="white" stroke-width="1.5" d="M0,-3.0v7 M-2.5,-0.5L0,-3.0L2.5,-0.5"/>
  </g>
  <g id="arrowRight" transform="rotate(90) translate(36 -43)">
    <use xlink:href="#rim"/>
    <path pointer-events="none" fill="none" stroke="white" stroke-width="1.5" d="M0,-3.0v7 M-2.5,-0.5L0,-3.0L2.5,-0.5"/>
  </g>
  <g id="arrowDown" transform="rotate(180) translate(-30 -48)">
    <use xlink:href="#rim"/>
    <path pointer-events="none" fill="none" stroke="white" stroke-width="1.5" d="M0,-3.0v7 M-2.5,-0.5L0,-3.0L2.5,-0.5"/>
  </g>
  <g id="arrowLeft" transform="rotate(270) translate(-36 17)">
    <use xlink:href="#rim"/>
    <path pointer-events="none" fill="none" stroke="white" stroke-width="1.5" d="M0,-3.0v7 M-2.5,-0.5L0,-3.0L2.5,-0.5"/>
  </g>
  <g id="resetDef">
    <use xlink:href="#rim2" fill="#404040"><set attributeName="fill" to="#808080" begin="reset.mouseover" end="reset.mouseout"/></use>
  </g>
</defs>
<script type="application/ecmascript">
var viewWidth = 1759;
var viewHeight = 142;
var sectionId = 'dynsection-11';
</script>
<script type="application/ecmascript" xlink:href="../../svg.min.js"/>
<svg id="graph" class="graph">
<g id="viewport">
<title>FlushAudioTrack</title>
<!-- Node1 -->
<g id="Node000001" class="node">
<title>Node1</title>
<g id="a_Node000001"><a xlink:title=" ">
<polygon fill="#999999" stroke="#666666" points="1750.75,-58 1661.25,-58 1661.25,-38 1750.75,-38 1750.75,-58"/>
<text xml:space="preserve" text-anchor="middle" x="1706" y="-44.5" font-family="Helvetica,sans-Serif" font-size="10.00">FlushAudioTrack</text>
</a>
</g>
</g>
<!-- Node2 -->
<g id="Node000002" class="node">
<title>Node2</title>
<g id="a_Node000002"><a xlink:href="../../df/dd6/SDL__audioqueue_8c.html#a9eeb0a0d347c64a29e199a11f5ed9226" target="_top" xlink:title=" ">
<polygon fill="white" stroke="#666666" points="1625.25,-96 1478.75,-96 1478.75,-76 1625.25,-76 1625.25,-96"/>
<text xml:space="preserve" text-anchor="middle" x="1552" y="-82.5" font-family="Helvetica,sans-Serif" font-size="10.00">SDL_AddTrackToAudioQueue</text>
</a>
</g>
</g>
<!-- Node1&#45;&gt;Node2 -->
<g id="edge1_Node000001_Node000002" class="edge">
<title>Node1&#45;&gt;Node2</title>
<g id="a_edge1_Node000001_Node000002"><a xlink:title=" ">
<path fill="none" stroke="#63b8ff" d="M1652.01,-61.25C1633.27,-65.93 1612.48,-71.13 1594.8,-75.55"/>
<polygon fill="#63b8ff" stroke="#63b8ff" points="1652.74,-64.67 1661.59,-58.85 1651.04,-57.88 1652.74,-64.67"/>
</a>
</g>
</g>
<!-- Node17 -->
<g id="Node000017" class="node">
<title>Node17</title>
<g id="a_Node000017"><a xlink:href="../../df/dd6/SDL__audioqueue_8c.html#a5fb01ec70b3f3f0050ad73cf09ee1bf2" target="_top" xlink:title=" ">
<polygon fill="white" stroke="#666666" points="1611,-20 1493,-20 1493,0 1611,0 1611,-20"/>
<text xml:space="preserve" text-anchor="middle" x="1552" y="-6.5" font-family="Helvetica,sans-Serif" font-size="10.00">SDL_FlushAudioQueue</text>
</a>
</g>
</g>
<!-- Node1&#45;&gt;Node17 -->
<g id="edge17_Node000001_Node000017" class="edge">
<title>Node1&#45;&gt;Node17</title>
<g id="a_edge17_Node000001_Node000017"><a xlink:title=" ">
<path fill="none" stroke="#63b8ff" d="M1652.01,-34.75C1633.27,-30.07 1612.48,-24.87 1594.8,-20.45"/>
<polygon fill="#63b8ff" stroke="#63b8ff" points="1651.04,-38.12 1661.59,-37.15 1652.74,-31.33 1651.04,-38.12"/>
</a>
</g>
</g>
<!-- Node19 -->
<g id="Node000019" class="node">
<title>Node19</title>
<g id="a_Node000019"><a xlink:href="../../df/dd6/SDL__audioqueue_8c.html#acc568d4ea3b66cb76bed4aece82def7a" target="_top" xlink:title=" ">
<polygon fill="white" stroke="#666666" points="1615.5,-58 1488.5,-58 1488.5,-38 1615.5,-38 1615.5,-58"/>
<text xml:space="preserve" text-anchor="middle" x="1552" y="-44.5" font-family="Helvetica,sans-Serif" font-size="10.00">SDL_WriteToAudioQueue</text>
</a>
</g>
</g>
<!-- Node1&#45;&gt;Node19 -->
<g id="edge20_Node000001_Node000019" class="edge">
<title>Node1&#45;&gt;Node19</title>
<g id="a_edge20_Node000001_Node000019"><a xlink:title=" ">
<path fill="none" stroke="#63b8ff" d="M1649.8,-48C1638.76,-48 1627.08,-48 1615.8,-48"/>
<polygon fill="#63b8ff" stroke="#63b8ff" points="1649.52,-51.5 1659.52,-48 1649.52,-44.5 1649.52,-51.5"/>
</a>
</g>
</g>
<!-- Node3 -->
<g id="Node000003" class="node">
<title>Node3</title>
<g id="a_Node000003"><a xlink:href="../../dc/d77/SDL__audiocvt_8c.html#a0cfc2690d4770f3b9c5391764f06df8d" target="_top" xlink:title=" ">
<polygon fill="white" stroke="#666666" points="1442.75,-96 1297.75,-96 1297.75,-76 1442.75,-76 1442.75,-96"/>
<text xml:space="preserve" text-anchor="middle" x="1370.25" y="-82.5" font-family="Helvetica,sans-Serif" font-size="10.00">PutAudioStreamBufferInternal</text>
</a>
</g>
</g>
<!-- Node2&#45;&gt;Node3 -->
<g id="edge2_Node000002_Node000003" class="edge">
<title>Node2&#45;&gt;Node3</title>
<g id="a_edge2_Node000002_Node000003"><a xlink:title=" ">
<path fill="none" stroke="#63b8ff" d="M1467.17,-86C1459.17,-86 1451.11,-86 1443.24,-86"/>
<polygon fill="#63b8ff" stroke="#63b8ff" points="1466.89,-89.5 1476.89,-86 1466.89,-82.5 1466.89,-89.5"/>
</a>
</g>
</g>
<!-- Node4 -->
<g id="Node000004" class="node">
<title>Node4</title>
<g id="a_Node000004"><a xlink:href="../../dc/d77/SDL__audiocvt_8c.html#a0c7c55ad2b82dbc7ce6b5113ac456452" target="_top" xlink:title=" ">
<polygon fill="white" stroke="#666666" points="1257.62,-96 1144.88,-96 1144.88,-76 1257.62,-76 1257.62,-96"/>
<text xml:space="preserve" text-anchor="middle" x="1201.25" y="-82.5" font-family="Helvetica,sans-Serif" font-size="10.00">PutAudioStreamBuffer</text>
</a>
</g>
</g>
<!-- Node3&#45;&gt;Node4 -->
<g id="edge3_Node000003_Node000004" class="edge">
<title>Node3&#45;&gt;Node4</title>
<g id="a_edge3_Node000003_Node000004"><a xlink:title=" ">
<path fill="none" stroke="#63b8ff" d="M1285.97,-86C1276.52,-86 1267.07,-86 1258.1,-86"/>
<polygon fill="#63b8ff" stroke="#63b8ff" points="1285.94,-89.5 1295.94,-86 1285.94,-82.5 1285.94,-89.5"/>
</a>
</g>
</g>
<!-- Node6 -->
<g id="Node000006" class="node">
<title>Node6</title>
<g id="a_Node000006"><a xlink:href="../../dc/d77/SDL__audiocvt_8c.html#a013d8e85ba5cb31a851d3bfd54b33df3" target="_top" xlink:title=" ">
<polygon fill="white" stroke="#666666" points="899.75,-134 739,-134 739,-114 899.75,-114 899.75,-134"/>
<text xml:space="preserve" text-anchor="middle" x="819.38" y="-120.5" font-family="Helvetica,sans-Serif" font-size="10.00">SDL_PutAudioStreamPlanarData</text>
</a>
</g>
</g>
<!-- Node3&#45;&gt;Node6 -->
<g id="edge16_Node000003_Node000006" class="edge">
<title>Node3&#45;&gt;Node6</title>
<g id="a_edge16_Node000003_Node000006"><a xlink:title=" ">
<path fill="none" stroke="#63b8ff" d="M1306.97,-98.44C1292.2,-100.99 1276.46,-103.39 1261.75,-105 1135.76,-118.79 988.51,-122.69 899.95,-123.73"/>
<polygon fill="#63b8ff" stroke="#63b8ff" points="1307.33,-101.93 1316.56,-96.74 1306.1,-95.04 1307.33,-101.93"/>
</a>
</g>
</g>
<!-- Node5 -->
<g id="Node000005" class="node">
<title>Node5</title>
<g id="a_Node000005"><a xlink:href="../../dc/d77/SDL__audiocvt_8c.html#af2fe3a9702adf846f4f813d2a53389f5" target="_top" xlink:title=" ">
<polygon fill="white" stroke="#666666" points="1086.75,-96 953.75,-96 953.75,-76 1086.75,-76 1086.75,-96"/>
<text xml:space="preserve" text-anchor="middle" x="1020.25" y="-82.5" font-family="Helvetica,sans-Serif" font-size="10.00">SDL_PutAudioStreamData</text>
</a>
</g>
</g>
<!-- Node4&#45;&gt;Node5 -->
<g id="edge4_Node000004_Node000005" class="edge">
<title>Node4&#45;&gt;Node5</title>
<g id="a_edge4_Node000004_Node000005"><a xlink:title=" ">
<path fill="none" stroke="#63b8ff" d="M1133.29,-86C1118.23,-86 1102.25,-86 1087.23,-86"/>
<polygon fill="#63b8ff" stroke="#63b8ff" points="1133.08,-89.5 1143.08,-86 1133.08,-82.5 1133.08,-89.5"/>
</a>
</g>
</g>
<!-- Node15 -->
<g id="Node000015" class="node">
<title>Node15</title>
<g id="a_Node000015"><a xlink:href="../../dc/d77/SDL__audiocvt_8c.html#af47d703f8e43d5087951d17b6c8436a5" target="_top" xlink:title=" ">
<polygon fill="white" stroke="#666666" points="1104.75,-58 935.75,-58 935.75,-38 1104.75,-38 1104.75,-58"/>
<text xml:space="preserve" text-anchor="middle" x="1020.25" y="-44.5" font-family="Helvetica,sans-Serif" font-size="10.00">SDL_PutAudioStreamDataNoCopy</text>
</a>
</g>
</g>
<!-- Node4&#45;&gt;Node15 -->
<g id="edge14_Node000004_Node000015" class="edge">
<title>Node4&#45;&gt;Node15</title>
<g id="a_edge14_Node000004_Node000015"><a xlink:title=" ">
<path fill="none" stroke="#63b8ff" d="M1139.71,-73.15C1117.17,-68.36 1091.88,-62.99 1070.48,-58.45"/>
<polygon fill="#63b8ff" stroke="#63b8ff" points="1138.87,-76.55 1149.38,-75.2 1140.33,-69.7 1138.87,-76.55"/>
</a>
</g>
</g>
<!-- Node5&#45;&gt;Node6 -->
<g id="edge5_Node000005_Node000006" class="edge">
<title>Node5&#45;&gt;Node6</title>
<g id="a_edge5_Node000005_Node000006"><a xlink:title=" ">
<path fill="none" stroke="#63b8ff" d="M953.35,-98.59C927.97,-103.44 899.28,-108.92 875.07,-113.55"/>
<polygon fill="#63b8ff" stroke="#63b8ff" points="953.73,-102.08 962.89,-96.77 952.41,-95.21 953.73,-102.08"/>
</a>
</g>
</g>
<!-- Node7 -->
<g id="Node000007" class="node">
<title>Node7</title>
<g id="a_Node000007"><a xlink:href="../../d6/d9b/SDL__audio_8c.html#a3a132c60c931f1c864ba5da2b1c86717" target="_top" xlink:title=" ">
<polygon fill="white" stroke="#666666" points="889.25,-96 749.5,-96 749.5,-64 889.25,-64 889.25,-96"/>
<text xml:space="preserve" text-anchor="start" x="757.5" y="-82.5" font-family="Helvetica,sans-Serif" font-size="10.00">SDL_RecordingAudioThread</text>
<text xml:space="preserve" text-anchor="middle" x="819.38" y="-70.5" font-family="Helvetica,sans-Serif" font-size="10.00">Iterate</text>
</a>
</g>
</g>
<!-- Node5&#45;&gt;Node7 -->
<g id="edge6_Node000005_Node000007" class="edge">
<title>Node5&#45;&gt;Node7</title>
<g id="a_edge6_Node000005_Node000007"><a xlink:title=" ">
<path fill="none" stroke="#63b8ff" d="M942.09,-83.67C924.78,-83.15 906.51,-82.6 889.55,-82.09"/>
<polygon fill="#63b8ff" stroke="#63b8ff" points="941.69,-87.16 951.79,-83.96 941.9,-80.16 941.69,-87.16"/>
</a>
</g>
</g>
<!-- Node8 -->
<g id="Node000008" class="node">
<title>Node8</title>
<g id="a_Node000008"><a xlink:href="../../d3/d8a/SDL__dummyaudio_8c.html#a954b1d30669ef0d1b5d4615515c94498" target="_top" xlink:title=" ">
<polygon fill="white" stroke="#666666" points="703,-109 558,-109 558,-89 703,-89 703,-109"/>
<text xml:space="preserve" text-anchor="middle" x="630.5" y="-95.5" font-family="Helvetica,sans-Serif" font-size="10.00">DUMMYAUDIO_OpenDevice</text>
</a>
</g>
</g>
<!-- Node7&#45;&gt;Node8 -->
<g id="edge7_Node000007_Node000008" class="edge">
<title>Node7&#45;&gt;Node8</title>
<g id="a_edge7_Node000007_Node000008"><a xlink:title=" ">
<path fill="none" stroke="#63b8ff" d="M737.7,-88.2C726.23,-89.37 714.49,-90.56 703.21,-91.71"/>
<polygon fill="#63b8ff" stroke="#63b8ff" points="737.95,-91.69 747.55,-87.2 737.25,-84.73 737.95,-91.69"/>
</a>
</g>
</g>
<!-- Node10 -->
<g id="Node000010" class="node">
<title>Node10</title>
<g id="a_Node000010"><a xlink:href="../../d6/d9b/SDL__audio_8c.html#a78509cdb3b4a17a333ba844e392a3c56" target="_top" xlink:title=" ">
<polygon fill="white" stroke="#666666" points="688,-71 573,-71 573,-51 688,-51 688,-71"/>
<text xml:space="preserve" text-anchor="middle" x="630.5" y="-57.5" font-family="Helvetica,sans-Serif" font-size="10.00">RecordingAudioThread</text>
</a>
</g>
</g>
<!-- Node7&#45;&gt;Node10 -->
<g id="edge9_Node000007_Node000010" class="edge">
<title>Node7&#45;&gt;Node10</title>
<g id="a_edge9_Node000007_Node000010"><a xlink:title=" ">
<path fill="none" stroke="#63b8ff" d="M737.7,-71.8C721.13,-70.11 704.01,-68.37 688.49,-66.79"/>
<polygon fill="#63b8ff" stroke="#63b8ff" points="737.25,-75.27 747.55,-72.8 737.95,-68.31 737.25,-75.27"/>
</a>
</g>
</g>
<!-- Node9 -->
<g id="Node000009" class="node">
<title>Node9</title>
<g id="a_Node000009"><a xlink:href="../../d3/d8a/SDL__dummyaudio_8c.html#a29ca48806a568f46e322654ffd7271ab" target="_top" xlink:title=" ">
<polygon fill="white" stroke="#666666" points="508.12,-109 403.62,-109 403.62,-89 508.12,-89 508.12,-109"/>
<text xml:space="preserve" text-anchor="middle" x="455.88" y="-95.5" font-family="Helvetica,sans-Serif" font-size="10.00">DUMMYAUDIO_Init</text>
</a>
</g>
</g>
<!-- Node8&#45;&gt;Node9 -->
<g id="edge8_Node000008_Node000009" class="edge">
<title>Node8&#45;&gt;Node9</title>
<g id="a_edge8_Node000008_Node000009"><a xlink:title=" ">
<path fill="none" stroke="#63b8ff" d="M546.44,-99C533.45,-99 520.37,-99 508.37,-99"/>
<polygon fill="#63b8ff" stroke="#63b8ff" points="546.28,-102.5 556.28,-99 546.28,-95.5 546.28,-102.5"/>
</a>
</g>
</g>
<!-- Node11 -->
<g id="Node000011" class="node">
<title>Node11</title>
<g id="a_Node000011"><a xlink:href="../../d6/d9b/SDL__audio_8c.html#a67d5d3273196908cd2180bde093c413d" target="_top" xlink:title=" ">
<polygon fill="white" stroke="#666666" points="522,-71 389.75,-71 389.75,-51 522,-51 522,-71"/>
<text xml:space="preserve" text-anchor="middle" x="455.88" y="-57.5" font-family="Helvetica,sans-Serif" font-size="10.00">OpenPhysicalAudioDevice</text>
</a>
</g>
</g>
<!-- Node10&#45;&gt;Node11 -->
<g id="edge10_Node000010_Node000011" class="edge">
<title>Node10&#45;&gt;Node11</title>
<g id="a_edge10_Node000010_Node000011"><a xlink:title=" ">
<path fill="none" stroke="#63b8ff" d="M561.73,-61C548.73,-61 535.14,-61 522.22,-61"/>
<polygon fill="#63b8ff" stroke="#63b8ff" points="561.46,-64.5 571.46,-61 561.46,-57.5 561.46,-64.5"/>
</a>
</g>
</g>
<!-- Node12 -->
<g id="Node000012" class="node">
<title>Node12</title>
<g id="a_Node000012"><a xlink:href="../../d6/d9b/SDL__audio_8c.html#ad4cae8cf429411be160ec61914b28043" target="_top" xlink:title=" ">
<polygon fill="white" stroke="#666666" points="353.75,-90 187,-90 187,-70 353.75,-70 353.75,-90"/>
<text xml:space="preserve" text-anchor="middle" x="270.38" y="-76.5" font-family="Helvetica,sans-Serif" font-size="10.00">SDL_DefaultAudioDeviceChanged</text>
</a>
</g>
</g>
<!-- Node11&#45;&gt;Node12 -->
<g id="edge11_Node000011_Node000012" class="edge">
<title>Node11&#45;&gt;Node12</title>
<g id="a_edge11_Node000011_Node000012"><a xlink:title=" ">
<path fill="none" stroke="#63b8ff" d="M377.99,-68.96C370.11,-69.78 362.08,-70.61 354.14,-71.43"/>
<polygon fill="#63b8ff" stroke="#63b8ff" points="378.31,-72.45 387.9,-67.93 377.59,-65.48 378.31,-72.45"/>
</a>
</g>
</g>
<!-- Node13 -->
<g id="Node000013" class="node">
<title>Node13</title>
<g id="a_Node000013"><a xlink:href="../../d6/d9b/SDL__audio_8c.html#ad4a998b0fa52004c6db6b4182de26f8c" target="_top" xlink:title=" ">
<polygon fill="white" stroke="#666666" points="330.12,-52 210.62,-52 210.62,-32 330.12,-32 330.12,-52"/>
<text xml:space="preserve" text-anchor="middle" x="270.38" y="-38.5" font-family="Helvetica,sans-Serif" font-size="10.00">SDL_OpenAudioDevice</text>
</a>
</g>
</g>
<!-- Node11&#45;&gt;Node13 -->
<g id="edge12_Node000011_Node000013" class="edge">
<title>Node11&#45;&gt;Node13</title>
<g id="a_edge12_Node000011_Node000013"><a xlink:title=" ">
<path fill="none" stroke="#63b8ff" d="M377.96,-53.04C362.06,-51.39 345.55,-49.68 330.41,-48.11"/>
<polygon fill="#63b8ff" stroke="#63b8ff" points="377.59,-56.52 387.9,-54.07 378.31,-49.55 377.59,-56.52"/>
</a>
</g>
</g>
<!-- Node14 -->
<g id="Node000014" class="node">
<title>Node14</title>
<g id="a_Node000014"><a xlink:href="../../d6/d9b/SDL__audio_8c.html#a73ac117b5e299633d58be618680af357" target="_top" xlink:title=" ">
<polygon fill="white" stroke="#666666" points="151,-52 0,-52 0,-32 151,-32 151,-52"/>
<text xml:space="preserve" text-anchor="middle" x="75.5" y="-38.5" font-family="Helvetica,sans-Serif" font-size="10.00">SDL_OpenAudioDeviceStream</text>
</a>
</g>
</g>
<!-- Node13&#45;&gt;Node14 -->
<g id="edge13_Node000013_Node000014" class="edge">
<title>Node13&#45;&gt;Node14</title>
<g id="a_edge13_Node000013_Node000014"><a xlink:title=" ">
<path fill="none" stroke="#63b8ff" d="M199.07,-42C183.52,-42 166.99,-42 151.26,-42"/>
<polygon fill="#63b8ff" stroke="#63b8ff" points="198.68,-45.5 208.68,-42 198.68,-38.5 198.68,-45.5"/>
</a>
</g>
</g>
<!-- Node16 -->
<g id="Node000016" class="node">
<title>Node16</title>
<g id="a_Node000016"><a xlink:href="../../dc/d77/SDL__audiocvt_8c.html#a90af0e041cebdc41c97e4f30cfdcf01a" target="_top" xlink:title=" ">
<polygon fill="white" stroke="#666666" points="888.5,-33 750.25,-33 750.25,-13 888.5,-13 888.5,-33"/>
<text xml:space="preserve" text-anchor="middle" x="819.38" y="-19.5" font-family="Helvetica,sans-Serif" font-size="10.00">SDL_ConvertAudioSamples</text>
</a>
</g>
</g>
<!-- Node15&#45;&gt;Node16 -->
<g id="edge15_Node000015_Node000016" class="edge">
<title>Node15&#45;&gt;Node16</title>
<g id="a_edge15_Node000015_Node000016"><a xlink:title=" ">
<path fill="none" stroke="#63b8ff" d="M924.72,-36.12C912.63,-34.6 900.44,-33.06 888.87,-31.61"/>
<polygon fill="#63b8ff" stroke="#63b8ff" points="923.91,-39.54 934.27,-37.32 924.79,-32.6 923.91,-39.54"/>
</a>
</g>
</g>
<!-- Node18 -->
<g id="Node000018" class="node">
<title>Node18</title>
<g id="a_Node000018"><a xlink:href="../../dc/d77/SDL__audiocvt_8c.html#ae83f32dc0bb923ab9bc44e7bce77477c" target="_top" xlink:title=" ">
<polygon fill="white" stroke="#666666" points="1261.75,-20 1140.75,-20 1140.75,0 1261.75,0 1261.75,-20"/>
<text xml:space="preserve" text-anchor="middle" x="1201.25" y="-6.5" font-family="Helvetica,sans-Serif" font-size="10.00">SDL_FlushAudioStream</text>
</a>
</g>
</g>
<!-- Node17&#45;&gt;Node18 -->
<g id="edge18_Node000017_Node000018" class="edge">
<title>Node17&#45;&gt;Node18</title>
<g id="a_edge18_Node000017_Node000018"><a xlink:title=" ">
<path fill="none" stroke="#63b8ff" d="M1481.4,-10C1417.19,-10 1322.85,-10 1261.98,-10"/>
<polygon fill="#63b8ff" stroke="#63b8ff" points="1481.11,-13.5 1491.11,-10 1481.11,-6.5 1481.11,-13.5"/>
</a>
</g>
</g>
<!-- Node18&#45;&gt;Node16 -->
<g id="edge19_Node000018_Node000016" class="edge">
<title>Node18&#45;&gt;Node16</title>
<g id="a_edge19_Node000018_Node000016"><a xlink:title=" ">
<path fill="none" stroke="#63b8ff" d="M1129.32,-12.43C1060.49,-14.78 956.75,-18.33 888.79,-20.66"/>
<polygon fill="#63b8ff" stroke="#63b8ff" points="1129.09,-15.94 1138.96,-12.1 1128.85,-8.94 1129.09,-15.94"/>
</a>
</g>
</g>
<!-- Node19&#45;&gt;Node3 -->
<g id="edge21_Node000019_Node000003" class="edge">
<title>Node19&#45;&gt;Node3</title>
<g id="a_edge21_Node000019_Node000003"><a xlink:title=" ">
<path fill="none" stroke="#63b8ff" d="M1490.2,-60.85C1467.57,-65.64 1442.17,-71.01 1420.68,-75.55"/>
<polygon fill="#63b8ff" stroke="#63b8ff" points="1490.87,-64.29 1499.93,-58.8 1489.42,-57.44 1490.87,-64.29"/>
</a>
</g>
</g>
</g>
</svg>

<g id="navigator" transform="translate(0 0)" fill="#404254">
  <rect fill="#f2f5e9" fill-opacity="0.5" stroke="#606060" stroke-width=".5" x="0" y="0" width="60" height="60"/>
  <use id="zoomplus" xlink:href="#zoomPlus" x="17" y="9" onmousedown="handleZoom(evt,'in')"/>
  <use id="zoomminus" xlink:href="#zoomMin" x="42" y="9" onmousedown="handleZoom(evt,'out')"/>
  <use id="reset" xlink:href="#resetDef" x="30" y="36" onmousedown="handleReset()"/>
   <use id="arrowup" xlink:href="#arrowUp" x="0" y="0" onmousedown="handlePan(0,-1)"/>
  <use id="arrowright" xlink:href="#arrowRight" x="0" y="0" onmousedown="handlePan(1,0)"/>
  <use id="arrowdown" xlink:href="#arrowDown" x="0" y="0" onmousedown="handlePan(0,1)"/>
  <use id="arrowleft" xlink:href="#arrowLeft" x="0" y="0" onmousedown="handlePan(-1,0)"/>
</g>
<svg viewBox="0 0 15 15" width="100%" height="30px" preserveAspectRatio="xMaxYMin meet">
 <g id="arrow_out" transform="scale(0.3 0.3)">
  <a xlink:href="SDL__audioqueue_8c_ad8cd3ff8848c071e2be40ff83c17216d_icgraph_org.svg" target="_base">
   <rect id="button" ry="5" rx="5" y="6" x="6" height="38" width="38"
        fill="#f2f5e9" fill-opacity="0.5" stroke="#606060" stroke-width="1.0"/>
   <path id="arrow"
     d="M 11.500037,31.436501 C 11.940474,20.09759 22.043105,11.32322 32.158766,21.979434 L 37.068811,17.246167 C 37.068811,17.246167 37.088388,32 37.088388,32 L 22.160133,31.978069 C 22.160133,31.978069 26.997745,27.140456 26.997745,27.140456 C 18.528582,18.264221 13.291696,25.230495 11.500037,31.436501 z"
     style="fill:#404040;"/>
  </a>
 </g>
</svg>

<style type='text/css'>
<![CDATA[
[data-mouse-over-selected='false'] { opacity: 0.7; }
[data-mouse-over-selected='true']  { opacity: 1.0; }
]]>
</style>
<script type="application/ecmascript"><![CDATA[
document.addEventListener('DOMContentLoaded', (event) => {
  highlightEdges();
  highlightAdjacentNodes();
});
]]></script>
</svg>
