<?xml version="1.0" encoding="UTF-8" standalone="no"?>
<!DOCTYPE svg PUBLIC "-//W3C//DTD SVG 1.1//EN"
 "http://www.w3.org/Graphics/SVG/1.1/DTD/svg11.dtd">
<!-- Generated by graphviz version 13.1.0 (20250701.0955)
 -->
<!-- Title: SDL_IsMainThread Pages: 1 -->
<svg width="267pt" height="104pt"
 viewBox="0.00 0.00 267.00 104.00" xmlns="http://www.w3.org/2000/svg" xmlns:xlink="http://www.w3.org/1999/xlink">
<g id="graph0" class="graph" transform="scale(1 1) rotate(0) translate(4 100)">
<title>SDL_IsMainThread</title>
<!-- Node1 -->
<g id="Node000001" class="node">
<title>Node1</title>
<g id="a_Node000001"><a xlink:title=" ">
<polygon fill="#999999" stroke="#666666" points="258.5,-58 158.5,-58 158.5,-38 258.5,-38 258.5,-58"/>
<text xml:space="preserve" text-anchor="middle" x="208.5" y="-44.5" font-family="Helvetica,sans-Serif" font-size="10.00">SDL_IsMainThread</text>
</a>
</g>
</g>
<!-- Node2 -->
<g id="Node000002" class="node">
<title>Node2</title>
<g id="a_Node000002"><a xlink:href="../../d4/d03/unix_2SDL__tray_8c.html#a206a4c41714798d7da6da4c129f0973b" target="_top" xlink:title=" ">
<polygon fill="white" stroke="#666666" points="106,-96 16.5,-96 16.5,-76 106,-76 106,-96"/>
<text xml:space="preserve" text-anchor="middle" x="61.25" y="-82.5" font-family="Helvetica,sans-Serif" font-size="10.00">SDL_CreateTray</text>
</a>
</g>
</g>
<!-- Node1&#45;&gt;Node2 -->
<g id="edge1_Node000001_Node000002" class="edge">
<title>Node1&#45;&gt;Node2</title>
<g id="a_edge1_Node000001_Node000002"><a xlink:title=" ">
<path fill="none" stroke="#63b8ff" d="M156.36,-61.38C138.59,-66.03 118.93,-71.17 102.19,-75.55"/>
<polygon fill="#63b8ff" stroke="#63b8ff" points="157.17,-64.78 165.96,-58.87 155.4,-58.01 157.17,-64.78"/>
</a>
</g>
</g>
<!-- Node3 -->
<g id="Node000003" class="node">
<title>Node3</title>
<g id="a_Node000003"><a xlink:href="../../d4/d03/unix_2SDL__tray_8c.html#ab39b7372ba954fb61f08416d6f4eb044" target="_top" xlink:title=" ">
<polygon fill="white" stroke="#666666" points="117.62,-58 4.88,-58 4.88,-38 117.62,-38 117.62,-58"/>
<text xml:space="preserve" text-anchor="middle" x="61.25" y="-44.5" font-family="Helvetica,sans-Serif" font-size="10.00">SDL_IsTraySupported</text>
</a>
</g>
</g>
<!-- Node1&#45;&gt;Node3 -->
<g id="edge2_Node000001_Node000003" class="edge">
<title>Node1&#45;&gt;Node3</title>
<g id="a_edge2_Node000001_Node000003"><a xlink:title=" ">
<path fill="none" stroke="#63b8ff" d="M146.81,-48C137.22,-48 127.34,-48 117.88,-48"/>
<polygon fill="#63b8ff" stroke="#63b8ff" points="146.81,-51.5 156.81,-48 146.81,-44.5 146.81,-51.5"/>
</a>
</g>
</g>
<!-- Node4 -->
<g id="Node000004" class="node">
<title>Node4</title>
<g id="a_Node000004"><a xlink:href="../../d4/d07/SDL__events_8c.html#a3cf75517a3eb74927e383fa971f155d3" target="_top" xlink:title=" ">
<polygon fill="white" stroke="#666666" points="122.5,-20 0,-20 0,0 122.5,0 122.5,-20"/>
<text xml:space="preserve" text-anchor="middle" x="61.25" y="-6.5" font-family="Helvetica,sans-Serif" font-size="10.00">SDL_RunOnMainThread</text>
</a>
</g>
</g>
<!-- Node1&#45;&gt;Node4 -->
<g id="edge3_Node000001_Node000004" class="edge">
<title>Node1&#45;&gt;Node4</title>
<g id="a_edge3_Node000001_Node000004"><a xlink:title=" ">
<path fill="none" stroke="#63b8ff" d="M156.36,-34.62C138.59,-29.97 118.93,-24.83 102.19,-20.45"/>
<polygon fill="#63b8ff" stroke="#63b8ff" points="155.4,-37.99 165.96,-37.13 157.17,-31.22 155.4,-37.99"/>
</a>
</g>
</g>
</g>
</svg>
