<?xml version="1.0" encoding="UTF-8" standalone="no"?>
<!DOCTYPE svg PUBLIC "-//W3C//DTD SVG 1.1//EN"
 "http://www.w3.org/Graphics/SVG/1.1/DTD/svg11.dtd">
<!-- Generated by graphviz version 13.1.0 (20250701.0955)
 -->
<!-- Title: SDL_GetKeymapScancode Pages: 1 -->
<svg width="338pt" height="142pt"
 viewBox="0.00 0.00 338.00 142.00" xmlns="http://www.w3.org/2000/svg" xmlns:xlink="http://www.w3.org/1999/xlink">

<svg id="main" version="1.1" xmlns="http://www.w3.org/2000/svg" xmlns:xlink="http://www.w3.org/1999/xlink" xml:space="preserve">

<style type="text/css"><![CDATA[
.node, .edge {opacity: 0.7;}
.node.selected, .edge.selected {opacity: 1;}
.edge:hover path { stroke: red; }
.edge:hover polygon { stroke: red; fill: red; }
]]></style>
<script type="application/ecmascript" xlink:href="../../svg.min.js"/>
<svg id="graph" class="graph">
<g id="graph0" class="graph" transform="scale(1 1) rotate(0) translate(4 138)">
<title>SDL_GetKeymapScancode</title>
<!-- Node1 -->
<g id="Node000001" class="node">
<title>Node1</title>
<g id="a_Node000001"><a xlink:title=" ">
<polygon fill="#999999" stroke="#666666" points="329.75,-77 193.75,-77 193.75,-57 329.75,-57 329.75,-77"/>
<text xml:space="preserve" text-anchor="middle" x="261.75" y="-63.5" font-family="Helvetica,sans-Serif" font-size="10.00">SDL_GetKeymapScancode</text>
</a>
</g>
</g>
<!-- Node2 -->
<g id="Node000002" class="node">
<title>Node2</title>
<g id="a_Node000002"><a xlink:href="../../d9/dd6/SDL__keymap_8c.html#ad3e34cf0e36589b4ab499cf9179de12a" target="_top" xlink:title=" ">
<polygon fill="white" stroke="#666666" points="140.12,-134 17.62,-134 17.62,-114 140.12,-114 140.12,-134"/>
<text xml:space="preserve" text-anchor="middle" x="78.88" y="-120.5" font-family="Helvetica,sans-Serif" font-size="10.00">SDL_GetKeyFromName</text>
</a>
</g>
</g>
<!-- Node1&#45;&gt;Node2 -->
<g id="edge1_Node000001_Node000002" class="edge">
<title>Node1&#45;&gt;Node2</title>
<g id="a_edge1_Node000001_Node000002"><a xlink:title=" ">
<path fill="none" stroke="#63b8ff" d="M224.61,-81.48C205.01,-89.05 180.26,-98.13 157.75,-105 147.77,-108.05 136.95,-110.94 126.64,-113.51"/>
<polygon fill="#63b8ff" stroke="#63b8ff" points="225.75,-84.8 233.8,-77.9 223.21,-78.27 225.75,-84.8"/>
</a>
</g>
</g>
<!-- Node3 -->
<g id="Node000003" class="node">
<title>Node3</title>
<g id="a_Node000003"><a xlink:href="../../d9/dd6/SDL__keymap_8c.html#ab1a7fadc59358c3bf1be7e29a6ac0363" target="_top" xlink:title=" ">
<polygon fill="white" stroke="#666666" points="128.88,-96 28.88,-96 28.88,-76 128.88,-76 128.88,-96"/>
<text xml:space="preserve" text-anchor="middle" x="78.88" y="-82.5" font-family="Helvetica,sans-Serif" font-size="10.00">SDL_GetKeyName</text>
</a>
</g>
</g>
<!-- Node1&#45;&gt;Node3 -->
<g id="edge2_Node000001_Node000003" class="edge">
<title>Node1&#45;&gt;Node3</title>
<g id="a_edge2_Node000001_Node000003"><a xlink:title=" ">
<path fill="none" stroke="#63b8ff" d="M182.03,-75.27C164.08,-77.15 145.5,-79.11 129.2,-80.82"/>
<polygon fill="#63b8ff" stroke="#63b8ff" points="182.31,-78.76 191.89,-74.23 181.58,-71.8 182.31,-78.76"/>
</a>
</g>
</g>
<!-- Node4 -->
<g id="Node000004" class="node">
<title>Node4</title>
<g id="a_Node000004"><a xlink:href="../../d3/d13/SDL__keyboard_8c.html#a3b743a58f522d3f0b4b5e479ef076025" target="_top" xlink:title=" ">
<polygon fill="white" stroke="#666666" points="148.75,-58 9,-58 9,-38 148.75,-38 148.75,-58"/>
<text xml:space="preserve" text-anchor="middle" x="78.88" y="-44.5" font-family="Helvetica,sans-Serif" font-size="10.00">SDL_GetScancodeFromKey</text>
</a>
</g>
</g>
<!-- Node1&#45;&gt;Node4 -->
<g id="edge3_Node000001_Node000004" class="edge">
<title>Node1&#45;&gt;Node4</title>
<g id="a_edge3_Node000001_Node000004"><a xlink:title=" ">
<path fill="none" stroke="#63b8ff" d="M182.07,-58.74C171.09,-57.58 159.88,-56.4 149.09,-55.27"/>
<polygon fill="#63b8ff" stroke="#63b8ff" points="181.58,-62.2 191.89,-59.77 182.31,-55.24 181.58,-62.2"/>
</a>
</g>
</g>
<!-- Node5 -->
<g id="Node000005" class="node">
<title>Node5</title>
<g id="a_Node000005"><a xlink:href="../../d3/d13/SDL__keyboard_8c.html#aef3fbf727a962d06f9b2ef312e14615a" target="_top" xlink:title=" ">
<polygon fill="white" stroke="#666666" points="157.75,-20 0,-20 0,0 157.75,0 157.75,-20"/>
<text xml:space="preserve" text-anchor="middle" x="78.88" y="-6.5" font-family="Helvetica,sans-Serif" font-size="10.00">SDL_SendKeyboardUnicodeKey</text>
</a>
</g>
</g>
<!-- Node1&#45;&gt;Node5 -->
<g id="edge4_Node000001_Node000005" class="edge">
<title>Node1&#45;&gt;Node5</title>
<g id="a_edge4_Node000001_Node000005"><a xlink:title=" ">
<path fill="none" stroke="#63b8ff" d="M224.61,-52.52C205.01,-44.95 180.26,-35.87 157.75,-29 147.77,-25.95 136.95,-23.06 126.64,-20.49"/>
<polygon fill="#63b8ff" stroke="#63b8ff" points="223.21,-55.73 233.8,-56.1 225.75,-49.2 223.21,-55.73"/>
</a>
</g>
</g>
</g>
</svg>
</svg>

<style type='text/css'>
<![CDATA[
[data-mouse-over-selected='false'] { opacity: 0.7; }
[data-mouse-over-selected='true']  { opacity: 1.0; }
]]>
</style>
<script type="application/ecmascript"><![CDATA[
document.addEventListener('DOMContentLoaded', (event) => {
  highlightEdges();
  highlightAdjacentNodes();
});
]]></script>
</svg>
