<?xml version="1.0" encoding="UTF-8" standalone="no"?>
<!DOCTYPE svg PUBLIC "-//W3C//DTD SVG 1.1//EN"
 "http://www.w3.org/Graphics/SVG/1.1/DTD/svg11.dtd">
<!-- Generated by graphviz version 13.1.0 (20250701.0955)
 -->
<!-- Title: joystick_hwdata Pages: 1 -->
<svg width="332pt" height="330pt"
 viewBox="0.00 0.00 332.00 330.00" xmlns="http://www.w3.org/2000/svg" xmlns:xlink="http://www.w3.org/1999/xlink">

<svg id="main" version="1.1" xmlns="http://www.w3.org/2000/svg" xmlns:xlink="http://www.w3.org/1999/xlink" xml:space="preserve">

<style type="text/css"><![CDATA[
.node, .edge {opacity: 0.7;}
.node.selected, .edge.selected {opacity: 1;}
.edge:hover path { stroke: red; }
.edge:hover polygon { stroke: red; fill: red; }
]]></style>
<script type="application/ecmascript" xlink:href="../../svg.min.js"/>
<svg id="graph" class="graph">
<g id="graph0" class="graph" transform="scale(1 1) rotate(0) translate(4 326.5)">
<title>joystick_hwdata</title>
<!-- Node1 -->
<g id="Node000001" class="node">
<title>Node1</title>
<g id="a_Node000001"><a xlink:title=" ">
<polygon fill="#999999" stroke="#666666" points="323.75,-160 237.25,-160 237.25,-140 323.75,-140 323.75,-160"/>
<text xml:space="preserve" text-anchor="middle" x="280.5" y="-146.5" font-family="Helvetica,sans-Serif" font-size="10.00">joystick_hwdata</text>
</a>
</g>
</g>
<!-- Node1&#45;&gt;Node1 -->
<g id="edge3_Node000001_Node000001" class="edge">
<title>Node1&#45;&gt;Node1</title>
<g id="a_edge3_Node000001_Node000001"><a xlink:title=" ">
<path fill="none" stroke="#9a32cd" stroke-dasharray="5,2" d="M264.64,-171.44C266.68,-175.3 271.97,-178 280.5,-178 296.1,-178 300.85,-168.98 294.76,-160.34"/>
<polygon fill="#9a32cd" stroke="#9a32cd" points="268.06,-172.23 266.02,-161.84 261.13,-171.23 268.06,-172.23"/>
</a>
</g>
<text xml:space="preserve" text-anchor="start" x="267.38" y="-199.5" font-family="Helvetica,sans-Serif" font-size="10.00" fill="grey">next</text>
<text xml:space="preserve" text-anchor="start" x="267.38" y="-183.5" font-family="Helvetica,sans-Serif" font-size="10.00" fill="grey">pNext</text>
</g>
<!-- Node2 -->
<g id="Node000002" class="node">
<title>Node2</title>
<g id="a_Node000002"><a xlink:href="../../d8/d36/structSDL__Joystick.html" target="_top" xlink:title=" ">
<polygon fill="white" stroke="#666666" points="110.88,-315 33.38,-315 33.38,-295 110.88,-295 110.88,-315"/>
<text xml:space="preserve" text-anchor="middle" x="72.12" y="-301.5" font-family="Helvetica,sans-Serif" font-size="10.00">SDL_Joystick</text>
</a>
</g>
</g>
<!-- Node2&#45;&gt;Node1 -->
<g id="edge1_Node000001_Node000002" class="edge">
<title>Node2&#45;&gt;Node1</title>
<g id="a_edge1_Node000001_Node000002"><a xlink:title=" ">
<path fill="none" stroke="#9a32cd" stroke-dasharray="5,2" d="M122.45,-308.48C153.15,-308.13 191.86,-302.79 219.25,-282 260.18,-250.93 274.14,-185.55 278.12,-160.28"/>
<polygon fill="#9a32cd" stroke="#9a32cd" points="122.66,-304.99 112.63,-308.41 122.61,-311.99 122.66,-304.99"/>
</a>
</g>
<text xml:space="preserve" text-anchor="start" x="173.88" y="-310" font-family="Helvetica,sans-Serif" font-size="10.00" fill="grey">joystick</text>
</g>
<!-- Node3 -->
<g id="Node000003" class="node">
<title>Node3</title>
<g id="a_Node000003"><a xlink:href="../../dd/d35/structSDL__GUID.html" target="_top" xlink:title=" ">
<polygon fill="white" stroke="#666666" points="105.25,-274 39,-274 39,-254 105.25,-254 105.25,-274"/>
<text xml:space="preserve" text-anchor="middle" x="72.12" y="-260.5" font-family="Helvetica,sans-Serif" font-size="10.00">SDL_GUID</text>
</a>
</g>
</g>
<!-- Node3&#45;&gt;Node1 -->
<g id="edge2_Node000001_Node000003" class="edge">
<title>Node3&#45;&gt;Node1</title>
<g id="a_edge2_Node000001_Node000003"><a xlink:title=" ">
<path fill="none" stroke="#9a32cd" stroke-dasharray="5,2" d="M116.93,-265.29C147.78,-264.21 188.85,-258.6 219.25,-239 249.36,-219.59 268.2,-179.23 275.73,-160.27"/>
<polygon fill="#9a32cd" stroke="#9a32cd" points="117.09,-261.79 107.16,-265.47 117.22,-268.79 117.09,-261.79"/>
</a>
</g>
<text xml:space="preserve" text-anchor="start" x="181.75" y="-265.64" font-family="Helvetica,sans-Serif" font-size="10.00" fill="grey">guid</text>
</g>
<!-- Node4 -->
<g id="Node000004" class="node">
<title>Node4</title>
<g id="a_Node000004"><a xlink:href="../../d4/d02/structjoystick__hwdata_1_1hwdata__hat.html" target="_top" xlink:title=" ">
<polygon fill="white" stroke="#666666" points="143.5,-233 0.75,-233 0.75,-213 143.5,-213 143.5,-233"/>
<text xml:space="preserve" text-anchor="middle" x="72.12" y="-219.5" font-family="Helvetica,sans-Serif" font-size="10.00">joystick_hwdata::hwdata_hat</text>
</a>
</g>
</g>
<!-- Node4&#45;&gt;Node1 -->
<g id="edge4_Node000001_Node000004" class="edge">
<title>Node4&#45;&gt;Node1</title>
<g id="a_edge4_Node000001_Node000004"><a xlink:title=" ">
<path fill="none" stroke="#9a32cd" stroke-dasharray="5,2" d="M154.92,-218.74C176.53,-215.48 199.36,-210.03 219.25,-201 240.47,-191.37 260.07,-172.04 270.85,-160.14"/>
<polygon fill="#9a32cd" stroke="#9a32cd" points="154.69,-215.24 145.25,-220.05 155.63,-222.18 154.69,-215.24"/>
</a>
</g>
<text xml:space="preserve" text-anchor="start" x="181.38" y="-222.52" font-family="Helvetica,sans-Serif" font-size="10.00" fill="grey">hats</text>
</g>
<!-- Node5 -->
<g id="Node000005" class="node">
<title>Node5</title>
<g id="a_Node000005"><a xlink:href="../../de/d76/structrecElement.html" target="_top" xlink:title=" ">
<polygon fill="white" stroke="#666666" points="104.88,-159 39.38,-159 39.38,-139 104.88,-139 104.88,-159"/>
<text xml:space="preserve" text-anchor="middle" x="72.12" y="-145.5" font-family="Helvetica,sans-Serif" font-size="10.00">recElement</text>
</a>
</g>
</g>
<!-- Node5&#45;&gt;Node1 -->
<g id="edge5_Node000001_Node000005" class="edge">
<title>Node5&#45;&gt;Node1</title>
<g id="a_edge5_Node000001_Node000005"><a xlink:title=" ">
<path fill="none" stroke="#9a32cd" stroke-dasharray="5,2" d="M116.81,-149.21C152.28,-149.38 202,-149.62 237.11,-149.79"/>
<polygon fill="#9a32cd" stroke="#9a32cd" points="116.9,-145.71 106.88,-149.16 116.87,-152.71 116.9,-145.71"/>
</a>
</g>
<text xml:space="preserve" text-anchor="start" x="168.25" y="-187.2" font-family="Helvetica,sans-Serif" font-size="10.00" fill="grey">firstAxis</text>
<text xml:space="preserve" text-anchor="start" x="168.25" y="-171.2" font-family="Helvetica,sans-Serif" font-size="10.00" fill="grey">firstButton</text>
<text xml:space="preserve" text-anchor="start" x="168.25" y="-155.2" font-family="Helvetica,sans-Serif" font-size="10.00" fill="grey">firstHat</text>
</g>
<!-- Node5&#45;&gt;Node5 -->
<g id="edge6_Node000005_Node000005" class="edge">
<title>Node5&#45;&gt;Node5</title>
<g id="a_edge6_Node000005_Node000005"><a xlink:title=" ">
<path fill="none" stroke="#9a32cd" stroke-dasharray="5,2" d="M51.16,-170.44C53.86,-174.3 60.85,-177 72.12,-177 92.75,-177 99.03,-167.98 90.97,-159.34"/>
<polygon fill="#9a32cd" stroke="#9a32cd" points="54.56,-171.3 52.99,-160.83 47.68,-169.99 54.56,-171.3"/>
</a>
</g>
<text xml:space="preserve" text-anchor="start" x="59" y="-182.5" font-family="Helvetica,sans-Serif" font-size="10.00" fill="grey">pNext</text>
</g>
<!-- Node6 -->
<g id="Node000006" class="node">
<title>Node6</title>
<g id="a_Node000006"><a xlink:href="../../dd/dc1/structjoystick__hwdata_1_1hwdata__ball.html" target="_top" xlink:title=" ">
<polygon fill="white" stroke="#666666" points="144.25,-120 0,-120 0,-100 144.25,-100 144.25,-120"/>
<text xml:space="preserve" text-anchor="middle" x="72.12" y="-106.5" font-family="Helvetica,sans-Serif" font-size="10.00">joystick_hwdata::hwdata_ball</text>
</a>
</g>
</g>
<!-- Node6&#45;&gt;Node1 -->
<g id="edge7_Node000001_Node000006" class="edge">
<title>Node6&#45;&gt;Node1</title>
<g id="a_edge7_Node000001_Node000006"><a xlink:title=" ">
<path fill="none" stroke="#9a32cd" stroke-dasharray="5,2" d="M156.13,-116.03C176.92,-118.53 199.05,-122.05 219.25,-127 231.76,-130.06 245.18,-135.02 256.18,-139.54"/>
<polygon fill="#9a32cd" stroke="#9a32cd" points="156.57,-112.56 146.24,-114.91 155.78,-119.52 156.57,-112.56"/>
</a>
</g>
<text xml:space="preserve" text-anchor="start" x="180.62" y="-132.5" font-family="Helvetica,sans-Serif" font-size="10.00" fill="grey">balls</text>
</g>
<!-- Node7 -->
<g id="Node000007" class="node">
<title>Node7</title>
<g id="a_Node000007"><a xlink:href="../../d0/dc4/structjoystick__hwdata_1_1axis__correct.html" target="_top" xlink:title=" ">
<polygon fill="white" stroke="#666666" points="127.38,-82 16.88,-82 16.88,-50 127.38,-50 127.38,-82"/>
<text xml:space="preserve" text-anchor="start" x="24.88" y="-68.5" font-family="Helvetica,sans-Serif" font-size="10.00">joystick_hwdata::axis</text>
<text xml:space="preserve" text-anchor="middle" x="72.12" y="-56.5" font-family="Helvetica,sans-Serif" font-size="10.00">_correct</text>
</a>
</g>
</g>
<!-- Node7&#45;&gt;Node1 -->
<g id="edge8_Node000001_Node000007" class="edge">
<title>Node7&#45;&gt;Node1</title>
<g id="a_edge8_Node000001_Node000007"><a xlink:title=" ">
<path fill="none" stroke="#9a32cd" stroke-dasharray="5,2" d="M139.12,-71.38C165.13,-75.44 194.62,-82.55 219.25,-95 240.99,-105.99 260.72,-127.04 271.32,-139.67"/>
<polygon fill="#9a32cd" stroke="#9a32cd" points="139.72,-67.93 129.32,-69.99 138.73,-74.87 139.72,-67.93"/>
</a>
</g>
<text xml:space="preserve" text-anchor="start" x="165.25" y="-100.5" font-family="Helvetica,sans-Serif" font-size="10.00" fill="grey">abs_correct</text>
</g>
<!-- Node8 -->
<g id="Node000008" class="node">
<title>Node8</title>
<g id="a_Node000008"><a xlink:href="../../d2/de6/structjoystick__hwdata_1_1hat__axis__correct.html" target="_top" xlink:title=" ">
<polygon fill="white" stroke="#666666" points="125.12,-32 19.12,-32 19.12,0 125.12,0 125.12,-32"/>
<text xml:space="preserve" text-anchor="start" x="27.12" y="-18.5" font-family="Helvetica,sans-Serif" font-size="10.00">joystick_hwdata::hat</text>
<text xml:space="preserve" text-anchor="middle" x="72.12" y="-6.5" font-family="Helvetica,sans-Serif" font-size="10.00">_axis_correct</text>
</a>
</g>
</g>
<!-- Node8&#45;&gt;Node1 -->
<g id="edge9_Node000001_Node000008" class="edge">
<title>Node8&#45;&gt;Node1</title>
<g id="a_edge9_Node000001_Node000008"><a xlink:title=" ">
<path fill="none" stroke="#9a32cd" stroke-dasharray="5,2" d="M136.65,-21.94C164.12,-27.05 195.37,-36.5 219.25,-54 250.04,-76.56 268.77,-120.06 276.03,-139.81"/>
<polygon fill="#9a32cd" stroke="#9a32cd" points="137.48,-18.53 127.03,-20.32 136.31,-25.44 137.48,-18.53"/>
</a>
</g>
<text xml:space="preserve" text-anchor="start" x="166.38" y="-59.5" font-family="Helvetica,sans-Serif" font-size="10.00" fill="grey">hat_correct</text>
</g>
</g>
</svg>
</svg>

<style type='text/css'>
<![CDATA[
[data-mouse-over-selected='false'] { opacity: 0.7; }
[data-mouse-over-selected='true']  { opacity: 1.0; }
]]>
</style>
<script type="application/ecmascript"><![CDATA[
document.addEventListener('DOMContentLoaded', (event) => {
  highlightEdges();
  highlightAdjacentNodes();
});
]]></script>
</svg>
