<?xml version="1.0" encoding="UTF-8" standalone="no"?>
<!DOCTYPE svg PUBLIC "-//W3C//DTD SVG 1.1//EN"
 "http://www.w3.org/Graphics/SVG/1.1/DTD/svg11.dtd">
<!-- Generated by graphviz version 13.1.0 (20250701.0955)
 -->
<!-- Title: SDL_SYS_HapticMouse Pages: 1 -->
<svg width="312pt" height="66pt"
 viewBox="0.00 0.00 312.00 66.00" xmlns="http://www.w3.org/2000/svg" xmlns:xlink="http://www.w3.org/1999/xlink">
<g id="graph0" class="graph" transform="scale(1 1) rotate(0) translate(4 62)">
<title>SDL_SYS_HapticMouse</title>
<!-- Node1 -->
<g id="Node000001" class="node">
<title>Node1</title>
<g id="a_Node000001"><a xlink:title=" ">
<polygon fill="#999999" stroke="#666666" points="304.25,-39 180.25,-39 180.25,-19 304.25,-19 304.25,-39"/>
<text xml:space="preserve" text-anchor="middle" x="242.25" y="-25.5" font-family="Helvetica,sans-Serif" font-size="10.00">SDL_SYS_HapticMouse</text>
</a>
</g>
</g>
<!-- Node2 -->
<g id="Node000002" class="node">
<title>Node2</title>
<g id="a_Node000002"><a xlink:href="../../dd/dd3/SDL__haptic_8c.html#aa0bb58bab7834c7ea1e326c96813ca87" target="_top" xlink:title=" ">
<polygon fill="white" stroke="#666666" points="125.5,-58 18.75,-58 18.75,-38 125.5,-38 125.5,-58"/>
<text xml:space="preserve" text-anchor="middle" x="72.12" y="-44.5" font-family="Helvetica,sans-Serif" font-size="10.00">SDL_IsMouseHaptic</text>
</a>
</g>
</g>
<!-- Node1&#45;&gt;Node2 -->
<g id="edge1_Node000001_Node000002" class="edge">
<title>Node1&#45;&gt;Node2</title>
<g id="a_edge1_Node000001_Node000002"><a xlink:title=" ">
<path fill="none" stroke="#63b8ff" d="M168.68,-37.2C154.32,-38.82 139.49,-40.5 125.93,-42.03"/>
<polygon fill="#63b8ff" stroke="#63b8ff" points="169.03,-40.68 178.57,-36.08 168.24,-33.73 169.03,-40.68"/>
</a>
</g>
</g>
<!-- Node3 -->
<g id="Node000003" class="node">
<title>Node3</title>
<g id="a_Node000003"><a xlink:href="../../dd/dd3/SDL__haptic_8c.html#aece41e8202f932570e7e515c7714d473" target="_top" xlink:title=" ">
<polygon fill="white" stroke="#666666" points="144.25,-20 0,-20 0,0 144.25,0 144.25,-20"/>
<text xml:space="preserve" text-anchor="middle" x="72.12" y="-6.5" font-family="Helvetica,sans-Serif" font-size="10.00">SDL_OpenHapticFromMouse</text>
</a>
</g>
</g>
<!-- Node1&#45;&gt;Node3 -->
<g id="edge2_Node000001_Node000003" class="edge">
<title>Node1&#45;&gt;Node3</title>
<g id="a_edge2_Node000001_Node000003"><a xlink:title=" ">
<path fill="none" stroke="#63b8ff" d="M168.82,-20.81C160.77,-19.9 152.57,-18.98 144.53,-18.07"/>
<polygon fill="#63b8ff" stroke="#63b8ff" points="168.24,-24.27 178.57,-21.92 169.03,-17.32 168.24,-24.27"/>
</a>
</g>
</g>
</g>
</svg>
