<?xml version="1.0" encoding="UTF-8" standalone="no"?>
<!DOCTYPE svg PUBLIC "-//W3C//DTD SVG 1.1//EN"
 "http://www.w3.org/Graphics/SVG/1.1/DTD/svg11.dtd">
<!-- Generated by graphviz version 13.1.0 (20250701.0955)
 -->
<!-- Title: SDL_SendClipboardUpdate Pages: 1 -->
<svg width="643pt" height="66pt"
 viewBox="0.00 0.00 643.00 66.00" xmlns="http://www.w3.org/2000/svg" xmlns:xlink="http://www.w3.org/1999/xlink">
<g id="graph0" class="graph" transform="scale(1 1) rotate(0) translate(4 62)">
<title>SDL_SendClipboardUpdate</title>
<!-- Node1 -->
<g id="Node000001" class="node">
<title>Node1</title>
<g id="a_Node000001"><a xlink:title=" ">
<polygon fill="#999999" stroke="#666666" points="634.75,-39 498.75,-39 498.75,-19 634.75,-19 634.75,-39"/>
<text xml:space="preserve" text-anchor="middle" x="566.75" y="-25.5" font-family="Helvetica,sans-Serif" font-size="10.00">SDL_SendClipboardUpdate</text>
</a>
</g>
</g>
<!-- Node2 -->
<g id="Node000002" class="node">
<title>Node2</title>
<g id="a_Node000002"><a xlink:href="../../d6/da1/SDL__clipboard_8c.html#ad3f0bf69fa68149ecc80f81b1b344268" target="_top" xlink:title=" ">
<polygon fill="white" stroke="#666666" points="447.38,-58 329.38,-58 329.38,-38 447.38,-38 447.38,-58"/>
<text xml:space="preserve" text-anchor="middle" x="388.38" y="-44.5" font-family="Helvetica,sans-Serif" font-size="10.00">SDL_SetClipboardData</text>
</a>
</g>
</g>
<!-- Node1&#45;&gt;Node2 -->
<g id="edge1_Node000001_Node000002" class="edge">
<title>Node1&#45;&gt;Node2</title>
<g id="a_edge1_Node000001_Node000002"><a xlink:title=" ">
<path fill="none" stroke="#63b8ff" d="M486.88,-37.5C473.75,-38.91 460.35,-40.35 447.85,-41.7"/>
<polygon fill="#63b8ff" stroke="#63b8ff" points="487.24,-40.98 496.81,-36.43 486.49,-34.02 487.24,-40.98"/>
</a>
</g>
</g>
<!-- Node5 -->
<g id="Node000005" class="node">
<title>Node5</title>
<g id="a_Node000005"><a xlink:href="../../d6/da1/SDL__clipboard_8c.html#a829ed0cebbc7240f77264254b790d349" target="_top" xlink:title=" ">
<polygon fill="white" stroke="#666666" points="462.75,-20 314,-20 314,0 462.75,0 462.75,-20"/>
<text xml:space="preserve" text-anchor="middle" x="388.38" y="-6.5" font-family="Helvetica,sans-Serif" font-size="10.00">SDL_SetPrimarySelectionText</text>
</a>
</g>
</g>
<!-- Node1&#45;&gt;Node5 -->
<g id="edge6_Node000001_Node000005" class="edge">
<title>Node1&#45;&gt;Node5</title>
<g id="a_edge6_Node000001_Node000005"><a xlink:title=" ">
<path fill="none" stroke="#63b8ff" d="M486.89,-20.5C479.02,-19.66 471.05,-18.8 463.24,-17.96"/>
<polygon fill="#63b8ff" stroke="#63b8ff" points="486.49,-23.98 496.81,-21.57 487.24,-17.02 486.49,-23.98"/>
</a>
</g>
</g>
<!-- Node3 -->
<g id="Node000003" class="node">
<title>Node3</title>
<g id="a_Node000003"><a xlink:href="../../d6/da1/SDL__clipboard_8c.html#a9aa3cee0f84da11fa491ad40ba57a5c0" target="_top" xlink:title=" ">
<polygon fill="white" stroke="#666666" points="278,-58 151.75,-58 151.75,-38 278,-38 278,-58"/>
<text xml:space="preserve" text-anchor="middle" x="214.88" y="-44.5" font-family="Helvetica,sans-Serif" font-size="10.00">SDL_ClearClipboardData</text>
</a>
</g>
</g>
<!-- Node2&#45;&gt;Node3 -->
<g id="edge2_Node000002_Node000003" class="edge">
<title>Node2&#45;&gt;Node3</title>
<g id="a_edge2_Node000002_Node000003"><a xlink:title=" ">
<path fill="none" stroke="#63b8ff" d="M317.95,-41.36C304.83,-41.18 291.17,-41.22 278.28,-41.48"/>
<polygon fill="#63b8ff" stroke="#63b8ff" points="317.74,-44.86 327.8,-41.54 317.87,-37.86 317.74,-44.86"/>
</a>
</g>
</g>
<!-- Node4 -->
<g id="Node000004" class="node">
<title>Node4</title>
<g id="a_Node000004"><a xlink:href="../../d6/da1/SDL__clipboard_8c.html#ab4ab3c8cbbd94aef84dd792c7518de2f" target="_top" xlink:title=" ">
<polygon fill="white" stroke="#666666" points="115.75,-39 0,-39 0,-19 115.75,-19 115.75,-39"/>
<text xml:space="preserve" text-anchor="middle" x="57.88" y="-25.5" font-family="Helvetica,sans-Serif" font-size="10.00">SDL_SetClipboardText</text>
</a>
</g>
</g>
<!-- Node2&#45;&gt;Node4 -->
<g id="edge5_Node000002_Node000004" class="edge">
<title>Node2&#45;&gt;Node4</title>
<g id="a_edge5_Node000002_Node000004"><a xlink:title=" ">
<path fill="none" stroke="#63b8ff" d="M326.57,-35.53C310.82,-32.82 293.84,-30.37 278,-29 223.23,-24.28 160.48,-24.89 116.2,-26.31"/>
<polygon fill="#63b8ff" stroke="#63b8ff" points="325.84,-38.95 336.3,-37.26 327.07,-32.06 325.84,-38.95"/>
</a>
</g>
</g>
<!-- Node3&#45;&gt;Node2 -->
<g id="edge3_Node000003_Node000002" class="edge">
<title>Node3&#45;&gt;Node2</title>
<g id="a_edge3_Node000003_Node000002"><a xlink:title=" ">
<path fill="none" stroke="#63b8ff" d="M289.78,-54.69C303,-54.82 316.61,-54.73 329.31,-54.43"/>
<polygon fill="#63b8ff" stroke="#63b8ff" points="289.85,-51.19 279.8,-54.54 289.74,-58.19 289.85,-51.19"/>
</a>
</g>
</g>
<!-- Node3&#45;&gt;Node4 -->
<g id="edge4_Node000003_Node000004" class="edge">
<title>Node3&#45;&gt;Node4</title>
<g id="a_edge4_Node000003_Node000004"><a xlink:title=" ">
<path fill="none" stroke="#63b8ff" d="M140.03,-38.95C132.02,-37.97 123.96,-36.98 116.2,-36.03"/>
<polygon fill="#63b8ff" stroke="#63b8ff" points="139.42,-42.4 149.78,-40.14 140.28,-35.45 139.42,-42.4"/>
</a>
</g>
</g>
</g>
</svg>
