<?xml version="1.0" encoding="UTF-8" standalone="no"?>
<!DOCTYPE svg PUBLIC "-//W3C//DTD SVG 1.1//EN"
 "http://www.w3.org/Graphics/SVG/1.1/DTD/svg11.dtd">
<!-- Generated by graphviz version 13.1.0 (20250701.0955)
 -->
<!-- Title: SDL&#45;main/src/hidapi/linux/hid.c Pages: 1 -->
<svg width="1298pt" height="152pt"
 viewBox="0.00 0.00 1298.00 152.00" xmlns="http://www.w3.org/2000/svg" xmlns:xlink="http://www.w3.org/1999/xlink">
<g id="graph0" class="graph" transform="scale(1 1) rotate(0) translate(4 148)">
<title>SDL&#45;main/src/hidapi/linux/hid.c</title>
<!-- Node1 -->
<g id="Node000001" class="node">
<title>Node1</title>
<g id="a_Node000001"><a xlink:title=" ">
<polygon fill="#999999" stroke="#666666" points="640.88,-144 536.38,-144 536.38,-112 640.88,-112 640.88,-144"/>
<text xml:space="preserve" text-anchor="start" x="544.38" y="-130.5" font-family="Helvetica,sans-Serif" font-size="10.00">SDL&#45;main/src/hidapi</text>
<text xml:space="preserve" text-anchor="middle" x="588.62" y="-118.5" font-family="Helvetica,sans-Serif" font-size="10.00">/linux/hid.c</text>
</a>
</g>
</g>
<!-- Node2 -->
<g id="Node000002" class="node">
<title>Node2</title>
<g id="a_Node000002"><a xlink:title=" ">
<polygon fill="#e0e0e0" stroke="#999999" points="45.25,-76 0,-76 0,-56 45.25,-56 45.25,-76"/>
<text xml:space="preserve" text-anchor="middle" x="22.62" y="-62.5" font-family="Helvetica,sans-Serif" font-size="10.00">stdio.h</text>
</a>
</g>
</g>
<!-- Node1&#45;&gt;Node2 -->
<g id="edge1_Node000001_Node000002" class="edge">
<title>Node1&#45;&gt;Node2</title>
<g id="a_edge1_Node000001_Node000002"><a xlink:title=" ">
<path fill="none" stroke="#63b8ff" d="M535.89,-125.09C441.54,-121 237.61,-109.08 56.9,-76.09"/>
<polygon fill="#63b8ff" stroke="#63b8ff" points="57.54,-72.65 47.07,-74.26 56.26,-79.53 57.54,-72.65"/>
</a>
</g>
</g>
<!-- Node3 -->
<g id="Node000003" class="node">
<title>Node3</title>
<g id="a_Node000003"><a xlink:title=" ">
<polygon fill="#e0e0e0" stroke="#999999" points="111.75,-76 63.5,-76 63.5,-56 111.75,-56 111.75,-76"/>
<text xml:space="preserve" text-anchor="middle" x="87.62" y="-62.5" font-family="Helvetica,sans-Serif" font-size="10.00">string.h</text>
</a>
</g>
</g>
<!-- Node1&#45;&gt;Node3 -->
<g id="edge2_Node000001_Node000003" class="edge">
<title>Node1&#45;&gt;Node3</title>
<g id="a_edge2_Node000001_Node000003"><a xlink:title=" ">
<path fill="none" stroke="#63b8ff" d="M535.94,-123.98C450.92,-118.5 278.13,-104.94 123.16,-76.21"/>
<polygon fill="#63b8ff" stroke="#63b8ff" points="124,-72.81 113.52,-74.4 122.7,-79.69 124,-72.81"/>
</a>
</g>
</g>
<!-- Node4 -->
<g id="Node000004" class="node">
<title>Node4</title>
<g id="a_Node000004"><a xlink:title=" ">
<polygon fill="#e0e0e0" stroke="#999999" points="177.38,-76 129.88,-76 129.88,-56 177.38,-56 177.38,-76"/>
<text xml:space="preserve" text-anchor="middle" x="153.62" y="-62.5" font-family="Helvetica,sans-Serif" font-size="10.00">stdlib.h</text>
</a>
</g>
</g>
<!-- Node1&#45;&gt;Node4 -->
<g id="edge3_Node000001_Node000004" class="edge">
<title>Node1&#45;&gt;Node4</title>
<g id="a_edge3_Node000001_Node000004"><a xlink:title=" ">
<path fill="none" stroke="#63b8ff" d="M535.89,-122.68C460.81,-116.02 318.7,-101.48 188.62,-76.14"/>
<polygon fill="#63b8ff" stroke="#63b8ff" points="189.66,-72.78 179.17,-74.27 188.3,-79.65 189.66,-72.78"/>
</a>
</g>
</g>
<!-- Node5 -->
<g id="Node000005" class="node">
<title>Node5</title>
<g id="a_Node000005"><a xlink:title=" ">
<polygon fill="#e0e0e0" stroke="#999999" points="245.5,-76 195.75,-76 195.75,-56 245.5,-56 245.5,-76"/>
<text xml:space="preserve" text-anchor="middle" x="220.62" y="-62.5" font-family="Helvetica,sans-Serif" font-size="10.00">locale.h</text>
</a>
</g>
</g>
<!-- Node1&#45;&gt;Node5 -->
<g id="edge4_Node000001_Node000005" class="edge">
<title>Node1&#45;&gt;Node5</title>
<g id="a_edge4_Node000001_Node000005"><a xlink:title=" ">
<path fill="none" stroke="#63b8ff" d="M535.96,-120.73C472.14,-112.75 361.17,-97.6 256.85,-76.27"/>
<polygon fill="#63b8ff" stroke="#63b8ff" points="257.79,-72.89 247.29,-74.29 256.37,-79.75 257.79,-72.89"/>
</a>
</g>
</g>
<!-- Node6 -->
<g id="Node000006" class="node">
<title>Node6</title>
<g id="a_Node000006"><a xlink:title=" ">
<polygon fill="#e0e0e0" stroke="#999999" points="309.62,-76 263.62,-76 263.62,-56 309.62,-56 309.62,-76"/>
<text xml:space="preserve" text-anchor="middle" x="286.62" y="-62.5" font-family="Helvetica,sans-Serif" font-size="10.00">errno.h</text>
</a>
</g>
</g>
<!-- Node1&#45;&gt;Node6 -->
<g id="edge5_Node000001_Node000006" class="edge">
<title>Node1&#45;&gt;Node6</title>
<g id="a_edge5_Node000001_Node000006"><a xlink:title=" ">
<path fill="none" stroke="#63b8ff" d="M536.07,-118.48C483.8,-109.68 401.12,-94.93 320.79,-76.35"/>
<polygon fill="#63b8ff" stroke="#63b8ff" points="321.99,-73.04 311.46,-74.17 320.4,-79.85 321.99,-73.04"/>
</a>
</g>
</g>
<!-- Node7 -->
<g id="Node000007" class="node">
<title>Node7</title>
<g id="a_Node000007"><a xlink:title=" ">
<polygon fill="#e0e0e0" stroke="#999999" points="377.88,-76 327.38,-76 327.38,-56 377.88,-56 377.88,-76"/>
<text xml:space="preserve" text-anchor="middle" x="352.62" y="-62.5" font-family="Helvetica,sans-Serif" font-size="10.00">unistd.h</text>
</a>
</g>
</g>
<!-- Node1&#45;&gt;Node7 -->
<g id="edge6_Node000001_Node000007" class="edge">
<title>Node1&#45;&gt;Node7</title>
<g id="a_edge6_Node000001_Node000007"><a xlink:title=" ">
<path fill="none" stroke="#63b8ff" d="M536.14,-113.73C498.03,-104.09 444.93,-90.63 389.07,-76.36"/>
<polygon fill="#63b8ff" stroke="#63b8ff" points="390.26,-73.05 379.7,-73.97 388.53,-79.84 390.26,-73.05"/>
</a>
</g>
</g>
<!-- Node8 -->
<g id="Node000008" class="node">
<title>Node8</title>
<g id="a_Node000008"><a xlink:title=" ">
<polygon fill="#e0e0e0" stroke="#999999" points="463.12,-76 396.12,-76 396.12,-56 463.12,-56 463.12,-76"/>
<text xml:space="preserve" text-anchor="middle" x="429.62" y="-62.5" font-family="Helvetica,sans-Serif" font-size="10.00">sys/types.h</text>
</a>
</g>
</g>
<!-- Node1&#45;&gt;Node8 -->
<g id="edge7_Node000001_Node000008" class="edge">
<title>Node1&#45;&gt;Node8</title>
<g id="a_edge7_Node000001_Node000008"><a xlink:title=" ">
<path fill="none" stroke="#63b8ff" d="M547.68,-111.55C522.14,-101.91 489.61,-89.64 465.16,-80.41"/>
<polygon fill="#63b8ff" stroke="#63b8ff" points="466.56,-77.2 455.97,-76.94 464.09,-83.75 466.56,-77.2"/>
</a>
</g>
</g>
<!-- Node9 -->
<g id="Node000009" class="node">
<title>Node9</title>
<g id="a_Node000009"><a xlink:title=" ">
<polygon fill="#e0e0e0" stroke="#999999" points="540.38,-76 480.88,-76 480.88,-56 540.38,-56 540.38,-76"/>
<text xml:space="preserve" text-anchor="middle" x="510.62" y="-62.5" font-family="Helvetica,sans-Serif" font-size="10.00">sys/stat.h</text>
</a>
</g>
</g>
<!-- Node1&#45;&gt;Node9 -->
<g id="edge8_Node000001_Node000009" class="edge">
<title>Node1&#45;&gt;Node9</title>
<g id="a_edge8_Node000001_Node000009"><a xlink:title=" ">
<path fill="none" stroke="#63b8ff" d="M568.54,-111.55C557.25,-102.87 543.18,-92.04 531.73,-83.24"/>
<polygon fill="#63b8ff" stroke="#63b8ff" points="534.12,-80.65 524.06,-77.33 529.85,-86.2 534.12,-80.65"/>
</a>
</g>
</g>
<!-- Node10 -->
<g id="Node000010" class="node">
<title>Node10</title>
<g id="a_Node000010"><a xlink:title=" ">
<polygon fill="#e0e0e0" stroke="#999999" points="619.12,-76 558.12,-76 558.12,-56 619.12,-56 619.12,-76"/>
<text xml:space="preserve" text-anchor="middle" x="588.62" y="-62.5" font-family="Helvetica,sans-Serif" font-size="10.00">sys/ioctl.h</text>
</a>
</g>
</g>
<!-- Node1&#45;&gt;Node10 -->
<g id="edge9_Node000001_Node000010" class="edge">
<title>Node1&#45;&gt;Node10</title>
<g id="a_edge9_Node000001_Node000010"><a xlink:title=" ">
<path fill="none" stroke="#63b8ff" d="M588.62,-111.55C588.62,-104.34 588.62,-95.66 588.62,-87.88"/>
<polygon fill="#63b8ff" stroke="#63b8ff" points="592.13,-87.92 588.63,-77.92 585.13,-87.92 592.13,-87.92"/>
</a>
</g>
</g>
<!-- Node11 -->
<g id="Node000011" class="node">
<title>Node11</title>
<g id="a_Node000011"><a xlink:title=" ">
<polygon fill="#e0e0e0" stroke="#999999" points="717.88,-76 637.38,-76 637.38,-56 717.88,-56 717.88,-76"/>
<text xml:space="preserve" text-anchor="middle" x="677.62" y="-62.5" font-family="Helvetica,sans-Serif" font-size="10.00">sys/utsname.h</text>
</a>
</g>
</g>
<!-- Node1&#45;&gt;Node11 -->
<g id="edge10_Node000001_Node000011" class="edge">
<title>Node1&#45;&gt;Node11</title>
<g id="a_edge10_Node000001_Node000011"><a xlink:title=" ">
<path fill="none" stroke="#63b8ff" d="M611.54,-111.55C624.68,-102.69 641.12,-91.61 654.32,-82.71"/>
<polygon fill="#63b8ff" stroke="#63b8ff" points="656.08,-85.75 662.41,-77.25 652.17,-79.94 656.08,-85.75"/>
</a>
</g>
</g>
<!-- Node12 -->
<g id="Node000012" class="node">
<title>Node12</title>
<g id="a_Node000012"><a xlink:title=" ">
<polygon fill="#e0e0e0" stroke="#999999" points="779.12,-76 736.12,-76 736.12,-56 779.12,-56 779.12,-76"/>
<text xml:space="preserve" text-anchor="middle" x="757.62" y="-62.5" font-family="Helvetica,sans-Serif" font-size="10.00">fcntl.h</text>
</a>
</g>
</g>
<!-- Node1&#45;&gt;Node12 -->
<g id="edge11_Node000001_Node000012" class="edge">
<title>Node1&#45;&gt;Node12</title>
<g id="a_edge11_Node000001_Node000012"><a xlink:title=" ">
<path fill="none" stroke="#63b8ff" d="M632.15,-111.55C661.24,-101.22 698.89,-87.85 725.33,-78.47"/>
<polygon fill="#63b8ff" stroke="#63b8ff" points="726.24,-81.86 734.49,-75.21 723.89,-75.26 726.24,-81.86"/>
</a>
</g>
</g>
<!-- Node13 -->
<g id="Node000013" class="node">
<title>Node13</title>
<g id="a_Node000013"><a xlink:title=" ">
<polygon fill="#e0e0e0" stroke="#999999" points="836.25,-76 797,-76 797,-56 836.25,-56 836.25,-76"/>
<text xml:space="preserve" text-anchor="middle" x="816.62" y="-62.5" font-family="Helvetica,sans-Serif" font-size="10.00">poll.h</text>
</a>
</g>
</g>
<!-- Node1&#45;&gt;Node13 -->
<g id="edge12_Node000001_Node000013" class="edge">
<title>Node1&#45;&gt;Node13</title>
<g id="a_edge12_Node000001_Node000013"><a xlink:title=" ">
<path fill="none" stroke="#63b8ff" d="M641.08,-114.56C679.03,-105.34 731.77,-92.11 785.94,-76.66"/>
<polygon fill="#63b8ff" stroke="#63b8ff" points="786.69,-80.09 795.33,-73.96 784.75,-73.36 786.69,-80.09"/>
</a>
</g>
</g>
<!-- Node14 -->
<g id="Node000014" class="node">
<title>Node14</title>
<g id="a_Node000014"><a xlink:title=" ">
<polygon fill="#e0e0e0" stroke="#999999" points="929.25,-76 854,-76 854,-56 929.25,-56 929.25,-76"/>
<text xml:space="preserve" text-anchor="middle" x="891.62" y="-62.5" font-family="Helvetica,sans-Serif" font-size="10.00">linux/hidraw.h</text>
</a>
</g>
</g>
<!-- Node1&#45;&gt;Node14 -->
<g id="edge13_Node000001_Node000014" class="edge">
<title>Node1&#45;&gt;Node14</title>
<g id="a_edge13_Node000001_Node000014"><a xlink:title=" ">
<path fill="none" stroke="#63b8ff" d="M641.06,-116.62C697.67,-105.41 787.14,-87.69 842.45,-76.74"/>
<polygon fill="#63b8ff" stroke="#63b8ff" points="843.1,-80.18 852.23,-74.8 841.74,-73.31 843.1,-80.18"/>
</a>
</g>
</g>
<!-- Node15 -->
<g id="Node000015" class="node">
<title>Node15</title>
<g id="a_Node000015"><a xlink:title=" ">
<polygon fill="#e0e0e0" stroke="#999999" points="1026.12,-76 947.12,-76 947.12,-56 1026.12,-56 1026.12,-76"/>
<text xml:space="preserve" text-anchor="middle" x="986.62" y="-62.5" font-family="Helvetica,sans-Serif" font-size="10.00">linux/version.h</text>
</a>
</g>
</g>
<!-- Node1&#45;&gt;Node15 -->
<g id="edge14_Node000001_Node000015" class="edge">
<title>Node1&#45;&gt;Node15</title>
<g id="a_edge14_Node000001_Node000015"><a xlink:title=" ">
<path fill="none" stroke="#63b8ff" d="M641.21,-120.02C707.49,-111.06 825.23,-94.66 935.5,-76.47"/>
<polygon fill="#63b8ff" stroke="#63b8ff" points="936.05,-79.93 945.34,-74.84 934.9,-73.02 936.05,-79.93"/>
</a>
</g>
</g>
<!-- Node16 -->
<g id="Node000016" class="node">
<title>Node16</title>
<g id="a_Node000016"><a xlink:title=" ">
<polygon fill="#e0e0e0" stroke="#999999" points="1112.88,-76 1044.38,-76 1044.38,-56 1112.88,-56 1112.88,-76"/>
<text xml:space="preserve" text-anchor="middle" x="1078.62" y="-62.5" font-family="Helvetica,sans-Serif" font-size="10.00">linux/input.h</text>
</a>
</g>
</g>
<!-- Node1&#45;&gt;Node16 -->
<g id="edge15_Node000001_Node000016" class="edge">
<title>Node1&#45;&gt;Node16</title>
<g id="a_edge15_Node000001_Node000016"><a xlink:title=" ">
<path fill="none" stroke="#63b8ff" d="M641.14,-122.6C722.85,-115.4 885.55,-99.68 1032.91,-76.32"/>
<polygon fill="#63b8ff" stroke="#63b8ff" points="1033.13,-79.83 1042.45,-74.79 1032.02,-72.91 1033.13,-79.83"/>
</a>
</g>
</g>
<!-- Node17 -->
<g id="Node000017" class="node">
<title>Node17</title>
<g id="a_Node000017"><a xlink:title=" ">
<polygon fill="#e0e0e0" stroke="#999999" points="1184.75,-76 1130.5,-76 1130.5,-56 1184.75,-56 1184.75,-76"/>
<text xml:space="preserve" text-anchor="middle" x="1157.62" y="-62.5" font-family="Helvetica,sans-Serif" font-size="10.00">libudev.h</text>
</a>
</g>
</g>
<!-- Node1&#45;&gt;Node17 -->
<g id="edge16_Node000001_Node000017" class="edge">
<title>Node1&#45;&gt;Node17</title>
<g id="a_edge16_Node000001_Node000017"><a xlink:title=" ">
<path fill="none" stroke="#63b8ff" d="M641.17,-124.58C735.2,-119.69 938.54,-106.55 1118.9,-76.23"/>
<polygon fill="#63b8ff" stroke="#63b8ff" points="1119.44,-79.69 1128.71,-74.56 1118.26,-72.79 1119.44,-79.69"/>
</a>
</g>
</g>
<!-- Node18 -->
<g id="Node000018" class="node">
<title>Node18</title>
<g id="a_Node000018"><a xlink:href="../../dc/dd0/hidapi_8h.html" target="_top" xlink:title=" ">
<polygon fill="white" stroke="#666666" points="1290.25,-76 1203,-76 1203,-56 1290.25,-56 1290.25,-76"/>
<text xml:space="preserve" text-anchor="middle" x="1246.62" y="-62.5" font-family="Helvetica,sans-Serif" font-size="10.00">../hidapi/hidapi.h</text>
</a>
</g>
</g>
<!-- Node1&#45;&gt;Node18 -->
<g id="edge17_Node000001_Node000018" class="edge">
<title>Node1&#45;&gt;Node18</title>
<g id="a_edge17_Node000001_Node000018"><a xlink:title=" ">
<path fill="none" stroke="#63b8ff" d="M640.98,-124.07C744.2,-117.98 981.44,-102.39 1191.46,-76.17"/>
<polygon fill="#63b8ff" stroke="#63b8ff" points="1191.72,-79.66 1201.21,-74.94 1190.85,-72.72 1191.72,-79.66"/>
</a>
</g>
</g>
<!-- Node19 -->
<g id="Node000019" class="node">
<title>Node19</title>
<g id="a_Node000019"><a xlink:title=" ">
<polygon fill="#e0e0e0" stroke="#999999" points="1271.88,-20 1221.38,-20 1221.38,0 1271.88,0 1271.88,-20"/>
<text xml:space="preserve" text-anchor="middle" x="1246.62" y="-6.5" font-family="Helvetica,sans-Serif" font-size="10.00">wchar.h</text>
</a>
</g>
</g>
<!-- Node18&#45;&gt;Node19 -->
<g id="edge18_Node000018_Node000019" class="edge">
<title>Node18&#45;&gt;Node19</title>
<g id="a_edge18_Node000018_Node000019"><a xlink:title=" ">
<path fill="none" stroke="#63b8ff" d="M1246.62,-55.59C1246.62,-49.01 1246.62,-39.96 1246.62,-31.73"/>
<polygon fill="#63b8ff" stroke="#63b8ff" points="1250.13,-31.81 1246.63,-21.81 1243.13,-31.81 1250.13,-31.81"/>
</a>
</g>
</g>
</g>
</svg>
