<?xml version="1.0" encoding="UTF-8" standalone="no"?>
<!DOCTYPE svg PUBLIC "-//W3C//DTD SVG 1.1//EN"
 "http://www.w3.org/Graphics/SVG/1.1/DTD/svg11.dtd">
<!-- Generated by graphviz version 13.1.0 (20250701.0955)
 -->
<!-- Title: StdVideoEncodeH265SliceSegmentHeader Pages: 1 -->
<svg width="340pt" height="212pt"
 viewBox="0.00 0.00 340.00 212.00" xmlns="http://www.w3.org/2000/svg" xmlns:xlink="http://www.w3.org/1999/xlink">
<g id="graph0" class="graph" transform="scale(1 1) rotate(0) translate(4 208)">
<title>StdVideoEncodeH265SliceSegmentHeader</title>
<!-- Node1 -->
<g id="Node000001" class="node">
<title>Node1</title>
<g id="a_Node000001"><a xlink:title=" ">
<polygon fill="#999999" stroke="#666666" points="228.75,-32 56,-32 56,0 228.75,0 228.75,-32"/>
<text xml:space="preserve" text-anchor="start" x="64" y="-18.5" font-family="Helvetica,sans-Serif" font-size="10.00">StdVideoEncodeH265SliceSegment</text>
<text xml:space="preserve" text-anchor="middle" x="142.38" y="-6.5" font-family="Helvetica,sans-Serif" font-size="10.00">Header</text>
</a>
</g>
</g>
<!-- Node2 -->
<g id="Node000002" class="node">
<title>Node2</title>
<g id="a_Node000002"><a xlink:href="../../db/d88/structStdVideoEncodeH265SliceSegmentHeaderFlags.html" target="_top" xlink:title=" ">
<polygon fill="white" stroke="#666666" points="172.75,-118 0,-118 0,-86 172.75,-86 172.75,-118"/>
<text xml:space="preserve" text-anchor="start" x="8" y="-104.5" font-family="Helvetica,sans-Serif" font-size="10.00">StdVideoEncodeH265SliceSegment</text>
<text xml:space="preserve" text-anchor="middle" x="86.38" y="-92.5" font-family="Helvetica,sans-Serif" font-size="10.00">HeaderFlags</text>
</a>
</g>
</g>
<!-- Node2&#45;&gt;Node1 -->
<g id="edge1_Node000001_Node000002" class="edge">
<title>Node2&#45;&gt;Node1</title>
<g id="a_edge1_Node000001_Node000002"><a xlink:title=" ">
<path fill="none" stroke="#9a32cd" stroke-dasharray="5,2" d="M102.81,-76.34C112.32,-62.09 123.98,-44.6 132.17,-32.31"/>
<polygon fill="#9a32cd" stroke="#9a32cd" points="100.12,-74.07 97.49,-84.33 105.95,-77.95 100.12,-74.07"/>
</a>
</g>
<text xml:space="preserve" text-anchor="start" x="122.39" y="-55.5" font-family="Helvetica,sans-Serif" font-size="10.00" fill="grey">flags</text>
</g>
<!-- Node3 -->
<g id="Node000003" class="node">
<title>Node3</title>
<g id="a_Node000003"><a xlink:href="../../db/daa/structStdVideoEncodeH265WeightTable.html" target="_top" xlink:title=" ">
<polygon fill="white" stroke="#666666" points="332.38,-118 190.38,-118 190.38,-86 332.38,-86 332.38,-118"/>
<text xml:space="preserve" text-anchor="start" x="198.38" y="-104.5" font-family="Helvetica,sans-Serif" font-size="10.00">StdVideoEncodeH265Weight</text>
<text xml:space="preserve" text-anchor="middle" x="261.38" y="-92.5" font-family="Helvetica,sans-Serif" font-size="10.00">Table</text>
</a>
</g>
</g>
<!-- Node3&#45;&gt;Node1 -->
<g id="edge2_Node000001_Node000003" class="edge">
<title>Node3&#45;&gt;Node1</title>
<g id="a_edge2_Node000001_Node000003"><a xlink:title=" ">
<path fill="none" stroke="#9a32cd" stroke-dasharray="5,2" d="M230.18,-78.98C209.37,-64.29 182.56,-45.36 164.06,-32.31"/>
<polygon fill="#9a32cd" stroke="#9a32cd" points="228.12,-81.81 238.31,-84.72 232.16,-76.09 228.12,-81.81"/>
</a>
</g>
<text xml:space="preserve" text-anchor="start" x="215.53" y="-55.5" font-family="Helvetica,sans-Serif" font-size="10.00" fill="grey">pWeightTable</text>
</g>
<!-- Node4 -->
<g id="Node000004" class="node">
<title>Node4</title>
<g id="a_Node000004"><a xlink:href="../../d1/dc5/structStdVideoEncodeH265WeightTableFlags.html" target="_top" xlink:title=" ">
<polygon fill="white" stroke="#666666" points="332.38,-204 190.38,-204 190.38,-172 332.38,-172 332.38,-204"/>
<text xml:space="preserve" text-anchor="start" x="198.38" y="-190.5" font-family="Helvetica,sans-Serif" font-size="10.00">StdVideoEncodeH265Weight</text>
<text xml:space="preserve" text-anchor="middle" x="261.38" y="-178.5" font-family="Helvetica,sans-Serif" font-size="10.00">TableFlags</text>
</a>
</g>
</g>
<!-- Node4&#45;&gt;Node3 -->
<g id="edge3_Node000003_Node000004" class="edge">
<title>Node4&#45;&gt;Node3</title>
<g id="a_edge3_Node000003_Node000004"><a xlink:title=" ">
<path fill="none" stroke="#9a32cd" stroke-dasharray="5,2" d="M261.38,-160.27C261.38,-146.42 261.38,-130.01 261.38,-118.31"/>
<polygon fill="#9a32cd" stroke="#9a32cd" points="257.88,-160.08 261.38,-170.08 264.88,-160.08 257.88,-160.08"/>
</a>
</g>
<text xml:space="preserve" text-anchor="start" x="264.38" y="-141.5" font-family="Helvetica,sans-Serif" font-size="10.00" fill="grey">flags</text>
</g>
</g>
</svg>
