<?xml version="1.0" encoding="UTF-8" standalone="no"?>
<!DOCTYPE svg PUBLIC "-//W3C//DTD SVG 1.1//EN"
 "http://www.w3.org/Graphics/SVG/1.1/DTD/svg11.dtd">
<!-- Generated by graphviz version 13.1.0 (20250701.0955)
 -->
<!-- Title: SDL_TimerResolutionChanged Pages: 1 -->
<svg width="883pt" height="72pt"
 viewBox="0.00 0.00 883.00 72.00" xmlns="http://www.w3.org/2000/svg" xmlns:xlink="http://www.w3.org/1999/xlink">
<g id="graph0" class="graph" transform="scale(1 1) rotate(0) translate(4 68)">
<title>SDL_TimerResolutionChanged</title>
<!-- Node1 -->
<g id="Node000001" class="node">
<title>Node1</title>
<g id="a_Node000001"><a xlink:title=" ">
<polygon fill="#999999" stroke="#666666" points="151,-39 0,-39 0,-19 151,-19 151,-39"/>
<text xml:space="preserve" text-anchor="middle" x="75.5" y="-25.5" font-family="Helvetica,sans-Serif" font-size="10.00">SDL_TimerResolutionChanged</text>
</a>
</g>
</g>
<!-- Node2 -->
<g id="Node000002" class="node">
<title>Node2</title>
<g id="a_Node000002"><a xlink:href="../../d2/d23/SDL__string_8c.html#aeb781495f4470bec33217910d5353ac8" target="_top" xlink:title=" ">
<polygon fill="white" stroke="#666666" points="303.12,-58 246.62,-58 246.62,-38 303.12,-38 303.12,-58"/>
<text xml:space="preserve" text-anchor="middle" x="274.88" y="-44.5" font-family="Helvetica,sans-Serif" font-size="10.00">SDL_atoi</text>
</a>
</g>
</g>
<!-- Node1&#45;&gt;Node2 -->
<g id="edge1_Node000001_Node000002" class="edge">
<title>Node1&#45;&gt;Node2</title>
<g id="a_edge1_Node000001_Node000002"><a xlink:title=" ">
<path fill="none" stroke="#63b8ff" d="M151.4,-36.21C179.95,-38.96 211.32,-41.98 235.16,-44.27"/>
<polygon fill="#63b8ff" stroke="#63b8ff" points="234.76,-47.75 245.05,-45.23 235.43,-40.78 234.76,-47.75"/>
</a>
</g>
</g>
<!-- Node7 -->
<g id="Node000007" class="node">
<title>Node7</title>
<g id="a_Node000007"><a xlink:href="../../d7/d6c/SDL__timer_8c.html#a6f1bf05dc4a2fda91a9f3b32026558d2" target="_top" xlink:title=" ">
<polygon fill="white" stroke="#666666" points="362.75,-20 187,-20 187,0 362.75,0 362.75,-20"/>
<text xml:space="preserve" text-anchor="middle" x="274.88" y="-6.5" font-family="Helvetica,sans-Serif" font-size="10.00">SDL_SetSystemTimerResolutionMS</text>
</a>
</g>
</g>
<!-- Node1&#45;&gt;Node7 -->
<g id="edge6_Node000001_Node000007" class="edge">
<title>Node1&#45;&gt;Node7</title>
<g id="a_edge6_Node000001_Node000007"><a xlink:title=" ">
<path fill="none" stroke="#63b8ff" d="M151.4,-21.79C159.26,-21.03 167.33,-20.26 175.4,-19.48"/>
<polygon fill="#63b8ff" stroke="#63b8ff" points="175.66,-22.97 185.28,-18.53 174.99,-16 175.66,-22.97"/>
</a>
</g>
</g>
<!-- Node3 -->
<g id="Node000003" class="node">
<title>Node3</title>
<g id="a_Node000003"><a xlink:href="../../d2/d23/SDL__string_8c.html#a8291f282f96ea4c1948eb5a87696b873" target="_top" xlink:title=" ">
<polygon fill="white" stroke="#666666" points="461.25,-58 398.75,-58 398.75,-38 461.25,-38 461.25,-58"/>
<text xml:space="preserve" text-anchor="middle" x="430" y="-44.5" font-family="Helvetica,sans-Serif" font-size="10.00">SDL_strtol</text>
</a>
</g>
</g>
<!-- Node2&#45;&gt;Node3 -->
<g id="edge2_Node000002_Node000003" class="edge">
<title>Node2&#45;&gt;Node3</title>
<g id="a_edge2_Node000002_Node000003"><a xlink:title=" ">
<path fill="none" stroke="#63b8ff" d="M303.6,-48C326.88,-48 360.48,-48 387.05,-48"/>
<polygon fill="#63b8ff" stroke="#63b8ff" points="386.81,-51.5 396.81,-48 386.81,-44.5 386.81,-51.5"/>
</a>
</g>
</g>
<!-- Node4 -->
<g id="Node000004" class="node">
<title>Node4</title>
<g id="a_Node000004"><a xlink:href="../../d2/d23/SDL__string_8c.html#a1bed6e3ed5cfd4a6a39e5735a22168d1" target="_top" xlink:title=" ">
<polygon fill="white" stroke="#666666" points="581.5,-58 497.25,-58 497.25,-38 581.5,-38 581.5,-58"/>
<text xml:space="preserve" text-anchor="middle" x="539.38" y="-44.5" font-family="Helvetica,sans-Serif" font-size="10.00">SDL_ScanLong</text>
</a>
</g>
</g>
<!-- Node3&#45;&gt;Node4 -->
<g id="edge3_Node000003_Node000004" class="edge">
<title>Node3&#45;&gt;Node4</title>
<g id="a_edge3_Node000003_Node000004"><a xlink:title=" ">
<path fill="none" stroke="#63b8ff" d="M461.48,-48C469.07,-48 477.42,-48 485.74,-48"/>
<polygon fill="#63b8ff" stroke="#63b8ff" points="485.48,-51.5 495.48,-48 485.48,-44.5 485.48,-51.5"/>
</a>
</g>
</g>
<!-- Node5 -->
<g id="Node000005" class="node">
<title>Node5</title>
<g id="a_Node000005"><a xlink:href="../../d2/d23/SDL__string_8c.html#a7973bb641d19e0ed46f90e07e09b07ed" target="_top" xlink:title=" ">
<polygon fill="white" stroke="#666666" points="764,-64 617.5,-64 617.5,-32 764,-32 764,-64"/>
<text xml:space="preserve" text-anchor="start" x="625.5" y="-50.5" font-family="Helvetica,sans-Serif" font-size="10.00">SDL_ScanUnsignedLongLong</text>
<text xml:space="preserve" text-anchor="middle" x="690.75" y="-38.5" font-family="Helvetica,sans-Serif" font-size="10.00">Internal</text>
</a>
</g>
</g>
<!-- Node4&#45;&gt;Node5 -->
<g id="edge4_Node000004_Node000005" class="edge">
<title>Node4&#45;&gt;Node5</title>
<g id="a_edge4_Node000004_Node000005"><a xlink:title=" ">
<path fill="none" stroke="#63b8ff" d="M581.98,-48C589.52,-48 597.62,-48 605.87,-48"/>
<polygon fill="#63b8ff" stroke="#63b8ff" points="605.67,-51.5 615.67,-48 605.67,-44.5 605.67,-51.5"/>
</a>
</g>
</g>
<!-- Node6 -->
<g id="Node000006" class="node">
<title>Node6</title>
<g id="a_Node000006"><a xlink:href="../../d3/d02/SDL__stdlib_8c.html#a0f97bab0613d4633dfc9a13c1d8bd9f7" target="_top" xlink:title=" ">
<polygon fill="white" stroke="#666666" points="874.5,-58 800,-58 800,-38 874.5,-38 874.5,-58"/>
<text xml:space="preserve" text-anchor="middle" x="837.25" y="-44.5" font-family="Helvetica,sans-Serif" font-size="10.00">SDL_isspace</text>
</a>
</g>
</g>
<!-- Node5&#45;&gt;Node6 -->
<g id="edge5_Node000005_Node000006" class="edge">
<title>Node5&#45;&gt;Node6</title>
<g id="a_edge5_Node000005_Node000006"><a xlink:title=" ">
<path fill="none" stroke="#63b8ff" d="M764.42,-48C772.54,-48 780.66,-48 788.35,-48"/>
<polygon fill="#63b8ff" stroke="#63b8ff" points="788.15,-51.5 798.15,-48 788.15,-44.5 788.15,-51.5"/>
</a>
</g>
</g>
</g>
</svg>
