<?xml version="1.0" encoding="UTF-8" standalone="no"?>
<!DOCTYPE svg PUBLIC "-//W3C//DTD SVG 1.1//EN"
 "http://www.w3.org/Graphics/SVG/1.1/DTD/svg11.dtd">
<!-- Generated by graphviz version 13.1.0 (20250701.0955)
 -->
<!-- Title: SDL&#45;main/src/audio/SDL_sysaudio.h Pages: 1 -->
<svg width="4481pt" height="244pt"
 viewBox="0.00 0.00 4481.00 244.00" xmlns="http://www.w3.org/2000/svg" xmlns:xlink="http://www.w3.org/1999/xlink">
<g id="graph0" class="graph" transform="scale(1 1) rotate(0) translate(4 240)">
<title>SDL&#45;main/src/audio/SDL_sysaudio.h</title>
<!-- Node1 -->
<g id="Node000001" class="node">
<title>Node1</title>
<g id="a_Node000001"><a xlink:title=" ">
<polygon fill="#999999" stroke="#666666" points="2169.5,-236 2067.25,-236 2067.25,-204 2169.5,-204 2169.5,-236"/>
<text xml:space="preserve" text-anchor="start" x="2075.25" y="-222.5" font-family="Helvetica,sans-Serif" font-size="10.00">SDL&#45;main/src/audio</text>
<text xml:space="preserve" text-anchor="middle" x="2118.38" y="-210.5" font-family="Helvetica,sans-Serif" font-size="10.00">/SDL_sysaudio.h</text>
</a>
</g>
</g>
<!-- Node2 -->
<g id="Node000002" class="node">
<title>Node2</title>
<g id="a_Node000002"><a xlink:href="../../df/d78/SDL_8c.html" target="_top" xlink:title=" ">
<polygon fill="white" stroke="#666666" points="106.75,-162 0,-162 0,-142 106.75,-142 106.75,-162"/>
<text xml:space="preserve" text-anchor="middle" x="53.38" y="-148.5" font-family="Helvetica,sans-Serif" font-size="10.00">SDL&#45;main/src/SDL.c</text>
</a>
</g>
</g>
<!-- Node1&#45;&gt;Node2 -->
<g id="edge1_Node000001_Node000002" class="edge">
<title>Node1&#45;&gt;Node2</title>
<g id="a_edge1_Node000001_Node000002"><a xlink:title=" ">
<path fill="none" stroke="#63b8ff" d="M2055.43,-219.16C1759.49,-219.64 504.65,-218.61 116.38,-168 106.9,-166.76 96.77,-164.7 87.47,-162.48"/>
<polygon fill="#63b8ff" stroke="#63b8ff" points="2055.27,-222.66 2065.26,-219.14 2055.25,-215.66 2055.27,-222.66"/>
</a>
</g>
</g>
<!-- Node3 -->
<g id="Node000003" class="node">
<title>Node3</title>
<g id="a_Node000003"><a xlink:href="../../d6/d9b/SDL__audio_8c.html" target="_top" xlink:title=" ">
<polygon fill="white" stroke="#666666" points="227.5,-168 125.25,-168 125.25,-136 227.5,-136 227.5,-168"/>
<text xml:space="preserve" text-anchor="start" x="133.25" y="-154.5" font-family="Helvetica,sans-Serif" font-size="10.00">SDL&#45;main/src/audio</text>
<text xml:space="preserve" text-anchor="middle" x="176.38" y="-142.5" font-family="Helvetica,sans-Serif" font-size="10.00">/SDL_audio.c</text>
</a>
</g>
</g>
<!-- Node1&#45;&gt;Node3 -->
<g id="edge2_Node000001_Node000003" class="edge">
<title>Node1&#45;&gt;Node3</title>
<g id="a_edge2_Node000001_Node000003"><a xlink:title=" ">
<path fill="none" stroke="#63b8ff" d="M2055.53,-219.13C1770.74,-219.46 599.5,-217.71 236.38,-168 233.61,-167.62 230.79,-167.16 227.95,-166.65"/>
<polygon fill="#63b8ff" stroke="#63b8ff" points="2055.35,-222.63 2065.34,-219.12 2055.34,-215.63 2055.35,-222.63"/>
</a>
</g>
</g>
<!-- Node4 -->
<g id="Node000004" class="node">
<title>Node4</title>
<g id="a_Node000004"><a xlink:href="../../dc/d77/SDL__audiocvt_8c.html" target="_top" xlink:title=" ">
<polygon fill="white" stroke="#666666" points="347.5,-168 245.25,-168 245.25,-136 347.5,-136 347.5,-168"/>
<text xml:space="preserve" text-anchor="start" x="253.25" y="-154.5" font-family="Helvetica,sans-Serif" font-size="10.00">SDL&#45;main/src/audio</text>
<text xml:space="preserve" text-anchor="middle" x="296.38" y="-142.5" font-family="Helvetica,sans-Serif" font-size="10.00">/SDL_audiocvt.c</text>
</a>
</g>
</g>
<!-- Node1&#45;&gt;Node4 -->
<g id="edge3_Node000001_Node000004" class="edge">
<title>Node1&#45;&gt;Node4</title>
<g id="a_edge3_Node000001_Node000004"><a xlink:title=" ">
<path fill="none" stroke="#63b8ff" d="M2055.56,-219C1782.19,-218.72 694.66,-214.62 356.38,-168 353.61,-167.62 350.79,-167.16 347.95,-166.64"/>
<polygon fill="#63b8ff" stroke="#63b8ff" points="2055.32,-222.5 2065.32,-219.01 2055.32,-215.5 2055.32,-222.5"/>
</a>
</g>
</g>
<!-- Node5 -->
<g id="Node000005" class="node">
<title>Node5</title>
<g id="a_Node000005"><a xlink:href="../../d8/d95/SDL__audiodev__c_8h.html" target="_top" xlink:title=" ">
<polygon fill="white" stroke="#666666" points="467.5,-168 365.25,-168 365.25,-136 467.5,-136 467.5,-168"/>
<text xml:space="preserve" text-anchor="start" x="373.25" y="-154.5" font-family="Helvetica,sans-Serif" font-size="10.00">SDL&#45;main/src/audio</text>
<text xml:space="preserve" text-anchor="middle" x="416.38" y="-142.5" font-family="Helvetica,sans-Serif" font-size="10.00">/SDL_audiodev_c.h</text>
</a>
</g>
</g>
<!-- Node1&#45;&gt;Node5 -->
<g id="edge4_Node000001_Node000005" class="edge">
<title>Node1&#45;&gt;Node5</title>
<g id="a_edge4_Node000001_Node000005"><a xlink:title=" ">
<path fill="none" stroke="#63b8ff" d="M2055.6,-218.84C1794.03,-217.92 789.87,-211.54 476.38,-168 473.61,-167.62 470.79,-167.16 467.95,-166.64"/>
<polygon fill="#63b8ff" stroke="#63b8ff" points="2055.24,-222.34 2065.25,-218.88 2055.26,-215.34 2055.24,-222.34"/>
</a>
</g>
</g>
<!-- Node6 -->
<g id="Node000006" class="node">
<title>Node6</title>
<g id="a_Node000006"><a xlink:href="../../df/dd6/SDL__audioqueue_8c.html" target="_top" xlink:title=" ">
<polygon fill="white" stroke="#666666" points="587.5,-168 485.25,-168 485.25,-136 587.5,-136 587.5,-168"/>
<text xml:space="preserve" text-anchor="start" x="493.25" y="-154.5" font-family="Helvetica,sans-Serif" font-size="10.00">SDL&#45;main/src/audio</text>
<text xml:space="preserve" text-anchor="middle" x="536.38" y="-142.5" font-family="Helvetica,sans-Serif" font-size="10.00">/SDL_audioqueue.c</text>
</a>
</g>
</g>
<!-- Node1&#45;&gt;Node6 -->
<g id="edge5_Node000001_Node000006" class="edge">
<title>Node1&#45;&gt;Node6</title>
<g id="a_edge5_Node000001_Node000006"><a xlink:title=" ">
<path fill="none" stroke="#63b8ff" d="M2055.76,-218.67C1806.61,-217.07 885.2,-208.48 596.38,-168 593.61,-167.61 590.79,-167.15 587.95,-166.63"/>
<polygon fill="#63b8ff" stroke="#63b8ff" points="2055.57,-222.17 2065.6,-218.73 2055.62,-215.17 2055.57,-222.17"/>
</a>
</g>
</g>
<!-- Node7 -->
<g id="Node000007" class="node">
<title>Node7</title>
<g id="a_Node000007"><a xlink:href="../../d0/d15/SDL__audioresample_8c.html" target="_top" xlink:title=" ">
<polygon fill="white" stroke="#666666" points="720.88,-168 605.88,-168 605.88,-136 720.88,-136 720.88,-168"/>
<text xml:space="preserve" text-anchor="start" x="613.88" y="-154.5" font-family="Helvetica,sans-Serif" font-size="10.00">SDL&#45;main/src/audio</text>
<text xml:space="preserve" text-anchor="middle" x="663.38" y="-142.5" font-family="Helvetica,sans-Serif" font-size="10.00">/SDL_audioresample.c</text>
</a>
</g>
</g>
<!-- Node1&#45;&gt;Node7 -->
<g id="edge6_Node000001_Node000007" class="edge">
<title>Node1&#45;&gt;Node7</title>
<g id="a_edge6_Node000001_Node000007"><a xlink:title=" ">
<path fill="none" stroke="#63b8ff" d="M2055.51,-218.25C1820.15,-215.21 991.14,-202.25 729.38,-168 726.7,-167.65 723.96,-167.24 721.21,-166.79"/>
<polygon fill="#63b8ff" stroke="#63b8ff" points="2055.36,-221.75 2065.4,-218.38 2055.45,-214.75 2055.36,-221.75"/>
</a>
</g>
</g>
<!-- Node8 -->
<g id="Node000008" class="node">
<title>Node8</title>
<g id="a_Node000008"><a xlink:href="../../d1/dff/SDL__audiotypecvt_8c.html" target="_top" xlink:title=" ">
<polygon fill="white" stroke="#666666" points="846.12,-168 738.62,-168 738.62,-136 846.12,-136 846.12,-168"/>
<text xml:space="preserve" text-anchor="start" x="746.62" y="-154.5" font-family="Helvetica,sans-Serif" font-size="10.00">SDL&#45;main/src/audio</text>
<text xml:space="preserve" text-anchor="middle" x="792.38" y="-142.5" font-family="Helvetica,sans-Serif" font-size="10.00">/SDL_audiotypecvt.c</text>
</a>
</g>
</g>
<!-- Node1&#45;&gt;Node8 -->
<g id="edge7_Node000001_Node000008" class="edge">
<title>Node1&#45;&gt;Node8</title>
<g id="a_edge7_Node000001_Node000008"><a xlink:title=" ">
<path fill="none" stroke="#63b8ff" d="M2055.39,-218.07C1833.84,-214.54 1091.1,-200.51 855.38,-168 852.48,-167.6 849.52,-167.13 846.55,-166.6"/>
<polygon fill="#63b8ff" stroke="#63b8ff" points="2055.21,-221.57 2065.26,-218.22 2055.32,-214.57 2055.21,-221.57"/>
</a>
</g>
</g>
<!-- Node9 -->
<g id="Node000009" class="node">
<title>Node9</title>
<g id="a_Node000009"><a xlink:href="../../dd/d7c/SDL__mixer_8c.html" target="_top" xlink:title=" ">
<polygon fill="white" stroke="#666666" points="966.5,-168 864.25,-168 864.25,-136 966.5,-136 966.5,-168"/>
<text xml:space="preserve" text-anchor="start" x="872.25" y="-154.5" font-family="Helvetica,sans-Serif" font-size="10.00">SDL&#45;main/src/audio</text>
<text xml:space="preserve" text-anchor="middle" x="915.38" y="-142.5" font-family="Helvetica,sans-Serif" font-size="10.00">/SDL_mixer.c</text>
</a>
</g>
</g>
<!-- Node1&#45;&gt;Node9 -->
<g id="edge8_Node000001_Node000009" class="edge">
<title>Node1&#45;&gt;Node9</title>
<g id="a_edge8_Node000001_Node000009"><a xlink:title=" ">
<path fill="none" stroke="#63b8ff" d="M2055.53,-217.85C1848.11,-213.81 1186.49,-198.78 975.38,-168 972.61,-167.6 969.79,-167.12 966.95,-166.59"/>
<polygon fill="#63b8ff" stroke="#63b8ff" points="2055.23,-221.35 2065.29,-218.04 2055.36,-214.35 2055.23,-221.35"/>
</a>
</g>
</g>
<!-- Node10 -->
<g id="Node000010" class="node">
<title>Node10</title>
<g id="a_Node000010"><a xlink:href="../../d4/dac/SDL__wave_8c.html" target="_top" xlink:title=" ">
<polygon fill="white" stroke="#666666" points="1086.5,-168 984.25,-168 984.25,-136 1086.5,-136 1086.5,-168"/>
<text xml:space="preserve" text-anchor="start" x="992.25" y="-154.5" font-family="Helvetica,sans-Serif" font-size="10.00">SDL&#45;main/src/audio</text>
<text xml:space="preserve" text-anchor="middle" x="1035.38" y="-142.5" font-family="Helvetica,sans-Serif" font-size="10.00">/SDL_wave.c</text>
</a>
</g>
</g>
<!-- Node1&#45;&gt;Node10 -->
<g id="edge9_Node000001_Node000010" class="edge">
<title>Node1&#45;&gt;Node10</title>
<g id="a_edge9_Node000001_Node000010"><a xlink:title=" ">
<path fill="none" stroke="#63b8ff" d="M2055.75,-217.48C1863.28,-212.56 1282.19,-195.74 1095.38,-168 1092.61,-167.59 1089.79,-167.11 1086.96,-166.57"/>
<polygon fill="#63b8ff" stroke="#63b8ff" points="2055.45,-220.97 2065.54,-217.73 2055.63,-213.98 2055.45,-220.97"/>
</a>
</g>
</g>
<!-- Node11 -->
<g id="Node000011" class="node">
<title>Node11</title>
<g id="a_Node000011"><a xlink:href="../../d6/dbc/SDL__alsa__audio_8h.html" target="_top" xlink:title=" ">
<polygon fill="white" stroke="#666666" points="1224.12,-168 1104.62,-168 1104.62,-136 1224.12,-136 1224.12,-168"/>
<text xml:space="preserve" text-anchor="start" x="1112.62" y="-154.5" font-family="Helvetica,sans-Serif" font-size="10.00">SDL&#45;main/src/audio</text>
<text xml:space="preserve" text-anchor="middle" x="1164.38" y="-142.5" font-family="Helvetica,sans-Serif" font-size="10.00">/alsa/SDL_alsa_audio.h</text>
</a>
</g>
</g>
<!-- Node1&#45;&gt;Node11 -->
<g id="edge10_Node000001_Node000011" class="edge">
<title>Node1&#45;&gt;Node11</title>
<g id="a_edge10_Node000001_Node000011"><a xlink:title=" ">
<path fill="none" stroke="#63b8ff" d="M2055.94,-218.75C1910.85,-217.44 1539.95,-209.89 1233.38,-168 1230.46,-167.6 1227.49,-167.15 1224.49,-166.65"/>
<polygon fill="#63b8ff" stroke="#63b8ff" points="2055.68,-222.25 2065.71,-218.83 2055.74,-215.25 2055.68,-222.25"/>
</a>
</g>
</g>
<!-- Node12 -->
<g id="Node000012" class="node">
<title>Node12</title>
<g id="a_Node000012"><a xlink:href="../../d7/d24/SDL__coreaudio_8h.html" target="_top" xlink:title=" ">
<polygon fill="white" stroke="#666666" points="1380.88,-168 1241.88,-168 1241.88,-136 1380.88,-136 1380.88,-168"/>
<text xml:space="preserve" text-anchor="start" x="1249.88" y="-154.5" font-family="Helvetica,sans-Serif" font-size="10.00">SDL&#45;main/src/audio</text>
<text xml:space="preserve" text-anchor="middle" x="1311.38" y="-142.5" font-family="Helvetica,sans-Serif" font-size="10.00">/coreaudio/SDL_coreaudio.h</text>
</a>
</g>
</g>
<!-- Node1&#45;&gt;Node12 -->
<g id="edge11_Node000001_Node000012" class="edge">
<title>Node1&#45;&gt;Node12</title>
<g id="a_edge11_Node000001_Node000012"><a xlink:title=" ">
<path fill="none" stroke="#63b8ff" d="M2055.55,-217.15C1929,-212.85 1634.58,-200.04 1389.38,-168 1386.64,-167.64 1383.86,-167.25 1381.05,-166.83"/>
<polygon fill="#63b8ff" stroke="#63b8ff" points="2055.28,-220.64 2065.39,-217.47 2055.51,-213.64 2055.28,-220.64"/>
</a>
</g>
</g>
<!-- Node13 -->
<g id="Node000013" class="node">
<title>Node13</title>
<g id="a_Node000013"><a xlink:href="../../d0/da7/SDL__directsound_8h.html" target="_top" xlink:title=" ">
<polygon fill="white" stroke="#666666" points="1554.12,-168 1398.62,-168 1398.62,-136 1554.12,-136 1554.12,-168"/>
<text xml:space="preserve" text-anchor="start" x="1406.62" y="-154.5" font-family="Helvetica,sans-Serif" font-size="10.00">SDL&#45;main/src/audio</text>
<text xml:space="preserve" text-anchor="middle" x="1476.38" y="-142.5" font-family="Helvetica,sans-Serif" font-size="10.00">/directsound/SDL_directsound.h</text>
</a>
</g>
</g>
<!-- Node1&#45;&gt;Node13 -->
<g id="edge12_Node000001_Node000013" class="edge">
<title>Node1&#45;&gt;Node13</title>
<g id="a_edge12_Node000001_Node000013"><a xlink:title=" ">
<path fill="none" stroke="#63b8ff" d="M2055.53,-214.85C1952.47,-207.68 1741.19,-191.46 1563.38,-168 1560.49,-167.62 1557.55,-167.21 1554.59,-166.78"/>
<polygon fill="#63b8ff" stroke="#63b8ff" points="2055.23,-218.34 2065.45,-215.54 2055.71,-211.36 2055.23,-218.34"/>
</a>
</g>
</g>
<!-- Node14 -->
<g id="Node000014" class="node">
<title>Node14</title>
<g id="a_Node000014"><a xlink:href="../../db/dab/SDL__diskaudio_8h.html" target="_top" xlink:title=" ">
<polygon fill="white" stroke="#666666" points="1686.5,-168 1572.25,-168 1572.25,-136 1686.5,-136 1686.5,-168"/>
<text xml:space="preserve" text-anchor="start" x="1580.25" y="-154.5" font-family="Helvetica,sans-Serif" font-size="10.00">SDL&#45;main/src/audio</text>
<text xml:space="preserve" text-anchor="middle" x="1629.38" y="-142.5" font-family="Helvetica,sans-Serif" font-size="10.00">/disk/SDL_diskaudio.h</text>
</a>
</g>
</g>
<!-- Node1&#45;&gt;Node14 -->
<g id="edge13_Node000001_Node000014" class="edge">
<title>Node1&#45;&gt;Node14</title>
<g id="a_edge13_Node000001_Node000014"><a xlink:title=" ">
<path fill="none" stroke="#63b8ff" d="M2055.78,-213.5C1972.96,-205.75 1822.58,-190.06 1695.38,-168 1692.6,-167.52 1689.76,-166.99 1686.9,-166.44"/>
<polygon fill="#63b8ff" stroke="#63b8ff" points="2055.22,-216.96 2065.5,-214.4 2055.87,-209.99 2055.22,-216.96"/>
</a>
</g>
</g>
<!-- Node15 -->
<g id="Node000015" class="node">
<title>Node15</title>
<g id="a_Node000015"><a xlink:href="../../d1/d4d/SDL__dspaudio_8h.html" target="_top" xlink:title=" ">
<polygon fill="white" stroke="#666666" points="1814.25,-168 1704.5,-168 1704.5,-136 1814.25,-136 1814.25,-168"/>
<text xml:space="preserve" text-anchor="start" x="1712.5" y="-154.5" font-family="Helvetica,sans-Serif" font-size="10.00">SDL&#45;main/src/audio</text>
<text xml:space="preserve" text-anchor="middle" x="1759.38" y="-142.5" font-family="Helvetica,sans-Serif" font-size="10.00">/dsp/SDL_dspaudio.h</text>
</a>
</g>
</g>
<!-- Node1&#45;&gt;Node15 -->
<g id="edge14_Node000001_Node000015" class="edge">
<title>Node1&#45;&gt;Node15</title>
<g id="a_edge14_Node000001_Node000015"><a xlink:title=" ">
<path fill="none" stroke="#63b8ff" d="M2055.59,-208.7C1996.76,-198.88 1906.44,-183.34 1828.38,-168 1823.92,-167.13 1819.32,-166.19 1814.7,-165.23"/>
<polygon fill="#63b8ff" stroke="#63b8ff" points="2054.99,-212.15 2065.43,-210.34 2056.14,-205.25 2054.99,-212.15"/>
</a>
</g>
</g>
<!-- Node16 -->
<g id="Node000016" class="node">
<title>Node16</title>
<g id="a_Node000016"><a xlink:href="../../d3/d8a/SDL__dummyaudio_8c.html" target="_top" xlink:title=" ">
<polygon fill="white" stroke="#666666" points="1963.75,-100 1821,-100 1821,-68 1963.75,-68 1963.75,-100"/>
<text xml:space="preserve" text-anchor="start" x="1829" y="-86.5" font-family="Helvetica,sans-Serif" font-size="10.00">SDL&#45;main/src/audio</text>
<text xml:space="preserve" text-anchor="middle" x="1892.38" y="-74.5" font-family="Helvetica,sans-Serif" font-size="10.00">/dummy/SDL_dummyaudio.c</text>
</a>
</g>
</g>
<!-- Node1&#45;&gt;Node16 -->
<g id="edge15_Node000001_Node000016" class="edge">
<title>Node1&#45;&gt;Node16</title>
<g id="a_edge15_Node000001_Node000016"><a xlink:title=" ">
<path fill="none" stroke="#63b8ff" d="M2055.34,-215.42C1987.31,-210.09 1885.46,-197.33 1861.38,-168 1844.88,-147.91 1863.67,-118.17 1878.35,-100.28"/>
<polygon fill="#63b8ff" stroke="#63b8ff" points="2055.04,-218.91 2065.27,-216.16 2055.56,-211.93 2055.04,-218.91"/>
</a>
</g>
</g>
<!-- Node17 -->
<g id="Node000017" class="node">
<title>Node17</title>
<g id="a_Node000017"><a xlink:href="../../d7/d8f/SDL__dummyaudio_8h.html" target="_top" xlink:title=" ">
<polygon fill="white" stroke="#666666" points="2012.75,-168 1870,-168 1870,-136 2012.75,-136 2012.75,-168"/>
<text xml:space="preserve" text-anchor="start" x="1878" y="-154.5" font-family="Helvetica,sans-Serif" font-size="10.00">SDL&#45;main/src/audio</text>
<text xml:space="preserve" text-anchor="middle" x="1941.38" y="-142.5" font-family="Helvetica,sans-Serif" font-size="10.00">/dummy/SDL_dummyaudio.h</text>
</a>
</g>
</g>
<!-- Node1&#45;&gt;Node17 -->
<g id="edge16_Node000001_Node000017" class="edge">
<title>Node1&#45;&gt;Node17</title>
<g id="a_edge16_Node000001_Node000017"><a xlink:title=" ">
<path fill="none" stroke="#63b8ff" d="M2066.23,-199.56C2039.66,-189.65 2007.8,-177.77 1982.92,-168.49"/>
<polygon fill="#63b8ff" stroke="#63b8ff" points="2064.87,-202.78 2075.46,-203 2067.31,-196.22 2064.87,-202.78"/>
</a>
</g>
</g>
<!-- Node18 -->
<g id="Node000018" class="node">
<title>Node18</title>
<g id="a_Node000018"><a xlink:href="../../df/d05/SDL__emscriptenaudio_8h.html" target="_top" xlink:title=" ">
<polygon fill="white" stroke="#666666" points="2205.5,-168 2031.25,-168 2031.25,-136 2205.5,-136 2205.5,-168"/>
<text xml:space="preserve" text-anchor="start" x="2039.25" y="-154.5" font-family="Helvetica,sans-Serif" font-size="10.00">SDL&#45;main/src/audio</text>
<text xml:space="preserve" text-anchor="middle" x="2118.38" y="-142.5" font-family="Helvetica,sans-Serif" font-size="10.00">/emscripten/SDL_emscriptenaudio.h</text>
</a>
</g>
</g>
<!-- Node1&#45;&gt;Node18 -->
<g id="edge18_Node000001_Node000018" class="edge">
<title>Node1&#45;&gt;Node18</title>
<g id="a_edge18_Node000001_Node000018"><a xlink:title=" ">
<path fill="none" stroke="#63b8ff" d="M2118.38,-192.31C2118.38,-184.12 2118.38,-175.38 2118.38,-168.22"/>
<polygon fill="#63b8ff" stroke="#63b8ff" points="2114.88,-192.18 2118.38,-202.18 2121.88,-192.18 2114.88,-192.18"/>
</a>
</g>
</g>
<!-- Node19 -->
<g id="Node000019" class="node">
<title>Node19</title>
<g id="a_Node000019"><a xlink:href="../../d4/d49/SDL__haikuaudio_8h.html" target="_top" xlink:title=" ">
<polygon fill="white" stroke="#666666" points="2348.75,-168 2224,-168 2224,-136 2348.75,-136 2348.75,-168"/>
<text xml:space="preserve" text-anchor="start" x="2232" y="-154.5" font-family="Helvetica,sans-Serif" font-size="10.00">SDL&#45;main/src/audio</text>
<text xml:space="preserve" text-anchor="middle" x="2286.38" y="-142.5" font-family="Helvetica,sans-Serif" font-size="10.00">/haiku/SDL_haikuaudio.h</text>
</a>
</g>
</g>
<!-- Node1&#45;&gt;Node19 -->
<g id="edge19_Node000001_Node000019" class="edge">
<title>Node1&#45;&gt;Node19</title>
<g id="a_edge19_Node000001_Node000019"><a xlink:title=" ">
<path fill="none" stroke="#63b8ff" d="M2168.21,-199.42C2193.35,-189.54 2223.43,-177.73 2246.94,-168.49"/>
<polygon fill="#63b8ff" stroke="#63b8ff" points="2167.2,-196.06 2159.17,-202.97 2169.76,-202.57 2167.2,-196.06"/>
</a>
</g>
</g>
<!-- Node20 -->
<g id="Node000020" class="node">
<title>Node20</title>
<g id="a_Node000020"><a xlink:href="../../db/d9e/SDL__jackaudio_8h.html" target="_top" xlink:title=" ">
<polygon fill="white" stroke="#666666" points="2481.5,-168 2367.25,-168 2367.25,-136 2481.5,-136 2481.5,-168"/>
<text xml:space="preserve" text-anchor="start" x="2375.25" y="-154.5" font-family="Helvetica,sans-Serif" font-size="10.00">SDL&#45;main/src/audio</text>
<text xml:space="preserve" text-anchor="middle" x="2424.38" y="-142.5" font-family="Helvetica,sans-Serif" font-size="10.00">/jack/SDL_jackaudio.h</text>
</a>
</g>
</g>
<!-- Node1&#45;&gt;Node20 -->
<g id="edge20_Node000001_Node000020" class="edge">
<title>Node1&#45;&gt;Node20</title>
<g id="a_edge20_Node000001_Node000020"><a xlink:title=" ">
<path fill="none" stroke="#63b8ff" d="M2180.89,-205.84C2229.13,-195.64 2297.51,-181.09 2357.38,-168 2360.52,-167.31 2363.75,-166.6 2367,-165.88"/>
<polygon fill="#63b8ff" stroke="#63b8ff" points="2180.23,-202.4 2171.17,-207.89 2181.68,-209.25 2180.23,-202.4"/>
</a>
</g>
</g>
<!-- Node21 -->
<g id="Node000021" class="node">
<title>Node21</title>
<g id="a_Node000021"><a xlink:href="../../d0/dea/SDL__netbsdaudio_8h.html" target="_top" xlink:title=" ">
<polygon fill="white" stroke="#666666" points="2636.75,-168 2500,-168 2500,-136 2636.75,-136 2636.75,-168"/>
<text xml:space="preserve" text-anchor="start" x="2508" y="-154.5" font-family="Helvetica,sans-Serif" font-size="10.00">SDL&#45;main/src/audio</text>
<text xml:space="preserve" text-anchor="middle" x="2568.38" y="-142.5" font-family="Helvetica,sans-Serif" font-size="10.00">/netbsd/SDL_netbsdaudio.h</text>
</a>
</g>
</g>
<!-- Node1&#45;&gt;Node21 -->
<g id="edge21_Node000001_Node000021" class="edge">
<title>Node1&#45;&gt;Node21</title>
<g id="a_edge21_Node000001_Node000021"><a xlink:title=" ">
<path fill="none" stroke="#63b8ff" d="M2180.93,-211.47C2254.98,-202.31 2381.93,-185.85 2490.38,-168 2493.37,-167.51 2496.42,-166.99 2499.51,-166.45"/>
<polygon fill="#63b8ff" stroke="#63b8ff" points="2180.96,-207.94 2171.46,-212.63 2181.81,-214.88 2180.96,-207.94"/>
</a>
</g>
</g>
<!-- Node22 -->
<g id="Node000022" class="node">
<title>Node22</title>
<g id="a_Node000022"><a xlink:href="../../d5/d2d/SDL__ngageaudio_8cpp.html" target="_top" xlink:title=" ">
<polygon fill="white" stroke="#666666" points="2742,-100 2600.75,-100 2600.75,-68 2742,-68 2742,-100"/>
<text xml:space="preserve" text-anchor="start" x="2608.75" y="-86.5" font-family="Helvetica,sans-Serif" font-size="10.00">SDL&#45;main/src/audio</text>
<text xml:space="preserve" text-anchor="middle" x="2671.38" y="-74.5" font-family="Helvetica,sans-Serif" font-size="10.00">/ngage/SDL_ngageaudio.cpp</text>
</a>
</g>
</g>
<!-- Node1&#45;&gt;Node22 -->
<g id="edge22_Node000001_Node000022" class="edge">
<title>Node1&#45;&gt;Node22</title>
<g id="a_edge22_Node000001_Node000022"><a xlink:title=" ">
<path fill="none" stroke="#63b8ff" d="M2181.3,-216.77C2313.32,-211.54 2610,-196.71 2645.38,-168 2665.66,-151.54 2670.4,-119.42 2671.34,-100.32"/>
<polygon fill="#63b8ff" stroke="#63b8ff" points="2181.18,-213.27 2171.32,-217.16 2181.45,-220.27 2181.18,-213.27"/>
</a>
</g>
</g>
<!-- Node23 -->
<g id="Node000023" class="node">
<title>Node23</title>
<g id="a_Node000023"><a xlink:href="../../da/d91/SDL__ngageaudio_8h.html" target="_top" xlink:title=" ">
<polygon fill="white" stroke="#666666" points="2822.75,-168 2692,-168 2692,-136 2822.75,-136 2822.75,-168"/>
<text xml:space="preserve" text-anchor="start" x="2700" y="-154.5" font-family="Helvetica,sans-Serif" font-size="10.00">SDL&#45;main/src/audio</text>
<text xml:space="preserve" text-anchor="middle" x="2757.38" y="-142.5" font-family="Helvetica,sans-Serif" font-size="10.00">/ngage/SDL_ngageaudio.h</text>
</a>
</g>
</g>
<!-- Node1&#45;&gt;Node23 -->
<g id="edge23_Node000001_Node000023" class="edge">
<title>Node1&#45;&gt;Node23</title>
<g id="a_edge23_Node000001_Node000023"><a xlink:title=" ">
<path fill="none" stroke="#63b8ff" d="M2181.11,-215.28C2284.91,-208.67 2498.76,-193.17 2678.38,-168 2682.66,-167.4 2687.07,-166.72 2691.5,-166"/>
<polygon fill="#63b8ff" stroke="#63b8ff" points="2181.18,-211.76 2171.42,-215.89 2181.62,-218.75 2181.18,-211.76"/>
</a>
</g>
</g>
<!-- Node24 -->
<g id="Node000024" class="node">
<title>Node24</title>
<g id="a_Node000024"><a xlink:href="../../d5/d13/SDL__ngageaudio_8hpp.html" target="_top" xlink:title=" ">
<polygon fill="white" stroke="#666666" points="2908,-100 2766.75,-100 2766.75,-68 2908,-68 2908,-100"/>
<text xml:space="preserve" text-anchor="start" x="2774.75" y="-86.5" font-family="Helvetica,sans-Serif" font-size="10.00">SDL&#45;main/src/audio</text>
<text xml:space="preserve" text-anchor="middle" x="2837.38" y="-74.5" font-family="Helvetica,sans-Serif" font-size="10.00">/ngage/SDL_ngageaudio.hpp</text>
</a>
</g>
</g>
<!-- Node1&#45;&gt;Node24 -->
<g id="edge27_Node000001_Node000024" class="edge">
<title>Node1&#45;&gt;Node24</title>
<g id="a_edge27_Node000001_Node000024"><a xlink:title=" ">
<path fill="none" stroke="#63b8ff" d="M2181.38,-219.1C2347.16,-218.73 2785.91,-213.43 2831.38,-168 2848.95,-150.44 2845.62,-119.01 2841.54,-100.27"/>
<polygon fill="#63b8ff" stroke="#63b8ff" points="2181.43,-215.6 2171.44,-219.12 2181.44,-222.6 2181.43,-215.6"/>
</a>
</g>
</g>
<!-- Node26 -->
<g id="Node000026" class="node">
<title>Node26</title>
<g id="a_Node000026"><a xlink:href="../../db/dbb/SDL__pipewire_8h.html" target="_top" xlink:title=" ">
<polygon fill="white" stroke="#666666" points="3005.88,-168 2878.88,-168 2878.88,-136 3005.88,-136 3005.88,-168"/>
<text xml:space="preserve" text-anchor="start" x="2886.88" y="-154.5" font-family="Helvetica,sans-Serif" font-size="10.00">SDL&#45;main/src/audio</text>
<text xml:space="preserve" text-anchor="middle" x="2942.38" y="-142.5" font-family="Helvetica,sans-Serif" font-size="10.00">/pipewire/SDL_pipewire.h</text>
</a>
</g>
</g>
<!-- Node1&#45;&gt;Node26 -->
<g id="edge28_Node000001_Node000026" class="edge">
<title>Node1&#45;&gt;Node26</title>
<g id="a_edge28_Node000001_Node000026"><a xlink:title=" ">
<path fill="none" stroke="#63b8ff" d="M2180.84,-217.3C2309.3,-213.23 2612.26,-200.74 2864.38,-168 2869.02,-167.4 2873.81,-166.69 2878.63,-165.91"/>
<polygon fill="#63b8ff" stroke="#63b8ff" points="2181.09,-213.79 2171.2,-217.6 2181.31,-220.78 2181.09,-213.79"/>
</a>
</g>
</g>
<!-- Node27 -->
<g id="Node000027" class="node">
<title>Node27</title>
<g id="a_Node000027"><a xlink:href="../../d6/dfc/SDL__ps2audio_8c.html" target="_top" xlink:title=" ">
<polygon fill="white" stroke="#666666" points="3130.25,-100 3020.5,-100 3020.5,-68 3130.25,-68 3130.25,-100"/>
<text xml:space="preserve" text-anchor="start" x="3028.5" y="-86.5" font-family="Helvetica,sans-Serif" font-size="10.00">SDL&#45;main/src/audio</text>
<text xml:space="preserve" text-anchor="middle" x="3075.38" y="-74.5" font-family="Helvetica,sans-Serif" font-size="10.00">/ps2/SDL_ps2audio.c</text>
</a>
</g>
</g>
<!-- Node1&#45;&gt;Node27 -->
<g id="edge29_Node000001_Node000027" class="edge">
<title>Node1&#45;&gt;Node27</title>
<g id="a_edge29_Node000001_Node000027"><a xlink:title=" ">
<path fill="none" stroke="#63b8ff" d="M2181.22,-218.53C2373.09,-216.65 2942.72,-207.77 3015.38,-168 3042.67,-153.06 3060.69,-119.76 3069.35,-100.18"/>
<polygon fill="#63b8ff" stroke="#63b8ff" points="2181.42,-215.02 2171.45,-218.62 2181.48,-222.02 2181.42,-215.02"/>
</a>
</g>
</g>
<!-- Node28 -->
<g id="Node000028" class="node">
<title>Node28</title>
<g id="a_Node000028"><a xlink:href="../../d4/db5/SDL__ps2audio_8h.html" target="_top" xlink:title=" ">
<polygon fill="white" stroke="#666666" points="3172.25,-168 3062.5,-168 3062.5,-136 3172.25,-136 3172.25,-168"/>
<text xml:space="preserve" text-anchor="start" x="3070.5" y="-154.5" font-family="Helvetica,sans-Serif" font-size="10.00">SDL&#45;main/src/audio</text>
<text xml:space="preserve" text-anchor="middle" x="3117.38" y="-142.5" font-family="Helvetica,sans-Serif" font-size="10.00">/ps2/SDL_ps2audio.h</text>
</a>
</g>
</g>
<!-- Node1&#45;&gt;Node28 -->
<g id="edge30_Node000001_Node000028" class="edge">
<title>Node1&#45;&gt;Node28</title>
<g id="a_edge30_Node000001_Node000028"><a xlink:title=" ">
<path fill="none" stroke="#63b8ff" d="M2181.06,-219C2331.41,-218.24 2724.12,-211.85 3048.38,-168 3052.87,-167.39 3057.51,-166.65 3062.15,-165.82"/>
<polygon fill="#63b8ff" stroke="#63b8ff" points="2181.31,-215.5 2171.32,-219.04 2181.34,-222.5 2181.31,-215.5"/>
</a>
</g>
</g>
<!-- Node29 -->
<g id="Node000029" class="node">
<title>Node29</title>
<g id="a_Node000029"><a xlink:href="../../d5/d18/SDL__pspaudio_8h.html" target="_top" xlink:title=" ">
<polygon fill="white" stroke="#666666" points="3300.25,-168 3190.5,-168 3190.5,-136 3300.25,-136 3300.25,-168"/>
<text xml:space="preserve" text-anchor="start" x="3198.5" y="-154.5" font-family="Helvetica,sans-Serif" font-size="10.00">SDL&#45;main/src/audio</text>
<text xml:space="preserve" text-anchor="middle" x="3245.38" y="-142.5" font-family="Helvetica,sans-Serif" font-size="10.00">/psp/SDL_pspaudio.h</text>
</a>
</g>
</g>
<!-- Node1&#45;&gt;Node29 -->
<g id="edge32_Node000001_Node000029" class="edge">
<title>Node1&#45;&gt;Node29</title>
<g id="a_edge32_Node000001_Node000029"><a xlink:title=" ">
<path fill="none" stroke="#63b8ff" d="M2181.08,-217.49C2378.59,-212.51 2986.27,-195.31 3181.38,-168 3184.31,-167.59 3187.32,-167.11 3190.34,-166.57"/>
<polygon fill="#63b8ff" stroke="#63b8ff" points="2181.19,-213.99 2171.28,-217.74 2181.37,-220.99 2181.19,-213.99"/>
</a>
</g>
</g>
<!-- Node30 -->
<g id="Node000030" class="node">
<title>Node30</title>
<g id="a_Node000030"><a xlink:href="../../da/d0b/SDL__pulseaudio_8h.html" target="_top" xlink:title=" ">
<polygon fill="white" stroke="#666666" points="3466.38,-168 3318.38,-168 3318.38,-136 3466.38,-136 3466.38,-168"/>
<text xml:space="preserve" text-anchor="start" x="3326.38" y="-154.5" font-family="Helvetica,sans-Serif" font-size="10.00">SDL&#45;main/src/audio</text>
<text xml:space="preserve" text-anchor="middle" x="3392.38" y="-142.5" font-family="Helvetica,sans-Serif" font-size="10.00">/pulseaudio/SDL_pulseaudio.h</text>
</a>
</g>
</g>
<!-- Node1&#45;&gt;Node30 -->
<g id="edge33_Node000001_Node000030" class="edge">
<title>Node1&#45;&gt;Node30</title>
<g id="a_edge33_Node000001_Node000030"><a xlink:title=" ">
<path fill="none" stroke="#63b8ff" d="M2181.4,-219.31C2359.26,-219.54 2880.12,-215.75 3309.38,-168 3312.29,-167.68 3315.25,-167.31 3318.24,-166.91"/>
<polygon fill="#63b8ff" stroke="#63b8ff" points="2181.45,-215.81 2171.45,-219.29 2181.44,-222.81 2181.45,-215.81"/>
</a>
</g>
</g>
<!-- Node31 -->
<g id="Node000031" class="node">
<title>Node31</title>
<g id="a_Node000031"><a xlink:href="../../df/de2/SDL__qsa__audio_8h.html" target="_top" xlink:title=" ">
<polygon fill="white" stroke="#666666" points="3599.88,-168 3484.88,-168 3484.88,-136 3599.88,-136 3599.88,-168"/>
<text xml:space="preserve" text-anchor="start" x="3492.88" y="-154.5" font-family="Helvetica,sans-Serif" font-size="10.00">SDL&#45;main/src/audio</text>
<text xml:space="preserve" text-anchor="middle" x="3542.38" y="-142.5" font-family="Helvetica,sans-Serif" font-size="10.00">/qnx/SDL_qsa_audio.h</text>
</a>
</g>
</g>
<!-- Node1&#45;&gt;Node31 -->
<g id="edge34_Node000001_Node000031" class="edge">
<title>Node1&#45;&gt;Node31</title>
<g id="a_edge34_Node000001_Node000031"><a xlink:title=" ">
<path fill="none" stroke="#63b8ff" d="M2180.95,-218.17C2412.45,-214.85 3220.02,-201.1 3475.38,-168 3478.33,-167.62 3481.35,-167.17 3484.39,-166.66"/>
<polygon fill="#63b8ff" stroke="#63b8ff" points="2181.19,-214.66 2171.24,-218.3 2181.29,-221.66 2181.19,-214.66"/>
</a>
</g>
</g>
<!-- Node32 -->
<g id="Node000032" class="node">
<title>Node32</title>
<g id="a_Node000032"><a xlink:href="../../d7/dae/SDL__sndioaudio_8h.html" target="_top" xlink:title=" ">
<polygon fill="white" stroke="#666666" points="3742.75,-168 3618,-168 3618,-136 3742.75,-136 3742.75,-168"/>
<text xml:space="preserve" text-anchor="start" x="3626" y="-154.5" font-family="Helvetica,sans-Serif" font-size="10.00">SDL&#45;main/src/audio</text>
<text xml:space="preserve" text-anchor="middle" x="3680.38" y="-142.5" font-family="Helvetica,sans-Serif" font-size="10.00">/sndio/SDL_sndioaudio.h</text>
</a>
</g>
</g>
<!-- Node1&#45;&gt;Node32 -->
<g id="edge35_Node000001_Node000032" class="edge">
<title>Node1&#45;&gt;Node32</title>
<g id="a_edge35_Node000001_Node000032"><a xlink:title=" ">
<path fill="none" stroke="#63b8ff" d="M2180.91,-218.31C2426.62,-215.38 3326.23,-202.49 3609.38,-168 3612.13,-167.66 3614.93,-167.28 3617.75,-166.85"/>
<polygon fill="#63b8ff" stroke="#63b8ff" points="2181.18,-214.81 2171.22,-218.43 2181.26,-221.81 2181.18,-214.81"/>
</a>
</g>
</g>
<!-- Node33 -->
<g id="Node000033" class="node">
<title>Node33</title>
<g id="a_Node000033"><a xlink:href="../../d6/dd3/SDL__vitaaudio_8h.html" target="_top" xlink:title=" ">
<polygon fill="white" stroke="#666666" points="3870.25,-168 3760.5,-168 3760.5,-136 3870.25,-136 3870.25,-168"/>
<text xml:space="preserve" text-anchor="start" x="3768.5" y="-154.5" font-family="Helvetica,sans-Serif" font-size="10.00">SDL&#45;main/src/audio</text>
<text xml:space="preserve" text-anchor="middle" x="3815.38" y="-142.5" font-family="Helvetica,sans-Serif" font-size="10.00">/vita/SDL_vitaaudio.h</text>
</a>
</g>
</g>
<!-- Node1&#45;&gt;Node33 -->
<g id="edge36_Node000001_Node000033" class="edge">
<title>Node1&#45;&gt;Node33</title>
<g id="a_edge36_Node000001_Node000033"><a xlink:title=" ">
<path fill="none" stroke="#63b8ff" d="M2181.18,-218.71C2441.85,-217.24 3439.44,-209.01 3751.38,-168 3754.32,-167.61 3757.32,-167.15 3760.35,-166.63"/>
<polygon fill="#63b8ff" stroke="#63b8ff" points="2181.18,-215.21 2171.2,-218.76 2181.22,-222.21 2181.18,-215.21"/>
</a>
</g>
</g>
<!-- Node34 -->
<g id="Node000034" class="node">
<title>Node34</title>
<g id="a_Node000034"><a xlink:href="../../db/d62/SDL__wasapi_8h.html" target="_top" xlink:title=" ">
<polygon fill="white" stroke="#666666" points="4004.62,-168 3888.12,-168 3888.12,-136 4004.62,-136 4004.62,-168"/>
<text xml:space="preserve" text-anchor="start" x="3896.12" y="-154.5" font-family="Helvetica,sans-Serif" font-size="10.00">SDL&#45;main/src/audio</text>
<text xml:space="preserve" text-anchor="middle" x="3946.38" y="-142.5" font-family="Helvetica,sans-Serif" font-size="10.00">/wasapi/SDL_wasapi.h</text>
</a>
</g>
</g>
<!-- Node1&#45;&gt;Node34 -->
<g id="edge37_Node000001_Node000034" class="edge">
<title>Node1&#45;&gt;Node34</title>
<g id="a_edge37_Node000001_Node000034"><a xlink:title=" ">
<path fill="none" stroke="#63b8ff" d="M2181.13,-218.79C2454.23,-217.64 3540.73,-210.42 3879.38,-168 3882.1,-167.66 3884.87,-167.26 3887.66,-166.81"/>
<polygon fill="#63b8ff" stroke="#63b8ff" points="2181.36,-215.29 2171.38,-218.83 2181.39,-222.29 2181.36,-215.29"/>
</a>
</g>
</g>
<!-- Node35 -->
<g id="Node000035" class="node">
<title>Node35</title>
<g id="a_Node000035"><a xlink:href="../../d2/dcb/SDL__android_8h.html" target="_top" xlink:title=" ">
<polygon fill="white" stroke="#666666" points="4154.5,-168 4022.25,-168 4022.25,-136 4154.5,-136 4154.5,-168"/>
<text xml:space="preserve" text-anchor="start" x="4030.25" y="-154.5" font-family="Helvetica,sans-Serif" font-size="10.00">SDL&#45;main/src/core/android</text>
<text xml:space="preserve" text-anchor="middle" x="4088.38" y="-142.5" font-family="Helvetica,sans-Serif" font-size="10.00">/SDL_android.h</text>
</a>
</g>
</g>
<!-- Node1&#45;&gt;Node35 -->
<g id="edge38_Node000001_Node000035" class="edge">
<title>Node1&#45;&gt;Node35</title>
<g id="a_edge38_Node000001_Node000035"><a xlink:title=" ">
<path fill="none" stroke="#63b8ff" d="M2181.13,-218.75C2466.85,-217.39 3646.45,-209.32 4013.38,-168 4016.15,-167.69 4018.97,-167.33 4021.81,-166.92"/>
<polygon fill="#63b8ff" stroke="#63b8ff" points="2181.27,-215.25 2171.29,-218.8 2181.3,-222.25 2181.27,-215.25"/>
</a>
</g>
</g>
<!-- Node17&#45;&gt;Node16 -->
<g id="edge17_Node000017_Node000016" class="edge">
<title>Node17&#45;&gt;Node16</title>
<g id="a_edge17_Node000017_Node000016"><a xlink:title=" ">
<path fill="none" stroke="#63b8ff" d="M1923.25,-126.59C1916.69,-117.75 1909.48,-108.04 1903.68,-100.22"/>
<polygon fill="#63b8ff" stroke="#63b8ff" points="1920.34,-128.53 1929.11,-134.48 1925.96,-124.36 1920.34,-128.53"/>
</a>
</g>
</g>
<!-- Node23&#45;&gt;Node22 -->
<g id="edge24_Node000023_Node000022" class="edge">
<title>Node23&#45;&gt;Node22</title>
<g id="a_edge24_Node000023_Node000022"><a xlink:title=" ">
<path fill="none" stroke="#63b8ff" d="M2728.54,-128.87C2716.39,-119.55 2702.54,-108.91 2691.51,-100.45"/>
<polygon fill="#63b8ff" stroke="#63b8ff" points="2726.16,-131.46 2736.23,-134.77 2730.43,-125.91 2726.16,-131.46"/>
</a>
</g>
</g>
<!-- Node23&#45;&gt;Node24 -->
<g id="edge25_Node000023_Node000024" class="edge">
<title>Node23&#45;&gt;Node24</title>
<g id="a_edge25_Node000023_Node000024"><a xlink:title=" ">
<path fill="none" stroke="#63b8ff" d="M2784.53,-128.6C2795.75,-119.34 2808.49,-108.83 2818.64,-100.45"/>
<polygon fill="#63b8ff" stroke="#63b8ff" points="2782.58,-125.67 2777.1,-134.73 2787.04,-131.07 2782.58,-125.67"/>
</a>
</g>
</g>
<!-- Node25 -->
<g id="Node000025" class="node">
<title>Node25</title>
<g id="a_Node000025"><a xlink:href="../../d1/dca/SDL__sysmain__main_8cpp.html" target="_top" xlink:title=" ">
<polygon fill="white" stroke="#666666" points="2902,-32 2772.75,-32 2772.75,0 2902,0 2902,-32"/>
<text xml:space="preserve" text-anchor="start" x="2780.75" y="-18.5" font-family="Helvetica,sans-Serif" font-size="10.00">SDL&#45;main/src/main/ngage</text>
<text xml:space="preserve" text-anchor="middle" x="2837.38" y="-6.5" font-family="Helvetica,sans-Serif" font-size="10.00">/SDL_sysmain_main.cpp</text>
</a>
</g>
</g>
<!-- Node24&#45;&gt;Node25 -->
<g id="edge26_Node000024_Node000025" class="edge">
<title>Node24&#45;&gt;Node25</title>
<g id="a_edge26_Node000024_Node000025"><a xlink:title=" ">
<path fill="none" stroke="#63b8ff" d="M2837.38,-56.31C2837.38,-48.12 2837.38,-39.38 2837.38,-32.22"/>
<polygon fill="#63b8ff" stroke="#63b8ff" points="2833.88,-56.18 2837.38,-66.18 2840.88,-56.18 2833.88,-56.18"/>
</a>
</g>
</g>
<!-- Node28&#45;&gt;Node27 -->
<g id="edge31_Node000028_Node000027" class="edge">
<title>Node28&#45;&gt;Node27</title>
<g id="a_edge31_Node000028_Node000027"><a xlink:title=" ">
<path fill="none" stroke="#63b8ff" d="M3101.48,-126.02C3095.96,-117.34 3089.93,-107.88 3085.06,-100.22"/>
<polygon fill="#63b8ff" stroke="#63b8ff" points="3098.5,-127.86 3106.82,-134.42 3104.41,-124.1 3098.5,-127.86"/>
</a>
</g>
</g>
<!-- Node36 -->
<g id="Node000036" class="node">
<title>Node36</title>
<g id="a_Node000036"><a xlink:href="../../d5/de8/SDL__androiddialog_8c.html" target="_top" xlink:title=" ">
<polygon fill="white" stroke="#666666" points="3884.12,-100 3740.62,-100 3740.62,-68 3884.12,-68 3884.12,-100"/>
<text xml:space="preserve" text-anchor="start" x="3748.62" y="-86.5" font-family="Helvetica,sans-Serif" font-size="10.00">SDL&#45;main/src/dialog</text>
<text xml:space="preserve" text-anchor="middle" x="3812.38" y="-74.5" font-family="Helvetica,sans-Serif" font-size="10.00">/android/SDL_androiddialog.c</text>
</a>
</g>
</g>
<!-- Node35&#45;&gt;Node36 -->
<g id="edge39_Node000035_Node000036" class="edge">
<title>Node35&#45;&gt;Node36</title>
<g id="a_edge39_Node000035_Node000036"><a xlink:title=" ">
<path fill="none" stroke="#63b8ff" d="M4012.54,-132.86C3970.07,-122.71 3917.69,-110.18 3877.16,-100.49"/>
<polygon fill="#63b8ff" stroke="#63b8ff" points="4011.65,-136.25 4022.19,-135.17 4013.28,-129.44 4011.65,-136.25"/>
</a>
</g>
</g>
<!-- Node37 -->
<g id="Node000037" class="node">
<title>Node37</title>
<g id="a_Node000037"><a xlink:href="../../d2/d5c/hid_8cpp.html" target="_top" xlink:title=" ">
<polygon fill="white" stroke="#666666" points="4006.62,-100 3902.12,-100 3902.12,-68 4006.62,-68 4006.62,-100"/>
<text xml:space="preserve" text-anchor="start" x="3910.12" y="-86.5" font-family="Helvetica,sans-Serif" font-size="10.00">SDL&#45;main/src/hidapi</text>
<text xml:space="preserve" text-anchor="middle" x="3954.38" y="-74.5" font-family="Helvetica,sans-Serif" font-size="10.00">/android/hid.cpp</text>
</a>
</g>
</g>
<!-- Node35&#45;&gt;Node37 -->
<g id="edge40_Node000035_Node000037" class="edge">
<title>Node35&#45;&gt;Node37</title>
<g id="a_edge40_Node000035_Node000037"><a xlink:title=" ">
<path fill="none" stroke="#63b8ff" d="M4046.7,-130.47C4026.96,-120.75 4003.79,-109.34 3985.6,-100.38"/>
<polygon fill="#63b8ff" stroke="#63b8ff" points="4045.08,-133.58 4055.6,-134.86 4048.18,-127.3 4045.08,-133.58"/>
</a>
</g>
</g>
<!-- Node38 -->
<g id="Node000038" class="node">
<title>Node38</title>
<g id="a_Node000038"><a xlink:href="../../d7/dc1/android_2SDL__syslocale_8c.html" target="_top" xlink:title=" ">
<polygon fill="white" stroke="#666666" points="4152.25,-100 4024.5,-100 4024.5,-68 4152.25,-68 4152.25,-100"/>
<text xml:space="preserve" text-anchor="start" x="4032.5" y="-86.5" font-family="Helvetica,sans-Serif" font-size="10.00">SDL&#45;main/src/locale</text>
<text xml:space="preserve" text-anchor="middle" x="4088.38" y="-74.5" font-family="Helvetica,sans-Serif" font-size="10.00">/android/SDL_syslocale.c</text>
</a>
</g>
</g>
<!-- Node35&#45;&gt;Node38 -->
<g id="edge41_Node000035_Node000038" class="edge">
<title>Node35&#45;&gt;Node38</title>
<g id="a_edge41_Node000035_Node000038"><a xlink:title=" ">
<path fill="none" stroke="#63b8ff" d="M4088.38,-124.31C4088.38,-116.12 4088.38,-107.38 4088.38,-100.22"/>
<polygon fill="#63b8ff" stroke="#63b8ff" points="4084.88,-124.18 4088.38,-134.18 4091.88,-124.18 4084.88,-124.18"/>
</a>
</g>
</g>
<!-- Node39 -->
<g id="Node000039" class="node">
<title>Node39</title>
<g id="a_Node000039"><a xlink:href="../../d5/d1d/android_2SDL__sysurl_8c.html" target="_top" xlink:title=" ">
<polygon fill="white" stroke="#666666" points="4304.62,-100 4170.12,-100 4170.12,-68 4304.62,-68 4304.62,-100"/>
<text xml:space="preserve" text-anchor="start" x="4178.12" y="-86.5" font-family="Helvetica,sans-Serif" font-size="10.00">SDL&#45;main/src/misc/android</text>
<text xml:space="preserve" text-anchor="middle" x="4237.38" y="-74.5" font-family="Helvetica,sans-Serif" font-size="10.00">/SDL_sysurl.c</text>
</a>
</g>
</g>
<!-- Node35&#45;&gt;Node39 -->
<g id="edge42_Node000035_Node000039" class="edge">
<title>Node35&#45;&gt;Node39</title>
<g id="a_edge42_Node000035_Node000039"><a xlink:title=" ">
<path fill="none" stroke="#63b8ff" d="M4133.77,-130.89C4155.83,-121.12 4181.92,-109.56 4202.4,-100.49"/>
<polygon fill="#63b8ff" stroke="#63b8ff" points="4132.42,-127.66 4124.69,-134.91 4135.25,-134.06 4132.42,-127.66"/>
</a>
</g>
</g>
<!-- Node40 -->
<g id="Node000040" class="node">
<title>Node40</title>
<g id="a_Node000040"><a xlink:href="../../d3/d27/SDL__androidwindow_8h.html" target="_top" xlink:title=" ">
<polygon fill="white" stroke="#666666" points="4472.5,-100 4322.25,-100 4322.25,-68 4472.5,-68 4472.5,-100"/>
<text xml:space="preserve" text-anchor="start" x="4330.25" y="-86.5" font-family="Helvetica,sans-Serif" font-size="10.00">SDL&#45;main/src/video</text>
<text xml:space="preserve" text-anchor="middle" x="4397.38" y="-74.5" font-family="Helvetica,sans-Serif" font-size="10.00">/android/SDL_androidwindow.h</text>
</a>
</g>
</g>
<!-- Node35&#45;&gt;Node40 -->
<g id="edge43_Node000035_Node000040" class="edge">
<title>Node35&#45;&gt;Node40</title>
<g id="a_edge43_Node000035_Node000040"><a xlink:title=" ">
<path fill="none" stroke="#63b8ff" d="M4165.8,-134.46C4214.6,-124.04 4277.19,-110.67 4324.99,-100.46"/>
<polygon fill="#63b8ff" stroke="#63b8ff" points="4165.19,-131.01 4156.14,-136.53 4166.65,-137.86 4165.19,-131.01"/>
</a>
</g>
</g>
</g>
</svg>
