<?xml version="1.0" encoding="UTF-8" standalone="no"?>
<!DOCTYPE svg PUBLIC "-//W3C//DTD SVG 1.1//EN"
 "http://www.w3.org/Graphics/SVG/1.1/DTD/svg11.dtd">
<!-- Generated by graphviz version 13.1.0 (20250701.0955)
 -->
<!-- Title: SDL&#45;main/src/video/yuv2rgb/yuv_rgb.h Pages: 1 -->
<svg width="290pt" height="152pt"
 viewBox="0.00 0.00 290.00 152.00" xmlns="http://www.w3.org/2000/svg" xmlns:xlink="http://www.w3.org/1999/xlink">

<svg id="main" version="1.1" xmlns="http://www.w3.org/2000/svg" xmlns:xlink="http://www.w3.org/1999/xlink" xml:space="preserve">

<style type="text/css"><![CDATA[
.node, .edge {opacity: 0.7;}
.node.selected, .edge.selected {opacity: 1;}
.edge:hover path { stroke: red; }
.edge:hover polygon { stroke: red; fill: red; }
]]></style>
<script type="application/ecmascript" xlink:href="../../svg.min.js"/>
<svg id="graph" class="graph">
<g id="graph0" class="graph" transform="scale(1 1) rotate(0) translate(4 148)">
<title>SDL&#45;main/src/video/yuv2rgb/yuv_rgb.h</title>
<!-- Node1 -->
<g id="Node000001" class="node">
<title>Node1</title>
<g id="a_Node000001"><a xlink:title=" ">
<polygon fill="#999999" stroke="#666666" points="198.88,-144 96.62,-144 96.62,-112 198.88,-112 198.88,-144"/>
<text xml:space="preserve" text-anchor="start" x="104.62" y="-130.5" font-family="Helvetica,sans-Serif" font-size="10.00">SDL&#45;main/src/video</text>
<text xml:space="preserve" text-anchor="middle" x="147.75" y="-118.5" font-family="Helvetica,sans-Serif" font-size="10.00">/yuv2rgb/yuv_rgb.h</text>
</a>
</g>
</g>
<!-- Node2 -->
<g id="Node000002" class="node">
<title>Node2</title>
<g id="a_Node000002"><a xlink:href="../../df/d73/yuv__rgb__std_8h.html" target="_top" xlink:title=" ">
<polygon fill="white" stroke="#666666" points="89.5,-76 12,-76 12,-56 89.5,-56 89.5,-76"/>
<text xml:space="preserve" text-anchor="middle" x="50.75" y="-62.5" font-family="Helvetica,sans-Serif" font-size="10.00">yuv_rgb_std.h</text>
</a>
</g>
</g>
<!-- Node1&#45;&gt;Node2 -->
<g id="edge1_Node000001_Node000002" class="edge">
<title>Node1&#45;&gt;Node2</title>
<g id="a_edge1_Node000001_Node000002"><a xlink:title=" ">
<path fill="none" stroke="#63b8ff" d="M122.77,-111.55C108.32,-102.61 90.18,-91.39 75.73,-82.45"/>
<polygon fill="#63b8ff" stroke="#63b8ff" points="77.59,-79.49 67.25,-77.2 73.91,-85.44 77.59,-79.49"/>
</a>
</g>
</g>
<!-- Node4 -->
<g id="Node000004" class="node">
<title>Node4</title>
<g id="a_Node000004"><a xlink:href="../../d2/d35/yuv__rgb__sse_8h.html" target="_top" xlink:title=" ">
<polygon fill="white" stroke="#666666" points="187.62,-76 107.88,-76 107.88,-56 187.62,-56 187.62,-76"/>
<text xml:space="preserve" text-anchor="middle" x="147.75" y="-62.5" font-family="Helvetica,sans-Serif" font-size="10.00">yuv_rgb_sse.h</text>
</a>
</g>
</g>
<!-- Node1&#45;&gt;Node4 -->
<g id="edge3_Node000001_Node000004" class="edge">
<title>Node1&#45;&gt;Node4</title>
<g id="a_edge3_Node000001_Node000004"><a xlink:title=" ">
<path fill="none" stroke="#63b8ff" d="M147.75,-111.55C147.75,-104.34 147.75,-95.66 147.75,-87.88"/>
<polygon fill="#63b8ff" stroke="#63b8ff" points="151.25,-87.92 147.75,-77.92 144.25,-87.92 151.25,-87.92"/>
</a>
</g>
</g>
<!-- Node5 -->
<g id="Node000005" class="node">
<title>Node5</title>
<g id="a_Node000005"><a xlink:href="../../d9/dcb/yuv__rgb__lsx_8h.html" target="_top" xlink:title=" ">
<polygon fill="white" stroke="#666666" points="282.12,-76 205.38,-76 205.38,-56 282.12,-56 282.12,-76"/>
<text xml:space="preserve" text-anchor="middle" x="243.75" y="-62.5" font-family="Helvetica,sans-Serif" font-size="10.00">yuv_rgb_lsx.h</text>
</a>
</g>
</g>
<!-- Node1&#45;&gt;Node5 -->
<g id="edge4_Node000001_Node000005" class="edge">
<title>Node1&#45;&gt;Node5</title>
<g id="a_edge4_Node000001_Node000005"><a xlink:title=" ">
<path fill="none" stroke="#63b8ff" d="M172.47,-111.55C186.78,-102.61 204.72,-91.39 219.03,-82.45"/>
<polygon fill="#63b8ff" stroke="#63b8ff" points="220.79,-85.48 227.41,-77.21 217.08,-79.54 220.79,-85.48"/>
</a>
</g>
</g>
<!-- Node3 -->
<g id="Node000003" class="node">
<title>Node3</title>
<g id="a_Node000003"><a xlink:href="../../d7/db4/yuv__rgb__common_8h.html" target="_top" xlink:title=" ">
<polygon fill="white" stroke="#666666" points="101.5,-20 0,-20 0,0 101.5,0 101.5,-20"/>
<text xml:space="preserve" text-anchor="middle" x="50.75" y="-6.5" font-family="Helvetica,sans-Serif" font-size="10.00">yuv_rgb_common.h</text>
</a>
</g>
</g>
<!-- Node2&#45;&gt;Node3 -->
<g id="edge2_Node000002_Node000003" class="edge">
<title>Node2&#45;&gt;Node3</title>
<g id="a_edge2_Node000002_Node000003"><a xlink:title=" ">
<path fill="none" stroke="#63b8ff" d="M50.75,-55.59C50.75,-49.01 50.75,-39.96 50.75,-31.73"/>
<polygon fill="#63b8ff" stroke="#63b8ff" points="54.25,-31.81 50.75,-21.81 47.25,-31.81 54.25,-31.81"/>
</a>
</g>
</g>
</g>
</svg>
</svg>

<style type='text/css'>
<![CDATA[
[data-mouse-over-selected='false'] { opacity: 0.7; }
[data-mouse-over-selected='true']  { opacity: 1.0; }
]]>
</style>
<script type="application/ecmascript"><![CDATA[
document.addEventListener('DOMContentLoaded', (event) => {
  highlightEdges();
  highlightAdjacentNodes();
});
]]></script>
</svg>
