<?xml version="1.0" encoding="UTF-8" standalone="no"?>
<!DOCTYPE svg PUBLIC "-//W3C//DTD SVG 1.1//EN"
 "http://www.w3.org/Graphics/SVG/1.1/DTD/svg11.dtd">
<!-- Generated by graphviz version 13.1.0 (20250701.0955)
 -->
<!-- Title: SDL&#45;main/src/filesystem/SDL_sysfilesystem.h Pages: 1 -->
<svg width="422pt" height="108pt"
 viewBox="0.00 0.00 422.00 108.00" xmlns="http://www.w3.org/2000/svg" xmlns:xlink="http://www.w3.org/1999/xlink">
<g id="graph0" class="graph" transform="scale(1 1) rotate(0) translate(4 104)">
<title>SDL&#45;main/src/filesystem/SDL_sysfilesystem.h</title>
<!-- Node1 -->
<g id="Node000001" class="node">
<title>Node1</title>
<g id="a_Node000001"><a xlink:title=" ">
<polygon fill="#999999" stroke="#666666" points="275,-100 151,-100 151,-68 275,-68 275,-100"/>
<text xml:space="preserve" text-anchor="start" x="159" y="-86.5" font-family="Helvetica,sans-Serif" font-size="10.00">SDL&#45;main/src/filesystem</text>
<text xml:space="preserve" text-anchor="middle" x="213" y="-74.5" font-family="Helvetica,sans-Serif" font-size="10.00">/SDL_sysfilesystem.h</text>
</a>
</g>
</g>
<!-- Node2 -->
<g id="Node000002" class="node">
<title>Node2</title>
<g id="a_Node000002"><a xlink:href="../../d4/db9/SDL__filesystem_8c.html" target="_top" xlink:title=" ">
<polygon fill="white" stroke="#666666" points="124,-32 0,-32 0,0 124,0 124,-32"/>
<text xml:space="preserve" text-anchor="start" x="8" y="-18.5" font-family="Helvetica,sans-Serif" font-size="10.00">SDL&#45;main/src/filesystem</text>
<text xml:space="preserve" text-anchor="middle" x="62" y="-6.5" font-family="Helvetica,sans-Serif" font-size="10.00">/SDL_filesystem.c</text>
</a>
</g>
</g>
<!-- Node1&#45;&gt;Node2 -->
<g id="edge1_Node000001_Node000002" class="edge">
<title>Node1&#45;&gt;Node2</title>
<g id="a_edge1_Node000001_Node000002"><a xlink:title=" ">
<path fill="none" stroke="#63b8ff" d="M167.3,-63.03C144.88,-53.23 118.29,-41.61 97.44,-32.49"/>
<polygon fill="#63b8ff" stroke="#63b8ff" points="165.65,-66.12 176.21,-66.92 168.45,-59.71 165.65,-66.12"/>
</a>
</g>
</g>
<!-- Node3 -->
<g id="Node000003" class="node">
<title>Node3</title>
<g id="a_Node000003"><a xlink:href="../../df/de4/gdk_2SDL__sysfilesystem_8cpp.html" target="_top" xlink:title=" ">
<polygon fill="white" stroke="#666666" points="284,-32 142,-32 142,0 284,0 284,-32"/>
<text xml:space="preserve" text-anchor="start" x="150" y="-18.5" font-family="Helvetica,sans-Serif" font-size="10.00">SDL&#45;main/src/filesystem</text>
<text xml:space="preserve" text-anchor="middle" x="213" y="-6.5" font-family="Helvetica,sans-Serif" font-size="10.00">/gdk/SDL_sysfilesystem.cpp</text>
</a>
</g>
</g>
<!-- Node1&#45;&gt;Node3 -->
<g id="edge2_Node000001_Node000003" class="edge">
<title>Node1&#45;&gt;Node3</title>
<g id="a_edge2_Node000001_Node000003"><a xlink:title=" ">
<path fill="none" stroke="#63b8ff" d="M213,-56.31C213,-48.12 213,-39.38 213,-32.22"/>
<polygon fill="#63b8ff" stroke="#63b8ff" points="209.5,-56.18 213,-66.18 216.5,-56.18 209.5,-56.18"/>
</a>
</g>
</g>
<!-- Node4 -->
<g id="Node000004" class="node">
<title>Node4</title>
<g id="a_Node000004"><a xlink:href="../../d1/deb/SDL__storage_8c.html" target="_top" xlink:title=" ">
<polygon fill="white" stroke="#666666" points="413.62,-32 302.38,-32 302.38,0 413.62,0 413.62,-32"/>
<text xml:space="preserve" text-anchor="start" x="310.38" y="-18.5" font-family="Helvetica,sans-Serif" font-size="10.00">SDL&#45;main/src/storage</text>
<text xml:space="preserve" text-anchor="middle" x="358" y="-6.5" font-family="Helvetica,sans-Serif" font-size="10.00">/SDL_storage.c</text>
</a>
</g>
</g>
<!-- Node1&#45;&gt;Node4 -->
<g id="edge3_Node000001_Node000004" class="edge">
<title>Node1&#45;&gt;Node4</title>
<g id="a_edge3_Node000001_Node000004"><a xlink:title=" ">
<path fill="none" stroke="#63b8ff" d="M257.47,-62.76C278.87,-53.02 304.12,-41.52 323.97,-32.49"/>
<polygon fill="#63b8ff" stroke="#63b8ff" points="256.03,-59.57 248.37,-66.9 258.93,-65.94 256.03,-59.57"/>
</a>
</g>
</g>
</g>
</svg>
