<?xml version="1.0" encoding="UTF-8" standalone="no"?>
<!DOCTYPE svg PUBLIC "-//W3C//DTD SVG 1.1//EN"
 "http://www.w3.org/Graphics/SVG/1.1/DTD/svg11.dtd">
<!-- Generated by graphviz version 13.1.0 (20250701.0955)
 -->
<!-- Title: SDL_StretchSurfaceUncheckedNearest Pages: 1 -->
<svg width="309pt" height="142pt"
 viewBox="0.00 0.00 309.00 142.00" xmlns="http://www.w3.org/2000/svg" xmlns:xlink="http://www.w3.org/1999/xlink">
<g id="graph0" class="graph" transform="scale(1 1) rotate(0) translate(4 138)">
<title>SDL_StretchSurfaceUncheckedNearest</title>
<!-- Node1 -->
<g id="Node000001" class="node">
<title>Node1</title>
<g id="a_Node000001"><a xlink:title=" ">
<polygon fill="#999999" stroke="#666666" points="155.5,-83 0,-83 0,-51 155.5,-51 155.5,-83"/>
<text xml:space="preserve" text-anchor="start" x="8" y="-69.5" font-family="Helvetica,sans-Serif" font-size="10.00">SDL_StretchSurfaceUnchecked</text>
<text xml:space="preserve" text-anchor="middle" x="77.75" y="-57.5" font-family="Helvetica,sans-Serif" font-size="10.00">Nearest</text>
</a>
</g>
</g>
<!-- Node2 -->
<g id="Node000002" class="node">
<title>Node2</title>
<g id="a_Node000002"><a xlink:href="../../d8/df3/SDL__stretch_8c.html#a7baf7ebcccfcf78770d535365c6a75eb" target="_top" xlink:title=" ">
<polygon fill="white" stroke="#666666" points="300.5,-134 191.5,-134 191.5,-114 300.5,-114 300.5,-134"/>
<text xml:space="preserve" text-anchor="middle" x="246" y="-120.5" font-family="Helvetica,sans-Serif" font-size="10.00">scale_mat_nearest_1</text>
</a>
</g>
</g>
<!-- Node1&#45;&gt;Node2 -->
<g id="edge1_Node000001_Node000002" class="edge">
<title>Node1&#45;&gt;Node2</title>
<g id="a_edge1_Node000001_Node000002"><a xlink:title=" ">
<path fill="none" stroke="#63b8ff" d="M126.84,-83.49C151.26,-91.86 180.62,-101.93 203.96,-109.93"/>
<polygon fill="#63b8ff" stroke="#63b8ff" points="202.53,-113.14 213.13,-113.07 204.8,-106.52 202.53,-113.14"/>
</a>
</g>
</g>
<!-- Node3 -->
<g id="Node000003" class="node">
<title>Node3</title>
<g id="a_Node000003"><a xlink:href="../../d8/df3/SDL__stretch_8c.html#a159694b5095230592750d7c6cee9be6b" target="_top" xlink:title=" ">
<polygon fill="white" stroke="#666666" points="300.5,-96 191.5,-96 191.5,-76 300.5,-76 300.5,-96"/>
<text xml:space="preserve" text-anchor="middle" x="246" y="-82.5" font-family="Helvetica,sans-Serif" font-size="10.00">scale_mat_nearest_2</text>
</a>
</g>
</g>
<!-- Node1&#45;&gt;Node3 -->
<g id="edge2_Node000001_Node000003" class="edge">
<title>Node1&#45;&gt;Node3</title>
<g id="a_edge2_Node000001_Node000003"><a xlink:title=" ">
<path fill="none" stroke="#63b8ff" d="M155.55,-75.78C163.76,-76.72 172.05,-77.66 180.11,-78.58"/>
<polygon fill="#63b8ff" stroke="#63b8ff" points="179.46,-82.03 189.8,-79.69 180.26,-75.08 179.46,-82.03"/>
</a>
</g>
</g>
<!-- Node4 -->
<g id="Node000004" class="node">
<title>Node4</title>
<g id="a_Node000004"><a xlink:href="../../d8/df3/SDL__stretch_8c.html#aa64f1e598ef1ce7bfd041ecf27e05ee4" target="_top" xlink:title=" ">
<polygon fill="white" stroke="#666666" points="300.5,-58 191.5,-58 191.5,-38 300.5,-38 300.5,-58"/>
<text xml:space="preserve" text-anchor="middle" x="246" y="-44.5" font-family="Helvetica,sans-Serif" font-size="10.00">scale_mat_nearest_3</text>
</a>
</g>
</g>
<!-- Node1&#45;&gt;Node4 -->
<g id="edge3_Node000001_Node000004" class="edge">
<title>Node1&#45;&gt;Node4</title>
<g id="a_edge3_Node000001_Node000004"><a xlink:title=" ">
<path fill="none" stroke="#63b8ff" d="M155.55,-58.22C163.76,-57.28 172.05,-56.34 180.11,-55.42"/>
<polygon fill="#63b8ff" stroke="#63b8ff" points="180.26,-58.92 189.8,-54.31 179.46,-51.97 180.26,-58.92"/>
</a>
</g>
</g>
<!-- Node5 -->
<g id="Node000005" class="node">
<title>Node5</title>
<g id="a_Node000005"><a xlink:href="../../d8/df3/SDL__stretch_8c.html#add28bb4627a174f90d08026f9e9b6d99" target="_top" xlink:title=" ">
<polygon fill="white" stroke="#666666" points="300.5,-20 191.5,-20 191.5,0 300.5,0 300.5,-20"/>
<text xml:space="preserve" text-anchor="middle" x="246" y="-6.5" font-family="Helvetica,sans-Serif" font-size="10.00">scale_mat_nearest_4</text>
</a>
</g>
</g>
<!-- Node1&#45;&gt;Node5 -->
<g id="edge4_Node000001_Node000005" class="edge">
<title>Node1&#45;&gt;Node5</title>
<g id="a_edge4_Node000001_Node000005"><a xlink:title=" ">
<path fill="none" stroke="#63b8ff" d="M126.84,-50.51C151.26,-42.14 180.62,-32.07 203.96,-24.07"/>
<polygon fill="#63b8ff" stroke="#63b8ff" points="204.8,-27.48 213.13,-20.93 202.53,-20.86 204.8,-27.48"/>
</a>
</g>
</g>
</g>
</svg>
