<?xml version="1.0" encoding="UTF-8" standalone="no"?>
<!DOCTYPE svg PUBLIC "-//W3C//DTD SVG 1.1//EN"
 "http://www.w3.org/Graphics/SVG/1.1/DTD/svg11.dtd">
<!-- Generated by graphviz version 13.1.0 (20250701.0955)
 -->
<!-- Title: SDL_StretchSurfaceUncheckedNearest Pages: 1 -->
<svg width="947pt" height="178pt"
 viewBox="0.00 0.00 947.00 178.00" xmlns="http://www.w3.org/2000/svg" xmlns:xlink="http://www.w3.org/1999/xlink">
<g id="graph0" class="graph" transform="scale(1 1) rotate(0) translate(4 174)">
<title>SDL_StretchSurfaceUncheckedNearest</title>
<!-- Node1 -->
<g id="Node000001" class="node">
<title>Node1</title>
<g id="a_Node000001"><a xlink:title=" ">
<polygon fill="#999999" stroke="#666666" points="939,-52 783.5,-52 783.5,-20 939,-20 939,-52"/>
<text xml:space="preserve" text-anchor="start" x="791.5" y="-38.5" font-family="Helvetica,sans-Serif" font-size="10.00">SDL_StretchSurfaceUnchecked</text>
<text xml:space="preserve" text-anchor="middle" x="861.25" y="-26.5" font-family="Helvetica,sans-Serif" font-size="10.00">Nearest</text>
</a>
</g>
</g>
<!-- Node2 -->
<g id="Node000002" class="node">
<title>Node2</title>
<g id="a_Node000002"><a xlink:href="../../d8/df3/SDL__stretch_8c.html#aeec58d3c570af646ad324984ed303e8a" target="_top" xlink:title=" ">
<polygon fill="white" stroke="#666666" points="747.5,-46 641.5,-46 641.5,-26 747.5,-26 747.5,-46"/>
<text xml:space="preserve" text-anchor="middle" x="694.5" y="-32.5" font-family="Helvetica,sans-Serif" font-size="10.00">SDL_StretchSurface</text>
</a>
</g>
</g>
<!-- Node1&#45;&gt;Node2 -->
<g id="edge1_Node000001_Node000002" class="edge">
<title>Node1&#45;&gt;Node2</title>
<g id="a_edge1_Node000001_Node000002"><a xlink:title=" ">
<path fill="none" stroke="#63b8ff" d="M771.86,-36C763.58,-36 755.37,-36 747.59,-36"/>
<polygon fill="#63b8ff" stroke="#63b8ff" points="771.67,-39.5 781.67,-36 771.67,-32.5 771.67,-39.5"/>
</a>
</g>
</g>
<!-- Node2&#45;&gt;Node2 -->
<g id="edge15_Node000002_Node000002" class="edge">
<title>Node2&#45;&gt;Node2</title>
<g id="a_edge15_Node000002_Node000002"><a xlink:title=" ">
<path fill="none" stroke="#63b8ff" d="M722.45,-57.44C718.85,-61.3 709.53,-64 694.5,-64 667.01,-64 658.64,-54.98 669.38,-46.34"/>
<polygon fill="#63b8ff" stroke="#63b8ff" points="725.85,-56.63 720,-47.81 719.07,-58.36 725.85,-56.63"/>
</a>
</g>
</g>
<!-- Node3 -->
<g id="Node000003" class="node">
<title>Node3</title>
<g id="a_Node000003"><a xlink:href="../../d4/d8e/SDL__surface_8c.html#a70a8f09bcea477ab3da4030650caf69e" target="_top" xlink:title=" ">
<polygon fill="white" stroke="#666666" points="605.5,-75 467.25,-75 467.25,-43 605.5,-43 605.5,-75"/>
<text xml:space="preserve" text-anchor="start" x="475.25" y="-61.5" font-family="Helvetica,sans-Serif" font-size="10.00">SDL_BlitSurfaceUnchecked</text>
<text xml:space="preserve" text-anchor="middle" x="536.38" y="-49.5" font-family="Helvetica,sans-Serif" font-size="10.00">Scaled</text>
</a>
</g>
</g>
<!-- Node2&#45;&gt;Node3 -->
<g id="edge2_Node000002_Node000003" class="edge">
<title>Node2&#45;&gt;Node3</title>
<g id="a_edge2_Node000002_Node000003"><a xlink:title=" ">
<path fill="none" stroke="#63b8ff" d="M629.69,-45.4C621.8,-46.56 613.7,-47.76 605.74,-48.93"/>
<polygon fill="#63b8ff" stroke="#63b8ff" points="630.2,-48.86 639.58,-43.94 629.18,-41.94 630.2,-48.86"/>
</a>
</g>
</g>
<!-- Node10 -->
<g id="Node000010" class="node">
<title>Node10</title>
<g id="a_Node000010"><a xlink:href="../../db/d6b/SDL__camera_8c.html#aada59aeebd93ce01f07435a3741fc972" target="_top" xlink:title=" ">
<polygon fill="white" stroke="#666666" points="602.88,-24 469.88,-24 469.88,-4 602.88,-4 602.88,-24"/>
<text xml:space="preserve" text-anchor="middle" x="536.38" y="-10.5" font-family="Helvetica,sans-Serif" font-size="10.00">SDL_CameraThreadIterate</text>
</a>
</g>
</g>
<!-- Node2&#45;&gt;Node10 -->
<g id="edge12_Node000002_Node000010" class="edge">
<title>Node2&#45;&gt;Node10</title>
<g id="a_edge12_Node000002_Node000010"><a xlink:title=" ">
<path fill="none" stroke="#63b8ff" d="M629.76,-27.02C621.02,-25.79 612.03,-24.52 603.25,-23.28"/>
<polygon fill="#63b8ff" stroke="#63b8ff" points="629.19,-30.47 639.58,-28.4 630.17,-23.54 629.19,-30.47"/>
</a>
</g>
</g>
<!-- Node3&#45;&gt;Node3 -->
<g id="edge11_Node000003_Node000003" class="edge">
<title>Node3&#45;&gt;Node3</title>
<g id="a_edge11_Node000003_Node000003"><a xlink:title=" ">
<path fill="none" stroke="#63b8ff" d="M562.73,-86.71C558.33,-90.48 549.55,-93 536.38,-93 512.29,-93 502.88,-84.58 508.15,-75.44"/>
<polygon fill="#63b8ff" stroke="#63b8ff" points="566.16,-87.38 564.36,-76.94 559.26,-86.22 566.16,-87.38"/>
</a>
</g>
</g>
<!-- Node4 -->
<g id="Node000004" class="node">
<title>Node4</title>
<g id="a_Node000004"><a xlink:href="../../d4/d8e/SDL__surface_8c.html#ad03c3bf7986461a0cdc686217bd73682" target="_top" xlink:title=" ">
<polygon fill="white" stroke="#666666" points="425.62,-113 306.88,-113 306.88,-93 425.62,-93 425.62,-113"/>
<text xml:space="preserve" text-anchor="middle" x="366.25" y="-99.5" font-family="Helvetica,sans-Serif" font-size="10.00">SDL_BlitSurfaceScaled</text>
</a>
</g>
</g>
<!-- Node3&#45;&gt;Node4 -->
<g id="edge3_Node000003_Node000004" class="edge">
<title>Node3&#45;&gt;Node4</title>
<g id="a_edge3_Node000003_Node000004"><a xlink:title=" ">
<path fill="none" stroke="#63b8ff" d="M461.79,-78.26C442.94,-83.19 423.38,-88.31 406.97,-92.6"/>
<polygon fill="#63b8ff" stroke="#63b8ff" points="462.52,-81.69 471.31,-75.77 460.75,-74.91 462.52,-81.69"/>
</a>
</g>
</g>
<!-- Node9 -->
<g id="Node000009" class="node">
<title>Node9</title>
<g id="a_Node000009"><a xlink:href="../../d4/d8e/SDL__surface_8c.html#ac272f372110e77bff24f3bf5aba3e467" target="_top" xlink:title=" ">
<polygon fill="white" stroke="#666666" points="431.25,-75 301.25,-75 301.25,-43 431.25,-43 431.25,-75"/>
<text xml:space="preserve" text-anchor="start" x="309.25" y="-61.5" font-family="Helvetica,sans-Serif" font-size="10.00">SDL_BlitSurfaceTiledWith</text>
<text xml:space="preserve" text-anchor="middle" x="366.25" y="-49.5" font-family="Helvetica,sans-Serif" font-size="10.00">Scale</text>
</a>
</g>
</g>
<!-- Node3&#45;&gt;Node9 -->
<g id="edge10_Node000003_Node000009" class="edge">
<title>Node3&#45;&gt;Node9</title>
<g id="a_edge10_Node000003_Node000009"><a xlink:title=" ">
<path fill="none" stroke="#63b8ff" d="M455.62,-59C447.54,-59 439.39,-59 431.5,-59"/>
<polygon fill="#63b8ff" stroke="#63b8ff" points="455.48,-62.5 465.48,-59 455.48,-55.5 455.48,-62.5"/>
</a>
</g>
</g>
<!-- Node5 -->
<g id="Node000005" class="node">
<title>Node5</title>
<g id="a_Node000005"><a xlink:href="../../d4/d8e/SDL__surface_8c.html#a5158f541548d706c129d2fb600a1036f" target="_top" xlink:title=" ">
<polygon fill="white" stroke="#666666" points="265.25,-170 153.25,-170 153.25,-150 265.25,-150 265.25,-170"/>
<text xml:space="preserve" text-anchor="middle" x="209.25" y="-156.5" font-family="Helvetica,sans-Serif" font-size="10.00">SDL_BlitSurface9Grid</text>
</a>
</g>
</g>
<!-- Node4&#45;&gt;Node5 -->
<g id="edge4_Node000004_Node000005" class="edge">
<title>Node4&#45;&gt;Node5</title>
<g id="a_edge4_Node000004_Node000005"><a xlink:title=" ">
<path fill="none" stroke="#63b8ff" d="M328.09,-117.43C309.31,-124.65 286.12,-133.43 265.25,-141 257.46,-143.82 249.02,-146.79 241.14,-149.51"/>
<polygon fill="#63b8ff" stroke="#63b8ff" points="329.11,-120.79 337.18,-113.93 326.59,-114.26 329.11,-120.79"/>
</a>
</g>
</g>
<!-- Node6 -->
<g id="Node000006" class="node">
<title>Node6</title>
<g id="a_Node000006"><a xlink:href="../../d4/d8e/SDL__surface_8c.html#af5aa021ea1c9fde2c52baa1363327d87" target="_top" xlink:title=" ">
<polygon fill="white" stroke="#666666" points="258.12,-114 160.38,-114 160.38,-94 258.12,-94 258.12,-114"/>
<text xml:space="preserve" text-anchor="middle" x="209.25" y="-100.5" font-family="Helvetica,sans-Serif" font-size="10.00">SDL_ClearSurface</text>
</a>
</g>
</g>
<!-- Node4&#45;&gt;Node6 -->
<g id="edge5_Node000004_Node000006" class="edge">
<title>Node4&#45;&gt;Node6</title>
<g id="a_edge5_Node000004_Node000006"><a xlink:title=" ">
<path fill="none" stroke="#63b8ff" d="M295.29,-103.45C282.8,-103.53 270.04,-103.61 258.33,-103.69"/>
<polygon fill="#63b8ff" stroke="#63b8ff" points="295.16,-106.95 305.14,-103.39 295.12,-99.95 295.16,-106.95"/>
</a>
</g>
</g>
<!-- Node7 -->
<g id="Node000007" class="node">
<title>Node7</title>
<g id="a_Node000007"><a xlink:href="../../d4/d8e/SDL__surface_8c.html#aa16878687639cda1ecd63fbf62d1c6bf" target="_top" xlink:title=" ">
<polygon fill="white" stroke="#666666" points="258.88,-58 159.62,-58 159.62,-38 258.88,-38 258.88,-58"/>
<text xml:space="preserve" text-anchor="middle" x="209.25" y="-44.5" font-family="Helvetica,sans-Serif" font-size="10.00">SDL_ScaleSurface</text>
</a>
</g>
</g>
<!-- Node4&#45;&gt;Node7 -->
<g id="edge7_Node000004_Node000007" class="edge">
<title>Node4&#45;&gt;Node7</title>
<g id="a_edge7_Node000004_Node000007"><a xlink:title=" ">
<path fill="none" stroke="#63b8ff" d="M317.19,-89.23C311.79,-87.54 306.39,-85.78 301.25,-84 278.45,-76.12 252.94,-65.91 234.75,-58.37"/>
<polygon fill="#63b8ff" stroke="#63b8ff" points="316.15,-92.57 326.74,-92.16 318.2,-85.88 316.15,-92.57"/>
</a>
</g>
</g>
<!-- Node6&#45;&gt;Node6 -->
<g id="edge6_Node000006_Node000006" class="edge">
<title>Node6&#45;&gt;Node6</title>
<g id="a_edge6_Node000006_Node000006"><a xlink:title=" ">
<path fill="none" stroke="#63b8ff" d="M235.87,-125.44C232.44,-129.3 223.57,-132 209.25,-132 183.07,-132 175.09,-122.98 185.32,-114.34"/>
<polygon fill="#63b8ff" stroke="#63b8ff" points="239.29,-124.7 233.54,-115.81 232.49,-126.35 239.29,-124.7"/>
</a>
</g>
</g>
<!-- Node7&#45;&gt;Node7 -->
<g id="edge9_Node000007_Node000007" class="edge">
<title>Node7&#45;&gt;Node7</title>
<g id="a_edge9_Node000007_Node000007"><a xlink:title=" ">
<path fill="none" stroke="#63b8ff" d="M235.87,-69.44C232.44,-73.3 223.57,-76 209.25,-76 183.07,-76 175.09,-66.98 185.32,-58.34"/>
<polygon fill="#63b8ff" stroke="#63b8ff" points="239.29,-68.7 233.54,-59.81 232.49,-70.35 239.29,-68.7"/>
</a>
</g>
</g>
<!-- Node8 -->
<g id="Node000008" class="node">
<title>Node8</title>
<g id="a_Node000008"><a xlink:href="../../d4/d8e/SDL__surface_8c.html#acb7a1f4494f58df920f4739ee788ff49" target="_top" xlink:title=" ">
<polygon fill="white" stroke="#666666" points="117.25,-58 0,-58 0,-38 117.25,-38 117.25,-58"/>
<text xml:space="preserve" text-anchor="middle" x="58.62" y="-44.5" font-family="Helvetica,sans-Serif" font-size="10.00">SDL_GetSurfaceImage</text>
</a>
</g>
</g>
<!-- Node7&#45;&gt;Node8 -->
<g id="edge8_Node000007_Node000008" class="edge">
<title>Node7&#45;&gt;Node8</title>
<g id="a_edge8_Node000007_Node000008"><a xlink:title=" ">
<path fill="none" stroke="#63b8ff" d="M147.73,-48C137.81,-48 127.55,-48 117.69,-48"/>
<polygon fill="#63b8ff" stroke="#63b8ff" points="147.66,-51.5 157.66,-48 147.66,-44.5 147.66,-51.5"/>
</a>
</g>
</g>
<!-- Node11 -->
<g id="Node000011" class="node">
<title>Node11</title>
<g id="a_Node000011"><a xlink:href="../../db/d6b/SDL__camera_8c.html#a03e068ea12aee6918e95902871cb3523" target="_top" xlink:title=" ">
<polygon fill="white" stroke="#666666" points="406.5,-23 326,-23 326,-3 406.5,-3 406.5,-23"/>
<text xml:space="preserve" text-anchor="middle" x="366.25" y="-9.5" font-family="Helvetica,sans-Serif" font-size="10.00">CameraThread</text>
</a>
</g>
</g>
<!-- Node10&#45;&gt;Node11 -->
<g id="edge13_Node000010_Node000011" class="edge">
<title>Node10&#45;&gt;Node11</title>
<g id="a_edge13_Node000010_Node000011"><a xlink:title=" ">
<path fill="none" stroke="#63b8ff" d="M458.13,-13.54C440.38,-13.43 422.21,-13.33 406.83,-13.24"/>
<polygon fill="#63b8ff" stroke="#63b8ff" points="457.88,-17.04 467.9,-13.6 457.92,-10.04 457.88,-17.04"/>
</a>
</g>
</g>
<!-- Node12 -->
<g id="Node000012" class="node">
<title>Node12</title>
<g id="a_Node000012"><a xlink:href="../../db/d6b/SDL__camera_8c.html#a52469fec975f103f2456d9e03a868fba" target="_top" xlink:title=" ">
<polygon fill="white" stroke="#666666" points="258.5,-20 160,-20 160,0 258.5,0 258.5,-20"/>
<text xml:space="preserve" text-anchor="middle" x="209.25" y="-6.5" font-family="Helvetica,sans-Serif" font-size="10.00">SDL_OpenCamera</text>
</a>
</g>
</g>
<!-- Node11&#45;&gt;Node12 -->
<g id="edge14_Node000011_Node000012" class="edge">
<title>Node11&#45;&gt;Node12</title>
<g id="a_edge14_Node000011_Node000012"><a xlink:title=" ">
<path fill="none" stroke="#63b8ff" d="M314.36,-12.01C296.5,-11.67 276.5,-11.28 258.84,-10.94"/>
<polygon fill="#63b8ff" stroke="#63b8ff" points="314.16,-15.51 324.22,-12.21 314.29,-8.51 314.16,-15.51"/>
</a>
</g>
</g>
</g>
</svg>
