<?xml version="1.0" encoding="UTF-8" standalone="no"?>
<!DOCTYPE svg PUBLIC "-//W3C//DTD SVG 1.1//EN"
 "http://www.w3.org/Graphics/SVG/1.1/DTD/svg11.dtd">
<!-- Generated by graphviz version 13.1.0 (20250701.0955)
 -->
<!-- Title: pthread_barrier_init Pages: 1 -->
<svg width="557pt" height="94pt"
 viewBox="0.00 0.00 557.00 94.00" xmlns="http://www.w3.org/2000/svg" xmlns:xlink="http://www.w3.org/1999/xlink">
<g id="graph0" class="graph" transform="scale(1 1) rotate(0) translate(4 90)">
<title>pthread_barrier_init</title>
<!-- Node1 -->
<g id="Node000001" class="node">
<title>Node1</title>
<g id="a_Node000001"><a xlink:title=" ">
<polygon fill="#999999" stroke="#666666" points="548.5,-39 450,-39 450,-19 548.5,-19 548.5,-39"/>
<text xml:space="preserve" text-anchor="middle" x="499.25" y="-25.5" font-family="Helvetica,sans-Serif" font-size="10.00">pthread_barrier_init</text>
</a>
</g>
</g>
<!-- Node2 -->
<g id="Node000002" class="node">
<title>Node2</title>
<g id="a_Node000002"><a xlink:href="../../d0/d23/hidapi__thread__pthread_8h.html#a318f8f85537c944cd6777b90fe94d4fb" target="_top" xlink:title=" ">
<polygon fill="white" stroke="#666666" points="414,-58 295.25,-58 295.25,-38 414,-38 414,-58"/>
<text xml:space="preserve" text-anchor="middle" x="354.62" y="-44.5" font-family="Helvetica,sans-Serif" font-size="10.00">hidapi_thread_state_init</text>
</a>
</g>
</g>
<!-- Node1&#45;&gt;Node2 -->
<g id="edge1_Node000001_Node000002" class="edge">
<title>Node1&#45;&gt;Node2</title>
<g id="a_edge1_Node000001_Node000002"><a xlink:title=" ">
<path fill="none" stroke="#63b8ff" d="M438.22,-37C430.35,-38.05 422.29,-39.12 414.44,-40.16"/>
<polygon fill="#63b8ff" stroke="#63b8ff" points="438.61,-40.48 448.07,-35.69 437.69,-33.54 438.61,-40.48"/>
</a>
</g>
</g>
<!-- Node6 -->
<g id="Node000006" class="node">
<title>Node6</title>
<g id="a_Node000006"><a xlink:href="../../d1/de6/mac_2hid_8c.html#a2651e3dded83fcdacac0f9315ad38dde" target="_top" xlink:title=" ">
<polygon fill="white" stroke="#666666" points="397.5,-20 311.75,-20 311.75,0 397.5,0 397.5,-20"/>
<text xml:space="preserve" text-anchor="middle" x="354.62" y="-6.5" font-family="Helvetica,sans-Serif" font-size="10.00">new_hid_device</text>
</a>
</g>
</g>
<!-- Node1&#45;&gt;Node6 -->
<g id="edge5_Node000001_Node000006" class="edge">
<title>Node1&#45;&gt;Node6</title>
<g id="a_edge5_Node000001_Node000006"><a xlink:title=" ">
<path fill="none" stroke="#63b8ff" d="M438.33,-21.02C424.74,-19.21 410.58,-17.32 397.9,-15.63"/>
<polygon fill="#63b8ff" stroke="#63b8ff" points="437.69,-24.46 448.07,-22.31 438.61,-17.52 437.69,-24.46"/>
</a>
</g>
</g>
<!-- Node3 -->
<g id="Node000003" class="node">
<title>Node3</title>
<g id="a_Node000003"><a xlink:href="../../d6/dcf/libusb_2hid_8c.html#a2651e3dded83fcdacac0f9315ad38dde" target="_top" xlink:title=" ">
<polygon fill="white" stroke="#666666" points="259.25,-58 173.5,-58 173.5,-38 259.25,-38 259.25,-58"/>
<text xml:space="preserve" text-anchor="middle" x="216.38" y="-44.5" font-family="Helvetica,sans-Serif" font-size="10.00">new_hid_device</text>
</a>
</g>
</g>
<!-- Node2&#45;&gt;Node3 -->
<g id="edge2_Node000002_Node000003" class="edge">
<title>Node2&#45;&gt;Node3</title>
<g id="a_edge2_Node000002_Node000003"><a xlink:title=" ">
<path fill="none" stroke="#63b8ff" d="M283.76,-48C275.45,-48 267.19,-48 259.45,-48"/>
<polygon fill="#63b8ff" stroke="#63b8ff" points="283.54,-51.5 293.54,-48 283.54,-44.5 283.54,-51.5"/>
</a>
</g>
</g>
<!-- Node4 -->
<g id="Node000004" class="node">
<title>Node4</title>
<g id="a_Node000004"><a xlink:href="../../dc/d19/group__API.html#ga79ee22c410d586c3d75f360eb8752595" target="_top" xlink:title="Open a HID device using libusb_wrap_sys_device. See https://libusb.sourceforge.io/api&#45;1....">
<polygon fill="white" stroke="#666666" points="122.12,-86 15.38,-86 15.38,-54 122.12,-54 122.12,-86"/>
<text xml:space="preserve" text-anchor="start" x="23.38" y="-72.5" font-family="Helvetica,sans-Serif" font-size="10.00">hid_libusb_wrap_sys</text>
<text xml:space="preserve" text-anchor="middle" x="68.75" y="-60.5" font-family="Helvetica,sans-Serif" font-size="10.00">_device</text>
</a>
</g>
</g>
<!-- Node3&#45;&gt;Node4 -->
<g id="edge3_Node000003_Node000004" class="edge">
<title>Node3&#45;&gt;Node4</title>
<g id="a_edge3_Node000003_Node000004"><a xlink:title=" ">
<path fill="none" stroke="#63b8ff" d="M162.14,-56.04C149.18,-58 135.33,-60.09 122.4,-62.05"/>
<polygon fill="#63b8ff" stroke="#63b8ff" points="162.39,-59.54 171.76,-54.59 161.35,-52.62 162.39,-59.54"/>
</a>
</g>
</g>
<!-- Node5 -->
<g id="Node000005" class="node">
<title>Node5</title>
<g id="a_Node000005"><a xlink:href="../../d6/dcf/libusb_2hid_8c.html#a0e569381b03120d85110c54f4cdff5b5" target="_top" xlink:title=" ">
<polygon fill="white" stroke="#666666" points="137.5,-36 0,-36 0,-16 137.5,-16 137.5,-36"/>
<text xml:space="preserve" text-anchor="middle" x="68.75" y="-22.5" font-family="Helvetica,sans-Serif" font-size="10.00">PLATFORM_hid_open_path</text>
</a>
</g>
</g>
<!-- Node3&#45;&gt;Node5 -->
<g id="edge4_Node000003_Node000005" class="edge">
<title>Node3&#45;&gt;Node5</title>
<g id="a_edge4_Node000003_Node000005"><a xlink:title=" ">
<path fill="none" stroke="#63b8ff" d="M162.01,-39.94C154.15,-38.75 145.95,-37.51 137.84,-36.29"/>
<polygon fill="#63b8ff" stroke="#63b8ff" points="161.35,-43.38 171.76,-41.41 162.39,-36.46 161.35,-43.38"/>
</a>
</g>
</g>
</g>
</svg>
