<?xml version="1.0" encoding="UTF-8" standalone="no"?>
<!DOCTYPE svg PUBLIC "-//W3C//DTD SVG 1.1//EN"
 "http://www.w3.org/Graphics/SVG/1.1/DTD/svg11.dtd">
<!-- Generated by graphviz version 13.1.0 (20250701.0955)
 -->
<!-- Title: get_string_property Pages: 1 -->
<svg width="903pt" height="104pt"
 viewBox="0.00 0.00 903.00 104.00" xmlns="http://www.w3.org/2000/svg" xmlns:xlink="http://www.w3.org/1999/xlink">
<g id="graph0" class="graph" transform="scale(1 1) rotate(0) translate(4 100)">
<title>get_string_property</title>
<!-- Node1 -->
<g id="Node000001" class="node">
<title>Node1</title>
<g id="a_Node000001"><a xlink:title=" ">
<polygon fill="#999999" stroke="#666666" points="894.75,-58 795.5,-58 795.5,-38 894.75,-38 894.75,-58"/>
<text xml:space="preserve" text-anchor="middle" x="845.12" y="-44.5" font-family="Helvetica,sans-Serif" font-size="10.00">get_string_property</text>
</a>
</g>
</g>
<!-- Node2 -->
<g id="Node000002" class="node">
<title>Node2</title>
<g id="a_Node000002"><a xlink:href="../../d1/de6/mac_2hid_8c.html#a42681c8449fc2be0fea5b18d7c93a062" target="_top" xlink:title=" ">
<polygon fill="white" stroke="#666666" points="759.5,-96 638.5,-96 638.5,-76 759.5,-76 759.5,-96"/>
<text xml:space="preserve" text-anchor="middle" x="699" y="-82.5" font-family="Helvetica,sans-Serif" font-size="10.00">get_manufacturer_string</text>
</a>
</g>
</g>
<!-- Node1&#45;&gt;Node2 -->
<g id="edge1_Node000001_Node000002" class="edge">
<title>Node1&#45;&gt;Node2</title>
<g id="a_edge1_Node000001_Node000002"><a xlink:title=" ">
<path fill="none" stroke="#63b8ff" d="M793.38,-61.38C775.74,-66.03 756.24,-71.17 739.63,-75.55"/>
<polygon fill="#63b8ff" stroke="#63b8ff" points="794.12,-64.8 802.9,-58.87 792.34,-58.04 794.12,-64.8"/>
</a>
</g>
</g>
<!-- Node9 -->
<g id="Node000009" class="node">
<title>Node9</title>
<g id="a_Node000009"><a xlink:href="../../d1/de6/mac_2hid_8c.html#a33750198913835efb282e87e59ec0b3d" target="_top" xlink:title=" ">
<polygon fill="white" stroke="#666666" points="747.12,-58 650.88,-58 650.88,-38 747.12,-38 747.12,-58"/>
<text xml:space="preserve" text-anchor="middle" x="699" y="-44.5" font-family="Helvetica,sans-Serif" font-size="10.00">get_product_string</text>
</a>
</g>
</g>
<!-- Node1&#45;&gt;Node9 -->
<g id="edge8_Node000001_Node000009" class="edge">
<title>Node1&#45;&gt;Node9</title>
<g id="a_edge8_Node000001_Node000009"><a xlink:title=" ">
<path fill="none" stroke="#63b8ff" d="M783.82,-48C771.62,-48 758.96,-48 747.28,-48"/>
<polygon fill="#63b8ff" stroke="#63b8ff" points="783.82,-51.5 793.82,-48 783.82,-44.5 783.82,-51.5"/>
</a>
</g>
</g>
<!-- Node10 -->
<g id="Node000010" class="node">
<title>Node10</title>
<g id="a_Node000010"><a xlink:href="../../d1/de6/mac_2hid_8c.html#a53b9159a1cc05ae43d79c5c771d87605" target="_top" xlink:title=" ">
<polygon fill="white" stroke="#666666" points="746.75,-20 651.25,-20 651.25,0 746.75,0 746.75,-20"/>
<text xml:space="preserve" text-anchor="middle" x="699" y="-6.5" font-family="Helvetica,sans-Serif" font-size="10.00">get_serial_number</text>
</a>
</g>
</g>
<!-- Node1&#45;&gt;Node10 -->
<g id="edge10_Node000001_Node000010" class="edge">
<title>Node1&#45;&gt;Node10</title>
<g id="a_edge10_Node000001_Node000010"><a xlink:title=" ">
<path fill="none" stroke="#63b8ff" d="M793.38,-34.62C775.74,-29.97 756.24,-24.83 739.63,-20.45"/>
<polygon fill="#63b8ff" stroke="#63b8ff" points="792.34,-37.96 802.9,-37.13 794.12,-31.2 792.34,-37.96"/>
</a>
</g>
</g>
<!-- Node3 -->
<g id="Node000003" class="node">
<title>Node3</title>
<g id="a_Node000003"><a xlink:href="../../d1/de6/mac_2hid_8c.html#ad5fe9b15b69dc5f6d8f34091c0b95fac" target="_top" xlink:title=" ">
<polygon fill="white" stroke="#666666" points="602.5,-64 504.75,-64 504.75,-32 602.5,-32 602.5,-64"/>
<text xml:space="preserve" text-anchor="start" x="512.75" y="-50.5" font-family="Helvetica,sans-Serif" font-size="10.00">create_device_info</text>
<text xml:space="preserve" text-anchor="middle" x="553.62" y="-38.5" font-family="Helvetica,sans-Serif" font-size="10.00">_with_usage</text>
</a>
</g>
</g>
<!-- Node2&#45;&gt;Node3 -->
<g id="edge2_Node000002_Node000003" class="edge">
<title>Node2&#45;&gt;Node3</title>
<g id="a_edge2_Node000002_Node000003"><a xlink:title=" ">
<path fill="none" stroke="#63b8ff" d="M647.65,-72.65C633.15,-68.81 617.37,-64.63 602.99,-60.82"/>
<polygon fill="#63b8ff" stroke="#63b8ff" points="646.42,-75.95 656.98,-75.13 648.21,-69.18 646.42,-75.95"/>
</a>
</g>
</g>
<!-- Node4 -->
<g id="Node000004" class="node">
<title>Node4</title>
<g id="a_Node000004"><a xlink:href="../../d1/de6/mac_2hid_8c.html#a1132c2be289aeb99e5ec27e6dd0cfb0b" target="_top" xlink:title=" ">
<polygon fill="white" stroke="#666666" points="468.75,-58 371,-58 371,-38 468.75,-38 468.75,-58"/>
<text xml:space="preserve" text-anchor="middle" x="419.88" y="-44.5" font-family="Helvetica,sans-Serif" font-size="10.00">create_device_info</text>
</a>
</g>
</g>
<!-- Node3&#45;&gt;Node4 -->
<g id="edge3_Node000003_Node000004" class="edge">
<title>Node3&#45;&gt;Node4</title>
<g id="a_edge3_Node000003_Node000004"><a xlink:title=" ">
<path fill="none" stroke="#63b8ff" d="M492.84,-48C484.92,-48 476.88,-48 469.18,-48"/>
<polygon fill="#63b8ff" stroke="#63b8ff" points="492.8,-51.5 502.8,-48 492.8,-44.5 492.8,-51.5"/>
</a>
</g>
</g>
<!-- Node5 -->
<g id="Node000005" class="node">
<title>Node5</title>
<g id="a_Node000005"><a xlink:href="../../d6/d93/netbsd_2hid_8c.html#a2854cca5b54881d5377122bbf3d4ef6f" target="_top" xlink:title=" ">
<polygon fill="white" stroke="#666666" points="315.12,-96 194.12,-96 194.12,-76 315.12,-76 315.12,-96"/>
<text xml:space="preserve" text-anchor="middle" x="254.62" y="-82.5" font-family="Helvetica,sans-Serif" font-size="10.00">hid_enumerate_callback</text>
</a>
</g>
</g>
<!-- Node4&#45;&gt;Node5 -->
<g id="edge4_Node000004_Node000005" class="edge">
<title>Node4&#45;&gt;Node5</title>
<g id="a_edge4_Node000004_Node000005"><a xlink:title=" ">
<path fill="none" stroke="#63b8ff" d="M362.81,-61.05C342.47,-65.78 319.77,-71.07 300.52,-75.55"/>
<polygon fill="#63b8ff" stroke="#63b8ff" points="363.41,-64.5 372.36,-58.83 361.83,-57.69 363.41,-64.5"/>
</a>
</g>
</g>
<!-- Node7 -->
<g id="Node000007" class="node">
<title>Node7</title>
<g id="a_Node000007"><a xlink:href="../../d1/de6/mac_2hid_8c.html#af0dea306823d0667824a60d703dc3583" target="_top" xlink:title=" ">
<polygon fill="white" stroke="#666666" points="323.75,-58 185.5,-58 185.5,-38 323.75,-38 323.75,-58"/>
<text xml:space="preserve" text-anchor="middle" x="254.62" y="-44.5" font-family="Helvetica,sans-Serif" font-size="10.00">PLATFORM_hid_enumerate</text>
</a>
</g>
</g>
<!-- Node4&#45;&gt;Node7 -->
<g id="edge6_Node000004_Node000007" class="edge">
<title>Node4&#45;&gt;Node7</title>
<g id="a_edge6_Node000004_Node000007"><a xlink:title=" ">
<path fill="none" stroke="#63b8ff" d="M359.56,-48C348.09,-48 335.98,-48 324.24,-48"/>
<polygon fill="#63b8ff" stroke="#63b8ff" points="359.26,-51.5 369.26,-48 359.26,-44.5 359.26,-51.5"/>
</a>
</g>
</g>
<!-- Node8 -->
<g id="Node000008" class="node">
<title>Node8</title>
<g id="a_Node000008"><a xlink:href="../../d1/de6/mac_2hid_8c.html#a0fb3a037bb3d94c05c7f670e66a14ed8" target="_top" xlink:title=" ">
<polygon fill="white" stroke="#666666" points="335,-20 174.25,-20 174.25,0 335,0 335,-20"/>
<text xml:space="preserve" text-anchor="middle" x="254.62" y="-6.5" font-family="Helvetica,sans-Serif" font-size="10.00">PLATFORM_hid_get_device_info</text>
</a>
</g>
</g>
<!-- Node4&#45;&gt;Node8 -->
<g id="edge7_Node000004_Node000008" class="edge">
<title>Node4&#45;&gt;Node8</title>
<g id="a_edge7_Node000004_Node000008"><a xlink:title=" ">
<path fill="none" stroke="#63b8ff" d="M362.81,-34.95C342.47,-30.22 319.77,-24.93 300.52,-20.45"/>
<polygon fill="#63b8ff" stroke="#63b8ff" points="361.83,-38.31 372.36,-37.17 363.41,-31.5 361.83,-38.31"/>
</a>
</g>
</g>
<!-- Node6 -->
<g id="Node000006" class="node">
<title>Node6</title>
<g id="a_Node000006"><a xlink:href="../../d6/d93/netbsd_2hid_8c.html#af0dea306823d0667824a60d703dc3583" target="_top" xlink:title=" ">
<polygon fill="white" stroke="#666666" points="138.25,-96 0,-96 0,-76 138.25,-76 138.25,-96"/>
<text xml:space="preserve" text-anchor="middle" x="69.12" y="-82.5" font-family="Helvetica,sans-Serif" font-size="10.00">PLATFORM_hid_enumerate</text>
</a>
</g>
</g>
<!-- Node5&#45;&gt;Node6 -->
<g id="edge5_Node000005_Node000006" class="edge">
<title>Node5&#45;&gt;Node6</title>
<g id="a_edge5_Node000005_Node000006"><a xlink:title=" ">
<path fill="none" stroke="#63b8ff" d="M182.4,-86C167.96,-86 152.81,-86 138.47,-86"/>
<polygon fill="#63b8ff" stroke="#63b8ff" points="182.28,-89.5 192.28,-86 182.28,-82.5 182.28,-89.5"/>
</a>
</g>
</g>
<!-- Node9&#45;&gt;Node3 -->
<g id="edge9_Node000009_Node000003" class="edge">
<title>Node9&#45;&gt;Node3</title>
<g id="a_edge9_Node000009_Node000003"><a xlink:title=" ">
<path fill="none" stroke="#63b8ff" d="M639.27,-48C627.17,-48 614.57,-48 602.9,-48"/>
<polygon fill="#63b8ff" stroke="#63b8ff" points="639.14,-51.5 649.14,-48 639.14,-44.5 639.14,-51.5"/>
</a>
</g>
</g>
<!-- Node10&#45;&gt;Node3 -->
<g id="edge11_Node000010_Node000003" class="edge">
<title>Node10&#45;&gt;Node3</title>
<g id="a_edge11_Node000010_Node000003"><a xlink:title=" ">
<path fill="none" stroke="#63b8ff" d="M647.65,-23.35C633.15,-27.19 617.37,-31.37 602.99,-35.18"/>
<polygon fill="#63b8ff" stroke="#63b8ff" points="648.21,-26.82 656.98,-20.87 646.42,-20.05 648.21,-26.82"/>
</a>
</g>
</g>
</g>
</svg>
