<?xml version="1.0" encoding="UTF-8" standalone="no"?>
<!DOCTYPE svg PUBLIC "-//W3C//DTD SVG 1.1//EN"
 "http://www.w3.org/Graphics/SVG/1.1/DTD/svg11.dtd">
<!-- Generated by graphviz version 13.1.0 (20250701.0955)
 -->
<!-- Title: pthread_barrier_wait Pages: 1 -->
<svg width="611pt" height="189pt"
 viewBox="0.00 0.00 611.00 189.00" xmlns="http://www.w3.org/2000/svg" xmlns:xlink="http://www.w3.org/1999/xlink">
<g id="graph0" class="graph" transform="scale(1 1) rotate(0) translate(4 185)">
<title>pthread_barrier_wait</title>
<!-- Node1 -->
<g id="Node000001" class="node">
<title>Node1</title>
<g id="a_Node000001"><a xlink:title=" ">
<polygon fill="#999999" stroke="#666666" points="602.5,-77 498.75,-77 498.75,-57 602.5,-57 602.5,-77"/>
<text xml:space="preserve" text-anchor="middle" x="550.62" y="-63.5" font-family="Helvetica,sans-Serif" font-size="10.00">pthread_barrier_wait</text>
</a>
</g>
</g>
<!-- Node2 -->
<g id="Node000002" class="node">
<title>Node2</title>
<g id="a_Node000002"><a xlink:href="../../d0/d23/hidapi__thread__pthread_8h.html#a3364a18abb284086f4641b3af713a71f" target="_top" xlink:title=" ">
<polygon fill="white" stroke="#666666" points="458.62,-134 329.38,-134 329.38,-114 458.62,-114 458.62,-134"/>
<text xml:space="preserve" text-anchor="middle" x="394" y="-120.5" font-family="Helvetica,sans-Serif" font-size="10.00">hidapi_thread_barrier_wait</text>
</a>
</g>
</g>
<!-- Node1&#45;&gt;Node2 -->
<g id="edge1_Node000001_Node000002" class="edge">
<title>Node1&#45;&gt;Node2</title>
<g id="a_edge1_Node000001_Node000002"><a xlink:title=" ">
<path fill="none" stroke="#63b8ff" d="M518.11,-82.05C501.8,-89.51 481.45,-98.33 462.75,-105 454.12,-108.08 444.73,-110.99 435.77,-113.56"/>
<polygon fill="#63b8ff" stroke="#63b8ff" points="519.21,-85.39 526.81,-78.01 516.27,-79.04 519.21,-85.39"/>
</a>
</g>
</g>
<!-- Node7 -->
<g id="Node000007" class="node">
<title>Node7</title>
<g id="a_Node000007"><a xlink:href="../../d1/de6/mac_2hid_8c.html#a9593b490d488dcb8017ceabebccc77bf" target="_top" xlink:title=" ">
<polygon fill="white" stroke="#666666" points="451.88,-96 336.12,-96 336.12,-76 451.88,-76 451.88,-96"/>
<text xml:space="preserve" text-anchor="middle" x="394" y="-82.5" font-family="Helvetica,sans-Serif" font-size="10.00">PLATFORM_hid_close</text>
</a>
</g>
</g>
<!-- Node1&#45;&gt;Node7 -->
<g id="edge6_Node000001_Node000007" class="edge">
<title>Node1&#45;&gt;Node7</title>
<g id="a_edge6_Node000001_Node000007"><a xlink:title=" ">
<path fill="none" stroke="#63b8ff" d="M487.18,-74.67C475.6,-76.1 463.56,-77.58 452.15,-78.98"/>
<polygon fill="#63b8ff" stroke="#63b8ff" points="487.57,-78.15 497.06,-73.46 486.71,-71.2 487.57,-78.15"/>
</a>
</g>
</g>
<!-- Node8 -->
<g id="Node000008" class="node">
<title>Node8</title>
<g id="a_Node000008"><a xlink:href="../../d1/de6/mac_2hid_8c.html#a0e569381b03120d85110c54f4cdff5b5" target="_top" xlink:title=" ">
<polygon fill="white" stroke="#666666" points="462.75,-58 325.25,-58 325.25,-38 462.75,-38 462.75,-58"/>
<text xml:space="preserve" text-anchor="middle" x="394" y="-44.5" font-family="Helvetica,sans-Serif" font-size="10.00">PLATFORM_hid_open_path</text>
</a>
</g>
</g>
<!-- Node1&#45;&gt;Node8 -->
<g id="edge7_Node000001_Node000008" class="edge">
<title>Node1&#45;&gt;Node8</title>
<g id="a_edge7_Node000001_Node000008"><a xlink:title=" ">
<path fill="none" stroke="#63b8ff" d="M487.16,-59.32C479.24,-58.35 471.11,-57.35 463.11,-56.37"/>
<polygon fill="#63b8ff" stroke="#63b8ff" points="486.71,-62.8 497.06,-60.54 487.57,-55.85 486.71,-62.8"/>
</a>
</g>
</g>
<!-- Node9 -->
<g id="Node000009" class="node">
<title>Node9</title>
<g id="a_Node000009"><a xlink:href="../../d1/de6/mac_2hid_8c.html#a6017e697733bf1fba149c4302a72e218" target="_top" xlink:title=" ">
<polygon fill="white" stroke="#666666" points="427.5,-20 360.5,-20 360.5,0 427.5,0 427.5,-20"/>
<text xml:space="preserve" text-anchor="middle" x="394" y="-6.5" font-family="Helvetica,sans-Serif" font-size="10.00">read_thread</text>
</a>
</g>
</g>
<!-- Node1&#45;&gt;Node9 -->
<g id="edge8_Node000001_Node000009" class="edge">
<title>Node1&#45;&gt;Node9</title>
<g id="a_edge8_Node000001_Node000009"><a xlink:title=" ">
<path fill="none" stroke="#63b8ff" d="M518.11,-51.95C501.8,-44.49 481.45,-35.67 462.75,-29 451.48,-24.98 438.9,-21.25 427.68,-18.18"/>
<polygon fill="#63b8ff" stroke="#63b8ff" points="516.27,-54.96 526.81,-55.99 519.21,-48.61 516.27,-54.96"/>
</a>
</g>
</g>
<!-- Node3 -->
<g id="Node000003" class="node">
<title>Node3</title>
<g id="a_Node000003"><a xlink:href="../../d6/dcf/libusb_2hid_8c.html#a0ffec47d88af6f2b51bb2d175a014c5a" target="_top" xlink:title=" ">
<polygon fill="white" stroke="#666666" points="289.25,-153 173.5,-153 173.5,-133 289.25,-133 289.25,-153"/>
<text xml:space="preserve" text-anchor="middle" x="231.38" y="-139.5" font-family="Helvetica,sans-Serif" font-size="10.00">hidapi_initialize_device</text>
</a>
</g>
</g>
<!-- Node2&#45;&gt;Node3 -->
<g id="edge2_Node000002_Node000003" class="edge">
<title>Node2&#45;&gt;Node3</title>
<g id="a_edge2_Node000002_Node000003"><a xlink:title=" ">
<path fill="none" stroke="#63b8ff" d="M317.64,-132.91C308.21,-134.03 298.69,-135.16 289.6,-136.23"/>
<polygon fill="#63b8ff" stroke="#63b8ff" points="318.03,-136.39 327.55,-131.74 317.21,-129.44 318.03,-136.39"/>
</a>
</g>
</g>
<!-- Node6 -->
<g id="Node000006" class="node">
<title>Node6</title>
<g id="a_Node000006"><a xlink:href="../../d6/dcf/libusb_2hid_8c.html#a6017e697733bf1fba149c4302a72e218" target="_top" xlink:title=" ">
<polygon fill="white" stroke="#666666" points="264.88,-115 197.88,-115 197.88,-95 264.88,-95 264.88,-115"/>
<text xml:space="preserve" text-anchor="middle" x="231.38" y="-101.5" font-family="Helvetica,sans-Serif" font-size="10.00">read_thread</text>
</a>
</g>
</g>
<!-- Node2&#45;&gt;Node6 -->
<g id="edge5_Node000002_Node000006" class="edge">
<title>Node2&#45;&gt;Node6</title>
<g id="a_edge5_Node000002_Node000006"><a xlink:title=" ">
<path fill="none" stroke="#63b8ff" d="M317.66,-115.09C299.24,-112.91 280.46,-110.69 265.23,-108.89"/>
<polygon fill="#63b8ff" stroke="#63b8ff" points="317.21,-118.56 327.55,-116.26 318.03,-111.61 317.21,-118.56"/>
</a>
</g>
</g>
<!-- Node4 -->
<g id="Node000004" class="node">
<title>Node4</title>
<g id="a_Node000004"><a xlink:href="../../dc/d19/group__API.html#ga79ee22c410d586c3d75f360eb8752595" target="_top" xlink:title="Open a HID device using libusb_wrap_sys_device. See https://libusb.sourceforge.io/api&#45;1....">
<polygon fill="white" stroke="#666666" points="122.12,-181 15.38,-181 15.38,-149 122.12,-149 122.12,-181"/>
<text xml:space="preserve" text-anchor="start" x="23.38" y="-167.5" font-family="Helvetica,sans-Serif" font-size="10.00">hid_libusb_wrap_sys</text>
<text xml:space="preserve" text-anchor="middle" x="68.75" y="-155.5" font-family="Helvetica,sans-Serif" font-size="10.00">_device</text>
</a>
</g>
</g>
<!-- Node3&#45;&gt;Node4 -->
<g id="edge3_Node000003_Node000004" class="edge">
<title>Node3&#45;&gt;Node4</title>
<g id="a_edge3_Node000003_Node000004"><a xlink:title=" ">
<path fill="none" stroke="#63b8ff" d="M161.89,-152.38C148.75,-154.18 135.18,-156.04 122.62,-157.76"/>
<polygon fill="#63b8ff" stroke="#63b8ff" points="162.36,-155.85 171.79,-151.02 161.41,-148.91 162.36,-155.85"/>
</a>
</g>
</g>
<!-- Node5 -->
<g id="Node000005" class="node">
<title>Node5</title>
<g id="a_Node000005"><a xlink:href="../../d6/dcf/libusb_2hid_8c.html#a0e569381b03120d85110c54f4cdff5b5" target="_top" xlink:title=" ">
<polygon fill="white" stroke="#666666" points="137.5,-131 0,-131 0,-111 137.5,-111 137.5,-131"/>
<text xml:space="preserve" text-anchor="middle" x="68.75" y="-117.5" font-family="Helvetica,sans-Serif" font-size="10.00">PLATFORM_hid_open_path</text>
</a>
</g>
</g>
<!-- Node3&#45;&gt;Node5 -->
<g id="edge4_Node000003_Node000005" class="edge">
<title>Node3&#45;&gt;Node5</title>
<g id="a_edge4_Node000003_Node000005"><a xlink:title=" ">
<path fill="none" stroke="#63b8ff" d="M162.11,-133.65C154.1,-132.55 145.92,-131.43 137.91,-130.34"/>
<polygon fill="#63b8ff" stroke="#63b8ff" points="161.41,-137.09 171.79,-134.98 162.36,-130.15 161.41,-137.09"/>
</a>
</g>
</g>
</g>
</svg>
