<?xml version="1.0" encoding="UTF-8" standalone="no"?>
<!DOCTYPE svg PUBLIC "-//W3C//DTD SVG 1.1//EN"
 "http://www.w3.org/Graphics/SVG/1.1/DTD/svg11.dtd">
<!-- Generated by graphviz version 13.1.0 (20250701.0955)
 -->
<!-- Title: get_usage_pairs Pages: 1 -->
<svg width="600pt" height="104pt"
 viewBox="0.00 0.00 600.00 104.00" xmlns="http://www.w3.org/2000/svg" xmlns:xlink="http://www.w3.org/1999/xlink">
<g id="graph0" class="graph" transform="scale(1 1) rotate(0) translate(4 100)">
<title>get_usage_pairs</title>
<!-- Node1 -->
<g id="Node000001" class="node">
<title>Node1</title>
<g id="a_Node000001"><a xlink:title=" ">
<polygon fill="#999999" stroke="#666666" points="592,-58 504.75,-58 504.75,-38 592,-38 592,-58"/>
<text xml:space="preserve" text-anchor="middle" x="548.38" y="-44.5" font-family="Helvetica,sans-Serif" font-size="10.00">get_usage_pairs</text>
</a>
</g>
</g>
<!-- Node2 -->
<g id="Node000002" class="node">
<title>Node2</title>
<g id="a_Node000002"><a xlink:href="../../d1/de6/mac_2hid_8c.html#a1132c2be289aeb99e5ec27e6dd0cfb0b" target="_top" xlink:title=" ">
<polygon fill="white" stroke="#666666" points="468.75,-58 371,-58 371,-38 468.75,-38 468.75,-58"/>
<text xml:space="preserve" text-anchor="middle" x="419.88" y="-44.5" font-family="Helvetica,sans-Serif" font-size="10.00">create_device_info</text>
</a>
</g>
</g>
<!-- Node1&#45;&gt;Node2 -->
<g id="edge1_Node000001_Node000002" class="edge">
<title>Node1&#45;&gt;Node2</title>
<g id="a_edge1_Node000001_Node000002"><a xlink:title=" ">
<path fill="none" stroke="#63b8ff" d="M493.28,-48C485.17,-48 476.85,-48 468.88,-48"/>
<polygon fill="#63b8ff" stroke="#63b8ff" points="493.03,-51.5 503.03,-48 493.03,-44.5 493.03,-51.5"/>
</a>
</g>
</g>
<!-- Node3 -->
<g id="Node000003" class="node">
<title>Node3</title>
<g id="a_Node000003"><a xlink:href="../../d6/d93/netbsd_2hid_8c.html#a2854cca5b54881d5377122bbf3d4ef6f" target="_top" xlink:title=" ">
<polygon fill="white" stroke="#666666" points="315.12,-96 194.12,-96 194.12,-76 315.12,-76 315.12,-96"/>
<text xml:space="preserve" text-anchor="middle" x="254.62" y="-82.5" font-family="Helvetica,sans-Serif" font-size="10.00">hid_enumerate_callback</text>
</a>
</g>
</g>
<!-- Node2&#45;&gt;Node3 -->
<g id="edge2_Node000002_Node000003" class="edge">
<title>Node2&#45;&gt;Node3</title>
<g id="a_edge2_Node000002_Node000003"><a xlink:title=" ">
<path fill="none" stroke="#63b8ff" d="M362.81,-61.05C342.47,-65.78 319.77,-71.07 300.52,-75.55"/>
<polygon fill="#63b8ff" stroke="#63b8ff" points="363.41,-64.5 372.36,-58.83 361.83,-57.69 363.41,-64.5"/>
</a>
</g>
</g>
<!-- Node5 -->
<g id="Node000005" class="node">
<title>Node5</title>
<g id="a_Node000005"><a xlink:href="../../d1/de6/mac_2hid_8c.html#af0dea306823d0667824a60d703dc3583" target="_top" xlink:title=" ">
<polygon fill="white" stroke="#666666" points="323.75,-58 185.5,-58 185.5,-38 323.75,-38 323.75,-58"/>
<text xml:space="preserve" text-anchor="middle" x="254.62" y="-44.5" font-family="Helvetica,sans-Serif" font-size="10.00">PLATFORM_hid_enumerate</text>
</a>
</g>
</g>
<!-- Node2&#45;&gt;Node5 -->
<g id="edge4_Node000002_Node000005" class="edge">
<title>Node2&#45;&gt;Node5</title>
<g id="a_edge4_Node000002_Node000005"><a xlink:title=" ">
<path fill="none" stroke="#63b8ff" d="M359.56,-48C348.09,-48 335.98,-48 324.24,-48"/>
<polygon fill="#63b8ff" stroke="#63b8ff" points="359.26,-51.5 369.26,-48 359.26,-44.5 359.26,-51.5"/>
</a>
</g>
</g>
<!-- Node6 -->
<g id="Node000006" class="node">
<title>Node6</title>
<g id="a_Node000006"><a xlink:href="../../d1/de6/mac_2hid_8c.html#a0fb3a037bb3d94c05c7f670e66a14ed8" target="_top" xlink:title=" ">
<polygon fill="white" stroke="#666666" points="335,-20 174.25,-20 174.25,0 335,0 335,-20"/>
<text xml:space="preserve" text-anchor="middle" x="254.62" y="-6.5" font-family="Helvetica,sans-Serif" font-size="10.00">PLATFORM_hid_get_device_info</text>
</a>
</g>
</g>
<!-- Node2&#45;&gt;Node6 -->
<g id="edge5_Node000002_Node000006" class="edge">
<title>Node2&#45;&gt;Node6</title>
<g id="a_edge5_Node000002_Node000006"><a xlink:title=" ">
<path fill="none" stroke="#63b8ff" d="M362.81,-34.95C342.47,-30.22 319.77,-24.93 300.52,-20.45"/>
<polygon fill="#63b8ff" stroke="#63b8ff" points="361.83,-38.31 372.36,-37.17 363.41,-31.5 361.83,-38.31"/>
</a>
</g>
</g>
<!-- Node4 -->
<g id="Node000004" class="node">
<title>Node4</title>
<g id="a_Node000004"><a xlink:href="../../d6/d93/netbsd_2hid_8c.html#af0dea306823d0667824a60d703dc3583" target="_top" xlink:title=" ">
<polygon fill="white" stroke="#666666" points="138.25,-96 0,-96 0,-76 138.25,-76 138.25,-96"/>
<text xml:space="preserve" text-anchor="middle" x="69.12" y="-82.5" font-family="Helvetica,sans-Serif" font-size="10.00">PLATFORM_hid_enumerate</text>
</a>
</g>
</g>
<!-- Node3&#45;&gt;Node4 -->
<g id="edge3_Node000003_Node000004" class="edge">
<title>Node3&#45;&gt;Node4</title>
<g id="a_edge3_Node000003_Node000004"><a xlink:title=" ">
<path fill="none" stroke="#63b8ff" d="M182.4,-86C167.96,-86 152.81,-86 138.47,-86"/>
<polygon fill="#63b8ff" stroke="#63b8ff" points="182.28,-89.5 192.28,-86 182.28,-82.5 182.28,-89.5"/>
</a>
</g>
</g>
</g>
</svg>
