<?xml version="1.0" encoding="UTF-8" standalone="no"?>
<!DOCTYPE svg PUBLIC "-//W3C//DTD SVG 1.1//EN"
 "http://www.w3.org/Graphics/SVG/1.1/DTD/svg11.dtd">
<!-- Generated by graphviz version 13.1.0 (20250701.0955)
 -->
<!-- Title: get_int_property Pages: 1 -->
<!--zoomable 226 -->

<svg id="main" version="1.1" xmlns="http://www.w3.org/2000/svg" xmlns:xlink="http://www.w3.org/1999/xlink" xml:space="preserve" onload="init(evt)">

<style type="text/css"><![CDATA[
.node, .edge {opacity: 0.7;}
.node.selected, .edge.selected {opacity: 1;}
.edge:hover path { stroke: red; }
.edge:hover polygon { stroke: red; fill: red; }
]]></style>

<defs>
  <circle id="rim" cx="0" cy="0" r="7"/>
  <circle id="rim2" cx="0" cy="0" r="3.5"/>
  <g id="zoomPlus">
    <use xlink:href="#rim" fill="#404040"><set attributeName="fill" to="#808080" begin="zoomplus.mouseover" end="zoomplus.mouseout"/></use>
    <path d="M-4,0h8M0,-4v8" fill="none" stroke="white" stroke-width="1.5" pointer-events="none"/>
  </g>
  <g id="zoomMin">
    <use xlink:href="#rim" fill="#404040"><set attributeName="fill" to="#808080" begin="zoomminus.mouseover" end="zoomminus.mouseout"/></use>
    <path d="M-4,0h8" fill="none" stroke="white" stroke-width="1.5" pointer-events="none"/>
  </g>
  <g id="arrowUp" transform="translate(30 24)">
    <use xlink:href="#rim"/>
    <path pointer-events="none" fill="none" stroke="white" stroke-width="1.5" d="M0,-3.0v7 M-2.5,-0.5L0,-3.0L2.5,-0.5"/>
  </g>
  <g id="arrowRight" transform="rotate(90) translate(36 -43)">
    <use xlink:href="#rim"/>
    <path pointer-events="none" fill="none" stroke="white" stroke-width="1.5" d="M0,-3.0v7 M-2.5,-0.5L0,-3.0L2.5,-0.5"/>
  </g>
  <g id="arrowDown" transform="rotate(180) translate(-30 -48)">
    <use xlink:href="#rim"/>
    <path pointer-events="none" fill="none" stroke="white" stroke-width="1.5" d="M0,-3.0v7 M-2.5,-0.5L0,-3.0L2.5,-0.5"/>
  </g>
  <g id="arrowLeft" transform="rotate(270) translate(-36 17)">
    <use xlink:href="#rim"/>
    <path pointer-events="none" fill="none" stroke="white" stroke-width="1.5" d="M0,-3.0v7 M-2.5,-0.5L0,-3.0L2.5,-0.5"/>
  </g>
  <g id="resetDef">
    <use xlink:href="#rim2" fill="#404040"><set attributeName="fill" to="#808080" begin="reset.mouseover" end="reset.mouseout"/></use>
  </g>
</defs>
<script type="application/ecmascript">
var viewWidth = 941;
var viewHeight = 226;
var sectionId = 'dynsection-11';
</script>
<script type="application/ecmascript" xlink:href="../../svg.min.js"/>
<svg id="graph" class="graph">
<g id="viewport">
<title>get_int_property</title>
<!-- Node1 -->
<g id="Node000001" class="node">
<title>Node1</title>
<g id="a_Node000001"><a xlink:title=" ">
<polygon fill="#999999" stroke="#666666" points="933,-115 847.25,-115 847.25,-95 933,-95 933,-115"/>
<text xml:space="preserve" text-anchor="middle" x="890.12" y="-101.5" font-family="Helvetica,sans-Serif" font-size="10.00">get_int_property</text>
</a>
</g>
</g>
<!-- Node2 -->
<g id="Node000002" class="node">
<title>Node2</title>
<g id="a_Node000002"><a xlink:href="../../d1/de6/mac_2hid_8c.html#a1132c2be289aeb99e5ec27e6dd0cfb0b" target="_top" xlink:title=" ">
<polygon fill="white" stroke="#666666" points="468.75,-180 371,-180 371,-160 468.75,-160 468.75,-180"/>
<text xml:space="preserve" text-anchor="middle" x="419.88" y="-166.5" font-family="Helvetica,sans-Serif" font-size="10.00">create_device_info</text>
</a>
</g>
</g>
<!-- Node1&#45;&gt;Node2 -->
<g id="edge1_Node000001_Node000002" class="edge">
<title>Node1&#45;&gt;Node2</title>
<g id="a_edge1_Node000001_Node000002"><a xlink:title=" ">
<path fill="none" stroke="#63b8ff" d="M871.11,-123.26C856.42,-136.78 834.38,-154.18 811.25,-162 693.58,-201.8 544.34,-188.72 469.03,-178.07"/>
<polygon fill="#63b8ff" stroke="#63b8ff" points="873.36,-125.95 878.15,-116.5 868.51,-120.89 873.36,-125.95"/>
</a>
</g>
</g>
<!-- Node7 -->
<g id="Node000007" class="node">
<title>Node7</title>
<g id="a_Node000007"><a xlink:href="../../d1/de6/mac_2hid_8c.html#ad5fe9b15b69dc5f6d8f34091c0b95fac" target="_top" xlink:title=" ">
<polygon fill="white" stroke="#666666" points="622.38,-156 524.62,-156 524.62,-124 622.38,-124 622.38,-156"/>
<text xml:space="preserve" text-anchor="start" x="532.62" y="-142.5" font-family="Helvetica,sans-Serif" font-size="10.00">create_device_info</text>
<text xml:space="preserve" text-anchor="middle" x="573.5" y="-130.5" font-family="Helvetica,sans-Serif" font-size="10.00">_with_usage</text>
</a>
</g>
</g>
<!-- Node1&#45;&gt;Node7 -->
<g id="edge6_Node000001_Node000007" class="edge">
<title>Node1&#45;&gt;Node7</title>
<g id="a_edge6_Node000001_Node000007"><a xlink:title=" ">
<path fill="none" stroke="#63b8ff" d="M863.4,-121.24C848.73,-129.53 829.65,-138.75 811.25,-143 747.37,-157.75 671.19,-152.96 622.83,-147.25"/>
<polygon fill="#63b8ff" stroke="#63b8ff" points="865.08,-124.31 871.92,-116.22 861.53,-118.28 865.08,-124.31"/>
</a>
</g>
</g>
<!-- Node8 -->
<g id="Node000008" class="node">
<title>Node8</title>
<g id="a_Node000008"><a xlink:href="../../d1/de6/mac_2hid_8c.html#ad4f68fd163af542b35715bcec7bf3f79" target="_top" xlink:title=" ">
<polygon fill="white" stroke="#666666" points="802.25,-58 687.25,-58 687.25,-38 802.25,-38 802.25,-58"/>
<text xml:space="preserve" text-anchor="middle" x="744.75" y="-44.5" font-family="Helvetica,sans-Serif" font-size="10.00">get_max_report_length</text>
</a>
</g>
</g>
<!-- Node1&#45;&gt;Node8 -->
<g id="edge8_Node000001_Node000008" class="edge">
<title>Node1&#45;&gt;Node8</title>
<g id="a_edge8_Node000001_Node000008"><a xlink:title=" ">
<path fill="none" stroke="#63b8ff" d="M860.18,-89.4C845.74,-82 827.85,-73.4 811.25,-67 803.19,-63.89 794.39,-61.01 785.95,-58.48"/>
<polygon fill="#63b8ff" stroke="#63b8ff" points="858.19,-92.31 868.67,-93.83 861.42,-86.1 858.19,-92.31"/>
</a>
</g>
</g>
<!-- Node10 -->
<g id="Node000010" class="node">
<title>Node10</title>
<g id="a_Node000010"><a xlink:href="../../d1/de6/mac_2hid_8c.html#ace800f18291d079aa16f3c1b250277d6" target="_top" xlink:title=" ">
<polygon fill="white" stroke="#666666" points="784.62,-134 704.88,-134 704.88,-114 784.62,-114 784.62,-134"/>
<text xml:space="preserve" text-anchor="middle" x="744.75" y="-120.5" font-family="Helvetica,sans-Serif" font-size="10.00">get_product_id</text>
</a>
</g>
</g>
<!-- Node1&#45;&gt;Node10 -->
<g id="edge10_Node000001_Node000010" class="edge">
<title>Node1&#45;&gt;Node10</title>
<g id="a_edge10_Node000001_Node000010"><a xlink:title=" ">
<path fill="none" stroke="#63b8ff" d="M835.5,-112.11C818.65,-114.34 800.38,-116.76 784.75,-118.83"/>
<polygon fill="#63b8ff" stroke="#63b8ff" points="835.93,-115.58 845.38,-110.8 835.01,-108.64 835.93,-115.58"/>
</a>
</g>
</g>
<!-- Node11 -->
<g id="Node000011" class="node">
<title>Node11</title>
<g id="a_Node000011"><a xlink:href="../../d1/de6/mac_2hid_8c.html#a43627019106275441c6987e0745f7dda" target="_top" xlink:title=" ">
<polygon fill="white" stroke="#666666" points="783.12,-96 706.38,-96 706.38,-76 783.12,-76 783.12,-96"/>
<text xml:space="preserve" text-anchor="middle" x="744.75" y="-82.5" font-family="Helvetica,sans-Serif" font-size="10.00">get_vendor_id</text>
</a>
</g>
</g>
<!-- Node1&#45;&gt;Node11 -->
<g id="edge12_Node000001_Node000011" class="edge">
<title>Node1&#45;&gt;Node11</title>
<g id="a_edge12_Node000001_Node000011"><a xlink:title=" ">
<path fill="none" stroke="#63b8ff" d="M835.7,-97.92C818.28,-95.61 799.31,-93.1 783.3,-90.98"/>
<polygon fill="#63b8ff" stroke="#63b8ff" points="835.01,-101.36 845.38,-99.2 835.93,-94.42 835.01,-101.36"/>
</a>
</g>
</g>
<!-- Node12 -->
<g id="Node000012" class="node">
<title>Node12</title>
<g id="a_Node000012"><a xlink:href="../../dc/d19/group__API.html#ga107c938f448ffb1a1f866790f43947a9" target="_top" xlink:title="Get the location ID for a HID device.">
<polygon fill="white" stroke="#666666" points="811.25,-20 678.25,-20 678.25,0 811.25,0 811.25,-20"/>
<text xml:space="preserve" text-anchor="middle" x="744.75" y="-6.5" font-family="Helvetica,sans-Serif" font-size="10.00">hid_darwin_get_location_id</text>
</a>
</g>
</g>
<!-- Node1&#45;&gt;Node12 -->
<g id="edge14_Node000001_Node000012" class="edge">
<title>Node1&#45;&gt;Node12</title>
<g id="a_edge14_Node000001_Node000012"><a xlink:title=" ">
<path fill="none" stroke="#63b8ff" d="M874.21,-85.81C859.83,-68.58 836.59,-43.77 811.25,-29 805.42,-25.6 798.94,-22.77 792.38,-20.43"/>
<polygon fill="#63b8ff" stroke="#63b8ff" points="871.27,-87.75 880.28,-93.32 876.71,-83.35 871.27,-87.75"/>
</a>
</g>
</g>
<!-- Node3 -->
<g id="Node000003" class="node">
<title>Node3</title>
<g id="a_Node000003"><a xlink:href="../../d6/d93/netbsd_2hid_8c.html#a2854cca5b54881d5377122bbf3d4ef6f" target="_top" xlink:title=" ">
<polygon fill="white" stroke="#666666" points="315.12,-218 194.12,-218 194.12,-198 315.12,-198 315.12,-218"/>
<text xml:space="preserve" text-anchor="middle" x="254.62" y="-204.5" font-family="Helvetica,sans-Serif" font-size="10.00">hid_enumerate_callback</text>
</a>
</g>
</g>
<!-- Node2&#45;&gt;Node3 -->
<g id="edge2_Node000002_Node000003" class="edge">
<title>Node2&#45;&gt;Node3</title>
<g id="a_edge2_Node000002_Node000003"><a xlink:title=" ">
<path fill="none" stroke="#63b8ff" d="M362.81,-183.05C342.47,-187.78 319.77,-193.07 300.52,-197.55"/>
<polygon fill="#63b8ff" stroke="#63b8ff" points="363.41,-186.5 372.36,-180.83 361.83,-179.69 363.41,-186.5"/>
</a>
</g>
</g>
<!-- Node5 -->
<g id="Node000005" class="node">
<title>Node5</title>
<g id="a_Node000005"><a xlink:href="../../d1/de6/mac_2hid_8c.html#af0dea306823d0667824a60d703dc3583" target="_top" xlink:title=" ">
<polygon fill="white" stroke="#666666" points="323.75,-180 185.5,-180 185.5,-160 323.75,-160 323.75,-180"/>
<text xml:space="preserve" text-anchor="middle" x="254.62" y="-166.5" font-family="Helvetica,sans-Serif" font-size="10.00">PLATFORM_hid_enumerate</text>
</a>
</g>
</g>
<!-- Node2&#45;&gt;Node5 -->
<g id="edge4_Node000002_Node000005" class="edge">
<title>Node2&#45;&gt;Node5</title>
<g id="a_edge4_Node000002_Node000005"><a xlink:title=" ">
<path fill="none" stroke="#63b8ff" d="M359.56,-170C348.09,-170 335.98,-170 324.24,-170"/>
<polygon fill="#63b8ff" stroke="#63b8ff" points="359.26,-173.5 369.26,-170 359.26,-166.5 359.26,-173.5"/>
</a>
</g>
</g>
<!-- Node6 -->
<g id="Node000006" class="node">
<title>Node6</title>
<g id="a_Node000006"><a xlink:href="../../d1/de6/mac_2hid_8c.html#a0fb3a037bb3d94c05c7f670e66a14ed8" target="_top" xlink:title=" ">
<polygon fill="white" stroke="#666666" points="335,-142 174.25,-142 174.25,-122 335,-122 335,-142"/>
<text xml:space="preserve" text-anchor="middle" x="254.62" y="-128.5" font-family="Helvetica,sans-Serif" font-size="10.00">PLATFORM_hid_get_device_info</text>
</a>
</g>
</g>
<!-- Node2&#45;&gt;Node6 -->
<g id="edge5_Node000002_Node000006" class="edge">
<title>Node2&#45;&gt;Node6</title>
<g id="a_edge5_Node000002_Node000006"><a xlink:title=" ">
<path fill="none" stroke="#63b8ff" d="M362.81,-156.95C342.47,-152.22 319.77,-146.93 300.52,-142.45"/>
<polygon fill="#63b8ff" stroke="#63b8ff" points="361.83,-160.31 372.36,-159.17 363.41,-153.5 361.83,-160.31"/>
</a>
</g>
</g>
<!-- Node4 -->
<g id="Node000004" class="node">
<title>Node4</title>
<g id="a_Node000004"><a xlink:href="../../d6/d93/netbsd_2hid_8c.html#af0dea306823d0667824a60d703dc3583" target="_top" xlink:title=" ">
<polygon fill="white" stroke="#666666" points="138.25,-218 0,-218 0,-198 138.25,-198 138.25,-218"/>
<text xml:space="preserve" text-anchor="middle" x="69.12" y="-204.5" font-family="Helvetica,sans-Serif" font-size="10.00">PLATFORM_hid_enumerate</text>
</a>
</g>
</g>
<!-- Node3&#45;&gt;Node4 -->
<g id="edge3_Node000003_Node000004" class="edge">
<title>Node3&#45;&gt;Node4</title>
<g id="a_edge3_Node000003_Node000004"><a xlink:title=" ">
<path fill="none" stroke="#63b8ff" d="M182.4,-208C167.96,-208 152.81,-208 138.47,-208"/>
<polygon fill="#63b8ff" stroke="#63b8ff" points="182.28,-211.5 192.28,-208 182.28,-204.5 182.28,-211.5"/>
</a>
</g>
</g>
<!-- Node7&#45;&gt;Node2 -->
<g id="edge7_Node000007_Node000002" class="edge">
<title>Node7&#45;&gt;Node2</title>
<g id="a_edge7_Node000007_Node000002"><a xlink:title=" ">
<path fill="none" stroke="#63b8ff" d="M513.49,-151.68C498.78,-154.59 483.18,-157.67 469.06,-160.47"/>
<polygon fill="#63b8ff" stroke="#63b8ff" points="513.91,-155.16 523.04,-149.79 512.55,-148.29 513.91,-155.16"/>
</a>
</g>
</g>
<!-- Node9 -->
<g id="Node000009" class="node">
<title>Node9</title>
<g id="a_Node000009"><a xlink:href="../../d1/de6/mac_2hid_8c.html#a0e569381b03120d85110c54f4cdff5b5" target="_top" xlink:title=" ">
<polygon fill="white" stroke="#666666" points="642.25,-58 504.75,-58 504.75,-38 642.25,-38 642.25,-58"/>
<text xml:space="preserve" text-anchor="middle" x="573.5" y="-44.5" font-family="Helvetica,sans-Serif" font-size="10.00">PLATFORM_hid_open_path</text>
</a>
</g>
</g>
<!-- Node8&#45;&gt;Node9 -->
<g id="edge9_Node000008_Node000009" class="edge">
<title>Node8&#45;&gt;Node9</title>
<g id="a_edge9_Node000008_Node000009"><a xlink:title=" ">
<path fill="none" stroke="#63b8ff" d="M675.73,-48C664.82,-48 653.53,-48 642.62,-48"/>
<polygon fill="#63b8ff" stroke="#63b8ff" points="675.41,-51.5 685.41,-48 675.41,-44.5 675.41,-51.5"/>
</a>
</g>
</g>
<!-- Node10&#45;&gt;Node7 -->
<g id="edge11_Node000010_Node000007" class="edge">
<title>Node10&#45;&gt;Node7</title>
<g id="a_edge11_Node000010_Node000007"><a xlink:title=" ">
<path fill="none" stroke="#63b8ff" d="M693.19,-128.78C670.84,-130.89 644.67,-133.37 622.6,-135.45"/>
<polygon fill="#63b8ff" stroke="#63b8ff" points="693.36,-132.28 702.99,-127.85 692.7,-125.31 693.36,-132.28"/>
</a>
</g>
</g>
<!-- Node11&#45;&gt;Node7 -->
<g id="edge13_Node000011_Node000007" class="edge">
<title>Node11&#45;&gt;Node7</title>
<g id="a_edge13_Node000011_Node000007"><a xlink:title=" ">
<path fill="none" stroke="#63b8ff" d="M695.96,-99.6C689.99,-101.38 683.97,-103.21 678.25,-105 659.75,-110.8 639.52,-117.54 621.88,-123.54"/>
<polygon fill="#63b8ff" stroke="#63b8ff" points="696.54,-103.08 705.15,-96.9 694.57,-96.36 696.54,-103.08"/>
</a>
</g>
</g>
</g>
</svg>

<g id="navigator" transform="translate(0 0)" fill="#404254">
  <rect fill="#f2f5e9" fill-opacity="0.5" stroke="#606060" stroke-width=".5" x="0" y="0" width="60" height="60"/>
  <use id="zoomplus" xlink:href="#zoomPlus" x="17" y="9" onmousedown="handleZoom(evt,'in')"/>
  <use id="zoomminus" xlink:href="#zoomMin" x="42" y="9" onmousedown="handleZoom(evt,'out')"/>
  <use id="reset" xlink:href="#resetDef" x="30" y="36" onmousedown="handleReset()"/>
   <use id="arrowup" xlink:href="#arrowUp" x="0" y="0" onmousedown="handlePan(0,-1)"/>
  <use id="arrowright" xlink:href="#arrowRight" x="0" y="0" onmousedown="handlePan(1,0)"/>
  <use id="arrowdown" xlink:href="#arrowDown" x="0" y="0" onmousedown="handlePan(0,1)"/>
  <use id="arrowleft" xlink:href="#arrowLeft" x="0" y="0" onmousedown="handlePan(-1,0)"/>
</g>
<svg viewBox="0 0 15 15" width="100%" height="30px" preserveAspectRatio="xMaxYMin meet">
 <g id="arrow_out" transform="scale(0.3 0.3)">
  <a xlink:href="mac_2hid_8c_ad73ed47de084f89ce4af2fa1145cf047_icgraph_org.svg" target="_base">
   <rect id="button" ry="5" rx="5" y="6" x="6" height="38" width="38"
        fill="#f2f5e9" fill-opacity="0.5" stroke="#606060" stroke-width="1.0"/>
   <path id="arrow"
     d="M 11.500037,31.436501 C 11.940474,20.09759 22.043105,11.32322 32.158766,21.979434 L 37.068811,17.246167 C 37.068811,17.246167 37.088388,32 37.088388,32 L 22.160133,31.978069 C 22.160133,31.978069 26.997745,27.140456 26.997745,27.140456 C 18.528582,18.264221 13.291696,25.230495 11.500037,31.436501 z"
     style="fill:#404040;"/>
  </a>
 </g>
</svg>

<style type='text/css'>
<![CDATA[
[data-mouse-over-selected='false'] { opacity: 0.7; }
[data-mouse-over-selected='true']  { opacity: 1.0; }
]]>
</style>
<script type="application/ecmascript"><![CDATA[
document.addEventListener('DOMContentLoaded', (event) => {
  highlightEdges();
  highlightAdjacentNodes();
});
]]></script>
</svg>
