<?xml version="1.0" encoding="UTF-8" standalone="no"?>
<!DOCTYPE svg PUBLIC "-//W3C//DTD SVG 1.1//EN"
 "http://www.w3.org/Graphics/SVG/1.1/DTD/svg11.dtd">
<!-- Generated by graphviz version 13.1.0 (20250701.0955)
 -->
<!-- Title: VkDeviceFaultInfoEXT Pages: 1 -->
<svg width="326pt" height="102pt"
 viewBox="0.00 0.00 326.00 102.00" xmlns="http://www.w3.org/2000/svg" xmlns:xlink="http://www.w3.org/1999/xlink">
<g id="graph0" class="graph" transform="scale(1 1) rotate(0) translate(4 98)">
<title>VkDeviceFaultInfoEXT</title>
<!-- Node1 -->
<g id="Node000001" class="node">
<title>Node1</title>
<g id="a_Node000001"><a xlink:title=" ">
<polygon fill="#999999" stroke="#666666" points="218.5,-20 102,-20 102,0 218.5,0 218.5,-20"/>
<text xml:space="preserve" text-anchor="middle" x="160.25" y="-6.5" font-family="Helvetica,sans-Serif" font-size="10.00">VkDeviceFaultInfoEXT</text>
</a>
</g>
</g>
<!-- Node2 -->
<g id="Node000002" class="node">
<title>Node2</title>
<g id="a_Node000002"><a xlink:href="../../d4/df1/structVkDeviceFaultAddressInfoEXT.html" target="_top" xlink:title=" ">
<polygon fill="white" stroke="#666666" points="152.5,-94 0,-94 0,-74 152.5,-74 152.5,-94"/>
<text xml:space="preserve" text-anchor="middle" x="76.25" y="-80.5" font-family="Helvetica,sans-Serif" font-size="10.00">VkDeviceFaultAddressInfoEXT</text>
</a>
</g>
</g>
<!-- Node2&#45;&gt;Node1 -->
<g id="edge1_Node000001_Node000002" class="edge">
<title>Node2&#45;&gt;Node1</title>
<g id="a_edge1_Node000001_Node000002"><a xlink:title=" ">
<path fill="none" stroke="#9a32cd" stroke-dasharray="5,2" d="M95.68,-66.35C112.32,-52.08 135.68,-32.06 149.27,-20.42"/>
<polygon fill="#9a32cd" stroke="#9a32cd" points="93.7,-63.44 88.38,-72.6 98.25,-68.75 93.7,-63.44"/>
</a>
</g>
<text xml:space="preserve" text-anchor="start" x="131.24" y="-43.5" font-family="Helvetica,sans-Serif" font-size="10.00" fill="grey">pAddressInfos</text>
</g>
<!-- Node3 -->
<g id="Node000003" class="node">
<title>Node3</title>
<g id="a_Node000003"><a xlink:href="../../df/db9/structVkDeviceFaultVendorInfoEXT.html" target="_top" xlink:title=" ">
<polygon fill="white" stroke="#666666" points="317.5,-94 171,-94 171,-74 317.5,-74 317.5,-94"/>
<text xml:space="preserve" text-anchor="middle" x="244.25" y="-80.5" font-family="Helvetica,sans-Serif" font-size="10.00">VkDeviceFaultVendorInfoEXT</text>
</a>
</g>
</g>
<!-- Node3&#45;&gt;Node1 -->
<g id="edge2_Node000001_Node000003" class="edge">
<title>Node3&#45;&gt;Node1</title>
<g id="a_edge2_Node000001_Node000003"><a xlink:title=" ">
<path fill="none" stroke="#9a32cd" stroke-dasharray="5,2" d="M228.96,-65.2C221.1,-56.53 211.12,-46.23 201.25,-38 193.53,-31.56 184.21,-25.32 176.42,-20.46"/>
<polygon fill="#9a32cd" stroke="#9a32cd" points="226.31,-67.48 235.55,-72.66 231.55,-62.84 226.31,-67.48"/>
</a>
</g>
<text xml:space="preserve" text-anchor="start" x="222.91" y="-43.5" font-family="Helvetica,sans-Serif" font-size="10.00" fill="grey">pVendorInfos</text>
</g>
</g>
</svg>
