<?xml version="1.0" encoding="UTF-8" standalone="no"?>
<!DOCTYPE svg PUBLIC "-//W3C//DTD SVG 1.1//EN"
 "http://www.w3.org/Graphics/SVG/1.1/DTD/svg11.dtd">
<!-- Generated by graphviz version 13.1.0 (20250701.0955)
 -->
<!-- Title: SDL_RectsEqualEpsilon Pages: 1 -->
<svg width="452pt" height="28pt"
 viewBox="0.00 0.00 452.00 28.00" xmlns="http://www.w3.org/2000/svg" xmlns:xlink="http://www.w3.org/1999/xlink">
<g id="graph0" class="graph" transform="scale(1 1) rotate(0) translate(4 24)">
<title>SDL_RectsEqualEpsilon</title>
<!-- Node1 -->
<g id="Node000001" class="node">
<title>Node1</title>
<g id="a_Node000001"><a xlink:title=" ">
<polygon fill="#999999" stroke="#666666" points="124,-20 0,-20 0,0 124,0 124,-20"/>
<text xml:space="preserve" text-anchor="middle" x="62" y="-6.5" font-family="Helvetica,sans-Serif" font-size="10.00">SDL_RectsEqualEpsilon</text>
</a>
</g>
</g>
<!-- Node2 -->
<g id="Node000002" class="node">
<title>Node2</title>
<g id="a_Node000002"><a xlink:href="../../d3/d02/SDL__stdlib_8c.html#abf7b7019d7427e1f535ca9c911c2172a" target="_top" xlink:title=" ">
<polygon fill="white" stroke="#666666" points="222.5,-20 160,-20 160,0 222.5,0 222.5,-20"/>
<text xml:space="preserve" text-anchor="middle" x="191.25" y="-6.5" font-family="Helvetica,sans-Serif" font-size="10.00">SDL_fabsf</text>
</a>
</g>
</g>
<!-- Node1&#45;&gt;Node2 -->
<g id="edge1_Node000001_Node000002" class="edge">
<title>Node1&#45;&gt;Node2</title>
<g id="a_edge1_Node000001_Node000002"><a xlink:title=" ">
<path fill="none" stroke="#63b8ff" d="M124.39,-10C132.4,-10 140.45,-10 148.05,-10"/>
<polygon fill="#63b8ff" stroke="#63b8ff" points="148.01,-13.5 158.01,-10 148.01,-6.5 148.01,-13.5"/>
</a>
</g>
</g>
<!-- Node3 -->
<g id="Node000003" class="node">
<title>Node3</title>
<g id="a_Node000003"><a xlink:href="../../d3/d02/SDL__stdlib_8c.html#a827ffb37b67dd4b746a8a1b3d6c4caf1" target="_top" xlink:title=" ">
<polygon fill="white" stroke="#666666" points="318,-20 258.5,-20 258.5,0 318,0 318,-20"/>
<text xml:space="preserve" text-anchor="middle" x="288.25" y="-6.5" font-family="Helvetica,sans-Serif" font-size="10.00">SDL_fabs</text>
</a>
</g>
</g>
<!-- Node2&#45;&gt;Node3 -->
<g id="edge2_Node000002_Node000003" class="edge">
<title>Node2&#45;&gt;Node3</title>
<g id="a_edge2_Node000002_Node000003"><a xlink:title=" ">
<path fill="none" stroke="#63b8ff" d="M222.83,-10C230.41,-10 238.65,-10 246.63,-10"/>
<polygon fill="#63b8ff" stroke="#63b8ff" points="246.51,-13.5 256.51,-10 246.51,-6.5 246.51,-13.5"/>
</a>
</g>
</g>
<!-- Node4 -->
<g id="Node000004" class="node">
<title>Node4</title>
<g id="a_Node000004"><a xlink:href="../../dc/d49/s__fabs_8c.html#ab3ba83fc0468bd245bd1bb6518823b79" target="_top" xlink:title=" ">
<polygon fill="white" stroke="#666666" points="444.25,-20 354,-20 354,0 444.25,0 444.25,-20"/>
<text xml:space="preserve" text-anchor="middle" x="399.12" y="-6.5" font-family="Helvetica,sans-Serif" font-size="10.00">SDL_uclibc_fabs</text>
</a>
</g>
</g>
<!-- Node3&#45;&gt;Node4 -->
<g id="edge3_Node000003_Node000004" class="edge">
<title>Node3&#45;&gt;Node4</title>
<g id="a_edge3_Node000003_Node000004"><a xlink:title=" ">
<path fill="none" stroke="#63b8ff" d="M318.43,-10C325.87,-10 334.13,-10 342.43,-10"/>
<polygon fill="#63b8ff" stroke="#63b8ff" points="342.19,-13.5 352.19,-10 342.19,-6.5 342.19,-13.5"/>
</a>
</g>
</g>
</g>
</svg>
