<?xml version="1.0" encoding="UTF-8" standalone="no"?>
<!DOCTYPE svg PUBLIC "-//W3C//DTD SVG 1.1//EN"
 "http://www.w3.org/Graphics/SVG/1.1/DTD/svg11.dtd">
<!-- Generated by graphviz version 13.1.0 (20250701.0955)
 -->
<!-- Title: StdVideoEncodeH264PictureInfo Pages: 1 -->
<!--zoomable 148 -->

<svg id="main" version="1.1" xmlns="http://www.w3.org/2000/svg" xmlns:xlink="http://www.w3.org/1999/xlink" xml:space="preserve" onload="init(evt)">

<style type="text/css"><![CDATA[
.node, .edge {opacity: 0.7;}
.node.selected, .edge.selected {opacity: 1;}
.edge:hover path { stroke: red; }
.edge:hover polygon { stroke: red; fill: red; }
]]></style>

<defs>
  <circle id="rim" cx="0" cy="0" r="7"/>
  <circle id="rim2" cx="0" cy="0" r="3.5"/>
  <g id="zoomPlus">
    <use xlink:href="#rim" fill="#404040"><set attributeName="fill" to="#808080" begin="zoomplus.mouseover" end="zoomplus.mouseout"/></use>
    <path d="M-4,0h8M0,-4v8" fill="none" stroke="white" stroke-width="1.5" pointer-events="none"/>
  </g>
  <g id="zoomMin">
    <use xlink:href="#rim" fill="#404040"><set attributeName="fill" to="#808080" begin="zoomminus.mouseover" end="zoomminus.mouseout"/></use>
    <path d="M-4,0h8" fill="none" stroke="white" stroke-width="1.5" pointer-events="none"/>
  </g>
  <g id="arrowUp" transform="translate(30 24)">
    <use xlink:href="#rim"/>
    <path pointer-events="none" fill="none" stroke="white" stroke-width="1.5" d="M0,-3.0v7 M-2.5,-0.5L0,-3.0L2.5,-0.5"/>
  </g>
  <g id="arrowRight" transform="rotate(90) translate(36 -43)">
    <use xlink:href="#rim"/>
    <path pointer-events="none" fill="none" stroke="white" stroke-width="1.5" d="M0,-3.0v7 M-2.5,-0.5L0,-3.0L2.5,-0.5"/>
  </g>
  <g id="arrowDown" transform="rotate(180) translate(-30 -48)">
    <use xlink:href="#rim"/>
    <path pointer-events="none" fill="none" stroke="white" stroke-width="1.5" d="M0,-3.0v7 M-2.5,-0.5L0,-3.0L2.5,-0.5"/>
  </g>
  <g id="arrowLeft" transform="rotate(270) translate(-36 17)">
    <use xlink:href="#rim"/>
    <path pointer-events="none" fill="none" stroke="white" stroke-width="1.5" d="M0,-3.0v7 M-2.5,-0.5L0,-3.0L2.5,-0.5"/>
  </g>
  <g id="resetDef">
    <use xlink:href="#rim2" fill="#404040"><set attributeName="fill" to="#808080" begin="reset.mouseover" end="reset.mouseout"/></use>
  </g>
</defs>
<script type="application/ecmascript">
var viewWidth = 724;
var viewHeight = 148;
var sectionId = 'dynsection-0';
</script>
<script type="application/ecmascript" xlink:href="../../svg.min.js"/>
<svg id="graph" class="graph">
<g id="viewport">
<title>StdVideoEncodeH264PictureInfo</title>
<!-- Node1 -->
<g id="Node000001" class="node">
<title>Node1</title>
<g id="a_Node000001"><a xlink:title=" ">
<polygon fill="#999999" stroke="#666666" points="716.25,-101 557,-101 557,-81 716.25,-81 716.25,-101"/>
<text xml:space="preserve" text-anchor="middle" x="636.62" y="-87.5" font-family="Helvetica,sans-Serif" font-size="10.00">StdVideoEncodeH264PictureInfo</text>
</a>
</g>
</g>
<!-- Node2 -->
<g id="Node000002" class="node">
<title>Node2</title>
<g id="a_Node000002"><a xlink:href="../../d3/de9/structStdVideoEncodeH264PictureInfoFlags.html" target="_top" xlink:title=" ">
<polygon fill="white" stroke="#666666" points="465.88,-132 323.12,-132 323.12,-100 465.88,-100 465.88,-132"/>
<text xml:space="preserve" text-anchor="start" x="331.12" y="-118.5" font-family="Helvetica,sans-Serif" font-size="10.00">StdVideoEncodeH264Picture</text>
<text xml:space="preserve" text-anchor="middle" x="394.5" y="-106.5" font-family="Helvetica,sans-Serif" font-size="10.00">InfoFlags</text>
</a>
</g>
</g>
<!-- Node2&#45;&gt;Node1 -->
<g id="edge1_Node000001_Node000002" class="edge">
<title>Node2&#45;&gt;Node1</title>
<g id="a_edge1_Node000001_Node000002"><a xlink:title=" ">
<path fill="none" stroke="#9a32cd" stroke-dasharray="5,2" d="M477.42,-107.47C503,-104.81 531.17,-101.88 556.55,-99.23"/>
<polygon fill="#9a32cd" stroke="#9a32cd" points="477.34,-103.96 467.75,-108.48 478.06,-110.92 477.34,-103.96"/>
</a>
</g>
<text xml:space="preserve" text-anchor="start" x="504.5" y="-111.24" font-family="Helvetica,sans-Serif" font-size="10.00" fill="grey">flags</text>
</g>
<!-- Node3 -->
<g id="Node000003" class="node">
<title>Node3</title>
<g id="a_Node000003"><a xlink:href="../../dd/dfb/structStdVideoEncodeH264ReferenceListsInfo.html" target="_top" xlink:title=" ">
<polygon fill="white" stroke="#666666" points="473,-82 316,-82 316,-50 473,-50 473,-82"/>
<text xml:space="preserve" text-anchor="start" x="324" y="-68.5" font-family="Helvetica,sans-Serif" font-size="10.00">StdVideoEncodeH264Reference</text>
<text xml:space="preserve" text-anchor="middle" x="394.5" y="-56.5" font-family="Helvetica,sans-Serif" font-size="10.00">ListsInfo</text>
</a>
</g>
</g>
<!-- Node3&#45;&gt;Node1 -->
<g id="edge2_Node000001_Node000003" class="edge">
<title>Node3&#45;&gt;Node1</title>
<g id="a_edge2_Node000001_Node000003"><a xlink:title=" ">
<path fill="none" stroke="#9a32cd" stroke-dasharray="5,2" d="M484.75,-73.62C502.72,-75.29 521.47,-77.12 539,-79 544.71,-79.61 550.62,-80.28 556.55,-80.96"/>
<polygon fill="#9a32cd" stroke="#9a32cd" points="485.16,-70.14 474.88,-72.72 484.52,-77.12 485.16,-70.14"/>
</a>
</g>
<text xml:space="preserve" text-anchor="start" x="494" y="-84.5" font-family="Helvetica,sans-Serif" font-size="10.00" fill="grey">pRefLists</text>
</g>
<!-- Node4 -->
<g id="Node000004" class="node">
<title>Node4</title>
<g id="a_Node000004"><a xlink:href="../../d0/d3c/structStdVideoEncodeH264ReferenceListsInfoFlags.html" target="_top" xlink:title=" ">
<polygon fill="white" stroke="#666666" points="157,-139 0,-139 0,-107 157,-107 157,-139"/>
<text xml:space="preserve" text-anchor="start" x="8" y="-125.5" font-family="Helvetica,sans-Serif" font-size="10.00">StdVideoEncodeH264Reference</text>
<text xml:space="preserve" text-anchor="middle" x="78.5" y="-113.5" font-family="Helvetica,sans-Serif" font-size="10.00">ListsInfoFlags</text>
</a>
</g>
</g>
<!-- Node4&#45;&gt;Node3 -->
<g id="edge3_Node000003_Node000004" class="edge">
<title>Node4&#45;&gt;Node3</title>
<g id="a_edge3_Node000003_Node000004"><a xlink:title=" ">
<path fill="none" stroke="#9a32cd" stroke-dasharray="5,2" d="M168.79,-122.17C209.03,-119.74 256.69,-113.95 298,-101 306.73,-98.26 307.61,-94.64 316,-91 323,-87.96 330.5,-85.09 337.97,-82.45"/>
<polygon fill="#9a32cd" stroke="#9a32cd" points="168.69,-118.67 158.89,-122.7 169.06,-125.66 168.69,-118.67"/>
</a>
</g>
<text xml:space="preserve" text-anchor="start" x="226" y="-127.26" font-family="Helvetica,sans-Serif" font-size="10.00" fill="grey">flags</text>
</g>
<!-- Node5 -->
<g id="Node000005" class="node">
<title>Node5</title>
<g id="a_Node000005"><a xlink:href="../../de/dfd/structStdVideoEncodeH264RefListModEntry.html" target="_top" xlink:title=" ">
<polygon fill="white" stroke="#666666" points="150.25,-82 6.75,-82 6.75,-50 150.25,-50 150.25,-82"/>
<text xml:space="preserve" text-anchor="start" x="14.75" y="-68.5" font-family="Helvetica,sans-Serif" font-size="10.00">StdVideoEncodeH264RefList</text>
<text xml:space="preserve" text-anchor="middle" x="78.5" y="-56.5" font-family="Helvetica,sans-Serif" font-size="10.00">ModEntry</text>
</a>
</g>
</g>
<!-- Node5&#45;&gt;Node3 -->
<g id="edge4_Node000003_Node000005" class="edge">
<title>Node5&#45;&gt;Node3</title>
<g id="a_edge4_Node000003_Node000005"><a xlink:title=" ">
<path fill="none" stroke="#9a32cd" stroke-dasharray="5,2" d="M161.57,-66C209.21,-66 268.86,-66 315.74,-66"/>
<polygon fill="#9a32cd" stroke="#9a32cd" points="161.87,-62.5 151.87,-66 161.87,-69.5 161.87,-62.5"/>
</a>
</g>
<text xml:space="preserve" text-anchor="start" x="182.5" y="-87.5" font-family="Helvetica,sans-Serif" font-size="10.00" fill="grey">pRefList0ModOperations</text>
<text xml:space="preserve" text-anchor="start" x="182.5" y="-71.5" font-family="Helvetica,sans-Serif" font-size="10.00" fill="grey">pRefList1ModOperations</text>
</g>
<!-- Node6 -->
<g id="Node000006" class="node">
<title>Node6</title>
<g id="a_Node000006"><a xlink:href="../../d5/d3c/structStdVideoEncodeH264RefPicMarkingEntry.html" target="_top" xlink:title=" ">
<polygon fill="white" stroke="#666666" points="149.5,-32 7.5,-32 7.5,0 149.5,0 149.5,-32"/>
<text xml:space="preserve" text-anchor="start" x="15.5" y="-18.5" font-family="Helvetica,sans-Serif" font-size="10.00">StdVideoEncodeH264RefPic</text>
<text xml:space="preserve" text-anchor="middle" x="78.5" y="-6.5" font-family="Helvetica,sans-Serif" font-size="10.00">MarkingEntry</text>
</a>
</g>
</g>
<!-- Node6&#45;&gt;Node3 -->
<g id="edge5_Node000003_Node000006" class="edge">
<title>Node6&#45;&gt;Node3</title>
<g id="a_edge5_Node000003_Node000006"><a xlink:title=" ">
<path fill="none" stroke="#9a32cd" stroke-dasharray="5,2" d="M160.99,-24.5C202.21,-29.29 252.92,-35.94 298,-44 307.04,-45.62 316.52,-47.53 325.85,-49.54"/>
<polygon fill="#9a32cd" stroke="#9a32cd" points="161.47,-21.03 151.14,-23.37 160.68,-27.99 161.47,-21.03"/>
</a>
</g>
<text xml:space="preserve" text-anchor="start" x="178" y="-49.5" font-family="Helvetica,sans-Serif" font-size="10.00" fill="grey">pRefPicMarkingOperations</text>
</g>
</g>
</svg>

<g id="navigator" transform="translate(0 0)" fill="#404254">
  <rect fill="#f2f5e9" fill-opacity="0.5" stroke="#606060" stroke-width=".5" x="0" y="0" width="60" height="60"/>
  <use id="zoomplus" xlink:href="#zoomPlus" x="17" y="9" onmousedown="handleZoom(evt,'in')"/>
  <use id="zoomminus" xlink:href="#zoomMin" x="42" y="9" onmousedown="handleZoom(evt,'out')"/>
  <use id="reset" xlink:href="#resetDef" x="30" y="36" onmousedown="handleReset()"/>
   <use id="arrowup" xlink:href="#arrowUp" x="0" y="0" onmousedown="handlePan(0,-1)"/>
  <use id="arrowright" xlink:href="#arrowRight" x="0" y="0" onmousedown="handlePan(1,0)"/>
  <use id="arrowdown" xlink:href="#arrowDown" x="0" y="0" onmousedown="handlePan(0,1)"/>
  <use id="arrowleft" xlink:href="#arrowLeft" x="0" y="0" onmousedown="handlePan(-1,0)"/>
</g>
<svg viewBox="0 0 15 15" width="100%" height="30px" preserveAspectRatio="xMaxYMin meet">
 <g id="arrow_out" transform="scale(0.3 0.3)">
  <a xlink:href="structStdVideoEncodeH264PictureInfo__coll__graph_org.svg" target="_base">
   <rect id="button" ry="5" rx="5" y="6" x="6" height="38" width="38"
        fill="#f2f5e9" fill-opacity="0.5" stroke="#606060" stroke-width="1.0"/>
   <path id="arrow"
     d="M 11.500037,31.436501 C 11.940474,20.09759 22.043105,11.32322 32.158766,21.979434 L 37.068811,17.246167 C 37.068811,17.246167 37.088388,32 37.088388,32 L 22.160133,31.978069 C 22.160133,31.978069 26.997745,27.140456 26.997745,27.140456 C 18.528582,18.264221 13.291696,25.230495 11.500037,31.436501 z"
     style="fill:#404040;"/>
  </a>
 </g>
</svg>

<style type='text/css'>
<![CDATA[
[data-mouse-over-selected='false'] { opacity: 0.7; }
[data-mouse-over-selected='true']  { opacity: 1.0; }
]]>
</style>
<script type="application/ecmascript"><![CDATA[
document.addEventListener('DOMContentLoaded', (event) => {
  highlightEdges();
  highlightAdjacentNodes();
});
]]></script>
</svg>
