<?xml version="1.0" encoding="UTF-8" standalone="no"?>
<!DOCTYPE svg PUBLIC "-//W3C//DTD SVG 1.1//EN"
 "http://www.w3.org/Graphics/SVG/1.1/DTD/svg11.dtd">
<!-- Generated by graphviz version 13.1.0 (20250701.0955)
 -->
<!-- Title: SDL&#45;main/src/video/khronos/vk_video/vulkan_video_codec_h264std.h Pages: 1 -->
<svg width="385pt" height="348pt"
 viewBox="0.00 0.00 385.00 348.00" xmlns="http://www.w3.org/2000/svg" xmlns:xlink="http://www.w3.org/1999/xlink">
<g id="graph0" class="graph" transform="scale(1 1) rotate(0) translate(4 344)">
<title>SDL&#45;main/src/video/khronos/vk_video/vulkan_video_codec_h264std.h</title>
<!-- Node1 -->
<g id="Node000001" class="node">
<title>Node1</title>
<g id="a_Node000001"><a xlink:title=" ">
<polygon fill="#999999" stroke="#666666" points="251.88,-340 124.88,-340 124.88,-296 251.88,-296 251.88,-340"/>
<text xml:space="preserve" text-anchor="start" x="132.88" y="-326.5" font-family="Helvetica,sans-Serif" font-size="10.00">SDL&#45;main/src/video</text>
<text xml:space="preserve" text-anchor="start" x="132.88" y="-314.5" font-family="Helvetica,sans-Serif" font-size="10.00">/khronos/vk_video/vulkan</text>
<text xml:space="preserve" text-anchor="middle" x="188.38" y="-302.5" font-family="Helvetica,sans-Serif" font-size="10.00">_video_codec_h264std.h</text>
</a>
</g>
</g>
<!-- Node2 -->
<g id="Node000002" class="node">
<title>Node2</title>
<g id="a_Node000002"><a xlink:href="../../dd/da4/vulkan__video__codec__h264std__decode_8h.html" target="_top" xlink:title=" ">
<polygon fill="white" stroke="#666666" points="160.75,-260 0,-260 0,-216 160.75,-216 160.75,-260"/>
<text xml:space="preserve" text-anchor="start" x="8" y="-246.5" font-family="Helvetica,sans-Serif" font-size="10.00">SDL&#45;main/src/video</text>
<text xml:space="preserve" text-anchor="start" x="8" y="-234.5" font-family="Helvetica,sans-Serif" font-size="10.00">/khronos/vk_video/vulkan</text>
<text xml:space="preserve" text-anchor="middle" x="80.38" y="-222.5" font-family="Helvetica,sans-Serif" font-size="10.00">_video_codec_h264std_decode.h</text>
</a>
</g>
</g>
<!-- Node1&#45;&gt;Node2 -->
<g id="edge1_Node000001_Node000002" class="edge">
<title>Node1&#45;&gt;Node2</title>
<g id="a_edge1_Node000001_Node000002"><a xlink:title=" ">
<path fill="none" stroke="#63b8ff" d="M149.61,-289C136.51,-279.54 122.11,-269.14 109.85,-260.29"/>
<polygon fill="#63b8ff" stroke="#63b8ff" points="147.48,-291.78 157.64,-294.8 151.58,-286.11 147.48,-291.78"/>
</a>
</g>
</g>
<!-- Node3 -->
<g id="Node000003" class="node">
<title>Node3</title>
<g id="a_Node000003"><a xlink:href="../../de/d3d/vulkan__core_8h.html" target="_top" xlink:title=" ">
<polygon fill="white" stroke="#666666" points="246.62,-180 130.12,-180 130.12,-136 246.62,-136 246.62,-180"/>
<text xml:space="preserve" text-anchor="start" x="138.12" y="-166.5" font-family="Helvetica,sans-Serif" font-size="10.00">SDL&#45;main/src/video</text>
<text xml:space="preserve" text-anchor="start" x="138.12" y="-154.5" font-family="Helvetica,sans-Serif" font-size="10.00">/khronos/vulkan/vulkan</text>
<text xml:space="preserve" text-anchor="middle" x="188.38" y="-142.5" font-family="Helvetica,sans-Serif" font-size="10.00">_core.h</text>
</a>
</g>
</g>
<!-- Node1&#45;&gt;Node3 -->
<g id="edge8_Node000001_Node000003" class="edge">
<title>Node1&#45;&gt;Node3</title>
<g id="a_edge8_Node000001_Node000003"><a xlink:title=" ">
<path fill="none" stroke="#63b8ff" d="M188.38,-284.57C188.38,-253.43 188.38,-207.3 188.38,-180.48"/>
<polygon fill="#63b8ff" stroke="#63b8ff" points="184.88,-284.18 188.38,-294.18 191.88,-284.18 184.88,-284.18"/>
</a>
</g>
</g>
<!-- Node7 -->
<g id="Node000007" class="node">
<title>Node7</title>
<g id="a_Node000007"><a xlink:href="../../d1/dee/vulkan__video__codec__h264std__encode_8h.html" target="_top" xlink:title=" ">
<polygon fill="white" stroke="#666666" points="376.75,-260 216,-260 216,-216 376.75,-216 376.75,-260"/>
<text xml:space="preserve" text-anchor="start" x="224" y="-246.5" font-family="Helvetica,sans-Serif" font-size="10.00">SDL&#45;main/src/video</text>
<text xml:space="preserve" text-anchor="start" x="224" y="-234.5" font-family="Helvetica,sans-Serif" font-size="10.00">/khronos/vk_video/vulkan</text>
<text xml:space="preserve" text-anchor="middle" x="296.38" y="-222.5" font-family="Helvetica,sans-Serif" font-size="10.00">_video_codec_h264std_encode.h</text>
</a>
</g>
</g>
<!-- Node1&#45;&gt;Node7 -->
<g id="edge6_Node000001_Node000007" class="edge">
<title>Node1&#45;&gt;Node7</title>
<g id="a_edge6_Node000001_Node000007"><a xlink:title=" ">
<path fill="none" stroke="#63b8ff" d="M227.14,-289C240.24,-279.54 254.64,-269.14 266.9,-260.29"/>
<polygon fill="#63b8ff" stroke="#63b8ff" points="225.17,-286.11 219.11,-294.8 229.27,-291.78 225.17,-286.11"/>
</a>
</g>
</g>
<!-- Node2&#45;&gt;Node3 -->
<g id="edge2_Node000002_Node000003" class="edge">
<title>Node2&#45;&gt;Node3</title>
<g id="a_edge2_Node000002_Node000003"><a xlink:title=" ">
<path fill="none" stroke="#63b8ff" d="M119.14,-209C132.24,-199.54 146.64,-189.14 158.9,-180.29"/>
<polygon fill="#63b8ff" stroke="#63b8ff" points="117.17,-206.11 111.11,-214.8 121.27,-211.78 117.17,-206.11"/>
</a>
</g>
</g>
<!-- Node4 -->
<g id="Node000004" class="node">
<title>Node4</title>
<g id="a_Node000004"><a xlink:href="../../d6/d8f/vk__layer_8h.html" target="_top" xlink:title=" ">
<polygon fill="white" stroke="#666666" points="181.88,-100 48.88,-100 48.88,-68 181.88,-68 181.88,-100"/>
<text xml:space="preserve" text-anchor="start" x="56.88" y="-86.5" font-family="Helvetica,sans-Serif" font-size="10.00">SDL&#45;main/src/video</text>
<text xml:space="preserve" text-anchor="middle" x="115.38" y="-74.5" font-family="Helvetica,sans-Serif" font-size="10.00">/khronos/vulkan/vk_layer.h</text>
</a>
</g>
</g>
<!-- Node3&#45;&gt;Node4 -->
<g id="edge3_Node000003_Node000004" class="edge">
<title>Node3&#45;&gt;Node4</title>
<g id="a_edge3_Node000003_Node000004"><a xlink:title=" ">
<path fill="none" stroke="#63b8ff" d="M158.67,-127.7C149.07,-118.24 138.83,-108.13 130.71,-100.13"/>
<polygon fill="#63b8ff" stroke="#63b8ff" points="156.21,-130.19 165.79,-134.72 161.13,-125.21 156.21,-130.19"/>
</a>
</g>
</g>
<!-- Node5 -->
<g id="Node000005" class="node">
<title>Node5</title>
<g id="a_Node000005"><a xlink:href="../../d8/d55/vulkan_8h.html" target="_top" xlink:title=" ">
<polygon fill="white" stroke="#666666" points="324.75,-100 200,-100 200,-68 324.75,-68 324.75,-100"/>
<text xml:space="preserve" text-anchor="start" x="208" y="-86.5" font-family="Helvetica,sans-Serif" font-size="10.00">SDL&#45;main/src/video</text>
<text xml:space="preserve" text-anchor="middle" x="262.38" y="-74.5" font-family="Helvetica,sans-Serif" font-size="10.00">/khronos/vulkan/vulkan.h</text>
</a>
</g>
</g>
<!-- Node3&#45;&gt;Node5 -->
<g id="edge4_Node000003_Node000005" class="edge">
<title>Node3&#45;&gt;Node5</title>
<g id="a_edge4_Node000003_Node000005"><a xlink:title=" ">
<path fill="none" stroke="#63b8ff" d="M218.19,-127.99C228,-118.44 238.52,-108.21 246.83,-100.13"/>
<polygon fill="#63b8ff" stroke="#63b8ff" points="215.99,-125.25 211.26,-134.73 220.87,-130.27 215.99,-125.25"/>
</a>
</g>
</g>
<!-- Node6 -->
<g id="Node000006" class="node">
<title>Node6</title>
<g id="a_Node000006"><a xlink:href="../../dc/d5e/vk__icd_8h.html" target="_top" xlink:title=" ">
<polygon fill="white" stroke="#666666" points="324.75,-32 200,-32 200,0 324.75,0 324.75,-32"/>
<text xml:space="preserve" text-anchor="start" x="208" y="-18.5" font-family="Helvetica,sans-Serif" font-size="10.00">SDL&#45;main/src/video</text>
<text xml:space="preserve" text-anchor="middle" x="262.38" y="-6.5" font-family="Helvetica,sans-Serif" font-size="10.00">/khronos/vulkan/vk_icd.h</text>
</a>
</g>
</g>
<!-- Node5&#45;&gt;Node6 -->
<g id="edge5_Node000005_Node000006" class="edge">
<title>Node5&#45;&gt;Node6</title>
<g id="a_edge5_Node000005_Node000006"><a xlink:title=" ">
<path fill="none" stroke="#63b8ff" d="M262.38,-56.31C262.38,-48.12 262.38,-39.38 262.38,-32.22"/>
<polygon fill="#63b8ff" stroke="#63b8ff" points="258.88,-56.18 262.38,-66.18 265.88,-56.18 258.88,-56.18"/>
</a>
</g>
</g>
<!-- Node7&#45;&gt;Node3 -->
<g id="edge7_Node000007_Node000003" class="edge">
<title>Node7&#45;&gt;Node3</title>
<g id="a_edge7_Node000007_Node000003"><a xlink:title=" ">
<path fill="none" stroke="#63b8ff" d="M257.61,-209C244.51,-199.54 230.11,-189.14 217.85,-180.29"/>
<polygon fill="#63b8ff" stroke="#63b8ff" points="255.48,-211.78 265.64,-214.8 259.58,-206.11 255.48,-211.78"/>
</a>
</g>
</g>
</g>
</svg>
