<?xml version="1.0" encoding="UTF-8" standalone="no"?>
<!DOCTYPE svg PUBLIC "-//W3C//DTD SVG 1.1//EN"
 "http://www.w3.org/Graphics/SVG/1.1/DTD/svg11.dtd">
<!-- Generated by graphviz version 13.1.0 (20250701.0955)
 -->
<!-- Title: CopyHIDDeviceInfo Pages: 1 -->
<svg width="418pt" height="66pt"
 viewBox="0.00 0.00 418.00 66.00" xmlns="http://www.w3.org/2000/svg" xmlns:xlink="http://www.w3.org/1999/xlink">
<g id="graph0" class="graph" transform="scale(1 1) rotate(0) translate(4 62)">
<title>CopyHIDDeviceInfo</title>
<!-- Node1 -->
<g id="Node000001" class="node">
<title>Node1</title>
<g id="a_Node000001"><a xlink:title=" ">
<polygon fill="#999999" stroke="#666666" points="410.25,-39 305.75,-39 305.75,-19 410.25,-19 410.25,-39"/>
<text xml:space="preserve" text-anchor="middle" x="358" y="-25.5" font-family="Helvetica,sans-Serif" font-size="10.00">CopyHIDDeviceInfo</text>
</a>
</g>
</g>
<!-- Node2 -->
<g id="Node000002" class="node">
<title>Node2</title>
<g id="a_Node000002"><a xlink:href="../../dc/dd7/SDL__hidapi_8c.html#ae97107a96d67bad904f3ad3e20c52265" target="_top" xlink:title=" ">
<polygon fill="white" stroke="#666666" points="269.75,-58 140.5,-58 140.5,-38 269.75,-38 269.75,-58"/>
<text xml:space="preserve" text-anchor="middle" x="205.12" y="-44.5" font-family="Helvetica,sans-Serif" font-size="10.00">AddDeviceToEnumeration</text>
</a>
</g>
</g>
<!-- Node1&#45;&gt;Node2 -->
<g id="edge1_Node000001_Node000002" class="edge">
<title>Node1&#45;&gt;Node2</title>
<g id="a_edge1_Node000001_Node000002"><a xlink:title=" ">
<path fill="none" stroke="#63b8ff" d="M294.1,-36.92C286.21,-37.92 278.12,-38.93 270.2,-39.93"/>
<polygon fill="#63b8ff" stroke="#63b8ff" points="294.51,-40.4 304,-35.67 293.64,-33.45 294.51,-40.4"/>
</a>
</g>
</g>
<!-- Node4 -->
<g id="Node000004" class="node">
<title>Node4</title>
<g id="a_Node000004"><a xlink:href="../../dc/dd7/SDL__hidapi_8c.html#a5737f133d29cb324926e25985d4cb160" target="_top" xlink:title=" ">
<polygon fill="white" stroke="#666666" points="268.62,-20 141.62,-20 141.62,0 268.62,0 268.62,-20"/>
<text xml:space="preserve" text-anchor="middle" x="205.12" y="-6.5" font-family="Helvetica,sans-Serif" font-size="10.00">SDL_hid_get_device_info</text>
</a>
</g>
</g>
<!-- Node1&#45;&gt;Node4 -->
<g id="edge3_Node000001_Node000004" class="edge">
<title>Node1&#45;&gt;Node4</title>
<g id="a_edge3_Node000001_Node000004"><a xlink:title=" ">
<path fill="none" stroke="#63b8ff" d="M294.24,-21.1C285.86,-20.04 277.26,-18.96 268.88,-17.9"/>
<polygon fill="#63b8ff" stroke="#63b8ff" points="293.64,-24.55 304,-22.33 294.51,-17.6 293.64,-24.55"/>
</a>
</g>
</g>
<!-- Node3 -->
<g id="Node000003" class="node">
<title>Node3</title>
<g id="a_Node000003"><a xlink:href="../../dc/dd7/SDL__hidapi_8c.html#a0c156594c503a61b72d58bd1e15adfa8" target="_top" xlink:title=" ">
<polygon fill="white" stroke="#666666" points="104.5,-58 0,-58 0,-38 104.5,-38 104.5,-58"/>
<text xml:space="preserve" text-anchor="middle" x="52.25" y="-44.5" font-family="Helvetica,sans-Serif" font-size="10.00">SDL_hid_enumerate</text>
</a>
</g>
</g>
<!-- Node2&#45;&gt;Node3 -->
<g id="edge2_Node000002_Node000003" class="edge">
<title>Node2&#45;&gt;Node3</title>
<g id="a_edge2_Node000002_Node000003"><a xlink:title=" ">
<path fill="none" stroke="#63b8ff" d="M128.79,-48C120.74,-48 112.69,-48 105,-48"/>
<polygon fill="#63b8ff" stroke="#63b8ff" points="128.63,-51.5 138.63,-48 128.63,-44.5 128.63,-51.5"/>
</a>
</g>
</g>
</g>
</svg>
