<?xml version="1.0" encoding="UTF-8" standalone="no"?>
<!DOCTYPE svg PUBLIC "-//W3C//DTD SVG 1.1//EN"
 "http://www.w3.org/Graphics/SVG/1.1/DTD/svg11.dtd">
<!-- Generated by graphviz version 13.1.0 (20250701.0955)
 -->
<!-- Title: SDL_GetSensors Pages: 1 -->
<svg width="655pt" height="66pt"
 viewBox="0.00 0.00 655.00 66.00" xmlns="http://www.w3.org/2000/svg" xmlns:xlink="http://www.w3.org/1999/xlink">
<g id="graph0" class="graph" transform="scale(1 1) rotate(0) translate(4 62)">
<title>SDL_GetSensors</title>
<!-- Node1 -->
<g id="Node000001" class="node">
<title>Node1</title>
<g id="a_Node000001"><a xlink:title=" ">
<polygon fill="#999999" stroke="#666666" points="647,-39 554.5,-39 554.5,-19 647,-19 647,-39"/>
<text xml:space="preserve" text-anchor="middle" x="600.75" y="-25.5" font-family="Helvetica,sans-Serif" font-size="10.00">SDL_GetSensors</text>
</a>
</g>
</g>
<!-- Node2 -->
<g id="Node000002" class="node">
<title>Node2</title>
<g id="a_Node000002"><a xlink:href="../../d6/df9/SDL__joystick_8c.html#a7d2531dc4fbc8de52a29ac3ec171a495" target="_top" xlink:title=" ">
<polygon fill="white" stroke="#666666" points="404.25,-58 293.75,-58 293.75,-38 404.25,-38 404.25,-58"/>
<text xml:space="preserve" text-anchor="middle" x="349" y="-44.5" font-family="Helvetica,sans-Serif" font-size="10.00">AttemptSensorFusion</text>
</a>
</g>
</g>
<!-- Node1&#45;&gt;Node2 -->
<g id="edge1_Node000001_Node000002" class="edge">
<title>Node1&#45;&gt;Node2</title>
<g id="a_edge1_Node000001_Node000002"><a xlink:title=" ">
<path fill="none" stroke="#63b8ff" d="M542.92,-33.32C501.35,-36.49 445.31,-40.75 404.34,-43.87"/>
<polygon fill="#63b8ff" stroke="#63b8ff" points="543.02,-36.83 552.72,-32.58 542.49,-29.85 543.02,-36.83"/>
</a>
</g>
</g>
<!-- Node5 -->
<g id="Node000005" class="node">
<title>Node5</title>
<g id="a_Node000005"><a xlink:href="../../d6/df9/SDL__joystick_8c.html#a94fd638a34a769ff6a7a01738257215c" target="_top" xlink:title=" ">
<polygon fill="white" stroke="#666666" points="518.5,-20 455.25,-20 455.25,0 518.5,0 518.5,-20"/>
<text xml:space="preserve" text-anchor="middle" x="486.88" y="-6.5" font-family="Helvetica,sans-Serif" font-size="10.00">IsROGAlly</text>
</a>
</g>
</g>
<!-- Node1&#45;&gt;Node5 -->
<g id="edge4_Node000001_Node000005" class="edge">
<title>Node1&#45;&gt;Node5</title>
<g id="a_edge4_Node000001_Node000005"><a xlink:title=" ">
<path fill="none" stroke="#63b8ff" d="M543.01,-19.36C534.73,-17.96 526.47,-16.55 518.96,-15.28"/>
<polygon fill="#63b8ff" stroke="#63b8ff" points="542.31,-22.79 552.75,-21.02 543.48,-15.89 542.31,-22.79"/>
</a>
</g>
</g>
<!-- Node3 -->
<g id="Node000003" class="node">
<title>Node3</title>
<g id="a_Node000003"><a xlink:href="../../d6/df9/SDL__joystick_8c.html#a0c867d96ec6bc9c3aca87c8ee6b53ade" target="_top" xlink:title=" ">
<polygon fill="white" stroke="#666666" points="242.75,-39 142,-39 142,-19 242.75,-19 242.75,-39"/>
<text xml:space="preserve" text-anchor="middle" x="192.38" y="-25.5" font-family="Helvetica,sans-Serif" font-size="10.00">SDL_OpenJoystick</text>
</a>
</g>
</g>
<!-- Node2&#45;&gt;Node3 -->
<g id="edge2_Node000002_Node000003" class="edge">
<title>Node2&#45;&gt;Node3</title>
<g id="a_edge2_Node000002_Node000003"><a xlink:title=" ">
<path fill="none" stroke="#63b8ff" d="M282.12,-39.91C269.02,-38.29 255.46,-36.63 243.01,-35.1"/>
<polygon fill="#63b8ff" stroke="#63b8ff" points="281.63,-43.37 291.98,-41.12 282.48,-36.42 281.63,-43.37"/>
</a>
</g>
</g>
<!-- Node4 -->
<g id="Node000004" class="node">
<title>Node4</title>
<g id="a_Node000004"><a xlink:href="../../d0/d82/SDL__gamepad_8c.html#a011496690758b66ec0f7098f030b6d85" target="_top" xlink:title=" ">
<polygon fill="white" stroke="#666666" points="106,-39 0,-39 0,-19 106,-19 106,-39"/>
<text xml:space="preserve" text-anchor="middle" x="53" y="-25.5" font-family="Helvetica,sans-Serif" font-size="10.00">SDL_OpenGamepad</text>
</a>
</g>
</g>
<!-- Node3&#45;&gt;Node4 -->
<g id="edge3_Node000003_Node000004" class="edge">
<title>Node3&#45;&gt;Node4</title>
<g id="a_edge3_Node000003_Node000004"><a xlink:title=" ">
<path fill="none" stroke="#63b8ff" d="M130.51,-29C122.44,-29 114.22,-29 106.3,-29"/>
<polygon fill="#63b8ff" stroke="#63b8ff" points="130.27,-32.5 140.27,-29 130.27,-25.5 130.27,-32.5"/>
</a>
</g>
</g>
<!-- Node6 -->
<g id="Node000006" class="node">
<title>Node6</title>
<g id="a_Node000006"><a xlink:href="../../d6/df9/SDL__joystick_8c.html#a497945f75b33dbfcde319992145025c5" target="_top" xlink:title=" ">
<polygon fill="white" stroke="#666666" points="419.25,-20 278.75,-20 278.75,0 419.25,0 419.25,-20"/>
<text xml:space="preserve" text-anchor="middle" x="349" y="-6.5" font-family="Helvetica,sans-Serif" font-size="10.00">ShouldAttemptSensorFusion</text>
</a>
</g>
</g>
<!-- Node5&#45;&gt;Node6 -->
<g id="edge5_Node000005_Node000006" class="edge">
<title>Node5&#45;&gt;Node6</title>
<g id="a_edge5_Node000005_Node000006"><a xlink:title=" ">
<path fill="none" stroke="#63b8ff" d="M443.78,-10C436.05,-10 427.8,-10 419.52,-10"/>
<polygon fill="#63b8ff" stroke="#63b8ff" points="443.53,-13.5 453.53,-10 443.53,-6.5 443.53,-13.5"/>
</a>
</g>
</g>
<!-- Node6&#45;&gt;Node3 -->
<g id="edge6_Node000006_Node000003" class="edge">
<title>Node6&#45;&gt;Node3</title>
<g id="a_edge6_Node000006_Node000003"><a xlink:title=" ">
<path fill="none" stroke="#63b8ff" d="M267.22,-19.93C259.03,-20.93 250.9,-21.93 243.19,-22.88"/>
<polygon fill="#63b8ff" stroke="#63b8ff" points="267.38,-23.43 276.87,-18.74 266.52,-16.49 267.38,-23.43"/>
</a>
</g>
</g>
</g>
</svg>
