<?xml version="1.0" encoding="UTF-8" standalone="no"?>
<!DOCTYPE svg PUBLIC "-//W3C//DTD SVG 1.1//EN"
 "http://www.w3.org/Graphics/SVG/1.1/DTD/svg11.dtd">
<!-- Generated by graphviz version 13.1.0 (20250701.0955)
 -->
<!-- Title: SDL_AddEventWatchList Pages: 1 -->
<svg width="1479pt" height="389pt"
 viewBox="0.00 0.00 1479.00 389.00" xmlns="http://www.w3.org/2000/svg" xmlns:xlink="http://www.w3.org/1999/xlink">
<g id="graph0" class="graph" transform="scale(1 1) rotate(0) translate(4 385)">
<title>SDL_AddEventWatchList</title>
<!-- Node1 -->
<g id="Node000001" class="node">
<title>Node1</title>
<g id="a_Node000001"><a xlink:title=" ">
<polygon fill="#999999" stroke="#666666" points="1471.25,-210 1344.25,-210 1344.25,-190 1471.25,-190 1471.25,-210"/>
<text xml:space="preserve" text-anchor="middle" x="1407.75" y="-196.5" font-family="Helvetica,sans-Serif" font-size="10.00">SDL_AddEventWatchList</text>
</a>
</g>
</g>
<!-- Node2 -->
<g id="Node000002" class="node">
<title>Node2</title>
<g id="a_Node000002"><a xlink:href="../../d4/d07/SDL__events_8c.html#abeb773ff1c487133b964004016e28acc" target="_top" xlink:title=" ">
<polygon fill="white" stroke="#666666" points="1290.62,-314 1179.38,-314 1179.38,-294 1290.62,-294 1290.62,-314"/>
<text xml:space="preserve" text-anchor="middle" x="1235" y="-300.5" font-family="Helvetica,sans-Serif" font-size="10.00">SDL_AddEventWatch</text>
</a>
</g>
</g>
<!-- Node1&#45;&gt;Node2 -->
<g id="edge1_Node000001_Node000002" class="edge">
<title>Node1&#45;&gt;Node2</title>
<g id="a_edge1_Node000001_Node000002"><a xlink:title=" ">
<path fill="none" stroke="#63b8ff" d="M1380.08,-216.25C1344.64,-237.83 1283.02,-275.36 1253.18,-293.54"/>
<polygon fill="#63b8ff" stroke="#63b8ff" points="1381.74,-219.33 1388.46,-211.14 1378.1,-213.35 1381.74,-219.33"/>
</a>
</g>
</g>
<!-- Node21 -->
<g id="Node000021" class="node">
<title>Node21</title>
<g id="a_Node000021"><a xlink:href="../../d8/dfb/SDL__windowevents_8c.html#ad45ff8e765183c92da2055bd66000dcb" target="_top" xlink:title=" ">
<polygon fill="white" stroke="#666666" points="1308.25,-191 1161.75,-191 1161.75,-171 1308.25,-171 1308.25,-191"/>
<text xml:space="preserve" text-anchor="middle" x="1235" y="-177.5" font-family="Helvetica,sans-Serif" font-size="10.00">SDL_AddWindowEventWatch</text>
</a>
</g>
</g>
<!-- Node1&#45;&gt;Node21 -->
<g id="edge27_Node000001_Node000021" class="edge">
<title>Node1&#45;&gt;Node21</title>
<g id="a_edge27_Node000001_Node000021"><a xlink:title=" ">
<path fill="none" stroke="#63b8ff" d="M1332.92,-191.78C1324.9,-190.89 1316.73,-189.98 1308.72,-189.09"/>
<polygon fill="#63b8ff" stroke="#63b8ff" points="1332.31,-195.24 1342.63,-192.87 1333.08,-188.28 1332.31,-195.24"/>
</a>
</g>
</g>
<!-- Node3 -->
<g id="Node000003" class="node">
<title>Node3</title>
<g id="a_Node000003"><a xlink:href="../../dd/db5/generic_2SDL__sysmain__callbacks_8c.html#aa50e1897a91f2547b5f31125020220e2" target="_top" xlink:title=" ">
<polygon fill="white" stroke="#666666" points="525,-381 379.25,-381 379.25,-361 525,-361 525,-381"/>
<text xml:space="preserve" text-anchor="middle" x="452.12" y="-367.5" font-family="Helvetica,sans-Serif" font-size="10.00">SDL_EnterAppMainCallbacks</text>
</a>
</g>
</g>
<!-- Node2&#45;&gt;Node3 -->
<g id="edge2_Node000002_Node000003" class="edge">
<title>Node2&#45;&gt;Node3</title>
<g id="a_edge2_Node000002_Node000003"><a xlink:title=" ">
<path fill="none" stroke="#63b8ff" d="M1191.33,-317.71C1171.56,-323.57 1147.66,-329.97 1125.75,-334 909.79,-373.72 648.81,-375.08 525.01,-372.98"/>
<polygon fill="#63b8ff" stroke="#63b8ff" points="1192.13,-321.12 1200.69,-314.87 1190.1,-314.42 1192.13,-321.12"/>
</a>
</g>
</g>
<!-- Node4 -->
<g id="Node000004" class="node">
<title>Node4</title>
<g id="a_Node000004"><a xlink:href="../../d0/d82/SDL__gamepad_8c.html#a80d4e0bffa1c3329c423a20b7e067975" target="_top" xlink:title=" ">
<polygon fill="white" stroke="#666666" points="1089.38,-286 987.88,-286 987.88,-266 1089.38,-266 1089.38,-286"/>
<text xml:space="preserve" text-anchor="middle" x="1038.62" y="-272.5" font-family="Helvetica,sans-Serif" font-size="10.00">SDL_InitGamepads</text>
</a>
</g>
</g>
<!-- Node2&#45;&gt;Node4 -->
<g id="edge3_Node000002_Node000004" class="edge">
<title>Node2&#45;&gt;Node4</title>
<g id="a_edge3_Node000002_Node000004"><a xlink:title=" ">
<path fill="none" stroke="#63b8ff" d="M1167.96,-294.49C1142.38,-290.8 1113.58,-286.65 1089.76,-283.22"/>
<polygon fill="#63b8ff" stroke="#63b8ff" points="1167.18,-297.91 1177.58,-295.87 1168.18,-290.98 1167.18,-297.91"/>
</a>
</g>
</g>
<!-- Node17 -->
<g id="Node000017" class="node">
<title>Node17</title>
<g id="a_Node000017"><a xlink:href="../../d9/d78/SDL__main__callbacks_8c.html#a3d21b5bf7aa441418de48c5b2856336a" target="_top" xlink:title=" ">
<polygon fill="white" stroke="#666666" points="711.25,-362 592.5,-362 592.5,-342 711.25,-342 711.25,-362"/>
<text xml:space="preserve" text-anchor="middle" x="651.88" y="-348.5" font-family="Helvetica,sans-Serif" font-size="10.00">SDL_InitMainCallbacks</text>
</a>
</g>
</g>
<!-- Node2&#45;&gt;Node17 -->
<g id="edge26_Node000002_Node000017" class="edge">
<title>Node2&#45;&gt;Node17</title>
<g id="a_edge26_Node000002_Node000017"><a xlink:title=" ">
<path fill="none" stroke="#63b8ff" d="M1167.71,-309.48C1053.3,-318.93 820.6,-338.15 711.64,-347.15"/>
<polygon fill="#63b8ff" stroke="#63b8ff" points="1167.88,-312.97 1177.56,-308.66 1167.3,-306 1167.88,-312.97"/>
</a>
</g>
</g>
<!-- Node5 -->
<g id="Node000005" class="node">
<title>Node5</title>
<g id="a_Node000005"><a xlink:href="../../df/d78/SDL_8c.html#aa33d2b8c0a69b16651f78c26f391b6ef" target="_top" xlink:title=" ">
<polygon fill="white" stroke="#666666" points="893.75,-248 788.5,-248 788.5,-228 893.75,-228 893.75,-248"/>
<text xml:space="preserve" text-anchor="middle" x="841.12" y="-234.5" font-family="Helvetica,sans-Serif" font-size="10.00">SDL_InitSubSystem</text>
</a>
</g>
</g>
<!-- Node4&#45;&gt;Node5 -->
<g id="edge4_Node000004_Node000005" class="edge">
<title>Node4&#45;&gt;Node5</title>
<g id="a_edge4_Node000004_Node000005"><a xlink:title=" ">
<path fill="none" stroke="#63b8ff" d="M976.49,-264.12C950.06,-258.98 919.45,-253.03 894.13,-248.11"/>
<polygon fill="#63b8ff" stroke="#63b8ff" points="975.56,-267.5 986.05,-265.97 976.9,-260.63 975.56,-267.5"/>
</a>
</g>
</g>
<!-- Node6 -->
<g id="Node000006" class="node">
<title>Node6</title>
<g id="a_Node000006"><a xlink:href="../../d6/df9/SDL__joystick_8c.html#a7d2531dc4fbc8de52a29ac3ec171a495" target="_top" xlink:title=" ">
<polygon fill="white" stroke="#666666" points="507.38,-210 396.88,-210 396.88,-190 507.38,-190 507.38,-210"/>
<text xml:space="preserve" text-anchor="middle" x="452.12" y="-196.5" font-family="Helvetica,sans-Serif" font-size="10.00">AttemptSensorFusion</text>
</a>
</g>
</g>
<!-- Node5&#45;&gt;Node6 -->
<g id="edge5_Node000005_Node000006" class="edge">
<title>Node5&#45;&gt;Node6</title>
<g id="a_edge5_Node000005_Node000006"><a xlink:title=" ">
<path fill="none" stroke="#63b8ff" d="M776.95,-225.88C761.86,-223.3 745.77,-220.81 730.75,-219 653.65,-209.69 563.91,-204.58 507.8,-202.07"/>
<polygon fill="#63b8ff" stroke="#63b8ff" points="776.32,-229.32 786.78,-227.6 777.53,-222.43 776.32,-229.32"/>
</a>
</g>
</g>
<!-- Node9 -->
<g id="Node000009" class="node">
<title>Node9</title>
<g id="a_Node000009"><a xlink:href="../../d6/df9/SDL__joystick_8c.html#a94fd638a34a769ff6a7a01738257215c" target="_top" xlink:title=" ">
<polygon fill="white" stroke="#666666" points="683.5,-172 620.25,-172 620.25,-152 683.5,-152 683.5,-172"/>
<text xml:space="preserve" text-anchor="middle" x="651.88" y="-158.5" font-family="Helvetica,sans-Serif" font-size="10.00">IsROGAlly</text>
</a>
</g>
</g>
<!-- Node5&#45;&gt;Node9 -->
<g id="edge8_Node000005_Node000009" class="edge">
<title>Node5&#45;&gt;Node9</title>
<g id="a_edge8_Node000005_Node000009"><a xlink:title=" ">
<path fill="none" stroke="#63b8ff" d="M810.14,-222.3C788.45,-211.29 758.24,-196.7 730.75,-186 715.59,-180.1 698.33,-174.65 683.93,-170.45"/>
<polygon fill="#63b8ff" stroke="#63b8ff" points="808.51,-225.39 819,-226.84 811.7,-219.16 808.51,-225.39"/>
</a>
</g>
</g>
<!-- Node11 -->
<g id="Node000011" class="node">
<title>Node11</title>
<g id="a_Node000011"><a xlink:href="../../df/d78/SDL_8c.html#ac25d0ce460db43ca8c7681eb8e7c5007" target="_top" xlink:title=" ">
<polygon fill="white" stroke="#666666" points="679,-96 624.75,-96 624.75,-76 679,-76 679,-96"/>
<text xml:space="preserve" text-anchor="middle" x="651.88" y="-82.5" font-family="Helvetica,sans-Serif" font-size="10.00">SDL_Init</text>
</a>
</g>
</g>
<!-- Node5&#45;&gt;Node11 -->
<g id="edge11_Node000005_Node000011" class="edge">
<title>Node5&#45;&gt;Node11</title>
<g id="a_edge11_Node000005_Node000011"><a xlink:title=" ">
<path fill="none" stroke="#63b8ff" d="M829.23,-217.8C812.23,-188.29 776.54,-133.77 730.75,-105 715.31,-95.3 695.28,-90.55 679.4,-88.23"/>
<polygon fill="#63b8ff" stroke="#63b8ff" points="826.14,-219.44 834.07,-226.46 832.25,-216.03 826.14,-219.44"/>
</a>
</g>
</g>
<!-- Node16 -->
<g id="Node000016" class="node">
<title>Node16</title>
<g id="a_Node000016"><a xlink:href="../../d6/df9/SDL__joystick_8c.html#a9340afa4acb6b0fad4affbb99d4fa014" target="_top" xlink:title=" ">
<polygon fill="white" stroke="#666666" points="700,-134 603.75,-134 603.75,-114 700,-114 700,-134"/>
<text xml:space="preserve" text-anchor="middle" x="651.88" y="-120.5" font-family="Helvetica,sans-Serif" font-size="10.00">SDL_InitJoysticks</text>
</a>
</g>
</g>
<!-- Node5&#45;&gt;Node16 -->
<g id="edge16_Node000005_Node000016" class="edge">
<title>Node5&#45;&gt;Node16</title>
<g id="a_edge16_Node000005_Node000016"><a xlink:title=" ">
<path fill="none" stroke="#63b8ff" d="M828.18,-218.28C809.54,-194.17 771.41,-155.03 730.75,-134 721.36,-129.14 710.68,-125.49 700.3,-123"/>
<polygon fill="#63b8ff" stroke="#63b8ff" points="825.34,-220.32 834.04,-226.37 831.01,-216.22 825.34,-220.32"/>
</a>
</g>
</g>
<!-- Node5&#45;&gt;Node17 -->
<g id="edge18_Node000005_Node000017" class="edge">
<title>Node5&#45;&gt;Node17</title>
<g id="a_edge18_Node000005_Node000017"><a xlink:title=" ">
<path fill="none" stroke="#63b8ff" d="M823.85,-256.74C804.03,-278.38 768.48,-313.49 730.75,-333 724.07,-336.45 716.75,-339.29 709.35,-341.63"/>
<polygon fill="#63b8ff" stroke="#63b8ff" points="826.27,-259.29 830.34,-249.5 821.06,-254.62 826.27,-259.29"/>
</a>
</g>
</g>
<!-- Node18 -->
<g id="Node000018" class="node">
<title>Node18</title>
<g id="a_Node000018"><a xlink:href="../../df/d78/SDL_8c.html#a8f0bf712ad7ba759f5b6e04e683c67d4" target="_top" xlink:title=" ">
<polygon fill="white" stroke="#666666" points="730.75,-324 573,-324 573,-304 730.75,-304 730.75,-324"/>
<text xml:space="preserve" text-anchor="middle" x="651.88" y="-310.5" font-family="Helvetica,sans-Serif" font-size="10.00">SDL_InitOrIncrementSubsystem</text>
</a>
</g>
</g>
<!-- Node5&#45;&gt;Node18 -->
<g id="edge20_Node000005_Node000018" class="edge">
<title>Node5&#45;&gt;Node18</title>
<g id="a_edge20_Node000005_Node000018"><a xlink:title=" ">
<path fill="none" stroke="#63b8ff" d="M800.28,-253.64C780,-264.03 754.64,-277.01 730.75,-286 711.21,-293.35 687.83,-298.61 671.82,-303.52"/>
<polygon fill="#63b8ff" stroke="#63b8ff" points="801.73,-256.83 809.04,-249.16 798.54,-250.6 801.73,-256.83"/>
</a>
</g>
</g>
<!-- Node19 -->
<g id="Node000019" class="node">
<title>Node19</title>
<g id="a_Node000019"><a xlink:href="../../dc/de1/SDL__sensor_8c.html#abdb7d6b73a301a2c8558ba80edb32331" target="_top" xlink:title=" ">
<polygon fill="white" stroke="#666666" points="697,-286 606.75,-286 606.75,-266 697,-266 697,-286"/>
<text xml:space="preserve" text-anchor="middle" x="651.88" y="-272.5" font-family="Helvetica,sans-Serif" font-size="10.00">SDL_InitSensors</text>
</a>
</g>
</g>
<!-- Node5&#45;&gt;Node19 -->
<g id="edge22_Node000005_Node000019" class="edge">
<title>Node5&#45;&gt;Node19</title>
<g id="a_edge22_Node000005_Node000019"><a xlink:title=" ">
<path fill="none" stroke="#63b8ff" d="M777.5,-244.3C744.42,-250.26 705.53,-258.65 680.11,-265.55"/>
<polygon fill="#63b8ff" stroke="#63b8ff" points="777.73,-247.81 786.97,-242.64 776.52,-240.92 777.73,-247.81"/>
</a>
</g>
</g>
<!-- Node20 -->
<g id="Node000020" class="node">
<title>Node20</title>
<g id="a_Node000020"><a xlink:href="../../d6/d3d/SDL__video_8c.html#ac61dc66ab71d039f9b681916d0fcbc6e" target="_top" xlink:title=" ">
<polygon fill="white" stroke="#666666" points="691.38,-248 612.38,-248 612.38,-228 691.38,-228 691.38,-248"/>
<text xml:space="preserve" text-anchor="middle" x="651.88" y="-234.5" font-family="Helvetica,sans-Serif" font-size="10.00">SDL_VideoInit</text>
</a>
</g>
</g>
<!-- Node5&#45;&gt;Node20 -->
<g id="edge24_Node000005_Node000020" class="edge">
<title>Node5&#45;&gt;Node20</title>
<g id="a_edge24_Node000005_Node000020"><a xlink:title=" ">
<path fill="none" stroke="#63b8ff" d="M777.03,-231.58C748.73,-230.95 716.24,-231.22 691.6,-232.41"/>
<polygon fill="#63b8ff" stroke="#63b8ff" points="776.86,-235.08 786.95,-231.85 777.05,-228.08 776.86,-235.08"/>
</a>
</g>
</g>
<!-- Node7 -->
<g id="Node000007" class="node">
<title>Node7</title>
<g id="a_Node000007"><a xlink:href="../../d6/df9/SDL__joystick_8c.html#a0c867d96ec6bc9c3aca87c8ee6b53ade" target="_top" xlink:title=" ">
<polygon fill="white" stroke="#666666" points="315.12,-191 214.38,-191 214.38,-171 315.12,-171 315.12,-191"/>
<text xml:space="preserve" text-anchor="middle" x="264.75" y="-177.5" font-family="Helvetica,sans-Serif" font-size="10.00">SDL_OpenJoystick</text>
</a>
</g>
</g>
<!-- Node6&#45;&gt;Node7 -->
<g id="edge6_Node000006_Node000007" class="edge">
<title>Node6&#45;&gt;Node7</title>
<g id="a_edge6_Node000006_Node000007"><a xlink:title=" ">
<path fill="none" stroke="#63b8ff" d="M385.13,-193.24C362.22,-190.89 336.93,-188.3 315.55,-186.1"/>
<polygon fill="#63b8ff" stroke="#63b8ff" points="384.7,-196.71 395,-194.25 385.41,-189.75 384.7,-196.71"/>
</a>
</g>
</g>
<!-- Node8 -->
<g id="Node000008" class="node">
<title>Node8</title>
<g id="a_Node000008"><a xlink:href="../../d0/d82/SDL__gamepad_8c.html#a011496690758b66ec0f7098f030b6d85" target="_top" xlink:title=" ">
<polygon fill="white" stroke="#666666" points="134.12,-191 28.12,-191 28.12,-171 134.12,-171 134.12,-191"/>
<text xml:space="preserve" text-anchor="middle" x="81.12" y="-177.5" font-family="Helvetica,sans-Serif" font-size="10.00">SDL_OpenGamepad</text>
</a>
</g>
</g>
<!-- Node7&#45;&gt;Node8 -->
<g id="edge7_Node000007_Node000008" class="edge">
<title>Node7&#45;&gt;Node8</title>
<g id="a_edge7_Node000007_Node000008"><a xlink:title=" ">
<path fill="none" stroke="#63b8ff" d="M202.82,-181C180.69,-181 155.89,-181 134.55,-181"/>
<polygon fill="#63b8ff" stroke="#63b8ff" points="202.61,-184.5 212.61,-181 202.61,-177.5 202.61,-184.5"/>
</a>
</g>
</g>
<!-- Node10 -->
<g id="Node000010" class="node">
<title>Node10</title>
<g id="a_Node000010"><a xlink:href="../../d6/df9/SDL__joystick_8c.html#a497945f75b33dbfcde319992145025c5" target="_top" xlink:title=" ">
<polygon fill="white" stroke="#666666" points="522.38,-172 381.88,-172 381.88,-152 522.38,-152 522.38,-172"/>
<text xml:space="preserve" text-anchor="middle" x="452.12" y="-158.5" font-family="Helvetica,sans-Serif" font-size="10.00">ShouldAttemptSensorFusion</text>
</a>
</g>
</g>
<!-- Node9&#45;&gt;Node10 -->
<g id="edge9_Node000009_Node000010" class="edge">
<title>Node9&#45;&gt;Node10</title>
<g id="a_edge9_Node000009_Node000010"><a xlink:title=" ">
<path fill="none" stroke="#63b8ff" d="M608.69,-162C583.69,-162 551.39,-162 522.71,-162"/>
<polygon fill="#63b8ff" stroke="#63b8ff" points="608.46,-165.5 618.46,-162 608.46,-158.5 608.46,-165.5"/>
</a>
</g>
</g>
<!-- Node10&#45;&gt;Node7 -->
<g id="edge10_Node000010_Node000007" class="edge">
<title>Node10&#45;&gt;Node7</title>
<g id="a_edge10_Node000010_Node000007"><a xlink:title=" ">
<path fill="none" stroke="#63b8ff" d="M370.36,-170.28C351.68,-172.19 332.33,-174.18 315.44,-175.91"/>
<polygon fill="#63b8ff" stroke="#63b8ff" points="370.47,-173.78 380.07,-169.28 369.76,-166.82 370.47,-173.78"/>
</a>
</g>
</g>
<!-- Node12 -->
<g id="Node000012" class="node">
<title>Node12</title>
<g id="a_Node000012"><a xlink:href="../../d6/d3d/SDL__video_8c.html#a9f3d88531134e2c3e575a3c2db7f8488" target="_top" xlink:title=" ">
<polygon fill="white" stroke="#666666" points="537,-96 367.25,-96 367.25,-76 537,-76 537,-96"/>
<text xml:space="preserve" text-anchor="middle" x="452.12" y="-82.5" font-family="Helvetica,sans-Serif" font-size="10.00">SDL_CreateWindowWithProperties</text>
</a>
</g>
</g>
<!-- Node11&#45;&gt;Node12 -->
<g id="edge12_Node000011_Node000012" class="edge">
<title>Node11&#45;&gt;Node12</title>
<g id="a_edge12_Node000011_Node000012"><a xlink:title=" ">
<path fill="none" stroke="#63b8ff" d="M613.37,-86C591.84,-86 563.89,-86 537.38,-86"/>
<polygon fill="#63b8ff" stroke="#63b8ff" points="613.1,-89.5 623.1,-86 613.1,-82.5 613.1,-89.5"/>
</a>
</g>
</g>
<!-- Node13 -->
<g id="Node000013" class="node">
<title>Node13</title>
<g id="a_Node000013"><a xlink:href="../../d6/d3d/SDL__video_8c.html#acc26de39ce1bd675446e4d6c05ebf4b0" target="_top" xlink:title=" ">
<polygon fill="white" stroke="#666666" points="331.25,-134 198.25,-134 198.25,-114 331.25,-114 331.25,-134"/>
<text xml:space="preserve" text-anchor="middle" x="264.75" y="-120.5" font-family="Helvetica,sans-Serif" font-size="10.00">SDL_CreatePopupWindow</text>
</a>
</g>
</g>
<!-- Node12&#45;&gt;Node13 -->
<g id="edge13_Node000012_Node000013" class="edge">
<title>Node12&#45;&gt;Node13</title>
<g id="a_edge13_Node000012_Node000013"><a xlink:title=" ">
<path fill="none" stroke="#63b8ff" d="M388.74,-98.79C365.32,-103.59 339,-108.99 316.73,-113.55"/>
<polygon fill="#63b8ff" stroke="#63b8ff" points="389.4,-102.23 398.5,-96.79 388,-95.37 389.4,-102.23"/>
</a>
</g>
</g>
<!-- Node14 -->
<g id="Node000014" class="node">
<title>Node14</title>
<g id="a_Node000014"><a xlink:href="../../d6/d3d/SDL__video_8c.html#a83103c86f9e5c33ab9e1fb6dfa904b7f" target="_top" xlink:title=" ">
<polygon fill="white" stroke="#666666" points="317.38,-96 212.12,-96 212.12,-76 317.38,-76 317.38,-96"/>
<text xml:space="preserve" text-anchor="middle" x="264.75" y="-82.5" font-family="Helvetica,sans-Serif" font-size="10.00">SDL_CreateWindow</text>
</a>
</g>
</g>
<!-- Node12&#45;&gt;Node14 -->
<g id="edge14_Node000012_Node000014" class="edge">
<title>Node12&#45;&gt;Node14</title>
<g id="a_edge14_Node000012_Node000014"><a xlink:title=" ">
<path fill="none" stroke="#63b8ff" d="M355.44,-86C342.45,-86 329.54,-86 317.73,-86"/>
<polygon fill="#63b8ff" stroke="#63b8ff" points="355.33,-89.5 365.33,-86 355.33,-82.5 355.33,-89.5"/>
</a>
</g>
</g>
<!-- Node15 -->
<g id="Node000015" class="node">
<title>Node15</title>
<g id="a_Node000015"><a xlink:href="../../dd/df3/SDL__render_8c.html#a36f859fae15e4277ba052f9ecfb2816d" target="_top" xlink:title=" ">
<polygon fill="white" stroke="#666666" points="162.25,-77 0,-77 0,-57 162.25,-57 162.25,-77"/>
<text xml:space="preserve" text-anchor="middle" x="81.12" y="-63.5" font-family="Helvetica,sans-Serif" font-size="10.00">SDL_CreateWindowAndRenderer</text>
</a>
</g>
</g>
<!-- Node14&#45;&gt;Node15 -->
<g id="edge15_Node000014_Node000015" class="edge">
<title>Node14&#45;&gt;Node15</title>
<g id="a_edge15_Node000014_Node000015"><a xlink:title=" ">
<path fill="none" stroke="#63b8ff" d="M200.3,-79.36C188.14,-78.09 175.26,-76.74 162.64,-75.42"/>
<polygon fill="#63b8ff" stroke="#63b8ff" points="199.89,-82.84 210.2,-80.4 200.62,-75.88 199.89,-82.84"/>
</a>
</g>
</g>
<!-- Node16&#45;&gt;Node5 -->
<g id="edge17_Node000016_Node000005" class="edge">
<title>Node16&#45;&gt;Node5</title>
<g id="a_edge17_Node000016_Node000005"><a xlink:title=" ">
<path fill="none" stroke="#63b8ff" d="M687.85,-137.21C701.74,-140.72 717.52,-145.16 730.75,-152 769.85,-172.22 806.6,-209.19 825.95,-227.68"/>
<polygon fill="#63b8ff" stroke="#63b8ff" points="688.75,-133.82 678.2,-134.81 687.06,-140.62 688.75,-133.82"/>
</a>
</g>
</g>
<!-- Node17&#45;&gt;Node3 -->
<g id="edge19_Node000017_Node000003" class="edge">
<title>Node17&#45;&gt;Node3</title>
<g id="a_edge19_Node000017_Node000003"><a xlink:title=" ">
<path fill="none" stroke="#63b8ff" d="M580.79,-358.73C562.81,-360.46 543.44,-362.32 525.35,-364.06"/>
<polygon fill="#63b8ff" stroke="#63b8ff" points="580.95,-362.23 590.57,-357.79 580.28,-355.27 580.95,-362.23"/>
</a>
</g>
</g>
<!-- Node18&#45;&gt;Node5 -->
<g id="edge21_Node000018_Node000005" class="edge">
<title>Node18&#45;&gt;Node5</title>
<g id="a_edge21_Node000018_Node000005"><a xlink:title=" ">
<path fill="none" stroke="#63b8ff" d="M741.84,-299.59C777.89,-284.54 814.97,-262.24 831.39,-248.45"/>
<polygon fill="#63b8ff" stroke="#63b8ff" points="740.61,-296.31 732.62,-303.27 743.2,-302.82 740.61,-296.31"/>
</a>
</g>
</g>
<!-- Node19&#45;&gt;Node5 -->
<g id="edge23_Node000019_Node000005" class="edge">
<title>Node19&#45;&gt;Node5</title>
<g id="a_edge23_Node000019_Node000005"><a xlink:title=" ">
<path fill="none" stroke="#63b8ff" d="M708.5,-270.94C742.94,-264.95 785.65,-255.85 812.9,-248.45"/>
<polygon fill="#63b8ff" stroke="#63b8ff" points="707.94,-267.49 698.66,-272.6 709.1,-274.39 707.94,-267.49"/>
</a>
</g>
</g>
<!-- Node20&#45;&gt;Node5 -->
<g id="edge25_Node000020_Node000005" class="edge">
<title>Node20&#45;&gt;Node5</title>
<g id="a_edge25_Node000020_Node000005"><a xlink:title=" ">
<path fill="none" stroke="#63b8ff" d="M702.91,-244.05C729.36,-244.96 761.78,-244.98 788.46,-244.11"/>
<polygon fill="#63b8ff" stroke="#63b8ff" points="703.25,-240.56 693.11,-243.65 702.96,-247.56 703.25,-240.56"/>
</a>
</g>
</g>
<!-- Node22 -->
<g id="Node000022" class="node">
<title>Node22</title>
<g id="a_Node000022"><a xlink:href="../../dd/df3/SDL__render_8c.html#a4006a2177c9369434436c35e55db4909" target="_top" xlink:title=" ">
<polygon fill="white" stroke="#666666" points="1125.75,-77 951.5,-77 951.5,-57 1125.75,-57 1125.75,-77"/>
<text xml:space="preserve" text-anchor="middle" x="1038.62" y="-63.5" font-family="Helvetica,sans-Serif" font-size="10.00">SDL_CreateRendererWithProperties</text>
</a>
</g>
</g>
<!-- Node21&#45;&gt;Node22 -->
<g id="edge28_Node000021_Node000022" class="edge">
<title>Node21&#45;&gt;Node22</title>
<g id="a_edge28_Node000021_Node000022"><a xlink:title=" ">
<path fill="none" stroke="#63b8ff" d="M1206.66,-164.97C1166.16,-141.21 1091.36,-97.34 1057.32,-77.38"/>
<polygon fill="#63b8ff" stroke="#63b8ff" points="1204.71,-167.88 1215.1,-169.92 1208.25,-161.84 1204.71,-167.88"/>
</a>
</g>
</g>
<!-- Node23 -->
<g id="Node000023" class="node">
<title>Node23</title>
<g id="a_Node000023"><a xlink:href="../../dd/df3/SDL__render_8c.html#a938956b40b80ca18f9fe8a2584916c19" target="_top" xlink:title=" ">
<polygon fill="white" stroke="#666666" points="906.88,-96 775.38,-96 775.38,-76 906.88,-76 906.88,-96"/>
<text xml:space="preserve" text-anchor="middle" x="841.12" y="-82.5" font-family="Helvetica,sans-Serif" font-size="10.00">SDL_CreateGPURenderer</text>
</a>
</g>
</g>
<!-- Node22&#45;&gt;Node23 -->
<g id="edge29_Node000022_Node000023" class="edge">
<title>Node22&#45;&gt;Node23</title>
<g id="a_edge29_Node000022_Node000023"><a xlink:title=" ">
<path fill="none" stroke="#63b8ff" d="M939.6,-76.53C928.62,-77.59 917.65,-78.66 907.23,-79.67"/>
<polygon fill="#63b8ff" stroke="#63b8ff" points="939.9,-80.01 949.52,-75.56 939.22,-73.05 939.9,-80.01"/>
</a>
</g>
</g>
<!-- Node24 -->
<g id="Node000024" class="node">
<title>Node24</title>
<g id="a_Node000024"><a xlink:href="../../dd/df3/SDL__render_8c.html#a6a2f5a459a309db3da78480c8338ff72" target="_top" xlink:title=" ">
<polygon fill="white" stroke="#666666" points="896,-58 786.25,-58 786.25,-38 896,-38 896,-58"/>
<text xml:space="preserve" text-anchor="middle" x="841.12" y="-44.5" font-family="Helvetica,sans-Serif" font-size="10.00">SDL_CreateRenderer</text>
</a>
</g>
</g>
<!-- Node22&#45;&gt;Node24 -->
<g id="edge30_Node000022_Node000024" class="edge">
<title>Node22&#45;&gt;Node24</title>
<g id="a_edge30_Node000022_Node000024"><a xlink:title=" ">
<path fill="none" stroke="#63b8ff" d="M939.65,-57.48C924.75,-56.03 909.86,-54.58 896.36,-53.27"/>
<polygon fill="#63b8ff" stroke="#63b8ff" points="939.22,-60.95 949.52,-58.44 939.9,-53.99 939.22,-60.95"/>
</a>
</g>
</g>
<!-- Node28 -->
<g id="Node000028" class="node">
<title>Node28</title>
<g id="a_Node000028"><a xlink:href="../../dd/df3/SDL__render_8c.html#a78f971f18d9db412a4df5e3d9ebbf700" target="_top" xlink:title=" ">
<polygon fill="white" stroke="#666666" points="915.5,-20 766.75,-20 766.75,0 915.5,0 915.5,-20"/>
<text xml:space="preserve" text-anchor="middle" x="841.12" y="-6.5" font-family="Helvetica,sans-Serif" font-size="10.00">SDL_CreateSoftwareRenderer</text>
</a>
</g>
</g>
<!-- Node22&#45;&gt;Node28 -->
<g id="edge35_Node000022_Node000028" class="edge">
<title>Node22&#45;&gt;Node28</title>
<g id="a_edge35_Node000022_Node000028"><a xlink:title=" ">
<path fill="none" stroke="#63b8ff" d="M994.68,-53.08C971.34,-45.66 941.93,-36.53 915.5,-29 905.25,-26.08 894.14,-23.11 883.74,-20.4"/>
<polygon fill="#63b8ff" stroke="#63b8ff" points="993.58,-56.4 1004.17,-56.11 995.71,-49.74 993.58,-56.4"/>
</a>
</g>
</g>
<!-- Node24&#45;&gt;Node15 -->
<g id="edge31_Node000024_Node000015" class="edge">
<title>Node24&#45;&gt;Node15</title>
<g id="a_edge31_Node000024_Node000015"><a xlink:title=" ">
<path fill="none" stroke="#63b8ff" d="M774.67,-49.64C636.08,-53.11 313.39,-61.2 162.54,-64.98"/>
<polygon fill="#63b8ff" stroke="#63b8ff" points="774.49,-53.15 784.4,-49.4 774.32,-46.15 774.49,-53.15"/>
</a>
</g>
</g>
<!-- Node25 -->
<g id="Node000025" class="node">
<title>Node25</title>
<g id="a_Node000025"><a xlink:href="../../d6/d3d/SDL__video_8c.html#ae87638d537fdd872b08bfb7a68f4bf1a" target="_top" xlink:title=" ">
<polygon fill="white" stroke="#666666" points="720.62,-20 583.12,-20 583.12,0 720.62,0 720.62,-20"/>
<text xml:space="preserve" text-anchor="middle" x="651.88" y="-6.5" font-family="Helvetica,sans-Serif" font-size="10.00">SDL_CreateWindowTexture</text>
</a>
</g>
</g>
<!-- Node24&#45;&gt;Node25 -->
<g id="edge32_Node000024_Node000025" class="edge">
<title>Node24&#45;&gt;Node25</title>
<g id="a_edge32_Node000024_Node000025"><a xlink:title=" ">
<path fill="none" stroke="#63b8ff" d="M777.44,-35.28C753.69,-30.46 726.96,-25.04 704.37,-20.45"/>
<polygon fill="#63b8ff" stroke="#63b8ff" points="776.48,-38.66 786.98,-37.21 777.88,-31.8 776.48,-38.66"/>
</a>
</g>
</g>
<!-- Node26 -->
<g id="Node000026" class="node">
<title>Node26</title>
<g id="a_Node000026"><a xlink:href="../../d6/d3d/SDL__video_8c.html#ae6c55eb5cc6ca81ba6faa17eab3af85b" target="_top" xlink:title=" ">
<polygon fill="white" stroke="#666666" points="530.62,-20 373.62,-20 373.62,0 530.62,0 530.62,-20"/>
<text xml:space="preserve" text-anchor="middle" x="452.12" y="-6.5" font-family="Helvetica,sans-Serif" font-size="10.00">SDL_CreateWindowFramebuffer</text>
</a>
</g>
</g>
<!-- Node25&#45;&gt;Node26 -->
<g id="edge33_Node000025_Node000026" class="edge">
<title>Node25&#45;&gt;Node26</title>
<g id="a_edge33_Node000025_Node000026"><a xlink:title=" ">
<path fill="none" stroke="#63b8ff" d="M571.66,-10C558.2,-10 544.23,-10 530.82,-10"/>
<polygon fill="#63b8ff" stroke="#63b8ff" points="571.31,-13.5 581.31,-10 571.31,-6.5 571.31,-13.5"/>
</a>
</g>
</g>
<!-- Node27 -->
<g id="Node000027" class="node">
<title>Node27</title>
<g id="a_Node000027"><a xlink:href="../../d6/d3d/SDL__video_8c.html#a155d3f01bb23f59e2c724973e020ebe6" target="_top" xlink:title=" ">
<polygon fill="white" stroke="#666666" points="327.5,-20 202,-20 202,0 327.5,0 327.5,-20"/>
<text xml:space="preserve" text-anchor="middle" x="264.75" y="-6.5" font-family="Helvetica,sans-Serif" font-size="10.00">SDL_GetWindowSurface</text>
</a>
</g>
</g>
<!-- Node26&#45;&gt;Node27 -->
<g id="edge34_Node000026_Node000027" class="edge">
<title>Node26&#45;&gt;Node27</title>
<g id="a_edge34_Node000026_Node000027"><a xlink:title=" ">
<path fill="none" stroke="#63b8ff" d="M361.87,-10C350.37,-10 338.81,-10 327.88,-10"/>
<polygon fill="#63b8ff" stroke="#63b8ff" points="361.8,-13.5 371.8,-10 361.8,-6.5 361.8,-13.5"/>
</a>
</g>
</g>
</g>
</svg>
