<?xml version="1.0" encoding="UTF-8" standalone="no"?>
<!DOCTYPE svg PUBLIC "-//W3C//DTD SVG 1.1//EN"
 "http://www.w3.org/Graphics/SVG/1.1/DTD/svg11.dtd">
<!-- Generated by graphviz version 13.1.0 (20250701.0955)
 -->
<!-- Title: SDL_AudioSpecsEqual Pages: 1 -->
<!--zoomable 280 -->

<svg id="main" version="1.1" xmlns="http://www.w3.org/2000/svg" xmlns:xlink="http://www.w3.org/1999/xlink" xml:space="preserve" onload="init(evt)">

<style type="text/css"><![CDATA[
.node, .edge {opacity: 0.7;}
.node.selected, .edge.selected {opacity: 1;}
.edge:hover path { stroke: red; }
.edge:hover polygon { stroke: red; fill: red; }
]]></style>

<defs>
  <circle id="rim" cx="0" cy="0" r="7"/>
  <circle id="rim2" cx="0" cy="0" r="3.5"/>
  <g id="zoomPlus">
    <use xlink:href="#rim" fill="#404040"><set attributeName="fill" to="#808080" begin="zoomplus.mouseover" end="zoomplus.mouseout"/></use>
    <path d="M-4,0h8M0,-4v8" fill="none" stroke="white" stroke-width="1.5" pointer-events="none"/>
  </g>
  <g id="zoomMin">
    <use xlink:href="#rim" fill="#404040"><set attributeName="fill" to="#808080" begin="zoomminus.mouseover" end="zoomminus.mouseout"/></use>
    <path d="M-4,0h8" fill="none" stroke="white" stroke-width="1.5" pointer-events="none"/>
  </g>
  <g id="arrowUp" transform="translate(30 24)">
    <use xlink:href="#rim"/>
    <path pointer-events="none" fill="none" stroke="white" stroke-width="1.5" d="M0,-3.0v7 M-2.5,-0.5L0,-3.0L2.5,-0.5"/>
  </g>
  <g id="arrowRight" transform="rotate(90) translate(36 -43)">
    <use xlink:href="#rim"/>
    <path pointer-events="none" fill="none" stroke="white" stroke-width="1.5" d="M0,-3.0v7 M-2.5,-0.5L0,-3.0L2.5,-0.5"/>
  </g>
  <g id="arrowDown" transform="rotate(180) translate(-30 -48)">
    <use xlink:href="#rim"/>
    <path pointer-events="none" fill="none" stroke="white" stroke-width="1.5" d="M0,-3.0v7 M-2.5,-0.5L0,-3.0L2.5,-0.5"/>
  </g>
  <g id="arrowLeft" transform="rotate(270) translate(-36 17)">
    <use xlink:href="#rim"/>
    <path pointer-events="none" fill="none" stroke="white" stroke-width="1.5" d="M0,-3.0v7 M-2.5,-0.5L0,-3.0L2.5,-0.5"/>
  </g>
  <g id="resetDef">
    <use xlink:href="#rim2" fill="#404040"><set attributeName="fill" to="#808080" begin="reset.mouseover" end="reset.mouseout"/></use>
  </g>
</defs>
<script type="application/ecmascript">
var viewWidth = 1889;
var viewHeight = 280;
var sectionId = 'dynsection-22';
</script>
<script type="application/ecmascript" xlink:href="../../svg.min.js"/>
<svg id="graph" class="graph">
<g id="viewport">
<title>SDL_AudioSpecsEqual</title>
<!-- Node1 -->
<g id="Node000001" class="node">
<title>Node1</title>
<g id="a_Node000001"><a xlink:title=" ">
<polygon fill="#999999" stroke="#666666" points="1880.5,-128 1762.5,-128 1762.5,-108 1880.5,-108 1880.5,-128"/>
<text xml:space="preserve" text-anchor="middle" x="1821.5" y="-114.5" font-family="Helvetica,sans-Serif" font-size="10.00">SDL_AudioSpecsEqual</text>
</a>
</g>
</g>
<!-- Node2 -->
<g id="Node000002" class="node">
<title>Node2</title>
<g id="a_Node000002"><a xlink:href="../../df/dd6/SDL__audioqueue_8c.html#a9eeb0a0d347c64a29e199a11f5ed9226" target="_top" xlink:title=" ">
<polygon fill="white" stroke="#666666" points="1716.75,-223 1570.25,-223 1570.25,-203 1716.75,-203 1716.75,-223"/>
<text xml:space="preserve" text-anchor="middle" x="1643.5" y="-209.5" font-family="Helvetica,sans-Serif" font-size="10.00">SDL_AddTrackToAudioQueue</text>
</a>
</g>
</g>
<!-- Node1&#45;&gt;Node2 -->
<g id="edge1_Node000001_Node000002" class="edge">
<title>Node1&#45;&gt;Node2</title>
<g id="a_edge1_Node000001_Node000002"><a xlink:title=" ">
<path fill="none" stroke="#63b8ff" d="M1803.15,-136.17C1785.48,-153.6 1756.49,-179.37 1726.5,-194 1719.54,-197.4 1711.95,-200.2 1704.28,-202.51"/>
<polygon fill="#63b8ff" stroke="#63b8ff" points="1805.26,-139.01 1809.81,-129.44 1800.29,-134.09 1805.26,-139.01"/>
</a>
</g>
</g>
<!-- Node12 -->
<g id="Node000012" class="node">
<title>Node12</title>
<g id="a_Node000012"><a xlink:href="../../d6/d9b/SDL__audio_8c.html#ad4cae8cf429411be160ec61914b28043" target="_top" xlink:title=" ">
<polygon fill="white" stroke="#666666" points="353.75,-70 187,-70 187,-50 353.75,-50 353.75,-70"/>
<text xml:space="preserve" text-anchor="middle" x="270.38" y="-56.5" font-family="Helvetica,sans-Serif" font-size="10.00">SDL_DefaultAudioDeviceChanged</text>
</a>
</g>
</g>
<!-- Node1&#45;&gt;Node12 -->
<g id="edge19_Node000001_Node000012" class="edge">
<title>Node1&#45;&gt;Node12</title>
<g id="a_edge19_Node000001_Node000012"><a xlink:title=" ">
<path fill="none" stroke="#63b8ff" d="M1768.63,-104.92C1696.14,-87.81 1560.19,-60 1442.5,-60 1442.5,-60 1442.5,-60 629.5,-60 535.15,-60 426.82,-60 354.23,-60"/>
<polygon fill="#63b8ff" stroke="#63b8ff" points="1767.69,-108.29 1778.23,-107.21 1769.32,-101.48 1767.69,-108.29"/>
</a>
</g>
</g>
<!-- Node17 -->
<g id="Node000017" class="node">
<title>Node17</title>
<g id="a_Node000017"><a xlink:href="../../d6/d9b/SDL__audio_8c.html#a6735716d3049d833c0ef936fabc61c35" target="_top" xlink:title=" ">
<polygon fill="white" stroke="#666666" points="1726.5,-32 1560.5,-32 1560.5,0 1726.5,0 1726.5,-32"/>
<text xml:space="preserve" text-anchor="start" x="1568.5" y="-18.5" font-family="Helvetica,sans-Serif" font-size="10.00">SDL_AudioDeviceFormatChanged</text>
<text xml:space="preserve" text-anchor="middle" x="1643.5" y="-6.5" font-family="Helvetica,sans-Serif" font-size="10.00">AlreadyLocked</text>
</a>
</g>
</g>
<!-- Node1&#45;&gt;Node17 -->
<g id="edge17_Node000001_Node000017" class="edge">
<title>Node1&#45;&gt;Node17</title>
<g id="a_edge17_Node000001_Node000017"><a xlink:title=" ">
<path fill="none" stroke="#63b8ff" d="M1800.89,-100.12C1782.68,-84.24 1754.27,-61.25 1726.5,-46 1717.2,-40.89 1706.85,-36.33 1696.73,-32.41"/>
<polygon fill="#63b8ff" stroke="#63b8ff" points="1798.49,-102.67 1808.29,-106.69 1803.13,-97.43 1798.49,-102.67"/>
</a>
</g>
</g>
<!-- Node19 -->
<g id="Node000019" class="node">
<title>Node19</title>
<g id="a_Node000019"><a xlink:href="../../d6/d9b/SDL__audio_8c.html#a8768a1f42de2a99b41a2fe823cc04720" target="_top" xlink:title=" ">
<polygon fill="white" stroke="#666666" points="1102.12,-112 938.38,-112 938.38,-92 1102.12,-92 1102.12,-112"/>
<text xml:space="preserve" text-anchor="middle" x="1020.25" y="-98.5" font-family="Helvetica,sans-Serif" font-size="10.00">SDL_PlaybackAudioThreadIterate</text>
</a>
</g>
</g>
<!-- Node1&#45;&gt;Node19 -->
<g id="edge20_Node000001_Node000019" class="edge">
<title>Node1&#45;&gt;Node19</title>
<g id="a_edge20_Node000001_Node000019"><a xlink:title=" ">
<path fill="none" stroke="#63b8ff" d="M1750.93,-116.61C1603.41,-113.65 1259.87,-106.78 1102.55,-103.63"/>
<polygon fill="#63b8ff" stroke="#63b8ff" points="1750.47,-120.1 1760.54,-116.8 1750.61,-113.1 1750.47,-120.1"/>
</a>
</g>
</g>
<!-- Node21 -->
<g id="Node000021" class="node">
<title>Node21</title>
<g id="a_Node000021"><a xlink:href="../../df/dd6/SDL__audioqueue_8c.html#acc568d4ea3b66cb76bed4aece82def7a" target="_top" xlink:title=" ">
<polygon fill="white" stroke="#666666" points="1707,-185 1580,-185 1580,-165 1707,-165 1707,-185"/>
<text xml:space="preserve" text-anchor="middle" x="1643.5" y="-171.5" font-family="Helvetica,sans-Serif" font-size="10.00">SDL_WriteToAudioQueue</text>
</a>
</g>
</g>
<!-- Node1&#45;&gt;Node21 -->
<g id="edge24_Node000001_Node000021" class="edge">
<title>Node1&#45;&gt;Node21</title>
<g id="a_edge24_Node000001_Node000021"><a xlink:title=" ">
<path fill="none" stroke="#63b8ff" d="M1787.27,-132.91C1769.49,-140.52 1747.07,-149.5 1726.5,-156 1716.47,-159.17 1705.59,-162.06 1695.14,-164.57"/>
<polygon fill="#63b8ff" stroke="#63b8ff" points="1788.52,-136.19 1796.3,-129 1785.73,-129.77 1788.52,-136.19"/>
</a>
</g>
</g>
<!-- Node22 -->
<g id="Node000022" class="node">
<title>Node22</title>
<g id="a_Node000022"><a xlink:href="../../dc/d77/SDL__audiocvt_8c.html#a25fcd5cd451576b0a464e5280fa9cce3" target="_top" xlink:title=" ">
<polygon fill="white" stroke="#666666" points="1717.5,-147 1569.5,-147 1569.5,-127 1717.5,-127 1717.5,-147"/>
<text xml:space="preserve" text-anchor="middle" x="1643.5" y="-133.5" font-family="Helvetica,sans-Serif" font-size="10.00">UpdateAudioStreamInputSpec</text>
</a>
</g>
</g>
<!-- Node1&#45;&gt;Node22 -->
<g id="edge26_Node000001_Node000022" class="edge">
<title>Node1&#45;&gt;Node22</title>
<g id="a_edge26_Node000001_Node000022"><a xlink:title=" ">
<path fill="none" stroke="#63b8ff" d="M1751.18,-125.48C1740.26,-126.66 1728.94,-127.88 1717.94,-129.07"/>
<polygon fill="#63b8ff" stroke="#63b8ff" points="1751.31,-128.99 1760.88,-124.44 1750.56,-122.03 1751.31,-128.99"/>
</a>
</g>
</g>
<!-- Node3 -->
<g id="Node000003" class="node">
<title>Node3</title>
<g id="a_Node000003"><a xlink:href="../../dc/d77/SDL__audiocvt_8c.html#a0cfc2690d4770f3b9c5391764f06df8d" target="_top" xlink:title=" ">
<polygon fill="white" stroke="#666666" points="1514,-223 1369,-223 1369,-203 1514,-203 1514,-223"/>
<text xml:space="preserve" text-anchor="middle" x="1441.5" y="-209.5" font-family="Helvetica,sans-Serif" font-size="10.00">PutAudioStreamBufferInternal</text>
</a>
</g>
</g>
<!-- Node2&#45;&gt;Node3 -->
<g id="edge2_Node000002_Node000003" class="edge">
<title>Node2&#45;&gt;Node3</title>
<g id="a_edge2_Node000002_Node000003"><a xlink:title=" ">
<path fill="none" stroke="#63b8ff" d="M1558.84,-213C1544.07,-213 1528.81,-213 1514.41,-213"/>
<polygon fill="#63b8ff" stroke="#63b8ff" points="1558.5,-216.5 1568.5,-213 1558.5,-209.5 1558.5,-216.5"/>
</a>
</g>
</g>
<!-- Node4 -->
<g id="Node000004" class="node">
<title>Node4</title>
<g id="a_Node000004"><a xlink:href="../../dc/d77/SDL__audiocvt_8c.html#a0c7c55ad2b82dbc7ce6b5113ac456452" target="_top" xlink:title=" ">
<polygon fill="white" stroke="#666666" points="1288,-223 1175.25,-223 1175.25,-203 1288,-203 1288,-223"/>
<text xml:space="preserve" text-anchor="middle" x="1231.62" y="-209.5" font-family="Helvetica,sans-Serif" font-size="10.00">PutAudioStreamBuffer</text>
</a>
</g>
</g>
<!-- Node3&#45;&gt;Node4 -->
<g id="edge3_Node000003_Node000004" class="edge">
<title>Node3&#45;&gt;Node4</title>
<g id="a_edge3_Node000003_Node000004"><a xlink:title=" ">
<path fill="none" stroke="#63b8ff" d="M1357.42,-213C1334.23,-213 1309.59,-213 1288.38,-213"/>
<polygon fill="#63b8ff" stroke="#63b8ff" points="1357.16,-216.5 1367.16,-213 1357.16,-209.5 1357.16,-216.5"/>
</a>
</g>
</g>
<!-- Node6 -->
<g id="Node000006" class="node">
<title>Node6</title>
<g id="a_Node000006"><a xlink:href="../../dc/d77/SDL__audiocvt_8c.html#a013d8e85ba5cb31a851d3bfd54b33df3" target="_top" xlink:title=" ">
<polygon fill="white" stroke="#666666" points="899.75,-272 739,-272 739,-252 899.75,-252 899.75,-272"/>
<text xml:space="preserve" text-anchor="middle" x="819.38" y="-258.5" font-family="Helvetica,sans-Serif" font-size="10.00">SDL_PutAudioStreamPlanarData</text>
</a>
</g>
</g>
<!-- Node3&#45;&gt;Node6 -->
<g id="edge16_Node000003_Node000006" class="edge">
<title>Node3&#45;&gt;Node6</title>
<g id="a_edge16_Node000003_Node000006"><a xlink:title=" ">
<path fill="none" stroke="#63b8ff" d="M1371.77,-225.25C1355.65,-227.8 1338.5,-230.24 1322.5,-232 1173.85,-248.37 999.38,-256.26 900.16,-259.69"/>
<polygon fill="#63b8ff" stroke="#63b8ff" points="1371.93,-228.77 1381.25,-223.72 1370.82,-221.86 1371.93,-228.77"/>
</a>
</g>
</g>
<!-- Node5 -->
<g id="Node000005" class="node">
<title>Node5</title>
<g id="a_Node000005"><a xlink:href="../../dc/d77/SDL__audiocvt_8c.html#af2fe3a9702adf846f4f813d2a53389f5" target="_top" xlink:title=" ">
<polygon fill="white" stroke="#666666" points="1086.75,-228 953.75,-228 953.75,-208 1086.75,-208 1086.75,-228"/>
<text xml:space="preserve" text-anchor="middle" x="1020.25" y="-214.5" font-family="Helvetica,sans-Serif" font-size="10.00">SDL_PutAudioStreamData</text>
</a>
</g>
</g>
<!-- Node4&#45;&gt;Node5 -->
<g id="edge4_Node000004_Node000005" class="edge">
<title>Node4&#45;&gt;Node5</title>
<g id="a_edge4_Node000004_Node000005"><a xlink:title=" ">
<path fill="none" stroke="#63b8ff" d="M1163.42,-214.6C1138.94,-215.19 1111.31,-215.85 1086.96,-216.43"/>
<polygon fill="#63b8ff" stroke="#63b8ff" points="1163.36,-218.11 1173.28,-214.37 1163.2,-211.11 1163.36,-218.11"/>
</a>
</g>
</g>
<!-- Node15 -->
<g id="Node000015" class="node">
<title>Node15</title>
<g id="a_Node000015"><a xlink:href="../../dc/d77/SDL__audiocvt_8c.html#af47d703f8e43d5087951d17b6c8436a5" target="_top" xlink:title=" ">
<polygon fill="white" stroke="#666666" points="1104.75,-189 935.75,-189 935.75,-169 1104.75,-169 1104.75,-189"/>
<text xml:space="preserve" text-anchor="middle" x="1020.25" y="-175.5" font-family="Helvetica,sans-Serif" font-size="10.00">SDL_PutAudioStreamDataNoCopy</text>
</a>
</g>
</g>
<!-- Node4&#45;&gt;Node15 -->
<g id="edge14_Node000004_Node000015" class="edge">
<title>Node4&#45;&gt;Node15</title>
<g id="a_edge14_Node000004_Node000015"><a xlink:title=" ">
<path fill="none" stroke="#63b8ff" d="M1163.6,-202.12C1138.7,-198.07 1110.51,-193.49 1085.83,-189.49"/>
<polygon fill="#63b8ff" stroke="#63b8ff" points="1162.87,-205.54 1173.3,-203.69 1163.99,-198.63 1162.87,-205.54"/>
</a>
</g>
</g>
<!-- Node5&#45;&gt;Node6 -->
<g id="edge5_Node000005_Node000006" class="edge">
<title>Node5&#45;&gt;Node6</title>
<g id="a_edge5_Node000005_Node000006"><a xlink:title=" ">
<path fill="none" stroke="#63b8ff" d="M960.82,-230.93C931.18,-237.48 895.65,-245.35 867.74,-251.52"/>
<polygon fill="#63b8ff" stroke="#63b8ff" points="961.38,-234.39 970.39,-228.81 959.87,-227.55 961.38,-234.39"/>
</a>
</g>
</g>
<!-- Node7 -->
<g id="Node000007" class="node">
<title>Node7</title>
<g id="a_Node000007"><a xlink:href="../../d6/d9b/SDL__audio_8c.html#a3a132c60c931f1c864ba5da2b1c86717" target="_top" xlink:title=" ">
<polygon fill="white" stroke="#666666" points="889.25,-234 749.5,-234 749.5,-202 889.25,-202 889.25,-234"/>
<text xml:space="preserve" text-anchor="start" x="757.5" y="-220.5" font-family="Helvetica,sans-Serif" font-size="10.00">SDL_RecordingAudioThread</text>
<text xml:space="preserve" text-anchor="middle" x="819.38" y="-208.5" font-family="Helvetica,sans-Serif" font-size="10.00">Iterate</text>
</a>
</g>
</g>
<!-- Node5&#45;&gt;Node7 -->
<g id="edge6_Node000005_Node000007" class="edge">
<title>Node5&#45;&gt;Node7</title>
<g id="a_edge6_Node000005_Node000007"><a xlink:title=" ">
<path fill="none" stroke="#63b8ff" d="M942.09,-218C924.78,-218 906.51,-218 889.55,-218"/>
<polygon fill="#63b8ff" stroke="#63b8ff" points="941.79,-221.5 951.79,-218 941.79,-214.5 941.79,-221.5"/>
</a>
</g>
</g>
<!-- Node8 -->
<g id="Node000008" class="node">
<title>Node8</title>
<g id="a_Node000008"><a xlink:href="../../d3/d8a/SDL__dummyaudio_8c.html#a954b1d30669ef0d1b5d4615515c94498" target="_top" xlink:title=" ">
<polygon fill="white" stroke="#666666" points="703,-217 558,-217 558,-197 703,-197 703,-217"/>
<text xml:space="preserve" text-anchor="middle" x="630.5" y="-203.5" font-family="Helvetica,sans-Serif" font-size="10.00">DUMMYAUDIO_OpenDevice</text>
</a>
</g>
</g>
<!-- Node7&#45;&gt;Node8 -->
<g id="edge7_Node000007_Node000008" class="edge">
<title>Node7&#45;&gt;Node8</title>
<g id="a_edge7_Node000007_Node000008"><a xlink:title=" ">
<path fill="none" stroke="#63b8ff" d="M737.7,-213.25C726.23,-212.58 714.49,-211.89 703.21,-211.22"/>
<polygon fill="#63b8ff" stroke="#63b8ff" points="737.36,-216.74 747.54,-213.83 737.77,-209.75 737.36,-216.74"/>
</a>
</g>
</g>
<!-- Node10 -->
<g id="Node000010" class="node">
<title>Node10</title>
<g id="a_Node000010"><a xlink:href="../../d6/d9b/SDL__audio_8c.html#a78509cdb3b4a17a333ba844e392a3c56" target="_top" xlink:title=" ">
<polygon fill="white" stroke="#666666" points="688,-168 573,-168 573,-148 688,-148 688,-168"/>
<text xml:space="preserve" text-anchor="middle" x="630.5" y="-154.5" font-family="Helvetica,sans-Serif" font-size="10.00">RecordingAudioThread</text>
</a>
</g>
</g>
<!-- Node7&#45;&gt;Node10 -->
<g id="edge9_Node000007_Node000010" class="edge">
<title>Node7&#45;&gt;Node10</title>
<g id="a_edge9_Node000007_Node000010"><a xlink:title=" ">
<path fill="none" stroke="#63b8ff" d="M755.27,-198.19C749.77,-196.44 744.28,-194.69 739,-193 713.58,-184.86 684.83,-175.49 663.46,-168.49"/>
<polygon fill="#63b8ff" stroke="#63b8ff" points="753.8,-201.39 764.39,-201.07 755.92,-194.72 753.8,-201.39"/>
</a>
</g>
</g>
<!-- Node9 -->
<g id="Node000009" class="node">
<title>Node9</title>
<g id="a_Node000009"><a xlink:href="../../d3/d8a/SDL__dummyaudio_8c.html#a29ca48806a568f46e322654ffd7271ab" target="_top" xlink:title=" ">
<polygon fill="white" stroke="#666666" points="508.12,-217 403.62,-217 403.62,-197 508.12,-197 508.12,-217"/>
<text xml:space="preserve" text-anchor="middle" x="455.88" y="-203.5" font-family="Helvetica,sans-Serif" font-size="10.00">DUMMYAUDIO_Init</text>
</a>
</g>
</g>
<!-- Node8&#45;&gt;Node9 -->
<g id="edge8_Node000008_Node000009" class="edge">
<title>Node8&#45;&gt;Node9</title>
<g id="a_edge8_Node000008_Node000009"><a xlink:title=" ">
<path fill="none" stroke="#63b8ff" d="M546.44,-207C533.45,-207 520.37,-207 508.37,-207"/>
<polygon fill="#63b8ff" stroke="#63b8ff" points="546.28,-210.5 556.28,-207 546.28,-203.5 546.28,-210.5"/>
</a>
</g>
</g>
<!-- Node11 -->
<g id="Node000011" class="node">
<title>Node11</title>
<g id="a_Node000011"><a xlink:href="../../d6/d9b/SDL__audio_8c.html#a67d5d3273196908cd2180bde093c413d" target="_top" xlink:title=" ">
<polygon fill="white" stroke="#666666" points="522,-108 389.75,-108 389.75,-88 522,-88 522,-108"/>
<text xml:space="preserve" text-anchor="middle" x="455.88" y="-94.5" font-family="Helvetica,sans-Serif" font-size="10.00">OpenPhysicalAudioDevice</text>
</a>
</g>
</g>
<!-- Node10&#45;&gt;Node11 -->
<g id="edge10_Node000010_Node000011" class="edge">
<title>Node10&#45;&gt;Node11</title>
<g id="a_edge10_Node000010_Node000011"><a xlink:title=" ">
<path fill="none" stroke="#63b8ff" d="M588.88,-143.88C557.62,-133.02 515.13,-118.25 486.89,-108.43"/>
<polygon fill="#63b8ff" stroke="#63b8ff" points="587.41,-147.07 598,-147.05 589.7,-140.46 587.41,-147.07"/>
</a>
</g>
</g>
<!-- Node11&#45;&gt;Node12 -->
<g id="edge11_Node000011_Node000012" class="edge">
<title>Node11&#45;&gt;Node12</title>
<g id="a_edge11_Node000011_Node000012"><a xlink:title=" ">
<path fill="none" stroke="#63b8ff" d="M393.13,-85.21C369.94,-80.41 343.88,-75.01 321.84,-70.45"/>
<polygon fill="#63b8ff" stroke="#63b8ff" points="392.26,-88.61 402.76,-87.21 393.68,-81.75 392.26,-88.61"/>
</a>
</g>
</g>
<!-- Node13 -->
<g id="Node000013" class="node">
<title>Node13</title>
<g id="a_Node000013"><a xlink:href="../../d6/d9b/SDL__audio_8c.html#ad4a998b0fa52004c6db6b4182de26f8c" target="_top" xlink:title=" ">
<polygon fill="white" stroke="#666666" points="330.12,-108 210.62,-108 210.62,-88 330.12,-88 330.12,-108"/>
<text xml:space="preserve" text-anchor="middle" x="270.38" y="-94.5" font-family="Helvetica,sans-Serif" font-size="10.00">SDL_OpenAudioDevice</text>
</a>
</g>
</g>
<!-- Node11&#45;&gt;Node13 -->
<g id="edge12_Node000011_Node000013" class="edge">
<title>Node11&#45;&gt;Node13</title>
<g id="a_edge12_Node000011_Node000013"><a xlink:title=" ">
<path fill="none" stroke="#63b8ff" d="M377.96,-98C362.06,-98 345.55,-98 330.41,-98"/>
<polygon fill="#63b8ff" stroke="#63b8ff" points="377.89,-101.5 387.89,-98 377.89,-94.5 377.89,-101.5"/>
</a>
</g>
</g>
<!-- Node14 -->
<g id="Node000014" class="node">
<title>Node14</title>
<g id="a_Node000014"><a xlink:href="../../d6/d9b/SDL__audio_8c.html#a73ac117b5e299633d58be618680af357" target="_top" xlink:title=" ">
<polygon fill="white" stroke="#666666" points="151,-108 0,-108 0,-88 151,-88 151,-108"/>
<text xml:space="preserve" text-anchor="middle" x="75.5" y="-94.5" font-family="Helvetica,sans-Serif" font-size="10.00">SDL_OpenAudioDeviceStream</text>
</a>
</g>
</g>
<!-- Node13&#45;&gt;Node14 -->
<g id="edge13_Node000013_Node000014" class="edge">
<title>Node13&#45;&gt;Node14</title>
<g id="a_edge13_Node000013_Node000014"><a xlink:title=" ">
<path fill="none" stroke="#63b8ff" d="M199.07,-98C183.52,-98 166.99,-98 151.26,-98"/>
<polygon fill="#63b8ff" stroke="#63b8ff" points="198.68,-101.5 208.68,-98 198.68,-94.5 198.68,-101.5"/>
</a>
</g>
</g>
<!-- Node16 -->
<g id="Node000016" class="node">
<title>Node16</title>
<g id="a_Node000016"><a xlink:href="../../dc/d77/SDL__audiocvt_8c.html#a90af0e041cebdc41c97e4f30cfdcf01a" target="_top" xlink:title=" ">
<polygon fill="white" stroke="#666666" points="888.5,-184 750.25,-184 750.25,-164 888.5,-164 888.5,-184"/>
<text xml:space="preserve" text-anchor="middle" x="819.38" y="-170.5" font-family="Helvetica,sans-Serif" font-size="10.00">SDL_ConvertAudioSamples</text>
</a>
</g>
</g>
<!-- Node15&#45;&gt;Node16 -->
<g id="edge15_Node000015_Node000016" class="edge">
<title>Node15&#45;&gt;Node16</title>
<g id="a_edge15_Node000015_Node000016"><a xlink:title=" ">
<path fill="none" stroke="#63b8ff" d="M924.16,-176.61C912.29,-176.31 900.34,-176.01 888.98,-175.72"/>
<polygon fill="#63b8ff" stroke="#63b8ff" points="923.89,-180.1 933.97,-176.86 924.06,-173.11 923.89,-180.1"/>
</a>
</g>
</g>
<!-- Node18 -->
<g id="Node000018" class="node">
<title>Node18</title>
<g id="a_Node000018"><a xlink:href="../../d6/d9b/SDL__audio_8c.html#aaac59559de953e0338e49f8d2d2911af" target="_top" xlink:title=" ">
<polygon fill="white" stroke="#666666" points="1524.5,-26 1358.5,-26 1358.5,-6 1524.5,-6 1524.5,-26"/>
<text xml:space="preserve" text-anchor="middle" x="1441.5" y="-12.5" font-family="Helvetica,sans-Serif" font-size="10.00">SDL_AudioDeviceFormatChanged</text>
</a>
</g>
</g>
<!-- Node17&#45;&gt;Node18 -->
<g id="edge18_Node000017_Node000018" class="edge">
<title>Node17&#45;&gt;Node18</title>
<g id="a_edge18_Node000017_Node000018"><a xlink:title=" ">
<path fill="none" stroke="#63b8ff" d="M1548.92,-16C1540.84,-16 1532.7,-16 1524.72,-16"/>
<polygon fill="#63b8ff" stroke="#63b8ff" points="1548.77,-19.5 1558.77,-16 1548.77,-12.5 1548.77,-19.5"/>
</a>
</g>
</g>
<!-- Node19&#45;&gt;Node8 -->
<g id="edge21_Node000019_Node000008" class="edge">
<title>Node19&#45;&gt;Node8</title>
<g id="a_edge21_Node000019_Node000008"><a xlink:title=" ">
<path fill="none" stroke="#63b8ff" d="M926.72,-110.97C870.96,-118.45 799.3,-131.77 739,-155 721.5,-161.74 719.69,-168.46 703,-177 688.86,-184.24 672.56,-191.17 659.1,-196.55"/>
<polygon fill="#63b8ff" stroke="#63b8ff" points="927.04,-114.46 936.5,-109.7 926.14,-107.52 927.04,-114.46"/>
</a>
</g>
</g>
<!-- Node20 -->
<g id="Node000020" class="node">
<title>Node20</title>
<g id="a_Node000020"><a xlink:href="../../d6/d9b/SDL__audio_8c.html#a3473ee34d8a21ca17ce7dc8be4d62295" target="_top" xlink:title=" ">
<polygon fill="white" stroke="#666666" points="686.12,-108 574.88,-108 574.88,-88 686.12,-88 686.12,-108"/>
<text xml:space="preserve" text-anchor="middle" x="630.5" y="-94.5" font-family="Helvetica,sans-Serif" font-size="10.00">PlaybackAudioThread</text>
</a>
</g>
</g>
<!-- Node19&#45;&gt;Node20 -->
<g id="edge22_Node000019_Node000020" class="edge">
<title>Node19&#45;&gt;Node20</title>
<g id="a_edge22_Node000019_Node000020"><a xlink:title=" ">
<path fill="none" stroke="#63b8ff" d="M926.66,-101.04C851.79,-100.27 748.89,-99.21 686.46,-98.57"/>
<polygon fill="#63b8ff" stroke="#63b8ff" points="926.42,-104.54 936.45,-101.15 926.49,-97.54 926.42,-104.54"/>
</a>
</g>
</g>
<!-- Node20&#45;&gt;Node11 -->
<g id="edge23_Node000020_Node000011" class="edge">
<title>Node20&#45;&gt;Node11</title>
<g id="a_edge23_Node000020_Node000011"><a xlink:title=" ">
<path fill="none" stroke="#63b8ff" d="M562.9,-98C549.57,-98 535.58,-98 522.3,-98"/>
<polygon fill="#63b8ff" stroke="#63b8ff" points="562.89,-101.5 572.89,-98 562.89,-94.5 562.89,-101.5"/>
</a>
</g>
</g>
<!-- Node21&#45;&gt;Node3 -->
<g id="edge25_Node000021_Node000003" class="edge">
<title>Node21&#45;&gt;Node3</title>
<g id="a_edge25_Node000021_Node000003"><a xlink:title=" ">
<path fill="none" stroke="#63b8ff" d="M1576.23,-187.59C1550.7,-192.44 1521.85,-197.92 1497.5,-202.55"/>
<polygon fill="#63b8ff" stroke="#63b8ff" points="1576.66,-191.07 1585.83,-185.77 1575.36,-184.19 1576.66,-191.07"/>
</a>
</g>
</g>
<!-- Node23 -->
<g id="Node000023" class="node">
<title>Node23</title>
<g id="a_Node000023"><a xlink:href="../../dc/d77/SDL__audiocvt_8c.html#a3ba5e9e434f54078c84d9a1469d44fea" target="_top" xlink:title=" ">
<polygon fill="white" stroke="#666666" points="1322.5,-147 1140.75,-147 1140.75,-127 1322.5,-127 1322.5,-147"/>
<text xml:space="preserve" text-anchor="middle" x="1231.62" y="-133.5" font-family="Helvetica,sans-Serif" font-size="10.00">SDL_GetAudioStreamDataAdjustGain</text>
</a>
</g>
</g>
<!-- Node22&#45;&gt;Node23 -->
<g id="edge27_Node000022_Node000023" class="edge">
<title>Node22&#45;&gt;Node23</title>
<g id="a_edge27_Node000022_Node000023"><a xlink:title=" ">
<path fill="none" stroke="#63b8ff" d="M1558.03,-137C1489.43,-137 1392.9,-137 1322.8,-137"/>
<polygon fill="#63b8ff" stroke="#63b8ff" points="1557.71,-140.5 1567.71,-137 1557.71,-133.5 1557.71,-140.5"/>
</a>
</g>
</g>
<!-- Node23&#45;&gt;Node19 -->
<g id="edge30_Node000023_Node000019" class="edge">
<title>Node23&#45;&gt;Node19</title>
<g id="a_edge30_Node000023_Node000019"><a xlink:title=" ">
<path fill="none" stroke="#63b8ff" d="M1156.94,-124.68C1133.06,-120.69 1106.82,-116.3 1083.83,-112.46"/>
<polygon fill="#63b8ff" stroke="#63b8ff" points="1156.16,-128.1 1166.6,-126.3 1157.31,-121.2 1156.16,-128.1"/>
</a>
</g>
</g>
<!-- Node24 -->
<g id="Node000024" class="node">
<title>Node24</title>
<g id="a_Node000024"><a xlink:href="../../dc/d77/SDL__audiocvt_8c.html#a2cb08c5a71b1cb8d4fb4e1d4d3e8f9d6" target="_top" xlink:title=" ">
<polygon fill="white" stroke="#666666" points="1087.12,-150 953.38,-150 953.38,-130 1087.12,-130 1087.12,-150"/>
<text xml:space="preserve" text-anchor="middle" x="1020.25" y="-136.5" font-family="Helvetica,sans-Serif" font-size="10.00">SDL_GetAudioStreamData</text>
</a>
</g>
</g>
<!-- Node23&#45;&gt;Node24 -->
<g id="edge28_Node000023_Node000024" class="edge">
<title>Node23&#45;&gt;Node24</title>
<g id="a_edge28_Node000023_Node000024"><a xlink:title=" ">
<path fill="none" stroke="#63b8ff" d="M1129.05,-138.46C1114.96,-138.66 1100.8,-138.86 1087.59,-139.05"/>
<polygon fill="#63b8ff" stroke="#63b8ff" points="1128.85,-141.96 1138.8,-138.32 1128.75,-134.96 1128.85,-141.96"/>
</a>
</g>
</g>
<!-- Node24&#45;&gt;Node16 -->
<g id="edge29_Node000024_Node000016" class="edge">
<title>Node24&#45;&gt;Node16</title>
<g id="a_edge29_Node000024_Node000016"><a xlink:title=" ">
<path fill="none" stroke="#63b8ff" d="M946.62,-152.42C925.23,-156.07 902.05,-160.04 881.46,-163.56"/>
<polygon fill="#63b8ff" stroke="#63b8ff" points="947.2,-155.87 956.47,-150.73 946.02,-148.97 947.2,-155.87"/>
</a>
</g>
</g>
</g>
</svg>

<g id="navigator" transform="translate(0 0)" fill="#404254">
  <rect fill="#f2f5e9" fill-opacity="0.5" stroke="#606060" stroke-width=".5" x="0" y="0" width="60" height="60"/>
  <use id="zoomplus" xlink:href="#zoomPlus" x="17" y="9" onmousedown="handleZoom(evt,'in')"/>
  <use id="zoomminus" xlink:href="#zoomMin" x="42" y="9" onmousedown="handleZoom(evt,'out')"/>
  <use id="reset" xlink:href="#resetDef" x="30" y="36" onmousedown="handleReset()"/>
   <use id="arrowup" xlink:href="#arrowUp" x="0" y="0" onmousedown="handlePan(0,-1)"/>
  <use id="arrowright" xlink:href="#arrowRight" x="0" y="0" onmousedown="handlePan(1,0)"/>
  <use id="arrowdown" xlink:href="#arrowDown" x="0" y="0" onmousedown="handlePan(0,1)"/>
  <use id="arrowleft" xlink:href="#arrowLeft" x="0" y="0" onmousedown="handlePan(-1,0)"/>
</g>
<svg viewBox="0 0 15 15" width="100%" height="30px" preserveAspectRatio="xMaxYMin meet">
 <g id="arrow_out" transform="scale(0.3 0.3)">
  <a xlink:href="SDL__sysaudio_8h_ad9975f57d98afef9d31de615d666c546_icgraph_org.svg" target="_base">
   <rect id="button" ry="5" rx="5" y="6" x="6" height="38" width="38"
        fill="#f2f5e9" fill-opacity="0.5" stroke="#606060" stroke-width="1.0"/>
   <path id="arrow"
     d="M 11.500037,31.436501 C 11.940474,20.09759 22.043105,11.32322 32.158766,21.979434 L 37.068811,17.246167 C 37.068811,17.246167 37.088388,32 37.088388,32 L 22.160133,31.978069 C 22.160133,31.978069 26.997745,27.140456 26.997745,27.140456 C 18.528582,18.264221 13.291696,25.230495 11.500037,31.436501 z"
     style="fill:#404040;"/>
  </a>
 </g>
</svg>

<style type='text/css'>
<![CDATA[
[data-mouse-over-selected='false'] { opacity: 0.7; }
[data-mouse-over-selected='true']  { opacity: 1.0; }
]]>
</style>
<script type="application/ecmascript"><![CDATA[
document.addEventListener('DOMContentLoaded', (event) => {
  highlightEdges();
  highlightAdjacentNodes();
});
]]></script>
</svg>
