<?xml version="1.0" encoding="UTF-8" standalone="no"?>
<!DOCTYPE svg PUBLIC "-//W3C//DTD SVG 1.1//EN"
 "http://www.w3.org/Graphics/SVG/1.1/DTD/svg11.dtd">
<!-- Generated by graphviz version 13.1.0 (20250701.0955)
 -->
<!-- Title: SDL_AudioChannelMapsEqual Pages: 1 -->
<svg width="1779pt" height="202pt"
 viewBox="0.00 0.00 1779.00 202.00" xmlns="http://www.w3.org/2000/svg" xmlns:xlink="http://www.w3.org/1999/xlink">
<g id="graph0" class="graph" transform="scale(1 1) rotate(0) translate(4 197.73)">
<title>SDL_AudioChannelMapsEqual</title>
<!-- Node1 -->
<g id="Node000001" class="node">
<title>Node1</title>
<g id="a_Node000001"><a xlink:title=" ">
<polygon fill="#999999" stroke="#666666" points="1771,-96 1620.75,-96 1620.75,-76 1771,-76 1771,-96"/>
<text xml:space="preserve" text-anchor="middle" x="1695.88" y="-82.5" font-family="Helvetica,sans-Serif" font-size="10.00">SDL_AudioChannelMapsEqual</text>
</a>
</g>
</g>
<!-- Node2 -->
<g id="Node000002" class="node">
<title>Node2</title>
<g id="a_Node000002"><a xlink:href="../../dc/d77/SDL__audiocvt_8c.html#af70024537aa3624db425ee630d6af1eb" target="_top" xlink:title=" ">
<polygon fill="white" stroke="#666666" points="1584.75,-134 1509.5,-134 1509.5,-114 1584.75,-114 1584.75,-134"/>
<text xml:space="preserve" text-anchor="middle" x="1547.12" y="-120.5" font-family="Helvetica,sans-Serif" font-size="10.00">ConvertAudio</text>
</a>
</g>
</g>
<!-- Node1&#45;&gt;Node2 -->
<g id="edge1_Node000001_Node000002" class="edge">
<title>Node1&#45;&gt;Node2</title>
<g id="a_edge1_Node000001_Node000002"><a xlink:title=" ">
<path fill="none" stroke="#63b8ff" d="M1643.35,-99.34C1624.1,-104.33 1602.63,-109.88 1584.97,-114.46"/>
<polygon fill="#63b8ff" stroke="#63b8ff" points="1644.12,-102.76 1652.92,-96.86 1642.36,-95.98 1644.12,-102.76"/>
</a>
</g>
</g>
<!-- Node7 -->
<g id="Node000007" class="node">
<title>Node7</title>
<g id="a_Node000007"><a xlink:href="../../d6/d9b/SDL__audio_8c.html#a8768a1f42de2a99b41a2fe823cc04720" target="_top" xlink:title=" ">
<polygon fill="white" stroke="#666666" points="902.75,-96 739,-96 739,-76 902.75,-76 902.75,-96"/>
<text xml:space="preserve" text-anchor="middle" x="820.88" y="-82.5" font-family="Helvetica,sans-Serif" font-size="10.00">SDL_PlaybackAudioThreadIterate</text>
</a>
</g>
</g>
<!-- Node1&#45;&gt;Node7 -->
<g id="edge21_Node000001_Node000007" class="edge">
<title>Node1&#45;&gt;Node7</title>
<g id="a_edge21_Node000001_Node000007"><a xlink:title=" ">
<path fill="none" stroke="#63b8ff" d="M1609.03,-86C1551.25,-86 1473.36,-86 1404.62,-86 1404.62,-86 1404.62,-86 1226.12,-86 1114.18,-86 984.81,-86 903.18,-86"/>
<polygon fill="#63b8ff" stroke="#63b8ff" points="1608.79,-89.5 1618.79,-86 1608.79,-82.5 1608.79,-89.5"/>
</a>
</g>
</g>
<!-- Node16 -->
<g id="Node000016" class="node">
<title>Node16</title>
<g id="a_Node000016"><a xlink:href="../../d6/d9b/SDL__audio_8c.html#a3a132c60c931f1c864ba5da2b1c86717" target="_top" xlink:title=" ">
<polygon fill="white" stroke="#666666" points="1473.5,-58 1333.75,-58 1333.75,-26 1473.5,-26 1473.5,-58"/>
<text xml:space="preserve" text-anchor="start" x="1341.75" y="-44.5" font-family="Helvetica,sans-Serif" font-size="10.00">SDL_RecordingAudioThread</text>
<text xml:space="preserve" text-anchor="middle" x="1403.62" y="-32.5" font-family="Helvetica,sans-Serif" font-size="10.00">Iterate</text>
</a>
</g>
</g>
<!-- Node1&#45;&gt;Node16 -->
<g id="edge22_Node000001_Node000016" class="edge">
<title>Node1&#45;&gt;Node16</title>
<g id="a_edge22_Node000001_Node000016"><a xlink:title=" ">
<path fill="none" stroke="#63b8ff" d="M1614.43,-73.8C1570.25,-67.11 1516.01,-58.89 1473.75,-52.48"/>
<polygon fill="#63b8ff" stroke="#63b8ff" points="1613.81,-77.25 1624.23,-75.29 1614.86,-70.33 1613.81,-77.25"/>
</a>
</g>
</g>
<!-- Node3 -->
<g id="Node000003" class="node">
<title>Node3</title>
<g id="a_Node000003"><a xlink:href="../../dc/d77/SDL__audiocvt_8c.html#a6f6db364185a283949ea41d5e754cc54" target="_top" xlink:title=" ">
<polygon fill="white" stroke="#666666" points="1297.75,-172 1156.5,-172 1156.5,-152 1297.75,-152 1297.75,-172"/>
<text xml:space="preserve" text-anchor="middle" x="1227.12" y="-158.5" font-family="Helvetica,sans-Serif" font-size="10.00">GetAudioStreamDataInternal</text>
</a>
</g>
</g>
<!-- Node2&#45;&gt;Node3 -->
<g id="edge2_Node000002_Node000003" class="edge">
<title>Node2&#45;&gt;Node3</title>
<g id="a_edge2_Node000002_Node000003"><a xlink:title=" ">
<path fill="none" stroke="#63b8ff" d="M1529.68,-142.29C1516.13,-155.89 1495.62,-173.36 1473.5,-181 1400.4,-206.26 1308.01,-186.3 1260.15,-172.44"/>
<polygon fill="#63b8ff" stroke="#63b8ff" points="1532.11,-144.81 1536.47,-135.15 1527.04,-139.98 1532.11,-144.81"/>
</a>
</g>
</g>
<!-- Node2&#45;&gt;Node7 -->
<g id="edge14_Node000002_Node000007" class="edge">
<title>Node2&#45;&gt;Node7</title>
<g id="a_edge14_Node000002_Node000007"><a xlink:title=" ">
<path fill="none" stroke="#63b8ff" d="M1497.85,-123.4C1394.94,-121.83 1146.4,-116.51 938.75,-100 926.93,-99.06 914.47,-97.83 902.27,-96.48"/>
<polygon fill="#63b8ff" stroke="#63b8ff" points="1497.53,-126.89 1507.58,-123.54 1497.63,-119.9 1497.53,-126.89"/>
</a>
</g>
</g>
<!-- Node15 -->
<g id="Node000015" class="node">
<title>Node15</title>
<g id="a_Node000015"><a xlink:href="../../df/dd6/SDL__audioqueue_8c.html#a8f210aa7469c65c456e261e4fd093639" target="_top" xlink:title=" ">
<polygon fill="white" stroke="#666666" points="1473.5,-172 1333.75,-172 1333.75,-152 1473.5,-152 1473.5,-172"/>
<text xml:space="preserve" text-anchor="middle" x="1403.62" y="-158.5" font-family="Helvetica,sans-Serif" font-size="10.00">SDL_ReadFromAudioQueue</text>
</a>
</g>
</g>
<!-- Node2&#45;&gt;Node15 -->
<g id="edge15_Node000002_Node000015" class="edge">
<title>Node2&#45;&gt;Node15</title>
<g id="a_edge15_Node000002_Node000015"><a xlink:title=" ">
<path fill="none" stroke="#63b8ff" d="M1498.25,-136.86C1480.42,-141.65 1460.4,-147.02 1443.48,-151.57"/>
<polygon fill="#63b8ff" stroke="#63b8ff" points="1499.11,-140.25 1507.86,-134.28 1497.29,-133.49 1499.11,-140.25"/>
</a>
</g>
</g>
<!-- Node2&#45;&gt;Node16 -->
<g id="edge17_Node000002_Node000016" class="edge">
<title>Node2&#45;&gt;Node16</title>
<g id="a_edge17_Node000002_Node000016"><a xlink:title=" ">
<path fill="none" stroke="#63b8ff" d="M1518.38,-107.92C1493.69,-93.61 1457.74,-72.78 1432.89,-58.38"/>
<polygon fill="#63b8ff" stroke="#63b8ff" points="1516.49,-110.87 1526.89,-112.86 1520,-104.81 1516.49,-110.87"/>
</a>
</g>
</g>
<!-- Node4 -->
<g id="Node000004" class="node">
<title>Node4</title>
<g id="a_Node000004"><a xlink:href="../../dc/d77/SDL__audiocvt_8c.html#a3ba5e9e434f54078c84d9a1469d44fea" target="_top" xlink:title=" ">
<polygon fill="white" stroke="#666666" points="1120.5,-172 938.75,-172 938.75,-152 1120.5,-152 1120.5,-172"/>
<text xml:space="preserve" text-anchor="middle" x="1029.62" y="-158.5" font-family="Helvetica,sans-Serif" font-size="10.00">SDL_GetAudioStreamDataAdjustGain</text>
</a>
</g>
</g>
<!-- Node3&#45;&gt;Node4 -->
<g id="edge3_Node000003_Node000004" class="edge">
<title>Node3&#45;&gt;Node4</title>
<g id="a_edge3_Node000003_Node000004"><a xlink:title=" ">
<path fill="none" stroke="#63b8ff" d="M1144.73,-162C1136.88,-162 1128.89,-162 1120.96,-162"/>
<polygon fill="#63b8ff" stroke="#63b8ff" points="1144.58,-165.5 1154.58,-162 1144.58,-158.5 1144.58,-165.5"/>
</a>
</g>
</g>
<!-- Node5 -->
<g id="Node000005" class="node">
<title>Node5</title>
<g id="a_Node000005"><a xlink:href="../../dc/d77/SDL__audiocvt_8c.html#a2cb08c5a71b1cb8d4fb4e1d4d3e8f9d6" target="_top" xlink:title=" ">
<polygon fill="white" stroke="#666666" points="887.75,-172 754,-172 754,-152 887.75,-152 887.75,-172"/>
<text xml:space="preserve" text-anchor="middle" x="820.88" y="-158.5" font-family="Helvetica,sans-Serif" font-size="10.00">SDL_GetAudioStreamData</text>
</a>
</g>
</g>
<!-- Node4&#45;&gt;Node5 -->
<g id="edge4_Node000004_Node000005" class="edge">
<title>Node4&#45;&gt;Node5</title>
<g id="a_edge4_Node000004_Node000005"><a xlink:title=" ">
<path fill="none" stroke="#63b8ff" d="M927.35,-162C913.99,-162 900.59,-162 888.03,-162"/>
<polygon fill="#63b8ff" stroke="#63b8ff" points="927.03,-165.5 937.03,-162 927.03,-158.5 927.03,-165.5"/>
</a>
</g>
</g>
<!-- Node4&#45;&gt;Node7 -->
<g id="edge6_Node000004_Node000007" class="edge">
<title>Node4&#45;&gt;Node7</title>
<g id="a_edge6_Node000004_Node000007"><a xlink:title=" ">
<path fill="none" stroke="#63b8ff" d="M973.07,-148.63C961.62,-145.47 949.71,-141.88 938.75,-138 904.2,-125.79 865.64,-107.72 842.58,-96.41"/>
<polygon fill="#63b8ff" stroke="#63b8ff" points="971.83,-151.92 982.4,-151.14 973.65,-145.16 971.83,-151.92"/>
</a>
</g>
</g>
<!-- Node6 -->
<g id="Node000006" class="node">
<title>Node6</title>
<g id="a_Node000006"><a xlink:href="../../dc/d77/SDL__audiocvt_8c.html#a90af0e041cebdc41c97e4f30cfdcf01a" target="_top" xlink:title=" ">
<polygon fill="white" stroke="#666666" points="699.62,-172 561.38,-172 561.38,-152 699.62,-152 699.62,-172"/>
<text xml:space="preserve" text-anchor="middle" x="630.5" y="-158.5" font-family="Helvetica,sans-Serif" font-size="10.00">SDL_ConvertAudioSamples</text>
</a>
</g>
</g>
<!-- Node5&#45;&gt;Node6 -->
<g id="edge5_Node000005_Node000006" class="edge">
<title>Node5&#45;&gt;Node6</title>
<g id="a_edge5_Node000005_Node000006"><a xlink:title=" ">
<path fill="none" stroke="#63b8ff" d="M742.56,-162C728.47,-162 713.86,-162 700.04,-162"/>
<polygon fill="#63b8ff" stroke="#63b8ff" points="742.21,-165.5 752.21,-162 742.21,-158.5 742.21,-165.5"/>
</a>
</g>
</g>
<!-- Node8 -->
<g id="Node000008" class="node">
<title>Node8</title>
<g id="a_Node000008"><a xlink:href="../../d3/d8a/SDL__dummyaudio_8c.html#a954b1d30669ef0d1b5d4615515c94498" target="_top" xlink:title=" ">
<polygon fill="white" stroke="#666666" points="703,-20 558,-20 558,0 703,0 703,-20"/>
<text xml:space="preserve" text-anchor="middle" x="630.5" y="-6.5" font-family="Helvetica,sans-Serif" font-size="10.00">DUMMYAUDIO_OpenDevice</text>
</a>
</g>
</g>
<!-- Node7&#45;&gt;Node8 -->
<g id="edge7_Node000007_Node000008" class="edge">
<title>Node7&#45;&gt;Node8</title>
<g id="a_edge7_Node000007_Node000008"><a xlink:title=" ">
<path fill="none" stroke="#63b8ff" d="M783.72,-71.41C746.69,-56.47 690.02,-33.61 657.29,-20.4"/>
<polygon fill="#63b8ff" stroke="#63b8ff" points="782.09,-74.53 792.67,-75.03 784.71,-68.04 782.09,-74.53"/>
</a>
</g>
</g>
<!-- Node10 -->
<g id="Node000010" class="node">
<title>Node10</title>
<g id="a_Node000010"><a xlink:href="../../d6/d9b/SDL__audio_8c.html#a3473ee34d8a21ca17ce7dc8be4d62295" target="_top" xlink:title=" ">
<polygon fill="white" stroke="#666666" points="686.12,-96 574.88,-96 574.88,-76 686.12,-76 686.12,-96"/>
<text xml:space="preserve" text-anchor="middle" x="630.5" y="-82.5" font-family="Helvetica,sans-Serif" font-size="10.00">PlaybackAudioThread</text>
</a>
</g>
</g>
<!-- Node7&#45;&gt;Node10 -->
<g id="edge9_Node000007_Node000010" class="edge">
<title>Node7&#45;&gt;Node10</title>
<g id="a_edge9_Node000007_Node000010"><a xlink:title=" ">
<path fill="none" stroke="#63b8ff" d="M727.41,-86C713.38,-86 699.31,-86 686.43,-86"/>
<polygon fill="#63b8ff" stroke="#63b8ff" points="727.11,-89.5 737.11,-86 727.11,-82.5 727.11,-89.5"/>
</a>
</g>
</g>
<!-- Node9 -->
<g id="Node000009" class="node">
<title>Node9</title>
<g id="a_Node000009"><a xlink:href="../../d3/d8a/SDL__dummyaudio_8c.html#a29ca48806a568f46e322654ffd7271ab" target="_top" xlink:title=" ">
<polygon fill="white" stroke="#666666" points="508.12,-20 403.62,-20 403.62,0 508.12,0 508.12,-20"/>
<text xml:space="preserve" text-anchor="middle" x="455.88" y="-6.5" font-family="Helvetica,sans-Serif" font-size="10.00">DUMMYAUDIO_Init</text>
</a>
</g>
</g>
<!-- Node8&#45;&gt;Node9 -->
<g id="edge8_Node000008_Node000009" class="edge">
<title>Node8&#45;&gt;Node9</title>
<g id="a_edge8_Node000008_Node000009"><a xlink:title=" ">
<path fill="none" stroke="#63b8ff" d="M546.44,-10C533.45,-10 520.37,-10 508.37,-10"/>
<polygon fill="#63b8ff" stroke="#63b8ff" points="546.28,-13.5 556.28,-10 546.28,-6.5 546.28,-13.5"/>
</a>
</g>
</g>
<!-- Node11 -->
<g id="Node000011" class="node">
<title>Node11</title>
<g id="a_Node000011"><a xlink:href="../../d6/d9b/SDL__audio_8c.html#a67d5d3273196908cd2180bde093c413d" target="_top" xlink:title=" ">
<polygon fill="white" stroke="#666666" points="522,-77 389.75,-77 389.75,-57 522,-57 522,-77"/>
<text xml:space="preserve" text-anchor="middle" x="455.88" y="-63.5" font-family="Helvetica,sans-Serif" font-size="10.00">OpenPhysicalAudioDevice</text>
</a>
</g>
</g>
<!-- Node10&#45;&gt;Node11 -->
<g id="edge10_Node000010_Node000011" class="edge">
<title>Node10&#45;&gt;Node11</title>
<g id="a_edge10_Node000010_Node000011"><a xlink:title=" ">
<path fill="none" stroke="#63b8ff" d="M563.3,-78.71C549.86,-77.23 535.72,-75.68 522.3,-74.2"/>
<polygon fill="#63b8ff" stroke="#63b8ff" points="562.58,-82.16 572.9,-79.77 563.34,-75.2 562.58,-82.16"/>
</a>
</g>
</g>
<!-- Node12 -->
<g id="Node000012" class="node">
<title>Node12</title>
<g id="a_Node000012"><a xlink:href="../../d6/d9b/SDL__audio_8c.html#ad4cae8cf429411be160ec61914b28043" target="_top" xlink:title=" ">
<polygon fill="white" stroke="#666666" points="353.75,-96 187,-96 187,-76 353.75,-76 353.75,-96"/>
<text xml:space="preserve" text-anchor="middle" x="270.38" y="-82.5" font-family="Helvetica,sans-Serif" font-size="10.00">SDL_DefaultAudioDeviceChanged</text>
</a>
</g>
</g>
<!-- Node11&#45;&gt;Node12 -->
<g id="edge11_Node000011_Node000012" class="edge">
<title>Node11&#45;&gt;Node12</title>
<g id="a_edge11_Node000011_Node000012"><a xlink:title=" ">
<path fill="none" stroke="#63b8ff" d="M377.99,-74.96C370.11,-75.78 362.08,-76.61 354.14,-77.43"/>
<polygon fill="#63b8ff" stroke="#63b8ff" points="378.31,-78.45 387.9,-73.93 377.59,-71.48 378.31,-78.45"/>
</a>
</g>
</g>
<!-- Node13 -->
<g id="Node000013" class="node">
<title>Node13</title>
<g id="a_Node000013"><a xlink:href="../../d6/d9b/SDL__audio_8c.html#ad4a998b0fa52004c6db6b4182de26f8c" target="_top" xlink:title=" ">
<polygon fill="white" stroke="#666666" points="330.12,-58 210.62,-58 210.62,-38 330.12,-38 330.12,-58"/>
<text xml:space="preserve" text-anchor="middle" x="270.38" y="-44.5" font-family="Helvetica,sans-Serif" font-size="10.00">SDL_OpenAudioDevice</text>
</a>
</g>
</g>
<!-- Node11&#45;&gt;Node13 -->
<g id="edge12_Node000011_Node000013" class="edge">
<title>Node11&#45;&gt;Node13</title>
<g id="a_edge12_Node000011_Node000013"><a xlink:title=" ">
<path fill="none" stroke="#63b8ff" d="M377.96,-59.04C362.06,-57.39 345.55,-55.68 330.41,-54.11"/>
<polygon fill="#63b8ff" stroke="#63b8ff" points="377.59,-62.52 387.9,-60.07 378.31,-55.55 377.59,-62.52"/>
</a>
</g>
</g>
<!-- Node14 -->
<g id="Node000014" class="node">
<title>Node14</title>
<g id="a_Node000014"><a xlink:href="../../d6/d9b/SDL__audio_8c.html#a73ac117b5e299633d58be618680af357" target="_top" xlink:title=" ">
<polygon fill="white" stroke="#666666" points="151,-58 0,-58 0,-38 151,-38 151,-58"/>
<text xml:space="preserve" text-anchor="middle" x="75.5" y="-44.5" font-family="Helvetica,sans-Serif" font-size="10.00">SDL_OpenAudioDeviceStream</text>
</a>
</g>
</g>
<!-- Node13&#45;&gt;Node14 -->
<g id="edge13_Node000013_Node000014" class="edge">
<title>Node13&#45;&gt;Node14</title>
<g id="a_edge13_Node000013_Node000014"><a xlink:title=" ">
<path fill="none" stroke="#63b8ff" d="M199.07,-48C183.52,-48 166.99,-48 151.26,-48"/>
<polygon fill="#63b8ff" stroke="#63b8ff" points="198.68,-51.5 208.68,-48 198.68,-44.5 198.68,-51.5"/>
</a>
</g>
</g>
<!-- Node15&#45;&gt;Node3 -->
<g id="edge16_Node000015_Node000003" class="edge">
<title>Node15&#45;&gt;Node3</title>
<g id="a_edge16_Node000015_Node000003"><a xlink:title=" ">
<path fill="none" stroke="#63b8ff" d="M1322.14,-162C1314.12,-162 1306.02,-162 1298.12,-162"/>
<polygon fill="#63b8ff" stroke="#63b8ff" points="1321.89,-165.5 1331.89,-162 1321.89,-158.5 1321.89,-165.5"/>
</a>
</g>
</g>
<!-- Node16&#45;&gt;Node8 -->
<g id="edge18_Node000016_Node000008" class="edge">
<title>Node16&#45;&gt;Node8</title>
<g id="a_edge18_Node000016_Node000008"><a xlink:title=" ">
<path fill="none" stroke="#63b8ff" d="M1322,-38.13C1265.58,-35.46 1188.44,-31.89 1120.5,-29 972.17,-22.7 798.49,-16.15 703.18,-12.62"/>
<polygon fill="#63b8ff" stroke="#63b8ff" points="1321.69,-41.62 1331.84,-38.6 1322.02,-34.63 1321.69,-41.62"/>
</a>
</g>
</g>
<!-- Node17 -->
<g id="Node000017" class="node">
<title>Node17</title>
<g id="a_Node000017"><a xlink:href="../../d6/d9b/SDL__audio_8c.html#a78509cdb3b4a17a333ba844e392a3c56" target="_top" xlink:title=" ">
<polygon fill="white" stroke="#666666" points="1087.12,-58 972.12,-58 972.12,-38 1087.12,-38 1087.12,-58"/>
<text xml:space="preserve" text-anchor="middle" x="1029.62" y="-44.5" font-family="Helvetica,sans-Serif" font-size="10.00">RecordingAudioThread</text>
</a>
</g>
</g>
<!-- Node16&#45;&gt;Node17 -->
<g id="edge19_Node000016_Node000017" class="edge">
<title>Node16&#45;&gt;Node17</title>
<g id="a_edge19_Node000016_Node000017"><a xlink:title=" ">
<path fill="none" stroke="#63b8ff" d="M1322.44,-43.29C1251.65,-44.44 1150.22,-46.07 1087.48,-47.08"/>
<polygon fill="#63b8ff" stroke="#63b8ff" points="1322.07,-46.8 1332.01,-43.14 1321.96,-39.8 1322.07,-46.8"/>
</a>
</g>
</g>
<!-- Node17&#45;&gt;Node11 -->
<g id="edge20_Node000017_Node000011" class="edge">
<title>Node17&#45;&gt;Node11</title>
<g id="a_edge20_Node000017_Node000011"><a xlink:title=" ">
<path fill="none" stroke="#63b8ff" d="M960.34,-50.27C849.38,-53.96 631.35,-61.2 522.27,-64.83"/>
<polygon fill="#63b8ff" stroke="#63b8ff" points="960.32,-53.77 970.2,-49.94 960.09,-46.78 960.32,-53.77"/>
</a>
</g>
</g>
</g>
</svg>
