<?xml version="1.0" encoding="UTF-8" standalone="no"?>
<!DOCTYPE svg PUBLIC "-//W3C//DTD SVG 1.1//EN"
 "http://www.w3.org/Graphics/SVG/1.1/DTD/svg11.dtd">
<!-- Generated by graphviz version 13.1.0 (20250701.0955)
 -->
<!-- Title: SDL_AudioThreadFinalize Pages: 1 -->
<!--zoomable 78 -->

<svg id="main" version="1.1" xmlns="http://www.w3.org/2000/svg" xmlns:xlink="http://www.w3.org/1999/xlink" xml:space="preserve" onload="init(evt)">

<style type="text/css"><![CDATA[
.node, .edge {opacity: 0.7;}
.node.selected, .edge.selected {opacity: 1;}
.edge:hover path { stroke: red; }
.edge:hover polygon { stroke: red; fill: red; }
]]></style>

<defs>
  <circle id="rim" cx="0" cy="0" r="7"/>
  <circle id="rim2" cx="0" cy="0" r="3.5"/>
  <g id="zoomPlus">
    <use xlink:href="#rim" fill="#404040"><set attributeName="fill" to="#808080" begin="zoomplus.mouseover" end="zoomplus.mouseout"/></use>
    <path d="M-4,0h8M0,-4v8" fill="none" stroke="white" stroke-width="1.5" pointer-events="none"/>
  </g>
  <g id="zoomMin">
    <use xlink:href="#rim" fill="#404040"><set attributeName="fill" to="#808080" begin="zoomminus.mouseover" end="zoomminus.mouseout"/></use>
    <path d="M-4,0h8" fill="none" stroke="white" stroke-width="1.5" pointer-events="none"/>
  </g>
  <g id="arrowUp" transform="translate(30 24)">
    <use xlink:href="#rim"/>
    <path pointer-events="none" fill="none" stroke="white" stroke-width="1.5" d="M0,-3.0v7 M-2.5,-0.5L0,-3.0L2.5,-0.5"/>
  </g>
  <g id="arrowRight" transform="rotate(90) translate(36 -43)">
    <use xlink:href="#rim"/>
    <path pointer-events="none" fill="none" stroke="white" stroke-width="1.5" d="M0,-3.0v7 M-2.5,-0.5L0,-3.0L2.5,-0.5"/>
  </g>
  <g id="arrowDown" transform="rotate(180) translate(-30 -48)">
    <use xlink:href="#rim"/>
    <path pointer-events="none" fill="none" stroke="white" stroke-width="1.5" d="M0,-3.0v7 M-2.5,-0.5L0,-3.0L2.5,-0.5"/>
  </g>
  <g id="arrowLeft" transform="rotate(270) translate(-36 17)">
    <use xlink:href="#rim"/>
    <path pointer-events="none" fill="none" stroke="white" stroke-width="1.5" d="M0,-3.0v7 M-2.5,-0.5L0,-3.0L2.5,-0.5"/>
  </g>
  <g id="resetDef">
    <use xlink:href="#rim2" fill="#404040"><set attributeName="fill" to="#808080" begin="reset.mouseover" end="reset.mouseout"/></use>
  </g>
</defs>
<script type="application/ecmascript">
var viewWidth = 1062;
var viewHeight = 78;
var sectionId = 'dynsection-23';
</script>
<script type="application/ecmascript" xlink:href="../../svg.min.js"/>
<svg id="graph" class="graph">
<g id="viewport">
<title>SDL_AudioThreadFinalize</title>
<!-- Node1 -->
<g id="Node000001" class="node">
<title>Node1</title>
<g id="a_Node000001"><a xlink:title=" ">
<polygon fill="#999999" stroke="#666666" points="1053.75,-48 924.5,-48 924.5,-28 1053.75,-28 1053.75,-48"/>
<text xml:space="preserve" text-anchor="middle" x="989.12" y="-34.5" font-family="Helvetica,sans-Serif" font-size="10.00">SDL_AudioThreadFinalize</text>
</a>
</g>
</g>
<!-- Node2 -->
<g id="Node000002" class="node">
<title>Node2</title>
<g id="a_Node000002"><a xlink:href="../../d6/d9b/SDL__audio_8c.html#aa5ad4b8a44415bf71b9d7584f72c92af" target="_top" xlink:title=" ">
<polygon fill="white" stroke="#666666" points="888.5,-70 709,-70 709,-50 888.5,-50 888.5,-70"/>
<text xml:space="preserve" text-anchor="middle" x="798.75" y="-56.5" font-family="Helvetica,sans-Serif" font-size="10.00">SDL_PlaybackAudioThreadShutdown</text>
</a>
</g>
</g>
<!-- Node1&#45;&gt;Node2 -->
<g id="edge1_Node000001_Node000002" class="edge">
<title>Node1&#45;&gt;Node2</title>
<g id="a_edge1_Node000001_Node000002"><a xlink:title=" ">
<path fill="none" stroke="#63b8ff" d="M912.77,-46.8C904.95,-47.71 896.94,-48.65 888.98,-49.58"/>
<polygon fill="#63b8ff" stroke="#63b8ff" points="913.06,-50.29 922.58,-45.65 912.25,-43.34 913.06,-50.29"/>
</a>
</g>
</g>
<!-- Node8 -->
<g id="Node000008" class="node">
<title>Node8</title>
<g id="a_Node000008"><a xlink:href="../../d6/d9b/SDL__audio_8c.html#acaa663b44311b9b1c4cf2c821bb0a99a" target="_top" xlink:title=" ">
<polygon fill="white" stroke="#666666" points="868.62,-32 728.88,-32 728.88,0 868.62,0 868.62,-32"/>
<text xml:space="preserve" text-anchor="start" x="736.88" y="-18.5" font-family="Helvetica,sans-Serif" font-size="10.00">SDL_RecordingAudioThread</text>
<text xml:space="preserve" text-anchor="middle" x="798.75" y="-6.5" font-family="Helvetica,sans-Serif" font-size="10.00">Shutdown</text>
</a>
</g>
</g>
<!-- Node1&#45;&gt;Node8 -->
<g id="edge7_Node000001_Node000008" class="edge">
<title>Node1&#45;&gt;Node8</title>
<g id="a_edge7_Node000001_Node000008"><a xlink:title=" ">
<path fill="none" stroke="#63b8ff" d="M912.7,-29.19C898.3,-27.51 883.29,-25.76 869.09,-24.1"/>
<polygon fill="#63b8ff" stroke="#63b8ff" points="912.25,-32.66 922.58,-30.35 913.06,-25.71 912.25,-32.66"/>
</a>
</g>
</g>
<!-- Node3 -->
<g id="Node000003" class="node">
<title>Node3</title>
<g id="a_Node000003"><a xlink:href="../../d6/d9b/SDL__audio_8c.html#a3473ee34d8a21ca17ce7dc8be4d62295" target="_top" xlink:title=" ">
<polygon fill="white" stroke="#666666" points="671.12,-68 559.88,-68 559.88,-48 671.12,-48 671.12,-68"/>
<text xml:space="preserve" text-anchor="middle" x="615.5" y="-54.5" font-family="Helvetica,sans-Serif" font-size="10.00">PlaybackAudioThread</text>
</a>
</g>
</g>
<!-- Node2&#45;&gt;Node3 -->
<g id="edge2_Node000002_Node000003" class="edge">
<title>Node2&#45;&gt;Node3</title>
<g id="a_edge2_Node000002_Node000003"><a xlink:title=" ">
<path fill="none" stroke="#63b8ff" d="M697.41,-58.89C688.52,-58.79 679.75,-58.7 671.46,-58.61"/>
<polygon fill="#63b8ff" stroke="#63b8ff" points="697.17,-62.39 707.2,-59 697.24,-55.39 697.17,-62.39"/>
</a>
</g>
</g>
<!-- Node4 -->
<g id="Node000004" class="node">
<title>Node4</title>
<g id="a_Node000004"><a xlink:href="../../d6/d9b/SDL__audio_8c.html#a67d5d3273196908cd2180bde093c413d" target="_top" xlink:title=" ">
<polygon fill="white" stroke="#666666" points="522,-48 389.75,-48 389.75,-28 522,-28 522,-48"/>
<text xml:space="preserve" text-anchor="middle" x="455.88" y="-34.5" font-family="Helvetica,sans-Serif" font-size="10.00">OpenPhysicalAudioDevice</text>
</a>
</g>
</g>
<!-- Node3&#45;&gt;Node4 -->
<g id="edge3_Node000003_Node000004" class="edge">
<title>Node3&#45;&gt;Node4</title>
<g id="a_edge3_Node000003_Node000004"><a xlink:title=" ">
<path fill="none" stroke="#63b8ff" d="M548.56,-49.63C539.88,-48.53 530.99,-47.4 522.32,-46.3"/>
<polygon fill="#63b8ff" stroke="#63b8ff" points="547.95,-53.08 558.31,-50.87 548.83,-46.14 547.95,-53.08"/>
</a>
</g>
</g>
<!-- Node5 -->
<g id="Node000005" class="node">
<title>Node5</title>
<g id="a_Node000005"><a xlink:href="../../d6/d9b/SDL__audio_8c.html#ad4cae8cf429411be160ec61914b28043" target="_top" xlink:title=" ">
<polygon fill="white" stroke="#666666" points="353.75,-67 187,-67 187,-47 353.75,-47 353.75,-67"/>
<text xml:space="preserve" text-anchor="middle" x="270.38" y="-53.5" font-family="Helvetica,sans-Serif" font-size="10.00">SDL_DefaultAudioDeviceChanged</text>
</a>
</g>
</g>
<!-- Node4&#45;&gt;Node5 -->
<g id="edge4_Node000004_Node000005" class="edge">
<title>Node4&#45;&gt;Node5</title>
<g id="a_edge4_Node000004_Node000005"><a xlink:title=" ">
<path fill="none" stroke="#63b8ff" d="M377.99,-45.96C370.11,-46.78 362.08,-47.61 354.14,-48.43"/>
<polygon fill="#63b8ff" stroke="#63b8ff" points="378.31,-49.45 387.9,-44.93 377.59,-42.48 378.31,-49.45"/>
</a>
</g>
</g>
<!-- Node6 -->
<g id="Node000006" class="node">
<title>Node6</title>
<g id="a_Node000006"><a xlink:href="../../d6/d9b/SDL__audio_8c.html#ad4a998b0fa52004c6db6b4182de26f8c" target="_top" xlink:title=" ">
<polygon fill="white" stroke="#666666" points="330.12,-29 210.62,-29 210.62,-9 330.12,-9 330.12,-29"/>
<text xml:space="preserve" text-anchor="middle" x="270.38" y="-15.5" font-family="Helvetica,sans-Serif" font-size="10.00">SDL_OpenAudioDevice</text>
</a>
</g>
</g>
<!-- Node4&#45;&gt;Node6 -->
<g id="edge5_Node000004_Node000006" class="edge">
<title>Node4&#45;&gt;Node6</title>
<g id="a_edge5_Node000004_Node000006"><a xlink:title=" ">
<path fill="none" stroke="#63b8ff" d="M377.96,-30.04C362.06,-28.39 345.55,-26.68 330.41,-25.11"/>
<polygon fill="#63b8ff" stroke="#63b8ff" points="377.59,-33.52 387.9,-31.07 378.31,-26.55 377.59,-33.52"/>
</a>
</g>
</g>
<!-- Node7 -->
<g id="Node000007" class="node">
<title>Node7</title>
<g id="a_Node000007"><a xlink:href="../../d6/d9b/SDL__audio_8c.html#a73ac117b5e299633d58be618680af357" target="_top" xlink:title=" ">
<polygon fill="white" stroke="#666666" points="151,-29 0,-29 0,-9 151,-9 151,-29"/>
<text xml:space="preserve" text-anchor="middle" x="75.5" y="-15.5" font-family="Helvetica,sans-Serif" font-size="10.00">SDL_OpenAudioDeviceStream</text>
</a>
</g>
</g>
<!-- Node6&#45;&gt;Node7 -->
<g id="edge6_Node000006_Node000007" class="edge">
<title>Node6&#45;&gt;Node7</title>
<g id="a_edge6_Node000006_Node000007"><a xlink:title=" ">
<path fill="none" stroke="#63b8ff" d="M199.07,-19C183.52,-19 166.99,-19 151.26,-19"/>
<polygon fill="#63b8ff" stroke="#63b8ff" points="198.68,-22.5 208.68,-19 198.68,-15.5 198.68,-22.5"/>
</a>
</g>
</g>
<!-- Node9 -->
<g id="Node000009" class="node">
<title>Node9</title>
<g id="a_Node000009"><a xlink:href="../../d6/d9b/SDL__audio_8c.html#a78509cdb3b4a17a333ba844e392a3c56" target="_top" xlink:title=" ">
<polygon fill="white" stroke="#666666" points="673,-29 558,-29 558,-9 673,-9 673,-29"/>
<text xml:space="preserve" text-anchor="middle" x="615.5" y="-15.5" font-family="Helvetica,sans-Serif" font-size="10.00">RecordingAudioThread</text>
</a>
</g>
</g>
<!-- Node8&#45;&gt;Node9 -->
<g id="edge8_Node000008_Node000009" class="edge">
<title>Node8&#45;&gt;Node9</title>
<g id="a_edge8_Node000008_Node000009"><a xlink:title=" ">
<path fill="none" stroke="#63b8ff" d="M717.24,-17.33C702.46,-17.58 687.31,-17.83 673.4,-18.06"/>
<polygon fill="#63b8ff" stroke="#63b8ff" points="717,-20.84 726.94,-17.17 716.88,-13.84 717,-20.84"/>
</a>
</g>
</g>
<!-- Node9&#45;&gt;Node4 -->
<g id="edge9_Node000009_Node000004" class="edge">
<title>Node9&#45;&gt;Node4</title>
<g id="a_edge9_Node000009_Node000004"><a xlink:title=" ">
<path fill="none" stroke="#63b8ff" d="M546.41,-27.21C538.4,-28.17 530.24,-29.16 522.27,-30.12"/>
<polygon fill="#63b8ff" stroke="#63b8ff" points="546.58,-30.71 556.09,-26.04 545.74,-23.76 546.58,-30.71"/>
</a>
</g>
</g>
</g>
</svg>

<g id="navigator" transform="translate(0 0)" fill="#404254">
  <rect fill="#f2f5e9" fill-opacity="0.5" stroke="#606060" stroke-width=".5" x="0" y="0" width="60" height="60"/>
  <use id="zoomplus" xlink:href="#zoomPlus" x="17" y="9" onmousedown="handleZoom(evt,'in')"/>
  <use id="zoomminus" xlink:href="#zoomMin" x="42" y="9" onmousedown="handleZoom(evt,'out')"/>
  <use id="reset" xlink:href="#resetDef" x="30" y="36" onmousedown="handleReset()"/>
   <use id="arrowup" xlink:href="#arrowUp" x="0" y="0" onmousedown="handlePan(0,-1)"/>
  <use id="arrowright" xlink:href="#arrowRight" x="0" y="0" onmousedown="handlePan(1,0)"/>
  <use id="arrowdown" xlink:href="#arrowDown" x="0" y="0" onmousedown="handlePan(0,1)"/>
  <use id="arrowleft" xlink:href="#arrowLeft" x="0" y="0" onmousedown="handlePan(-1,0)"/>
</g>
<svg viewBox="0 0 15 15" width="100%" height="30px" preserveAspectRatio="xMaxYMin meet">
 <g id="arrow_out" transform="scale(0.3 0.3)">
  <a xlink:href="SDL__sysaudio_8h_a21c4323b1e61e8687e568979a1c4bcc4_icgraph_org.svg" target="_base">
   <rect id="button" ry="5" rx="5" y="6" x="6" height="38" width="38"
        fill="#f2f5e9" fill-opacity="0.5" stroke="#606060" stroke-width="1.0"/>
   <path id="arrow"
     d="M 11.500037,31.436501 C 11.940474,20.09759 22.043105,11.32322 32.158766,21.979434 L 37.068811,17.246167 C 37.068811,17.246167 37.088388,32 37.088388,32 L 22.160133,31.978069 C 22.160133,31.978069 26.997745,27.140456 26.997745,27.140456 C 18.528582,18.264221 13.291696,25.230495 11.500037,31.436501 z"
     style="fill:#404040;"/>
  </a>
 </g>
</svg>

<style type='text/css'>
<![CDATA[
[data-mouse-over-selected='false'] { opacity: 0.7; }
[data-mouse-over-selected='true']  { opacity: 1.0; }
]]>
</style>
<script type="application/ecmascript"><![CDATA[
document.addEventListener('DOMContentLoaded', (event) => {
  highlightEdges();
  highlightAdjacentNodes();
});
]]></script>
</svg>
