<?xml version="1.0" encoding="UTF-8" standalone="no"?>
<!DOCTYPE svg PUBLIC "-//W3C//DTD SVG 1.1//EN"
 "http://www.w3.org/Graphics/SVG/1.1/DTD/svg11.dtd">
<!-- Generated by graphviz version 13.1.0 (20250701.0955)
 -->
<!-- Title: CSDLmain::CSDLmain Pages: 1 -->
<svg width="348pt" height="28pt"
 viewBox="0.00 0.00 348.00 28.00" xmlns="http://www.w3.org/2000/svg" xmlns:xlink="http://www.w3.org/1999/xlink">
<g id="graph0" class="graph" transform="scale(1 1) rotate(0) translate(4 24)">
<title>CSDLmain::CSDLmain</title>
<!-- Node1 -->
<g id="Node000001" class="node">
<title>Node1</title>
<g id="a_Node000001"><a xlink:title=" ">
<polygon fill="#999999" stroke="#666666" points="339.75,-20 221.75,-20 221.75,0 339.75,0 339.75,-20"/>
<text xml:space="preserve" text-anchor="middle" x="280.75" y="-6.5" font-family="Helvetica,sans-Serif" font-size="10.00">CSDLmain::CSDLmain</text>
</a>
</g>
</g>
<!-- Node2 -->
<g id="Node000002" class="node">
<title>Node2</title>
<g id="a_Node000002"><a xlink:href="../../de/daf/classCSDLmain.html#a52fe86fb37a78b65dd6dc19e139714e2" target="_top" xlink:title=" ">
<polygon fill="white" stroke="#666666" points="185.75,-20 90.25,-20 90.25,0 185.75,0 185.75,-20"/>
<text xml:space="preserve" text-anchor="middle" x="138" y="-6.5" font-family="Helvetica,sans-Serif" font-size="10.00">CSDLmain::NewL</text>
</a>
</g>
</g>
<!-- Node1&#45;&gt;Node2 -->
<g id="edge1_Node000001_Node000002" class="edge">
<title>Node1&#45;&gt;Node2</title>
<g id="a_edge1_Node000001_Node000002"><a xlink:title=" ">
<path fill="none" stroke="#63b8ff" d="M209.86,-10C201.75,-10 193.63,-10 185.93,-10"/>
<polygon fill="#63b8ff" stroke="#63b8ff" points="209.77,-13.5 219.77,-10 209.77,-6.5 209.77,-13.5"/>
</a>
</g>
</g>
<!-- Node3 -->
<g id="Node000003" class="node">
<title>Node3</title>
<g id="a_Node000003"><a xlink:href="../../d1/dca/SDL__sysmain__main_8cpp.html#a0f358e9c4355138f629b8c4f37310295" target="_top" xlink:title=" ">
<polygon fill="white" stroke="#666666" points="54.25,-20 0,-20 0,0 54.25,0 54.25,-20"/>
<text xml:space="preserve" text-anchor="middle" x="27.12" y="-6.5" font-family="Helvetica,sans-Serif" font-size="10.00">E32Main</text>
</a>
</g>
</g>
<!-- Node2&#45;&gt;Node3 -->
<g id="edge2_Node000002_Node000003" class="edge">
<title>Node2&#45;&gt;Node3</title>
<g id="a_edge2_Node000002_Node000003"><a xlink:title=" ">
<path fill="none" stroke="#63b8ff" d="M78.5,-10C70.15,-10 61.94,-10 54.64,-10"/>
<polygon fill="#63b8ff" stroke="#63b8ff" points="78.37,-13.5 88.37,-10 78.37,-6.5 78.37,-13.5"/>
</a>
</g>
</g>
</g>
</svg>
