<?xml version="1.0" encoding="UTF-8" standalone="no"?>
<!DOCTYPE svg PUBLIC "-//W3C//DTD SVG 1.1//EN"
 "http://www.w3.org/Graphics/SVG/1.1/DTD/svg11.dtd">
<!-- Generated by graphviz version 13.1.0 (20250701.0955)
 -->
<!-- Title: CSDLmain::Start Pages: 1 -->
<svg width="228pt" height="66pt"
 viewBox="0.00 0.00 228.00 66.00" xmlns="http://www.w3.org/2000/svg" xmlns:xlink="http://www.w3.org/1999/xlink">
<g id="graph0" class="graph" transform="scale(1 1) rotate(0) translate(4 62)">
<title>CSDLmain::Start</title>
<!-- Node1 -->
<g id="Node000001" class="node">
<title>Node1</title>
<g id="a_Node000001"><a xlink:title=" ">
<polygon fill="#999999" stroke="#666666" points="220.25,-39 129.25,-39 129.25,-19 220.25,-19 220.25,-39"/>
<text xml:space="preserve" text-anchor="middle" x="174.75" y="-25.5" font-family="Helvetica,sans-Serif" font-size="10.00">CSDLmain::Start</text>
</a>
</g>
</g>
<!-- Node2 -->
<g id="Node000002" class="node">
<title>Node2</title>
<g id="a_Node000002"><a xlink:href="../../d1/dca/SDL__sysmain__main_8cpp.html#a0f358e9c4355138f629b8c4f37310295" target="_top" xlink:title=" ">
<polygon fill="white" stroke="#666666" points="73.75,-58 19.5,-58 19.5,-38 73.75,-38 73.75,-58"/>
<text xml:space="preserve" text-anchor="middle" x="46.62" y="-44.5" font-family="Helvetica,sans-Serif" font-size="10.00">E32Main</text>
</a>
</g>
</g>
<!-- Node1&#45;&gt;Node2 -->
<g id="edge1_Node000001_Node000002" class="edge">
<title>Node1&#45;&gt;Node2</title>
<g id="a_edge1_Node000001_Node000002"><a xlink:title=" ">
<path fill="none" stroke="#63b8ff" d="M117.93,-37.41C102.62,-39.71 86.74,-42.11 73.94,-44.04"/>
<polygon fill="#63b8ff" stroke="#63b8ff" points="118.06,-40.93 127.43,-35.98 117.02,-34.01 118.06,-40.93"/>
</a>
</g>
</g>
<!-- Node3 -->
<g id="Node000003" class="node">
<title>Node3</title>
<g id="a_Node000003"><a xlink:href="../../de/daf/classCSDLmain.html#a73bd9c42ac6916974009e508257e44ff" target="_top" xlink:title=" ">
<polygon fill="white" stroke="#666666" points="93.25,-20 0,-20 0,0 93.25,0 93.25,-20"/>
<text xml:space="preserve" text-anchor="middle" x="46.62" y="-6.5" font-family="Helvetica,sans-Serif" font-size="10.00">CSDLmain::RunL</text>
</a>
</g>
</g>
<!-- Node1&#45;&gt;Node3 -->
<g id="edge2_Node000001_Node000003" class="edge">
<title>Node1&#45;&gt;Node3</title>
<g id="a_edge2_Node000001_Node000003"><a xlink:title=" ">
<path fill="none" stroke="#63b8ff" d="M117.69,-20.55C109.63,-19.34 101.41,-18.1 93.58,-16.92"/>
<polygon fill="#63b8ff" stroke="#63b8ff" points="117.02,-23.99 127.43,-22.02 118.06,-17.07 117.02,-23.99"/>
</a>
</g>
</g>
</g>
</svg>
