<?xml version="1.0" encoding="UTF-8" standalone="no"?>
<!DOCTYPE svg PUBLIC "-//W3C//DTD SVG 1.1//EN"
 "http://www.w3.org/Graphics/SVG/1.1/DTD/svg11.dtd">
<!-- Generated by graphviz version 13.1.0 (20250701.0955)
 -->
<!-- Title: RefPhysicalCamera Pages: 1 -->
<svg width="937pt" height="408pt"
 viewBox="0.00 0.00 937.00 408.00" xmlns="http://www.w3.org/2000/svg" xmlns:xlink="http://www.w3.org/1999/xlink">
<g id="graph0" class="graph" transform="scale(1 1) rotate(0) translate(4 404)">
<title>RefPhysicalCamera</title>
<!-- Node1 -->
<g id="Node000001" class="node">
<title>Node1</title>
<g id="a_Node000001"><a xlink:title=" ">
<polygon fill="#999999" stroke="#666666" points="929.25,-153 825.5,-153 825.5,-133 929.25,-133 929.25,-153"/>
<text xml:space="preserve" text-anchor="middle" x="877.38" y="-139.5" font-family="Helvetica,sans-Serif" font-size="10.00">RefPhysicalCamera</text>
</a>
</g>
</g>
<!-- Node2 -->
<g id="Node000002" class="node">
<title>Node2</title>
<g id="a_Node000002"><a xlink:href="../../db/d6b/SDL__camera_8c.html#a8bf505e8dab4dacd60f34b93c15fc783" target="_top" xlink:title=" ">
<polygon fill="white" stroke="#666666" points="789.5,-172 658,-172 658,-152 789.5,-152 789.5,-172"/>
<text xml:space="preserve" text-anchor="middle" x="723.75" y="-158.5" font-family="Helvetica,sans-Serif" font-size="10.00">ObtainPhysicalCameraObj</text>
</a>
</g>
</g>
<!-- Node1&#45;&gt;Node2 -->
<g id="edge1_Node000001_Node000002" class="edge">
<title>Node1&#45;&gt;Node2</title>
<g id="a_edge1_Node000001_Node000002"><a xlink:title=" ">
<path fill="none" stroke="#63b8ff" d="M813.66,-150.86C805.76,-151.85 797.67,-152.86 789.74,-153.86"/>
<polygon fill="#63b8ff" stroke="#63b8ff" points="814.05,-154.34 823.54,-149.62 813.18,-147.39 814.05,-154.34"/>
</a>
</g>
</g>
<!-- Node18 -->
<g id="Node000018" class="node">
<title>Node18</title>
<g id="a_Node000018"><a xlink:href="../../db/d6b/SDL__camera_8c.html#afb7c241c357906c05f5b76ca6e5f8efc" target="_top" xlink:title=" ">
<polygon fill="white" stroke="#666666" points="770,-134 677.5,-134 677.5,-114 770,-114 770,-134"/>
<text xml:space="preserve" text-anchor="middle" x="723.75" y="-120.5" font-family="Helvetica,sans-Serif" font-size="10.00">SDL_AddCamera</text>
</a>
</g>
</g>
<!-- Node1&#45;&gt;Node18 -->
<g id="edge19_Node000001_Node000018" class="edge">
<title>Node1&#45;&gt;Node18</title>
<g id="a_edge19_Node000001_Node000018"><a xlink:title=" ">
<path fill="none" stroke="#63b8ff" d="M813.62,-135.14C799.15,-133.32 784.02,-131.43 770.44,-129.72"/>
<polygon fill="#63b8ff" stroke="#63b8ff" points="813.18,-138.61 823.54,-136.38 814.05,-131.66 813.18,-138.61"/>
</a>
</g>
</g>
<!-- Node3 -->
<g id="Node000003" class="node">
<title>Node3</title>
<g id="a_Node000003"><a xlink:href="../../db/d6b/SDL__camera_8c.html#ad3a8df31f50f2edcc09c5d7acbae12f0" target="_top" xlink:title=" ">
<polygon fill="white" stroke="#666666" points="598.38,-324 481.88,-324 481.88,-304 598.38,-304 598.38,-324"/>
<text xml:space="preserve" text-anchor="middle" x="540.12" y="-310.5" font-family="Helvetica,sans-Serif" font-size="10.00">ObtainPhysicalCamera</text>
</a>
</g>
</g>
<!-- Node2&#45;&gt;Node3 -->
<g id="edge2_Node000002_Node000003" class="edge">
<title>Node2&#45;&gt;Node3</title>
<g id="a_edge2_Node000002_Node000003"><a xlink:title=" ">
<path fill="none" stroke="#63b8ff" d="M713.16,-182.25C698.08,-211.83 665.93,-266.43 622,-295 614.99,-299.56 607,-303.03 598.84,-305.67"/>
<polygon fill="#63b8ff" stroke="#63b8ff" points="716.15,-184.12 717.43,-173.6 709.87,-181.02 716.15,-184.12"/>
</a>
</g>
</g>
<!-- Node8 -->
<g id="Node000008" class="node">
<title>Node8</title>
<g id="a_Node000008"><a xlink:href="../../db/d6b/SDL__camera_8c.html#adb656bd4baa9b1811c13486a98370d16" target="_top" xlink:title=" ">
<polygon fill="white" stroke="#666666" points="608.12,-286 472.12,-286 472.12,-266 608.12,-266 608.12,-286"/>
<text xml:space="preserve" text-anchor="middle" x="540.12" y="-272.5" font-family="Helvetica,sans-Serif" font-size="10.00">SDL_AcquireCameraFrame</text>
</a>
</g>
</g>
<!-- Node2&#45;&gt;Node8 -->
<g id="edge7_Node000002_Node000008" class="edge">
<title>Node2&#45;&gt;Node8</title>
<g id="a_edge7_Node000002_Node000008"><a xlink:title=" ">
<path fill="none" stroke="#63b8ff" d="M707.87,-181.13C689.89,-202.89 657.6,-237.86 622,-257 615.65,-260.42 608.69,-263.22 601.61,-265.53"/>
<polygon fill="#63b8ff" stroke="#63b8ff" points="710.38,-183.6 713.92,-173.61 704.92,-179.21 710.38,-183.6"/>
</a>
</g>
</g>
<!-- Node9 -->
<g id="Node000009" class="node">
<title>Node9</title>
<g id="a_Node000009"><a xlink:href="../../db/d6b/SDL__camera_8c.html#acd24207c14e2b43ccdf28e8107f3f2a5" target="_top" xlink:title=" ">
<polygon fill="white" stroke="#666666" points="607.75,-248 472.5,-248 472.5,-228 607.75,-228 607.75,-248"/>
<text xml:space="preserve" text-anchor="middle" x="540.12" y="-234.5" font-family="Helvetica,sans-Serif" font-size="10.00">SDL_CameraDisconnected</text>
</a>
</g>
</g>
<!-- Node2&#45;&gt;Node9 -->
<g id="edge8_Node000002_Node000009" class="edge">
<title>Node2&#45;&gt;Node9</title>
<g id="a_edge8_Node000002_Node000009"><a xlink:title=" ">
<path fill="none" stroke="#63b8ff" d="M698.26,-178.49C678.44,-191.17 649.41,-208.28 622,-219 613.54,-222.31 604.34,-225.14 595.29,-227.53"/>
<polygon fill="#63b8ff" stroke="#63b8ff" points="699.99,-181.54 706.46,-173.14 696.17,-175.67 699.99,-181.54"/>
</a>
</g>
</g>
<!-- Node12 -->
<g id="Node000012" class="node">
<title>Node12</title>
<g id="a_Node000012"><a xlink:href="../../db/d6b/SDL__camera_8c.html#aaf114744da523edc8f10da088e887bc8" target="_top" xlink:title=" ">
<polygon fill="white" stroke="#666666" points="622,-210 458.25,-210 458.25,-190 622,-190 622,-210"/>
<text xml:space="preserve" text-anchor="middle" x="540.12" y="-196.5" font-family="Helvetica,sans-Serif" font-size="10.00">SDL_CameraPermissionOutcome</text>
</a>
</g>
</g>
<!-- Node2&#45;&gt;Node12 -->
<g id="edge13_Node000002_Node000012" class="edge">
<title>Node2&#45;&gt;Node12</title>
<g id="a_edge13_Node000002_Node000012"><a xlink:title=" ">
<path fill="none" stroke="#63b8ff" d="M661.63,-174.79C638.68,-179.59 612.89,-184.99 591.07,-189.55"/>
<polygon fill="#63b8ff" stroke="#63b8ff" points="662.09,-178.27 671.16,-172.79 660.65,-171.42 662.09,-178.27"/>
</a>
</g>
</g>
<!-- Node13 -->
<g id="Node000013" class="node">
<title>Node13</title>
<g id="a_Node000013"><a xlink:href="../../db/d6b/SDL__camera_8c.html#ad07f724e49b2712b4393d71a88f9c9da" target="_top" xlink:title=" ">
<polygon fill="white" stroke="#666666" points="601,-172 479.25,-172 479.25,-152 601,-152 601,-172"/>
<text xml:space="preserve" text-anchor="middle" x="540.12" y="-158.5" font-family="Helvetica,sans-Serif" font-size="10.00">SDL_GetCameraFormat</text>
</a>
</g>
</g>
<!-- Node2&#45;&gt;Node13 -->
<g id="edge14_Node000002_Node000013" class="edge">
<title>Node2&#45;&gt;Node13</title>
<g id="a_edge14_Node000002_Node000013"><a xlink:title=" ">
<path fill="none" stroke="#63b8ff" d="M646.37,-162C631.38,-162 615.86,-162 601.49,-162"/>
<polygon fill="#63b8ff" stroke="#63b8ff" points="646.18,-165.5 656.18,-162 646.18,-158.5 646.18,-165.5"/>
</a>
</g>
</g>
<!-- Node14 -->
<g id="Node000014" class="node">
<title>Node14</title>
<g id="a_Node000014"><a xlink:href="../../db/d6b/SDL__camera_8c.html#aabba86e97fffff0d55fae7efe2ecff94" target="_top" xlink:title=" ">
<polygon fill="white" stroke="#666666" points="590.88,-134 489.38,-134 489.38,-114 590.88,-114 590.88,-134"/>
<text xml:space="preserve" text-anchor="middle" x="540.12" y="-120.5" font-family="Helvetica,sans-Serif" font-size="10.00">SDL_GetCameraID</text>
</a>
</g>
</g>
<!-- Node2&#45;&gt;Node14 -->
<g id="edge15_Node000002_Node000014" class="edge">
<title>Node2&#45;&gt;Node14</title>
<g id="a_edge15_Node000002_Node000014"><a xlink:title=" ">
<path fill="none" stroke="#63b8ff" d="M661.63,-149.21C638.68,-144.41 612.89,-139.01 591.07,-134.45"/>
<polygon fill="#63b8ff" stroke="#63b8ff" points="660.65,-152.58 671.16,-151.21 662.09,-145.73 660.65,-152.58"/>
</a>
</g>
</g>
<!-- Node15 -->
<g id="Node000015" class="node">
<title>Node15</title>
<g id="a_Node000015"><a xlink:href="../../db/d6b/SDL__camera_8c.html#ac15e9525ddbbd34f7b1335bcfb678751" target="_top" xlink:title=" ">
<polygon fill="white" stroke="#666666" points="621.62,-96 458.62,-96 458.62,-76 621.62,-76 621.62,-96"/>
<text xml:space="preserve" text-anchor="middle" x="540.12" y="-82.5" font-family="Helvetica,sans-Serif" font-size="10.00">SDL_GetCameraPermissionState</text>
</a>
</g>
</g>
<!-- Node2&#45;&gt;Node15 -->
<g id="edge16_Node000002_Node000015" class="edge">
<title>Node2&#45;&gt;Node15</title>
<g id="a_edge16_Node000002_Node000015"><a xlink:title=" ">
<path fill="none" stroke="#63b8ff" d="M665.67,-147.16C663.02,-145.88 660.45,-144.5 658,-143 638.15,-130.86 642.17,-116.59 622,-105 616,-101.55 609.4,-98.73 602.65,-96.42"/>
<polygon fill="#63b8ff" stroke="#63b8ff" points="664.22,-150.35 674.79,-151.01 666.94,-143.9 664.22,-150.35"/>
</a>
</g>
</g>
<!-- Node16 -->
<g id="Node000016" class="node">
<title>Node16</title>
<g id="a_Node000016"><a xlink:href="../../db/d6b/SDL__camera_8c.html#aac8ec527b1a4e4c41b376f7fff527b72" target="_top" xlink:title=" ">
<polygon fill="white" stroke="#666666" points="607.75,-58 472.5,-58 472.5,-38 607.75,-38 607.75,-58"/>
<text xml:space="preserve" text-anchor="middle" x="540.12" y="-44.5" font-family="Helvetica,sans-Serif" font-size="10.00">SDL_GetCameraProperties</text>
</a>
</g>
</g>
<!-- Node2&#45;&gt;Node16 -->
<g id="edge17_Node000002_Node000016" class="edge">
<title>Node2&#45;&gt;Node16</title>
<g id="a_edge17_Node000002_Node000016"><a xlink:title=" ">
<path fill="none" stroke="#63b8ff" d="M661.92,-146.03C660.56,-145.08 659.25,-144.07 658,-143 629.58,-118.72 651.07,-90.49 622,-67 617.74,-63.56 612.96,-60.71 607.91,-58.37"/>
<polygon fill="#63b8ff" stroke="#63b8ff" points="659.74,-148.82 670.16,-150.78 663.24,-142.75 659.74,-148.82"/>
</a>
</g>
</g>
<!-- Node17 -->
<g id="Node000017" class="node">
<title>Node17</title>
<g id="a_Node000017"><a xlink:href="../../db/d6b/SDL__camera_8c.html#a8fc1cdd8252e34f341fab7774213065d" target="_top" xlink:title=" ">
<polygon fill="white" stroke="#666666" points="609.62,-20 470.62,-20 470.62,0 609.62,0 609.62,-20"/>
<text xml:space="preserve" text-anchor="middle" x="540.12" y="-6.5" font-family="Helvetica,sans-Serif" font-size="10.00">SDL_ReleaseCameraFrame</text>
</a>
</g>
</g>
<!-- Node2&#45;&gt;Node17 -->
<g id="edge18_Node000002_Node000017" class="edge">
<title>Node2&#45;&gt;Node17</title>
<g id="a_edge18_Node000002_Node000017"><a xlink:title=" ">
<path fill="none" stroke="#63b8ff" d="M660.74,-145.47C659.79,-144.68 658.88,-143.86 658,-143 620.05,-105.82 660.96,-65.13 622,-29 618.3,-25.57 614.1,-22.72 609.6,-20.36"/>
<polygon fill="#63b8ff" stroke="#63b8ff" points="658.48,-148.17 668.76,-150.75 662.34,-142.33 658.48,-148.17"/>
</a>
</g>
</g>
<!-- Node4 -->
<g id="Node000004" class="node">
<title>Node4</title>
<g id="a_Node000004"><a xlink:href="../../db/d6b/SDL__camera_8c.html#a52e6a78e489760b12c2652f6fbb3e70e" target="_top" xlink:title=" ">
<polygon fill="white" stroke="#666666" points="395.25,-400 278,-400 278,-380 395.25,-380 395.25,-400"/>
<text xml:space="preserve" text-anchor="middle" x="336.62" y="-386.5" font-family="Helvetica,sans-Serif" font-size="10.00">SDL_GetCameraName</text>
</a>
</g>
</g>
<!-- Node3&#45;&gt;Node4 -->
<g id="edge3_Node000003_Node000004" class="edge">
<title>Node3&#45;&gt;Node4</title>
<g id="a_edge3_Node000003_Node000004"><a xlink:title=" ">
<path fill="none" stroke="#63b8ff" d="M511.24,-329.9C488.05,-342.55 453.84,-359.92 422.25,-371 412.87,-374.29 402.7,-377.14 392.78,-379.57"/>
<polygon fill="#63b8ff" stroke="#63b8ff" points="512.7,-333.09 519.75,-325.19 509.31,-326.97 512.7,-333.09"/>
</a>
</g>
</g>
<!-- Node5 -->
<g id="Node000005" class="node">
<title>Node5</title>
<g id="a_Node000005"><a xlink:href="../../db/d6b/SDL__camera_8c.html#a5af1812f716601276da09d886ac6af8b" target="_top" xlink:title=" ">
<polygon fill="white" stroke="#666666" points="399.75,-362 273.5,-362 273.5,-342 399.75,-342 399.75,-362"/>
<text xml:space="preserve" text-anchor="middle" x="336.62" y="-348.5" font-family="Helvetica,sans-Serif" font-size="10.00">SDL_GetCameraPosition</text>
</a>
</g>
</g>
<!-- Node3&#45;&gt;Node5 -->
<g id="edge4_Node000003_Node000005" class="edge">
<title>Node3&#45;&gt;Node5</title>
<g id="a_edge4_Node000003_Node000005"><a xlink:title=" ">
<path fill="none" stroke="#63b8ff" d="M472.36,-326.59C446.64,-331.44 417.57,-336.92 393.04,-341.55"/>
<polygon fill="#63b8ff" stroke="#63b8ff" points="472.87,-330.06 482.04,-324.76 471.57,-323.18 472.87,-330.06"/>
</a>
</g>
</g>
<!-- Node6 -->
<g id="Node000006" class="node">
<title>Node6</title>
<g id="a_Node000006"><a xlink:href="../../db/d6b/SDL__camera_8c.html#ac0d4f13cf5999309fef70689c342fdfa" target="_top" xlink:title=" ">
<polygon fill="white" stroke="#666666" points="422.25,-324 251,-324 251,-304 422.25,-304 422.25,-324"/>
<text xml:space="preserve" text-anchor="middle" x="336.62" y="-310.5" font-family="Helvetica,sans-Serif" font-size="10.00">SDL_GetCameraSupportedFormats</text>
</a>
</g>
</g>
<!-- Node3&#45;&gt;Node6 -->
<g id="edge5_Node000003_Node000006" class="edge">
<title>Node3&#45;&gt;Node6</title>
<g id="a_edge5_Node000003_Node000006"><a xlink:title=" ">
<path fill="none" stroke="#63b8ff" d="M469.92,-314C454.62,-314 438.25,-314 422.41,-314"/>
<polygon fill="#63b8ff" stroke="#63b8ff" points="469.87,-317.5 479.87,-314 469.87,-310.5 469.87,-317.5"/>
</a>
</g>
</g>
<!-- Node7 -->
<g id="Node000007" class="node">
<title>Node7</title>
<g id="a_Node000007"><a xlink:href="../../db/d6b/SDL__camera_8c.html#a52469fec975f103f2456d9e03a868fba" target="_top" xlink:title=" ">
<polygon fill="white" stroke="#666666" points="98.5,-267 0,-267 0,-247 98.5,-247 98.5,-267"/>
<text xml:space="preserve" text-anchor="middle" x="49.25" y="-253.5" font-family="Helvetica,sans-Serif" font-size="10.00">SDL_OpenCamera</text>
</a>
</g>
</g>
<!-- Node3&#45;&gt;Node7 -->
<g id="edge6_Node000003_Node000007" class="edge">
<title>Node3&#45;&gt;Node7</title>
<g id="a_edge6_Node000003_Node000007"><a xlink:title=" ">
<path fill="none" stroke="#63b8ff" d="M470.28,-302.11C454.53,-299.58 437.83,-297.06 422.25,-295 306.56,-279.7 169.94,-267.15 98.81,-261.03"/>
<polygon fill="#63b8ff" stroke="#63b8ff" points="469.64,-305.55 480.07,-303.7 470.76,-298.64 469.64,-305.55"/>
</a>
</g>
</g>
<!-- Node10 -->
<g id="Node000010" class="node">
<title>Node10</title>
<g id="a_Node000010"><a xlink:href="../../db/d6b/SDL__camera_8c.html#a03e068ea12aee6918e95902871cb3523" target="_top" xlink:title=" ">
<polygon fill="white" stroke="#666666" points="215,-248 134.5,-248 134.5,-228 215,-228 215,-248"/>
<text xml:space="preserve" text-anchor="middle" x="174.75" y="-234.5" font-family="Helvetica,sans-Serif" font-size="10.00">CameraThread</text>
</a>
</g>
</g>
<!-- Node9&#45;&gt;Node10 -->
<g id="edge9_Node000009_Node000010" class="edge">
<title>Node9&#45;&gt;Node10</title>
<g id="a_edge9_Node000009_Node000010"><a xlink:title=" ">
<path fill="none" stroke="#63b8ff" d="M460.72,-238C385.25,-238 274.17,-238 215.48,-238"/>
<polygon fill="#63b8ff" stroke="#63b8ff" points="460.54,-241.5 470.54,-238 460.54,-234.5 460.54,-241.5"/>
</a>
</g>
</g>
<!-- Node11 -->
<g id="Node000011" class="node">
<title>Node11</title>
<g id="a_Node000011"><a xlink:href="../../db/d6b/SDL__camera_8c.html#aada59aeebd93ce01f07435a3741fc972" target="_top" xlink:title=" ">
<polygon fill="white" stroke="#666666" points="403.12,-210 270.12,-210 270.12,-190 403.12,-190 403.12,-210"/>
<text xml:space="preserve" text-anchor="middle" x="336.62" y="-196.5" font-family="Helvetica,sans-Serif" font-size="10.00">SDL_CameraThreadIterate</text>
</a>
</g>
</g>
<!-- Node9&#45;&gt;Node11 -->
<g id="edge11_Node000009_Node000011" class="edge">
<title>Node9&#45;&gt;Node11</title>
<g id="a_edge11_Node000009_Node000011"><a xlink:title=" ">
<path fill="none" stroke="#63b8ff" d="M472.36,-225.41C446.64,-220.56 417.57,-215.08 393.04,-210.45"/>
<polygon fill="#63b8ff" stroke="#63b8ff" points="471.57,-228.82 482.04,-227.24 472.87,-221.94 471.57,-228.82"/>
</a>
</g>
</g>
<!-- Node10&#45;&gt;Node7 -->
<g id="edge10_Node000010_Node000007" class="edge">
<title>Node10&#45;&gt;Node7</title>
<g id="a_edge10_Node000010_Node000007"><a xlink:title=" ">
<path fill="none" stroke="#63b8ff" d="M123.19,-245.78C115.13,-247.02 106.82,-248.3 98.82,-249.53"/>
<polygon fill="#63b8ff" stroke="#63b8ff" points="123.49,-249.27 132.84,-244.29 122.42,-242.36 123.49,-249.27"/>
</a>
</g>
</g>
<!-- Node11&#45;&gt;Node10 -->
<g id="edge12_Node000011_Node000010" class="edge">
<title>Node11&#45;&gt;Node10</title>
<g id="a_edge12_Node000011_Node000010"><a xlink:title=" ">
<path fill="none" stroke="#63b8ff" d="M280.58,-213.08C259.13,-218.18 235.03,-223.91 215.35,-228.59"/>
<polygon fill="#63b8ff" stroke="#63b8ff" points="281.12,-216.55 290.04,-210.83 279.5,-209.74 281.12,-216.55"/>
</a>
</g>
</g>
</g>
</svg>
