<?xml version="1.0" encoding="UTF-8" standalone="no"?>
<!DOCTYPE svg PUBLIC "-//W3C//DTD SVG 1.1//EN"
 "http://www.w3.org/Graphics/SVG/1.1/DTD/svg11.dtd">
<!-- Generated by graphviz version 13.1.0 (20250701.0955)
 -->
<!-- Title: VkPipelineDiscardRectangleStateCreateInfoEXT Pages: 1 -->
<svg width="179pt" height="188pt"
 viewBox="0.00 0.00 179.00 188.00" xmlns="http://www.w3.org/2000/svg" xmlns:xlink="http://www.w3.org/1999/xlink">
<g id="graph0" class="graph" transform="scale(1 1) rotate(0) translate(4 184)">
<title>VkPipelineDiscardRectangleStateCreateInfoEXT</title>
<!-- Node1 -->
<g id="Node000001" class="node">
<title>Node1</title>
<g id="a_Node000001"><a xlink:title=" ">
<polygon fill="#999999" stroke="#666666" points="146.75,-32 6.25,-32 6.25,0 146.75,0 146.75,-32"/>
<text xml:space="preserve" text-anchor="start" x="14.25" y="-18.5" font-family="Helvetica,sans-Serif" font-size="10.00">VkPipelineDiscardRectangle</text>
<text xml:space="preserve" text-anchor="middle" x="76.5" y="-6.5" font-family="Helvetica,sans-Serif" font-size="10.00">StateCreateInfoEXT</text>
</a>
</g>
</g>
<!-- Node2 -->
<g id="Node000002" class="node">
<title>Node2</title>
<g id="a_Node000002"><a xlink:href="../../d7/d2d/structVkRect2D.html" target="_top" xlink:title=" ">
<polygon fill="white" stroke="#666666" points="107.38,-106 45.62,-106 45.62,-86 107.38,-86 107.38,-106"/>
<text xml:space="preserve" text-anchor="middle" x="76.5" y="-92.5" font-family="Helvetica,sans-Serif" font-size="10.00">VkRect2D</text>
</a>
</g>
</g>
<!-- Node2&#45;&gt;Node1 -->
<g id="edge1_Node000001_Node000002" class="edge">
<title>Node2&#45;&gt;Node1</title>
<g id="a_edge1_Node000001_Node000002"><a xlink:title=" ">
<path fill="none" stroke="#9a32cd" stroke-dasharray="5,2" d="M76.5,-74.51C76.5,-61.32 76.5,-44.47 76.5,-32.42"/>
<polygon fill="#9a32cd" stroke="#9a32cd" points="73,-74.23 76.5,-84.23 80,-74.23 73,-74.23"/>
</a>
</g>
<text xml:space="preserve" text-anchor="start" x="79.5" y="-55.5" font-family="Helvetica,sans-Serif" font-size="10.00" fill="grey">pDiscardRectangles</text>
</g>
<!-- Node3 -->
<g id="Node000003" class="node">
<title>Node3</title>
<g id="a_Node000003"><a xlink:href="../../d6/d3e/structVkOffset2D.html" target="_top" xlink:title=" ">
<polygon fill="white" stroke="#666666" points="67,-180 0,-180 0,-160 67,-160 67,-180"/>
<text xml:space="preserve" text-anchor="middle" x="33.5" y="-166.5" font-family="Helvetica,sans-Serif" font-size="10.00">VkOffset2D</text>
</a>
</g>
</g>
<!-- Node3&#45;&gt;Node2 -->
<g id="edge2_Node000002_Node000003" class="edge">
<title>Node3&#45;&gt;Node2</title>
<g id="a_edge2_Node000002_Node000003"><a xlink:title=" ">
<path fill="none" stroke="#9a32cd" stroke-dasharray="5,2" d="M44.93,-149.86C53.37,-135.74 64.47,-117.14 71.01,-106.19"/>
<polygon fill="#9a32cd" stroke="#9a32cd" points="42.02,-147.91 39.9,-158.29 48.03,-151.5 42.02,-147.91"/>
</a>
</g>
<text xml:space="preserve" text-anchor="start" x="63.12" y="-129.5" font-family="Helvetica,sans-Serif" font-size="10.00" fill="grey">offset</text>
</g>
<!-- Node4 -->
<g id="Node000004" class="node">
<title>Node4</title>
<g id="a_Node000004"><a xlink:href="../../d1/d79/structVkExtent2D.html" target="_top" xlink:title=" ">
<polygon fill="white" stroke="#666666" points="154.12,-180 84.88,-180 84.88,-160 154.12,-160 154.12,-180"/>
<text xml:space="preserve" text-anchor="middle" x="119.5" y="-166.5" font-family="Helvetica,sans-Serif" font-size="10.00">VkExtent2D</text>
</a>
</g>
</g>
<!-- Node4&#45;&gt;Node2 -->
<g id="edge3_Node000002_Node000004" class="edge">
<title>Node4&#45;&gt;Node2</title>
<g id="a_edge3_Node000002_Node000004"><a xlink:title=" ">
<path fill="none" stroke="#9a32cd" stroke-dasharray="5,2" d="M109.21,-149.67C104.82,-141.65 99.55,-132.29 94.5,-124 90.86,-118.04 86.53,-111.51 83.02,-106.38"/>
<polygon fill="#9a32cd" stroke="#9a32cd" points="106,-151.09 113.83,-158.23 112.16,-147.77 106,-151.09"/>
</a>
</g>
<text xml:space="preserve" text-anchor="start" x="107.47" y="-129.5" font-family="Helvetica,sans-Serif" font-size="10.00" fill="grey">extent</text>
</g>
</g>
</svg>
