<?xml version="1.0" encoding="UTF-8" standalone="no"?>
<!DOCTYPE svg PUBLIC "-//W3C//DTD SVG 1.1//EN"
 "http://www.w3.org/Graphics/SVG/1.1/DTD/svg11.dtd">
<!-- Generated by graphviz version 13.1.0 (20250701.0955)
 -->
<!-- Title: GetAudioStreamAvailableFrames Pages: 1 -->
<svg width="704pt" height="142pt"
 viewBox="0.00 0.00 704.00 142.00" xmlns="http://www.w3.org/2000/svg" xmlns:xlink="http://www.w3.org/1999/xlink">
<g id="graph0" class="graph" transform="scale(1 1) rotate(0) translate(4 138)">
<title>GetAudioStreamAvailableFrames</title>
<!-- Node1 -->
<g id="Node000001" class="node">
<title>Node1</title>
<g id="a_Node000001"><a xlink:title=" ">
<polygon fill="#999999" stroke="#666666" points="160.75,-58 0,-58 0,-38 160.75,-38 160.75,-58"/>
<text xml:space="preserve" text-anchor="middle" x="80.38" y="-44.5" font-family="Helvetica,sans-Serif" font-size="10.00">GetAudioStreamAvailableFrames</text>
</a>
</g>
</g>
<!-- Node2 -->
<g id="Node000002" class="node">
<title>Node2</title>
<g id="a_Node000002"><a xlink:href="../../dc/d77/SDL__audiocvt_8c.html#a24cc90df57e6ff3051c07285b91236f3" target="_top" xlink:title=" ">
<polygon fill="white" stroke="#666666" points="317,-77 209.5,-77 209.5,-57 317,-57 317,-77"/>
<text xml:space="preserve" text-anchor="middle" x="263.25" y="-63.5" font-family="Helvetica,sans-Serif" font-size="10.00">NextAudioStreamIter</text>
</a>
</g>
</g>
<!-- Node1&#45;&gt;Node2 -->
<g id="edge1_Node000001_Node000002" class="edge">
<title>Node1&#45;&gt;Node2</title>
<g id="a_edge1_Node000001_Node000002"><a xlink:title=" ">
<path fill="none" stroke="#63b8ff" d="M161.24,-56.39C173.5,-57.68 186.03,-58.99 197.9,-60.24"/>
<polygon fill="#63b8ff" stroke="#63b8ff" points="197.23,-63.69 207.54,-61.25 197.96,-56.73 197.23,-63.69"/>
</a>
</g>
</g>
<!-- Node10 -->
<g id="Node000010" class="node">
<title>Node10</title>
<g id="a_Node000010"><a xlink:href="../../df/dd6/SDL__audioqueue_8c.html#a5b42661980246916e03455342e7110ef" target="_top" xlink:title=" ">
<polygon fill="white" stroke="#666666" points="329.75,-39 196.75,-39 196.75,-19 329.75,-19 329.75,-39"/>
<text xml:space="preserve" text-anchor="middle" x="263.25" y="-25.5" font-family="Helvetica,sans-Serif" font-size="10.00">SDL_BeginAudioQueueIter</text>
</a>
</g>
</g>
<!-- Node1&#45;&gt;Node10 -->
<g id="edge9_Node000001_Node000010" class="edge">
<title>Node1&#45;&gt;Node10</title>
<g id="a_edge9_Node000001_Node000010"><a xlink:title=" ">
<path fill="none" stroke="#63b8ff" d="M161.24,-39.61C169.12,-38.78 177.11,-37.94 184.97,-37.12"/>
<polygon fill="#63b8ff" stroke="#63b8ff" points="185.27,-40.61 194.85,-36.08 184.54,-33.64 185.27,-40.61"/>
</a>
</g>
</g>
<!-- Node3 -->
<g id="Node000003" class="node">
<title>Node3</title>
<g id="a_Node000003"><a xlink:href="../../dc/d77/SDL__audiocvt_8c.html#a84a00bb17f8d27b12034ac07059e0523" target="_top" xlink:title=" ">
<polygon fill="white" stroke="#666666" points="528.38,-134 375.12,-134 375.12,-114 528.38,-114 528.38,-134"/>
<text xml:space="preserve" text-anchor="middle" x="451.75" y="-120.5" font-family="Helvetica,sans-Serif" font-size="10.00">GetAudioStreamResampleRate</text>
</a>
</g>
</g>
<!-- Node2&#45;&gt;Node3 -->
<g id="edge2_Node000002_Node000003" class="edge">
<title>Node2&#45;&gt;Node3</title>
<g id="a_edge2_Node000002_Node000003"><a xlink:title=" ">
<path fill="none" stroke="#63b8ff" d="M288.95,-77.34C309.3,-85.6 339.06,-97.06 365.75,-105 372.78,-107.09 380.19,-109.07 387.59,-110.91"/>
<polygon fill="#63b8ff" stroke="#63b8ff" points="386.75,-114.3 397.29,-113.23 388.38,-107.5 386.75,-114.3"/>
</a>
</g>
</g>
<!-- Node5 -->
<g id="Node000005" class="node">
<title>Node5</title>
<g id="a_Node000005"><a xlink:href="../../d0/d15/SDL__audioresample_8c.html#a9caea21adc823ed51d56a9da7b146630" target="_top" xlink:title=" ">
<polygon fill="white" stroke="#666666" points="534.75,-96 368.75,-96 368.75,-76 534.75,-76 534.75,-96"/>
<text xml:space="preserve" text-anchor="middle" x="451.75" y="-82.5" font-family="Helvetica,sans-Serif" font-size="10.00">SDL_GetResamplerOutputFrames</text>
</a>
</g>
</g>
<!-- Node2&#45;&gt;Node5 -->
<g id="edge4_Node000002_Node000005" class="edge">
<title>Node2&#45;&gt;Node5</title>
<g id="a_edge4_Node000002_Node000005"><a xlink:title=" ">
<path fill="none" stroke="#63b8ff" d="M317.44,-72.42C329.89,-73.69 343.52,-75.08 357.15,-76.46"/>
<polygon fill="#63b8ff" stroke="#63b8ff" points="356.77,-79.94 367.08,-77.48 357.48,-72.98 356.77,-79.94"/>
</a>
</g>
</g>
<!-- Node8 -->
<g id="Node000008" class="node">
<title>Node8</title>
<g id="a_Node000008"><a xlink:href="../../d0/d15/SDL__audioresample_8c.html#ae33860764723690918a4bee63ffd9dfa" target="_top" xlink:title=" ">
<polygon fill="white" stroke="#666666" points="537.75,-58 365.75,-58 365.75,-38 537.75,-38 537.75,-58"/>
<text xml:space="preserve" text-anchor="middle" x="451.75" y="-44.5" font-family="Helvetica,sans-Serif" font-size="10.00">SDL_GetResamplerPaddingFrames</text>
</a>
</g>
</g>
<!-- Node2&#45;&gt;Node8 -->
<g id="edge7_Node000002_Node000008" class="edge">
<title>Node2&#45;&gt;Node8</title>
<g id="a_edge7_Node000002_Node000008"><a xlink:title=" ">
<path fill="none" stroke="#63b8ff" d="M317.44,-61.58C329.02,-60.4 341.61,-59.12 354.28,-57.83"/>
<polygon fill="#63b8ff" stroke="#63b8ff" points="354.31,-61.34 363.91,-56.85 353.6,-54.38 354.31,-61.34"/>
</a>
</g>
</g>
<!-- Node9 -->
<g id="Node000009" class="node">
<title>Node9</title>
<g id="a_Node000009"><a xlink:href="../../df/dd6/SDL__audioqueue_8c.html#a42b3046318f152b7c36001c7c63ee10a" target="_top" xlink:title=" ">
<polygon fill="white" stroke="#666666" points="516.38,-20 387.12,-20 387.12,0 516.38,0 516.38,-20"/>
<text xml:space="preserve" text-anchor="middle" x="451.75" y="-6.5" font-family="Helvetica,sans-Serif" font-size="10.00">SDL_NextAudioQueueIter</text>
</a>
</g>
</g>
<!-- Node2&#45;&gt;Node9 -->
<g id="edge8_Node000002_Node000009" class="edge">
<title>Node2&#45;&gt;Node9</title>
<g id="a_edge8_Node000002_Node000009"><a xlink:title=" ">
<path fill="none" stroke="#63b8ff" d="M305.22,-56.51C313.45,-54.01 321.96,-51.15 329.75,-48 346.52,-41.22 348.77,-35.25 365.75,-29 371.43,-26.91 377.4,-25.01 383.45,-23.29"/>
<polygon fill="#63b8ff" stroke="#63b8ff" points="384.13,-26.73 392.89,-20.78 382.33,-19.97 384.13,-26.73"/>
</a>
</g>
</g>
<!-- Node4 -->
<g id="Node000004" class="node">
<title>Node4</title>
<g id="a_Node000004"><a xlink:href="../../d0/d15/SDL__audioresample_8c.html#a66d2518e4967cc4820b12e1724bbcb43" target="_top" xlink:title=" ">
<polygon fill="white" stroke="#666666" points="695.5,-134 573.75,-134 573.75,-114 695.5,-114 695.5,-134"/>
<text xml:space="preserve" text-anchor="middle" x="634.62" y="-120.5" font-family="Helvetica,sans-Serif" font-size="10.00">SDL_GetResampleRate</text>
</a>
</g>
</g>
<!-- Node3&#45;&gt;Node4 -->
<g id="edge3_Node000003_Node000004" class="edge">
<title>Node3&#45;&gt;Node4</title>
<g id="a_edge3_Node000003_Node000004"><a xlink:title=" ">
<path fill="none" stroke="#63b8ff" d="M528.67,-124C539.72,-124 551.07,-124 562.03,-124"/>
<polygon fill="#63b8ff" stroke="#63b8ff" points="561.77,-127.5 571.77,-124 561.77,-120.5 561.77,-127.5"/>
</a>
</g>
</g>
<!-- Node6 -->
<g id="Node000006" class="node">
<title>Node6</title>
<g id="a_Node000006"><a xlink:href="../../d0/d15/SDL__audioresample_8c.html#ad38938f08cac8a1b8894bdee7c40ab19" target="_top" xlink:title=" ">
<polygon fill="white" stroke="#666666" points="674.88,-96 594.38,-96 594.38,-76 674.88,-76 674.88,-96"/>
<text xml:space="preserve" text-anchor="middle" x="634.62" y="-82.5" font-family="Helvetica,sans-Serif" font-size="10.00">ResamplerAdd</text>
</a>
</g>
</g>
<!-- Node5&#45;&gt;Node6 -->
<g id="edge5_Node000005_Node000006" class="edge">
<title>Node5&#45;&gt;Node6</title>
<g id="a_edge5_Node000005_Node000006"><a xlink:title=" ">
<path fill="none" stroke="#63b8ff" d="M535.25,-86C551.42,-86 567.94,-86 582.7,-86"/>
<polygon fill="#63b8ff" stroke="#63b8ff" points="582.62,-89.5 592.62,-86 582.62,-82.5 582.62,-89.5"/>
</a>
</g>
</g>
<!-- Node7 -->
<g id="Node000007" class="node">
<title>Node7</title>
<g id="a_Node000007"><a xlink:href="../../d0/d15/SDL__audioresample_8c.html#a27abfafe93e09240adc373fcdc1b1735" target="_top" xlink:title=" ">
<polygon fill="white" stroke="#666666" points="674.12,-58 595.12,-58 595.12,-38 674.12,-38 674.12,-58"/>
<text xml:space="preserve" text-anchor="middle" x="634.62" y="-44.5" font-family="Helvetica,sans-Serif" font-size="10.00">ResamplerMul</text>
</a>
</g>
</g>
<!-- Node5&#45;&gt;Node7 -->
<g id="edge6_Node000005_Node000007" class="edge">
<title>Node5&#45;&gt;Node7</title>
<g id="a_edge6_Node000005_Node000007"><a xlink:title=" ">
<path fill="none" stroke="#63b8ff" d="M502.65,-75.52C527.86,-70.22 558.37,-63.81 583.6,-58.51"/>
<polygon fill="#63b8ff" stroke="#63b8ff" points="584.23,-61.95 593.29,-56.47 582.79,-55.1 584.23,-61.95"/>
</a>
</g>
</g>
</g>
</svg>
