<?xml version="1.0" encoding="UTF-8" standalone="no"?>
<!DOCTYPE svg PUBLIC "-//W3C//DTD SVG 1.1//EN"
 "http://www.w3.org/Graphics/SVG/1.1/DTD/svg11.dtd">
<!-- Generated by graphviz version 13.1.0 (20250701.0955)
 -->
<!-- Title: DISPLAYCONFIG_MODE_INFO Pages: 1 -->
<svg width="983pt" height="160pt"
 viewBox="0.00 0.00 983.00 160.00" xmlns="http://www.w3.org/2000/svg" xmlns:xlink="http://www.w3.org/1999/xlink">
<g id="graph0" class="graph" transform="scale(1 1) rotate(0) translate(4 156.1)">
<title>DISPLAYCONFIG_MODE_INFO</title>
<!-- Node1 -->
<g id="Node000001" class="node">
<title>Node1</title>
<g id="a_Node000001"><a xlink:title=" ">
<polygon fill="#999999" stroke="#666666" points="975.25,-70 813.75,-70 813.75,-50 975.25,-50 975.25,-70"/>
<text xml:space="preserve" text-anchor="middle" x="894.5" y="-56.5" font-family="Helvetica,sans-Serif" font-size="10.00">DISPLAYCONFIG_MODE_INFO</text>
</a>
</g>
</g>
<!-- Node2 -->
<g id="Node000002" class="node">
<title>Node2</title>
<g id="a_Node000002"><a xlink:href="../../d5/d35/structDISPLAYCONFIG__TARGET__MODE.html" target="_top" xlink:title=" ">
<polygon fill="white" stroke="#666666" points="691.88,-111 514.62,-111 514.62,-91 691.88,-91 691.88,-111"/>
<text xml:space="preserve" text-anchor="middle" x="603.25" y="-97.5" font-family="Helvetica,sans-Serif" font-size="10.00">DISPLAYCONFIG_TARGET_MODE</text>
</a>
</g>
</g>
<!-- Node2&#45;&gt;Node1 -->
<g id="edge1_Node000001_Node000002" class="edge">
<title>Node2&#45;&gt;Node1</title>
<g id="a_edge1_Node000001_Node000002"><a xlink:title=" ">
<path fill="none" stroke="#9a32cd" stroke-dasharray="5,2" d="M703.4,-91.09C733.16,-87.72 765.84,-83.62 795.75,-79 811.38,-76.59 828.33,-73.47 843.65,-70.46"/>
<polygon fill="#9a32cd" stroke="#9a32cd" points="703.2,-87.59 693.65,-92.18 703.98,-94.55 703.2,-87.59"/>
</a>
</g>
<text xml:space="preserve" text-anchor="start" x="729.38" y="-95.62" font-family="Helvetica,sans-Serif" font-size="10.00" fill="grey">targetMode</text>
</g>
<!-- Node3 -->
<g id="Node000003" class="node">
<title>Node3</title>
<g id="a_Node000003"><a xlink:href="../../df/d67/structDISPLAYCONFIG__VIDEO__SIGNAL__INFO.html" target="_top" xlink:title=" ">
<polygon fill="white" stroke="#666666" points="377.75,-117 244,-117 244,-85 377.75,-85 377.75,-117"/>
<text xml:space="preserve" text-anchor="start" x="252" y="-103.5" font-family="Helvetica,sans-Serif" font-size="10.00">DISPLAYCONFIG_VIDEO</text>
<text xml:space="preserve" text-anchor="middle" x="310.88" y="-91.5" font-family="Helvetica,sans-Serif" font-size="10.00">_SIGNAL_INFO</text>
</a>
</g>
</g>
<!-- Node3&#45;&gt;Node2 -->
<g id="edge2_Node000002_Node000003" class="edge">
<title>Node3&#45;&gt;Node2</title>
<g id="a_edge2_Node000002_Node000003"><a xlink:title=" ">
<path fill="none" stroke="#9a32cd" stroke-dasharray="5,2" d="M389.27,-101C427.75,-101 474.42,-101 514.26,-101"/>
<polygon fill="#9a32cd" stroke="#9a32cd" points="389.64,-97.5 379.64,-101 389.64,-104.5 389.64,-97.5"/>
</a>
</g>
<text xml:space="preserve" text-anchor="start" x="398.75" y="-106.5" font-family="Helvetica,sans-Serif" font-size="10.00" fill="grey">targetVideoSignalInfo</text>
</g>
<!-- Node4 -->
<g id="Node000004" class="node">
<title>Node4</title>
<g id="a_Node000004"><a xlink:href="../../de/df3/structDISPLAYCONFIG__RATIONAL.html" target="_top" xlink:title=" ">
<polygon fill="white" stroke="#666666" points="153.25,-140 1.5,-140 1.5,-120 153.25,-120 153.25,-140"/>
<text xml:space="preserve" text-anchor="middle" x="77.38" y="-126.5" font-family="Helvetica,sans-Serif" font-size="10.00">DISPLAYCONFIG_RATIONAL</text>
</a>
</g>
</g>
<!-- Node4&#45;&gt;Node3 -->
<g id="edge3_Node000003_Node000004" class="edge">
<title>Node4&#45;&gt;Node3</title>
<g id="a_edge3_Node000003_Node000004"><a xlink:title=" ">
<path fill="none" stroke="#9a32cd" stroke-dasharray="5,2" d="M164.94,-119.16C191,-115.89 219.16,-112.36 243.67,-109.29"/>
<polygon fill="#9a32cd" stroke="#9a32cd" points="164.53,-115.68 155.04,-120.4 165.4,-122.63 164.53,-115.68"/>
</a>
</g>
<text xml:space="preserve" text-anchor="start" x="175.75" y="-139.6" font-family="Helvetica,sans-Serif" font-size="10.00" fill="grey">hSyncFreq</text>
<text xml:space="preserve" text-anchor="start" x="175.75" y="-123.6" font-family="Helvetica,sans-Serif" font-size="10.00" fill="grey">vSyncFreq</text>
</g>
<!-- Node5 -->
<g id="Node000005" class="node">
<title>Node5</title>
<g id="a_Node000005"><a xlink:href="../../de/d4a/structDISPLAYCONFIG__2DREGION.html" target="_top" xlink:title=" ">
<polygon fill="white" stroke="#666666" points="154.75,-83 0,-83 0,-63 154.75,-63 154.75,-83"/>
<text xml:space="preserve" text-anchor="middle" x="77.38" y="-69.5" font-family="Helvetica,sans-Serif" font-size="10.00">DISPLAYCONFIG_2DREGION</text>
</a>
</g>
</g>
<!-- Node5&#45;&gt;Node3 -->
<g id="edge4_Node000003_Node000005" class="edge">
<title>Node5&#45;&gt;Node3</title>
<g id="a_edge4_Node000003_Node000005"><a xlink:title=" ">
<path fill="none" stroke="#9a32cd" stroke-dasharray="5,2" d="M166.44,-69.22C186.13,-69.58 206.86,-70.93 226,-74 239.74,-76.21 254.32,-80.25 267.39,-84.56"/>
<polygon fill="#9a32cd" stroke="#9a32cd" points="166.53,-65.72 156.49,-69.12 166.46,-72.72 166.53,-65.72"/>
</a>
</g>
<text xml:space="preserve" text-anchor="start" x="176.5" y="-95.5" font-family="Helvetica,sans-Serif" font-size="10.00" fill="grey">activeSize</text>
<text xml:space="preserve" text-anchor="start" x="176.5" y="-79.5" font-family="Helvetica,sans-Serif" font-size="10.00" fill="grey">totalSize</text>
</g>
<!-- Node6 -->
<g id="Node000006" class="node">
<title>Node6</title>
<g id="a_Node000006"><a xlink:href="../../df/dbd/structDISPLAYCONFIG__SOURCE__MODE.html" target="_top" xlink:title=" ">
<polygon fill="white" stroke="#666666" points="693.75,-70 512.75,-70 512.75,-50 693.75,-50 693.75,-70"/>
<text xml:space="preserve" text-anchor="middle" x="603.25" y="-56.5" font-family="Helvetica,sans-Serif" font-size="10.00">DISPLAYCONFIG_SOURCE_MODE</text>
</a>
</g>
</g>
<!-- Node6&#45;&gt;Node1 -->
<g id="edge5_Node000001_Node000006" class="edge">
<title>Node6&#45;&gt;Node1</title>
<g id="a_edge5_Node000001_Node000006"><a xlink:title=" ">
<path fill="none" stroke="#9a32cd" stroke-dasharray="5,2" d="M705.52,-60C740.87,-60 780.04,-60 813.43,-60"/>
<polygon fill="#9a32cd" stroke="#9a32cd" points="705.7,-56.5 695.7,-60 705.7,-63.5 705.7,-56.5"/>
</a>
</g>
<text xml:space="preserve" text-anchor="start" x="727.12" y="-65.5" font-family="Helvetica,sans-Serif" font-size="10.00" fill="grey">sourceMode</text>
</g>
<!-- Node7 -->
<g id="Node000007" class="node">
<title>Node7</title>
<g id="a_Node000007"><a xlink:href="../../dc/de7/structDISPLAYCONFIG__DESKTOP__IMAGE__INFO.html" target="_top" xlink:title=" ">
<polygon fill="white" stroke="#666666" points="678.38,-32 528.12,-32 528.12,0 678.38,0 678.38,-32"/>
<text xml:space="preserve" text-anchor="start" x="536.12" y="-18.5" font-family="Helvetica,sans-Serif" font-size="10.00">DISPLAYCONFIG_DESKTOP</text>
<text xml:space="preserve" text-anchor="middle" x="603.25" y="-6.5" font-family="Helvetica,sans-Serif" font-size="10.00">_IMAGE_INFO</text>
</a>
</g>
</g>
<!-- Node7&#45;&gt;Node1 -->
<g id="edge6_Node000001_Node000007" class="edge">
<title>Node7&#45;&gt;Node1</title>
<g id="a_edge6_Node000001_Node000007"><a xlink:title=" ">
<path fill="none" stroke="#9a32cd" stroke-dasharray="5,2" d="M689.69,-23.84C722.91,-27.4 761.22,-32.15 795.75,-38 814.27,-41.14 834.56,-45.55 851.84,-49.59"/>
<polygon fill="#9a32cd" stroke="#9a32cd" points="690.44,-20.4 680.13,-22.83 689.71,-27.36 690.44,-20.4"/>
</a>
</g>
<text xml:space="preserve" text-anchor="start" x="714.75" y="-43.5" font-family="Helvetica,sans-Serif" font-size="10.00" fill="grey">desktopImageInfo</text>
</g>
</g>
</svg>
