<?xml version="1.0" encoding="UTF-8" standalone="no"?>
<!DOCTYPE svg PUBLIC "-//W3C//DTD SVG 1.1//EN"
 "http://www.w3.org/Graphics/SVG/1.1/DTD/svg11.dtd">
<!-- Generated by graphviz version 13.1.0 (20250701.0955)
 -->
<!-- Title: SDL&#45;main/include/SDL3/SDL_system.h Pages: 1 -->
<!--zoomable 488 -->

<svg id="main" version="1.1" xmlns="http://www.w3.org/2000/svg" xmlns:xlink="http://www.w3.org/1999/xlink" xml:space="preserve" onload="init(evt)">

<style type="text/css"><![CDATA[
.node, .edge {opacity: 0.7;}
.node.selected, .edge.selected {opacity: 1;}
.edge:hover path { stroke: red; }
.edge:hover polygon { stroke: red; fill: red; }
]]></style>

<defs>
  <circle id="rim" cx="0" cy="0" r="7"/>
  <circle id="rim2" cx="0" cy="0" r="3.5"/>
  <g id="zoomPlus">
    <use xlink:href="#rim" fill="#404040"><set attributeName="fill" to="#808080" begin="zoomplus.mouseover" end="zoomplus.mouseout"/></use>
    <path d="M-4,0h8M0,-4v8" fill="none" stroke="white" stroke-width="1.5" pointer-events="none"/>
  </g>
  <g id="zoomMin">
    <use xlink:href="#rim" fill="#404040"><set attributeName="fill" to="#808080" begin="zoomminus.mouseover" end="zoomminus.mouseout"/></use>
    <path d="M-4,0h8" fill="none" stroke="white" stroke-width="1.5" pointer-events="none"/>
  </g>
  <g id="arrowUp" transform="translate(30 24)">
    <use xlink:href="#rim"/>
    <path pointer-events="none" fill="none" stroke="white" stroke-width="1.5" d="M0,-3.0v7 M-2.5,-0.5L0,-3.0L2.5,-0.5"/>
  </g>
  <g id="arrowRight" transform="rotate(90) translate(36 -43)">
    <use xlink:href="#rim"/>
    <path pointer-events="none" fill="none" stroke="white" stroke-width="1.5" d="M0,-3.0v7 M-2.5,-0.5L0,-3.0L2.5,-0.5"/>
  </g>
  <g id="arrowDown" transform="rotate(180) translate(-30 -48)">
    <use xlink:href="#rim"/>
    <path pointer-events="none" fill="none" stroke="white" stroke-width="1.5" d="M0,-3.0v7 M-2.5,-0.5L0,-3.0L2.5,-0.5"/>
  </g>
  <g id="arrowLeft" transform="rotate(270) translate(-36 17)">
    <use xlink:href="#rim"/>
    <path pointer-events="none" fill="none" stroke="white" stroke-width="1.5" d="M0,-3.0v7 M-2.5,-0.5L0,-3.0L2.5,-0.5"/>
  </g>
  <g id="resetDef">
    <use xlink:href="#rim2" fill="#404040"><set attributeName="fill" to="#808080" begin="reset.mouseover" end="reset.mouseout"/></use>
  </g>
</defs>
<script type="application/ecmascript">
var viewWidth = 1413;
var viewHeight = 488;
var sectionId = 'dynsection-0';
</script>
<script type="application/ecmascript" xlink:href="../../svg.min.js"/>
<svg id="graph" class="graph">
<g id="viewport">
<title>SDL&#45;main/include/SDL3/SDL_system.h</title>
<!-- Node1 -->
<g id="Node000001" class="node">
<title>Node1</title>
<g id="a_Node000001"><a xlink:title=" ">
<polygon fill="#999999" stroke="#666666" points="649.75,-480 528.75,-480 528.75,-448 649.75,-448 649.75,-480"/>
<text xml:space="preserve" text-anchor="start" x="536.75" y="-466.5" font-family="Helvetica,sans-Serif" font-size="10.00">SDL&#45;main/include/SDL3</text>
<text xml:space="preserve" text-anchor="middle" x="589.25" y="-454.5" font-family="Helvetica,sans-Serif" font-size="10.00">/SDL_system.h</text>
</a>
</g>
</g>
<!-- Node2 -->
<g id="Node000002" class="node">
<title>Node2</title>
<g id="a_Node000002"><a xlink:href="../../d2/d5b/SDL__stdinc_8h.html" target="_top" xlink:title=" ">
<polygon fill="white" stroke="#666666" points="312.75,-76 209.75,-76 209.75,-56 312.75,-56 312.75,-76"/>
<text xml:space="preserve" text-anchor="middle" x="261.25" y="-62.5" font-family="Helvetica,sans-Serif" font-size="10.00">SDL3/SDL_stdinc.h</text>
</a>
</g>
</g>
<!-- Node1&#45;&gt;Node2 -->
<g id="edge1_Node000001_Node000002" class="edge">
<title>Node1&#45;&gt;Node2</title>
<g id="a_edge1_Node000001_Node000002"><a xlink:title=" ">
<path fill="none" stroke="#63b8ff" d="M528.47,-463.07C383.85,-461.59 31.25,-447.68 31.25,-347 31.25,-347 31.25,-347 31.25,-177 31.25,-102.68 130.19,-78.53 198.28,-70.71"/>
<polygon fill="#63b8ff" stroke="#63b8ff" points="198.26,-74.23 207.84,-69.71 197.53,-67.27 198.26,-74.23"/>
</a>
</g>
</g>
<!-- Node8 -->
<g id="Node000008" class="node">
<title>Node8</title>
<g id="a_Node000008"><a xlink:href="../../d8/d5f/SDL__begin__code_8h.html" target="_top" xlink:title=" ">
<polygon fill="white" stroke="#666666" points="765.38,-20 639.12,-20 639.12,0 765.38,0 765.38,-20"/>
<text xml:space="preserve" text-anchor="middle" x="702.25" y="-6.5" font-family="Helvetica,sans-Serif" font-size="10.00">SDL3/SDL_begin_code.h</text>
</a>
</g>
</g>
<!-- Node1&#45;&gt;Node8 -->
<g id="edge68_Node000001_Node000008" class="edge">
<title>Node1&#45;&gt;Node8</title>
<g id="a_edge68_Node000001_Node000008"><a xlink:title=" ">
<path fill="none" stroke="#63b8ff" d="M649.97,-460.33C833.08,-451.47 1367.25,-419.42 1367.25,-347 1367.25,-347 1367.25,-347 1367.25,-233 1367.25,-129.02 1307.87,-101.26 1214.25,-56 1138.97,-19.61 899.54,-12.38 776.63,-11.12"/>
<polygon fill="#63b8ff" stroke="#63b8ff" points="777.01,-7.63 766.98,-11.04 776.95,-14.63 777.01,-7.63"/>
</a>
</g>
</g>
<!-- Node9 -->
<g id="Node000009" class="node">
<title>Node9</title>
<g id="a_Node000009"><a xlink:href="../../d9/d73/SDL__close__code_8h.html" target="_top" xlink:title=" ">
<polygon fill="white" stroke="#666666" points="1183.38,-20 1057.12,-20 1057.12,0 1183.38,0 1183.38,-20"/>
<text xml:space="preserve" text-anchor="middle" x="1120.25" y="-6.5" font-family="Helvetica,sans-Serif" font-size="10.00">SDL3/SDL_close_code.h</text>
</a>
</g>
</g>
<!-- Node1&#45;&gt;Node9 -->
<g id="edge69_Node000001_Node000009" class="edge">
<title>Node1&#45;&gt;Node9</title>
<g id="a_edge69_Node000001_Node000009"><a xlink:title=" ">
<path fill="none" stroke="#63b8ff" d="M650.14,-460.97C792.39,-455.81 1143.14,-440.53 1257.25,-412 1326.95,-394.57 1405.25,-418.84 1405.25,-347 1405.25,-347 1405.25,-347 1405.25,-121 1405.25,-74.22 1269.94,-39.68 1185.79,-22.73"/>
<polygon fill="#63b8ff" stroke="#63b8ff" points="1186.5,-19.3 1176.01,-20.79 1185.14,-26.17 1186.5,-19.3"/>
</a>
</g>
</g>
<!-- Node10 -->
<g id="Node000010" class="node">
<title>Node10</title>
<g id="a_Node000010"><a xlink:href="../../da/d16/SDL__error_8h.html" target="_top" xlink:title=" ">
<polygon fill="white" stroke="#666666" points="617.38,-132 521.12,-132 521.12,-112 617.38,-112 617.38,-132"/>
<text xml:space="preserve" text-anchor="middle" x="569.25" y="-118.5" font-family="Helvetica,sans-Serif" font-size="10.00">SDL3/SDL_error.h</text>
</a>
</g>
</g>
<!-- Node1&#45;&gt;Node10 -->
<g id="edge9_Node000001_Node000010" class="edge">
<title>Node1&#45;&gt;Node10</title>
<g id="a_edge9_Node000001_Node000010"><a xlink:title=" ">
<path fill="none" stroke="#63b8ff" d="M585.13,-447.74C579.54,-425.69 570.25,-383.53 570.25,-347 570.25,-347 570.25,-347 570.25,-289 570.25,-232.76 626.57,-220.81 607.25,-168 603.46,-157.65 596.13,-148.03 588.9,-140.37"/>
<polygon fill="#63b8ff" stroke="#63b8ff" points="591.37,-137.89 581.77,-133.41 586.48,-142.9 591.37,-137.89"/>
</a>
</g>
</g>
<!-- Node11 -->
<g id="Node000011" class="node">
<title>Node11</title>
<g id="a_Node000011"><a xlink:href="../../d6/d9d/SDL__keyboard_8h.html" target="_top" xlink:title=" ">
<polygon fill="white" stroke="#666666" points="415.5,-412 299,-412 299,-392 415.5,-392 415.5,-412"/>
<text xml:space="preserve" text-anchor="middle" x="357.25" y="-398.5" font-family="Helvetica,sans-Serif" font-size="10.00">SDL3/SDL_keyboard.h</text>
</a>
</g>
</g>
<!-- Node1&#45;&gt;Node11 -->
<g id="edge13_Node000001_Node000011" class="edge">
<title>Node1&#45;&gt;Node11</title>
<g id="a_edge13_Node000001_Node000011"><a xlink:title=" ">
<path fill="none" stroke="#63b8ff" d="M529.5,-447.55C490.69,-437.51 440.79,-424.61 404.7,-415.27"/>
<polygon fill="#63b8ff" stroke="#63b8ff" points="405.99,-411.99 395.43,-412.88 404.24,-418.77 405.99,-411.99"/>
</a>
</g>
</g>
<!-- Node16 -->
<g id="Node000016" class="node">
<title>Node16</title>
<g id="a_Node000016"><a xlink:href="../../d3/d91/SDL__video_8h.html" target="_top" xlink:title=" ">
<polygon fill="white" stroke="#666666" points="760.25,-356 660.25,-356 660.25,-336 760.25,-336 760.25,-356"/>
<text xml:space="preserve" text-anchor="middle" x="710.25" y="-342.5" font-family="Helvetica,sans-Serif" font-size="10.00">SDL3/SDL_video.h</text>
</a>
</g>
</g>
<!-- Node1&#45;&gt;Node16 -->
<g id="edge67_Node000001_Node000016" class="edge">
<title>Node1&#45;&gt;Node16</title>
<g id="a_edge67_Node000001_Node000016"><a xlink:title=" ">
<path fill="none" stroke="#63b8ff" d="M605.07,-447.84C627.56,-426.27 668.68,-386.86 692.29,-364.22"/>
<polygon fill="#63b8ff" stroke="#63b8ff" points="694.52,-366.93 699.31,-357.48 689.67,-361.88 694.52,-366.93"/>
</a>
</g>
</g>
<!-- Node3 -->
<g id="Node000003" class="node">
<title>Node3</title>
<g id="a_Node000003"><a xlink:href="../../d3/d8b/SDL__platform__defines_8h.html" target="_top" xlink:title=" ">
<polygon fill="white" stroke="#666666" points="217.62,-20 68.88,-20 68.88,0 217.62,0 217.62,-20"/>
<text xml:space="preserve" text-anchor="middle" x="143.25" y="-6.5" font-family="Helvetica,sans-Serif" font-size="10.00">SDL3/SDL_platform_defines.h</text>
</a>
</g>
</g>
<!-- Node2&#45;&gt;Node3 -->
<g id="edge2_Node000002_Node000003" class="edge">
<title>Node2&#45;&gt;Node3</title>
<g id="a_edge2_Node000002_Node000003"><a xlink:title=" ">
<path fill="none" stroke="#63b8ff" d="M240.7,-55.59C222.37,-47.21 195.26,-34.8 174.29,-25.21"/>
<polygon fill="#63b8ff" stroke="#63b8ff" points="175.89,-22.09 165.34,-21.11 172.98,-28.45 175.89,-22.09"/>
</a>
</g>
</g>
<!-- Node4 -->
<g id="Node000004" class="node">
<title>Node4</title>
<g id="a_Node000004"><a xlink:title=" ">
<polygon fill="#e0e0e0" stroke="#999999" points="286.88,-20 235.62,-20 235.62,0 286.88,0 286.88,-20"/>
<text xml:space="preserve" text-anchor="middle" x="261.25" y="-6.5" font-family="Helvetica,sans-Serif" font-size="10.00">stdarg.h</text>
</a>
</g>
</g>
<!-- Node2&#45;&gt;Node4 -->
<g id="edge3_Node000002_Node000004" class="edge">
<title>Node2&#45;&gt;Node4</title>
<g id="a_edge3_Node000002_Node000004"><a xlink:title=" ">
<path fill="none" stroke="#63b8ff" d="M261.25,-55.59C261.25,-49.01 261.25,-39.96 261.25,-31.73"/>
<polygon fill="#63b8ff" stroke="#63b8ff" points="264.75,-31.81 261.25,-21.81 257.75,-31.81 264.75,-31.81"/>
</a>
</g>
</g>
<!-- Node5 -->
<g id="Node000005" class="node">
<title>Node5</title>
<g id="a_Node000005"><a xlink:title=" ">
<polygon fill="#e0e0e0" stroke="#999999" points="353.38,-20 305.12,-20 305.12,0 353.38,0 353.38,-20"/>
<text xml:space="preserve" text-anchor="middle" x="329.25" y="-6.5" font-family="Helvetica,sans-Serif" font-size="10.00">stdint.h</text>
</a>
</g>
</g>
<!-- Node2&#45;&gt;Node5 -->
<g id="edge4_Node000002_Node000005" class="edge">
<title>Node2&#45;&gt;Node5</title>
<g id="a_edge4_Node000002_Node000005"><a xlink:title=" ">
<path fill="none" stroke="#63b8ff" d="M273.09,-55.59C282.94,-47.77 297.18,-36.46 308.86,-27.19"/>
<polygon fill="#63b8ff" stroke="#63b8ff" points="310.7,-30.2 316.36,-21.24 306.35,-24.72 310.7,-30.2"/>
</a>
</g>
</g>
<!-- Node6 -->
<g id="Node000006" class="node">
<title>Node6</title>
<g id="a_Node000006"><a xlink:title=" ">
<polygon fill="#e0e0e0" stroke="#999999" points="419.38,-20 371.12,-20 371.12,0 419.38,0 419.38,-20"/>
<text xml:space="preserve" text-anchor="middle" x="395.25" y="-6.5" font-family="Helvetica,sans-Serif" font-size="10.00">string.h</text>
</a>
</g>
</g>
<!-- Node2&#45;&gt;Node6 -->
<g id="edge5_Node000002_Node000006" class="edge">
<title>Node2&#45;&gt;Node6</title>
<g id="a_edge5_Node000002_Node000006"><a xlink:title=" ">
<path fill="none" stroke="#63b8ff" d="M284.59,-55.59C305.79,-47.05 337.32,-34.35 361.3,-24.68"/>
<polygon fill="#63b8ff" stroke="#63b8ff" points="362.36,-28.03 370.32,-21.05 359.74,-21.54 362.36,-28.03"/>
</a>
</g>
</g>
<!-- Node7 -->
<g id="Node000007" class="node">
<title>Node7</title>
<g id="a_Node000007"><a xlink:title=" ">
<polygon fill="#e0e0e0" stroke="#999999" points="50.5,-20 0,-20 0,0 50.5,0 50.5,-20"/>
<text xml:space="preserve" text-anchor="middle" x="25.25" y="-6.5" font-family="Helvetica,sans-Serif" font-size="10.00">wchar.h</text>
</a>
</g>
</g>
<!-- Node2&#45;&gt;Node7 -->
<g id="edge6_Node000002_Node000007" class="edge">
<title>Node2&#45;&gt;Node7</title>
<g id="a_edge6_Node000002_Node000007"><a xlink:title=" ">
<path fill="none" stroke="#63b8ff" d="M217.24,-55.56C178.85,-47.24 121.37,-34.55 61.95,-20.35"/>
<polygon fill="#63b8ff" stroke="#63b8ff" points="62.85,-16.97 52.31,-18.03 61.22,-23.77 62.85,-16.97"/>
</a>
</g>
</g>
<!-- Node2&#45;&gt;Node8 -->
<g id="edge7_Node000002_Node000008" class="edge">
<title>Node2&#45;&gt;Node8</title>
<g id="a_edge7_Node000002_Node000008"><a xlink:title=" ">
<path fill="none" stroke="#63b8ff" d="M313.12,-57.85C317.9,-57.21 322.66,-56.59 327.25,-56 431.34,-42.66 551.83,-28.41 627.55,-19.61"/>
<polygon fill="#63b8ff" stroke="#63b8ff" points="627.81,-23.1 637.34,-18.47 627.01,-16.15 627.81,-23.1"/>
</a>
</g>
</g>
<!-- Node2&#45;&gt;Node9 -->
<g id="edge8_Node000002_Node000009" class="edge">
<title>Node2&#45;&gt;Node9</title>
<g id="a_edge8_Node000002_Node000009"><a xlink:title=" ">
<path fill="none" stroke="#63b8ff" d="M313.05,-61.74C459.05,-52.57 874.36,-26.46 1045.32,-15.71"/>
<polygon fill="#63b8ff" stroke="#63b8ff" points="1045.44,-19.21 1055.2,-15.09 1045,-12.22 1045.44,-19.21"/>
</a>
</g>
</g>
<!-- Node10&#45;&gt;Node2 -->
<g id="edge10_Node000010_Node000002" class="edge">
<title>Node10&#45;&gt;Node2</title>
<g id="a_edge10_Node000010_Node000002"><a xlink:title=" ">
<path fill="none" stroke="#63b8ff" d="M520.79,-112.5C467.74,-103.2 382.51,-88.26 324.29,-78.05"/>
<polygon fill="#63b8ff" stroke="#63b8ff" points="324.97,-74.62 314.52,-76.34 323.76,-81.51 324.97,-74.62"/>
</a>
</g>
</g>
<!-- Node10&#45;&gt;Node8 -->
<g id="edge11_Node000010_Node000008" class="edge">
<title>Node10&#45;&gt;Node8</title>
<g id="a_edge11_Node000010_Node000008"><a xlink:title=" ">
<path fill="none" stroke="#63b8ff" d="M580.59,-111.62C603.16,-92.95 653.99,-50.92 682.28,-27.52"/>
<polygon fill="#63b8ff" stroke="#63b8ff" points="684.3,-30.39 689.77,-21.32 679.84,-25 684.3,-30.39"/>
</a>
</g>
</g>
<!-- Node10&#45;&gt;Node9 -->
<g id="edge12_Node000010_Node000009" class="edge">
<title>Node10&#45;&gt;Node9</title>
<g id="a_edge12_Node000010_Node000009"><a xlink:title=" ">
<path fill="none" stroke="#63b8ff" d="M616.7,-111.53C717.3,-91.44 951.72,-44.64 1061.54,-22.72"/>
<polygon fill="#63b8ff" stroke="#63b8ff" points="1062.11,-26.18 1071.23,-20.79 1060.74,-19.31 1062.11,-26.18"/>
</a>
</g>
</g>
<!-- Node11&#45;&gt;Node2 -->
<g id="edge14_Node000011_Node000002" class="edge">
<title>Node11&#45;&gt;Node2</title>
<g id="a_edge14_Node000011_Node000002"><a xlink:title=" ">
<path fill="none" stroke="#63b8ff" d="M298.5,-397.86C230.13,-393.07 122.69,-381.61 92.25,-356 68.8,-336.27 69.25,-321.64 69.25,-291 69.25,-291 69.25,-291 69.25,-177 69.25,-116.31 142.36,-88.64 198.35,-76.34"/>
<polygon fill="#63b8ff" stroke="#63b8ff" points="198.72,-79.84 207.81,-74.39 197.31,-72.98 198.72,-79.84"/>
</a>
</g>
</g>
<!-- Node11&#45;&gt;Node8 -->
<g id="edge65_Node000011_Node000008" class="edge">
<title>Node11&#45;&gt;Node8</title>
<g id="a_edge65_Node000011_Node000008"><a xlink:title=" ">
<path fill="none" stroke="#63b8ff" d="M351.85,-391.83C333.33,-359.07 275.87,-245.64 319.25,-168 380.07,-59.15 534.39,-25.73 627.53,-15.49"/>
<polygon fill="#63b8ff" stroke="#63b8ff" points="627.76,-18.99 637.35,-14.48 627.04,-12.02 627.76,-18.99"/>
</a>
</g>
</g>
<!-- Node11&#45;&gt;Node9 -->
<g id="edge66_Node000011_Node000009" class="edge">
<title>Node11&#45;&gt;Node9</title>
<g id="a_edge66_Node000011_Node000009"><a xlink:title=" ">
<path fill="none" stroke="#63b8ff" d="M415.86,-400.56C626.01,-398.21 1329.25,-383.45 1329.25,-291 1329.25,-291 1329.25,-291 1329.25,-233 1329.25,-145.15 1314.52,-104.47 1241.25,-56 1219.56,-41.65 1192.68,-31.07 1169.77,-23.78"/>
<polygon fill="#63b8ff" stroke="#63b8ff" points="1170.91,-20.47 1160.33,-20.91 1168.88,-27.17 1170.91,-20.47"/>
</a>
</g>
</g>
<!-- Node11&#45;&gt;Node10 -->
<g id="edge15_Node000011_Node000010" class="edge">
<title>Node11&#45;&gt;Node10</title>
<g id="a_edge15_Node000011_Node000010"><a xlink:title=" ">
<path fill="none" stroke="#63b8ff" d="M375.59,-391.59C389.02,-383.79 406.69,-371.49 417.25,-356 466.1,-284.38 412.81,-233.81 469.25,-168 481.87,-153.28 500.28,-143.15 517.88,-136.29"/>
<polygon fill="#63b8ff" stroke="#63b8ff" points="519.01,-139.6 527.24,-132.93 516.65,-133.01 519.01,-139.6"/>
</a>
</g>
</g>
<!-- Node12 -->
<g id="Node000012" class="node">
<title>Node12</title>
<g id="a_Node000012"><a xlink:href="../../d5/d7c/SDL__keycode_8h.html" target="_top" xlink:title=" ">
<polygon fill="white" stroke="#666666" points="215,-356 101.5,-356 101.5,-336 215,-336 215,-356"/>
<text xml:space="preserve" text-anchor="middle" x="158.25" y="-342.5" font-family="Helvetica,sans-Serif" font-size="10.00">SDL3/SDL_keycode.h</text>
</a>
</g>
</g>
<!-- Node11&#45;&gt;Node12 -->
<g id="edge16_Node000011_Node000012" class="edge">
<title>Node11&#45;&gt;Node12</title>
<g id="a_edge16_Node000011_Node000012"><a xlink:title=" ">
<path fill="none" stroke="#63b8ff" d="M322.59,-391.59C289.69,-382.67 240.04,-369.19 203.92,-359.39"/>
<polygon fill="#63b8ff" stroke="#63b8ff" points="205.21,-356.12 194.64,-356.88 203.38,-362.87 205.21,-356.12"/>
</a>
</g>
</g>
<!-- Node13 -->
<g id="Node000013" class="node">
<title>Node13</title>
<g id="a_Node000013"><a xlink:href="../../dd/df7/SDL__scancode_8h.html" target="_top" xlink:title=" ">
<polygon fill="white" stroke="#666666" points="253.62,-300 134.88,-300 134.88,-280 253.62,-280 253.62,-300"/>
<text xml:space="preserve" text-anchor="middle" x="194.25" y="-286.5" font-family="Helvetica,sans-Serif" font-size="10.00">SDL3/SDL_scancode.h</text>
</a>
</g>
</g>
<!-- Node11&#45;&gt;Node13 -->
<g id="edge30_Node000011_Node000013" class="edge">
<title>Node11&#45;&gt;Node13</title>
<g id="a_edge30_Node000011_Node000013"><a xlink:title=" ">
<path fill="none" stroke="#63b8ff" d="M334.52,-391.64C315.75,-383.45 288.8,-370.6 267.25,-356 246.31,-341.81 225.01,-322.11 210.86,-308.12"/>
<polygon fill="#63b8ff" stroke="#63b8ff" points="213.64,-305.96 204.11,-301.33 208.68,-310.89 213.64,-305.96"/>
</a>
</g>
</g>
<!-- Node14 -->
<g id="Node000014" class="node">
<title>Node14</title>
<g id="a_Node000014"><a xlink:href="../../d6/d40/SDL__properties_8h.html" target="_top" xlink:title=" ">
<polygon fill="white" stroke="#666666" points="598,-188 478.5,-188 478.5,-168 598,-168 598,-188"/>
<text xml:space="preserve" text-anchor="middle" x="538.25" y="-174.5" font-family="Helvetica,sans-Serif" font-size="10.00">SDL3/SDL_properties.h</text>
</a>
</g>
</g>
<!-- Node11&#45;&gt;Node14 -->
<g id="edge20_Node000011_Node000014" class="edge">
<title>Node11&#45;&gt;Node14</title>
<g id="a_edge20_Node000011_Node000014"><a xlink:title=" ">
<path fill="none" stroke="#63b8ff" d="M364.8,-391.74C392.22,-358.11 486.92,-241.96 523.59,-196.99"/>
<polygon fill="#63b8ff" stroke="#63b8ff" points="526.11,-199.43 529.71,-189.47 520.68,-195.01 526.11,-199.43"/>
</a>
</g>
</g>
<!-- Node15 -->
<g id="Node000015" class="node">
<title>Node15</title>
<g id="a_Node000015"><a xlink:href="../../d0/d18/SDL__rect_8h.html" target="_top" xlink:title=" ">
<polygon fill="white" stroke="#666666" points="421.88,-188 328.62,-188 328.62,-168 421.88,-168 421.88,-188"/>
<text xml:space="preserve" text-anchor="middle" x="375.25" y="-174.5" font-family="Helvetica,sans-Serif" font-size="10.00">SDL3/SDL_rect.h</text>
</a>
</g>
</g>
<!-- Node11&#45;&gt;Node15 -->
<g id="edge25_Node000011_Node000015" class="edge">
<title>Node11&#45;&gt;Node15</title>
<g id="a_edge25_Node000011_Node000015"><a xlink:title=" ">
<path fill="none" stroke="#63b8ff" d="M357.24,-391.75C357.33,-365.4 358.29,-287.81 366.25,-224 367.26,-215.9 368.9,-207.08 370.51,-199.4"/>
<polygon fill="#63b8ff" stroke="#63b8ff" points="373.91,-200.24 372.66,-189.72 367.08,-198.72 373.91,-200.24"/>
</a>
</g>
</g>
<!-- Node11&#45;&gt;Node16 -->
<g id="edge31_Node000011_Node000016" class="edge">
<title>Node11&#45;&gt;Node16</title>
<g id="a_edge31_Node000011_Node000016"><a xlink:title=" ">
<path fill="none" stroke="#63b8ff" d="M415.94,-392.02C480.3,-382.18 583.12,-366.45 648.63,-356.43"/>
<polygon fill="#63b8ff" stroke="#63b8ff" points="649.15,-359.89 658.51,-354.92 648.09,-352.97 649.15,-359.89"/>
</a>
</g>
</g>
<!-- Node12&#45;&gt;Node2 -->
<g id="edge17_Node000012_Node000002" class="edge">
<title>Node12&#45;&gt;Node2</title>
<g id="a_edge17_Node000012_Node000002"><a xlink:title=" ">
<path fill="none" stroke="#63b8ff" d="M150.12,-335.59C142.96,-326.87 132.69,-313.29 126.25,-300 113.12,-272.92 107.25,-265.1 107.25,-235 107.25,-235 107.25,-235 107.25,-177 107.25,-124.64 166.93,-94.84 211.98,-79.81"/>
<polygon fill="#63b8ff" stroke="#63b8ff" points="212.87,-83.2 221.34,-76.84 210.75,-76.52 212.87,-83.2"/>
</a>
</g>
</g>
<!-- Node12&#45;&gt;Node13 -->
<g id="edge18_Node000012_Node000013" class="edge">
<title>Node12&#45;&gt;Node13</title>
<g id="a_edge18_Node000012_Node000013"><a xlink:title=" ">
<path fill="none" stroke="#63b8ff" d="M164.52,-335.59C169.27,-328.47 175.95,-318.45 181.77,-309.72"/>
<polygon fill="#63b8ff" stroke="#63b8ff" points="184.58,-311.82 187.21,-301.56 178.75,-307.94 184.58,-311.82"/>
</a>
</g>
</g>
<!-- Node13&#45;&gt;Node2 -->
<g id="edge19_Node000013_Node000002" class="edge">
<title>Node13&#45;&gt;Node2</title>
<g id="a_edge19_Node000013_Node000002"><a xlink:title=" ">
<path fill="none" stroke="#63b8ff" d="M192.78,-279.51C188.96,-251.88 180.96,-169.8 210.25,-112 216.15,-100.35 226.48,-90.36 236.31,-82.78"/>
<polygon fill="#63b8ff" stroke="#63b8ff" points="238.08,-85.81 244.18,-77.15 234.01,-80.12 238.08,-85.81"/>
</a>
</g>
</g>
<!-- Node14&#45;&gt;Node2 -->
<g id="edge21_Node000014_Node000002" class="edge">
<title>Node14&#45;&gt;Node2</title>
<g id="a_edge21_Node000014_Node000002"><a xlink:title=" ">
<path fill="none" stroke="#63b8ff" d="M514.63,-167.62C465.57,-148.14 352.45,-103.22 295.43,-80.57"/>
<polygon fill="#63b8ff" stroke="#63b8ff" points="296.8,-77.35 286.21,-76.91 294.22,-83.86 296.8,-77.35"/>
</a>
</g>
</g>
<!-- Node14&#45;&gt;Node8 -->
<g id="edge23_Node000014_Node000008" class="edge">
<title>Node14&#45;&gt;Node8</title>
<g id="a_edge23_Node000014_Node000008"><a xlink:title=" ">
<path fill="none" stroke="#63b8ff" d="M529.38,-167.74C518.03,-154.72 501.11,-130.54 512.25,-112 541.4,-63.49 602.6,-37.02 647.7,-23.5"/>
<polygon fill="#63b8ff" stroke="#63b8ff" points="648.39,-26.94 657.04,-20.83 646.47,-20.21 648.39,-26.94"/>
</a>
</g>
</g>
<!-- Node14&#45;&gt;Node9 -->
<g id="edge24_Node000014_Node000009" class="edge">
<title>Node14&#45;&gt;Node9</title>
<g id="a_edge24_Node000014_Node000009"><a xlink:title=" ">
<path fill="none" stroke="#63b8ff" d="M598.01,-175.62C730.46,-172.06 1039.96,-160.72 1077.25,-132 1108.51,-107.92 1117.1,-59.31 1119.42,-31.59"/>
<polygon fill="#63b8ff" stroke="#63b8ff" points="1122.91,-31.88 1120.03,-21.68 1115.92,-31.45 1122.91,-31.88"/>
</a>
</g>
</g>
<!-- Node14&#45;&gt;Node10 -->
<g id="edge22_Node000014_Node000010" class="edge">
<title>Node14&#45;&gt;Node10</title>
<g id="a_edge22_Node000014_Node000010"><a xlink:title=" ">
<path fill="none" stroke="#63b8ff" d="M543.65,-167.59C547.69,-160.55 553.37,-150.67 558.34,-142"/>
<polygon fill="#63b8ff" stroke="#63b8ff" points="561.22,-144.03 563.16,-133.61 555.14,-140.54 561.22,-144.03"/>
</a>
</g>
</g>
<!-- Node15&#45;&gt;Node2 -->
<g id="edge26_Node000015_Node000002" class="edge">
<title>Node15&#45;&gt;Node2</title>
<g id="a_edge26_Node000015_Node000002"><a xlink:title=" ">
<path fill="none" stroke="#63b8ff" d="M365.53,-167.62C346.35,-149.11 303.37,-107.65 279,-84.13"/>
<polygon fill="#63b8ff" stroke="#63b8ff" points="281.66,-81.83 272.03,-77.41 276.8,-86.87 281.66,-81.83"/>
</a>
</g>
</g>
<!-- Node15&#45;&gt;Node8 -->
<g id="edge28_Node000015_Node000008" class="edge">
<title>Node15&#45;&gt;Node8</title>
<g id="a_edge28_Node000015_Node000008"><a xlink:title=" ">
<path fill="none" stroke="#63b8ff" d="M385.2,-167.64C409.64,-145.12 475.38,-87.49 540.25,-56 571.36,-40.9 608.36,-30.14 639.14,-22.94"/>
<polygon fill="#63b8ff" stroke="#63b8ff" points="639.72,-26.4 648.71,-20.78 638.18,-19.57 639.72,-26.4"/>
</a>
</g>
</g>
<!-- Node15&#45;&gt;Node9 -->
<g id="edge29_Node000015_Node000009" class="edge">
<title>Node15&#45;&gt;Node9</title>
<g id="a_edge29_Node000015_Node000009"><a xlink:title=" ">
<path fill="none" stroke="#63b8ff" d="M422.08,-172.21C437.13,-170.75 453.89,-169.22 469.25,-168 533.06,-162.95 989.22,-164.71 1044.25,-132 1082.33,-109.37 1104.26,-59.43 1114.05,-31.3"/>
<polygon fill="#63b8ff" stroke="#63b8ff" points="1117.36,-32.43 1117.14,-21.84 1110.71,-30.26 1117.36,-32.43"/>
</a>
</g>
</g>
<!-- Node15&#45;&gt;Node10 -->
<g id="edge27_Node000015_Node000010" class="edge">
<title>Node15&#45;&gt;Node10</title>
<g id="a_edge27_Node000015_Node000010"><a xlink:title=" ">
<path fill="none" stroke="#63b8ff" d="M409.04,-167.59C440.98,-158.71 489.1,-145.31 524.27,-135.52"/>
<polygon fill="#63b8ff" stroke="#63b8ff" points="525.04,-138.94 533.74,-132.89 523.16,-132.2 525.04,-138.94"/>
</a>
</g>
</g>
<!-- Node16&#45;&gt;Node2 -->
<g id="edge32_Node000016_Node000002" class="edge">
<title>Node16&#45;&gt;Node2</title>
<g id="a_edge32_Node000016_Node000002"><a xlink:title=" ">
<path fill="none" stroke="#63b8ff" d="M659.93,-339.96C573.45,-328.63 396.38,-293.26 297.25,-188 271.04,-160.17 263.83,-114.08 261.9,-87.54"/>
<polygon fill="#63b8ff" stroke="#63b8ff" points="265.41,-87.56 261.4,-77.76 258.42,-87.93 265.41,-87.56"/>
</a>
</g>
</g>
<!-- Node16&#45;&gt;Node8 -->
<g id="edge63_Node000016_Node000008" class="edge">
<title>Node16&#45;&gt;Node8</title>
<g id="a_edge63_Node000016_Node000008"><a xlink:title=" ">
<path fill="none" stroke="#63b8ff" d="M760.36,-345.4C894.79,-345.13 1253.25,-335.03 1253.25,-235 1253.25,-235 1253.25,-235 1253.25,-121 1253.25,-25.04 927.79,-11.61 777.14,-10.53"/>
<polygon fill="#63b8ff" stroke="#63b8ff" points="777.26,-7.03 767.24,-10.48 777.22,-14.03 777.26,-7.03"/>
</a>
</g>
</g>
<!-- Node16&#45;&gt;Node9 -->
<g id="edge64_Node000016_Node000009" class="edge">
<title>Node16&#45;&gt;Node9</title>
<g id="a_edge64_Node000016_Node000009"><a xlink:title=" ">
<path fill="none" stroke="#63b8ff" d="M760.53,-344.38C871.53,-342.4 1134.12,-334.13 1215.25,-300 1256.22,-282.77 1291.25,-279.45 1291.25,-235 1291.25,-235 1291.25,-235 1291.25,-177 1291.25,-113.26 1265.77,-93.54 1214.25,-56 1196.73,-43.23 1175.02,-32.56 1156.88,-24.82"/>
<polygon fill="#63b8ff" stroke="#63b8ff" points="1158.37,-21.65 1147.79,-21.07 1155.7,-28.12 1158.37,-21.65"/>
</a>
</g>
</g>
<!-- Node16&#45;&gt;Node10 -->
<g id="edge33_Node000016_Node000010" class="edge">
<title>Node16&#45;&gt;Node10</title>
<g id="a_edge33_Node000016_Node000010"><a xlink:title=" ">
<path fill="none" stroke="#63b8ff" d="M760.66,-335.99C781.2,-329.57 802.97,-318.63 815.25,-300 820.14,-292.58 817.96,-288.46 815.25,-280 796.01,-219.98 781.17,-202.24 728.25,-168 711.04,-156.87 663.5,-144.14 624.86,-135.07"/>
<polygon fill="#63b8ff" stroke="#63b8ff" points="625.72,-131.68 615.19,-132.84 624.14,-138.5 625.72,-131.68"/>
</a>
</g>
</g>
<!-- Node16&#45;&gt;Node14 -->
<g id="edge43_Node000016_Node000014" class="edge">
<title>Node16&#45;&gt;Node14</title>
<g id="a_edge43_Node000016_Node000014"><a xlink:title=" ">
<path fill="none" stroke="#63b8ff" d="M697.94,-335.6C675.79,-318.45 628.21,-280.49 592.25,-244 577.5,-229.03 562.35,-210.47 551.87,-197.01"/>
<polygon fill="#63b8ff" stroke="#63b8ff" points="554.92,-195.24 546.05,-189.45 549.37,-199.51 554.92,-195.24"/>
</a>
</g>
</g>
<!-- Node16&#45;&gt;Node15 -->
<g id="edge44_Node000016_Node000015" class="edge">
<title>Node16&#45;&gt;Node15</title>
<g id="a_edge44_Node000016_Node000015"><a xlink:title=" ">
<path fill="none" stroke="#63b8ff" d="M691.28,-335.6C635.42,-307.92 471.3,-226.6 404.27,-193.38"/>
<polygon fill="#63b8ff" stroke="#63b8ff" points="405.88,-190.27 395.37,-188.97 402.78,-196.55 405.88,-190.27"/>
</a>
</g>
</g>
<!-- Node17 -->
<g id="Node000017" class="node">
<title>Node17</title>
<g id="a_Node000017"><a xlink:href="../../d9/d3f/SDL__pixels_8h.html" target="_top" xlink:title=" ">
<polygon fill="white" stroke="#666666" points="1022.38,-188 920.12,-188 920.12,-168 1022.38,-168 1022.38,-188"/>
<text xml:space="preserve" text-anchor="middle" x="971.25" y="-174.5" font-family="Helvetica,sans-Serif" font-size="10.00">SDL3/SDL_pixels.h</text>
</a>
</g>
</g>
<!-- Node16&#45;&gt;Node17 -->
<g id="edge34_Node000016_Node000017" class="edge">
<title>Node16&#45;&gt;Node17</title>
<g id="a_edge34_Node000016_Node000017"><a xlink:title=" ">
<path fill="none" stroke="#63b8ff" d="M760.42,-336.51C792.58,-329.7 834.48,-318.2 868.25,-300 901.82,-281.91 908.85,-273.3 933.25,-244 944.88,-230.03 955.09,-212.06 961.99,-198.55"/>
<polygon fill="#63b8ff" stroke="#63b8ff" points="965.02,-200.32 966.29,-189.8 958.74,-197.23 965.02,-200.32"/>
</a>
</g>
</g>
<!-- Node19 -->
<g id="Node000019" class="node">
<title>Node19</title>
<g id="a_Node000019"><a xlink:href="../../db/dac/SDL__surface_8h.html" target="_top" xlink:title=" ">
<polygon fill="white" stroke="#666666" points="805.75,-300 696.75,-300 696.75,-280 805.75,-280 805.75,-300"/>
<text xml:space="preserve" text-anchor="middle" x="751.25" y="-286.5" font-family="Helvetica,sans-Serif" font-size="10.00">SDL3/SDL_surface.h</text>
</a>
</g>
</g>
<!-- Node16&#45;&gt;Node19 -->
<g id="edge45_Node000016_Node000019" class="edge">
<title>Node16&#45;&gt;Node19</title>
<g id="a_edge45_Node000016_Node000019"><a xlink:title=" ">
<path fill="none" stroke="#63b8ff" d="M717.39,-335.59C722.86,-328.39 730.57,-318.23 737.26,-309.43"/>
<polygon fill="#63b8ff" stroke="#63b8ff" points="740.02,-311.58 743.27,-301.5 734.44,-307.35 740.02,-311.58"/>
</a>
</g>
</g>
<!-- Node17&#45;&gt;Node2 -->
<g id="edge35_Node000017_Node000002" class="edge">
<title>Node17&#45;&gt;Node2</title>
<g id="a_edge35_Node000017_Node000002"><a xlink:title=" ">
<path fill="none" stroke="#63b8ff" d="M923.14,-167.54C842.39,-151.74 682.86,-120.81 626.25,-112 520.7,-95.57 397.23,-81.39 324.33,-73.55"/>
<polygon fill="#63b8ff" stroke="#63b8ff" points="324.89,-70.09 314.58,-72.5 324.15,-77.05 324.89,-70.09"/>
</a>
</g>
</g>
<!-- Node17&#45;&gt;Node8 -->
<g id="edge41_Node000017_Node000008" class="edge">
<title>Node17&#45;&gt;Node8</title>
<g id="a_edge41_Node000017_Node000008"><a xlink:title=" ">
<path fill="none" stroke="#63b8ff" d="M959.48,-167.7C942.74,-154.64 910.9,-130.41 882.25,-112 830.25,-78.59 766.62,-44.36 730.63,-25.57"/>
<polygon fill="#63b8ff" stroke="#63b8ff" points="732.64,-22.68 722.16,-21.17 729.42,-28.89 732.64,-22.68"/>
</a>
</g>
</g>
<!-- Node17&#45;&gt;Node9 -->
<g id="edge42_Node000017_Node000009" class="edge">
<title>Node17&#45;&gt;Node9</title>
<g id="a_edge42_Node000017_Node000009"><a xlink:title=" ">
<path fill="none" stroke="#63b8ff" d="M1022.57,-175.19C1054.57,-171.11 1093.64,-160.15 1115.25,-132 1137.47,-103.05 1131.86,-57.72 1125.94,-31.54"/>
<polygon fill="#63b8ff" stroke="#63b8ff" points="1129.33,-30.69 1123.5,-21.85 1122.54,-32.4 1129.33,-30.69"/>
</a>
</g>
</g>
<!-- Node17&#45;&gt;Node10 -->
<g id="edge36_Node000017_Node000010" class="edge">
<title>Node17&#45;&gt;Node10</title>
<g id="a_edge36_Node000017_Node000010"><a xlink:title=" ">
<path fill="none" stroke="#63b8ff" d="M919.67,-170.38C853.03,-161.78 733.43,-146.18 631.25,-132 630.42,-131.89 629.59,-131.77 628.75,-131.65"/>
<polygon fill="#63b8ff" stroke="#63b8ff" points="629.53,-128.23 619.14,-130.3 628.55,-135.16 629.53,-128.23"/>
</a>
</g>
</g>
<!-- Node18 -->
<g id="Node000018" class="node">
<title>Node18</title>
<g id="a_Node000018"><a xlink:href="../../d6/de1/SDL__endian_8h.html" target="_top" xlink:title=" ">
<polygon fill="white" stroke="#666666" points="1034.88,-132 929.62,-132 929.62,-112 1034.88,-112 1034.88,-132"/>
<text xml:space="preserve" text-anchor="middle" x="982.25" y="-118.5" font-family="Helvetica,sans-Serif" font-size="10.00">SDL3/SDL_endian.h</text>
</a>
</g>
</g>
<!-- Node17&#45;&gt;Node18 -->
<g id="edge37_Node000017_Node000018" class="edge">
<title>Node17&#45;&gt;Node18</title>
<g id="a_edge37_Node000017_Node000018"><a xlink:title=" ">
<path fill="none" stroke="#63b8ff" d="M973.17,-167.59C974.52,-160.93 976.39,-151.75 978.09,-143.44"/>
<polygon fill="#63b8ff" stroke="#63b8ff" points="981.49,-144.28 980.05,-133.78 974.63,-142.88 981.49,-144.28"/>
</a>
</g>
</g>
<!-- Node18&#45;&gt;Node2 -->
<g id="edge38_Node000018_Node000002" class="edge">
<title>Node18&#45;&gt;Node2</title>
<g id="a_edge38_Node000018_Node000002"><a xlink:title=" ">
<path fill="none" stroke="#63b8ff" d="M929.33,-116.06C914.13,-114.69 897.54,-113.24 882.25,-112 678.56,-95.45 437.03,-78.8 324.64,-71.23"/>
<polygon fill="#63b8ff" stroke="#63b8ff" points="324.93,-67.74 314.72,-70.56 324.46,-74.72 324.93,-67.74"/>
</a>
</g>
</g>
<!-- Node18&#45;&gt;Node8 -->
<g id="edge39_Node000018_Node000008" class="edge">
<title>Node18&#45;&gt;Node8</title>
<g id="a_edge39_Node000018_Node000008"><a xlink:title=" ">
<path fill="none" stroke="#63b8ff" d="M971.35,-111.56C954.47,-97.41 920.47,-70.81 887.25,-56 852.24,-40.4 811,-29.69 776.34,-22.66"/>
<polygon fill="#63b8ff" stroke="#63b8ff" points="777.31,-19.28 766.82,-20.79 775.96,-26.15 777.31,-19.28"/>
</a>
</g>
</g>
<!-- Node18&#45;&gt;Node9 -->
<g id="edge40_Node000018_Node000009" class="edge">
<title>Node18&#45;&gt;Node9</title>
<g id="a_edge40_Node000018_Node000009"><a xlink:title=" ">
<path fill="none" stroke="#63b8ff" d="M990.81,-111.55C1003.05,-98.31 1026.6,-73.86 1049.25,-56 1063.13,-45.06 1079.77,-34.39 1093.45,-26.2"/>
<polygon fill="#63b8ff" stroke="#63b8ff" points="1095.09,-29.3 1101.94,-21.21 1091.54,-23.26 1095.09,-29.3"/>
</a>
</g>
</g>
<!-- Node19&#45;&gt;Node2 -->
<g id="edge46_Node000019_Node000002" class="edge">
<title>Node19&#45;&gt;Node2</title>
<g id="a_edge46_Node000019_Node000002"><a xlink:title=" ">
<path fill="none" stroke="#63b8ff" d="M696.4,-282.38C593.41,-268.96 376.34,-235.74 319.25,-188 287.78,-161.68 272.16,-114.31 265.48,-87.31"/>
<polygon fill="#63b8ff" stroke="#63b8ff" points="268.91,-86.63 263.28,-77.65 262.08,-88.18 268.91,-86.63"/>
</a>
</g>
</g>
<!-- Node19&#45;&gt;Node8 -->
<g id="edge61_Node000019_Node000008" class="edge">
<title>Node19&#45;&gt;Node8</title>
<g id="a_edge61_Node000019_Node000008"><a xlink:title=" ">
<path fill="none" stroke="#63b8ff" d="M758.07,-279.56C763.93,-270.83 771.94,-257.23 775.25,-244 777.41,-235.38 776.86,-232.74 775.25,-224 767.34,-180.97 754.59,-173.33 740.25,-132 728.08,-96.93 715.46,-55.56 708.26,-31.41"/>
<polygon fill="#63b8ff" stroke="#63b8ff" points="711.64,-30.52 705.45,-21.93 704.93,-32.51 711.64,-30.52"/>
</a>
</g>
</g>
<!-- Node19&#45;&gt;Node9 -->
<g id="edge62_Node000019_Node000009" class="edge">
<title>Node19&#45;&gt;Node9</title>
<g id="a_edge62_Node000019_Node000009"><a xlink:title=" ">
<path fill="none" stroke="#63b8ff" d="M805.84,-287.49C928.5,-282.61 1215.25,-262.31 1215.25,-179 1215.25,-179 1215.25,-179 1215.25,-121 1215.25,-78.97 1175.04,-45.07 1146.94,-26.51"/>
<polygon fill="#63b8ff" stroke="#63b8ff" points="1148.84,-23.57 1138.51,-21.19 1145.1,-29.49 1148.84,-23.57"/>
</a>
</g>
</g>
<!-- Node19&#45;&gt;Node10 -->
<g id="edge47_Node000019_Node000010" class="edge">
<title>Node19&#45;&gt;Node10</title>
<g id="a_edge47_Node000019_Node000010"><a xlink:title=" ">
<path fill="none" stroke="#63b8ff" d="M755.31,-279.73C760.39,-266.7 767.47,-242.5 759.25,-224 744.17,-190.07 729.17,-186.97 697.25,-168 673.19,-153.7 643.9,-142.98 619.41,-135.6"/>
<polygon fill="#63b8ff" stroke="#63b8ff" points="620.56,-132.29 609.98,-132.86 618.61,-139.01 620.56,-132.29"/>
</a>
</g>
</g>
<!-- Node19&#45;&gt;Node14 -->
<g id="edge53_Node000019_Node000014" class="edge">
<title>Node19&#45;&gt;Node14</title>
<g id="a_edge53_Node000019_Node000014"><a xlink:title=" ">
<path fill="none" stroke="#63b8ff" d="M717.26,-279.52C691.71,-271.72 656.26,-259.45 627.25,-244 601.46,-230.26 574.77,-209.78 557.43,-195.49"/>
<polygon fill="#63b8ff" stroke="#63b8ff" points="559.89,-192.99 549.98,-189.25 555.39,-198.36 559.89,-192.99"/>
</a>
</g>
</g>
<!-- Node19&#45;&gt;Node15 -->
<g id="edge54_Node000019_Node000015" class="edge">
<title>Node19&#45;&gt;Node15</title>
<g id="a_edge54_Node000019_Node000015"><a xlink:title=" ">
<path fill="none" stroke="#63b8ff" d="M717.4,-279.58C685.18,-270.58 635.36,-256.56 592.25,-244 531.12,-226.19 460.51,-204.91 416.87,-191.67"/>
<polygon fill="#63b8ff" stroke="#63b8ff" points="418.14,-188.4 407.56,-188.84 416.11,-195.1 418.14,-188.4"/>
</a>
</g>
</g>
<!-- Node19&#45;&gt;Node17 -->
<g id="edge52_Node000019_Node000017" class="edge">
<title>Node19&#45;&gt;Node17</title>
<g id="a_edge52_Node000019_Node000017"><a xlink:title=" ">
<path fill="none" stroke="#63b8ff" d="M805.96,-280.11C836.93,-273.42 875.5,-262.18 906.25,-244 926.76,-231.87 945.45,-211.78 957.48,-197.14"/>
<polygon fill="#63b8ff" stroke="#63b8ff" points="959.96,-199.65 963.42,-189.63 954.47,-195.3 959.96,-199.65"/>
</a>
</g>
</g>
<!-- Node20 -->
<g id="Node000020" class="node">
<title>Node20</title>
<g id="a_Node000020"><a xlink:href="../../d0/dad/SDL__blendmode_8h.html" target="_top" xlink:title=" ">
<polygon fill="white" stroke="#666666" points="873.25,-132 749.25,-132 749.25,-112 873.25,-112 873.25,-132"/>
<text xml:space="preserve" text-anchor="middle" x="811.25" y="-118.5" font-family="Helvetica,sans-Serif" font-size="10.00">SDL3/SDL_blendmode.h</text>
</a>
</g>
</g>
<!-- Node19&#45;&gt;Node20 -->
<g id="edge48_Node000019_Node000020" class="edge">
<title>Node19&#45;&gt;Node20</title>
<g id="a_edge48_Node000019_Node000020"><a xlink:title=" ">
<path fill="none" stroke="#63b8ff" d="M773.8,-279.56C790.65,-271.74 813.56,-259.43 830.25,-244 852.34,-223.58 859.42,-216.75 868.25,-188 870.86,-179.5 872.13,-176 868.25,-168 862.31,-155.75 851.25,-145.83 840.44,-138.45"/>
<polygon fill="#63b8ff" stroke="#63b8ff" points="842.35,-135.52 832.01,-133.2 838.65,-141.46 842.35,-135.52"/>
</a>
</g>
</g>
<!-- Node21 -->
<g id="Node000021" class="node">
<title>Node21</title>
<g id="a_Node000021"><a xlink:href="../../d8/d35/SDL__iostream_8h.html" target="_top" xlink:title=" ">
<polygon fill="white" stroke="#666666" points="750.38,-244 636.12,-244 636.12,-224 750.38,-224 750.38,-244"/>
<text xml:space="preserve" text-anchor="middle" x="693.25" y="-230.5" font-family="Helvetica,sans-Serif" font-size="10.00">SDL3/SDL_iostream.h</text>
</a>
</g>
</g>
<!-- Node19&#45;&gt;Node21 -->
<g id="edge55_Node000019_Node000021" class="edge">
<title>Node19&#45;&gt;Node21</title>
<g id="a_edge55_Node000019_Node000021"><a xlink:title=" ">
<path fill="none" stroke="#63b8ff" d="M741.15,-279.59C733,-272.01 721.32,-261.13 711.53,-252.02"/>
<polygon fill="#63b8ff" stroke="#63b8ff" points="714.05,-249.58 704.34,-245.33 709.28,-254.71 714.05,-249.58"/>
</a>
</g>
</g>
<!-- Node20&#45;&gt;Node2 -->
<g id="edge49_Node000020_Node000002" class="edge">
<title>Node20&#45;&gt;Node2</title>
<g id="a_edge49_Node000020_Node000002"><a xlink:title=" ">
<path fill="none" stroke="#63b8ff" d="M748.96,-114.88C643.4,-104.52 430.52,-83.62 324.39,-73.2"/>
<polygon fill="#63b8ff" stroke="#63b8ff" points="325.03,-69.74 314.73,-72.25 324.34,-76.71 325.03,-69.74"/>
</a>
</g>
</g>
<!-- Node20&#45;&gt;Node8 -->
<g id="edge50_Node000020_Node000008" class="edge">
<title>Node20&#45;&gt;Node8</title>
<g id="a_edge50_Node000020_Node000008"><a xlink:title=" ">
<path fill="none" stroke="#63b8ff" d="M801.96,-111.62C783.7,-93.19 742.89,-52.01 719.53,-28.44"/>
<polygon fill="#63b8ff" stroke="#63b8ff" points="722.11,-26.07 712.59,-21.43 717.14,-31 722.11,-26.07"/>
</a>
</g>
</g>
<!-- Node20&#45;&gt;Node9 -->
<g id="edge51_Node000020_Node000009" class="edge">
<title>Node20&#45;&gt;Node9</title>
<g id="a_edge51_Node000020_Node000009"><a xlink:title=" ">
<path fill="none" stroke="#63b8ff" d="M846.91,-111.58C877.93,-103.12 923.94,-89.91 963.25,-76 1007.66,-60.28 1057.75,-38.89 1089.15,-25.01"/>
<polygon fill="#63b8ff" stroke="#63b8ff" points="1090.34,-28.31 1098.06,-21.05 1087.5,-21.91 1090.34,-28.31"/>
</a>
</g>
</g>
<!-- Node21&#45;&gt;Node2 -->
<g id="edge56_Node000021_Node000002" class="edge">
<title>Node21&#45;&gt;Node2</title>
<g id="a_edge56_Node000021_Node000002"><a xlink:title=" ">
<path fill="none" stroke="#63b8ff" d="M683.48,-223.68C668.31,-209.69 637.69,-183.29 607.25,-168 554.85,-141.67 393.7,-99.75 311.14,-79.19"/>
<polygon fill="#63b8ff" stroke="#63b8ff" points="312.05,-75.81 301.5,-76.8 310.36,-82.6 312.05,-75.81"/>
</a>
</g>
</g>
<!-- Node21&#45;&gt;Node8 -->
<g id="edge59_Node000021_Node000008" class="edge">
<title>Node21&#45;&gt;Node8</title>
<g id="a_edge59_Node000021_Node000008"><a xlink:title=" ">
<path fill="none" stroke="#63b8ff" d="M694.24,-223.7C695.17,-214.61 696.53,-200.37 697.25,-188 700.56,-131.38 701.7,-64.43 702.07,-31.45"/>
<polygon fill="#63b8ff" stroke="#63b8ff" points="705.57,-31.77 702.17,-21.74 698.57,-31.7 705.57,-31.77"/>
</a>
</g>
</g>
<!-- Node21&#45;&gt;Node9 -->
<g id="edge60_Node000021_Node000009" class="edge">
<title>Node21&#45;&gt;Node9</title>
<g id="a_edge60_Node000021_Node000009"><a xlink:title=" ">
<path fill="none" stroke="#63b8ff" d="M750.87,-231.69C819.3,-228.69 936.13,-219.01 1031.25,-188 1080.79,-171.85 1103.41,-174 1134.25,-132 1154.45,-104.49 1153.81,-89.04 1145.25,-56 1142.88,-46.84 1138.19,-37.56 1133.51,-29.83"/>
<polygon fill="#63b8ff" stroke="#63b8ff" points="1136.58,-28.12 1128.18,-21.66 1130.72,-31.95 1136.58,-28.12"/>
</a>
</g>
</g>
<!-- Node21&#45;&gt;Node10 -->
<g id="edge57_Node000021_Node000010" class="edge">
<title>Node21&#45;&gt;Node10</title>
<g id="a_edge57_Node000021_Node000010"><a xlink:title=" ">
<path fill="none" stroke="#63b8ff" d="M693.63,-223.88C693.71,-210.15 691.88,-184.08 678.25,-168 665.41,-152.85 646.66,-142.73 628.32,-135.99"/>
<polygon fill="#63b8ff" stroke="#63b8ff" points="629.64,-132.74 619.05,-132.88 627.42,-139.38 629.64,-132.74"/>
</a>
</g>
</g>
<!-- Node21&#45;&gt;Node14 -->
<g id="edge58_Node000021_Node000014" class="edge">
<title>Node21&#45;&gt;Node14</title>
<g id="a_edge58_Node000021_Node000014"><a xlink:title=" ">
<path fill="none" stroke="#63b8ff" d="M666.25,-223.59C641.29,-214.9 603.95,-201.89 576.03,-192.16"/>
<polygon fill="#63b8ff" stroke="#63b8ff" points="577.48,-188.96 566.89,-188.98 575.18,-195.57 577.48,-188.96"/>
</a>
</g>
</g>
</g>
</svg>

<g id="navigator" transform="translate(0 0)" fill="#404254">
  <rect fill="#f2f5e9" fill-opacity="0.5" stroke="#606060" stroke-width=".5" x="0" y="0" width="60" height="60"/>
  <use id="zoomplus" xlink:href="#zoomPlus" x="17" y="9" onmousedown="handleZoom(evt,'in')"/>
  <use id="zoomminus" xlink:href="#zoomMin" x="42" y="9" onmousedown="handleZoom(evt,'out')"/>
  <use id="reset" xlink:href="#resetDef" x="30" y="36" onmousedown="handleReset()"/>
   <use id="arrowup" xlink:href="#arrowUp" x="0" y="0" onmousedown="handlePan(0,-1)"/>
  <use id="arrowright" xlink:href="#arrowRight" x="0" y="0" onmousedown="handlePan(1,0)"/>
  <use id="arrowdown" xlink:href="#arrowDown" x="0" y="0" onmousedown="handlePan(0,1)"/>
  <use id="arrowleft" xlink:href="#arrowLeft" x="0" y="0" onmousedown="handlePan(-1,0)"/>
</g>
<svg viewBox="0 0 15 15" width="100%" height="30px" preserveAspectRatio="xMaxYMin meet">
 <g id="arrow_out" transform="scale(0.3 0.3)">
  <a xlink:href="SDL__system_8h__incl_org.svg" target="_base">
   <rect id="button" ry="5" rx="5" y="6" x="6" height="38" width="38"
        fill="#f2f5e9" fill-opacity="0.5" stroke="#606060" stroke-width="1.0"/>
   <path id="arrow"
     d="M 11.500037,31.436501 C 11.940474,20.09759 22.043105,11.32322 32.158766,21.979434 L 37.068811,17.246167 C 37.068811,17.246167 37.088388,32 37.088388,32 L 22.160133,31.978069 C 22.160133,31.978069 26.997745,27.140456 26.997745,27.140456 C 18.528582,18.264221 13.291696,25.230495 11.500037,31.436501 z"
     style="fill:#404040;"/>
  </a>
 </g>
</svg>

<style type='text/css'>
<![CDATA[
[data-mouse-over-selected='false'] { opacity: 0.7; }
[data-mouse-over-selected='true']  { opacity: 1.0; }
]]>
</style>
<script type="application/ecmascript"><![CDATA[
document.addEventListener('DOMContentLoaded', (event) => {
  highlightEdges();
  highlightAdjacentNodes();
});
]]></script>
</svg>
