<?xml version="1.0" encoding="UTF-8" standalone="no"?>
<!DOCTYPE svg PUBLIC "-//W3C//DTD SVG 1.1//EN"
 "http://www.w3.org/Graphics/SVG/1.1/DTD/svg11.dtd">
<!-- Generated by graphviz version 13.1.0 (20250701.0955)
 -->
<!-- Title: SDL_SoftBlit Pages: 1 -->
<svg width="365pt" height="104pt"
 viewBox="0.00 0.00 365.00 104.00" xmlns="http://www.w3.org/2000/svg" xmlns:xlink="http://www.w3.org/1999/xlink">

<svg id="main" version="1.1" xmlns="http://www.w3.org/2000/svg" xmlns:xlink="http://www.w3.org/1999/xlink" xml:space="preserve">

<style type="text/css"><![CDATA[
.node, .edge {opacity: 0.7;}
.node.selected, .edge.selected {opacity: 1;}
.edge:hover path { stroke: red; }
.edge:hover polygon { stroke: red; fill: red; }
]]></style>
<script type="application/ecmascript" xlink:href="../../svg.min.js"/>
<svg id="graph" class="graph">
<g id="graph0" class="graph" transform="scale(1 1) rotate(0) translate(4 100)">
<title>SDL_SoftBlit</title>
<!-- Node1 -->
<g id="Node000001" class="node">
<title>Node1</title>
<g id="a_Node000001"><a xlink:title=" ">
<polygon fill="#999999" stroke="#666666" points="73,-58 0,-58 0,-38 73,-38 73,-58"/>
<text xml:space="preserve" text-anchor="middle" x="36.5" y="-44.5" font-family="Helvetica,sans-Serif" font-size="10.00">SDL_SoftBlit</text>
</a>
</g>
</g>
<!-- Node2 -->
<g id="Node000002" class="node">
<title>Node2</title>
<g id="a_Node000002"><a xlink:href="../../d4/d8e/SDL__surface_8c.html#ab4085eba710c7f5df71d9472c3aa8962" target="_top" xlink:title=" ">
<polygon fill="white" stroke="#666666" points="209.38,-77 113.88,-77 113.88,-57 209.38,-57 209.38,-77"/>
<text xml:space="preserve" text-anchor="middle" x="161.62" y="-63.5" font-family="Helvetica,sans-Serif" font-size="10.00">SDL_LockSurface</text>
</a>
</g>
</g>
<!-- Node1&#45;&gt;Node2 -->
<g id="edge1_Node000001_Node000002" class="edge">
<title>Node1&#45;&gt;Node2</title>
<g id="a_edge1_Node000001_Node000002"><a xlink:title=" ">
<path fill="none" stroke="#63b8ff" d="M73.44,-53.55C82.42,-54.93 92.29,-56.45 102.05,-57.96"/>
<polygon fill="#63b8ff" stroke="#63b8ff" points="101.49,-61.42 111.91,-59.48 102.56,-54.5 101.49,-61.42"/>
</a>
</g>
</g>
<!-- Node5 -->
<g id="Node000005" class="node">
<title>Node5</title>
<g id="a_Node000005"><a xlink:href="../../d4/d8e/SDL__surface_8c.html#a950de3b897f2e5f5e50d81cd95cd7ae8" target="_top" xlink:title=" ">
<polygon fill="white" stroke="#666666" points="214.25,-39 109,-39 109,-19 214.25,-19 214.25,-39"/>
<text xml:space="preserve" text-anchor="middle" x="161.62" y="-25.5" font-family="Helvetica,sans-Serif" font-size="10.00">SDL_UnlockSurface</text>
</a>
</g>
</g>
<!-- Node1&#45;&gt;Node5 -->
<g id="edge4_Node000001_Node000005" class="edge">
<title>Node1&#45;&gt;Node5</title>
<g id="a_edge4_Node000001_Node000005"><a xlink:title=" ">
<path fill="none" stroke="#63b8ff" d="M73.44,-42.45C81.06,-41.28 89.31,-40.01 97.59,-38.73"/>
<polygon fill="#63b8ff" stroke="#63b8ff" points="98.01,-42.2 107.36,-37.22 96.94,-35.29 98.01,-42.2"/>
</a>
</g>
</g>
<!-- Node3 -->
<g id="Node000003" class="node">
<title>Node3</title>
<g id="a_Node000003"><a xlink:href="../../d4/d8e/SDL__surface_8c.html#a4a47e8e6c37116eac3ae2c575b24dd5c" target="_top" xlink:title=" ">
<polygon fill="white" stroke="#666666" points="351.38,-58 255.88,-58 255.88,-38 351.38,-38 351.38,-58"/>
<text xml:space="preserve" text-anchor="middle" x="303.62" y="-44.5" font-family="Helvetica,sans-Serif" font-size="10.00">SDL_SurfaceValid</text>
</a>
</g>
</g>
<!-- Node2&#45;&gt;Node3 -->
<g id="edge2_Node000002_Node000003" class="edge">
<title>Node2&#45;&gt;Node3</title>
<g id="a_edge2_Node000002_Node000003"><a xlink:title=" ">
<path fill="none" stroke="#63b8ff" d="M209.63,-60.62C220.71,-59.12 232.66,-57.5 244.18,-55.93"/>
<polygon fill="#63b8ff" stroke="#63b8ff" points="244.57,-59.41 254,-54.6 243.62,-52.48 244.57,-59.41"/>
</a>
</g>
</g>
<!-- Node4 -->
<g id="Node000004" class="node">
<title>Node4</title>
<g id="a_Node000004"><a xlink:href="../../d2/db9/SDL__RLEaccel__c_8h.html#a4492609cd0db9a4d21196c1486000b6b" target="_top" xlink:title=" ">
<polygon fill="white" stroke="#666666" points="357,-96 250.25,-96 250.25,-76 357,-76 357,-96"/>
<text xml:space="preserve" text-anchor="middle" x="303.62" y="-82.5" font-family="Helvetica,sans-Serif" font-size="10.00">SDL_UnRLESurface</text>
</a>
</g>
</g>
<!-- Node2&#45;&gt;Node4 -->
<g id="edge3_Node000002_Node000004" class="edge">
<title>Node2&#45;&gt;Node4</title>
<g id="a_edge3_Node000002_Node000004"><a xlink:title=" ">
<path fill="none" stroke="#63b8ff" d="M209.63,-73.38C219,-74.65 228.98,-76 238.79,-77.34"/>
<polygon fill="#63b8ff" stroke="#63b8ff" points="238.32,-80.8 248.7,-78.68 239.26,-73.87 238.32,-80.8"/>
</a>
</g>
</g>
<!-- Node5&#45;&gt;Node3 -->
<g id="edge6_Node000005_Node000003" class="edge">
<title>Node5&#45;&gt;Node3</title>
<g id="a_edge6_Node000005_Node000003"><a xlink:title=" ">
<path fill="none" stroke="#63b8ff" d="M214.36,-36.02C224.21,-37.36 234.57,-38.76 244.6,-40.13"/>
<polygon fill="#63b8ff" stroke="#63b8ff" points="243.85,-43.56 254.23,-41.43 244.79,-36.62 243.85,-43.56"/>
</a>
</g>
</g>
<!-- Node6 -->
<g id="Node000006" class="node">
<title>Node6</title>
<g id="a_Node000006"><a xlink:href="../../d2/db9/SDL__RLEaccel__c_8h.html#a0fe1ec38d760a52c8f2000b510f5ccf0" target="_top" xlink:title=" ">
<polygon fill="white" stroke="#666666" points="350.62,-20 256.62,-20 256.62,0 350.62,0 350.62,-20"/>
<text xml:space="preserve" text-anchor="middle" x="303.62" y="-6.5" font-family="Helvetica,sans-Serif" font-size="10.00">SDL_RLESurface</text>
</a>
</g>
</g>
<!-- Node5&#45;&gt;Node6 -->
<g id="edge5_Node000005_Node000006" class="edge">
<title>Node5&#45;&gt;Node6</title>
<g id="a_edge5_Node000005_Node000006"><a xlink:title=" ">
<path fill="none" stroke="#63b8ff" d="M214.36,-21.98C224.32,-20.63 234.81,-19.2 244.94,-17.83"/>
<polygon fill="#63b8ff" stroke="#63b8ff" points="245.25,-21.32 254.69,-16.51 244.31,-14.38 245.25,-21.32"/>
</a>
</g>
</g>
</g>
</svg>
</svg>

<style type='text/css'>
<![CDATA[
[data-mouse-over-selected='false'] { opacity: 0.7; }
[data-mouse-over-selected='true']  { opacity: 1.0; }
]]>
</style>
<script type="application/ecmascript"><![CDATA[
document.addEventListener('DOMContentLoaded', (event) => {
  highlightEdges();
  highlightAdjacentNodes();
});
]]></script>
</svg>
