<?xml version="1.0" encoding="UTF-8" standalone="no"?>
<!DOCTYPE svg PUBLIC "-//W3C//DTD SVG 1.1//EN"
 "http://www.w3.org/Graphics/SVG/1.1/DTD/svg11.dtd">
<!-- Generated by graphviz version 13.1.0 (20250701.0955)
 -->
<!-- Title: SDL_ToggleDragAndDropSupport Pages: 1 -->
<svg width="471pt" height="28pt"
 viewBox="0.00 0.00 471.00 28.00" xmlns="http://www.w3.org/2000/svg" xmlns:xlink="http://www.w3.org/1999/xlink">
<g id="graph0" class="graph" transform="scale(1 1) rotate(0) translate(4 24)">
<title>SDL_ToggleDragAndDropSupport</title>
<!-- Node1 -->
<g id="Node000001" class="node">
<title>Node1</title>
<g id="a_Node000001"><a xlink:title=" ">
<polygon fill="#999999" stroke="#666666" points="162.25,-20 0,-20 0,0 162.25,0 162.25,-20"/>
<text xml:space="preserve" text-anchor="middle" x="81.12" y="-6.5" font-family="Helvetica,sans-Serif" font-size="10.00">SDL_ToggleDragAndDropSupport</text>
</a>
</g>
</g>
<!-- Node2 -->
<g id="Node000002" class="node">
<title>Node2</title>
<g id="a_Node000002"><a xlink:href="../../d6/d3d/SDL__video_8c.html#af9b1c987fa96a92ec8d0624763597798" target="_top" xlink:title=" ">
<polygon fill="white" stroke="#666666" points="325.25,-20 198.25,-20 198.25,0 325.25,0 325.25,-20"/>
<text xml:space="preserve" text-anchor="middle" x="261.75" y="-6.5" font-family="Helvetica,sans-Serif" font-size="10.00">IsAcceptingDragAndDrop</text>
</a>
</g>
</g>
<!-- Node1&#45;&gt;Node2 -->
<g id="edge1_Node000001_Node000002" class="edge">
<title>Node1&#45;&gt;Node2</title>
<g id="a_edge1_Node000001_Node000002"><a xlink:title=" ">
<path fill="none" stroke="#63b8ff" d="M162.55,-10C170.52,-10 178.58,-10 186.47,-10"/>
<polygon fill="#63b8ff" stroke="#63b8ff" points="186.39,-13.5 196.39,-10 186.39,-6.5 186.39,-13.5"/>
</a>
</g>
</g>
<!-- Node3 -->
<g id="Node000003" class="node">
<title>Node3</title>
<g id="a_Node000003"><a xlink:href="../../d4/d07/SDL__events_8c.html#a5f279240f44f2f0d04c50bbd5014c879" target="_top" xlink:title=" ">
<polygon fill="white" stroke="#666666" points="462.75,-20 361.25,-20 361.25,0 462.75,0 462.75,-20"/>
<text xml:space="preserve" text-anchor="middle" x="412" y="-6.5" font-family="Helvetica,sans-Serif" font-size="10.00">SDL_EventEnabled</text>
</a>
</g>
</g>
<!-- Node2&#45;&gt;Node3 -->
<g id="edge2_Node000002_Node000003" class="edge">
<title>Node2&#45;&gt;Node3</title>
<g id="a_edge2_Node000002_Node000003"><a xlink:title=" ">
<path fill="none" stroke="#63b8ff" d="M325.62,-10C333.57,-10 341.71,-10 349.63,-10"/>
<polygon fill="#63b8ff" stroke="#63b8ff" points="349.55,-13.5 359.55,-10 349.55,-6.5 349.55,-13.5"/>
</a>
</g>
</g>
</g>
</svg>
