<?xml version="1.0" encoding="UTF-8" standalone="no"?>
<!DOCTYPE svg PUBLIC "-//W3C//DTD SVG 1.1//EN"
 "http://www.w3.org/Graphics/SVG/1.1/DTD/svg11.dtd">
<!-- Generated by graphviz version 13.1.0 (20250701.0955)
 -->
<!-- Title: GetEventTimestamp Pages: 1 -->
<svg width="421pt" height="28pt"
 viewBox="0.00 0.00 421.00 28.00" xmlns="http://www.w3.org/2000/svg" xmlns:xlink="http://www.w3.org/1999/xlink">
<g id="graph0" class="graph" transform="scale(1 1) rotate(0) translate(4 24)">
<title>GetEventTimestamp</title>
<!-- Node1 -->
<g id="Node000001" class="node">
<title>Node1</title>
<g id="a_Node000001"><a xlink:title=" ">
<polygon fill="#999999" stroke="#666666" points="412.5,-20 306.5,-20 306.5,0 412.5,0 412.5,-20"/>
<text xml:space="preserve" text-anchor="middle" x="359.5" y="-6.5" font-family="Helvetica,sans-Serif" font-size="10.00">GetEventTimestamp</text>
</a>
</g>
</g>
<!-- Node2 -->
<g id="Node000002" class="node">
<title>Node2</title>
<g id="a_Node000002"><a xlink:href="../../d7/da0/SDL__wscons__kbd_8c.html#a700441e2ee60bd7d263d63f160698df3" target="_top" xlink:title=" ">
<polygon fill="white" stroke="#666666" points="270.5,-20 184,-20 184,0 270.5,0 270.5,-20"/>
<text xml:space="preserve" text-anchor="middle" x="227.25" y="-6.5" font-family="Helvetica,sans-Serif" font-size="10.00">updateKeyboard</text>
</a>
</g>
</g>
<!-- Node1&#45;&gt;Node2 -->
<g id="edge1_Node000001_Node000002" class="edge">
<title>Node1&#45;&gt;Node2</title>
<g id="a_edge1_Node000001_Node000002"><a xlink:title=" ">
<path fill="none" stroke="#63b8ff" d="M294.86,-10C286.73,-10 278.57,-10 270.89,-10"/>
<polygon fill="#63b8ff" stroke="#63b8ff" points="294.76,-13.5 304.76,-10 294.76,-6.5 294.76,-13.5"/>
</a>
</g>
</g>
<!-- Node3 -->
<g id="Node000003" class="node">
<title>Node3</title>
<g id="a_Node000003"><a xlink:href="../../d7/da0/SDL__wscons__kbd_8c.html#a8c541b9db4e4dab29285b65e025d386c" target="_top" xlink:title=" ">
<polygon fill="white" stroke="#666666" points="148,-20 0,-20 0,0 148,0 148,-20"/>
<text xml:space="preserve" text-anchor="middle" x="74" y="-6.5" font-family="Helvetica,sans-Serif" font-size="10.00">SDL_WSCONS_PumpEvents</text>
</a>
</g>
</g>
<!-- Node2&#45;&gt;Node3 -->
<g id="edge2_Node000002_Node000003" class="edge">
<title>Node2&#45;&gt;Node3</title>
<g id="a_edge2_Node000002_Node000003"><a xlink:title=" ">
<path fill="none" stroke="#63b8ff" d="M172.27,-10C164.54,-10 156.47,-10 148.43,-10"/>
<polygon fill="#63b8ff" stroke="#63b8ff" points="172.2,-13.5 182.2,-10 172.2,-6.5 172.2,-13.5"/>
</a>
</g>
</g>
</g>
</svg>
