<?xml version="1.0" encoding="UTF-8" standalone="no"?>
<!DOCTYPE svg PUBLIC "-//W3C//DTD SVG 1.1//EN"
 "http://www.w3.org/Graphics/SVG/1.1/DTD/svg11.dtd">
<!-- Generated by graphviz version 13.1.0 (20250701.0955)
 -->
<!-- Title: SDL&#45;main/include/SDL3/SDL_gpu.h Pages: 1 -->
<svg width="1148pt" height="432pt"
 viewBox="0.00 0.00 1148.00 432.00" xmlns="http://www.w3.org/2000/svg" xmlns:xlink="http://www.w3.org/1999/xlink">
<g id="graph0" class="graph" transform="scale(1 1) rotate(0) translate(4 428)">
<title>SDL&#45;main/include/SDL3/SDL_gpu.h</title>
<!-- Node1 -->
<g id="Node000001" class="node">
<title>Node1</title>
<g id="a_Node000001"><a xlink:title=" ">
<polygon fill="#999999" stroke="#666666" points="791.5,-424 670.5,-424 670.5,-392 791.5,-392 791.5,-424"/>
<text xml:space="preserve" text-anchor="start" x="678.5" y="-410.5" font-family="Helvetica,sans-Serif" font-size="10.00">SDL&#45;main/include/SDL3</text>
<text xml:space="preserve" text-anchor="middle" x="731" y="-398.5" font-family="Helvetica,sans-Serif" font-size="10.00">/SDL_gpu.h</text>
</a>
</g>
</g>
<!-- Node2 -->
<g id="Node000002" class="node">
<title>Node2</title>
<g id="a_Node000002"><a xlink:href="../../d2/d5b/SDL__stdinc_8h.html" target="_top" xlink:title=" ">
<polygon fill="white" stroke="#666666" points="645.5,-76 542.5,-76 542.5,-56 645.5,-56 645.5,-76"/>
<text xml:space="preserve" text-anchor="middle" x="594" y="-62.5" font-family="Helvetica,sans-Serif" font-size="10.00">SDL3/SDL_stdinc.h</text>
</a>
</g>
</g>
<!-- Node1&#45;&gt;Node2 -->
<g id="edge1_Node000001_Node000002" class="edge">
<title>Node1&#45;&gt;Node2</title>
<g id="a_edge1_Node000001_Node000002"><a xlink:title=" ">
<path fill="none" stroke="#63b8ff" d="M774.23,-391.53C790.98,-383.44 808.78,-371.84 820,-356 868.96,-286.9 893.66,-241.15 851,-168 829.55,-131.22 714.16,-96.86 645.5,-79.27"/>
<polygon fill="#63b8ff" stroke="#63b8ff" points="646.51,-75.91 635.96,-76.86 644.8,-82.7 646.51,-75.91"/>
</a>
</g>
</g>
<!-- Node8 -->
<g id="Node000008" class="node">
<title>Node8</title>
<g id="a_Node000008"><a xlink:href="../../d8/d5f/SDL__begin__code_8h.html" target="_top" xlink:title=" ">
<polygon fill="white" stroke="#666666" points="305.12,-20 178.88,-20 178.88,0 305.12,0 305.12,-20"/>
<text xml:space="preserve" text-anchor="middle" x="242" y="-6.5" font-family="Helvetica,sans-Serif" font-size="10.00">SDL3/SDL_begin_code.h</text>
</a>
</g>
</g>
<!-- Node1&#45;&gt;Node8 -->
<g id="edge58_Node000001_Node000008" class="edge">
<title>Node1&#45;&gt;Node8</title>
<g id="a_edge58_Node000001_Node000008"><a xlink:title=" ">
<path fill="none" stroke="#63b8ff" d="M670.25,-403.74C494.83,-393.51 0,-358.66 0,-291 0,-291 0,-291 0,-121 0,-46.53 96.15,-22.24 167.24,-14.45"/>
<polygon fill="#63b8ff" stroke="#63b8ff" points="167.31,-17.96 176.91,-13.49 166.61,-11 167.31,-17.96"/>
</a>
</g>
</g>
<!-- Node9 -->
<g id="Node000009" class="node">
<title>Node9</title>
<g id="a_Node000009"><a xlink:href="../../d9/d73/SDL__close__code_8h.html" target="_top" xlink:title=" ">
<polygon fill="white" stroke="#666666" points="992.12,-20 865.88,-20 865.88,0 992.12,0 992.12,-20"/>
<text xml:space="preserve" text-anchor="middle" x="929" y="-6.5" font-family="Helvetica,sans-Serif" font-size="10.00">SDL3/SDL_close_code.h</text>
</a>
</g>
</g>
<!-- Node1&#45;&gt;Node9 -->
<g id="edge59_Node000001_Node000009" class="edge">
<title>Node1&#45;&gt;Node9</title>
<g id="a_edge59_Node000001_Node000009"><a xlink:title=" ">
<path fill="none" stroke="#63b8ff" d="M791.79,-402.44C905.72,-392.22 1140,-362.5 1140,-291 1140,-291 1140,-291 1140,-121 1140,-57.71 1064.42,-30.77 1003.73,-19.35"/>
<polygon fill="#63b8ff" stroke="#63b8ff" points="1004.54,-15.94 994.08,-17.65 1003.33,-22.83 1004.54,-15.94"/>
</a>
</g>
</g>
<!-- Node10 -->
<g id="Node000010" class="node">
<title>Node10</title>
<g id="a_Node000010"><a xlink:href="../../d9/d3f/SDL__pixels_8h.html" target="_top" xlink:title=" ">
<polygon fill="white" stroke="#666666" points="842.12,-188 739.88,-188 739.88,-168 842.12,-168 842.12,-188"/>
<text xml:space="preserve" text-anchor="middle" x="791" y="-174.5" font-family="Helvetica,sans-Serif" font-size="10.00">SDL3/SDL_pixels.h</text>
</a>
</g>
</g>
<!-- Node1&#45;&gt;Node10 -->
<g id="edge9_Node000001_Node000010" class="edge">
<title>Node1&#45;&gt;Node10</title>
<g id="a_edge9_Node000001_Node000010"><a xlink:title=" ">
<path fill="none" stroke="#63b8ff" d="M765.01,-391.54C779.16,-383.19 794.1,-371.39 802,-356 828.52,-304.29 809.96,-232.62 798.37,-198.52"/>
<polygon fill="#63b8ff" stroke="#63b8ff" points="801.82,-197.79 795.16,-189.55 795.23,-200.15 801.82,-197.79"/>
</a>
</g>
</g>
<!-- Node13 -->
<g id="Node000013" class="node">
<title>Node13</title>
<g id="a_Node000013"><a xlink:href="../../d6/d40/SDL__properties_8h.html" target="_top" xlink:title=" ">
<polygon fill="white" stroke="#666666" points="341.75,-188 222.25,-188 222.25,-168 341.75,-168 341.75,-188"/>
<text xml:space="preserve" text-anchor="middle" x="282" y="-174.5" font-family="Helvetica,sans-Serif" font-size="10.00">SDL3/SDL_properties.h</text>
</a>
</g>
</g>
<!-- Node1&#45;&gt;Node13 -->
<g id="edge21_Node000001_Node000013" class="edge">
<title>Node1&#45;&gt;Node13</title>
<g id="a_edge21_Node000001_Node000013"><a xlink:title=" ">
<path fill="none" stroke="#63b8ff" d="M670.33,-399C592.33,-386.74 454.62,-358.33 351,-300 319.21,-282.11 307.8,-276.38 291,-244 283.92,-230.36 281.8,-213.05 281.38,-199.72"/>
<polygon fill="#63b8ff" stroke="#63b8ff" points="284.88,-199.93 281.39,-189.93 277.88,-199.92 284.88,-199.93"/>
</a>
</g>
</g>
<!-- Node14 -->
<g id="Node000014" class="node">
<title>Node14</title>
<g id="a_Node000014"><a xlink:href="../../d0/d18/SDL__rect_8h.html" target="_top" xlink:title=" ">
<polygon fill="white" stroke="#666666" points="683.62,-188 590.38,-188 590.38,-168 683.62,-168 683.62,-188"/>
<text xml:space="preserve" text-anchor="middle" x="637" y="-174.5" font-family="Helvetica,sans-Serif" font-size="10.00">SDL3/SDL_rect.h</text>
</a>
</g>
</g>
<!-- Node1&#45;&gt;Node14 -->
<g id="edge26_Node000001_Node000014" class="edge">
<title>Node1&#45;&gt;Node14</title>
<g id="a_edge26_Node000001_Node000014"><a xlink:title=" ">
<path fill="none" stroke="#63b8ff" d="M734.02,-391.72C736.31,-377.12 738.25,-354.64 733,-336 717.28,-280.15 675.56,-224.54 652.63,-196.93"/>
<polygon fill="#63b8ff" stroke="#63b8ff" points="655.5,-194.89 646.36,-189.53 650.16,-199.42 655.5,-194.89"/>
</a>
</g>
</g>
<!-- Node15 -->
<g id="Node000015" class="node">
<title>Node15</title>
<g id="a_Node000015"><a xlink:href="../../db/dac/SDL__surface_8h.html" target="_top" xlink:title=" ">
<polygon fill="white" stroke="#666666" points="535.5,-300 426.5,-300 426.5,-280 535.5,-280 535.5,-300"/>
<text xml:space="preserve" text-anchor="middle" x="481" y="-286.5" font-family="Helvetica,sans-Serif" font-size="10.00">SDL3/SDL_surface.h</text>
</a>
</g>
</g>
<!-- Node1&#45;&gt;Node15 -->
<g id="edge31_Node000001_Node000015" class="edge">
<title>Node1&#45;&gt;Node15</title>
<g id="a_edge31_Node000001_Node000015"><a xlink:title=" ">
<path fill="none" stroke="#63b8ff" d="M695.05,-391.61C672.06,-381.66 641.66,-368.32 615,-356 578.69,-339.22 537.34,-318.99 510.29,-305.6"/>
<polygon fill="#63b8ff" stroke="#63b8ff" points="511.85,-302.46 501.33,-301.16 508.74,-308.73 511.85,-302.46"/>
</a>
</g>
</g>
<!-- Node18 -->
<g id="Node000018" class="node">
<title>Node18</title>
<g id="a_Node000018"><a xlink:href="../../d3/d91/SDL__video_8h.html" target="_top" xlink:title=" ">
<polygon fill="white" stroke="#666666" points="724,-356 624,-356 624,-336 724,-336 724,-356"/>
<text xml:space="preserve" text-anchor="middle" x="674" y="-342.5" font-family="Helvetica,sans-Serif" font-size="10.00">SDL3/SDL_video.h</text>
</a>
</g>
</g>
<!-- Node1&#45;&gt;Node18 -->
<g id="edge49_Node000001_Node000018" class="edge">
<title>Node1&#45;&gt;Node18</title>
<g id="a_edge49_Node000001_Node000018"><a xlink:title=" ">
<path fill="none" stroke="#63b8ff" d="M716.32,-391.55C708.49,-383.3 698.81,-373.12 690.69,-364.57"/>
<polygon fill="#63b8ff" stroke="#63b8ff" points="693.41,-362.34 683.98,-357.51 688.33,-367.17 693.41,-362.34"/>
</a>
</g>
</g>
<!-- Node3 -->
<g id="Node000003" class="node">
<title>Node3</title>
<g id="a_Node000003"><a xlink:href="../../d3/d8b/SDL__platform__defines_8h.html" target="_top" xlink:title=" ">
<polygon fill="white" stroke="#666666" points="778.38,-20 629.62,-20 629.62,0 778.38,0 778.38,-20"/>
<text xml:space="preserve" text-anchor="middle" x="704" y="-6.5" font-family="Helvetica,sans-Serif" font-size="10.00">SDL3/SDL_platform_defines.h</text>
</a>
</g>
</g>
<!-- Node2&#45;&gt;Node3 -->
<g id="edge2_Node000002_Node000003" class="edge">
<title>Node2&#45;&gt;Node3</title>
<g id="a_edge2_Node000002_Node000003"><a xlink:title=" ">
<path fill="none" stroke="#63b8ff" d="M613.16,-55.59C630.09,-47.28 655.05,-35.03 674.52,-25.47"/>
<polygon fill="#63b8ff" stroke="#63b8ff" points="675.9,-28.7 683.33,-21.15 672.81,-22.41 675.9,-28.7"/>
</a>
</g>
</g>
<!-- Node4 -->
<g id="Node000004" class="node">
<title>Node4</title>
<g id="a_Node000004"><a xlink:title=" ">
<polygon fill="#e0e0e0" stroke="#999999" points="847.62,-20 796.38,-20 796.38,0 847.62,0 847.62,-20"/>
<text xml:space="preserve" text-anchor="middle" x="822" y="-6.5" font-family="Helvetica,sans-Serif" font-size="10.00">stdarg.h</text>
</a>
</g>
</g>
<!-- Node2&#45;&gt;Node4 -->
<g id="edge3_Node000002_Node000004" class="edge">
<title>Node2&#45;&gt;Node4</title>
<g id="a_edge3_Node000002_Node000004"><a xlink:title=" ">
<path fill="none" stroke="#63b8ff" d="M635.85,-55.53C672.62,-47.14 727.84,-34.4 784.96,-20.46"/>
<polygon fill="#63b8ff" stroke="#63b8ff" points="785.67,-23.89 794.55,-18.11 784.01,-17.09 785.67,-23.89"/>
</a>
</g>
</g>
<!-- Node5 -->
<g id="Node000005" class="node">
<title>Node5</title>
<g id="a_Node000005"><a xlink:title=" ">
<polygon fill="#e0e0e0" stroke="#999999" points="477.12,-20 428.88,-20 428.88,0 477.12,0 477.12,-20"/>
<text xml:space="preserve" text-anchor="middle" x="453" y="-6.5" font-family="Helvetica,sans-Serif" font-size="10.00">stdint.h</text>
</a>
</g>
</g>
<!-- Node2&#45;&gt;Node5 -->
<g id="edge4_Node000002_Node000005" class="edge">
<title>Node2&#45;&gt;Node5</title>
<g id="a_edge4_Node000002_Node000005"><a xlink:title=" ">
<path fill="none" stroke="#63b8ff" d="M569.44,-55.59C546.9,-46.96 513.25,-34.08 487.92,-24.37"/>
<polygon fill="#63b8ff" stroke="#63b8ff" points="489.28,-21.15 478.69,-20.84 486.78,-27.68 489.28,-21.15"/>
</a>
</g>
</g>
<!-- Node6 -->
<g id="Node000006" class="node">
<title>Node6</title>
<g id="a_Node000006"><a xlink:title=" ">
<polygon fill="#e0e0e0" stroke="#999999" points="543.12,-20 494.88,-20 494.88,0 543.12,0 543.12,-20"/>
<text xml:space="preserve" text-anchor="middle" x="519" y="-6.5" font-family="Helvetica,sans-Serif" font-size="10.00">string.h</text>
</a>
</g>
</g>
<!-- Node2&#45;&gt;Node6 -->
<g id="edge5_Node000002_Node000006" class="edge">
<title>Node2&#45;&gt;Node6</title>
<g id="a_edge5_Node000002_Node000006"><a xlink:title=" ">
<path fill="none" stroke="#63b8ff" d="M580.94,-55.59C570.03,-47.74 554.25,-36.38 541.34,-27.09"/>
<polygon fill="#63b8ff" stroke="#63b8ff" points="543.55,-24.37 533.39,-21.36 539.46,-30.05 543.55,-24.37"/>
</a>
</g>
</g>
<!-- Node7 -->
<g id="Node000007" class="node">
<title>Node7</title>
<g id="a_Node000007"><a xlink:title=" ">
<polygon fill="#e0e0e0" stroke="#999999" points="611.25,-20 560.75,-20 560.75,0 611.25,0 611.25,-20"/>
<text xml:space="preserve" text-anchor="middle" x="586" y="-6.5" font-family="Helvetica,sans-Serif" font-size="10.00">wchar.h</text>
</a>
</g>
</g>
<!-- Node2&#45;&gt;Node7 -->
<g id="edge6_Node000002_Node000007" class="edge">
<title>Node2&#45;&gt;Node7</title>
<g id="a_edge6_Node000002_Node000007"><a xlink:title=" ">
<path fill="none" stroke="#63b8ff" d="M592.61,-55.59C591.62,-48.93 590.26,-39.75 589.03,-31.44"/>
<polygon fill="#63b8ff" stroke="#63b8ff" points="592.53,-31.17 587.6,-21.8 585.6,-32.2 592.53,-31.17"/>
</a>
</g>
</g>
<!-- Node2&#45;&gt;Node8 -->
<g id="edge7_Node000002_Node000008" class="edge">
<title>Node2&#45;&gt;Node8</title>
<g id="a_edge7_Node000002_Node000008"><a xlink:title=" ">
<path fill="none" stroke="#63b8ff" d="M542.06,-57.03C481.92,-47.81 382.45,-32.55 314.66,-22.15"/>
<polygon fill="#63b8ff" stroke="#63b8ff" points="315.55,-18.74 305.14,-20.69 314.49,-25.66 315.55,-18.74"/>
</a>
</g>
</g>
<!-- Node2&#45;&gt;Node9 -->
<g id="edge8_Node000002_Node000009" class="edge">
<title>Node2&#45;&gt;Node9</title>
<g id="a_edge8_Node000002_Node000009"><a xlink:title=" ">
<path fill="none" stroke="#63b8ff" d="M645.98,-56.62C703.19,-47.4 795.46,-32.53 859.01,-22.28"/>
<polygon fill="#63b8ff" stroke="#63b8ff" points="859.32,-25.78 868.63,-20.73 858.2,-18.87 859.32,-25.78"/>
</a>
</g>
</g>
<!-- Node10&#45;&gt;Node2 -->
<g id="edge10_Node000010_Node000002" class="edge">
<title>Node10&#45;&gt;Node2</title>
<g id="a_edge10_Node000010_Node000002"><a xlink:title=" ">
<path fill="none" stroke="#63b8ff" d="M784.03,-167.7C773.11,-153.73 750.66,-127.35 726,-112 702.38,-97.29 673.38,-86.72 648.57,-79.54"/>
<polygon fill="#63b8ff" stroke="#63b8ff" points="649.54,-76.17 638.97,-76.88 647.67,-82.92 649.54,-76.17"/>
</a>
</g>
</g>
<!-- Node10&#45;&gt;Node8 -->
<g id="edge19_Node000010_Node000008" class="edge">
<title>Node10&#45;&gt;Node8</title>
<g id="a_edge19_Node000010_Node000008"><a xlink:title=" ">
<path fill="none" stroke="#63b8ff" d="M764.22,-167.59C728.09,-154.91 661.72,-131.66 605,-112 532.62,-86.92 515.7,-76.88 442,-56 395.46,-42.81 341.97,-30.95 302.02,-22.71"/>
<polygon fill="#63b8ff" stroke="#63b8ff" points="302.85,-19.31 292.35,-20.74 301.45,-26.17 302.85,-19.31"/>
</a>
</g>
</g>
<!-- Node10&#45;&gt;Node9 -->
<g id="edge20_Node000010_Node000009" class="edge">
<title>Node10&#45;&gt;Node9</title>
<g id="a_edge20_Node000010_Node000009"><a xlink:title=" ">
<path fill="none" stroke="#63b8ff" d="M842.53,-169.45C901.7,-160.25 991.96,-144.41 1002,-132 1023.25,-105.74 1018.47,-85.49 1002,-56 994.37,-42.33 980.68,-32.29 967.21,-25.21"/>
<polygon fill="#63b8ff" stroke="#63b8ff" points="968.95,-22.17 958.41,-21.02 965.93,-28.48 968.95,-22.17"/>
</a>
</g>
</g>
<!-- Node11 -->
<g id="Node000011" class="node">
<title>Node11</title>
<g id="a_Node000011"><a xlink:href="../../da/d16/SDL__error_8h.html" target="_top" xlink:title=" ">
<polygon fill="white" stroke="#666666" points="570.12,-132 473.88,-132 473.88,-112 570.12,-112 570.12,-132"/>
<text xml:space="preserve" text-anchor="middle" x="522" y="-118.5" font-family="Helvetica,sans-Serif" font-size="10.00">SDL3/SDL_error.h</text>
</a>
</g>
</g>
<!-- Node10&#45;&gt;Node11 -->
<g id="edge11_Node000010_Node000011" class="edge">
<title>Node10&#45;&gt;Node11</title>
<g id="a_edge11_Node000010_Node000011"><a xlink:title=" ">
<path fill="none" stroke="#63b8ff" d="M743.84,-167.53C698.26,-158.38 629.13,-144.5 580.16,-134.68"/>
<polygon fill="#63b8ff" stroke="#63b8ff" points="581.09,-131.29 570.59,-132.75 579.71,-138.15 581.09,-131.29"/>
</a>
</g>
</g>
<!-- Node12 -->
<g id="Node000012" class="node">
<title>Node12</title>
<g id="a_Node000012"><a xlink:href="../../d6/de1/SDL__endian_8h.html" target="_top" xlink:title=" ">
<polygon fill="white" stroke="#666666" points="959.62,-132 854.38,-132 854.38,-112 959.62,-112 959.62,-132"/>
<text xml:space="preserve" text-anchor="middle" x="907" y="-118.5" font-family="Helvetica,sans-Serif" font-size="10.00">SDL3/SDL_endian.h</text>
</a>
</g>
</g>
<!-- Node10&#45;&gt;Node12 -->
<g id="edge15_Node000010_Node000012" class="edge">
<title>Node10&#45;&gt;Node12</title>
<g id="a_edge15_Node000010_Node000012"><a xlink:title=" ">
<path fill="none" stroke="#63b8ff" d="M811.21,-167.59C829.23,-159.21 855.87,-146.8 876.48,-137.21"/>
<polygon fill="#63b8ff" stroke="#63b8ff" points="877.68,-140.51 885.26,-133.12 874.72,-134.17 877.68,-140.51"/>
</a>
</g>
</g>
<!-- Node11&#45;&gt;Node2 -->
<g id="edge12_Node000011_Node000002" class="edge">
<title>Node11&#45;&gt;Node2</title>
<g id="a_edge12_Node000011_Node000002"><a xlink:title=" ">
<path fill="none" stroke="#63b8ff" d="M534.54,-111.59C544.97,-103.77 560.05,-92.46 572.41,-83.19"/>
<polygon fill="#63b8ff" stroke="#63b8ff" points="574.49,-86.01 580.39,-77.21 570.29,-80.41 574.49,-86.01"/>
</a>
</g>
</g>
<!-- Node11&#45;&gt;Node8 -->
<g id="edge13_Node000011_Node000008" class="edge">
<title>Node11&#45;&gt;Node8</title>
<g id="a_edge13_Node000011_Node000008"><a xlink:title=" ">
<path fill="none" stroke="#63b8ff" d="M498.13,-111.62C448.43,-92.1 333.71,-47.03 276.19,-24.43"/>
<polygon fill="#63b8ff" stroke="#63b8ff" points="277.81,-21.31 267.22,-20.91 275.25,-27.82 277.81,-21.31"/>
</a>
</g>
</g>
<!-- Node11&#45;&gt;Node9 -->
<g id="edge14_Node000011_Node000009" class="edge">
<title>Node11&#45;&gt;Node9</title>
<g id="a_edge14_Node000011_Node000009"><a xlink:title=" ">
<path fill="none" stroke="#63b8ff" d="M562.7,-111.54C596.58,-103.29 645.91,-90.41 688,-76 709.87,-68.52 714,-63.09 736,-56 779.07,-42.11 828.82,-30.62 867.03,-22.72"/>
<polygon fill="#63b8ff" stroke="#63b8ff" points="867.4,-26.22 876.5,-20.79 866,-19.36 867.4,-26.22"/>
</a>
</g>
</g>
<!-- Node12&#45;&gt;Node2 -->
<g id="edge16_Node000012_Node000002" class="edge">
<title>Node12&#45;&gt;Node2</title>
<g id="a_edge16_Node000012_Node000002"><a xlink:title=" ">
<path fill="none" stroke="#63b8ff" d="M853.9,-111.84C799.45,-102.45 714.78,-87.84 656.98,-77.87"/>
<polygon fill="#63b8ff" stroke="#63b8ff" points="657.73,-74.44 647.28,-76.19 656.54,-81.34 657.73,-74.44"/>
</a>
</g>
</g>
<!-- Node12&#45;&gt;Node8 -->
<g id="edge17_Node000012_Node000008" class="edge">
<title>Node12&#45;&gt;Node8</title>
<g id="a_edge17_Node000012_Node000008"><a xlink:title=" ">
<path fill="none" stroke="#63b8ff" d="M876.28,-111.55C829.14,-97.39 735.9,-70.76 655,-56 537.76,-34.61 399.82,-22.08 316.73,-15.89"/>
<polygon fill="#63b8ff" stroke="#63b8ff" points="317.12,-12.41 306.89,-15.17 316.61,-19.39 317.12,-12.41"/>
</a>
</g>
</g>
<!-- Node12&#45;&gt;Node9 -->
<g id="edge18_Node000012_Node000009" class="edge">
<title>Node12&#45;&gt;Node9</title>
<g id="a_edge18_Node000012_Node000009"><a xlink:title=" ">
<path fill="none" stroke="#63b8ff" d="M908.88,-111.62C912.42,-93.92 920.15,-55.24 924.94,-31.32"/>
<polygon fill="#63b8ff" stroke="#63b8ff" points="928.3,-32.33 926.83,-21.84 921.44,-30.96 928.3,-32.33"/>
</a>
</g>
</g>
<!-- Node13&#45;&gt;Node2 -->
<g id="edge22_Node000013_Node000002" class="edge">
<title>Node13&#45;&gt;Node2</title>
<g id="a_edge22_Node000013_Node000002"><a xlink:title=" ">
<path fill="none" stroke="#63b8ff" d="M289.56,-167.74C301.86,-153.34 327.72,-125.79 356,-112 371.59,-104.4 465.9,-87.91 531.02,-77.14"/>
<polygon fill="#63b8ff" stroke="#63b8ff" points="531.21,-80.66 540.51,-75.58 530.08,-73.75 531.21,-80.66"/>
</a>
</g>
</g>
<!-- Node13&#45;&gt;Node8 -->
<g id="edge24_Node000013_Node000008" class="edge">
<title>Node13&#45;&gt;Node8</title>
<g id="a_edge24_Node000013_Node000008"><a xlink:title=" ">
<path fill="none" stroke="#63b8ff" d="M225.02,-167.59C204.46,-161.14 183.31,-150.28 171,-132 146.56,-95.73 191.34,-50.81 220.26,-27.22"/>
<polygon fill="#63b8ff" stroke="#63b8ff" points="222.1,-30.22 227.79,-21.28 217.77,-24.72 222.1,-30.22"/>
</a>
</g>
</g>
<!-- Node13&#45;&gt;Node9 -->
<g id="edge25_Node000013_Node000009" class="edge">
<title>Node13&#45;&gt;Node9</title>
<g id="a_edge25_Node000013_Node000009"><a xlink:title=" ">
<path fill="none" stroke="#63b8ff" d="M305.03,-167.52C339.37,-153.69 406.26,-127.9 465,-112 547.96,-89.55 574.75,-106.76 655,-76 671.01,-69.86 671.98,-62.12 688,-56 717.79,-44.63 795.28,-31.15 854.41,-21.93"/>
<polygon fill="#63b8ff" stroke="#63b8ff" points="854.76,-25.42 864.11,-20.43 853.69,-18.5 854.76,-25.42"/>
</a>
</g>
</g>
<!-- Node13&#45;&gt;Node11 -->
<g id="edge23_Node000013_Node000011" class="edge">
<title>Node13&#45;&gt;Node11</title>
<g id="a_edge23_Node000013_Node000011"><a xlink:title=" ">
<path fill="none" stroke="#63b8ff" d="M324.08,-167.53C364.4,-158.46 425.39,-144.74 469,-134.93"/>
<polygon fill="#63b8ff" stroke="#63b8ff" points="469.5,-138.4 478.49,-132.79 467.97,-131.57 469.5,-138.4"/>
</a>
</g>
</g>
<!-- Node14&#45;&gt;Node2 -->
<g id="edge27_Node000014_Node000002" class="edge">
<title>Node14&#45;&gt;Node2</title>
<g id="a_edge27_Node000014_Node000002"><a xlink:title=" ">
<path fill="none" stroke="#63b8ff" d="M633.48,-167.73C628.67,-155.1 619.77,-131.81 612,-112 608.78,-103.78 605.17,-94.74 602.04,-86.93"/>
<polygon fill="#63b8ff" stroke="#63b8ff" points="605.3,-85.67 598.32,-77.7 598.81,-88.28 605.3,-85.67"/>
</a>
</g>
</g>
<!-- Node14&#45;&gt;Node8 -->
<g id="edge29_Node000014_Node000008" class="edge">
<title>Node14&#45;&gt;Node8</title>
<g id="a_edge29_Node000014_Node000008"><a xlink:title=" ">
<path fill="none" stroke="#63b8ff" d="M631.07,-167.57C621.72,-153.44 602.18,-126.84 579,-112 577.88,-111.28 397.27,-56.38 396,-56 358.8,-44.87 316.46,-32.52 285.6,-23.58"/>
<polygon fill="#63b8ff" stroke="#63b8ff" points="286.81,-20.29 276.23,-20.87 284.87,-27.01 286.81,-20.29"/>
</a>
</g>
</g>
<!-- Node14&#45;&gt;Node9 -->
<g id="edge30_Node000014_Node000009" class="edge">
<title>Node14&#45;&gt;Node9</title>
<g id="a_edge30_Node000014_Node000009"><a xlink:title=" ">
<path fill="none" stroke="#63b8ff" d="M684.01,-172.26C773.36,-163.04 959.71,-142.64 969,-132 995.07,-102.15 965.08,-54.84 944.71,-29.11"/>
<polygon fill="#63b8ff" stroke="#63b8ff" points="947.54,-27.04 938.48,-21.55 942.14,-31.5 947.54,-27.04"/>
</a>
</g>
</g>
<!-- Node14&#45;&gt;Node11 -->
<g id="edge28_Node000014_Node000011" class="edge">
<title>Node14&#45;&gt;Node11</title>
<g id="a_edge28_Node000014_Node000011"><a xlink:title=" ">
<path fill="none" stroke="#63b8ff" d="M616.97,-167.59C599.19,-159.24 572.93,-146.92 552.54,-137.34"/>
<polygon fill="#63b8ff" stroke="#63b8ff" points="554.1,-134.21 543.56,-133.12 551.12,-140.54 554.1,-134.21"/>
</a>
</g>
</g>
<!-- Node15&#45;&gt;Node2 -->
<g id="edge32_Node000015_Node000002" class="edge">
<title>Node15&#45;&gt;Node2</title>
<g id="a_edge32_Node000015_Node000002"><a xlink:title=" ">
<path fill="none" stroke="#63b8ff" d="M478.65,-279.83C470.59,-247.49 445.61,-139.29 465,-112 480.13,-90.7 506.11,-79.4 530.82,-73.44"/>
<polygon fill="#63b8ff" stroke="#63b8ff" points="531.5,-76.87 540.55,-71.37 530.04,-70.02 531.5,-76.87"/>
</a>
</g>
</g>
<!-- Node15&#45;&gt;Node8 -->
<g id="edge47_Node000015_Node000008" class="edge">
<title>Node15&#45;&gt;Node8</title>
<g id="a_edge47_Node000015_Node000008"><a xlink:title=" ">
<path fill="none" stroke="#63b8ff" d="M426.38,-285.6C315.83,-277.22 76,-250.77 76,-179 76,-179 76,-179 76,-121 76,-67.12 137.53,-38.07 185.67,-23.59"/>
<polygon fill="#63b8ff" stroke="#63b8ff" points="186.52,-26.99 195.18,-20.88 184.61,-20.25 186.52,-26.99"/>
</a>
</g>
</g>
<!-- Node15&#45;&gt;Node9 -->
<g id="edge48_Node000015_Node000009" class="edge">
<title>Node15&#45;&gt;Node9</title>
<g id="a_edge48_Node000015_Node000009"><a xlink:title=" ">
<path fill="none" stroke="#63b8ff" d="M535.79,-281.6C661.46,-263.36 964.1,-211.88 1022,-132 1029.65,-121.45 1040.92,-87.29 1021,-56 1011.6,-41.23 995.83,-31.17 979.97,-24.38"/>
<polygon fill="#63b8ff" stroke="#63b8ff" points="981.61,-21.26 971.02,-20.91 979.08,-27.79 981.61,-21.26"/>
</a>
</g>
</g>
<!-- Node15&#45;&gt;Node10 -->
<g id="edge38_Node000015_Node000010" class="edge">
<title>Node15&#45;&gt;Node10</title>
<g id="a_edge38_Node000015_Node000010"><a xlink:title=" ">
<path fill="none" stroke="#63b8ff" d="M507.7,-279.53C562.98,-259.91 690.09,-214.81 753.54,-192.29"/>
<polygon fill="#63b8ff" stroke="#63b8ff" points="754.58,-195.64 762.83,-189 752.23,-189.04 754.58,-195.64"/>
</a>
</g>
</g>
<!-- Node15&#45;&gt;Node11 -->
<g id="edge33_Node000015_Node000011" class="edge">
<title>Node15&#45;&gt;Node11</title>
<g id="a_edge33_Node000015_Node000011"><a xlink:title=" ">
<path fill="none" stroke="#63b8ff" d="M484.97,-279.84C488.75,-270.85 494.37,-256.69 498,-244 507.93,-209.27 515.2,-167.77 518.99,-143.51"/>
<polygon fill="#63b8ff" stroke="#63b8ff" points="522.44,-144.14 520.48,-133.73 515.52,-143.09 522.44,-144.14"/>
</a>
</g>
</g>
<!-- Node15&#45;&gt;Node13 -->
<g id="edge39_Node000015_Node000013" class="edge">
<title>Node15&#45;&gt;Node13</title>
<g id="a_edge39_Node000015_Node000013"><a xlink:title=" ">
<path fill="none" stroke="#63b8ff" d="M426.16,-280.61C396.64,-274.14 360.7,-262.96 333,-244 315.67,-232.13 301.47,-212.57 292.5,-198"/>
<polygon fill="#63b8ff" stroke="#63b8ff" points="295.75,-196.63 287.68,-189.76 289.71,-200.16 295.75,-196.63"/>
</a>
</g>
</g>
<!-- Node15&#45;&gt;Node14 -->
<g id="edge40_Node000015_Node000014" class="edge">
<title>Node15&#45;&gt;Node14</title>
<g id="a_edge40_Node000015_Node000014"><a xlink:title=" ">
<path fill="none" stroke="#63b8ff" d="M494.3,-279.62C521.01,-260.79 581.43,-218.18 614.44,-194.91"/>
<polygon fill="#63b8ff" stroke="#63b8ff" points="616.34,-197.85 622.5,-189.23 612.31,-192.13 616.34,-197.85"/>
</a>
</g>
</g>
<!-- Node16 -->
<g id="Node000016" class="node">
<title>Node16</title>
<g id="a_Node000016"><a xlink:href="../../d0/dad/SDL__blendmode_8h.html" target="_top" xlink:title=" ">
<polygon fill="white" stroke="#666666" points="304,-132 180,-132 180,-112 304,-112 304,-132"/>
<text xml:space="preserve" text-anchor="middle" x="242" y="-118.5" font-family="Helvetica,sans-Serif" font-size="10.00">SDL3/SDL_blendmode.h</text>
</a>
</g>
</g>
<!-- Node15&#45;&gt;Node16 -->
<g id="edge34_Node000015_Node000016" class="edge">
<title>Node15&#45;&gt;Node16</title>
<g id="a_edge34_Node000015_Node000016"><a xlink:title=" ">
<path fill="none" stroke="#63b8ff" d="M426.22,-287.43C360.89,-282.15 255.24,-261.93 213,-188 204.22,-172.63 214.34,-154.11 224.97,-140.78"/>
<polygon fill="#63b8ff" stroke="#63b8ff" points="227.6,-143.09 231.53,-133.25 222.32,-138.49 227.6,-143.09"/>
</a>
</g>
</g>
<!-- Node17 -->
<g id="Node000017" class="node">
<title>Node17</title>
<g id="a_Node000017"><a xlink:href="../../d8/d35/SDL__iostream_8h.html" target="_top" xlink:title=" ">
<polygon fill="white" stroke="#666666" points="456.12,-244 341.88,-244 341.88,-224 456.12,-224 456.12,-244"/>
<text xml:space="preserve" text-anchor="middle" x="399" y="-230.5" font-family="Helvetica,sans-Serif" font-size="10.00">SDL3/SDL_iostream.h</text>
</a>
</g>
</g>
<!-- Node15&#45;&gt;Node17 -->
<g id="edge41_Node000015_Node000017" class="edge">
<title>Node15&#45;&gt;Node17</title>
<g id="a_edge41_Node000015_Node000017"><a xlink:title=" ">
<path fill="none" stroke="#63b8ff" d="M466.72,-279.59C454.56,-271.59 436.86,-259.93 422.6,-250.54"/>
<polygon fill="#63b8ff" stroke="#63b8ff" points="424.94,-247.89 414.66,-245.31 421.09,-253.73 424.94,-247.89"/>
</a>
</g>
</g>
<!-- Node16&#45;&gt;Node2 -->
<g id="edge35_Node000016_Node000002" class="edge">
<title>Node16&#45;&gt;Node2</title>
<g id="a_edge35_Node000016_Node000002"><a xlink:title=" ">
<path fill="none" stroke="#63b8ff" d="M303.72,-111.53C367.52,-101.74 466.61,-86.54 530.91,-76.68"/>
<polygon fill="#63b8ff" stroke="#63b8ff" points="531.25,-80.17 540.61,-75.19 530.19,-73.25 531.25,-80.17"/>
</a>
</g>
</g>
<!-- Node16&#45;&gt;Node8 -->
<g id="edge36_Node000016_Node000008" class="edge">
<title>Node16&#45;&gt;Node8</title>
<g id="a_edge36_Node000016_Node000008"><a xlink:title=" ">
<path fill="none" stroke="#63b8ff" d="M242,-111.62C242,-94.01 242,-55.59 242,-31.65"/>
<polygon fill="#63b8ff" stroke="#63b8ff" points="245.5,-31.87 242,-21.87 238.5,-31.87 245.5,-31.87"/>
</a>
</g>
</g>
<!-- Node16&#45;&gt;Node9 -->
<g id="edge37_Node000016_Node000009" class="edge">
<title>Node16&#45;&gt;Node9</title>
<g id="a_edge37_Node000016_Node000009"><a xlink:title=" ">
<path fill="none" stroke="#63b8ff" d="M278.04,-111.62C332.79,-97.67 440.32,-71.45 533,-56 672.28,-32.78 711.16,-36.76 854.02,-20.32"/>
<polygon fill="#63b8ff" stroke="#63b8ff" points="854.37,-23.81 863.9,-19.17 853.56,-16.85 854.37,-23.81"/>
</a>
</g>
</g>
<!-- Node17&#45;&gt;Node2 -->
<g id="edge42_Node000017_Node000002" class="edge">
<title>Node17&#45;&gt;Node2</title>
<g id="a_edge42_Node000017_Node000002"><a xlink:title=" ">
<path fill="none" stroke="#63b8ff" d="M398.56,-223.53C398.05,-200.76 400.13,-142.62 432,-112 458.38,-86.65 497.76,-75.34 531.09,-70.39"/>
<polygon fill="#63b8ff" stroke="#63b8ff" points="531.17,-73.91 540.63,-69.15 530.26,-66.97 531.17,-73.91"/>
</a>
</g>
</g>
<!-- Node17&#45;&gt;Node8 -->
<g id="edge45_Node000017_Node000008" class="edge">
<title>Node17&#45;&gt;Node8</title>
<g id="a_edge45_Node000017_Node000008"><a xlink:title=" ">
<path fill="none" stroke="#63b8ff" d="M341.41,-230.09C279.94,-223.31 187.66,-201.47 160,-132 151.91,-111.67 166.68,-63.68 172,-56 180.95,-43.06 194.95,-32.99 208.09,-25.69"/>
<polygon fill="#63b8ff" stroke="#63b8ff" points="209.69,-28.8 216.98,-21.11 206.48,-22.57 209.69,-28.8"/>
</a>
</g>
</g>
<!-- Node17&#45;&gt;Node9 -->
<g id="edge46_Node000017_Node000009" class="edge">
<title>Node17&#45;&gt;Node9</title>
<g id="a_edge46_Node000017_Node000009"><a xlink:title=" ">
<path fill="none" stroke="#63b8ff" d="M421.43,-223.6C504.81,-188.68 797.12,-66.24 896.01,-24.82"/>
<polygon fill="#63b8ff" stroke="#63b8ff" points="897.29,-28.08 905.16,-20.98 894.59,-21.62 897.29,-28.08"/>
</a>
</g>
</g>
<!-- Node17&#45;&gt;Node11 -->
<g id="edge43_Node000017_Node000011" class="edge">
<title>Node17&#45;&gt;Node11</title>
<g id="a_edge43_Node000017_Node000011"><a xlink:title=" ">
<path fill="none" stroke="#63b8ff" d="M401.58,-223.92C405.88,-210.24 415.66,-184.24 432,-168 445.95,-154.13 465.05,-143.75 482.06,-136.48"/>
<polygon fill="#63b8ff" stroke="#63b8ff" points="482.95,-139.9 490.92,-132.92 480.33,-133.41 482.95,-139.9"/>
</a>
</g>
</g>
<!-- Node17&#45;&gt;Node13 -->
<g id="edge44_Node000017_Node000013" class="edge">
<title>Node17&#45;&gt;Node13</title>
<g id="a_edge44_Node000017_Node000013"><a xlink:title=" ">
<path fill="none" stroke="#63b8ff" d="M378.62,-223.59C360.44,-215.21 333.57,-202.8 312.78,-193.21"/>
<polygon fill="#63b8ff" stroke="#63b8ff" points="314.46,-190.13 303.91,-189.11 311.53,-196.48 314.46,-190.13"/>
</a>
</g>
</g>
<!-- Node18&#45;&gt;Node2 -->
<g id="edge50_Node000018_Node000002" class="edge">
<title>Node18&#45;&gt;Node2</title>
<g id="a_edge50_Node000018_Node000002"><a xlink:title=" ">
<path fill="none" stroke="#63b8ff" d="M679.61,-335.67C690.18,-317.16 712,-274.2 712,-235 712,-235 712,-235 712,-177 712,-130.81 663.02,-98.47 628.17,-81.32"/>
<polygon fill="#63b8ff" stroke="#63b8ff" points="629.79,-78.21 619.25,-77.13 626.81,-84.55 629.79,-78.21"/>
</a>
</g>
</g>
<!-- Node18&#45;&gt;Node8 -->
<g id="edge56_Node000018_Node000008" class="edge">
<title>Node18&#45;&gt;Node8</title>
<g id="a_edge56_Node000018_Node000008"><a xlink:title=" ">
<path fill="none" stroke="#63b8ff" d="M623.56,-342.66C473.14,-334.34 38,-299.82 38,-179 38,-179 38,-179 38,-121 38,-60.14 109.21,-32.8 167.49,-20.61"/>
<polygon fill="#63b8ff" stroke="#63b8ff" points="167.95,-24.09 177.09,-18.73 166.6,-17.22 167.95,-24.09"/>
</a>
</g>
</g>
<!-- Node18&#45;&gt;Node9 -->
<g id="edge57_Node000018_Node000009" class="edge">
<title>Node18&#45;&gt;Node9</title>
<g id="a_edge57_Node000018_Node000009"><a xlink:title=" ">
<path fill="none" stroke="#63b8ff" d="M720.13,-335.53C804.23,-315.39 979.38,-259.27 1040,-132 1046.32,-118.73 1055.21,-79.68 1039,-56 1028.67,-40.91 1012.32,-30.88 995.34,-24.21"/>
<polygon fill="#63b8ff" stroke="#63b8ff" points="996.76,-21 986.17,-20.97 994.44,-27.6 996.76,-21"/>
</a>
</g>
</g>
<!-- Node18&#45;&gt;Node10 -->
<g id="edge52_Node000018_Node000010" class="edge">
<title>Node18&#45;&gt;Node10</title>
<g id="a_edge52_Node000018_Node000010"><a xlink:title=" ">
<path fill="none" stroke="#63b8ff" d="M687.16,-335.77C698.45,-327.37 714.66,-314.17 726,-300 751.73,-267.86 772.32,-224.04 783,-198.9"/>
<polygon fill="#63b8ff" stroke="#63b8ff" points="786.14,-200.47 786.73,-189.89 779.67,-197.79 786.14,-200.47"/>
</a>
</g>
</g>
<!-- Node18&#45;&gt;Node11 -->
<g id="edge51_Node000018_Node000011" class="edge">
<title>Node18&#45;&gt;Node11</title>
<g id="a_edge51_Node000018_Node000011"><a xlink:title=" ">
<path fill="none" stroke="#63b8ff" d="M667.66,-335.74C644.73,-302.25 565.77,-186.93 534.7,-141.56"/>
<polygon fill="#63b8ff" stroke="#63b8ff" points="537.76,-139.82 529.22,-133.54 531.98,-143.77 537.76,-139.82"/>
</a>
</g>
</g>
<!-- Node18&#45;&gt;Node13 -->
<g id="edge53_Node000018_Node000013" class="edge">
<title>Node18&#45;&gt;Node13</title>
<g id="a_edge53_Node000018_Node000013"><a xlink:title=" ">
<path fill="none" stroke="#63b8ff" d="M623.63,-340.7C571,-335.17 486.56,-323.36 417,-300 365.37,-282.66 344.66,-284.28 308,-244 296.48,-231.35 289.77,-212.96 286.06,-198.96"/>
<polygon fill="#63b8ff" stroke="#63b8ff" points="289.54,-198.48 283.87,-189.53 282.72,-200.06 289.54,-198.48"/>
</a>
</g>
</g>
<!-- Node18&#45;&gt;Node14 -->
<g id="edge54_Node000018_Node000014" class="edge">
<title>Node18&#45;&gt;Node14</title>
<g id="a_edge54_Node000018_Node000014"><a xlink:title=" ">
<path fill="none" stroke="#63b8ff" d="M671.9,-335.6C666.08,-309.46 649.59,-235.48 641.54,-199.36"/>
<polygon fill="#63b8ff" stroke="#63b8ff" points="644.99,-198.77 639.4,-189.77 638.16,-200.3 644.99,-198.77"/>
</a>
</g>
</g>
<!-- Node18&#45;&gt;Node15 -->
<g id="edge55_Node000018_Node000015" class="edge">
<title>Node18&#45;&gt;Node15</title>
<g id="a_edge55_Node000018_Node000015"><a xlink:title=" ">
<path fill="none" stroke="#63b8ff" d="M640.38,-335.59C608.61,-326.71 560.74,-313.31 525.75,-303.52"/>
<polygon fill="#63b8ff" stroke="#63b8ff" points="526.91,-300.21 516.34,-300.89 525.03,-306.95 526.91,-300.21"/>
</a>
</g>
</g>
</g>
</svg>
