<?xml version="1.0" encoding="UTF-8" standalone="no"?>
<!DOCTYPE svg PUBLIC "-//W3C//DTD SVG 1.1//EN"
 "http://www.w3.org/Graphics/SVG/1.1/DTD/svg11.dtd">
<!-- Generated by graphviz version 13.1.0 (20250701.0955)
 -->
<!-- Title: SDL&#45;main/src/SDL_properties_c.h Pages: 1 -->
<svg width="409pt" height="96pt"
 viewBox="0.00 0.00 409.00 96.00" xmlns="http://www.w3.org/2000/svg" xmlns:xlink="http://www.w3.org/1999/xlink">
<g id="graph0" class="graph" transform="scale(1 1) rotate(0) translate(4 92)">
<title>SDL&#45;main/src/SDL_properties_c.h</title>
<!-- Node1 -->
<g id="Node000001" class="node">
<title>Node1</title>
<g id="a_Node000001"><a xlink:title=" ">
<polygon fill="#999999" stroke="#666666" points="285,-88 119.75,-88 119.75,-68 285,-68 285,-88"/>
<text xml:space="preserve" text-anchor="middle" x="202.38" y="-74.5" font-family="Helvetica,sans-Serif" font-size="10.00">SDL&#45;main/src/SDL_properties_c.h</text>
</a>
</g>
</g>
<!-- Node2 -->
<g id="Node000002" class="node">
<title>Node2</title>
<g id="a_Node000002"><a xlink:href="../../df/d78/SDL_8c.html" target="_top" xlink:title=" ">
<polygon fill="white" stroke="#666666" points="106.75,-26 0,-26 0,-6 106.75,-6 106.75,-26"/>
<text xml:space="preserve" text-anchor="middle" x="53.38" y="-12.5" font-family="Helvetica,sans-Serif" font-size="10.00">SDL&#45;main/src/SDL.c</text>
</a>
</g>
</g>
<!-- Node1&#45;&gt;Node2 -->
<g id="edge1_Node000001_Node000002" class="edge">
<title>Node1&#45;&gt;Node2</title>
<g id="a_edge1_Node000001_Node000002"><a xlink:title=" ">
<path fill="none" stroke="#63b8ff" d="M168.54,-63.38C140.42,-52.05 101.14,-36.23 76.49,-26.31"/>
<polygon fill="#63b8ff" stroke="#63b8ff" points="167.11,-66.57 177.69,-67.06 169.72,-60.08 167.11,-66.57"/>
</a>
</g>
</g>
<!-- Node3 -->
<g id="Node000003" class="node">
<title>Node3</title>
<g id="a_Node000003"><a xlink:href="../../d3/de7/SDL__properties_8c.html" target="_top" xlink:title=" ">
<polygon fill="white" stroke="#666666" points="279.75,-26 125,-26 125,-6 279.75,-6 279.75,-26"/>
<text xml:space="preserve" text-anchor="middle" x="202.38" y="-12.5" font-family="Helvetica,sans-Serif" font-size="10.00">SDL&#45;main/src/SDL_properties.c</text>
</a>
</g>
</g>
<!-- Node1&#45;&gt;Node3 -->
<g id="edge2_Node000001_Node000003" class="edge">
<title>Node1&#45;&gt;Node3</title>
<g id="a_edge2_Node000001_Node000003"><a xlink:title=" ">
<path fill="none" stroke="#63b8ff" d="M202.38,-56.25C202.38,-45.97 202.38,-34.09 202.38,-26.11"/>
<polygon fill="#63b8ff" stroke="#63b8ff" points="198.88,-56.11 202.38,-66.11 205.88,-56.11 198.88,-56.11"/>
</a>
</g>
</g>
<!-- Node4 -->
<g id="Node000004" class="node">
<title>Node4</title>
<g id="a_Node000004"><a xlink:href="../../d6/d3d/SDL__video_8c.html" target="_top" xlink:title=" ">
<polygon fill="white" stroke="#666666" points="400.5,-32 298.25,-32 298.25,0 400.5,0 400.5,-32"/>
<text xml:space="preserve" text-anchor="start" x="306.25" y="-18.5" font-family="Helvetica,sans-Serif" font-size="10.00">SDL&#45;main/src/video</text>
<text xml:space="preserve" text-anchor="middle" x="349.38" y="-6.5" font-family="Helvetica,sans-Serif" font-size="10.00">/SDL_video.c</text>
</a>
</g>
</g>
<!-- Node1&#45;&gt;Node4 -->
<g id="edge3_Node000001_Node000004" class="edge">
<title>Node1&#45;&gt;Node4</title>
<g id="a_edge3_Node000001_Node000004"><a xlink:title=" ">
<path fill="none" stroke="#63b8ff" d="M235.75,-63.38C258.26,-54.19 288.01,-42.05 311.42,-32.49"/>
<polygon fill="#63b8ff" stroke="#63b8ff" points="234.68,-60.03 226.75,-67.05 237.33,-66.51 234.68,-60.03"/>
</a>
</g>
</g>
</g>
</svg>
