<?xml version="1.0" encoding="UTF-8" standalone="no"?>
<!DOCTYPE svg PUBLIC "-//W3C//DTD SVG 1.1//EN"
 "http://www.w3.org/Graphics/SVG/1.1/DTD/svg11.dtd">
<!-- Generated by graphviz version 13.1.0 (20250701.0955)
 -->
<!-- Title: SDL_MapRGBA Pages: 1 -->
<svg width="430pt" height="122pt"
 viewBox="0.00 0.00 430.00 122.00" xmlns="http://www.w3.org/2000/svg" xmlns:xlink="http://www.w3.org/1999/xlink">
<g id="graph0" class="graph" transform="scale(1 1) rotate(0) translate(4 118)">
<title>SDL_MapRGBA</title>
<!-- Node1 -->
<g id="Node000001" class="node">
<title>Node1</title>
<g id="a_Node000001"><a xlink:title=" ">
<polygon fill="#999999" stroke="#666666" points="422.25,-39 334.25,-39 334.25,-19 422.25,-19 422.25,-39"/>
<text xml:space="preserve" text-anchor="middle" x="378.25" y="-25.5" font-family="Helvetica,sans-Serif" font-size="10.00">SDL_MapRGBA</text>
</a>
</g>
</g>
<!-- Node2 -->
<g id="Node000002" class="node">
<title>Node2</title>
<g id="a_Node000002"><a xlink:href="../../d4/d8e/SDL__surface_8c.html#ab5192abd6db85a3c908655eb8d53c8ed" target="_top" xlink:title=" ">
<polygon fill="white" stroke="#666666" points="298.25,-58 176.5,-58 176.5,-38 298.25,-38 298.25,-58"/>
<text xml:space="preserve" text-anchor="middle" x="237.38" y="-44.5" font-family="Helvetica,sans-Serif" font-size="10.00">SDL_MapSurfaceRGBA</text>
</a>
</g>
</g>
<!-- Node1&#45;&gt;Node2 -->
<g id="edge1_Node000001_Node000002" class="edge">
<title>Node1&#45;&gt;Node2</title>
<g id="a_edge1_Node000001_Node000002"><a xlink:title=" ">
<path fill="none" stroke="#63b8ff" d="M322.72,-36.46C314.81,-37.54 306.63,-38.66 298.61,-39.76"/>
<polygon fill="#63b8ff" stroke="#63b8ff" points="323.14,-39.94 332.57,-35.11 322.19,-33 323.14,-39.94"/>
</a>
</g>
</g>
<!-- Node5 -->
<g id="Node000005" class="node">
<title>Node5</title>
<g id="a_Node000005"><a xlink:href="../../d4/d8e/SDL__surface_8c.html#af69958db06db07e08f5359a31796e8e9" target="_top" xlink:title=" ">
<polygon fill="white" stroke="#666666" points="296.75,-20 178,-20 178,0 296.75,0 296.75,-20"/>
<text xml:space="preserve" text-anchor="middle" x="237.38" y="-6.5" font-family="Helvetica,sans-Serif" font-size="10.00">SDL_WriteSurfacePixel</text>
</a>
</g>
</g>
<!-- Node1&#45;&gt;Node5 -->
<g id="edge5_Node000001_Node000005" class="edge">
<title>Node1&#45;&gt;Node5</title>
<g id="a_edge5_Node000001_Node000005"><a xlink:title=" ">
<path fill="none" stroke="#63b8ff" d="M322.81,-21.55C314.37,-20.4 305.62,-19.2 297.09,-18.03"/>
<polygon fill="#63b8ff" stroke="#63b8ff" points="322.19,-25 332.57,-22.89 323.14,-18.06 322.19,-25"/>
</a>
</g>
</g>
<!-- Node3 -->
<g id="Node000003" class="node">
<title>Node3</title>
<g id="a_Node000003"><a xlink:href="../../d4/d8e/SDL__surface_8c.html#af5aa021ea1c9fde2c52baa1363327d87" target="_top" xlink:title=" ">
<polygon fill="white" stroke="#666666" points="119.12,-96 21.38,-96 21.38,-76 119.12,-76 119.12,-96"/>
<text xml:space="preserve" text-anchor="middle" x="70.25" y="-82.5" font-family="Helvetica,sans-Serif" font-size="10.00">SDL_ClearSurface</text>
</a>
</g>
</g>
<!-- Node2&#45;&gt;Node3 -->
<g id="edge2_Node000002_Node000003" class="edge">
<title>Node2&#45;&gt;Node3</title>
<g id="a_edge2_Node000002_Node000003"><a xlink:title=" ">
<path fill="none" stroke="#63b8ff" d="M179.67,-61.05C159.09,-65.78 136.13,-71.07 116.66,-75.55"/>
<polygon fill="#63b8ff" stroke="#63b8ff" points="180.38,-64.48 189.34,-58.82 178.81,-57.66 180.38,-64.48"/>
</a>
</g>
</g>
<!-- Node4 -->
<g id="Node000004" class="node">
<title>Node4</title>
<g id="a_Node000004"><a xlink:href="../../d4/d8e/SDL__surface_8c.html#a3d916e4a1cc5ad5dfa735936f4a7a305" target="_top" xlink:title=" ">
<polygon fill="white" stroke="#666666" points="127.75,-58 12.75,-58 12.75,-38 127.75,-38 127.75,-58"/>
<text xml:space="preserve" text-anchor="middle" x="70.25" y="-44.5" font-family="Helvetica,sans-Serif" font-size="10.00">SDL_MapSurfaceRGB</text>
</a>
</g>
</g>
<!-- Node2&#45;&gt;Node4 -->
<g id="edge4_Node000002_Node000004" class="edge">
<title>Node2&#45;&gt;Node4</title>
<g id="a_edge4_Node000002_Node000004"><a xlink:title=" ">
<path fill="none" stroke="#63b8ff" d="M165.04,-48C152.65,-48 139.92,-48 127.99,-48"/>
<polygon fill="#63b8ff" stroke="#63b8ff" points="164.78,-51.5 174.78,-48 164.78,-44.5 164.78,-51.5"/>
</a>
</g>
</g>
<!-- Node3&#45;&gt;Node3 -->
<g id="edge3_Node000003_Node000003" class="edge">
<title>Node3&#45;&gt;Node3</title>
<g id="a_edge3_Node000003_Node000003"><a xlink:title=" ">
<path fill="none" stroke="#63b8ff" d="M99.79,-107.44C95.98,-111.3 86.14,-114 70.25,-114 41.2,-114 32.35,-104.98 43.7,-96.34"/>
<polygon fill="#63b8ff" stroke="#63b8ff" points="103.17,-106.55 97.2,-97.8 96.41,-108.37 103.17,-106.55"/>
</a>
</g>
</g>
<!-- Node6 -->
<g id="Node000006" class="node">
<title>Node6</title>
<g id="a_Node000006"><a xlink:href="../../d4/d8e/SDL__surface_8c.html#a3f581b1eb60853f3af421ad8da3bc537" target="_top" xlink:title=" ">
<polygon fill="white" stroke="#666666" points="140.5,-20 0,-20 0,0 140.5,0 140.5,-20"/>
<text xml:space="preserve" text-anchor="middle" x="70.25" y="-6.5" font-family="Helvetica,sans-Serif" font-size="10.00">SDL_WriteSurfacePixelFloat</text>
</a>
</g>
</g>
<!-- Node5&#45;&gt;Node6 -->
<g id="edge6_Node000005_Node000006" class="edge">
<title>Node5&#45;&gt;Node6</title>
<g id="a_edge6_Node000005_Node000006"><a xlink:title=" ">
<path fill="none" stroke="#63b8ff" d="M166.3,-10C157.84,-10 149.2,-10 140.75,-10"/>
<polygon fill="#63b8ff" stroke="#63b8ff" points="166.18,-13.5 176.18,-10 166.18,-6.5 166.18,-13.5"/>
</a>
</g>
</g>
</g>
</svg>
