<?xml version="1.0" encoding="UTF-8" standalone="no"?>
<!DOCTYPE svg PUBLIC "-//W3C//DTD SVG 1.1//EN"
 "http://www.w3.org/Graphics/SVG/1.1/DTD/svg11.dtd">
<!-- Generated by graphviz version 13.1.0 (20250701.0955)
 -->
<!-- Title: WaveFile Pages: 1 -->
<svg width="245pt" height="102pt"
 viewBox="0.00 0.00 245.00 102.00" xmlns="http://www.w3.org/2000/svg" xmlns:xlink="http://www.w3.org/1999/xlink">

<svg id="main" version="1.1" xmlns="http://www.w3.org/2000/svg" xmlns:xlink="http://www.w3.org/1999/xlink" xml:space="preserve">

<style type="text/css"><![CDATA[
.node, .edge {opacity: 0.7;}
.node.selected, .edge.selected {opacity: 1;}
.edge:hover path { stroke: red; }
.edge:hover polygon { stroke: red; fill: red; }
]]></style>
<script type="application/ecmascript" xlink:href="../../svg.min.js"/>
<svg id="graph" class="graph">
<g id="graph0" class="graph" transform="scale(1 1) rotate(0) translate(4 98)">
<title>WaveFile</title>
<!-- Node1 -->
<g id="Node000001" class="node">
<title>Node1</title>
<g id="a_Node000001"><a xlink:title=" ">
<polygon fill="#999999" stroke="#666666" points="150.88,-20 94.38,-20 94.38,0 150.88,0 150.88,-20"/>
<text xml:space="preserve" text-anchor="middle" x="122.62" y="-6.5" font-family="Helvetica,sans-Serif" font-size="10.00">WaveFile</text>
</a>
</g>
</g>
<!-- Node2 -->
<g id="Node000002" class="node">
<title>Node2</title>
<g id="a_Node000002"><a xlink:href="../../d3/d76/structWaveChunk.html" target="_top" xlink:title=" ">
<polygon fill="white" stroke="#666666" points="69.25,-94 0,-94 0,-74 69.25,-74 69.25,-94"/>
<text xml:space="preserve" text-anchor="middle" x="34.62" y="-80.5" font-family="Helvetica,sans-Serif" font-size="10.00">WaveChunk</text>
</a>
</g>
</g>
<!-- Node2&#45;&gt;Node1 -->
<g id="edge1_Node000001_Node000002" class="edge">
<title>Node2&#45;&gt;Node1</title>
<g id="a_edge1_Node000001_Node000002"><a xlink:title=" ">
<path fill="none" stroke="#9a32cd" stroke-dasharray="5,2" d="M53.2,-66.25C62.93,-57.63 75.13,-47.05 86.38,-38 93.95,-31.9 102.7,-25.37 109.7,-20.26"/>
<polygon fill="#9a32cd" stroke="#9a32cd" points="51,-63.52 45.87,-72.79 55.66,-68.74 51,-63.52"/>
</a>
</g>
<text xml:space="preserve" text-anchor="start" x="89.38" y="-43.5" font-family="Helvetica,sans-Serif" font-size="10.00" fill="grey">chunk</text>
</g>
<!-- Node3 -->
<g id="Node000003" class="node">
<title>Node3</title>
<g id="a_Node000003"><a xlink:href="../../de/dd8/structWaveFormat.html" target="_top" xlink:title=" ">
<polygon fill="white" stroke="#666666" points="158.38,-94 86.88,-94 86.88,-74 158.38,-74 158.38,-94"/>
<text xml:space="preserve" text-anchor="middle" x="122.62" y="-80.5" font-family="Helvetica,sans-Serif" font-size="10.00">WaveFormat</text>
</a>
</g>
</g>
<!-- Node3&#45;&gt;Node1 -->
<g id="edge2_Node000001_Node000003" class="edge">
<title>Node3&#45;&gt;Node1</title>
<g id="a_edge2_Node000001_Node000003"><a xlink:title=" ">
<path fill="none" stroke="#9a32cd" stroke-dasharray="5,2" d="M122.62,-62.18C122.62,-48.29 122.62,-30.71 122.62,-20.19"/>
<polygon fill="#9a32cd" stroke="#9a32cd" points="119.13,-62.07 122.63,-72.07 126.13,-62.07 119.13,-62.07"/>
</a>
</g>
<text xml:space="preserve" text-anchor="start" x="125.62" y="-43.5" font-family="Helvetica,sans-Serif" font-size="10.00" fill="grey">format</text>
</g>
<!-- Node4 -->
<g id="Node000004" class="node">
<title>Node4</title>
<g id="a_Node000004"><a xlink:href="../../d8/df1/structWaveFact.html" target="_top" xlink:title=" ">
<polygon fill="white" stroke="#666666" points="236.75,-94 176.5,-94 176.5,-74 236.75,-74 236.75,-94"/>
<text xml:space="preserve" text-anchor="middle" x="206.62" y="-80.5" font-family="Helvetica,sans-Serif" font-size="10.00">WaveFact</text>
</a>
</g>
</g>
<!-- Node4&#45;&gt;Node1 -->
<g id="edge3_Node000001_Node000004" class="edge">
<title>Node4&#45;&gt;Node1</title>
<g id="a_edge3_Node000001_Node000004"><a xlink:title=" ">
<path fill="none" stroke="#9a32cd" stroke-dasharray="5,2" d="M189.91,-65.4C181.44,-56.8 170.81,-46.51 160.62,-38 153.17,-31.77 144.36,-25.45 137.09,-20.49"/>
<polygon fill="#9a32cd" stroke="#9a32cd" points="187.33,-67.76 196.8,-72.51 192.36,-62.89 187.33,-67.76"/>
</a>
</g>
<text xml:space="preserve" text-anchor="start" x="183.24" y="-43.5" font-family="Helvetica,sans-Serif" font-size="10.00" fill="grey">fact</text>
</g>
</g>
</svg>
</svg>

<style type='text/css'>
<![CDATA[
[data-mouse-over-selected='false'] { opacity: 0.7; }
[data-mouse-over-selected='true']  { opacity: 1.0; }
]]>
</style>
<script type="application/ecmascript"><![CDATA[
document.addEventListener('DOMContentLoaded', (event) => {
  highlightEdges();
  highlightAdjacentNodes();
});
]]></script>
</svg>
