<?xml version="1.0" encoding="UTF-8" standalone="no"?>
<!DOCTYPE svg PUBLIC "-//W3C//DTD SVG 1.1//EN"
 "http://www.w3.org/Graphics/SVG/1.1/DTD/svg11.dtd">
<!-- Generated by graphviz version 13.1.0 (20250701.0955)
 -->
<!-- Title: SDL_SYS_RemovePath Pages: 1 -->
<svg width="460pt" height="104pt"
 viewBox="0.00 0.00 460.00 104.00" xmlns="http://www.w3.org/2000/svg" xmlns:xlink="http://www.w3.org/1999/xlink">

<svg id="main" version="1.1" xmlns="http://www.w3.org/2000/svg" xmlns:xlink="http://www.w3.org/1999/xlink" xml:space="preserve">

<style type="text/css"><![CDATA[
.node, .edge {opacity: 0.7;}
.node.selected, .edge.selected {opacity: 1;}
.edge:hover path { stroke: red; }
.edge:hover polygon { stroke: red; fill: red; }
]]></style>
<script type="application/ecmascript" xlink:href="../../svg.min.js"/>
<svg id="graph" class="graph">
<g id="graph0" class="graph" transform="scale(1 1) rotate(0) translate(4 100)">
<title>SDL_SYS_RemovePath</title>
<!-- Node1 -->
<g id="Node000001" class="node">
<title>Node1</title>
<g id="a_Node000001"><a xlink:title=" ">
<polygon fill="#999999" stroke="#666666" points="451.5,-58 328.25,-58 328.25,-38 451.5,-38 451.5,-58"/>
<text xml:space="preserve" text-anchor="middle" x="389.88" y="-44.5" font-family="Helvetica,sans-Serif" font-size="10.00">SDL_SYS_RemovePath</text>
</a>
</g>
</g>
<!-- Node2 -->
<g id="Node000002" class="node">
<title>Node2</title>
<g id="a_Node000002"><a xlink:href="../../d4/db9/SDL__filesystem_8c.html#a48bfc15c82a2cf6f5b874bee1ef346ba" target="_top" xlink:title=" ">
<polygon fill="white" stroke="#666666" points="292.25,-58 194.5,-58 194.5,-38 292.25,-38 292.25,-58"/>
<text xml:space="preserve" text-anchor="middle" x="243.38" y="-44.5" font-family="Helvetica,sans-Serif" font-size="10.00">SDL_RemovePath</text>
</a>
</g>
</g>
<!-- Node1&#45;&gt;Node2 -->
<g id="edge1_Node000001_Node000002" class="edge">
<title>Node1&#45;&gt;Node2</title>
<g id="a_edge1_Node000001_Node000002"><a xlink:title=" ">
<path fill="none" stroke="#63b8ff" d="M316.51,-48C308.35,-48 300.19,-48 292.44,-48"/>
<polygon fill="#63b8ff" stroke="#63b8ff" points="316.5,-51.5 326.5,-48 316.5,-44.5 316.5,-51.5"/>
</a>
</g>
</g>
<!-- Node3 -->
<g id="Node000003" class="node">
<title>Node3</title>
<g id="a_Node000003"><a xlink:href="../../d6/df0/SDL__genericstorage_8c.html#a2221523b59363be6e9b313038e92bb7b" target="_top" xlink:title=" ">
<polygon fill="white" stroke="#666666" points="158.5,-96 0,-96 0,-76 158.5,-76 158.5,-96"/>
<text xml:space="preserve" text-anchor="middle" x="79.25" y="-82.5" font-family="Helvetica,sans-Serif" font-size="10.00">GENERIC_RemoveStoragePath</text>
</a>
</g>
</g>
<!-- Node2&#45;&gt;Node3 -->
<g id="edge2_Node000002_Node000003" class="edge">
<title>Node2&#45;&gt;Node3</title>
<g id="a_edge2_Node000002_Node000003"><a xlink:title=" ">
<path fill="none" stroke="#63b8ff" d="M186.7,-61.05C166.5,-65.78 143.95,-71.07 124.83,-75.55"/>
<polygon fill="#63b8ff" stroke="#63b8ff" points="187.23,-64.52 196.17,-58.83 185.64,-57.7 187.23,-64.52"/>
</a>
</g>
</g>
<!-- Node4 -->
<g id="Node000004" class="node">
<title>Node4</title>
<g id="a_Node000004"><a xlink:href="../../d4/d03/unix_2SDL__tray_8c.html#abaf074894e07db3897a43bd81c63dad7" target="_top" xlink:title=" ">
<polygon fill="white" stroke="#666666" points="126.62,-58 31.88,-58 31.88,-38 126.62,-38 126.62,-58"/>
<text xml:space="preserve" text-anchor="middle" x="79.25" y="-44.5" font-family="Helvetica,sans-Serif" font-size="10.00">SDL_DestroyTray</text>
</a>
</g>
</g>
<!-- Node2&#45;&gt;Node4 -->
<g id="edge3_Node000002_Node000004" class="edge">
<title>Node2&#45;&gt;Node4</title>
<g id="a_edge3_Node000002_Node000004"><a xlink:title=" ">
<path fill="none" stroke="#63b8ff" d="M182.91,-48C164.44,-48 144.35,-48 126.87,-48"/>
<polygon fill="#63b8ff" stroke="#63b8ff" points="182.66,-51.5 192.66,-48 182.66,-44.5 182.66,-51.5"/>
</a>
</g>
</g>
<!-- Node5 -->
<g id="Node000005" class="node">
<title>Node5</title>
<g id="a_Node000005"><a xlink:href="../../d4/d03/unix_2SDL__tray_8c.html#a2372c5e3d0c864715dbeb77d23cbca03" target="_top" xlink:title=" ">
<polygon fill="white" stroke="#666666" points="126.25,-20 32.25,-20 32.25,0 126.25,0 126.25,-20"/>
<text xml:space="preserve" text-anchor="middle" x="79.25" y="-6.5" font-family="Helvetica,sans-Serif" font-size="10.00">SDL_SetTrayIcon</text>
</a>
</g>
</g>
<!-- Node2&#45;&gt;Node5 -->
<g id="edge4_Node000002_Node000005" class="edge">
<title>Node2&#45;&gt;Node5</title>
<g id="a_edge4_Node000002_Node000005"><a xlink:title=" ">
<path fill="none" stroke="#63b8ff" d="M186.7,-34.95C166.5,-30.22 143.95,-24.93 124.83,-20.45"/>
<polygon fill="#63b8ff" stroke="#63b8ff" points="185.64,-38.3 196.17,-37.17 187.23,-31.48 185.64,-38.3"/>
</a>
</g>
</g>
</g>
</svg>
</svg>

<style type='text/css'>
<![CDATA[
[data-mouse-over-selected='false'] { opacity: 0.7; }
[data-mouse-over-selected='true']  { opacity: 1.0; }
]]>
</style>
<script type="application/ecmascript"><![CDATA[
document.addEventListener('DOMContentLoaded', (event) => {
  highlightEdges();
  highlightAdjacentNodes();
});
]]></script>
</svg>
