<?xml version="1.0" encoding="UTF-8" standalone="no"?>
<!DOCTYPE svg PUBLIC "-//W3C//DTD SVG 1.1//EN"
 "http://www.w3.org/Graphics/SVG/1.1/DTD/svg11.dtd">
<!-- Generated by graphviz version 13.1.0 (20250701.0955)
 -->
<!-- Title: SDL&#45;main/src/core/android/SDL_android.h Pages: 1 -->
<svg width="740pt" height="108pt"
 viewBox="0.00 0.00 740.00 108.00" xmlns="http://www.w3.org/2000/svg" xmlns:xlink="http://www.w3.org/1999/xlink">
<g id="graph0" class="graph" transform="scale(1 1) rotate(0) translate(4 104)">
<title>SDL&#45;main/src/core/android/SDL_android.h</title>
<!-- Node1 -->
<g id="Node000001" class="node">
<title>Node1</title>
<g id="a_Node000001"><a xlink:title=" ">
<polygon fill="#999999" stroke="#666666" points="413.88,-100 281.62,-100 281.62,-68 413.88,-68 413.88,-100"/>
<text xml:space="preserve" text-anchor="start" x="289.62" y="-86.5" font-family="Helvetica,sans-Serif" font-size="10.00">SDL&#45;main/src/core/android</text>
<text xml:space="preserve" text-anchor="middle" x="347.75" y="-74.5" font-family="Helvetica,sans-Serif" font-size="10.00">/SDL_android.h</text>
</a>
</g>
</g>
<!-- Node2 -->
<g id="Node000002" class="node">
<title>Node2</title>
<g id="a_Node000002"><a xlink:href="../../d5/de8/SDL__androiddialog_8c.html" target="_top" xlink:title=" ">
<polygon fill="white" stroke="#666666" points="143.5,-32 0,-32 0,0 143.5,0 143.5,-32"/>
<text xml:space="preserve" text-anchor="start" x="8" y="-18.5" font-family="Helvetica,sans-Serif" font-size="10.00">SDL&#45;main/src/dialog</text>
<text xml:space="preserve" text-anchor="middle" x="71.75" y="-6.5" font-family="Helvetica,sans-Serif" font-size="10.00">/android/SDL_androiddialog.c</text>
</a>
</g>
</g>
<!-- Node1&#45;&gt;Node2 -->
<g id="edge1_Node000001_Node000002" class="edge">
<title>Node1&#45;&gt;Node2</title>
<g id="a_edge1_Node000001_Node000002"><a xlink:title=" ">
<path fill="none" stroke="#63b8ff" d="M271.91,-64.86C229.45,-54.71 177.06,-42.18 136.53,-32.49"/>
<polygon fill="#63b8ff" stroke="#63b8ff" points="271.03,-68.25 281.57,-67.17 272.66,-61.44 271.03,-68.25"/>
</a>
</g>
</g>
<!-- Node3 -->
<g id="Node000003" class="node">
<title>Node3</title>
<g id="a_Node000003"><a xlink:href="../../d2/d5c/hid_8cpp.html" target="_top" xlink:title=" ">
<polygon fill="white" stroke="#666666" points="266,-32 161.5,-32 161.5,0 266,0 266,-32"/>
<text xml:space="preserve" text-anchor="start" x="169.5" y="-18.5" font-family="Helvetica,sans-Serif" font-size="10.00">SDL&#45;main/src/hidapi</text>
<text xml:space="preserve" text-anchor="middle" x="213.75" y="-6.5" font-family="Helvetica,sans-Serif" font-size="10.00">/android/hid.cpp</text>
</a>
</g>
</g>
<!-- Node1&#45;&gt;Node3 -->
<g id="edge2_Node000001_Node000003" class="edge">
<title>Node1&#45;&gt;Node3</title>
<g id="a_edge2_Node000001_Node000003"><a xlink:title=" ">
<path fill="none" stroke="#63b8ff" d="M306.07,-62.47C286.34,-52.75 263.16,-41.34 244.97,-32.38"/>
<polygon fill="#63b8ff" stroke="#63b8ff" points="304.46,-65.58 314.98,-66.86 307.55,-59.3 304.46,-65.58"/>
</a>
</g>
</g>
<!-- Node4 -->
<g id="Node000004" class="node">
<title>Node4</title>
<g id="a_Node000004"><a xlink:href="../../d7/dc1/android_2SDL__syslocale_8c.html" target="_top" xlink:title=" ">
<polygon fill="white" stroke="#666666" points="411.62,-32 283.88,-32 283.88,0 411.62,0 411.62,-32"/>
<text xml:space="preserve" text-anchor="start" x="291.88" y="-18.5" font-family="Helvetica,sans-Serif" font-size="10.00">SDL&#45;main/src/locale</text>
<text xml:space="preserve" text-anchor="middle" x="347.75" y="-6.5" font-family="Helvetica,sans-Serif" font-size="10.00">/android/SDL_syslocale.c</text>
</a>
</g>
</g>
<!-- Node1&#45;&gt;Node4 -->
<g id="edge3_Node000001_Node000004" class="edge">
<title>Node1&#45;&gt;Node4</title>
<g id="a_edge3_Node000001_Node000004"><a xlink:title=" ">
<path fill="none" stroke="#63b8ff" d="M347.75,-56.31C347.75,-48.12 347.75,-39.38 347.75,-32.22"/>
<polygon fill="#63b8ff" stroke="#63b8ff" points="344.25,-56.18 347.75,-66.18 351.25,-56.18 344.25,-56.18"/>
</a>
</g>
</g>
<!-- Node5 -->
<g id="Node000005" class="node">
<title>Node5</title>
<g id="a_Node000005"><a xlink:href="../../d5/d1d/android_2SDL__sysurl_8c.html" target="_top" xlink:title=" ">
<polygon fill="white" stroke="#666666" points="564,-32 429.5,-32 429.5,0 564,0 564,-32"/>
<text xml:space="preserve" text-anchor="start" x="437.5" y="-18.5" font-family="Helvetica,sans-Serif" font-size="10.00">SDL&#45;main/src/misc/android</text>
<text xml:space="preserve" text-anchor="middle" x="496.75" y="-6.5" font-family="Helvetica,sans-Serif" font-size="10.00">/SDL_sysurl.c</text>
</a>
</g>
</g>
<!-- Node1&#45;&gt;Node5 -->
<g id="edge4_Node000001_Node000005" class="edge">
<title>Node1&#45;&gt;Node5</title>
<g id="a_edge4_Node000001_Node000005"><a xlink:title=" ">
<path fill="none" stroke="#63b8ff" d="M393.14,-62.89C415.2,-53.12 441.29,-41.56 461.78,-32.49"/>
<polygon fill="#63b8ff" stroke="#63b8ff" points="391.79,-59.66 384.07,-66.91 394.63,-66.06 391.79,-59.66"/>
</a>
</g>
</g>
<!-- Node6 -->
<g id="Node000006" class="node">
<title>Node6</title>
<g id="a_Node000006"><a xlink:href="../../d3/d27/SDL__androidwindow_8h.html" target="_top" xlink:title=" ">
<polygon fill="white" stroke="#666666" points="731.88,-32 581.62,-32 581.62,0 731.88,0 731.88,-32"/>
<text xml:space="preserve" text-anchor="start" x="589.62" y="-18.5" font-family="Helvetica,sans-Serif" font-size="10.00">SDL&#45;main/src/video</text>
<text xml:space="preserve" text-anchor="middle" x="656.75" y="-6.5" font-family="Helvetica,sans-Serif" font-size="10.00">/android/SDL_androidwindow.h</text>
</a>
</g>
</g>
<!-- Node1&#45;&gt;Node6 -->
<g id="edge5_Node000001_Node000006" class="edge">
<title>Node1&#45;&gt;Node6</title>
<g id="a_edge5_Node000001_Node000006"><a xlink:title=" ">
<path fill="none" stroke="#63b8ff" d="M425.18,-66.46C473.98,-56.04 536.56,-42.67 584.37,-32.46"/>
<polygon fill="#63b8ff" stroke="#63b8ff" points="424.57,-63.01 415.52,-68.53 426.03,-69.86 424.57,-63.01"/>
</a>
</g>
</g>
</g>
</svg>
