<?xml version="1.0" encoding="UTF-8" standalone="no"?>
<!DOCTYPE svg PUBLIC "-//W3C//DTD SVG 1.1//EN"
 "http://www.w3.org/Graphics/SVG/1.1/DTD/svg11.dtd">
<!-- Generated by graphviz version 13.1.0 (20250701.0955)
 -->
<!-- Title: SDL&#45;main/include/SDL3/SDL_opengles.h Pages: 1 -->
<svg width="329pt" height="96pt"
 viewBox="0.00 0.00 329.00 96.00" xmlns="http://www.w3.org/2000/svg" xmlns:xlink="http://www.w3.org/1999/xlink">
<g id="graph0" class="graph" transform="scale(1 1) rotate(0) translate(4 92)">
<title>SDL&#45;main/include/SDL3/SDL_opengles.h</title>
<!-- Node1 -->
<g id="Node000001" class="node">
<title>Node1</title>
<g id="a_Node000001"><a xlink:title=" ">
<polygon fill="#999999" stroke="#666666" points="257.88,-88 136.88,-88 136.88,-56 257.88,-56 257.88,-88"/>
<text xml:space="preserve" text-anchor="start" x="144.88" y="-74.5" font-family="Helvetica,sans-Serif" font-size="10.00">SDL&#45;main/include/SDL3</text>
<text xml:space="preserve" text-anchor="middle" x="197.38" y="-62.5" font-family="Helvetica,sans-Serif" font-size="10.00">/SDL_opengles.h</text>
</a>
</g>
</g>
<!-- Node2 -->
<g id="Node000002" class="node">
<title>Node2</title>
<g id="a_Node000002"><a xlink:href="../../d3/d8b/SDL__platform__defines_8h.html" target="_top" xlink:title=" ">
<polygon fill="white" stroke="#666666" points="148.75,-20 0,-20 0,0 148.75,0 148.75,-20"/>
<text xml:space="preserve" text-anchor="middle" x="74.38" y="-6.5" font-family="Helvetica,sans-Serif" font-size="10.00">SDL3/SDL_platform_defines.h</text>
</a>
</g>
</g>
<!-- Node1&#45;&gt;Node2 -->
<g id="edge1_Node000001_Node000002" class="edge">
<title>Node1&#45;&gt;Node2</title>
<g id="a_edge1_Node000001_Node000002"><a xlink:title=" ">
<path fill="none" stroke="#63b8ff" d="M165.7,-55.55C146.66,-46.26 122.59,-34.52 103.94,-25.42"/>
<polygon fill="#63b8ff" stroke="#63b8ff" points="105.54,-22.31 95.02,-21.07 102.47,-28.6 105.54,-22.31"/>
</a>
</g>
</g>
<!-- Node3 -->
<g id="Node000003" class="node">
<title>Node3</title>
<g id="a_Node000003"><a xlink:title=" ">
<polygon fill="#e0e0e0" stroke="#999999" points="227.88,-20 166.88,-20 166.88,0 227.88,0 227.88,-20"/>
<text xml:space="preserve" text-anchor="middle" x="197.38" y="-6.5" font-family="Helvetica,sans-Serif" font-size="10.00">GLES/gl.h</text>
</a>
</g>
</g>
<!-- Node1&#45;&gt;Node3 -->
<g id="edge2_Node000001_Node000003" class="edge">
<title>Node1&#45;&gt;Node3</title>
<g id="a_edge2_Node000001_Node000003"><a xlink:title=" ">
<path fill="none" stroke="#63b8ff" d="M197.38,-55.55C197.38,-48.34 197.38,-39.66 197.38,-31.88"/>
<polygon fill="#63b8ff" stroke="#63b8ff" points="200.88,-31.92 197.38,-21.92 193.88,-31.92 200.88,-31.92"/>
</a>
</g>
</g>
<!-- Node4 -->
<g id="Node000004" class="node">
<title>Node4</title>
<g id="a_Node000004"><a xlink:title=" ">
<polygon fill="#e0e0e0" stroke="#999999" points="320.62,-20 246.12,-20 246.12,0 320.62,0 320.62,-20"/>
<text xml:space="preserve" text-anchor="middle" x="283.38" y="-6.5" font-family="Helvetica,sans-Serif" font-size="10.00">GLES/glext.h</text>
</a>
</g>
</g>
<!-- Node1&#45;&gt;Node4 -->
<g id="edge3_Node000001_Node000004" class="edge">
<title>Node1&#45;&gt;Node4</title>
<g id="a_edge3_Node000001_Node000004"><a xlink:title=" ">
<path fill="none" stroke="#63b8ff" d="M219.52,-55.55C232.09,-46.78 247.79,-35.83 260.48,-26.97"/>
<polygon fill="#63b8ff" stroke="#63b8ff" points="262.45,-29.87 268.65,-21.27 258.44,-24.13 262.45,-29.87"/>
</a>
</g>
</g>
</g>
</svg>
