<?xml version="1.0" encoding="UTF-8" standalone="no"?>
<!DOCTYPE svg PUBLIC "-//W3C//DTD SVG 1.1//EN"
 "http://www.w3.org/Graphics/SVG/1.1/DTD/svg11.dtd">
<!-- Generated by graphviz version 13.1.0 (20250701.0955)
 -->
<!-- Title: StdVideoH265SequenceParameterSetVui Pages: 1 -->
<svg width="423pt" height="204pt"
 viewBox="0.00 0.00 423.00 204.00" xmlns="http://www.w3.org/2000/svg" xmlns:xlink="http://www.w3.org/1999/xlink">
<g id="graph0" class="graph" transform="scale(1 1) rotate(0) translate(4 200)">
<title>StdVideoH265SequenceParameterSetVui</title>
<!-- Node1 -->
<g id="Node000001" class="node">
<title>Node1</title>
<g id="a_Node000001"><a xlink:title=" ">
<polygon fill="#999999" stroke="#666666" points="175.62,-32 8.12,-32 8.12,0 175.62,0 175.62,-32"/>
<text xml:space="preserve" text-anchor="start" x="16.12" y="-18.5" font-family="Helvetica,sans-Serif" font-size="10.00">StdVideoH265SequenceParameter</text>
<text xml:space="preserve" text-anchor="middle" x="91.88" y="-6.5" font-family="Helvetica,sans-Serif" font-size="10.00">SetVui</text>
</a>
</g>
</g>
<!-- Node2 -->
<g id="Node000002" class="node">
<title>Node2</title>
<g id="a_Node000002"><a xlink:href="../../d9/ddf/structStdVideoH265SpsVuiFlags.html" target="_top" xlink:title=" ">
<polygon fill="white" stroke="#666666" points="133.75,-106 0,-106 0,-86 133.75,-86 133.75,-106"/>
<text xml:space="preserve" text-anchor="middle" x="66.88" y="-92.5" font-family="Helvetica,sans-Serif" font-size="10.00">StdVideoH265SpsVuiFlags</text>
</a>
</g>
</g>
<!-- Node2&#45;&gt;Node1 -->
<g id="edge1_Node000001_Node000002" class="edge">
<title>Node2&#45;&gt;Node1</title>
<g id="a_edge1_Node000001_Node000002"><a xlink:title=" ">
<path fill="none" stroke="#9a32cd" stroke-dasharray="5,2" d="M73.31,-74.91C77.56,-61.67 83.03,-44.59 86.93,-32.42"/>
<polygon fill="#9a32cd" stroke="#9a32cd" points="70.02,-73.71 70.3,-84.3 76.69,-75.85 70.02,-73.71"/>
</a>
</g>
<text xml:space="preserve" text-anchor="start" x="83.87" y="-55.5" font-family="Helvetica,sans-Serif" font-size="10.00" fill="grey">flags</text>
</g>
<!-- Node3 -->
<g id="Node000003" class="node">
<title>Node3</title>
<g id="a_Node000003"><a xlink:href="../../d5/df7/structStdVideoH265HrdParameters.html" target="_top" xlink:title=" ">
<polygon fill="white" stroke="#666666" points="296.38,-106 151.38,-106 151.38,-86 296.38,-86 296.38,-106"/>
<text xml:space="preserve" text-anchor="middle" x="223.88" y="-92.5" font-family="Helvetica,sans-Serif" font-size="10.00">StdVideoH265HrdParameters</text>
</a>
</g>
</g>
<!-- Node3&#45;&gt;Node1 -->
<g id="edge2_Node000001_Node000003" class="edge">
<title>Node3&#45;&gt;Node1</title>
<g id="a_edge2_Node000001_Node000003"><a xlink:title=" ">
<path fill="none" stroke="#9a32cd" stroke-dasharray="5,2" d="M198.14,-79.79C174.97,-66.1 141.09,-46.08 117.85,-32.35"/>
<polygon fill="#9a32cd" stroke="#9a32cd" points="196.26,-82.75 206.65,-84.82 199.82,-76.72 196.26,-82.75"/>
</a>
</g>
<text xml:space="preserve" text-anchor="start" x="180.41" y="-55.5" font-family="Helvetica,sans-Serif" font-size="10.00" fill="grey">pHrdParameters</text>
</g>
<!-- Node4 -->
<g id="Node000004" class="node">
<title>Node4</title>
<g id="a_Node000004"><a xlink:href="../../de/d1f/structStdVideoH265HrdFlags.html" target="_top" xlink:title=" ">
<polygon fill="white" stroke="#666666" points="197.25,-196 78.5,-196 78.5,-176 197.25,-176 197.25,-196"/>
<text xml:space="preserve" text-anchor="middle" x="137.88" y="-182.5" font-family="Helvetica,sans-Serif" font-size="10.00">StdVideoH265HrdFlags</text>
</a>
</g>
</g>
<!-- Node4&#45;&gt;Node3 -->
<g id="edge3_Node000003_Node000004" class="edge">
<title>Node4&#45;&gt;Node3</title>
<g id="a_edge3_Node000003_Node000004"><a xlink:title=" ">
<path fill="none" stroke="#9a32cd" stroke-dasharray="5,2" d="M155.03,-167.44C173.01,-149.05 200.55,-120.86 214.74,-106.35"/>
<polygon fill="#9a32cd" stroke="#9a32cd" points="152.62,-164.9 148.14,-174.5 157.63,-169.79 152.62,-164.9"/>
</a>
</g>
<text xml:space="preserve" text-anchor="start" x="199.06" y="-137.5" font-family="Helvetica,sans-Serif" font-size="10.00" fill="grey">flags</text>
</g>
<!-- Node5 -->
<g id="Node000005" class="node">
<title>Node5</title>
<g id="a_Node000005"><a xlink:href="../../d6/d8a/structStdVideoH265SubLayerHrdParameters.html" target="_top" xlink:title=" ">
<polygon fill="white" stroke="#666666" points="402,-196 215.75,-196 215.75,-176 402,-176 402,-196"/>
<text xml:space="preserve" text-anchor="middle" x="308.88" y="-182.5" font-family="Helvetica,sans-Serif" font-size="10.00">StdVideoH265SubLayerHrdParameters</text>
</a>
</g>
</g>
<!-- Node5&#45;&gt;Node3 -->
<g id="edge4_Node000003_Node000005" class="edge">
<title>Node5&#45;&gt;Node3</title>
<g id="a_edge4_Node000003_Node000005"><a xlink:title=" ">
<path fill="none" stroke="#9a32cd" stroke-dasharray="5,2" d="M291.92,-167.44C274.15,-149.05 246.92,-120.86 232.91,-106.35"/>
<polygon fill="#9a32cd" stroke="#9a32cd" points="289.26,-169.73 298.73,-174.49 294.3,-164.87 289.26,-169.73"/>
</a>
</g>
<text xml:space="preserve" text-anchor="start" x="284.38" y="-145.5" font-family="Helvetica,sans-Serif" font-size="10.00" fill="grey">pSubLayerHrdParametersNal</text>
<text xml:space="preserve" text-anchor="start" x="284.38" y="-129.5" font-family="Helvetica,sans-Serif" font-size="10.00" fill="grey">pSubLayerHrdParametersVcl</text>
</g>
</g>
</svg>
