<?xml version="1.0" encoding="UTF-8" standalone="no"?>
<!DOCTYPE svg PUBLIC "-//W3C//DTD SVG 1.1//EN"
 "http://www.w3.org/Graphics/SVG/1.1/DTD/svg11.dtd">
<!-- Generated by graphviz version 13.1.0 (20250701.0955)
 -->
<!-- Title: SDL_GetResampleRate Pages: 1 -->
<!--zoomable 211 -->

<svg id="main" version="1.1" xmlns="http://www.w3.org/2000/svg" xmlns:xlink="http://www.w3.org/1999/xlink" xml:space="preserve" onload="init(evt)">

<style type="text/css"><![CDATA[
.node, .edge {opacity: 0.7;}
.node.selected, .edge.selected {opacity: 1;}
.edge:hover path { stroke: red; }
.edge:hover polygon { stroke: red; fill: red; }
]]></style>

<defs>
  <circle id="rim" cx="0" cy="0" r="7"/>
  <circle id="rim2" cx="0" cy="0" r="3.5"/>
  <g id="zoomPlus">
    <use xlink:href="#rim" fill="#404040"><set attributeName="fill" to="#808080" begin="zoomplus.mouseover" end="zoomplus.mouseout"/></use>
    <path d="M-4,0h8M0,-4v8" fill="none" stroke="white" stroke-width="1.5" pointer-events="none"/>
  </g>
  <g id="zoomMin">
    <use xlink:href="#rim" fill="#404040"><set attributeName="fill" to="#808080" begin="zoomminus.mouseover" end="zoomminus.mouseout"/></use>
    <path d="M-4,0h8" fill="none" stroke="white" stroke-width="1.5" pointer-events="none"/>
  </g>
  <g id="arrowUp" transform="translate(30 24)">
    <use xlink:href="#rim"/>
    <path pointer-events="none" fill="none" stroke="white" stroke-width="1.5" d="M0,-3.0v7 M-2.5,-0.5L0,-3.0L2.5,-0.5"/>
  </g>
  <g id="arrowRight" transform="rotate(90) translate(36 -43)">
    <use xlink:href="#rim"/>
    <path pointer-events="none" fill="none" stroke="white" stroke-width="1.5" d="M0,-3.0v7 M-2.5,-0.5L0,-3.0L2.5,-0.5"/>
  </g>
  <g id="arrowDown" transform="rotate(180) translate(-30 -48)">
    <use xlink:href="#rim"/>
    <path pointer-events="none" fill="none" stroke="white" stroke-width="1.5" d="M0,-3.0v7 M-2.5,-0.5L0,-3.0L2.5,-0.5"/>
  </g>
  <g id="arrowLeft" transform="rotate(270) translate(-36 17)">
    <use xlink:href="#rim"/>
    <path pointer-events="none" fill="none" stroke="white" stroke-width="1.5" d="M0,-3.0v7 M-2.5,-0.5L0,-3.0L2.5,-0.5"/>
  </g>
  <g id="resetDef">
    <use xlink:href="#rim2" fill="#404040"><set attributeName="fill" to="#808080" begin="reset.mouseover" end="reset.mouseout"/></use>
  </g>
</defs>
<script type="application/ecmascript">
var viewWidth = 2405;
var viewHeight = 211;
var sectionId = 'dynsection-2';
</script>
<script type="application/ecmascript" xlink:href="../../svg.min.js"/>
<svg id="graph" class="graph">
<g id="viewport">
<title>SDL_GetResampleRate</title>
<!-- Node1 -->
<g id="Node000001" class="node">
<title>Node1</title>
<g id="a_Node000001"><a xlink:title=" ">
<polygon fill="#999999" stroke="#666666" points="2397.25,-187 2275.5,-187 2275.5,-167 2397.25,-167 2397.25,-187"/>
<text xml:space="preserve" text-anchor="middle" x="2336.38" y="-173.5" font-family="Helvetica,sans-Serif" font-size="10.00">SDL_GetResampleRate</text>
</a>
</g>
</g>
<!-- Node2 -->
<g id="Node000002" class="node">
<title>Node2</title>
<g id="a_Node000002"><a xlink:href="../../dc/d77/SDL__audiocvt_8c.html#a84a00bb17f8d27b12034ac07059e0523" target="_top" xlink:title=" ">
<polygon fill="white" stroke="#666666" points="2239.5,-187 2086.25,-187 2086.25,-167 2239.5,-167 2239.5,-187"/>
<text xml:space="preserve" text-anchor="middle" x="2162.88" y="-173.5" font-family="Helvetica,sans-Serif" font-size="10.00">GetAudioStreamResampleRate</text>
</a>
</g>
</g>
<!-- Node1&#45;&gt;Node2 -->
<g id="edge1_Node000001_Node000002" class="edge">
<title>Node1&#45;&gt;Node2</title>
<g id="a_edge1_Node000001_Node000002"><a xlink:title=" ">
<path fill="none" stroke="#63b8ff" d="M2263.89,-177C2255.94,-177 2247.81,-177 2239.8,-177"/>
<polygon fill="#63b8ff" stroke="#63b8ff" points="2263.88,-180.5 2273.88,-177 2263.88,-173.5 2263.88,-180.5"/>
</a>
</g>
</g>
<!-- Node3 -->
<g id="Node000003" class="node">
<title>Node3</title>
<g id="a_Node000003"><a xlink:href="../../dc/d77/SDL__audiocvt_8c.html#a6f6db364185a283949ea41d5e754cc54" target="_top" xlink:title=" ">
<polygon fill="white" stroke="#666666" points="2050.25,-187 1909,-187 1909,-167 2050.25,-167 2050.25,-187"/>
<text xml:space="preserve" text-anchor="middle" x="1979.62" y="-173.5" font-family="Helvetica,sans-Serif" font-size="10.00">GetAudioStreamDataInternal</text>
</a>
</g>
</g>
<!-- Node2&#45;&gt;Node3 -->
<g id="edge2_Node000002_Node000003" class="edge">
<title>Node2&#45;&gt;Node3</title>
<g id="a_edge2_Node000002_Node000003"><a xlink:title=" ">
<path fill="none" stroke="#63b8ff" d="M2074.55,-177C2066.56,-177 2058.54,-177 2050.73,-177"/>
<polygon fill="#63b8ff" stroke="#63b8ff" points="2074.28,-180.5 2084.28,-177 2074.28,-173.5 2074.28,-180.5"/>
</a>
</g>
</g>
<!-- Node4 -->
<g id="Node000004" class="node">
<title>Node4</title>
<g id="a_Node000004"><a xlink:href="../../dc/d77/SDL__audiocvt_8c.html#a3ba5e9e434f54078c84d9a1469d44fea" target="_top" xlink:title=" ">
<polygon fill="white" stroke="#666666" points="1676.25,-168 1494.5,-168 1494.5,-148 1676.25,-148 1676.25,-168"/>
<text xml:space="preserve" text-anchor="middle" x="1585.38" y="-154.5" font-family="Helvetica,sans-Serif" font-size="10.00">SDL_GetAudioStreamDataAdjustGain</text>
</a>
</g>
</g>
<!-- Node2&#45;&gt;Node4 -->
<g id="edge32_Node000002_Node000004" class="edge">
<title>Node2&#45;&gt;Node4</title>
<g id="a_edge32_Node000002_Node000004"><a xlink:title=" ">
<path fill="none" stroke="#63b8ff" d="M2100.28,-189.39C2084.08,-192.13 2066.56,-194.62 2050.25,-196 1900.43,-208.66 1861.34,-201.45 1712.25,-182 1686.22,-178.6 1657.44,-173.24 1633.98,-168.44"/>
<polygon fill="#63b8ff" stroke="#63b8ff" points="2100.52,-192.9 2109.77,-187.73 2099.32,-186.01 2100.52,-192.9"/>
</a>
</g>
</g>
<!-- Node15 -->
<g id="Node000015" class="node">
<title>Node15</title>
<g id="a_Node000015"><a xlink:href="../../dc/d77/SDL__audiocvt_8c.html#a24cc90df57e6ff3051c07285b91236f3" target="_top" xlink:title=" ">
<polygon fill="white" stroke="#666666" points="2033.38,-149 1925.88,-149 1925.88,-129 2033.38,-129 2033.38,-149"/>
<text xml:space="preserve" text-anchor="middle" x="1979.62" y="-135.5" font-family="Helvetica,sans-Serif" font-size="10.00">NextAudioStreamIter</text>
</a>
</g>
</g>
<!-- Node2&#45;&gt;Node15 -->
<g id="edge14_Node000002_Node000015" class="edge">
<title>Node2&#45;&gt;Node15</title>
<g id="a_edge14_Node000002_Node000015"><a xlink:title=" ">
<path fill="none" stroke="#63b8ff" d="M2100.88,-164.21C2077.98,-159.41 2052.24,-154.01 2030.47,-149.45"/>
<polygon fill="#63b8ff" stroke="#63b8ff" points="2099.88,-167.58 2110.39,-166.21 2101.32,-160.73 2099.88,-167.58"/>
</a>
</g>
</g>
<!-- Node3&#45;&gt;Node4 -->
<g id="edge3_Node000003_Node000004" class="edge">
<title>Node3&#45;&gt;Node4</title>
<g id="a_edge3_Node000003_Node000004"><a xlink:title=" ">
<path fill="none" stroke="#63b8ff" d="M1897.64,-173.08C1833.22,-169.96 1743.14,-165.59 1676.45,-162.36"/>
<polygon fill="#63b8ff" stroke="#63b8ff" points="1897.28,-176.56 1907.44,-173.55 1897.62,-169.57 1897.28,-176.56"/>
</a>
</g>
</g>
<!-- Node5 -->
<g id="Node000005" class="node">
<title>Node5</title>
<g id="a_Node000005"><a xlink:href="../../dc/d77/SDL__audiocvt_8c.html#a2cb08c5a71b1cb8d4fb4e1d4d3e8f9d6" target="_top" xlink:title=" ">
<polygon fill="white" stroke="#666666" points="1277.5,-159 1143.75,-159 1143.75,-139 1277.5,-139 1277.5,-159"/>
<text xml:space="preserve" text-anchor="middle" x="1210.62" y="-145.5" font-family="Helvetica,sans-Serif" font-size="10.00">SDL_GetAudioStreamData</text>
</a>
</g>
</g>
<!-- Node4&#45;&gt;Node5 -->
<g id="edge4_Node000004_Node000005" class="edge">
<title>Node4&#45;&gt;Node5</title>
<g id="a_edge4_Node000004_Node000005"><a xlink:title=" ">
<path fill="none" stroke="#63b8ff" d="M1483.01,-155.55C1417.78,-153.98 1334.87,-151.98 1277.95,-150.6"/>
<polygon fill="#63b8ff" stroke="#63b8ff" points="1482.55,-159.04 1492.63,-155.78 1482.72,-152.04 1482.55,-159.04"/>
</a>
</g>
</g>
<!-- Node7 -->
<g id="Node000007" class="node">
<title>Node7</title>
<g id="a_Node000007"><a xlink:href="../../d6/d9b/SDL__audio_8c.html#a8768a1f42de2a99b41a2fe823cc04720" target="_top" xlink:title=" ">
<polygon fill="white" stroke="#666666" points="902.75,-159 739,-159 739,-139 902.75,-139 902.75,-159"/>
<text xml:space="preserve" text-anchor="middle" x="820.88" y="-145.5" font-family="Helvetica,sans-Serif" font-size="10.00">SDL_PlaybackAudioThreadIterate</text>
</a>
</g>
</g>
<!-- Node4&#45;&gt;Node7 -->
<g id="edge6_Node000004_Node000007" class="edge">
<title>Node4&#45;&gt;Node7</title>
<g id="a_edge6_Node000004_Node000007"><a xlink:title=" ">
<path fill="none" stroke="#63b8ff" d="M1483.03,-165.83C1474.73,-166.29 1466.48,-166.69 1458.5,-167 1318.71,-172.38 1283.58,-172.12 1143.75,-168 1061.78,-165.58 968.21,-159.71 903.17,-155.13"/>
<polygon fill="#63b8ff" stroke="#63b8ff" points="1483.05,-169.33 1492.83,-165.25 1482.64,-162.34 1483.05,-169.33"/>
</a>
</g>
</g>
<!-- Node6 -->
<g id="Node000006" class="node">
<title>Node6</title>
<g id="a_Node000006"><a xlink:href="../../dc/d77/SDL__audiocvt_8c.html#a90af0e041cebdc41c97e4f30cfdcf01a" target="_top" xlink:title=" ">
<polygon fill="white" stroke="#666666" points="890,-121 751.75,-121 751.75,-101 890,-101 890,-121"/>
<text xml:space="preserve" text-anchor="middle" x="820.88" y="-107.5" font-family="Helvetica,sans-Serif" font-size="10.00">SDL_ConvertAudioSamples</text>
</a>
</g>
</g>
<!-- Node5&#45;&gt;Node6 -->
<g id="edge5_Node000005_Node000006" class="edge">
<title>Node5&#45;&gt;Node6</title>
<g id="a_edge5_Node000005_Node000006"><a xlink:title=" ">
<path fill="none" stroke="#63b8ff" d="M1132.08,-142.77C1077.88,-138.26 1003.85,-131.78 938.75,-125 923.1,-123.37 906.29,-121.45 890.43,-119.57"/>
<polygon fill="#63b8ff" stroke="#63b8ff" points="1131.57,-146.24 1141.83,-143.58 1132.15,-139.26 1131.57,-146.24"/>
</a>
</g>
</g>
<!-- Node8 -->
<g id="Node000008" class="node">
<title>Node8</title>
<g id="a_Node000008"><a xlink:href="../../d3/d8a/SDL__dummyaudio_8c.html#a954b1d30669ef0d1b5d4615515c94498" target="_top" xlink:title=" ">
<polygon fill="white" stroke="#666666" points="703,-80 558,-80 558,-60 703,-60 703,-80"/>
<text xml:space="preserve" text-anchor="middle" x="630.5" y="-66.5" font-family="Helvetica,sans-Serif" font-size="10.00">DUMMYAUDIO_OpenDevice</text>
</a>
</g>
</g>
<!-- Node7&#45;&gt;Node8 -->
<g id="edge7_Node000007_Node000008" class="edge">
<title>Node7&#45;&gt;Node8</title>
<g id="a_edge7_Node000007_Node000008"><a xlink:title=" ">
<path fill="none" stroke="#63b8ff" d="M746.76,-134.14C744.09,-132.87 741.49,-131.49 739,-130 718.21,-117.52 723.61,-101.78 703,-89 697.43,-85.55 691.25,-82.72 684.91,-80.4"/>
<polygon fill="#63b8ff" stroke="#63b8ff" points="745.4,-137.36 755.98,-137.94 748.07,-130.89 745.4,-137.36"/>
</a>
</g>
</g>
<!-- Node10 -->
<g id="Node000010" class="node">
<title>Node10</title>
<g id="a_Node000010"><a xlink:href="../../d6/d9b/SDL__audio_8c.html#a3473ee34d8a21ca17ce7dc8be4d62295" target="_top" xlink:title=" ">
<polygon fill="white" stroke="#666666" points="686.12,-157 574.88,-157 574.88,-137 686.12,-137 686.12,-157"/>
<text xml:space="preserve" text-anchor="middle" x="630.5" y="-143.5" font-family="Helvetica,sans-Serif" font-size="10.00">PlaybackAudioThread</text>
</a>
</g>
</g>
<!-- Node7&#45;&gt;Node10 -->
<g id="edge9_Node000007_Node000010" class="edge">
<title>Node7&#45;&gt;Node10</title>
<g id="a_edge9_Node000007_Node000010"><a xlink:title=" ">
<path fill="none" stroke="#63b8ff" d="M727.41,-148.02C713.38,-147.87 699.31,-147.72 686.43,-147.58"/>
<polygon fill="#63b8ff" stroke="#63b8ff" points="727.07,-151.51 737.11,-148.12 727.14,-144.52 727.07,-151.51"/>
</a>
</g>
</g>
<!-- Node9 -->
<g id="Node000009" class="node">
<title>Node9</title>
<g id="a_Node000009"><a xlink:href="../../d3/d8a/SDL__dummyaudio_8c.html#a29ca48806a568f46e322654ffd7271ab" target="_top" xlink:title=" ">
<polygon fill="white" stroke="#666666" points="508.12,-80 403.62,-80 403.62,-60 508.12,-60 508.12,-80"/>
<text xml:space="preserve" text-anchor="middle" x="455.88" y="-66.5" font-family="Helvetica,sans-Serif" font-size="10.00">DUMMYAUDIO_Init</text>
</a>
</g>
</g>
<!-- Node8&#45;&gt;Node9 -->
<g id="edge8_Node000008_Node000009" class="edge">
<title>Node8&#45;&gt;Node9</title>
<g id="a_edge8_Node000008_Node000009"><a xlink:title=" ">
<path fill="none" stroke="#63b8ff" d="M546.44,-70C533.45,-70 520.37,-70 508.37,-70"/>
<polygon fill="#63b8ff" stroke="#63b8ff" points="546.28,-73.5 556.28,-70 546.28,-66.5 546.28,-73.5"/>
</a>
</g>
</g>
<!-- Node11 -->
<g id="Node000011" class="node">
<title>Node11</title>
<g id="a_Node000011"><a xlink:href="../../d6/d9b/SDL__audio_8c.html#a67d5d3273196908cd2180bde093c413d" target="_top" xlink:title=" ">
<polygon fill="white" stroke="#666666" points="522,-137 389.75,-137 389.75,-117 522,-117 522,-137"/>
<text xml:space="preserve" text-anchor="middle" x="455.88" y="-123.5" font-family="Helvetica,sans-Serif" font-size="10.00">OpenPhysicalAudioDevice</text>
</a>
</g>
</g>
<!-- Node10&#45;&gt;Node11 -->
<g id="edge10_Node000010_Node000011" class="edge">
<title>Node10&#45;&gt;Node11</title>
<g id="a_edge10_Node000010_Node000011"><a xlink:title=" ">
<path fill="none" stroke="#63b8ff" d="M563.3,-139.33C549.86,-137.77 535.72,-136.13 522.3,-134.58"/>
<polygon fill="#63b8ff" stroke="#63b8ff" points="562.57,-142.77 572.9,-140.44 563.37,-135.81 562.57,-142.77"/>
</a>
</g>
</g>
<!-- Node12 -->
<g id="Node000012" class="node">
<title>Node12</title>
<g id="a_Node000012"><a xlink:href="../../d6/d9b/SDL__audio_8c.html#ad4cae8cf429411be160ec61914b28043" target="_top" xlink:title=" ">
<polygon fill="white" stroke="#666666" points="353.75,-156 187,-156 187,-136 353.75,-136 353.75,-156"/>
<text xml:space="preserve" text-anchor="middle" x="270.38" y="-142.5" font-family="Helvetica,sans-Serif" font-size="10.00">SDL_DefaultAudioDeviceChanged</text>
</a>
</g>
</g>
<!-- Node11&#45;&gt;Node12 -->
<g id="edge11_Node000011_Node000012" class="edge">
<title>Node11&#45;&gt;Node12</title>
<g id="a_edge11_Node000011_Node000012"><a xlink:title=" ">
<path fill="none" stroke="#63b8ff" d="M377.99,-134.96C370.11,-135.78 362.08,-136.61 354.14,-137.43"/>
<polygon fill="#63b8ff" stroke="#63b8ff" points="378.31,-138.45 387.9,-133.93 377.59,-131.48 378.31,-138.45"/>
</a>
</g>
</g>
<!-- Node13 -->
<g id="Node000013" class="node">
<title>Node13</title>
<g id="a_Node000013"><a xlink:href="../../d6/d9b/SDL__audio_8c.html#ad4a998b0fa52004c6db6b4182de26f8c" target="_top" xlink:title=" ">
<polygon fill="white" stroke="#666666" points="330.12,-118 210.62,-118 210.62,-98 330.12,-98 330.12,-118"/>
<text xml:space="preserve" text-anchor="middle" x="270.38" y="-104.5" font-family="Helvetica,sans-Serif" font-size="10.00">SDL_OpenAudioDevice</text>
</a>
</g>
</g>
<!-- Node11&#45;&gt;Node13 -->
<g id="edge12_Node000011_Node000013" class="edge">
<title>Node11&#45;&gt;Node13</title>
<g id="a_edge12_Node000011_Node000013"><a xlink:title=" ">
<path fill="none" stroke="#63b8ff" d="M377.96,-119.04C362.06,-117.39 345.55,-115.68 330.41,-114.11"/>
<polygon fill="#63b8ff" stroke="#63b8ff" points="377.59,-122.52 387.9,-120.07 378.31,-115.55 377.59,-122.52"/>
</a>
</g>
</g>
<!-- Node14 -->
<g id="Node000014" class="node">
<title>Node14</title>
<g id="a_Node000014"><a xlink:href="../../d6/d9b/SDL__audio_8c.html#a73ac117b5e299633d58be618680af357" target="_top" xlink:title=" ">
<polygon fill="white" stroke="#666666" points="151,-118 0,-118 0,-98 151,-98 151,-118"/>
<text xml:space="preserve" text-anchor="middle" x="75.5" y="-104.5" font-family="Helvetica,sans-Serif" font-size="10.00">SDL_OpenAudioDeviceStream</text>
</a>
</g>
</g>
<!-- Node13&#45;&gt;Node14 -->
<g id="edge13_Node000013_Node000014" class="edge">
<title>Node13&#45;&gt;Node14</title>
<g id="a_edge13_Node000013_Node000014"><a xlink:title=" ">
<path fill="none" stroke="#63b8ff" d="M199.07,-108C183.52,-108 166.99,-108 151.26,-108"/>
<polygon fill="#63b8ff" stroke="#63b8ff" points="198.68,-111.5 208.68,-108 198.68,-104.5 198.68,-111.5"/>
</a>
</g>
</g>
<!-- Node16 -->
<g id="Node000016" class="node">
<title>Node16</title>
<g id="a_Node000016"><a xlink:href="../../dc/d77/SDL__audiocvt_8c.html#af54bf2a4988f314e148e8d1f4e88bc0c" target="_top" xlink:title=" ">
<polygon fill="white" stroke="#666666" points="1873,-111 1712.25,-111 1712.25,-91 1873,-91 1873,-111"/>
<text xml:space="preserve" text-anchor="middle" x="1792.62" y="-97.5" font-family="Helvetica,sans-Serif" font-size="10.00">GetAudioStreamAvailableFrames</text>
</a>
</g>
</g>
<!-- Node15&#45;&gt;Node16 -->
<g id="edge15_Node000015_Node000016" class="edge">
<title>Node15&#45;&gt;Node16</title>
<g id="a_edge15_Node000015_Node000016"><a xlink:title=" ">
<path fill="none" stroke="#63b8ff" d="M1916.37,-126.21C1892.99,-121.41 1866.72,-116.01 1844.5,-111.45"/>
<polygon fill="#63b8ff" stroke="#63b8ff" points="1915.6,-129.63 1926.1,-128.21 1917.01,-122.77 1915.6,-129.63"/>
</a>
</g>
</g>
<!-- Node25 -->
<g id="Node000025" class="node">
<title>Node25</title>
<g id="a_Node000025"><a xlink:href="../../dc/d77/SDL__audiocvt_8c.html#ad64f69c0afe2f21854b8a58c355a04d8" target="_top" xlink:title=" ">
<polygon fill="white" stroke="#666666" points="1848.25,-149 1737,-149 1737,-129 1848.25,-129 1848.25,-149"/>
<text xml:space="preserve" text-anchor="middle" x="1792.62" y="-135.5" font-family="Helvetica,sans-Serif" font-size="10.00">GetAudioStreamHead</text>
</a>
</g>
</g>
<!-- Node15&#45;&gt;Node25 -->
<g id="edge30_Node000015_Node000025" class="edge">
<title>Node15&#45;&gt;Node25</title>
<g id="a_edge30_Node000015_Node000025"><a xlink:title=" ">
<path fill="none" stroke="#63b8ff" d="M1914.31,-139C1892.88,-139 1869.23,-139 1848.58,-139"/>
<polygon fill="#63b8ff" stroke="#63b8ff" points="1914.1,-142.5 1924.1,-139 1914.1,-135.5 1914.1,-142.5"/>
</a>
</g>
</g>
<!-- Node16&#45;&gt;Node4 -->
<g id="edge29_Node000016_Node000004" class="edge">
<title>Node16&#45;&gt;Node4</title>
<g id="a_edge29_Node000016_Node000004"><a xlink:title=" ">
<path fill="none" stroke="#63b8ff" d="M1734.76,-114.19C1727.17,-116.07 1719.51,-118.04 1712.25,-120 1680.41,-128.61 1644.41,-139.61 1619.09,-147.55"/>
<polygon fill="#63b8ff" stroke="#63b8ff" points="1735.41,-117.63 1744.29,-111.86 1733.74,-110.83 1735.41,-117.63"/>
</a>
</g>
</g>
<!-- Node17 -->
<g id="Node000017" class="node">
<title>Node17</title>
<g id="a_Node000017"><a xlink:href="../../dc/d77/SDL__audiocvt_8c.html#a89230523a1cb9ff52caa16b3b91a1771" target="_top" xlink:title=" ">
<polygon fill="white" stroke="#666666" points="1661.62,-111 1509.12,-111 1509.12,-91 1661.62,-91 1661.62,-111"/>
<text xml:space="preserve" text-anchor="middle" x="1585.38" y="-97.5" font-family="Helvetica,sans-Serif" font-size="10.00">SDL_GetAudioStreamAvailable</text>
</a>
</g>
</g>
<!-- Node16&#45;&gt;Node17 -->
<g id="edge16_Node000016_Node000017" class="edge">
<title>Node16&#45;&gt;Node17</title>
<g id="a_edge16_Node000016_Node000017"><a xlink:title=" ">
<path fill="none" stroke="#63b8ff" d="M1700.69,-101C1687.74,-101 1674.55,-101 1661.94,-101"/>
<polygon fill="#63b8ff" stroke="#63b8ff" points="1700.46,-104.5 1710.46,-101 1700.46,-97.5 1700.46,-104.5"/>
</a>
</g>
</g>
<!-- Node17&#45;&gt;Node6 -->
<g id="edge28_Node000017_Node000006" class="edge">
<title>Node17&#45;&gt;Node6</title>
<g id="a_edge28_Node000017_Node000006"><a xlink:title=" ">
<path fill="none" stroke="#63b8ff" d="M1497.64,-102.14C1344.53,-104.15 1029.4,-108.28 890.36,-110.1"/>
<polygon fill="#63b8ff" stroke="#63b8ff" points="1497.36,-105.64 1507.31,-102.01 1497.27,-98.64 1497.36,-105.64"/>
</a>
</g>
</g>
<!-- Node18 -->
<g id="Node000018" class="node">
<title>Node18</title>
<g id="a_Node000018"><a xlink:href="../../dc/d77/SDL__audiocvt_8c.html#a0cfc2690d4770f3b9c5391764f06df8d" target="_top" xlink:title=" ">
<polygon fill="white" stroke="#666666" points="1458.5,-64 1313.5,-64 1313.5,-44 1458.5,-44 1458.5,-64"/>
<text xml:space="preserve" text-anchor="middle" x="1386" y="-50.5" font-family="Helvetica,sans-Serif" font-size="10.00">PutAudioStreamBufferInternal</text>
</a>
</g>
</g>
<!-- Node17&#45;&gt;Node18 -->
<g id="edge17_Node000017_Node000018" class="edge">
<title>Node17&#45;&gt;Node18</title>
<g id="a_edge17_Node000017_Node000018"><a xlink:title=" ">
<path fill="none" stroke="#63b8ff" d="M1529.49,-87.93C1498.42,-80.53 1460.1,-71.41 1431.02,-64.48"/>
<polygon fill="#63b8ff" stroke="#63b8ff" points="1528.56,-91.31 1539.1,-90.22 1530.18,-84.5 1528.56,-91.31"/>
</a>
</g>
</g>
<!-- Node19 -->
<g id="Node000019" class="node">
<title>Node19</title>
<g id="a_Node000019"><a xlink:href="../../dc/d77/SDL__audiocvt_8c.html#a0c7c55ad2b82dbc7ce6b5113ac456452" target="_top" xlink:title=" ">
<polygon fill="white" stroke="#666666" points="1267,-64 1154.25,-64 1154.25,-44 1267,-44 1267,-64"/>
<text xml:space="preserve" text-anchor="middle" x="1210.62" y="-50.5" font-family="Helvetica,sans-Serif" font-size="10.00">PutAudioStreamBuffer</text>
</a>
</g>
</g>
<!-- Node18&#45;&gt;Node19 -->
<g id="edge18_Node000018_Node000019" class="edge">
<title>Node18&#45;&gt;Node19</title>
<g id="a_edge18_Node000018_Node000019"><a xlink:title=" ">
<path fill="none" stroke="#63b8ff" d="M1302.05,-54C1290.32,-54 1278.51,-54 1267.46,-54"/>
<polygon fill="#63b8ff" stroke="#63b8ff" points="1301.72,-57.5 1311.72,-54 1301.72,-50.5 1301.72,-57.5"/>
</a>
</g>
</g>
<!-- Node21 -->
<g id="Node000021" class="node">
<title>Node21</title>
<g id="a_Node000021"><a xlink:href="../../dc/d77/SDL__audiocvt_8c.html#a013d8e85ba5cb31a851d3bfd54b33df3" target="_top" xlink:title=" ">
<polygon fill="white" stroke="#666666" points="901.25,-20 740.5,-20 740.5,0 901.25,0 901.25,-20"/>
<text xml:space="preserve" text-anchor="middle" x="820.88" y="-6.5" font-family="Helvetica,sans-Serif" font-size="10.00">SDL_PutAudioStreamPlanarData</text>
</a>
</g>
</g>
<!-- Node18&#45;&gt;Node21 -->
<g id="edge27_Node000018_Node000021" class="edge">
<title>Node18&#45;&gt;Node21</title>
<g id="a_edge27_Node000018_Node000021"><a xlink:title=" ">
<path fill="none" stroke="#63b8ff" d="M1318.42,-41.55C1304.9,-39.22 1290.76,-36.91 1277.5,-35 1202.36,-24.17 1183.5,-21.02 1107.75,-16 1038.28,-11.39 959.13,-10.03 901.75,-9.74"/>
<polygon fill="#63b8ff" stroke="#63b8ff" points="1317.65,-44.97 1328.1,-43.25 1318.86,-38.08 1317.65,-44.97"/>
</a>
</g>
</g>
<!-- Node20 -->
<g id="Node000020" class="node">
<title>Node20</title>
<g id="a_Node000020"><a xlink:href="../../dc/d77/SDL__audiocvt_8c.html#af2fe3a9702adf846f4f813d2a53389f5" target="_top" xlink:title=" ">
<polygon fill="white" stroke="#666666" points="1089.75,-45 956.75,-45 956.75,-25 1089.75,-25 1089.75,-45"/>
<text xml:space="preserve" text-anchor="middle" x="1023.25" y="-31.5" font-family="Helvetica,sans-Serif" font-size="10.00">SDL_PutAudioStreamData</text>
</a>
</g>
</g>
<!-- Node19&#45;&gt;Node20 -->
<g id="edge19_Node000019_Node000020" class="edge">
<title>Node19&#45;&gt;Node20</title>
<g id="a_edge19_Node000019_Node000020"><a xlink:title=" ">
<path fill="none" stroke="#63b8ff" d="M1142.71,-47.14C1125.59,-45.39 1107.19,-43.5 1090.12,-41.75"/>
<polygon fill="#63b8ff" stroke="#63b8ff" points="1141.94,-50.58 1152.25,-48.12 1142.66,-43.62 1141.94,-50.58"/>
</a>
</g>
</g>
<!-- Node24 -->
<g id="Node000024" class="node">
<title>Node24</title>
<g id="a_Node000024"><a xlink:href="../../dc/d77/SDL__audiocvt_8c.html#af47d703f8e43d5087951d17b6c8436a5" target="_top" xlink:title=" ">
<polygon fill="white" stroke="#666666" points="1107.75,-83 938.75,-83 938.75,-63 1107.75,-63 1107.75,-83"/>
<text xml:space="preserve" text-anchor="middle" x="1023.25" y="-69.5" font-family="Helvetica,sans-Serif" font-size="10.00">SDL_PutAudioStreamDataNoCopy</text>
</a>
</g>
</g>
<!-- Node19&#45;&gt;Node24 -->
<g id="edge25_Node000019_Node000024" class="edge">
<title>Node19&#45;&gt;Node24</title>
<g id="a_edge25_Node000019_Node000024"><a xlink:title=" ">
<path fill="none" stroke="#63b8ff" d="M1142.37,-60.89C1131.24,-62.03 1119.57,-63.23 1108.08,-64.41"/>
<polygon fill="#63b8ff" stroke="#63b8ff" points="1142.66,-64.38 1152.25,-59.88 1141.94,-57.42 1142.66,-64.38"/>
</a>
</g>
</g>
<!-- Node20&#45;&gt;Node21 -->
<g id="edge20_Node000020_Node000021" class="edge">
<title>Node20&#45;&gt;Node21</title>
<g id="a_edge20_Node000020_Node000021"><a xlink:title=" ">
<path fill="none" stroke="#63b8ff" d="M945.06,-25.37C930.75,-23.58 915.79,-21.72 901.42,-19.92"/>
<polygon fill="#63b8ff" stroke="#63b8ff" points="944.5,-28.83 954.86,-26.59 945.37,-21.88 944.5,-28.83"/>
</a>
</g>
</g>
<!-- Node22 -->
<g id="Node000022" class="node">
<title>Node22</title>
<g id="a_Node000022"><a xlink:href="../../d6/d9b/SDL__audio_8c.html#a3a132c60c931f1c864ba5da2b1c86717" target="_top" xlink:title=" ">
<polygon fill="white" stroke="#666666" points="890.75,-83 751,-83 751,-51 890.75,-51 890.75,-83"/>
<text xml:space="preserve" text-anchor="start" x="759" y="-69.5" font-family="Helvetica,sans-Serif" font-size="10.00">SDL_RecordingAudioThread</text>
<text xml:space="preserve" text-anchor="middle" x="820.88" y="-57.5" font-family="Helvetica,sans-Serif" font-size="10.00">Iterate</text>
</a>
</g>
</g>
<!-- Node20&#45;&gt;Node22 -->
<g id="edge21_Node000020_Node000022" class="edge">
<title>Node20&#45;&gt;Node22</title>
<g id="a_edge21_Node000020_Node000022"><a xlink:title=" ">
<path fill="none" stroke="#63b8ff" d="M945.37,-47.28C927.51,-50.13 908.59,-53.15 891.08,-55.95"/>
<polygon fill="#63b8ff" stroke="#63b8ff" points="945.82,-50.75 955.15,-45.72 944.72,-43.84 945.82,-50.75"/>
</a>
</g>
</g>
<!-- Node22&#45;&gt;Node8 -->
<g id="edge22_Node000022_Node000008" class="edge">
<title>Node22&#45;&gt;Node8</title>
<g id="a_edge22_Node000022_Node000008"><a xlink:title=" ">
<path fill="none" stroke="#63b8ff" d="M739.19,-68.29C727.23,-68.48 714.98,-68.67 703.22,-68.86"/>
<polygon fill="#63b8ff" stroke="#63b8ff" points="739.08,-71.79 749.02,-68.13 738.97,-64.79 739.08,-71.79"/>
</a>
</g>
</g>
<!-- Node23 -->
<g id="Node000023" class="node">
<title>Node23</title>
<g id="a_Node000023"><a xlink:href="../../d6/d9b/SDL__audio_8c.html#a78509cdb3b4a17a333ba844e392a3c56" target="_top" xlink:title=" ">
<polygon fill="white" stroke="#666666" points="688,-118 573,-118 573,-98 688,-98 688,-118"/>
<text xml:space="preserve" text-anchor="middle" x="630.5" y="-104.5" font-family="Helvetica,sans-Serif" font-size="10.00">RecordingAudioThread</text>
</a>
</g>
</g>
<!-- Node22&#45;&gt;Node23 -->
<g id="edge23_Node000022_Node000023" class="edge">
<title>Node22&#45;&gt;Node23</title>
<g id="a_edge23_Node000022_Node000023"><a xlink:title=" ">
<path fill="none" stroke="#63b8ff" d="M739.33,-84.53C718.96,-88.96 697.72,-93.59 679.52,-97.55"/>
<polygon fill="#63b8ff" stroke="#63b8ff" points="740.03,-87.96 749.05,-82.41 738.54,-81.12 740.03,-87.96"/>
</a>
</g>
</g>
<!-- Node23&#45;&gt;Node11 -->
<g id="edge24_Node000023_Node000011" class="edge">
<title>Node23&#45;&gt;Node11</title>
<g id="a_edge24_Node000023_Node000011"><a xlink:title=" ">
<path fill="none" stroke="#63b8ff" d="M561.73,-115.46C548.73,-116.89 535.14,-118.39 522.22,-119.81"/>
<polygon fill="#63b8ff" stroke="#63b8ff" points="561.91,-118.96 571.47,-114.39 561.15,-112 561.91,-118.96"/>
</a>
</g>
</g>
<!-- Node24&#45;&gt;Node6 -->
<g id="edge26_Node000024_Node000006" class="edge">
<title>Node24&#45;&gt;Node6</title>
<g id="a_edge26_Node000024_Node000006"><a xlink:title=" ">
<path fill="none" stroke="#63b8ff" d="M955.86,-85.59C930.28,-90.44 901.38,-95.92 876.98,-100.55"/>
<polygon fill="#63b8ff" stroke="#63b8ff" points="956.31,-89.07 965.48,-83.77 955,-82.19 956.31,-89.07"/>
</a>
</g>
</g>
<!-- Node25&#45;&gt;Node4 -->
<g id="edge31_Node000025_Node000004" class="edge">
<title>Node25&#45;&gt;Node4</title>
<g id="a_edge31_Node000025_Node000004"><a xlink:title=" ">
<path fill="none" stroke="#63b8ff" d="M1725.49,-145.12C1709.85,-146.57 1692.91,-148.14 1676.41,-149.67"/>
<polygon fill="#63b8ff" stroke="#63b8ff" points="1725.48,-148.64 1735.11,-144.23 1724.83,-141.67 1725.48,-148.64"/>
</a>
</g>
</g>
</g>
</svg>

<g id="navigator" transform="translate(0 0)" fill="#404254">
  <rect fill="#f2f5e9" fill-opacity="0.5" stroke="#606060" stroke-width=".5" x="0" y="0" width="60" height="60"/>
  <use id="zoomplus" xlink:href="#zoomPlus" x="17" y="9" onmousedown="handleZoom(evt,'in')"/>
  <use id="zoomminus" xlink:href="#zoomMin" x="42" y="9" onmousedown="handleZoom(evt,'out')"/>
  <use id="reset" xlink:href="#resetDef" x="30" y="36" onmousedown="handleReset()"/>
   <use id="arrowup" xlink:href="#arrowUp" x="0" y="0" onmousedown="handlePan(0,-1)"/>
  <use id="arrowright" xlink:href="#arrowRight" x="0" y="0" onmousedown="handlePan(1,0)"/>
  <use id="arrowdown" xlink:href="#arrowDown" x="0" y="0" onmousedown="handlePan(0,1)"/>
  <use id="arrowleft" xlink:href="#arrowLeft" x="0" y="0" onmousedown="handlePan(-1,0)"/>
</g>
<svg viewBox="0 0 15 15" width="100%" height="30px" preserveAspectRatio="xMaxYMin meet">
 <g id="arrow_out" transform="scale(0.3 0.3)">
  <a xlink:href="SDL__audioresample_8h_a66d2518e4967cc4820b12e1724bbcb43_icgraph_org.svg" target="_base">
   <rect id="button" ry="5" rx="5" y="6" x="6" height="38" width="38"
        fill="#f2f5e9" fill-opacity="0.5" stroke="#606060" stroke-width="1.0"/>
   <path id="arrow"
     d="M 11.500037,31.436501 C 11.940474,20.09759 22.043105,11.32322 32.158766,21.979434 L 37.068811,17.246167 C 37.068811,17.246167 37.088388,32 37.088388,32 L 22.160133,31.978069 C 22.160133,31.978069 26.997745,27.140456 26.997745,27.140456 C 18.528582,18.264221 13.291696,25.230495 11.500037,31.436501 z"
     style="fill:#404040;"/>
  </a>
 </g>
</svg>

<style type='text/css'>
<![CDATA[
[data-mouse-over-selected='false'] { opacity: 0.7; }
[data-mouse-over-selected='true']  { opacity: 1.0; }
]]>
</style>
<script type="application/ecmascript"><![CDATA[
document.addEventListener('DOMContentLoaded', (event) => {
  highlightEdges();
  highlightAdjacentNodes();
});
]]></script>
</svg>
