<?xml version="1.0" encoding="UTF-8" standalone="no"?>
<!DOCTYPE svg PUBLIC "-//W3C//DTD SVG 1.1//EN"
 "http://www.w3.org/Graphics/SVG/1.1/DTD/svg11.dtd">
<!-- Generated by graphviz version 13.1.0 (20250701.0955)
 -->
<!-- Title: SDL&#45;main/include/SDL3/SDL_surface.h Pages: 1 -->
<svg width="920pt" height="320pt"
 viewBox="0.00 0.00 920.00 320.00" xmlns="http://www.w3.org/2000/svg" xmlns:xlink="http://www.w3.org/1999/xlink">
<g id="graph0" class="graph" transform="scale(1 1) rotate(0) translate(4 316)">
<title>SDL&#45;main/include/SDL3/SDL_surface.h</title>
<!-- Node1 -->
<g id="Node000001" class="node">
<title>Node1</title>
<g id="a_Node000001"><a xlink:title=" ">
<polygon fill="#999999" stroke="#666666" points="523.5,-312 402.5,-312 402.5,-280 523.5,-280 523.5,-312"/>
<text xml:space="preserve" text-anchor="start" x="410.5" y="-298.5" font-family="Helvetica,sans-Serif" font-size="10.00">SDL&#45;main/include/SDL3</text>
<text xml:space="preserve" text-anchor="middle" x="463" y="-286.5" font-family="Helvetica,sans-Serif" font-size="10.00">/SDL_surface.h</text>
</a>
</g>
</g>
<!-- Node2 -->
<g id="Node000002" class="node">
<title>Node2</title>
<g id="a_Node000002"><a xlink:href="../../d2/d5b/SDL__stdinc_8h.html" target="_top" xlink:title=" ">
<polygon fill="white" stroke="#666666" points="476.5,-76 373.5,-76 373.5,-56 476.5,-56 476.5,-76"/>
<text xml:space="preserve" text-anchor="middle" x="425" y="-62.5" font-family="Helvetica,sans-Serif" font-size="10.00">SDL3/SDL_stdinc.h</text>
</a>
</g>
</g>
<!-- Node1&#45;&gt;Node2 -->
<g id="edge1_Node000001_Node000002" class="edge">
<title>Node1&#45;&gt;Node2</title>
<g id="a_edge1_Node000001_Node000002"><a xlink:title=" ">
<path fill="none" stroke="#63b8ff" d="M402.15,-284.86C326.7,-268.35 203.97,-227.33 171,-132 168.09,-123.6 165.29,-118.81 171,-112 194.9,-83.49 294.76,-73.03 361.92,-69.2"/>
<polygon fill="#63b8ff" stroke="#63b8ff" points="361.91,-72.71 371.71,-68.68 361.54,-65.72 361.91,-72.71"/>
</a>
</g>
</g>
<!-- Node8 -->
<g id="Node000008" class="node">
<title>Node8</title>
<g id="a_Node000008"><a xlink:href="../../d8/d5f/SDL__begin__code_8h.html" target="_top" xlink:title=" ">
<polygon fill="white" stroke="#666666" points="829.12,-20 702.88,-20 702.88,0 829.12,0 829.12,-20"/>
<text xml:space="preserve" text-anchor="middle" x="766" y="-6.5" font-family="Helvetica,sans-Serif" font-size="10.00">SDL3/SDL_begin_code.h</text>
</a>
</g>
</g>
<!-- Node1&#45;&gt;Node8 -->
<g id="edge42_Node000001_Node000008" class="edge">
<title>Node1&#45;&gt;Node8</title>
<g id="a_edge42_Node000001_Node000008"><a xlink:title=" ">
<path fill="none" stroke="#63b8ff" d="M523.55,-291.99C646.11,-284.25 912,-258.3 912,-179 912,-179 912,-179 912,-121 912,-69.91 854.26,-39.58 811.41,-24.1"/>
<polygon fill="#63b8ff" stroke="#63b8ff" points="812.63,-20.82 802.03,-20.88 810.35,-27.44 812.63,-20.82"/>
</a>
</g>
</g>
<!-- Node9 -->
<g id="Node000009" class="node">
<title>Node9</title>
<g id="a_Node000009"><a xlink:href="../../d9/d73/SDL__close__code_8h.html" target="_top" xlink:title=" ">
<polygon fill="white" stroke="#666666" points="247.12,-20 120.88,-20 120.88,0 247.12,0 247.12,-20"/>
<text xml:space="preserve" text-anchor="middle" x="184" y="-6.5" font-family="Helvetica,sans-Serif" font-size="10.00">SDL3/SDL_close_code.h</text>
</a>
</g>
</g>
<!-- Node1&#45;&gt;Node9 -->
<g id="edge43_Node000001_Node000009" class="edge">
<title>Node1&#45;&gt;Node9</title>
<g id="a_edge43_Node000001_Node000009"><a xlink:title=" ">
<path fill="none" stroke="#63b8ff" d="M402.47,-292.47C276.97,-285.57 0,-261.04 0,-179 0,-179 0,-179 0,-121 0,-65.06 63.43,-36.89 115.81,-23.16"/>
<polygon fill="#63b8ff" stroke="#63b8ff" points="116.45,-26.61 125.32,-20.81 114.77,-19.81 116.45,-26.61"/>
</a>
</g>
</g>
<!-- Node10 -->
<g id="Node000010" class="node">
<title>Node10</title>
<g id="a_Node000010"><a xlink:href="../../da/d16/SDL__error_8h.html" target="_top" xlink:title=" ">
<polygon fill="white" stroke="#666666" points="514.12,-132 417.88,-132 417.88,-112 514.12,-112 514.12,-132"/>
<text xml:space="preserve" text-anchor="middle" x="466" y="-118.5" font-family="Helvetica,sans-Serif" font-size="10.00">SDL3/SDL_error.h</text>
</a>
</g>
</g>
<!-- Node1&#45;&gt;Node10 -->
<g id="edge9_Node000001_Node000010" class="edge">
<title>Node1&#45;&gt;Node10</title>
<g id="a_edge9_Node000001_Node000010"><a xlink:title=" ">
<path fill="none" stroke="#63b8ff" d="M463.27,-279.74C463.81,-248.69 465.04,-178.18 465.65,-143.31"/>
<polygon fill="#63b8ff" stroke="#63b8ff" points="469.14,-143.78 465.81,-133.72 462.14,-143.66 469.14,-143.78"/>
</a>
</g>
</g>
<!-- Node11 -->
<g id="Node000011" class="node">
<title>Node11</title>
<g id="a_Node000011"><a xlink:href="../../d0/dad/SDL__blendmode_8h.html" target="_top" xlink:title=" ">
<polygon fill="white" stroke="#666666" points="770,-132 646,-132 646,-112 770,-112 770,-132"/>
<text xml:space="preserve" text-anchor="middle" x="708" y="-118.5" font-family="Helvetica,sans-Serif" font-size="10.00">SDL3/SDL_blendmode.h</text>
</a>
</g>
</g>
<!-- Node1&#45;&gt;Node11 -->
<g id="edge13_Node000001_Node000011" class="edge">
<title>Node1&#45;&gt;Node11</title>
<g id="a_edge13_Node000001_Node000011"><a xlink:title=" ">
<path fill="none" stroke="#63b8ff" d="M524,-283.14C557.5,-275.07 599.02,-262.46 633,-244 666.81,-225.64 680.48,-221.72 699,-188 706.4,-174.53 708.5,-157.21 708.83,-143.84"/>
<polygon fill="#63b8ff" stroke="#63b8ff" points="712.33,-143.96 708.74,-133.99 705.33,-144.02 712.33,-143.96"/>
</a>
</g>
</g>
<!-- Node12 -->
<g id="Node000012" class="node">
<title>Node12</title>
<g id="a_Node000012"><a xlink:href="../../d9/d3f/SDL__pixels_8h.html" target="_top" xlink:title=" ">
<polygon fill="white" stroke="#666666" points="326.12,-188 223.88,-188 223.88,-168 326.12,-168 326.12,-188"/>
<text xml:space="preserve" text-anchor="middle" x="275" y="-174.5" font-family="Helvetica,sans-Serif" font-size="10.00">SDL3/SDL_pixels.h</text>
</a>
</g>
</g>
<!-- Node1&#45;&gt;Node12 -->
<g id="edge17_Node000001_Node000012" class="edge">
<title>Node1&#45;&gt;Node12</title>
<g id="a_edge17_Node000001_Node000012"><a xlink:title=" ">
<path fill="none" stroke="#63b8ff" d="M438.04,-279.6C402.04,-257.38 335.93,-216.59 299.94,-194.39"/>
<polygon fill="#63b8ff" stroke="#63b8ff" points="301.86,-191.46 291.51,-189.19 298.18,-197.42 301.86,-191.46"/>
</a>
</g>
</g>
<!-- Node14 -->
<g id="Node000014" class="node">
<title>Node14</title>
<g id="a_Node000014"><a xlink:href="../../d6/d40/SDL__properties_8h.html" target="_top" xlink:title=" ">
<polygon fill="white" stroke="#666666" points="689.75,-188 570.25,-188 570.25,-168 689.75,-168 689.75,-188"/>
<text xml:space="preserve" text-anchor="middle" x="630" y="-174.5" font-family="Helvetica,sans-Serif" font-size="10.00">SDL3/SDL_properties.h</text>
</a>
</g>
</g>
<!-- Node1&#45;&gt;Node14 -->
<g id="edge26_Node000001_Node000014" class="edge">
<title>Node1&#45;&gt;Node14</title>
<g id="a_edge26_Node000001_Node000014"><a xlink:title=" ">
<path fill="none" stroke="#63b8ff" d="M523.9,-288.38C554.92,-281.92 590.88,-269.16 614,-244 625.07,-231.95 628.8,-213.5 629.92,-199.33"/>
<polygon fill="#63b8ff" stroke="#63b8ff" points="633.4,-199.89 630.29,-189.76 626.41,-199.62 633.4,-199.89"/>
</a>
</g>
</g>
<!-- Node15 -->
<g id="Node000015" class="node">
<title>Node15</title>
<g id="a_Node000015"><a xlink:href="../../d0/d18/SDL__rect_8h.html" target="_top" xlink:title=" ">
<polygon fill="white" stroke="#666666" points="437.62,-188 344.38,-188 344.38,-168 437.62,-168 437.62,-188"/>
<text xml:space="preserve" text-anchor="middle" x="391" y="-174.5" font-family="Helvetica,sans-Serif" font-size="10.00">SDL3/SDL_rect.h</text>
</a>
</g>
</g>
<!-- Node1&#45;&gt;Node15 -->
<g id="edge31_Node000001_Node000015" class="edge">
<title>Node1&#45;&gt;Node15</title>
<g id="a_edge31_Node000001_Node000015"><a xlink:title=" ">
<path fill="none" stroke="#63b8ff" d="M453.59,-279.84C440.56,-258.84 417.02,-220.93 402.82,-198.05"/>
<polygon fill="#63b8ff" stroke="#63b8ff" points="405.9,-196.37 397.66,-189.72 399.96,-200.07 405.9,-196.37"/>
</a>
</g>
</g>
<!-- Node16 -->
<g id="Node000016" class="node">
<title>Node16</title>
<g id="a_Node000016"><a xlink:href="../../d8/d35/SDL__iostream_8h.html" target="_top" xlink:title=" ">
<polygon fill="white" stroke="#666666" points="605.12,-244 490.88,-244 490.88,-224 605.12,-224 605.12,-244"/>
<text xml:space="preserve" text-anchor="middle" x="548" y="-230.5" font-family="Helvetica,sans-Serif" font-size="10.00">SDL3/SDL_iostream.h</text>
</a>
</g>
</g>
<!-- Node1&#45;&gt;Node16 -->
<g id="edge36_Node000001_Node000016" class="edge">
<title>Node1&#45;&gt;Node16</title>
<g id="a_edge36_Node000001_Node000016"><a xlink:title=" ">
<path fill="none" stroke="#63b8ff" d="M484.89,-279.55C497.31,-270.78 512.83,-259.83 525.37,-250.97"/>
<polygon fill="#63b8ff" stroke="#63b8ff" points="527.28,-253.91 533.44,-245.28 523.25,-248.19 527.28,-253.91"/>
</a>
</g>
</g>
<!-- Node3 -->
<g id="Node000003" class="node">
<title>Node3</title>
<g id="a_Node000003"><a xlink:href="../../d3/d8b/SDL__platform__defines_8h.html" target="_top" xlink:title=" ">
<polygon fill="white" stroke="#666666" points="684.38,-20 535.62,-20 535.62,0 684.38,0 684.38,-20"/>
<text xml:space="preserve" text-anchor="middle" x="610" y="-6.5" font-family="Helvetica,sans-Serif" font-size="10.00">SDL3/SDL_platform_defines.h</text>
</a>
</g>
</g>
<!-- Node2&#45;&gt;Node3 -->
<g id="edge2_Node000002_Node000003" class="edge">
<title>Node2&#45;&gt;Node3</title>
<g id="a_edge2_Node000002_Node000003"><a xlink:title=" ">
<path fill="none" stroke="#63b8ff" d="M457.22,-55.59C487.55,-46.74 533.17,-33.43 566.67,-23.65"/>
<polygon fill="#63b8ff" stroke="#63b8ff" points="567.45,-27.07 576.07,-20.9 565.49,-20.35 567.45,-27.07"/>
</a>
</g>
</g>
<!-- Node4 -->
<g id="Node000004" class="node">
<title>Node4</title>
<g id="a_Node000004"><a xlink:title=" ">
<polygon fill="#e0e0e0" stroke="#999999" points="316.62,-20 265.38,-20 265.38,0 316.62,0 316.62,-20"/>
<text xml:space="preserve" text-anchor="middle" x="291" y="-6.5" font-family="Helvetica,sans-Serif" font-size="10.00">stdarg.h</text>
</a>
</g>
</g>
<!-- Node2&#45;&gt;Node4 -->
<g id="edge3_Node000002_Node000004" class="edge">
<title>Node2&#45;&gt;Node4</title>
<g id="a_edge3_Node000002_Node000004"><a xlink:title=" ">
<path fill="none" stroke="#63b8ff" d="M401.66,-55.59C380.46,-47.05 348.93,-34.35 324.95,-24.68"/>
<polygon fill="#63b8ff" stroke="#63b8ff" points="326.51,-21.54 315.93,-21.05 323.89,-28.03 326.51,-21.54"/>
</a>
</g>
</g>
<!-- Node5 -->
<g id="Node000005" class="node">
<title>Node5</title>
<g id="a_Node000005"><a xlink:title=" ">
<polygon fill="#e0e0e0" stroke="#999999" points="383.12,-20 334.88,-20 334.88,0 383.12,0 383.12,-20"/>
<text xml:space="preserve" text-anchor="middle" x="359" y="-6.5" font-family="Helvetica,sans-Serif" font-size="10.00">stdint.h</text>
</a>
</g>
</g>
<!-- Node2&#45;&gt;Node5 -->
<g id="edge4_Node000002_Node000005" class="edge">
<title>Node2&#45;&gt;Node5</title>
<g id="a_edge4_Node000002_Node000005"><a xlink:title=" ">
<path fill="none" stroke="#63b8ff" d="M413.5,-55.59C404.04,-47.85 390.4,-36.69 379.13,-27.47"/>
<polygon fill="#63b8ff" stroke="#63b8ff" points="381.49,-24.88 371.54,-21.26 377.06,-30.3 381.49,-24.88"/>
</a>
</g>
</g>
<!-- Node6 -->
<g id="Node000006" class="node">
<title>Node6</title>
<g id="a_Node000006"><a xlink:title=" ">
<polygon fill="#e0e0e0" stroke="#999999" points="449.12,-20 400.88,-20 400.88,0 449.12,0 449.12,-20"/>
<text xml:space="preserve" text-anchor="middle" x="425" y="-6.5" font-family="Helvetica,sans-Serif" font-size="10.00">string.h</text>
</a>
</g>
</g>
<!-- Node2&#45;&gt;Node6 -->
<g id="edge5_Node000002_Node000006" class="edge">
<title>Node2&#45;&gt;Node6</title>
<g id="a_edge5_Node000002_Node000006"><a xlink:title=" ">
<path fill="none" stroke="#63b8ff" d="M425,-55.59C425,-49.01 425,-39.96 425,-31.73"/>
<polygon fill="#63b8ff" stroke="#63b8ff" points="428.5,-31.81 425,-21.81 421.5,-31.81 428.5,-31.81"/>
</a>
</g>
</g>
<!-- Node7 -->
<g id="Node000007" class="node">
<title>Node7</title>
<g id="a_Node000007"><a xlink:title=" ">
<polygon fill="#e0e0e0" stroke="#999999" points="517.25,-20 466.75,-20 466.75,0 517.25,0 517.25,-20"/>
<text xml:space="preserve" text-anchor="middle" x="492" y="-6.5" font-family="Helvetica,sans-Serif" font-size="10.00">wchar.h</text>
</a>
</g>
</g>
<!-- Node2&#45;&gt;Node7 -->
<g id="edge6_Node000002_Node000007" class="edge">
<title>Node2&#45;&gt;Node7</title>
<g id="a_edge6_Node000002_Node000007"><a xlink:title=" ">
<path fill="none" stroke="#63b8ff" d="M436.67,-55.59C446.28,-47.85 460.13,-36.69 471.57,-27.47"/>
<polygon fill="#63b8ff" stroke="#63b8ff" points="473.7,-30.25 479.28,-21.25 469.3,-24.8 473.7,-30.25"/>
</a>
</g>
</g>
<!-- Node2&#45;&gt;Node8 -->
<g id="edge7_Node000002_Node000008" class="edge">
<title>Node2&#45;&gt;Node8</title>
<g id="a_edge7_Node000002_Node000008"><a xlink:title=" ">
<path fill="none" stroke="#63b8ff" d="M476.79,-56.8C535.09,-47.57 630.15,-32.51 695.26,-22.2"/>
<polygon fill="#63b8ff" stroke="#63b8ff" points="695.42,-25.72 704.75,-20.7 694.33,-18.81 695.42,-25.72"/>
</a>
</g>
</g>
<!-- Node2&#45;&gt;Node9 -->
<g id="edge8_Node000002_Node000009" class="edge">
<title>Node2&#45;&gt;Node9</title>
<g id="a_edge8_Node000002_Node000009"><a xlink:title=" ">
<path fill="none" stroke="#63b8ff" d="M382.75,-55.53C342.26,-46.46 281.02,-32.74 237.22,-22.93"/>
<polygon fill="#63b8ff" stroke="#63b8ff" points="238.21,-19.56 227.68,-20.79 236.68,-26.39 238.21,-19.56"/>
</a>
</g>
</g>
<!-- Node10&#45;&gt;Node2 -->
<g id="edge10_Node000010_Node000002" class="edge">
<title>Node10&#45;&gt;Node2</title>
<g id="a_edge10_Node000010_Node000002"><a xlink:title=" ">
<path fill="none" stroke="#63b8ff" d="M458.86,-111.59C453.39,-104.39 445.68,-94.23 438.99,-85.43"/>
<polygon fill="#63b8ff" stroke="#63b8ff" points="441.81,-83.35 432.98,-77.5 436.23,-87.58 441.81,-83.35"/>
</a>
</g>
</g>
<!-- Node10&#45;&gt;Node8 -->
<g id="edge11_Node000010_Node000008" class="edge">
<title>Node10&#45;&gt;Node8</title>
<g id="a_edge11_Node000010_Node000008"><a xlink:title=" ">
<path fill="none" stroke="#63b8ff" d="M491.84,-111.53C545.22,-91.95 667.84,-46.99 729.37,-24.43"/>
<polygon fill="#63b8ff" stroke="#63b8ff" points="730.51,-27.74 738.7,-21.01 728.1,-21.17 730.51,-27.74"/>
</a>
</g>
</g>
<!-- Node10&#45;&gt;Node9 -->
<g id="edge12_Node000010_Node000009" class="edge">
<title>Node10&#45;&gt;Node9</title>
<g id="a_edge12_Node000010_Node000009"><a xlink:title=" ">
<path fill="none" stroke="#63b8ff" d="M434.87,-111.55C407.32,-102.96 366.14,-89.59 331,-76 289.74,-60.04 243.21,-38.92 213.76,-25.15"/>
<polygon fill="#63b8ff" stroke="#63b8ff" points="215.63,-22.17 205.09,-21.08 212.65,-28.5 215.63,-22.17"/>
</a>
</g>
</g>
<!-- Node11&#45;&gt;Node2 -->
<g id="edge14_Node000011_Node000002" class="edge">
<title>Node11&#45;&gt;Node2</title>
<g id="a_edge14_Node000011_Node000002"><a xlink:title=" ">
<path fill="none" stroke="#63b8ff" d="M658.38,-111.53C610.34,-102.36 537.39,-88.45 485.87,-78.61"/>
<polygon fill="#63b8ff" stroke="#63b8ff" points="486.53,-75.18 476.05,-76.74 485.22,-82.05 486.53,-75.18"/>
</a>
</g>
</g>
<!-- Node11&#45;&gt;Node8 -->
<g id="edge15_Node000011_Node000008" class="edge">
<title>Node11&#45;&gt;Node8</title>
<g id="a_edge15_Node000011_Node000008"><a xlink:title=" ">
<path fill="none" stroke="#63b8ff" d="M712.95,-111.62C722.4,-93.68 743.24,-54.17 755.8,-30.35"/>
<polygon fill="#63b8ff" stroke="#63b8ff" points="758.79,-32.17 760.36,-21.69 752.6,-28.91 758.79,-32.17"/>
</a>
</g>
</g>
<!-- Node11&#45;&gt;Node9 -->
<g id="edge16_Node000011_Node000009" class="edge">
<title>Node11&#45;&gt;Node9</title>
<g id="a_edge16_Node000011_Node000009"><a xlink:title=" ">
<path fill="none" stroke="#63b8ff" d="M680.28,-111.55C638.57,-97.64 556.99,-71.61 486,-56 443.96,-46.76 333.71,-31.13 258.72,-20.94"/>
<polygon fill="#63b8ff" stroke="#63b8ff" points="259.34,-17.49 248.96,-19.62 258.4,-24.43 259.34,-17.49"/>
</a>
</g>
</g>
<!-- Node12&#45;&gt;Node2 -->
<g id="edge18_Node000012_Node000002" class="edge">
<title>Node12&#45;&gt;Node2</title>
<g id="a_edge18_Node000012_Node000002"><a xlink:title=" ">
<path fill="none" stroke="#63b8ff" d="M282.36,-167.68C293.37,-154.15 315.3,-128.87 338,-112 354.61,-99.65 375.1,-88.87 392.02,-80.96"/>
<polygon fill="#63b8ff" stroke="#63b8ff" points="392.99,-84.36 400.65,-77.04 390.1,-77.99 392.99,-84.36"/>
</a>
</g>
</g>
<!-- Node12&#45;&gt;Node8 -->
<g id="edge24_Node000012_Node000008" class="edge">
<title>Node12&#45;&gt;Node8</title>
<g id="a_edge24_Node000012_Node000008"><a xlink:title=" ">
<path fill="none" stroke="#63b8ff" d="M292.41,-167.55C317.63,-154.1 366.02,-129.16 409,-112 410.19,-111.52 583.77,-56.35 585,-56 628.2,-43.77 677.7,-31.59 714,-22.99"/>
<polygon fill="#63b8ff" stroke="#63b8ff" points="714.42,-26.49 723.35,-20.79 712.82,-19.67 714.42,-26.49"/>
</a>
</g>
</g>
<!-- Node12&#45;&gt;Node9 -->
<g id="edge25_Node000012_Node000009" class="edge">
<title>Node12&#45;&gt;Node9</title>
<g id="a_edge25_Node000012_Node000009"><a xlink:title=" ">
<path fill="none" stroke="#63b8ff" d="M223.69,-174.44C193.47,-169.98 157.45,-158.87 138,-132 118.19,-104.64 124.9,-87.14 138,-56 142.69,-44.84 151.66,-35.07 160.43,-27.5"/>
<polygon fill="#63b8ff" stroke="#63b8ff" points="162.47,-30.35 168.14,-21.4 158.13,-24.87 162.47,-30.35"/>
</a>
</g>
</g>
<!-- Node12&#45;&gt;Node10 -->
<g id="edge19_Node000012_Node000010" class="edge">
<title>Node12&#45;&gt;Node10</title>
<g id="a_edge19_Node000012_Node000010"><a xlink:title=" ">
<path fill="none" stroke="#63b8ff" d="M308.27,-167.59C339.71,-158.71 387.09,-145.31 421.71,-135.52"/>
<polygon fill="#63b8ff" stroke="#63b8ff" points="422.34,-138.98 431.01,-132.89 420.44,-132.24 422.34,-138.98"/>
</a>
</g>
</g>
<!-- Node13 -->
<g id="Node000013" class="node">
<title>Node13</title>
<g id="a_Node000013"><a xlink:href="../../d6/de1/SDL__endian_8h.html" target="_top" xlink:title=" ">
<polygon fill="white" stroke="#666666" points="285.62,-132 180.38,-132 180.38,-112 285.62,-112 285.62,-132"/>
<text xml:space="preserve" text-anchor="middle" x="233" y="-118.5" font-family="Helvetica,sans-Serif" font-size="10.00">SDL3/SDL_endian.h</text>
</a>
</g>
</g>
<!-- Node12&#45;&gt;Node13 -->
<g id="edge20_Node000012_Node000013" class="edge">
<title>Node12&#45;&gt;Node13</title>
<g id="a_edge20_Node000012_Node000013"><a xlink:title=" ">
<path fill="none" stroke="#63b8ff" d="M267.68,-167.59C262.02,-160.32 254.01,-150.02 247.11,-141.15"/>
<polygon fill="#63b8ff" stroke="#63b8ff" points="250.06,-139.24 241.16,-133.49 244.54,-143.54 250.06,-139.24"/>
</a>
</g>
</g>
<!-- Node13&#45;&gt;Node2 -->
<g id="edge21_Node000013_Node000002" class="edge">
<title>Node13&#45;&gt;Node2</title>
<g id="a_edge21_Node000013_Node000002"><a xlink:title=" ">
<path fill="none" stroke="#63b8ff" d="M266.44,-111.59C298.05,-102.71 345.68,-89.31 380.48,-79.52"/>
<polygon fill="#63b8ff" stroke="#63b8ff" points="381.16,-82.97 389.84,-76.89 379.26,-76.23 381.16,-82.97"/>
</a>
</g>
</g>
<!-- Node13&#45;&gt;Node8 -->
<g id="edge22_Node000013_Node000008" class="edge">
<title>Node13&#45;&gt;Node8</title>
<g id="a_edge22_Node000013_Node000008"><a xlink:title=" ">
<path fill="none" stroke="#63b8ff" d="M285.8,-115.65C337.65,-109.46 418.57,-97.28 486,-76 506.1,-69.66 508.94,-62.46 529,-56 582.03,-38.92 643.95,-27.44 691.19,-20.35"/>
<polygon fill="#63b8ff" stroke="#63b8ff" points="691.68,-23.82 701.07,-18.91 690.67,-16.89 691.68,-23.82"/>
</a>
</g>
</g>
<!-- Node13&#45;&gt;Node9 -->
<g id="edge23_Node000013_Node000009" class="edge">
<title>Node13&#45;&gt;Node9</title>
<g id="a_edge23_Node000013_Node000009"><a xlink:title=" ">
<path fill="none" stroke="#63b8ff" d="M228.82,-111.62C220.87,-93.76 203.39,-54.53 192.76,-30.67"/>
<polygon fill="#63b8ff" stroke="#63b8ff" points="196.05,-29.45 188.78,-21.74 189.66,-32.3 196.05,-29.45"/>
</a>
</g>
</g>
<!-- Node14&#45;&gt;Node2 -->
<g id="edge27_Node000014_Node000002" class="edge">
<title>Node14&#45;&gt;Node2</title>
<g id="a_edge27_Node000014_Node000002"><a xlink:title=" ">
<path fill="none" stroke="#63b8ff" d="M627.5,-167.93C623.12,-153.79 612.71,-126.6 594,-112 563.78,-88.42 522.28,-77.15 487.96,-71.79"/>
<polygon fill="#63b8ff" stroke="#63b8ff" points="488.51,-68.33 478.12,-70.4 487.53,-75.27 488.51,-68.33"/>
</a>
</g>
</g>
<!-- Node14&#45;&gt;Node8 -->
<g id="edge29_Node000014_Node000008" class="edge">
<title>Node14&#45;&gt;Node8</title>
<g id="a_edge29_Node000014_Node000008"><a xlink:title=" ">
<path fill="none" stroke="#63b8ff" d="M690.03,-170.13C737.05,-163.37 796.95,-151.22 812,-132 832.82,-105.4 825.1,-87.14 812,-56 807.31,-44.84 798.34,-35.07 789.57,-27.5"/>
<polygon fill="#63b8ff" stroke="#63b8ff" points="791.87,-24.87 781.86,-21.4 787.53,-30.35 791.87,-24.87"/>
</a>
</g>
</g>
<!-- Node14&#45;&gt;Node9 -->
<g id="edge30_Node000014_Node000009" class="edge">
<title>Node14&#45;&gt;Node9</title>
<g id="a_edge30_Node000014_Node000009"><a xlink:title=" ">
<path fill="none" stroke="#63b8ff" d="M617.54,-167.57C598.28,-153.44 559.66,-126.86 523,-112 456.25,-84.95 433.04,-99.63 365,-76 345.47,-69.22 342.21,-63.64 323,-56 291.83,-43.59 255.76,-31.99 228.17,-23.68"/>
<polygon fill="#63b8ff" stroke="#63b8ff" points="229.33,-20.37 218.74,-20.87 227.33,-27.08 229.33,-20.37"/>
</a>
</g>
</g>
<!-- Node14&#45;&gt;Node10 -->
<g id="edge28_Node000014_Node000010" class="edge">
<title>Node14&#45;&gt;Node10</title>
<g id="a_edge28_Node000014_Node000010"><a xlink:title=" ">
<path fill="none" stroke="#63b8ff" d="M601.43,-167.59C574.9,-158.86 535.16,-145.77 505.58,-136.03"/>
<polygon fill="#63b8ff" stroke="#63b8ff" points="506.82,-132.76 496.23,-132.95 504.63,-139.4 506.82,-132.76"/>
</a>
</g>
</g>
<!-- Node15&#45;&gt;Node2 -->
<g id="edge32_Node000015_Node000002" class="edge">
<title>Node15&#45;&gt;Node2</title>
<g id="a_edge32_Node000015_Node000002"><a xlink:title=" ">
<path fill="none" stroke="#63b8ff" d="M393.36,-167.68C396.61,-155.01 402.79,-131.65 409,-112 411.62,-103.7 414.78,-94.65 417.6,-86.85"/>
<polygon fill="#63b8ff" stroke="#63b8ff" points="420.81,-88.26 420.97,-77.66 414.24,-85.84 420.81,-88.26"/>
</a>
</g>
</g>
<!-- Node15&#45;&gt;Node8 -->
<g id="edge34_Node000015_Node000008" class="edge">
<title>Node15&#45;&gt;Node8</title>
<g id="a_edge34_Node000015_Node000008"><a xlink:title=" ">
<path fill="none" stroke="#63b8ff" d="M437.91,-174.99C536.22,-170.31 756.65,-157.1 779,-132 803.85,-104.1 788.17,-57.01 776.09,-30.55"/>
<polygon fill="#63b8ff" stroke="#63b8ff" points="779.29,-29.12 771.77,-21.65 772.99,-32.18 779.29,-29.12"/>
</a>
</g>
</g>
<!-- Node15&#45;&gt;Node9 -->
<g id="edge35_Node000015_Node000009" class="edge">
<title>Node15&#45;&gt;Node9</title>
<g id="a_edge35_Node000015_Node000009"><a xlink:title=" ">
<path fill="none" stroke="#63b8ff" d="M343.97,-168.93C281,-157.9 176.49,-138.73 171,-132 147.49,-103.2 162.44,-56.82 174.09,-30.64"/>
<polygon fill="#63b8ff" stroke="#63b8ff" points="177.14,-32.37 178.26,-21.83 170.82,-29.37 177.14,-32.37"/>
</a>
</g>
</g>
<!-- Node15&#45;&gt;Node10 -->
<g id="edge33_Node000015_Node000010" class="edge">
<title>Node15&#45;&gt;Node10</title>
<g id="a_edge33_Node000015_Node000010"><a xlink:title=" ">
<path fill="none" stroke="#63b8ff" d="M404.06,-167.59C414.97,-159.74 430.75,-148.38 443.66,-139.09"/>
<polygon fill="#63b8ff" stroke="#63b8ff" points="445.54,-142.05 451.61,-133.36 441.45,-136.37 445.54,-142.05"/>
</a>
</g>
</g>
<!-- Node16&#45;&gt;Node2 -->
<g id="edge37_Node000016_Node000002" class="edge">
<title>Node16&#45;&gt;Node2</title>
<g id="a_edge37_Node000016_Node000002"><a xlink:title=" ">
<path fill="none" stroke="#63b8ff" d="M548.73,-223.65C549.95,-201.64 549.98,-145.91 523,-112 511.22,-97.2 493.48,-87.07 476.31,-80.23"/>
<polygon fill="#63b8ff" stroke="#63b8ff" points="477.77,-77.04 467.18,-76.91 475.38,-83.62 477.77,-77.04"/>
</a>
</g>
</g>
<!-- Node16&#45;&gt;Node8 -->
<g id="edge40_Node000016_Node000008" class="edge">
<title>Node16&#45;&gt;Node8</title>
<g id="a_edge40_Node000016_Node000008"><a xlink:title=" ">
<path fill="none" stroke="#63b8ff" d="M605.48,-231.52C672.99,-226.28 781.97,-206.06 831,-132 837.69,-121.89 847.26,-88.52 830,-56 823.18,-43.16 810.88,-33.19 798.87,-25.93"/>
<polygon fill="#63b8ff" stroke="#63b8ff" points="800.75,-22.97 790.3,-21.21 797.37,-29.1 800.75,-22.97"/>
</a>
</g>
</g>
<!-- Node16&#45;&gt;Node9 -->
<g id="edge41_Node000016_Node000009" class="edge">
<title>Node16&#45;&gt;Node9</title>
<g id="a_edge41_Node000016_Node000009"><a xlink:title=" ">
<path fill="none" stroke="#63b8ff" d="M490.63,-232.42C422.89,-230.12 307.71,-221.11 215,-188 170.28,-172.03 147.17,-173.46 124,-132 117.63,-120.6 111.14,-85.01 126,-56 132.34,-43.63 143.8,-33.63 154.87,-26.23"/>
<polygon fill="#63b8ff" stroke="#63b8ff" points="156.38,-29.41 163.07,-21.19 152.72,-23.45 156.38,-29.41"/>
</a>
</g>
</g>
<!-- Node16&#45;&gt;Node10 -->
<g id="edge38_Node000016_Node000010" class="edge">
<title>Node16&#45;&gt;Node10</title>
<g id="a_edge38_Node000016_Node000010"><a xlink:title=" ">
<path fill="none" stroke="#63b8ff" d="M541.01,-223.62C527.45,-205.44 497.38,-165.09 479.7,-141.38"/>
<polygon fill="#63b8ff" stroke="#63b8ff" points="482.66,-139.49 473.88,-133.57 477.05,-143.68 482.66,-139.49"/>
</a>
</g>
</g>
<!-- Node16&#45;&gt;Node14 -->
<g id="edge39_Node000016_Node000014" class="edge">
<title>Node16&#45;&gt;Node14</title>
<g id="a_edge39_Node000016_Node000014"><a xlink:title=" ">
<path fill="none" stroke="#63b8ff" d="M562.28,-223.59C574.44,-215.59 592.14,-203.93 606.4,-194.54"/>
<polygon fill="#63b8ff" stroke="#63b8ff" points="607.91,-197.73 614.34,-189.31 604.06,-191.89 607.91,-197.73"/>
</a>
</g>
</g>
</g>
</svg>
