<?xml version="1.0" encoding="UTF-8" standalone="no"?>
<!DOCTYPE svg PUBLIC "-//W3C//DTD SVG 1.1//EN"
 "http://www.w3.org/Graphics/SVG/1.1/DTD/svg11.dtd">
<!-- Generated by graphviz version 13.1.0 (20250701.0955)
 -->
<!-- Title: TryOpenFile Pages: 1 -->
<svg width="313pt" height="84pt"
 viewBox="0.00 0.00 313.00 84.00" xmlns="http://www.w3.org/2000/svg" xmlns:xlink="http://www.w3.org/1999/xlink">

<svg id="main" version="1.1" xmlns="http://www.w3.org/2000/svg" xmlns:xlink="http://www.w3.org/1999/xlink" xml:space="preserve">

<style type="text/css"><![CDATA[
.node, .edge {opacity: 0.7;}
.node.selected, .edge.selected {opacity: 1;}
.edge:hover path { stroke: red; }
.edge:hover polygon { stroke: red; fill: red; }
]]></style>
<script type="application/ecmascript" xlink:href="../../svg.min.js"/>
<svg id="graph" class="graph">
<g id="graph0" class="graph" transform="scale(1 1) rotate(0) translate(4 80)">
<title>TryOpenFile</title>
<!-- Node1 -->
<g id="Node000001" class="node">
<title>Node1</title>
<g id="a_Node000001"><a xlink:title=" ">
<polygon fill="#999999" stroke="#666666" points="69.25,-39 0,-39 0,-19 69.25,-19 69.25,-39"/>
<text xml:space="preserve" text-anchor="middle" x="34.62" y="-25.5" font-family="Helvetica,sans-Serif" font-size="10.00">TryOpenFile</text>
</a>
</g>
</g>
<!-- Node2 -->
<g id="Node000002" class="node">
<title>Node2</title>
<g id="a_Node000002"><a xlink:href="../../db/dcf/SDL__iostreamromfs_8c.html#a29bf33822b0c3b6ee58dc6fc8071dab4" target="_top" xlink:title=" ">
<polygon fill="white" stroke="#666666" points="196.25,-39 105.25,-39 105.25,-19 196.25,-19 196.25,-39"/>
<text xml:space="preserve" text-anchor="middle" x="150.75" y="-25.5" font-family="Helvetica,sans-Serif" font-size="10.00">TryOpenInRomfs</text>
</a>
</g>
</g>
<!-- Node1&#45;&gt;Node2 -->
<g id="edge1_Node000001_Node000002" class="edge">
<title>Node1&#45;&gt;Node2</title>
<g id="a_edge1_Node000001_Node000002"><a xlink:title=" ">
<path fill="none" stroke="#63b8ff" d="M69.56,-29C77.24,-29 85.59,-29 93.91,-29"/>
<polygon fill="#63b8ff" stroke="#63b8ff" points="93.65,-32.5 103.65,-29 93.65,-25.5 93.65,-32.5"/>
</a>
</g>
</g>
<!-- Node3 -->
<g id="Node000003" class="node">
<title>Node3</title>
<g id="a_Node000003"><a xlink:href="../../d2/d5b/SDL__stdinc_8h.html#a50d27ce9b64eda78b3ece5a6bb7d0a17" target="_top" xlink:title=" ">
<polygon fill="white" stroke="#666666" points="305.25,-58 232.25,-58 232.25,-38 305.25,-38 305.25,-58"/>
<text xml:space="preserve" text-anchor="middle" x="268.75" y="-44.5" font-family="Helvetica,sans-Serif" font-size="10.00">SDL_asprintf</text>
</a>
</g>
</g>
<!-- Node2&#45;&gt;Node3 -->
<g id="edge2_Node000002_Node000003" class="edge">
<title>Node2&#45;&gt;Node3</title>
<g id="a_edge2_Node000002_Node000003"><a xlink:title=" ">
<path fill="none" stroke="#63b8ff" d="M196.6,-36.35C204.48,-37.64 212.7,-38.98 220.65,-40.28"/>
<polygon fill="#63b8ff" stroke="#63b8ff" points="220.08,-43.74 230.51,-41.9 221.21,-36.83 220.08,-43.74"/>
</a>
</g>
</g>
<!-- Node4 -->
<g id="Node000004" class="node">
<title>Node4</title>
<g id="a_Node000004"><a xlink:href="../../d4/d23/SDL__malloc_8c.html#a883d5d0a9ce20246045f385a6b99ebf2" target="_top" xlink:title=" ">
<polygon fill="white" stroke="#666666" points="297.38,-20 240.12,-20 240.12,0 297.38,0 297.38,-20"/>
<text xml:space="preserve" text-anchor="middle" x="268.75" y="-6.5" font-family="Helvetica,sans-Serif" font-size="10.00">SDL_free</text>
</a>
</g>
</g>
<!-- Node2&#45;&gt;Node4 -->
<g id="edge4_Node000002_Node000004" class="edge">
<title>Node2&#45;&gt;Node4</title>
<g id="a_edge4_Node000002_Node000004"><a xlink:title=" ">
<path fill="none" stroke="#63b8ff" d="M196.6,-21.65C207.16,-19.92 218.34,-18.09 228.62,-16.41"/>
<polygon fill="#63b8ff" stroke="#63b8ff" points="228.98,-19.9 238.28,-14.83 227.85,-12.99 228.98,-19.9"/>
</a>
</g>
</g>
<!-- Node3&#45;&gt;Node3 -->
<g id="edge3_Node000003_Node000003" class="edge">
<title>Node3&#45;&gt;Node3</title>
<g id="a_edge3_Node000003_Node000003"><a xlink:title=" ">
<path fill="none" stroke="#63b8ff" d="M250,-58.34C241.99,-66.98 248.24,-76 268.75,-76 279.97,-76 286.92,-73.3 289.61,-69.44"/>
<polygon fill="#63b8ff" stroke="#63b8ff" points="293.08,-69 287.78,-59.83 286.21,-70.3 293.08,-69"/>
</a>
</g>
</g>
</g>
</svg>
</svg>

<style type='text/css'>
<![CDATA[
[data-mouse-over-selected='false'] { opacity: 0.7; }
[data-mouse-over-selected='true']  { opacity: 1.0; }
]]>
</style>
<script type="application/ecmascript"><![CDATA[
document.addEventListener('DOMContentLoaded', (event) => {
  highlightEdges();
  highlightAdjacentNodes();
});
]]></script>
</svg>
