<?xml version="1.0" encoding="UTF-8" standalone="no"?>
<!DOCTYPE svg PUBLIC "-//W3C//DTD SVG 1.1//EN"
 "http://www.w3.org/Graphics/SVG/1.1/DTD/svg11.dtd">
<!-- Generated by graphviz version 13.1.0 (20250701.0955)
 -->
<!-- Title: N3DS_FileOpen Pages: 1 -->
<svg width="439pt" height="161pt"
 viewBox="0.00 0.00 439.00 161.00" xmlns="http://www.w3.org/2000/svg" xmlns:xlink="http://www.w3.org/1999/xlink">

<svg id="main" version="1.1" xmlns="http://www.w3.org/2000/svg" xmlns:xlink="http://www.w3.org/1999/xlink" xml:space="preserve">

<style type="text/css"><![CDATA[
.node, .edge {opacity: 0.7;}
.node.selected, .edge.selected {opacity: 1;}
.edge:hover path { stroke: red; }
.edge:hover polygon { stroke: red; fill: red; }
]]></style>
<script type="application/ecmascript" xlink:href="../../svg.min.js"/>
<svg id="graph" class="graph">
<g id="graph0" class="graph" transform="scale(1 1) rotate(0) translate(4 157)">
<title>N3DS_FileOpen</title>
<!-- Node1 -->
<g id="Node000001" class="node">
<title>Node1</title>
<g id="a_Node000001"><a xlink:title=" ">
<polygon fill="#999999" stroke="#666666" points="87.25,-77 0,-77 0,-57 87.25,-57 87.25,-77"/>
<text xml:space="preserve" text-anchor="middle" x="43.62" y="-63.5" font-family="Helvetica,sans-Serif" font-size="10.00">N3DS_FileOpen</text>
</a>
</g>
</g>
<!-- Node2 -->
<g id="Node000002" class="node">
<title>Node2</title>
<g id="a_Node000002"><a xlink:href="../../db/dcf/SDL__iostreamromfs_8c.html#a62f93f330ffbe7b06d3c82bce6819d07" target="_top" xlink:title=" ">
<polygon fill="white" stroke="#666666" points="188.75,-115 129.25,-115 129.25,-95 188.75,-95 188.75,-115"/>
<text xml:space="preserve" text-anchor="middle" x="159" y="-101.5" font-family="Helvetica,sans-Serif" font-size="10.00">HasPrefix</text>
</a>
</g>
</g>
<!-- Node1&#45;&gt;Node2 -->
<g id="edge1_Node000001_Node000002" class="edge">
<title>Node1&#45;&gt;Node2</title>
<g id="a_edge1_Node000001_Node000002"><a xlink:title=" ">
<path fill="none" stroke="#63b8ff" d="M75.91,-77.48C88.94,-81.85 104.23,-86.98 118.06,-91.61"/>
<polygon fill="#63b8ff" stroke="#63b8ff" points="116.74,-94.86 127.33,-94.72 118.96,-88.22 116.74,-94.86"/>
</a>
</g>
</g>
<!-- Node5 -->
<g id="Node000005" class="node">
<title>Node5</title>
<g id="a_Node000005"><a xlink:href="../../db/dcf/SDL__iostreamromfs_8c.html#a8d9b94997ed8eaaa3b0bde65fe9b6a1d" target="_top" xlink:title=" ">
<polygon fill="white" stroke="#666666" points="194.75,-77 123.25,-77 123.25,-57 194.75,-57 194.75,-77"/>
<text xml:space="preserve" text-anchor="middle" x="159" y="-63.5" font-family="Helvetica,sans-Serif" font-size="10.00">IsReadMode</text>
</a>
</g>
</g>
<!-- Node1&#45;&gt;Node5 -->
<g id="edge4_Node000001_Node000005" class="edge">
<title>Node1&#45;&gt;Node5</title>
<g id="a_edge4_Node000001_Node000005"><a xlink:title=" ">
<path fill="none" stroke="#63b8ff" d="M87.49,-67C95.32,-67 103.54,-67 111.47,-67"/>
<polygon fill="#63b8ff" stroke="#63b8ff" points="111.32,-70.5 121.32,-67 111.32,-63.5 111.32,-70.5"/>
</a>
</g>
</g>
<!-- Node7 -->
<g id="Node000007" class="node">
<title>Node7</title>
<g id="a_Node000007"><a xlink:href="../../db/dcf/SDL__iostreamromfs_8c.html#a7a31e965bbf0c2ca506cc5b80a31f0b4" target="_top" xlink:title=" ">
<polygon fill="white" stroke="#666666" points="193.62,-39 124.38,-39 124.38,-19 193.62,-19 193.62,-39"/>
<text xml:space="preserve" text-anchor="middle" x="159" y="-25.5" font-family="Helvetica,sans-Serif" font-size="10.00">TryOpenFile</text>
</a>
</g>
</g>
<!-- Node1&#45;&gt;Node7 -->
<g id="edge6_Node000001_Node000007" class="edge">
<title>Node1&#45;&gt;Node7</title>
<g id="a_edge6_Node000001_Node000007"><a xlink:title=" ">
<path fill="none" stroke="#63b8ff" d="M75.91,-56.52C88.3,-52.36 102.73,-47.52 116.01,-43.07"/>
<polygon fill="#63b8ff" stroke="#63b8ff" points="117.02,-46.43 125.39,-39.93 114.79,-39.79 117.02,-46.43"/>
</a>
</g>
</g>
<!-- Node3 -->
<g id="Node000003" class="node">
<title>Node3</title>
<g id="a_Node000003"><a xlink:href="../../d2/d23/SDL__string_8c.html#a38e76d86236f4a24cf0cc6863ec3ae9d" target="_top" xlink:title=" ">
<polygon fill="white" stroke="#666666" points="308.62,-153 243.88,-153 243.88,-133 308.62,-133 308.62,-153"/>
<text xml:space="preserve" text-anchor="middle" x="276.25" y="-139.5" font-family="Helvetica,sans-Serif" font-size="10.00">SDL_strlen</text>
</a>
</g>
</g>
<!-- Node2&#45;&gt;Node3 -->
<g id="edge2_Node000002_Node000003" class="edge">
<title>Node2&#45;&gt;Node3</title>
<g id="a_edge2_Node000002_Node000003"><a xlink:title=" ">
<path fill="none" stroke="#63b8ff" d="M189.08,-114.59C202.37,-118.97 218.36,-124.24 232.94,-129.05"/>
<polygon fill="#63b8ff" stroke="#63b8ff" points="231.72,-132.33 242.31,-132.14 233.91,-125.68 231.72,-132.33"/>
</a>
</g>
</g>
<!-- Node4 -->
<g id="Node000004" class="node">
<title>Node4</title>
<g id="a_Node000004"><a xlink:href="../../d2/d23/SDL__string_8c.html#a48219d4c04e8e26365e9091f3eb9d540" target="_top" xlink:title=" ">
<polygon fill="white" stroke="#666666" points="314.25,-115 238.25,-115 238.25,-95 314.25,-95 314.25,-115"/>
<text xml:space="preserve" text-anchor="middle" x="276.25" y="-101.5" font-family="Helvetica,sans-Serif" font-size="10.00">SDL_strncmp</text>
</a>
</g>
</g>
<!-- Node2&#45;&gt;Node4 -->
<g id="edge3_Node000002_Node000004" class="edge">
<title>Node2&#45;&gt;Node4</title>
<g id="a_edge3_Node000002_Node000004"><a xlink:title=" ">
<path fill="none" stroke="#63b8ff" d="M189.08,-105C200.42,-105 213.72,-105 226.44,-105"/>
<polygon fill="#63b8ff" stroke="#63b8ff" points="226.37,-108.5 236.37,-105 226.37,-101.5 226.37,-108.5"/>
</a>
</g>
</g>
<!-- Node6 -->
<g id="Node000006" class="node">
<title>Node6</title>
<g id="a_Node000006"><a xlink:href="../../d2/d23/SDL__string_8c.html#a7df61e93e9393f11bebd73eee515d1bf" target="_top" xlink:title=" ">
<polygon fill="white" stroke="#666666" points="309,-77 243.5,-77 243.5,-57 309,-57 309,-77"/>
<text xml:space="preserve" text-anchor="middle" x="276.25" y="-63.5" font-family="Helvetica,sans-Serif" font-size="10.00">SDL_strchr</text>
</a>
</g>
</g>
<!-- Node5&#45;&gt;Node6 -->
<g id="edge5_Node000005_Node000006" class="edge">
<title>Node5&#45;&gt;Node6</title>
<g id="a_edge5_Node000005_Node000006"><a xlink:title=" ">
<path fill="none" stroke="#63b8ff" d="M195.21,-67C206.74,-67 219.7,-67 231.78,-67"/>
<polygon fill="#63b8ff" stroke="#63b8ff" points="231.49,-70.5 241.49,-67 231.49,-63.5 231.49,-70.5"/>
</a>
</g>
</g>
<!-- Node8 -->
<g id="Node000008" class="node">
<title>Node8</title>
<g id="a_Node000008"><a xlink:href="../../db/dcf/SDL__iostreamromfs_8c.html#a29bf33822b0c3b6ee58dc6fc8071dab4" target="_top" xlink:title=" ">
<polygon fill="white" stroke="#666666" points="321.75,-39 230.75,-39 230.75,-19 321.75,-19 321.75,-39"/>
<text xml:space="preserve" text-anchor="middle" x="276.25" y="-25.5" font-family="Helvetica,sans-Serif" font-size="10.00">TryOpenInRomfs</text>
</a>
</g>
</g>
<!-- Node7&#45;&gt;Node8 -->
<g id="edge7_Node000007_Node000008" class="edge">
<title>Node7&#45;&gt;Node8</title>
<g id="a_edge7_Node000007_Node000008"><a xlink:title=" ">
<path fill="none" stroke="#63b8ff" d="M193.96,-29C201.9,-29 210.56,-29 219.18,-29"/>
<polygon fill="#63b8ff" stroke="#63b8ff" points="218.91,-32.5 228.91,-29 218.91,-25.5 218.91,-32.5"/>
</a>
</g>
</g>
<!-- Node9 -->
<g id="Node000009" class="node">
<title>Node9</title>
<g id="a_Node000009"><a xlink:href="../../d2/d5b/SDL__stdinc_8h.html#a50d27ce9b64eda78b3ece5a6bb7d0a17" target="_top" xlink:title=" ">
<polygon fill="white" stroke="#666666" points="430.75,-58 357.75,-58 357.75,-38 430.75,-38 430.75,-58"/>
<text xml:space="preserve" text-anchor="middle" x="394.25" y="-44.5" font-family="Helvetica,sans-Serif" font-size="10.00">SDL_asprintf</text>
</a>
</g>
</g>
<!-- Node8&#45;&gt;Node9 -->
<g id="edge8_Node000008_Node000009" class="edge">
<title>Node8&#45;&gt;Node9</title>
<g id="a_edge8_Node000008_Node000009"><a xlink:title=" ">
<path fill="none" stroke="#63b8ff" d="M322.1,-36.35C329.98,-37.64 338.2,-38.98 346.15,-40.28"/>
<polygon fill="#63b8ff" stroke="#63b8ff" points="345.58,-43.74 356.01,-41.9 346.71,-36.83 345.58,-43.74"/>
</a>
</g>
</g>
<!-- Node10 -->
<g id="Node000010" class="node">
<title>Node10</title>
<g id="a_Node000010"><a xlink:href="../../d4/d23/SDL__malloc_8c.html#a883d5d0a9ce20246045f385a6b99ebf2" target="_top" xlink:title=" ">
<polygon fill="white" stroke="#666666" points="422.88,-20 365.62,-20 365.62,0 422.88,0 422.88,-20"/>
<text xml:space="preserve" text-anchor="middle" x="394.25" y="-6.5" font-family="Helvetica,sans-Serif" font-size="10.00">SDL_free</text>
</a>
</g>
</g>
<!-- Node8&#45;&gt;Node10 -->
<g id="edge10_Node000008_Node000010" class="edge">
<title>Node8&#45;&gt;Node10</title>
<g id="a_edge10_Node000008_Node000010"><a xlink:title=" ">
<path fill="none" stroke="#63b8ff" d="M322.1,-21.65C332.66,-19.92 343.84,-18.09 354.12,-16.41"/>
<polygon fill="#63b8ff" stroke="#63b8ff" points="354.48,-19.9 363.78,-14.83 353.35,-12.99 354.48,-19.9"/>
</a>
</g>
</g>
<!-- Node9&#45;&gt;Node9 -->
<g id="edge9_Node000009_Node000009" class="edge">
<title>Node9&#45;&gt;Node9</title>
<g id="a_edge9_Node000009_Node000009"><a xlink:title=" ">
<path fill="none" stroke="#63b8ff" d="M375.5,-58.34C367.49,-66.98 373.74,-76 394.25,-76 405.47,-76 412.42,-73.3 415.11,-69.44"/>
<polygon fill="#63b8ff" stroke="#63b8ff" points="418.58,-69 413.28,-59.83 411.71,-70.3 418.58,-69"/>
</a>
</g>
</g>
</g>
</svg>
</svg>

<style type='text/css'>
<![CDATA[
[data-mouse-over-selected='false'] { opacity: 0.7; }
[data-mouse-over-selected='true']  { opacity: 1.0; }
]]>
</style>
<script type="application/ecmascript"><![CDATA[
document.addEventListener('DOMContentLoaded', (event) => {
  highlightEdges();
  highlightAdjacentNodes();
});
]]></script>
</svg>
