<?xml version="1.0" encoding="UTF-8" standalone="no"?>
<!DOCTYPE svg PUBLIC "-//W3C//DTD SVG 1.1//EN"
 "http://www.w3.org/Graphics/SVG/1.1/DTD/svg11.dtd">
<!-- Generated by graphviz version 13.1.0 (20250701.0955)
 -->
<!-- Title: Texture_GetBlockWidth Pages: 1 -->
<svg width="350pt" height="66pt"
 viewBox="0.00 0.00 350.00 66.00" xmlns="http://www.w3.org/2000/svg" xmlns:xlink="http://www.w3.org/1999/xlink">
<g id="graph0" class="graph" transform="scale(1 1) rotate(0) translate(4 62)">
<title>Texture_GetBlockWidth</title>
<!-- Node1 -->
<g id="Node000001" class="node">
<title>Node1</title>
<g id="a_Node000001"><a xlink:title=" ">
<polygon fill="#999999" stroke="#666666" points="341.75,-39 222.25,-39 222.25,-19 341.75,-19 341.75,-39"/>
<text xml:space="preserve" text-anchor="middle" x="282" y="-25.5" font-family="Helvetica,sans-Serif" font-size="10.00">Texture_GetBlockWidth</text>
</a>
</g>
</g>
<!-- Node2 -->
<g id="Node000002" class="node">
<title>Node2</title>
<g id="a_Node000002"><a xlink:href="../../d2/daa/SDL__sysgpu_8h.html#ad110813189cdc2519288b7ceeb06efa9" target="_top" xlink:title=" ">
<polygon fill="white" stroke="#666666" points="131.5,-58 54.75,-58 54.75,-38 131.5,-38 131.5,-58"/>
<text xml:space="preserve" text-anchor="middle" x="93.12" y="-44.5" font-family="Helvetica,sans-Serif" font-size="10.00">BytesPerRow</text>
</a>
</g>
</g>
<!-- Node1&#45;&gt;Node2 -->
<g id="edge1_Node000001_Node000002" class="edge">
<title>Node1&#45;&gt;Node2</title>
<g id="a_edge1_Node000001_Node000002"><a xlink:title=" ">
<path fill="none" stroke="#63b8ff" d="M210.63,-36.16C183.94,-38.87 154.57,-41.85 132,-44.15"/>
<polygon fill="#63b8ff" stroke="#63b8ff" points="210.77,-39.66 220.37,-35.16 210.06,-32.69 210.77,-39.66"/>
</a>
</g>
</g>
<!-- Node3 -->
<g id="Node000003" class="node">
<title>Node3</title>
<g id="a_Node000003"><a xlink:href="../../de/dc9/SDL__gpu_8c.html#aeb18facf91a17130ce74700fc04dfcab" target="_top" xlink:title=" ">
<polygon fill="white" stroke="#666666" points="186.25,-20 0,-20 0,0 186.25,0 186.25,-20"/>
<text xml:space="preserve" text-anchor="middle" x="93.12" y="-6.5" font-family="Helvetica,sans-Serif" font-size="10.00">SDL_CalculateGPUTextureFormatSize</text>
</a>
</g>
</g>
<!-- Node1&#45;&gt;Node3 -->
<g id="edge2_Node000001_Node000003" class="edge">
<title>Node1&#45;&gt;Node3</title>
<g id="a_edge2_Node000001_Node000003"><a xlink:title=" ">
<path fill="none" stroke="#63b8ff" d="M210.6,-21.84C202.77,-21.05 194.72,-20.23 186.67,-19.41"/>
<polygon fill="#63b8ff" stroke="#63b8ff" points="210.06,-25.31 220.37,-22.84 210.77,-18.34 210.06,-25.31"/>
</a>
</g>
</g>
</g>
</svg>
