<?xml version="1.0" encoding="UTF-8" standalone="no"?>
<!DOCTYPE svg PUBLIC "-//W3C//DTD SVG 1.1//EN"
 "http://www.w3.org/Graphics/SVG/1.1/DTD/svg11.dtd">
<!-- Generated by graphviz version 13.1.0 (20250701.0955)
 -->
<!-- Title: SDL_FindPhysicalAudioDeviceByCallback Pages: 1 -->
<svg width="665pt" height="40pt"
 viewBox="0.00 0.00 665.00 40.00" xmlns="http://www.w3.org/2000/svg" xmlns:xlink="http://www.w3.org/1999/xlink">
<g id="graph0" class="graph" transform="scale(1 1) rotate(0) translate(4 36)">
<title>SDL_FindPhysicalAudioDeviceByCallback</title>
<!-- Node1 -->
<g id="Node000001" class="node">
<title>Node1</title>
<g id="a_Node000001"><a xlink:title=" ">
<polygon fill="#999999" stroke="#666666" points="657.25,-32 504.75,-32 504.75,0 657.25,0 657.25,-32"/>
<text xml:space="preserve" text-anchor="start" x="512.75" y="-18.5" font-family="Helvetica,sans-Serif" font-size="10.00">SDL_FindPhysicalAudioDevice</text>
<text xml:space="preserve" text-anchor="middle" x="581" y="-6.5" font-family="Helvetica,sans-Serif" font-size="10.00">ByCallback</text>
</a>
</g>
</g>
<!-- Node2 -->
<g id="Node000002" class="node">
<title>Node2</title>
<g id="a_Node000002"><a xlink:href="../../d6/d9b/SDL__audio_8c.html#a0286a497c39a6368f9544adbf642ba66" target="_top" xlink:title=" ">
<polygon fill="white" stroke="#666666" points="468.75,-32 316.25,-32 316.25,0 468.75,0 468.75,-32"/>
<text xml:space="preserve" text-anchor="start" x="324.25" y="-18.5" font-family="Helvetica,sans-Serif" font-size="10.00">SDL_FindPhysicalAudioDevice</text>
<text xml:space="preserve" text-anchor="middle" x="392.5" y="-6.5" font-family="Helvetica,sans-Serif" font-size="10.00">ByHandle</text>
</a>
</g>
</g>
<!-- Node1&#45;&gt;Node2 -->
<g id="edge1_Node000001_Node000002" class="edge">
<title>Node1&#45;&gt;Node2</title>
<g id="a_edge1_Node000001_Node000002"><a xlink:title=" ">
<path fill="none" stroke="#63b8ff" d="M493.16,-16C485.16,-16 477.09,-16 469.2,-16"/>
<polygon fill="#63b8ff" stroke="#63b8ff" points="492.9,-19.5 502.9,-16 492.9,-12.5 492.9,-19.5"/>
</a>
</g>
</g>
<!-- Node3 -->
<g id="Node000003" class="node">
<title>Node3</title>
<g id="a_Node000003"><a xlink:href="../../d6/d9b/SDL__audio_8c.html#aae09e0ccff5944b2af8d26d8f86058bd" target="_top" xlink:title=" ">
<polygon fill="white" stroke="#666666" points="280.25,-26 166.75,-26 166.75,-6 280.25,-6 280.25,-26"/>
<text xml:space="preserve" text-anchor="middle" x="223.5" y="-12.5" font-family="Helvetica,sans-Serif" font-size="10.00">SDL_AddAudioDevice</text>
</a>
</g>
</g>
<!-- Node2&#45;&gt;Node3 -->
<g id="edge2_Node000002_Node000003" class="edge">
<title>Node2&#45;&gt;Node3</title>
<g id="a_edge2_Node000002_Node000003"><a xlink:title=" ">
<path fill="none" stroke="#63b8ff" d="M304.34,-16C296.22,-16 288.15,-16 280.43,-16"/>
<polygon fill="#63b8ff" stroke="#63b8ff" points="304.3,-19.5 314.3,-16 304.3,-12.5 304.3,-19.5"/>
</a>
</g>
</g>
<!-- Node4 -->
<g id="Node000004" class="node">
<title>Node4</title>
<g id="a_Node000004"><a xlink:href="../../d6/d9b/SDL__audio_8c.html#a63ad09335ca7b4758b9ef2cd398b04d2" target="_top" xlink:title=" ">
<polygon fill="white" stroke="#666666" points="130.75,-32 0,-32 0,0 130.75,0 130.75,-32"/>
<text xml:space="preserve" text-anchor="start" x="8" y="-18.5" font-family="Helvetica,sans-Serif" font-size="10.00">SDL_AudioDetectDevices</text>
<text xml:space="preserve" text-anchor="middle" x="65.38" y="-6.5" font-family="Helvetica,sans-Serif" font-size="10.00">_Default</text>
</a>
</g>
</g>
<!-- Node3&#45;&gt;Node4 -->
<g id="edge3_Node000003_Node000004" class="edge">
<title>Node3&#45;&gt;Node4</title>
<g id="a_edge3_Node000003_Node000004"><a xlink:title=" ">
<path fill="none" stroke="#63b8ff" d="M155.11,-16C147.18,-16 139.1,-16 131.21,-16"/>
<polygon fill="#63b8ff" stroke="#63b8ff" points="155.06,-19.5 165.06,-16 155.06,-12.5 155.06,-19.5"/>
</a>
</g>
</g>
</g>
</svg>
