<?xml version="1.0" encoding="UTF-8" standalone="no"?>
<!DOCTYPE svg PUBLIC "-//W3C//DTD SVG 1.1//EN"
 "http://www.w3.org/Graphics/SVG/1.1/DTD/svg11.dtd">
<!-- Generated by graphviz version 13.1.0 (20250701.0955)
 -->
<!-- Title: ObtainPhysicalAudioDevice Pages: 1 -->
<svg width="738pt" height="110pt"
 viewBox="0.00 0.00 738.00 110.00" xmlns="http://www.w3.org/2000/svg" xmlns:xlink="http://www.w3.org/1999/xlink">
<g id="graph0" class="graph" transform="scale(1 1) rotate(0) translate(4 106)">
<title>ObtainPhysicalAudioDevice</title>
<!-- Node1 -->
<g id="Node000001" class="node">
<title>Node1</title>
<g id="a_Node000001"><a xlink:title=" ">
<polygon fill="#999999" stroke="#666666" points="730,-42 592.5,-42 592.5,-22 730,-22 730,-42"/>
<text xml:space="preserve" text-anchor="middle" x="661.25" y="-28.5" font-family="Helvetica,sans-Serif" font-size="10.00">ObtainPhysicalAudioDevice</text>
</a>
</g>
</g>
<!-- Node2 -->
<g id="Node000002" class="node">
<title>Node2</title>
<g id="a_Node000002"><a xlink:href="../../d6/d9b/SDL__audio_8c.html#afd356489f0ad5400d3c0cf313039c294" target="_top" xlink:title=" ">
<polygon fill="white" stroke="#666666" points="541.88,-70 404.38,-70 404.38,-38 541.88,-38 541.88,-70"/>
<text xml:space="preserve" text-anchor="start" x="412.38" y="-56.5" font-family="Helvetica,sans-Serif" font-size="10.00">ObtainPhysicalAudioDevice</text>
<text xml:space="preserve" text-anchor="middle" x="473.12" y="-44.5" font-family="Helvetica,sans-Serif" font-size="10.00">DefaultAllowed</text>
</a>
</g>
</g>
<!-- Node1&#45;&gt;Node2 -->
<g id="edge1_Node000001_Node000002" class="edge">
<title>Node1&#45;&gt;Node2</title>
<g id="a_edge1_Node000001_Node000002"><a xlink:title=" ">
<path fill="none" stroke="#63b8ff" d="M580.86,-41.38C568.05,-42.9 554.88,-44.45 542.37,-45.93"/>
<polygon fill="#63b8ff" stroke="#63b8ff" points="580.98,-44.89 590.5,-40.24 580.16,-37.94 580.98,-44.89"/>
</a>
</g>
</g>
<!-- Node7 -->
<g id="Node000007" class="node">
<title>Node7</title>
<g id="a_Node000007"><a xlink:href="../../d6/d9b/SDL__audio_8c.html#ad4cae8cf429411be160ec61914b28043" target="_top" xlink:title=" ">
<polygon fill="white" stroke="#666666" points="556.5,-20 389.75,-20 389.75,0 556.5,0 556.5,-20"/>
<text xml:space="preserve" text-anchor="middle" x="473.12" y="-6.5" font-family="Helvetica,sans-Serif" font-size="10.00">SDL_DefaultAudioDeviceChanged</text>
</a>
</g>
</g>
<!-- Node1&#45;&gt;Node7 -->
<g id="edge6_Node000001_Node000007" class="edge">
<title>Node1&#45;&gt;Node7</title>
<g id="a_edge6_Node000001_Node000007"><a xlink:title=" ">
<path fill="none" stroke="#63b8ff" d="M580.62,-22.59C572.77,-21.66 564.79,-20.72 556.91,-19.79"/>
<polygon fill="#63b8ff" stroke="#63b8ff" points="580.16,-26.06 590.5,-23.76 580.98,-19.11 580.16,-26.06"/>
</a>
</g>
</g>
<!-- Node3 -->
<g id="Node000003" class="node">
<title>Node3</title>
<g id="a_Node000003"><a xlink:href="../../d6/d9b/SDL__audio_8c.html#aeba764d6e3e6845eb5de72ce525c0d2d" target="_top" xlink:title=" ">
<polygon fill="white" stroke="#666666" points="353.75,-102 187,-102 187,-82 353.75,-82 353.75,-102"/>
<text xml:space="preserve" text-anchor="middle" x="270.38" y="-88.5" font-family="Helvetica,sans-Serif" font-size="10.00">SDL_GetAudioDeviceChannelMap</text>
</a>
</g>
</g>
<!-- Node2&#45;&gt;Node3 -->
<g id="edge2_Node000002_Node000003" class="edge">
<title>Node2&#45;&gt;Node3</title>
<g id="a_edge2_Node000002_Node000003"><a xlink:title=" ">
<path fill="none" stroke="#63b8ff" d="M392.82,-69.01C370.72,-73.2 347.19,-77.65 326.79,-81.51"/>
<polygon fill="#63b8ff" stroke="#63b8ff" points="393.22,-72.5 402.39,-67.2 391.92,-65.62 393.22,-72.5"/>
</a>
</g>
</g>
<!-- Node4 -->
<g id="Node000004" class="node">
<title>Node4</title>
<g id="a_Node000004"><a xlink:href="../../d6/d9b/SDL__audio_8c.html#a7af2ed205d479859194a8da721bd8db2" target="_top" xlink:title=" ">
<polygon fill="white" stroke="#666666" points="341.75,-64 199,-64 199,-44 341.75,-44 341.75,-64"/>
<text xml:space="preserve" text-anchor="middle" x="270.38" y="-50.5" font-family="Helvetica,sans-Serif" font-size="10.00">SDL_GetAudioDeviceFormat</text>
</a>
</g>
</g>
<!-- Node2&#45;&gt;Node4 -->
<g id="edge3_Node000002_Node000004" class="edge">
<title>Node2&#45;&gt;Node4</title>
<g id="a_edge3_Node000002_Node000004"><a xlink:title=" ">
<path fill="none" stroke="#63b8ff" d="M392.52,-54C375.88,-54 358.46,-54 342.17,-54"/>
<polygon fill="#63b8ff" stroke="#63b8ff" points="392.37,-57.5 402.37,-54 392.37,-50.5 392.37,-57.5"/>
</a>
</g>
</g>
<!-- Node5 -->
<g id="Node000005" class="node">
<title>Node5</title>
<g id="a_Node000005"><a xlink:href="../../d6/d9b/SDL__audio_8c.html#ad4a998b0fa52004c6db6b4182de26f8c" target="_top" xlink:title=" ">
<polygon fill="white" stroke="#666666" points="330.12,-26 210.62,-26 210.62,-6 330.12,-6 330.12,-26"/>
<text xml:space="preserve" text-anchor="middle" x="270.38" y="-12.5" font-family="Helvetica,sans-Serif" font-size="10.00">SDL_OpenAudioDevice</text>
</a>
</g>
</g>
<!-- Node2&#45;&gt;Node5 -->
<g id="edge4_Node000002_Node000005" class="edge">
<title>Node2&#45;&gt;Node5</title>
<g id="a_edge4_Node000002_Node000005"><a xlink:title=" ">
<path fill="none" stroke="#63b8ff" d="M392.82,-38.99C370.72,-34.8 347.19,-30.35 326.79,-26.49"/>
<polygon fill="#63b8ff" stroke="#63b8ff" points="391.92,-42.38 402.39,-40.8 393.22,-35.5 391.92,-42.38"/>
</a>
</g>
</g>
<!-- Node6 -->
<g id="Node000006" class="node">
<title>Node6</title>
<g id="a_Node000006"><a xlink:href="../../d6/d9b/SDL__audio_8c.html#a73ac117b5e299633d58be618680af357" target="_top" xlink:title=" ">
<polygon fill="white" stroke="#666666" points="151,-26 0,-26 0,-6 151,-6 151,-26"/>
<text xml:space="preserve" text-anchor="middle" x="75.5" y="-12.5" font-family="Helvetica,sans-Serif" font-size="10.00">SDL_OpenAudioDeviceStream</text>
</a>
</g>
</g>
<!-- Node5&#45;&gt;Node6 -->
<g id="edge5_Node000005_Node000006" class="edge">
<title>Node5&#45;&gt;Node6</title>
<g id="a_edge5_Node000005_Node000006"><a xlink:title=" ">
<path fill="none" stroke="#63b8ff" d="M199.07,-16C183.52,-16 166.99,-16 151.26,-16"/>
<polygon fill="#63b8ff" stroke="#63b8ff" points="198.68,-19.5 208.68,-16 198.68,-12.5 198.68,-19.5"/>
</a>
</g>
</g>
</g>
</svg>
