<?xml version="1.0" encoding="UTF-8" standalone="no"?>
<!DOCTYPE svg PUBLIC "-//W3C//DTD SVG 1.1//EN"
 "http://www.w3.org/Graphics/SVG/1.1/DTD/svg11.dtd">
<!-- Generated by graphviz version 13.1.0 (20250701.0955)
 -->
<!-- Title: CreatePhysicalAudioDevice Pages: 1 -->
<svg width="644pt" height="66pt"
 viewBox="0.00 0.00 644.00 66.00" xmlns="http://www.w3.org/2000/svg" xmlns:xlink="http://www.w3.org/1999/xlink">
<g id="graph0" class="graph" transform="scale(1 1) rotate(0) translate(4 62)">
<title>CreatePhysicalAudioDevice</title>
<!-- Node1 -->
<g id="Node000001" class="node">
<title>Node1</title>
<g id="a_Node000001"><a xlink:title=" ">
<polygon fill="#999999" stroke="#666666" points="635.5,-39 497.25,-39 497.25,-19 635.5,-19 635.5,-39"/>
<text xml:space="preserve" text-anchor="middle" x="566.38" y="-25.5" font-family="Helvetica,sans-Serif" font-size="10.00">CreatePhysicalAudioDevice</text>
</a>
</g>
</g>
<!-- Node2 -->
<g id="Node000002" class="node">
<title>Node2</title>
<g id="a_Node000002"><a xlink:href="../../d6/d9b/SDL__audio_8c.html#a0010e54c622d68b0a78b0e5f68d95878" target="_top" xlink:title=" ">
<polygon fill="white" stroke="#666666" points="459.38,-58 318.12,-58 318.12,-38 459.38,-38 459.38,-58"/>
<text xml:space="preserve" text-anchor="middle" x="388.75" y="-44.5" font-family="Helvetica,sans-Serif" font-size="10.00">CreateAudioPlaybackDevice</text>
</a>
</g>
</g>
<!-- Node1&#45;&gt;Node2 -->
<g id="edge1_Node000001_Node000002" class="edge">
<title>Node1&#45;&gt;Node2</title>
<g id="a_edge1_Node000001_Node000002"><a xlink:title=" ">
<path fill="none" stroke="#63b8ff" d="M485.67,-37.62C477.01,-38.56 468.24,-39.51 459.7,-40.43"/>
<polygon fill="#63b8ff" stroke="#63b8ff" points="485.9,-41.12 495.47,-36.56 485.15,-34.16 485.9,-41.12"/>
</a>
</g>
</g>
<!-- Node5 -->
<g id="Node000005" class="node">
<title>Node5</title>
<g id="a_Node000005"><a xlink:href="../../d6/d9b/SDL__audio_8c.html#a15be024c405ea05d648dbdba13944558" target="_top" xlink:title=" ">
<polygon fill="white" stroke="#666666" points="461.25,-20 316.25,-20 316.25,0 461.25,0 461.25,-20"/>
<text xml:space="preserve" text-anchor="middle" x="388.75" y="-6.5" font-family="Helvetica,sans-Serif" font-size="10.00">CreateAudioRecordingDevice</text>
</a>
</g>
</g>
<!-- Node1&#45;&gt;Node5 -->
<g id="edge4_Node000001_Node000005" class="edge">
<title>Node1&#45;&gt;Node5</title>
<g id="a_edge4_Node000001_Node000005"><a xlink:title=" ">
<path fill="none" stroke="#63b8ff" d="M485.75,-20.39C477.75,-19.52 469.65,-18.64 461.74,-17.79"/>
<polygon fill="#63b8ff" stroke="#63b8ff" points="485.15,-23.84 495.47,-21.44 485.9,-16.88 485.15,-23.84"/>
</a>
</g>
</g>
<!-- Node3 -->
<g id="Node000003" class="node">
<title>Node3</title>
<g id="a_Node000003"><a xlink:href="../../d6/d9b/SDL__audio_8c.html#aae09e0ccff5944b2af8d26d8f86058bd" target="_top" xlink:title=" ">
<polygon fill="white" stroke="#666666" points="280.25,-39 166.75,-39 166.75,-19 280.25,-19 280.25,-39"/>
<text xml:space="preserve" text-anchor="middle" x="223.5" y="-25.5" font-family="Helvetica,sans-Serif" font-size="10.00">SDL_AddAudioDevice</text>
</a>
</g>
</g>
<!-- Node2&#45;&gt;Node3 -->
<g id="edge2_Node000002_Node000003" class="edge">
<title>Node2&#45;&gt;Node3</title>
<g id="a_edge2_Node000002_Node000003"><a xlink:title=" ">
<path fill="none" stroke="#63b8ff" d="M306.86,-38.59C298,-37.55 289.13,-36.52 280.67,-35.54"/>
<polygon fill="#63b8ff" stroke="#63b8ff" points="306.2,-42.03 316.54,-39.71 307.01,-35.08 306.2,-42.03"/>
</a>
</g>
</g>
<!-- Node4 -->
<g id="Node000004" class="node">
<title>Node4</title>
<g id="a_Node000004"><a xlink:href="../../d6/d9b/SDL__audio_8c.html#a63ad09335ca7b4758b9ef2cd398b04d2" target="_top" xlink:title=" ">
<polygon fill="white" stroke="#666666" points="130.75,-45 0,-45 0,-13 130.75,-13 130.75,-45"/>
<text xml:space="preserve" text-anchor="start" x="8" y="-31.5" font-family="Helvetica,sans-Serif" font-size="10.00">SDL_AudioDetectDevices</text>
<text xml:space="preserve" text-anchor="middle" x="65.38" y="-19.5" font-family="Helvetica,sans-Serif" font-size="10.00">_Default</text>
</a>
</g>
</g>
<!-- Node3&#45;&gt;Node4 -->
<g id="edge3_Node000003_Node000004" class="edge">
<title>Node3&#45;&gt;Node4</title>
<g id="a_edge3_Node000003_Node000004"><a xlink:title=" ">
<path fill="none" stroke="#63b8ff" d="M155.11,-29C147.18,-29 139.1,-29 131.21,-29"/>
<polygon fill="#63b8ff" stroke="#63b8ff" points="155.06,-32.5 165.06,-29 155.06,-25.5 155.06,-32.5"/>
</a>
</g>
</g>
<!-- Node5&#45;&gt;Node3 -->
<g id="edge5_Node000005_Node000003" class="edge">
<title>Node5&#45;&gt;Node3</title>
<g id="a_edge5_Node000005_Node000003"><a xlink:title=" ">
<path fill="none" stroke="#63b8ff" d="M304.85,-19.65C296.55,-20.61 288.26,-21.58 280.34,-22.5"/>
<polygon fill="#63b8ff" stroke="#63b8ff" points="305.11,-23.14 314.64,-18.51 304.31,-16.19 305.11,-23.14"/>
</a>
</g>
</g>
</g>
</svg>
