<?xml version="1.0" encoding="UTF-8" standalone="no"?>
<!DOCTYPE svg PUBLIC "-//W3C//DTD SVG 1.1//EN"
 "http://www.w3.org/Graphics/SVG/1.1/DTD/svg11.dtd">
<!-- Generated by graphviz version 13.1.0 (20250701.0955)
 -->
<!-- Title: ObtainPhysicalAudioDeviceDefaultAllowed Pages: 1 -->
<svg width="535pt" height="104pt"
 viewBox="0.00 0.00 535.00 104.00" xmlns="http://www.w3.org/2000/svg" xmlns:xlink="http://www.w3.org/1999/xlink">
<g id="graph0" class="graph" transform="scale(1 1) rotate(0) translate(4 100)">
<title>ObtainPhysicalAudioDeviceDefaultAllowed</title>
<!-- Node1 -->
<g id="Node000001" class="node">
<title>Node1</title>
<g id="a_Node000001"><a xlink:title=" ">
<polygon fill="#999999" stroke="#666666" points="527.25,-64 389.75,-64 389.75,-32 527.25,-32 527.25,-64"/>
<text xml:space="preserve" text-anchor="start" x="397.75" y="-50.5" font-family="Helvetica,sans-Serif" font-size="10.00">ObtainPhysicalAudioDevice</text>
<text xml:space="preserve" text-anchor="middle" x="458.5" y="-38.5" font-family="Helvetica,sans-Serif" font-size="10.00">DefaultAllowed</text>
</a>
</g>
</g>
<!-- Node2 -->
<g id="Node000002" class="node">
<title>Node2</title>
<g id="a_Node000002"><a xlink:href="../../d6/d9b/SDL__audio_8c.html#aeba764d6e3e6845eb5de72ce525c0d2d" target="_top" xlink:title=" ">
<polygon fill="white" stroke="#666666" points="353.75,-96 187,-96 187,-76 353.75,-76 353.75,-96"/>
<text xml:space="preserve" text-anchor="middle" x="270.38" y="-82.5" font-family="Helvetica,sans-Serif" font-size="10.00">SDL_GetAudioDeviceChannelMap</text>
</a>
</g>
</g>
<!-- Node1&#45;&gt;Node2 -->
<g id="edge1_Node000001_Node000002" class="edge">
<title>Node1&#45;&gt;Node2</title>
<g id="a_edge1_Node000001_Node000002"><a xlink:title=" ">
<path fill="none" stroke="#63b8ff" d="M378.02,-64.23C359.29,-68.05 339.81,-72.03 322.7,-75.52"/>
<polygon fill="#63b8ff" stroke="#63b8ff" points="378.67,-67.67 387.77,-62.24 377.27,-60.81 378.67,-67.67"/>
</a>
</g>
</g>
<!-- Node3 -->
<g id="Node000003" class="node">
<title>Node3</title>
<g id="a_Node000003"><a xlink:href="../../d6/d9b/SDL__audio_8c.html#a7af2ed205d479859194a8da721bd8db2" target="_top" xlink:title=" ">
<polygon fill="white" stroke="#666666" points="341.75,-58 199,-58 199,-38 341.75,-38 341.75,-58"/>
<text xml:space="preserve" text-anchor="middle" x="270.38" y="-44.5" font-family="Helvetica,sans-Serif" font-size="10.00">SDL_GetAudioDeviceFormat</text>
</a>
</g>
</g>
<!-- Node1&#45;&gt;Node3 -->
<g id="edge2_Node000001_Node000003" class="edge">
<title>Node1&#45;&gt;Node3</title>
<g id="a_edge2_Node000001_Node000003"><a xlink:title=" ">
<path fill="none" stroke="#63b8ff" d="M377.95,-48C366.04,-48 353.83,-48 342.11,-48"/>
<polygon fill="#63b8ff" stroke="#63b8ff" points="377.74,-51.5 387.74,-48 377.74,-44.5 377.74,-51.5"/>
</a>
</g>
</g>
<!-- Node4 -->
<g id="Node000004" class="node">
<title>Node4</title>
<g id="a_Node000004"><a xlink:href="../../d6/d9b/SDL__audio_8c.html#ad4a998b0fa52004c6db6b4182de26f8c" target="_top" xlink:title=" ">
<polygon fill="white" stroke="#666666" points="330.12,-20 210.62,-20 210.62,0 330.12,0 330.12,-20"/>
<text xml:space="preserve" text-anchor="middle" x="270.38" y="-6.5" font-family="Helvetica,sans-Serif" font-size="10.00">SDL_OpenAudioDevice</text>
</a>
</g>
</g>
<!-- Node1&#45;&gt;Node4 -->
<g id="edge3_Node000001_Node000004" class="edge">
<title>Node1&#45;&gt;Node4</title>
<g id="a_edge3_Node000001_Node000004"><a xlink:title=" ">
<path fill="none" stroke="#63b8ff" d="M378.02,-31.77C359.29,-27.95 339.81,-23.97 322.7,-20.48"/>
<polygon fill="#63b8ff" stroke="#63b8ff" points="377.27,-35.19 387.77,-33.76 378.67,-28.33 377.27,-35.19"/>
</a>
</g>
</g>
<!-- Node5 -->
<g id="Node000005" class="node">
<title>Node5</title>
<g id="a_Node000005"><a xlink:href="../../d6/d9b/SDL__audio_8c.html#a73ac117b5e299633d58be618680af357" target="_top" xlink:title=" ">
<polygon fill="white" stroke="#666666" points="151,-20 0,-20 0,0 151,0 151,-20"/>
<text xml:space="preserve" text-anchor="middle" x="75.5" y="-6.5" font-family="Helvetica,sans-Serif" font-size="10.00">SDL_OpenAudioDeviceStream</text>
</a>
</g>
</g>
<!-- Node4&#45;&gt;Node5 -->
<g id="edge4_Node000004_Node000005" class="edge">
<title>Node4&#45;&gt;Node5</title>
<g id="a_edge4_Node000004_Node000005"><a xlink:title=" ">
<path fill="none" stroke="#63b8ff" d="M199.07,-10C183.52,-10 166.99,-10 151.26,-10"/>
<polygon fill="#63b8ff" stroke="#63b8ff" points="198.68,-13.5 208.68,-10 198.68,-6.5 198.68,-13.5"/>
</a>
</g>
</g>
</g>
</svg>
