<?xml version="1.0" encoding="UTF-8" standalone="no"?>
<!DOCTYPE svg PUBLIC "-//W3C//DTD SVG 1.1//EN"
 "http://www.w3.org/Graphics/SVG/1.1/DTD/svg11.dtd">
<!-- Generated by graphviz version 13.1.0 (20250701.0955)
 -->
<!-- Title: CompleteAudioEntryPoints Pages: 1 -->
<svg width="1165pt" height="300pt"
 viewBox="0.00 0.00 1165.00 300.00" xmlns="http://www.w3.org/2000/svg" xmlns:xlink="http://www.w3.org/1999/xlink">
<g id="graph0" class="graph" transform="scale(1 1) rotate(0) translate(4 296.31)">
<title>CompleteAudioEntryPoints</title>
<!-- Node1 -->
<g id="Node000001" class="node">
<title>Node1</title>
<g id="a_Node000001"><a xlink:title=" ">
<polygon fill="#999999" stroke="#666666" points="1156.75,-115 1023,-115 1023,-95 1156.75,-95 1156.75,-115"/>
<text xml:space="preserve" text-anchor="middle" x="1089.88" y="-101.5" font-family="Helvetica,sans-Serif" font-size="10.00">CompleteAudioEntryPoints</text>
</a>
</g>
</g>
<!-- Node2 -->
<g id="Node000002" class="node">
<title>Node2</title>
<g id="a_Node000002"><a xlink:href="../../d6/d9b/SDL__audio_8c.html#a817d3e1809f55afa3541214c9ddf4e48" target="_top" xlink:title=" ">
<polygon fill="white" stroke="#666666" points="987,-115 908,-115 908,-95 987,-95 987,-115"/>
<text xml:space="preserve" text-anchor="middle" x="947.5" y="-101.5" font-family="Helvetica,sans-Serif" font-size="10.00">SDL_InitAudio</text>
</a>
</g>
</g>
<!-- Node1&#45;&gt;Node2 -->
<g id="edge1_Node000001_Node000002" class="edge">
<title>Node1&#45;&gt;Node2</title>
<g id="a_edge1_Node000001_Node000002"><a xlink:title=" ">
<path fill="none" stroke="#63b8ff" d="M1011.46,-105C1003.18,-105 995.03,-105 987.48,-105"/>
<polygon fill="#63b8ff" stroke="#63b8ff" points="1011.28,-108.5 1021.28,-105 1011.28,-101.5 1011.28,-108.5"/>
</a>
</g>
</g>
<!-- Node3 -->
<g id="Node000003" class="node">
<title>Node3</title>
<g id="a_Node000003"><a xlink:href="../../df/d78/SDL_8c.html#aa33d2b8c0a69b16651f78c26f391b6ef" target="_top" xlink:title=" ">
<polygon fill="white" stroke="#666666" points="872,-115 766.75,-115 766.75,-95 872,-95 872,-115"/>
<text xml:space="preserve" text-anchor="middle" x="819.38" y="-101.5" font-family="Helvetica,sans-Serif" font-size="10.00">SDL_InitSubSystem</text>
</a>
</g>
</g>
<!-- Node2&#45;&gt;Node3 -->
<g id="edge2_Node000002_Node000003" class="edge">
<title>Node2&#45;&gt;Node3</title>
<g id="a_edge2_Node000002_Node000003"><a xlink:title=" ">
<path fill="none" stroke="#63b8ff" d="M896.33,-105C888.45,-105 880.28,-105 872.35,-105"/>
<polygon fill="#63b8ff" stroke="#63b8ff" points="896.12,-108.5 906.12,-105 896.12,-101.5 896.12,-108.5"/>
</a>
</g>
</g>
<!-- Node4 -->
<g id="Node000004" class="node">
<title>Node4</title>
<g id="a_Node000004"><a xlink:href="../../d6/df9/SDL__joystick_8c.html#a7d2531dc4fbc8de52a29ac3ec171a495" target="_top" xlink:title=" ">
<polygon fill="white" stroke="#666666" points="507.38,-286 396.88,-286 396.88,-266 507.38,-266 507.38,-286"/>
<text xml:space="preserve" text-anchor="middle" x="452.12" y="-272.5" font-family="Helvetica,sans-Serif" font-size="10.00">AttemptSensorFusion</text>
</a>
</g>
</g>
<!-- Node3&#45;&gt;Node4 -->
<g id="edge3_Node000003_Node000004" class="edge">
<title>Node3&#45;&gt;Node4</title>
<g id="a_edge3_Node000003_Node000004"><a xlink:title=" ">
<path fill="none" stroke="#63b8ff" d="M812.96,-126.56C803.09,-160.89 778.62,-227.12 730.75,-257 663.03,-299.28 567.06,-294.89 507.52,-286.47"/>
<polygon fill="#63b8ff" stroke="#63b8ff" points="816.33,-127.52 815.56,-116.95 809.57,-125.69 816.33,-127.52"/>
</a>
</g>
</g>
<!-- Node7 -->
<g id="Node000007" class="node">
<title>Node7</title>
<g id="a_Node000007"><a xlink:href="../../d6/df9/SDL__joystick_8c.html#a94fd638a34a769ff6a7a01738257215c" target="_top" xlink:title=" ">
<polygon fill="white" stroke="#666666" points="683.5,-248 620.25,-248 620.25,-228 683.5,-228 683.5,-248"/>
<text xml:space="preserve" text-anchor="middle" x="651.88" y="-234.5" font-family="Helvetica,sans-Serif" font-size="10.00">IsROGAlly</text>
</a>
</g>
</g>
<!-- Node3&#45;&gt;Node7 -->
<g id="edge6_Node000003_Node000007" class="edge">
<title>Node3&#45;&gt;Node7</title>
<g id="a_edge6_Node000003_Node000007"><a xlink:title=" ">
<path fill="none" stroke="#63b8ff" d="M808.21,-125.59C794.34,-151.48 767.01,-195.38 730.75,-219 716.87,-228.04 699.07,-232.78 683.99,-235.27"/>
<polygon fill="#63b8ff" stroke="#63b8ff" points="811.3,-127.24 812.77,-116.75 805.08,-124.03 811.3,-127.24"/>
</a>
</g>
</g>
<!-- Node9 -->
<g id="Node000009" class="node">
<title>Node9</title>
<g id="a_Node000009"><a xlink:href="../../df/d78/SDL_8c.html#ac25d0ce460db43ca8c7681eb8e7c5007" target="_top" xlink:title=" ">
<polygon fill="white" stroke="#666666" points="679,-210 624.75,-210 624.75,-190 679,-190 679,-210"/>
<text xml:space="preserve" text-anchor="middle" x="651.88" y="-196.5" font-family="Helvetica,sans-Serif" font-size="10.00">SDL_Init</text>
</a>
</g>
</g>
<!-- Node3&#45;&gt;Node9 -->
<g id="edge9_Node000003_Node000009" class="edge">
<title>Node3&#45;&gt;Node9</title>
<g id="a_edge9_Node000003_Node000009"><a xlink:title=" ">
<path fill="none" stroke="#63b8ff" d="M801.97,-123.62C785.61,-141.02 758.93,-166.44 730.75,-181 714.68,-189.3 694.85,-194.07 679.22,-196.76"/>
<polygon fill="#63b8ff" stroke="#63b8ff" points="804.34,-126.21 808.51,-116.47 799.18,-121.48 804.34,-126.21"/>
</a>
</g>
</g>
<!-- Node14 -->
<g id="Node000014" class="node">
<title>Node14</title>
<g id="a_Node000014"><a xlink:href="../../d6/df9/SDL__joystick_8c.html#a9340afa4acb6b0fad4affbb99d4fa014" target="_top" xlink:title=" ">
<polygon fill="white" stroke="#666666" points="700,-172 603.75,-172 603.75,-152 700,-152 700,-172"/>
<text xml:space="preserve" text-anchor="middle" x="651.88" y="-158.5" font-family="Helvetica,sans-Serif" font-size="10.00">SDL_InitJoysticks</text>
</a>
</g>
</g>
<!-- Node3&#45;&gt;Node14 -->
<g id="edge14_Node000003_Node000014" class="edge">
<title>Node3&#45;&gt;Node14</title>
<g id="a_edge14_Node000003_Node000014"><a xlink:title=" ">
<path fill="none" stroke="#63b8ff" d="M768.39,-119.68C756.23,-124.62 743.15,-129.83 730.75,-134 710.44,-140.83 686.38,-146.32 670.44,-151.57"/>
<polygon fill="#63b8ff" stroke="#63b8ff" points="769.46,-123.02 777.4,-116 766.82,-116.54 769.46,-123.02"/>
</a>
</g>
</g>
<!-- Node15 -->
<g id="Node000015" class="node">
<title>Node15</title>
<g id="a_Node000015"><a xlink:href="../../d9/d78/SDL__main__callbacks_8c.html#a3d21b5bf7aa441418de48c5b2856336a" target="_top" xlink:title=" ">
<polygon fill="white" stroke="#666666" points="711.25,-134 592.5,-134 592.5,-114 711.25,-114 711.25,-134"/>
<text xml:space="preserve" text-anchor="middle" x="651.88" y="-120.5" font-family="Helvetica,sans-Serif" font-size="10.00">SDL_InitMainCallbacks</text>
</a>
</g>
</g>
<!-- Node3&#45;&gt;Node15 -->
<g id="edge16_Node000003_Node000015" class="edge">
<title>Node3&#45;&gt;Node15</title>
<g id="a_edge16_Node000003_Node000015"><a xlink:title=" ">
<path fill="none" stroke="#63b8ff" d="M755.18,-112.26C740.84,-113.9 725.66,-115.64 711.52,-117.27"/>
<polygon fill="#63b8ff" stroke="#63b8ff" points="755.42,-115.75 764.96,-111.13 754.63,-108.8 755.42,-115.75"/>
</a>
</g>
</g>
<!-- Node17 -->
<g id="Node000017" class="node">
<title>Node17</title>
<g id="a_Node000017"><a xlink:href="../../df/d78/SDL_8c.html#a8f0bf712ad7ba759f5b6e04e683c67d4" target="_top" xlink:title=" ">
<polygon fill="white" stroke="#666666" points="730.75,-96 573,-96 573,-76 730.75,-76 730.75,-96"/>
<text xml:space="preserve" text-anchor="middle" x="651.88" y="-82.5" font-family="Helvetica,sans-Serif" font-size="10.00">SDL_InitOrIncrementSubsystem</text>
</a>
</g>
</g>
<!-- Node3&#45;&gt;Node17 -->
<g id="edge18_Node000003_Node000017" class="edge">
<title>Node3&#45;&gt;Node17</title>
<g id="a_edge18_Node000003_Node000017"><a xlink:title=" ">
<path fill="none" stroke="#63b8ff" d="M767.23,-92.84C755.78,-91.17 743.39,-89.6 731.13,-88.24"/>
<polygon fill="#63b8ff" stroke="#63b8ff" points="766.4,-96.25 776.82,-94.29 767.46,-89.33 766.4,-96.25"/>
</a>
</g>
</g>
<!-- Node18 -->
<g id="Node000018" class="node">
<title>Node18</title>
<g id="a_Node000018"><a xlink:href="../../dc/de1/SDL__sensor_8c.html#abdb7d6b73a301a2c8558ba80edb32331" target="_top" xlink:title=" ">
<polygon fill="white" stroke="#666666" points="697,-58 606.75,-58 606.75,-38 697,-38 697,-58"/>
<text xml:space="preserve" text-anchor="middle" x="651.88" y="-44.5" font-family="Helvetica,sans-Serif" font-size="10.00">SDL_InitSensors</text>
</a>
</g>
</g>
<!-- Node3&#45;&gt;Node18 -->
<g id="edge20_Node000003_Node000018" class="edge">
<title>Node3&#45;&gt;Node18</title>
<g id="a_edge20_Node000003_Node000018"><a xlink:title=" ">
<path fill="none" stroke="#63b8ff" d="M798.98,-88.38C781.47,-78.11 754.83,-66.09 730.75,-58 720.06,-54.41 708.35,-51.19 697.32,-48.75"/>
<polygon fill="#63b8ff" stroke="#63b8ff" points="797.01,-91.28 807.33,-93.69 800.77,-85.37 797.01,-91.28"/>
</a>
</g>
</g>
<!-- Node19 -->
<g id="Node000019" class="node">
<title>Node19</title>
<g id="a_Node000019"><a xlink:href="../../d6/d3d/SDL__video_8c.html#ac61dc66ab71d039f9b681916d0fcbc6e" target="_top" xlink:title=" ">
<polygon fill="white" stroke="#666666" points="691.38,-20 612.38,-20 612.38,0 691.38,0 691.38,-20"/>
<text xml:space="preserve" text-anchor="middle" x="651.88" y="-6.5" font-family="Helvetica,sans-Serif" font-size="10.00">SDL_VideoInit</text>
</a>
</g>
</g>
<!-- Node3&#45;&gt;Node19 -->
<g id="edge22_Node000003_Node000019" class="edge">
<title>Node3&#45;&gt;Node19</title>
<g id="a_edge22_Node000003_Node000019"><a xlink:title=" ">
<path fill="none" stroke="#63b8ff" d="M806.88,-85.56C791.35,-65.59 761.97,-36.13 730.75,-20 718.76,-13.8 704.67,-9.58 691.8,-7.2"/>
<polygon fill="#63b8ff" stroke="#63b8ff" points="803.94,-87.46 812.63,-93.53 809.62,-83.37 803.94,-87.46"/>
</a>
</g>
</g>
<!-- Node5 -->
<g id="Node000005" class="node">
<title>Node5</title>
<g id="a_Node000005"><a xlink:href="../../d6/df9/SDL__joystick_8c.html#a0c867d96ec6bc9c3aca87c8ee6b53ade" target="_top" xlink:title=" ">
<polygon fill="white" stroke="#666666" points="315.12,-267 214.38,-267 214.38,-247 315.12,-247 315.12,-267"/>
<text xml:space="preserve" text-anchor="middle" x="264.75" y="-253.5" font-family="Helvetica,sans-Serif" font-size="10.00">SDL_OpenJoystick</text>
</a>
</g>
</g>
<!-- Node4&#45;&gt;Node5 -->
<g id="edge4_Node000004_Node000005" class="edge">
<title>Node4&#45;&gt;Node5</title>
<g id="a_edge4_Node000004_Node000005"><a xlink:title=" ">
<path fill="none" stroke="#63b8ff" d="M385.13,-269.24C362.22,-266.89 336.93,-264.3 315.55,-262.1"/>
<polygon fill="#63b8ff" stroke="#63b8ff" points="384.7,-272.71 395,-270.25 385.41,-265.75 384.7,-272.71"/>
</a>
</g>
</g>
<!-- Node6 -->
<g id="Node000006" class="node">
<title>Node6</title>
<g id="a_Node000006"><a xlink:href="../../d0/d82/SDL__gamepad_8c.html#a011496690758b66ec0f7098f030b6d85" target="_top" xlink:title=" ">
<polygon fill="white" stroke="#666666" points="134.12,-267 28.12,-267 28.12,-247 134.12,-247 134.12,-267"/>
<text xml:space="preserve" text-anchor="middle" x="81.12" y="-253.5" font-family="Helvetica,sans-Serif" font-size="10.00">SDL_OpenGamepad</text>
</a>
</g>
</g>
<!-- Node5&#45;&gt;Node6 -->
<g id="edge5_Node000005_Node000006" class="edge">
<title>Node5&#45;&gt;Node6</title>
<g id="a_edge5_Node000005_Node000006"><a xlink:title=" ">
<path fill="none" stroke="#63b8ff" d="M202.82,-257C180.69,-257 155.89,-257 134.55,-257"/>
<polygon fill="#63b8ff" stroke="#63b8ff" points="202.61,-260.5 212.61,-257 202.61,-253.5 202.61,-260.5"/>
</a>
</g>
</g>
<!-- Node8 -->
<g id="Node000008" class="node">
<title>Node8</title>
<g id="a_Node000008"><a xlink:href="../../d6/df9/SDL__joystick_8c.html#a497945f75b33dbfcde319992145025c5" target="_top" xlink:title=" ">
<polygon fill="white" stroke="#666666" points="522.38,-248 381.88,-248 381.88,-228 522.38,-228 522.38,-248"/>
<text xml:space="preserve" text-anchor="middle" x="452.12" y="-234.5" font-family="Helvetica,sans-Serif" font-size="10.00">ShouldAttemptSensorFusion</text>
</a>
</g>
</g>
<!-- Node7&#45;&gt;Node8 -->
<g id="edge7_Node000007_Node000008" class="edge">
<title>Node7&#45;&gt;Node8</title>
<g id="a_edge7_Node000007_Node000008"><a xlink:title=" ">
<path fill="none" stroke="#63b8ff" d="M608.69,-238C583.69,-238 551.39,-238 522.71,-238"/>
<polygon fill="#63b8ff" stroke="#63b8ff" points="608.46,-241.5 618.46,-238 608.46,-234.5 608.46,-241.5"/>
</a>
</g>
</g>
<!-- Node8&#45;&gt;Node5 -->
<g id="edge8_Node000008_Node000005" class="edge">
<title>Node8&#45;&gt;Node5</title>
<g id="a_edge8_Node000008_Node000005"><a xlink:title=" ">
<path fill="none" stroke="#63b8ff" d="M370.36,-246.28C351.68,-248.19 332.33,-250.18 315.44,-251.91"/>
<polygon fill="#63b8ff" stroke="#63b8ff" points="370.47,-249.78 380.07,-245.28 369.76,-242.82 370.47,-249.78"/>
</a>
</g>
</g>
<!-- Node10 -->
<g id="Node000010" class="node">
<title>Node10</title>
<g id="a_Node000010"><a xlink:href="../../d6/d3d/SDL__video_8c.html#a9f3d88531134e2c3e575a3c2db7f8488" target="_top" xlink:title=" ">
<polygon fill="white" stroke="#666666" points="537,-210 367.25,-210 367.25,-190 537,-190 537,-210"/>
<text xml:space="preserve" text-anchor="middle" x="452.12" y="-196.5" font-family="Helvetica,sans-Serif" font-size="10.00">SDL_CreateWindowWithProperties</text>
</a>
</g>
</g>
<!-- Node9&#45;&gt;Node10 -->
<g id="edge10_Node000009_Node000010" class="edge">
<title>Node9&#45;&gt;Node10</title>
<g id="a_edge10_Node000009_Node000010"><a xlink:title=" ">
<path fill="none" stroke="#63b8ff" d="M613.37,-200C591.84,-200 563.89,-200 537.38,-200"/>
<polygon fill="#63b8ff" stroke="#63b8ff" points="613.1,-203.5 623.1,-200 613.1,-196.5 613.1,-203.5"/>
</a>
</g>
</g>
<!-- Node11 -->
<g id="Node000011" class="node">
<title>Node11</title>
<g id="a_Node000011"><a xlink:href="../../d6/d3d/SDL__video_8c.html#acc26de39ce1bd675446e4d6c05ebf4b0" target="_top" xlink:title=" ">
<polygon fill="white" stroke="#666666" points="331.25,-229 198.25,-229 198.25,-209 331.25,-209 331.25,-229"/>
<text xml:space="preserve" text-anchor="middle" x="264.75" y="-215.5" font-family="Helvetica,sans-Serif" font-size="10.00">SDL_CreatePopupWindow</text>
</a>
</g>
</g>
<!-- Node10&#45;&gt;Node11 -->
<g id="edge11_Node000010_Node000011" class="edge">
<title>Node10&#45;&gt;Node11</title>
<g id="a_edge11_Node000010_Node000011"><a xlink:title=" ">
<path fill="none" stroke="#63b8ff" d="M355.42,-209.81C347.33,-210.64 339.27,-211.46 331.5,-212.26"/>
<polygon fill="#63b8ff" stroke="#63b8ff" points="355.75,-213.29 365.34,-208.79 355.03,-206.33 355.75,-213.29"/>
</a>
</g>
</g>
<!-- Node12 -->
<g id="Node000012" class="node">
<title>Node12</title>
<g id="a_Node000012"><a xlink:href="../../d6/d3d/SDL__video_8c.html#a83103c86f9e5c33ab9e1fb6dfa904b7f" target="_top" xlink:title=" ">
<polygon fill="white" stroke="#666666" points="317.38,-191 212.12,-191 212.12,-171 317.38,-171 317.38,-191"/>
<text xml:space="preserve" text-anchor="middle" x="264.75" y="-177.5" font-family="Helvetica,sans-Serif" font-size="10.00">SDL_CreateWindow</text>
</a>
</g>
</g>
<!-- Node10&#45;&gt;Node12 -->
<g id="edge12_Node000010_Node000012" class="edge">
<title>Node10&#45;&gt;Node12</title>
<g id="a_edge12_Node000010_Node000012"><a xlink:title=" ">
<path fill="none" stroke="#63b8ff" d="M355.44,-190.19C342.45,-188.86 329.54,-187.54 317.73,-186.33"/>
<polygon fill="#63b8ff" stroke="#63b8ff" points="355.03,-193.67 365.34,-191.21 355.75,-186.71 355.03,-193.67"/>
</a>
</g>
</g>
<!-- Node13 -->
<g id="Node000013" class="node">
<title>Node13</title>
<g id="a_Node000013"><a xlink:href="../../dd/df3/SDL__render_8c.html#a36f859fae15e4277ba052f9ecfb2816d" target="_top" xlink:title=" ">
<polygon fill="white" stroke="#666666" points="162.25,-191 0,-191 0,-171 162.25,-171 162.25,-191"/>
<text xml:space="preserve" text-anchor="middle" x="81.12" y="-177.5" font-family="Helvetica,sans-Serif" font-size="10.00">SDL_CreateWindowAndRenderer</text>
</a>
</g>
</g>
<!-- Node12&#45;&gt;Node13 -->
<g id="edge13_Node000012_Node000013" class="edge">
<title>Node12&#45;&gt;Node13</title>
<g id="a_edge13_Node000012_Node000013"><a xlink:title=" ">
<path fill="none" stroke="#63b8ff" d="M200.3,-181C188.14,-181 175.26,-181 162.64,-181"/>
<polygon fill="#63b8ff" stroke="#63b8ff" points="200.19,-184.5 210.19,-181 200.19,-177.5 200.19,-184.5"/>
</a>
</g>
</g>
<!-- Node14&#45;&gt;Node3 -->
<g id="edge15_Node000014_Node000003" class="edge">
<title>Node14&#45;&gt;Node3</title>
<g id="a_edge15_Node000014_Node000003"><a xlink:title=" ">
<path fill="none" stroke="#63b8ff" d="M711.27,-157.84C717.89,-156.08 724.5,-154.1 730.75,-152 759.83,-142.23 792.64,-126.73 808.6,-115.5"/>
<polygon fill="#63b8ff" stroke="#63b8ff" points="710.52,-154.42 701.66,-160.24 712.21,-161.22 710.52,-154.42"/>
</a>
</g>
</g>
<!-- Node16 -->
<g id="Node000016" class="node">
<title>Node16</title>
<g id="a_Node000016"><a xlink:href="../../dd/db5/generic_2SDL__sysmain__callbacks_8c.html#aa50e1897a91f2547b5f31125020220e2" target="_top" xlink:title=" ">
<polygon fill="white" stroke="#666666" points="525,-134 379.25,-134 379.25,-114 525,-114 525,-134"/>
<text xml:space="preserve" text-anchor="middle" x="452.12" y="-120.5" font-family="Helvetica,sans-Serif" font-size="10.00">SDL_EnterAppMainCallbacks</text>
</a>
</g>
</g>
<!-- Node15&#45;&gt;Node16 -->
<g id="edge17_Node000015_Node000016" class="edge">
<title>Node15&#45;&gt;Node16</title>
<g id="a_edge17_Node000015_Node000016"><a xlink:title=" ">
<path fill="none" stroke="#63b8ff" d="M580.79,-124C562.81,-124 543.44,-124 525.35,-124"/>
<polygon fill="#63b8ff" stroke="#63b8ff" points="580.57,-127.5 590.57,-124 580.57,-120.5 580.57,-127.5"/>
</a>
</g>
</g>
<!-- Node17&#45;&gt;Node3 -->
<g id="edge19_Node000017_Node000003" class="edge">
<title>Node17&#45;&gt;Node3</title>
<g id="a_edge19_Node000017_Node000003"><a xlink:title=" ">
<path fill="none" stroke="#63b8ff" d="M704.32,-98.21C724.09,-101.07 746.65,-103.67 766.46,-105.36"/>
<polygon fill="#63b8ff" stroke="#63b8ff" points="704.96,-94.76 694.54,-96.72 703.91,-101.68 704.96,-94.76"/>
</a>
</g>
</g>
<!-- Node18&#45;&gt;Node3 -->
<g id="edge21_Node000018_Node000003" class="edge">
<title>Node18&#45;&gt;Node3</title>
<g id="a_edge21_Node000018_Node000003"><a xlink:title=" ">
<path fill="none" stroke="#63b8ff" d="M681.06,-61.67C696,-65.97 714.56,-70.56 730.75,-76 746.78,-81.39 763.95,-88.52 778.8,-94.57"/>
<polygon fill="#63b8ff" stroke="#63b8ff" points="682.47,-58.44 671.88,-58.88 680.43,-65.14 682.47,-58.44"/>
</a>
</g>
</g>
<!-- Node19&#45;&gt;Node3 -->
<g id="edge23_Node000019_Node000003" class="edge">
<title>Node19&#45;&gt;Node3</title>
<g id="a_edge23_Node000019_Node000003"><a xlink:title=" ">
<path fill="none" stroke="#63b8ff" d="M687.85,-23.21C701.74,-26.72 717.52,-31.16 730.75,-38 759.73,-52.97 787.12,-79.43 803.33,-94.56"/>
<polygon fill="#63b8ff" stroke="#63b8ff" points="688.75,-19.83 678.2,-20.81 687.06,-26.62 688.75,-19.83"/>
</a>
</g>
</g>
</g>
</svg>
