<?xml version="1.0" encoding="UTF-8" standalone="no"?>
<!DOCTYPE svg PUBLIC "-//W3C//DTD SVG 1.1//EN"
 "http://www.w3.org/Graphics/SVG/1.1/DTD/svg11.dtd">
<!-- Generated by graphviz version 13.1.0 (20250701.0955)
 -->
<!-- Title: CountAudioDevices Pages: 1 -->
<svg width="437pt" height="66pt"
 viewBox="0.00 0.00 437.00 66.00" xmlns="http://www.w3.org/2000/svg" xmlns:xlink="http://www.w3.org/1999/xlink">
<g id="graph0" class="graph" transform="scale(1 1) rotate(0) translate(4 62)">
<title>CountAudioDevices</title>
<!-- Node1 -->
<g id="Node000001" class="node">
<title>Node1</title>
<g id="a_Node000001"><a xlink:title=" ">
<polygon fill="#999999" stroke="#666666" points="429,-39 326,-39 326,-19 429,-19 429,-39"/>
<text xml:space="preserve" text-anchor="middle" x="377.5" y="-25.5" font-family="Helvetica,sans-Serif" font-size="10.00">CountAudioDevices</text>
</a>
</g>
</g>
<!-- Node2 -->
<g id="Node000002" class="node">
<title>Node2</title>
<g id="a_Node000002"><a xlink:href="../../d6/d9b/SDL__audio_8c.html#adf30bd9399f79acbc006b764705b4213" target="_top" xlink:title=" ">
<polygon fill="white" stroke="#666666" points="290,-39 197.5,-39 197.5,-19 290,-19 290,-39"/>
<text xml:space="preserve" text-anchor="middle" x="243.75" y="-25.5" font-family="Helvetica,sans-Serif" font-size="10.00">GetAudioDevices</text>
</a>
</g>
</g>
<!-- Node1&#45;&gt;Node2 -->
<g id="edge1_Node000001_Node000002" class="edge">
<title>Node1&#45;&gt;Node2</title>
<g id="a_edge1_Node000001_Node000002"><a xlink:title=" ">
<path fill="none" stroke="#63b8ff" d="M314.28,-29C306.23,-29 298.1,-29 290.39,-29"/>
<polygon fill="#63b8ff" stroke="#63b8ff" points="314.05,-32.5 324.05,-29 314.05,-25.5 314.05,-32.5"/>
</a>
</g>
</g>
<!-- Node3 -->
<g id="Node000003" class="node">
<title>Node3</title>
<g id="a_Node000003"><a xlink:href="../../d6/d9b/SDL__audio_8c.html#a40b06d70ec2f1324293a9815a2bef6a7" target="_top" xlink:title=" ">
<polygon fill="white" stroke="#666666" points="159.62,-58 1.88,-58 1.88,-38 159.62,-38 159.62,-58"/>
<text xml:space="preserve" text-anchor="middle" x="80.75" y="-44.5" font-family="Helvetica,sans-Serif" font-size="10.00">SDL_GetAudioPlaybackDevices</text>
</a>
</g>
</g>
<!-- Node2&#45;&gt;Node3 -->
<g id="edge2_Node000002_Node000003" class="edge">
<title>Node2&#45;&gt;Node3</title>
<g id="a_edge2_Node000002_Node000003"><a xlink:title=" ">
<path fill="none" stroke="#63b8ff" d="M185.84,-35.72C177.42,-36.71 168.62,-37.75 159.87,-38.78"/>
<polygon fill="#63b8ff" stroke="#63b8ff" points="186.02,-39.22 195.54,-34.57 185.2,-32.27 186.02,-39.22"/>
</a>
</g>
</g>
<!-- Node4 -->
<g id="Node000004" class="node">
<title>Node4</title>
<g id="a_Node000004"><a xlink:href="../../d6/d9b/SDL__audio_8c.html#a13107671ca1dfe2f781cee5edcff76f9" target="_top" xlink:title=" ">
<polygon fill="white" stroke="#666666" points="161.5,-20 0,-20 0,0 161.5,0 161.5,-20"/>
<text xml:space="preserve" text-anchor="middle" x="80.75" y="-6.5" font-family="Helvetica,sans-Serif" font-size="10.00">SDL_GetAudioRecordingDevices</text>
</a>
</g>
</g>
<!-- Node2&#45;&gt;Node4 -->
<g id="edge3_Node000002_Node000004" class="edge">
<title>Node2&#45;&gt;Node4</title>
<g id="a_edge3_Node000002_Node000004"><a xlink:title=" ">
<path fill="none" stroke="#63b8ff" d="M185.84,-22.28C178.01,-21.36 169.85,-20.4 161.7,-19.44"/>
<polygon fill="#63b8ff" stroke="#63b8ff" points="185.2,-25.73 195.54,-23.43 186.02,-18.78 185.2,-25.73"/>
</a>
</g>
</g>
</g>
</svg>
