<?xml version="1.0" encoding="UTF-8" standalone="no"?>
<!DOCTYPE svg PUBLIC "-//W3C//DTD SVG 1.1//EN"
 "http://www.w3.org/Graphics/SVG/1.1/DTD/svg11.dtd">
<!-- Generated by graphviz version 13.1.0 (20250701.0955)
 -->
<!-- Title: SDL_AudioThreadInit_Default Pages: 1 -->
<svg width="480pt" height="40pt"
 viewBox="0.00 0.00 480.00 40.00" xmlns="http://www.w3.org/2000/svg" xmlns:xlink="http://www.w3.org/1999/xlink">
<g id="graph0" class="graph" transform="scale(1 1) rotate(0) translate(4 36)">
<title>SDL_AudioThreadInit_Default</title>
<!-- Node1 -->
<g id="Node000001" class="node">
<title>Node1</title>
<g id="a_Node000001"><a xlink:title=" ">
<polygon fill="#999999" stroke="#666666" points="109,-32 0,-32 0,0 109,0 109,-32"/>
<text xml:space="preserve" text-anchor="start" x="8" y="-18.5" font-family="Helvetica,sans-Serif" font-size="10.00">SDL_AudioThreadInit</text>
<text xml:space="preserve" text-anchor="middle" x="54.5" y="-6.5" font-family="Helvetica,sans-Serif" font-size="10.00">_Default</text>
</a>
</g>
</g>
<!-- Node2 -->
<g id="Node000002" class="node">
<title>Node2</title>
<g id="a_Node000002"><a xlink:href="../../de/de3/SDL__thread_8c.html#a5c0d5e58fc45266445156fcec7d65c51" target="_top" xlink:title=" ">
<polygon fill="white" stroke="#666666" points="293.75,-26 145,-26 145,-6 293.75,-6 293.75,-26"/>
<text xml:space="preserve" text-anchor="middle" x="219.38" y="-12.5" font-family="Helvetica,sans-Serif" font-size="10.00">SDL_SetCurrentThreadPriority</text>
</a>
</g>
</g>
<!-- Node1&#45;&gt;Node2 -->
<g id="edge1_Node000001_Node000002" class="edge">
<title>Node1&#45;&gt;Node2</title>
<g id="a_edge1_Node000001_Node000002"><a xlink:title=" ">
<path fill="none" stroke="#63b8ff" d="M109.28,-16C116.97,-16 125.02,-16 133.13,-16"/>
<polygon fill="#63b8ff" stroke="#63b8ff" points="133.08,-19.5 143.08,-16 133.08,-12.5 133.08,-19.5"/>
</a>
</g>
</g>
<!-- Node3 -->
<g id="Node000003" class="node">
<title>Node3</title>
<g id="a_Node000003"><a xlink:href="../../d2/d66/generic_2SDL__systhread_8c.html#a60f788a3ea056baa322e490218f85a6f" target="_top" xlink:title=" ">
<polygon fill="white" stroke="#666666" points="471.75,-26 329.75,-26 329.75,-6 471.75,-6 471.75,-26"/>
<text xml:space="preserve" text-anchor="middle" x="400.75" y="-12.5" font-family="Helvetica,sans-Serif" font-size="10.00">SDL_SYS_SetThreadPriority</text>
</a>
</g>
</g>
<!-- Node2&#45;&gt;Node3 -->
<g id="edge2_Node000002_Node000003" class="edge">
<title>Node2&#45;&gt;Node3</title>
<g id="a_edge2_Node000002_Node000003"><a xlink:title=" ">
<path fill="none" stroke="#63b8ff" d="M294.11,-16C302.06,-16 310.18,-16 318.21,-16"/>
<polygon fill="#63b8ff" stroke="#63b8ff" points="317.96,-19.5 327.96,-16 317.96,-12.5 317.96,-19.5"/>
</a>
</g>
</g>
</g>
</svg>
