<?xml version="1.0" encoding="UTF-8" standalone="no"?>
<!DOCTYPE svg PUBLIC "-//W3C//DTD SVG 1.1//EN"
 "http://www.w3.org/Graphics/SVG/1.1/DTD/svg11.dtd">
<!-- Generated by graphviz version 13.1.0 (20250701.0955)
 -->
<!-- Title: JoyStick_DeviceData Pages: 1 -->
<svg width="208pt" height="102pt"
 viewBox="0.00 0.00 208.00 102.00" xmlns="http://www.w3.org/2000/svg" xmlns:xlink="http://www.w3.org/1999/xlink">
<g id="graph0" class="graph" transform="scale(1 1) rotate(0) translate(4 98)">
<title>JoyStick_DeviceData</title>
<!-- Node1 -->
<g id="Node000001" class="node">
<title>Node1</title>
<g id="a_Node000001"><a xlink:title=" ">
<polygon fill="#999999" stroke="#666666" points="142.75,-20 31.5,-20 31.5,0 142.75,0 142.75,-20"/>
<text xml:space="preserve" text-anchor="middle" x="87.12" y="-6.5" font-family="Helvetica,sans-Serif" font-size="10.00">JoyStick_DeviceData</text>
</a>
</g>
</g>
<!-- Node1&#45;&gt;Node1 -->
<g id="edge3_Node000001_Node000001" class="edge">
<title>Node1&#45;&gt;Node1</title>
<g id="a_edge3_Node000001_Node000001"><a xlink:title=" ">
<path fill="none" stroke="#9a32cd" stroke-dasharray="5,2" d="M154.21,-14.82C158.3,-13.67 160.75,-12.07 160.75,-10 160.75,-6.42 153.41,-4.23 142.99,-3.42"/>
<polygon fill="#9a32cd" stroke="#9a32cd" points="153.82,-11.34 144.48,-16.35 154.9,-18.25 153.82,-11.34"/>
</a>
</g>
<text xml:space="preserve" text-anchor="start" x="163.75" y="-6.5" font-family="Helvetica,sans-Serif" font-size="10.00" fill="grey">pNext</text>
</g>
<!-- Node2 -->
<g id="Node000002" class="node">
<title>Node2</title>
<g id="a_Node000002"><a xlink:href="../../dd/d35/structSDL__GUID.html" target="_top" xlink:title=" ">
<polygon fill="white" stroke="#666666" points="66.25,-94 0,-94 0,-74 66.25,-74 66.25,-94"/>
<text xml:space="preserve" text-anchor="middle" x="33.12" y="-80.5" font-family="Helvetica,sans-Serif" font-size="10.00">SDL_GUID</text>
</a>
</g>
</g>
<!-- Node2&#45;&gt;Node1 -->
<g id="edge1_Node000001_Node000002" class="edge">
<title>Node2&#45;&gt;Node1</title>
<g id="a_edge1_Node000001_Node000002"><a xlink:title=" ">
<path fill="none" stroke="#9a32cd" stroke-dasharray="5,2" d="M46.86,-64.68C57.52,-50.47 71.86,-31.36 80.23,-20.19"/>
<polygon fill="#9a32cd" stroke="#9a32cd" points="44.29,-62.28 41.09,-72.38 49.89,-66.48 44.29,-62.28"/>
</a>
</g>
<text xml:space="preserve" text-anchor="start" x="69.55" y="-43.5" font-family="Helvetica,sans-Serif" font-size="10.00" fill="grey">guid</text>
</g>
<!-- Node3 -->
<g id="Node000003" class="node">
<title>Node3</title>
<g id="a_Node000003"><a xlink:href="../../d2/d28/structDIDEVICEINSTANCE.html" target="_top" xlink:title=" ">
<polygon fill="white" stroke="#666666" points="200,-94 84.25,-94 84.25,-74 200,-74 200,-94"/>
<text xml:space="preserve" text-anchor="middle" x="142.12" y="-80.5" font-family="Helvetica,sans-Serif" font-size="10.00">DIDEVICEINSTANCE</text>
</a>
</g>
</g>
<!-- Node3&#45;&gt;Node1 -->
<g id="edge2_Node000001_Node000003" class="edge">
<title>Node3&#45;&gt;Node1</title>
<g id="a_edge2_Node000001_Node000003"><a xlink:title=" ">
<path fill="none" stroke="#9a32cd" stroke-dasharray="5,2" d="M128.13,-64.68C117.27,-50.47 102.67,-31.36 94.14,-20.19"/>
<polygon fill="#9a32cd" stroke="#9a32cd" points="125.16,-66.56 134.02,-72.38 130.73,-62.31 125.16,-66.56"/>
</a>
</g>
<text xml:space="preserve" text-anchor="start" x="124.17" y="-43.5" font-family="Helvetica,sans-Serif" font-size="10.00" fill="grey">dxdevice</text>
</g>
</g>
</svg>
