<?xml version="1.0" encoding="UTF-8" standalone="no"?>
<!DOCTYPE svg PUBLIC "-//W3C//DTD SVG 1.1//EN"
 "http://www.w3.org/Graphics/SVG/1.1/DTD/svg11.dtd">
<!-- Generated by graphviz version 13.1.0 (20250701.0955)
 -->
<!-- Title: SDL_RemoveEventWatch Pages: 1 -->
<!--zoomable 517 -->

<svg id="main" version="1.1" xmlns="http://www.w3.org/2000/svg" xmlns:xlink="http://www.w3.org/1999/xlink" xml:space="preserve" onload="init(evt)">

<style type="text/css"><![CDATA[
.node, .edge {opacity: 0.7;}
.node.selected, .edge.selected {opacity: 1;}
.edge:hover path { stroke: red; }
.edge:hover polygon { stroke: red; fill: red; }
]]></style>

<defs>
  <circle id="rim" cx="0" cy="0" r="7"/>
  <circle id="rim2" cx="0" cy="0" r="3.5"/>
  <g id="zoomPlus">
    <use xlink:href="#rim" fill="#404040"><set attributeName="fill" to="#808080" begin="zoomplus.mouseover" end="zoomplus.mouseout"/></use>
    <path d="M-4,0h8M0,-4v8" fill="none" stroke="white" stroke-width="1.5" pointer-events="none"/>
  </g>
  <g id="zoomMin">
    <use xlink:href="#rim" fill="#404040"><set attributeName="fill" to="#808080" begin="zoomminus.mouseover" end="zoomminus.mouseout"/></use>
    <path d="M-4,0h8" fill="none" stroke="white" stroke-width="1.5" pointer-events="none"/>
  </g>
  <g id="arrowUp" transform="translate(30 24)">
    <use xlink:href="#rim"/>
    <path pointer-events="none" fill="none" stroke="white" stroke-width="1.5" d="M0,-3.0v7 M-2.5,-0.5L0,-3.0L2.5,-0.5"/>
  </g>
  <g id="arrowRight" transform="rotate(90) translate(36 -43)">
    <use xlink:href="#rim"/>
    <path pointer-events="none" fill="none" stroke="white" stroke-width="1.5" d="M0,-3.0v7 M-2.5,-0.5L0,-3.0L2.5,-0.5"/>
  </g>
  <g id="arrowDown" transform="rotate(180) translate(-30 -48)">
    <use xlink:href="#rim"/>
    <path pointer-events="none" fill="none" stroke="white" stroke-width="1.5" d="M0,-3.0v7 M-2.5,-0.5L0,-3.0L2.5,-0.5"/>
  </g>
  <g id="arrowLeft" transform="rotate(270) translate(-36 17)">
    <use xlink:href="#rim"/>
    <path pointer-events="none" fill="none" stroke="white" stroke-width="1.5" d="M0,-3.0v7 M-2.5,-0.5L0,-3.0L2.5,-0.5"/>
  </g>
  <g id="resetDef">
    <use xlink:href="#rim2" fill="#404040"><set attributeName="fill" to="#808080" begin="reset.mouseover" end="reset.mouseout"/></use>
  </g>
</defs>
<script type="application/ecmascript">
var viewWidth = 1962;
var viewHeight = 517;
var sectionId = 'dynsection-28';
</script>
<script type="application/ecmascript" xlink:href="../../svg.min.js"/>
<svg id="graph" class="graph">
<g id="viewport">
<title>SDL_RemoveEventWatch</title>
<!-- Node1 -->
<g id="Node000001" class="node">
<title>Node1</title>
<g id="a_Node000001"><a xlink:title=" ">
<polygon fill="#999999" stroke="#666666" points="1953.75,-352.89 1823,-352.89 1823,-332.89 1953.75,-332.89 1953.75,-352.89"/>
<text xml:space="preserve" text-anchor="middle" x="1888.38" y="-339.39" font-family="Helvetica,sans-Serif" font-size="10.00">SDL_RemoveEventWatch</text>
</a>
</g>
</g>
<!-- Node2 -->
<g id="Node000002" class="node">
<title>Node2</title>
<g id="a_Node000002"><a xlink:href="../../d0/d82/SDL__gamepad_8c.html#ad49c2e97ac6f1deaafd9aec54dff1659" target="_top" xlink:title=" ">
<polygon fill="white" stroke="#666666" points="1787,-295.89 1681,-295.89 1681,-275.89 1787,-275.89 1787,-295.89"/>
<text xml:space="preserve" text-anchor="middle" x="1734" y="-282.39" font-family="Helvetica,sans-Serif" font-size="10.00">SDL_QuitGamepads</text>
</a>
</g>
</g>
<!-- Node1&#45;&gt;Node2 -->
<g id="edge1_Node000001_Node000002" class="edge">
<title>Node1&#45;&gt;Node2</title>
<g id="a_edge1_Node000001_Node000002"><a xlink:title=" ">
<path fill="none" stroke="#63b8ff" d="M1848.9,-328.5C1822.16,-318.5 1787.14,-305.4 1763.03,-296.38"/>
<polygon fill="#63b8ff" stroke="#63b8ff" points="1847.42,-331.68 1858.01,-331.91 1849.87,-325.12 1847.42,-331.68"/>
</a>
</g>
</g>
<!-- Node29 -->
<g id="Node000029" class="node">
<title>Node29</title>
<g id="a_Node000029"><a xlink:href="../../d9/d78/SDL__main__callbacks_8c.html#a2e8bd250bb597fdf72c9da9d001181e7" target="_top" xlink:title=" ">
<polygon fill="white" stroke="#666666" points="1351.25,-432.89 1228,-432.89 1228,-412.89 1351.25,-412.89 1351.25,-432.89"/>
<text xml:space="preserve" text-anchor="middle" x="1289.62" y="-419.39" font-family="Helvetica,sans-Serif" font-size="10.00">SDL_QuitMainCallbacks</text>
</a>
</g>
</g>
<!-- Node1&#45;&gt;Node29 -->
<g id="edge53_Node000001_Node000029" class="edge">
<title>Node1&#45;&gt;Node29</title>
<g id="a_edge53_Node000001_Node000029"><a xlink:title=" ">
<path fill="none" stroke="#63b8ff" d="M1811.37,-354.52C1733.19,-366.32 1607.84,-384.81 1499.25,-398.89 1449.54,-405.34 1393.04,-411.78 1351.39,-416.37"/>
<polygon fill="#63b8ff" stroke="#63b8ff" points="1811.7,-358.01 1821.06,-353.05 1810.65,-351.09 1811.7,-358.01"/>
</a>
</g>
</g>
<!-- Node3 -->
<g id="Node000003" class="node">
<title>Node3</title>
<g id="a_Node000003"><a xlink:href="../../df/d78/SDL_8c.html#a60aa8a910b5236e9eded873051707374" target="_top" xlink:title=" ">
<polygon fill="white" stroke="#666666" points="1645,-295.89 1535.25,-295.89 1535.25,-275.89 1645,-275.89 1645,-295.89"/>
<text xml:space="preserve" text-anchor="middle" x="1590.12" y="-282.39" font-family="Helvetica,sans-Serif" font-size="10.00">SDL_QuitSubSystem</text>
</a>
</g>
</g>
<!-- Node2&#45;&gt;Node3 -->
<g id="edge2_Node000002_Node000003" class="edge">
<title>Node2&#45;&gt;Node3</title>
<g id="a_edge2_Node000002_Node000003"><a xlink:title=" ">
<path fill="none" stroke="#63b8ff" d="M1669.33,-285.89C1661.28,-285.89 1653.11,-285.89 1645.23,-285.89"/>
<polygon fill="#63b8ff" stroke="#63b8ff" points="1669.06,-289.39 1679.06,-285.89 1669.06,-282.39 1669.06,-289.39"/>
</a>
</g>
</g>
<!-- Node3&#45;&gt;Node3 -->
<g id="edge48_Node000003_Node000003" class="edge">
<title>Node3&#45;&gt;Node3</title>
<g id="a_edge48_Node000003_Node000003"><a xlink:title=" ">
<path fill="none" stroke="#63b8ff" d="M1615.55,-307.33C1612.28,-311.19 1603.8,-313.89 1590.12,-313.89 1565.12,-313.89 1557.5,-304.87 1567.26,-296.23"/>
<polygon fill="#63b8ff" stroke="#63b8ff" points="1618.99,-306.66 1613.33,-297.7 1612.17,-308.24 1618.99,-306.66"/>
</a>
</g>
</g>
<!-- Node4 -->
<g id="Node000004" class="node">
<title>Node4</title>
<g id="a_Node000004"><a xlink:href="../../d6/df9/SDL__joystick_8c.html#a7d2531dc4fbc8de52a29ac3ec171a495" target="_top" xlink:title=" ">
<polygon fill="white" stroke="#666666" points="707.12,-186.89 596.62,-186.89 596.62,-166.89 707.12,-166.89 707.12,-186.89"/>
<text xml:space="preserve" text-anchor="middle" x="651.88" y="-173.39" font-family="Helvetica,sans-Serif" font-size="10.00">AttemptSensorFusion</text>
</a>
</g>
</g>
<!-- Node3&#45;&gt;Node4 -->
<g id="edge3_Node000003_Node000004" class="edge">
<title>Node3&#45;&gt;Node4</title>
<g id="a_edge3_Node000003_Node000004"><a xlink:title=" ">
<path fill="none" stroke="#63b8ff" d="M1569.6,-268.01C1552.34,-253.18 1525.84,-232.67 1499.25,-220.89 1412.61,-182.51 1385.39,-176.89 1290.62,-176.89 1290.62,-176.89 1290.62,-176.89 975.38,-176.89 881.17,-176.89 771.49,-176.89 707.37,-176.89"/>
<polygon fill="#63b8ff" stroke="#63b8ff" points="1567.23,-270.59 1577.04,-274.58 1571.86,-265.34 1567.23,-270.59"/>
</a>
</g>
</g>
<!-- Node7 -->
<g id="Node000007" class="node">
<title>Node7</title>
<g id="a_Node000007"><a xlink:href="../../d6/df9/SDL__joystick_8c.html#ac0722362ebd0ebecebff12499774b471" target="_top" xlink:title=" ">
<polygon fill="white" stroke="#666666" points="1499.25,-148.89 1387.25,-148.89 1387.25,-128.89 1499.25,-128.89 1499.25,-148.89"/>
<text xml:space="preserve" text-anchor="middle" x="1443.25" y="-135.39" font-family="Helvetica,sans-Serif" font-size="10.00">CleanupSensorFusion</text>
</a>
</g>
</g>
<!-- Node3&#45;&gt;Node7 -->
<g id="edge6_Node000003_Node000007" class="edge">
<title>Node3&#45;&gt;Node7</title>
<g id="a_edge6_Node000003_Node000007"><a xlink:title=" ">
<path fill="none" stroke="#63b8ff" d="M1578.67,-265.44C1564.1,-238.69 1535.37,-191.84 1499.25,-162.89 1492.34,-157.35 1483.96,-152.85 1475.84,-149.3"/>
<polygon fill="#63b8ff" stroke="#63b8ff" points="1575.55,-267.02 1583.32,-274.22 1581.74,-263.74 1575.55,-267.02"/>
</a>
</g>
</g>
<!-- Node10 -->
<g id="Node000010" class="node">
<title>Node10</title>
<g id="a_Node000010"><a xlink:href="../../d6/df9/SDL__joystick_8c.html#aa98a95583054633f27bb3bcdff5f97aa" target="_top" xlink:title=" ">
<polygon fill="white" stroke="#666666" points="1186.75,-267.89 1086,-267.89 1086,-247.89 1186.75,-247.89 1186.75,-267.89"/>
<text xml:space="preserve" text-anchor="middle" x="1136.38" y="-254.39" font-family="Helvetica,sans-Serif" font-size="10.00">SDL_QuitJoysticks</text>
</a>
</g>
</g>
<!-- Node3&#45;&gt;Node10 -->
<g id="edge44_Node000003_Node000010" class="edge">
<title>Node3&#45;&gt;Node10</title>
<g id="a_edge44_Node000003_Node000010"><a xlink:title=" ">
<path fill="none" stroke="#63b8ff" d="M1523.78,-276.92C1432.53,-268.67 1268.93,-258.69 1186.99,-256.55"/>
<polygon fill="#63b8ff" stroke="#63b8ff" points="1523.29,-280.39 1533.58,-277.83 1523.94,-273.42 1523.29,-280.39"/>
</a>
</g>
</g>
<!-- Node12 -->
<g id="Node000012" class="node">
<title>Node12</title>
<g id="a_Node000012"><a xlink:href="../../df/d78/SDL_8c.html#aa33d2b8c0a69b16651f78c26f391b6ef" target="_top" xlink:title=" ">
<polygon fill="white" stroke="#666666" points="872,-264.89 766.75,-264.89 766.75,-244.89 872,-244.89 872,-264.89"/>
<text xml:space="preserve" text-anchor="middle" x="819.38" y="-251.39" font-family="Helvetica,sans-Serif" font-size="10.00">SDL_InitSubSystem</text>
</a>
</g>
</g>
<!-- Node3&#45;&gt;Node12 -->
<g id="edge35_Node000003_Node000012" class="edge">
<title>Node3&#45;&gt;Node12</title>
<g id="a_edge35_Node000003_Node000012"><a xlink:title=" ">
<path fill="none" stroke="#63b8ff" d="M1552.56,-271.35C1496.94,-250.58 1387.31,-214.89 1290.62,-214.89 1290.62,-214.89 1290.62,-214.89 1135.38,-214.89 1033.89,-214.89 1008.3,-220.44 908,-235.89 893.38,-238.14 877.55,-241.34 863.41,-244.47"/>
<polygon fill="#63b8ff" stroke="#63b8ff" points="1551.26,-274.6 1561.85,-274.88 1553.74,-268.06 1551.26,-274.6"/>
</a>
</g>
</g>
<!-- Node13 -->
<g id="Node000013" class="node">
<title>Node13</title>
<g id="a_Node000013"><a xlink:href="../../d6/df9/SDL__joystick_8c.html#a94fd638a34a769ff6a7a01738257215c" target="_top" xlink:title=" ">
<polygon fill="white" stroke="#666666" points="683.5,-72.89 620.25,-72.89 620.25,-52.89 683.5,-52.89 683.5,-72.89"/>
<text xml:space="preserve" text-anchor="middle" x="651.88" y="-59.39" font-family="Helvetica,sans-Serif" font-size="10.00">IsROGAlly</text>
</a>
</g>
</g>
<!-- Node3&#45;&gt;Node13 -->
<g id="edge34_Node000003_Node000013" class="edge">
<title>Node3&#45;&gt;Node13</title>
<g id="a_edge34_Node000003_Node000013"><a xlink:title=" ">
<path fill="none" stroke="#63b8ff" d="M1578.24,-265.66C1554.49,-221.53 1500.06,-120.52 1499.25,-119.89 1243.58,77.93 804.11,-21.58 683.99,-53.97"/>
<polygon fill="#63b8ff" stroke="#63b8ff" points="1575.03,-267.07 1582.85,-274.22 1581.19,-263.76 1575.03,-267.07"/>
</a>
</g>
</g>
<!-- Node24 -->
<g id="Node000024" class="node">
<title>Node24</title>
<g id="a_Node000024"><a xlink:href="../../d6/d3d/SDL__video_8c.html#ac61dc66ab71d039f9b681916d0fcbc6e" target="_top" xlink:title=" ">
<polygon fill="white" stroke="#666666" points="691.38,-376.89 612.38,-376.89 612.38,-356.89 691.38,-356.89 691.38,-376.89"/>
<text xml:space="preserve" text-anchor="middle" x="651.88" y="-363.39" font-family="Helvetica,sans-Serif" font-size="10.00">SDL_VideoInit</text>
</a>
</g>
</g>
<!-- Node3&#45;&gt;Node24 -->
<g id="edge49_Node000003_Node000024" class="edge">
<title>Node3&#45;&gt;Node24</title>
<g id="a_edge49_Node000003_Node000024"><a xlink:title=" ">
<path fill="none" stroke="#63b8ff" d="M1574.13,-305C1557.93,-324.08 1530.24,-352.46 1499.25,-365.89 1413.83,-402.93 1383.73,-384.89 1290.62,-384.89 1290.62,-384.89 1290.62,-384.89 975.38,-384.89 872.75,-384.89 752.05,-375.69 691.56,-370.45"/>
<polygon fill="#63b8ff" stroke="#63b8ff" points="1576.73,-307.36 1580.36,-297.41 1571.31,-302.92 1576.73,-307.36"/>
</a>
</g>
</g>
<!-- Node25 -->
<g id="Node000025" class="node">
<title>Node25</title>
<g id="a_Node000025"><a xlink:href="../../df/d78/SDL_8c.html#abf064fcc4a657a30db8eace18633f362" target="_top" xlink:title=" ">
<polygon fill="white" stroke="#666666" points="1472.62,-470.89 1413.88,-470.89 1413.88,-450.89 1472.62,-450.89 1472.62,-470.89"/>
<text xml:space="preserve" text-anchor="middle" x="1443.25" y="-457.39" font-family="Helvetica,sans-Serif" font-size="10.00">SDL_Quit</text>
</a>
</g>
</g>
<!-- Node3&#45;&gt;Node25 -->
<g id="edge36_Node000003_Node000025" class="edge">
<title>Node3&#45;&gt;Node25</title>
<g id="a_edge36_Node000003_Node000025"><a xlink:title=" ">
<path fill="none" stroke="#63b8ff" d="M1574.21,-305.29C1556.62,-328 1526.36,-366.63 1499.25,-398.89 1483.7,-417.4 1464.87,-438.32 1453.77,-450.51"/>
<polygon fill="#63b8ff" stroke="#63b8ff" points="1576.86,-307.58 1580.2,-297.52 1571.32,-303.3 1576.86,-307.58"/>
</a>
</g>
</g>
<!-- Node31 -->
<g id="Node000031" class="node">
<title>Node31</title>
<g id="a_Node000031"><a xlink:href="../../dc/de1/SDL__sensor_8c.html#af97faaba22b06bf9fc16804bfc2ae7df" target="_top" xlink:title=" ">
<polygon fill="white" stroke="#666666" points="1490.62,-318.89 1395.88,-318.89 1395.88,-298.89 1490.62,-298.89 1490.62,-318.89"/>
<text xml:space="preserve" text-anchor="middle" x="1443.25" y="-305.39" font-family="Helvetica,sans-Serif" font-size="10.00">SDL_QuitSensors</text>
</a>
</g>
</g>
<!-- Node3&#45;&gt;Node31 -->
<g id="edge45_Node000003_Node000031" class="edge">
<title>Node3&#45;&gt;Node31</title>
<g id="a_edge45_Node000003_Node000031"><a xlink:title=" ">
<path fill="none" stroke="#63b8ff" d="M1523.62,-289.57C1506.47,-292.15 1488.8,-295.33 1474.5,-298.48"/>
<polygon fill="#63b8ff" stroke="#63b8ff" points="1523.87,-293.07 1533.27,-288.18 1522.87,-286.14 1523.87,-293.07"/>
</a>
</g>
</g>
<!-- Node32 -->
<g id="Node000032" class="node">
<title>Node32</title>
<g id="a_Node000032"><a xlink:href="../../d6/d3d/SDL__video_8c.html#ae86d31ef3c6aad24cd4d0da9a9551906" target="_top" xlink:title=" ">
<polygon fill="white" stroke="#666666" points="1485,-356.89 1401.5,-356.89 1401.5,-336.89 1485,-336.89 1485,-356.89"/>
<text xml:space="preserve" text-anchor="middle" x="1443.25" y="-343.39" font-family="Helvetica,sans-Serif" font-size="10.00">SDL_VideoQuit</text>
</a>
</g>
</g>
<!-- Node3&#45;&gt;Node32 -->
<g id="edge50_Node000003_Node000032" class="edge">
<title>Node3&#45;&gt;Node32</title>
<g id="a_edge50_Node000003_Node000032"><a xlink:title=" ">
<path fill="none" stroke="#63b8ff" d="M1541.03,-300.84C1527.63,-306.76 1512.98,-313.33 1499.25,-318.89 1484.46,-324.88 1466.97,-330.72 1455.76,-336.42"/>
<polygon fill="#63b8ff" stroke="#63b8ff" points="1542.33,-304.09 1550.08,-296.86 1539.52,-297.68 1542.33,-304.09"/>
</a>
</g>
</g>
<!-- Node5 -->
<g id="Node000005" class="node">
<title>Node5</title>
<g id="a_Node000005"><a xlink:href="../../d6/df9/SDL__joystick_8c.html#a0c867d96ec6bc9c3aca87c8ee6b53ade" target="_top" xlink:title=" ">
<polygon fill="white" stroke="#666666" points="315.12,-91.89 214.38,-91.89 214.38,-71.89 315.12,-71.89 315.12,-91.89"/>
<text xml:space="preserve" text-anchor="middle" x="264.75" y="-78.39" font-family="Helvetica,sans-Serif" font-size="10.00">SDL_OpenJoystick</text>
</a>
</g>
</g>
<!-- Node4&#45;&gt;Node5 -->
<g id="edge4_Node000004_Node000005" class="edge">
<title>Node4&#45;&gt;Node5</title>
<g id="a_edge4_Node000004_Node000005"><a xlink:title=" ">
<path fill="none" stroke="#63b8ff" d="M597.64,-163.76C520.4,-144.71 378.77,-109.77 308.14,-92.35"/>
<polygon fill="#63b8ff" stroke="#63b8ff" points="596.54,-167.09 607.09,-166.09 598.22,-160.3 596.54,-167.09"/>
</a>
</g>
</g>
<!-- Node6 -->
<g id="Node000006" class="node">
<title>Node6</title>
<g id="a_Node000006"><a xlink:href="../../d0/d82/SDL__gamepad_8c.html#a011496690758b66ec0f7098f030b6d85" target="_top" xlink:title=" ">
<polygon fill="white" stroke="#666666" points="134.12,-129.89 28.12,-129.89 28.12,-109.89 134.12,-109.89 134.12,-129.89"/>
<text xml:space="preserve" text-anchor="middle" x="81.12" y="-116.39" font-family="Helvetica,sans-Serif" font-size="10.00">SDL_OpenGamepad</text>
</a>
</g>
</g>
<!-- Node5&#45;&gt;Node6 -->
<g id="edge5_Node000005_Node000006" class="edge">
<title>Node5&#45;&gt;Node6</title>
<g id="a_edge5_Node000005_Node000006"><a xlink:title=" ">
<path fill="none" stroke="#63b8ff" d="M203.06,-94.59C179.98,-99.42 153.97,-104.86 132.01,-109.45"/>
<polygon fill="#63b8ff" stroke="#63b8ff" points="203.57,-98.06 212.64,-92.59 202.13,-91.21 203.57,-98.06"/>
</a>
</g>
</g>
<!-- Node8 -->
<g id="Node000008" class="node">
<title>Node8</title>
<g id="a_Node000008"><a xlink:href="../../d6/df9/SDL__joystick_8c.html#aadf2e0eabb7fee1784bced6566d2f2ee" target="_top" xlink:title=" ">
<polygon fill="white" stroke="#666666" points="1341.12,-148.89 1238.12,-148.89 1238.12,-128.89 1341.12,-128.89 1341.12,-148.89"/>
<text xml:space="preserve" text-anchor="middle" x="1289.62" y="-135.39" font-family="Helvetica,sans-Serif" font-size="10.00">SDL_CloseJoystick</text>
</a>
</g>
</g>
<!-- Node7&#45;&gt;Node8 -->
<g id="edge7_Node000007_Node000008" class="edge">
<title>Node7&#45;&gt;Node8</title>
<g id="a_edge7_Node000007_Node000008"><a xlink:title=" ">
<path fill="none" stroke="#63b8ff" d="M1375.73,-138.89C1364.24,-138.89 1352.46,-138.89 1341.47,-138.89"/>
<polygon fill="#63b8ff" stroke="#63b8ff" points="1375.57,-142.39 1385.57,-138.89 1375.57,-135.39 1375.57,-142.39"/>
</a>
</g>
</g>
<!-- Node8&#45;&gt;Node5 -->
<g id="edge11_Node000008_Node000005" class="edge">
<title>Node8&#45;&gt;Node5</title>
<g id="a_edge11_Node000008_Node000005"><a xlink:title=" ">
<path fill="none" stroke="#63b8ff" d="M1239.45,-125.52C1127.99,-95.4 862.49,-24.89 820.38,-24.89 820.38,-24.89 820.38,-24.89 650.88,-24.89 524.54,-24.89 490.74,-17.24 367.25,-43.89 338.93,-50 307.95,-62.51 287.76,-71.51"/>
<polygon fill="#63b8ff" stroke="#63b8ff" points="1238.35,-128.84 1248.92,-128.08 1240.18,-122.09 1238.35,-128.84"/>
</a>
</g>
</g>
<!-- Node8&#45;&gt;Node6 -->
<g id="edge10_Node000008_Node000006" class="edge">
<title>Node8&#45;&gt;Node6</title>
<g id="a_edge10_Node000008_Node000006"><a xlink:title=" ">
<path fill="none" stroke="#63b8ff" d="M1226.39,-138.89C1163.56,-138.89 1063.73,-138.89 977.38,-138.89 977.38,-138.89 977.38,-138.89 451.12,-138.89 338.07,-138.89 205.78,-129.89 134.33,-124.27"/>
<polygon fill="#63b8ff" stroke="#63b8ff" points="1226.16,-142.39 1236.16,-138.89 1226.16,-135.39 1226.16,-142.39"/>
</a>
</g>
</g>
<!-- Node9 -->
<g id="Node000009" class="node">
<title>Node9</title>
<g id="a_Node000009"><a xlink:href="../../d0/d82/SDL__gamepad_8c.html#aba8e3cc0575aa23129847fd8418fc191" target="_top" xlink:title=" ">
<polygon fill="white" stroke="#666666" points="1190.5,-72.89 1082.25,-72.89 1082.25,-52.89 1190.5,-52.89 1190.5,-72.89"/>
<text xml:space="preserve" text-anchor="middle" x="1136.38" y="-59.39" font-family="Helvetica,sans-Serif" font-size="10.00">SDL_CloseGamepad</text>
</a>
</g>
</g>
<!-- Node8&#45;&gt;Node9 -->
<g id="edge8_Node000008_Node000009" class="edge">
<title>Node8&#45;&gt;Node9</title>
<g id="a_edge8_Node000008_Node000009"><a xlink:title=" ">
<path fill="none" stroke="#63b8ff" d="M1260.47,-122.97C1241.36,-112.36 1215.4,-98.31 1192,-86.89 1182.41,-82.21 1171.7,-77.42 1162.31,-73.35"/>
<polygon fill="#63b8ff" stroke="#63b8ff" points="1258.57,-125.92 1269.01,-127.74 1261.98,-119.81 1258.57,-125.92"/>
</a>
</g>
</g>
<!-- Node8&#45;&gt;Node10 -->
<g id="edge12_Node000008_Node000010" class="edge">
<title>Node8&#45;&gt;Node10</title>
<g id="a_edge12_Node000008_Node000010"><a xlink:title=" ">
<path fill="none" stroke="#63b8ff" d="M1266.46,-156.33C1234.53,-181.45 1176.6,-227.03 1150.61,-247.48"/>
<polygon fill="#63b8ff" stroke="#63b8ff" points="1268.58,-159.11 1274.28,-150.18 1264.25,-153.61 1268.58,-159.11"/>
</a>
</g>
</g>
<!-- Node9&#45;&gt;Node2 -->
<g id="edge9_Node000009_Node000002" class="edge">
<title>Node9&#45;&gt;Node2</title>
<g id="a_edge9_Node000009_Node000002"><a xlink:title=" ">
<path fill="none" stroke="#63b8ff" d="M1202.43,-64.23C1276.77,-67.76 1400.85,-79.8 1499.25,-119.89 1596.05,-159.33 1691.33,-245.77 1722.45,-275.56"/>
<polygon fill="#63b8ff" stroke="#63b8ff" points="1202.59,-60.74 1192.45,-63.8 1202.29,-67.73 1202.59,-60.74"/>
</a>
</g>
</g>
<!-- Node10&#45;&gt;Node3 -->
<g id="edge33_Node000010_Node000003" class="edge">
<title>Node10&#45;&gt;Node3</title>
<g id="a_edge33_Node000010_Node000003"><a xlink:title=" ">
<path fill="none" stroke="#63b8ff" d="M1198.21,-266.45C1286.91,-274.64 1450.39,-284.7 1535.08,-287.11"/>
<polygon fill="#63b8ff" stroke="#63b8ff" points="1198.78,-262.99 1188.5,-265.53 1198.12,-269.96 1198.78,-262.99"/>
</a>
</g>
</g>
<!-- Node11 -->
<g id="Node000011" class="node">
<title>Node11</title>
<g id="a_Node000011"><a xlink:href="../../d6/df9/SDL__joystick_8c.html#a9340afa4acb6b0fad4affbb99d4fa014" target="_top" xlink:title=" ">
<polygon fill="white" stroke="#666666" points="1024.5,-264.89 928.25,-264.89 928.25,-244.89 1024.5,-244.89 1024.5,-264.89"/>
<text xml:space="preserve" text-anchor="middle" x="976.38" y="-251.39" font-family="Helvetica,sans-Serif" font-size="10.00">SDL_InitJoysticks</text>
</a>
</g>
</g>
<!-- Node10&#45;&gt;Node11 -->
<g id="edge13_Node000010_Node000011" class="edge">
<title>Node10&#45;&gt;Node11</title>
<g id="a_edge13_Node000010_Node000011"><a xlink:title=" ">
<path fill="none" stroke="#63b8ff" d="M1074.62,-256.74C1058.12,-256.42 1040.51,-256.09 1024.87,-255.79"/>
<polygon fill="#63b8ff" stroke="#63b8ff" points="1074.24,-260.23 1084.3,-256.92 1074.37,-253.23 1074.24,-260.23"/>
</a>
</g>
</g>
<!-- Node11&#45;&gt;Node12 -->
<g id="edge14_Node000011_Node000012" class="edge">
<title>Node11&#45;&gt;Node12</title>
<g id="a_edge14_Node000011_Node000012"><a xlink:title=" ">
<path fill="none" stroke="#63b8ff" d="M916.59,-248.32C902.02,-248.04 886.51,-248.09 872.29,-248.48"/>
<polygon fill="#63b8ff" stroke="#63b8ff" points="916.43,-251.82 926.51,-248.58 916.61,-244.82 916.43,-251.82"/>
</a>
</g>
</g>
<!-- Node12&#45;&gt;Node4 -->
<g id="edge15_Node000012_Node000004" class="edge">
<title>Node12&#45;&gt;Node4</title>
<g id="a_edge15_Node000012_Node000004"><a xlink:title=" ">
<path fill="none" stroke="#63b8ff" d="M797.59,-237.79C780.58,-224.58 755.38,-206.77 730.75,-195.89 723.11,-192.52 714.78,-189.68 706.49,-187.32"/>
<polygon fill="#63b8ff" stroke="#63b8ff" points="794.95,-240.16 804.96,-243.64 799.31,-234.68 794.95,-240.16"/>
</a>
</g>
</g>
<!-- Node12&#45;&gt;Node11 -->
<g id="edge24_Node000012_Node000011" class="edge">
<title>Node12&#45;&gt;Node11</title>
<g id="a_edge24_Node000012_Node000011"><a xlink:title=" ">
<path fill="none" stroke="#63b8ff" d="M883.49,-261.54C898.37,-261.76 913.98,-261.63 928.03,-261.17"/>
<polygon fill="#63b8ff" stroke="#63b8ff" points="883.87,-258.04 873.8,-261.33 883.73,-265.04 883.87,-258.04"/>
</a>
</g>
</g>
<!-- Node12&#45;&gt;Node13 -->
<g id="edge16_Node000012_Node000013" class="edge">
<title>Node12&#45;&gt;Node13</title>
<g id="a_edge16_Node000012_Node000013"><a xlink:title=" ">
<path fill="none" stroke="#63b8ff" d="M802.11,-236.03C767.7,-196.1 688.48,-104.2 661.82,-73.27"/>
<polygon fill="#63b8ff" stroke="#63b8ff" points="799.31,-238.13 808.49,-243.42 804.61,-233.56 799.31,-238.13"/>
</a>
</g>
</g>
<!-- Node15 -->
<g id="Node000015" class="node">
<title>Node15</title>
<g id="a_Node000015"><a xlink:href="../../df/d78/SDL_8c.html#ac25d0ce460db43ca8c7681eb8e7c5007" target="_top" xlink:title=" ">
<polygon fill="white" stroke="#666666" points="679,-262.89 624.75,-262.89 624.75,-242.89 679,-242.89 679,-262.89"/>
<text xml:space="preserve" text-anchor="middle" x="651.88" y="-249.39" font-family="Helvetica,sans-Serif" font-size="10.00">SDL_Init</text>
</a>
</g>
</g>
<!-- Node12&#45;&gt;Node15 -->
<g id="edge19_Node000012_Node000015" class="edge">
<title>Node12&#45;&gt;Node15</title>
<g id="a_edge19_Node000012_Node000015"><a xlink:title=" ">
<path fill="none" stroke="#63b8ff" d="M754.99,-254.13C728.65,-253.81 699.53,-253.46 679.15,-253.21"/>
<polygon fill="#63b8ff" stroke="#63b8ff" points="754.91,-257.62 764.95,-254.25 754.99,-250.63 754.91,-257.62"/>
</a>
</g>
</g>
<!-- Node20 -->
<g id="Node000020" class="node">
<title>Node20</title>
<g id="a_Node000020"><a xlink:href="../../d9/d78/SDL__main__callbacks_8c.html#a3d21b5bf7aa441418de48c5b2856336a" target="_top" xlink:title=" ">
<polygon fill="white" stroke="#666666" points="711.25,-300.89 592.5,-300.89 592.5,-280.89 711.25,-280.89 711.25,-300.89"/>
<text xml:space="preserve" text-anchor="middle" x="651.88" y="-287.39" font-family="Helvetica,sans-Serif" font-size="10.00">SDL_InitMainCallbacks</text>
</a>
</g>
</g>
<!-- Node12&#45;&gt;Node20 -->
<g id="edge25_Node000012_Node000020" class="edge">
<title>Node12&#45;&gt;Node20</title>
<g id="a_edge25_Node000012_Node000020"><a xlink:title=" ">
<path fill="none" stroke="#63b8ff" d="M759.46,-267.71C740.27,-271.88 719.22,-276.46 700.92,-280.44"/>
<polygon fill="#63b8ff" stroke="#63b8ff" points="760,-271.17 769.03,-265.63 758.51,-264.33 760,-271.17"/>
</a>
</g>
</g>
<!-- Node22 -->
<g id="Node000022" class="node">
<title>Node22</title>
<g id="a_Node000022"><a xlink:href="../../df/d78/SDL_8c.html#a8f0bf712ad7ba759f5b6e04e683c67d4" target="_top" xlink:title=" ">
<polygon fill="white" stroke="#666666" points="730.75,-224.89 573,-224.89 573,-204.89 730.75,-204.89 730.75,-224.89"/>
<text xml:space="preserve" text-anchor="middle" x="651.88" y="-211.39" font-family="Helvetica,sans-Serif" font-size="10.00">SDL_InitOrIncrementSubsystem</text>
</a>
</g>
</g>
<!-- Node12&#45;&gt;Node22 -->
<g id="edge27_Node000012_Node000022" class="edge">
<title>Node12&#45;&gt;Node22</title>
<g id="a_edge27_Node000012_Node000022"><a xlink:title=" ">
<path fill="none" stroke="#63b8ff" d="M784.53,-241.14C766.94,-235.92 744.76,-230.19 723.65,-225.31"/>
<polygon fill="#63b8ff" stroke="#63b8ff" points="783.33,-244.44 793.92,-244.04 785.39,-237.75 783.33,-244.44"/>
</a>
</g>
</g>
<!-- Node23 -->
<g id="Node000023" class="node">
<title>Node23</title>
<g id="a_Node000023"><a xlink:href="../../dc/de1/SDL__sensor_8c.html#abdb7d6b73a301a2c8558ba80edb32331" target="_top" xlink:title=" ">
<polygon fill="white" stroke="#666666" points="697,-338.89 606.75,-338.89 606.75,-318.89 697,-318.89 697,-338.89"/>
<text xml:space="preserve" text-anchor="middle" x="651.88" y="-325.39" font-family="Helvetica,sans-Serif" font-size="10.00">SDL_InitSensors</text>
</a>
</g>
</g>
<!-- Node12&#45;&gt;Node23 -->
<g id="edge29_Node000012_Node000023" class="edge">
<title>Node12&#45;&gt;Node23</title>
<g id="a_edge29_Node000012_Node000023"><a xlink:title=" ">
<path fill="none" stroke="#63b8ff" d="M785.27,-271.04C769.43,-280.91 749.79,-292.84 730.75,-300.89 712.04,-308.8 689.34,-313.87 673.29,-318.43"/>
<polygon fill="#63b8ff" stroke="#63b8ff" points="786.69,-274.27 793.32,-266.01 782.99,-268.34 786.69,-274.27"/>
</a>
</g>
</g>
<!-- Node12&#45;&gt;Node24 -->
<g id="edge31_Node000012_Node000024" class="edge">
<title>Node12&#45;&gt;Node24</title>
<g id="a_edge31_Node000012_Node000024"><a xlink:title=" ">
<path fill="none" stroke="#63b8ff" d="M800.17,-274.17C784.26,-293.54 759.29,-322.28 730.75,-338.89 715.12,-347.99 695.28,-352.75 679.54,-356.41"/>
<polygon fill="#63b8ff" stroke="#63b8ff" points="802.87,-276.39 806.48,-266.43 797.45,-271.97 802.87,-276.39"/>
</a>
</g>
</g>
<!-- Node14 -->
<g id="Node000014" class="node">
<title>Node14</title>
<g id="a_Node000014"><a xlink:href="../../d6/df9/SDL__joystick_8c.html#a497945f75b33dbfcde319992145025c5" target="_top" xlink:title=" ">
<polygon fill="white" stroke="#666666" points="522.38,-72.89 381.88,-72.89 381.88,-52.89 522.38,-52.89 522.38,-72.89"/>
<text xml:space="preserve" text-anchor="middle" x="452.12" y="-59.39" font-family="Helvetica,sans-Serif" font-size="10.00">ShouldAttemptSensorFusion</text>
</a>
</g>
</g>
<!-- Node13&#45;&gt;Node14 -->
<g id="edge17_Node000013_Node000014" class="edge">
<title>Node13&#45;&gt;Node14</title>
<g id="a_edge17_Node000013_Node000014"><a xlink:title=" ">
<path fill="none" stroke="#63b8ff" d="M608.69,-62.89C583.69,-62.89 551.39,-62.89 522.71,-62.89"/>
<polygon fill="#63b8ff" stroke="#63b8ff" points="608.46,-66.39 618.46,-62.89 608.46,-59.39 608.46,-66.39"/>
</a>
</g>
</g>
<!-- Node14&#45;&gt;Node5 -->
<g id="edge18_Node000014_Node000005" class="edge">
<title>Node14&#45;&gt;Node5</title>
<g id="a_edge18_Node000014_Node000005"><a xlink:title=" ">
<path fill="none" stroke="#63b8ff" d="M370.36,-71.17C351.68,-73.08 332.33,-75.07 315.44,-76.8"/>
<polygon fill="#63b8ff" stroke="#63b8ff" points="370.47,-74.68 380.07,-70.17 369.76,-67.71 370.47,-74.68"/>
</a>
</g>
</g>
<!-- Node16 -->
<g id="Node000016" class="node">
<title>Node16</title>
<g id="a_Node000016"><a xlink:href="../../d6/d3d/SDL__video_8c.html#a9f3d88531134e2c3e575a3c2db7f8488" target="_top" xlink:title=" ">
<polygon fill="white" stroke="#666666" points="537,-262.89 367.25,-262.89 367.25,-242.89 537,-242.89 537,-262.89"/>
<text xml:space="preserve" text-anchor="middle" x="452.12" y="-249.39" font-family="Helvetica,sans-Serif" font-size="10.00">SDL_CreateWindowWithProperties</text>
</a>
</g>
</g>
<!-- Node15&#45;&gt;Node16 -->
<g id="edge20_Node000015_Node000016" class="edge">
<title>Node15&#45;&gt;Node16</title>
<g id="a_edge20_Node000015_Node000016"><a xlink:title=" ">
<path fill="none" stroke="#63b8ff" d="M613.37,-252.89C591.84,-252.89 563.89,-252.89 537.38,-252.89"/>
<polygon fill="#63b8ff" stroke="#63b8ff" points="613.1,-256.39 623.1,-252.89 613.1,-249.39 613.1,-256.39"/>
</a>
</g>
</g>
<!-- Node17 -->
<g id="Node000017" class="node">
<title>Node17</title>
<g id="a_Node000017"><a xlink:href="../../d6/d3d/SDL__video_8c.html#acc26de39ce1bd675446e4d6c05ebf4b0" target="_top" xlink:title=" ">
<polygon fill="white" stroke="#666666" points="331.25,-281.89 198.25,-281.89 198.25,-261.89 331.25,-261.89 331.25,-281.89"/>
<text xml:space="preserve" text-anchor="middle" x="264.75" y="-268.39" font-family="Helvetica,sans-Serif" font-size="10.00">SDL_CreatePopupWindow</text>
</a>
</g>
</g>
<!-- Node16&#45;&gt;Node17 -->
<g id="edge21_Node000016_Node000017" class="edge">
<title>Node16&#45;&gt;Node17</title>
<g id="a_edge21_Node000016_Node000017"><a xlink:title=" ">
<path fill="none" stroke="#63b8ff" d="M355.42,-262.7C347.33,-263.53 339.27,-264.36 331.5,-265.15"/>
<polygon fill="#63b8ff" stroke="#63b8ff" points="355.75,-266.19 365.34,-261.68 355.03,-259.22 355.75,-266.19"/>
</a>
</g>
</g>
<!-- Node18 -->
<g id="Node000018" class="node">
<title>Node18</title>
<g id="a_Node000018"><a xlink:href="../../d6/d3d/SDL__video_8c.html#a83103c86f9e5c33ab9e1fb6dfa904b7f" target="_top" xlink:title=" ">
<polygon fill="white" stroke="#666666" points="317.38,-243.89 212.12,-243.89 212.12,-223.89 317.38,-223.89 317.38,-243.89"/>
<text xml:space="preserve" text-anchor="middle" x="264.75" y="-230.39" font-family="Helvetica,sans-Serif" font-size="10.00">SDL_CreateWindow</text>
</a>
</g>
</g>
<!-- Node16&#45;&gt;Node18 -->
<g id="edge22_Node000016_Node000018" class="edge">
<title>Node16&#45;&gt;Node18</title>
<g id="a_edge22_Node000016_Node000018"><a xlink:title=" ">
<path fill="none" stroke="#63b8ff" d="M355.44,-243.08C342.45,-241.75 329.54,-240.43 317.73,-239.22"/>
<polygon fill="#63b8ff" stroke="#63b8ff" points="355.03,-246.56 365.34,-244.1 355.75,-239.6 355.03,-246.56"/>
</a>
</g>
</g>
<!-- Node19 -->
<g id="Node000019" class="node">
<title>Node19</title>
<g id="a_Node000019"><a xlink:href="../../dd/df3/SDL__render_8c.html#a36f859fae15e4277ba052f9ecfb2816d" target="_top" xlink:title=" ">
<polygon fill="white" stroke="#666666" points="162.25,-243.89 0,-243.89 0,-223.89 162.25,-223.89 162.25,-243.89"/>
<text xml:space="preserve" text-anchor="middle" x="81.12" y="-230.39" font-family="Helvetica,sans-Serif" font-size="10.00">SDL_CreateWindowAndRenderer</text>
</a>
</g>
</g>
<!-- Node18&#45;&gt;Node19 -->
<g id="edge23_Node000018_Node000019" class="edge">
<title>Node18&#45;&gt;Node19</title>
<g id="a_edge23_Node000018_Node000019"><a xlink:title=" ">
<path fill="none" stroke="#63b8ff" d="M200.3,-233.89C188.14,-233.89 175.26,-233.89 162.64,-233.89"/>
<polygon fill="#63b8ff" stroke="#63b8ff" points="200.19,-237.39 210.19,-233.89 200.19,-230.39 200.19,-237.39"/>
</a>
</g>
</g>
<!-- Node21 -->
<g id="Node000021" class="node">
<title>Node21</title>
<g id="a_Node000021"><a xlink:href="../../dd/db5/generic_2SDL__sysmain__callbacks_8c.html#aa50e1897a91f2547b5f31125020220e2" target="_top" xlink:title=" ">
<polygon fill="white" stroke="#666666" points="525,-432.89 379.25,-432.89 379.25,-412.89 525,-412.89 525,-432.89"/>
<text xml:space="preserve" text-anchor="middle" x="452.12" y="-419.39" font-family="Helvetica,sans-Serif" font-size="10.00">SDL_EnterAppMainCallbacks</text>
</a>
</g>
</g>
<!-- Node20&#45;&gt;Node21 -->
<g id="edge26_Node000020_Node000021" class="edge">
<title>Node20&#45;&gt;Node21</title>
<g id="a_edge26_Node000020_Node000021"><a xlink:title=" ">
<path fill="none" stroke="#63b8ff" d="M582.95,-305.16C579.52,-306.59 576.18,-308.16 573,-309.89 522.99,-337.06 478.29,-390.27 460.87,-412.62"/>
<polygon fill="#63b8ff" stroke="#63b8ff" points="583.86,-308.55 592.03,-301.8 581.44,-301.99 583.86,-308.55"/>
</a>
</g>
</g>
<!-- Node22&#45;&gt;Node12 -->
<g id="edge28_Node000022_Node000012" class="edge">
<title>Node22&#45;&gt;Node12</title>
<g id="a_edge28_Node000022_Node000012"><a xlink:title=" ">
<path fill="none" stroke="#63b8ff" d="M686.91,-228.7C709.84,-235.5 740.51,-243.15 766.46,-248.66"/>
<polygon fill="#63b8ff" stroke="#63b8ff" points="688.05,-225.39 677.46,-225.79 685.99,-232.08 688.05,-225.39"/>
</a>
</g>
</g>
<!-- Node23&#45;&gt;Node12 -->
<g id="edge30_Node000023_Node000012" class="edge">
<title>Node23&#45;&gt;Node12</title>
<g id="a_edge30_Node000023_Node000012"><a xlink:title=" ">
<path fill="none" stroke="#63b8ff" d="M708.43,-326.58C716.06,-324.46 723.69,-321.88 730.75,-318.89 763.18,-305.19 797.31,-280.23 811.53,-265.24"/>
<polygon fill="#63b8ff" stroke="#63b8ff" points="707.65,-323.17 698.8,-328.99 709.35,-329.96 707.65,-323.17"/>
</a>
</g>
</g>
<!-- Node24&#45;&gt;Node12 -->
<g id="edge32_Node000024_Node000012" class="edge">
<title>Node24&#45;&gt;Node12</title>
<g id="a_edge32_Node000024_Node000012"><a xlink:title=" ">
<path fill="none" stroke="#63b8ff" d="M702.95,-368C712.57,-365.48 722.28,-361.82 730.75,-356.89 770.63,-333.68 803.55,-286.79 814.49,-265.2"/>
<polygon fill="#63b8ff" stroke="#63b8ff" points="702.28,-364.57 693.26,-370.13 703.78,-371.4 702.28,-364.57"/>
</a>
</g>
</g>
<!-- Node26 -->
<g id="Node000026" class="node">
<title>Node26</title>
<g id="a_Node000026"><a xlink:href="../../de/daf/classCSDLmain.html#a73bd9c42ac6916974009e508257e44ff" target="_top" xlink:title=" ">
<polygon fill="white" stroke="#666666" points="1336.25,-508.89 1243,-508.89 1243,-488.89 1336.25,-488.89 1336.25,-508.89"/>
<text xml:space="preserve" text-anchor="middle" x="1289.62" y="-495.39" font-family="Helvetica,sans-Serif" font-size="10.00">CSDLmain::RunL</text>
</a>
</g>
</g>
<!-- Node25&#45;&gt;Node26 -->
<g id="edge37_Node000025_Node000026" class="edge">
<title>Node25&#45;&gt;Node26</title>
<g id="a_edge37_Node000025_Node000026"><a xlink:title=" ">
<path fill="none" stroke="#63b8ff" d="M1402.65,-470.82C1381.08,-476.22 1354.39,-482.91 1332.48,-488.4"/>
<polygon fill="#63b8ff" stroke="#63b8ff" points="1403.41,-474.23 1412.26,-468.41 1401.71,-467.44 1403.41,-474.23"/>
</a>
</g>
</g>
<!-- Node27 -->
<g id="Node000027" class="node">
<title>Node27</title>
<g id="a_Node000027"><a xlink:href="../../d3/d6c/SDL__assert_8c.html#af146e7f66c4e41a24337c5b6943af0b0" target="_top" xlink:title=" ">
<polygon fill="white" stroke="#666666" points="1342.25,-470.89 1237,-470.89 1237,-450.89 1342.25,-450.89 1342.25,-470.89"/>
<text xml:space="preserve" text-anchor="middle" x="1289.62" y="-457.39" font-family="Helvetica,sans-Serif" font-size="10.00">SDL_AbortAssertion</text>
</a>
</g>
</g>
<!-- Node25&#45;&gt;Node27 -->
<g id="edge38_Node000025_Node000027" class="edge">
<title>Node25&#45;&gt;Node27</title>
<g id="a_edge38_Node000025_Node000027"><a xlink:title=" ">
<path fill="none" stroke="#63b8ff" d="M1402.31,-460.89C1384.05,-460.89 1362.17,-460.89 1342.64,-460.89"/>
<polygon fill="#63b8ff" stroke="#63b8ff" points="1402.22,-464.39 1412.22,-460.89 1402.22,-457.39 1402.22,-464.39"/>
</a>
</g>
</g>
<!-- Node25&#45;&gt;Node29 -->
<g id="edge40_Node000025_Node000029" class="edge">
<title>Node25&#45;&gt;Node29</title>
<g id="a_edge40_Node000025_Node000029"><a xlink:title=" ">
<path fill="none" stroke="#63b8ff" d="M1402.65,-450.97C1381.08,-445.56 1354.39,-438.87 1332.48,-433.38"/>
<polygon fill="#63b8ff" stroke="#63b8ff" points="1401.71,-454.34 1412.26,-453.38 1403.41,-447.55 1401.71,-454.34"/>
</a>
</g>
</g>
<!-- Node28 -->
<g id="Node000028" class="node">
<title>Node28</title>
<g id="a_Node000028"><a xlink:href="../../d3/d6c/SDL__assert_8c.html#a0c9a208493d6e9212cff2ab400242102" target="_top" xlink:title=" ">
<polygon fill="white" stroke="#666666" points="1192,-508.89 1080.75,-508.89 1080.75,-488.89 1192,-488.89 1192,-508.89"/>
<text xml:space="preserve" text-anchor="middle" x="1136.38" y="-495.39" font-family="Helvetica,sans-Serif" font-size="10.00">SDL_ReportAssertion</text>
</a>
</g>
</g>
<!-- Node27&#45;&gt;Node28 -->
<g id="edge39_Node000027_Node000028" class="edge">
<title>Node27&#45;&gt;Node28</title>
<g id="a_edge39_Node000027_Node000028"><a xlink:title=" ">
<path fill="none" stroke="#63b8ff" d="M1235.9,-474.14C1217.25,-478.82 1196.56,-484.02 1178.97,-488.44"/>
<polygon fill="#63b8ff" stroke="#63b8ff" points="1236.58,-477.58 1245.43,-471.74 1234.88,-470.79 1236.58,-477.58"/>
</a>
</g>
</g>
<!-- Node29&#45;&gt;Node21 -->
<g id="edge43_Node000029_Node000021" class="edge">
<title>Node29&#45;&gt;Node21</title>
<g id="a_edge43_Node000029_Node000021"><a xlink:title=" ">
<path fill="none" stroke="#63b8ff" d="M1216.38,-422.89C1153.3,-422.89 1059.28,-422.89 977.38,-422.89 977.38,-422.89 977.38,-422.89 818.38,-422.89 716.6,-422.89 598.87,-422.89 525.2,-422.89"/>
<polygon fill="#63b8ff" stroke="#63b8ff" points="1216.28,-426.39 1226.28,-422.89 1216.28,-419.39 1216.28,-426.39"/>
</a>
</g>
</g>
<!-- Node30 -->
<g id="Node000030" class="node">
<title>Node30</title>
<g id="a_Node000030"><a xlink:href="../../d0/d72/emscripten_2SDL__sysmain__callbacks_8c.html#ad2e127e4f44ae815197361e79da5bf88" target="_top" xlink:title=" ">
<polygon fill="white" stroke="#666666" points="1044.75,-470.89 908,-470.89 908,-450.89 1044.75,-450.89 1044.75,-470.89"/>
<text xml:space="preserve" text-anchor="middle" x="976.38" y="-457.39" font-family="Helvetica,sans-Serif" font-size="10.00">EmscriptenInternalMainloop</text>
</a>
</g>
</g>
<!-- Node29&#45;&gt;Node30 -->
<g id="edge41_Node000029_Node000030" class="edge">
<title>Node29&#45;&gt;Node30</title>
<g id="a_edge41_Node000029_Node000030"><a xlink:title=" ">
<path fill="none" stroke="#63b8ff" d="M1216.42,-433.61C1208.19,-434.76 1199.92,-435.88 1192,-436.89 1142.91,-443.19 1087.38,-449.37 1045.11,-453.89"/>
<polygon fill="#63b8ff" stroke="#63b8ff" points="1216.67,-437.11 1226.09,-432.25 1215.7,-430.18 1216.67,-437.11"/>
</a>
</g>
</g>
<!-- Node30&#45;&gt;Node21 -->
<g id="edge42_Node000030_Node000021" class="edge">
<title>Node30&#45;&gt;Node21</title>
<g id="a_edge42_Node000030_Node000021"><a xlink:title=" ">
<path fill="none" stroke="#63b8ff" d="M896.53,-457.51C815.34,-453.72 685.19,-446.78 573,-436.89 557.55,-435.53 541.02,-433.79 525.32,-431.99"/>
<polygon fill="#63b8ff" stroke="#63b8ff" points="895.99,-460.99 906.14,-457.96 896.31,-454 895.99,-460.99"/>
</a>
</g>
</g>
<!-- Node31&#45;&gt;Node3 -->
<g id="edge47_Node000031_Node000003" class="edge">
<title>Node31&#45;&gt;Node3</title>
<g id="a_edge47_Node000031_Node000003"><a xlink:title=" ">
<path fill="none" stroke="#63b8ff" d="M1502.05,-306.34C1521.45,-303.59 1542.32,-299.94 1558.75,-296.33"/>
<polygon fill="#63b8ff" stroke="#63b8ff" points="1501.79,-302.84 1492.35,-307.65 1502.72,-309.78 1501.79,-302.84"/>
</a>
</g>
</g>
<!-- Node31&#45;&gt;Node23 -->
<g id="edge46_Node000031_Node000023" class="edge">
<title>Node31&#45;&gt;Node23</title>
<g id="a_edge46_Node000031_Node000023"><a xlink:title=" ">
<path fill="none" stroke="#63b8ff" d="M1384.13,-308.89C1322.79,-308.89 1223.27,-308.89 1137.38,-308.89 1137.38,-308.89 1137.38,-308.89 975.38,-308.89 875.94,-308.89 759.6,-318.48 697.43,-324.38"/>
<polygon fill="#63b8ff" stroke="#63b8ff" points="1383.99,-312.39 1393.99,-308.89 1383.99,-305.39 1383.99,-312.39"/>
</a>
</g>
</g>
<!-- Node32&#45;&gt;Node3 -->
<g id="edge51_Node000032_Node000003" class="edge">
<title>Node32&#45;&gt;Node3</title>
<g id="a_edge51_Node000032_Node000003"><a xlink:title=" ">
<path fill="none" stroke="#63b8ff" d="M1495.84,-338.25C1496.99,-337.8 1498.13,-337.35 1499.25,-336.89 1529.1,-324.8 1563.3,-307.96 1579.56,-296.26"/>
<polygon fill="#63b8ff" stroke="#63b8ff" points="1494.84,-334.89 1486.69,-341.66 1497.28,-341.45 1494.84,-334.89"/>
</a>
</g>
</g>
<!-- Node32&#45;&gt;Node24 -->
<g id="edge52_Node000032_Node000024" class="edge">
<title>Node32&#45;&gt;Node24</title>
<g id="a_edge52_Node000032_Node000024"><a xlink:title=" ">
<path fill="none" stroke="#63b8ff" d="M1390.13,-346.89C1329.43,-346.89 1226.13,-346.89 1137.38,-346.89 1137.38,-346.89 1137.38,-346.89 975.38,-346.89 872.72,-346.89 752.03,-357.11 691.55,-362.94"/>
<polygon fill="#63b8ff" stroke="#63b8ff" points="1389.81,-350.39 1399.81,-346.89 1389.81,-343.39 1389.81,-350.39"/>
</a>
</g>
</g>
</g>
</svg>

<g id="navigator" transform="translate(0 0)" fill="#404254">
  <rect fill="#f2f5e9" fill-opacity="0.5" stroke="#606060" stroke-width=".5" x="0" y="0" width="60" height="60"/>
  <use id="zoomplus" xlink:href="#zoomPlus" x="17" y="9" onmousedown="handleZoom(evt,'in')"/>
  <use id="zoomminus" xlink:href="#zoomMin" x="42" y="9" onmousedown="handleZoom(evt,'out')"/>
  <use id="reset" xlink:href="#resetDef" x="30" y="36" onmousedown="handleReset()"/>
   <use id="arrowup" xlink:href="#arrowUp" x="0" y="0" onmousedown="handlePan(0,-1)"/>
  <use id="arrowright" xlink:href="#arrowRight" x="0" y="0" onmousedown="handlePan(1,0)"/>
  <use id="arrowdown" xlink:href="#arrowDown" x="0" y="0" onmousedown="handlePan(0,1)"/>
  <use id="arrowleft" xlink:href="#arrowLeft" x="0" y="0" onmousedown="handlePan(-1,0)"/>
</g>
<svg viewBox="0 0 15 15" width="100%" height="30px" preserveAspectRatio="xMaxYMin meet">
 <g id="arrow_out" transform="scale(0.3 0.3)">
  <a xlink:href="SDL__events_8h_a2ca0769cb2abf9ae77d42085b2cd5ad2_icgraph_org.svg" target="_base">
   <rect id="button" ry="5" rx="5" y="6" x="6" height="38" width="38"
        fill="#f2f5e9" fill-opacity="0.5" stroke="#606060" stroke-width="1.0"/>
   <path id="arrow"
     d="M 11.500037,31.436501 C 11.940474,20.09759 22.043105,11.32322 32.158766,21.979434 L 37.068811,17.246167 C 37.068811,17.246167 37.088388,32 37.088388,32 L 22.160133,31.978069 C 22.160133,31.978069 26.997745,27.140456 26.997745,27.140456 C 18.528582,18.264221 13.291696,25.230495 11.500037,31.436501 z"
     style="fill:#404040;"/>
  </a>
 </g>
</svg>

<style type='text/css'>
<![CDATA[
[data-mouse-over-selected='false'] { opacity: 0.7; }
[data-mouse-over-selected='true']  { opacity: 1.0; }
]]>
</style>
<script type="application/ecmascript"><![CDATA[
document.addEventListener('DOMContentLoaded', (event) => {
  highlightEdges();
  highlightAdjacentNodes();
});
]]></script>
</svg>
