<?xml version="1.0" encoding="UTF-8" standalone="no"?>
<!DOCTYPE svg PUBLIC "-//W3C//DTD SVG 1.1//EN"
 "http://www.w3.org/Graphics/SVG/1.1/DTD/svg11.dtd">
<!-- Generated by graphviz version 13.1.0 (20250701.0955)
 -->
<!-- Title: SDL&#45;main/src/video/uikit/SDL_uikitview.h Pages: 1 -->
<svg width="268pt" height="176pt"
 viewBox="0.00 0.00 268.00 176.00" xmlns="http://www.w3.org/2000/svg" xmlns:xlink="http://www.w3.org/1999/xlink">
<g id="graph0" class="graph" transform="scale(1 1) rotate(0) translate(4 172)">
<title>SDL&#45;main/src/video/uikit/SDL_uikitview.h</title>
<!-- Node1 -->
<g id="Node000001" class="node">
<title>Node1</title>
<g id="a_Node000001"><a xlink:title=" ">
<polygon fill="#999999" stroke="#666666" points="191.5,-168 81,-168 81,-136 191.5,-136 191.5,-168"/>
<text xml:space="preserve" text-anchor="start" x="89" y="-154.5" font-family="Helvetica,sans-Serif" font-size="10.00">SDL&#45;main/src/video</text>
<text xml:space="preserve" text-anchor="middle" x="136.25" y="-142.5" font-family="Helvetica,sans-Serif" font-size="10.00">/uikit/SDL_uikitview.h</text>
</a>
</g>
</g>
<!-- Node2 -->
<g id="Node000002" class="node">
<title>Node2</title>
<g id="a_Node000002"><a xlink:href="../../d5/d6b/SDL__uikitwindow_8h.html" target="_top" xlink:title=" ">
<polygon fill="white" stroke="#666666" points="197.88,-100 74.62,-100 74.62,-68 197.88,-68 197.88,-100"/>
<text xml:space="preserve" text-anchor="start" x="82.62" y="-86.5" font-family="Helvetica,sans-Serif" font-size="10.00">SDL&#45;main/src/video</text>
<text xml:space="preserve" text-anchor="middle" x="136.25" y="-74.5" font-family="Helvetica,sans-Serif" font-size="10.00">/uikit/SDL_uikitwindow.h</text>
</a>
</g>
</g>
<!-- Node1&#45;&gt;Node2 -->
<g id="edge1_Node000001_Node000002" class="edge">
<title>Node1&#45;&gt;Node2</title>
<g id="a_edge1_Node000001_Node000002"><a xlink:title=" ">
<path fill="none" stroke="#63b8ff" d="M136.25,-124.31C136.25,-116.12 136.25,-107.38 136.25,-100.22"/>
<polygon fill="#63b8ff" stroke="#63b8ff" points="132.75,-124.18 136.25,-134.18 139.75,-124.18 132.75,-124.18"/>
</a>
</g>
</g>
<!-- Node3 -->
<g id="Node000003" class="node">
<title>Node3</title>
<g id="a_Node000003"><a xlink:href="../../df/ddd/SDL__uikitmetalview_8h.html" target="_top" xlink:title=" ">
<polygon fill="white" stroke="#666666" points="134.5,-32 0,-32 0,0 134.5,0 134.5,-32"/>
<text xml:space="preserve" text-anchor="start" x="8" y="-18.5" font-family="Helvetica,sans-Serif" font-size="10.00">SDL&#45;main/src/video</text>
<text xml:space="preserve" text-anchor="middle" x="67.25" y="-6.5" font-family="Helvetica,sans-Serif" font-size="10.00">/uikit/SDL_uikitmetalview.h</text>
</a>
</g>
</g>
<!-- Node2&#45;&gt;Node3 -->
<g id="edge2_Node000002_Node000003" class="edge">
<title>Node2&#45;&gt;Node3</title>
<g id="a_edge2_Node000002_Node000003"><a xlink:title=" ">
<path fill="none" stroke="#63b8ff" d="M112.19,-59.99C102.58,-50.79 91.77,-40.46 83.17,-32.22"/>
<polygon fill="#63b8ff" stroke="#63b8ff" points="109.51,-62.26 119.15,-66.65 114.35,-57.2 109.51,-62.26"/>
</a>
</g>
</g>
<!-- Node4 -->
<g id="Node000004" class="node">
<title>Node4</title>
<g id="a_Node000004"><a xlink:href="../../d5/d29/SDL__uikitpen_8h.html" target="_top" xlink:title=" ">
<polygon fill="white" stroke="#666666" points="259.62,-32 152.88,-32 152.88,0 259.62,0 259.62,-32"/>
<text xml:space="preserve" text-anchor="start" x="160.88" y="-18.5" font-family="Helvetica,sans-Serif" font-size="10.00">SDL&#45;main/src/video</text>
<text xml:space="preserve" text-anchor="middle" x="206.25" y="-6.5" font-family="Helvetica,sans-Serif" font-size="10.00">/uikit/SDL_uikitpen.h</text>
</a>
</g>
</g>
<!-- Node2&#45;&gt;Node4 -->
<g id="edge3_Node000002_Node000004" class="edge">
<title>Node2&#45;&gt;Node4</title>
<g id="a_edge3_Node000002_Node000004"><a xlink:title=" ">
<path fill="none" stroke="#63b8ff" d="M160.66,-59.99C170.41,-50.79 181.37,-40.46 190.1,-32.22"/>
<polygon fill="#63b8ff" stroke="#63b8ff" points="158.46,-57.25 153.59,-66.65 163.26,-62.34 158.46,-57.25"/>
</a>
</g>
</g>
</g>
</svg>
