<?xml version="1.0" encoding="UTF-8" standalone="no"?>
<!DOCTYPE svg PUBLIC "-//W3C//DTD SVG 1.1//EN"
 "http://www.w3.org/Graphics/SVG/1.1/DTD/svg11.dtd">
<!-- Generated by graphviz version 13.1.0 (20250701.0955)
 -->
<!-- Title: SDL_SYS_DetachThread Pages: 1 -->
<!--zoomable 265 -->

<svg id="main" version="1.1" xmlns="http://www.w3.org/2000/svg" xmlns:xlink="http://www.w3.org/1999/xlink" xml:space="preserve" onload="init(evt)">

<style type="text/css"><![CDATA[
.node, .edge {opacity: 0.7;}
.node.selected, .edge.selected {opacity: 1;}
.edge:hover path { stroke: red; }
.edge:hover polygon { stroke: red; fill: red; }
]]></style>

<defs>
  <circle id="rim" cx="0" cy="0" r="7"/>
  <circle id="rim2" cx="0" cy="0" r="3.5"/>
  <g id="zoomPlus">
    <use xlink:href="#rim" fill="#404040"><set attributeName="fill" to="#808080" begin="zoomplus.mouseover" end="zoomplus.mouseout"/></use>
    <path d="M-4,0h8M0,-4v8" fill="none" stroke="white" stroke-width="1.5" pointer-events="none"/>
  </g>
  <g id="zoomMin">
    <use xlink:href="#rim" fill="#404040"><set attributeName="fill" to="#808080" begin="zoomminus.mouseover" end="zoomminus.mouseout"/></use>
    <path d="M-4,0h8" fill="none" stroke="white" stroke-width="1.5" pointer-events="none"/>
  </g>
  <g id="arrowUp" transform="translate(30 24)">
    <use xlink:href="#rim"/>
    <path pointer-events="none" fill="none" stroke="white" stroke-width="1.5" d="M0,-3.0v7 M-2.5,-0.5L0,-3.0L2.5,-0.5"/>
  </g>
  <g id="arrowRight" transform="rotate(90) translate(36 -43)">
    <use xlink:href="#rim"/>
    <path pointer-events="none" fill="none" stroke="white" stroke-width="1.5" d="M0,-3.0v7 M-2.5,-0.5L0,-3.0L2.5,-0.5"/>
  </g>
  <g id="arrowDown" transform="rotate(180) translate(-30 -48)">
    <use xlink:href="#rim"/>
    <path pointer-events="none" fill="none" stroke="white" stroke-width="1.5" d="M0,-3.0v7 M-2.5,-0.5L0,-3.0L2.5,-0.5"/>
  </g>
  <g id="arrowLeft" transform="rotate(270) translate(-36 17)">
    <use xlink:href="#rim"/>
    <path pointer-events="none" fill="none" stroke="white" stroke-width="1.5" d="M0,-3.0v7 M-2.5,-0.5L0,-3.0L2.5,-0.5"/>
  </g>
  <g id="resetDef">
    <use xlink:href="#rim2" fill="#404040"><set attributeName="fill" to="#808080" begin="reset.mouseover" end="reset.mouseout"/></use>
  </g>
</defs>
<script type="application/ecmascript">
var viewWidth = 1407;
var viewHeight = 265;
var sectionId = 'dynsection-5';
</script>
<script type="application/ecmascript" xlink:href="../../svg.min.js"/>
<svg id="graph" class="graph">
<g id="viewport">
<title>SDL_SYS_DetachThread</title>
<!-- Node1 -->
<g id="Node000001" class="node">
<title>Node1</title>
<g id="a_Node000001"><a xlink:title=" ">
<polygon fill="#999999" stroke="#666666" points="1398.5,-80 1270.75,-80 1270.75,-60 1398.5,-60 1398.5,-80"/>
<text xml:space="preserve" text-anchor="middle" x="1334.62" y="-66.5" font-family="Helvetica,sans-Serif" font-size="10.00">SDL_SYS_DetachThread</text>
</a>
</g>
</g>
<!-- Node2 -->
<g id="Node000002" class="node">
<title>Node2</title>
<g id="a_Node000002"><a xlink:href="../../de/de3/SDL__thread_8c.html#a32eadae391a5a9c14f68b9a1d24e5f7d" target="_top" xlink:title=" ">
<polygon fill="white" stroke="#666666" points="1234.75,-80 1132.5,-80 1132.5,-60 1234.75,-60 1234.75,-80"/>
<text xml:space="preserve" text-anchor="middle" x="1183.62" y="-66.5" font-family="Helvetica,sans-Serif" font-size="10.00">SDL_DetachThread</text>
</a>
</g>
</g>
<!-- Node1&#45;&gt;Node2 -->
<g id="edge1_Node000001_Node000002" class="edge">
<title>Node1&#45;&gt;Node2</title>
<g id="a_edge1_Node000001_Node000002"><a xlink:title=" ">
<path fill="none" stroke="#63b8ff" d="M1258.92,-70C1250.75,-70 1242.58,-70 1234.81,-70"/>
<polygon fill="#63b8ff" stroke="#63b8ff" points="1258.92,-73.5 1268.92,-70 1258.92,-66.5 1258.92,-73.5"/>
</a>
</g>
</g>
<!-- Node3 -->
<g id="Node000003" class="node">
<title>Node3</title>
<g id="a_Node000003"><a xlink:href="../../d7/dbe/SDL__asyncio__generic_8c.html#a38a5ea4294f012d170d51e6367bafad4" target="_top" xlink:title=" ">
<polygon fill="white" stroke="#666666" points="1096.5,-163 950.75,-163 950.75,-143 1096.5,-143 1096.5,-163"/>
<text xml:space="preserve" text-anchor="middle" x="1023.62" y="-149.5" font-family="Helvetica,sans-Serif" font-size="10.00">MaybeSpinNewWorkerThread</text>
</a>
</g>
</g>
<!-- Node2&#45;&gt;Node3 -->
<g id="edge2_Node000002_Node000003" class="edge">
<title>Node2&#45;&gt;Node3</title>
<g id="a_edge2_Node000002_Node000003"><a xlink:title=" ">
<path fill="none" stroke="#63b8ff" d="M1154.19,-85.84C1137.47,-95.08 1115.87,-106.87 1096.5,-117 1079.56,-125.86 1060.16,-135.55 1045.8,-142.64"/>
<polygon fill="#63b8ff" stroke="#63b8ff" points="1155.53,-89.1 1162.59,-81.19 1152.14,-82.98 1155.53,-89.1"/>
</a>
</g>
</g>
<!-- Node14 -->
<g id="Node000014" class="node">
<title>Node14</title>
<g id="a_Node000014"><a xlink:href="../../d1/dc1/SDL__zenitydialog_8c.html#adec0ab89b8e1608f083d6bde91db76f8" target="_top" xlink:title=" ">
<polygon fill="white" stroke="#666666" points="1094.25,-108 953,-108 953,-76 1094.25,-76 1094.25,-108"/>
<text xml:space="preserve" text-anchor="start" x="961" y="-94.5" font-family="Helvetica,sans-Serif" font-size="10.00">SDL_Zenity_ShowFileDialog</text>
<text xml:space="preserve" text-anchor="middle" x="1023.62" y="-82.5" font-family="Helvetica,sans-Serif" font-size="10.00">WithProperties</text>
</a>
</g>
</g>
<!-- Node2&#45;&gt;Node14 -->
<g id="edge14_Node000002_Node000014" class="edge">
<title>Node2&#45;&gt;Node14</title>
<g id="a_edge14_Node000002_Node000014"><a xlink:title=" ">
<path fill="none" stroke="#63b8ff" d="M1121.06,-78.57C1112.43,-79.77 1103.51,-81.02 1094.73,-82.24"/>
<polygon fill="#63b8ff" stroke="#63b8ff" points="1121.28,-82.08 1130.7,-77.23 1120.31,-75.14 1121.28,-82.08"/>
</a>
</g>
</g>
<!-- Node19 -->
<g id="Node000019" class="node">
<title>Node19</title>
<g id="a_Node000019"><a xlink:href="../../d5/d4b/SDL__windowsdialog_8c.html#a13e98493c52e0f892bfd26a7cf43c36f" target="_top" xlink:title=" ">
<polygon fill="white" stroke="#666666" points="1065.75,-58 981.5,-58 981.5,-38 1065.75,-38 1065.75,-58"/>
<text xml:space="preserve" text-anchor="middle" x="1023.62" y="-44.5" font-family="Helvetica,sans-Serif" font-size="10.00">ShowFileDialog</text>
</a>
</g>
</g>
<!-- Node2&#45;&gt;Node19 -->
<g id="edge20_Node000002_Node000019" class="edge">
<title>Node2&#45;&gt;Node19</title>
<g id="a_edge20_Node000002_Node000019"><a xlink:title=" ">
<path fill="none" stroke="#63b8ff" d="M1120.96,-61.41C1102.58,-58.85 1082.88,-56.11 1066.12,-53.78"/>
<polygon fill="#63b8ff" stroke="#63b8ff" points="1120.31,-64.86 1130.7,-62.77 1121.28,-57.92 1120.31,-64.86"/>
</a>
</g>
</g>
<!-- Node21 -->
<g id="Node000021" class="node">
<title>Node21</title>
<g id="a_Node000021"><a xlink:href="../../d5/d4b/SDL__windowsdialog_8c.html#a0dfdeedb270f728728c4c0452ce8fe8a" target="_top" xlink:title=" ">
<polygon fill="white" stroke="#666666" points="1071.38,-20 975.88,-20 975.88,0 1071.38,0 1071.38,-20"/>
<text xml:space="preserve" text-anchor="middle" x="1023.62" y="-6.5" font-family="Helvetica,sans-Serif" font-size="10.00">ShowFolderDialog</text>
</a>
</g>
</g>
<!-- Node2&#45;&gt;Node21 -->
<g id="edge22_Node000002_Node000021" class="edge">
<title>Node2&#45;&gt;Node21</title>
<g id="a_edge22_Node000002_Node000021"><a xlink:title=" ">
<path fill="none" stroke="#63b8ff" d="M1153.52,-54.48C1137.1,-46.15 1116.01,-36.15 1096.5,-29 1087.9,-25.85 1078.54,-22.98 1069.5,-20.48"/>
<polygon fill="#63b8ff" stroke="#63b8ff" points="1151.73,-57.5 1162.23,-58.97 1154.94,-51.28 1151.73,-57.5"/>
</a>
</g>
</g>
<!-- Node4 -->
<g id="Node000004" class="node">
<title>Node4</title>
<g id="a_Node000004"><a xlink:href="../../d7/dbe/SDL__asyncio__generic_8c.html#a7fa9c36c1ac7b44e3558ff6f1a2baefe" target="_top" xlink:title=" ">
<polygon fill="white" stroke="#666666" points="886.25,-207 788.5,-207 788.5,-187 886.25,-187 886.25,-207"/>
<text xml:space="preserve" text-anchor="middle" x="837.38" y="-193.5" font-family="Helvetica,sans-Serif" font-size="10.00">PrepareThreadpool</text>
</a>
</g>
</g>
<!-- Node3&#45;&gt;Node4 -->
<g id="edge3_Node000003_Node000004" class="edge">
<title>Node3&#45;&gt;Node4</title>
<g id="a_edge3_Node000003_Node000004"><a xlink:title=" ">
<path fill="none" stroke="#63b8ff" d="M967.96,-166.05C940.53,-172.6 907.77,-180.43 882.05,-186.57"/>
<polygon fill="#63b8ff" stroke="#63b8ff" points="968.57,-169.51 977.49,-163.78 966.95,-162.7 968.57,-169.51"/>
</a>
</g>
</g>
<!-- Node12 -->
<g id="Node000012" class="node">
<title>Node12</title>
<g id="a_Node000012"><a xlink:href="../../d7/dbe/SDL__asyncio__generic_8c.html#a0a52fa374004b99b6446cd80a843b899" target="_top" xlink:title=" ">
<polygon fill="white" stroke="#666666" points="889.25,-163 785.5,-163 785.5,-143 889.25,-143 889.25,-163"/>
<text xml:space="preserve" text-anchor="middle" x="837.38" y="-149.5" font-family="Helvetica,sans-Serif" font-size="10.00">QueueAsyncIOTask</text>
</a>
</g>
</g>
<!-- Node3&#45;&gt;Node12 -->
<g id="edge11_Node000003_Node000012" class="edge">
<title>Node3&#45;&gt;Node12</title>
<g id="a_edge11_Node000003_Node000012"><a xlink:title=" ">
<path fill="none" stroke="#63b8ff" d="M938.82,-153C922.07,-153 904.94,-153 889.69,-153"/>
<polygon fill="#63b8ff" stroke="#63b8ff" points="938.82,-156.5 948.82,-153 938.82,-149.5 938.82,-156.5"/>
</a>
</g>
</g>
<!-- Node5 -->
<g id="Node000005" class="node">
<title>Node5</title>
<g id="a_Node000005"><a xlink:href="../../d7/dbe/SDL__asyncio__generic_8c.html#a41faeffd8a29f7267b598152744241c0" target="_top" xlink:title=" ">
<polygon fill="white" stroke="#666666" points="718,-257 575.25,-257 575.25,-225 718,-225 718,-257"/>
<text xml:space="preserve" text-anchor="start" x="583.25" y="-243.5" font-family="Helvetica,sans-Serif" font-size="10.00">SDL_SYS_AsyncIOFromFile</text>
<text xml:space="preserve" text-anchor="middle" x="646.62" y="-231.5" font-family="Helvetica,sans-Serif" font-size="10.00">_Generic</text>
</a>
</g>
</g>
<!-- Node4&#45;&gt;Node5 -->
<g id="edge4_Node000004_Node000005" class="edge">
<title>Node4&#45;&gt;Node5</title>
<g id="a_edge4_Node000004_Node000005"><a xlink:title=" ">
<path fill="none" stroke="#63b8ff" d="M780.49,-210.03C760.97,-214.58 738.79,-219.75 718.23,-224.54"/>
<polygon fill="#63b8ff" stroke="#63b8ff" points="781.23,-213.45 790.17,-207.77 779.64,-206.63 781.23,-213.45"/>
</a>
</g>
</g>
<!-- Node9 -->
<g id="Node000009" class="node">
<title>Node9</title>
<g id="a_Node000009"><a xlink:href="../../d7/dbe/SDL__asyncio__generic_8c.html#a79b7dd64efd3a70bd351a6d3a28968d2" target="_top" xlink:title=" ">
<polygon fill="white" stroke="#666666" points="533.25,-191 371,-191 371,-159 533.25,-159 533.25,-191"/>
<text xml:space="preserve" text-anchor="start" x="379" y="-177.5" font-family="Helvetica,sans-Serif" font-size="10.00">SDL_SYS_CreateAsyncIOQueue</text>
<text xml:space="preserve" text-anchor="middle" x="452.12" y="-165.5" font-family="Helvetica,sans-Serif" font-size="10.00">_Generic</text>
</a>
</g>
</g>
<!-- Node4&#45;&gt;Node9 -->
<g id="edge8_Node000004_Node000009" class="edge">
<title>Node4&#45;&gt;Node9</title>
<g id="a_edge8_Node000004_Node000009"><a xlink:title=" ">
<path fill="none" stroke="#63b8ff" d="M776.9,-193.59C711.52,-189.83 606.15,-183.78 533.46,-179.61"/>
<polygon fill="#63b8ff" stroke="#63b8ff" points="776.53,-197.07 786.71,-194.15 776.93,-190.08 776.53,-197.07"/>
</a>
</g>
</g>
<!-- Node6 -->
<g id="Node000006" class="node">
<title>Node6</title>
<g id="a_Node000006"><a xlink:href="../../d7/dbe/SDL__asyncio__generic_8c.html#ac8fbedefc1ac37b54a5eca1bb4b27440" target="_top" xlink:title=" ">
<polygon fill="white" stroke="#666666" points="523.5,-251 380.75,-251 380.75,-231 523.5,-231 523.5,-251"/>
<text xml:space="preserve" text-anchor="middle" x="452.12" y="-237.5" font-family="Helvetica,sans-Serif" font-size="10.00">SDL_SYS_AsyncIOFromFile</text>
</a>
</g>
</g>
<!-- Node5&#45;&gt;Node6 -->
<g id="edge5_Node000005_Node000006" class="edge">
<title>Node5&#45;&gt;Node6</title>
<g id="a_edge5_Node000005_Node000006"><a xlink:title=" ">
<path fill="none" stroke="#63b8ff" d="M563.33,-241C550.18,-241 536.68,-241 523.83,-241"/>
<polygon fill="#63b8ff" stroke="#63b8ff" points="563.25,-244.5 573.25,-241 563.25,-237.5 563.25,-244.5"/>
</a>
</g>
</g>
<!-- Node7 -->
<g id="Node000007" class="node">
<title>Node7</title>
<g id="a_Node000007"><a xlink:href="../../d7/d30/SDL__asyncio_8c.html#a6e41d5e1d667caa69f53c74f2c69b777" target="_top" xlink:title=" ">
<polygon fill="white" stroke="#666666" points="312.5,-251 195.25,-251 195.25,-231 312.5,-231 312.5,-251"/>
<text xml:space="preserve" text-anchor="middle" x="253.88" y="-237.5" font-family="Helvetica,sans-Serif" font-size="10.00">SDL_AsyncIOFromFile</text>
</a>
</g>
</g>
<!-- Node6&#45;&gt;Node7 -->
<g id="edge6_Node000006_Node000007" class="edge">
<title>Node6&#45;&gt;Node7</title>
<g id="a_edge6_Node000006_Node000007"><a xlink:title=" ">
<path fill="none" stroke="#63b8ff" d="M368.95,-241C350.05,-241 330.34,-241 312.73,-241"/>
<polygon fill="#63b8ff" stroke="#63b8ff" points="368.76,-244.5 378.76,-241 368.76,-237.5 368.76,-244.5"/>
</a>
</g>
</g>
<!-- Node8 -->
<g id="Node000008" class="node">
<title>Node8</title>
<g id="a_Node000008"><a xlink:href="../../d7/d30/SDL__asyncio_8c.html#a50a8195e1a954b27f3bacbe37e66f8e3" target="_top" xlink:title=" ">
<polygon fill="white" stroke="#666666" points="121,-251 15.75,-251 15.75,-231 121,-231 121,-251"/>
<text xml:space="preserve" text-anchor="middle" x="68.38" y="-237.5" font-family="Helvetica,sans-Serif" font-size="10.00">SDL_LoadFileAsync</text>
</a>
</g>
</g>
<!-- Node7&#45;&gt;Node8 -->
<g id="edge7_Node000007_Node000008" class="edge">
<title>Node7&#45;&gt;Node8</title>
<g id="a_edge7_Node000007_Node000008"><a xlink:title=" ">
<path fill="none" stroke="#63b8ff" d="M183.57,-241C162.97,-241 140.77,-241 121.47,-241"/>
<polygon fill="#63b8ff" stroke="#63b8ff" points="183.3,-244.5 193.3,-241 183.3,-237.5 183.3,-244.5"/>
</a>
</g>
</g>
<!-- Node10 -->
<g id="Node000010" class="node">
<title>Node10</title>
<g id="a_Node000010"><a xlink:href="../../d7/dbe/SDL__asyncio__generic_8c.html#a3a4e61992b30e8853f3125c5100c7ec1" target="_top" xlink:title=" ">
<polygon fill="white" stroke="#666666" points="335,-185 172.75,-185 172.75,-165 335,-165 335,-185"/>
<text xml:space="preserve" text-anchor="middle" x="253.88" y="-171.5" font-family="Helvetica,sans-Serif" font-size="10.00">SDL_SYS_CreateAsyncIOQueue</text>
</a>
</g>
</g>
<!-- Node9&#45;&gt;Node10 -->
<g id="edge9_Node000009_Node000010" class="edge">
<title>Node9&#45;&gt;Node10</title>
<g id="a_edge9_Node000009_Node000010"><a xlink:title=" ">
<path fill="none" stroke="#63b8ff" d="M359.46,-175C351.45,-175 343.37,-175 335.46,-175"/>
<polygon fill="#63b8ff" stroke="#63b8ff" points="359.22,-178.5 369.22,-175 359.22,-171.5 359.22,-178.5"/>
</a>
</g>
</g>
<!-- Node11 -->
<g id="Node000011" class="node">
<title>Node11</title>
<g id="a_Node000011"><a xlink:href="../../d7/d30/SDL__asyncio_8c.html#aa5f7fcba04fea67973b183ac2e3b38a4" target="_top" xlink:title=" ">
<polygon fill="white" stroke="#666666" points="136.75,-185 0,-185 0,-165 136.75,-165 136.75,-185"/>
<text xml:space="preserve" text-anchor="middle" x="68.38" y="-171.5" font-family="Helvetica,sans-Serif" font-size="10.00">SDL_CreateAsyncIOQueue</text>
</a>
</g>
</g>
<!-- Node10&#45;&gt;Node11 -->
<g id="edge10_Node000010_Node000011" class="edge">
<title>Node10&#45;&gt;Node11</title>
<g id="a_edge10_Node000010_Node000011"><a xlink:title=" ">
<path fill="none" stroke="#63b8ff" d="M161.05,-175C153.01,-175 144.97,-175 137.18,-175"/>
<polygon fill="#63b8ff" stroke="#63b8ff" points="160.88,-178.5 170.88,-175 160.88,-171.5 160.88,-178.5"/>
</a>
</g>
</g>
<!-- Node13 -->
<g id="Node000013" class="node">
<title>Node13</title>
<g id="a_Node000013"><a xlink:href="../../d7/dbe/SDL__asyncio__generic_8c.html#a15c4ac3f25da65fc137ad742b8f3eaab" target="_top" xlink:title=" ">
<polygon fill="white" stroke="#666666" points="703,-169 590.25,-169 590.25,-137 703,-137 703,-169"/>
<text xml:space="preserve" text-anchor="start" x="598.25" y="-155.5" font-family="Helvetica,sans-Serif" font-size="10.00">generic_asyncioqueue</text>
<text xml:space="preserve" text-anchor="middle" x="646.62" y="-143.5" font-family="Helvetica,sans-Serif" font-size="10.00">_queue_task</text>
</a>
</g>
</g>
<!-- Node12&#45;&gt;Node13 -->
<g id="edge12_Node000012_Node000013" class="edge">
<title>Node12&#45;&gt;Node13</title>
<g id="a_edge12_Node000012_Node000013"><a xlink:title=" ">
<path fill="none" stroke="#63b8ff" d="M774.01,-153C751.21,-153 725.58,-153 703.39,-153"/>
<polygon fill="#63b8ff" stroke="#63b8ff" points="773.78,-156.5 783.78,-153 773.78,-149.5 773.78,-156.5"/>
</a>
</g>
</g>
<!-- Node13&#45;&gt;Node9 -->
<g id="edge13_Node000013_Node000009" class="edge">
<title>Node13&#45;&gt;Node9</title>
<g id="a_edge13_Node000013_Node000009"><a xlink:title=" ">
<path fill="none" stroke="#63b8ff" d="M578.58,-160.66C564.11,-162.32 548.67,-164.08 533.74,-165.79"/>
<polygon fill="#63b8ff" stroke="#63b8ff" points="578.9,-164.15 588.44,-159.54 578.11,-157.19 578.9,-164.15"/>
</a>
</g>
</g>
<!-- Node15 -->
<g id="Node000015" class="node">
<title>Node15</title>
<g id="a_Node000015"><a xlink:href="../../d4/d8b/SDL__unixdialog_8c.html#ab2f9e0de0e94da023d667425d1320a1d" target="_top" xlink:title=" ">
<polygon fill="white" stroke="#666666" points="902,-92 772.75,-92 772.75,-72 902,-72 902,-92"/>
<text xml:space="preserve" text-anchor="middle" x="837.38" y="-78.5" font-family="Helvetica,sans-Serif" font-size="10.00">detect_available_methods</text>
</a>
</g>
</g>
<!-- Node14&#45;&gt;Node15 -->
<g id="edge15_Node000014_Node000015" class="edge">
<title>Node14&#45;&gt;Node15</title>
<g id="a_edge15_Node000014_Node000015"><a xlink:title=" ">
<path fill="none" stroke="#63b8ff" d="M941.37,-87.59C928.35,-86.88 915.04,-86.16 902.49,-85.48"/>
<polygon fill="#63b8ff" stroke="#63b8ff" points="941.02,-91.08 951.19,-88.12 941.4,-84.09 941.02,-91.08"/>
</a>
</g>
</g>
<!-- Node16 -->
<g id="Node000016" class="node">
<title>Node16</title>
<g id="a_Node000016"><a xlink:href="../../d4/d8b/SDL__unixdialog_8c.html#a925198d8e6633242b15a3b0e250a60c8" target="_top" xlink:title=" ">
<polygon fill="white" stroke="#666666" points="683.12,-119 610.12,-119 610.12,-99 683.12,-99 683.12,-119"/>
<text xml:space="preserve" text-anchor="middle" x="646.62" y="-105.5" font-family="Helvetica,sans-Serif" font-size="10.00">hint_callback</text>
</a>
</g>
</g>
<!-- Node15&#45;&gt;Node16 -->
<g id="edge16_Node000015_Node000016" class="edge">
<title>Node15&#45;&gt;Node16</title>
<g id="a_edge16_Node000015_Node000016"><a xlink:title=" ">
<path fill="none" stroke="#63b8ff" d="M761.14,-92.76C734.32,-96.6 705.35,-100.74 683.39,-103.88"/>
<polygon fill="#63b8ff" stroke="#63b8ff" points="761.57,-96.24 770.97,-91.36 760.58,-89.31 761.57,-96.24"/>
</a>
</g>
</g>
<!-- Node18 -->
<g id="Node000018" class="node">
<title>Node18</title>
<g id="a_Node000018"><a xlink:href="../../d4/d8b/SDL__unixdialog_8c.html#ac5e36f40c4a1019ab9545659a3637e8d" target="_top" xlink:title=" ">
<polygon fill="white" stroke="#666666" points="724,-81 569.25,-81 569.25,-49 724,-49 724,-81"/>
<text xml:space="preserve" text-anchor="start" x="577.25" y="-67.5" font-family="Helvetica,sans-Serif" font-size="10.00">SDL_SYS_ShowFileDialogWith</text>
<text xml:space="preserve" text-anchor="middle" x="646.62" y="-55.5" font-family="Helvetica,sans-Serif" font-size="10.00">Properties</text>
</a>
</g>
</g>
<!-- Node15&#45;&gt;Node18 -->
<g id="edge19_Node000015_Node000018" class="edge">
<title>Node15&#45;&gt;Node18</title>
<g id="a_edge19_Node000015_Node000018"><a xlink:title=" ">
<path fill="none" stroke="#63b8ff" d="M761.02,-75.21C748.9,-74.12 736.35,-72.99 724.2,-71.9"/>
<polygon fill="#63b8ff" stroke="#63b8ff" points="760.69,-78.7 770.97,-76.11 761.32,-71.73 760.69,-78.7"/>
</a>
</g>
</g>
<!-- Node17 -->
<g id="Node000017" class="node">
<title>Node17</title>
<g id="a_Node000017"><a xlink:href="../../d4/d8b/SDL__unixdialog_8c.html#a01eadec5086a813f0c8c2bc6baa38150" target="_top" xlink:title=" ">
<polygon fill="white" stroke="#666666" points="487.5,-75 416.75,-75 416.75,-55 487.5,-55 487.5,-75"/>
<text xml:space="preserve" text-anchor="middle" x="452.12" y="-61.5" font-family="Helvetica,sans-Serif" font-size="10.00">set_callback</text>
</a>
</g>
</g>
<!-- Node16&#45;&gt;Node17 -->
<g id="edge17_Node000016_Node000017" class="edge">
<title>Node16&#45;&gt;Node17</title>
<g id="a_edge17_Node000016_Node000017"><a xlink:title=" ">
<path fill="none" stroke="#63b8ff" d="M598.72,-98.28C564.44,-90.44 518.71,-79.99 487.72,-72.91"/>
<polygon fill="#63b8ff" stroke="#63b8ff" points="597.86,-101.67 608.39,-100.49 599.42,-94.85 597.86,-101.67"/>
</a>
</g>
</g>
<!-- Node17&#45;&gt;Node15 -->
<g id="edge18_Node000017_Node000015" class="edge">
<title>Node17&#45;&gt;Node15</title>
<g id="a_edge18_Node000017_Node000015"><a xlink:title=" ">
<path fill="none" stroke="#63b8ff" d="M498.86,-52.81C520.09,-47.76 545.78,-42.5 569.25,-40 637.64,-32.72 656.4,-27.32 724,-40 740.87,-43.17 743.94,-47.93 760,-54 775.72,-59.94 793.33,-66.41 807.67,-71.63"/>
<polygon fill="#63b8ff" stroke="#63b8ff" points="498.23,-49.36 489.35,-55.14 499.89,-56.16 498.23,-49.36"/>
</a>
</g>
</g>
<!-- Node20 -->
<g id="Node000020" class="node">
<title>Node20</title>
<g id="a_Node000020"><a xlink:href="../../d5/d4b/SDL__windowsdialog_8c.html#ac5e36f40c4a1019ab9545659a3637e8d" target="_top" xlink:title=" ">
<polygon fill="white" stroke="#666666" points="914.75,-45 760,-45 760,-13 914.75,-13 914.75,-45"/>
<text xml:space="preserve" text-anchor="start" x="768" y="-31.5" font-family="Helvetica,sans-Serif" font-size="10.00">SDL_SYS_ShowFileDialogWith</text>
<text xml:space="preserve" text-anchor="middle" x="837.38" y="-19.5" font-family="Helvetica,sans-Serif" font-size="10.00">Properties</text>
</a>
</g>
</g>
<!-- Node19&#45;&gt;Node20 -->
<g id="edge21_Node000019_Node000020" class="edge">
<title>Node19&#45;&gt;Node20</title>
<g id="a_edge21_Node000019_Node000020"><a xlink:title=" ">
<path fill="none" stroke="#63b8ff" d="M969.87,-42.56C952.82,-40.8 933.56,-38.82 915.14,-36.92"/>
<polygon fill="#63b8ff" stroke="#63b8ff" points="969.46,-46.04 979.77,-43.58 970.18,-39.07 969.46,-46.04"/>
</a>
</g>
</g>
<!-- Node21&#45;&gt;Node20 -->
<g id="edge23_Node000021_Node000020" class="edge">
<title>Node21&#45;&gt;Node20</title>
<g id="a_edge23_Node000021_Node000020"><a xlink:title=" ">
<path fill="none" stroke="#63b8ff" d="M964.51,-15.99C948.79,-17.61 931.53,-19.39 914.97,-21.1"/>
<polygon fill="#63b8ff" stroke="#63b8ff" points="964.56,-19.51 974.15,-15 963.84,-12.54 964.56,-19.51"/>
</a>
</g>
</g>
</g>
</svg>

<g id="navigator" transform="translate(0 0)" fill="#404254">
  <rect fill="#f2f5e9" fill-opacity="0.5" stroke="#606060" stroke-width=".5" x="0" y="0" width="60" height="60"/>
  <use id="zoomplus" xlink:href="#zoomPlus" x="17" y="9" onmousedown="handleZoom(evt,'in')"/>
  <use id="zoomminus" xlink:href="#zoomMin" x="42" y="9" onmousedown="handleZoom(evt,'out')"/>
  <use id="reset" xlink:href="#resetDef" x="30" y="36" onmousedown="handleReset()"/>
   <use id="arrowup" xlink:href="#arrowUp" x="0" y="0" onmousedown="handlePan(0,-1)"/>
  <use id="arrowright" xlink:href="#arrowRight" x="0" y="0" onmousedown="handlePan(1,0)"/>
  <use id="arrowdown" xlink:href="#arrowDown" x="0" y="0" onmousedown="handlePan(0,1)"/>
  <use id="arrowleft" xlink:href="#arrowLeft" x="0" y="0" onmousedown="handlePan(-1,0)"/>
</g>
<svg viewBox="0 0 15 15" width="100%" height="30px" preserveAspectRatio="xMaxYMin meet">
 <g id="arrow_out" transform="scale(0.3 0.3)">
  <a xlink:href="SDL__systhread_8h_aadff9ce7fceab0c574bcdccd5dde888d_icgraph_org.svg" target="_base">
   <rect id="button" ry="5" rx="5" y="6" x="6" height="38" width="38"
        fill="#f2f5e9" fill-opacity="0.5" stroke="#606060" stroke-width="1.0"/>
   <path id="arrow"
     d="M 11.500037,31.436501 C 11.940474,20.09759 22.043105,11.32322 32.158766,21.979434 L 37.068811,17.246167 C 37.068811,17.246167 37.088388,32 37.088388,32 L 22.160133,31.978069 C 22.160133,31.978069 26.997745,27.140456 26.997745,27.140456 C 18.528582,18.264221 13.291696,25.230495 11.500037,31.436501 z"
     style="fill:#404040;"/>
  </a>
 </g>
</svg>

<style type='text/css'>
<![CDATA[
[data-mouse-over-selected='false'] { opacity: 0.7; }
[data-mouse-over-selected='true']  { opacity: 1.0; }
]]>
</style>
<script type="application/ecmascript"><![CDATA[
document.addEventListener('DOMContentLoaded', (event) => {
  highlightEdges();
  highlightAdjacentNodes();
});
]]></script>
</svg>
