<?xml version="1.0" encoding="UTF-8" standalone="no"?>
<!DOCTYPE svg PUBLIC "-//W3C//DTD SVG 1.1//EN"
 "http://www.w3.org/Graphics/SVG/1.1/DTD/svg11.dtd">
<!-- Generated by graphviz version 13.1.0 (20250701.0955)
 -->
<!-- Title: GenericAsyncIOData Pages: 1 -->
<svg width="374pt" height="176pt"
 viewBox="0.00 0.00 374.00 176.00" xmlns="http://www.w3.org/2000/svg" xmlns:xlink="http://www.w3.org/1999/xlink">

<svg id="main" version="1.1" xmlns="http://www.w3.org/2000/svg" xmlns:xlink="http://www.w3.org/1999/xlink" xml:space="preserve">

<style type="text/css"><![CDATA[
.node, .edge {opacity: 0.7;}
.node.selected, .edge.selected {opacity: 1;}
.edge:hover path { stroke: red; }
.edge:hover polygon { stroke: red; fill: red; }
]]></style>
<script type="application/ecmascript" xlink:href="../../svg.min.js"/>
<svg id="graph" class="graph">
<g id="graph0" class="graph" transform="scale(1 1) rotate(0) translate(4 172)">
<title>GenericAsyncIOData</title>
<!-- Node1 -->
<g id="Node000001" class="node">
<title>Node1</title>
<g id="a_Node000001"><a xlink:title=" ">
<polygon fill="#999999" stroke="#666666" points="335.5,-20 226.5,-20 226.5,0 335.5,0 335.5,-20"/>
<text xml:space="preserve" text-anchor="middle" x="281" y="-6.5" font-family="Helvetica,sans-Serif" font-size="10.00">GenericAsyncIOData</text>
</a>
</g>
</g>
<!-- Node2 -->
<g id="Node000002" class="node">
<title>Node2</title>
<g id="a_Node000002"><a xlink:href="../../d0/df2/structSDL__Mutex.html" target="_top" xlink:title=" ">
<polygon fill="white" stroke="#666666" points="215.88,-94 148.12,-94 148.12,-74 215.88,-74 215.88,-94"/>
<text xml:space="preserve" text-anchor="middle" x="182" y="-80.5" font-family="Helvetica,sans-Serif" font-size="10.00">SDL_Mutex</text>
</a>
</g>
</g>
<!-- Node2&#45;&gt;Node1 -->
<g id="edge1_Node000001_Node000002" class="edge">
<title>Node2&#45;&gt;Node1</title>
<g id="a_edge1_Node000001_Node000002"><a xlink:title=" ">
<path fill="none" stroke="#9a32cd" stroke-dasharray="5,2" d="M209.07,-68.16C215.41,-64.4 222.05,-60.22 228,-56 243.94,-44.68 260.93,-29.67 271.26,-20.17"/>
<polygon fill="#9a32cd" stroke="#9a32cd" points="207.71,-64.9 200.79,-72.93 211.21,-70.97 207.71,-64.9"/>
</a>
</g>
<text xml:space="preserve" text-anchor="start" x="253.56" y="-43.5" font-family="Helvetica,sans-Serif" font-size="10.00" fill="grey">lock</text>
</g>
<!-- Node3 -->
<g id="Node000003" class="node">
<title>Node3</title>
<g id="a_Node000003"><a xlink:href="../../d8/d0b/structSDL__Semaphore.html" target="_top" xlink:title=" ">
<polygon fill="white" stroke="#666666" points="179.12,-20 88.88,-20 88.88,0 179.12,0 179.12,-20"/>
<text xml:space="preserve" text-anchor="middle" x="134" y="-6.5" font-family="Helvetica,sans-Serif" font-size="10.00">SDL_Semaphore</text>
</a>
</g>
</g>
<!-- Node2&#45;&gt;Node3 -->
<g id="edge3_Node000003_Node000002" class="edge">
<title>Node2&#45;&gt;Node3</title>
<g id="a_edge3_Node000003_Node000002"><a xlink:title=" ">
<path fill="none" stroke="#9a32cd" stroke-dasharray="5,2" d="M173.92,-63.15C170.21,-55.03 165.42,-45.75 160,-38 155.52,-31.6 149.53,-25.27 144.43,-20.35"/>
<polygon fill="#9a32cd" stroke="#9a32cd" points="170.64,-64.38 177.81,-72.18 177.07,-61.61 170.64,-64.38"/>
</a>
</g>
<text xml:space="preserve" text-anchor="start" x="173.38" y="-43.5" font-family="Helvetica,sans-Serif" font-size="10.00" fill="grey">count_lock</text>
</g>
<!-- Node3&#45;&gt;Node2 -->
<g id="edge2_Node000002_Node000003" class="edge">
<title>Node3&#45;&gt;Node2</title>
<g id="a_edge2_Node000002_Node000003"><a xlink:title=" ">
<path fill="none" stroke="#9a32cd" stroke-dasharray="5,2" d="M130.43,-31.56C130.04,-39.68 130.95,-48.78 135.25,-56 139.86,-63.73 147.58,-69.46 155.44,-73.6"/>
<polygon fill="#9a32cd" stroke="#9a32cd" points="133.88,-32.19 131.58,-21.85 126.93,-31.37 133.88,-32.19"/>
</a>
</g>
<text xml:space="preserve" text-anchor="start" x="138.25" y="-43.5" font-family="Helvetica,sans-Serif" font-size="10.00" fill="grey">sem</text>
</g>
<!-- Node4 -->
<g id="Node000004" class="node">
<title>Node4</title>
<g id="a_Node000004"><a xlink:href="../../d0/d07/structSDL__Condition.html" target="_top" xlink:title=" ">
<polygon fill="white" stroke="#666666" points="82,-94 0,-94 0,-74 82,-74 82,-94"/>
<text xml:space="preserve" text-anchor="middle" x="41" y="-80.5" font-family="Helvetica,sans-Serif" font-size="10.00">SDL_Condition</text>
</a>
</g>
</g>
<!-- Node4&#45;&gt;Node3 -->
<g id="edge4_Node000003_Node000004" class="edge">
<title>Node4&#45;&gt;Node3</title>
<g id="a_edge4_Node000003_Node000004"><a xlink:title=" ">
<path fill="none" stroke="#9a32cd" stroke-dasharray="5,2" d="M43.82,-62.72C45.95,-54.13 49.69,-44.61 56.25,-38 65.01,-29.18 76.79,-23.23 88.54,-19.23"/>
<polygon fill="#9a32cd" stroke="#9a32cd" points="40.42,-61.87 42.03,-72.34 47.3,-63.15 40.42,-61.87"/>
</a>
</g>
<text xml:space="preserve" text-anchor="start" x="59.25" y="-43.5" font-family="Helvetica,sans-Serif" font-size="10.00" fill="grey">count_nonzero</text>
</g>
<!-- Node5 -->
<g id="Node000005" class="node">
<title>Node5</title>
<g id="a_Node000005"><a xlink:href="../../d4/d99/structSDL__IOStream.html" target="_top" xlink:title=" ">
<polygon fill="white" stroke="#666666" points="346.38,-94 263.62,-94 263.62,-74 346.38,-74 346.38,-94"/>
<text xml:space="preserve" text-anchor="middle" x="305" y="-80.5" font-family="Helvetica,sans-Serif" font-size="10.00">SDL_IOStream</text>
</a>
</g>
</g>
<!-- Node5&#45;&gt;Node1 -->
<g id="edge5_Node000001_Node000005" class="edge">
<title>Node5&#45;&gt;Node1</title>
<g id="a_edge5_Node000001_Node000005"><a xlink:title=" ">
<path fill="none" stroke="#9a32cd" stroke-dasharray="5,2" d="M298.34,-63.02C293.67,-49.01 287.64,-30.93 284.06,-20.19"/>
<polygon fill="#9a32cd" stroke="#9a32cd" points="294.9,-63.77 301.38,-72.15 301.54,-61.56 294.9,-63.77"/>
</a>
</g>
<text xml:space="preserve" text-anchor="start" x="298.86" y="-43.5" font-family="Helvetica,sans-Serif" font-size="10.00" fill="grey">io</text>
</g>
<!-- Node6 -->
<g id="Node000006" class="node">
<title>Node6</title>
<g id="a_Node000006"><a xlink:href="../../d9/ddf/structSDL__IOStreamInterface.html" target="_top" xlink:title=" ">
<polygon fill="white" stroke="#666666" points="365.5,-168 244.5,-168 244.5,-148 365.5,-148 365.5,-168"/>
<text xml:space="preserve" text-anchor="middle" x="305" y="-154.5" font-family="Helvetica,sans-Serif" font-size="10.00">SDL_IOStreamInterface</text>
</a>
</g>
</g>
<!-- Node6&#45;&gt;Node5 -->
<g id="edge6_Node000005_Node000006" class="edge">
<title>Node6&#45;&gt;Node5</title>
<g id="a_edge6_Node000005_Node000006"><a xlink:title=" ">
<path fill="none" stroke="#9a32cd" stroke-dasharray="5,2" d="M305,-136.18C305,-122.29 305,-104.71 305,-94.19"/>
<polygon fill="#9a32cd" stroke="#9a32cd" points="301.5,-136.07 305,-146.07 308.5,-136.07 301.5,-136.07"/>
</a>
</g>
<text xml:space="preserve" text-anchor="start" x="308" y="-117.5" font-family="Helvetica,sans-Serif" font-size="10.00" fill="grey">iface</text>
</g>
</g>
</svg>
</svg>

<style type='text/css'>
<![CDATA[
[data-mouse-over-selected='false'] { opacity: 0.7; }
[data-mouse-over-selected='true']  { opacity: 1.0; }
]]>
</style>
<script type="application/ecmascript"><![CDATA[
document.addEventListener('DOMContentLoaded', (event) => {
  highlightEdges();
  highlightAdjacentNodes();
});
]]></script>
</svg>
