<?xml version="1.0" encoding="UTF-8" standalone="no"?>
<!DOCTYPE svg PUBLIC "-//W3C//DTD SVG 1.1//EN"
 "http://www.w3.org/Graphics/SVG/1.1/DTD/svg11.dtd">
<!-- Generated by graphviz version 13.1.0 (20250701.0955)
 -->
<!-- Title: SDL&#45;main/include/SDL3/SDL_keycode.h Pages: 1 -->
<svg width="715pt" height="208pt"
 viewBox="0.00 0.00 715.00 208.00" xmlns="http://www.w3.org/2000/svg" xmlns:xlink="http://www.w3.org/1999/xlink">
<g id="graph0" class="graph" transform="scale(1 1) rotate(0) translate(4 204)">
<title>SDL&#45;main/include/SDL3/SDL_keycode.h</title>
<!-- Node1 -->
<g id="Node000001" class="node">
<title>Node1</title>
<g id="a_Node000001"><a xlink:title=" ">
<polygon fill="#999999" stroke="#666666" points="386.88,-200 265.88,-200 265.88,-168 386.88,-168 386.88,-200"/>
<text xml:space="preserve" text-anchor="start" x="273.88" y="-186.5" font-family="Helvetica,sans-Serif" font-size="10.00">SDL&#45;main/include/SDL3</text>
<text xml:space="preserve" text-anchor="middle" x="326.38" y="-174.5" font-family="Helvetica,sans-Serif" font-size="10.00">/SDL_keycode.h</text>
</a>
</g>
</g>
<!-- Node2 -->
<g id="Node000002" class="node">
<title>Node2</title>
<g id="a_Node000002"><a xlink:href="../../d2/d5b/SDL__stdinc_8h.html" target="_top" xlink:title=" ">
<polygon fill="white" stroke="#666666" points="377.88,-76 274.88,-76 274.88,-56 377.88,-56 377.88,-76"/>
<text xml:space="preserve" text-anchor="middle" x="326.38" y="-62.5" font-family="Helvetica,sans-Serif" font-size="10.00">SDL3/SDL_stdinc.h</text>
</a>
</g>
</g>
<!-- Node1&#45;&gt;Node2 -->
<g id="edge1_Node000001_Node000002" class="edge">
<title>Node1&#45;&gt;Node2</title>
<g id="a_edge1_Node000001_Node000002"><a xlink:title=" ">
<path fill="none" stroke="#63b8ff" d="M315.83,-167.7C307.31,-153.47 297.48,-131.57 302.38,-112 304.62,-103.01 309.04,-93.85 313.49,-86.16"/>
<polygon fill="#63b8ff" stroke="#63b8ff" points="316.43,-88.06 318.75,-77.72 310.49,-84.35 316.43,-88.06"/>
</a>
</g>
</g>
<!-- Node10 -->
<g id="Node000010" class="node">
<title>Node10</title>
<g id="a_Node000010"><a xlink:href="../../dd/df7/SDL__scancode_8h.html" target="_top" xlink:title=" ">
<polygon fill="white" stroke="#666666" points="429.75,-132 311,-132 311,-112 429.75,-112 429.75,-132"/>
<text xml:space="preserve" text-anchor="middle" x="370.38" y="-118.5" font-family="Helvetica,sans-Serif" font-size="10.00">SDL3/SDL_scancode.h</text>
</a>
</g>
</g>
<!-- Node1&#45;&gt;Node10 -->
<g id="edge9_Node000001_Node000010" class="edge">
<title>Node1&#45;&gt;Node10</title>
<g id="a_edge9_Node000001_Node000010"><a xlink:title=" ">
<path fill="none" stroke="#63b8ff" d="M337.71,-167.55C343.5,-159.65 350.59,-149.97 356.69,-141.66"/>
<polygon fill="#63b8ff" stroke="#63b8ff" points="359.49,-143.76 362.58,-133.63 353.84,-139.62 359.49,-143.76"/>
</a>
</g>
</g>
<!-- Node3 -->
<g id="Node000003" class="node">
<title>Node3</title>
<g id="a_Node000003"><a xlink:href="../../d3/d8b/SDL__platform__defines_8h.html" target="_top" xlink:title=" ">
<polygon fill="white" stroke="#666666" points="148.75,-20 0,-20 0,0 148.75,0 148.75,-20"/>
<text xml:space="preserve" text-anchor="middle" x="74.38" y="-6.5" font-family="Helvetica,sans-Serif" font-size="10.00">SDL3/SDL_platform_defines.h</text>
</a>
</g>
</g>
<!-- Node2&#45;&gt;Node3 -->
<g id="edge2_Node000002_Node000003" class="edge">
<title>Node2&#45;&gt;Node3</title>
<g id="a_edge2_Node000002_Node000003"><a xlink:title=" ">
<path fill="none" stroke="#63b8ff" d="M282.19,-55.53C239.77,-46.44 175.55,-32.68 129.73,-22.86"/>
<polygon fill="#63b8ff" stroke="#63b8ff" points="130.5,-19.45 119.99,-20.77 129.03,-26.29 130.5,-19.45"/>
</a>
</g>
</g>
<!-- Node4 -->
<g id="Node000004" class="node">
<title>Node4</title>
<g id="a_Node000004"><a xlink:title=" ">
<polygon fill="#e0e0e0" stroke="#999999" points="218,-20 166.75,-20 166.75,0 218,0 218,-20"/>
<text xml:space="preserve" text-anchor="middle" x="192.38" y="-6.5" font-family="Helvetica,sans-Serif" font-size="10.00">stdarg.h</text>
</a>
</g>
</g>
<!-- Node2&#45;&gt;Node4 -->
<g id="edge3_Node000002_Node000004" class="edge">
<title>Node2&#45;&gt;Node4</title>
<g id="a_edge3_Node000002_Node000004"><a xlink:title=" ">
<path fill="none" stroke="#63b8ff" d="M303.03,-55.59C281.84,-47.05 250.31,-34.35 226.32,-24.68"/>
<polygon fill="#63b8ff" stroke="#63b8ff" points="227.89,-21.54 217.3,-21.05 225.27,-28.03 227.89,-21.54"/>
</a>
</g>
</g>
<!-- Node5 -->
<g id="Node000005" class="node">
<title>Node5</title>
<g id="a_Node000005"><a xlink:title=" ">
<polygon fill="#e0e0e0" stroke="#999999" points="284.5,-20 236.25,-20 236.25,0 284.5,0 284.5,-20"/>
<text xml:space="preserve" text-anchor="middle" x="260.38" y="-6.5" font-family="Helvetica,sans-Serif" font-size="10.00">stdint.h</text>
</a>
</g>
</g>
<!-- Node2&#45;&gt;Node5 -->
<g id="edge4_Node000002_Node000005" class="edge">
<title>Node2&#45;&gt;Node5</title>
<g id="a_edge4_Node000002_Node000005"><a xlink:title=" ">
<path fill="none" stroke="#63b8ff" d="M314.88,-55.59C305.41,-47.85 291.77,-36.69 280.5,-27.47"/>
<polygon fill="#63b8ff" stroke="#63b8ff" points="282.87,-24.88 272.91,-21.26 278.43,-30.3 282.87,-24.88"/>
</a>
</g>
</g>
<!-- Node6 -->
<g id="Node000006" class="node">
<title>Node6</title>
<g id="a_Node000006"><a xlink:title=" ">
<polygon fill="#e0e0e0" stroke="#999999" points="350.5,-20 302.25,-20 302.25,0 350.5,0 350.5,-20"/>
<text xml:space="preserve" text-anchor="middle" x="326.38" y="-6.5" font-family="Helvetica,sans-Serif" font-size="10.00">string.h</text>
</a>
</g>
</g>
<!-- Node2&#45;&gt;Node6 -->
<g id="edge5_Node000002_Node000006" class="edge">
<title>Node2&#45;&gt;Node6</title>
<g id="a_edge5_Node000002_Node000006"><a xlink:title=" ">
<path fill="none" stroke="#63b8ff" d="M326.38,-55.59C326.38,-49.01 326.38,-39.96 326.38,-31.73"/>
<polygon fill="#63b8ff" stroke="#63b8ff" points="329.88,-31.81 326.38,-21.81 322.88,-31.81 329.88,-31.81"/>
</a>
</g>
</g>
<!-- Node7 -->
<g id="Node000007" class="node">
<title>Node7</title>
<g id="a_Node000007"><a xlink:title=" ">
<polygon fill="#e0e0e0" stroke="#999999" points="418.62,-20 368.12,-20 368.12,0 418.62,0 418.62,-20"/>
<text xml:space="preserve" text-anchor="middle" x="393.38" y="-6.5" font-family="Helvetica,sans-Serif" font-size="10.00">wchar.h</text>
</a>
</g>
</g>
<!-- Node2&#45;&gt;Node7 -->
<g id="edge6_Node000002_Node000007" class="edge">
<title>Node2&#45;&gt;Node7</title>
<g id="a_edge6_Node000002_Node000007"><a xlink:title=" ">
<path fill="none" stroke="#63b8ff" d="M338.05,-55.59C347.65,-47.85 361.5,-36.69 372.94,-27.47"/>
<polygon fill="#63b8ff" stroke="#63b8ff" points="375.07,-30.25 380.66,-21.25 370.68,-24.8 375.07,-30.25"/>
</a>
</g>
</g>
<!-- Node8 -->
<g id="Node000008" class="node">
<title>Node8</title>
<g id="a_Node000008"><a xlink:href="../../d8/d5f/SDL__begin__code_8h.html" target="_top" xlink:title=" ">
<polygon fill="white" stroke="#666666" points="562.5,-20 436.25,-20 436.25,0 562.5,0 562.5,-20"/>
<text xml:space="preserve" text-anchor="middle" x="499.38" y="-6.5" font-family="Helvetica,sans-Serif" font-size="10.00">SDL3/SDL_begin_code.h</text>
</a>
</g>
</g>
<!-- Node2&#45;&gt;Node8 -->
<g id="edge7_Node000002_Node000008" class="edge">
<title>Node2&#45;&gt;Node8</title>
<g id="a_edge7_Node000002_Node000008"><a xlink:title=" ">
<path fill="none" stroke="#63b8ff" d="M356.51,-55.59C384.62,-46.82 426.79,-33.66 458.03,-23.9"/>
<polygon fill="#63b8ff" stroke="#63b8ff" points="459.06,-27.25 467.56,-20.93 456.97,-20.57 459.06,-27.25"/>
</a>
</g>
</g>
<!-- Node9 -->
<g id="Node000009" class="node">
<title>Node9</title>
<g id="a_Node000009"><a xlink:href="../../d9/d73/SDL__close__code_8h.html" target="_top" xlink:title=" ">
<polygon fill="white" stroke="#666666" points="706.5,-20 580.25,-20 580.25,0 706.5,0 706.5,-20"/>
<text xml:space="preserve" text-anchor="middle" x="643.38" y="-6.5" font-family="Helvetica,sans-Serif" font-size="10.00">SDL3/SDL_close_code.h</text>
</a>
</g>
</g>
<!-- Node2&#45;&gt;Node9 -->
<g id="edge8_Node000002_Node000009" class="edge">
<title>Node2&#45;&gt;Node9</title>
<g id="a_edge8_Node000002_Node000009"><a xlink:title=" ">
<path fill="none" stroke="#63b8ff" d="M378.37,-56.14C432.49,-46.92 517.46,-32.45 576.53,-22.39"/>
<polygon fill="#63b8ff" stroke="#63b8ff" points="576.86,-25.88 586.13,-20.75 575.68,-18.98 576.86,-25.88"/>
</a>
</g>
</g>
<!-- Node10&#45;&gt;Node2 -->
<g id="edge10_Node000010_Node000002" class="edge">
<title>Node10&#45;&gt;Node2</title>
<g id="a_edge10_Node000010_Node000002"><a xlink:title=" ">
<path fill="none" stroke="#63b8ff" d="M362.71,-111.59C356.78,-104.32 348.39,-94.02 341.16,-85.15"/>
<polygon fill="#63b8ff" stroke="#63b8ff" points="343.94,-83.01 334.91,-77.47 338.51,-87.43 343.94,-83.01"/>
</a>
</g>
</g>
</g>
</svg>
