<?xml version="1.0" encoding="UTF-8" standalone="no"?>
<!DOCTYPE svg PUBLIC "-//W3C//DTD SVG 1.1//EN"
 "http://www.w3.org/Graphics/SVG/1.1/DTD/svg11.dtd">
<!-- Generated by graphviz version 13.1.0 (20250701.0955)
 -->
<!-- Title: SDL&#45;main/include/SDL3/SDL_process.h Pages: 1 -->
<svg width="716pt" height="320pt"
 viewBox="0.00 0.00 716.00 320.00" xmlns="http://www.w3.org/2000/svg" xmlns:xlink="http://www.w3.org/1999/xlink">
<g id="graph0" class="graph" transform="scale(1 1) rotate(0) translate(4 316)">
<title>SDL&#45;main/include/SDL3/SDL_process.h</title>
<!-- Node1 -->
<g id="Node000001" class="node">
<title>Node1</title>
<g id="a_Node000001"><a xlink:title=" ">
<polygon fill="#999999" stroke="#666666" points="325.62,-312 204.62,-312 204.62,-280 325.62,-280 325.62,-312"/>
<text xml:space="preserve" text-anchor="start" x="212.62" y="-298.5" font-family="Helvetica,sans-Serif" font-size="10.00">SDL&#45;main/include/SDL3</text>
<text xml:space="preserve" text-anchor="middle" x="265.12" y="-286.5" font-family="Helvetica,sans-Serif" font-size="10.00">/SDL_process.h</text>
</a>
</g>
</g>
<!-- Node2 -->
<g id="Node000002" class="node">
<title>Node2</title>
<g id="a_Node000002"><a xlink:href="../../d2/d5b/SDL__stdinc_8h.html" target="_top" xlink:title=" ">
<polygon fill="white" stroke="#666666" points="355.62,-76 252.62,-76 252.62,-56 355.62,-56 355.62,-76"/>
<text xml:space="preserve" text-anchor="middle" x="304.12" y="-62.5" font-family="Helvetica,sans-Serif" font-size="10.00">SDL3/SDL_stdinc.h</text>
</a>
</g>
</g>
<!-- Node1&#45;&gt;Node2 -->
<g id="edge1_Node000001_Node000002" class="edge">
<title>Node1&#45;&gt;Node2</title>
<g id="a_edge1_Node000001_Node000002"><a xlink:title=" ">
<path fill="none" stroke="#63b8ff" d="M250.64,-279.86C242.6,-270.37 233.39,-257.43 229.12,-244 218.91,-211.8 218.52,-200.07 229.12,-168 240.25,-134.35 267.42,-102.77 285.81,-84.16"/>
<polygon fill="#63b8ff" stroke="#63b8ff" points="288.02,-86.9 292.71,-77.4 283.12,-81.9 288.02,-86.9"/>
</a>
</g>
</g>
<!-- Node8 -->
<g id="Node000008" class="node">
<title>Node8</title>
<g id="a_Node000008"><a xlink:href="../../d8/d5f/SDL__begin__code_8h.html" target="_top" xlink:title=" ">
<polygon fill="white" stroke="#666666" points="126.25,-20 0,-20 0,0 126.25,0 126.25,-20"/>
<text xml:space="preserve" text-anchor="middle" x="63.12" y="-6.5" font-family="Helvetica,sans-Serif" font-size="10.00">SDL3/SDL_begin_code.h</text>
</a>
</g>
</g>
<!-- Node1&#45;&gt;Node8 -->
<g id="edge24_Node000001_Node000008" class="edge">
<title>Node1&#45;&gt;Node8</title>
<g id="a_edge24_Node000001_Node000008"><a xlink:title=" ">
<path fill="none" stroke="#63b8ff" d="M204.37,-285.61C146.17,-272.76 67.12,-243.44 67.12,-179 67.12,-179 67.12,-179 67.12,-121 67.12,-89.85 65.5,-53.77 64.32,-31.67"/>
<polygon fill="#63b8ff" stroke="#63b8ff" points="67.83,-31.71 63.78,-21.92 60.84,-32.1 67.83,-31.71"/>
</a>
</g>
</g>
<!-- Node9 -->
<g id="Node000009" class="node">
<title>Node9</title>
<g id="a_Node000009"><a xlink:href="../../d9/d73/SDL__close__code_8h.html" target="_top" xlink:title=" ">
<polygon fill="white" stroke="#666666" points="708.25,-20 582,-20 582,0 708.25,0 708.25,-20"/>
<text xml:space="preserve" text-anchor="middle" x="645.12" y="-6.5" font-family="Helvetica,sans-Serif" font-size="10.00">SDL3/SDL_close_code.h</text>
</a>
</g>
</g>
<!-- Node1&#45;&gt;Node9 -->
<g id="edge25_Node000001_Node000009" class="edge">
<title>Node1&#45;&gt;Node9</title>
<g id="a_edge25_Node000001_Node000009"><a xlink:title=" ">
<path fill="none" stroke="#63b8ff" d="M325.89,-288.53C430.42,-275.71 633.12,-242.64 633.12,-179 633.12,-179 633.12,-179 633.12,-121 633.12,-89.69 637.99,-53.65 641.53,-31.6"/>
<polygon fill="#63b8ff" stroke="#63b8ff" points="644.95,-32.31 643.16,-21.87 638.05,-31.16 644.95,-32.31"/>
</a>
</g>
</g>
<!-- Node10 -->
<g id="Node000010" class="node">
<title>Node10</title>
<g id="a_Node000010"><a xlink:href="../../da/d16/SDL__error_8h.html" target="_top" xlink:title=" ">
<polygon fill="white" stroke="#666666" points="382.25,-132 286,-132 286,-112 382.25,-112 382.25,-132"/>
<text xml:space="preserve" text-anchor="middle" x="334.12" y="-118.5" font-family="Helvetica,sans-Serif" font-size="10.00">SDL3/SDL_error.h</text>
</a>
</g>
</g>
<!-- Node1&#45;&gt;Node10 -->
<g id="edge9_Node000001_Node000010" class="edge">
<title>Node1&#45;&gt;Node10</title>
<g id="a_edge9_Node000001_Node000010"><a xlink:title=" ">
<path fill="none" stroke="#63b8ff" d="M255.54,-279.64C241.14,-254.38 217.85,-203.37 240.12,-168 249.46,-153.18 265.17,-143.14 281.11,-136.37"/>
<polygon fill="#63b8ff" stroke="#63b8ff" points="282.04,-139.76 290.13,-132.92 279.54,-133.22 282.04,-139.76"/>
</a>
</g>
</g>
<!-- Node11 -->
<g id="Node000011" class="node">
<title>Node11</title>
<g id="a_Node000011"><a xlink:href="../../d8/d35/SDL__iostream_8h.html" target="_top" xlink:title=" ">
<polygon fill="white" stroke="#666666" points="442.25,-244 328,-244 328,-224 442.25,-224 442.25,-244"/>
<text xml:space="preserve" text-anchor="middle" x="385.12" y="-230.5" font-family="Helvetica,sans-Serif" font-size="10.00">SDL3/SDL_iostream.h</text>
</a>
</g>
</g>
<!-- Node1&#45;&gt;Node11 -->
<g id="edge13_Node000001_Node000011" class="edge">
<title>Node1&#45;&gt;Node11</title>
<g id="a_edge13_Node000001_Node000011"><a xlink:title=" ">
<path fill="none" stroke="#63b8ff" d="M296.03,-279.55C314.52,-270.3 337.87,-258.63 356.03,-249.55"/>
<polygon fill="#63b8ff" stroke="#63b8ff" points="357.58,-252.69 364.96,-245.08 354.45,-246.43 357.58,-252.69"/>
</a>
</g>
</g>
<!-- Node12 -->
<g id="Node000012" class="node">
<title>Node12</title>
<g id="a_Node000012"><a xlink:href="../../d6/d40/SDL__properties_8h.html" target="_top" xlink:title=" ">
<polygon fill="white" stroke="#666666" points="368.88,-188 249.38,-188 249.38,-168 368.88,-168 368.88,-188"/>
<text xml:space="preserve" text-anchor="middle" x="309.12" y="-174.5" font-family="Helvetica,sans-Serif" font-size="10.00">SDL3/SDL_properties.h</text>
</a>
</g>
</g>
<!-- Node1&#45;&gt;Node12 -->
<g id="edge23_Node000001_Node000012" class="edge">
<title>Node1&#45;&gt;Node12</title>
<g id="a_edge23_Node000001_Node000012"><a xlink:title=" ">
<path fill="none" stroke="#63b8ff" d="M270.88,-279.84C278.73,-259.13 292.83,-221.95 301.54,-198.99"/>
<polygon fill="#63b8ff" stroke="#63b8ff" points="304.73,-200.44 305.01,-189.85 298.19,-197.96 304.73,-200.44"/>
</a>
</g>
</g>
<!-- Node3 -->
<g id="Node000003" class="node">
<title>Node3</title>
<g id="a_Node000003"><a xlink:href="../../d3/d8b/SDL__platform__defines_8h.html" target="_top" xlink:title=" ">
<polygon fill="white" stroke="#666666" points="563.5,-20 414.75,-20 414.75,0 563.5,0 563.5,-20"/>
<text xml:space="preserve" text-anchor="middle" x="489.12" y="-6.5" font-family="Helvetica,sans-Serif" font-size="10.00">SDL3/SDL_platform_defines.h</text>
</a>
</g>
</g>
<!-- Node2&#45;&gt;Node3 -->
<g id="edge2_Node000002_Node000003" class="edge">
<title>Node2&#45;&gt;Node3</title>
<g id="a_edge2_Node000002_Node000003"><a xlink:title=" ">
<path fill="none" stroke="#63b8ff" d="M336.35,-55.59C366.67,-46.74 412.3,-33.43 445.79,-23.65"/>
<polygon fill="#63b8ff" stroke="#63b8ff" points="446.58,-27.07 455.2,-20.9 444.62,-20.35 446.58,-27.07"/>
</a>
</g>
</g>
<!-- Node4 -->
<g id="Node000004" class="node">
<title>Node4</title>
<g id="a_Node000004"><a xlink:title=" ">
<polygon fill="#e0e0e0" stroke="#999999" points="195.75,-20 144.5,-20 144.5,0 195.75,0 195.75,-20"/>
<text xml:space="preserve" text-anchor="middle" x="170.12" y="-6.5" font-family="Helvetica,sans-Serif" font-size="10.00">stdarg.h</text>
</a>
</g>
</g>
<!-- Node2&#45;&gt;Node4 -->
<g id="edge3_Node000002_Node000004" class="edge">
<title>Node2&#45;&gt;Node4</title>
<g id="a_edge3_Node000002_Node000004"><a xlink:title=" ">
<path fill="none" stroke="#63b8ff" d="M280.78,-55.59C259.59,-47.05 228.06,-34.35 204.07,-24.68"/>
<polygon fill="#63b8ff" stroke="#63b8ff" points="205.64,-21.54 195.05,-21.05 203.02,-28.03 205.64,-21.54"/>
</a>
</g>
</g>
<!-- Node5 -->
<g id="Node000005" class="node">
<title>Node5</title>
<g id="a_Node000005"><a xlink:title=" ">
<polygon fill="#e0e0e0" stroke="#999999" points="262.25,-20 214,-20 214,0 262.25,0 262.25,-20"/>
<text xml:space="preserve" text-anchor="middle" x="238.12" y="-6.5" font-family="Helvetica,sans-Serif" font-size="10.00">stdint.h</text>
</a>
</g>
</g>
<!-- Node2&#45;&gt;Node5 -->
<g id="edge4_Node000002_Node000005" class="edge">
<title>Node2&#45;&gt;Node5</title>
<g id="a_edge4_Node000002_Node000005"><a xlink:title=" ">
<path fill="none" stroke="#63b8ff" d="M292.63,-55.59C283.16,-47.85 269.52,-36.69 258.25,-27.47"/>
<polygon fill="#63b8ff" stroke="#63b8ff" points="260.62,-24.88 250.66,-21.26 256.18,-30.3 260.62,-24.88"/>
</a>
</g>
</g>
<!-- Node6 -->
<g id="Node000006" class="node">
<title>Node6</title>
<g id="a_Node000006"><a xlink:title=" ">
<polygon fill="#e0e0e0" stroke="#999999" points="328.25,-20 280,-20 280,0 328.25,0 328.25,-20"/>
<text xml:space="preserve" text-anchor="middle" x="304.12" y="-6.5" font-family="Helvetica,sans-Serif" font-size="10.00">string.h</text>
</a>
</g>
</g>
<!-- Node2&#45;&gt;Node6 -->
<g id="edge5_Node000002_Node000006" class="edge">
<title>Node2&#45;&gt;Node6</title>
<g id="a_edge5_Node000002_Node000006"><a xlink:title=" ">
<path fill="none" stroke="#63b8ff" d="M304.12,-55.59C304.12,-49.01 304.12,-39.96 304.12,-31.73"/>
<polygon fill="#63b8ff" stroke="#63b8ff" points="307.63,-31.81 304.13,-21.81 300.63,-31.81 307.63,-31.81"/>
</a>
</g>
</g>
<!-- Node7 -->
<g id="Node000007" class="node">
<title>Node7</title>
<g id="a_Node000007"><a xlink:title=" ">
<polygon fill="#e0e0e0" stroke="#999999" points="396.38,-20 345.88,-20 345.88,0 396.38,0 396.38,-20"/>
<text xml:space="preserve" text-anchor="middle" x="371.12" y="-6.5" font-family="Helvetica,sans-Serif" font-size="10.00">wchar.h</text>
</a>
</g>
</g>
<!-- Node2&#45;&gt;Node7 -->
<g id="edge6_Node000002_Node000007" class="edge">
<title>Node2&#45;&gt;Node7</title>
<g id="a_edge6_Node000002_Node000007"><a xlink:title=" ">
<path fill="none" stroke="#63b8ff" d="M315.8,-55.59C325.4,-47.85 339.25,-36.69 350.69,-27.47"/>
<polygon fill="#63b8ff" stroke="#63b8ff" points="352.82,-30.25 358.41,-21.25 348.43,-24.8 352.82,-30.25"/>
</a>
</g>
</g>
<!-- Node2&#45;&gt;Node8 -->
<g id="edge7_Node000002_Node000008" class="edge">
<title>Node2&#45;&gt;Node8</title>
<g id="a_edge7_Node000002_Node000008"><a xlink:title=" ">
<path fill="none" stroke="#63b8ff" d="M261.87,-55.53C221.39,-46.46 160.14,-32.74 116.35,-22.93"/>
<polygon fill="#63b8ff" stroke="#63b8ff" points="117.33,-19.56 106.81,-20.79 115.8,-26.39 117.33,-19.56"/>
</a>
</g>
</g>
<!-- Node2&#45;&gt;Node9 -->
<g id="edge8_Node000002_Node000009" class="edge">
<title>Node2&#45;&gt;Node9</title>
<g id="a_edge8_Node000002_Node000009"><a xlink:title=" ">
<path fill="none" stroke="#63b8ff" d="M355.92,-56.8C414.21,-47.57 509.27,-32.51 574.38,-22.2"/>
<polygon fill="#63b8ff" stroke="#63b8ff" points="574.55,-25.72 583.88,-20.7 573.45,-18.81 574.55,-25.72"/>
</a>
</g>
</g>
<!-- Node10&#45;&gt;Node2 -->
<g id="edge10_Node000010_Node000002" class="edge">
<title>Node10&#45;&gt;Node2</title>
<g id="a_edge10_Node000010_Node000002"><a xlink:title=" ">
<path fill="none" stroke="#63b8ff" d="M328.9,-111.59C325.03,-104.63 319.62,-94.89 314.84,-86.29"/>
<polygon fill="#63b8ff" stroke="#63b8ff" points="317.94,-84.66 310.03,-77.62 311.82,-88.06 317.94,-84.66"/>
</a>
</g>
</g>
<!-- Node10&#45;&gt;Node8 -->
<g id="edge11_Node000010_Node000008" class="edge">
<title>Node10&#45;&gt;Node8</title>
<g id="a_edge11_Node000010_Node000008"><a xlink:title=" ">
<path fill="none" stroke="#63b8ff" d="M316.26,-111.68C290.39,-98.39 240.83,-73.63 197.12,-56 166.96,-43.83 132.1,-32.2 105.5,-23.81"/>
<polygon fill="#63b8ff" stroke="#63b8ff" points="106.68,-20.51 96.09,-20.87 104.59,-27.19 106.68,-20.51"/>
</a>
</g>
</g>
<!-- Node10&#45;&gt;Node9 -->
<g id="edge12_Node000010_Node000009" class="edge">
<title>Node10&#45;&gt;Node9</title>
<g id="a_edge12_Node000010_Node000009"><a xlink:title=" ">
<path fill="none" stroke="#63b8ff" d="M352.93,-111.69C380.7,-98.18 434.53,-72.92 482.12,-56 518.75,-42.98 561.08,-31.39 593.43,-23.24"/>
<polygon fill="#63b8ff" stroke="#63b8ff" points="594.1,-26.68 602.96,-20.86 592.41,-19.88 594.1,-26.68"/>
</a>
</g>
</g>
<!-- Node11&#45;&gt;Node2 -->
<g id="edge14_Node000011_Node000002" class="edge">
<title>Node11&#45;&gt;Node2</title>
<g id="a_edge14_Node000011_Node000002"><a xlink:title=" ">
<path fill="none" stroke="#63b8ff" d="M389.06,-223.53C397.42,-201.76 414.38,-147.31 391.12,-112 381.63,-97.58 365.97,-87.51 350.54,-80.62"/>
<polygon fill="#63b8ff" stroke="#63b8ff" points="351.96,-77.42 341.37,-76.91 349.33,-83.91 351.96,-77.42"/>
</a>
</g>
</g>
<!-- Node11&#45;&gt;Node8 -->
<g id="edge21_Node000011_Node000008" class="edge">
<title>Node11&#45;&gt;Node8</title>
<g id="a_edge21_Node000011_Node000008"><a xlink:title=" ">
<path fill="none" stroke="#63b8ff" d="M334.29,-223.58C305.26,-216.69 269.01,-205.44 240.12,-188 167.69,-144.27 103.06,-64.68 76.25,-29.07"/>
<polygon fill="#63b8ff" stroke="#63b8ff" points="79.39,-27.42 70.62,-21.47 73.77,-31.59 79.39,-27.42"/>
</a>
</g>
</g>
<!-- Node11&#45;&gt;Node9 -->
<g id="edge22_Node000011_Node000009" class="edge">
<title>Node11&#45;&gt;Node9</title>
<g id="a_edge22_Node000011_Node000009"><a xlink:title=" ">
<path fill="none" stroke="#63b8ff" d="M395.97,-223.74C435.78,-189.75 574.25,-71.52 625.69,-27.6"/>
<polygon fill="#63b8ff" stroke="#63b8ff" points="627.75,-30.43 633.09,-21.28 623.21,-25.11 627.75,-30.43"/>
</a>
</g>
</g>
<!-- Node11&#45;&gt;Node10 -->
<g id="edge15_Node000011_Node000010" class="edge">
<title>Node11&#45;&gt;Node10</title>
<g id="a_edge15_Node000011_Node000010"><a xlink:title=" ">
<path fill="none" stroke="#63b8ff" d="M385.97,-223.66C386.76,-210.56 386.74,-186.27 378.12,-168 373.06,-157.26 364.36,-147.53 356.03,-139.88"/>
<polygon fill="#63b8ff" stroke="#63b8ff" points="358.36,-137.27 348.48,-133.44 353.82,-142.59 358.36,-137.27"/>
</a>
</g>
</g>
<!-- Node11&#45;&gt;Node12 -->
<g id="edge16_Node000011_Node000012" class="edge">
<title>Node11&#45;&gt;Node12</title>
<g id="a_edge16_Node000011_Node000012"><a xlink:title=" ">
<path fill="none" stroke="#63b8ff" d="M371.89,-223.59C360.84,-215.74 344.84,-204.38 331.77,-195.09"/>
<polygon fill="#63b8ff" stroke="#63b8ff" points="333.88,-192.3 323.7,-189.36 329.82,-198 333.88,-192.3"/>
</a>
</g>
</g>
<!-- Node12&#45;&gt;Node2 -->
<g id="edge17_Node000012_Node000002" class="edge">
<title>Node12&#45;&gt;Node2</title>
<g id="a_edge17_Node000012_Node000002"><a xlink:title=" ">
<path fill="none" stroke="#63b8ff" d="M299.77,-167.63C292.01,-159.14 281.56,-145.88 277.12,-132 271.96,-115.83 280.35,-98.08 289.1,-85.22"/>
<polygon fill="#63b8ff" stroke="#63b8ff" points="291.85,-87.39 295.04,-77.29 286.24,-83.19 291.85,-87.39"/>
</a>
</g>
</g>
<!-- Node12&#45;&gt;Node8 -->
<g id="edge19_Node000012_Node000008" class="edge">
<title>Node12&#45;&gt;Node8</title>
<g id="a_edge19_Node000012_Node000008"><a xlink:title=" ">
<path fill="none" stroke="#63b8ff" d="M295.19,-167.6C254.69,-140.26 136.63,-60.6 86.29,-26.63"/>
<polygon fill="#63b8ff" stroke="#63b8ff" points="88.4,-23.84 78.16,-21.14 84.49,-29.64 88.4,-23.84"/>
</a>
</g>
</g>
<!-- Node12&#45;&gt;Node9 -->
<g id="edge20_Node000012_Node000009" class="edge">
<title>Node12&#45;&gt;Node9</title>
<g id="a_edge20_Node000012_Node000009"><a xlink:title=" ">
<path fill="none" stroke="#63b8ff" d="M326.4,-167.55C376.93,-139.93 521.6,-60.93 532.12,-56 557.15,-44.28 586.13,-32.78 608.47,-24.34"/>
<polygon fill="#63b8ff" stroke="#63b8ff" points="609.62,-27.65 617.76,-20.87 607.17,-21.09 609.62,-27.65"/>
</a>
</g>
</g>
<!-- Node12&#45;&gt;Node10 -->
<g id="edge18_Node000012_Node000010" class="edge">
<title>Node12&#45;&gt;Node10</title>
<g id="a_edge18_Node000012_Node000010"><a xlink:title=" ">
<path fill="none" stroke="#63b8ff" d="M313.48,-167.59C316.67,-160.7 321.11,-151.1 325.06,-142.57"/>
<polygon fill="#63b8ff" stroke="#63b8ff" points="328.16,-144.22 329.18,-133.67 321.81,-141.28 328.16,-144.22"/>
</a>
</g>
</g>
</g>
</svg>
