<?xml version="1.0" encoding="UTF-8" standalone="no"?>
<!DOCTYPE svg PUBLIC "-//W3C//DTD SVG 1.1//EN"
 "http://www.w3.org/Graphics/SVG/1.1/DTD/svg11.dtd">
<!-- Generated by graphviz version 13.1.0 (20250701.0955)
 -->
<!-- Title: VkImageFormatConstraintsInfoFUCHSIA Pages: 1 -->
<svg width="290pt" height="188pt"
 viewBox="0.00 0.00 290.00 188.00" xmlns="http://www.w3.org/2000/svg" xmlns:xlink="http://www.w3.org/1999/xlink">
<g id="graph0" class="graph" transform="scale(1 1) rotate(0) translate(4 184)">
<title>VkImageFormatConstraintsInfoFUCHSIA</title>
<!-- Node1 -->
<g id="Node000001" class="node">
<title>Node1</title>
<g id="a_Node000001"><a xlink:title=" ">
<polygon fill="#999999" stroke="#666666" points="193.38,-32 57.38,-32 57.38,0 193.38,0 193.38,-32"/>
<text xml:space="preserve" text-anchor="start" x="65.38" y="-18.5" font-family="Helvetica,sans-Serif" font-size="10.00">VkImageFormatConstraints</text>
<text xml:space="preserve" text-anchor="middle" x="125.38" y="-6.5" font-family="Helvetica,sans-Serif" font-size="10.00">InfoFUCHSIA</text>
</a>
</g>
</g>
<!-- Node2 -->
<g id="Node000002" class="node">
<title>Node2</title>
<g id="a_Node000002"><a xlink:href="../../dd/d05/structVkImageCreateInfo.html" target="_top" xlink:title=" ">
<polygon fill="white" stroke="#666666" points="100.75,-106 0,-106 0,-86 100.75,-86 100.75,-106"/>
<text xml:space="preserve" text-anchor="middle" x="50.38" y="-92.5" font-family="Helvetica,sans-Serif" font-size="10.00">VkImageCreateInfo</text>
</a>
</g>
</g>
<!-- Node2&#45;&gt;Node1 -->
<g id="edge1_Node000001_Node000002" class="edge">
<title>Node2&#45;&gt;Node1</title>
<g id="a_edge1_Node000001_Node000002"><a xlink:title=" ">
<path fill="none" stroke="#9a32cd" stroke-dasharray="5,2" d="M67.02,-77.69C80.05,-64.14 98.01,-45.46 110.55,-32.42"/>
<polygon fill="#9a32cd" stroke="#9a32cd" points="64.73,-75.02 60.32,-84.66 69.78,-79.87 64.73,-75.02"/>
</a>
</g>
<text xml:space="preserve" text-anchor="start" x="95.37" y="-55.5" font-family="Helvetica,sans-Serif" font-size="10.00" fill="grey">imageCreateInfo</text>
</g>
<!-- Node3 -->
<g id="Node000003" class="node">
<title>Node3</title>
<g id="a_Node000003"><a xlink:href="../../d0/d02/structVkExtent3D.html" target="_top" xlink:title=" ">
<polygon fill="white" stroke="#666666" points="85,-180 15.75,-180 15.75,-160 85,-160 85,-180"/>
<text xml:space="preserve" text-anchor="middle" x="50.38" y="-166.5" font-family="Helvetica,sans-Serif" font-size="10.00">VkExtent3D</text>
</a>
</g>
</g>
<!-- Node3&#45;&gt;Node2 -->
<g id="edge2_Node000002_Node000003" class="edge">
<title>Node3&#45;&gt;Node2</title>
<g id="a_edge2_Node000002_Node000003"><a xlink:title=" ">
<path fill="none" stroke="#9a32cd" stroke-dasharray="5,2" d="M50.38,-148.18C50.38,-134.29 50.38,-116.71 50.38,-106.19"/>
<polygon fill="#9a32cd" stroke="#9a32cd" points="46.88,-148.07 50.38,-158.07 53.88,-148.07 46.88,-148.07"/>
</a>
</g>
<text xml:space="preserve" text-anchor="start" x="53.38" y="-129.5" font-family="Helvetica,sans-Serif" font-size="10.00" fill="grey">extent</text>
</g>
<!-- Node4 -->
<g id="Node000004" class="node">
<title>Node4</title>
<g id="a_Node000004"><a xlink:href="../../d5/da3/structVkSysmemColorSpaceFUCHSIA.html" target="_top" xlink:title=" ">
<polygon fill="white" stroke="#666666" points="281.88,-106 118.88,-106 118.88,-86 281.88,-86 281.88,-106"/>
<text xml:space="preserve" text-anchor="middle" x="200.38" y="-92.5" font-family="Helvetica,sans-Serif" font-size="10.00">VkSysmemColorSpaceFUCHSIA</text>
</a>
</g>
</g>
<!-- Node4&#45;&gt;Node1 -->
<g id="edge3_Node000001_Node000004" class="edge">
<title>Node4&#45;&gt;Node1</title>
<g id="a_edge3_Node000001_Node000004"><a xlink:title=" ">
<path fill="none" stroke="#9a32cd" stroke-dasharray="5,2" d="M191.57,-75.46C187.18,-67.03 181.31,-57.43 174.38,-50 168.22,-43.4 160.5,-37.44 153.03,-32.46"/>
<polygon fill="#9a32cd" stroke="#9a32cd" points="188.3,-76.74 195.81,-84.21 194.6,-73.69 188.3,-76.74"/>
</a>
</g>
<text xml:space="preserve" text-anchor="start" x="189.94" y="-55.5" font-family="Helvetica,sans-Serif" font-size="10.00" fill="grey">pColorSpaces</text>
</g>
</g>
</svg>
