<?xml version="1.0" encoding="UTF-8" standalone="no"?>
<!DOCTYPE svg PUBLIC "-//W3C//DTD SVG 1.1//EN"
 "http://www.w3.org/Graphics/SVG/1.1/DTD/svg11.dtd">
<!-- Generated by graphviz version 13.1.0 (20250701.0955)
 -->
<!-- Title: windows_folder_dialog_thread Pages: 1 -->
<svg width="445pt" height="40pt"
 viewBox="0.00 0.00 445.00 40.00" xmlns="http://www.w3.org/2000/svg" xmlns:xlink="http://www.w3.org/1999/xlink">
<g id="graph0" class="graph" transform="scale(1 1) rotate(0) translate(4 36)">
<title>windows_folder_dialog_thread</title>
<!-- Node1 -->
<g id="Node000001" class="node">
<title>Node1</title>
<g id="a_Node000001"><a xlink:title=" ">
<polygon fill="#999999" stroke="#666666" points="436.5,-32 322.25,-32 322.25,0 436.5,0 436.5,-32"/>
<text xml:space="preserve" text-anchor="start" x="330.25" y="-18.5" font-family="Helvetica,sans-Serif" font-size="10.00">windows_folder_dialog</text>
<text xml:space="preserve" text-anchor="middle" x="379.38" y="-6.5" font-family="Helvetica,sans-Serif" font-size="10.00">_thread</text>
</a>
</g>
</g>
<!-- Node2 -->
<g id="Node000002" class="node">
<title>Node2</title>
<g id="a_Node000002"><a xlink:href="../../d5/d4b/SDL__windowsdialog_8c.html#a0dfdeedb270f728728c4c0452ce8fe8a" target="_top" xlink:title=" ">
<polygon fill="white" stroke="#666666" points="286.25,-26 190.75,-26 190.75,-6 286.25,-6 286.25,-26"/>
<text xml:space="preserve" text-anchor="middle" x="238.5" y="-12.5" font-family="Helvetica,sans-Serif" font-size="10.00">ShowFolderDialog</text>
</a>
</g>
</g>
<!-- Node1&#45;&gt;Node2 -->
<g id="edge1_Node000001_Node000002" class="edge">
<title>Node1&#45;&gt;Node2</title>
<g id="a_edge1_Node000001_Node000002"><a xlink:title=" ">
<path fill="none" stroke="#63b8ff" d="M310.52,-16C302.43,-16 294.32,-16 286.61,-16"/>
<polygon fill="#63b8ff" stroke="#63b8ff" points="310.38,-19.5 320.38,-16 310.38,-12.5 310.38,-19.5"/>
</a>
</g>
</g>
<!-- Node3 -->
<g id="Node000003" class="node">
<title>Node3</title>
<g id="a_Node000003"><a xlink:href="../../d5/d4b/SDL__windowsdialog_8c.html#ac5e36f40c4a1019ab9545659a3637e8d" target="_top" xlink:title=" ">
<polygon fill="white" stroke="#666666" points="154.75,-32 0,-32 0,0 154.75,0 154.75,-32"/>
<text xml:space="preserve" text-anchor="start" x="8" y="-18.5" font-family="Helvetica,sans-Serif" font-size="10.00">SDL_SYS_ShowFileDialogWith</text>
<text xml:space="preserve" text-anchor="middle" x="77.38" y="-6.5" font-family="Helvetica,sans-Serif" font-size="10.00">Properties</text>
</a>
</g>
</g>
<!-- Node2&#45;&gt;Node3 -->
<g id="edge2_Node000002_Node000003" class="edge">
<title>Node2&#45;&gt;Node3</title>
<g id="a_edge2_Node000002_Node000003"><a xlink:title=" ">
<path fill="none" stroke="#63b8ff" d="M179.31,-16C171.42,-16 163.22,-16 155.07,-16"/>
<polygon fill="#63b8ff" stroke="#63b8ff" points="179.1,-19.5 189.1,-16 179.1,-12.5 179.1,-19.5"/>
</a>
</g>
</g>
</g>
</svg>
