<?xml version="1.0" encoding="UTF-8" standalone="no"?>
<!DOCTYPE svg PUBLIC "-//W3C//DTD SVG 1.1//EN"
 "http://www.w3.org/Graphics/SVG/1.1/DTD/svg11.dtd">
<!-- Generated by graphviz version 13.1.0 (20250701.0955)
 -->
<!-- Title: freeWinFArgs Pages: 1 -->
<svg width="556pt" height="62pt"
 viewBox="0.00 0.00 556.00 62.00" xmlns="http://www.w3.org/2000/svg" xmlns:xlink="http://www.w3.org/1999/xlink">
<g id="graph0" class="graph" transform="scale(1 1) rotate(0) translate(4 58)">
<title>freeWinFArgs</title>
<!-- Node1 -->
<g id="Node000001" class="node">
<title>Node1</title>
<g id="a_Node000001"><a xlink:title=" ">
<polygon fill="#999999" stroke="#666666" points="547.75,-48 472.5,-48 472.5,-28 547.75,-28 547.75,-48"/>
<text xml:space="preserve" text-anchor="middle" x="510.12" y="-34.5" font-family="Helvetica,sans-Serif" font-size="10.00">freeWinFArgs</text>
</a>
</g>
</g>
<!-- Node2 -->
<g id="Node000002" class="node">
<title>Node2</title>
<g id="a_Node000002"><a xlink:href="../../d5/d4b/SDL__windowsdialog_8c.html#a0dfdeedb270f728728c4c0452ce8fe8a" target="_top" xlink:title=" ">
<polygon fill="white" stroke="#666666" points="286.25,-48 190.75,-48 190.75,-28 286.25,-28 286.25,-48"/>
<text xml:space="preserve" text-anchor="middle" x="238.5" y="-34.5" font-family="Helvetica,sans-Serif" font-size="10.00">ShowFolderDialog</text>
</a>
</g>
</g>
<!-- Node1&#45;&gt;Node2 -->
<g id="edge1_Node000001_Node000002" class="edge">
<title>Node1&#45;&gt;Node2</title>
<g id="a_edge1_Node000001_Node000002"><a xlink:title=" ">
<path fill="none" stroke="#63b8ff" d="M460.9,-40.27C452.76,-40.57 444.39,-40.84 436.5,-41 385.73,-42.05 373.02,-41.92 322.25,-41 310.61,-40.79 298.05,-40.41 286.32,-39.99"/>
<polygon fill="#63b8ff" stroke="#63b8ff" points="460.82,-43.78 470.68,-39.88 460.54,-36.78 460.82,-43.78"/>
</a>
</g>
</g>
<!-- Node4 -->
<g id="Node000004" class="node">
<title>Node4</title>
<g id="a_Node000004"><a xlink:href="../../d5/d4b/SDL__windowsdialog_8c.html#aa255de49d60b81f7d69b95a4f38c92e0" target="_top" xlink:title=" ">
<polygon fill="white" stroke="#666666" points="436.5,-32 322.25,-32 322.25,0 436.5,0 436.5,-32"/>
<text xml:space="preserve" text-anchor="start" x="330.25" y="-18.5" font-family="Helvetica,sans-Serif" font-size="10.00">windows_folder_dialog</text>
<text xml:space="preserve" text-anchor="middle" x="379.38" y="-6.5" font-family="Helvetica,sans-Serif" font-size="10.00">_thread</text>
</a>
</g>
</g>
<!-- Node1&#45;&gt;Node4 -->
<g id="edge3_Node000001_Node000004" class="edge">
<title>Node1&#45;&gt;Node4</title>
<g id="a_edge3_Node000001_Node000004"><a xlink:title=" ">
<path fill="none" stroke="#63b8ff" d="M461.04,-29.78C453.19,-28.44 445,-27.04 436.97,-25.67"/>
<polygon fill="#63b8ff" stroke="#63b8ff" points="460.29,-33.21 470.74,-31.44 461.47,-26.31 460.29,-33.21"/>
</a>
</g>
</g>
<!-- Node3 -->
<g id="Node000003" class="node">
<title>Node3</title>
<g id="a_Node000003"><a xlink:href="../../d5/d4b/SDL__windowsdialog_8c.html#ac5e36f40c4a1019ab9545659a3637e8d" target="_top" xlink:title=" ">
<polygon fill="white" stroke="#666666" points="154.75,-54 0,-54 0,-22 154.75,-22 154.75,-54"/>
<text xml:space="preserve" text-anchor="start" x="8" y="-40.5" font-family="Helvetica,sans-Serif" font-size="10.00">SDL_SYS_ShowFileDialogWith</text>
<text xml:space="preserve" text-anchor="middle" x="77.38" y="-28.5" font-family="Helvetica,sans-Serif" font-size="10.00">Properties</text>
</a>
</g>
</g>
<!-- Node2&#45;&gt;Node3 -->
<g id="edge2_Node000002_Node000003" class="edge">
<title>Node2&#45;&gt;Node3</title>
<g id="a_edge2_Node000002_Node000003"><a xlink:title=" ">
<path fill="none" stroke="#63b8ff" d="M179.31,-38C171.42,-38 163.22,-38 155.07,-38"/>
<polygon fill="#63b8ff" stroke="#63b8ff" points="179.1,-41.5 189.1,-38 179.1,-34.5 179.1,-41.5"/>
</a>
</g>
</g>
<!-- Node4&#45;&gt;Node2 -->
<g id="edge4_Node000004_Node000002" class="edge">
<title>Node4&#45;&gt;Node2</title>
<g id="a_edge4_Node000004_Node000002"><a xlink:title=" ">
<path fill="none" stroke="#63b8ff" d="M310.52,-26.75C302.43,-28.03 294.32,-29.32 286.61,-30.54"/>
<polygon fill="#63b8ff" stroke="#63b8ff" points="311.07,-30.21 320.39,-25.19 309.97,-23.29 311.07,-30.21"/>
</a>
</g>
</g>
</g>
</svg>
