<?xml version="1.0" encoding="UTF-8" standalone="no"?>
<!DOCTYPE svg PUBLIC "-//W3C//DTD SVG 1.1//EN"
 "http://www.w3.org/Graphics/SVG/1.1/DTD/svg11.dtd">
<!-- Generated by graphviz version 13.1.0 (20250701.0955)
 -->
<!-- Title: browse_callback_proc Pages: 1 -->
<svg width="768pt" height="40pt"
 viewBox="0.00 0.00 768.00 40.00" xmlns="http://www.w3.org/2000/svg" xmlns:xlink="http://www.w3.org/1999/xlink">
<g id="graph0" class="graph" transform="scale(1 1) rotate(0) translate(4 36)">
<title>browse_callback_proc</title>
<!-- Node1 -->
<g id="Node000001" class="node">
<title>Node1</title>
<g id="a_Node000001"><a xlink:title=" ">
<polygon fill="#999999" stroke="#666666" points="760.25,-26 647.5,-26 647.5,-6 760.25,-6 760.25,-26"/>
<text xml:space="preserve" text-anchor="middle" x="703.88" y="-12.5" font-family="Helvetica,sans-Serif" font-size="10.00">browse_callback_proc</text>
</a>
</g>
</g>
<!-- Node2 -->
<g id="Node000002" class="node">
<title>Node2</title>
<g id="a_Node000002"><a xlink:href="../../d5/d4b/SDL__windowsdialog_8c.html#a2e1b8be149ea9fa33e9660a5738d3a5a" target="_top" xlink:title=" ">
<polygon fill="white" stroke="#666666" points="611.5,-26 472.5,-26 472.5,-6 611.5,-6 611.5,-26"/>
<text xml:space="preserve" text-anchor="middle" x="542" y="-12.5" font-family="Helvetica,sans-Serif" font-size="10.00">windows_ShowFolderDialog</text>
</a>
</g>
</g>
<!-- Node1&#45;&gt;Node2 -->
<g id="edge1_Node000001_Node000002" class="edge">
<title>Node1&#45;&gt;Node2</title>
<g id="a_edge1_Node000001_Node000002"><a xlink:title=" ">
<path fill="none" stroke="#63b8ff" d="M635.93,-16C627.99,-16 619.86,-16 611.89,-16"/>
<polygon fill="#63b8ff" stroke="#63b8ff" points="635.89,-19.5 645.89,-16 635.89,-12.5 635.89,-19.5"/>
</a>
</g>
</g>
<!-- Node3 -->
<g id="Node000003" class="node">
<title>Node3</title>
<g id="a_Node000003"><a xlink:href="../../d5/d4b/SDL__windowsdialog_8c.html#aa255de49d60b81f7d69b95a4f38c92e0" target="_top" xlink:title=" ">
<polygon fill="white" stroke="#666666" points="436.5,-32 322.25,-32 322.25,0 436.5,0 436.5,-32"/>
<text xml:space="preserve" text-anchor="start" x="330.25" y="-18.5" font-family="Helvetica,sans-Serif" font-size="10.00">windows_folder_dialog</text>
<text xml:space="preserve" text-anchor="middle" x="379.38" y="-6.5" font-family="Helvetica,sans-Serif" font-size="10.00">_thread</text>
</a>
</g>
</g>
<!-- Node2&#45;&gt;Node3 -->
<g id="edge2_Node000002_Node000003" class="edge">
<title>Node2&#45;&gt;Node3</title>
<g id="a_edge2_Node000002_Node000003"><a xlink:title=" ">
<path fill="none" stroke="#63b8ff" d="M461.15,-16C452.87,-16 444.57,-16 436.63,-16"/>
<polygon fill="#63b8ff" stroke="#63b8ff" points="460.9,-19.5 470.9,-16 460.9,-12.5 460.9,-19.5"/>
</a>
</g>
</g>
<!-- Node4 -->
<g id="Node000004" class="node">
<title>Node4</title>
<g id="a_Node000004"><a xlink:href="../../d5/d4b/SDL__windowsdialog_8c.html#a0dfdeedb270f728728c4c0452ce8fe8a" target="_top" xlink:title=" ">
<polygon fill="white" stroke="#666666" points="286.25,-26 190.75,-26 190.75,-6 286.25,-6 286.25,-26"/>
<text xml:space="preserve" text-anchor="middle" x="238.5" y="-12.5" font-family="Helvetica,sans-Serif" font-size="10.00">ShowFolderDialog</text>
</a>
</g>
</g>
<!-- Node3&#45;&gt;Node4 -->
<g id="edge3_Node000003_Node000004" class="edge">
<title>Node3&#45;&gt;Node4</title>
<g id="a_edge3_Node000003_Node000004"><a xlink:title=" ">
<path fill="none" stroke="#63b8ff" d="M310.52,-16C302.43,-16 294.32,-16 286.61,-16"/>
<polygon fill="#63b8ff" stroke="#63b8ff" points="310.38,-19.5 320.38,-16 310.38,-12.5 310.38,-19.5"/>
</a>
</g>
</g>
<!-- Node5 -->
<g id="Node000005" class="node">
<title>Node5</title>
<g id="a_Node000005"><a xlink:href="../../d5/d4b/SDL__windowsdialog_8c.html#ac5e36f40c4a1019ab9545659a3637e8d" target="_top" xlink:title=" ">
<polygon fill="white" stroke="#666666" points="154.75,-32 0,-32 0,0 154.75,0 154.75,-32"/>
<text xml:space="preserve" text-anchor="start" x="8" y="-18.5" font-family="Helvetica,sans-Serif" font-size="10.00">SDL_SYS_ShowFileDialogWith</text>
<text xml:space="preserve" text-anchor="middle" x="77.38" y="-6.5" font-family="Helvetica,sans-Serif" font-size="10.00">Properties</text>
</a>
</g>
</g>
<!-- Node4&#45;&gt;Node5 -->
<g id="edge4_Node000004_Node000005" class="edge">
<title>Node4&#45;&gt;Node5</title>
<g id="a_edge4_Node000004_Node000005"><a xlink:title=" ">
<path fill="none" stroke="#63b8ff" d="M179.31,-16C171.42,-16 163.22,-16 155.07,-16"/>
<polygon fill="#63b8ff" stroke="#63b8ff" points="179.1,-19.5 189.1,-16 179.1,-12.5 179.1,-19.5"/>
</a>
</g>
</g>
</g>
</svg>
