<?xml version="1.0" encoding="UTF-8" standalone="no"?>
<!DOCTYPE svg PUBLIC "-//W3C//DTD SVG 1.1//EN"
 "http://www.w3.org/Graphics/SVG/1.1/DTD/svg11.dtd">
<!-- Generated by graphviz version 13.1.0 (20250701.0955)
 -->
<!-- Title: WIN_SetErrorFromHRESULT Pages: 1 -->
<svg width="768pt" height="104pt"
 viewBox="0.00 0.00 768.00 104.00" xmlns="http://www.w3.org/2000/svg" xmlns:xlink="http://www.w3.org/1999/xlink">
<g id="graph0" class="graph" transform="scale(1 1) rotate(0) translate(4 100)">
<title>WIN_SetErrorFromHRESULT</title>
<!-- Node1 -->
<g id="Node000001" class="node">
<title>Node1</title>
<g id="a_Node000001"><a xlink:title=" ">
<polygon fill="#999999" stroke="#666666" points="759.5,-58 613,-58 613,-38 759.5,-38 759.5,-58"/>
<text xml:space="preserve" text-anchor="middle" x="686.25" y="-44.5" font-family="Helvetica,sans-Serif" font-size="10.00">WIN_SetErrorFromHRESULT</text>
</a>
</g>
</g>
<!-- Node2 -->
<g id="Node000002" class="node">
<title>Node2</title>
<g id="a_Node000002"><a xlink:href="../../d2/d67/SDL__gdk_8cpp.html#a2fa7bba9da5d660b025d75cbe7d051ed" target="_top" xlink:title=" ">
<polygon fill="white" stroke="#666666" points="577,-96 446.25,-96 446.25,-76 577,-76 577,-96"/>
<text xml:space="preserve" text-anchor="middle" x="511.62" y="-82.5" font-family="Helvetica,sans-Serif" font-size="10.00">SDL_GetGDKDefaultUser</text>
</a>
</g>
</g>
<!-- Node1&#45;&gt;Node2 -->
<g id="edge1_Node000001_Node000002" class="edge">
<title>Node1&#45;&gt;Node2</title>
<g id="a_edge1_Node000001_Node000002"><a xlink:title=" ">
<path fill="none" stroke="#63b8ff" d="M626.56,-60.92C604.9,-65.69 580.64,-71.03 560.1,-75.55"/>
<polygon fill="#63b8ff" stroke="#63b8ff" points="627.13,-64.38 636.14,-58.81 625.63,-57.54 627.13,-64.38"/>
</a>
</g>
</g>
<!-- Node3 -->
<g id="Node000003" class="node">
<title>Node3</title>
<g id="a_Node000003"><a xlink:href="../../df/de4/gdk_2SDL__sysfilesystem_8cpp.html#adbdc61007fd1d0ce9ebe164e8d0491b2" target="_top" xlink:title=" ">
<polygon fill="white" stroke="#666666" points="410.25,-77 290,-77 290,-57 410.25,-57 410.25,-77"/>
<text xml:space="preserve" text-anchor="middle" x="350.12" y="-63.5" font-family="Helvetica,sans-Serif" font-size="10.00">SDL_SYS_GetPrefPath</text>
</a>
</g>
</g>
<!-- Node1&#45;&gt;Node3 -->
<g id="edge5_Node000001_Node000003" class="edge">
<title>Node1&#45;&gt;Node3</title>
<g id="a_edge5_Node000001_Node000003"><a xlink:title=" ">
<path fill="none" stroke="#63b8ff" d="M601.51,-52.76C542.09,-56.14 463.77,-60.59 410.66,-63.61"/>
<polygon fill="#63b8ff" stroke="#63b8ff" points="601.45,-56.27 611.24,-52.21 601.06,-49.28 601.45,-56.27"/>
</a>
</g>
</g>
<!-- Node6 -->
<g id="Node000006" class="node">
<title>Node6</title>
<g id="a_Node000006"><a xlink:href="../../d2/de4/windows_2SDL__sysurl_8c.html#ae62f93b5e31af1f224e3d591000f5078" target="_top" xlink:title=" ">
<polygon fill="white" stroke="#666666" points="566.5,-20 456.75,-20 456.75,0 566.5,0 566.5,-20"/>
<text xml:space="preserve" text-anchor="middle" x="511.62" y="-6.5" font-family="Helvetica,sans-Serif" font-size="10.00">SDL_SYS_OpenURL</text>
</a>
</g>
</g>
<!-- Node1&#45;&gt;Node6 -->
<g id="edge6_Node000001_Node000006" class="edge">
<title>Node1&#45;&gt;Node6</title>
<g id="a_edge6_Node000001_Node000006"><a xlink:title=" ">
<path fill="none" stroke="#63b8ff" d="M626.56,-35.08C604.9,-30.31 580.64,-24.97 560.1,-20.45"/>
<polygon fill="#63b8ff" stroke="#63b8ff" points="625.63,-38.46 636.14,-37.19 627.13,-31.62 625.63,-38.46"/>
</a>
</g>
</g>
<!-- Node2&#45;&gt;Node3 -->
<g id="edge2_Node000002_Node000003" class="edge">
<title>Node2&#45;&gt;Node3</title>
<g id="a_edge2_Node000002_Node000003"><a xlink:title=" ">
<path fill="none" stroke="#63b8ff" d="M434.46,-76.93C426.43,-75.97 418.35,-75.01 410.55,-74.08"/>
<polygon fill="#63b8ff" stroke="#63b8ff" points="433.9,-80.39 444.25,-78.09 434.73,-73.43 433.9,-80.39"/>
</a>
</g>
</g>
<!-- Node4 -->
<g id="Node000004" class="node">
<title>Node4</title>
<g id="a_Node000004"><a xlink:href="../../d4/db9/SDL__filesystem_8c.html#ad7e57b7d9eefc17ef78d5d38960ee28b" target="_top" xlink:title=" ">
<polygon fill="white" stroke="#666666" points="254,-77 159.25,-77 159.25,-57 254,-57 254,-77"/>
<text xml:space="preserve" text-anchor="middle" x="206.62" y="-63.5" font-family="Helvetica,sans-Serif" font-size="10.00">SDL_GetPrefPath</text>
</a>
</g>
</g>
<!-- Node3&#45;&gt;Node4 -->
<g id="edge3_Node000003_Node000004" class="edge">
<title>Node3&#45;&gt;Node4</title>
<g id="a_edge3_Node000003_Node000004"><a xlink:title=" ">
<path fill="none" stroke="#63b8ff" d="M278.12,-67C270.02,-67 261.93,-67 254.26,-67"/>
<polygon fill="#63b8ff" stroke="#63b8ff" points="278.01,-70.5 288.01,-67 278.01,-63.5 278.01,-70.5"/>
</a>
</g>
</g>
<!-- Node5 -->
<g id="Node000005" class="node">
<title>Node5</title>
<g id="a_Node000005"><a xlink:href="../../d6/df0/SDL__genericstorage_8c.html#a6fb4f231925c28fb8593e3dd6aa2ebc1" target="_top" xlink:title=" ">
<polygon fill="white" stroke="#666666" points="123.25,-77 0,-77 0,-57 123.25,-57 123.25,-77"/>
<text xml:space="preserve" text-anchor="middle" x="61.62" y="-63.5" font-family="Helvetica,sans-Serif" font-size="10.00">GENERIC_User_Create</text>
</a>
</g>
</g>
<!-- Node4&#45;&gt;Node5 -->
<g id="edge4_Node000004_Node000005" class="edge">
<title>Node4&#45;&gt;Node5</title>
<g id="a_edge4_Node000004_Node000005"><a xlink:title=" ">
<path fill="none" stroke="#63b8ff" d="M147.48,-67C139.62,-67 131.53,-67 123.61,-67"/>
<polygon fill="#63b8ff" stroke="#63b8ff" points="147.29,-70.5 157.29,-67 147.29,-63.5 147.29,-70.5"/>
</a>
</g>
</g>
</g>
</svg>
