<?xml version="1.0" encoding="UTF-8" standalone="no"?>
<!DOCTYPE svg PUBLIC "-//W3C//DTD SVG 1.1//EN"
 "http://www.w3.org/Graphics/SVG/1.1/DTD/svg11.dtd">
<!-- Generated by graphviz version 13.1.0 (20250701.0955)
 -->
<!-- Title: SDL_HasSSE2 Pages: 1 -->
<!--zoomable 306 -->

<svg id="main" version="1.1" xmlns="http://www.w3.org/2000/svg" xmlns:xlink="http://www.w3.org/1999/xlink" xml:space="preserve" onload="init(evt)">

<style type="text/css"><![CDATA[
.node, .edge {opacity: 0.7;}
.node.selected, .edge.selected {opacity: 1;}
.edge:hover path { stroke: red; }
.edge:hover polygon { stroke: red; fill: red; }
]]></style>

<defs>
  <circle id="rim" cx="0" cy="0" r="7"/>
  <circle id="rim2" cx="0" cy="0" r="3.5"/>
  <g id="zoomPlus">
    <use xlink:href="#rim" fill="#404040"><set attributeName="fill" to="#808080" begin="zoomplus.mouseover" end="zoomplus.mouseout"/></use>
    <path d="M-4,0h8M0,-4v8" fill="none" stroke="white" stroke-width="1.5" pointer-events="none"/>
  </g>
  <g id="zoomMin">
    <use xlink:href="#rim" fill="#404040"><set attributeName="fill" to="#808080" begin="zoomminus.mouseover" end="zoomminus.mouseout"/></use>
    <path d="M-4,0h8" fill="none" stroke="white" stroke-width="1.5" pointer-events="none"/>
  </g>
  <g id="arrowUp" transform="translate(30 24)">
    <use xlink:href="#rim"/>
    <path pointer-events="none" fill="none" stroke="white" stroke-width="1.5" d="M0,-3.0v7 M-2.5,-0.5L0,-3.0L2.5,-0.5"/>
  </g>
  <g id="arrowRight" transform="rotate(90) translate(36 -43)">
    <use xlink:href="#rim"/>
    <path pointer-events="none" fill="none" stroke="white" stroke-width="1.5" d="M0,-3.0v7 M-2.5,-0.5L0,-3.0L2.5,-0.5"/>
  </g>
  <g id="arrowDown" transform="rotate(180) translate(-30 -48)">
    <use xlink:href="#rim"/>
    <path pointer-events="none" fill="none" stroke="white" stroke-width="1.5" d="M0,-3.0v7 M-2.5,-0.5L0,-3.0L2.5,-0.5"/>
  </g>
  <g id="arrowLeft" transform="rotate(270) translate(-36 17)">
    <use xlink:href="#rim"/>
    <path pointer-events="none" fill="none" stroke="white" stroke-width="1.5" d="M0,-3.0v7 M-2.5,-0.5L0,-3.0L2.5,-0.5"/>
  </g>
  <g id="resetDef">
    <use xlink:href="#rim2" fill="#404040"><set attributeName="fill" to="#808080" begin="reset.mouseover" end="reset.mouseout"/></use>
  </g>
</defs>
<script type="application/ecmascript">
var viewWidth = 1392;
var viewHeight = 306;
var sectionId = 'dynsection-27';
</script>
<script type="application/ecmascript" xlink:href="../../svg.min.js"/>
<svg id="graph" class="graph">
<g id="viewport">
<title>SDL_HasSSE2</title>
<!-- Node1 -->
<g id="Node000001" class="node">
<title>Node1</title>
<g id="a_Node000001"><a xlink:title=" ">
<polygon fill="#999999" stroke="#666666" points="1383.5,-134 1299.25,-134 1299.25,-114 1383.5,-114 1383.5,-134"/>
<text xml:space="preserve" text-anchor="middle" x="1341.38" y="-120.5" font-family="Helvetica,sans-Serif" font-size="10.00">SDL_HasSSE2</text>
</a>
</g>
</g>
<!-- Node2 -->
<g id="Node000002" class="node">
<title>Node2</title>
<g id="a_Node000002"><a xlink:href="../../d1/dff/SDL__audiotypecvt_8c.html#ab3266fc544d8af85a24669e667fcc2aa" target="_top" xlink:title=" ">
<polygon fill="white" stroke="#666666" points="1263.25,-134 1116,-134 1116,-114 1263.25,-114 1263.25,-134"/>
<text xml:space="preserve" text-anchor="middle" x="1189.62" y="-120.5" font-family="Helvetica,sans-Serif" font-size="10.00">SDL_ChooseAudioConverters</text>
</a>
</g>
</g>
<!-- Node1&#45;&gt;Node2 -->
<g id="edge1_Node000001_Node000002" class="edge">
<title>Node1&#45;&gt;Node2</title>
<g id="a_edge1_Node000001_Node000002"><a xlink:title=" ">
<path fill="none" stroke="#63b8ff" d="M1287.61,-124C1279.87,-124 1271.77,-124 1263.7,-124"/>
<polygon fill="#63b8ff" stroke="#63b8ff" points="1287.55,-127.5 1297.55,-124 1287.55,-120.5 1287.55,-127.5"/>
</a>
</g>
</g>
<!-- Node3 -->
<g id="Node000003" class="node">
<title>Node3</title>
<g id="a_Node000003"><a xlink:href="../../dc/d77/SDL__audiocvt_8c.html#a2156709cb9b9dbcb2b1f07b9f98be580" target="_top" xlink:title=" ">
<polygon fill="white" stroke="#666666" points="1080,-153 953.75,-153 953.75,-133 1080,-133 1080,-153"/>
<text xml:space="preserve" text-anchor="middle" x="1016.88" y="-139.5" font-family="Helvetica,sans-Serif" font-size="10.00">SDL_CreateAudioStream</text>
</a>
</g>
</g>
<!-- Node2&#45;&gt;Node3 -->
<g id="edge2_Node000002_Node000003" class="edge">
<title>Node2&#45;&gt;Node3</title>
<g id="a_edge2_Node000002_Node000003"><a xlink:title=" ">
<path fill="none" stroke="#63b8ff" d="M1104.32,-133.38C1096.24,-134.28 1088.14,-135.18 1080.32,-136.05"/>
<polygon fill="#63b8ff" stroke="#63b8ff" points="1104.66,-136.86 1114.21,-132.28 1103.89,-129.91 1104.66,-136.86"/>
</a>
</g>
</g>
<!-- Node6 -->
<g id="Node000006" class="node">
<title>Node6</title>
<g id="a_Node000006"><a xlink:href="../../d6/d9b/SDL__audio_8c.html#a817d3e1809f55afa3541214c9ddf4e48" target="_top" xlink:title=" ">
<polygon fill="white" stroke="#666666" points="1056.38,-115 977.38,-115 977.38,-95 1056.38,-95 1056.38,-115"/>
<text xml:space="preserve" text-anchor="middle" x="1016.88" y="-101.5" font-family="Helvetica,sans-Serif" font-size="10.00">SDL_InitAudio</text>
</a>
</g>
</g>
<!-- Node2&#45;&gt;Node6 -->
<g id="edge5_Node000002_Node000006" class="edge">
<title>Node2&#45;&gt;Node6</title>
<g id="a_edge5_Node000002_Node000006"><a xlink:title=" ">
<path fill="none" stroke="#63b8ff" d="M1104.71,-114.66C1087.89,-112.79 1071,-110.91 1056.65,-109.31"/>
<polygon fill="#63b8ff" stroke="#63b8ff" points="1103.89,-118.09 1114.21,-115.72 1104.66,-111.14 1103.89,-118.09"/>
</a>
</g>
</g>
<!-- Node4 -->
<g id="Node000004" class="node">
<title>Node4</title>
<g id="a_Node000004"><a xlink:href="../../dc/d77/SDL__audiocvt_8c.html#a90af0e041cebdc41c97e4f30cfdcf01a" target="_top" xlink:title=" ">
<polygon fill="white" stroke="#666666" points="911.38,-191 773.12,-191 773.12,-171 911.38,-171 911.38,-191"/>
<text xml:space="preserve" text-anchor="middle" x="842.25" y="-177.5" font-family="Helvetica,sans-Serif" font-size="10.00">SDL_ConvertAudioSamples</text>
</a>
</g>
</g>
<!-- Node3&#45;&gt;Node4 -->
<g id="edge3_Node000003_Node000004" class="edge">
<title>Node3&#45;&gt;Node4</title>
<g id="a_edge3_Node000003_Node000004"><a xlink:title=" ">
<path fill="none" stroke="#63b8ff" d="M957.19,-155.92C935.53,-160.69 911.27,-166.03 890.72,-170.55"/>
<polygon fill="#63b8ff" stroke="#63b8ff" points="957.76,-159.38 966.77,-153.81 956.25,-152.54 957.76,-159.38"/>
</a>
</g>
</g>
<!-- Node5 -->
<g id="Node000005" class="node">
<title>Node5</title>
<g id="a_Node000005"><a xlink:href="../../d6/d9b/SDL__audio_8c.html#a73ac117b5e299633d58be618680af357" target="_top" xlink:title=" ">
<polygon fill="white" stroke="#666666" points="917.75,-153 766.75,-153 766.75,-133 917.75,-133 917.75,-153"/>
<text xml:space="preserve" text-anchor="middle" x="842.25" y="-139.5" font-family="Helvetica,sans-Serif" font-size="10.00">SDL_OpenAudioDeviceStream</text>
</a>
</g>
</g>
<!-- Node3&#45;&gt;Node5 -->
<g id="edge4_Node000003_Node000005" class="edge">
<title>Node3&#45;&gt;Node5</title>
<g id="a_edge4_Node000003_Node000005"><a xlink:title=" ">
<path fill="none" stroke="#63b8ff" d="M942.07,-143C934.15,-143 926.07,-143 918.13,-143"/>
<polygon fill="#63b8ff" stroke="#63b8ff" points="942.04,-146.5 952.04,-143 942.04,-139.5 942.04,-146.5"/>
</a>
</g>
</g>
<!-- Node7 -->
<g id="Node000007" class="node">
<title>Node7</title>
<g id="a_Node000007"><a xlink:href="../../df/d78/SDL_8c.html#aa33d2b8c0a69b16651f78c26f391b6ef" target="_top" xlink:title=" ">
<polygon fill="white" stroke="#666666" points="894.88,-115 789.62,-115 789.62,-95 894.88,-95 894.88,-115"/>
<text xml:space="preserve" text-anchor="middle" x="842.25" y="-101.5" font-family="Helvetica,sans-Serif" font-size="10.00">SDL_InitSubSystem</text>
</a>
</g>
</g>
<!-- Node6&#45;&gt;Node7 -->
<g id="edge6_Node000006_Node000007" class="edge">
<title>Node6&#45;&gt;Node7</title>
<g id="a_edge6_Node000006_Node000007"><a xlink:title=" ">
<path fill="none" stroke="#63b8ff" d="M965.63,-105C943.53,-105 917.59,-105 895.28,-105"/>
<polygon fill="#63b8ff" stroke="#63b8ff" points="965.62,-108.5 975.62,-105 965.62,-101.5 965.62,-108.5"/>
</a>
</g>
</g>
<!-- Node8 -->
<g id="Node000008" class="node">
<title>Node8</title>
<g id="a_Node000008"><a xlink:href="../../d6/df9/SDL__joystick_8c.html#a7d2531dc4fbc8de52a29ac3ec171a495" target="_top" xlink:title=" ">
<polygon fill="white" stroke="#666666" points="507.38,-286 396.88,-286 396.88,-266 507.38,-266 507.38,-286"/>
<text xml:space="preserve" text-anchor="middle" x="452.12" y="-272.5" font-family="Helvetica,sans-Serif" font-size="10.00">AttemptSensorFusion</text>
</a>
</g>
</g>
<!-- Node7&#45;&gt;Node8 -->
<g id="edge7_Node000007_Node000008" class="edge">
<title>Node7&#45;&gt;Node8</title>
<g id="a_edge7_Node000007_Node000008"><a xlink:title=" ">
<path fill="none" stroke="#63b8ff" d="M779.1,-115.09C774.58,-117.49 770.38,-120.43 766.75,-124 723.13,-166.98 778.08,-218.14 730.75,-257 663.35,-312.33 552.98,-299.08 493.74,-286.46"/>
<polygon fill="#63b8ff" stroke="#63b8ff" points="780.23,-118.42 788.03,-111.24 777.46,-111.99 780.23,-118.42"/>
</a>
</g>
</g>
<!-- Node11 -->
<g id="Node000011" class="node">
<title>Node11</title>
<g id="a_Node000011"><a xlink:href="../../d6/df9/SDL__joystick_8c.html#a94fd638a34a769ff6a7a01738257215c" target="_top" xlink:title=" ">
<polygon fill="white" stroke="#666666" points="683.5,-248 620.25,-248 620.25,-228 683.5,-228 683.5,-248"/>
<text xml:space="preserve" text-anchor="middle" x="651.88" y="-234.5" font-family="Helvetica,sans-Serif" font-size="10.00">IsROGAlly</text>
</a>
</g>
</g>
<!-- Node7&#45;&gt;Node11 -->
<g id="edge10_Node000007_Node000011" class="edge">
<title>Node7&#45;&gt;Node11</title>
<g id="a_edge10_Node000007_Node000011"><a xlink:title=" ">
<path fill="none" stroke="#63b8ff" d="M778.7,-115.89C774.38,-118.12 770.33,-120.8 766.75,-124 733.08,-154.08 764.58,-189.09 730.75,-219 717.93,-230.34 699.45,-235.17 683.71,-237.12"/>
<polygon fill="#63b8ff" stroke="#63b8ff" points="779.93,-119.17 787.75,-112.02 777.18,-112.73 779.93,-119.17"/>
</a>
</g>
</g>
<!-- Node13 -->
<g id="Node000013" class="node">
<title>Node13</title>
<g id="a_Node000013"><a xlink:href="../../df/d78/SDL_8c.html#ac25d0ce460db43ca8c7681eb8e7c5007" target="_top" xlink:title=" ">
<polygon fill="white" stroke="#666666" points="679,-210 624.75,-210 624.75,-190 679,-190 679,-210"/>
<text xml:space="preserve" text-anchor="middle" x="651.88" y="-196.5" font-family="Helvetica,sans-Serif" font-size="10.00">SDL_Init</text>
</a>
</g>
</g>
<!-- Node7&#45;&gt;Node13 -->
<g id="edge13_Node000007_Node000013" class="edge">
<title>Node7&#45;&gt;Node13</title>
<g id="a_edge13_Node000007_Node000013"><a xlink:title=" ">
<path fill="none" stroke="#63b8ff" d="M778.59,-117.08C774.41,-119.05 770.41,-121.34 766.75,-124 742.51,-141.62 755.08,-163.51 730.75,-181 715.84,-191.72 695.6,-196.44 679.49,-198.49"/>
<polygon fill="#63b8ff" stroke="#63b8ff" points="779.88,-120.33 787.87,-113.37 777.28,-113.83 779.88,-120.33"/>
</a>
</g>
</g>
<!-- Node18 -->
<g id="Node000018" class="node">
<title>Node18</title>
<g id="a_Node000018"><a xlink:href="../../d6/df9/SDL__joystick_8c.html#a9340afa4acb6b0fad4affbb99d4fa014" target="_top" xlink:title=" ">
<polygon fill="white" stroke="#666666" points="700,-172 603.75,-172 603.75,-152 700,-152 700,-172"/>
<text xml:space="preserve" text-anchor="middle" x="651.88" y="-158.5" font-family="Helvetica,sans-Serif" font-size="10.00">SDL_InitJoysticks</text>
</a>
</g>
</g>
<!-- Node7&#45;&gt;Node18 -->
<g id="edge18_Node000007_Node000018" class="edge">
<title>Node7&#45;&gt;Node18</title>
<g id="a_edge18_Node000007_Node000018"><a xlink:title=" ">
<path fill="none" stroke="#63b8ff" d="M778.64,-110.82C774.58,-112.12 770.59,-113.52 766.75,-115 749.87,-121.5 747.67,-127.59 730.75,-134 711.23,-141.4 687.85,-146.65 671.83,-151.54"/>
<polygon fill="#63b8ff" stroke="#63b8ff" points="779.41,-114.25 788,-108.06 777.42,-107.53 779.41,-114.25"/>
</a>
</g>
</g>
<!-- Node19 -->
<g id="Node000019" class="node">
<title>Node19</title>
<g id="a_Node000019"><a xlink:href="../../d9/d78/SDL__main__callbacks_8c.html#a3d21b5bf7aa441418de48c5b2856336a" target="_top" xlink:title=" ">
<polygon fill="white" stroke="#666666" points="711.25,-134 592.5,-134 592.5,-114 711.25,-114 711.25,-134"/>
<text xml:space="preserve" text-anchor="middle" x="651.88" y="-120.5" font-family="Helvetica,sans-Serif" font-size="10.00">SDL_InitMainCallbacks</text>
</a>
</g>
</g>
<!-- Node7&#45;&gt;Node19 -->
<g id="edge20_Node000007_Node000019" class="edge">
<title>Node7&#45;&gt;Node19</title>
<g id="a_edge20_Node000007_Node000019"><a xlink:title=" ">
<path fill="none" stroke="#63b8ff" d="M777.98,-111.38C756.55,-113.54 732.72,-115.95 711.65,-118.07"/>
<polygon fill="#63b8ff" stroke="#63b8ff" points="778.17,-114.88 787.77,-110.39 777.47,-107.92 778.17,-114.88"/>
</a>
</g>
</g>
<!-- Node21 -->
<g id="Node000021" class="node">
<title>Node21</title>
<g id="a_Node000021"><a xlink:href="../../df/d78/SDL_8c.html#a8f0bf712ad7ba759f5b6e04e683c67d4" target="_top" xlink:title=" ">
<polygon fill="white" stroke="#666666" points="730.75,-96 573,-96 573,-76 730.75,-76 730.75,-96"/>
<text xml:space="preserve" text-anchor="middle" x="651.88" y="-82.5" font-family="Helvetica,sans-Serif" font-size="10.00">SDL_InitOrIncrementSubsystem</text>
</a>
</g>
</g>
<!-- Node7&#45;&gt;Node21 -->
<g id="edge22_Node000007_Node000021" class="edge">
<title>Node7&#45;&gt;Node21</title>
<g id="a_edge22_Node000007_Node000021"><a xlink:title=" ">
<path fill="none" stroke="#63b8ff" d="M784.38,-93.01C767.62,-90.85 748.99,-88.83 731.13,-87.23"/>
<polygon fill="#63b8ff" stroke="#63b8ff" points="783.77,-96.46 794.15,-94.32 784.7,-89.52 783.77,-96.46"/>
</a>
</g>
</g>
<!-- Node22 -->
<g id="Node000022" class="node">
<title>Node22</title>
<g id="a_Node000022"><a xlink:href="../../dc/de1/SDL__sensor_8c.html#abdb7d6b73a301a2c8558ba80edb32331" target="_top" xlink:title=" ">
<polygon fill="white" stroke="#666666" points="697,-58 606.75,-58 606.75,-38 697,-38 697,-58"/>
<text xml:space="preserve" text-anchor="middle" x="651.88" y="-44.5" font-family="Helvetica,sans-Serif" font-size="10.00">SDL_InitSensors</text>
</a>
</g>
</g>
<!-- Node7&#45;&gt;Node22 -->
<g id="edge24_Node000007_Node000022" class="edge">
<title>Node7&#45;&gt;Node22</title>
<g id="a_edge24_Node000007_Node000022"><a xlink:title=" ">
<path fill="none" stroke="#63b8ff" d="M818.34,-89.52C796.13,-79.29 761.39,-66.99 730.75,-58 719.93,-54.83 708.17,-51.76 697.13,-49.34"/>
<polygon fill="#63b8ff" stroke="#63b8ff" points="816.57,-92.55 827.09,-93.84 819.67,-86.28 816.57,-92.55"/>
</a>
</g>
</g>
<!-- Node23 -->
<g id="Node000023" class="node">
<title>Node23</title>
<g id="a_Node000023"><a xlink:href="../../d6/d3d/SDL__video_8c.html#ac61dc66ab71d039f9b681916d0fcbc6e" target="_top" xlink:title=" ">
<polygon fill="white" stroke="#666666" points="691.38,-20 612.38,-20 612.38,0 691.38,0 691.38,-20"/>
<text xml:space="preserve" text-anchor="middle" x="651.88" y="-6.5" font-family="Helvetica,sans-Serif" font-size="10.00">SDL_VideoInit</text>
</a>
</g>
</g>
<!-- Node7&#45;&gt;Node23 -->
<g id="edge26_Node000007_Node000023" class="edge">
<title>Node7&#45;&gt;Node23</title>
<g id="a_edge26_Node000007_Node000023"><a xlink:title=" ">
<path fill="none" stroke="#63b8ff" d="M826.86,-86.48C806.72,-66.67 768.33,-36.82 730.75,-20 718.56,-14.54 704.56,-10.5 691.82,-8.07"/>
<polygon fill="#63b8ff" stroke="#63b8ff" points="824.07,-88.63 833.51,-93.45 829.14,-83.8 824.07,-88.63"/>
</a>
</g>
</g>
<!-- Node9 -->
<g id="Node000009" class="node">
<title>Node9</title>
<g id="a_Node000009"><a xlink:href="../../d6/df9/SDL__joystick_8c.html#a0c867d96ec6bc9c3aca87c8ee6b53ade" target="_top" xlink:title=" ">
<polygon fill="white" stroke="#666666" points="315.12,-267 214.38,-267 214.38,-247 315.12,-247 315.12,-267"/>
<text xml:space="preserve" text-anchor="middle" x="264.75" y="-253.5" font-family="Helvetica,sans-Serif" font-size="10.00">SDL_OpenJoystick</text>
</a>
</g>
</g>
<!-- Node8&#45;&gt;Node9 -->
<g id="edge8_Node000008_Node000009" class="edge">
<title>Node8&#45;&gt;Node9</title>
<g id="a_edge8_Node000008_Node000009"><a xlink:title=" ">
<path fill="none" stroke="#63b8ff" d="M385.13,-269.24C362.22,-266.89 336.93,-264.3 315.55,-262.1"/>
<polygon fill="#63b8ff" stroke="#63b8ff" points="384.7,-272.71 395,-270.25 385.41,-265.75 384.7,-272.71"/>
</a>
</g>
</g>
<!-- Node10 -->
<g id="Node000010" class="node">
<title>Node10</title>
<g id="a_Node000010"><a xlink:href="../../d0/d82/SDL__gamepad_8c.html#a011496690758b66ec0f7098f030b6d85" target="_top" xlink:title=" ">
<polygon fill="white" stroke="#666666" points="134.12,-267 28.12,-267 28.12,-247 134.12,-247 134.12,-267"/>
<text xml:space="preserve" text-anchor="middle" x="81.12" y="-253.5" font-family="Helvetica,sans-Serif" font-size="10.00">SDL_OpenGamepad</text>
</a>
</g>
</g>
<!-- Node9&#45;&gt;Node10 -->
<g id="edge9_Node000009_Node000010" class="edge">
<title>Node9&#45;&gt;Node10</title>
<g id="a_edge9_Node000009_Node000010"><a xlink:title=" ">
<path fill="none" stroke="#63b8ff" d="M202.82,-257C180.69,-257 155.89,-257 134.55,-257"/>
<polygon fill="#63b8ff" stroke="#63b8ff" points="202.61,-260.5 212.61,-257 202.61,-253.5 202.61,-260.5"/>
</a>
</g>
</g>
<!-- Node12 -->
<g id="Node000012" class="node">
<title>Node12</title>
<g id="a_Node000012"><a xlink:href="../../d6/df9/SDL__joystick_8c.html#a497945f75b33dbfcde319992145025c5" target="_top" xlink:title=" ">
<polygon fill="white" stroke="#666666" points="522.38,-248 381.88,-248 381.88,-228 522.38,-228 522.38,-248"/>
<text xml:space="preserve" text-anchor="middle" x="452.12" y="-234.5" font-family="Helvetica,sans-Serif" font-size="10.00">ShouldAttemptSensorFusion</text>
</a>
</g>
</g>
<!-- Node11&#45;&gt;Node12 -->
<g id="edge11_Node000011_Node000012" class="edge">
<title>Node11&#45;&gt;Node12</title>
<g id="a_edge11_Node000011_Node000012"><a xlink:title=" ">
<path fill="none" stroke="#63b8ff" d="M608.69,-238C583.69,-238 551.39,-238 522.71,-238"/>
<polygon fill="#63b8ff" stroke="#63b8ff" points="608.46,-241.5 618.46,-238 608.46,-234.5 608.46,-241.5"/>
</a>
</g>
</g>
<!-- Node12&#45;&gt;Node9 -->
<g id="edge12_Node000012_Node000009" class="edge">
<title>Node12&#45;&gt;Node9</title>
<g id="a_edge12_Node000012_Node000009"><a xlink:title=" ">
<path fill="none" stroke="#63b8ff" d="M370.36,-246.28C351.68,-248.19 332.33,-250.18 315.44,-251.91"/>
<polygon fill="#63b8ff" stroke="#63b8ff" points="370.47,-249.78 380.07,-245.28 369.76,-242.82 370.47,-249.78"/>
</a>
</g>
</g>
<!-- Node14 -->
<g id="Node000014" class="node">
<title>Node14</title>
<g id="a_Node000014"><a xlink:href="../../d6/d3d/SDL__video_8c.html#a9f3d88531134e2c3e575a3c2db7f8488" target="_top" xlink:title=" ">
<polygon fill="white" stroke="#666666" points="537,-210 367.25,-210 367.25,-190 537,-190 537,-210"/>
<text xml:space="preserve" text-anchor="middle" x="452.12" y="-196.5" font-family="Helvetica,sans-Serif" font-size="10.00">SDL_CreateWindowWithProperties</text>
</a>
</g>
</g>
<!-- Node13&#45;&gt;Node14 -->
<g id="edge14_Node000013_Node000014" class="edge">
<title>Node13&#45;&gt;Node14</title>
<g id="a_edge14_Node000013_Node000014"><a xlink:title=" ">
<path fill="none" stroke="#63b8ff" d="M613.37,-200C591.84,-200 563.89,-200 537.38,-200"/>
<polygon fill="#63b8ff" stroke="#63b8ff" points="613.1,-203.5 623.1,-200 613.1,-196.5 613.1,-203.5"/>
</a>
</g>
</g>
<!-- Node15 -->
<g id="Node000015" class="node">
<title>Node15</title>
<g id="a_Node000015"><a xlink:href="../../d6/d3d/SDL__video_8c.html#acc26de39ce1bd675446e4d6c05ebf4b0" target="_top" xlink:title=" ">
<polygon fill="white" stroke="#666666" points="331.25,-229 198.25,-229 198.25,-209 331.25,-209 331.25,-229"/>
<text xml:space="preserve" text-anchor="middle" x="264.75" y="-215.5" font-family="Helvetica,sans-Serif" font-size="10.00">SDL_CreatePopupWindow</text>
</a>
</g>
</g>
<!-- Node14&#45;&gt;Node15 -->
<g id="edge15_Node000014_Node000015" class="edge">
<title>Node14&#45;&gt;Node15</title>
<g id="a_edge15_Node000014_Node000015"><a xlink:title=" ">
<path fill="none" stroke="#63b8ff" d="M355.42,-209.81C347.33,-210.64 339.27,-211.46 331.5,-212.26"/>
<polygon fill="#63b8ff" stroke="#63b8ff" points="355.75,-213.29 365.34,-208.79 355.03,-206.33 355.75,-213.29"/>
</a>
</g>
</g>
<!-- Node16 -->
<g id="Node000016" class="node">
<title>Node16</title>
<g id="a_Node000016"><a xlink:href="../../d6/d3d/SDL__video_8c.html#a83103c86f9e5c33ab9e1fb6dfa904b7f" target="_top" xlink:title=" ">
<polygon fill="white" stroke="#666666" points="317.38,-191 212.12,-191 212.12,-171 317.38,-171 317.38,-191"/>
<text xml:space="preserve" text-anchor="middle" x="264.75" y="-177.5" font-family="Helvetica,sans-Serif" font-size="10.00">SDL_CreateWindow</text>
</a>
</g>
</g>
<!-- Node14&#45;&gt;Node16 -->
<g id="edge16_Node000014_Node000016" class="edge">
<title>Node14&#45;&gt;Node16</title>
<g id="a_edge16_Node000014_Node000016"><a xlink:title=" ">
<path fill="none" stroke="#63b8ff" d="M355.44,-190.19C342.45,-188.86 329.54,-187.54 317.73,-186.33"/>
<polygon fill="#63b8ff" stroke="#63b8ff" points="355.03,-193.67 365.34,-191.21 355.75,-186.71 355.03,-193.67"/>
</a>
</g>
</g>
<!-- Node17 -->
<g id="Node000017" class="node">
<title>Node17</title>
<g id="a_Node000017"><a xlink:href="../../dd/df3/SDL__render_8c.html#a36f859fae15e4277ba052f9ecfb2816d" target="_top" xlink:title=" ">
<polygon fill="white" stroke="#666666" points="162.25,-191 0,-191 0,-171 162.25,-171 162.25,-191"/>
<text xml:space="preserve" text-anchor="middle" x="81.12" y="-177.5" font-family="Helvetica,sans-Serif" font-size="10.00">SDL_CreateWindowAndRenderer</text>
</a>
</g>
</g>
<!-- Node16&#45;&gt;Node17 -->
<g id="edge17_Node000016_Node000017" class="edge">
<title>Node16&#45;&gt;Node17</title>
<g id="a_edge17_Node000016_Node000017"><a xlink:title=" ">
<path fill="none" stroke="#63b8ff" d="M200.3,-181C188.14,-181 175.26,-181 162.64,-181"/>
<polygon fill="#63b8ff" stroke="#63b8ff" points="200.19,-184.5 210.19,-181 200.19,-177.5 200.19,-184.5"/>
</a>
</g>
</g>
<!-- Node18&#45;&gt;Node7 -->
<g id="edge19_Node000018_Node000007" class="edge">
<title>Node18&#45;&gt;Node7</title>
<g id="a_edge19_Node000018_Node000007"><a xlink:title=" ">
<path fill="none" stroke="#63b8ff" d="M711.44,-158.32C718.03,-156.46 724.58,-154.34 730.75,-152 747.67,-145.59 749.87,-139.5 766.75,-133 785.56,-125.76 808.1,-120.45 823.42,-115.46"/>
<polygon fill="#63b8ff" stroke="#63b8ff" points="710.67,-154.9 701.86,-160.79 712.41,-161.68 710.67,-154.9"/>
</a>
</g>
</g>
<!-- Node20 -->
<g id="Node000020" class="node">
<title>Node20</title>
<g id="a_Node000020"><a xlink:href="../../dd/db5/generic_2SDL__sysmain__callbacks_8c.html#aa50e1897a91f2547b5f31125020220e2" target="_top" xlink:title=" ">
<polygon fill="white" stroke="#666666" points="525,-134 379.25,-134 379.25,-114 525,-114 525,-134"/>
<text xml:space="preserve" text-anchor="middle" x="452.12" y="-120.5" font-family="Helvetica,sans-Serif" font-size="10.00">SDL_EnterAppMainCallbacks</text>
</a>
</g>
</g>
<!-- Node19&#45;&gt;Node20 -->
<g id="edge21_Node000019_Node000020" class="edge">
<title>Node19&#45;&gt;Node20</title>
<g id="a_edge21_Node000019_Node000020"><a xlink:title=" ">
<path fill="none" stroke="#63b8ff" d="M580.79,-124C562.81,-124 543.44,-124 525.35,-124"/>
<polygon fill="#63b8ff" stroke="#63b8ff" points="580.57,-127.5 590.57,-124 580.57,-120.5 580.57,-127.5"/>
</a>
</g>
</g>
<!-- Node21&#45;&gt;Node7 -->
<g id="edge23_Node000021_Node000007" class="edge">
<title>Node21&#45;&gt;Node7</title>
<g id="a_edge23_Node000021_Node000007"><a xlink:title=" ">
<path fill="none" stroke="#63b8ff" d="M709.86,-98.01C735.12,-101.26 764.63,-104.18 789.28,-105.87"/>
<polygon fill="#63b8ff" stroke="#63b8ff" points="710.46,-94.56 700.09,-96.69 709.53,-101.49 710.46,-94.56"/>
</a>
</g>
</g>
<!-- Node22&#45;&gt;Node7 -->
<g id="edge25_Node000022_Node000007" class="edge">
<title>Node22&#45;&gt;Node7</title>
<g id="a_edge25_Node000022_Node000007"><a xlink:title=" ">
<path fill="none" stroke="#63b8ff" d="M680.03,-61.93C695.07,-66.45 714.04,-71.1 730.75,-76 750.02,-81.65 770.91,-88.62 789.29,-94.51"/>
<polygon fill="#63b8ff" stroke="#63b8ff" points="681.43,-58.7 670.84,-58.96 679.28,-65.36 681.43,-58.7"/>
</a>
</g>
</g>
<!-- Node23&#45;&gt;Node7 -->
<g id="edge27_Node000023_Node000007" class="edge">
<title>Node23&#45;&gt;Node7</title>
<g id="a_edge27_Node000023_Node000007"><a xlink:title=" ">
<path fill="none" stroke="#63b8ff" d="M684.95,-23.31C699.36,-27.07 716.32,-31.54 730.75,-38 765.18,-53.41 800.28,-79.75 821.42,-94.74"/>
<polygon fill="#63b8ff" stroke="#63b8ff" points="686.07,-19.99 675.51,-20.81 684.28,-26.75 686.07,-19.99"/>
</a>
</g>
</g>
</g>
</svg>

<g id="navigator" transform="translate(0 0)" fill="#404254">
  <rect fill="#f2f5e9" fill-opacity="0.5" stroke="#606060" stroke-width=".5" x="0" y="0" width="60" height="60"/>
  <use id="zoomplus" xlink:href="#zoomPlus" x="17" y="9" onmousedown="handleZoom(evt,'in')"/>
  <use id="zoomminus" xlink:href="#zoomMin" x="42" y="9" onmousedown="handleZoom(evt,'out')"/>
  <use id="reset" xlink:href="#resetDef" x="30" y="36" onmousedown="handleReset()"/>
   <use id="arrowup" xlink:href="#arrowUp" x="0" y="0" onmousedown="handlePan(0,-1)"/>
  <use id="arrowright" xlink:href="#arrowRight" x="0" y="0" onmousedown="handlePan(1,0)"/>
  <use id="arrowdown" xlink:href="#arrowDown" x="0" y="0" onmousedown="handlePan(0,1)"/>
  <use id="arrowleft" xlink:href="#arrowLeft" x="0" y="0" onmousedown="handlePan(-1,0)"/>
</g>
<svg viewBox="0 0 15 15" width="100%" height="30px" preserveAspectRatio="xMaxYMin meet">
 <g id="arrow_out" transform="scale(0.3 0.3)">
  <a xlink:href="SDL__cpuinfo_8c_a11c6895f170eb908999f72d98359d372_icgraph_org.svg" target="_base">
   <rect id="button" ry="5" rx="5" y="6" x="6" height="38" width="38"
        fill="#f2f5e9" fill-opacity="0.5" stroke="#606060" stroke-width="1.0"/>
   <path id="arrow"
     d="M 11.500037,31.436501 C 11.940474,20.09759 22.043105,11.32322 32.158766,21.979434 L 37.068811,17.246167 C 37.068811,17.246167 37.088388,32 37.088388,32 L 22.160133,31.978069 C 22.160133,31.978069 26.997745,27.140456 26.997745,27.140456 C 18.528582,18.264221 13.291696,25.230495 11.500037,31.436501 z"
     style="fill:#404040;"/>
  </a>
 </g>
</svg>

<style type='text/css'>
<![CDATA[
[data-mouse-over-selected='false'] { opacity: 0.7; }
[data-mouse-over-selected='true']  { opacity: 1.0; }
]]>
</style>
<script type="application/ecmascript"><![CDATA[
document.addEventListener('DOMContentLoaded', (event) => {
  highlightEdges();
  highlightAdjacentNodes();
});
]]></script>
</svg>
