<?xml version="1.0" encoding="UTF-8" standalone="no"?>
<!DOCTYPE svg PUBLIC "-//W3C//DTD SVG 1.1//EN"
 "http://www.w3.org/Graphics/SVG/1.1/DTD/svg11.dtd">
<!-- Generated by graphviz version 13.1.0 (20250701.0955)
 -->
<!-- Title: SDL_GetCPUCacheLineSize Pages: 1 -->
<svg width="587pt" height="142pt"
 viewBox="0.00 0.00 587.00 142.00" xmlns="http://www.w3.org/2000/svg" xmlns:xlink="http://www.w3.org/1999/xlink">
<g id="graph0" class="graph" transform="scale(1 1) rotate(0) translate(4 138)">
<title>SDL_GetCPUCacheLineSize</title>
<!-- Node1 -->
<g id="Node000001" class="node">
<title>Node1</title>
<g id="a_Node000001"><a xlink:title=" ">
<polygon fill="#999999" stroke="#666666" points="144.25,-58 0,-58 0,-38 144.25,-38 144.25,-58"/>
<text xml:space="preserve" text-anchor="middle" x="72.12" y="-44.5" font-family="Helvetica,sans-Serif" font-size="10.00">SDL_GetCPUCacheLineSize</text>
</a>
</g>
</g>
<!-- Node2 -->
<g id="Node000002" class="node">
<title>Node2</title>
<g id="a_Node000002"><a xlink:href="../../d8/d58/SDL__cpuinfo_8c.html#a59f3e65fddb47fb609a02a2e585180d4" target="_top" xlink:title=" ">
<polygon fill="white" stroke="#666666" points="279.5,-96 180.25,-96 180.25,-76 279.5,-76 279.5,-96"/>
<text xml:space="preserve" text-anchor="middle" x="229.88" y="-82.5" font-family="Helvetica,sans-Serif" font-size="10.00">SDL_GetCPUType</text>
</a>
</g>
</g>
<!-- Node1&#45;&gt;Node2 -->
<g id="edge1_Node000001_Node000002" class="edge">
<title>Node1&#45;&gt;Node2</title>
<g id="a_edge1_Node000001_Node000002"><a xlink:title=" ">
<path fill="none" stroke="#63b8ff" d="M116.1,-58.48C134.31,-62.93 155.74,-68.16 175,-72.85"/>
<polygon fill="#63b8ff" stroke="#63b8ff" points="174.03,-76.22 184.57,-75.19 175.69,-69.42 174.03,-76.22"/>
</a>
</g>
</g>
<!-- Node6 -->
<g id="Node000006" class="node">
<title>Node6</title>
<g id="a_Node000006"><a xlink:href="../../d3/dda/eglext_8h.html#a0f7193911e632cd84da4082d5c628fe3" target="_top" xlink:title=" ">
<polygon fill="white" stroke="#666666" points="398.25,-58 364.25,-58 364.25,-38 398.25,-38 398.25,-58"/>
<text xml:space="preserve" text-anchor="middle" x="381.25" y="-44.5" font-family="Helvetica,sans-Serif" font-size="10.00">void</text>
</a>
</g>
</g>
<!-- Node1&#45;&gt;Node6 -->
<g id="edge7_Node000001_Node000006" class="edge">
<title>Node1&#45;&gt;Node6</title>
<g id="a_edge7_Node000001_Node000006"><a xlink:title=" ">
<path fill="none" stroke="#63b8ff" d="M144.74,-48C210.99,-48 306.01,-48 352.5,-48"/>
<polygon fill="#63b8ff" stroke="#63b8ff" points="352.48,-51.5 362.48,-48 352.48,-44.5 352.48,-51.5"/>
</a>
</g>
</g>
<!-- Node7 -->
<g id="Node000007" class="node">
<title>Node7</title>
<g id="a_Node000007"><a xlink:href="../../d2/d23/SDL__string_8c.html#aadec2adb3f8bfe52b3120a16e1d2d66f" target="_top" xlink:title=" ">
<polygon fill="white" stroke="#666666" points="265.25,-20 194.5,-20 194.5,0 265.25,0 265.25,-20"/>
<text xml:space="preserve" text-anchor="middle" x="229.88" y="-6.5" font-family="Helvetica,sans-Serif" font-size="10.00">SDL_strcmp</text>
</a>
</g>
</g>
<!-- Node1&#45;&gt;Node7 -->
<g id="edge6_Node000001_Node000007" class="edge">
<title>Node1&#45;&gt;Node7</title>
<g id="a_edge6_Node000001_Node000007"><a xlink:title=" ">
<path fill="none" stroke="#63b8ff" d="M116.1,-37.52C136.93,-32.43 161.97,-26.32 183.16,-21.15"/>
<polygon fill="#63b8ff" stroke="#63b8ff" points="183.81,-24.6 192.69,-18.83 182.15,-17.8 183.81,-24.6"/>
</a>
</g>
</g>
<!-- Node3 -->
<g id="Node000003" class="node">
<title>Node3</title>
<g id="a_Node000003"><a xlink:href="../../d8/d58/SDL__cpuinfo_8c.html#a8cf3da498c43e24a1aa3ee46ae12bdd9" target="_top" xlink:title=" ">
<polygon fill="white" stroke="#666666" points="447,-134 315.5,-134 315.5,-114 447,-114 447,-134"/>
<text xml:space="preserve" text-anchor="middle" x="381.25" y="-120.5" font-family="Helvetica,sans-Serif" font-size="10.00">CPU_calcCPUIDFeatures</text>
</a>
</g>
</g>
<!-- Node2&#45;&gt;Node3 -->
<g id="edge2_Node000002_Node000003" class="edge">
<title>Node2&#45;&gt;Node3</title>
<g id="a_edge2_Node000002_Node000003"><a xlink:title=" ">
<path fill="none" stroke="#63b8ff" d="M272.09,-96.48C289.39,-100.89 309.72,-106.06 328.06,-110.72"/>
<polygon fill="#63b8ff" stroke="#63b8ff" points="327.15,-114.1 337.7,-113.18 328.88,-107.32 327.15,-114.1"/>
</a>
</g>
</g>
<!-- Node5 -->
<g id="Node000005" class="node">
<title>Node5</title>
<g id="a_Node000005"><a xlink:href="../../d2/d5b/SDL__stdinc_8h.html#a490388bcb3278665a58918183f35f4b4" target="_top" xlink:title=" ">
<polygon fill="white" stroke="#666666" points="416.25,-96 346.25,-96 346.25,-76 416.25,-76 416.25,-96"/>
<text xml:space="preserve" text-anchor="middle" x="381.25" y="-82.5" font-family="Helvetica,sans-Serif" font-size="10.00">SDL_strlcpy</text>
</a>
</g>
</g>
<!-- Node2&#45;&gt;Node5 -->
<g id="edge4_Node000002_Node000005" class="edge">
<title>Node2&#45;&gt;Node5</title>
<g id="a_edge4_Node000002_Node000005"><a xlink:title=" ">
<path fill="none" stroke="#63b8ff" d="M279.79,-86C297.51,-86 317.45,-86 334.86,-86"/>
<polygon fill="#63b8ff" stroke="#63b8ff" points="334.38,-89.5 344.38,-86 334.38,-82.5 334.38,-89.5"/>
</a>
</g>
</g>
<!-- Node2&#45;&gt;Node6 -->
<g id="edge5_Node000002_Node000006" class="edge">
<title>Node2&#45;&gt;Node6</title>
<g id="a_edge5_Node000002_Node000006"><a xlink:title=" ">
<path fill="none" stroke="#63b8ff" d="M272.09,-75.52C297.85,-68.96 330.32,-60.7 352.93,-54.95"/>
<polygon fill="#63b8ff" stroke="#63b8ff" points="353.77,-58.35 362.6,-52.49 352.05,-51.56 353.77,-58.35"/>
</a>
</g>
</g>
<!-- Node4 -->
<g id="Node000004" class="node">
<title>Node4</title>
<g id="a_Node000004"><a xlink:href="../../d8/d58/SDL__cpuinfo_8c.html#a529ae4d6e2c08233bb75938b7d84d7f5" target="_top" xlink:title=" ">
<polygon fill="white" stroke="#666666" points="579.25,-134 483,-134 483,-114 579.25,-114 579.25,-134"/>
<text xml:space="preserve" text-anchor="middle" x="531.12" y="-120.5" font-family="Helvetica,sans-Serif" font-size="10.00">CPU_haveCPUID</text>
</a>
</g>
</g>
<!-- Node3&#45;&gt;Node4 -->
<g id="edge3_Node000003_Node000004" class="edge">
<title>Node3&#45;&gt;Node4</title>
<g id="a_edge3_Node000003_Node000004"><a xlink:title=" ">
<path fill="none" stroke="#63b8ff" d="M447.11,-124C455.14,-124 463.31,-124 471.25,-124"/>
<polygon fill="#63b8ff" stroke="#63b8ff" points="471.14,-127.5 481.14,-124 471.14,-120.5 471.14,-127.5"/>
</a>
</g>
</g>
</g>
</svg>
