<?xml version="1.0" encoding="UTF-8" standalone="no"?>
<!DOCTYPE svg PUBLIC "-//W3C//DTD SVG 1.1//EN"
 "http://www.w3.org/Graphics/SVG/1.1/DTD/svg11.dtd">
<!-- Generated by graphviz version 13.1.0 (20250701.0955)
 -->
<!-- Title: SDL&#45;main/src/hidapi/windows/hidapi_winapi.h Pages: 1 -->
<svg width="236pt" height="152pt"
 viewBox="0.00 0.00 236.00 152.00" xmlns="http://www.w3.org/2000/svg" xmlns:xlink="http://www.w3.org/1999/xlink">
<g id="graph0" class="graph" transform="scale(1 1) rotate(0) translate(4 148)">
<title>SDL&#45;main/src/hidapi/windows/hidapi_winapi.h</title>
<!-- Node1 -->
<g id="Node000001" class="node">
<title>Node1</title>
<g id="a_Node000001"><a xlink:title=" ">
<polygon fill="#999999" stroke="#666666" points="157.62,-144 30.62,-144 30.62,-112 157.62,-112 157.62,-144"/>
<text xml:space="preserve" text-anchor="start" x="38.62" y="-130.5" font-family="Helvetica,sans-Serif" font-size="10.00">SDL&#45;main/src/hidapi</text>
<text xml:space="preserve" text-anchor="middle" x="94.12" y="-118.5" font-family="Helvetica,sans-Serif" font-size="10.00">/windows/hidapi_winapi.h</text>
</a>
</g>
</g>
<!-- Node2 -->
<g id="Node000002" class="node">
<title>Node2</title>
<g id="a_Node000002"><a xlink:title=" ">
<polygon fill="#e0e0e0" stroke="#999999" points="48.25,-76 0,-76 0,-56 48.25,-56 48.25,-76"/>
<text xml:space="preserve" text-anchor="middle" x="24.12" y="-62.5" font-family="Helvetica,sans-Serif" font-size="10.00">stdint.h</text>
</a>
</g>
</g>
<!-- Node1&#45;&gt;Node2 -->
<g id="edge1_Node000001_Node000002" class="edge">
<title>Node1&#45;&gt;Node2</title>
<g id="a_edge1_Node000001_Node000002"><a xlink:title=" ">
<path fill="none" stroke="#63b8ff" d="M76.1,-111.55C66.17,-103.04 53.85,-92.48 43.69,-83.77"/>
<polygon fill="#63b8ff" stroke="#63b8ff" points="46.12,-81.24 36.25,-77.39 41.56,-86.56 46.12,-81.24"/>
</a>
</g>
</g>
<!-- Node3 -->
<g id="Node000003" class="node">
<title>Node3</title>
<g id="a_Node000003"><a xlink:title=" ">
<polygon fill="#e0e0e0" stroke="#999999" points="122,-76 66.25,-76 66.25,-56 122,-56 122,-76"/>
<text xml:space="preserve" text-anchor="middle" x="94.12" y="-62.5" font-family="Helvetica,sans-Serif" font-size="10.00">guiddef.h</text>
</a>
</g>
</g>
<!-- Node1&#45;&gt;Node3 -->
<g id="edge2_Node000001_Node000003" class="edge">
<title>Node1&#45;&gt;Node3</title>
<g id="a_edge2_Node000001_Node000003"><a xlink:title=" ">
<path fill="none" stroke="#63b8ff" d="M94.12,-111.55C94.12,-104.34 94.12,-95.66 94.12,-87.88"/>
<polygon fill="#63b8ff" stroke="#63b8ff" points="97.63,-87.92 94.13,-77.92 90.63,-87.92 97.63,-87.92"/>
</a>
</g>
</g>
<!-- Node4 -->
<g id="Node000004" class="node">
<title>Node4</title>
<g id="a_Node000004"><a xlink:href="../../dc/dd0/hidapi_8h.html" target="_top" xlink:title=" ">
<polygon fill="white" stroke="#666666" points="227.75,-76 140.5,-76 140.5,-56 227.75,-56 227.75,-76"/>
<text xml:space="preserve" text-anchor="middle" x="184.12" y="-62.5" font-family="Helvetica,sans-Serif" font-size="10.00">../hidapi/hidapi.h</text>
</a>
</g>
</g>
<!-- Node1&#45;&gt;Node4 -->
<g id="edge3_Node000001_Node000004" class="edge">
<title>Node1&#45;&gt;Node4</title>
<g id="a_edge3_Node000001_Node000004"><a xlink:title=" ">
<path fill="none" stroke="#63b8ff" d="M117.3,-111.55C130.58,-102.69 147.21,-91.61 160.56,-82.71"/>
<polygon fill="#63b8ff" stroke="#63b8ff" points="162.37,-85.71 168.75,-77.25 158.49,-79.88 162.37,-85.71"/>
</a>
</g>
</g>
<!-- Node5 -->
<g id="Node000005" class="node">
<title>Node5</title>
<g id="a_Node000005"><a xlink:title=" ">
<polygon fill="#e0e0e0" stroke="#999999" points="209.38,-20 158.88,-20 158.88,0 209.38,0 209.38,-20"/>
<text xml:space="preserve" text-anchor="middle" x="184.12" y="-6.5" font-family="Helvetica,sans-Serif" font-size="10.00">wchar.h</text>
</a>
</g>
</g>
<!-- Node4&#45;&gt;Node5 -->
<g id="edge4_Node000004_Node000005" class="edge">
<title>Node4&#45;&gt;Node5</title>
<g id="a_edge4_Node000004_Node000005"><a xlink:title=" ">
<path fill="none" stroke="#63b8ff" d="M184.12,-55.59C184.12,-49.01 184.12,-39.96 184.12,-31.73"/>
<polygon fill="#63b8ff" stroke="#63b8ff" points="187.63,-31.81 184.13,-21.81 180.63,-31.81 187.63,-31.81"/>
</a>
</g>
</g>
</g>
</svg>
