<?xml version="1.0" encoding="UTF-8" standalone="no"?>
<!DOCTYPE svg PUBLIC "-//W3C//DTD SVG 1.1//EN"
 "http://www.w3.org/Graphics/SVG/1.1/DTD/svg11.dtd">
<!-- Generated by graphviz version 13.1.0 (20250701.0955)
 -->
<!-- Title: SDL_RenderTexture Pages: 1 -->
<svg width="1005pt" height="218pt"
 viewBox="0.00 0.00 1005.00 218.00" xmlns="http://www.w3.org/2000/svg" xmlns:xlink="http://www.w3.org/1999/xlink">
<g id="graph0" class="graph" transform="scale(1 1) rotate(0) translate(4 214)">
<title>SDL_RenderTexture</title>
<!-- Node1 -->
<g id="Node000001" class="node">
<title>Node1</title>
<g id="a_Node000001"><a xlink:title=" ">
<polygon fill="#999999" stroke="#666666" points="996.75,-115 892.25,-115 892.25,-95 996.75,-95 996.75,-115"/>
<text xml:space="preserve" text-anchor="middle" x="944.5" y="-101.5" font-family="Helvetica,sans-Serif" font-size="10.00">SDL_RenderTexture</text>
</a>
</g>
</g>
<!-- Node2 -->
<g id="Node000002" class="node">
<title>Node2</title>
<g id="a_Node000002"><a xlink:href="../../dd/df3/SDL__render_8c.html#a27f2d6409bf2ef0e406ee84cbe1400c0" target="_top" xlink:title=" ">
<polygon fill="white" stroke="#666666" points="831.5,-210 721,-210 721,-190 831.5,-190 831.5,-210"/>
<text xml:space="preserve" text-anchor="middle" x="776.25" y="-196.5" font-family="Helvetica,sans-Serif" font-size="10.00">DrawDebugCharacter</text>
</a>
</g>
</g>
<!-- Node1&#45;&gt;Node2 -->
<g id="edge1_Node000001_Node000002" class="edge">
<title>Node1&#45;&gt;Node2</title>
<g id="a_edge1_Node000001_Node000002"><a xlink:title=" ">
<path fill="none" stroke="#63b8ff" d="M927.19,-123.64C910.93,-141.06 884.37,-166.49 856.25,-181 848.6,-184.95 840.11,-188.09 831.62,-190.59"/>
<polygon fill="#63b8ff" stroke="#63b8ff" points="929.56,-126.24 933.69,-116.48 924.38,-121.53 929.56,-126.24"/>
</a>
</g>
</g>
<!-- Node5 -->
<g id="Node000005" class="node">
<title>Node5</title>
<g id="a_Node000005"><a xlink:href="../../dd/df3/SDL__render_8c.html#a00ff4c00fc3f0f1cd18c189c47362fe8" target="_top" xlink:title=" ">
<polygon fill="white" stroke="#666666" points="856.25,-172 696.25,-172 696.25,-152 856.25,-152 856.25,-172"/>
<text xml:space="preserve" text-anchor="middle" x="776.25" y="-158.5" font-family="Helvetica,sans-Serif" font-size="10.00">SDL_RenderApplyWindowShape</text>
</a>
</g>
</g>
<!-- Node1&#45;&gt;Node5 -->
<g id="edge4_Node000001_Node000005" class="edge">
<title>Node1&#45;&gt;Node5</title>
<g id="a_edge4_Node000001_Node000005"><a xlink:title=" ">
<path fill="none" stroke="#63b8ff" d="M906.61,-119.58C891.13,-125.53 872.9,-132.33 856.25,-138 842.41,-142.71 827.06,-147.48 813.59,-151.51"/>
<polygon fill="#63b8ff" stroke="#63b8ff" points="907.85,-122.85 915.91,-115.97 905.32,-116.32 907.85,-122.85"/>
</a>
</g>
</g>
<!-- Node7 -->
<g id="Node000007" class="node">
<title>Node7</title>
<g id="a_Node000007"><a xlink:href="../../d6/d3d/SDL__video_8c.html#af9c2e408ee20cc71dbff39d4fb0f7594" target="_top" xlink:title=" ">
<polygon fill="white" stroke="#666666" points="499.5,-153 359.75,-153 359.75,-133 499.5,-133 499.5,-153"/>
<text xml:space="preserve" text-anchor="middle" x="429.62" y="-139.5" font-family="Helvetica,sans-Serif" font-size="10.00">SDL_UpdateWindowTexture</text>
</a>
</g>
</g>
<!-- Node1&#45;&gt;Node7 -->
<g id="edge12_Node000001_Node000007" class="edge">
<title>Node1&#45;&gt;Node7</title>
<g id="a_edge12_Node000001_Node000007"><a xlink:title=" ">
<path fill="none" stroke="#63b8ff" d="M880.65,-109.66C784.16,-116.81 600.2,-130.44 499.95,-137.86"/>
<polygon fill="#63b8ff" stroke="#63b8ff" points="880.75,-113.16 890.47,-108.93 880.23,-106.18 880.75,-113.16"/>
</a>
</g>
</g>
<!-- Node10 -->
<g id="Node000010" class="node">
<title>Node10</title>
<g id="a_Node000010"><a xlink:href="../../dd/df3/SDL__render_8c.html#a0e67500547e7c04b9537a1f3a5043aa9" target="_top" xlink:title=" ">
<polygon fill="white" stroke="#666666" points="840.12,-96 712.38,-96 712.38,-76 840.12,-76 840.12,-96"/>
<text xml:space="preserve" text-anchor="middle" x="776.25" y="-82.5" font-family="Helvetica,sans-Serif" font-size="10.00">SDL_RenderTexture9Grid</text>
</a>
</g>
</g>
<!-- Node1&#45;&gt;Node10 -->
<g id="edge9_Node000001_Node000010" class="edge">
<title>Node1&#45;&gt;Node10</title>
<g id="a_edge9_Node000001_Node000010"><a xlink:title=" ">
<path fill="none" stroke="#63b8ff" d="M880.54,-97.8C867.47,-96.31 853.7,-94.74 840.62,-93.24"/>
<polygon fill="#63b8ff" stroke="#63b8ff" points="879.97,-101.26 890.31,-98.92 880.77,-94.31 879.97,-101.26"/>
</a>
</g>
</g>
<!-- Node11 -->
<g id="Node000011" class="node">
<title>Node11</title>
<g id="a_Node000011"><a xlink:href="../../dd/df3/SDL__render_8c.html#a49b9002213c3ff97b44cf0102bdbbc90" target="_top" xlink:title=" ">
<polygon fill="white" stroke="#666666" points="850.62,-58 701.88,-58 701.88,-38 850.62,-38 850.62,-58"/>
<text xml:space="preserve" text-anchor="middle" x="776.25" y="-44.5" font-family="Helvetica,sans-Serif" font-size="10.00">SDL_RenderTexture9GridTiled</text>
</a>
</g>
</g>
<!-- Node1&#45;&gt;Node11 -->
<g id="edge10_Node000001_Node000011" class="edge">
<title>Node1&#45;&gt;Node11</title>
<g id="a_edge10_Node000001_Node000011"><a xlink:title=" ">
<path fill="none" stroke="#63b8ff" d="M912.28,-89.82C895.87,-82.25 875.27,-73.37 856.25,-67 846.75,-63.82 836.45,-60.94 826.51,-58.44"/>
<polygon fill="#63b8ff" stroke="#63b8ff" points="910.49,-92.84 921.03,-93.92 913.46,-86.51 910.49,-92.84"/>
</a>
</g>
</g>
<!-- Node12 -->
<g id="Node000012" class="node">
<title>Node12</title>
<g id="a_Node000012"><a xlink:href="../../dd/df3/SDL__render_8c.html#a5e93c2d8d7f28f4e3bc0e8d9b5df170a" target="_top" xlink:title=" ">
<polygon fill="white" stroke="#666666" points="845.75,-20 706.75,-20 706.75,0 845.75,0 845.75,-20"/>
<text xml:space="preserve" text-anchor="middle" x="776.25" y="-6.5" font-family="Helvetica,sans-Serif" font-size="10.00">SDL_RenderTextureRotated</text>
</a>
</g>
</g>
<!-- Node1&#45;&gt;Node12 -->
<g id="edge11_Node000001_Node000012" class="edge">
<title>Node1&#45;&gt;Node12</title>
<g id="a_edge11_Node000001_Node000012"><a xlink:title=" ">
<path fill="none" stroke="#63b8ff" d="M927.19,-86.36C910.93,-68.94 884.37,-43.51 856.25,-29 849.61,-25.57 842.33,-22.75 834.96,-20.43"/>
<polygon fill="#63b8ff" stroke="#63b8ff" points="924.38,-88.47 933.69,-93.52 929.56,-83.76 924.38,-88.47"/>
</a>
</g>
</g>
<!-- Node3 -->
<g id="Node000003" class="node">
<title>Node3</title>
<g id="a_Node000003"><a xlink:href="../../dd/df3/SDL__render_8c.html#abea8c4ab0178e48c260dbf830cf7fd17" target="_top" xlink:title=" ">
<polygon fill="white" stroke="#666666" points="660.25,-210 540.75,-210 540.75,-190 660.25,-190 660.25,-210"/>
<text xml:space="preserve" text-anchor="middle" x="600.5" y="-196.5" font-family="Helvetica,sans-Serif" font-size="10.00">SDL_RenderDebugText</text>
</a>
</g>
</g>
<!-- Node2&#45;&gt;Node3 -->
<g id="edge2_Node000002_Node000003" class="edge">
<title>Node2&#45;&gt;Node3</title>
<g id="a_edge2_Node000002_Node000003"><a xlink:title=" ">
<path fill="none" stroke="#63b8ff" d="M709.31,-200C693.31,-200 676.29,-200 660.63,-200"/>
<polygon fill="#63b8ff" stroke="#63b8ff" points="709.24,-203.5 719.24,-200 709.24,-196.5 709.24,-203.5"/>
</a>
</g>
</g>
<!-- Node4 -->
<g id="Node000004" class="node">
<title>Node4</title>
<g id="a_Node000004"><a xlink:href="../../dd/df3/SDL__render_8c.html#a9088b0bec7523287068b9391ab923dc8" target="_top" xlink:title=" ">
<polygon fill="white" stroke="#666666" points="504.75,-210 354.5,-210 354.5,-190 504.75,-190 504.75,-210"/>
<text xml:space="preserve" text-anchor="middle" x="429.62" y="-196.5" font-family="Helvetica,sans-Serif" font-size="10.00">SDL_RenderDebugTextFormat</text>
</a>
</g>
</g>
<!-- Node3&#45;&gt;Node4 -->
<g id="edge3_Node000003_Node000004" class="edge">
<title>Node3&#45;&gt;Node4</title>
<g id="a_edge3_Node000003_Node000004"><a xlink:title=" ">
<path fill="none" stroke="#63b8ff" d="M529.01,-200C521.11,-200 513.04,-200 505.1,-200"/>
<polygon fill="#63b8ff" stroke="#63b8ff" points="528.92,-203.5 538.92,-200 528.92,-196.5 528.92,-203.5"/>
</a>
</g>
</g>
<!-- Node6 -->
<g id="Node000006" class="node">
<title>Node6</title>
<g id="a_Node000006"><a xlink:href="../../dd/df3/SDL__render_8c.html#a0e1304d4ab1c78d549d9018cda3a85d4" target="_top" xlink:title=" ">
<polygon fill="white" stroke="#666666" points="653.5,-172 547.5,-172 547.5,-152 653.5,-152 653.5,-172"/>
<text xml:space="preserve" text-anchor="middle" x="600.5" y="-158.5" font-family="Helvetica,sans-Serif" font-size="10.00">SDL_RenderPresent</text>
</a>
</g>
</g>
<!-- Node5&#45;&gt;Node6 -->
<g id="edge5_Node000005_Node000006" class="edge">
<title>Node5&#45;&gt;Node6</title>
<g id="a_edge5_Node000005_Node000006"><a xlink:title=" ">
<path fill="none" stroke="#63b8ff" d="M684.56,-162C674.02,-162 663.55,-162 653.78,-162"/>
<polygon fill="#63b8ff" stroke="#63b8ff" points="684.49,-165.5 694.49,-162 684.49,-158.5 684.49,-165.5"/>
</a>
</g>
</g>
<!-- Node6&#45;&gt;Node7 -->
<g id="edge6_Node000006_Node000007" class="edge">
<title>Node6&#45;&gt;Node7</title>
<g id="a_edge6_Node000006_Node000007"><a xlink:title=" ">
<path fill="none" stroke="#63b8ff" d="M536.29,-154.89C524.42,-153.55 511.95,-152.15 499.91,-150.79"/>
<polygon fill="#63b8ff" stroke="#63b8ff" points="535.62,-158.34 545.95,-155.98 536.4,-151.38 535.62,-158.34"/>
</a>
</g>
</g>
<!-- Node8 -->
<g id="Node000008" class="node">
<title>Node8</title>
<g id="a_Node000008"><a xlink:href="../../d6/d3d/SDL__video_8c.html#ae6c55eb5cc6ca81ba6faa17eab3af85b" target="_top" xlink:title=" ">
<polygon fill="white" stroke="#666666" points="318.5,-153 161.5,-153 161.5,-133 318.5,-133 318.5,-153"/>
<text xml:space="preserve" text-anchor="middle" x="240" y="-139.5" font-family="Helvetica,sans-Serif" font-size="10.00">SDL_CreateWindowFramebuffer</text>
</a>
</g>
</g>
<!-- Node7&#45;&gt;Node8 -->
<g id="edge7_Node000007_Node000008" class="edge">
<title>Node7&#45;&gt;Node8</title>
<g id="a_edge7_Node000007_Node000008"><a xlink:title=" ">
<path fill="none" stroke="#63b8ff" d="M348.06,-143C338.39,-143 328.53,-143 318.9,-143"/>
<polygon fill="#63b8ff" stroke="#63b8ff" points="347.78,-146.5 357.78,-143 347.78,-139.5 347.78,-146.5"/>
</a>
</g>
</g>
<!-- Node9 -->
<g id="Node000009" class="node">
<title>Node9</title>
<g id="a_Node000009"><a xlink:href="../../d6/d3d/SDL__video_8c.html#a155d3f01bb23f59e2c724973e020ebe6" target="_top" xlink:title=" ">
<polygon fill="white" stroke="#666666" points="125.5,-153 0,-153 0,-133 125.5,-133 125.5,-153"/>
<text xml:space="preserve" text-anchor="middle" x="62.75" y="-139.5" font-family="Helvetica,sans-Serif" font-size="10.00">SDL_GetWindowSurface</text>
</a>
</g>
</g>
<!-- Node8&#45;&gt;Node9 -->
<g id="edge8_Node000008_Node000009" class="edge">
<title>Node8&#45;&gt;Node9</title>
<g id="a_edge8_Node000008_Node000009"><a xlink:title=" ">
<path fill="none" stroke="#63b8ff" d="M149.74,-143C141.68,-143 133.64,-143 125.89,-143"/>
<polygon fill="#63b8ff" stroke="#63b8ff" points="149.6,-146.5 159.6,-143 149.6,-139.5 149.6,-146.5"/>
</a>
</g>
</g>
</g>
</svg>
