<?xml version="1.0" encoding="UTF-8" standalone="no"?>
<!DOCTYPE svg PUBLIC "-//W3C//DTD SVG 1.1//EN"
 "http://www.w3.org/Graphics/SVG/1.1/DTD/svg11.dtd">
<!-- Generated by graphviz version 13.1.0 (20250701.0955)
 -->
<!-- Title: SDL_GetTextureAlphaMod Pages: 1 -->
<svg width="745pt" height="66pt"
 viewBox="0.00 0.00 745.00 66.00" xmlns="http://www.w3.org/2000/svg" xmlns:xlink="http://www.w3.org/1999/xlink">
<g id="graph0" class="graph" transform="scale(1 1) rotate(0) translate(4 62)">
<title>SDL_GetTextureAlphaMod</title>
<!-- Node1 -->
<g id="Node000001" class="node">
<title>Node1</title>
<g id="a_Node000001"><a xlink:title=" ">
<polygon fill="#999999" stroke="#666666" points="132.25,-39 0,-39 0,-19 132.25,-19 132.25,-39"/>
<text xml:space="preserve" text-anchor="middle" x="66.12" y="-25.5" font-family="Helvetica,sans-Serif" font-size="10.00">SDL_GetTextureAlphaMod</text>
</a>
</g>
</g>
<!-- Node2 -->
<g id="Node000002" class="node">
<title>Node2</title>
<g id="a_Node000002"><a xlink:href="../../dd/df3/SDL__render_8c.html#a566c138da2af41c8a4987a201399c9b6" target="_top" xlink:title=" ">
<polygon fill="white" stroke="#666666" points="322.25,-58 168.25,-58 168.25,-38 322.25,-38 322.25,-58"/>
<text xml:space="preserve" text-anchor="middle" x="245.25" y="-44.5" font-family="Helvetica,sans-Serif" font-size="10.00">SDL_GetTextureAlphaModFloat</text>
</a>
</g>
</g>
<!-- Node1&#45;&gt;Node2 -->
<g id="edge1_Node000001_Node000002" class="edge">
<title>Node1&#45;&gt;Node2</title>
<g id="a_edge1_Node000001_Node000002"><a xlink:title=" ">
<path fill="none" stroke="#63b8ff" d="M132.58,-36.02C140.41,-36.86 148.51,-37.73 156.6,-38.6"/>
<polygon fill="#63b8ff" stroke="#63b8ff" points="156.17,-42.07 166.49,-39.66 156.92,-35.11 156.17,-42.07"/>
</a>
</g>
</g>
<!-- Node3 -->
<g id="Node000003" class="node">
<title>Node3</title>
<g id="a_Node000003"><a xlink:href="../../d3/d02/SDL__stdlib_8c.html#a1254f3a8fee9c352daa9bcffedd1abfc" target="_top" xlink:title=" ">
<polygon fill="white" stroke="#666666" points="279.12,-20 211.38,-20 211.38,0 279.12,0 279.12,-20"/>
<text xml:space="preserve" text-anchor="middle" x="245.25" y="-6.5" font-family="Helvetica,sans-Serif" font-size="10.00">SDL_roundf</text>
</a>
</g>
</g>
<!-- Node1&#45;&gt;Node3 -->
<g id="edge2_Node000001_Node000003" class="edge">
<title>Node1&#45;&gt;Node3</title>
<g id="a_edge2_Node000001_Node000003"><a xlink:title=" ">
<path fill="none" stroke="#63b8ff" d="M132.58,-21.98C155.09,-19.56 179.74,-16.92 200.15,-14.73"/>
<polygon fill="#63b8ff" stroke="#63b8ff" points="200.24,-18.24 209.81,-13.69 199.49,-11.28 200.24,-18.24"/>
</a>
</g>
</g>
<!-- Node4 -->
<g id="Node000004" class="node">
<title>Node4</title>
<g id="a_Node000004"><a xlink:href="../../d3/d02/SDL__stdlib_8c.html#a6aa2d7674e36a88baf05ed1fae599bdb" target="_top" xlink:title=" ">
<polygon fill="white" stroke="#666666" points="423,-20 358.25,-20 358.25,0 423,0 423,-20"/>
<text xml:space="preserve" text-anchor="middle" x="390.62" y="-6.5" font-family="Helvetica,sans-Serif" font-size="10.00">SDL_round</text>
</a>
</g>
</g>
<!-- Node3&#45;&gt;Node4 -->
<g id="edge3_Node000003_Node000004" class="edge">
<title>Node3&#45;&gt;Node4</title>
<g id="a_edge3_Node000003_Node000004"><a xlink:title=" ">
<path fill="none" stroke="#63b8ff" d="M279.5,-10C299.47,-10 325.07,-10 346.57,-10"/>
<polygon fill="#63b8ff" stroke="#63b8ff" points="346.51,-13.5 356.51,-10 346.51,-6.5 346.51,-13.5"/>
</a>
</g>
</g>
<!-- Node5 -->
<g id="Node000005" class="node">
<title>Node5</title>
<g id="a_Node000005"><a xlink:href="../../d3/d02/SDL__stdlib_8c.html#a697b0197d0b0798c81ee242f114aace8" target="_top" xlink:title=" ">
<polygon fill="white" stroke="#666666" points="514.75,-39 459,-39 459,-19 514.75,-19 514.75,-39"/>
<text xml:space="preserve" text-anchor="middle" x="486.88" y="-25.5" font-family="Helvetica,sans-Serif" font-size="10.00">SDL_ceil</text>
</a>
</g>
</g>
<!-- Node4&#45;&gt;Node5 -->
<g id="edge4_Node000004_Node000005" class="edge">
<title>Node4&#45;&gt;Node5</title>
<g id="a_edge4_Node000004_Node000005"><a xlink:title=" ">
<path fill="none" stroke="#63b8ff" d="M423.27,-16.38C431.05,-17.95 439.46,-19.64 447.52,-21.27"/>
<polygon fill="#63b8ff" stroke="#63b8ff" points="446.59,-24.65 457.09,-23.2 447.97,-17.79 446.59,-24.65"/>
</a>
</g>
</g>
<!-- Node6 -->
<g id="Node000006" class="node">
<title>Node6</title>
<g id="a_Node000006"><a xlink:href="../../d3/d02/SDL__stdlib_8c.html#a8c898f41276f7bc9cbd3e89c726c2d0a" target="_top" xlink:title=" ">
<polygon fill="white" stroke="#666666" points="610.25,-20 550.75,-20 550.75,0 610.25,0 610.25,-20"/>
<text xml:space="preserve" text-anchor="middle" x="580.5" y="-6.5" font-family="Helvetica,sans-Serif" font-size="10.00">SDL_floor</text>
</a>
</g>
</g>
<!-- Node4&#45;&gt;Node6 -->
<g id="edge7_Node000004_Node000006" class="edge">
<title>Node4&#45;&gt;Node6</title>
<g id="a_edge7_Node000004_Node000006"><a xlink:title=" ">
<path fill="none" stroke="#63b8ff" d="M423.5,-10C455.38,-10 504.54,-10 539.13,-10"/>
<polygon fill="#63b8ff" stroke="#63b8ff" points="538.75,-13.5 548.75,-10 538.75,-6.5 538.75,-13.5"/>
</a>
</g>
</g>
<!-- Node5&#45;&gt;Node6 -->
<g id="edge5_Node000005_Node000006" class="edge">
<title>Node5&#45;&gt;Node6</title>
<g id="a_edge5_Node000005_Node000006"><a xlink:title=" ">
<path fill="none" stroke="#63b8ff" d="M514.87,-23.4C522.56,-21.81 531.11,-20.03 539.41,-18.31"/>
<polygon fill="#63b8ff" stroke="#63b8ff" points="539.9,-21.79 548.98,-16.33 538.48,-14.93 539.9,-21.79"/>
</a>
</g>
</g>
<!-- Node7 -->
<g id="Node000007" class="node">
<title>Node7</title>
<g id="a_Node000007"><a xlink:href="../../d3/dcc/s__floor_8c.html#a70f5eb094fdaee73475597eee76f67f1" target="_top" xlink:title=" ">
<polygon fill="white" stroke="#666666" points="736.5,-20 646.25,-20 646.25,0 736.5,0 736.5,-20"/>
<text xml:space="preserve" text-anchor="middle" x="691.38" y="-6.5" font-family="Helvetica,sans-Serif" font-size="10.00">SDL_uclibc_floor</text>
</a>
</g>
</g>
<!-- Node6&#45;&gt;Node7 -->
<g id="edge6_Node000006_Node000007" class="edge">
<title>Node6&#45;&gt;Node7</title>
<g id="a_edge6_Node000006_Node000007"><a xlink:title=" ">
<path fill="none" stroke="#63b8ff" d="M610.68,-10C618.12,-10 626.38,-10 634.68,-10"/>
<polygon fill="#63b8ff" stroke="#63b8ff" points="634.44,-13.5 644.44,-10 634.44,-6.5 634.44,-13.5"/>
</a>
</g>
</g>
</g>
</svg>
