<?xml version="1.0" encoding="UTF-8" standalone="no"?>
<!DOCTYPE svg PUBLIC "-//W3C//DTD SVG 1.1//EN"
 "http://www.w3.org/Graphics/SVG/1.1/DTD/svg11.dtd">
<!-- Generated by graphviz version 13.1.0 (20250701.0955)
 -->
<!-- Title: SDL_GetTextureProperties Pages: 1 -->
<svg width="1449pt" height="160pt"
 viewBox="0.00 0.00 1449.00 160.00" xmlns="http://www.w3.org/2000/svg" xmlns:xlink="http://www.w3.org/1999/xlink">
<g id="graph0" class="graph" transform="scale(1 1) rotate(0) translate(4 156)">
<title>SDL_GetTextureProperties</title>
<!-- Node1 -->
<g id="Node000001" class="node">
<title>Node1</title>
<g id="a_Node000001"><a xlink:title=" ">
<polygon fill="#999999" stroke="#666666" points="1440.5,-77 1307.5,-77 1307.5,-57 1440.5,-57 1440.5,-77"/>
<text xml:space="preserve" text-anchor="middle" x="1374" y="-63.5" font-family="Helvetica,sans-Serif" font-size="10.00">SDL_GetTextureProperties</text>
</a>
</g>
</g>
<!-- Node2 -->
<g id="Node000002" class="node">
<title>Node2</title>
<g id="a_Node000002"><a xlink:href="../../dd/df3/SDL__render_8c.html#a1684f7dff34c10c8f45c147673db3342" target="_top" xlink:title=" ">
<polygon fill="white" stroke="#666666" points="1271.5,-134 1104.75,-134 1104.75,-114 1271.5,-114 1271.5,-134"/>
<text xml:space="preserve" text-anchor="middle" x="1188.12" y="-120.5" font-family="Helvetica,sans-Serif" font-size="10.00">SDL_CreateTextureWithProperties</text>
</a>
</g>
</g>
<!-- Node1&#45;&gt;Node2 -->
<g id="edge1_Node000001_Node000002" class="edge">
<title>Node1&#45;&gt;Node2</title>
<g id="a_edge1_Node000001_Node000002"><a xlink:title=" ">
<path fill="none" stroke="#63b8ff" d="M1337.44,-81.63C1318.14,-89.23 1293.74,-98.3 1271.5,-105 1261.1,-108.13 1249.83,-111.04 1239.06,-113.59"/>
<polygon fill="#63b8ff" stroke="#63b8ff" points="1338.47,-84.98 1346.47,-78.02 1335.88,-78.48 1338.47,-84.98"/>
</a>
</g>
</g>
<!-- Node14 -->
<g id="Node000014" class="node">
<title>Node14</title>
<g id="a_Node000014"><a xlink:href="../../dd/df3/SDL__render_8c.html#ac0039115a646e8e572bfdc67c5f50885" target="_top" xlink:title=" ">
<polygon fill="white" stroke="#666666" points="1245.62,-96 1130.62,-96 1130.62,-76 1245.62,-76 1245.62,-96"/>
<text xml:space="preserve" text-anchor="middle" x="1188.12" y="-82.5" font-family="Helvetica,sans-Serif" font-size="10.00">SDL_GetRenderTarget</text>
</a>
</g>
</g>
<!-- Node1&#45;&gt;Node14 -->
<g id="edge15_Node000001_Node000014" class="edge">
<title>Node1&#45;&gt;Node14</title>
<g id="a_edge15_Node000001_Node000014"><a xlink:title=" ">
<path fill="none" stroke="#63b8ff" d="M1295.73,-74.98C1279.06,-76.71 1261.73,-78.5 1246.01,-80.12"/>
<polygon fill="#63b8ff" stroke="#63b8ff" points="1296.04,-78.47 1305.63,-73.96 1295.32,-71.51 1296.04,-78.47"/>
</a>
</g>
</g>
<!-- Node15 -->
<g id="Node000015" class="node">
<title>Node15</title>
<g id="a_Node000015"><a xlink:href="../../dd/df3/SDL__render_8c.html#a3284d1df42b5a7664fb653e478c40732" target="_top" xlink:title=" ">
<polygon fill="white" stroke="#666666" points="1249.38,-58 1126.88,-58 1126.88,-38 1249.38,-38 1249.38,-58"/>
<text xml:space="preserve" text-anchor="middle" x="1188.12" y="-44.5" font-family="Helvetica,sans-Serif" font-size="10.00">SDL_RenderReadPixels</text>
</a>
</g>
</g>
<!-- Node1&#45;&gt;Node15 -->
<g id="edge16_Node000001_Node000015" class="edge">
<title>Node1&#45;&gt;Node15</title>
<g id="a_edge16_Node000001_Node000015"><a xlink:title=" ">
<path fill="none" stroke="#63b8ff" d="M1295.99,-59.04C1280.51,-57.44 1264.45,-55.78 1249.63,-54.25"/>
<polygon fill="#63b8ff" stroke="#63b8ff" points="1295.32,-62.49 1305.63,-60.04 1296.04,-55.53 1295.32,-62.49"/>
</a>
</g>
</g>
<!-- Node16 -->
<g id="Node000016" class="node">
<title>Node16</title>
<g id="a_Node000016"><a xlink:href="../../dd/df3/SDL__render_8c.html#abc1bc59a9829fde62785a433482df6b7" target="_top" xlink:title=" ">
<polygon fill="white" stroke="#666666" points="1268.5,-20 1107.75,-20 1107.75,0 1268.5,0 1268.5,-20"/>
<text xml:space="preserve" text-anchor="middle" x="1188.12" y="-6.5" font-family="Helvetica,sans-Serif" font-size="10.00">SDL_UpdateTextureFromSurface</text>
</a>
</g>
</g>
<!-- Node1&#45;&gt;Node16 -->
<g id="edge17_Node000001_Node000016" class="edge">
<title>Node1&#45;&gt;Node16</title>
<g id="a_edge17_Node000001_Node000016"><a xlink:title=" ">
<path fill="none" stroke="#63b8ff" d="M1337.44,-52.37C1318.14,-44.77 1293.74,-35.7 1271.5,-29 1261.1,-25.87 1249.83,-22.96 1239.06,-20.41"/>
<polygon fill="#63b8ff" stroke="#63b8ff" points="1335.88,-55.52 1346.47,-55.98 1338.47,-49.02 1335.88,-55.52"/>
</a>
</g>
</g>
<!-- Node2&#45;&gt;Node2 -->
<g id="edge14_Node000002_Node000002" class="edge">
<title>Node2&#45;&gt;Node2</title>
<g id="a_edge14_Node000002_Node000002"><a xlink:title=" ">
<path fill="none" stroke="#63b8ff" d="M1221.32,-145.11C1217.37,-149.14 1206.3,-152 1188.12,-152 1155.81,-152 1145.97,-142.98 1158.59,-134.34"/>
<polygon fill="#63b8ff" stroke="#63b8ff" points="1224.68,-144.11 1218.15,-135.77 1218.05,-146.37 1224.68,-144.11"/>
</a>
</g>
</g>
<!-- Node3 -->
<g id="Node000003" class="node">
<title>Node3</title>
<g id="a_Node000003"><a xlink:href="../../dd/df3/SDL__render_8c.html#a60e022dfd9719ea3180f7fd5bb1d1e64" target="_top" xlink:title=" ">
<polygon fill="white" stroke="#666666" points="1040.62,-134 938.38,-134 938.38,-114 1040.62,-114 1040.62,-134"/>
<text xml:space="preserve" text-anchor="middle" x="989.5" y="-120.5" font-family="Helvetica,sans-Serif" font-size="10.00">SDL_CreateTexture</text>
</a>
</g>
</g>
<!-- Node2&#45;&gt;Node3 -->
<g id="edge2_Node000002_Node000003" class="edge">
<title>Node2&#45;&gt;Node3</title>
<g id="a_edge2_Node000002_Node000003"><a xlink:title=" ">
<path fill="none" stroke="#63b8ff" d="M1092.89,-124C1074.97,-124 1056.87,-124 1040.98,-124"/>
<polygon fill="#63b8ff" stroke="#63b8ff" points="1092.79,-127.5 1102.79,-124 1092.79,-120.5 1092.79,-127.5"/>
</a>
</g>
</g>
<!-- Node7 -->
<g id="Node000007" class="node">
<title>Node7</title>
<g id="a_Node000007"><a xlink:href="../../dd/df3/SDL__render_8c.html#a659ed30d6b429f74931157face78f0bb" target="_top" xlink:title=" ">
<polygon fill="white" stroke="#666666" points="1068.75,-77 910.25,-77 910.25,-57 1068.75,-57 1068.75,-77"/>
<text xml:space="preserve" text-anchor="middle" x="989.5" y="-63.5" font-family="Helvetica,sans-Serif" font-size="10.00">SDL_CreateTextureFromSurface</text>
</a>
</g>
</g>
<!-- Node2&#45;&gt;Node7 -->
<g id="edge6_Node000002_Node000007" class="edge">
<title>Node2&#45;&gt;Node7</title>
<g id="a_edge6_Node000002_Node000007"><a xlink:title=" ">
<path fill="none" stroke="#63b8ff" d="M1127.15,-110.86C1119.58,-109 1111.96,-107.03 1104.75,-105 1075.37,-96.75 1042.34,-85.55 1019.38,-77.45"/>
<polygon fill="#63b8ff" stroke="#63b8ff" points="1126.13,-114.22 1136.67,-113.15 1127.77,-107.41 1126.13,-114.22"/>
</a>
</g>
</g>
<!-- Node4 -->
<g id="Node000004" class="node">
<title>Node4</title>
<g id="a_Node000004"><a xlink:href="../../d6/d3d/SDL__video_8c.html#ae87638d537fdd872b08bfb7a68f4bf1a" target="_top" xlink:title=" ">
<polygon fill="white" stroke="#666666" points="678.25,-134 540.75,-134 540.75,-114 678.25,-114 678.25,-134"/>
<text xml:space="preserve" text-anchor="middle" x="609.5" y="-120.5" font-family="Helvetica,sans-Serif" font-size="10.00">SDL_CreateWindowTexture</text>
</a>
</g>
</g>
<!-- Node3&#45;&gt;Node4 -->
<g id="edge3_Node000003_Node000004" class="edge">
<title>Node3&#45;&gt;Node4</title>
<g id="a_edge3_Node000003_Node000004"><a xlink:title=" ">
<path fill="none" stroke="#63b8ff" d="M926.51,-124C858.36,-124 749.2,-124 678.68,-124"/>
<polygon fill="#63b8ff" stroke="#63b8ff" points="926.4,-127.5 936.4,-124 926.4,-120.5 926.4,-127.5"/>
</a>
</g>
</g>
<!-- Node5 -->
<g id="Node000005" class="node">
<title>Node5</title>
<g id="a_Node000005"><a xlink:href="../../d6/d3d/SDL__video_8c.html#ae6c55eb5cc6ca81ba6faa17eab3af85b" target="_top" xlink:title=" ">
<polygon fill="white" stroke="#666666" points="318.5,-96 161.5,-96 161.5,-76 318.5,-76 318.5,-96"/>
<text xml:space="preserve" text-anchor="middle" x="240" y="-82.5" font-family="Helvetica,sans-Serif" font-size="10.00">SDL_CreateWindowFramebuffer</text>
</a>
</g>
</g>
<!-- Node4&#45;&gt;Node5 -->
<g id="edge4_Node000004_Node000005" class="edge">
<title>Node4&#45;&gt;Node5</title>
<g id="a_edge4_Node000004_Node000005"><a xlink:title=" ">
<path fill="none" stroke="#63b8ff" d="M529,-119.92C478.83,-116.88 412.74,-112.04 354.5,-105 335.86,-102.75 315.6,-99.59 297.43,-96.49"/>
<polygon fill="#63b8ff" stroke="#63b8ff" points="528.72,-123.41 538.91,-120.51 529.13,-116.42 528.72,-123.41"/>
</a>
</g>
</g>
<!-- Node6 -->
<g id="Node000006" class="node">
<title>Node6</title>
<g id="a_Node000006"><a xlink:href="../../d6/d3d/SDL__video_8c.html#a155d3f01bb23f59e2c724973e020ebe6" target="_top" xlink:title=" ">
<polygon fill="white" stroke="#666666" points="125.5,-96 0,-96 0,-76 125.5,-76 125.5,-96"/>
<text xml:space="preserve" text-anchor="middle" x="62.75" y="-82.5" font-family="Helvetica,sans-Serif" font-size="10.00">SDL_GetWindowSurface</text>
</a>
</g>
</g>
<!-- Node5&#45;&gt;Node6 -->
<g id="edge5_Node000005_Node000006" class="edge">
<title>Node5&#45;&gt;Node6</title>
<g id="a_edge5_Node000005_Node000006"><a xlink:title=" ">
<path fill="none" stroke="#63b8ff" d="M149.74,-86C141.68,-86 133.64,-86 125.89,-86"/>
<polygon fill="#63b8ff" stroke="#63b8ff" points="149.6,-89.5 159.6,-86 149.6,-82.5 149.6,-89.5"/>
</a>
</g>
</g>
<!-- Node8 -->
<g id="Node000008" class="node">
<title>Node8</title>
<g id="a_Node000008"><a xlink:href="../../dd/df3/SDL__render_8c.html#a97cf2e1e2e704b4c9d9969fde83ff9b5" target="_top" xlink:title=" ">
<polygon fill="white" stroke="#666666" points="851.75,-96 736.75,-96 736.75,-76 851.75,-76 851.75,-96"/>
<text xml:space="preserve" text-anchor="middle" x="794.25" y="-82.5" font-family="Helvetica,sans-Serif" font-size="10.00">CreateDebugTextAtlas</text>
</a>
</g>
</g>
<!-- Node7&#45;&gt;Node8 -->
<g id="edge7_Node000007_Node000008" class="edge">
<title>Node7&#45;&gt;Node8</title>
<g id="a_edge7_Node000007_Node000008"><a xlink:title=" ">
<path fill="none" stroke="#63b8ff" d="M898.48,-75.85C882.71,-77.4 866.7,-78.97 852.15,-80.41"/>
<polygon fill="#63b8ff" stroke="#63b8ff" points="898.78,-79.34 908.39,-74.88 898.1,-72.37 898.78,-79.34"/>
</a>
</g>
</g>
<!-- Node11 -->
<g id="Node000011" class="node">
<title>Node11</title>
<g id="a_Node000011"><a xlink:href="../../dd/df3/SDL__render_8c.html#a00ff4c00fc3f0f1cd18c189c47362fe8" target="_top" xlink:title=" ">
<polygon fill="white" stroke="#666666" points="874.25,-58 714.25,-58 714.25,-38 874.25,-38 874.25,-58"/>
<text xml:space="preserve" text-anchor="middle" x="794.25" y="-44.5" font-family="Helvetica,sans-Serif" font-size="10.00">SDL_RenderApplyWindowShape</text>
</a>
</g>
</g>
<!-- Node7&#45;&gt;Node11 -->
<g id="edge10_Node000007_Node000011" class="edge">
<title>Node7&#45;&gt;Node11</title>
<g id="a_edge10_Node000007_Node000011"><a xlink:title=" ">
<path fill="none" stroke="#63b8ff" d="M898.66,-58.17C890.67,-57.38 882.62,-56.59 874.72,-55.81"/>
<polygon fill="#63b8ff" stroke="#63b8ff" points="898.1,-61.63 908.39,-59.12 898.78,-54.66 898.1,-61.63"/>
</a>
</g>
</g>
<!-- Node9 -->
<g id="Node000009" class="node">
<title>Node9</title>
<g id="a_Node000009"><a xlink:href="../../dd/df3/SDL__render_8c.html#abea8c4ab0178e48c260dbf830cf7fd17" target="_top" xlink:title=" ">
<polygon fill="white" stroke="#666666" points="669.25,-96 549.75,-96 549.75,-76 669.25,-76 669.25,-96"/>
<text xml:space="preserve" text-anchor="middle" x="609.5" y="-82.5" font-family="Helvetica,sans-Serif" font-size="10.00">SDL_RenderDebugText</text>
</a>
</g>
</g>
<!-- Node8&#45;&gt;Node9 -->
<g id="edge8_Node000008_Node000009" class="edge">
<title>Node8&#45;&gt;Node9</title>
<g id="a_edge8_Node000008_Node000009"><a xlink:title=" ">
<path fill="none" stroke="#63b8ff" d="M724.97,-86C706.74,-86 687.19,-86 669.5,-86"/>
<polygon fill="#63b8ff" stroke="#63b8ff" points="724.92,-89.5 734.91,-86 724.91,-82.5 724.92,-89.5"/>
</a>
</g>
</g>
<!-- Node10 -->
<g id="Node000010" class="node">
<title>Node10</title>
<g id="a_Node000010"><a xlink:href="../../dd/df3/SDL__render_8c.html#a9088b0bec7523287068b9391ab923dc8" target="_top" xlink:title=" ">
<polygon fill="white" stroke="#666666" points="504.75,-96 354.5,-96 354.5,-76 504.75,-76 504.75,-96"/>
<text xml:space="preserve" text-anchor="middle" x="429.62" y="-82.5" font-family="Helvetica,sans-Serif" font-size="10.00">SDL_RenderDebugTextFormat</text>
</a>
</g>
</g>
<!-- Node9&#45;&gt;Node10 -->
<g id="edge9_Node000009_Node000010" class="edge">
<title>Node9&#45;&gt;Node10</title>
<g id="a_edge9_Node000009_Node000010"><a xlink:title=" ">
<path fill="none" stroke="#63b8ff" d="M537.79,-86C527.04,-86 515.92,-86 505.1,-86"/>
<polygon fill="#63b8ff" stroke="#63b8ff" points="537.76,-89.5 547.76,-86 537.76,-82.5 537.76,-89.5"/>
</a>
</g>
</g>
<!-- Node12 -->
<g id="Node000012" class="node">
<title>Node12</title>
<g id="a_Node000012"><a xlink:href="../../dd/df3/SDL__render_8c.html#a0e1304d4ab1c78d549d9018cda3a85d4" target="_top" xlink:title=" ">
<polygon fill="white" stroke="#666666" points="662.5,-58 556.5,-58 556.5,-38 662.5,-38 662.5,-58"/>
<text xml:space="preserve" text-anchor="middle" x="609.5" y="-44.5" font-family="Helvetica,sans-Serif" font-size="10.00">SDL_RenderPresent</text>
</a>
</g>
</g>
<!-- Node11&#45;&gt;Node12 -->
<g id="edge11_Node000011_Node000012" class="edge">
<title>Node11&#45;&gt;Node12</title>
<g id="a_edge11_Node000011_Node000012"><a xlink:title=" ">
<path fill="none" stroke="#63b8ff" d="M702.52,-48C688.94,-48 675.35,-48 662.93,-48"/>
<polygon fill="#63b8ff" stroke="#63b8ff" points="702.38,-51.5 712.38,-48 702.38,-44.5 702.38,-51.5"/>
</a>
</g>
</g>
<!-- Node13 -->
<g id="Node000013" class="node">
<title>Node13</title>
<g id="a_Node000013"><a xlink:href="../../d6/d3d/SDL__video_8c.html#af9c2e408ee20cc71dbff39d4fb0f7594" target="_top" xlink:title=" ">
<polygon fill="white" stroke="#666666" points="499.5,-58 359.75,-58 359.75,-38 499.5,-38 499.5,-58"/>
<text xml:space="preserve" text-anchor="middle" x="429.62" y="-44.5" font-family="Helvetica,sans-Serif" font-size="10.00">SDL_UpdateWindowTexture</text>
</a>
</g>
</g>
<!-- Node12&#45;&gt;Node13 -->
<g id="edge12_Node000012_Node000013" class="edge">
<title>Node12&#45;&gt;Node13</title>
<g id="a_edge12_Node000012_Node000013"><a xlink:title=" ">
<path fill="none" stroke="#63b8ff" d="M544.66,-48C530.11,-48 514.58,-48 499.81,-48"/>
<polygon fill="#63b8ff" stroke="#63b8ff" points="544.58,-51.5 554.58,-48 544.58,-44.5 544.58,-51.5"/>
</a>
</g>
</g>
<!-- Node13&#45;&gt;Node5 -->
<g id="edge13_Node000013_Node000005" class="edge">
<title>Node13&#45;&gt;Node5</title>
<g id="a_edge13_Node000013_Node000005"><a xlink:title=" ">
<path fill="none" stroke="#63b8ff" d="M365.81,-60.72C342.02,-65.54 315.24,-70.96 292.6,-75.55"/>
<polygon fill="#63b8ff" stroke="#63b8ff" points="366.27,-64.2 375.38,-58.78 364.88,-57.34 366.27,-64.2"/>
</a>
</g>
</g>
<!-- Node16&#45;&gt;Node7 -->
<g id="edge18_Node000016_Node000007" class="edge">
<title>Node16&#45;&gt;Node7</title>
<g id="a_edge18_Node000016_Node000007"><a xlink:title=" ">
<path fill="none" stroke="#63b8ff" d="M1127.15,-23.14C1119.58,-25 1111.96,-26.97 1104.75,-29 1075.37,-37.25 1042.34,-48.45 1019.38,-56.55"/>
<polygon fill="#63b8ff" stroke="#63b8ff" points="1127.77,-26.59 1136.67,-20.85 1126.13,-19.78 1127.77,-26.59"/>
</a>
</g>
</g>
</g>
</svg>
