<?xml version="1.0" encoding="UTF-8" standalone="no"?>
<!DOCTYPE svg PUBLIC "-//W3C//DTD SVG 1.1//EN"
 "http://www.w3.org/Graphics/SVG/1.1/DTD/svg11.dtd">
<!-- Generated by graphviz version 13.1.0 (20250701.0955)
 -->
<!-- Title: SDL_SetTextureScaleMode Pages: 1 -->
<svg width="638pt" height="46pt"
 viewBox="0.00 0.00 638.00 46.00" xmlns="http://www.w3.org/2000/svg" xmlns:xlink="http://www.w3.org/1999/xlink">
<g id="graph0" class="graph" transform="scale(1 1) rotate(0) translate(4 42)">
<title>SDL_SetTextureScaleMode</title>
<!-- Node1 -->
<g id="Node000001" class="node">
<title>Node1</title>
<g id="a_Node000001"><a xlink:title=" ">
<polygon fill="#999999" stroke="#666666" points="629.5,-20 492.75,-20 492.75,0 629.5,0 629.5,-20"/>
<text xml:space="preserve" text-anchor="middle" x="561.12" y="-6.5" font-family="Helvetica,sans-Serif" font-size="10.00">SDL_SetTextureScaleMode</text>
</a>
</g>
</g>
<!-- Node1&#45;&gt;Node1 -->
<g id="edge4_Node000001_Node000001" class="edge">
<title>Node1&#45;&gt;Node1</title>
<g id="a_edge4_Node000001_Node000001"><a xlink:title=" ">
<path fill="none" stroke="#63b8ff" d="M589.74,-31.44C586.05,-35.3 576.51,-38 561.12,-38 532.99,-38 524.41,-28.98 535.4,-20.34"/>
<polygon fill="#63b8ff" stroke="#63b8ff" points="593.13,-30.6 587.23,-21.8 586.36,-32.36 593.13,-30.6"/>
</a>
</g>
</g>
<!-- Node2 -->
<g id="Node000002" class="node">
<title>Node2</title>
<g id="a_Node000002"><a xlink:href="../../dd/df3/SDL__render_8c.html#a97cf2e1e2e704b4c9d9969fde83ff9b5" target="_top" xlink:title=" ">
<polygon fill="white" stroke="#666666" points="456.75,-20 341.75,-20 341.75,0 456.75,0 456.75,-20"/>
<text xml:space="preserve" text-anchor="middle" x="399.25" y="-6.5" font-family="Helvetica,sans-Serif" font-size="10.00">CreateDebugTextAtlas</text>
</a>
</g>
</g>
<!-- Node1&#45;&gt;Node2 -->
<g id="edge1_Node000001_Node000002" class="edge">
<title>Node1&#45;&gt;Node2</title>
<g id="a_edge1_Node000001_Node000002"><a xlink:title=" ">
<path fill="none" stroke="#63b8ff" d="M480.96,-10C472.9,-10 464.82,-10 457.06,-10"/>
<polygon fill="#63b8ff" stroke="#63b8ff" points="480.81,-13.5 490.81,-10 480.81,-6.5 480.81,-13.5"/>
</a>
</g>
</g>
<!-- Node3 -->
<g id="Node000003" class="node">
<title>Node3</title>
<g id="a_Node000003"><a xlink:href="../../dd/df3/SDL__render_8c.html#abea8c4ab0178e48c260dbf830cf7fd17" target="_top" xlink:title=" ">
<polygon fill="white" stroke="#666666" points="305.75,-20 186.25,-20 186.25,0 305.75,0 305.75,-20"/>
<text xml:space="preserve" text-anchor="middle" x="246" y="-6.5" font-family="Helvetica,sans-Serif" font-size="10.00">SDL_RenderDebugText</text>
</a>
</g>
</g>
<!-- Node2&#45;&gt;Node3 -->
<g id="edge2_Node000002_Node000003" class="edge">
<title>Node2&#45;&gt;Node3</title>
<g id="a_edge2_Node000002_Node000003"><a xlink:title=" ">
<path fill="none" stroke="#63b8ff" d="M330.23,-10C322.17,-10 314,-10 306.09,-10"/>
<polygon fill="#63b8ff" stroke="#63b8ff" points="329.99,-13.5 339.99,-10 329.99,-6.5 329.99,-13.5"/>
</a>
</g>
</g>
<!-- Node4 -->
<g id="Node000004" class="node">
<title>Node4</title>
<g id="a_Node000004"><a xlink:href="../../dd/df3/SDL__render_8c.html#a9088b0bec7523287068b9391ab923dc8" target="_top" xlink:title=" ">
<polygon fill="white" stroke="#666666" points="150.25,-20 0,-20 0,0 150.25,0 150.25,-20"/>
<text xml:space="preserve" text-anchor="middle" x="75.12" y="-6.5" font-family="Helvetica,sans-Serif" font-size="10.00">SDL_RenderDebugTextFormat</text>
</a>
</g>
</g>
<!-- Node3&#45;&gt;Node4 -->
<g id="edge3_Node000003_Node000004" class="edge">
<title>Node3&#45;&gt;Node4</title>
<g id="a_edge3_Node000003_Node000004"><a xlink:title=" ">
<path fill="none" stroke="#63b8ff" d="M174.51,-10C166.61,-10 158.54,-10 150.6,-10"/>
<polygon fill="#63b8ff" stroke="#63b8ff" points="174.42,-13.5 184.42,-10 174.42,-6.5 174.42,-13.5"/>
</a>
</g>
</g>
</g>
</svg>
