<?xml version="1.0" encoding="UTF-8" standalone="no"?>
<!DOCTYPE svg PUBLIC "-//W3C//DTD SVG 1.1//EN"
 "http://www.w3.org/Graphics/SVG/1.1/DTD/svg11.dtd">
<!-- Generated by graphviz version 13.1.0 (20250701.0955)
 -->
<!-- Title: SDL_UpdateTexture Pages: 1 -->
<!--zoomable 142 -->

<svg id="main" version="1.1" xmlns="http://www.w3.org/2000/svg" xmlns:xlink="http://www.w3.org/1999/xlink" xml:space="preserve" onload="init(evt)">

<style type="text/css"><![CDATA[
.node, .edge {opacity: 0.7;}
.node.selected, .edge.selected {opacity: 1;}
.edge:hover path { stroke: red; }
.edge:hover polygon { stroke: red; fill: red; }
]]></style>

<defs>
  <circle id="rim" cx="0" cy="0" r="7"/>
  <circle id="rim2" cx="0" cy="0" r="3.5"/>
  <g id="zoomPlus">
    <use xlink:href="#rim" fill="#404040"><set attributeName="fill" to="#808080" begin="zoomplus.mouseover" end="zoomplus.mouseout"/></use>
    <path d="M-4,0h8M0,-4v8" fill="none" stroke="white" stroke-width="1.5" pointer-events="none"/>
  </g>
  <g id="zoomMin">
    <use xlink:href="#rim" fill="#404040"><set attributeName="fill" to="#808080" begin="zoomminus.mouseover" end="zoomminus.mouseout"/></use>
    <path d="M-4,0h8" fill="none" stroke="white" stroke-width="1.5" pointer-events="none"/>
  </g>
  <g id="arrowUp" transform="translate(30 24)">
    <use xlink:href="#rim"/>
    <path pointer-events="none" fill="none" stroke="white" stroke-width="1.5" d="M0,-3.0v7 M-2.5,-0.5L0,-3.0L2.5,-0.5"/>
  </g>
  <g id="arrowRight" transform="rotate(90) translate(36 -43)">
    <use xlink:href="#rim"/>
    <path pointer-events="none" fill="none" stroke="white" stroke-width="1.5" d="M0,-3.0v7 M-2.5,-0.5L0,-3.0L2.5,-0.5"/>
  </g>
  <g id="arrowDown" transform="rotate(180) translate(-30 -48)">
    <use xlink:href="#rim"/>
    <path pointer-events="none" fill="none" stroke="white" stroke-width="1.5" d="M0,-3.0v7 M-2.5,-0.5L0,-3.0L2.5,-0.5"/>
  </g>
  <g id="arrowLeft" transform="rotate(270) translate(-36 17)">
    <use xlink:href="#rim"/>
    <path pointer-events="none" fill="none" stroke="white" stroke-width="1.5" d="M0,-3.0v7 M-2.5,-0.5L0,-3.0L2.5,-0.5"/>
  </g>
  <g id="resetDef">
    <use xlink:href="#rim2" fill="#404040"><set attributeName="fill" to="#808080" begin="reset.mouseover" end="reset.mouseout"/></use>
  </g>
</defs>
<script type="application/ecmascript">
var viewWidth = 1396;
var viewHeight = 142;
var sectionId = 'dynsection-120';
</script>
<script type="application/ecmascript" xlink:href="../../svg.min.js"/>
<svg id="graph" class="graph">
<g id="viewport">
<title>SDL_UpdateTexture</title>
<!-- Node1 -->
<g id="Node000001" class="node">
<title>Node1</title>
<g id="a_Node000001"><a xlink:title=" ">
<polygon fill="#999999" stroke="#666666" points="1388,-39 1283.5,-39 1283.5,-19 1388,-19 1388,-39"/>
<text xml:space="preserve" text-anchor="middle" x="1335.75" y="-25.5" font-family="Helvetica,sans-Serif" font-size="10.00">SDL_UpdateTexture</text>
</a>
</g>
</g>
<!-- Node2 -->
<g id="Node000002" class="node">
<title>Node2</title>
<g id="a_Node000002"><a xlink:href="../../dd/df3/SDL__render_8c.html#abc1bc59a9829fde62785a433482df6b7" target="_top" xlink:title=" ">
<polygon fill="white" stroke="#666666" points="1247.5,-96 1086.75,-96 1086.75,-76 1247.5,-76 1247.5,-96"/>
<text xml:space="preserve" text-anchor="middle" x="1167.12" y="-82.5" font-family="Helvetica,sans-Serif" font-size="10.00">SDL_UpdateTextureFromSurface</text>
</a>
</g>
</g>
<!-- Node1&#45;&gt;Node2 -->
<g id="edge1_Node000001_Node000002" class="edge">
<title>Node1&#45;&gt;Node2</title>
<g id="a_edge1_Node000001_Node000002"><a xlink:title=" ">
<path fill="none" stroke="#63b8ff" d="M1297.86,-43.59C1282.39,-49.54 1264.16,-56.34 1247.5,-62 1233.6,-66.73 1218.17,-71.5 1204.64,-75.52"/>
<polygon fill="#63b8ff" stroke="#63b8ff" points="1299.1,-46.86 1307.16,-39.98 1296.57,-40.33 1299.1,-46.86"/>
</a>
</g>
</g>
<!-- Node9 -->
<g id="Node000009" class="node">
<title>Node9</title>
<g id="a_Node000009"><a xlink:href="../../d6/d3d/SDL__video_8c.html#af9c2e408ee20cc71dbff39d4fb0f7594" target="_top" xlink:title=" ">
<polygon fill="white" stroke="#666666" points="499.5,-77 359.75,-77 359.75,-57 499.5,-57 499.5,-77"/>
<text xml:space="preserve" text-anchor="middle" x="429.62" y="-63.5" font-family="Helvetica,sans-Serif" font-size="10.00">SDL_UpdateWindowTexture</text>
</a>
</g>
</g>
<!-- Node1&#45;&gt;Node9 -->
<g id="edge13_Node000001_Node000009" class="edge">
<title>Node1&#45;&gt;Node9</title>
<g id="a_edge13_Node000001_Node000009"><a xlink:title=" ">
<path fill="none" stroke="#63b8ff" d="M1272.06,-34.29C1199.87,-39.91 1077.71,-48 972.5,-48 972.5,-48 972.5,-48 775.25,-48 679.68,-48 569.42,-55.38 499.87,-60.94"/>
<polygon fill="#63b8ff" stroke="#63b8ff" points="1272,-37.8 1281.7,-33.53 1271.45,-30.82 1272,-37.8"/>
</a>
</g>
</g>
<!-- Node12 -->
<g id="Node000012" class="node">
<title>Node12</title>
<g id="a_Node000012"><a xlink:href="../../dd/df3/SDL__render_8c.html#adc3e447a0f5a4a40749a45496b6cdcb7" target="_top" xlink:title=" ">
<polygon fill="white" stroke="#666666" points="1233.62,-20 1100.62,-20 1100.62,0 1233.62,0 1233.62,-20"/>
<text xml:space="preserve" text-anchor="middle" x="1167.12" y="-6.5" font-family="Helvetica,sans-Serif" font-size="10.00">SDL_UpdateTextureNative</text>
</a>
</g>
</g>
<!-- Node1&#45;&gt;Node12 -->
<g id="edge11_Node000001_Node000012" class="edge">
<title>Node1&#45;&gt;Node12</title>
<g id="a_edge11_Node000001_Node000012"><a xlink:title=" ">
<path fill="none" stroke="#63b8ff" d="M1283.42,-16.86C1267.83,-14.61 1250.49,-12.52 1234.08,-10.9"/>
<polygon fill="#63b8ff" stroke="#63b8ff" points="1282.51,-20.26 1292.92,-18.3 1283.55,-13.34 1282.51,-20.26"/>
</a>
</g>
</g>
<!-- Node3 -->
<g id="Node000003" class="node">
<title>Node3</title>
<g id="a_Node000003"><a xlink:href="../../dd/df3/SDL__render_8c.html#a659ed30d6b429f74931157face78f0bb" target="_top" xlink:title=" ">
<polygon fill="white" stroke="#666666" points="1050.75,-96 892.25,-96 892.25,-76 1050.75,-76 1050.75,-96"/>
<text xml:space="preserve" text-anchor="middle" x="971.5" y="-82.5" font-family="Helvetica,sans-Serif" font-size="10.00">SDL_CreateTextureFromSurface</text>
</a>
</g>
</g>
<!-- Node2&#45;&gt;Node3 -->
<g id="edge2_Node000002_Node000003" class="edge">
<title>Node2&#45;&gt;Node3</title>
<g id="a_edge2_Node000002_Node000003"><a xlink:title=" ">
<path fill="none" stroke="#63b8ff" d="M1074.96,-86C1066.93,-86 1058.85,-86 1050.94,-86"/>
<polygon fill="#63b8ff" stroke="#63b8ff" points="1074.74,-89.5 1084.74,-86 1074.74,-82.5 1074.74,-89.5"/>
</a>
</g>
</g>
<!-- Node4 -->
<g id="Node000004" class="node">
<title>Node4</title>
<g id="a_Node000004"><a xlink:href="../../dd/df3/SDL__render_8c.html#a97cf2e1e2e704b4c9d9969fde83ff9b5" target="_top" xlink:title=" ">
<polygon fill="white" stroke="#666666" points="833.75,-134 718.75,-134 718.75,-114 833.75,-114 833.75,-134"/>
<text xml:space="preserve" text-anchor="middle" x="776.25" y="-120.5" font-family="Helvetica,sans-Serif" font-size="10.00">CreateDebugTextAtlas</text>
</a>
</g>
</g>
<!-- Node3&#45;&gt;Node4 -->
<g id="edge3_Node000003_Node000004" class="edge">
<title>Node3&#45;&gt;Node4</title>
<g id="a_edge3_Node000003_Node000004"><a xlink:title=" ">
<path fill="none" stroke="#63b8ff" d="M906.13,-98.66C881.55,-103.49 853.82,-108.94 830.39,-113.55"/>
<polygon fill="#63b8ff" stroke="#63b8ff" points="906.56,-102.14 915.7,-96.78 905.21,-95.27 906.56,-102.14"/>
</a>
</g>
</g>
<!-- Node7 -->
<g id="Node000007" class="node">
<title>Node7</title>
<g id="a_Node000007"><a xlink:href="../../dd/df3/SDL__render_8c.html#a00ff4c00fc3f0f1cd18c189c47362fe8" target="_top" xlink:title=" ">
<polygon fill="white" stroke="#666666" points="856.25,-96 696.25,-96 696.25,-76 856.25,-76 856.25,-96"/>
<text xml:space="preserve" text-anchor="middle" x="776.25" y="-82.5" font-family="Helvetica,sans-Serif" font-size="10.00">SDL_RenderApplyWindowShape</text>
</a>
</g>
</g>
<!-- Node3&#45;&gt;Node7 -->
<g id="edge6_Node000003_Node000007" class="edge">
<title>Node3&#45;&gt;Node7</title>
<g id="a_edge6_Node000003_Node000007"><a xlink:title=" ">
<path fill="none" stroke="#63b8ff" d="M880.39,-86C872.49,-86 864.53,-86 856.72,-86"/>
<polygon fill="#63b8ff" stroke="#63b8ff" points="880.38,-89.5 890.38,-86 880.38,-82.5 880.38,-89.5"/>
</a>
</g>
</g>
<!-- Node5 -->
<g id="Node000005" class="node">
<title>Node5</title>
<g id="a_Node000005"><a xlink:href="../../dd/df3/SDL__render_8c.html#abea8c4ab0178e48c260dbf830cf7fd17" target="_top" xlink:title=" ">
<polygon fill="white" stroke="#666666" points="660.25,-134 540.75,-134 540.75,-114 660.25,-114 660.25,-134"/>
<text xml:space="preserve" text-anchor="middle" x="600.5" y="-120.5" font-family="Helvetica,sans-Serif" font-size="10.00">SDL_RenderDebugText</text>
</a>
</g>
</g>
<!-- Node4&#45;&gt;Node5 -->
<g id="edge4_Node000004_Node000005" class="edge">
<title>Node4&#45;&gt;Node5</title>
<g id="a_edge4_Node000004_Node000005"><a xlink:title=" ">
<path fill="none" stroke="#63b8ff" d="M706.86,-124C691.57,-124 675.48,-124 660.61,-124"/>
<polygon fill="#63b8ff" stroke="#63b8ff" points="706.84,-127.5 716.84,-124 706.84,-120.5 706.84,-127.5"/>
</a>
</g>
</g>
<!-- Node6 -->
<g id="Node000006" class="node">
<title>Node6</title>
<g id="a_Node000006"><a xlink:href="../../dd/df3/SDL__render_8c.html#a9088b0bec7523287068b9391ab923dc8" target="_top" xlink:title=" ">
<polygon fill="white" stroke="#666666" points="504.75,-134 354.5,-134 354.5,-114 504.75,-114 504.75,-134"/>
<text xml:space="preserve" text-anchor="middle" x="429.62" y="-120.5" font-family="Helvetica,sans-Serif" font-size="10.00">SDL_RenderDebugTextFormat</text>
</a>
</g>
</g>
<!-- Node5&#45;&gt;Node6 -->
<g id="edge5_Node000005_Node000006" class="edge">
<title>Node5&#45;&gt;Node6</title>
<g id="a_edge5_Node000005_Node000006"><a xlink:title=" ">
<path fill="none" stroke="#63b8ff" d="M529.01,-124C521.11,-124 513.04,-124 505.1,-124"/>
<polygon fill="#63b8ff" stroke="#63b8ff" points="528.92,-127.5 538.92,-124 528.92,-120.5 528.92,-127.5"/>
</a>
</g>
</g>
<!-- Node8 -->
<g id="Node000008" class="node">
<title>Node8</title>
<g id="a_Node000008"><a xlink:href="../../dd/df3/SDL__render_8c.html#a0e1304d4ab1c78d549d9018cda3a85d4" target="_top" xlink:title=" ">
<polygon fill="white" stroke="#666666" points="653.5,-96 547.5,-96 547.5,-76 653.5,-76 653.5,-96"/>
<text xml:space="preserve" text-anchor="middle" x="600.5" y="-82.5" font-family="Helvetica,sans-Serif" font-size="10.00">SDL_RenderPresent</text>
</a>
</g>
</g>
<!-- Node7&#45;&gt;Node8 -->
<g id="edge7_Node000007_Node000008" class="edge">
<title>Node7&#45;&gt;Node8</title>
<g id="a_edge7_Node000007_Node000008"><a xlink:title=" ">
<path fill="none" stroke="#63b8ff" d="M684.56,-86C674.02,-86 663.55,-86 653.78,-86"/>
<polygon fill="#63b8ff" stroke="#63b8ff" points="684.49,-89.5 694.49,-86 684.49,-82.5 684.49,-89.5"/>
</a>
</g>
</g>
<!-- Node8&#45;&gt;Node9 -->
<g id="edge8_Node000008_Node000009" class="edge">
<title>Node8&#45;&gt;Node9</title>
<g id="a_edge8_Node000008_Node000009"><a xlink:title=" ">
<path fill="none" stroke="#63b8ff" d="M536.29,-78.89C524.42,-77.55 511.95,-76.15 499.91,-74.79"/>
<polygon fill="#63b8ff" stroke="#63b8ff" points="535.62,-82.34 545.95,-79.98 536.4,-75.38 535.62,-82.34"/>
</a>
</g>
</g>
<!-- Node10 -->
<g id="Node000010" class="node">
<title>Node10</title>
<g id="a_Node000010"><a xlink:href="../../d6/d3d/SDL__video_8c.html#ae6c55eb5cc6ca81ba6faa17eab3af85b" target="_top" xlink:title=" ">
<polygon fill="white" stroke="#666666" points="318.5,-77 161.5,-77 161.5,-57 318.5,-57 318.5,-77"/>
<text xml:space="preserve" text-anchor="middle" x="240" y="-63.5" font-family="Helvetica,sans-Serif" font-size="10.00">SDL_CreateWindowFramebuffer</text>
</a>
</g>
</g>
<!-- Node9&#45;&gt;Node10 -->
<g id="edge9_Node000009_Node000010" class="edge">
<title>Node9&#45;&gt;Node10</title>
<g id="a_edge9_Node000009_Node000010"><a xlink:title=" ">
<path fill="none" stroke="#63b8ff" d="M348.06,-67C338.39,-67 328.53,-67 318.9,-67"/>
<polygon fill="#63b8ff" stroke="#63b8ff" points="347.78,-70.5 357.78,-67 347.78,-63.5 347.78,-70.5"/>
</a>
</g>
</g>
<!-- Node11 -->
<g id="Node000011" class="node">
<title>Node11</title>
<g id="a_Node000011"><a xlink:href="../../d6/d3d/SDL__video_8c.html#a155d3f01bb23f59e2c724973e020ebe6" target="_top" xlink:title=" ">
<polygon fill="white" stroke="#666666" points="125.5,-77 0,-77 0,-57 125.5,-57 125.5,-77"/>
<text xml:space="preserve" text-anchor="middle" x="62.75" y="-63.5" font-family="Helvetica,sans-Serif" font-size="10.00">SDL_GetWindowSurface</text>
</a>
</g>
</g>
<!-- Node10&#45;&gt;Node11 -->
<g id="edge10_Node000010_Node000011" class="edge">
<title>Node10&#45;&gt;Node11</title>
<g id="a_edge10_Node000010_Node000011"><a xlink:title=" ">
<path fill="none" stroke="#63b8ff" d="M149.74,-67C141.68,-67 133.64,-67 125.89,-67"/>
<polygon fill="#63b8ff" stroke="#63b8ff" points="149.6,-70.5 159.6,-67 149.6,-63.5 149.6,-70.5"/>
</a>
</g>
</g>
<!-- Node12&#45;&gt;Node1 -->
<g id="edge12_Node000012_Node000001" class="edge">
<title>Node12&#45;&gt;Node1</title>
<g id="a_edge12_Node000012_Node000001"><a xlink:title=" ">
<path fill="none" stroke="#63b8ff" d="M1219.7,-22.18C1239.96,-25.1 1263.16,-27.74 1283.4,-29.43"/>
<polygon fill="#63b8ff" stroke="#63b8ff" points="1220.38,-18.74 1209.97,-20.71 1219.33,-25.66 1220.38,-18.74"/>
</a>
</g>
</g>
</g>
</svg>

<g id="navigator" transform="translate(0 0)" fill="#404254">
  <rect fill="#f2f5e9" fill-opacity="0.5" stroke="#606060" stroke-width=".5" x="0" y="0" width="60" height="60"/>
  <use id="zoomplus" xlink:href="#zoomPlus" x="17" y="9" onmousedown="handleZoom(evt,'in')"/>
  <use id="zoomminus" xlink:href="#zoomMin" x="42" y="9" onmousedown="handleZoom(evt,'out')"/>
  <use id="reset" xlink:href="#resetDef" x="30" y="36" onmousedown="handleReset()"/>
   <use id="arrowup" xlink:href="#arrowUp" x="0" y="0" onmousedown="handlePan(0,-1)"/>
  <use id="arrowright" xlink:href="#arrowRight" x="0" y="0" onmousedown="handlePan(1,0)"/>
  <use id="arrowdown" xlink:href="#arrowDown" x="0" y="0" onmousedown="handlePan(0,1)"/>
  <use id="arrowleft" xlink:href="#arrowLeft" x="0" y="0" onmousedown="handlePan(-1,0)"/>
</g>
<svg viewBox="0 0 15 15" width="100%" height="30px" preserveAspectRatio="xMaxYMin meet">
 <g id="arrow_out" transform="scale(0.3 0.3)">
  <a xlink:href="SDL__render_8h_aa1c7f4238ac6de6a6e0a47fceb826978_icgraph_org.svg" target="_base">
   <rect id="button" ry="5" rx="5" y="6" x="6" height="38" width="38"
        fill="#f2f5e9" fill-opacity="0.5" stroke="#606060" stroke-width="1.0"/>
   <path id="arrow"
     d="M 11.500037,31.436501 C 11.940474,20.09759 22.043105,11.32322 32.158766,21.979434 L 37.068811,17.246167 C 37.068811,17.246167 37.088388,32 37.088388,32 L 22.160133,31.978069 C 22.160133,31.978069 26.997745,27.140456 26.997745,27.140456 C 18.528582,18.264221 13.291696,25.230495 11.500037,31.436501 z"
     style="fill:#404040;"/>
  </a>
 </g>
</svg>

<style type='text/css'>
<![CDATA[
[data-mouse-over-selected='false'] { opacity: 0.7; }
[data-mouse-over-selected='true']  { opacity: 1.0; }
]]>
</style>
<script type="application/ecmascript"><![CDATA[
document.addEventListener('DOMContentLoaded', (event) => {
  highlightEdges();
  highlightAdjacentNodes();
});
]]></script>
</svg>
