<?xml version="1.0" encoding="UTF-8" standalone="no"?>
<!DOCTYPE svg PUBLIC "-//W3C//DTD SVG 1.1//EN"
 "http://www.w3.org/Graphics/SVG/1.1/DTD/svg11.dtd">
<!-- Generated by graphviz version 13.1.0 (20250701.0955)
 -->
<!-- Title: SDL&#45;main/include/SDL3/SDL_pixels.h Pages: 1 -->
<svg width="716pt" height="208pt"
 viewBox="0.00 0.00 716.00 208.00" xmlns="http://www.w3.org/2000/svg" xmlns:xlink="http://www.w3.org/1999/xlink">
<g id="graph0" class="graph" transform="scale(1 1) rotate(0) translate(4 204)">
<title>SDL&#45;main/include/SDL3/SDL_pixels.h</title>
<!-- Node1 -->
<g id="Node000001" class="node">
<title>Node1</title>
<g id="a_Node000001"><a xlink:title=" ">
<polygon fill="#999999" stroke="#666666" points="557.12,-200 436.12,-200 436.12,-168 557.12,-168 557.12,-200"/>
<text xml:space="preserve" text-anchor="start" x="444.12" y="-186.5" font-family="Helvetica,sans-Serif" font-size="10.00">SDL&#45;main/include/SDL3</text>
<text xml:space="preserve" text-anchor="middle" x="496.62" y="-174.5" font-family="Helvetica,sans-Serif" font-size="10.00">/SDL_pixels.h</text>
</a>
</g>
</g>
<!-- Node2 -->
<g id="Node000002" class="node">
<title>Node2</title>
<g id="a_Node000002"><a xlink:href="../../d2/d5b/SDL__stdinc_8h.html" target="_top" xlink:title=" ">
<polygon fill="white" stroke="#666666" points="396.12,-76 293.12,-76 293.12,-56 396.12,-56 396.12,-76"/>
<text xml:space="preserve" text-anchor="middle" x="344.62" y="-62.5" font-family="Helvetica,sans-Serif" font-size="10.00">SDL3/SDL_stdinc.h</text>
</a>
</g>
</g>
<!-- Node1&#45;&gt;Node2 -->
<g id="edge1_Node000001_Node000002" class="edge">
<title>Node1&#45;&gt;Node2</title>
<g id="a_edge1_Node000001_Node000002"><a xlink:title=" ">
<path fill="none" stroke="#63b8ff" d="M435.88,-172.18C410.44,-164.79 382.48,-152.46 363.62,-132 352.41,-119.83 347.78,-101.39 345.89,-87.26"/>
<polygon fill="#63b8ff" stroke="#63b8ff" points="349.42,-87.34 344.98,-77.72 342.45,-88 349.42,-87.34"/>
</a>
</g>
</g>
<!-- Node8 -->
<g id="Node000008" class="node">
<title>Node8</title>
<g id="a_Node000008"><a xlink:href="../../d8/d5f/SDL__begin__code_8h.html" target="_top" xlink:title=" ">
<polygon fill="white" stroke="#666666" points="563.75,-20 437.5,-20 437.5,0 563.75,0 563.75,-20"/>
<text xml:space="preserve" text-anchor="middle" x="500.62" y="-6.5" font-family="Helvetica,sans-Serif" font-size="10.00">SDL3/SDL_begin_code.h</text>
</a>
</g>
</g>
<!-- Node1&#45;&gt;Node8 -->
<g id="edge17_Node000001_Node000008" class="edge">
<title>Node1&#45;&gt;Node8</title>
<g id="a_edge17_Node000001_Node000008"><a xlink:title=" ">
<path fill="none" stroke="#63b8ff" d="M496.98,-167.74C497.7,-136.69 499.34,-66.18 500.15,-31.31"/>
<polygon fill="#63b8ff" stroke="#63b8ff" points="503.64,-31.8 500.38,-21.72 496.64,-31.64 503.64,-31.8"/>
</a>
</g>
</g>
<!-- Node9 -->
<g id="Node000009" class="node">
<title>Node9</title>
<g id="a_Node000009"><a xlink:href="../../d9/d73/SDL__close__code_8h.html" target="_top" xlink:title=" ">
<polygon fill="white" stroke="#666666" points="707.75,-20 581.5,-20 581.5,0 707.75,0 707.75,-20"/>
<text xml:space="preserve" text-anchor="middle" x="644.62" y="-6.5" font-family="Helvetica,sans-Serif" font-size="10.00">SDL3/SDL_close_code.h</text>
</a>
</g>
</g>
<!-- Node1&#45;&gt;Node9 -->
<g id="edge18_Node000001_Node000009" class="edge">
<title>Node1&#45;&gt;Node9</title>
<g id="a_edge18_Node000001_Node000009"><a xlink:title=" ">
<path fill="none" stroke="#63b8ff" d="M557.48,-176.99C587.19,-170.69 620.56,-157.89 639.62,-132 661.27,-102.61 655.86,-57.44 650.13,-31.41"/>
<polygon fill="#63b8ff" stroke="#63b8ff" points="653.55,-30.66 647.77,-21.79 646.76,-32.33 653.55,-30.66"/>
</a>
</g>
</g>
<!-- Node10 -->
<g id="Node000010" class="node">
<title>Node10</title>
<g id="a_Node000010"><a xlink:href="../../da/d16/SDL__error_8h.html" target="_top" xlink:title=" ">
<polygon fill="white" stroke="#666666" points="468.75,-132 372.5,-132 372.5,-112 468.75,-112 468.75,-132"/>
<text xml:space="preserve" text-anchor="middle" x="420.62" y="-118.5" font-family="Helvetica,sans-Serif" font-size="10.00">SDL3/SDL_error.h</text>
</a>
</g>
</g>
<!-- Node1&#45;&gt;Node10 -->
<g id="edge9_Node000001_Node000010" class="edge">
<title>Node1&#45;&gt;Node10</title>
<g id="a_edge9_Node000001_Node000010"><a xlink:title=" ">
<path fill="none" stroke="#63b8ff" d="M477.05,-167.55C466.17,-158.95 452.62,-148.26 441.53,-139.5"/>
<polygon fill="#63b8ff" stroke="#63b8ff" points="443.75,-136.8 433.73,-133.35 439.41,-142.29 443.75,-136.8"/>
</a>
</g>
</g>
<!-- Node11 -->
<g id="Node000011" class="node">
<title>Node11</title>
<g id="a_Node000011"><a xlink:href="../../d6/de1/SDL__endian_8h.html" target="_top" xlink:title=" ">
<polygon fill="white" stroke="#666666" points="630.25,-132 525,-132 525,-112 630.25,-112 630.25,-132"/>
<text xml:space="preserve" text-anchor="middle" x="577.62" y="-118.5" font-family="Helvetica,sans-Serif" font-size="10.00">SDL3/SDL_endian.h</text>
</a>
</g>
</g>
<!-- Node1&#45;&gt;Node11 -->
<g id="edge13_Node000001_Node000011" class="edge">
<title>Node1&#45;&gt;Node11</title>
<g id="a_edge13_Node000001_Node000011"><a xlink:title=" ">
<path fill="none" stroke="#63b8ff" d="M517.48,-167.55C529.2,-158.87 543.82,-148.04 555.7,-139.24"/>
<polygon fill="#63b8ff" stroke="#63b8ff" points="557.76,-142.07 563.71,-133.31 553.59,-136.45 557.76,-142.07"/>
</a>
</g>
</g>
<!-- Node3 -->
<g id="Node000003" class="node">
<title>Node3</title>
<g id="a_Node000003"><a xlink:href="../../d3/d8b/SDL__platform__defines_8h.html" target="_top" xlink:title=" ">
<polygon fill="white" stroke="#666666" points="419,-20 270.25,-20 270.25,0 419,0 419,-20"/>
<text xml:space="preserve" text-anchor="middle" x="344.62" y="-6.5" font-family="Helvetica,sans-Serif" font-size="10.00">SDL3/SDL_platform_defines.h</text>
</a>
</g>
</g>
<!-- Node2&#45;&gt;Node3 -->
<g id="edge2_Node000002_Node000003" class="edge">
<title>Node2&#45;&gt;Node3</title>
<g id="a_edge2_Node000002_Node000003"><a xlink:title=" ">
<path fill="none" stroke="#63b8ff" d="M344.62,-55.59C344.62,-49.01 344.62,-39.96 344.62,-31.73"/>
<polygon fill="#63b8ff" stroke="#63b8ff" points="348.13,-31.81 344.63,-21.81 341.13,-31.81 348.13,-31.81"/>
</a>
</g>
</g>
<!-- Node4 -->
<g id="Node000004" class="node">
<title>Node4</title>
<g id="a_Node000004"><a xlink:title=" ">
<polygon fill="#e0e0e0" stroke="#999999" points="51.25,-20 0,-20 0,0 51.25,0 51.25,-20"/>
<text xml:space="preserve" text-anchor="middle" x="25.62" y="-6.5" font-family="Helvetica,sans-Serif" font-size="10.00">stdarg.h</text>
</a>
</g>
</g>
<!-- Node2&#45;&gt;Node4 -->
<g id="edge3_Node000002_Node000004" class="edge">
<title>Node2&#45;&gt;Node4</title>
<g id="a_edge3_Node000002_Node000004"><a xlink:title=" ">
<path fill="none" stroke="#63b8ff" d="M292.79,-58.29C238,-50.86 148.85,-37.82 62.6,-20.24"/>
<polygon fill="#63b8ff" stroke="#63b8ff" points="63.54,-16.86 53.04,-18.26 62.12,-23.71 63.54,-16.86"/>
</a>
</g>
</g>
<!-- Node5 -->
<g id="Node000005" class="node">
<title>Node5</title>
<g id="a_Node000005"><a xlink:title=" ">
<polygon fill="#e0e0e0" stroke="#999999" points="117.75,-20 69.5,-20 69.5,0 117.75,0 117.75,-20"/>
<text xml:space="preserve" text-anchor="middle" x="93.62" y="-6.5" font-family="Helvetica,sans-Serif" font-size="10.00">stdint.h</text>
</a>
</g>
</g>
<!-- Node2&#45;&gt;Node5 -->
<g id="edge4_Node000002_Node000005" class="edge">
<title>Node2&#45;&gt;Node5</title>
<g id="a_edge4_Node000002_Node000005"><a xlink:title=" ">
<path fill="none" stroke="#63b8ff" d="M294.21,-55.52C252.4,-47.46 191.17,-35.16 129.25,-20.52"/>
<polygon fill="#63b8ff" stroke="#63b8ff" points="130.1,-17.12 119.56,-18.21 128.48,-23.93 130.1,-17.12"/>
</a>
</g>
</g>
<!-- Node6 -->
<g id="Node000006" class="node">
<title>Node6</title>
<g id="a_Node000006"><a xlink:title=" ">
<polygon fill="#e0e0e0" stroke="#999999" points="183.75,-20 135.5,-20 135.5,0 183.75,0 183.75,-20"/>
<text xml:space="preserve" text-anchor="middle" x="159.62" y="-6.5" font-family="Helvetica,sans-Serif" font-size="10.00">string.h</text>
</a>
</g>
</g>
<!-- Node2&#45;&gt;Node6 -->
<g id="edge5_Node000002_Node000006" class="edge">
<title>Node2&#45;&gt;Node6</title>
<g id="a_edge5_Node000002_Node000006"><a xlink:title=" ">
<path fill="none" stroke="#63b8ff" d="M312.4,-55.59C279.57,-46.01 228.79,-31.19 194.9,-21.3"/>
<polygon fill="#63b8ff" stroke="#63b8ff" points="196.14,-18.01 185.55,-18.57 194.17,-24.73 196.14,-18.01"/>
</a>
</g>
</g>
<!-- Node7 -->
<g id="Node000007" class="node">
<title>Node7</title>
<g id="a_Node000007"><a xlink:title=" ">
<polygon fill="#e0e0e0" stroke="#999999" points="251.88,-20 201.38,-20 201.38,0 251.88,0 251.88,-20"/>
<text xml:space="preserve" text-anchor="middle" x="226.62" y="-6.5" font-family="Helvetica,sans-Serif" font-size="10.00">wchar.h</text>
</a>
</g>
</g>
<!-- Node2&#45;&gt;Node7 -->
<g id="edge6_Node000002_Node000007" class="edge">
<title>Node2&#45;&gt;Node7</title>
<g id="a_edge6_Node000002_Node000007"><a xlink:title=" ">
<path fill="none" stroke="#63b8ff" d="M324.07,-55.59C305.74,-47.21 278.64,-34.8 257.67,-25.21"/>
<polygon fill="#63b8ff" stroke="#63b8ff" points="259.27,-22.09 248.72,-21.11 256.35,-28.45 259.27,-22.09"/>
</a>
</g>
</g>
<!-- Node2&#45;&gt;Node8 -->
<g id="edge7_Node000002_Node000008" class="edge">
<title>Node2&#45;&gt;Node8</title>
<g id="a_edge7_Node000002_Node000008"><a xlink:title=" ">
<path fill="none" stroke="#63b8ff" d="M371.8,-55.59C396.92,-46.9 434.51,-33.89 462.6,-24.16"/>
<polygon fill="#63b8ff" stroke="#63b8ff" points="463.5,-27.55 471.81,-20.97 461.21,-20.94 463.5,-27.55"/>
</a>
</g>
</g>
<!-- Node2&#45;&gt;Node9 -->
<g id="edge8_Node000002_Node000009" class="edge">
<title>Node2&#45;&gt;Node9</title>
<g id="a_edge8_Node000002_Node000009"><a xlink:title=" ">
<path fill="none" stroke="#63b8ff" d="M396.54,-55.66C447.76,-46.43 526.17,-32.32 581.09,-22.44"/>
<polygon fill="#63b8ff" stroke="#63b8ff" points="581.38,-25.94 590.6,-20.72 580.14,-19.05 581.38,-25.94"/>
</a>
</g>
</g>
<!-- Node10&#45;&gt;Node2 -->
<g id="edge10_Node000010_Node000002" class="edge">
<title>Node10&#45;&gt;Node2</title>
<g id="a_edge10_Node000010_Node000002"><a xlink:title=" ">
<path fill="none" stroke="#63b8ff" d="M407.39,-111.59C396.34,-103.74 380.34,-92.38 367.27,-83.09"/>
<polygon fill="#63b8ff" stroke="#63b8ff" points="369.38,-80.3 359.2,-77.36 365.32,-86 369.38,-80.3"/>
</a>
</g>
</g>
<!-- Node10&#45;&gt;Node8 -->
<g id="edge11_Node000010_Node000008" class="edge">
<title>Node10&#45;&gt;Node8</title>
<g id="a_edge11_Node000010_Node000008"><a xlink:title=" ">
<path fill="none" stroke="#63b8ff" d="M427.45,-111.62C440.67,-93.44 470.01,-53.09 487.25,-29.38"/>
<polygon fill="#63b8ff" stroke="#63b8ff" points="489.88,-31.72 492.93,-21.58 484.22,-27.61 489.88,-31.72"/>
</a>
</g>
</g>
<!-- Node10&#45;&gt;Node9 -->
<g id="edge12_Node000010_Node000009" class="edge">
<title>Node10&#45;&gt;Node9</title>
<g id="a_edge12_Node000010_Node000009"><a xlink:title=" ">
<path fill="none" stroke="#63b8ff" d="M439.72,-111.62C478.98,-92.34 568.97,-48.15 615.53,-25.29"/>
<polygon fill="#63b8ff" stroke="#63b8ff" points="616.78,-28.57 624.22,-21.02 613.7,-22.29 616.78,-28.57"/>
</a>
</g>
</g>
<!-- Node11&#45;&gt;Node2 -->
<g id="edge14_Node000011_Node000002" class="edge">
<title>Node11&#45;&gt;Node2</title>
<g id="a_edge14_Node000011_Node000002"><a xlink:title=" ">
<path fill="none" stroke="#63b8ff" d="M536.77,-111.53C497.8,-102.5 438.92,-88.85 396.62,-79.05"/>
<polygon fill="#63b8ff" stroke="#63b8ff" points="397.44,-75.65 386.9,-76.8 395.86,-82.47 397.44,-75.65"/>
</a>
</g>
</g>
<!-- Node11&#45;&gt;Node8 -->
<g id="edge15_Node000011_Node000008" class="edge">
<title>Node11&#45;&gt;Node8</title>
<g id="a_edge15_Node000011_Node000008"><a xlink:title=" ">
<path fill="none" stroke="#63b8ff" d="M571.06,-111.62C558.39,-93.52 530.34,-53.45 513.72,-29.7"/>
<polygon fill="#63b8ff" stroke="#63b8ff" points="516.64,-27.78 508.04,-21.59 510.91,-31.79 516.64,-27.78"/>
</a>
</g>
</g>
<!-- Node11&#45;&gt;Node9 -->
<g id="edge16_Node000011_Node000009" class="edge">
<title>Node11&#45;&gt;Node9</title>
<g id="a_edge16_Node000011_Node000009"><a xlink:title=" ">
<path fill="none" stroke="#63b8ff" d="M583.34,-111.62C594.31,-93.6 618.55,-53.81 633.04,-30.02"/>
<polygon fill="#63b8ff" stroke="#63b8ff" points="635.93,-32.01 638.14,-21.65 629.95,-28.37 635.93,-32.01"/>
</a>
</g>
</g>
</g>
</svg>
