<?xml version="1.0" encoding="UTF-8" standalone="no"?>
<!DOCTYPE svg PUBLIC "-//W3C//DTD SVG 1.1//EN"
 "http://www.w3.org/Graphics/SVG/1.1/DTD/svg11.dtd">
<!-- Generated by graphviz version 13.1.0 (20250701.0955)
 -->
<!-- Title: memset Pages: 1 -->
<!--zoomable 787 -->

<svg id="main" version="1.1" xmlns="http://www.w3.org/2000/svg" xmlns:xlink="http://www.w3.org/1999/xlink" xml:space="preserve" onload="init(evt)">

<style type="text/css"><![CDATA[
.node, .edge {opacity: 0.7;}
.node.selected, .edge.selected {opacity: 1;}
.edge:hover path { stroke: red; }
.edge:hover polygon { stroke: red; fill: red; }
]]></style>

<defs>
  <circle id="rim" cx="0" cy="0" r="7"/>
  <circle id="rim2" cx="0" cy="0" r="3.5"/>
  <g id="zoomPlus">
    <use xlink:href="#rim" fill="#404040"><set attributeName="fill" to="#808080" begin="zoomplus.mouseover" end="zoomplus.mouseout"/></use>
    <path d="M-4,0h8M0,-4v8" fill="none" stroke="white" stroke-width="1.5" pointer-events="none"/>
  </g>
  <g id="zoomMin">
    <use xlink:href="#rim" fill="#404040"><set attributeName="fill" to="#808080" begin="zoomminus.mouseover" end="zoomminus.mouseout"/></use>
    <path d="M-4,0h8" fill="none" stroke="white" stroke-width="1.5" pointer-events="none"/>
  </g>
  <g id="arrowUp" transform="translate(30 24)">
    <use xlink:href="#rim"/>
    <path pointer-events="none" fill="none" stroke="white" stroke-width="1.5" d="M0,-3.0v7 M-2.5,-0.5L0,-3.0L2.5,-0.5"/>
  </g>
  <g id="arrowRight" transform="rotate(90) translate(36 -43)">
    <use xlink:href="#rim"/>
    <path pointer-events="none" fill="none" stroke="white" stroke-width="1.5" d="M0,-3.0v7 M-2.5,-0.5L0,-3.0L2.5,-0.5"/>
  </g>
  <g id="arrowDown" transform="rotate(180) translate(-30 -48)">
    <use xlink:href="#rim"/>
    <path pointer-events="none" fill="none" stroke="white" stroke-width="1.5" d="M0,-3.0v7 M-2.5,-0.5L0,-3.0L2.5,-0.5"/>
  </g>
  <g id="arrowLeft" transform="rotate(270) translate(-36 17)">
    <use xlink:href="#rim"/>
    <path pointer-events="none" fill="none" stroke="white" stroke-width="1.5" d="M0,-3.0v7 M-2.5,-0.5L0,-3.0L2.5,-0.5"/>
  </g>
  <g id="resetDef">
    <use xlink:href="#rim2" fill="#404040"><set attributeName="fill" to="#808080" begin="reset.mouseover" end="reset.mouseout"/></use>
  </g>
</defs>
<script type="application/ecmascript">
var viewWidth = 595;
var viewHeight = 787;
var sectionId = 'dynsection-1';
</script>
<script type="application/ecmascript" xlink:href="../../svg.min.js"/>
<svg id="graph" class="graph">
<g id="viewport">
<title>memset</title>
<!-- Node1 -->
<g id="Node000001" class="node">
<title>Node1</title>
<g id="a_Node000001"><a xlink:title=" ">
<polygon fill="#999999" stroke="#666666" points="586.75,-410 535.5,-410 535.5,-390 586.75,-390 586.75,-410"/>
<text xml:space="preserve" text-anchor="middle" x="561.12" y="-396.5" font-family="Helvetica,sans-Serif" font-size="10.00">memset</text>
</a>
</g>
</g>
<!-- Node2 -->
<g id="Node000002" class="node">
<title>Node2</title>
<g id="a_Node000002"><a xlink:href="../../d6/d93/netbsd_2hid_8c.html#aaacf4014c26556b9320ed9d5c1cd447e" target="_top" xlink:title=" ">
<polygon fill="white" stroke="#666666" points="474,-779 376.25,-779 376.25,-759 474,-759 474,-779"/>
<text xml:space="preserve" text-anchor="middle" x="425.12" y="-765.5" font-family="Helvetica,sans-Serif" font-size="10.00">create_device_info</text>
</a>
</g>
</g>
<!-- Node1&#45;&gt;Node2 -->
<g id="edge1_Node000001_Node000002" class="edge">
<title>Node1&#45;&gt;Node2</title>
<g id="a_edge1_Node000001_Node000002"><a xlink:title=" ">
<path fill="none" stroke="#63b8ff" d="M559.17,-421.55C555.76,-489.23 541.98,-696.01 499.5,-745 492.91,-752.59 483.89,-757.8 474.42,-761.36"/>
<polygon fill="#63b8ff" stroke="#63b8ff" points="562.66,-421.94 559.64,-411.78 555.66,-421.61 562.66,-421.94"/>
</a>
</g>
</g>
<!-- Node3 -->
<g id="Node000003" class="node">
<title>Node3</title>
<g id="a_Node000003"><a xlink:href="../../da/db5/linux_2hid_8c.html#ac3851fec4804ade81acc2c4a65a5cecc" target="_top" xlink:title=" ">
<polygon fill="white" stroke="#666666" points="117.62,-725 19.88,-725 19.88,-693 117.62,-693 117.62,-725"/>
<text xml:space="preserve" text-anchor="start" x="27.88" y="-711.5" font-family="Helvetica,sans-Serif" font-size="10.00">create_device_info</text>
<text xml:space="preserve" text-anchor="middle" x="68.75" y="-699.5" font-family="Helvetica,sans-Serif" font-size="10.00">_for_device</text>
</a>
</g>
</g>
<!-- Node1&#45;&gt;Node3 -->
<g id="edge2_Node000001_Node000003" class="edge">
<title>Node1&#45;&gt;Node3</title>
<g id="a_edge2_Node000001_Node000003"><a xlink:title=" ">
<path fill="none" stroke="#63b8ff" d="M558.96,-421.72C555.16,-483.87 540.86,-660.34 499.5,-697 444.27,-745.95 217.94,-726.44 117.8,-715.02"/>
<polygon fill="#63b8ff" stroke="#63b8ff" points="562.46,-421.98 559.54,-411.79 555.47,-421.58 562.46,-421.98"/>
</a>
</g>
</g>
<!-- Node4 -->
<g id="Node000004" class="node">
<title>Node4</title>
<g id="a_Node000004"><a xlink:href="../../d4/d23/SDL__malloc_8c.html#a557252c43fb14a209ead0e6dfe6216ad" target="_top" xlink:title=" ">
<polygon fill="white" stroke="#666666" points="449.62,-688 400.62,-688 400.62,-668 449.62,-668 449.62,-688"/>
<text xml:space="preserve" text-anchor="middle" x="425.12" y="-674.5" font-family="Helvetica,sans-Serif" font-size="10.00">dlcalloc</text>
</a>
</g>
</g>
<!-- Node1&#45;&gt;Node4 -->
<g id="edge3_Node000001_Node000004" class="edge">
<title>Node1&#45;&gt;Node4</title>
<g id="a_edge3_Node000001_Node000004"><a xlink:title=" ">
<path fill="none" stroke="#63b8ff" d="M557.93,-421.54C551.82,-477.4 532.81,-624.9 499.5,-659 486.72,-672.08 466.19,-676.56 450.09,-677.92"/>
<polygon fill="#63b8ff" stroke="#63b8ff" points="561.4,-422.07 558.97,-411.76 554.43,-421.34 561.4,-422.07"/>
</a>
</g>
</g>
<!-- Node5 -->
<g id="Node000005" class="node">
<title>Node5</title>
<g id="a_Node000005"><a xlink:href="../../da/db5/linux_2hid_8c.html#ad4142159e4216558d922d78fe4ad89ba" target="_top" xlink:title=" ">
<polygon fill="white" stroke="#666666" points="487.88,-650 362.38,-650 362.38,-630 487.88,-630 487.88,-650"/>
<text xml:space="preserve" text-anchor="middle" x="425.12" y="-636.5" font-family="Helvetica,sans-Serif" font-size="10.00">get_hid_report_descriptor</text>
</a>
</g>
</g>
<!-- Node1&#45;&gt;Node5 -->
<g id="edge4_Node000001_Node000005" class="edge">
<title>Node1&#45;&gt;Node5</title>
<g id="a_edge4_Node000001_Node000005"><a xlink:title=" ">
<path fill="none" stroke="#63b8ff" d="M560.85,-421.59C561.08,-465.62 555.08,-566.21 499.5,-621 496.03,-624.42 492.03,-627.24 487.73,-629.58"/>
<polygon fill="#63b8ff" stroke="#63b8ff" points="564.35,-421.53 560.66,-411.6 557.35,-421.66 564.35,-421.53"/>
</a>
</g>
</g>
<!-- Node7 -->
<g id="Node000007" class="node">
<title>Node7</title>
<g id="a_Node000007"><a xlink:href="../../da/db5/linux_2hid_8c.html#af88f0c287cc94a83078b1cf4d65fd048" target="_top" xlink:title=" ">
<polygon fill="white" stroke="#666666" points="487.88,-612 362.38,-612 362.38,-580 487.88,-580 487.88,-612"/>
<text xml:space="preserve" text-anchor="start" x="370.38" y="-598.5" font-family="Helvetica,sans-Serif" font-size="10.00">get_hid_report_descriptor</text>
<text xml:space="preserve" text-anchor="middle" x="425.12" y="-586.5" font-family="Helvetica,sans-Serif" font-size="10.00">_from_hidraw</text>
</a>
</g>
</g>
<!-- Node1&#45;&gt;Node7 -->
<g id="edge7_Node000001_Node000007" class="edge">
<title>Node1&#45;&gt;Node7</title>
<g id="a_edge7_Node000001_Node000007"><a xlink:title=" ">
<path fill="none" stroke="#63b8ff" d="M558.42,-421.58C554.43,-457.48 541.4,-529.62 499.5,-571 496.15,-574.31 492.34,-577.18 488.27,-579.67"/>
<polygon fill="#63b8ff" stroke="#63b8ff" points="561.86,-422.29 559.34,-412 554.9,-421.62 561.86,-422.29"/>
</a>
</g>
</g>
<!-- Node9 -->
<g id="Node000009" class="node">
<title>Node9</title>
<g id="a_Node000009"><a xlink:href="../../d0/d22/windows_2hid_8c.html#a02977920fd1c8021bd9c8433509326a7" target="_top" xlink:title=" ">
<polygon fill="white" stroke="#666666" points="463.88,-562 386.38,-562 386.38,-542 463.88,-542 463.88,-562"/>
<text xml:space="preserve" text-anchor="middle" x="425.12" y="-548.5" font-family="Helvetica,sans-Serif" font-size="10.00">hid_get_report</text>
</a>
</g>
</g>
<!-- Node1&#45;&gt;Node9 -->
<g id="edge9_Node000001_Node000009" class="edge">
<title>Node1&#45;&gt;Node9</title>
<g id="a_edge9_Node000001_Node000009"><a xlink:title=" ">
<path fill="none" stroke="#63b8ff" d="M556.27,-421.62C549.83,-451.23 534.03,-504.02 499.5,-533 489.62,-541.29 476.55,-546.02 464.19,-548.7"/>
<polygon fill="#63b8ff" stroke="#63b8ff" points="559.67,-422.46 558.18,-411.97 552.8,-421.09 559.67,-422.46"/>
</a>
</g>
</g>
<!-- Node12 -->
<g id="Node000012" class="node">
<title>Node12</title>
<g id="a_Node000012"><a xlink:href="../../d4/d23/SDL__malloc_8c.html#a6156a11ac0c98046018896db06f45979" target="_top" xlink:title=" ">
<polygon fill="white" stroke="#666666" points="444.38,-524 405.88,-524 405.88,-504 444.38,-504 444.38,-524"/>
<text xml:space="preserve" text-anchor="middle" x="425.12" y="-510.5" font-family="Helvetica,sans-Serif" font-size="10.00">ialloc</text>
</a>
</g>
</g>
<!-- Node1&#45;&gt;Node12 -->
<g id="edge12_Node000001_Node000012" class="edge">
<title>Node1&#45;&gt;Node12</title>
<g id="a_edge12_Node000001_Node000012"><a xlink:title=" ">
<path fill="none" stroke="#63b8ff" d="M552.25,-420.84C542.96,-442.63 525.4,-476.19 499.5,-495 483.32,-506.75 460.48,-511.25 444.6,-512.96"/>
<polygon fill="#63b8ff" stroke="#63b8ff" points="555.41,-422.38 555.9,-411.8 548.92,-419.77 555.41,-422.38"/>
</a>
</g>
</g>
<!-- Node15 -->
<g id="Node000015" class="node">
<title>Node15</title>
<g id="a_Node000015"><a xlink:href="../../d6/dcf/libusb_2hid_8c.html#a6ef0f647c7144184032b06f3f201b8d8" target="_top" xlink:title=" ">
<polygon fill="white" stroke="#666666" points="460.5,-486 389.75,-486 389.75,-466 460.5,-466 460.5,-486"/>
<text xml:space="preserve" text-anchor="middle" x="425.12" y="-472.5" font-family="Helvetica,sans-Serif" font-size="10.00">init_xbox360</text>
</a>
</g>
</g>
<!-- Node1&#45;&gt;Node15 -->
<g id="edge15_Node000001_Node000015" class="edge">
<title>Node1&#45;&gt;Node15</title>
<g id="a_edge15_Node000001_Node000015"><a xlink:title=" ">
<path fill="none" stroke="#63b8ff" d="M544.98,-418.48C533.69,-431.1 517.21,-447.23 499.5,-457 487.63,-463.55 473.44,-467.9 460.71,-470.77"/>
<polygon fill="#63b8ff" stroke="#63b8ff" points="547.37,-421.07 551.24,-411.21 542.06,-416.5 547.37,-421.07"/>
</a>
</g>
</g>
<!-- Node19 -->
<g id="Node000019" class="node">
<title>Node19</title>
<g id="a_Node000019"><a xlink:href="../../d0/d22/windows_2hid_8c.html#a4b3e0157b6cc7b4be7db3c2a3715b124" target="_top" xlink:title=" ">
<polygon fill="white" stroke="#666666" points="495,-448 355.25,-448 355.25,-428 495,-428 495,-448"/>
<text xml:space="preserve" text-anchor="middle" x="425.12" y="-434.5" font-family="Helvetica,sans-Serif" font-size="10.00">IsWindowsVersionOrGreater</text>
</a>
</g>
</g>
<!-- Node1&#45;&gt;Node19 -->
<g id="edge19_Node000001_Node000019" class="edge">
<title>Node1&#45;&gt;Node19</title>
<g id="a_edge19_Node000001_Node000019"><a xlink:title=" ">
<path fill="none" stroke="#63b8ff" d="M524.41,-411.52C516.25,-414.06 507.59,-416.69 499.5,-419 489.38,-421.89 478.42,-424.84 468.13,-427.51"/>
<polygon fill="#63b8ff" stroke="#63b8ff" points="525.21,-414.94 533.69,-408.6 523.11,-408.26 525.21,-414.94"/>
</a>
</g>
</g>
<!-- Node21 -->
<g id="Node000021" class="node">
<title>Node21</title>
<g id="a_Node000021"><a xlink:href="../../d0/d22/windows_2hid_8c.html#a2651e3dded83fcdacac0f9315ad38dde" target="_top" xlink:title=" ">
<polygon fill="white" stroke="#666666" points="468,-410 382.25,-410 382.25,-390 468,-390 468,-410"/>
<text xml:space="preserve" text-anchor="middle" x="425.12" y="-396.5" font-family="Helvetica,sans-Serif" font-size="10.00">new_hid_device</text>
</a>
</g>
</g>
<!-- Node1&#45;&gt;Node21 -->
<g id="edge21_Node000001_Node000021" class="edge">
<title>Node1&#45;&gt;Node21</title>
<g id="a_edge21_Node000001_Node000021"><a xlink:title=" ">
<path fill="none" stroke="#63b8ff" d="M523.97,-400C506.79,-400 486.15,-400 468.26,-400"/>
<polygon fill="#63b8ff" stroke="#63b8ff" points="523.72,-403.5 533.72,-400 523.72,-396.5 523.72,-403.5"/>
</a>
</g>
</g>
<!-- Node22 -->
<g id="Node000022" class="node">
<title>Node22</title>
<g id="a_Node000022"><a xlink:href="../../d6/d1a/classMainWindow.html#ab198cd229ee6b9245d552bf027ecbce6" target="_top" xlink:title=" ">
<polygon fill="white" stroke="#666666" points="493.88,-372 356.38,-372 356.38,-340 493.88,-340 493.88,-372"/>
<text xml:space="preserve" text-anchor="start" x="364.38" y="-358.5" font-family="Helvetica,sans-Serif" font-size="10.00">MainWindow::onGetFeature</text>
<text xml:space="preserve" text-anchor="middle" x="425.12" y="-346.5" font-family="Helvetica,sans-Serif" font-size="10.00">Report</text>
</a>
</g>
</g>
<!-- Node1&#45;&gt;Node22 -->
<g id="edge22_Node000001_Node000022" class="edge">
<title>Node1&#45;&gt;Node22</title>
<g id="a_edge22_Node000001_Node000022"><a xlink:title=" ">
<path fill="none" stroke="#63b8ff" d="M524.49,-388.3C509.67,-383.43 492.21,-377.7 476.14,-372.42"/>
<polygon fill="#63b8ff" stroke="#63b8ff" points="523.2,-391.56 533.8,-391.35 525.39,-384.91 523.2,-391.56"/>
</a>
</g>
</g>
<!-- Node24 -->
<g id="Node000024" class="node">
<title>Node24</title>
<g id="a_Node000024"><a xlink:href="../../d6/d1a/classMainWindow.html#ad48029256791a3a8f2fe2f63a229e2dd" target="_top" xlink:title=" ">
<polygon fill="white" stroke="#666666" points="497.25,-322 353,-322 353,-290 497.25,-290 497.25,-322"/>
<text xml:space="preserve" text-anchor="start" x="361" y="-308.5" font-family="Helvetica,sans-Serif" font-size="10.00">MainWindow::onSendFeature</text>
<text xml:space="preserve" text-anchor="middle" x="425.12" y="-296.5" font-family="Helvetica,sans-Serif" font-size="10.00">Report</text>
</a>
</g>
</g>
<!-- Node1&#45;&gt;Node24 -->
<g id="edge24_Node000001_Node000024" class="edge">
<title>Node1&#45;&gt;Node24</title>
<g id="a_edge24_Node000001_Node000024"><a xlink:title=" ">
<path fill="none" stroke="#63b8ff" d="M547.26,-380.41C536.24,-365.03 519.08,-344.08 499.5,-331 494.69,-327.78 489.42,-324.94 483.99,-322.44"/>
<polygon fill="#63b8ff" stroke="#63b8ff" points="544.16,-382.09 552.72,-388.34 549.93,-378.12 544.16,-382.09"/>
</a>
</g>
</g>
<!-- Node25 -->
<g id="Node000025" class="node">
<title>Node25</title>
<g id="a_Node000025"><a xlink:href="../../d6/d1a/classMainWindow.html#abc0b34287583fe5b4a4976e8e9a007fc" target="_top" xlink:title=" ">
<polygon fill="white" stroke="#666666" points="495.38,-272 354.88,-272 354.88,-240 495.38,-240 495.38,-272"/>
<text xml:space="preserve" text-anchor="start" x="362.88" y="-258.5" font-family="Helvetica,sans-Serif" font-size="10.00">MainWindow::onSendOutput</text>
<text xml:space="preserve" text-anchor="middle" x="425.12" y="-246.5" font-family="Helvetica,sans-Serif" font-size="10.00">Report</text>
</a>
</g>
</g>
<!-- Node1&#45;&gt;Node25 -->
<g id="edge26_Node000001_Node000025" class="edge">
<title>Node1&#45;&gt;Node25</title>
<g id="a_edge26_Node000001_Node000025"><a xlink:title=" ">
<path fill="none" stroke="#63b8ff" d="M554.65,-378.71C546.78,-352.2 529.75,-307.22 499.5,-281 495.74,-277.74 491.53,-274.9 487.08,-272.43"/>
<polygon fill="#63b8ff" stroke="#63b8ff" points="551.27,-379.61 557.32,-388.31 558.01,-377.74 551.27,-379.61"/>
</a>
</g>
</g>
<!-- Node26 -->
<g id="Node000026" class="node">
<title>Node26</title>
<g id="a_Node000026"><a xlink:href="../../d6/d93/netbsd_2hid_8c.html#a0e569381b03120d85110c54f4cdff5b5" target="_top" xlink:title=" ">
<polygon fill="white" stroke="#666666" points="493.88,-222 356.38,-222 356.38,-202 493.88,-202 493.88,-222"/>
<text xml:space="preserve" text-anchor="middle" x="425.12" y="-208.5" font-family="Helvetica,sans-Serif" font-size="10.00">PLATFORM_hid_open_path</text>
</a>
</g>
</g>
<!-- Node1&#45;&gt;Node26 -->
<g id="edge28_Node000001_Node000026" class="edge">
<title>Node1&#45;&gt;Node26</title>
<g id="a_edge28_Node000001_Node000026"><a xlink:title=" ">
<path fill="none" stroke="#63b8ff" d="M558.72,-378.84C555.17,-343.02 542.75,-270.48 499.5,-231 495.71,-227.54 491.37,-224.69 486.74,-222.35"/>
<polygon fill="#63b8ff" stroke="#63b8ff" points="555.19,-378.68 559.51,-388.36 562.17,-378.1 555.19,-378.68"/>
</a>
</g>
</g>
<!-- Node27 -->
<g id="Node000027" class="node">
<title>Node27</title>
<g id="a_Node000027"><a xlink:href="../../d0/d22/windows_2hid_8c.html#a2a73a1b3bac9b258d879868e8e71abfa" target="_top" xlink:title=" ">
<polygon fill="white" stroke="#666666" points="499.5,-184 350.75,-184 350.75,-164 499.5,-164 499.5,-184"/>
<text xml:space="preserve" text-anchor="middle" x="425.12" y="-170.5" font-family="Helvetica,sans-Serif" font-size="10.00">PLATFORM_hid_read_timeout</text>
</a>
</g>
</g>
<!-- Node1&#45;&gt;Node27 -->
<g id="edge29_Node000001_Node000027" class="edge">
<title>Node1&#45;&gt;Node27</title>
<g id="a_edge29_Node000001_Node000027"><a xlink:title=" ">
<path fill="none" stroke="#63b8ff" d="M560.36,-378.31C559.58,-336.3 551.66,-243.54 499.5,-193 496,-189.61 491.98,-186.81 487.67,-184.49"/>
<polygon fill="#63b8ff" stroke="#63b8ff" points="556.86,-378.12 560.41,-388.1 563.86,-378.09 556.86,-378.12"/>
</a>
</g>
</g>
<!-- Node28 -->
<g id="Node000028" class="node">
<title>Node28</title>
<g id="a_Node000028"><a xlink:href="../../d0/d22/windows_2hid_8c.html#abc78b1d9628df5f9a17136cae60f37a6" target="_top" xlink:title=" ">
<polygon fill="white" stroke="#666666" points="499.5,-146 350.75,-146 350.75,-114 499.5,-114 499.5,-146"/>
<text xml:space="preserve" text-anchor="start" x="358.75" y="-132.5" font-family="Helvetica,sans-Serif" font-size="10.00">PLATFORM_hid_send_feature</text>
<text xml:space="preserve" text-anchor="middle" x="425.12" y="-120.5" font-family="Helvetica,sans-Serif" font-size="10.00">_report</text>
</a>
</g>
</g>
<!-- Node1&#45;&gt;Node28 -->
<g id="edge30_Node000001_Node000028" class="edge">
<title>Node1&#45;&gt;Node28</title>
<g id="a_edge30_Node000001_Node000028"><a xlink:title=" ">
<path fill="none" stroke="#63b8ff" d="M557.44,-378.33C550.39,-324.75 529.81,-188.03 499.5,-155 496.5,-151.73 493.05,-148.88 489.32,-146.41"/>
<polygon fill="#63b8ff" stroke="#63b8ff" points="553.94,-378.54 558.68,-388.01 560.88,-377.65 553.94,-378.54"/>
</a>
</g>
</g>
<!-- Node29 -->
<g id="Node000029" class="node">
<title>Node29</title>
<g id="a_Node000029"><a xlink:href="../../d0/d22/windows_2hid_8c.html#a65448f0b1dfdbaac7e9262bb784ca6b8" target="_top" xlink:title=" ">
<polygon fill="white" stroke="#666666" points="481.88,-96 368.38,-96 368.38,-76 481.88,-76 481.88,-96"/>
<text xml:space="preserve" text-anchor="middle" x="425.12" y="-82.5" font-family="Helvetica,sans-Serif" font-size="10.00">PLATFORM_hid_write</text>
</a>
</g>
</g>
<!-- Node1&#45;&gt;Node29 -->
<g id="edge31_Node000001_Node000029" class="edge">
<title>Node1&#45;&gt;Node29</title>
<g id="a_edge31_Node000001_Node000029"><a xlink:title=" ">
<path fill="none" stroke="#63b8ff" d="M558.59,-378.35C553.82,-317.14 537.25,-144.71 499.5,-105 494.7,-99.95 488.73,-96.17 482.3,-93.36"/>
<polygon fill="#63b8ff" stroke="#63b8ff" points="555.09,-378.41 559.32,-388.12 562.07,-377.89 555.09,-378.41"/>
</a>
</g>
</g>
<!-- Node30 -->
<g id="Node000030" class="node">
<title>Node30</title>
<g id="a_Node000030"><a xlink:href="../../d1/de6/mac_2hid_8c.html#a6017e697733bf1fba149c4302a72e218" target="_top" xlink:title=" ">
<polygon fill="white" stroke="#666666" points="458.62,-58 391.62,-58 391.62,-38 458.62,-38 458.62,-58"/>
<text xml:space="preserve" text-anchor="middle" x="425.12" y="-44.5" font-family="Helvetica,sans-Serif" font-size="10.00">read_thread</text>
</a>
</g>
</g>
<!-- Node1&#45;&gt;Node30 -->
<g id="edge32_Node000001_Node000030" class="edge">
<title>Node1&#45;&gt;Node30</title>
<g id="a_edge32_Node000001_Node000030"><a xlink:title=" ">
<path fill="none" stroke="#63b8ff" d="M559.14,-378.24C555.7,-311.7 541.97,-112.7 499.5,-67 489.2,-55.91 473.35,-50.95 459.01,-48.85"/>
<polygon fill="#63b8ff" stroke="#63b8ff" points="555.64,-378.37 559.63,-388.18 562.64,-378.03 555.64,-378.37"/>
</a>
</g>
</g>
<!-- Node31 -->
<g id="Node000031" class="node">
<title>Node31</title>
<g id="a_Node000031"><a xlink:href="../../d6/d8c/SDL__memset_8c.html#a6abcab500061245957c73de0b136960b" target="_top" xlink:title=" ">
<polygon fill="white" stroke="#666666" points="463.12,-20 387.12,-20 387.12,0 463.12,0 463.12,-20"/>
<text xml:space="preserve" text-anchor="middle" x="425.12" y="-6.5" font-family="Helvetica,sans-Serif" font-size="10.00">SDL_memset</text>
</a>
</g>
</g>
<!-- Node1&#45;&gt;Node31 -->
<g id="edge33_Node000001_Node000031" class="edge">
<title>Node1&#45;&gt;Node31</title>
<g id="a_edge33_Node000001_Node000031"><a xlink:title=" ">
<path fill="none" stroke="#63b8ff" d="M559.59,-378.13C557.37,-306.52 546.71,-80.74 499.5,-29 490.28,-18.89 476.44,-13.86 463.25,-11.45"/>
<polygon fill="#63b8ff" stroke="#63b8ff" points="556.09,-378.22 559.87,-388.12 563.08,-378.02 556.09,-378.22"/>
</a>
</g>
</g>
<!-- Node6 -->
<g id="Node000006" class="node">
<title>Node6</title>
<g id="a_Node000006"><a xlink:href="../../da/db5/linux_2hid_8c.html#af615e335307c8c220a500c9492d9e3f7" target="_top" xlink:title=" ">
<polygon fill="white" stroke="#666666" points="306.88,-703 181.38,-703 181.38,-671 306.88,-671 306.88,-703"/>
<text xml:space="preserve" text-anchor="start" x="189.38" y="-689.5" font-family="Helvetica,sans-Serif" font-size="10.00">get_hid_report_descriptor</text>
<text xml:space="preserve" text-anchor="middle" x="244.12" y="-677.5" font-family="Helvetica,sans-Serif" font-size="10.00">_from_sysfs</text>
</a>
</g>
</g>
<!-- Node5&#45;&gt;Node6 -->
<g id="edge5_Node000005_Node000006" class="edge">
<title>Node5&#45;&gt;Node6</title>
<g id="a_edge5_Node000005_Node000006"><a xlink:title=" ">
<path fill="none" stroke="#63b8ff" d="M372.71,-653.27C365.34,-655.19 357.85,-657.14 350.75,-659 336.62,-662.7 321.43,-666.71 307.11,-670.51"/>
<polygon fill="#63b8ff" stroke="#63b8ff" points="373.48,-656.69 382.28,-650.79 371.72,-649.91 373.48,-656.69"/>
</a>
</g>
</g>
<!-- Node6&#45;&gt;Node3 -->
<g id="edge6_Node000006_Node000003" class="edge">
<title>Node6&#45;&gt;Node3</title>
<g id="a_edge6_Node000006_Node000003"><a xlink:title=" ">
<path fill="none" stroke="#63b8ff" d="M169.7,-696.32C152.26,-698.53 134.09,-700.84 118.1,-702.87"/>
<polygon fill="#63b8ff" stroke="#63b8ff" points="170.04,-699.8 179.52,-695.07 169.16,-692.86 170.04,-699.8"/>
</a>
</g>
</g>
<!-- Node8 -->
<g id="Node000008" class="node">
<title>Node8</title>
<g id="a_Node000008"><a xlink:href="../../da/db5/linux_2hid_8c.html#a72e30a957ccb852083bf163f3b08631e" target="_top" xlink:title=" ">
<polygon fill="white" stroke="#666666" points="312.12,-653 176.12,-653 176.12,-621 312.12,-621 312.12,-653"/>
<text xml:space="preserve" text-anchor="start" x="184.12" y="-639.5" font-family="Helvetica,sans-Serif" font-size="10.00">PLATFORM_hid_get_report</text>
<text xml:space="preserve" text-anchor="middle" x="244.12" y="-627.5" font-family="Helvetica,sans-Serif" font-size="10.00">_descriptor</text>
</a>
</g>
</g>
<!-- Node7&#45;&gt;Node8 -->
<g id="edge8_Node000007_Node000008" class="edge">
<title>Node7&#45;&gt;Node8</title>
<g id="a_edge8_Node000007_Node000008"><a xlink:title=" ">
<path fill="none" stroke="#63b8ff" d="M351.01,-612.75C338.31,-615.66 325.16,-618.67 312.62,-621.54"/>
<polygon fill="#63b8ff" stroke="#63b8ff" points="351.58,-616.21 360.55,-610.56 350.02,-609.38 351.58,-616.21"/>
</a>
</g>
</g>
<!-- Node10 -->
<g id="Node000010" class="node">
<title>Node10</title>
<g id="a_Node000010"><a xlink:href="../../d0/d22/windows_2hid_8c.html#a214edbfd9fd6edc9a231ce03eab641e4" target="_top" xlink:title=" ">
<polygon fill="white" stroke="#666666" points="314.75,-603 173.5,-603 173.5,-571 314.75,-571 314.75,-603"/>
<text xml:space="preserve" text-anchor="start" x="181.5" y="-589.5" font-family="Helvetica,sans-Serif" font-size="10.00">PLATFORM_hid_get_feature</text>
<text xml:space="preserve" text-anchor="middle" x="244.12" y="-577.5" font-family="Helvetica,sans-Serif" font-size="10.00">_report</text>
</a>
</g>
</g>
<!-- Node9&#45;&gt;Node10 -->
<g id="edge10_Node000009_Node000010" class="edge">
<title>Node9&#45;&gt;Node10</title>
<g id="a_edge10_Node000009_Node000010"><a xlink:title=" ">
<path fill="none" stroke="#63b8ff" d="M375.07,-561.59C356.6,-565.2 335.21,-569.39 315.19,-573.3"/>
<polygon fill="#63b8ff" stroke="#63b8ff" points="375.54,-565.07 384.68,-559.71 374.19,-558.2 375.54,-565.07"/>
</a>
</g>
</g>
<!-- Node11 -->
<g id="Node000011" class="node">
<title>Node11</title>
<g id="a_Node000011"><a xlink:href="../../d0/d22/windows_2hid_8c.html#a2dd51137c32af401819bf95876b2474f" target="_top" xlink:title=" ">
<polygon fill="white" stroke="#666666" points="310.25,-553 178,-553 178,-521 310.25,-521 310.25,-553"/>
<text xml:space="preserve" text-anchor="start" x="186" y="-539.5" font-family="Helvetica,sans-Serif" font-size="10.00">PLATFORM_hid_get_input</text>
<text xml:space="preserve" text-anchor="middle" x="244.12" y="-527.5" font-family="Helvetica,sans-Serif" font-size="10.00">_report</text>
</a>
</g>
</g>
<!-- Node9&#45;&gt;Node11 -->
<g id="edge11_Node000009_Node000011" class="edge">
<title>Node9&#45;&gt;Node11</title>
<g id="a_edge11_Node000009_Node000011"><a xlink:title=" ">
<path fill="none" stroke="#63b8ff" d="M374.89,-547.87C355.01,-546.21 331.79,-544.26 310.52,-542.48"/>
<polygon fill="#63b8ff" stroke="#63b8ff" points="374.4,-551.35 384.66,-548.69 374.98,-544.37 374.4,-551.35"/>
</a>
</g>
</g>
<!-- Node13 -->
<g id="Node000013" class="node">
<title>Node13</title>
<g id="a_Node000013"><a xlink:href="../../d4/d23/SDL__malloc_8c.html#a5c6367328ed688a118d756151de3455d" target="_top" xlink:title=" ">
<polygon fill="white" stroke="#666666" points="297.5,-503 190.75,-503 190.75,-483 297.5,-483 297.5,-503"/>
<text xml:space="preserve" text-anchor="middle" x="244.12" y="-489.5" font-family="Helvetica,sans-Serif" font-size="10.00">dlindependent_calloc</text>
</a>
</g>
</g>
<!-- Node12&#45;&gt;Node13 -->
<g id="edge13_Node000012_Node000013" class="edge">
<title>Node12&#45;&gt;Node13</title>
<g id="a_edge13_Node000012_Node000013"><a xlink:title=" ">
<path fill="none" stroke="#63b8ff" d="M394.22,-510.49C368.02,-507.42 329.34,-502.88 297.95,-499.2"/>
<polygon fill="#63b8ff" stroke="#63b8ff" points="393.8,-513.97 404.14,-511.66 394.62,-507.01 393.8,-513.97"/>
</a>
</g>
</g>
<!-- Node14 -->
<g id="Node000014" class="node">
<title>Node14</title>
<g id="a_Node000014"><a xlink:href="../../d4/d23/SDL__malloc_8c.html#ae78e200be9eedb1ddf007d431dcb09a2" target="_top" xlink:title=" ">
<polygon fill="white" stroke="#666666" points="304.25,-465 184,-465 184,-445 304.25,-445 304.25,-465"/>
<text xml:space="preserve" text-anchor="middle" x="244.12" y="-451.5" font-family="Helvetica,sans-Serif" font-size="10.00">dlindependent_comalloc</text>
</a>
</g>
</g>
<!-- Node12&#45;&gt;Node14 -->
<g id="edge14_Node000012_Node000014" class="edge">
<title>Node12&#45;&gt;Node14</title>
<g id="a_edge14_Node000012_Node000014"><a xlink:title=" ">
<path fill="none" stroke="#63b8ff" d="M394.41,-508.26C380.82,-505.14 364.68,-500.74 350.75,-495 333.62,-487.95 331.83,-481.17 314.75,-474 307.01,-470.75 298.55,-467.9 290.28,-465.47"/>
<polygon fill="#63b8ff" stroke="#63b8ff" points="393.59,-511.66 404.1,-510.35 395.06,-504.82 393.59,-511.66"/>
</a>
</g>
</g>
<!-- Node16 -->
<g id="Node000016" class="node">
<title>Node16</title>
<g id="a_Node000016"><a xlink:href="../../d6/dcf/libusb_2hid_8c.html#a0ffec47d88af6f2b51bb2d175a014c5a" target="_top" xlink:title=" ">
<polygon fill="white" stroke="#666666" points="302,-427 186.25,-427 186.25,-407 302,-407 302,-427"/>
<text xml:space="preserve" text-anchor="middle" x="244.12" y="-413.5" font-family="Helvetica,sans-Serif" font-size="10.00">hidapi_initialize_device</text>
</a>
</g>
</g>
<!-- Node15&#45;&gt;Node16 -->
<g id="edge16_Node000015_Node000016" class="edge">
<title>Node15&#45;&gt;Node16</title>
<g id="a_edge16_Node000015_Node000016"><a xlink:title=" ">
<path fill="none" stroke="#63b8ff" d="M378.4,-466.23C369.09,-463.67 359.49,-460.6 350.75,-457 333.62,-449.95 331.83,-443.17 314.75,-436 307.01,-432.75 298.55,-429.9 290.28,-427.47"/>
<polygon fill="#63b8ff" stroke="#63b8ff" points="377.49,-469.62 388.05,-468.73 379.24,-462.84 377.49,-469.62"/>
</a>
</g>
</g>
<!-- Node17 -->
<g id="Node000017" class="node">
<title>Node17</title>
<g id="a_Node000017"><a xlink:href="../../dc/d19/group__API.html#ga79ee22c410d586c3d75f360eb8752595" target="_top" xlink:title="Open a HID device using libusb_wrap_sys_device. See https://libusb.sourceforge.io/api&#45;1....">
<polygon fill="white" stroke="#666666" points="122.12,-455 15.38,-455 15.38,-423 122.12,-423 122.12,-455"/>
<text xml:space="preserve" text-anchor="start" x="23.38" y="-441.5" font-family="Helvetica,sans-Serif" font-size="10.00">hid_libusb_wrap_sys</text>
<text xml:space="preserve" text-anchor="middle" x="68.75" y="-429.5" font-family="Helvetica,sans-Serif" font-size="10.00">_device</text>
</a>
</g>
</g>
<!-- Node16&#45;&gt;Node17 -->
<g id="edge17_Node000016_Node000017" class="edge">
<title>Node16&#45;&gt;Node17</title>
<g id="a_edge17_Node000016_Node000017"><a xlink:title=" ">
<path fill="none" stroke="#63b8ff" d="M174.66,-425.69C157.32,-427.89 138.97,-430.22 122.54,-432.3"/>
<polygon fill="#63b8ff" stroke="#63b8ff" points="174.89,-429.19 184.37,-424.46 174.01,-422.24 174.89,-429.19"/>
</a>
</g>
</g>
<!-- Node18 -->
<g id="Node000018" class="node">
<title>Node18</title>
<g id="a_Node000018"><a xlink:href="../../d6/dcf/libusb_2hid_8c.html#a0e569381b03120d85110c54f4cdff5b5" target="_top" xlink:title=" ">
<polygon fill="white" stroke="#666666" points="137.5,-405 0,-405 0,-385 137.5,-385 137.5,-405"/>
<text xml:space="preserve" text-anchor="middle" x="68.75" y="-391.5" font-family="Helvetica,sans-Serif" font-size="10.00">PLATFORM_hid_open_path</text>
</a>
</g>
</g>
<!-- Node16&#45;&gt;Node18 -->
<g id="edge18_Node000016_Node000018" class="edge">
<title>Node16&#45;&gt;Node18</title>
<g id="a_edge18_Node000016_Node000018"><a xlink:title=" ">
<path fill="none" stroke="#63b8ff" d="M174.48,-408.29C162.41,-406.76 149.84,-405.16 137.79,-403.63"/>
<polygon fill="#63b8ff" stroke="#63b8ff" points="174.01,-411.76 184.37,-409.54 174.89,-404.81 174.01,-411.76"/>
</a>
</g>
</g>
<!-- Node20 -->
<g id="Node000020" class="node">
<title>Node20</title>
<g id="a_Node000020"><a xlink:href="../../d0/d22/windows_2hid_8c.html#a0e569381b03120d85110c54f4cdff5b5" target="_top" xlink:title=" ">
<polygon fill="white" stroke="#666666" points="312.88,-389 175.38,-389 175.38,-369 312.88,-369 312.88,-389"/>
<text xml:space="preserve" text-anchor="middle" x="244.12" y="-375.5" font-family="Helvetica,sans-Serif" font-size="10.00">PLATFORM_hid_open_path</text>
</a>
</g>
</g>
<!-- Node19&#45;&gt;Node20 -->
<g id="edge20_Node000019_Node000020" class="edge">
<title>Node19&#45;&gt;Node20</title>
<g id="a_edge20_Node000019_Node000020"><a xlink:title=" ">
<path fill="none" stroke="#63b8ff" d="M365.24,-424.29C360.28,-422.68 355.39,-420.91 350.75,-419 333.62,-411.95 331.83,-405.17 314.75,-398 307.01,-394.75 298.55,-391.9 290.28,-389.47"/>
<polygon fill="#63b8ff" stroke="#63b8ff" points="364.1,-427.61 374.69,-427.16 366.14,-420.91 364.1,-427.61"/>
</a>
</g>
</g>
<!-- Node23 -->
<g id="Node000023" class="node">
<title>Node23</title>
<g id="a_Node000023"><a xlink:href="../../df/dac/test_8cpp.html#a4dc6303ae36b2488e905fc23ce06171c" target="_top" xlink:title=" ">
<polygon fill="white" stroke="#666666" points="279.5,-316 208.75,-316 208.75,-296 279.5,-296 279.5,-316"/>
<text xml:space="preserve" text-anchor="middle" x="244.12" y="-302.5" font-family="Helvetica,sans-Serif" font-size="10.00">FXDEFMAP</text>
</a>
</g>
</g>
<!-- Node22&#45;&gt;Node23 -->
<g id="edge23_Node000022_Node000023" class="edge">
<title>Node22&#45;&gt;Node23</title>
<g id="a_edge23_Node000022_Node000023"><a xlink:title=" ">
<path fill="none" stroke="#63b8ff" d="M354.69,-336.6C329.04,-329.44 301.08,-321.63 279.82,-315.69"/>
<polygon fill="#63b8ff" stroke="#63b8ff" points="353.48,-339.9 364.06,-339.22 355.37,-333.16 353.48,-339.9"/>
</a>
</g>
</g>
<!-- Node24&#45;&gt;Node23 -->
<g id="edge25_Node000024_Node000023" class="edge">
<title>Node24&#45;&gt;Node23</title>
<g id="a_edge25_Node000024_Node000023"><a xlink:title=" ">
<path fill="none" stroke="#63b8ff" d="M341.32,-306C319.58,-306 297.32,-306 279.69,-306"/>
<polygon fill="#63b8ff" stroke="#63b8ff" points="341.09,-309.5 351.09,-306 341.09,-302.5 341.09,-309.5"/>
</a>
</g>
</g>
<!-- Node25&#45;&gt;Node23 -->
<g id="edge27_Node000025_Node000023" class="edge">
<title>Node25&#45;&gt;Node23</title>
<g id="a_edge27_Node000025_Node000023"><a xlink:title=" ">
<path fill="none" stroke="#63b8ff" d="M354.69,-275.4C329.04,-282.56 301.08,-290.37 279.82,-296.31"/>
<polygon fill="#63b8ff" stroke="#63b8ff" points="355.37,-278.84 364.06,-272.78 353.48,-272.1 355.37,-278.84"/>
</a>
</g>
</g>
</g>
</svg>

<g id="navigator" transform="translate(0 0)" fill="#404254">
  <rect fill="#f2f5e9" fill-opacity="0.5" stroke="#606060" stroke-width=".5" x="0" y="0" width="60" height="60"/>
  <use id="zoomplus" xlink:href="#zoomPlus" x="17" y="9" onmousedown="handleZoom(evt,'in')"/>
  <use id="zoomminus" xlink:href="#zoomMin" x="42" y="9" onmousedown="handleZoom(evt,'out')"/>
  <use id="reset" xlink:href="#resetDef" x="30" y="36" onmousedown="handleReset()"/>
   <use id="arrowup" xlink:href="#arrowUp" x="0" y="0" onmousedown="handlePan(0,-1)"/>
  <use id="arrowright" xlink:href="#arrowRight" x="0" y="0" onmousedown="handlePan(1,0)"/>
  <use id="arrowdown" xlink:href="#arrowDown" x="0" y="0" onmousedown="handlePan(0,1)"/>
  <use id="arrowleft" xlink:href="#arrowLeft" x="0" y="0" onmousedown="handlePan(-1,0)"/>
</g>
<svg viewBox="0 0 15 15" width="100%" height="30px" preserveAspectRatio="xMaxYMin meet">
 <g id="arrow_out" transform="scale(0.3 0.3)">
  <a xlink:href="SDL__memset_8c_aa470f523bb3aef22ee14757d45ab934f_icgraph_org.svg" target="_base">
   <rect id="button" ry="5" rx="5" y="6" x="6" height="38" width="38"
        fill="#f2f5e9" fill-opacity="0.5" stroke="#606060" stroke-width="1.0"/>
   <path id="arrow"
     d="M 11.500037,31.436501 C 11.940474,20.09759 22.043105,11.32322 32.158766,21.979434 L 37.068811,17.246167 C 37.068811,17.246167 37.088388,32 37.088388,32 L 22.160133,31.978069 C 22.160133,31.978069 26.997745,27.140456 26.997745,27.140456 C 18.528582,18.264221 13.291696,25.230495 11.500037,31.436501 z"
     style="fill:#404040;"/>
  </a>
 </g>
</svg>

<style type='text/css'>
<![CDATA[
[data-mouse-over-selected='false'] { opacity: 0.7; }
[data-mouse-over-selected='true']  { opacity: 1.0; }
]]>
</style>
<script type="application/ecmascript"><![CDATA[
document.addEventListener('DOMContentLoaded', (event) => {
  highlightEdges();
  highlightAdjacentNodes();
});
]]></script>
</svg>
