<?xml version="1.0" encoding="UTF-8" standalone="no"?>
<!DOCTYPE svg PUBLIC "-//W3C//DTD SVG 1.1//EN"
 "http://www.w3.org/Graphics/SVG/1.1/DTD/svg11.dtd">
<!-- Generated by graphviz version 13.1.0 (20250701.0955)
 -->
<!-- Title: VkRenderPassBeginInfo Pages: 1 -->
<svg width="428pt" height="176pt"
 viewBox="0.00 0.00 428.00 176.00" xmlns="http://www.w3.org/2000/svg" xmlns:xlink="http://www.w3.org/1999/xlink">

<svg id="main" version="1.1" xmlns="http://www.w3.org/2000/svg" xmlns:xlink="http://www.w3.org/1999/xlink" xml:space="preserve">

<style type="text/css"><![CDATA[
.node, .edge {opacity: 0.7;}
.node.selected, .edge.selected {opacity: 1;}
.edge:hover path { stroke: red; }
.edge:hover polygon { stroke: red; fill: red; }
]]></style>
<script type="application/ecmascript" xlink:href="../../svg.min.js"/>
<svg id="graph" class="graph">
<g id="graph0" class="graph" transform="scale(1 1) rotate(0) translate(4 172)">
<title>VkRenderPassBeginInfo</title>
<!-- Node1 -->
<g id="Node000001" class="node">
<title>Node1</title>
<g id="a_Node000001"><a xlink:title=" ">
<polygon fill="#999999" stroke="#666666" points="232.12,-20 108.88,-20 108.88,0 232.12,0 232.12,-20"/>
<text xml:space="preserve" text-anchor="middle" x="170.5" y="-6.5" font-family="Helvetica,sans-Serif" font-size="10.00">VkRenderPassBeginInfo</text>
</a>
</g>
</g>
<!-- Node2 -->
<g id="Node000002" class="node">
<title>Node2</title>
<g id="a_Node000002"><a xlink:href="../../d7/d2d/structVkRect2D.html" target="_top" xlink:title=" ">
<polygon fill="white" stroke="#666666" points="150.38,-94 88.62,-94 88.62,-74 150.38,-74 150.38,-94"/>
<text xml:space="preserve" text-anchor="middle" x="119.5" y="-80.5" font-family="Helvetica,sans-Serif" font-size="10.00">VkRect2D</text>
</a>
</g>
</g>
<!-- Node2&#45;&gt;Node1 -->
<g id="edge1_Node000001_Node000002" class="edge">
<title>Node2&#45;&gt;Node1</title>
<g id="a_edge1_Node000001_Node000002"><a xlink:title=" ">
<path fill="none" stroke="#9a32cd" stroke-dasharray="5,2" d="M126,-63.18C129.24,-54.94 133.67,-45.56 139.25,-38 144.19,-31.31 151.07,-25.14 157.12,-20.39"/>
<polygon fill="#9a32cd" stroke="#9a32cd" points="122.8,-61.73 122.72,-72.33 129.39,-64.09 122.8,-61.73"/>
</a>
</g>
<text xml:space="preserve" text-anchor="start" x="142.25" y="-43.5" font-family="Helvetica,sans-Serif" font-size="10.00" fill="grey">renderArea</text>
</g>
<!-- Node3 -->
<g id="Node000003" class="node">
<title>Node3</title>
<g id="a_Node000003"><a xlink:href="../../d6/d3e/structVkOffset2D.html" target="_top" xlink:title=" ">
<polygon fill="white" stroke="#666666" points="67,-168 0,-168 0,-148 67,-148 67,-168"/>
<text xml:space="preserve" text-anchor="middle" x="33.5" y="-154.5" font-family="Helvetica,sans-Serif" font-size="10.00">VkOffset2D</text>
</a>
</g>
</g>
<!-- Node3&#45;&gt;Node2 -->
<g id="edge2_Node000002_Node000003" class="edge">
<title>Node3&#45;&gt;Node2</title>
<g id="a_edge2_Node000002_Node000003"><a xlink:title=" ">
<path fill="none" stroke="#9a32cd" stroke-dasharray="5,2" d="M52.66,-140.08C62.41,-131.56 74.5,-121.12 85.5,-112 92.7,-106.03 100.9,-99.51 107.44,-94.37"/>
<polygon fill="#9a32cd" stroke="#9a32cd" points="50.49,-137.33 45.28,-146.56 55.1,-142.59 50.49,-137.33"/>
</a>
</g>
<text xml:space="preserve" text-anchor="start" x="88.5" y="-117.5" font-family="Helvetica,sans-Serif" font-size="10.00" fill="grey">offset</text>
</g>
<!-- Node4 -->
<g id="Node000004" class="node">
<title>Node4</title>
<g id="a_Node000004"><a xlink:href="../../d1/d79/structVkExtent2D.html" target="_top" xlink:title=" ">
<polygon fill="white" stroke="#666666" points="154.12,-168 84.88,-168 84.88,-148 154.12,-148 154.12,-168"/>
<text xml:space="preserve" text-anchor="middle" x="119.5" y="-154.5" font-family="Helvetica,sans-Serif" font-size="10.00">VkExtent2D</text>
</a>
</g>
</g>
<!-- Node4&#45;&gt;Node2 -->
<g id="edge3_Node000002_Node000004" class="edge">
<title>Node4&#45;&gt;Node2</title>
<g id="a_edge3_Node000002_Node000004"><a xlink:title=" ">
<path fill="none" stroke="#9a32cd" stroke-dasharray="5,2" d="M119.5,-136.18C119.5,-122.29 119.5,-104.71 119.5,-94.19"/>
<polygon fill="#9a32cd" stroke="#9a32cd" points="116,-136.07 119.5,-146.07 123,-136.07 116,-136.07"/>
</a>
</g>
<text xml:space="preserve" text-anchor="start" x="122.5" y="-117.5" font-family="Helvetica,sans-Serif" font-size="10.00" fill="grey">extent</text>
</g>
<!-- Node5 -->
<g id="Node000005" class="node">
<title>Node5</title>
<g id="a_Node000005"><a xlink:href="../../de/da0/unionVkClearValue.html" target="_top" xlink:title=" ">
<polygon fill="white" stroke="#666666" points="259.12,-94 183.88,-94 183.88,-74 259.12,-74 259.12,-94"/>
<text xml:space="preserve" text-anchor="middle" x="221.5" y="-80.5" font-family="Helvetica,sans-Serif" font-size="10.00">VkClearValue</text>
</a>
</g>
</g>
<!-- Node5&#45;&gt;Node1 -->
<g id="edge4_Node000001_Node000005" class="edge">
<title>Node5&#45;&gt;Node1</title>
<g id="a_edge4_Node000001_Node000005"><a xlink:title=" ">
<path fill="none" stroke="#9a32cd" stroke-dasharray="5,2" d="M210,-64.13C204.85,-55.96 198.58,-46.37 192.5,-38 188.09,-31.93 182.8,-25.41 178.5,-20.29"/>
<polygon fill="#9a32cd" stroke="#9a32cd" points="206.97,-65.89 215.21,-72.55 212.92,-62.21 206.97,-65.89"/>
</a>
</g>
<text xml:space="preserve" text-anchor="start" x="207.14" y="-43.5" font-family="Helvetica,sans-Serif" font-size="10.00" fill="grey">pClearValues</text>
</g>
<!-- Node6 -->
<g id="Node000006" class="node">
<title>Node6</title>
<g id="a_Node000006"><a xlink:href="../../dd/dd9/unionVkClearColorValue.html" target="_top" xlink:title=" ">
<polygon fill="white" stroke="#666666" points="270.75,-168 172.25,-168 172.25,-148 270.75,-148 270.75,-168"/>
<text xml:space="preserve" text-anchor="middle" x="221.5" y="-154.5" font-family="Helvetica,sans-Serif" font-size="10.00">VkClearColorValue</text>
</a>
</g>
</g>
<!-- Node6&#45;&gt;Node5 -->
<g id="edge5_Node000005_Node000006" class="edge">
<title>Node6&#45;&gt;Node5</title>
<g id="a_edge5_Node000005_Node000006"><a xlink:title=" ">
<path fill="none" stroke="#9a32cd" stroke-dasharray="5,2" d="M221.5,-136.18C221.5,-122.29 221.5,-104.71 221.5,-94.19"/>
<polygon fill="#9a32cd" stroke="#9a32cd" points="218,-136.07 221.5,-146.07 225,-136.07 218,-136.07"/>
</a>
</g>
<text xml:space="preserve" text-anchor="start" x="224.5" y="-117.5" font-family="Helvetica,sans-Serif" font-size="10.00" fill="grey">color</text>
</g>
<!-- Node7 -->
<g id="Node000007" class="node">
<title>Node7</title>
<g id="a_Node000007"><a xlink:href="../../db/d68/structVkClearDepthStencilValue.html" target="_top" xlink:title=" ">
<polygon fill="white" stroke="#666666" points="420.25,-168 288.75,-168 288.75,-148 420.25,-148 420.25,-168"/>
<text xml:space="preserve" text-anchor="middle" x="354.5" y="-154.5" font-family="Helvetica,sans-Serif" font-size="10.00">VkClearDepthStencilValue</text>
</a>
</g>
</g>
<!-- Node7&#45;&gt;Node5 -->
<g id="edge6_Node000005_Node000007" class="edge">
<title>Node7&#45;&gt;Node5</title>
<g id="a_edge6_Node000005_Node000007"><a xlink:title=" ">
<path fill="none" stroke="#9a32cd" stroke-dasharray="5,2" d="M327.33,-142.29C300.85,-127.96 261.4,-106.6 238.89,-94.42"/>
<polygon fill="#9a32cd" stroke="#9a32cd" points="325.32,-145.18 335.78,-146.87 328.65,-139.03 325.32,-145.18"/>
</a>
</g>
<text xml:space="preserve" text-anchor="start" x="306.82" y="-117.5" font-family="Helvetica,sans-Serif" font-size="10.00" fill="grey">depthStencil</text>
</g>
</g>
</svg>
</svg>

<style type='text/css'>
<![CDATA[
[data-mouse-over-selected='false'] { opacity: 0.7; }
[data-mouse-over-selected='true']  { opacity: 1.0; }
]]>
</style>
<script type="application/ecmascript"><![CDATA[
document.addEventListener('DOMContentLoaded', (event) => {
  highlightEdges();
  highlightAdjacentNodes();
});
]]></script>
</svg>
