<?xml version="1.0" encoding="UTF-8" standalone="no"?>
<!DOCTYPE svg PUBLIC "-//W3C//DTD SVG 1.1//EN"
 "http://www.w3.org/Graphics/SVG/1.1/DTD/svg11.dtd">
<!-- Generated by graphviz version 13.1.0 (20250701.0955)
 -->
<!-- Title: SDL_PROC Pages: 1 -->
<svg width="195pt" height="294pt"
 viewBox="0.00 0.00 195.00 294.00" xmlns="http://www.w3.org/2000/svg" xmlns:xlink="http://www.w3.org/1999/xlink">
<g id="graph0" class="graph" transform="scale(1 1) rotate(0) translate(4 290)">
<title>SDL_PROC</title>
<!-- Node1 -->
<g id="Node000001" class="node">
<title>Node1</title>
<g id="a_Node000001"><a xlink:title=" ">
<polygon fill="#999999" stroke="#666666" points="70,-153 0,-153 0,-133 70,-133 70,-153"/>
<text xml:space="preserve" text-anchor="middle" x="35" y="-139.5" font-family="Helvetica,sans-Serif" font-size="10.00">SDL_PROC</text>
</a>
</g>
</g>
<!-- Node1&#45;&gt;Node1 -->
<g id="edge9_Node000001_Node000001" class="edge">
<title>Node1&#45;&gt;Node1</title>
<g id="a_edge9_Node000001_Node000001"><a xlink:title=" ">
<path fill="none" stroke="#63b8ff" d="M17.26,-153.34C9.68,-161.98 15.6,-171 35,-171 45.61,-171 52.19,-168.3 54.73,-164.44"/>
<polygon fill="#63b8ff" stroke="#63b8ff" points="58.22,-164.05 53,-154.83 51.33,-165.29 58.22,-164.05"/>
</a>
</g>
</g>
<!-- Node2 -->
<g id="Node000002" class="node">
<title>Node2</title>
<g id="a_Node000002"><a xlink:href="../../d7/d69/SDL__opengl_8h.html#a5d1484df866c6fc5bfcb519c452f1a7e" target="_top" xlink:title=" ">
<polygon fill="white" stroke="#666666" points="177.88,-286 115.38,-286 115.38,-266 177.88,-266 177.88,-286"/>
<text xml:space="preserve" text-anchor="middle" x="146.62" y="-272.5" font-family="Helvetica,sans-Serif" font-size="10.00">glColor4ub</text>
</a>
</g>
</g>
<!-- Node1&#45;&gt;Node2 -->
<g id="edge1_Node000001_Node000002" class="edge">
<title>Node1&#45;&gt;Node2</title>
<g id="a_edge1_Node000001_Node000002"><a xlink:title=" ">
<path fill="none" stroke="#63b8ff" d="M40.03,-153.49C48.88,-175.37 72.02,-226.37 106,-257 107.05,-257.95 108.16,-258.86 109.31,-259.73"/>
<polygon fill="#63b8ff" stroke="#63b8ff" points="107.13,-262.49 117.45,-264.9 110.88,-256.58 107.13,-262.49"/>
</a>
</g>
</g>
<!-- Node3 -->
<g id="Node000003" class="node">
<title>Node3</title>
<g id="a_Node000003"><a xlink:href="../../d7/d69/SDL__opengl_8h.html#a83563a95fd9691e96cada7ef16bd1932" target="_top" xlink:title=" ">
<polygon fill="white" stroke="#666666" points="180.5,-248 112.75,-248 112.75,-228 180.5,-228 180.5,-248"/>
<text xml:space="preserve" text-anchor="middle" x="146.62" y="-234.5" font-family="Helvetica,sans-Serif" font-size="10.00">glColor4ubv</text>
</a>
</g>
</g>
<!-- Node1&#45;&gt;Node3 -->
<g id="edge2_Node000001_Node000003" class="edge">
<title>Node1&#45;&gt;Node3</title>
<g id="a_edge2_Node000001_Node000003"><a xlink:title=" ">
<path fill="none" stroke="#63b8ff" d="M43.39,-153.25C55.18,-169.03 79.61,-199.48 106,-219 107.34,-219.99 108.74,-220.95 110.19,-221.88"/>
<polygon fill="#63b8ff" stroke="#63b8ff" points="108.33,-224.85 118.75,-226.76 111.8,-218.77 108.33,-224.85"/>
</a>
</g>
</g>
<!-- Node4 -->
<g id="Node000004" class="node">
<title>Node4</title>
<g id="a_Node000004"><a xlink:href="../../d7/d69/SDL__opengl_8h.html#ad2d982a61e6444e1cdbe1a15f9d2bbbc" target="_top" xlink:title=" ">
<polygon fill="white" stroke="#666666" points="176.38,-210 116.88,-210 116.88,-190 176.38,-190 176.38,-210"/>
<text xml:space="preserve" text-anchor="middle" x="146.62" y="-196.5" font-family="Helvetica,sans-Serif" font-size="10.00">glColor4ui</text>
</a>
</g>
</g>
<!-- Node1&#45;&gt;Node4 -->
<g id="edge3_Node000001_Node000004" class="edge">
<title>Node1&#45;&gt;Node4</title>
<g id="a_edge3_Node000001_Node000004"><a xlink:title=" ">
<path fill="none" stroke="#63b8ff" d="M54.58,-153.42C68.61,-161.2 88.39,-172.01 106,-181 108.26,-182.16 110.61,-183.33 112.98,-184.51"/>
<polygon fill="#63b8ff" stroke="#63b8ff" points="111.43,-187.65 121.95,-188.88 114.5,-181.35 111.43,-187.65"/>
</a>
</g>
</g>
<!-- Node5 -->
<g id="Node000005" class="node">
<title>Node5</title>
<g id="a_Node000005"><a xlink:href="../../d7/d69/SDL__opengl_8h.html#a64a4b50971abbbd0fdbc20ef85d86e10" target="_top" xlink:title=" ">
<polygon fill="white" stroke="#666666" points="179,-172 114.25,-172 114.25,-152 179,-152 179,-172"/>
<text xml:space="preserve" text-anchor="middle" x="146.62" y="-158.5" font-family="Helvetica,sans-Serif" font-size="10.00">glColor4uiv</text>
</a>
</g>
</g>
<!-- Node1&#45;&gt;Node5 -->
<g id="edge4_Node000001_Node000005" class="edge">
<title>Node1&#45;&gt;Node5</title>
<g id="a_edge4_Node000001_Node000005"><a xlink:title=" ">
<path fill="none" stroke="#63b8ff" d="M70.39,-148.96C80.62,-150.73 91.97,-152.7 102.68,-154.56"/>
<polygon fill="#63b8ff" stroke="#63b8ff" points="102.03,-158 112.48,-156.26 103.22,-151.1 102.03,-158"/>
</a>
</g>
</g>
<!-- Node6 -->
<g id="Node000006" class="node">
<title>Node6</title>
<g id="a_Node000006"><a xlink:href="../../d7/d69/SDL__opengl_8h.html#a0a382dd46694155cb619e0f443645c4d" target="_top" xlink:title=" ">
<polygon fill="white" stroke="#666666" points="177.88,-134 115.38,-134 115.38,-114 177.88,-114 177.88,-134"/>
<text xml:space="preserve" text-anchor="middle" x="146.62" y="-120.5" font-family="Helvetica,sans-Serif" font-size="10.00">glColor4us</text>
</a>
</g>
</g>
<!-- Node1&#45;&gt;Node6 -->
<g id="edge5_Node000001_Node000006" class="edge">
<title>Node1&#45;&gt;Node6</title>
<g id="a_edge5_Node000001_Node000006"><a xlink:title=" ">
<path fill="none" stroke="#63b8ff" d="M70.39,-137.04C81.01,-135.2 92.83,-133.15 103.9,-131.23"/>
<polygon fill="#63b8ff" stroke="#63b8ff" points="104.33,-134.71 113.58,-129.55 103.13,-127.81 104.33,-134.71"/>
</a>
</g>
</g>
<!-- Node7 -->
<g id="Node000007" class="node">
<title>Node7</title>
<g id="a_Node000007"><a xlink:href="../../d7/d69/SDL__opengl_8h.html#a96106c70be1be8543d88908da293446e" target="_top" xlink:title=" ">
<polygon fill="white" stroke="#666666" points="180.5,-96 112.75,-96 112.75,-76 180.5,-76 180.5,-96"/>
<text xml:space="preserve" text-anchor="middle" x="146.62" y="-82.5" font-family="Helvetica,sans-Serif" font-size="10.00">glColor4usv</text>
</a>
</g>
</g>
<!-- Node1&#45;&gt;Node7 -->
<g id="edge6_Node000001_Node000007" class="edge">
<title>Node1&#45;&gt;Node7</title>
<g id="a_edge6_Node000001_Node000007"><a xlink:title=" ">
<path fill="none" stroke="#63b8ff" d="M54.58,-132.58C68.61,-124.8 88.39,-113.99 106,-105 108.26,-103.84 110.61,-102.67 112.98,-101.49"/>
<polygon fill="#63b8ff" stroke="#63b8ff" points="114.5,-104.65 121.95,-97.12 111.43,-98.35 114.5,-104.65"/>
</a>
</g>
</g>
<!-- Node8 -->
<g id="Node000008" class="node">
<title>Node8</title>
<g id="a_Node000008"><a xlink:href="../../d7/d69/SDL__opengl_8h.html#a2736771f59f7e05f5e4e0c9b2e2d65e5" target="_top" xlink:title=" ">
<polygon fill="white" stroke="#666666" points="182,-58 111.25,-58 111.25,-38 182,-38 182,-58"/>
<text xml:space="preserve" text-anchor="middle" x="146.62" y="-44.5" font-family="Helvetica,sans-Serif" font-size="10.00">glColorMask</text>
</a>
</g>
</g>
<!-- Node1&#45;&gt;Node8 -->
<g id="edge7_Node000001_Node000008" class="edge">
<title>Node1&#45;&gt;Node8</title>
<g id="a_edge7_Node000001_Node000008"><a xlink:title=" ">
<path fill="none" stroke="#63b8ff" d="M43.39,-132.75C55.18,-116.97 79.61,-86.52 106,-67 107.34,-66.01 108.74,-65.05 110.19,-64.12"/>
<polygon fill="#63b8ff" stroke="#63b8ff" points="111.8,-67.23 118.75,-59.24 108.33,-61.15 111.8,-67.23"/>
</a>
</g>
</g>
<!-- Node9 -->
<g id="Node000009" class="node">
<title>Node9</title>
<g id="a_Node000009"><a xlink:href="../../d7/d69/SDL__opengl_8h.html#a723b882db629c1071fc85e656dbba3f4" target="_top" xlink:title=" ">
<polygon fill="white" stroke="#666666" points="187.25,-20 106,-20 106,0 187.25,0 187.25,-20"/>
<text xml:space="preserve" text-anchor="middle" x="146.62" y="-6.5" font-family="Helvetica,sans-Serif" font-size="10.00">glColorMaterial</text>
</a>
</g>
</g>
<!-- Node1&#45;&gt;Node9 -->
<g id="edge8_Node000001_Node000009" class="edge">
<title>Node1&#45;&gt;Node9</title>
<g id="a_edge8_Node000001_Node000009"><a xlink:title=" ">
<path fill="none" stroke="#63b8ff" d="M40.03,-132.51C48.88,-110.63 72.02,-59.63 106,-29 107.05,-28.05 108.16,-27.14 109.31,-26.27"/>
<polygon fill="#63b8ff" stroke="#63b8ff" points="110.88,-29.42 117.45,-21.1 107.13,-23.51 110.88,-29.42"/>
</a>
</g>
</g>
</g>
</svg>
