<?xml version="1.0" encoding="UTF-8" standalone="no"?>
<!DOCTYPE svg PUBLIC "-//W3C//DTD SVG 1.1//EN"
 "http://www.w3.org/Graphics/SVG/1.1/DTD/svg11.dtd">
<!-- Generated by graphviz version 13.1.0 (20250701.0955)
 -->
<!-- Title: SDL_AsyncIOOutcome Pages: 1 -->
<svg width="440pt" height="434pt"
 viewBox="0.00 0.00 440.00 434.00" xmlns="http://www.w3.org/2000/svg" xmlns:xlink="http://www.w3.org/1999/xlink">
<g id="graph0" class="graph" transform="scale(1 1) rotate(0) translate(4 430)">
<title>SDL_AsyncIOOutcome</title>
<!-- Node1 -->
<g id="Node000001" class="node">
<title>Node1</title>
<g id="a_Node000001"><a xlink:title=" ">
<polygon fill="#999999" stroke="#666666" points="169.75,-223 51,-223 51,-203 169.75,-203 169.75,-223"/>
<text xml:space="preserve" text-anchor="middle" x="110.38" y="-209.5" font-family="Helvetica,sans-Serif" font-size="10.00">SDL_AsyncIOOutcome</text>
</a>
</g>
</g>
<!-- Node2 -->
<g id="Node000002" class="node">
<title>Node2</title>
<g id="a_Node000002"><a xlink:href="../../da/d74/structSDL__AsyncIO.html" target="_top" xlink:title=" ">
<polygon fill="white" stroke="#666666" points="213.88,-352 134.88,-352 134.88,-332 213.88,-332 213.88,-352"/>
<text xml:space="preserve" text-anchor="middle" x="174.38" y="-338.5" font-family="Helvetica,sans-Serif" font-size="10.00">SDL_AsyncIO</text>
</a>
</g>
</g>
<!-- Node2&#45;&gt;Node1 -->
<g id="edge1_Node000001_Node000002" class="edge">
<title>Node2&#45;&gt;Node1</title>
<g id="a_edge1_Node000001_Node000002"><a xlink:title=" ">
<path fill="none" stroke="#9a32cd" stroke-dasharray="5,2" d="M135.64,-325.68C131,-322.44 126.8,-318.58 123.62,-314 104.05,-285.8 106.68,-242.16 108.99,-223.26"/>
<polygon fill="#9a32cd" stroke="#9a32cd" points="133.85,-328.7 144.25,-330.74 137.4,-322.66 133.85,-328.7"/>
</a>
</g>
<text xml:space="preserve" text-anchor="start" x="126.62" y="-293.5" font-family="Helvetica,sans-Serif" font-size="10.00" fill="grey">asyncio</text>
</g>
<!-- Node7 -->
<g id="Node000007" class="node">
<title>Node7</title>
<g id="a_Node000007"><a xlink:href="../../df/dc4/structSDL__AsyncIOTask.html" target="_top" xlink:title=" ">
<polygon fill="white" stroke="#666666" points="287.38,-223 187.38,-223 187.38,-203 287.38,-203 287.38,-223"/>
<text xml:space="preserve" text-anchor="middle" x="237.38" y="-209.5" font-family="Helvetica,sans-Serif" font-size="10.00">SDL_AsyncIOTask</text>
</a>
</g>
</g>
<!-- Node2&#45;&gt;Node7 -->
<g id="edge8_Node000007_Node000002" class="edge">
<title>Node2&#45;&gt;Node7</title>
<g id="a_edge8_Node000007_Node000002"><a xlink:title=" ">
<path fill="none" stroke="#9a32cd" stroke-dasharray="5,2" d="M169.24,-320.65C167.16,-308.42 166.34,-292.8 171.62,-280 181.94,-255.04 206.78,-234.56 222.8,-223.33"/>
<polygon fill="#9a32cd" stroke="#9a32cd" points="165.82,-321.38 171.33,-330.42 172.66,-319.91 165.82,-321.38"/>
</a>
</g>
<text xml:space="preserve" text-anchor="start" x="174.62" y="-293.5" font-family="Helvetica,sans-Serif" font-size="10.00" fill="grey">asyncio</text>
</g>
<!-- Node3 -->
<g id="Node000003" class="node">
<title>Node3</title>
<g id="a_Node000003"><a xlink:href="../../d8/db4/structSDL__AsyncIOInterface.html" target="_top" xlink:title=" ">
<polygon fill="white" stroke="#666666" points="201,-426 83.75,-426 83.75,-406 201,-406 201,-426"/>
<text xml:space="preserve" text-anchor="middle" x="142.38" y="-412.5" font-family="Helvetica,sans-Serif" font-size="10.00">SDL_AsyncIOInterface</text>
</a>
</g>
</g>
<!-- Node3&#45;&gt;Node2 -->
<g id="edge2_Node000002_Node000003" class="edge">
<title>Node3&#45;&gt;Node2</title>
<g id="a_edge2_Node000002_Node000003"><a xlink:title=" ">
<path fill="none" stroke="#9a32cd" stroke-dasharray="5,2" d="M143.65,-394.33C144.74,-386.42 146.74,-377.5 150.38,-370 153.66,-363.23 159.14,-356.87 164.03,-352.03"/>
<polygon fill="#9a32cd" stroke="#9a32cd" points="140.18,-393.79 142.71,-404.07 147.15,-394.45 140.18,-393.79"/>
</a>
</g>
<text xml:space="preserve" text-anchor="start" x="153.38" y="-375.5" font-family="Helvetica,sans-Serif" font-size="10.00" fill="grey">iface</text>
</g>
<!-- Node4 -->
<g id="Node000004" class="node">
<title>Node4</title>
<g id="a_Node000004"><a xlink:href="../../d0/df2/structSDL__Mutex.html" target="_top" xlink:title=" ">
<polygon fill="white" stroke="#666666" points="287.25,-426 219.5,-426 219.5,-406 287.25,-406 287.25,-426"/>
<text xml:space="preserve" text-anchor="middle" x="253.38" y="-412.5" font-family="Helvetica,sans-Serif" font-size="10.00">SDL_Mutex</text>
</a>
</g>
</g>
<!-- Node4&#45;&gt;Node2 -->
<g id="edge3_Node000002_Node000004" class="edge">
<title>Node4&#45;&gt;Node2</title>
<g id="a_edge3_Node000002_Node000004"><a xlink:title=" ">
<path fill="none" stroke="#9a32cd" stroke-dasharray="5,2" d="M228.75,-399.28C223.83,-395.78 218.81,-391.93 214.38,-388 201.7,-376.77 189.05,-361.73 181.47,-352.2"/>
<polygon fill="#9a32cd" stroke="#9a32cd" points="226.45,-401.95 236.69,-404.69 230.39,-396.16 226.45,-401.95"/>
</a>
</g>
<text xml:space="preserve" text-anchor="start" x="217.38" y="-375.5" font-family="Helvetica,sans-Serif" font-size="10.00" fill="grey">lock</text>
</g>
<!-- Node5 -->
<g id="Node000005" class="node">
<title>Node5</title>
<g id="a_Node000005"><a xlink:href="../../d8/d0b/structSDL__Semaphore.html" target="_top" xlink:title=" ">
<polygon fill="white" stroke="#666666" points="370.5,-352 280.25,-352 280.25,-332 370.5,-332 370.5,-352"/>
<text xml:space="preserve" text-anchor="middle" x="325.38" y="-338.5" font-family="Helvetica,sans-Serif" font-size="10.00">SDL_Semaphore</text>
</a>
</g>
</g>
<!-- Node4&#45;&gt;Node5 -->
<g id="edge5_Node000005_Node000004" class="edge">
<title>Node4&#45;&gt;Node5</title>
<g id="a_edge5_Node000005_Node000004"><a xlink:title=" ">
<path fill="none" stroke="#9a32cd" stroke-dasharray="5,2" d="M244.23,-395.31C241.72,-386.85 240.93,-377.26 246.12,-370 254.08,-358.89 266.87,-352.3 279.89,-348.4"/>
<polygon fill="#9a32cd" stroke="#9a32cd" points="240.88,-396.37 247.76,-404.42 247.41,-393.83 240.88,-396.37"/>
</a>
</g>
<text xml:space="preserve" text-anchor="start" x="249.12" y="-375.5" font-family="Helvetica,sans-Serif" font-size="10.00" fill="grey">count_lock</text>
</g>
<!-- Node5&#45;&gt;Node4 -->
<g id="edge4_Node000004_Node000005" class="edge">
<title>Node5&#45;&gt;Node4</title>
<g id="a_edge4_Node000004_Node000005"><a xlink:title=" ">
<path fill="none" stroke="#9a32cd" stroke-dasharray="5,2" d="M318.8,-362.86C315.24,-371.36 310.17,-380.93 303.38,-388 296.27,-395.4 286.68,-401.24 277.81,-405.57"/>
<polygon fill="#9a32cd" stroke="#9a32cd" points="322,-364.29 322.19,-353.69 315.44,-361.85 322,-364.29"/>
</a>
</g>
<text xml:space="preserve" text-anchor="start" x="317.93" y="-375.5" font-family="Helvetica,sans-Serif" font-size="10.00" fill="grey">sem</text>
</g>
<!-- Node6 -->
<g id="Node000006" class="node">
<title>Node6</title>
<g id="a_Node000006"><a xlink:href="../../d0/d07/structSDL__Condition.html" target="_top" xlink:title=" ">
<polygon fill="white" stroke="#666666" points="414.38,-426 332.38,-426 332.38,-406 414.38,-406 414.38,-426"/>
<text xml:space="preserve" text-anchor="middle" x="373.38" y="-412.5" font-family="Helvetica,sans-Serif" font-size="10.00">SDL_Condition</text>
</a>
</g>
</g>
<!-- Node6&#45;&gt;Node5 -->
<g id="edge6_Node000005_Node000006" class="edge">
<title>Node6&#45;&gt;Node5</title>
<g id="a_edge6_Node000005_Node000006"><a xlink:title=" ">
<path fill="none" stroke="#9a32cd" stroke-dasharray="5,2" d="M365.29,-395.15C361.58,-387.03 356.8,-377.75 351.38,-370 346.9,-363.6 340.9,-357.27 335.8,-352.35"/>
<polygon fill="#9a32cd" stroke="#9a32cd" points="362.01,-396.38 369.18,-404.18 368.44,-393.61 362.01,-396.38"/>
</a>
</g>
<text xml:space="preserve" text-anchor="start" x="364.76" y="-375.5" font-family="Helvetica,sans-Serif" font-size="10.00" fill="grey">count_nonzero</text>
</g>
<!-- Node7&#45;&gt;Node2 -->
<g id="edge7_Node000002_Node000007" class="edge">
<title>Node7&#45;&gt;Node2</title>
<g id="a_edge7_Node000002_Node000007"><a xlink:title=" ">
<path fill="none" stroke="#9a32cd" stroke-dasharray="5,2" d="M237.26,-234.85C236.18,-256.43 231.72,-290.24 215.38,-314 210.26,-321.44 202.35,-327.35 194.83,-331.72"/>
<polygon fill="#9a32cd" stroke="#9a32cd" points="240.76,-235.07 237.53,-224.98 233.76,-234.88 240.76,-235.07"/>
</a>
</g>
<text xml:space="preserve" text-anchor="start" x="233.08" y="-301.5" font-family="Helvetica,sans-Serif" font-size="10.00" fill="grey">closing</text>
<text xml:space="preserve" text-anchor="start" x="233.08" y="-285.5" font-family="Helvetica,sans-Serif" font-size="10.00" fill="grey">tasks</text>
</g>
<!-- Node7&#45;&gt;Node7 -->
<g id="edge13_Node000007_Node000007" class="edge">
<title>Node7&#45;&gt;Node7</title>
<g id="a_edge13_Node000007_Node000007"><a xlink:title=" ">
<path fill="none" stroke="#9a32cd" stroke-dasharray="5,2" d="M264.88,-226.95C285.09,-231.7 305.38,-227.05 305.38,-213 305.38,-196.43 277.15,-192.93 254.11,-202.51"/>
<polygon fill="#9a32cd" stroke="#9a32cd" points="266.14,-223.68 255.55,-223.95 263.99,-230.35 266.14,-223.68"/>
</a>
</g>
<text xml:space="preserve" text-anchor="start" x="308.38" y="-249.5" font-family="Helvetica,sans-Serif" font-size="10.00" fill="grey">asyncionext</text>
<text xml:space="preserve" text-anchor="start" x="308.38" y="-233.5" font-family="Helvetica,sans-Serif" font-size="10.00" fill="grey">asyncioprev</text>
<text xml:space="preserve" text-anchor="start" x="308.38" y="-217.5" font-family="Helvetica,sans-Serif" font-size="10.00" fill="grey">queuenext</text>
<text xml:space="preserve" text-anchor="start" x="308.38" y="-201.5" font-family="Helvetica,sans-Serif" font-size="10.00" fill="grey">queueprev</text>
<text xml:space="preserve" text-anchor="start" x="308.38" y="-185.5" font-family="Helvetica,sans-Serif" font-size="10.00" fill="grey">threadpoolnext</text>
<text xml:space="preserve" text-anchor="start" x="308.38" y="-169.5" font-family="Helvetica,sans-Serif" font-size="10.00" fill="grey">threadpoolprev</text>
</g>
<!-- Node9 -->
<g id="Node000009" class="node">
<title>Node9</title>
<g id="a_Node000009"><a xlink:href="../../d3/d75/structSDL__AsyncIOQueueInterface.html" target="_top" xlink:title=" ">
<polygon fill="white" stroke="#666666" points="246.25,-94 100.5,-94 100.5,-74 246.25,-74 246.25,-94"/>
<text xml:space="preserve" text-anchor="middle" x="173.38" y="-80.5" font-family="Helvetica,sans-Serif" font-size="10.00">SDL_AsyncIOQueueInterface</text>
</a>
</g>
</g>
<!-- Node7&#45;&gt;Node9 -->
<g id="edge11_Node000009_Node000007" class="edge">
<title>Node7&#45;&gt;Node9</title>
<g id="a_edge11_Node000009_Node000007"><a xlink:title=" ">
<path fill="none" stroke="#9a32cd" stroke-dasharray="5,2" d="M227.72,-192.85C213.79,-165.2 188.56,-115.14 178.11,-94.39"/>
<polygon fill="#9a32cd" stroke="#9a32cd" points="224.47,-194.16 232.09,-201.51 230.72,-191.01 224.47,-194.16"/>
</a>
</g>
<text xml:space="preserve" text-anchor="start" x="206.46" y="-133.5" font-family="Helvetica,sans-Serif" font-size="10.00" fill="grey">get_results</text>
<text xml:space="preserve" text-anchor="start" x="206.46" y="-117.5" font-family="Helvetica,sans-Serif" font-size="10.00" fill="grey">wait_results</text>
</g>
<!-- Node8 -->
<g id="Node000008" class="node">
<title>Node8</title>
<g id="a_Node000008"><a xlink:href="../../d0/d61/structSDL__AsyncIOQueue.html" target="_top" xlink:title=" ">
<polygon fill="white" stroke="#666666" points="227.12,-20 119.62,-20 119.62,0 227.12,0 227.12,-20"/>
<text xml:space="preserve" text-anchor="middle" x="173.38" y="-6.5" font-family="Helvetica,sans-Serif" font-size="10.00">SDL_AsyncIOQueue</text>
</a>
</g>
</g>
<!-- Node8&#45;&gt;Node7 -->
<g id="edge9_Node000007_Node000008" class="edge">
<title>Node8&#45;&gt;Node7</title>
<g id="a_edge9_Node000007_Node000008"><a xlink:title=" ">
<path fill="none" stroke="#9a32cd" stroke-dasharray="5,2" d="M201.11,-26.04C219.04,-37.09 241.52,-53.7 255.38,-74 273.62,-100.74 273.03,-114.32 266.38,-146 261.9,-167.31 250.11,-190.14 243.02,-202.58"/>
<polygon fill="#9a32cd" stroke="#9a32cd" points="203.14,-23.17 192.75,-21.1 199.58,-29.2 203.14,-23.17"/>
</a>
</g>
<text xml:space="preserve" text-anchor="start" x="269.49" y="-80.5" font-family="Helvetica,sans-Serif" font-size="10.00" fill="grey">queue</text>
</g>
<!-- Node9&#45;&gt;Node8 -->
<g id="edge10_Node000008_Node000009" class="edge">
<title>Node9&#45;&gt;Node8</title>
<g id="a_edge10_Node000008_Node000009"><a xlink:title=" ">
<path fill="none" stroke="#9a32cd" stroke-dasharray="5,2" d="M173.38,-62.18C173.38,-48.29 173.38,-30.71 173.38,-20.19"/>
<polygon fill="#9a32cd" stroke="#9a32cd" points="169.88,-62.07 173.38,-72.07 176.88,-62.07 169.88,-62.07"/>
</a>
</g>
<text xml:space="preserve" text-anchor="start" x="176.38" y="-43.5" font-family="Helvetica,sans-Serif" font-size="10.00" fill="grey">iface</text>
</g>
<!-- Node10 -->
<g id="Node000010" class="node">
<title>Node10</title>
<g id="a_Node000010"><a xlink:href="../../d1/dbc/structSDL__AtomicInt.html" target="_top" xlink:title=" ">
<polygon fill="white" stroke="#666666" points="82.75,-94 0,-94 0,-74 82.75,-74 82.75,-94"/>
<text xml:space="preserve" text-anchor="middle" x="41.38" y="-80.5" font-family="Helvetica,sans-Serif" font-size="10.00">SDL_AtomicInt</text>
</a>
</g>
</g>
<!-- Node10&#45;&gt;Node8 -->
<g id="edge12_Node000008_Node000010" class="edge">
<title>Node10&#45;&gt;Node8</title>
<g id="a_edge12_Node000008_Node000010"><a xlink:title=" ">
<path fill="none" stroke="#9a32cd" stroke-dasharray="5,2" d="M61.59,-67.01C73.87,-57.78 90.12,-46.37 105.62,-38 118.21,-31.2 132.89,-25.14 145.36,-20.5"/>
<polygon fill="#9a32cd" stroke="#9a32cd" points="59.69,-64.06 53.89,-72.93 63.95,-69.62 59.69,-64.06"/>
</a>
</g>
<text xml:space="preserve" text-anchor="start" x="108.62" y="-43.5" font-family="Helvetica,sans-Serif" font-size="10.00" fill="grey">tasks_inflight</text>
</g>
</g>
</svg>
