<?xml version="1.0" encoding="UTF-8" standalone="no"?>
<!DOCTYPE svg PUBLIC "-//W3C//DTD SVG 1.1//EN"
 "http://www.w3.org/Graphics/SVG/1.1/DTD/svg11.dtd">
<!-- Generated by graphviz version 13.1.0 (20250701.0955)
 -->
<!-- Title: &#45;[SDL3Cocoa_WindowListener isInFullscreenSpace] Pages: 1 -->
<svg width="418pt" height="40pt"
 viewBox="0.00 0.00 418.00 40.00" xmlns="http://www.w3.org/2000/svg" xmlns:xlink="http://www.w3.org/1999/xlink">
<g id="graph0" class="graph" transform="scale(1 1) rotate(0) translate(4 36)">
<title>&#45;[SDL3Cocoa_WindowListener isInFullscreenSpace]</title>
<!-- Node1 -->
<g id="Node000001" class="node">
<title>Node1</title>
<g id="a_Node000001"><a xlink:title=" ">
<polygon fill="#999999" stroke="#666666" points="150.25,-32 0,-32 0,0 150.25,0 150.25,-32"/>
<text xml:space="preserve" text-anchor="start" x="8" y="-18.5" font-family="Helvetica,sans-Serif" font-size="10.00">&#45;[SDL3Cocoa_WindowListener</text>
<text xml:space="preserve" text-anchor="middle" x="75.12" y="-6.5" font-family="Helvetica,sans-Serif" font-size="10.00"> isInFullscreenSpace]</text>
</a>
</g>
</g>
<!-- Node2 -->
<g id="Node000002" class="node">
<title>Node2</title>
<g id="a_Node000002"><a xlink:href="../../de/d31/interfaceSDL3Cocoa__WindowListener.html#a5749afb080152a0568a852813dfc7c72" target="_top" xlink:title=" ">
<polygon fill="white" stroke="#666666" points="339.5,-32 186.25,-32 186.25,0 339.5,0 339.5,-32"/>
<text xml:space="preserve" text-anchor="start" x="194.25" y="-18.5" font-family="Helvetica,sans-Serif" font-size="10.00">&#45;[SDL3Cocoa_WindowListener</text>
<text xml:space="preserve" text-anchor="middle" x="262.88" y="-6.5" font-family="Helvetica,sans-Serif" font-size="10.00"> isInFullscreenSpaceTransition]</text>
</a>
</g>
</g>
<!-- Node1&#45;&gt;Node2 -->
<g id="edge1_Node000001_Node000002" class="edge">
<title>Node1&#45;&gt;Node2</title>
<g id="a_edge1_Node000001_Node000002"><a xlink:title=" ">
<path fill="none" stroke="#63b8ff" d="M150.61,-16C158.5,-16 166.57,-16 174.59,-16"/>
<polygon fill="#63b8ff" stroke="#63b8ff" points="174.35,-19.5 184.35,-16 174.35,-12.5 174.35,-19.5"/>
</a>
</g>
</g>
<!-- Node3 -->
<g id="Node000003" class="node">
<title>Node3</title>
<g id="a_Node000003"><a xlink:href="../../d3/dda/eglext_8h.html#a0f7193911e632cd84da4082d5c628fe3" target="_top" xlink:title=" ">
<polygon fill="white" stroke="#666666" points="409.5,-26 375.5,-26 375.5,-6 409.5,-6 409.5,-26"/>
<text xml:space="preserve" text-anchor="middle" x="392.5" y="-12.5" font-family="Helvetica,sans-Serif" font-size="10.00">void</text>
</a>
</g>
</g>
<!-- Node2&#45;&gt;Node3 -->
<g id="edge2_Node000002_Node000003" class="edge">
<title>Node2&#45;&gt;Node3</title>
<g id="a_edge2_Node000002_Node000003"><a xlink:title=" ">
<path fill="none" stroke="#63b8ff" d="M339.96,-16C348.34,-16 356.42,-16 363.6,-16"/>
<polygon fill="#63b8ff" stroke="#63b8ff" points="363.57,-19.5 373.57,-16 363.57,-12.5 363.57,-19.5"/>
</a>
</g>
</g>
</g>
</svg>
