<?xml version="1.0" encoding="UTF-8" standalone="no"?>
<!DOCTYPE svg PUBLIC "-//W3C//DTD SVG 1.1//EN"
 "http://www.w3.org/Graphics/SVG/1.1/DTD/svg11.dtd">
<!-- Generated by graphviz version 13.1.0 (20250701.0955)
 -->
<!-- Title: &#45;[SDL3Cocoa_WindowListener setPendingMoveX:Y:] Pages: 1 -->
<svg width="560pt" height="90pt"
 viewBox="0.00 0.00 560.00 90.00" xmlns="http://www.w3.org/2000/svg" xmlns:xlink="http://www.w3.org/1999/xlink">
<g id="graph0" class="graph" transform="scale(1 1) rotate(0) translate(4 86)">
<title>&#45;[SDL3Cocoa_WindowListener setPendingMoveX:Y:]</title>
<!-- Node1 -->
<g id="Node000001" class="node">
<title>Node1</title>
<g id="a_Node000001"><a xlink:title=" ">
<polygon fill="#999999" stroke="#666666" points="150.25,-66 0,-66 0,-34 150.25,-34 150.25,-66"/>
<text xml:space="preserve" text-anchor="start" x="8" y="-52.5" font-family="Helvetica,sans-Serif" font-size="10.00">&#45;[SDL3Cocoa_WindowListener</text>
<text xml:space="preserve" text-anchor="middle" x="75.12" y="-40.5" font-family="Helvetica,sans-Serif" font-size="10.00"> setPendingMoveX:Y:]</text>
</a>
</g>
</g>
<!-- Node2 -->
<g id="Node000002" class="node">
<title>Node2</title>
<g id="a_Node000002"><a xlink:href="../../d3/dda/eglext_8h.html#a0f7193911e632cd84da4082d5c628fe3" target="_top" xlink:title=" ">
<polygon fill="white" stroke="#666666" points="479.25,-82 445.25,-82 445.25,-62 479.25,-62 479.25,-82"/>
<text xml:space="preserve" text-anchor="middle" x="462.25" y="-68.5" font-family="Helvetica,sans-Serif" font-size="10.00">void</text>
</a>
</g>
</g>
<!-- Node1&#45;&gt;Node2 -->
<g id="edge1_Node000001_Node000002" class="edge">
<title>Node1&#45;&gt;Node2</title>
<g id="a_edge1_Node000001_Node000002"><a xlink:title=" ">
<path fill="none" stroke="#63b8ff" d="M150.38,-54.24C236.9,-59.18 375.46,-67.1 433.87,-70.44"/>
<polygon fill="#63b8ff" stroke="#63b8ff" points="433.38,-73.91 443.56,-70.99 433.77,-66.92 433.38,-73.91"/>
</a>
</g>
</g>
<!-- Node3 -->
<g id="Node000003" class="node">
<title>Node3</title>
<g id="a_Node000003"><a xlink:href="../../de/d31/interfaceSDL3Cocoa__WindowListener.html#a6745b33d0f5cd9dec0bb43ad87971ca8" target="_top" xlink:title=" ">
<polygon fill="white" stroke="#666666" points="336.5,-44 186.25,-44 186.25,-12 336.5,-12 336.5,-44"/>
<text xml:space="preserve" text-anchor="start" x="194.25" y="-30.5" font-family="Helvetica,sans-Serif" font-size="10.00">&#45;[SDL3Cocoa_WindowListener</text>
<text xml:space="preserve" text-anchor="middle" x="261.38" y="-18.5" font-family="Helvetica,sans-Serif" font-size="10.00"> windowDidFinishMoving]</text>
</a>
</g>
</g>
<!-- Node1&#45;&gt;Node3 -->
<g id="edge2_Node000001_Node000003" class="edge">
<title>Node1&#45;&gt;Node3</title>
<g id="a_edge2_Node000001_Node000003"><a xlink:title=" ">
<path fill="none" stroke="#63b8ff" d="M150.54,-41.12C158.48,-40.17 166.6,-39.2 174.66,-38.23"/>
<polygon fill="#63b8ff" stroke="#63b8ff" points="174.97,-41.72 184.48,-37.06 174.14,-34.77 174.97,-41.72"/>
</a>
</g>
</g>
<!-- Node3&#45;&gt;Node2 -->
<g id="edge4_Node000003_Node000002" class="edge">
<title>Node3&#45;&gt;Node2</title>
<g id="a_edge4_Node000003_Node000002"><a xlink:title=" ">
<path fill="none" stroke="#63b8ff" d="M334.32,-44.47C347.03,-47.34 360.15,-50.28 372.5,-53 393,-57.52 416.21,-62.48 433.75,-66.2"/>
<polygon fill="#63b8ff" stroke="#63b8ff" points="432.89,-69.6 443.4,-68.25 434.34,-62.75 432.89,-69.6"/>
</a>
</g>
</g>
<!-- Node4 -->
<g id="Node000004" class="node">
<title>Node4</title>
<g id="a_Node000004"><a xlink:href="../../de/d31/interfaceSDL3Cocoa__WindowListener.html#a94d94a28e25b23bf324789d12547dfb3" target="_top" xlink:title=" ">
<polygon fill="white" stroke="#666666" points="552,-44 372.5,-44 372.5,0 552,0 552,-44"/>
<text xml:space="preserve" text-anchor="start" x="380.5" y="-30.5" font-family="Helvetica,sans-Serif" font-size="10.00">&#45;[SDL3Cocoa_WindowListener</text>
<text xml:space="preserve" text-anchor="start" x="380.5" y="-18.5" font-family="Helvetica,sans-Serif" font-size="10.00"> onMovingOrFocusClickPendingState</text>
<text xml:space="preserve" text-anchor="middle" x="462.25" y="-6.5" font-family="Helvetica,sans-Serif" font-size="10.00">Cleared]</text>
</a>
</g>
</g>
<!-- Node3&#45;&gt;Node4 -->
<g id="edge3_Node000003_Node000004" class="edge">
<title>Node3&#45;&gt;Node4</title>
<g id="a_edge3_Node000003_Node000004"><a xlink:title=" ">
<path fill="none" stroke="#63b8ff" d="M336.99,-25.75C344.79,-25.51 352.79,-25.27 360.81,-25.03"/>
<polygon fill="#63b8ff" stroke="#63b8ff" points="360.73,-28.53 370.62,-24.73 360.51,-21.54 360.73,-28.53"/>
</a>
</g>
</g>
</g>
</svg>
