<?xml version="1.0" encoding="UTF-8" standalone="no"?>
<!DOCTYPE svg PUBLIC "-//W3C//DTD SVG 1.1//EN"
 "http://www.w3.org/Graphics/SVG/1.1/DTD/svg11.dtd">
<!-- Generated by graphviz version 13.1.0 (20250701.0955)
 -->
<!-- Title: SDL&#45;main/src/haptic/SDL_syshaptic.h Pages: 1 -->
<!--zoomable 176 -->

<svg id="main" version="1.1" xmlns="http://www.w3.org/2000/svg" xmlns:xlink="http://www.w3.org/1999/xlink" xml:space="preserve" onload="init(evt)">

<style type="text/css"><![CDATA[
.node, .edge {opacity: 0.7;}
.node.selected, .edge.selected {opacity: 1;}
.edge:hover path { stroke: red; }
.edge:hover polygon { stroke: red; fill: red; }
]]></style>

<defs>
  <circle id="rim" cx="0" cy="0" r="7"/>
  <circle id="rim2" cx="0" cy="0" r="3.5"/>
  <g id="zoomPlus">
    <use xlink:href="#rim" fill="#404040"><set attributeName="fill" to="#808080" begin="zoomplus.mouseover" end="zoomplus.mouseout"/></use>
    <path d="M-4,0h8M0,-4v8" fill="none" stroke="white" stroke-width="1.5" pointer-events="none"/>
  </g>
  <g id="zoomMin">
    <use xlink:href="#rim" fill="#404040"><set attributeName="fill" to="#808080" begin="zoomminus.mouseover" end="zoomminus.mouseout"/></use>
    <path d="M-4,0h8" fill="none" stroke="white" stroke-width="1.5" pointer-events="none"/>
  </g>
  <g id="arrowUp" transform="translate(30 24)">
    <use xlink:href="#rim"/>
    <path pointer-events="none" fill="none" stroke="white" stroke-width="1.5" d="M0,-3.0v7 M-2.5,-0.5L0,-3.0L2.5,-0.5"/>
  </g>
  <g id="arrowRight" transform="rotate(90) translate(36 -43)">
    <use xlink:href="#rim"/>
    <path pointer-events="none" fill="none" stroke="white" stroke-width="1.5" d="M0,-3.0v7 M-2.5,-0.5L0,-3.0L2.5,-0.5"/>
  </g>
  <g id="arrowDown" transform="rotate(180) translate(-30 -48)">
    <use xlink:href="#rim"/>
    <path pointer-events="none" fill="none" stroke="white" stroke-width="1.5" d="M0,-3.0v7 M-2.5,-0.5L0,-3.0L2.5,-0.5"/>
  </g>
  <g id="arrowLeft" transform="rotate(270) translate(-36 17)">
    <use xlink:href="#rim"/>
    <path pointer-events="none" fill="none" stroke="white" stroke-width="1.5" d="M0,-3.0v7 M-2.5,-0.5L0,-3.0L2.5,-0.5"/>
  </g>
  <g id="resetDef">
    <use xlink:href="#rim2" fill="#404040"><set attributeName="fill" to="#808080" begin="reset.mouseover" end="reset.mouseout"/></use>
  </g>
</defs>
<script type="application/ecmascript">
var viewWidth = 624;
var viewHeight = 176;
var sectionId = 'dynsection-1';
</script>
<script type="application/ecmascript" xlink:href="../../svg.min.js"/>
<svg id="graph" class="graph">
<g id="viewport">
<title>SDL&#45;main/src/haptic/SDL_syshaptic.h</title>
<!-- Node1 -->
<g id="Node000001" class="node">
<title>Node1</title>
<g id="a_Node000001"><a xlink:title=" ">
<polygon fill="#999999" stroke="#666666" points="328.25,-168 223,-168 223,-136 328.25,-136 328.25,-168"/>
<text xml:space="preserve" text-anchor="start" x="231" y="-154.5" font-family="Helvetica,sans-Serif" font-size="10.00">SDL&#45;main/src/haptic</text>
<text xml:space="preserve" text-anchor="middle" x="275.62" y="-142.5" font-family="Helvetica,sans-Serif" font-size="10.00">/SDL_syshaptic.h</text>
</a>
</g>
</g>
<!-- Node2 -->
<g id="Node000002" class="node">
<title>Node2</title>
<g id="a_Node000002"><a xlink:href="../../dd/dd3/SDL__haptic_8c.html" target="_top" xlink:title=" ">
<polygon fill="white" stroke="#666666" points="105.25,-100 0,-100 0,-68 105.25,-68 105.25,-100"/>
<text xml:space="preserve" text-anchor="start" x="8" y="-86.5" font-family="Helvetica,sans-Serif" font-size="10.00">SDL&#45;main/src/haptic</text>
<text xml:space="preserve" text-anchor="middle" x="52.62" y="-74.5" font-family="Helvetica,sans-Serif" font-size="10.00">/SDL_haptic.c</text>
</a>
</g>
</g>
<!-- Node1&#45;&gt;Node2 -->
<g id="edge1_Node000001_Node000002" class="edge">
<title>Node1&#45;&gt;Node2</title>
<g id="a_edge1_Node000001_Node000002"><a xlink:title=" ">
<path fill="none" stroke="#63b8ff" d="M212.59,-132.34C178.6,-122.28 137.16,-110.02 104.97,-100.49"/>
<polygon fill="#63b8ff" stroke="#63b8ff" points="211.31,-135.61 221.89,-135.1 213.29,-128.9 211.31,-135.61"/>
</a>
</g>
</g>
<!-- Node3 -->
<g id="Node000003" class="node">
<title>Node3</title>
<g id="a_Node000003"><a xlink:href="../../d7/d99/SDL__hidapihaptic__c_8h.html" target="_top" xlink:title=" ">
<polygon fill="white" stroke="#666666" points="266,-100 123.25,-100 123.25,-68 266,-68 266,-100"/>
<text xml:space="preserve" text-anchor="start" x="131.25" y="-86.5" font-family="Helvetica,sans-Serif" font-size="10.00">SDL&#45;main/src/haptic</text>
<text xml:space="preserve" text-anchor="middle" x="194.62" y="-74.5" font-family="Helvetica,sans-Serif" font-size="10.00">/hidapi/SDL_hidapihaptic_c.h</text>
</a>
</g>
</g>
<!-- Node1&#45;&gt;Node3 -->
<g id="edge2_Node000001_Node000003" class="edge">
<title>Node1&#45;&gt;Node3</title>
<g id="a_edge2_Node000001_Node000003"><a xlink:title=" ">
<path fill="none" stroke="#63b8ff" d="M248.13,-128.6C236.77,-119.34 223.87,-108.83 213.59,-100.45"/>
<polygon fill="#63b8ff" stroke="#63b8ff" points="245.7,-131.13 255.67,-134.74 250.12,-125.71 245.7,-131.13"/>
</a>
</g>
</g>
<!-- Node4 -->
<g id="Node000004" class="node">
<title>Node4</title>
<g id="a_Node000004"><a xlink:href="../../dd/d3a/SDL__dinputhaptic_8c.html" target="_top" xlink:title=" ">
<polygon fill="white" stroke="#666666" points="429.5,-100 283.75,-100 283.75,-68 429.5,-68 429.5,-100"/>
<text xml:space="preserve" text-anchor="start" x="291.75" y="-86.5" font-family="Helvetica,sans-Serif" font-size="10.00">SDL&#45;main/src/haptic</text>
<text xml:space="preserve" text-anchor="middle" x="356.62" y="-74.5" font-family="Helvetica,sans-Serif" font-size="10.00">/windows/SDL_dinputhaptic.c</text>
</a>
</g>
</g>
<!-- Node1&#45;&gt;Node4 -->
<g id="edge3_Node000001_Node000004" class="edge">
<title>Node1&#45;&gt;Node4</title>
<g id="a_edge3_Node000001_Node000004"><a xlink:title=" ">
<path fill="none" stroke="#63b8ff" d="M303.12,-128.6C314.48,-119.34 327.38,-108.83 337.66,-100.45"/>
<polygon fill="#63b8ff" stroke="#63b8ff" points="301.13,-125.71 295.58,-134.74 305.55,-131.13 301.13,-125.71"/>
</a>
</g>
</g>
<!-- Node5 -->
<g id="Node000005" class="node">
<title>Node5</title>
<g id="a_Node000005"><a xlink:href="../../d0/daa/SDL__windowshaptic__c_8h.html" target="_top" xlink:title=" ">
<polygon fill="white" stroke="#666666" points="615.75,-100 447.5,-100 447.5,-68 615.75,-68 615.75,-100"/>
<text xml:space="preserve" text-anchor="start" x="455.5" y="-86.5" font-family="Helvetica,sans-Serif" font-size="10.00">SDL&#45;main/src/haptic</text>
<text xml:space="preserve" text-anchor="middle" x="531.62" y="-74.5" font-family="Helvetica,sans-Serif" font-size="10.00">/windows/SDL_windowshaptic_c.h</text>
</a>
</g>
</g>
<!-- Node1&#45;&gt;Node5 -->
<g id="edge4_Node000001_Node000005" class="edge">
<title>Node1&#45;&gt;Node5</title>
<g id="a_edge4_Node000001_Node000005"><a xlink:title=" ">
<path fill="none" stroke="#63b8ff" d="M339.77,-134.46C380.29,-124.02 432.29,-110.61 471.93,-100.39"/>
<polygon fill="#63b8ff" stroke="#63b8ff" points="338.94,-131.06 330.13,-136.95 340.69,-137.84 338.94,-131.06"/>
</a>
</g>
</g>
<!-- Node6 -->
<g id="Node000006" class="node">
<title>Node6</title>
<g id="a_Node000006"><a xlink:href="../../d8/d30/SDL__dinputhaptic__c_8h.html" target="_top" xlink:title=" ">
<polygon fill="white" stroke="#666666" points="609.75,-32 453.5,-32 453.5,0 609.75,0 609.75,-32"/>
<text xml:space="preserve" text-anchor="start" x="461.5" y="-18.5" font-family="Helvetica,sans-Serif" font-size="10.00">SDL&#45;main/src/haptic</text>
<text xml:space="preserve" text-anchor="middle" x="531.62" y="-6.5" font-family="Helvetica,sans-Serif" font-size="10.00">/windows/SDL_dinputhaptic_c.h</text>
</a>
</g>
</g>
<!-- Node5&#45;&gt;Node6 -->
<g id="edge5_Node000005_Node000006" class="edge">
<title>Node5&#45;&gt;Node6</title>
<g id="a_edge5_Node000005_Node000006"><a xlink:title=" ">
<path fill="none" stroke="#63b8ff" d="M531.62,-56.31C531.62,-48.12 531.62,-39.38 531.62,-32.22"/>
<polygon fill="#63b8ff" stroke="#63b8ff" points="528.13,-56.18 531.63,-66.18 535.13,-56.18 528.13,-56.18"/>
</a>
</g>
</g>
</g>
</svg>

<g id="navigator" transform="translate(0 0)" fill="#404254">
  <rect fill="#f2f5e9" fill-opacity="0.5" stroke="#606060" stroke-width=".5" x="0" y="0" width="60" height="60"/>
  <use id="zoomplus" xlink:href="#zoomPlus" x="17" y="9" onmousedown="handleZoom(evt,'in')"/>
  <use id="zoomminus" xlink:href="#zoomMin" x="42" y="9" onmousedown="handleZoom(evt,'out')"/>
  <use id="reset" xlink:href="#resetDef" x="30" y="36" onmousedown="handleReset()"/>
   <use id="arrowup" xlink:href="#arrowUp" x="0" y="0" onmousedown="handlePan(0,-1)"/>
  <use id="arrowright" xlink:href="#arrowRight" x="0" y="0" onmousedown="handlePan(1,0)"/>
  <use id="arrowdown" xlink:href="#arrowDown" x="0" y="0" onmousedown="handlePan(0,1)"/>
  <use id="arrowleft" xlink:href="#arrowLeft" x="0" y="0" onmousedown="handlePan(-1,0)"/>
</g>
<svg viewBox="0 0 15 15" width="100%" height="30px" preserveAspectRatio="xMaxYMin meet">
 <g id="arrow_out" transform="scale(0.3 0.3)">
  <a xlink:href="SDL__syshaptic_8h__dep__incl_org.svg" target="_base">
   <rect id="button" ry="5" rx="5" y="6" x="6" height="38" width="38"
        fill="#f2f5e9" fill-opacity="0.5" stroke="#606060" stroke-width="1.0"/>
   <path id="arrow"
     d="M 11.500037,31.436501 C 11.940474,20.09759 22.043105,11.32322 32.158766,21.979434 L 37.068811,17.246167 C 37.068811,17.246167 37.088388,32 37.088388,32 L 22.160133,31.978069 C 22.160133,31.978069 26.997745,27.140456 26.997745,27.140456 C 18.528582,18.264221 13.291696,25.230495 11.500037,31.436501 z"
     style="fill:#404040;"/>
  </a>
 </g>
</svg>

<style type='text/css'>
<![CDATA[
[data-mouse-over-selected='false'] { opacity: 0.7; }
[data-mouse-over-selected='true']  { opacity: 1.0; }
]]>
</style>
<script type="application/ecmascript"><![CDATA[
document.addEventListener('DOMContentLoaded', (event) => {
  highlightEdges();
  highlightAdjacentNodes();
});
]]></script>
</svg>
