<?xml version="1.0" encoding="UTF-8" standalone="no"?>
<!DOCTYPE svg PUBLIC "-//W3C//DTD SVG 1.1//EN"
 "http://www.w3.org/Graphics/SVG/1.1/DTD/svg11.dtd">
<!-- Generated by graphviz version 13.1.0 (20250701.0955)
 -->
<!-- Title: SDL&#45;main/include/SDL3/SDL_mutex.h Pages: 1 -->
<svg width="751pt" height="320pt"
 viewBox="0.00 0.00 751.00 320.00" xmlns="http://www.w3.org/2000/svg" xmlns:xlink="http://www.w3.org/1999/xlink">
<g id="graph0" class="graph" transform="scale(1 1) rotate(0) translate(4 316)">
<title>SDL&#45;main/include/SDL3/SDL_mutex.h</title>
<!-- Node1 -->
<g id="Node000001" class="node">
<title>Node1</title>
<g id="a_Node000001"><a xlink:title=" ">
<polygon fill="#999999" stroke="#666666" points="617.88,-312 496.88,-312 496.88,-280 617.88,-280 617.88,-312"/>
<text xml:space="preserve" text-anchor="start" x="504.88" y="-298.5" font-family="Helvetica,sans-Serif" font-size="10.00">SDL&#45;main/include/SDL3</text>
<text xml:space="preserve" text-anchor="middle" x="557.38" y="-286.5" font-family="Helvetica,sans-Serif" font-size="10.00">/SDL_mutex.h</text>
</a>
</g>
</g>
<!-- Node2 -->
<g id="Node000002" class="node">
<title>Node2</title>
<g id="a_Node000002"><a xlink:href="../../d2/d5b/SDL__stdinc_8h.html" target="_top" xlink:title=" ">
<polygon fill="white" stroke="#666666" points="338.88,-76 235.88,-76 235.88,-56 338.88,-56 338.88,-76"/>
<text xml:space="preserve" text-anchor="middle" x="287.38" y="-62.5" font-family="Helvetica,sans-Serif" font-size="10.00">SDL3/SDL_stdinc.h</text>
</a>
</g>
</g>
<!-- Node1&#45;&gt;Node2 -->
<g id="edge1_Node000001_Node000002" class="edge">
<title>Node1&#45;&gt;Node2</title>
<g id="a_edge1_Node000001_Node000002"><a xlink:title=" ">
<path fill="none" stroke="#63b8ff" d="M496.64,-287.01C415.04,-272.54 273.72,-233.43 217.38,-132 205.71,-111.01 229.65,-92.96 252.63,-81.25"/>
<polygon fill="#63b8ff" stroke="#63b8ff" points="254.1,-84.43 261.63,-76.98 251.1,-78.11 254.1,-84.43"/>
</a>
</g>
</g>
<!-- Node8 -->
<g id="Node000008" class="node">
<title>Node8</title>
<g id="a_Node000008"><a xlink:href="../../d8/d5f/SDL__begin__code_8h.html" target="_top" xlink:title=" ">
<polygon fill="white" stroke="#666666" points="563.5,-20 437.25,-20 437.25,0 563.5,0 563.5,-20"/>
<text xml:space="preserve" text-anchor="middle" x="500.38" y="-6.5" font-family="Helvetica,sans-Serif" font-size="10.00">SDL3/SDL_begin_code.h</text>
</a>
</g>
</g>
<!-- Node1&#45;&gt;Node8 -->
<g id="edge29_Node000001_Node000008" class="edge">
<title>Node1&#45;&gt;Node8</title>
<g id="a_edge29_Node000001_Node000008"><a xlink:title=" ">
<path fill="none" stroke="#63b8ff" d="M575.38,-279.69C610.26,-248.1 680.86,-173.49 648.38,-112 625.33,-68.38 574.04,-40.04 538.34,-24.79"/>
<polygon fill="#63b8ff" stroke="#63b8ff" points="539.79,-21.61 529.21,-21.05 537.14,-28.08 539.79,-21.61"/>
</a>
</g>
</g>
<!-- Node9 -->
<g id="Node000009" class="node">
<title>Node9</title>
<g id="a_Node000009"><a xlink:href="../../d9/d73/SDL__close__code_8h.html" target="_top" xlink:title=" ">
<polygon fill="white" stroke="#666666" points="719.5,-20 593.25,-20 593.25,0 719.5,0 719.5,-20"/>
<text xml:space="preserve" text-anchor="middle" x="656.38" y="-6.5" font-family="Helvetica,sans-Serif" font-size="10.00">SDL3/SDL_close_code.h</text>
</a>
</g>
</g>
<!-- Node1&#45;&gt;Node9 -->
<g id="edge30_Node000001_Node000009" class="edge">
<title>Node1&#45;&gt;Node9</title>
<g id="a_edge30_Node000001_Node000009"><a xlink:title=" ">
<path fill="none" stroke="#63b8ff" d="M618.28,-283.45C672.52,-269.22 743.38,-239.13 743.38,-179 743.38,-179 743.38,-179 743.38,-121 743.38,-80.41 706.48,-46.04 680.75,-27"/>
<polygon fill="#63b8ff" stroke="#63b8ff" points="682.95,-24.27 672.76,-21.35 678.9,-29.98 682.95,-24.27"/>
</a>
</g>
</g>
<!-- Node10 -->
<g id="Node000010" class="node">
<title>Node10</title>
<g id="a_Node000010"><a xlink:href="../../d2/dd2/SDL__atomic_8h.html" target="_top" xlink:title=" ">
<polygon fill="white" stroke="#666666" points="340.38,-132 234.38,-132 234.38,-112 340.38,-112 340.38,-132"/>
<text xml:space="preserve" text-anchor="middle" x="287.38" y="-118.5" font-family="Helvetica,sans-Serif" font-size="10.00">SDL3/SDL_atomic.h</text>
</a>
</g>
</g>
<!-- Node1&#45;&gt;Node10 -->
<g id="edge9_Node000001_Node000010" class="edge">
<title>Node1&#45;&gt;Node10</title>
<g id="a_edge9_Node000001_Node000010"><a xlink:title=" ">
<path fill="none" stroke="#63b8ff" d="M512.89,-279.58C488.74,-270.5 458.72,-258.06 433.38,-244 396.06,-223.3 388.21,-215.26 355.38,-188 337.03,-172.77 317.49,-153.77 304.08,-140.25"/>
<polygon fill="#63b8ff" stroke="#63b8ff" points="306.8,-138.02 297.3,-133.34 301.8,-142.92 306.8,-138.02"/>
</a>
</g>
</g>
<!-- Node11 -->
<g id="Node000011" class="node">
<title>Node11</title>
<g id="a_Node000011"><a xlink:href="../../da/d16/SDL__error_8h.html" target="_top" xlink:title=" ">
<polygon fill="white" stroke="#666666" points="639.5,-132 543.25,-132 543.25,-112 639.5,-112 639.5,-132"/>
<text xml:space="preserve" text-anchor="middle" x="591.38" y="-118.5" font-family="Helvetica,sans-Serif" font-size="10.00">SDL3/SDL_error.h</text>
</a>
</g>
</g>
<!-- Node1&#45;&gt;Node11 -->
<g id="edge14_Node000001_Node000011" class="edge">
<title>Node1&#45;&gt;Node11</title>
<g id="a_edge14_Node000001_Node000011"><a xlink:title=" ">
<path fill="none" stroke="#63b8ff" d="M561.73,-279.53C567.43,-258.83 577.37,-220.91 583.38,-188 586.07,-173.24 588.11,-156.42 589.46,-143.58"/>
<polygon fill="#63b8ff" stroke="#63b8ff" points="592.92,-144.11 590.42,-133.81 585.96,-143.42 592.92,-144.11"/>
</a>
</g>
</g>
<!-- Node12 -->
<g id="Node000012" class="node">
<title>Node12</title>
<g id="a_Node000012"><a xlink:href="../../dd/d1d/SDL__thread_8h.html" target="_top" xlink:title=" ">
<polygon fill="white" stroke="#666666" points="546.25,-244 442.5,-244 442.5,-224 546.25,-224 546.25,-244"/>
<text xml:space="preserve" text-anchor="middle" x="494.38" y="-230.5" font-family="Helvetica,sans-Serif" font-size="10.00">SDL3/SDL_thread.h</text>
</a>
</g>
</g>
<!-- Node1&#45;&gt;Node12 -->
<g id="edge18_Node000001_Node000012" class="edge">
<title>Node1&#45;&gt;Node12</title>
<g id="a_edge18_Node000001_Node000012"><a xlink:title=" ">
<path fill="none" stroke="#63b8ff" d="M541.15,-279.55C532.4,-271.22 521.58,-260.91 512.54,-252.3"/>
<polygon fill="#63b8ff" stroke="#63b8ff" points="515,-249.81 505.35,-245.45 510.18,-254.88 515,-249.81"/>
</a>
</g>
</g>
<!-- Node3 -->
<g id="Node000003" class="node">
<title>Node3</title>
<g id="a_Node000003"><a xlink:href="../../d3/d8b/SDL__platform__defines_8h.html" target="_top" xlink:title=" ">
<polygon fill="white" stroke="#666666" points="148.75,-20 0,-20 0,0 148.75,0 148.75,-20"/>
<text xml:space="preserve" text-anchor="middle" x="74.38" y="-6.5" font-family="Helvetica,sans-Serif" font-size="10.00">SDL3/SDL_platform_defines.h</text>
</a>
</g>
</g>
<!-- Node2&#45;&gt;Node3 -->
<g id="edge2_Node000002_Node000003" class="edge">
<title>Node2&#45;&gt;Node3</title>
<g id="a_edge2_Node000002_Node000003"><a xlink:title=" ">
<path fill="none" stroke="#63b8ff" d="M250.27,-55.59C214.91,-46.63 161.46,-33.08 122.76,-23.27"/>
<polygon fill="#63b8ff" stroke="#63b8ff" points="123.79,-19.92 113.23,-20.85 122.07,-26.7 123.79,-19.92"/>
</a>
</g>
</g>
<!-- Node4 -->
<g id="Node000004" class="node">
<title>Node4</title>
<g id="a_Node000004"><a xlink:title=" ">
<polygon fill="#e0e0e0" stroke="#999999" points="419,-20 367.75,-20 367.75,0 419,0 419,-20"/>
<text xml:space="preserve" text-anchor="middle" x="393.38" y="-6.5" font-family="Helvetica,sans-Serif" font-size="10.00">stdarg.h</text>
</a>
</g>
</g>
<!-- Node2&#45;&gt;Node4 -->
<g id="edge3_Node000002_Node000004" class="edge">
<title>Node2&#45;&gt;Node4</title>
<g id="a_edge3_Node000002_Node000004"><a xlink:title=" ">
<path fill="none" stroke="#63b8ff" d="M305.84,-55.59C322.08,-47.32 345.98,-35.14 364.71,-25.6"/>
<polygon fill="#63b8ff" stroke="#63b8ff" points="366.1,-28.82 373.42,-21.17 362.92,-22.59 366.1,-28.82"/>
</a>
</g>
</g>
<!-- Node5 -->
<g id="Node000005" class="node">
<title>Node5</title>
<g id="a_Node000005"><a xlink:title=" ">
<polygon fill="#e0e0e0" stroke="#999999" points="215.5,-20 167.25,-20 167.25,0 215.5,0 215.5,-20"/>
<text xml:space="preserve" text-anchor="middle" x="191.38" y="-6.5" font-family="Helvetica,sans-Serif" font-size="10.00">stdint.h</text>
</a>
</g>
</g>
<!-- Node2&#45;&gt;Node5 -->
<g id="edge4_Node000002_Node000005" class="edge">
<title>Node2&#45;&gt;Node5</title>
<g id="a_edge4_Node000002_Node000005"><a xlink:title=" ">
<path fill="none" stroke="#63b8ff" d="M270.65,-55.59C256.15,-47.44 234.9,-35.48 218.05,-26"/>
<polygon fill="#63b8ff" stroke="#63b8ff" points="219.98,-23.07 209.55,-21.22 216.55,-29.17 219.98,-23.07"/>
</a>
</g>
</g>
<!-- Node6 -->
<g id="Node000006" class="node">
<title>Node6</title>
<g id="a_Node000006"><a xlink:title=" ">
<polygon fill="#e0e0e0" stroke="#999999" points="281.5,-20 233.25,-20 233.25,0 281.5,0 281.5,-20"/>
<text xml:space="preserve" text-anchor="middle" x="257.38" y="-6.5" font-family="Helvetica,sans-Serif" font-size="10.00">string.h</text>
</a>
</g>
</g>
<!-- Node2&#45;&gt;Node6 -->
<g id="edge5_Node000002_Node000006" class="edge">
<title>Node2&#45;&gt;Node6</title>
<g id="a_edge5_Node000002_Node000006"><a xlink:title=" ">
<path fill="none" stroke="#63b8ff" d="M282.15,-55.59C278.28,-48.63 272.87,-38.89 268.09,-30.29"/>
<polygon fill="#63b8ff" stroke="#63b8ff" points="271.19,-28.66 263.28,-21.62 265.07,-32.06 271.19,-28.66"/>
</a>
</g>
</g>
<!-- Node7 -->
<g id="Node000007" class="node">
<title>Node7</title>
<g id="a_Node000007"><a xlink:title=" ">
<polygon fill="#e0e0e0" stroke="#999999" points="349.62,-20 299.12,-20 299.12,0 349.62,0 349.62,-20"/>
<text xml:space="preserve" text-anchor="middle" x="324.38" y="-6.5" font-family="Helvetica,sans-Serif" font-size="10.00">wchar.h</text>
</a>
</g>
</g>
<!-- Node2&#45;&gt;Node7 -->
<g id="edge6_Node000002_Node000007" class="edge">
<title>Node2&#45;&gt;Node7</title>
<g id="a_edge6_Node000002_Node000007"><a xlink:title=" ">
<path fill="none" stroke="#63b8ff" d="M293.82,-55.59C298.7,-48.47 305.57,-38.45 311.55,-29.72"/>
<polygon fill="#63b8ff" stroke="#63b8ff" points="314.38,-31.77 317.15,-21.55 308.61,-27.82 314.38,-31.77"/>
</a>
</g>
</g>
<!-- Node2&#45;&gt;Node8 -->
<g id="edge7_Node000002_Node000008" class="edge">
<title>Node2&#45;&gt;Node8</title>
<g id="a_edge7_Node000002_Node000008"><a xlink:title=" ">
<path fill="none" stroke="#63b8ff" d="M324.48,-55.59C359.84,-46.63 413.29,-33.08 451.99,-23.27"/>
<polygon fill="#63b8ff" stroke="#63b8ff" points="452.68,-26.7 461.52,-20.85 450.96,-19.92 452.68,-26.7"/>
</a>
</g>
</g>
<!-- Node2&#45;&gt;Node9 -->
<g id="edge8_Node000002_Node000009" class="edge">
<title>Node2&#45;&gt;Node9</title>
<g id="a_edge8_Node000002_Node000009"><a xlink:title=" ">
<path fill="none" stroke="#63b8ff" d="M339.07,-57.43C402.24,-48.19 509.58,-32.48 581.71,-21.93"/>
<polygon fill="#63b8ff" stroke="#63b8ff" points="582.09,-25.41 591.48,-20.5 581.08,-18.48 582.09,-25.41"/>
</a>
</g>
</g>
<!-- Node10&#45;&gt;Node2 -->
<g id="edge10_Node000010_Node000002" class="edge">
<title>Node10&#45;&gt;Node2</title>
<g id="a_edge10_Node000010_Node000002"><a xlink:title=" ">
<path fill="none" stroke="#63b8ff" d="M287.38,-111.59C287.38,-105.01 287.38,-95.96 287.38,-87.73"/>
<polygon fill="#63b8ff" stroke="#63b8ff" points="290.88,-87.81 287.38,-77.81 283.88,-87.81 290.88,-87.81"/>
</a>
</g>
</g>
<!-- Node10&#45;&gt;Node3 -->
<g id="edge11_Node000010_Node000003" class="edge">
<title>Node10&#45;&gt;Node3</title>
<g id="a_edge11_Node000010_Node000003"><a xlink:title=" ">
<path fill="none" stroke="#63b8ff" d="M269.21,-111.62C232.04,-92.42 147.03,-48.52 102.6,-25.58"/>
<polygon fill="#63b8ff" stroke="#63b8ff" points="104.33,-22.53 93.83,-21.05 101.11,-28.75 104.33,-22.53"/>
</a>
</g>
</g>
<!-- Node10&#45;&gt;Node8 -->
<g id="edge12_Node000010_Node000008" class="edge">
<title>Node10&#45;&gt;Node8</title>
<g id="a_edge12_Node000010_Node000008"><a xlink:title=" ">
<path fill="none" stroke="#63b8ff" d="M300.74,-111.63C320.14,-98.27 357.48,-73.43 391.38,-56 414.79,-43.96 442.18,-32.66 463.65,-24.4"/>
<polygon fill="#63b8ff" stroke="#63b8ff" points="464.76,-27.72 472.87,-20.9 462.27,-21.17 464.76,-27.72"/>
</a>
</g>
</g>
<!-- Node10&#45;&gt;Node9 -->
<g id="edge13_Node000010_Node000009" class="edge">
<title>Node10&#45;&gt;Node9</title>
<g id="a_edge13_Node000010_Node000009"><a xlink:title=" ">
<path fill="none" stroke="#63b8ff" d="M319.16,-111.53C385.5,-91.75 538.77,-46.06 613.65,-23.74"/>
<polygon fill="#63b8ff" stroke="#63b8ff" points="614.51,-27.13 623.09,-20.92 612.51,-20.43 614.51,-27.13"/>
</a>
</g>
</g>
<!-- Node11&#45;&gt;Node2 -->
<g id="edge15_Node000011_Node000002" class="edge">
<title>Node11&#45;&gt;Node2</title>
<g id="a_edge15_Node000011_Node000002"><a xlink:title=" ">
<path fill="none" stroke="#63b8ff" d="M542.87,-112.38C490.69,-103.12 407.54,-88.34 350.35,-78.19"/>
<polygon fill="#63b8ff" stroke="#63b8ff" points="351.22,-74.79 340.76,-76.48 349.99,-81.68 351.22,-74.79"/>
</a>
</g>
</g>
<!-- Node11&#45;&gt;Node8 -->
<g id="edge16_Node000011_Node000008" class="edge">
<title>Node11&#45;&gt;Node8</title>
<g id="a_edge16_Node000011_Node000008"><a xlink:title=" ">
<path fill="none" stroke="#63b8ff" d="M583.62,-111.62C568.51,-93.36 534.9,-52.73 515.32,-29.07"/>
<polygon fill="#63b8ff" stroke="#63b8ff" points="518.15,-27 509.08,-21.52 512.76,-31.46 518.15,-27"/>
</a>
</g>
</g>
<!-- Node11&#45;&gt;Node9 -->
<g id="edge17_Node000011_Node000009" class="edge">
<title>Node11&#45;&gt;Node9</title>
<g id="a_edge17_Node000011_Node000009"><a xlink:title=" ">
<path fill="none" stroke="#63b8ff" d="M596.92,-111.62C607.57,-93.6 631.08,-53.81 645.13,-30.02"/>
<polygon fill="#63b8ff" stroke="#63b8ff" points="648,-32.05 650.08,-21.66 641.98,-28.49 648,-32.05"/>
</a>
</g>
</g>
<!-- Node12&#45;&gt;Node2 -->
<g id="edge19_Node000012_Node000002" class="edge">
<title>Node12&#45;&gt;Node2</title>
<g id="a_edge19_Node000012_Node000002"><a xlink:title=" ">
<path fill="none" stroke="#63b8ff" d="M442.01,-230.69C378.06,-224.69 272.61,-203.78 225.38,-132 212.72,-112.77 235.28,-94.1 256.64,-81.75"/>
<polygon fill="#63b8ff" stroke="#63b8ff" points="258.1,-84.93 265.23,-77.09 254.77,-78.78 258.1,-84.93"/>
</a>
</g>
</g>
<!-- Node12&#45;&gt;Node8 -->
<g id="edge27_Node000012_Node000008" class="edge">
<title>Node12&#45;&gt;Node8</title>
<g id="a_edge27_Node000012_Node000008"><a xlink:title=" ">
<path fill="none" stroke="#63b8ff" d="M468.52,-223.56C452.98,-216.39 434.5,-204.85 425.38,-188 421.14,-180.18 423.41,-176.67 425.38,-168 437.45,-114.71 469.91,-58.34 487.91,-29.85"/>
<polygon fill="#63b8ff" stroke="#63b8ff" points="490.73,-31.94 493.21,-21.63 484.85,-28.14 490.73,-31.94"/>
</a>
</g>
</g>
<!-- Node12&#45;&gt;Node9 -->
<g id="edge28_Node000012_Node000009" class="edge">
<title>Node12&#45;&gt;Node9</title>
<g id="a_edge28_Node000012_Node000009"><a xlink:title=" ">
<path fill="none" stroke="#63b8ff" d="M524.98,-223.53C562.39,-210.05 623.75,-181.35 648.38,-132 664.38,-99.92 662.63,-56.97 659.67,-31.81"/>
<polygon fill="#63b8ff" stroke="#63b8ff" points="663.14,-31.35 658.3,-21.93 656.2,-32.31 663.14,-31.35"/>
</a>
</g>
</g>
<!-- Node12&#45;&gt;Node10 -->
<g id="edge26_Node000012_Node000010" class="edge">
<title>Node12&#45;&gt;Node10</title>
<g id="a_edge26_Node000012_Node000010"><a xlink:title=" ">
<path fill="none" stroke="#63b8ff" d="M470.44,-223.54C449.48,-215.01 418.4,-201.71 392.38,-188 363.36,-172.71 331.53,-152.49 310.61,-138.68"/>
<polygon fill="#63b8ff" stroke="#63b8ff" points="312.8,-135.94 302.53,-133.31 308.92,-141.76 312.8,-135.94"/>
</a>
</g>
</g>
<!-- Node12&#45;&gt;Node11 -->
<g id="edge20_Node000012_Node000011" class="edge">
<title>Node12&#45;&gt;Node11</title>
<g id="a_edge20_Node000012_Node000011"><a xlink:title=" ">
<path fill="none" stroke="#63b8ff" d="M515.14,-223.58C530.22,-215.85 550.2,-203.64 563.38,-188 574.39,-174.91 581.71,-156.84 586.09,-143.07"/>
<polygon fill="#63b8ff" stroke="#63b8ff" points="589.36,-144.34 588.78,-133.77 582.64,-142.4 589.36,-144.34"/>
</a>
</g>
</g>
<!-- Node13 -->
<g id="Node000013" class="node">
<title>Node13</title>
<g id="a_Node000013"><a xlink:href="../../d6/d40/SDL__properties_8h.html" target="_top" xlink:title=" ">
<polygon fill="white" stroke="#666666" points="554.12,-188 434.62,-188 434.62,-168 554.12,-168 554.12,-188"/>
<text xml:space="preserve" text-anchor="middle" x="494.38" y="-174.5" font-family="Helvetica,sans-Serif" font-size="10.00">SDL3/SDL_properties.h</text>
</a>
</g>
</g>
<!-- Node12&#45;&gt;Node13 -->
<g id="edge21_Node000012_Node000013" class="edge">
<title>Node12&#45;&gt;Node13</title>
<g id="a_edge21_Node000012_Node000013"><a xlink:title=" ">
<path fill="none" stroke="#63b8ff" d="M494.38,-223.59C494.38,-217.01 494.38,-207.96 494.38,-199.73"/>
<polygon fill="#63b8ff" stroke="#63b8ff" points="497.88,-199.81 494.38,-189.81 490.88,-199.81 497.88,-199.81"/>
</a>
</g>
</g>
<!-- Node13&#45;&gt;Node2 -->
<g id="edge22_Node000013_Node000002" class="edge">
<title>Node13&#45;&gt;Node2</title>
<g id="a_edge22_Node000013_Node000002"><a xlink:title=" ">
<path fill="none" stroke="#63b8ff" d="M476.73,-167.62C440.67,-148.46 358.33,-104.71 315.08,-81.72"/>
<polygon fill="#63b8ff" stroke="#63b8ff" points="316.79,-78.67 306.32,-77.07 313.5,-84.85 316.79,-78.67"/>
</a>
</g>
</g>
<!-- Node13&#45;&gt;Node8 -->
<g id="edge24_Node000013_Node000008" class="edge">
<title>Node13&#45;&gt;Node8</title>
<g id="a_edge24_Node000013_Node000008"><a xlink:title=" ">
<path fill="none" stroke="#63b8ff" d="M494.71,-167.6C495.66,-141.46 498.33,-67.48 499.64,-31.36"/>
<polygon fill="#63b8ff" stroke="#63b8ff" points="503.12,-31.93 499.98,-21.81 496.13,-31.68 503.12,-31.93"/>
</a>
</g>
</g>
<!-- Node13&#45;&gt;Node9 -->
<g id="edge25_Node000013_Node000009" class="edge">
<title>Node13&#45;&gt;Node9</title>
<g id="a_edge25_Node000013_Node000009"><a xlink:title=" ">
<path fill="none" stroke="#63b8ff" d="M498.94,-167.53C505.61,-154.27 518.9,-129.8 534.38,-112 564.44,-77.4 607.08,-45.04 633.17,-26.66"/>
<polygon fill="#63b8ff" stroke="#63b8ff" points="634.84,-29.77 641.06,-21.2 630.85,-24.02 634.84,-29.77"/>
</a>
</g>
</g>
<!-- Node13&#45;&gt;Node11 -->
<g id="edge23_Node000013_Node000011" class="edge">
<title>Node13&#45;&gt;Node11</title>
<g id="a_edge23_Node000013_Node000011"><a xlink:title=" ">
<path fill="none" stroke="#63b8ff" d="M511.27,-167.59C525.92,-159.44 547.4,-147.48 564.42,-138"/>
<polygon fill="#63b8ff" stroke="#63b8ff" points="565.99,-141.14 573.02,-133.22 562.58,-135.02 565.99,-141.14"/>
</a>
</g>
</g>
</g>
</svg>
