<?xml version="1.0" encoding="UTF-8" standalone="no"?>
<!DOCTYPE svg PUBLIC "-//W3C//DTD SVG 1.1//EN"
 "http://www.w3.org/Graphics/SVG/1.1/DTD/svg11.dtd">
<!-- Generated by graphviz version 13.1.0 (20250701.0955)
 -->
<!-- Title: SDL_Swap32 Pages: 1 -->
<svg width="355pt" height="154pt"
 viewBox="0.00 0.00 355.00 154.00" xmlns="http://www.w3.org/2000/svg" xmlns:xlink="http://www.w3.org/1999/xlink">

<svg id="main" version="1.1" xmlns="http://www.w3.org/2000/svg" xmlns:xlink="http://www.w3.org/1999/xlink" xml:space="preserve">

<style type="text/css"><![CDATA[
.node, .edge {opacity: 0.7;}
.node.selected, .edge.selected {opacity: 1;}
.edge:hover path { stroke: red; }
.edge:hover polygon { stroke: red; fill: red; }
]]></style>
<script type="application/ecmascript" xlink:href="../../svg.min.js"/>
<svg id="graph" class="graph">
<g id="graph0" class="graph" transform="scale(1 1) rotate(0) translate(4 150)">
<title>SDL_Swap32</title>
<!-- Node1 -->
<g id="Node000001" class="node">
<title>Node1</title>
<g id="a_Node000001"><a xlink:title=" ">
<polygon fill="#999999" stroke="#666666" points="347.25,-77 271.25,-77 271.25,-57 347.25,-57 347.25,-77"/>
<text xml:space="preserve" text-anchor="middle" x="309.25" y="-63.5" font-family="Helvetica,sans-Serif" font-size="10.00">SDL_Swap32</text>
</a>
</g>
</g>
<!-- Node2 -->
<g id="Node000002" class="node">
<title>Node2</title>
<g id="a_Node000002"><a xlink:href="../../d1/dff/SDL__audiotypecvt_8c.html#ac804bf553947ea01269935120e3ebb70" target="_top" xlink:title=" ">
<polygon fill="white" stroke="#666666" points="235.25,-146 119.5,-146 119.5,-114 235.25,-114 235.25,-146"/>
<text xml:space="preserve" text-anchor="start" x="127.5" y="-132.5" font-family="Helvetica,sans-Serif" font-size="10.00">SDL_Convert_Swap32</text>
<text xml:space="preserve" text-anchor="middle" x="177.38" y="-120.5" font-family="Helvetica,sans-Serif" font-size="10.00">_Scalar</text>
</a>
</g>
</g>
<!-- Node1&#45;&gt;Node2 -->
<g id="edge1_Node000001_Node000002" class="edge">
<title>Node1&#45;&gt;Node2</title>
<g id="a_edge1_Node000001_Node000002"><a xlink:title=" ">
<path fill="none" stroke="#63b8ff" d="M279.21,-82.67C265.91,-89.71 249.89,-97.98 235.25,-105 229.32,-107.84 222.98,-110.75 216.77,-113.53"/>
<polygon fill="#63b8ff" stroke="#63b8ff" points="280.69,-85.85 287.88,-78.06 277.4,-79.67 280.69,-85.85"/>
</a>
</g>
</g>
<!-- Node3 -->
<g id="Node000003" class="node">
<title>Node3</title>
<g id="a_Node000003"><a xlink:href="../../d8/dc3/SDL__bmp_8c.html#a46ec958b331ad4389a21b6684b366e32" target="_top" xlink:title=" ">
<polygon fill="white" stroke="#666666" points="227,-96 127.75,-96 127.75,-76 227,-76 227,-96"/>
<text xml:space="preserve" text-anchor="middle" x="177.38" y="-82.5" font-family="Helvetica,sans-Serif" font-size="10.00">SDL_LoadBMP_IO</text>
</a>
</g>
</g>
<!-- Node1&#45;&gt;Node3 -->
<g id="edge2_Node000001_Node000003" class="edge">
<title>Node1&#45;&gt;Node3</title>
<g id="a_edge2_Node000001_Node000003"><a xlink:title=" ">
<path fill="none" stroke="#63b8ff" d="M259.8,-74.09C249.16,-75.65 237.89,-77.29 227.23,-78.85"/>
<polygon fill="#63b8ff" stroke="#63b8ff" points="260.15,-77.57 269.54,-72.66 259.13,-70.65 260.15,-77.57"/>
</a>
</g>
</g>
<!-- Node5 -->
<g id="Node000005" class="node">
<title>Node5</title>
<g id="a_Node000005"><a xlink:href="../../d6/de1/SDL__endian_8h.html#a5ffaae586753b46ec5df4e601702324a" target="_top" xlink:title=" ">
<polygon fill="white" stroke="#666666" points="215.38,-58 139.38,-58 139.38,-38 215.38,-38 215.38,-58"/>
<text xml:space="preserve" text-anchor="middle" x="177.38" y="-44.5" font-family="Helvetica,sans-Serif" font-size="10.00">SDL_Swap64</text>
</a>
</g>
</g>
<!-- Node1&#45;&gt;Node5 -->
<g id="edge4_Node000001_Node000005" class="edge">
<title>Node1&#45;&gt;Node5</title>
<g id="a_edge4_Node000001_Node000005"><a xlink:title=" ">
<path fill="none" stroke="#63b8ff" d="M259.65,-59.89C245.07,-57.76 229.32,-55.45 215.6,-53.45"/>
<polygon fill="#63b8ff" stroke="#63b8ff" points="259.13,-63.35 269.54,-61.34 260.15,-56.43 259.13,-63.35"/>
</a>
</g>
</g>
<!-- Node6 -->
<g id="Node000006" class="node">
<title>Node6</title>
<g id="a_Node000006"><a xlink:href="../../d6/de1/SDL__endian_8h.html#a5f0f2d51e5ca5b27627ffc46ec892ce2" target="_top" xlink:title=" ">
<polygon fill="white" stroke="#666666" points="221,-20 133.75,-20 133.75,0 221,0 221,-20"/>
<text xml:space="preserve" text-anchor="middle" x="177.38" y="-6.5" font-family="Helvetica,sans-Serif" font-size="10.00">SDL_SwapFloat</text>
</a>
</g>
</g>
<!-- Node1&#45;&gt;Node6 -->
<g id="edge5_Node000001_Node000006" class="edge">
<title>Node1&#45;&gt;Node6</title>
<g id="a_edge5_Node000001_Node000006"><a xlink:title=" ">
<path fill="none" stroke="#63b8ff" d="M280.32,-51.14C266.92,-43.88 250.51,-35.47 235.25,-29 228.06,-25.95 220.2,-23.06 212.69,-20.49"/>
<polygon fill="#63b8ff" stroke="#63b8ff" points="278.56,-54.17 289.01,-55.93 281.94,-48.04 278.56,-54.17"/>
</a>
</g>
</g>
<!-- Node4 -->
<g id="Node000004" class="node">
<title>Node4</title>
<g id="a_Node000004"><a xlink:href="../../d8/dc3/SDL__bmp_8c.html#adb17cfdf4bf377079462ffa3701eeb76" target="_top" xlink:title=" ">
<polygon fill="white" stroke="#666666" points="83.5,-96 0,-96 0,-76 83.5,-76 83.5,-96"/>
<text xml:space="preserve" text-anchor="middle" x="41.75" y="-82.5" font-family="Helvetica,sans-Serif" font-size="10.00">SDL_LoadBMP</text>
</a>
</g>
</g>
<!-- Node3&#45;&gt;Node4 -->
<g id="edge3_Node000003_Node000004" class="edge">
<title>Node3&#45;&gt;Node4</title>
<g id="a_edge3_Node000003_Node000004"><a xlink:title=" ">
<path fill="none" stroke="#63b8ff" d="M116.13,-86C105.21,-86 94.05,-86 83.84,-86"/>
<polygon fill="#63b8ff" stroke="#63b8ff" points="115.86,-89.5 125.86,-86 115.86,-82.5 115.86,-89.5"/>
</a>
</g>
</g>
</g>
</svg>
</svg>

<style type='text/css'>
<![CDATA[
[data-mouse-over-selected='false'] { opacity: 0.7; }
[data-mouse-over-selected='true']  { opacity: 1.0; }
]]>
</style>
<script type="application/ecmascript"><![CDATA[
document.addEventListener('DOMContentLoaded', (event) => {
  highlightEdges();
  highlightAdjacentNodes();
});
]]></script>
</svg>
