<?xml version="1.0" encoding="UTF-8" standalone="no"?>
<!DOCTYPE svg PUBLIC "-//W3C//DTD SVG 1.1//EN"
 "http://www.w3.org/Graphics/SVG/1.1/DTD/svg11.dtd">
<!-- Generated by graphviz version 13.1.0 (20250701.0955)
 -->
<!-- Title: SDL&#45;main/src/video/x11/SDL_x11opengl.h Pages: 1 -->
<svg width="156pt" height="244pt"
 viewBox="0.00 0.00 156.00 244.00" xmlns="http://www.w3.org/2000/svg" xmlns:xlink="http://www.w3.org/1999/xlink">

<svg id="main" version="1.1" xmlns="http://www.w3.org/2000/svg" xmlns:xlink="http://www.w3.org/1999/xlink" xml:space="preserve">

<style type="text/css"><![CDATA[
.node, .edge {opacity: 0.7;}
.node.selected, .edge.selected {opacity: 1;}
.edge:hover path { stroke: red; }
.edge:hover polygon { stroke: red; fill: red; }
]]></style>
<script type="application/ecmascript" xlink:href="../../svg.min.js"/>
<svg id="graph" class="graph">
<g id="graph0" class="graph" transform="scale(1 1) rotate(0) translate(4 240)">
<title>SDL&#45;main/src/video/x11/SDL_x11opengl.h</title>
<!-- Node1 -->
<g id="Node000001" class="node">
<title>Node1</title>
<g id="a_Node000001"><a xlink:title=" ">
<polygon fill="#999999" stroke="#666666" points="113.5,-236 0,-236 0,-204 113.5,-204 113.5,-236"/>
<text xml:space="preserve" text-anchor="start" x="8" y="-222.5" font-family="Helvetica,sans-Serif" font-size="10.00">SDL&#45;main/src/video</text>
<text xml:space="preserve" text-anchor="middle" x="56.75" y="-210.5" font-family="Helvetica,sans-Serif" font-size="10.00">/x11/SDL_x11opengl.h</text>
</a>
</g>
</g>
<!-- Node2 -->
<g id="Node000002" class="node">
<title>Node2</title>
<g id="a_Node000002"><a xlink:href="../../d9/d89/SDL__x11video_8h.html" target="_top" xlink:title=" ">
<polygon fill="white" stroke="#666666" points="110.88,-168 2.62,-168 2.62,-136 110.88,-136 110.88,-168"/>
<text xml:space="preserve" text-anchor="start" x="10.62" y="-154.5" font-family="Helvetica,sans-Serif" font-size="10.00">SDL&#45;main/src/video</text>
<text xml:space="preserve" text-anchor="middle" x="56.75" y="-142.5" font-family="Helvetica,sans-Serif" font-size="10.00">/x11/SDL_x11video.h</text>
</a>
</g>
</g>
<!-- Node1&#45;&gt;Node2 -->
<g id="edge1_Node000001_Node000002" class="edge">
<title>Node1&#45;&gt;Node2</title>
<g id="a_edge1_Node000001_Node000002"><a xlink:title=" ">
<path fill="none" stroke="#63b8ff" d="M56.75,-192.31C56.75,-184.12 56.75,-175.38 56.75,-168.22"/>
<polygon fill="#63b8ff" stroke="#63b8ff" points="53.25,-192.18 56.75,-202.18 60.25,-192.18 53.25,-192.18"/>
</a>
</g>
</g>
<!-- Node3 -->
<g id="Node000003" class="node">
<title>Node3</title>
<g id="a_Node000003"><a xlink:href="../../dc/dd9/SDL__x11pen_8c.html" target="_top" xlink:title=" ">
<polygon fill="white" stroke="#666666" points="107.88,-32 5.62,-32 5.62,0 107.88,0 107.88,-32"/>
<text xml:space="preserve" text-anchor="start" x="13.62" y="-18.5" font-family="Helvetica,sans-Serif" font-size="10.00">SDL&#45;main/src/video</text>
<text xml:space="preserve" text-anchor="middle" x="56.75" y="-6.5" font-family="Helvetica,sans-Serif" font-size="10.00">/x11/SDL_x11pen.c</text>
</a>
</g>
</g>
<!-- Node2&#45;&gt;Node3 -->
<g id="edge2_Node000002_Node000003" class="edge">
<title>Node2&#45;&gt;Node3</title>
<g id="a_edge2_Node000002_Node000003"><a xlink:title=" ">
<path fill="none" stroke="#63b8ff" d="M44.55,-125.37C41.35,-117.42 38.36,-108.51 36.75,-100 34.11,-86.03 34.11,-81.97 36.75,-68 39.12,-55.48 44.49,-42.09 49.07,-32.18"/>
<polygon fill="#63b8ff" stroke="#63b8ff" points="41.28,-126.64 48.47,-134.43 47.71,-123.87 41.28,-126.64"/>
</a>
</g>
</g>
<!-- Node4 -->
<g id="Node000004" class="node">
<title>Node4</title>
<g id="a_Node000004"><a xlink:href="../../de/d80/SDL__x11pen_8h.html" target="_top" xlink:title=" ">
<polygon fill="white" stroke="#666666" points="147.88,-100 45.62,-100 45.62,-68 147.88,-68 147.88,-100"/>
<text xml:space="preserve" text-anchor="start" x="53.62" y="-86.5" font-family="Helvetica,sans-Serif" font-size="10.00">SDL&#45;main/src/video</text>
<text xml:space="preserve" text-anchor="middle" x="96.75" y="-74.5" font-family="Helvetica,sans-Serif" font-size="10.00">/x11/SDL_x11pen.h</text>
</a>
</g>
</g>
<!-- Node2&#45;&gt;Node4 -->
<g id="edge3_Node000002_Node000004" class="edge">
<title>Node2&#45;&gt;Node4</title>
<g id="a_edge3_Node000002_Node000004"><a xlink:title=" ">
<path fill="none" stroke="#63b8ff" d="M71.89,-126.02C77.15,-117.34 82.89,-107.88 87.52,-100.22"/>
<polygon fill="#63b8ff" stroke="#63b8ff" points="69,-124.03 66.81,-134.4 74.99,-127.66 69,-124.03"/>
</a>
</g>
</g>
<!-- Node4&#45;&gt;Node3 -->
<g id="edge4_Node000004_Node000003" class="edge">
<title>Node4&#45;&gt;Node3</title>
<g id="a_edge4_Node000004_Node000003"><a xlink:title=" ">
<path fill="none" stroke="#63b8ff" d="M81.61,-58.02C76.35,-49.34 70.61,-39.88 65.98,-32.22"/>
<polygon fill="#63b8ff" stroke="#63b8ff" points="78.51,-59.66 86.69,-66.4 84.5,-56.03 78.51,-59.66"/>
</a>
</g>
</g>
</g>
</svg>
</svg>

<style type='text/css'>
<![CDATA[
[data-mouse-over-selected='false'] { opacity: 0.7; }
[data-mouse-over-selected='true']  { opacity: 1.0; }
]]>
</style>
<script type="application/ecmascript"><![CDATA[
document.addEventListener('DOMContentLoaded', (event) => {
  highlightEdges();
  highlightAdjacentNodes();
});
]]></script>
</svg>
