<?xml version="1.0" encoding="UTF-8" standalone="no"?>
<!DOCTYPE svg PUBLIC "-//W3C//DTD SVG 1.1//EN"
 "http://www.w3.org/Graphics/SVG/1.1/DTD/svg11.dtd">
<!-- Generated by graphviz version 13.1.0 (20250701.0955)
 -->
<!-- Title: VkAccelerationStructureMotionInstanceNV Pages: 1 -->
<!--zoomable 137 -->

<svg id="main" version="1.1" xmlns="http://www.w3.org/2000/svg" xmlns:xlink="http://www.w3.org/1999/xlink" xml:space="preserve" onload="init(evt)">

<style type="text/css"><![CDATA[
.node, .edge {opacity: 0.7;}
.node.selected, .edge.selected {opacity: 1;}
.edge:hover path { stroke: red; }
.edge:hover polygon { stroke: red; fill: red; }
]]></style>

<defs>
  <circle id="rim" cx="0" cy="0" r="7"/>
  <circle id="rim2" cx="0" cy="0" r="3.5"/>
  <g id="zoomPlus">
    <use xlink:href="#rim" fill="#404040"><set attributeName="fill" to="#808080" begin="zoomplus.mouseover" end="zoomplus.mouseout"/></use>
    <path d="M-4,0h8M0,-4v8" fill="none" stroke="white" stroke-width="1.5" pointer-events="none"/>
  </g>
  <g id="zoomMin">
    <use xlink:href="#rim" fill="#404040"><set attributeName="fill" to="#808080" begin="zoomminus.mouseover" end="zoomminus.mouseout"/></use>
    <path d="M-4,0h8" fill="none" stroke="white" stroke-width="1.5" pointer-events="none"/>
  </g>
  <g id="arrowUp" transform="translate(30 24)">
    <use xlink:href="#rim"/>
    <path pointer-events="none" fill="none" stroke="white" stroke-width="1.5" d="M0,-3.0v7 M-2.5,-0.5L0,-3.0L2.5,-0.5"/>
  </g>
  <g id="arrowRight" transform="rotate(90) translate(36 -43)">
    <use xlink:href="#rim"/>
    <path pointer-events="none" fill="none" stroke="white" stroke-width="1.5" d="M0,-3.0v7 M-2.5,-0.5L0,-3.0L2.5,-0.5"/>
  </g>
  <g id="arrowDown" transform="rotate(180) translate(-30 -48)">
    <use xlink:href="#rim"/>
    <path pointer-events="none" fill="none" stroke="white" stroke-width="1.5" d="M0,-3.0v7 M-2.5,-0.5L0,-3.0L2.5,-0.5"/>
  </g>
  <g id="arrowLeft" transform="rotate(270) translate(-36 17)">
    <use xlink:href="#rim"/>
    <path pointer-events="none" fill="none" stroke="white" stroke-width="1.5" d="M0,-3.0v7 M-2.5,-0.5L0,-3.0L2.5,-0.5"/>
  </g>
  <g id="resetDef">
    <use xlink:href="#rim2" fill="#404040"><set attributeName="fill" to="#808080" begin="reset.mouseover" end="reset.mouseout"/></use>
  </g>
</defs>
<script type="application/ecmascript">
var viewWidth = 903;
var viewHeight = 137;
var sectionId = 'dynsection-0';
</script>
<script type="application/ecmascript" xlink:href="../../svg.min.js"/>
<svg id="graph" class="graph">
<g id="viewport">
<title>VkAccelerationStructureMotionInstanceNV</title>
<!-- Node1 -->
<g id="Node000001" class="node">
<title>Node1</title>
<g id="a_Node000001"><a xlink:title=" ">
<polygon fill="#999999" stroke="#666666" points="895,-85 744,-85 744,-53 895,-53 895,-85"/>
<text xml:space="preserve" text-anchor="start" x="752" y="-71.5" font-family="Helvetica,sans-Serif" font-size="10.00">VkAccelerationStructureMotion</text>
<text xml:space="preserve" text-anchor="middle" x="819.5" y="-59.5" font-family="Helvetica,sans-Serif" font-size="10.00">InstanceNV</text>
</a>
</g>
</g>
<!-- Node2 -->
<g id="Node000002" class="node">
<title>Node2</title>
<g id="a_Node000002"><a xlink:href="../../d5/d0e/unionVkAccelerationStructureMotionInstanceDataNV.html" target="_top" xlink:title=" ">
<polygon fill="white" stroke="#666666" points="683.25,-85 532.25,-85 532.25,-53 683.25,-53 683.25,-85"/>
<text xml:space="preserve" text-anchor="start" x="540.25" y="-71.5" font-family="Helvetica,sans-Serif" font-size="10.00">VkAccelerationStructureMotion</text>
<text xml:space="preserve" text-anchor="middle" x="607.75" y="-59.5" font-family="Helvetica,sans-Serif" font-size="10.00">InstanceDataNV</text>
</a>
</g>
</g>
<!-- Node2&#45;&gt;Node1 -->
<g id="edge1_Node000001_Node000002" class="edge">
<title>Node2&#45;&gt;Node1</title>
<g id="a_edge1_Node000001_Node000002"><a xlink:title=" ">
<path fill="none" stroke="#9a32cd" stroke-dasharray="5,2" d="M694.71,-69C710.96,-69 727.83,-69 743.69,-69"/>
<polygon fill="#9a32cd" stroke="#9a32cd" points="695.1,-65.5 685.1,-69 695.1,-72.5 695.1,-65.5"/>
</a>
</g>
<text xml:space="preserve" text-anchor="start" x="704.25" y="-74.5" font-family="Helvetica,sans-Serif" font-size="10.00" fill="grey">data</text>
</g>
<!-- Node3 -->
<g id="Node000003" class="node">
<title>Node3</title>
<g id="a_Node000003"><a xlink:href="../../db/d25/structVkAccelerationStructureInstanceKHR.html" target="_top" xlink:title=" ">
<polygon fill="white" stroke="#666666" points="396.5,-129 215.5,-129 215.5,-109 396.5,-109 396.5,-129"/>
<text xml:space="preserve" text-anchor="middle" x="306" y="-115.5" font-family="Helvetica,sans-Serif" font-size="10.00">VkAccelerationStructureInstanceKHR</text>
</a>
</g>
</g>
<!-- Node3&#45;&gt;Node2 -->
<g id="edge2_Node000002_Node000003" class="edge">
<title>Node3&#45;&gt;Node2</title>
<g id="a_edge2_Node000002_Node000003"><a xlink:title=" ">
<path fill="none" stroke="#9a32cd" stroke-dasharray="5,2" d="M399.38,-107.02C435.33,-102 476.8,-95.75 514.25,-89 520.23,-87.92 526.42,-86.74 532.62,-85.5"/>
<polygon fill="#9a32cd" stroke="#9a32cd" points="399.34,-103.49 389.91,-108.33 400.3,-110.43 399.34,-103.49"/>
</a>
</g>
<text xml:space="preserve" text-anchor="start" x="433.62" y="-109.88" font-family="Helvetica,sans-Serif" font-size="10.00" fill="grey">staticInstance</text>
</g>
<!-- Node4 -->
<g id="Node000004" class="node">
<title>Node4</title>
<g id="a_Node000004"><a xlink:href="../../dc/d41/structVkTransformMatrixKHR.html" target="_top" xlink:title=" ">
<polygon fill="white" stroke="#666666" points="121,-107 0,-107 0,-87 121,-87 121,-107"/>
<text xml:space="preserve" text-anchor="middle" x="60.5" y="-93.5" font-family="Helvetica,sans-Serif" font-size="10.00">VkTransformMatrixKHR</text>
</a>
</g>
</g>
<!-- Node4&#45;&gt;Node3 -->
<g id="edge3_Node000003_Node000004" class="edge">
<title>Node4&#45;&gt;Node3</title>
<g id="a_edge3_Node000003_Node000004"><a xlink:title=" ">
<path fill="none" stroke="#9a32cd" stroke-dasharray="5,2" d="M132.61,-103.42C158.5,-105.76 188.1,-108.44 215.39,-110.9"/>
<polygon fill="#9a32cd" stroke="#9a32cd" points="133.16,-99.96 122.89,-102.55 132.53,-106.93 133.16,-99.96"/>
</a>
</g>
<text xml:space="preserve" text-anchor="start" x="147.62" y="-114.16" font-family="Helvetica,sans-Serif" font-size="10.00" fill="grey">transform</text>
</g>
<!-- Node5 -->
<g id="Node000005" class="node">
<title>Node5</title>
<g id="a_Node000005"><a xlink:href="../../dd/da6/structVkAccelerationStructureMatrixMotionInstanceNV.html" target="_top" xlink:title=" ">
<polygon fill="white" stroke="#666666" points="380.38,-85 231.62,-85 231.62,-53 380.38,-53 380.38,-85"/>
<text xml:space="preserve" text-anchor="start" x="239.62" y="-71.5" font-family="Helvetica,sans-Serif" font-size="10.00">VkAccelerationStructureMatrix</text>
<text xml:space="preserve" text-anchor="middle" x="306" y="-59.5" font-family="Helvetica,sans-Serif" font-size="10.00">MotionInstanceNV</text>
</a>
</g>
</g>
<!-- Node4&#45;&gt;Node5 -->
<g id="edge5_Node000005_Node000004" class="edge">
<title>Node4&#45;&gt;Node5</title>
<g id="a_edge5_Node000005_Node000004"><a xlink:title=" ">
<path fill="none" stroke="#9a32cd" stroke-dasharray="5,2" d="M91.63,-81.84C105.65,-75.61 122.78,-69.12 139,-66 168.86,-60.25 202.3,-59.75 231.3,-61.15"/>
<polygon fill="#9a32cd" stroke="#9a32cd" points="90.55,-78.48 82.95,-85.87 93.49,-84.84 90.55,-78.48"/>
</a>
</g>
<text xml:space="preserve" text-anchor="start" x="142" y="-87.5" font-family="Helvetica,sans-Serif" font-size="10.00" fill="grey">transformT0</text>
<text xml:space="preserve" text-anchor="start" x="142" y="-71.5" font-family="Helvetica,sans-Serif" font-size="10.00" fill="grey">transformT1</text>
</g>
<!-- Node5&#45;&gt;Node2 -->
<g id="edge4_Node000002_Node000005" class="edge">
<title>Node5&#45;&gt;Node2</title>
<g id="a_edge4_Node000002_Node000005"><a xlink:title=" ">
<path fill="none" stroke="#9a32cd" stroke-dasharray="5,2" d="M391.98,-69C436.01,-69 489.28,-69 531.76,-69"/>
<polygon fill="#9a32cd" stroke="#9a32cd" points="392.22,-65.5 382.22,-69 392.22,-72.5 392.22,-65.5"/>
</a>
</g>
<text xml:space="preserve" text-anchor="start" x="417.5" y="-74.5" font-family="Helvetica,sans-Serif" font-size="10.00" fill="grey">matrixMotionInstance</text>
</g>
<!-- Node6 -->
<g id="Node000006" class="node">
<title>Node6</title>
<g id="a_Node000006"><a xlink:href="../../d5/df3/structVkAccelerationStructureSRTMotionInstanceNV.html" target="_top" xlink:title=" ">
<polygon fill="white" stroke="#666666" points="391.25,-32 220.75,-32 220.75,0 391.25,0 391.25,-32"/>
<text xml:space="preserve" text-anchor="start" x="228.75" y="-18.5" font-family="Helvetica,sans-Serif" font-size="10.00">VkAccelerationStructureSRTMotion</text>
<text xml:space="preserve" text-anchor="middle" x="306" y="-6.5" font-family="Helvetica,sans-Serif" font-size="10.00">InstanceNV</text>
</a>
</g>
</g>
<!-- Node6&#45;&gt;Node2 -->
<g id="edge6_Node000002_Node000006" class="edge">
<title>Node6&#45;&gt;Node2</title>
<g id="a_edge6_Node000002_Node000006"><a xlink:title=" ">
<path fill="none" stroke="#9a32cd" stroke-dasharray="5,2" d="M402.95,-28.62C438.08,-33.69 478.07,-40 514.25,-47 522.76,-48.65 531.67,-50.54 540.45,-52.51"/>
<polygon fill="#9a32cd" stroke="#9a32cd" points="403.62,-25.18 393.23,-27.23 402.63,-32.11 403.62,-25.18"/>
</a>
</g>
<text xml:space="preserve" text-anchor="start" x="425.38" y="-52.5" font-family="Helvetica,sans-Serif" font-size="10.00" fill="grey">srtMotionInstance</text>
</g>
<!-- Node7 -->
<g id="Node000007" class="node">
<title>Node7</title>
<g id="a_Node000007"><a xlink:href="../../db/de6/structVkSRTDataNV.html" target="_top" xlink:title=" ">
<polygon fill="white" stroke="#666666" points="101.88,-22 19.12,-22 19.12,-2 101.88,-2 101.88,-22"/>
<text xml:space="preserve" text-anchor="middle" x="60.5" y="-8.5" font-family="Helvetica,sans-Serif" font-size="10.00">VkSRTDataNV</text>
</a>
</g>
</g>
<!-- Node7&#45;&gt;Node6 -->
<g id="edge7_Node000006_Node000007" class="edge">
<title>Node7&#45;&gt;Node6</title>
<g id="a_edge7_Node000006_Node000007"><a xlink:title=" ">
<path fill="none" stroke="#9a32cd" stroke-dasharray="5,2" d="M113.49,-12.13C138.83,-12.26 169.76,-12.51 197.5,-13 204.97,-13.13 212.73,-13.3 220.5,-13.48"/>
<polygon fill="#9a32cd" stroke="#9a32cd" points="113.8,-8.63 103.78,-12.09 113.77,-15.63 113.8,-8.63"/>
</a>
</g>
<text xml:space="preserve" text-anchor="start" x="142" y="-34.5" font-family="Helvetica,sans-Serif" font-size="10.00" fill="grey">transformT0</text>
<text xml:space="preserve" text-anchor="start" x="142" y="-18.5" font-family="Helvetica,sans-Serif" font-size="10.00" fill="grey">transformT1</text>
</g>
</g>
</svg>

<g id="navigator" transform="translate(0 0)" fill="#404254">
  <rect fill="#f2f5e9" fill-opacity="0.5" stroke="#606060" stroke-width=".5" x="0" y="0" width="60" height="60"/>
  <use id="zoomplus" xlink:href="#zoomPlus" x="17" y="9" onmousedown="handleZoom(evt,'in')"/>
  <use id="zoomminus" xlink:href="#zoomMin" x="42" y="9" onmousedown="handleZoom(evt,'out')"/>
  <use id="reset" xlink:href="#resetDef" x="30" y="36" onmousedown="handleReset()"/>
   <use id="arrowup" xlink:href="#arrowUp" x="0" y="0" onmousedown="handlePan(0,-1)"/>
  <use id="arrowright" xlink:href="#arrowRight" x="0" y="0" onmousedown="handlePan(1,0)"/>
  <use id="arrowdown" xlink:href="#arrowDown" x="0" y="0" onmousedown="handlePan(0,1)"/>
  <use id="arrowleft" xlink:href="#arrowLeft" x="0" y="0" onmousedown="handlePan(-1,0)"/>
</g>
<svg viewBox="0 0 15 15" width="100%" height="30px" preserveAspectRatio="xMaxYMin meet">
 <g id="arrow_out" transform="scale(0.3 0.3)">
  <a xlink:href="structVkAccelerationStructureMotionInstanceNV__coll__graph_org.svg" target="_base">
   <rect id="button" ry="5" rx="5" y="6" x="6" height="38" width="38"
        fill="#f2f5e9" fill-opacity="0.5" stroke="#606060" stroke-width="1.0"/>
   <path id="arrow"
     d="M 11.500037,31.436501 C 11.940474,20.09759 22.043105,11.32322 32.158766,21.979434 L 37.068811,17.246167 C 37.068811,17.246167 37.088388,32 37.088388,32 L 22.160133,31.978069 C 22.160133,31.978069 26.997745,27.140456 26.997745,27.140456 C 18.528582,18.264221 13.291696,25.230495 11.500037,31.436501 z"
     style="fill:#404040;"/>
  </a>
 </g>
</svg>

<style type='text/css'>
<![CDATA[
[data-mouse-over-selected='false'] { opacity: 0.7; }
[data-mouse-over-selected='true']  { opacity: 1.0; }
]]>
</style>
<script type="application/ecmascript"><![CDATA[
document.addEventListener('DOMContentLoaded', (event) => {
  highlightEdges();
  highlightAdjacentNodes();
});
]]></script>
</svg>
