<?xml version="1.0" encoding="UTF-8" standalone="no"?>
<!DOCTYPE svg PUBLIC "-//W3C//DTD SVG 1.1//EN"
 "http://www.w3.org/Graphics/SVG/1.1/DTD/svg11.dtd">
<!-- Generated by graphviz version 13.1.0 (20250701.0955)
 -->
<!-- Title: SDL&#45;main/src/libm/math_private.h Pages: 1 -->
<!--zoomable 108 -->

<svg id="main" version="1.1" xmlns="http://www.w3.org/2000/svg" xmlns:xlink="http://www.w3.org/1999/xlink" xml:space="preserve" onload="init(evt)">

<style type="text/css"><![CDATA[
.node, .edge {opacity: 0.7;}
.node.selected, .edge.selected {opacity: 1;}
.edge:hover path { stroke: red; }
.edge:hover polygon { stroke: red; fill: red; }
]]></style>

<defs>
  <circle id="rim" cx="0" cy="0" r="7"/>
  <circle id="rim2" cx="0" cy="0" r="3.5"/>
  <g id="zoomPlus">
    <use xlink:href="#rim" fill="#404040"><set attributeName="fill" to="#808080" begin="zoomplus.mouseover" end="zoomplus.mouseout"/></use>
    <path d="M-4,0h8M0,-4v8" fill="none" stroke="white" stroke-width="1.5" pointer-events="none"/>
  </g>
  <g id="zoomMin">
    <use xlink:href="#rim" fill="#404040"><set attributeName="fill" to="#808080" begin="zoomminus.mouseover" end="zoomminus.mouseout"/></use>
    <path d="M-4,0h8" fill="none" stroke="white" stroke-width="1.5" pointer-events="none"/>
  </g>
  <g id="arrowUp" transform="translate(30 24)">
    <use xlink:href="#rim"/>
    <path pointer-events="none" fill="none" stroke="white" stroke-width="1.5" d="M0,-3.0v7 M-2.5,-0.5L0,-3.0L2.5,-0.5"/>
  </g>
  <g id="arrowRight" transform="rotate(90) translate(36 -43)">
    <use xlink:href="#rim"/>
    <path pointer-events="none" fill="none" stroke="white" stroke-width="1.5" d="M0,-3.0v7 M-2.5,-0.5L0,-3.0L2.5,-0.5"/>
  </g>
  <g id="arrowDown" transform="rotate(180) translate(-30 -48)">
    <use xlink:href="#rim"/>
    <path pointer-events="none" fill="none" stroke="white" stroke-width="1.5" d="M0,-3.0v7 M-2.5,-0.5L0,-3.0L2.5,-0.5"/>
  </g>
  <g id="arrowLeft" transform="rotate(270) translate(-36 17)">
    <use xlink:href="#rim"/>
    <path pointer-events="none" fill="none" stroke="white" stroke-width="1.5" d="M0,-3.0v7 M-2.5,-0.5L0,-3.0L2.5,-0.5"/>
  </g>
  <g id="resetDef">
    <use xlink:href="#rim2" fill="#404040"><set attributeName="fill" to="#808080" begin="reset.mouseover" end="reset.mouseout"/></use>
  </g>
</defs>
<script type="application/ecmascript">
var viewWidth = 3065;
var viewHeight = 108;
var sectionId = 'dynsection-0';
</script>
<script type="application/ecmascript" xlink:href="../../svg.min.js"/>
<svg id="graph" class="graph">
<g id="viewport">
<title>SDL&#45;main/src/libm/math_private.h</title>
<!-- Node1 -->
<g id="Node000001" class="node">
<title>Node1</title>
<g id="a_Node000001"><a xlink:title=" ">
<polygon fill="#999999" stroke="#666666" points="1589.5,-100 1467.75,-100 1467.75,-68 1589.5,-68 1589.5,-100"/>
<text xml:space="preserve" text-anchor="start" x="1475.75" y="-86.5" font-family="Helvetica,sans-Serif" font-size="10.00">SDL&#45;main/src/libm/math</text>
<text xml:space="preserve" text-anchor="middle" x="1528.62" y="-74.5" font-family="Helvetica,sans-Serif" font-size="10.00">_private.h</text>
</a>
</g>
</g>
<!-- Node2 -->
<g id="Node000002" class="node">
<title>Node2</title>
<g id="a_Node000002"><a xlink:href="../../d4/d60/e__atan2_8c.html" target="_top" xlink:title=" ">
<polygon fill="white" stroke="#666666" points="105.25,-32 0,-32 0,0 105.25,0 105.25,-32"/>
<text xml:space="preserve" text-anchor="start" x="8" y="-18.5" font-family="Helvetica,sans-Serif" font-size="10.00">SDL&#45;main/src/libm/e</text>
<text xml:space="preserve" text-anchor="middle" x="52.62" y="-6.5" font-family="Helvetica,sans-Serif" font-size="10.00">_atan2.c</text>
</a>
</g>
</g>
<!-- Node1&#45;&gt;Node2 -->
<g id="edge1_Node000001_Node000002" class="edge">
<title>Node1&#45;&gt;Node2</title>
<g id="a_edge1_Node000001_Node000002"><a xlink:title=" ">
<path fill="none" stroke="#63b8ff" d="M1456.14,-82.35C1205.57,-79.8 376.95,-68.72 113.62,-32 111.03,-31.64 108.39,-31.21 105.73,-30.74"/>
<polygon fill="#63b8ff" stroke="#63b8ff" points="1456.09,-85.85 1466.12,-82.45 1456.16,-78.85 1456.09,-85.85"/>
</a>
</g>
</g>
<!-- Node3 -->
<g id="Node000003" class="node">
<title>Node3</title>
<g id="a_Node000003"><a xlink:href="../../db/d88/e__exp_8c.html" target="_top" xlink:title=" ">
<polygon fill="white" stroke="#666666" points="228.25,-32 123,-32 123,0 228.25,0 228.25,-32"/>
<text xml:space="preserve" text-anchor="start" x="131" y="-18.5" font-family="Helvetica,sans-Serif" font-size="10.00">SDL&#45;main/src/libm/e</text>
<text xml:space="preserve" text-anchor="middle" x="175.62" y="-6.5" font-family="Helvetica,sans-Serif" font-size="10.00">_exp.c</text>
</a>
</g>
</g>
<!-- Node1&#45;&gt;Node3 -->
<g id="edge2_Node000001_Node000003" class="edge">
<title>Node1&#45;&gt;Node3</title>
<g id="a_edge2_Node000001_Node000003"><a xlink:title=" ">
<path fill="none" stroke="#63b8ff" d="M1456.12,-82.06C1220.03,-78.7 474.86,-65.64 236.62,-32 234.03,-31.63 231.39,-31.2 228.73,-30.73"/>
<polygon fill="#63b8ff" stroke="#63b8ff" points="1455.74,-85.56 1465.79,-82.2 1455.84,-78.56 1455.74,-85.56"/>
</a>
</g>
</g>
<!-- Node4 -->
<g id="Node000004" class="node">
<title>Node4</title>
<g id="a_Node000004"><a xlink:href="../../d2/d99/e__fmod_8c.html" target="_top" xlink:title=" ">
<polygon fill="white" stroke="#666666" points="351.25,-32 246,-32 246,0 351.25,0 351.25,-32"/>
<text xml:space="preserve" text-anchor="start" x="254" y="-18.5" font-family="Helvetica,sans-Serif" font-size="10.00">SDL&#45;main/src/libm/e</text>
<text xml:space="preserve" text-anchor="middle" x="298.62" y="-6.5" font-family="Helvetica,sans-Serif" font-size="10.00">_fmod.c</text>
</a>
</g>
</g>
<!-- Node1&#45;&gt;Node4 -->
<g id="edge3_Node000001_Node000004" class="edge">
<title>Node1&#45;&gt;Node4</title>
<g id="a_edge3_Node000001_Node000004"><a xlink:title=" ">
<path fill="none" stroke="#63b8ff" d="M1456.04,-81.71C1235.09,-77.49 572.86,-62.56 359.62,-32 357.03,-31.63 354.39,-31.2 351.73,-30.71"/>
<polygon fill="#63b8ff" stroke="#63b8ff" points="1455.89,-85.21 1465.96,-81.9 1456.02,-78.21 1455.89,-85.21"/>
</a>
</g>
</g>
<!-- Node5 -->
<g id="Node000005" class="node">
<title>Node5</title>
<g id="a_Node000005"><a xlink:href="../../d1/d5c/e__log_8c.html" target="_top" xlink:title=" ">
<polygon fill="white" stroke="#666666" points="474.25,-32 369,-32 369,0 474.25,0 474.25,-32"/>
<text xml:space="preserve" text-anchor="start" x="377" y="-18.5" font-family="Helvetica,sans-Serif" font-size="10.00">SDL&#45;main/src/libm/e</text>
<text xml:space="preserve" text-anchor="middle" x="421.62" y="-6.5" font-family="Helvetica,sans-Serif" font-size="10.00">_log.c</text>
</a>
</g>
</g>
<!-- Node1&#45;&gt;Node5 -->
<g id="edge4_Node000001_Node000005" class="edge">
<title>Node1&#45;&gt;Node5</title>
<g id="a_edge4_Node000001_Node000005"><a xlink:title=" ">
<path fill="none" stroke="#63b8ff" d="M1456.09,-81.28C1251.24,-76.14 671.02,-59.49 482.62,-32 480.04,-31.62 477.39,-31.18 474.74,-30.7"/>
<polygon fill="#63b8ff" stroke="#63b8ff" points="1455.99,-84.78 1466.08,-81.53 1456.17,-77.78 1455.99,-84.78"/>
</a>
</g>
</g>
<!-- Node6 -->
<g id="Node000006" class="node">
<title>Node6</title>
<g id="a_Node000006"><a xlink:href="../../db/d34/e__log10_8c.html" target="_top" xlink:title=" ">
<polygon fill="white" stroke="#666666" points="597.25,-32 492,-32 492,0 597.25,0 597.25,-32"/>
<text xml:space="preserve" text-anchor="start" x="500" y="-18.5" font-family="Helvetica,sans-Serif" font-size="10.00">SDL&#45;main/src/libm/e</text>
<text xml:space="preserve" text-anchor="middle" x="544.62" y="-6.5" font-family="Helvetica,sans-Serif" font-size="10.00">_log10.c</text>
</a>
</g>
</g>
<!-- Node1&#45;&gt;Node6 -->
<g id="edge5_Node000001_Node000006" class="edge">
<title>Node1&#45;&gt;Node6</title>
<g id="a_edge5_Node000001_Node000006"><a xlink:title=" ">
<path fill="none" stroke="#63b8ff" d="M1456.17,-83.56C1299.88,-83.76 919.79,-78.89 605.62,-32 603.04,-31.61 600.4,-31.17 597.74,-30.68"/>
<polygon fill="#63b8ff" stroke="#63b8ff" points="1455.97,-87.06 1465.97,-83.54 1455.96,-80.06 1455.97,-87.06"/>
</a>
</g>
</g>
<!-- Node7 -->
<g id="Node000007" class="node">
<title>Node7</title>
<g id="a_Node000007"><a xlink:href="../../de/d5e/e__pow_8c.html" target="_top" xlink:title=" ">
<polygon fill="white" stroke="#666666" points="720.25,-32 615,-32 615,0 720.25,0 720.25,-32"/>
<text xml:space="preserve" text-anchor="start" x="623" y="-18.5" font-family="Helvetica,sans-Serif" font-size="10.00">SDL&#45;main/src/libm/e</text>
<text xml:space="preserve" text-anchor="middle" x="667.62" y="-6.5" font-family="Helvetica,sans-Serif" font-size="10.00">_pow.c</text>
</a>
</g>
</g>
<!-- Node1&#45;&gt;Node7 -->
<g id="edge6_Node000001_Node000007" class="edge">
<title>Node1&#45;&gt;Node7</title>
<g id="a_edge6_Node000001_Node000007"><a xlink:title=" ">
<path fill="none" stroke="#63b8ff" d="M1455.78,-82.67C1314.64,-81.07 994.38,-72.81 728.62,-32 726.04,-31.6 723.4,-31.15 720.74,-30.65"/>
<polygon fill="#63b8ff" stroke="#63b8ff" points="1455.71,-86.17 1465.74,-82.77 1455.78,-79.17 1455.71,-86.17"/>
</a>
</g>
</g>
<!-- Node8 -->
<g id="Node000008" class="node">
<title>Node8</title>
<g id="a_Node000008"><a xlink:href="../../d6/d16/e__rem__pio2_8c.html" target="_top" xlink:title=" ">
<polygon fill="white" stroke="#666666" points="843.25,-32 738,-32 738,0 843.25,0 843.25,-32"/>
<text xml:space="preserve" text-anchor="start" x="746" y="-18.5" font-family="Helvetica,sans-Serif" font-size="10.00">SDL&#45;main/src/libm/e</text>
<text xml:space="preserve" text-anchor="middle" x="790.62" y="-6.5" font-family="Helvetica,sans-Serif" font-size="10.00">_rem_pio2.c</text>
</a>
</g>
</g>
<!-- Node1&#45;&gt;Node8 -->
<g id="edge7_Node000001_Node000008" class="edge">
<title>Node1&#45;&gt;Node8</title>
<g id="a_edge7_Node000001_Node000008"><a xlink:title=" ">
<path fill="none" stroke="#63b8ff" d="M1456.31,-81.48C1331.99,-78 1070.03,-66.83 851.62,-32 849.04,-31.59 846.4,-31.12 843.75,-30.61"/>
<polygon fill="#63b8ff" stroke="#63b8ff" points="1455.94,-84.98 1466.03,-81.75 1456.13,-77.98 1455.94,-84.98"/>
</a>
</g>
</g>
<!-- Node9 -->
<g id="Node000009" class="node">
<title>Node9</title>
<g id="a_Node000009"><a xlink:href="../../df/dbb/e__sqrt_8c.html" target="_top" xlink:title=" ">
<polygon fill="white" stroke="#666666" points="966.25,-32 861,-32 861,0 966.25,0 966.25,-32"/>
<text xml:space="preserve" text-anchor="start" x="869" y="-18.5" font-family="Helvetica,sans-Serif" font-size="10.00">SDL&#45;main/src/libm/e</text>
<text xml:space="preserve" text-anchor="middle" x="913.62" y="-6.5" font-family="Helvetica,sans-Serif" font-size="10.00">_sqrt.c</text>
</a>
</g>
</g>
<!-- Node1&#45;&gt;Node9 -->
<g id="edge8_Node000001_Node000009" class="edge">
<title>Node1&#45;&gt;Node9</title>
<g id="a_edge8_Node000001_Node000009"><a xlink:title=" ">
<path fill="none" stroke="#63b8ff" d="M1456.37,-79.8C1350.19,-74.31 1146.02,-60.8 974.62,-32 971.94,-31.55 969.19,-31.04 966.43,-30.5"/>
<polygon fill="#63b8ff" stroke="#63b8ff" points="1455.9,-83.28 1466.07,-80.29 1456.26,-76.29 1455.9,-83.28"/>
</a>
</g>
</g>
<!-- Node10 -->
<g id="Node000010" class="node">
<title>Node10</title>
<g id="a_Node000010"><a xlink:href="../../d5/dfd/k__cos_8c.html" target="_top" xlink:title=" ">
<polygon fill="white" stroke="#666666" points="1089.25,-32 984,-32 984,0 1089.25,0 1089.25,-32"/>
<text xml:space="preserve" text-anchor="start" x="992" y="-18.5" font-family="Helvetica,sans-Serif" font-size="10.00">SDL&#45;main/src/libm/k</text>
<text xml:space="preserve" text-anchor="middle" x="1036.62" y="-6.5" font-family="Helvetica,sans-Serif" font-size="10.00">_cos.c</text>
</a>
</g>
</g>
<!-- Node1&#45;&gt;Node10 -->
<g id="edge9_Node000001_Node000010" class="edge">
<title>Node1&#45;&gt;Node10</title>
<g id="a_edge9_Node000001_Node000010"><a xlink:title=" ">
<path fill="none" stroke="#63b8ff" d="M1456.15,-77.17C1370.17,-69.63 1222.73,-54.69 1097.62,-32 1094.94,-31.51 1092.2,-30.98 1089.44,-30.41"/>
<polygon fill="#63b8ff" stroke="#63b8ff" points="1455.83,-80.66 1466.1,-78.04 1456.44,-73.69 1455.83,-80.66"/>
</a>
</g>
</g>
<!-- Node11 -->
<g id="Node000011" class="node">
<title>Node11</title>
<g id="a_Node000011"><a xlink:href="../../d8/d6e/k__rem__pio2_8c.html" target="_top" xlink:title=" ">
<polygon fill="white" stroke="#666666" points="1212.25,-32 1107,-32 1107,0 1212.25,0 1212.25,-32"/>
<text xml:space="preserve" text-anchor="start" x="1115" y="-18.5" font-family="Helvetica,sans-Serif" font-size="10.00">SDL&#45;main/src/libm/k</text>
<text xml:space="preserve" text-anchor="middle" x="1159.62" y="-6.5" font-family="Helvetica,sans-Serif" font-size="10.00">_rem_pio2.c</text>
</a>
</g>
</g>
<!-- Node1&#45;&gt;Node11 -->
<g id="edge10_Node000001_Node000011" class="edge">
<title>Node1&#45;&gt;Node11</title>
<g id="a_edge10_Node000001_Node000011"><a xlink:title=" ">
<path fill="none" stroke="#63b8ff" d="M1455.97,-72.58C1393.37,-63.23 1300.72,-48.45 1220.62,-32 1217.95,-31.45 1215.22,-30.87 1212.47,-30.26"/>
<polygon fill="#63b8ff" stroke="#63b8ff" points="1455.4,-76.04 1465.8,-74.05 1456.43,-69.11 1455.4,-76.04"/>
</a>
</g>
</g>
<!-- Node12 -->
<g id="Node000012" class="node">
<title>Node12</title>
<g id="a_Node000012"><a xlink:href="../../d0/d13/k__sin_8c.html" target="_top" xlink:title=" ">
<polygon fill="white" stroke="#666666" points="1335.25,-32 1230,-32 1230,0 1335.25,0 1335.25,-32"/>
<text xml:space="preserve" text-anchor="start" x="1238" y="-18.5" font-family="Helvetica,sans-Serif" font-size="10.00">SDL&#45;main/src/libm/k</text>
<text xml:space="preserve" text-anchor="middle" x="1282.62" y="-6.5" font-family="Helvetica,sans-Serif" font-size="10.00">_sin.c</text>
</a>
</g>
</g>
<!-- Node1&#45;&gt;Node12 -->
<g id="edge11_Node000001_Node000012" class="edge">
<title>Node1&#45;&gt;Node12</title>
<g id="a_edge11_Node000001_Node000012"><a xlink:title=" ">
<path fill="none" stroke="#63b8ff" d="M1459.87,-64.55C1420.59,-54.01 1372.07,-41 1335.74,-31.25"/>
<polygon fill="#63b8ff" stroke="#63b8ff" points="1458.92,-67.92 1469.49,-67.13 1460.74,-61.16 1458.92,-67.92"/>
</a>
</g>
</g>
<!-- Node13 -->
<g id="Node000013" class="node">
<title>Node13</title>
<g id="a_Node000013"><a xlink:href="../../d3/d0d/k__tan_8c.html" target="_top" xlink:title=" ">
<polygon fill="white" stroke="#666666" points="1458.25,-32 1353,-32 1353,0 1458.25,0 1458.25,-32"/>
<text xml:space="preserve" text-anchor="start" x="1361" y="-18.5" font-family="Helvetica,sans-Serif" font-size="10.00">SDL&#45;main/src/libm/k</text>
<text xml:space="preserve" text-anchor="middle" x="1405.62" y="-6.5" font-family="Helvetica,sans-Serif" font-size="10.00">_tan.c</text>
</a>
</g>
</g>
<!-- Node1&#45;&gt;Node13 -->
<g id="edge12_Node000001_Node000013" class="edge">
<title>Node1&#45;&gt;Node13</title>
<g id="a_edge12_Node000001_Node000013"><a xlink:title=" ">
<path fill="none" stroke="#63b8ff" d="M1489.87,-62.2C1471.86,-52.54 1450.83,-41.26 1434.28,-32.38"/>
<polygon fill="#63b8ff" stroke="#63b8ff" points="1487.99,-65.17 1498.45,-66.81 1491.3,-59 1487.99,-65.17"/>
</a>
</g>
</g>
<!-- Node14 -->
<g id="Node000014" class="node">
<title>Node14</title>
<g id="a_Node000014"><a xlink:href="../../dc/de5/s__atan_8c.html" target="_top" xlink:title=" ">
<polygon fill="white" stroke="#666666" points="1581.25,-32 1476,-32 1476,0 1581.25,0 1581.25,-32"/>
<text xml:space="preserve" text-anchor="start" x="1484" y="-18.5" font-family="Helvetica,sans-Serif" font-size="10.00">SDL&#45;main/src/libm/s</text>
<text xml:space="preserve" text-anchor="middle" x="1528.62" y="-6.5" font-family="Helvetica,sans-Serif" font-size="10.00">_atan.c</text>
</a>
</g>
</g>
<!-- Node1&#45;&gt;Node14 -->
<g id="edge13_Node000001_Node000014" class="edge">
<title>Node1&#45;&gt;Node14</title>
<g id="a_edge13_Node000001_Node000014"><a xlink:title=" ">
<path fill="none" stroke="#63b8ff" d="M1528.62,-56.31C1528.62,-48.12 1528.62,-39.38 1528.62,-32.22"/>
<polygon fill="#63b8ff" stroke="#63b8ff" points="1525.13,-56.18 1528.63,-66.18 1532.13,-56.18 1525.13,-56.18"/>
</a>
</g>
</g>
<!-- Node15 -->
<g id="Node000015" class="node">
<title>Node15</title>
<g id="a_Node000015"><a xlink:href="../../d4/da6/s__copysign_8c.html" target="_top" xlink:title=" ">
<polygon fill="white" stroke="#666666" points="1704.25,-32 1599,-32 1599,0 1704.25,0 1704.25,-32"/>
<text xml:space="preserve" text-anchor="start" x="1607" y="-18.5" font-family="Helvetica,sans-Serif" font-size="10.00">SDL&#45;main/src/libm/s</text>
<text xml:space="preserve" text-anchor="middle" x="1651.62" y="-6.5" font-family="Helvetica,sans-Serif" font-size="10.00">_copysign.c</text>
</a>
</g>
</g>
<!-- Node1&#45;&gt;Node15 -->
<g id="edge14_Node000001_Node000015" class="edge">
<title>Node1&#45;&gt;Node15</title>
<g id="a_edge14_Node000001_Node000015"><a xlink:title=" ">
<path fill="none" stroke="#63b8ff" d="M1567.38,-62.2C1585.39,-52.54 1606.42,-41.26 1622.97,-32.38"/>
<polygon fill="#63b8ff" stroke="#63b8ff" points="1565.95,-59 1558.8,-66.81 1569.26,-65.17 1565.95,-59"/>
</a>
</g>
</g>
<!-- Node16 -->
<g id="Node000016" class="node">
<title>Node16</title>
<g id="a_Node000016"><a xlink:href="../../d0/d31/s__cos_8c.html" target="_top" xlink:title=" ">
<polygon fill="white" stroke="#666666" points="1827.25,-32 1722,-32 1722,0 1827.25,0 1827.25,-32"/>
<text xml:space="preserve" text-anchor="start" x="1730" y="-18.5" font-family="Helvetica,sans-Serif" font-size="10.00">SDL&#45;main/src/libm/s</text>
<text xml:space="preserve" text-anchor="middle" x="1774.62" y="-6.5" font-family="Helvetica,sans-Serif" font-size="10.00">_cos.c</text>
</a>
</g>
</g>
<!-- Node1&#45;&gt;Node16 -->
<g id="edge15_Node000001_Node000016" class="edge">
<title>Node1&#45;&gt;Node16</title>
<g id="a_edge15_Node000001_Node000016"><a xlink:title=" ">
<path fill="none" stroke="#63b8ff" d="M1597.38,-64.55C1636.66,-54.01 1685.18,-41 1721.51,-31.25"/>
<polygon fill="#63b8ff" stroke="#63b8ff" points="1596.51,-61.16 1587.76,-67.13 1598.33,-67.92 1596.51,-61.16"/>
</a>
</g>
</g>
<!-- Node17 -->
<g id="Node000017" class="node">
<title>Node17</title>
<g id="a_Node000017"><a xlink:href="../../dc/d49/s__fabs_8c.html" target="_top" xlink:title=" ">
<polygon fill="white" stroke="#666666" points="1950.25,-32 1845,-32 1845,0 1950.25,0 1950.25,-32"/>
<text xml:space="preserve" text-anchor="start" x="1853" y="-18.5" font-family="Helvetica,sans-Serif" font-size="10.00">SDL&#45;main/src/libm/s</text>
<text xml:space="preserve" text-anchor="middle" x="1897.62" y="-6.5" font-family="Helvetica,sans-Serif" font-size="10.00">_fabs.c</text>
</a>
</g>
</g>
<!-- Node1&#45;&gt;Node17 -->
<g id="edge16_Node000001_Node000017" class="edge">
<title>Node1&#45;&gt;Node17</title>
<g id="a_edge16_Node000001_Node000017"><a xlink:title=" ">
<path fill="none" stroke="#63b8ff" d="M1601.28,-72.58C1663.88,-63.23 1756.53,-48.45 1836.62,-32 1839.3,-31.45 1842.03,-30.87 1844.78,-30.26"/>
<polygon fill="#63b8ff" stroke="#63b8ff" points="1600.82,-69.11 1591.45,-74.05 1601.85,-76.04 1600.82,-69.11"/>
</a>
</g>
</g>
<!-- Node18 -->
<g id="Node000018" class="node">
<title>Node18</title>
<g id="a_Node000018"><a xlink:href="../../d3/dcc/s__floor_8c.html" target="_top" xlink:title=" ">
<polygon fill="white" stroke="#666666" points="2073.25,-32 1968,-32 1968,0 2073.25,0 2073.25,-32"/>
<text xml:space="preserve" text-anchor="start" x="1976" y="-18.5" font-family="Helvetica,sans-Serif" font-size="10.00">SDL&#45;main/src/libm/s</text>
<text xml:space="preserve" text-anchor="middle" x="2020.62" y="-6.5" font-family="Helvetica,sans-Serif" font-size="10.00">_floor.c</text>
</a>
</g>
</g>
<!-- Node1&#45;&gt;Node18 -->
<g id="edge17_Node000001_Node000018" class="edge">
<title>Node1&#45;&gt;Node18</title>
<g id="a_edge17_Node000001_Node000018"><a xlink:title=" ">
<path fill="none" stroke="#63b8ff" d="M1601.1,-77.17C1687.08,-69.63 1834.52,-54.69 1959.62,-32 1962.31,-31.51 1965.05,-30.98 1967.81,-30.41"/>
<polygon fill="#63b8ff" stroke="#63b8ff" points="1600.81,-73.69 1591.15,-78.04 1601.42,-80.66 1600.81,-73.69"/>
</a>
</g>
</g>
<!-- Node19 -->
<g id="Node000019" class="node">
<title>Node19</title>
<g id="a_Node000019"><a xlink:href="../../d4/de7/s__isinf_8c.html" target="_top" xlink:title=" ">
<polygon fill="white" stroke="#666666" points="2196.25,-32 2091,-32 2091,0 2196.25,0 2196.25,-32"/>
<text xml:space="preserve" text-anchor="start" x="2099" y="-18.5" font-family="Helvetica,sans-Serif" font-size="10.00">SDL&#45;main/src/libm/s</text>
<text xml:space="preserve" text-anchor="middle" x="2143.62" y="-6.5" font-family="Helvetica,sans-Serif" font-size="10.00">_isinf.c</text>
</a>
</g>
</g>
<!-- Node1&#45;&gt;Node19 -->
<g id="edge18_Node000001_Node000019" class="edge">
<title>Node1&#45;&gt;Node19</title>
<g id="a_edge18_Node000001_Node000019"><a xlink:title=" ">
<path fill="none" stroke="#63b8ff" d="M1600.88,-79.8C1707.06,-74.31 1911.23,-60.8 2082.62,-32 2085.31,-31.55 2088.06,-31.04 2090.82,-30.5"/>
<polygon fill="#63b8ff" stroke="#63b8ff" points="1600.99,-76.29 1591.18,-80.29 1601.35,-83.28 1600.99,-76.29"/>
</a>
</g>
</g>
<!-- Node20 -->
<g id="Node000020" class="node">
<title>Node20</title>
<g id="a_Node000020"><a xlink:href="../../da/d94/s__isinff_8c.html" target="_top" xlink:title=" ">
<polygon fill="white" stroke="#666666" points="2319.25,-32 2214,-32 2214,0 2319.25,0 2319.25,-32"/>
<text xml:space="preserve" text-anchor="start" x="2222" y="-18.5" font-family="Helvetica,sans-Serif" font-size="10.00">SDL&#45;main/src/libm/s</text>
<text xml:space="preserve" text-anchor="middle" x="2266.62" y="-6.5" font-family="Helvetica,sans-Serif" font-size="10.00">_isinff.c</text>
</a>
</g>
</g>
<!-- Node1&#45;&gt;Node20 -->
<g id="edge19_Node000001_Node000020" class="edge">
<title>Node1&#45;&gt;Node20</title>
<g id="a_edge19_Node000001_Node000020"><a xlink:title=" ">
<path fill="none" stroke="#63b8ff" d="M1600.94,-81.48C1725.26,-78 1987.22,-66.83 2205.62,-32 2208.21,-31.59 2210.85,-31.12 2213.5,-30.61"/>
<polygon fill="#63b8ff" stroke="#63b8ff" points="1601.12,-77.98 1591.22,-81.75 1601.31,-84.98 1601.12,-77.98"/>
</a>
</g>
</g>
<!-- Node21 -->
<g id="Node000021" class="node">
<title>Node21</title>
<g id="a_Node000021"><a xlink:href="../../da/da1/s__isnan_8c.html" target="_top" xlink:title=" ">
<polygon fill="white" stroke="#666666" points="2442.25,-32 2337,-32 2337,0 2442.25,0 2442.25,-32"/>
<text xml:space="preserve" text-anchor="start" x="2345" y="-18.5" font-family="Helvetica,sans-Serif" font-size="10.00">SDL&#45;main/src/libm/s</text>
<text xml:space="preserve" text-anchor="middle" x="2389.62" y="-6.5" font-family="Helvetica,sans-Serif" font-size="10.00">_isnan.c</text>
</a>
</g>
</g>
<!-- Node1&#45;&gt;Node21 -->
<g id="edge20_Node000001_Node000021" class="edge">
<title>Node1&#45;&gt;Node21</title>
<g id="a_edge20_Node000001_Node000021"><a xlink:title=" ">
<path fill="none" stroke="#63b8ff" d="M1601.47,-82.67C1742.61,-81.07 2062.87,-72.81 2328.62,-32 2331.21,-31.6 2333.85,-31.15 2336.51,-30.65"/>
<polygon fill="#63b8ff" stroke="#63b8ff" points="1601.47,-79.17 1591.51,-82.77 1601.54,-86.17 1601.47,-79.17"/>
</a>
</g>
</g>
<!-- Node22 -->
<g id="Node000022" class="node">
<title>Node22</title>
<g id="a_Node000022"><a xlink:href="../../d5/d5a/s__isnanf_8c.html" target="_top" xlink:title=" ">
<polygon fill="white" stroke="#666666" points="2565.25,-32 2460,-32 2460,0 2565.25,0 2565.25,-32"/>
<text xml:space="preserve" text-anchor="start" x="2468" y="-18.5" font-family="Helvetica,sans-Serif" font-size="10.00">SDL&#45;main/src/libm/s</text>
<text xml:space="preserve" text-anchor="middle" x="2512.62" y="-6.5" font-family="Helvetica,sans-Serif" font-size="10.00">_isnanf.c</text>
</a>
</g>
</g>
<!-- Node1&#45;&gt;Node22 -->
<g id="edge21_Node000001_Node000022" class="edge">
<title>Node1&#45;&gt;Node22</title>
<g id="a_edge21_Node000001_Node000022"><a xlink:title=" ">
<path fill="none" stroke="#63b8ff" d="M1601.08,-83.56C1757.37,-83.76 2137.46,-78.89 2451.62,-32 2454.21,-31.61 2456.85,-31.17 2459.51,-30.68"/>
<polygon fill="#63b8ff" stroke="#63b8ff" points="1601.29,-80.06 1591.28,-83.54 1601.28,-87.06 1601.29,-80.06"/>
</a>
</g>
</g>
<!-- Node23 -->
<g id="Node000023" class="node">
<title>Node23</title>
<g id="a_Node000023"><a xlink:href="../../d2/d5c/s__modf_8c.html" target="_top" xlink:title=" ">
<polygon fill="white" stroke="#666666" points="2688.25,-32 2583,-32 2583,0 2688.25,0 2688.25,-32"/>
<text xml:space="preserve" text-anchor="start" x="2591" y="-18.5" font-family="Helvetica,sans-Serif" font-size="10.00">SDL&#45;main/src/libm/s</text>
<text xml:space="preserve" text-anchor="middle" x="2635.62" y="-6.5" font-family="Helvetica,sans-Serif" font-size="10.00">_modf.c</text>
</a>
</g>
</g>
<!-- Node1&#45;&gt;Node23 -->
<g id="edge22_Node000001_Node000023" class="edge">
<title>Node1&#45;&gt;Node23</title>
<g id="a_edge22_Node000001_Node000023"><a xlink:title=" ">
<path fill="none" stroke="#63b8ff" d="M1601.16,-81.28C1806.01,-76.14 2386.23,-59.49 2574.62,-32 2577.21,-31.62 2579.86,-31.18 2582.51,-30.7"/>
<polygon fill="#63b8ff" stroke="#63b8ff" points="1601.08,-77.78 1591.17,-81.53 1601.26,-84.78 1601.08,-77.78"/>
</a>
</g>
</g>
<!-- Node24 -->
<g id="Node000024" class="node">
<title>Node24</title>
<g id="a_Node000024"><a xlink:href="../../dd/d39/s__scalbn_8c.html" target="_top" xlink:title=" ">
<polygon fill="white" stroke="#666666" points="2811.25,-32 2706,-32 2706,0 2811.25,0 2811.25,-32"/>
<text xml:space="preserve" text-anchor="start" x="2714" y="-18.5" font-family="Helvetica,sans-Serif" font-size="10.00">SDL&#45;main/src/libm/s</text>
<text xml:space="preserve" text-anchor="middle" x="2758.62" y="-6.5" font-family="Helvetica,sans-Serif" font-size="10.00">_scalbn.c</text>
</a>
</g>
</g>
<!-- Node1&#45;&gt;Node24 -->
<g id="edge23_Node000001_Node000024" class="edge">
<title>Node1&#45;&gt;Node24</title>
<g id="a_edge23_Node000001_Node000024"><a xlink:title=" ">
<path fill="none" stroke="#63b8ff" d="M1601.21,-81.71C1822.16,-77.49 2484.39,-62.56 2697.62,-32 2700.22,-31.63 2702.86,-31.2 2705.52,-30.71"/>
<polygon fill="#63b8ff" stroke="#63b8ff" points="1601.23,-78.21 1591.29,-81.9 1601.36,-85.21 1601.23,-78.21"/>
</a>
</g>
</g>
<!-- Node25 -->
<g id="Node000025" class="node">
<title>Node25</title>
<g id="a_Node000025"><a xlink:href="../../de/d0d/s__sin_8c.html" target="_top" xlink:title=" ">
<polygon fill="white" stroke="#666666" points="2934.25,-32 2829,-32 2829,0 2934.25,0 2934.25,-32"/>
<text xml:space="preserve" text-anchor="start" x="2837" y="-18.5" font-family="Helvetica,sans-Serif" font-size="10.00">SDL&#45;main/src/libm/s</text>
<text xml:space="preserve" text-anchor="middle" x="2881.62" y="-6.5" font-family="Helvetica,sans-Serif" font-size="10.00">_sin.c</text>
</a>
</g>
</g>
<!-- Node1&#45;&gt;Node25 -->
<g id="edge24_Node000001_Node000025" class="edge">
<title>Node1&#45;&gt;Node25</title>
<g id="a_edge24_Node000001_Node000025"><a xlink:title=" ">
<path fill="none" stroke="#63b8ff" d="M1601.13,-82.06C1837.22,-78.7 2582.39,-65.64 2820.62,-32 2823.22,-31.63 2825.86,-31.2 2828.52,-30.73"/>
<polygon fill="#63b8ff" stroke="#63b8ff" points="1601.41,-78.56 1591.46,-82.2 1601.51,-85.56 1601.41,-78.56"/>
</a>
</g>
</g>
<!-- Node26 -->
<g id="Node000026" class="node">
<title>Node26</title>
<g id="a_Node000026"><a xlink:href="../../d1/d78/s__tan_8c.html" target="_top" xlink:title=" ">
<polygon fill="white" stroke="#666666" points="3057.25,-32 2952,-32 2952,0 3057.25,0 3057.25,-32"/>
<text xml:space="preserve" text-anchor="start" x="2960" y="-18.5" font-family="Helvetica,sans-Serif" font-size="10.00">SDL&#45;main/src/libm/s</text>
<text xml:space="preserve" text-anchor="middle" x="3004.62" y="-6.5" font-family="Helvetica,sans-Serif" font-size="10.00">_tan.c</text>
</a>
</g>
</g>
<!-- Node1&#45;&gt;Node26 -->
<g id="edge25_Node000001_Node000026" class="edge">
<title>Node1&#45;&gt;Node26</title>
<g id="a_edge25_Node000001_Node000026"><a xlink:title=" ">
<path fill="none" stroke="#63b8ff" d="M1601.11,-82.35C1851.68,-79.8 2680.3,-68.72 2943.62,-32 2946.22,-31.64 2948.86,-31.21 2951.52,-30.74"/>
<polygon fill="#63b8ff" stroke="#63b8ff" points="1601.09,-78.85 1591.13,-82.45 1601.16,-85.85 1601.09,-78.85"/>
</a>
</g>
</g>
</g>
</svg>

<g id="navigator" transform="translate(0 0)" fill="#404254">
  <rect fill="#f2f5e9" fill-opacity="0.5" stroke="#606060" stroke-width=".5" x="0" y="0" width="60" height="60"/>
  <use id="zoomplus" xlink:href="#zoomPlus" x="17" y="9" onmousedown="handleZoom(evt,'in')"/>
  <use id="zoomminus" xlink:href="#zoomMin" x="42" y="9" onmousedown="handleZoom(evt,'out')"/>
  <use id="reset" xlink:href="#resetDef" x="30" y="36" onmousedown="handleReset()"/>
   <use id="arrowup" xlink:href="#arrowUp" x="0" y="0" onmousedown="handlePan(0,-1)"/>
  <use id="arrowright" xlink:href="#arrowRight" x="0" y="0" onmousedown="handlePan(1,0)"/>
  <use id="arrowdown" xlink:href="#arrowDown" x="0" y="0" onmousedown="handlePan(0,1)"/>
  <use id="arrowleft" xlink:href="#arrowLeft" x="0" y="0" onmousedown="handlePan(-1,0)"/>
</g>
<svg viewBox="0 0 15 15" width="100%" height="30px" preserveAspectRatio="xMaxYMin meet">
 <g id="arrow_out" transform="scale(0.3 0.3)">
  <a xlink:href="math__private_8h__dep__incl_org.svg" target="_base">
   <rect id="button" ry="5" rx="5" y="6" x="6" height="38" width="38"
        fill="#f2f5e9" fill-opacity="0.5" stroke="#606060" stroke-width="1.0"/>
   <path id="arrow"
     d="M 11.500037,31.436501 C 11.940474,20.09759 22.043105,11.32322 32.158766,21.979434 L 37.068811,17.246167 C 37.068811,17.246167 37.088388,32 37.088388,32 L 22.160133,31.978069 C 22.160133,31.978069 26.997745,27.140456 26.997745,27.140456 C 18.528582,18.264221 13.291696,25.230495 11.500037,31.436501 z"
     style="fill:#404040;"/>
  </a>
 </g>
</svg>

<style type='text/css'>
<![CDATA[
[data-mouse-over-selected='false'] { opacity: 0.7; }
[data-mouse-over-selected='true']  { opacity: 1.0; }
]]>
</style>
<script type="application/ecmascript"><![CDATA[
document.addEventListener('DOMContentLoaded', (event) => {
  highlightEdges();
  highlightAdjacentNodes();
});
]]></script>
</svg>
