<?xml version="1.0" encoding="UTF-8" standalone="no"?>
<!DOCTYPE svg PUBLIC "-//W3C//DTD SVG 1.1//EN"
 "http://www.w3.org/Graphics/SVG/1.1/DTD/svg11.dtd">
<!-- Generated by graphviz version 13.1.0 (20250701.0955)
 -->
<!-- Title: SDL_ReadU16LE Pages: 1 -->
<!--zoomable 104 -->

<svg id="main" version="1.1" xmlns="http://www.w3.org/2000/svg" xmlns:xlink="http://www.w3.org/1999/xlink" xml:space="preserve" onload="init(evt)">

<style type="text/css"><![CDATA[
.node, .edge {opacity: 0.7;}
.node.selected, .edge.selected {opacity: 1;}
.edge:hover path { stroke: red; }
.edge:hover polygon { stroke: red; fill: red; }
]]></style>

<defs>
  <circle id="rim" cx="0" cy="0" r="7"/>
  <circle id="rim2" cx="0" cy="0" r="3.5"/>
  <g id="zoomPlus">
    <use xlink:href="#rim" fill="#404040"><set attributeName="fill" to="#808080" begin="zoomplus.mouseover" end="zoomplus.mouseout"/></use>
    <path d="M-4,0h8M0,-4v8" fill="none" stroke="white" stroke-width="1.5" pointer-events="none"/>
  </g>
  <g id="zoomMin">
    <use xlink:href="#rim" fill="#404040"><set attributeName="fill" to="#808080" begin="zoomminus.mouseover" end="zoomminus.mouseout"/></use>
    <path d="M-4,0h8" fill="none" stroke="white" stroke-width="1.5" pointer-events="none"/>
  </g>
  <g id="arrowUp" transform="translate(30 24)">
    <use xlink:href="#rim"/>
    <path pointer-events="none" fill="none" stroke="white" stroke-width="1.5" d="M0,-3.0v7 M-2.5,-0.5L0,-3.0L2.5,-0.5"/>
  </g>
  <g id="arrowRight" transform="rotate(90) translate(36 -43)">
    <use xlink:href="#rim"/>
    <path pointer-events="none" fill="none" stroke="white" stroke-width="1.5" d="M0,-3.0v7 M-2.5,-0.5L0,-3.0L2.5,-0.5"/>
  </g>
  <g id="arrowDown" transform="rotate(180) translate(-30 -48)">
    <use xlink:href="#rim"/>
    <path pointer-events="none" fill="none" stroke="white" stroke-width="1.5" d="M0,-3.0v7 M-2.5,-0.5L0,-3.0L2.5,-0.5"/>
  </g>
  <g id="arrowLeft" transform="rotate(270) translate(-36 17)">
    <use xlink:href="#rim"/>
    <path pointer-events="none" fill="none" stroke="white" stroke-width="1.5" d="M0,-3.0v7 M-2.5,-0.5L0,-3.0L2.5,-0.5"/>
  </g>
  <g id="resetDef">
    <use xlink:href="#rim2" fill="#404040"><set attributeName="fill" to="#808080" begin="reset.mouseover" end="reset.mouseout"/></use>
  </g>
</defs>
<script type="application/ecmascript">
var viewWidth = 612;
var viewHeight = 104;
var sectionId = 'dynsection-39';
</script>
<script type="application/ecmascript" xlink:href="../../svg.min.js"/>
<svg id="graph" class="graph">
<g id="viewport">
<title>SDL_ReadU16LE</title>
<!-- Node1 -->
<g id="Node000001" class="node">
<title>Node1</title>
<g id="a_Node000001"><a xlink:title=" ">
<polygon fill="#999999" stroke="#666666" points="603.5,-58 509.5,-58 509.5,-38 603.5,-38 603.5,-58"/>
<text xml:space="preserve" text-anchor="middle" x="556.5" y="-44.5" font-family="Helvetica,sans-Serif" font-size="10.00">SDL_ReadU16LE</text>
</a>
</g>
</g>
<!-- Node2 -->
<g id="Node000002" class="node">
<title>Node2</title>
<g id="a_Node000002"><a xlink:href="../../d8/dc3/SDL__bmp_8c.html#a46ec958b331ad4389a21b6684b366e32" target="_top" xlink:title=" ">
<polygon fill="white" stroke="#666666" points="473.5,-96 374.25,-96 374.25,-76 473.5,-76 473.5,-96"/>
<text xml:space="preserve" text-anchor="middle" x="423.88" y="-82.5" font-family="Helvetica,sans-Serif" font-size="10.00">SDL_LoadBMP_IO</text>
</a>
</g>
</g>
<!-- Node1&#45;&gt;Node2 -->
<g id="edge1_Node000001_Node000002" class="edge">
<title>Node1&#45;&gt;Node2</title>
<g id="a_edge1_Node000001_Node000002"><a xlink:title=" ">
<path fill="none" stroke="#63b8ff" d="M508.83,-61.58C493.02,-66.18 475.63,-71.23 460.8,-75.55"/>
<polygon fill="#63b8ff" stroke="#63b8ff" points="509.38,-65.06 518.01,-58.91 507.43,-58.34 509.38,-65.06"/>
</a>
</g>
</g>
<!-- Node4 -->
<g id="Node000004" class="node">
<title>Node4</title>
<g id="a_Node000004"><a xlink:href="../../d3/d3d/SDL__iostream_8c.html#aaee5061fe9e38ab2a65ebc69484d38af" target="_top" xlink:title=" ">
<polygon fill="white" stroke="#666666" points="470.5,-58 377.25,-58 377.25,-38 470.5,-38 470.5,-58"/>
<text xml:space="preserve" text-anchor="middle" x="423.88" y="-44.5" font-family="Helvetica,sans-Serif" font-size="10.00">SDL_ReadS16LE</text>
</a>
</g>
</g>
<!-- Node1&#45;&gt;Node4 -->
<g id="edge3_Node000001_Node000004" class="edge">
<title>Node1&#45;&gt;Node4</title>
<g id="a_edge3_Node000001_Node000004"><a xlink:title=" ">
<path fill="none" stroke="#63b8ff" d="M497.76,-48C488.71,-48 479.45,-48 470.71,-48"/>
<polygon fill="#63b8ff" stroke="#63b8ff" points="497.57,-51.5 507.57,-48 497.57,-44.5 497.57,-51.5"/>
</a>
</g>
</g>
<!-- Node5 -->
<g id="Node000005" class="node">
<title>Node5</title>
<g id="a_Node000005"><a xlink:href="../../d4/dac/SDL__wave_8c.html#a555c3fb0af314226bd9ef39a61aacfe1" target="_top" xlink:title=" ">
<polygon fill="white" stroke="#666666" points="471.25,-20 376.5,-20 376.5,0 471.25,0 471.25,-20"/>
<text xml:space="preserve" text-anchor="middle" x="423.88" y="-6.5" font-family="Helvetica,sans-Serif" font-size="10.00">WaveReadFormat</text>
</a>
</g>
</g>
<!-- Node1&#45;&gt;Node5 -->
<g id="edge4_Node000001_Node000005" class="edge">
<title>Node1&#45;&gt;Node5</title>
<g id="a_edge4_Node000001_Node000005"><a xlink:title=" ">
<path fill="none" stroke="#63b8ff" d="M508.83,-34.42C493.02,-29.82 475.63,-24.77 460.8,-20.45"/>
<polygon fill="#63b8ff" stroke="#63b8ff" points="507.43,-37.66 518.01,-37.09 509.38,-30.94 507.43,-37.66"/>
</a>
</g>
</g>
<!-- Node3 -->
<g id="Node000003" class="node">
<title>Node3</title>
<g id="a_Node000003"><a xlink:href="../../d8/dc3/SDL__bmp_8c.html#adb17cfdf4bf377079462ffa3701eeb76" target="_top" xlink:title=" ">
<polygon fill="white" stroke="#666666" points="338.25,-96 254.75,-96 254.75,-76 338.25,-76 338.25,-96"/>
<text xml:space="preserve" text-anchor="middle" x="296.5" y="-82.5" font-family="Helvetica,sans-Serif" font-size="10.00">SDL_LoadBMP</text>
</a>
</g>
</g>
<!-- Node2&#45;&gt;Node3 -->
<g id="edge2_Node000002_Node000003" class="edge">
<title>Node2&#45;&gt;Node3</title>
<g id="a_edge2_Node000002_Node000003"><a xlink:title=" ">
<path fill="none" stroke="#63b8ff" d="M362.66,-86C354.54,-86 346.37,-86 338.69,-86"/>
<polygon fill="#63b8ff" stroke="#63b8ff" points="362.53,-89.5 372.53,-86 362.53,-82.5 362.53,-89.5"/>
</a>
</g>
</g>
<!-- Node6 -->
<g id="Node000006" class="node">
<title>Node6</title>
<g id="a_Node000006"><a xlink:href="../../d4/dac/SDL__wave_8c.html#a74a2f92d8c663adf2d70ed3fc458c1b5" target="_top" xlink:title=" ">
<polygon fill="white" stroke="#666666" points="327.38,-20 265.62,-20 265.62,0 327.38,0 327.38,-20"/>
<text xml:space="preserve" text-anchor="middle" x="296.5" y="-6.5" font-family="Helvetica,sans-Serif" font-size="10.00">WaveLoad</text>
</a>
</g>
</g>
<!-- Node5&#45;&gt;Node6 -->
<g id="edge5_Node000005_Node000006" class="edge">
<title>Node5&#45;&gt;Node6</title>
<g id="a_edge5_Node000005_Node000006"><a xlink:title=" ">
<path fill="none" stroke="#63b8ff" d="M365.03,-10C352.19,-10 339.08,-10 327.87,-10"/>
<polygon fill="#63b8ff" stroke="#63b8ff" points="364.68,-13.5 374.68,-10 364.68,-6.5 364.68,-13.5"/>
</a>
</g>
</g>
<!-- Node7 -->
<g id="Node000007" class="node">
<title>Node7</title>
<g id="a_Node000007"><a xlink:href="../../d4/dac/SDL__wave_8c.html#afeaef077e6cb8f35303b234139713b6d" target="_top" xlink:title=" ">
<polygon fill="white" stroke="#666666" points="218.75,-20 119.5,-20 119.5,0 218.75,0 218.75,-20"/>
<text xml:space="preserve" text-anchor="middle" x="169.12" y="-6.5" font-family="Helvetica,sans-Serif" font-size="10.00">SDL_LoadWAV_IO</text>
</a>
</g>
</g>
<!-- Node6&#45;&gt;Node7 -->
<g id="edge6_Node000006_Node000007" class="edge">
<title>Node6&#45;&gt;Node7</title>
<g id="a_edge6_Node000006_Node000007"><a xlink:title=" ">
<path fill="none" stroke="#63b8ff" d="M253.88,-10C242.63,-10 230.37,-10 218.78,-10"/>
<polygon fill="#63b8ff" stroke="#63b8ff" points="253.64,-13.5 263.64,-10 253.64,-6.5 253.64,-13.5"/>
</a>
</g>
</g>
<!-- Node8 -->
<g id="Node000008" class="node">
<title>Node8</title>
<g id="a_Node000008"><a xlink:href="../../d4/dac/SDL__wave_8c.html#a8f44fee5faff8eeca26f48be1e66141f" target="_top" xlink:title=" ">
<polygon fill="white" stroke="#666666" points="83.5,-20 0,-20 0,0 83.5,0 83.5,-20"/>
<text xml:space="preserve" text-anchor="middle" x="41.75" y="-6.5" font-family="Helvetica,sans-Serif" font-size="10.00">SDL_LoadWAV</text>
</a>
</g>
</g>
<!-- Node7&#45;&gt;Node8 -->
<g id="edge7_Node000007_Node000008" class="edge">
<title>Node7&#45;&gt;Node8</title>
<g id="a_edge7_Node000007_Node000008"><a xlink:title=" ">
<path fill="none" stroke="#63b8ff" d="M107.91,-10C99.79,-10 91.62,-10 83.94,-10"/>
<polygon fill="#63b8ff" stroke="#63b8ff" points="107.78,-13.5 117.78,-10 107.78,-6.5 107.78,-13.5"/>
</a>
</g>
</g>
</g>
</svg>

<g id="navigator" transform="translate(0 0)" fill="#404254">
  <rect fill="#f2f5e9" fill-opacity="0.5" stroke="#606060" stroke-width=".5" x="0" y="0" width="60" height="60"/>
  <use id="zoomplus" xlink:href="#zoomPlus" x="17" y="9" onmousedown="handleZoom(evt,'in')"/>
  <use id="zoomminus" xlink:href="#zoomMin" x="42" y="9" onmousedown="handleZoom(evt,'out')"/>
  <use id="reset" xlink:href="#resetDef" x="30" y="36" onmousedown="handleReset()"/>
   <use id="arrowup" xlink:href="#arrowUp" x="0" y="0" onmousedown="handlePan(0,-1)"/>
  <use id="arrowright" xlink:href="#arrowRight" x="0" y="0" onmousedown="handlePan(1,0)"/>
  <use id="arrowdown" xlink:href="#arrowDown" x="0" y="0" onmousedown="handlePan(0,1)"/>
  <use id="arrowleft" xlink:href="#arrowLeft" x="0" y="0" onmousedown="handlePan(-1,0)"/>
</g>
<svg viewBox="0 0 15 15" width="100%" height="30px" preserveAspectRatio="xMaxYMin meet">
 <g id="arrow_out" transform="scale(0.3 0.3)">
  <a xlink:href="SDL__iostream_8h_a2930bc8a8c2a4a99f5486a89a2ae4395_icgraph_org.svg" target="_base">
   <rect id="button" ry="5" rx="5" y="6" x="6" height="38" width="38"
        fill="#f2f5e9" fill-opacity="0.5" stroke="#606060" stroke-width="1.0"/>
   <path id="arrow"
     d="M 11.500037,31.436501 C 11.940474,20.09759 22.043105,11.32322 32.158766,21.979434 L 37.068811,17.246167 C 37.068811,17.246167 37.088388,32 37.088388,32 L 22.160133,31.978069 C 22.160133,31.978069 26.997745,27.140456 26.997745,27.140456 C 18.528582,18.264221 13.291696,25.230495 11.500037,31.436501 z"
     style="fill:#404040;"/>
  </a>
 </g>
</svg>

<style type='text/css'>
<![CDATA[
[data-mouse-over-selected='false'] { opacity: 0.7; }
[data-mouse-over-selected='true']  { opacity: 1.0; }
]]>
</style>
<script type="application/ecmascript"><![CDATA[
document.addEventListener('DOMContentLoaded', (event) => {
  highlightEdges();
  highlightAdjacentNodes();
});
]]></script>
</svg>
