<?xml version="1.0" encoding="UTF-8" standalone="no"?>
<!DOCTYPE svg PUBLIC "-//W3C//DTD SVG 1.1//EN"
 "http://www.w3.org/Graphics/SVG/1.1/DTD/svg11.dtd">
<!-- Generated by graphviz version 13.1.0 (20250701.0955)
 -->
<!-- Title: hid_libusb_wrap_sys_device Pages: 1 -->
<svg width="696pt" height="394pt"
 viewBox="0.00 0.00 696.00 394.00" xmlns="http://www.w3.org/2000/svg" xmlns:xlink="http://www.w3.org/1999/xlink">
<g id="graph0" class="graph" transform="scale(1 1) rotate(0) translate(4 390)">
<title>hid_libusb_wrap_sys_device</title>
<!-- Node1 -->
<g id="Node000001" class="node">
<title>Node1</title>
<g id="a_Node000001"><a xlink:title="Open a HID device using libusb_wrap_sys_device. See https://libusb.sourceforge.io/api&#45;1....">
<polygon fill="#999999" stroke="#666666" points="106.75,-64 0,-64 0,-32 106.75,-32 106.75,-64"/>
<text xml:space="preserve" text-anchor="start" x="8" y="-50.5" font-family="Helvetica,sans-Serif" font-size="10.00">hid_libusb_wrap_sys</text>
<text xml:space="preserve" text-anchor="middle" x="53.38" y="-38.5" font-family="Helvetica,sans-Serif" font-size="10.00">_device</text>
</a>
</g>
</g>
<!-- Node2 -->
<g id="Node000002" class="node">
<title>Node2</title>
<g id="a_Node000002"><a xlink:href="../../d6/dcf/libusb_2hid_8c.html#a0ffec47d88af6f2b51bb2d175a014c5a" target="_top" xlink:title=" ">
<polygon fill="white" stroke="#666666" points="381.75,-210 266,-210 266,-190 381.75,-190 381.75,-210"/>
<text xml:space="preserve" text-anchor="middle" x="323.88" y="-196.5" font-family="Helvetica,sans-Serif" font-size="10.00">hidapi_initialize_device</text>
</a>
</g>
</g>
<!-- Node1&#45;&gt;Node2 -->
<g id="edge1_Node000001_Node000002" class="edge">
<title>Node1&#45;&gt;Node2</title>
<g id="a_edge1_Node000001_Node000002"><a xlink:title=" ">
<path fill="none" stroke="#63b8ff" d="M83.36,-64.41C135.25,-93.78 243.35,-154.98 294.67,-184.03"/>
<polygon fill="#63b8ff" stroke="#63b8ff" points="292.69,-186.93 303.11,-188.81 296.13,-180.84 292.69,-186.93"/>
</a>
</g>
</g>
<!-- Node10 -->
<g id="Node000010" class="node">
<title>Node10</title>
<g id="a_Node000010"><a xlink:href="../../d3/dda/eglext_8h.html#a0f7193911e632cd84da4082d5c628fe3" target="_top" xlink:title=" ">
<polygon fill="white" stroke="#666666" points="653.38,-115 619.38,-115 619.38,-95 653.38,-95 653.38,-115"/>
<text xml:space="preserve" text-anchor="middle" x="636.38" y="-101.5" font-family="Helvetica,sans-Serif" font-size="10.00">void</text>
</a>
</g>
</g>
<!-- Node1&#45;&gt;Node10 -->
<g id="edge18_Node000001_Node000010" class="edge">
<title>Node1&#45;&gt;Node10</title>
<g id="a_edge18_Node000001_Node000010"><a xlink:title=" ">
<path fill="none" stroke="#63b8ff" d="M107.15,-43.67C198.44,-37.59 391.19,-30.93 548.5,-67 569.69,-71.86 592.14,-81.82 608.91,-90.32"/>
<polygon fill="#63b8ff" stroke="#63b8ff" points="607.21,-93.39 617.7,-94.93 610.46,-87.19 607.21,-93.39"/>
</a>
</g>
</g>
<!-- Node14 -->
<g id="Node000014" class="node">
<title>Node14</title>
<g id="a_Node000014"><a xlink:href="../../d6/dcf/libusb_2hid_8c.html#a2651e3dded83fcdacac0f9315ad38dde" target="_top" xlink:title=" ">
<polygon fill="white" stroke="#666666" points="228.5,-20 142.75,-20 142.75,0 228.5,0 228.5,-20"/>
<text xml:space="preserve" text-anchor="middle" x="185.62" y="-6.5" font-family="Helvetica,sans-Serif" font-size="10.00">new_hid_device</text>
</a>
</g>
</g>
<!-- Node1&#45;&gt;Node14 -->
<g id="edge14_Node000001_Node000014" class="edge">
<title>Node1&#45;&gt;Node14</title>
<g id="a_edge14_Node000001_Node000014"><a xlink:title=" ">
<path fill="none" stroke="#63b8ff" d="M106.98,-32.65C117.24,-29.66 127.93,-26.54 137.98,-23.61"/>
<polygon fill="#63b8ff" stroke="#63b8ff" points="138.92,-26.98 147.54,-20.82 136.96,-20.26 138.92,-26.98"/>
</a>
</g>
</g>
<!-- Node3 -->
<g id="Node000003" class="node">
<title>Node3</title>
<g id="a_Node000003"><a xlink:href="../../d6/dcf/libusb_2hid_8c.html#ab7ef9f071a118ee7c4b6295ea6c72dfa" target="_top" xlink:title=" ">
<polygon fill="white" stroke="#666666" points="544,-386 423.75,-386 423.75,-366 544,-366 544,-386"/>
<text xml:space="preserve" text-anchor="middle" x="483.88" y="-372.5" font-family="Helvetica,sans-Serif" font-size="10.00">calculate_device_quirks</text>
</a>
</g>
</g>
<!-- Node2&#45;&gt;Node3 -->
<g id="edge2_Node000002_Node000003" class="edge">
<title>Node2&#45;&gt;Node3</title>
<g id="a_edge2_Node000002_Node000003"><a xlink:title=" ">
<path fill="none" stroke="#63b8ff" d="M328.07,-210.21C337.35,-238.15 366.99,-316.45 419.25,-357 420.78,-358.19 422.39,-359.31 424.06,-360.35"/>
<polygon fill="#63b8ff" stroke="#63b8ff" points="422.28,-363.37 432.76,-364.91 425.53,-357.17 422.28,-363.37"/>
</a>
</g>
</g>
<!-- Node4 -->
<g id="Node000004" class="node">
<title>Node4</title>
<g id="a_Node000004"><a xlink:href="../../d6/dcf/libusb_2hid_8c.html#a9b5fc54e141d03493aa9e94c5cfd305f" target="_top" xlink:title=" ">
<polygon fill="white" stroke="#666666" points="537.62,-348 430.12,-348 430.12,-304 537.62,-304 537.62,-348"/>
<text xml:space="preserve" text-anchor="start" x="438.12" y="-334.5" font-family="Helvetica,sans-Serif" font-size="10.00">get_report_descriptor</text>
<text xml:space="preserve" text-anchor="start" x="438.12" y="-322.5" font-family="Helvetica,sans-Serif" font-size="10.00">_size_from_interface</text>
<text xml:space="preserve" text-anchor="middle" x="483.88" y="-310.5" font-family="Helvetica,sans-Serif" font-size="10.00">_descriptors</text>
</a>
</g>
</g>
<!-- Node2&#45;&gt;Node4 -->
<g id="edge3_Node000002_Node000004" class="edge">
<title>Node2&#45;&gt;Node4</title>
<g id="a_edge3_Node000002_Node000004"><a xlink:title=" ">
<path fill="none" stroke="#63b8ff" d="M333.05,-210.27C348.38,-229 383.14,-269.16 419.25,-295 420.43,-295.84 421.64,-296.68 422.87,-297.5"/>
<polygon fill="#63b8ff" stroke="#63b8ff" points="420.99,-300.45 431.34,-302.73 424.67,-294.5 420.99,-300.45"/>
</a>
</g>
</g>
<!-- Node5 -->
<g id="Node000005" class="node">
<title>Node5</title>
<g id="a_Node000005"><a xlink:href="../../d0/d23/hidapi__thread__pthread_8h.html#a3364a18abb284086f4641b3af713a71f" target="_top" xlink:title=" ">
<polygon fill="white" stroke="#666666" points="548.5,-286 419.25,-286 419.25,-266 548.5,-266 548.5,-286"/>
<text xml:space="preserve" text-anchor="middle" x="483.88" y="-272.5" font-family="Helvetica,sans-Serif" font-size="10.00">hidapi_thread_barrier_wait</text>
</a>
</g>
</g>
<!-- Node2&#45;&gt;Node5 -->
<g id="edge4_Node000002_Node000005" class="edge">
<title>Node2&#45;&gt;Node5</title>
<g id="a_edge4_Node000002_Node000005"><a xlink:title=" ">
<path fill="none" stroke="#63b8ff" d="M339.28,-210.3C357.27,-222.77 389.32,-243.75 419.25,-257 423.23,-258.76 427.42,-260.42 431.66,-261.96"/>
<polygon fill="#63b8ff" stroke="#63b8ff" points="430.24,-265.17 440.83,-265.07 432.49,-258.54 430.24,-265.17"/>
</a>
</g>
</g>
<!-- Node7 -->
<g id="Node000007" class="node">
<title>Node7</title>
<g id="a_Node000007"><a xlink:href="../../d0/d23/hidapi__thread__pthread_8h.html#afd68cab33aebfc7526882856b73b22a2" target="_top" xlink:title=" ">
<polygon fill="white" stroke="#666666" points="536.88,-248 430.88,-248 430.88,-228 536.88,-228 536.88,-248"/>
<text xml:space="preserve" text-anchor="middle" x="483.88" y="-234.5" font-family="Helvetica,sans-Serif" font-size="10.00">hidapi_thread_create</text>
</a>
</g>
</g>
<!-- Node2&#45;&gt;Node7 -->
<g id="edge6_Node000002_Node000007" class="edge">
<title>Node2&#45;&gt;Node7</title>
<g id="a_edge6_Node000002_Node000007"><a xlink:title=" ">
<path fill="none" stroke="#63b8ff" d="M368.47,-210.48C387.03,-214.95 408.89,-220.21 428.49,-224.92"/>
<polygon fill="#63b8ff" stroke="#63b8ff" points="427.41,-228.26 437.95,-227.2 429.05,-221.45 427.41,-228.26"/>
</a>
</g>
</g>
<!-- Node8 -->
<g id="Node000008" class="node">
<title>Node8</title>
<g id="a_Node000008"><a xlink:href="../../d6/dcf/libusb_2hid_8c.html#a6ef0f647c7144184032b06f3f201b8d8" target="_top" xlink:title=" ">
<polygon fill="white" stroke="#666666" points="519.25,-210 448.5,-210 448.5,-190 519.25,-190 519.25,-210"/>
<text xml:space="preserve" text-anchor="middle" x="483.88" y="-196.5" font-family="Helvetica,sans-Serif" font-size="10.00">init_xbox360</text>
</a>
</g>
</g>
<!-- Node2&#45;&gt;Node8 -->
<g id="edge7_Node000002_Node000008" class="edge">
<title>Node2&#45;&gt;Node8</title>
<g id="a_edge7_Node000002_Node000008"><a xlink:title=" ">
<path fill="none" stroke="#63b8ff" d="M381.92,-200C400.02,-200 419.78,-200 436.99,-200"/>
<polygon fill="#63b8ff" stroke="#63b8ff" points="436.93,-203.5 446.93,-200 436.93,-196.5 436.93,-203.5"/>
</a>
</g>
</g>
<!-- Node11 -->
<g id="Node000011" class="node">
<title>Node11</title>
<g id="a_Node000011"><a xlink:href="../../d6/dcf/libusb_2hid_8c.html#a98c59ef4cd5441536d2d8c5c259ab64e" target="_top" xlink:title=" ">
<polygon fill="white" stroke="#666666" points="519.25,-172 448.5,-172 448.5,-152 519.25,-152 519.25,-172"/>
<text xml:space="preserve" text-anchor="middle" x="483.88" y="-158.5" font-family="Helvetica,sans-Serif" font-size="10.00">init_xboxone</text>
</a>
</g>
</g>
<!-- Node2&#45;&gt;Node11 -->
<g id="edge10_Node000002_Node000011" class="edge">
<title>Node2&#45;&gt;Node11</title>
<g id="a_edge10_Node000002_Node000011"><a xlink:title=" ">
<path fill="none" stroke="#63b8ff" d="M368.47,-189.52C389.86,-184.37 415.61,-178.18 437.27,-172.97"/>
<polygon fill="#63b8ff" stroke="#63b8ff" points="437.8,-176.44 446.7,-170.7 436.16,-169.64 437.8,-176.44"/>
</a>
</g>
</g>
<!-- Node12 -->
<g id="Node000012" class="node">
<title>Node12</title>
<g id="a_Node000012"><a xlink:href="../../d6/dcf/libusb_2hid_8c.html#a33a64f27e4fe08363a1b244e5c61c6e1" target="_top" xlink:title=" ">
<polygon fill="white" stroke="#666666" points="516.62,-134 451.12,-134 451.12,-114 516.62,-114 516.62,-134"/>
<text xml:space="preserve" text-anchor="middle" x="483.88" y="-120.5" font-family="Helvetica,sans-Serif" font-size="10.00">is_xbox360</text>
</a>
</g>
</g>
<!-- Node2&#45;&gt;Node12 -->
<g id="edge12_Node000002_Node000012" class="edge">
<title>Node2&#45;&gt;Node12</title>
<g id="a_edge12_Node000002_Node000012"><a xlink:title=" ">
<path fill="none" stroke="#63b8ff" d="M339.28,-189.7C357.27,-177.23 389.32,-156.25 419.25,-143 425.82,-140.09 432.97,-137.47 440.01,-135.17"/>
<polygon fill="#63b8ff" stroke="#63b8ff" points="440.93,-138.55 449.47,-132.28 438.88,-131.86 440.93,-138.55"/>
</a>
</g>
</g>
<!-- Node13 -->
<g id="Node000013" class="node">
<title>Node13</title>
<g id="a_Node000013"><a xlink:href="../../d6/dcf/libusb_2hid_8c.html#ab43a77c7ea693b0c6c208255045a9156" target="_top" xlink:title=" ">
<polygon fill="white" stroke="#666666" points="516.62,-96 451.12,-96 451.12,-76 516.62,-76 516.62,-96"/>
<text xml:space="preserve" text-anchor="middle" x="483.88" y="-82.5" font-family="Helvetica,sans-Serif" font-size="10.00">is_xboxone</text>
</a>
</g>
</g>
<!-- Node2&#45;&gt;Node13 -->
<g id="edge13_Node000002_Node000013" class="edge">
<title>Node2&#45;&gt;Node13</title>
<g id="a_edge13_Node000002_Node000013"><a xlink:title=" ">
<path fill="none" stroke="#63b8ff" d="M332.21,-189.76C346.66,-170.34 380.75,-128.05 419.25,-105 425.62,-101.19 432.81,-98.09 440.01,-95.59"/>
<polygon fill="#63b8ff" stroke="#63b8ff" points="440.87,-98.99 449.39,-92.68 438.8,-92.3 440.87,-98.99"/>
</a>
</g>
</g>
<!-- Node6 -->
<g id="Node000006" class="node">
<title>Node6</title>
<g id="a_Node000006"><a xlink:href="../../d1/de6/mac_2hid_8c.html#a8df4edee8d3c027775fbc3dd243216e8" target="_top" xlink:title=" ">
<polygon fill="white" stroke="#666666" points="688.25,-286 584.5,-286 584.5,-266 688.25,-266 688.25,-286"/>
<text xml:space="preserve" text-anchor="middle" x="636.38" y="-272.5" font-family="Helvetica,sans-Serif" font-size="10.00">pthread_barrier_wait</text>
</a>
</g>
</g>
<!-- Node5&#45;&gt;Node6 -->
<g id="edge5_Node000005_Node000006" class="edge">
<title>Node5&#45;&gt;Node6</title>
<g id="a_edge5_Node000005_Node000006"><a xlink:title=" ">
<path fill="none" stroke="#63b8ff" d="M548.7,-276C556.67,-276 564.81,-276 572.76,-276"/>
<polygon fill="#63b8ff" stroke="#63b8ff" points="572.71,-279.5 582.71,-276 572.71,-272.5 572.71,-279.5"/>
</a>
</g>
</g>
<!-- Node9 -->
<g id="Node000009" class="node">
<title>Node9</title>
<g id="a_Node000009"><a xlink:href="../../d6/d8c/SDL__memset_8c.html#aa470f523bb3aef22ee14757d45ab934f" target="_top" xlink:title=" ">
<polygon fill="white" stroke="#666666" points="662,-210 610.75,-210 610.75,-190 662,-190 662,-210"/>
<text xml:space="preserve" text-anchor="middle" x="636.38" y="-196.5" font-family="Helvetica,sans-Serif" font-size="10.00">memset</text>
</a>
</g>
</g>
<!-- Node8&#45;&gt;Node9 -->
<g id="edge8_Node000008_Node000009" class="edge">
<title>Node8&#45;&gt;Node9</title>
<g id="a_edge8_Node000008_Node000009"><a xlink:title=" ">
<path fill="none" stroke="#63b8ff" d="M519.4,-200C543.27,-200 574.95,-200 599.17,-200"/>
<polygon fill="#63b8ff" stroke="#63b8ff" points="598.88,-203.5 608.88,-200 598.88,-196.5 598.88,-203.5"/>
</a>
</g>
</g>
<!-- Node8&#45;&gt;Node10 -->
<g id="edge9_Node000008_Node000010" class="edge">
<title>Node8&#45;&gt;Node10</title>
<g id="a_edge9_Node000008_Node000010"><a xlink:title=" ">
<path fill="none" stroke="#63b8ff" d="M519.64,-192.53C529.33,-189.68 539.62,-185.9 548.5,-181 575.99,-165.82 602.37,-140.75 618.71,-123.59"/>
<polygon fill="#63b8ff" stroke="#63b8ff" points="621.02,-126.24 625.25,-116.53 615.89,-121.48 621.02,-126.24"/>
</a>
</g>
</g>
<!-- Node11&#45;&gt;Node10 -->
<g id="edge11_Node000011_Node000010" class="edge">
<title>Node11&#45;&gt;Node10</title>
<g id="a_edge11_Node000011_Node000010"><a xlink:title=" ">
<path fill="none" stroke="#63b8ff" d="M519.47,-152.5C528.96,-149.67 539.19,-146.41 548.5,-143 569.04,-135.47 591.67,-125.52 608.68,-117.69"/>
<polygon fill="#63b8ff" stroke="#63b8ff" points="610.01,-120.93 617.59,-113.54 607.05,-114.59 610.01,-120.93"/>
</a>
</g>
</g>
<!-- Node15 -->
<g id="Node000015" class="node">
<title>Node15</title>
<g id="a_Node000015"><a xlink:href="../../d0/d23/hidapi__thread__pthread_8h.html#a318f8f85537c944cd6777b90fe94d4fb" target="_top" xlink:title=" ">
<polygon fill="white" stroke="#666666" points="383.25,-20 264.5,-20 264.5,0 383.25,0 383.25,-20"/>
<text xml:space="preserve" text-anchor="middle" x="323.88" y="-6.5" font-family="Helvetica,sans-Serif" font-size="10.00">hidapi_thread_state_init</text>
</a>
</g>
</g>
<!-- Node14&#45;&gt;Node15 -->
<g id="edge15_Node000014_Node000015" class="edge">
<title>Node14&#45;&gt;Node15</title>
<g id="a_edge15_Node000014_Node000015"><a xlink:title=" ">
<path fill="none" stroke="#63b8ff" d="M228.99,-10C236.53,-10 244.56,-10 252.63,-10"/>
<polygon fill="#63b8ff" stroke="#63b8ff" points="252.51,-13.5 262.51,-10 252.51,-6.5 252.51,-13.5"/>
</a>
</g>
</g>
<!-- Node16 -->
<g id="Node000016" class="node">
<title>Node16</title>
<g id="a_Node000016"><a xlink:href="../../d1/de6/mac_2hid_8c.html#a9a83ea555e8b09d5988a00804ae53e47" target="_top" xlink:title=" ">
<polygon fill="white" stroke="#666666" points="533.12,-20 434.62,-20 434.62,0 533.12,0 533.12,-20"/>
<text xml:space="preserve" text-anchor="middle" x="483.88" y="-6.5" font-family="Helvetica,sans-Serif" font-size="10.00">pthread_barrier_init</text>
</a>
</g>
</g>
<!-- Node15&#45;&gt;Node16 -->
<g id="edge16_Node000015_Node000016" class="edge">
<title>Node15&#45;&gt;Node16</title>
<g id="a_edge16_Node000015_Node000016"><a xlink:title=" ">
<path fill="none" stroke="#63b8ff" d="M383.71,-10C396.6,-10 410.26,-10 423.19,-10"/>
<polygon fill="#63b8ff" stroke="#63b8ff" points="422.81,-13.5 432.81,-10 422.81,-6.5 422.81,-13.5"/>
</a>
</g>
</g>
<!-- Node16&#45;&gt;Node10 -->
<g id="edge17_Node000016_Node000010" class="edge">
<title>Node16&#45;&gt;Node10</title>
<g id="a_edge17_Node000016_Node000010"><a xlink:title=" ">
<path fill="none" stroke="#63b8ff" d="M518.83,-20.49C528.7,-24.15 539.29,-28.69 548.5,-34 574.13,-48.77 599.93,-71.01 616.67,-86.65"/>
<polygon fill="#63b8ff" stroke="#63b8ff" points="614.23,-89.16 623.89,-93.53 619.06,-84.1 614.23,-89.16"/>
</a>
</g>
</g>
</g>
</svg>
