<?xml version="1.0" encoding="UTF-8" standalone="no"?>
<!DOCTYPE svg PUBLIC "-//W3C//DTD SVG 1.1//EN"
 "http://www.w3.org/Graphics/SVG/1.1/DTD/svg11.dtd">
<!-- Generated by graphviz version 13.1.0 (20250701.0955)
 -->
<!-- Title: VkEnumerateInstanceExtensionPropertiesChain Pages: 1 -->
<svg width="233pt" height="114pt"
 viewBox="0.00 0.00 233.00 114.00" xmlns="http://www.w3.org/2000/svg" xmlns:xlink="http://www.w3.org/1999/xlink">
<g id="graph0" class="graph" transform="scale(1 1) rotate(0) translate(4 110)">
<title>VkEnumerateInstanceExtensionPropertiesChain</title>
<!-- Node1 -->
<g id="Node000001" class="node">
<title>Node1</title>
<g id="a_Node000001"><a xlink:title=" ">
<polygon fill="#999999" stroke="#666666" points="156.25,-32 0,-32 0,0 156.25,0 156.25,-32"/>
<text xml:space="preserve" text-anchor="start" x="8" y="-18.5" font-family="Helvetica,sans-Serif" font-size="10.00">VkEnumerateInstanceExtension</text>
<text xml:space="preserve" text-anchor="middle" x="78.12" y="-6.5" font-family="Helvetica,sans-Serif" font-size="10.00">PropertiesChain</text>
</a>
</g>
</g>
<!-- Node1&#45;&gt;Node1 -->
<g id="edge2_Node000001_Node000001" class="edge">
<title>Node1&#45;&gt;Node1</title>
<g id="a_edge2_Node000001_Node000001"><a xlink:title=" ">
<path fill="none" stroke="#9a32cd" stroke-dasharray="5,2" d="M167.85,-21C171.89,-19.73 174.25,-18.06 174.25,-16 174.25,-12.43 167.19,-10.05 156.57,-8.85"/>
<polygon fill="#9a32cd" stroke="#9a32cd" points="167.23,-17.56 158.06,-22.87 168.54,-24.43 167.23,-17.56"/>
</a>
</g>
<text xml:space="preserve" text-anchor="start" x="177.25" y="-12.5" font-family="Helvetica,sans-Serif" font-size="10.00" fill="grey">pNextLink</text>
</g>
<!-- Node2 -->
<g id="Node000002" class="node">
<title>Node2</title>
<g id="a_Node000002"><a xlink:href="../../df/d19/structVkChainHeader.html" target="_top" xlink:title=" ">
<polygon fill="white" stroke="#666666" points="120.62,-106 35.62,-106 35.62,-86 120.62,-86 120.62,-106"/>
<text xml:space="preserve" text-anchor="middle" x="78.12" y="-92.5" font-family="Helvetica,sans-Serif" font-size="10.00">VkChainHeader</text>
</a>
</g>
</g>
<!-- Node2&#45;&gt;Node1 -->
<g id="edge1_Node000001_Node000002" class="edge">
<title>Node2&#45;&gt;Node1</title>
<g id="a_edge1_Node000001_Node000002"><a xlink:title=" ">
<path fill="none" stroke="#9a32cd" stroke-dasharray="5,2" d="M78.12,-74.51C78.12,-61.32 78.12,-44.47 78.12,-32.42"/>
<polygon fill="#9a32cd" stroke="#9a32cd" points="74.63,-74.23 78.13,-84.23 81.63,-74.23 74.63,-74.23"/>
</a>
</g>
<text xml:space="preserve" text-anchor="start" x="81.12" y="-55.5" font-family="Helvetica,sans-Serif" font-size="10.00" fill="grey">header</text>
</g>
</g>
</svg>
