<?xml version="1.0" encoding="UTF-8" standalone="no"?>
<!DOCTYPE svg PUBLIC "-//W3C//DTD SVG 1.1//EN"
 "http://www.w3.org/Graphics/SVG/1.1/DTD/svg11.dtd">
<!-- Generated by graphviz version 13.1.0 (20250701.0955)
 -->
<!-- Title: hid_device_ref::operator= Pages: 1 -->
<svg width="464pt" height="94pt"
 viewBox="0.00 0.00 464.00 94.00" xmlns="http://www.w3.org/2000/svg" xmlns:xlink="http://www.w3.org/1999/xlink">
<g id="graph0" class="graph" transform="scale(1 1) rotate(0) translate(4 90)">
<title>hid_device_ref::operator=</title>
<!-- Node1 -->
<g id="Node000001" class="node">
<title>Node1</title>
<g id="a_Node000001"><a xlink:title=" ">
<polygon fill="#999999" stroke="#666666" points="126.25,-42 0,-42 0,-22 126.25,-22 126.25,-42"/>
<text xml:space="preserve" text-anchor="middle" x="63.12" y="-28.5" font-family="Helvetica,sans-Serif" font-size="10.00">hid_device_ref::operator=</text>
</a>
</g>
</g>
<!-- Node2 -->
<g id="Node000002" class="node">
<title>Node2</title>
<g id="a_Node000002"><a xlink:href="../../d7/dc6/classhid__device__ref.html#ae6df10654526850e5e0f897f32a8f6bd" target="_top" xlink:title=" ">
<polygon fill="white" stroke="#666666" points="291.5,-86 162.25,-86 162.25,-66 291.5,-66 291.5,-86"/>
<text xml:space="preserve" text-anchor="middle" x="226.88" y="-72.5" font-family="Helvetica,sans-Serif" font-size="10.00">hid_device_ref::GetObject</text>
</a>
</g>
</g>
<!-- Node1&#45;&gt;Node2 -->
<g id="edge1_Node000001_Node000002" class="edge">
<title>Node1&#45;&gt;Node2</title>
<g id="a_edge1_Node000001_Node000002"><a xlink:title=" ">
<path fill="none" stroke="#63b8ff" d="M102.46,-42.43C124.64,-48.46 152.78,-56.12 176.59,-62.59"/>
<polygon fill="#63b8ff" stroke="#63b8ff" points="175.51,-65.93 186.08,-65.17 177.35,-59.17 175.51,-65.93"/>
</a>
</g>
</g>
<!-- Node3 -->
<g id="Node000003" class="node">
<title>Node3</title>
<g id="a_Node000003"><a xlink:href="../../d7/dc6/classhid__device__ref.html#a9eecdc7c515031d967305904fc24b826" target="_top" xlink:title=" ">
<polygon fill="white" stroke="#666666" points="275.75,-48 178,-48 178,-16 275.75,-16 275.75,-48"/>
<text xml:space="preserve" text-anchor="start" x="186" y="-34.5" font-family="Helvetica,sans-Serif" font-size="10.00">hid_device_ref::hid</text>
<text xml:space="preserve" text-anchor="middle" x="226.88" y="-22.5" font-family="Helvetica,sans-Serif" font-size="10.00">_device_ref</text>
</a>
</g>
</g>
<!-- Node1&#45;&gt;Node3 -->
<g id="edge2_Node000001_Node000003" class="edge">
<title>Node1&#45;&gt;Node3</title>
<g id="a_edge2_Node000001_Node000003"><a xlink:title=" ">
<path fill="none" stroke="#63b8ff" d="M126.66,-32C139.73,-32 153.46,-32 166.41,-32"/>
<polygon fill="#63b8ff" stroke="#63b8ff" points="166.04,-35.5 176.04,-32 166.04,-28.5 166.04,-35.5"/>
</a>
</g>
</g>
<!-- Node4 -->
<g id="Node000004" class="node">
<title>Node4</title>
<g id="a_Node000004"><a xlink:href="../../d7/dc6/classhid__device__ref.html#adeaee6dadd7cbe237a50e1b956ac8285" target="_top" xlink:title=" ">
<polygon fill="white" stroke="#666666" points="456,-20 327.5,-20 327.5,0 456,0 456,-20"/>
<text xml:space="preserve" text-anchor="middle" x="391.75" y="-6.5" font-family="Helvetica,sans-Serif" font-size="10.00">hid_device_ref::SetObject</text>
</a>
</g>
</g>
<!-- Node1&#45;&gt;Node4 -->
<g id="edge4_Node000001_Node000004" class="edge">
<title>Node1&#45;&gt;Node4</title>
<g id="a_edge4_Node000001_Node000004"><a xlink:title=" ">
<path fill="none" stroke="#63b8ff" d="M96.44,-21.6C115.39,-16.05 139.92,-9.8 162.25,-7 213.31,-0.6 271.29,-1.45 316.07,-3.86"/>
<polygon fill="#63b8ff" stroke="#63b8ff" points="315.75,-7.34 325.94,-4.43 316.16,-0.35 315.75,-7.34"/>
</a>
</g>
</g>
<!-- Node3&#45;&gt;Node4 -->
<g id="edge3_Node000003_Node000004" class="edge">
<title>Node3&#45;&gt;Node4</title>
<g id="a_edge3_Node000003_Node000004"><a xlink:title=" ">
<path fill="none" stroke="#63b8ff" d="M275.86,-25.52C288.4,-23.83 302.21,-21.96 315.79,-20.13"/>
<polygon fill="#63b8ff" stroke="#63b8ff" points="316.16,-23.61 325.6,-18.8 315.22,-16.67 316.16,-23.61"/>
</a>
</g>
</g>
</g>
</svg>
