<?xml version="1.0" encoding="UTF-8" standalone="no"?>
<!DOCTYPE svg PUBLIC "-//W3C//DTD SVG 1.1//EN"
 "http://www.w3.org/Graphics/SVG/1.1/DTD/svg11.dtd">
<!-- Generated by graphviz version 13.1.0 (20250701.0955)
 -->
<!-- Title: hid_device_ref::SetObject Pages: 1 -->
<svg width="439pt" height="200pt"
 viewBox="0.00 0.00 439.00 200.00" xmlns="http://www.w3.org/2000/svg" xmlns:xlink="http://www.w3.org/1999/xlink">
<g id="graph0" class="graph" transform="scale(1 1) rotate(0) translate(4 196)">
<title>hid_device_ref::SetObject</title>
<!-- Node1 -->
<g id="Node000001" class="node">
<title>Node1</title>
<g id="a_Node000001"><a xlink:title=" ">
<polygon fill="#999999" stroke="#666666" points="430.5,-114 302,-114 302,-94 430.5,-94 430.5,-114"/>
<text xml:space="preserve" text-anchor="middle" x="366.25" y="-100.5" font-family="Helvetica,sans-Serif" font-size="10.00">hid_device_ref::SetObject</text>
</a>
</g>
</g>
<!-- Node2 -->
<g id="Node000002" class="node">
<title>Node2</title>
<g id="a_Node000002"><a xlink:href="../../d7/dc6/classhid__device__ref.html#abf98cb5b120764b650bc2ab8098755e5" target="_top" xlink:title=" ">
<polygon fill="white" stroke="#666666" points="112,-192 14.25,-192 14.25,-160 112,-160 112,-192"/>
<text xml:space="preserve" text-anchor="start" x="22.25" y="-178.5" font-family="Helvetica,sans-Serif" font-size="10.00">hid_device_ref::hid</text>
<text xml:space="preserve" text-anchor="middle" x="63.12" y="-166.5" font-family="Helvetica,sans-Serif" font-size="10.00">_device_ref</text>
</a>
</g>
</g>
<!-- Node1&#45;&gt;Node2 -->
<g id="edge1_Node000001_Node000002" class="edge">
<title>Node1&#45;&gt;Node2</title>
<g id="a_edge1_Node000001_Node000002"><a xlink:title=" ">
<path fill="none" stroke="#63b8ff" d="M333.83,-119.25C314.64,-127.99 289.38,-138.48 266,-145 214.43,-159.39 153.46,-167.59 112.12,-171.89"/>
<polygon fill="#63b8ff" stroke="#63b8ff" points="335.12,-122.51 342.72,-115.12 332.18,-116.16 335.12,-122.51"/>
</a>
</g>
</g>
<!-- Node3 -->
<g id="Node000003" class="node">
<title>Node3</title>
<g id="a_Node000003"><a xlink:href="../../d7/dc6/classhid__device__ref.html#a9eecdc7c515031d967305904fc24b826" target="_top" xlink:title=" ">
<polygon fill="white" stroke="#666666" points="263,-120 165.25,-120 165.25,-88 263,-88 263,-120"/>
<text xml:space="preserve" text-anchor="start" x="173.25" y="-106.5" font-family="Helvetica,sans-Serif" font-size="10.00">hid_device_ref::hid</text>
<text xml:space="preserve" text-anchor="middle" x="214.12" y="-94.5" font-family="Helvetica,sans-Serif" font-size="10.00">_device_ref</text>
</a>
</g>
</g>
<!-- Node1&#45;&gt;Node3 -->
<g id="edge2_Node000001_Node000003" class="edge">
<title>Node1&#45;&gt;Node3</title>
<g id="a_edge2_Node000001_Node000003"><a xlink:title=" ">
<path fill="none" stroke="#63b8ff" d="M290.12,-104C281.03,-104 271.95,-104 263.4,-104"/>
<polygon fill="#63b8ff" stroke="#63b8ff" points="290.07,-107.5 300.07,-104 290.07,-100.5 290.07,-107.5"/>
</a>
</g>
</g>
<!-- Node4 -->
<g id="Node000004" class="node">
<title>Node4</title>
<g id="a_Node000004"><a xlink:href="../../d7/dc6/classhid__device__ref.html#ac24a19cfe21962f2dd85995a404b2e72" target="_top" xlink:title=" ">
<polygon fill="white" stroke="#666666" points="126.25,-133 0,-133 0,-113 126.25,-113 126.25,-133"/>
<text xml:space="preserve" text-anchor="middle" x="63.12" y="-119.5" font-family="Helvetica,sans-Serif" font-size="10.00">hid_device_ref::operator=</text>
</a>
</g>
</g>
<!-- Node1&#45;&gt;Node4 -->
<g id="edge6_Node000001_Node000004" class="edge">
<title>Node1&#45;&gt;Node4</title>
<g id="a_edge6_Node000001_Node000004"><a xlink:title=" ">
<path fill="none" stroke="#63b8ff" d="M321.72,-117.44C304.54,-122.09 284.52,-126.7 266,-129 219.55,-134.76 166.64,-132.88 126.65,-129.76"/>
<polygon fill="#63b8ff" stroke="#63b8ff" points="322.41,-120.88 331.1,-114.81 320.52,-114.14 322.41,-120.88"/>
</a>
</g>
</g>
<!-- Node5 -->
<g id="Node000005" class="node">
<title>Node5</title>
<g id="a_Node000005"><a xlink:href="../../d7/dc6/classhid__device__ref.html#a5a63be5d81686a798a428715de591f6a" target="_top" xlink:title=" ">
<polygon fill="white" stroke="#666666" points="126.25,-92 0,-92 0,-72 126.25,-72 126.25,-92"/>
<text xml:space="preserve" text-anchor="middle" x="63.12" y="-78.5" font-family="Helvetica,sans-Serif" font-size="10.00">hid_device_ref::operator=</text>
</a>
</g>
</g>
<!-- Node1&#45;&gt;Node5 -->
<g id="edge7_Node000001_Node000005" class="edge">
<title>Node1&#45;&gt;Node5</title>
<g id="a_edge7_Node000001_Node000005"><a xlink:title=" ">
<path fill="none" stroke="#63b8ff" d="M321.72,-90.56C304.54,-85.91 284.52,-81.3 266,-79 219.56,-73.24 166.66,-74.3 126.66,-76.64"/>
<polygon fill="#63b8ff" stroke="#63b8ff" points="320.52,-93.86 331.1,-93.19 322.41,-87.12 320.52,-93.86"/>
</a>
</g>
</g>
<!-- Node6 -->
<g id="Node000006" class="node">
<title>Node6</title>
<g id="a_Node000006"><a xlink:href="../../d7/dc6/classhid__device__ref.html#ad7b2735802a6bcd26118155e0726a92d" target="_top" xlink:title=" ">
<polygon fill="white" stroke="#666666" points="266,-32 162.25,-32 162.25,0 266,0 266,-32"/>
<text xml:space="preserve" text-anchor="start" x="170.25" y="-18.5" font-family="Helvetica,sans-Serif" font-size="10.00">hid_device_ref::~hid</text>
<text xml:space="preserve" text-anchor="middle" x="214.12" y="-6.5" font-family="Helvetica,sans-Serif" font-size="10.00">_device_ref</text>
</a>
</g>
</g>
<!-- Node1&#45;&gt;Node6 -->
<g id="edge8_Node000001_Node000006" class="edge">
<title>Node1&#45;&gt;Node6</title>
<g id="a_edge8_Node000001_Node000006"><a xlink:title=" ">
<path fill="none" stroke="#63b8ff" d="M337.52,-87.75C310.65,-71.99 270.09,-48.22 243.13,-32.41"/>
<polygon fill="#63b8ff" stroke="#63b8ff" points="335.74,-90.76 346.13,-92.79 339.28,-84.72 335.74,-90.76"/>
</a>
</g>
</g>
<!-- Node3&#45;&gt;Node2 -->
<g id="edge3_Node000003_Node000002" class="edge">
<title>Node3&#45;&gt;Node2</title>
<g id="a_edge3_Node000003_Node000002"><a xlink:title=" ">
<path fill="none" stroke="#63b8ff" d="M169.23,-125.21C146.49,-136.2 119.16,-149.41 98.06,-159.6"/>
<polygon fill="#63b8ff" stroke="#63b8ff" points="170.47,-128.5 177.95,-121 167.43,-122.2 170.47,-128.5"/>
</a>
</g>
</g>
<!-- Node3&#45;&gt;Node4 -->
<g id="edge4_Node000003_Node000004" class="edge">
<title>Node3&#45;&gt;Node4</title>
<g id="a_edge4_Node000003_Node000004"><a xlink:title=" ">
<path fill="none" stroke="#63b8ff" d="M154,-111.54C145.03,-112.68 135.74,-113.87 126.69,-115.02"/>
<polygon fill="#63b8ff" stroke="#63b8ff" points="154.18,-115.04 163.66,-110.31 153.3,-108.1 154.18,-115.04"/>
</a>
</g>
</g>
<!-- Node3&#45;&gt;Node5 -->
<g id="edge5_Node000003_Node000005" class="edge">
<title>Node3&#45;&gt;Node5</title>
<g id="a_edge5_Node000003_Node000005"><a xlink:title=" ">
<path fill="none" stroke="#63b8ff" d="M154,-95.27C145.03,-93.94 135.74,-92.57 126.69,-91.24"/>
<polygon fill="#63b8ff" stroke="#63b8ff" points="153.26,-98.7 163.66,-96.7 154.28,-91.77 153.26,-98.7"/>
</a>
</g>
</g>
</g>
</svg>
