<?xml version="1.0" encoding="UTF-8" standalone="no"?>
<!DOCTYPE svg PUBLIC "-//W3C//DTD SVG 1.1//EN"
 "http://www.w3.org/Graphics/SVG/1.1/DTD/svg11.dtd">
<!-- Generated by graphviz version 13.1.0 (20250701.0955)
 -->
<!-- Title: hid_device_ref::hid_device_ref Pages: 1 -->
<svg width="436pt" height="94pt"
 viewBox="0.00 0.00 436.00 94.00" xmlns="http://www.w3.org/2000/svg" xmlns:xlink="http://www.w3.org/1999/xlink">

<svg id="main" version="1.1" xmlns="http://www.w3.org/2000/svg" xmlns:xlink="http://www.w3.org/1999/xlink" xml:space="preserve">

<style type="text/css"><![CDATA[
.node, .edge {opacity: 0.7;}
.node.selected, .edge.selected {opacity: 1;}
.edge:hover path { stroke: red; }
.edge:hover polygon { stroke: red; fill: red; }
]]></style>
<script type="application/ecmascript" xlink:href="../../svg.min.js"/>
<svg id="graph" class="graph">
<g id="graph0" class="graph" transform="scale(1 1) rotate(0) translate(4 90)">
<title>hid_device_ref::hid_device_ref</title>
<!-- Node1 -->
<g id="Node000001" class="node">
<title>Node1</title>
<g id="a_Node000001"><a xlink:title=" ">
<polygon fill="#999999" stroke="#666666" points="97.75,-48 0,-48 0,-16 97.75,-16 97.75,-48"/>
<text xml:space="preserve" text-anchor="start" x="8" y="-34.5" font-family="Helvetica,sans-Serif" font-size="10.00">hid_device_ref::hid</text>
<text xml:space="preserve" text-anchor="middle" x="48.88" y="-22.5" font-family="Helvetica,sans-Serif" font-size="10.00">_device_ref</text>
</a>
</g>
</g>
<!-- Node2 -->
<g id="Node000002" class="node">
<title>Node2</title>
<g id="a_Node000002"><a xlink:href="../../d7/dc6/classhid__device__ref.html#ae6df10654526850e5e0f897f32a8f6bd" target="_top" xlink:title=" ">
<polygon fill="white" stroke="#666666" points="263,-86 133.75,-86 133.75,-66 263,-66 263,-86"/>
<text xml:space="preserve" text-anchor="middle" x="198.38" y="-72.5" font-family="Helvetica,sans-Serif" font-size="10.00">hid_device_ref::GetObject</text>
</a>
</g>
</g>
<!-- Node1&#45;&gt;Node2 -->
<g id="edge1_Node000001_Node000002" class="edge">
<title>Node1&#45;&gt;Node2</title>
<g id="a_edge1_Node000001_Node000002"><a xlink:title=" ">
<path fill="none" stroke="#63b8ff" d="M98.17,-46.41C115.4,-51.55 134.75,-57.32 151.74,-62.39"/>
<polygon fill="#63b8ff" stroke="#63b8ff" points="150.5,-65.67 161.08,-65.17 152.5,-58.96 150.5,-65.67"/>
</a>
</g>
</g>
<!-- Node3 -->
<g id="Node000003" class="node">
<title>Node3</title>
<g id="a_Node000003"><a xlink:href="../../d7/dc6/classhid__device__ref.html#a9eecdc7c515031d967305904fc24b826" target="_top" xlink:title=" ">
<polygon fill="white" stroke="#666666" points="247.25,-48 149.5,-48 149.5,-16 247.25,-16 247.25,-48"/>
<text xml:space="preserve" text-anchor="start" x="157.5" y="-34.5" font-family="Helvetica,sans-Serif" font-size="10.00">hid_device_ref::hid</text>
<text xml:space="preserve" text-anchor="middle" x="198.38" y="-22.5" font-family="Helvetica,sans-Serif" font-size="10.00">_device_ref</text>
</a>
</g>
</g>
<!-- Node1&#45;&gt;Node3 -->
<g id="edge2_Node000001_Node000003" class="edge">
<title>Node1&#45;&gt;Node3</title>
<g id="a_edge2_Node000001_Node000003"><a xlink:title=" ">
<path fill="none" stroke="#63b8ff" d="M98.17,-32C110.84,-32 124.66,-32 137.84,-32"/>
<polygon fill="#63b8ff" stroke="#63b8ff" points="137.71,-35.5 147.71,-32 137.71,-28.5 137.71,-35.5"/>
</a>
</g>
</g>
<!-- Node4 -->
<g id="Node000004" class="node">
<title>Node4</title>
<g id="a_Node000004"><a xlink:href="../../d7/dc6/classhid__device__ref.html#adeaee6dadd7cbe237a50e1b956ac8285" target="_top" xlink:title=" ">
<polygon fill="white" stroke="#666666" points="427.5,-20 299,-20 299,0 427.5,0 427.5,-20"/>
<text xml:space="preserve" text-anchor="middle" x="363.25" y="-6.5" font-family="Helvetica,sans-Serif" font-size="10.00">hid_device_ref::SetObject</text>
</a>
</g>
</g>
<!-- Node1&#45;&gt;Node4 -->
<g id="edge4_Node000001_Node000004" class="edge">
<title>Node1&#45;&gt;Node4</title>
<g id="a_edge4_Node000001_Node000004"><a xlink:title=" ">
<path fill="none" stroke="#63b8ff" d="M96.36,-15.54C108.38,-12.01 121.42,-8.8 133.75,-7 184.67,0.43 242.65,-0.44 287.47,-3.11"/>
<polygon fill="#63b8ff" stroke="#63b8ff" points="287.14,-6.59 297.35,-3.74 287.59,0.39 287.14,-6.59"/>
</a>
</g>
</g>
<!-- Node3&#45;&gt;Node4 -->
<g id="edge3_Node000003_Node000004" class="edge">
<title>Node3&#45;&gt;Node4</title>
<g id="a_edge3_Node000003_Node000004"><a xlink:title=" ">
<path fill="none" stroke="#63b8ff" d="M247.36,-25.52C259.9,-23.83 273.71,-21.96 287.29,-20.13"/>
<polygon fill="#63b8ff" stroke="#63b8ff" points="287.66,-23.61 297.1,-18.8 286.72,-16.67 287.66,-23.61"/>
</a>
</g>
</g>
</g>
</svg>
</svg>

<style type='text/css'>
<![CDATA[
[data-mouse-over-selected='false'] { opacity: 0.7; }
[data-mouse-over-selected='true']  { opacity: 1.0; }
]]>
</style>
<script type="application/ecmascript"><![CDATA[
document.addEventListener('DOMContentLoaded', (event) => {
  highlightEdges();
  highlightAdjacentNodes();
});
]]></script>
</svg>
