<?xml version="1.0" encoding="UTF-8" standalone="no"?>
<!DOCTYPE svg PUBLIC "-//W3C//DTD SVG 1.1//EN"
 "http://www.w3.org/Graphics/SVG/1.1/DTD/svg11.dtd">
<!-- Generated by graphviz version 13.1.0 (20250701.0955)
 -->
<!-- Title: SDL_GetTextMimeTypes Pages: 1 -->
<svg width="288pt" height="104pt"
 viewBox="0.00 0.00 288.00 104.00" xmlns="http://www.w3.org/2000/svg" xmlns:xlink="http://www.w3.org/1999/xlink">
<g id="graph0" class="graph" transform="scale(1 1) rotate(0) translate(4 100)">
<title>SDL_GetTextMimeTypes</title>
<!-- Node1 -->
<g id="Node000001" class="node">
<title>Node1</title>
<g id="a_Node000001"><a xlink:title=" ">
<polygon fill="#999999" stroke="#666666" points="280.25,-58 154.75,-58 154.75,-38 280.25,-38 280.25,-58"/>
<text xml:space="preserve" text-anchor="middle" x="217.5" y="-44.5" font-family="Helvetica,sans-Serif" font-size="10.00">SDL_GetTextMimeTypes</text>
</a>
</g>
</g>
<!-- Node2 -->
<g id="Node000002" class="node">
<title>Node2</title>
<g id="a_Node000002"><a xlink:href="../../d6/da1/SDL__clipboard_8c.html#a334bdcfb993681e6cb9906c59dd766b5" target="_top" xlink:title=" ">
<polygon fill="white" stroke="#666666" points="117.62,-96 1.12,-96 1.12,-76 117.62,-76 117.62,-96"/>
<text xml:space="preserve" text-anchor="middle" x="59.38" y="-82.5" font-family="Helvetica,sans-Serif" font-size="10.00">SDL_GetClipboardText</text>
</a>
</g>
</g>
<!-- Node1&#45;&gt;Node2 -->
<g id="edge1_Node000001_Node000002" class="edge">
<title>Node1&#45;&gt;Node2</title>
<g id="a_edge1_Node000001_Node000002"><a xlink:title=" ">
<path fill="none" stroke="#63b8ff" d="M162.34,-61.18C143.03,-65.88 121.55,-71.11 103.31,-75.55"/>
<polygon fill="#63b8ff" stroke="#63b8ff" points="163.07,-64.61 171.95,-58.84 161.41,-57.81 163.07,-64.61"/>
</a>
</g>
</g>
<!-- Node3 -->
<g id="Node000003" class="node">
<title>Node3</title>
<g id="a_Node000003"><a xlink:href="../../d6/da1/SDL__clipboard_8c.html#a6ddbe7e6b10133618a3a66817a9a7283" target="_top" xlink:title=" ">
<polygon fill="white" stroke="#666666" points="118.75,-58 0,-58 0,-38 118.75,-38 118.75,-58"/>
<text xml:space="preserve" text-anchor="middle" x="59.38" y="-44.5" font-family="Helvetica,sans-Serif" font-size="10.00">SDL_HasClipboardText</text>
</a>
</g>
</g>
<!-- Node1&#45;&gt;Node3 -->
<g id="edge2_Node000001_Node000003" class="edge">
<title>Node1&#45;&gt;Node3</title>
<g id="a_edge2_Node000001_Node000003"><a xlink:title=" ">
<path fill="none" stroke="#63b8ff" d="M143.04,-48C134.98,-48 126.86,-48 119.01,-48"/>
<polygon fill="#63b8ff" stroke="#63b8ff" points="142.83,-51.5 152.83,-48 142.83,-44.5 142.83,-51.5"/>
</a>
</g>
</g>
<!-- Node4 -->
<g id="Node000004" class="node">
<title>Node4</title>
<g id="a_Node000004"><a xlink:href="../../d6/da1/SDL__clipboard_8c.html#ab4ab3c8cbbd94aef84dd792c7518de2f" target="_top" xlink:title=" ">
<polygon fill="white" stroke="#666666" points="117.25,-20 1.5,-20 1.5,0 117.25,0 117.25,-20"/>
<text xml:space="preserve" text-anchor="middle" x="59.38" y="-6.5" font-family="Helvetica,sans-Serif" font-size="10.00">SDL_SetClipboardText</text>
</a>
</g>
</g>
<!-- Node1&#45;&gt;Node4 -->
<g id="edge3_Node000001_Node000004" class="edge">
<title>Node1&#45;&gt;Node4</title>
<g id="a_edge3_Node000001_Node000004"><a xlink:title=" ">
<path fill="none" stroke="#63b8ff" d="M162.34,-34.82C143.03,-30.12 121.55,-24.89 103.31,-20.45"/>
<polygon fill="#63b8ff" stroke="#63b8ff" points="161.41,-38.19 171.95,-37.16 163.07,-31.39 161.41,-38.19"/>
</a>
</g>
</g>
</g>
</svg>
