<?xml version="1.0" encoding="UTF-8" standalone="no"?>
<!DOCTYPE svg PUBLIC "-//W3C//DTD SVG 1.1//EN"
 "http://www.w3.org/Graphics/SVG/1.1/DTD/svg11.dtd">
<!-- Generated by graphviz version 13.1.0 (20250701.0955)
 -->
<!-- Title: SDL_IsTextMimeType Pages: 1 -->
<!--zoomable 123 -->

<svg id="main" version="1.1" xmlns="http://www.w3.org/2000/svg" xmlns:xlink="http://www.w3.org/1999/xlink" xml:space="preserve" onload="init(evt)">

<style type="text/css"><![CDATA[
.node, .edge {opacity: 0.7;}
.node.selected, .edge.selected {opacity: 1;}
.edge:hover path { stroke: red; }
.edge:hover polygon { stroke: red; fill: red; }
]]></style>

<defs>
  <circle id="rim" cx="0" cy="0" r="7"/>
  <circle id="rim2" cx="0" cy="0" r="3.5"/>
  <g id="zoomPlus">
    <use xlink:href="#rim" fill="#404040"><set attributeName="fill" to="#808080" begin="zoomplus.mouseover" end="zoomplus.mouseout"/></use>
    <path d="M-4,0h8M0,-4v8" fill="none" stroke="white" stroke-width="1.5" pointer-events="none"/>
  </g>
  <g id="zoomMin">
    <use xlink:href="#rim" fill="#404040"><set attributeName="fill" to="#808080" begin="zoomminus.mouseover" end="zoomminus.mouseout"/></use>
    <path d="M-4,0h8" fill="none" stroke="white" stroke-width="1.5" pointer-events="none"/>
  </g>
  <g id="arrowUp" transform="translate(30 24)">
    <use xlink:href="#rim"/>
    <path pointer-events="none" fill="none" stroke="white" stroke-width="1.5" d="M0,-3.0v7 M-2.5,-0.5L0,-3.0L2.5,-0.5"/>
  </g>
  <g id="arrowRight" transform="rotate(90) translate(36 -43)">
    <use xlink:href="#rim"/>
    <path pointer-events="none" fill="none" stroke="white" stroke-width="1.5" d="M0,-3.0v7 M-2.5,-0.5L0,-3.0L2.5,-0.5"/>
  </g>
  <g id="arrowDown" transform="rotate(180) translate(-30 -48)">
    <use xlink:href="#rim"/>
    <path pointer-events="none" fill="none" stroke="white" stroke-width="1.5" d="M0,-3.0v7 M-2.5,-0.5L0,-3.0L2.5,-0.5"/>
  </g>
  <g id="arrowLeft" transform="rotate(270) translate(-36 17)">
    <use xlink:href="#rim"/>
    <path pointer-events="none" fill="none" stroke="white" stroke-width="1.5" d="M0,-3.0v7 M-2.5,-0.5L0,-3.0L2.5,-0.5"/>
  </g>
  <g id="resetDef">
    <use xlink:href="#rim2" fill="#404040"><set attributeName="fill" to="#808080" begin="reset.mouseover" end="reset.mouseout"/></use>
  </g>
</defs>
<script type="application/ecmascript">
var viewWidth = 592;
var viewHeight = 123;
var sectionId = 'dynsection-26';
</script>
<script type="application/ecmascript" xlink:href="../../svg.min.js"/>
<svg id="graph" class="graph">
<g id="viewport">
<title>SDL_IsTextMimeType</title>
<!-- Node1 -->
<g id="Node000001" class="node">
<title>Node1</title>
<g id="a_Node000001"><a xlink:title=" ">
<polygon fill="#999999" stroke="#666666" points="583.75,-77 471,-77 471,-57 583.75,-57 583.75,-77"/>
<text xml:space="preserve" text-anchor="middle" x="527.38" y="-63.5" font-family="Helvetica,sans-Serif" font-size="10.00">SDL_IsTextMimeType</text>
</a>
</g>
</g>
<!-- Node2 -->
<g id="Node000002" class="node">
<title>Node2</title>
<g id="a_Node000002"><a xlink:href="../../d6/da1/SDL__clipboard_8c.html#af9aaf2b3f04585caac79c6281cc7fdf3" target="_top" xlink:title=" ">
<polygon fill="white" stroke="#666666" points="433.88,-115 315.12,-115 315.12,-95 433.88,-95 433.88,-115"/>
<text xml:space="preserve" text-anchor="middle" x="374.5" y="-101.5" font-family="Helvetica,sans-Serif" font-size="10.00">SDL_GetClipboardData</text>
</a>
</g>
</g>
<!-- Node1&#45;&gt;Node2 -->
<g id="edge1_Node000001_Node000002" class="edge">
<title>Node1&#45;&gt;Node2</title>
<g id="a_edge1_Node000001_Node000002"><a xlink:title=" ">
<path fill="none" stroke="#63b8ff" d="M473.78,-80.25C455.18,-84.93 434.54,-90.13 416.99,-94.55"/>
<polygon fill="#63b8ff" stroke="#63b8ff" points="474.44,-83.69 483.28,-77.85 472.73,-76.9 474.44,-83.69"/>
</a>
</g>
</g>
<!-- Node4 -->
<g id="Node000004" class="node">
<title>Node4</title>
<g id="a_Node000004"><a xlink:href="../../d6/da1/SDL__clipboard_8c.html#acc7f7504e8986db0e959a761b2414ff5" target="_top" xlink:title=" ">
<polygon fill="white" stroke="#666666" points="435,-77 314,-77 314,-57 435,-57 435,-77"/>
<text xml:space="preserve" text-anchor="middle" x="374.5" y="-63.5" font-family="Helvetica,sans-Serif" font-size="10.00">SDL_HasClipboardData</text>
</a>
</g>
</g>
<!-- Node1&#45;&gt;Node4 -->
<g id="edge3_Node000001_Node000004" class="edge">
<title>Node1&#45;&gt;Node4</title>
<g id="a_edge3_Node000001_Node000004"><a xlink:title=" ">
<path fill="none" stroke="#63b8ff" d="M459.13,-67C451.2,-67 443.15,-67 435.33,-67"/>
<polygon fill="#63b8ff" stroke="#63b8ff" points="459.11,-70.5 469.11,-67 459.11,-63.5 459.11,-70.5"/>
</a>
</g>
</g>
<!-- Node6 -->
<g id="Node000006" class="node">
<title>Node6</title>
<g id="a_Node000006"><a xlink:href="../../d6/da1/SDL__clipboard_8c.html#ad3f0bf69fa68149ecc80f81b1b344268" target="_top" xlink:title=" ">
<polygon fill="white" stroke="#666666" points="433.5,-39 315.5,-39 315.5,-19 433.5,-19 433.5,-39"/>
<text xml:space="preserve" text-anchor="middle" x="374.5" y="-25.5" font-family="Helvetica,sans-Serif" font-size="10.00">SDL_SetClipboardData</text>
</a>
</g>
</g>
<!-- Node1&#45;&gt;Node6 -->
<g id="edge5_Node000001_Node000006" class="edge">
<title>Node1&#45;&gt;Node6</title>
<g id="a_edge5_Node000001_Node000006"><a xlink:title=" ">
<path fill="none" stroke="#63b8ff" d="M473.78,-53.75C455.18,-49.07 434.54,-43.87 416.99,-39.45"/>
<polygon fill="#63b8ff" stroke="#63b8ff" points="472.73,-57.1 483.28,-56.15 474.44,-50.31 472.73,-57.1"/>
</a>
</g>
</g>
<!-- Node3 -->
<g id="Node000003" class="node">
<title>Node3</title>
<g id="a_Node000003"><a xlink:href="../../d6/da1/SDL__clipboard_8c.html#a334bdcfb993681e6cb9906c59dd766b5" target="_top" xlink:title=" ">
<polygon fill="white" stroke="#666666" points="273.12,-115 156.62,-115 156.62,-95 273.12,-95 273.12,-115"/>
<text xml:space="preserve" text-anchor="middle" x="214.88" y="-101.5" font-family="Helvetica,sans-Serif" font-size="10.00">SDL_GetClipboardText</text>
</a>
</g>
</g>
<!-- Node2&#45;&gt;Node3 -->
<g id="edge2_Node000002_Node000003" class="edge">
<title>Node2&#45;&gt;Node3</title>
<g id="a_edge2_Node000002_Node000003"><a xlink:title=" ">
<path fill="none" stroke="#63b8ff" d="M303.6,-105C293.56,-105 283.33,-105 273.57,-105"/>
<polygon fill="#63b8ff" stroke="#63b8ff" points="303.29,-108.5 313.29,-105 303.29,-101.5 303.29,-108.5"/>
</a>
</g>
</g>
<!-- Node5 -->
<g id="Node000005" class="node">
<title>Node5</title>
<g id="a_Node000005"><a xlink:href="../../d6/da1/SDL__clipboard_8c.html#a6ddbe7e6b10133618a3a66817a9a7283" target="_top" xlink:title=" ">
<polygon fill="white" stroke="#666666" points="274.25,-77 155.5,-77 155.5,-57 274.25,-57 274.25,-77"/>
<text xml:space="preserve" text-anchor="middle" x="214.88" y="-63.5" font-family="Helvetica,sans-Serif" font-size="10.00">SDL_HasClipboardText</text>
</a>
</g>
</g>
<!-- Node4&#45;&gt;Node5 -->
<g id="edge4_Node000004_Node000005" class="edge">
<title>Node4&#45;&gt;Node5</title>
<g id="a_edge4_Node000004_Node000005"><a xlink:title=" ">
<path fill="none" stroke="#63b8ff" d="M302.57,-67C293.19,-67 283.65,-67 274.51,-67"/>
<polygon fill="#63b8ff" stroke="#63b8ff" points="302.4,-70.5 312.4,-67 302.4,-63.5 302.4,-70.5"/>
</a>
</g>
</g>
<!-- Node7 -->
<g id="Node000007" class="node">
<title>Node7</title>
<g id="a_Node000007"><a xlink:href="../../d6/da1/SDL__clipboard_8c.html#a9aa3cee0f84da11fa491ad40ba57a5c0" target="_top" xlink:title=" ">
<polygon fill="white" stroke="#666666" points="278,-39 151.75,-39 151.75,-19 278,-19 278,-39"/>
<text xml:space="preserve" text-anchor="middle" x="214.88" y="-25.5" font-family="Helvetica,sans-Serif" font-size="10.00">SDL_ClearClipboardData</text>
</a>
</g>
</g>
<!-- Node6&#45;&gt;Node7 -->
<g id="edge6_Node000006_Node000007" class="edge">
<title>Node6&#45;&gt;Node7</title>
<g id="a_edge6_Node000006_Node000007"><a xlink:title=" ">
<path fill="none" stroke="#63b8ff" d="M303.83,-22.29C295.35,-22.22 286.74,-22.24 278.38,-22.38"/>
<polygon fill="#63b8ff" stroke="#63b8ff" points="303.69,-25.79 313.74,-22.44 303.79,-18.79 303.69,-25.79"/>
</a>
</g>
</g>
<!-- Node8 -->
<g id="Node000008" class="node">
<title>Node8</title>
<g id="a_Node000008"><a xlink:href="../../d6/da1/SDL__clipboard_8c.html#ab4ab3c8cbbd94aef84dd792c7518de2f" target="_top" xlink:title=" ">
<polygon fill="white" stroke="#666666" points="115.75,-20 0,-20 0,0 115.75,0 115.75,-20"/>
<text xml:space="preserve" text-anchor="middle" x="57.88" y="-6.5" font-family="Helvetica,sans-Serif" font-size="10.00">SDL_SetClipboardText</text>
</a>
</g>
</g>
<!-- Node6&#45;&gt;Node8 -->
<g id="edge9_Node000006_Node000008" class="edge">
<title>Node6&#45;&gt;Node8</title>
<g id="a_edge9_Node000006_Node000008"><a xlink:title=" ">
<path fill="none" stroke="#63b8ff" d="M319.47,-16.33C306,-13.71 291.54,-11.33 278,-10 223.29,-4.61 160.53,-5.31 116.24,-6.93"/>
<polygon fill="#63b8ff" stroke="#63b8ff" points="318.53,-19.71 329.02,-18.28 319.92,-12.85 318.53,-19.71"/>
</a>
</g>
</g>
<!-- Node7&#45;&gt;Node6 -->
<g id="edge7_Node000007_Node000006" class="edge">
<title>Node7&#45;&gt;Node6</title>
<g id="a_edge7_Node000007_Node000006"><a xlink:title=" ">
<path fill="none" stroke="#63b8ff" d="M289.61,-35.74C298.21,-35.78 306.9,-35.71 315.25,-35.54"/>
<polygon fill="#63b8ff" stroke="#63b8ff" points="289.93,-32.24 279.89,-35.64 289.86,-39.24 289.93,-32.24"/>
</a>
</g>
</g>
<!-- Node7&#45;&gt;Node8 -->
<g id="edge8_Node000007_Node000008" class="edge">
<title>Node7&#45;&gt;Node8</title>
<g id="a_edge8_Node000007_Node000008"><a xlink:title=" ">
<path fill="none" stroke="#63b8ff" d="M140.03,-19.95C132.02,-18.97 123.96,-17.98 116.2,-17.03"/>
<polygon fill="#63b8ff" stroke="#63b8ff" points="139.42,-23.4 149.78,-21.14 140.28,-16.45 139.42,-23.4"/>
</a>
</g>
</g>
</g>
</svg>

<g id="navigator" transform="translate(0 0)" fill="#404254">
  <rect fill="#f2f5e9" fill-opacity="0.5" stroke="#606060" stroke-width=".5" x="0" y="0" width="60" height="60"/>
  <use id="zoomplus" xlink:href="#zoomPlus" x="17" y="9" onmousedown="handleZoom(evt,'in')"/>
  <use id="zoomminus" xlink:href="#zoomMin" x="42" y="9" onmousedown="handleZoom(evt,'out')"/>
  <use id="reset" xlink:href="#resetDef" x="30" y="36" onmousedown="handleReset()"/>
   <use id="arrowup" xlink:href="#arrowUp" x="0" y="0" onmousedown="handlePan(0,-1)"/>
  <use id="arrowright" xlink:href="#arrowRight" x="0" y="0" onmousedown="handlePan(1,0)"/>
  <use id="arrowdown" xlink:href="#arrowDown" x="0" y="0" onmousedown="handlePan(0,1)"/>
  <use id="arrowleft" xlink:href="#arrowLeft" x="0" y="0" onmousedown="handlePan(-1,0)"/>
</g>
<svg viewBox="0 0 15 15" width="100%" height="30px" preserveAspectRatio="xMaxYMin meet">
 <g id="arrow_out" transform="scale(0.3 0.3)">
  <a xlink:href="SDL__clipboard_8c_a51adfabdbe9ea85f2340951f34896f03_icgraph_org.svg" target="_base">
   <rect id="button" ry="5" rx="5" y="6" x="6" height="38" width="38"
        fill="#f2f5e9" fill-opacity="0.5" stroke="#606060" stroke-width="1.0"/>
   <path id="arrow"
     d="M 11.500037,31.436501 C 11.940474,20.09759 22.043105,11.32322 32.158766,21.979434 L 37.068811,17.246167 C 37.068811,17.246167 37.088388,32 37.088388,32 L 22.160133,31.978069 C 22.160133,31.978069 26.997745,27.140456 26.997745,27.140456 C 18.528582,18.264221 13.291696,25.230495 11.500037,31.436501 z"
     style="fill:#404040;"/>
  </a>
 </g>
</svg>

<style type='text/css'>
<![CDATA[
[data-mouse-over-selected='false'] { opacity: 0.7; }
[data-mouse-over-selected='true']  { opacity: 1.0; }
]]>
</style>
<script type="application/ecmascript"><![CDATA[
document.addEventListener('DOMContentLoaded', (event) => {
  highlightEdges();
  highlightAdjacentNodes();
});
]]></script>
</svg>
