<?xml version="1.0" encoding="UTF-8" standalone="no"?>
<!DOCTYPE svg PUBLIC "-//W3C//DTD SVG 1.1//EN"
 "http://www.w3.org/Graphics/SVG/1.1/DTD/svg11.dtd">
<!-- Generated by graphviz version 13.1.0 (20250701.0955)
 -->
<!-- Title: SDL_FreeClipboardMimeTypes Pages: 1 -->
<svg width="1947pt" height="626pt"
 viewBox="0.00 0.00 1947.00 626.00" xmlns="http://www.w3.org/2000/svg" xmlns:xlink="http://www.w3.org/1999/xlink">
<g id="graph0" class="graph" transform="scale(1 1) rotate(0) translate(4 622)">
<title>SDL_FreeClipboardMimeTypes</title>
<!-- Node1 -->
<g id="Node000001" class="node">
<title>Node1</title>
<g id="a_Node000001"><a xlink:title=" ">
<polygon fill="#999999" stroke="#666666" points="1939.25,-96 1787.5,-96 1787.5,-76 1939.25,-76 1939.25,-96"/>
<text xml:space="preserve" text-anchor="middle" x="1863.38" y="-82.5" font-family="Helvetica,sans-Serif" font-size="10.00">SDL_FreeClipboardMimeTypes</text>
</a>
</g>
</g>
<!-- Node2 -->
<g id="Node000002" class="node">
<title>Node2</title>
<g id="a_Node000002"><a xlink:href="../../d6/da1/SDL__clipboard_8c.html#a65a73de77c10361c1183d495aee93acc" target="_top" xlink:title=" ">
<polygon fill="white" stroke="#666666" points="1741,-115 1607.25,-115 1607.25,-95 1741,-95 1741,-115"/>
<text xml:space="preserve" text-anchor="middle" x="1674.12" y="-101.5" font-family="Helvetica,sans-Serif" font-size="10.00">SDL_CancelClipboardData</text>
</a>
</g>
</g>
<!-- Node1&#45;&gt;Node2 -->
<g id="edge1_Node000001_Node000002" class="edge">
<title>Node1&#45;&gt;Node2</title>
<g id="a_edge1_Node000001_Node000002"><a xlink:title=" ">
<path fill="none" stroke="#63b8ff" d="M1775.93,-94.77C1764.28,-95.95 1752.49,-97.15 1741.27,-98.29"/>
<polygon fill="#63b8ff" stroke="#63b8ff" points="1775.92,-98.29 1785.52,-93.8 1775.21,-91.33 1775.92,-98.29"/>
</a>
</g>
</g>
<!-- Node39 -->
<g id="Node000039" class="node">
<title>Node39</title>
<g id="a_Node000039"><a xlink:href="../../d6/da1/SDL__clipboard_8c.html#ae5bde1f18db95ff46352ea6d7ea271e7" target="_top" xlink:title=" ">
<polygon fill="white" stroke="#666666" points="1751.5,-77 1596.75,-77 1596.75,-57 1751.5,-57 1751.5,-77"/>
<text xml:space="preserve" text-anchor="middle" x="1674.12" y="-63.5" font-family="Helvetica,sans-Serif" font-size="10.00">SDL_SaveClipboardMimeTypes</text>
</a>
</g>
</g>
<!-- Node1&#45;&gt;Node39 -->
<g id="edge62_Node000001_Node000039" class="edge">
<title>Node1&#45;&gt;Node39</title>
<g id="a_edge62_Node000001_Node000039"><a xlink:title=" ">
<path fill="none" stroke="#63b8ff" d="M1775.8,-77.21C1767.8,-76.4 1759.74,-75.59 1751.85,-74.79"/>
<polygon fill="#63b8ff" stroke="#63b8ff" points="1775.21,-80.67 1785.52,-78.2 1775.92,-73.71 1775.21,-80.67"/>
</a>
</g>
</g>
<!-- Node3 -->
<g id="Node000003" class="node">
<title>Node3</title>
<g id="a_Node000003"><a xlink:href="../../da/d51/SDL__clipboardevents_8c.html#ac69cd2adc682b2e490d38059fb0c54a6" target="_top" xlink:title=" ">
<polygon fill="white" stroke="#666666" points="1560.75,-77 1424.75,-77 1424.75,-57 1560.75,-57 1560.75,-77"/>
<text xml:space="preserve" text-anchor="middle" x="1492.75" y="-63.5" font-family="Helvetica,sans-Serif" font-size="10.00">SDL_SendClipboardUpdate</text>
</a>
</g>
</g>
<!-- Node2&#45;&gt;Node3 -->
<g id="edge2_Node000002_Node000003" class="edge">
<title>Node2&#45;&gt;Node3</title>
<g id="a_edge2_Node000002_Node000003"><a xlink:title=" ">
<path fill="none" stroke="#63b8ff" d="M1612.45,-92.15C1589.87,-87.36 1564.53,-81.99 1543.08,-77.45"/>
<polygon fill="#63b8ff" stroke="#63b8ff" points="1611.65,-95.55 1622.15,-94.2 1613.1,-88.71 1611.65,-95.55"/>
</a>
</g>
</g>
<!-- Node4 -->
<g id="Node000004" class="node">
<title>Node4</title>
<g id="a_Node000004"><a xlink:href="../../d6/da1/SDL__clipboard_8c.html#ad3f0bf69fa68149ecc80f81b1b344268" target="_top" xlink:title=" ">
<polygon fill="white" stroke="#666666" points="1373.38,-39 1255.38,-39 1255.38,-19 1373.38,-19 1373.38,-39"/>
<text xml:space="preserve" text-anchor="middle" x="1314.38" y="-25.5" font-family="Helvetica,sans-Serif" font-size="10.00">SDL_SetClipboardData</text>
</a>
</g>
</g>
<!-- Node2&#45;&gt;Node4 -->
<g id="edge9_Node000002_Node000004" class="edge">
<title>Node2&#45;&gt;Node4</title>
<g id="a_edge9_Node000002_Node000004"><a xlink:title=" ">
<path fill="none" stroke="#63b8ff" d="M1595.53,-113.06C1544.6,-115.06 1477.84,-111.28 1424.75,-86 1403.75,-76 1408.79,-59.82 1388.75,-48 1382.97,-44.59 1376.58,-41.79 1370.05,-39.48"/>
<polygon fill="#63b8ff" stroke="#63b8ff" points="1595.47,-116.57 1605.29,-112.58 1595.13,-109.57 1595.47,-116.57"/>
</a>
</g>
</g>
<!-- Node8 -->
<g id="Node000008" class="node">
<title>Node8</title>
<g id="a_Node000008"><a xlink:href="../../d6/d3d/SDL__video_8c.html#ae86d31ef3c6aad24cd4d0da9a9551906" target="_top" xlink:title=" ">
<polygon fill="white" stroke="#666666" points="1534.5,-314 1451,-314 1451,-294 1534.5,-294 1534.5,-314"/>
<text xml:space="preserve" text-anchor="middle" x="1492.75" y="-300.5" font-family="Helvetica,sans-Serif" font-size="10.00">SDL_VideoQuit</text>
</a>
</g>
</g>
<!-- Node2&#45;&gt;Node8 -->
<g id="edge10_Node000002_Node000008" class="edge">
<title>Node2&#45;&gt;Node8</title>
<g id="a_edge10_Node000002_Node000008"><a xlink:title=" ">
<path fill="none" stroke="#63b8ff" d="M1656.24,-123.74C1619.18,-164.85 1531.74,-261.85 1503.05,-293.68"/>
<polygon fill="#63b8ff" stroke="#63b8ff" points="1658.62,-126.31 1662.72,-116.54 1653.43,-121.63 1658.62,-126.31"/>
</a>
</g>
</g>
<!-- Node3&#45;&gt;Node4 -->
<g id="edge3_Node000003_Node000004" class="edge">
<title>Node3&#45;&gt;Node4</title>
<g id="a_edge3_Node000003_Node000004"><a xlink:title=" ">
<path fill="none" stroke="#63b8ff" d="M1432.09,-54.15C1409.88,-49.36 1384.97,-43.99 1363.88,-39.45"/>
<polygon fill="#63b8ff" stroke="#63b8ff" points="1431.1,-57.51 1441.61,-56.2 1432.57,-50.67 1431.1,-57.51"/>
</a>
</g>
</g>
<!-- Node7 -->
<g id="Node000007" class="node">
<title>Node7</title>
<g id="a_Node000007"><a xlink:href="../../d6/da1/SDL__clipboard_8c.html#a829ed0cebbc7240f77264254b790d349" target="_top" xlink:title=" ">
<polygon fill="white" stroke="#666666" points="1388.75,-77 1240,-77 1240,-57 1388.75,-57 1388.75,-77"/>
<text xml:space="preserve" text-anchor="middle" x="1314.38" y="-63.5" font-family="Helvetica,sans-Serif" font-size="10.00">SDL_SetPrimarySelectionText</text>
</a>
</g>
</g>
<!-- Node3&#45;&gt;Node7 -->
<g id="edge8_Node000003_Node000007" class="edge">
<title>Node3&#45;&gt;Node7</title>
<g id="a_edge8_Node000003_Node000007"><a xlink:title=" ">
<path fill="none" stroke="#63b8ff" d="M1412.89,-67C1405.02,-67 1397.05,-67 1389.24,-67"/>
<polygon fill="#63b8ff" stroke="#63b8ff" points="1412.8,-70.5 1422.8,-67 1412.8,-63.5 1412.8,-70.5"/>
</a>
</g>
</g>
<!-- Node5 -->
<g id="Node000005" class="node">
<title>Node5</title>
<g id="a_Node000005"><a xlink:href="../../d6/da1/SDL__clipboard_8c.html#a9aa3cee0f84da11fa491ad40ba57a5c0" target="_top" xlink:title=" ">
<polygon fill="white" stroke="#666666" points="1204,-39 1077.75,-39 1077.75,-19 1204,-19 1204,-39"/>
<text xml:space="preserve" text-anchor="middle" x="1140.88" y="-25.5" font-family="Helvetica,sans-Serif" font-size="10.00">SDL_ClearClipboardData</text>
</a>
</g>
</g>
<!-- Node4&#45;&gt;Node5 -->
<g id="edge4_Node000004_Node000005" class="edge">
<title>Node4&#45;&gt;Node5</title>
<g id="a_edge4_Node000004_Node000005"><a xlink:title=" ">
<path fill="none" stroke="#63b8ff" d="M1243.95,-22.36C1230.83,-22.18 1217.17,-22.22 1204.28,-22.48"/>
<polygon fill="#63b8ff" stroke="#63b8ff" points="1243.74,-25.86 1253.8,-22.54 1243.87,-18.86 1243.74,-25.86"/>
</a>
</g>
</g>
<!-- Node6 -->
<g id="Node000006" class="node">
<title>Node6</title>
<g id="a_Node000006"><a xlink:href="../../d6/da1/SDL__clipboard_8c.html#ab4ab3c8cbbd94aef84dd792c7518de2f" target="_top" xlink:title=" ">
<polygon fill="white" stroke="#666666" points="1041.75,-20 926,-20 926,0 1041.75,0 1041.75,-20"/>
<text xml:space="preserve" text-anchor="middle" x="983.88" y="-6.5" font-family="Helvetica,sans-Serif" font-size="10.00">SDL_SetClipboardText</text>
</a>
</g>
</g>
<!-- Node4&#45;&gt;Node6 -->
<g id="edge7_Node000004_Node000006" class="edge">
<title>Node4&#45;&gt;Node6</title>
<g id="a_edge7_Node000004_Node000006"><a xlink:title=" ">
<path fill="none" stroke="#63b8ff" d="M1252.57,-16.53C1236.82,-13.82 1219.84,-11.37 1204,-10 1149.23,-5.28 1086.48,-5.89 1042.2,-7.31"/>
<polygon fill="#63b8ff" stroke="#63b8ff" points="1251.84,-19.95 1262.3,-18.26 1253.07,-13.06 1251.84,-19.95"/>
</a>
</g>
</g>
<!-- Node5&#45;&gt;Node4 -->
<g id="edge5_Node000005_Node000004" class="edge">
<title>Node5&#45;&gt;Node4</title>
<g id="a_edge5_Node000005_Node000004"><a xlink:title=" ">
<path fill="none" stroke="#63b8ff" d="M1215.78,-35.69C1229,-35.82 1242.61,-35.73 1255.31,-35.43"/>
<polygon fill="#63b8ff" stroke="#63b8ff" points="1215.85,-32.19 1205.8,-35.54 1215.74,-39.19 1215.85,-32.19"/>
</a>
</g>
</g>
<!-- Node5&#45;&gt;Node6 -->
<g id="edge6_Node000005_Node000006" class="edge">
<title>Node5&#45;&gt;Node6</title>
<g id="a_edge6_Node000005_Node000006"><a xlink:title=" ">
<path fill="none" stroke="#63b8ff" d="M1066.03,-19.95C1058.02,-18.97 1049.96,-17.98 1042.2,-17.03"/>
<polygon fill="#63b8ff" stroke="#63b8ff" points="1065.42,-23.4 1075.78,-21.14 1066.28,-16.45 1065.42,-23.4"/>
</a>
</g>
</g>
<!-- Node9 -->
<g id="Node000009" class="node">
<title>Node9</title>
<g id="a_Node000009"><a xlink:href="../../df/d78/SDL_8c.html#a60aa8a910b5236e9eded873051707374" target="_top" xlink:title=" ">
<polygon fill="white" stroke="#666666" points="1369.25,-314 1259.5,-314 1259.5,-294 1369.25,-294 1369.25,-314"/>
<text xml:space="preserve" text-anchor="middle" x="1314.38" y="-300.5" font-family="Helvetica,sans-Serif" font-size="10.00">SDL_QuitSubSystem</text>
</a>
</g>
</g>
<!-- Node8&#45;&gt;Node9 -->
<g id="edge11_Node000008_Node000009" class="edge">
<title>Node8&#45;&gt;Node9</title>
<g id="a_edge11_Node000008_Node000009"><a xlink:title=" ">
<path fill="none" stroke="#63b8ff" d="M1439.34,-297.77C1417.3,-297.09 1391.65,-297.08 1369.43,-297.72"/>
<polygon fill="#63b8ff" stroke="#63b8ff" points="1439.21,-301.27 1449.33,-298.14 1439.47,-294.27 1439.21,-301.27"/>
</a>
</g>
</g>
<!-- Node31 -->
<g id="Node000031" class="node">
<title>Node31</title>
<g id="a_Node000031"><a xlink:href="../../d6/d3d/SDL__video_8c.html#ac61dc66ab71d039f9b681916d0fcbc6e" target="_top" xlink:title=" ">
<polygon fill="white" stroke="#666666" points="691.38,-466 612.38,-466 612.38,-446 691.38,-446 691.38,-466"/>
<text xml:space="preserve" text-anchor="middle" x="651.88" y="-452.5" font-family="Helvetica,sans-Serif" font-size="10.00">SDL_VideoInit</text>
</a>
</g>
</g>
<!-- Node8&#45;&gt;Node31 -->
<g id="edge61_Node000008_Node000031" class="edge">
<title>Node8&#45;&gt;Node31</title>
<g id="a_edge61_Node000008_Node000031"><a xlink:title=" ">
<path fill="none" stroke="#63b8ff" d="M1473.67,-322.47C1424.91,-370.21 1284.71,-494 1141.88,-494 1141.88,-494 1141.88,-494 982.88,-494 877.05,-494 753.38,-474.48 691.82,-463.42"/>
<polygon fill="#63b8ff" stroke="#63b8ff" points="1476,-325.09 1480.62,-315.55 1471.06,-320.13 1476,-325.09"/>
</a>
</g>
</g>
<!-- Node9&#45;&gt;Node8 -->
<g id="edge60_Node000009_Node000008" class="edge">
<title>Node9&#45;&gt;Node8</title>
<g id="a_edge60_Node000009_Node000008"><a xlink:title=" ">
<path fill="none" stroke="#63b8ff" d="M1380.74,-310.54C1404.23,-310.98 1430.03,-310.73 1450.84,-309.8"/>
<polygon fill="#63b8ff" stroke="#63b8ff" points="1381.02,-307.05 1370.94,-310.31 1380.86,-314.05 1381.02,-307.05"/>
</a>
</g>
</g>
<!-- Node9&#45;&gt;Node9 -->
<g id="edge58_Node000009_Node000009" class="edge">
<title>Node9&#45;&gt;Node9</title>
<g id="a_edge58_Node000009_Node000009"><a xlink:title=" ">
<path fill="none" stroke="#63b8ff" d="M1345.36,-325.11C1341.67,-329.14 1331.34,-332 1314.38,-332 1284.22,-332 1275.03,-322.98 1286.81,-314.34"/>
<polygon fill="#63b8ff" stroke="#63b8ff" points="1348.76,-324.25 1342.4,-315.78 1342.09,-326.37 1348.76,-324.25"/>
</a>
</g>
</g>
<!-- Node10 -->
<g id="Node000010" class="node">
<title>Node10</title>
<g id="a_Node000010"><a xlink:href="../../d6/df9/SDL__joystick_8c.html#a7d2531dc4fbc8de52a29ac3ec171a495" target="_top" xlink:title=" ">
<polygon fill="white" stroke="#666666" points="707.12,-229 596.62,-229 596.62,-209 707.12,-209 707.12,-229"/>
<text xml:space="preserve" text-anchor="middle" x="651.88" y="-215.5" font-family="Helvetica,sans-Serif" font-size="10.00">AttemptSensorFusion</text>
</a>
</g>
</g>
<!-- Node9&#45;&gt;Node10 -->
<g id="edge12_Node000009_Node000010" class="edge">
<title>Node9&#45;&gt;Node10</title>
<g id="a_edge12_Node000009_Node000010"><a xlink:title=" ">
<path fill="none" stroke="#63b8ff" d="M1269.77,-290.39C1249.88,-284.6 1225.92,-278.24 1204,-274 1024.15,-239.24 806.78,-225.76 707.33,-221.13"/>
<polygon fill="#63b8ff" stroke="#63b8ff" points="1268.63,-293.7 1279.21,-293.18 1270.61,-286.99 1268.63,-293.7"/>
</a>
</g>
</g>
<!-- Node13 -->
<g id="Node000013" class="node">
<title>Node13</title>
<g id="a_Node000013"><a xlink:href="../../d6/df9/SDL__joystick_8c.html#ac0722362ebd0ebecebff12499774b471" target="_top" xlink:title=" ">
<polygon fill="white" stroke="#666666" points="1196.88,-182 1084.88,-182 1084.88,-162 1196.88,-162 1196.88,-182"/>
<text xml:space="preserve" text-anchor="middle" x="1140.88" y="-168.5" font-family="Helvetica,sans-Serif" font-size="10.00">CleanupSensorFusion</text>
</a>
</g>
</g>
<!-- Node9&#45;&gt;Node13 -->
<g id="edge15_Node000009_Node000013" class="edge">
<title>Node9&#45;&gt;Node13</title>
<g id="a_edge15_Node000009_Node000013"><a xlink:title=" ">
<path fill="none" stroke="#63b8ff" d="M1298.32,-284.91C1278.78,-261.23 1242.61,-220.96 1204,-196 1195.55,-190.54 1185.67,-186.02 1176.31,-182.43"/>
<polygon fill="#63b8ff" stroke="#63b8ff" points="1295.44,-286.92 1304.45,-292.49 1300.88,-282.51 1295.44,-286.92"/>
</a>
</g>
</g>
<!-- Node17 -->
<g id="Node000017" class="node">
<title>Node17</title>
<g id="a_Node000017"><a xlink:href="../../d6/df9/SDL__joystick_8c.html#aa98a95583054633f27bb3bcdff5f97aa" target="_top" xlink:title=" ">
<polygon fill="white" stroke="#666666" points="878.75,-267 778,-267 778,-247 878.75,-247 878.75,-267"/>
<text xml:space="preserve" text-anchor="middle" x="828.38" y="-253.5" font-family="Helvetica,sans-Serif" font-size="10.00">SDL_QuitJoysticks</text>
</a>
</g>
</g>
<!-- Node9&#45;&gt;Node17 -->
<g id="edge54_Node000009_Node000017" class="edge">
<title>Node9&#45;&gt;Node17</title>
<g id="a_edge54_Node000009_Node000017"><a xlink:title=" ">
<path fill="none" stroke="#63b8ff" d="M1277.92,-291.28C1256.53,-287.24 1228.73,-283.67 1204,-281 1087.8,-268.45 950.94,-257.32 879.13,-254.83"/>
<polygon fill="#63b8ff" stroke="#63b8ff" points="1277.1,-294.68 1287.6,-293.27 1278.51,-287.83 1277.1,-294.68"/>
</a>
</g>
</g>
<!-- Node19 -->
<g id="Node000019" class="node">
<title>Node19</title>
<g id="a_Node000019"><a xlink:href="../../df/d78/SDL_8c.html#aa33d2b8c0a69b16651f78c26f391b6ef" target="_top" xlink:title=" ">
<polygon fill="white" stroke="#666666" points="881,-352 775.75,-352 775.75,-332 881,-332 881,-352"/>
<text xml:space="preserve" text-anchor="middle" x="828.38" y="-338.5" font-family="Helvetica,sans-Serif" font-size="10.00">SDL_InitSubSystem</text>
</a>
</g>
</g>
<!-- Node9&#45;&gt;Node19 -->
<g id="edge45_Node000009_Node000019" class="edge">
<title>Node9&#45;&gt;Node19</title>
<g id="a_edge45_Node000009_Node000019"><a xlink:title=" ">
<path fill="none" stroke="#63b8ff" d="M1289.59,-320.71C1268.29,-334.59 1235.64,-353.25 1204,-361 1087.77,-389.47 945.39,-367.28 874.28,-352.49"/>
<polygon fill="#63b8ff" stroke="#63b8ff" points="1291.46,-323.67 1297.82,-315.2 1287.56,-317.86 1291.46,-323.67"/>
</a>
</g>
</g>
<!-- Node20 -->
<g id="Node000020" class="node">
<title>Node20</title>
<g id="a_Node000020"><a xlink:href="../../d6/df9/SDL__joystick_8c.html#a94fd638a34a769ff6a7a01738257215c" target="_top" xlink:title=" ">
<polygon fill="white" stroke="#666666" points="683.5,-276 620.25,-276 620.25,-256 683.5,-256 683.5,-276"/>
<text xml:space="preserve" text-anchor="middle" x="651.88" y="-262.5" font-family="Helvetica,sans-Serif" font-size="10.00">IsROGAlly</text>
</a>
</g>
</g>
<!-- Node9&#45;&gt;Node20 -->
<g id="edge44_Node000009_Node000020" class="edge">
<title>Node9&#45;&gt;Node20</title>
<g id="a_edge44_Node000009_Node000020"><a xlink:title=" ">
<path fill="none" stroke="#63b8ff" d="M1247.69,-302.66C1170.59,-300.84 1038.92,-297 926,-290 838.11,-284.55 734.61,-274.45 683.97,-269.26"/>
<polygon fill="#63b8ff" stroke="#63b8ff" points="1247.53,-306.15 1257.61,-302.89 1247.69,-299.16 1247.53,-306.15"/>
</a>
</g>
</g>
<!-- Node9&#45;&gt;Node31 -->
<g id="edge59_Node000009_Node000031" class="edge">
<title>Node9&#45;&gt;Node31</title>
<g id="a_edge59_Node000009_Node000031"><a xlink:title=" ">
<path fill="none" stroke="#63b8ff" d="M1294.24,-322.15C1273.67,-340.51 1239.17,-368.1 1204,-382 1022.42,-453.78 783.76,-458.33 691.55,-457.08"/>
<polygon fill="#63b8ff" stroke="#63b8ff" points="1296.53,-324.8 1301.54,-315.47 1291.8,-319.64 1296.53,-324.8"/>
</a>
</g>
</g>
<!-- Node32 -->
<g id="Node000032" class="node">
<title>Node32</title>
<g id="a_Node000032"><a xlink:href="../../df/d78/SDL_8c.html#abf064fcc4a657a30db8eace18633f362" target="_top" xlink:title=" ">
<polygon fill="white" stroke="#666666" points="1013.25,-561 954.5,-561 954.5,-541 1013.25,-541 1013.25,-561"/>
<text xml:space="preserve" text-anchor="middle" x="983.88" y="-547.5" font-family="Helvetica,sans-Serif" font-size="10.00">SDL_Quit</text>
</a>
</g>
</g>
<!-- Node9&#45;&gt;Node32 -->
<g id="edge46_Node000009_Node000032" class="edge">
<title>Node9&#45;&gt;Node32</title>
<g id="a_edge46_Node000009_Node000032"><a xlink:title=" ">
<path fill="none" stroke="#63b8ff" d="M1300.15,-323.59C1281.25,-350.53 1244.29,-399.38 1204,-432 1141.42,-482.67 1054.1,-522.53 1011.03,-540.54"/>
<polygon fill="#63b8ff" stroke="#63b8ff" points="1302.83,-325.88 1305.63,-315.66 1297.06,-321.9 1302.83,-325.88"/>
</a>
</g>
</g>
<!-- Node38 -->
<g id="Node000038" class="node">
<title>Node38</title>
<g id="a_Node000038"><a xlink:href="../../dc/de1/SDL__sensor_8c.html#af97faaba22b06bf9fc16804bfc2ae7df" target="_top" xlink:title=" ">
<polygon fill="white" stroke="#666666" points="1188.25,-352 1093.5,-352 1093.5,-332 1188.25,-332 1188.25,-352"/>
<text xml:space="preserve" text-anchor="middle" x="1140.88" y="-338.5" font-family="Helvetica,sans-Serif" font-size="10.00">SDL_QuitSensors</text>
</a>
</g>
</g>
<!-- Node9&#45;&gt;Node38 -->
<g id="edge55_Node000009_Node000038" class="edge">
<title>Node9&#45;&gt;Node38</title>
<g id="a_edge55_Node000009_Node000038"><a xlink:title=" ">
<path fill="none" stroke="#63b8ff" d="M1247.98,-311.91C1219.52,-317.73 1187.89,-325.29 1166.63,-331.6"/>
<polygon fill="#63b8ff" stroke="#63b8ff" points="1248.5,-315.38 1257.63,-309.99 1247.14,-308.51 1248.5,-315.38"/>
</a>
</g>
</g>
<!-- Node11 -->
<g id="Node000011" class="node">
<title>Node11</title>
<g id="a_Node000011"><a xlink:href="../../d6/df9/SDL__joystick_8c.html#a0c867d96ec6bc9c3aca87c8ee6b53ade" target="_top" xlink:title=" ">
<polygon fill="white" stroke="#666666" points="315.12,-210 214.38,-210 214.38,-190 315.12,-190 315.12,-210"/>
<text xml:space="preserve" text-anchor="middle" x="264.75" y="-196.5" font-family="Helvetica,sans-Serif" font-size="10.00">SDL_OpenJoystick</text>
</a>
</g>
</g>
<!-- Node10&#45;&gt;Node11 -->
<g id="edge13_Node000010_Node000011" class="edge">
<title>Node10&#45;&gt;Node11</title>
<g id="a_edge13_Node000010_Node000011"><a xlink:title=" ">
<path fill="none" stroke="#63b8ff" d="M585.14,-215.76C508.75,-211.99 384.39,-205.85 315.56,-202.46"/>
<polygon fill="#63b8ff" stroke="#63b8ff" points="584.84,-219.25 595,-216.24 585.19,-212.25 584.84,-219.25"/>
</a>
</g>
</g>
<!-- Node12 -->
<g id="Node000012" class="node">
<title>Node12</title>
<g id="a_Node000012"><a xlink:href="../../d0/d82/SDL__gamepad_8c.html#a011496690758b66ec0f7098f030b6d85" target="_top" xlink:title=" ">
<polygon fill="white" stroke="#666666" points="134.12,-182 28.12,-182 28.12,-162 134.12,-162 134.12,-182"/>
<text xml:space="preserve" text-anchor="middle" x="81.12" y="-168.5" font-family="Helvetica,sans-Serif" font-size="10.00">SDL_OpenGamepad</text>
</a>
</g>
</g>
<!-- Node11&#45;&gt;Node12 -->
<g id="edge14_Node000011_Node000012" class="edge">
<title>Node11&#45;&gt;Node12</title>
<g id="a_edge14_Node000011_Node000012"><a xlink:title=" ">
<path fill="none" stroke="#63b8ff" d="M202.82,-190.61C180.69,-187.19 155.89,-183.37 134.55,-180.08"/>
<polygon fill="#63b8ff" stroke="#63b8ff" points="202.21,-194.05 212.62,-192.12 203.27,-187.14 202.21,-194.05"/>
</a>
</g>
</g>
<!-- Node14 -->
<g id="Node000014" class="node">
<title>Node14</title>
<g id="a_Node000014"><a xlink:href="../../d6/df9/SDL__joystick_8c.html#aadf2e0eabb7fee1784bced6566d2f2ee" target="_top" xlink:title=" ">
<polygon fill="white" stroke="#666666" points="1035.38,-182 932.38,-182 932.38,-162 1035.38,-162 1035.38,-182"/>
<text xml:space="preserve" text-anchor="middle" x="983.88" y="-168.5" font-family="Helvetica,sans-Serif" font-size="10.00">SDL_CloseJoystick</text>
</a>
</g>
</g>
<!-- Node13&#45;&gt;Node14 -->
<g id="edge16_Node000013_Node000014" class="edge">
<title>Node13&#45;&gt;Node14</title>
<g id="a_edge16_Node000013_Node000014"><a xlink:title=" ">
<path fill="none" stroke="#63b8ff" d="M1073.34,-172C1060.71,-172 1047.69,-172 1035.64,-172"/>
<polygon fill="#63b8ff" stroke="#63b8ff" points="1073.28,-175.5 1083.28,-172 1073.28,-168.5 1073.28,-175.5"/>
</a>
</g>
</g>
<!-- Node14&#45;&gt;Node11 -->
<g id="edge21_Node000014_Node000011" class="edge">
<title>Node14&#45;&gt;Node11</title>
<g id="a_edge21_Node000014_Node000011"><a xlink:title=" ">
<path fill="none" stroke="#63b8ff" d="M920.54,-174.43C780.42,-179.9 442.91,-193.08 315.53,-198.06"/>
<polygon fill="#63b8ff" stroke="#63b8ff" points="920.51,-177.94 930.36,-174.05 920.23,-170.94 920.51,-177.94"/>
</a>
</g>
</g>
<!-- Node14&#45;&gt;Node12 -->
<g id="edge20_Node000014_Node000012" class="edge">
<title>Node14&#45;&gt;Node12</title>
<g id="a_edge20_Node000014_Node000012"><a xlink:title=" ">
<path fill="none" stroke="#63b8ff" d="M921.06,-163.31C854.86,-154.77 746.66,-143 652.88,-143 652.88,-143 652.88,-143 451.12,-143 338.03,-143 206.03,-156.71 134.57,-165.27"/>
<polygon fill="#63b8ff" stroke="#63b8ff" points="920.25,-166.73 930.62,-164.56 921.16,-159.79 920.25,-166.73"/>
</a>
</g>
</g>
<!-- Node15 -->
<g id="Node000015" class="node">
<title>Node15</title>
<g id="a_Node000015"><a xlink:href="../../d0/d82/SDL__gamepad_8c.html#aba8e3cc0575aa23129847fd8418fc191" target="_top" xlink:title=" ">
<polygon fill="white" stroke="#666666" points="882.5,-115 774.25,-115 774.25,-95 882.5,-95 882.5,-115"/>
<text xml:space="preserve" text-anchor="middle" x="828.38" y="-101.5" font-family="Helvetica,sans-Serif" font-size="10.00">SDL_CloseGamepad</text>
</a>
</g>
</g>
<!-- Node14&#45;&gt;Node15 -->
<g id="edge17_Node000014_Node000015" class="edge">
<title>Node14&#45;&gt;Node15</title>
<g id="a_edge17_Node000014_Node000015"><a xlink:title=" ">
<path fill="none" stroke="#63b8ff" d="M951.11,-156.75C933.26,-148.32 910.52,-137.8 890,-129 879.18,-124.36 867.15,-119.53 856.67,-115.43"/>
<polygon fill="#63b8ff" stroke="#63b8ff" points="949.36,-159.8 959.9,-160.92 952.36,-153.47 949.36,-159.8"/>
</a>
</g>
</g>
<!-- Node14&#45;&gt;Node17 -->
<g id="edge22_Node000014_Node000017" class="edge">
<title>Node14&#45;&gt;Node17</title>
<g id="a_edge22_Node000014_Node000017"><a xlink:title=" ">
<path fill="none" stroke="#63b8ff" d="M954.23,-187.86C923.11,-205.09 874.3,-232.12 847.87,-246.76"/>
<polygon fill="#63b8ff" stroke="#63b8ff" points="955.68,-191.06 962.73,-183.16 952.28,-184.94 955.68,-191.06"/>
</a>
</g>
</g>
<!-- Node16 -->
<g id="Node000016" class="node">
<title>Node16</title>
<g id="a_Node000016"><a xlink:href="../../d0/d82/SDL__gamepad_8c.html#ad49c2e97ac6f1deaafd9aec54dff1659" target="_top" xlink:title=" ">
<polygon fill="white" stroke="#666666" points="704.88,-96 598.88,-96 598.88,-76 704.88,-76 704.88,-96"/>
<text xml:space="preserve" text-anchor="middle" x="651.88" y="-82.5" font-family="Helvetica,sans-Serif" font-size="10.00">SDL_QuitGamepads</text>
</a>
</g>
</g>
<!-- Node15&#45;&gt;Node16 -->
<g id="edge18_Node000015_Node000016" class="edge">
<title>Node15&#45;&gt;Node16</title>
<g id="a_edge18_Node000015_Node000016"><a xlink:title=" ">
<path fill="none" stroke="#63b8ff" d="M762.81,-97.97C743.85,-95.91 723.35,-93.67 705.25,-91.7"/>
<polygon fill="#63b8ff" stroke="#63b8ff" points="762.25,-101.43 772.57,-99.03 763,-94.47 762.25,-101.43"/>
</a>
</g>
</g>
<!-- Node16&#45;&gt;Node9 -->
<g id="edge19_Node000016_Node000009" class="edge">
<title>Node16&#45;&gt;Node9</title>
<g id="a_edge19_Node000016_Node000009"><a xlink:title=" ">
<path fill="none" stroke="#63b8ff" d="M716.15,-76.81C825.29,-64.38 1051.87,-53.96 1204,-153 1260.16,-189.56 1297.01,-265.72 1309.06,-293.54"/>
<polygon fill="#63b8ff" stroke="#63b8ff" points="716.03,-73.3 706.51,-77.95 716.85,-80.25 716.03,-73.3"/>
</a>
</g>
</g>
<!-- Node17&#45;&gt;Node9 -->
<g id="edge43_Node000017_Node000009" class="edge">
<title>Node17&#45;&gt;Node9</title>
<g id="a_edge43_Node000017_Node000009"><a xlink:title=" ">
<path fill="none" stroke="#63b8ff" d="M890.56,-268.01C964.79,-276.45 1093.71,-287.09 1204,-299 1221.99,-300.94 1241.6,-303.36 1259.18,-305.18"/>
<polygon fill="#63b8ff" stroke="#63b8ff" points="890.97,-264.54 880.63,-266.85 890.16,-271.49 890.97,-264.54"/>
</a>
</g>
</g>
<!-- Node18 -->
<g id="Node000018" class="node">
<title>Node18</title>
<g id="a_Node000018"><a xlink:href="../../d6/df9/SDL__joystick_8c.html#a9340afa4acb6b0fad4affbb99d4fa014" target="_top" xlink:title=" ">
<polygon fill="white" stroke="#666666" points="700,-314 603.75,-314 603.75,-294 700,-294 700,-314"/>
<text xml:space="preserve" text-anchor="middle" x="651.88" y="-300.5" font-family="Helvetica,sans-Serif" font-size="10.00">SDL_InitJoysticks</text>
</a>
</g>
</g>
<!-- Node17&#45;&gt;Node18 -->
<g id="edge23_Node000017_Node000018" class="edge">
<title>Node17&#45;&gt;Node18</title>
<g id="a_edge23_Node000017_Node000018"><a xlink:title=" ">
<path fill="none" stroke="#63b8ff" d="M781.84,-270.63C765.74,-275.33 747.48,-280.54 730.75,-285 719.86,-287.91 708.06,-290.87 697.03,-293.58"/>
<polygon fill="#63b8ff" stroke="#63b8ff" points="782.53,-274.07 791.14,-267.9 780.56,-267.36 782.53,-274.07"/>
</a>
</g>
</g>
<!-- Node18&#45;&gt;Node19 -->
<g id="edge24_Node000018_Node000019" class="edge">
<title>Node18&#45;&gt;Node19</title>
<g id="a_edge24_Node000018_Node000019"><a xlink:title=" ">
<path fill="none" stroke="#63b8ff" d="M688.93,-317.44C713.93,-324.18 747.61,-331.73 775.49,-336.93"/>
<polygon fill="#63b8ff" stroke="#63b8ff" points="690.14,-314.14 679.57,-314.82 688.25,-320.88 690.14,-314.14"/>
</a>
</g>
</g>
<!-- Node19&#45;&gt;Node10 -->
<g id="edge25_Node000019_Node000010" class="edge">
<title>Node19&#45;&gt;Node10</title>
<g id="a_edge25_Node000019_Node000010"><a xlink:title=" ">
<path fill="none" stroke="#63b8ff" d="M810.28,-323.38C787.58,-299 748.32,-258.04 730.75,-247 718.95,-239.58 704.91,-233.77 692.03,-229.41"/>
<polygon fill="#63b8ff" stroke="#63b8ff" points="807.7,-325.75 817.06,-330.71 812.83,-320.99 807.7,-325.75"/>
</a>
</g>
</g>
<!-- Node19&#45;&gt;Node18 -->
<g id="edge34_Node000019_Node000018" class="edge">
<title>Node19&#45;&gt;Node18</title>
<g id="a_edge34_Node000019_Node000018"><a xlink:title=" ">
<path fill="none" stroke="#63b8ff" d="M791,-328.47C764.69,-321.4 728.89,-313.44 700.33,-308.25"/>
<polygon fill="#63b8ff" stroke="#63b8ff" points="789.97,-331.82 800.54,-331.14 791.85,-325.08 789.97,-331.82"/>
</a>
</g>
</g>
<!-- Node19&#45;&gt;Node20 -->
<g id="edge26_Node000019_Node000020" class="edge">
<title>Node19&#45;&gt;Node20</title>
<g id="a_edge26_Node000019_Node000020"><a xlink:title=" ">
<path fill="none" stroke="#63b8ff" d="M784.35,-327.25C778.26,-324.52 772.22,-321.43 766.75,-318 748.35,-306.48 749.89,-295.23 730.75,-285 716.27,-277.26 698.59,-272.62 683.74,-269.87"/>
<polygon fill="#63b8ff" stroke="#63b8ff" points="782.57,-330.3 793.14,-330.93 785.27,-323.84 782.57,-330.3"/>
</a>
</g>
</g>
<!-- Node22 -->
<g id="Node000022" class="node">
<title>Node22</title>
<g id="a_Node000022"><a xlink:href="../../df/d78/SDL_8c.html#ac25d0ce460db43ca8c7681eb8e7c5007" target="_top" xlink:title=" ">
<polygon fill="white" stroke="#666666" points="679,-390 624.75,-390 624.75,-370 679,-370 679,-390"/>
<text xml:space="preserve" text-anchor="middle" x="651.88" y="-376.5" font-family="Helvetica,sans-Serif" font-size="10.00">SDL_Init</text>
</a>
</g>
</g>
<!-- Node19&#45;&gt;Node22 -->
<g id="edge29_Node000019_Node000022" class="edge">
<title>Node19&#45;&gt;Node22</title>
<g id="a_edge29_Node000019_Node000022"><a xlink:title=" ">
<path fill="none" stroke="#63b8ff" d="M767.98,-354.93C737.92,-361.48 702.92,-369.1 679.48,-374.21"/>
<polygon fill="#63b8ff" stroke="#63b8ff" points="768.73,-358.35 777.75,-352.81 767.24,-351.51 768.73,-358.35"/>
</a>
</g>
</g>
<!-- Node27 -->
<g id="Node000027" class="node">
<title>Node27</title>
<g id="a_Node000027"><a xlink:href="../../d9/d78/SDL__main__callbacks_8c.html#a3d21b5bf7aa441418de48c5b2856336a" target="_top" xlink:title=" ">
<polygon fill="white" stroke="#666666" points="711.25,-428 592.5,-428 592.5,-408 711.25,-408 711.25,-428"/>
<text xml:space="preserve" text-anchor="middle" x="651.88" y="-414.5" font-family="Helvetica,sans-Serif" font-size="10.00">SDL_InitMainCallbacks</text>
</a>
</g>
</g>
<!-- Node19&#45;&gt;Node27 -->
<g id="edge35_Node000019_Node000027" class="edge">
<title>Node19&#45;&gt;Node27</title>
<g id="a_edge35_Node000019_Node000027"><a xlink:title=" ">
<path fill="none" stroke="#63b8ff" d="M803.7,-358.65C784.74,-371.3 757.06,-388.31 730.75,-399 722.63,-402.3 713.79,-405.13 705.07,-407.52"/>
<polygon fill="#63b8ff" stroke="#63b8ff" points="805.47,-361.68 811.76,-353.16 801.53,-355.89 805.47,-361.68"/>
</a>
</g>
</g>
<!-- Node29 -->
<g id="Node000029" class="node">
<title>Node29</title>
<g id="a_Node000029"><a xlink:href="../../df/d78/SDL_8c.html#a8f0bf712ad7ba759f5b6e04e683c67d4" target="_top" xlink:title=" ">
<polygon fill="white" stroke="#666666" points="730.75,-352 573,-352 573,-332 730.75,-332 730.75,-352"/>
<text xml:space="preserve" text-anchor="middle" x="651.88" y="-338.5" font-family="Helvetica,sans-Serif" font-size="10.00">SDL_InitOrIncrementSubsystem</text>
</a>
</g>
</g>
<!-- Node19&#45;&gt;Node29 -->
<g id="edge37_Node000019_Node000029" class="edge">
<title>Node19&#45;&gt;Node29</title>
<g id="a_edge37_Node000019_Node000029"><a xlink:title=" ">
<path fill="none" stroke="#63b8ff" d="M764.09,-335.48C753.36,-335.27 742.11,-335.2 731.05,-335.28"/>
<polygon fill="#63b8ff" stroke="#63b8ff" points="763.89,-338.98 773.98,-335.73 764.07,-331.98 763.89,-338.98"/>
</a>
</g>
</g>
<!-- Node30 -->
<g id="Node000030" class="node">
<title>Node30</title>
<g id="a_Node000030"><a xlink:href="../../dc/de1/SDL__sensor_8c.html#abdb7d6b73a301a2c8558ba80edb32331" target="_top" xlink:title=" ">
<polygon fill="white" stroke="#666666" points="1029,-352 938.75,-352 938.75,-332 1029,-332 1029,-352"/>
<text xml:space="preserve" text-anchor="middle" x="983.88" y="-338.5" font-family="Helvetica,sans-Serif" font-size="10.00">SDL_InitSensors</text>
</a>
</g>
</g>
<!-- Node19&#45;&gt;Node30 -->
<g id="edge39_Node000019_Node000030" class="edge">
<title>Node19&#45;&gt;Node30</title>
<g id="a_edge39_Node000019_Node000030"><a xlink:title=" ">
<path fill="none" stroke="#63b8ff" d="M892.36,-348.65C907.83,-348.87 924.08,-348.72 938.48,-348.19"/>
<polygon fill="#63b8ff" stroke="#63b8ff" points="892.84,-345.16 882.77,-348.46 892.7,-352.16 892.84,-345.16"/>
</a>
</g>
</g>
<!-- Node19&#45;&gt;Node31 -->
<g id="edge41_Node000019_Node000031" class="edge">
<title>Node19&#45;&gt;Node31</title>
<g id="a_edge41_Node000019_Node000031"><a xlink:title=" ">
<path fill="none" stroke="#63b8ff" d="M803.73,-359.54C776.56,-384.21 735.13,-425.56 730.75,-428 714.58,-437.01 694.19,-441.78 678.33,-445.55"/>
<polygon fill="#63b8ff" stroke="#63b8ff" points="805.71,-362.45 810.85,-353.19 801.06,-357.23 805.71,-362.45"/>
</a>
</g>
</g>
<!-- Node21 -->
<g id="Node000021" class="node">
<title>Node21</title>
<g id="a_Node000021"><a xlink:href="../../d6/df9/SDL__joystick_8c.html#a497945f75b33dbfcde319992145025c5" target="_top" xlink:title=" ">
<polygon fill="white" stroke="#666666" points="522.38,-272 381.88,-272 381.88,-252 522.38,-252 522.38,-272"/>
<text xml:space="preserve" text-anchor="middle" x="452.12" y="-258.5" font-family="Helvetica,sans-Serif" font-size="10.00">ShouldAttemptSensorFusion</text>
</a>
</g>
</g>
<!-- Node20&#45;&gt;Node21 -->
<g id="edge27_Node000020_Node000021" class="edge">
<title>Node20&#45;&gt;Node21</title>
<g id="a_edge27_Node000020_Node000021"><a xlink:title=" ">
<path fill="none" stroke="#63b8ff" d="M608.69,-265.15C583.69,-264.64 551.39,-263.99 522.71,-263.41"/>
<polygon fill="#63b8ff" stroke="#63b8ff" points="608.39,-268.64 618.46,-265.34 608.54,-261.64 608.39,-268.64"/>
</a>
</g>
</g>
<!-- Node21&#45;&gt;Node11 -->
<g id="edge28_Node000021_Node000011" class="edge">
<title>Node21&#45;&gt;Node11</title>
<g id="a_edge28_Node000021_Node000011"><a xlink:title=" ">
<path fill="none" stroke="#63b8ff" d="M409.52,-248.09C375.38,-236.67 327.79,-220.75 296.88,-210.41"/>
<polygon fill="#63b8ff" stroke="#63b8ff" points="408.07,-251.29 418.66,-251.14 410.29,-244.65 408.07,-251.29"/>
</a>
</g>
</g>
<!-- Node23 -->
<g id="Node000023" class="node">
<title>Node23</title>
<g id="a_Node000023"><a xlink:href="../../d6/d3d/SDL__video_8c.html#a9f3d88531134e2c3e575a3c2db7f8488" target="_top" xlink:title=" ">
<polygon fill="white" stroke="#666666" points="537,-390 367.25,-390 367.25,-370 537,-370 537,-390"/>
<text xml:space="preserve" text-anchor="middle" x="452.12" y="-376.5" font-family="Helvetica,sans-Serif" font-size="10.00">SDL_CreateWindowWithProperties</text>
</a>
</g>
</g>
<!-- Node22&#45;&gt;Node23 -->
<g id="edge30_Node000022_Node000023" class="edge">
<title>Node22&#45;&gt;Node23</title>
<g id="a_edge30_Node000022_Node000023"><a xlink:title=" ">
<path fill="none" stroke="#63b8ff" d="M613.37,-380C591.84,-380 563.89,-380 537.38,-380"/>
<polygon fill="#63b8ff" stroke="#63b8ff" points="613.1,-383.5 623.1,-380 613.1,-376.5 613.1,-383.5"/>
</a>
</g>
</g>
<!-- Node24 -->
<g id="Node000024" class="node">
<title>Node24</title>
<g id="a_Node000024"><a xlink:href="../../d6/d3d/SDL__video_8c.html#acc26de39ce1bd675446e4d6c05ebf4b0" target="_top" xlink:title=" ">
<polygon fill="white" stroke="#666666" points="331.25,-409 198.25,-409 198.25,-389 331.25,-389 331.25,-409"/>
<text xml:space="preserve" text-anchor="middle" x="264.75" y="-395.5" font-family="Helvetica,sans-Serif" font-size="10.00">SDL_CreatePopupWindow</text>
</a>
</g>
</g>
<!-- Node23&#45;&gt;Node24 -->
<g id="edge31_Node000023_Node000024" class="edge">
<title>Node23&#45;&gt;Node24</title>
<g id="a_edge31_Node000023_Node000024"><a xlink:title=" ">
<path fill="none" stroke="#63b8ff" d="M355.42,-389.81C347.33,-390.64 339.27,-391.46 331.5,-392.26"/>
<polygon fill="#63b8ff" stroke="#63b8ff" points="355.75,-393.29 365.34,-388.79 355.03,-386.33 355.75,-393.29"/>
</a>
</g>
</g>
<!-- Node25 -->
<g id="Node000025" class="node">
<title>Node25</title>
<g id="a_Node000025"><a xlink:href="../../d6/d3d/SDL__video_8c.html#a83103c86f9e5c33ab9e1fb6dfa904b7f" target="_top" xlink:title=" ">
<polygon fill="white" stroke="#666666" points="317.38,-371 212.12,-371 212.12,-351 317.38,-351 317.38,-371"/>
<text xml:space="preserve" text-anchor="middle" x="264.75" y="-357.5" font-family="Helvetica,sans-Serif" font-size="10.00">SDL_CreateWindow</text>
</a>
</g>
</g>
<!-- Node23&#45;&gt;Node25 -->
<g id="edge32_Node000023_Node000025" class="edge">
<title>Node23&#45;&gt;Node25</title>
<g id="a_edge32_Node000023_Node000025"><a xlink:title=" ">
<path fill="none" stroke="#63b8ff" d="M355.44,-370.19C342.45,-368.86 329.54,-367.54 317.73,-366.33"/>
<polygon fill="#63b8ff" stroke="#63b8ff" points="355.03,-373.67 365.34,-371.21 355.75,-366.71 355.03,-373.67"/>
</a>
</g>
</g>
<!-- Node26 -->
<g id="Node000026" class="node">
<title>Node26</title>
<g id="a_Node000026"><a xlink:href="../../dd/df3/SDL__render_8c.html#a36f859fae15e4277ba052f9ecfb2816d" target="_top" xlink:title=" ">
<polygon fill="white" stroke="#666666" points="162.25,-371 0,-371 0,-351 162.25,-351 162.25,-371"/>
<text xml:space="preserve" text-anchor="middle" x="81.12" y="-357.5" font-family="Helvetica,sans-Serif" font-size="10.00">SDL_CreateWindowAndRenderer</text>
</a>
</g>
</g>
<!-- Node25&#45;&gt;Node26 -->
<g id="edge33_Node000025_Node000026" class="edge">
<title>Node25&#45;&gt;Node26</title>
<g id="a_edge33_Node000025_Node000026"><a xlink:title=" ">
<path fill="none" stroke="#63b8ff" d="M200.3,-361C188.14,-361 175.26,-361 162.64,-361"/>
<polygon fill="#63b8ff" stroke="#63b8ff" points="200.19,-364.5 210.19,-361 200.19,-357.5 200.19,-364.5"/>
</a>
</g>
</g>
<!-- Node28 -->
<g id="Node000028" class="node">
<title>Node28</title>
<g id="a_Node000028"><a xlink:href="../../dd/db5/generic_2SDL__sysmain__callbacks_8c.html#aa50e1897a91f2547b5f31125020220e2" target="_top" xlink:title=" ">
<polygon fill="white" stroke="#666666" points="525,-599 379.25,-599 379.25,-579 525,-579 525,-599"/>
<text xml:space="preserve" text-anchor="middle" x="452.12" y="-585.5" font-family="Helvetica,sans-Serif" font-size="10.00">SDL_EnterAppMainCallbacks</text>
</a>
</g>
</g>
<!-- Node27&#45;&gt;Node28 -->
<g id="edge36_Node000027_Node000028" class="edge">
<title>Node27&#45;&gt;Node28</title>
<g id="a_edge36_Node000027_Node000028"><a xlink:title=" ">
<path fill="none" stroke="#63b8ff" d="M581.63,-432.19C578.64,-433.64 575.74,-435.24 573,-437 514.47,-474.61 472.22,-550.78 458.19,-578.56"/>
<polygon fill="#63b8ff" stroke="#63b8ff" points="582.85,-435.47 590.73,-428.39 580.15,-429.01 582.85,-435.47"/>
</a>
</g>
</g>
<!-- Node29&#45;&gt;Node19 -->
<g id="edge38_Node000029_Node000019" class="edge">
<title>Node29&#45;&gt;Node19</title>
<g id="a_edge38_Node000029_Node000019"><a xlink:title=" ">
<path fill="none" stroke="#63b8ff" d="M742.38,-348.75C753.73,-348.73 765.02,-348.56 775.49,-348.23"/>
<polygon fill="#63b8ff" stroke="#63b8ff" points="742.58,-345.25 732.57,-348.72 742.56,-352.25 742.58,-345.25"/>
</a>
</g>
</g>
<!-- Node30&#45;&gt;Node19 -->
<g id="edge40_Node000030_Node000019" class="edge">
<title>Node30&#45;&gt;Node19</title>
<g id="a_edge40_Node000030_Node000019"><a xlink:title=" ">
<path fill="none" stroke="#63b8ff" d="M927.26,-335.48C912.25,-335.14 896.06,-335.17 881.26,-335.58"/>
<polygon fill="#63b8ff" stroke="#63b8ff" points="926.86,-338.97 936.96,-335.77 927.07,-331.98 926.86,-338.97"/>
</a>
</g>
</g>
<!-- Node31&#45;&gt;Node19 -->
<g id="edge42_Node000031_Node000019" class="edge">
<title>Node31&#45;&gt;Node19</title>
<g id="a_edge42_Node000031_Node000019"><a xlink:title=" ">
<path fill="none" stroke="#63b8ff" d="M702.81,-456.85C712.44,-454.35 722.19,-450.77 730.75,-446 736.25,-442.94 800.07,-378.61 820.87,-352.33"/>
<polygon fill="#63b8ff" stroke="#63b8ff" points="702.13,-453.42 693.11,-458.98 703.63,-460.26 702.13,-453.42"/>
</a>
</g>
</g>
<!-- Node33 -->
<g id="Node000033" class="node">
<title>Node33</title>
<g id="a_Node000033"><a xlink:href="../../de/daf/classCSDLmain.html#a73bd9c42ac6916974009e508257e44ff" target="_top" xlink:title=" ">
<polygon fill="white" stroke="#666666" points="875,-542 781.75,-542 781.75,-522 875,-522 875,-542"/>
<text xml:space="preserve" text-anchor="middle" x="828.38" y="-528.5" font-family="Helvetica,sans-Serif" font-size="10.00">CSDLmain::RunL</text>
</a>
</g>
</g>
<!-- Node32&#45;&gt;Node33 -->
<g id="edge47_Node000032_Node000033" class="edge">
<title>Node32&#45;&gt;Node33</title>
<g id="a_edge47_Node000032_Node000033"><a xlink:title=" ">
<path fill="none" stroke="#63b8ff" d="M942.74,-546.03C922.07,-543.47 896.77,-540.34 875.31,-537.69"/>
<polygon fill="#63b8ff" stroke="#63b8ff" points="942.15,-549.49 952.5,-547.24 943.01,-542.54 942.15,-549.49"/>
</a>
</g>
</g>
<!-- Node34 -->
<g id="Node000034" class="node">
<title>Node34</title>
<g id="a_Node000034"><a xlink:href="../../d3/d6c/SDL__assert_8c.html#af146e7f66c4e41a24337c5b6943af0b0" target="_top" xlink:title=" ">
<polygon fill="white" stroke="#666666" points="881,-580 775.75,-580 775.75,-560 881,-560 881,-580"/>
<text xml:space="preserve" text-anchor="middle" x="828.38" y="-566.5" font-family="Helvetica,sans-Serif" font-size="10.00">SDL_AbortAssertion</text>
</a>
</g>
</g>
<!-- Node32&#45;&gt;Node34 -->
<g id="edge48_Node000032_Node000034" class="edge">
<title>Node32&#45;&gt;Node34</title>
<g id="a_edge48_Node000032_Node000034"><a xlink:title=" ">
<path fill="none" stroke="#63b8ff" d="M942.6,-555.98C923.89,-558.3 901.4,-561.08 881.42,-563.56"/>
<polygon fill="#63b8ff" stroke="#63b8ff" points="943.01,-559.46 952.5,-554.76 942.15,-552.51 943.01,-559.46"/>
</a>
</g>
</g>
<!-- Node36 -->
<g id="Node000036" class="node">
<title>Node36</title>
<g id="a_Node000036"><a xlink:href="../../d9/d78/SDL__main__callbacks_8c.html#a2e8bd250bb597fdf72c9da9d001181e7" target="_top" xlink:title=" ">
<polygon fill="white" stroke="#666666" points="890,-618 766.75,-618 766.75,-598 890,-598 890,-618"/>
<text xml:space="preserve" text-anchor="middle" x="828.38" y="-604.5" font-family="Helvetica,sans-Serif" font-size="10.00">SDL_QuitMainCallbacks</text>
</a>
</g>
</g>
<!-- Node32&#45;&gt;Node36 -->
<g id="edge50_Node000032_Node000036" class="edge">
<title>Node32&#45;&gt;Node36</title>
<g id="a_edge50_Node000032_Node000036"><a xlink:title=" ">
<path fill="none" stroke="#63b8ff" d="M948.78,-565.76C931.33,-573.11 909.68,-581.9 890,-589 881.8,-591.96 872.89,-594.9 864.49,-597.55"/>
<polygon fill="#63b8ff" stroke="#63b8ff" points="949.81,-569.13 957.64,-562 947.07,-562.68 949.81,-569.13"/>
</a>
</g>
</g>
<!-- Node35 -->
<g id="Node000035" class="node">
<title>Node35</title>
<g id="a_Node000035"><a xlink:href="../../d3/d6c/SDL__assert_8c.html#a0c9a208493d6e9212cff2ab400242102" target="_top" xlink:title=" ">
<polygon fill="white" stroke="#666666" points="707.5,-561 596.25,-561 596.25,-541 707.5,-541 707.5,-561"/>
<text xml:space="preserve" text-anchor="middle" x="651.88" y="-547.5" font-family="Helvetica,sans-Serif" font-size="10.00">SDL_ReportAssertion</text>
</a>
</g>
</g>
<!-- Node34&#45;&gt;Node35 -->
<g id="edge49_Node000034_Node000035" class="edge">
<title>Node34&#45;&gt;Node35</title>
<g id="a_edge49_Node000034_Node000035"><a xlink:title=" ">
<path fill="none" stroke="#63b8ff" d="M764.24,-563.13C745.8,-561.12 725.8,-558.94 707.9,-556.99"/>
<polygon fill="#63b8ff" stroke="#63b8ff" points="763.67,-566.58 773.99,-564.19 764.42,-559.63 763.67,-566.58"/>
</a>
</g>
</g>
<!-- Node36&#45;&gt;Node28 -->
<g id="edge53_Node000036_Node000028" class="edge">
<title>Node36&#45;&gt;Node28</title>
<g id="a_edge53_Node000036_Node000028"><a xlink:title=" ">
<path fill="none" stroke="#63b8ff" d="M755.13,-611.01C704.15,-612.4 634.29,-612.83 573,-608 551.47,-606.3 527.96,-602.92 507.51,-599.47"/>
<polygon fill="#63b8ff" stroke="#63b8ff" points="754.96,-614.52 764.85,-610.73 754.75,-607.52 754.96,-614.52"/>
</a>
</g>
</g>
<!-- Node37 -->
<g id="Node000037" class="node">
<title>Node37</title>
<g id="a_Node000037"><a xlink:href="../../d0/d72/emscripten_2SDL__sysmain__callbacks_8c.html#ad2e127e4f44ae815197361e79da5bf88" target="_top" xlink:title=" ">
<polygon fill="white" stroke="#666666" points="720.25,-599 583.5,-599 583.5,-579 720.25,-579 720.25,-599"/>
<text xml:space="preserve" text-anchor="middle" x="651.88" y="-585.5" font-family="Helvetica,sans-Serif" font-size="10.00">EmscriptenInternalMainloop</text>
</a>
</g>
</g>
<!-- Node36&#45;&gt;Node37 -->
<g id="edge51_Node000036_Node000037" class="edge">
<title>Node36&#45;&gt;Node37</title>
<g id="a_edge51_Node000036_Node000037"><a xlink:title=" ">
<path fill="none" stroke="#63b8ff" d="M755.11,-600.13C743.73,-598.89 732,-597.62 720.72,-596.39"/>
<polygon fill="#63b8ff" stroke="#63b8ff" points="754.52,-603.59 764.84,-601.19 755.28,-596.63 754.52,-603.59"/>
</a>
</g>
</g>
<!-- Node37&#45;&gt;Node28 -->
<g id="edge52_Node000037_Node000028" class="edge">
<title>Node37&#45;&gt;Node28</title>
<g id="a_edge52_Node000037_Node000028"><a xlink:title=" ">
<path fill="none" stroke="#63b8ff" d="M571.99,-589C556.54,-589 540.41,-589 525.2,-589"/>
<polygon fill="#63b8ff" stroke="#63b8ff" points="571.58,-592.5 581.58,-589 571.58,-585.5 571.58,-592.5"/>
</a>
</g>
</g>
<!-- Node38&#45;&gt;Node9 -->
<g id="edge57_Node000038_Node000009" class="edge">
<title>Node38&#45;&gt;Node9</title>
<g id="a_edge57_Node000038_Node000009"><a xlink:title=" ">
<path fill="none" stroke="#63b8ff" d="M1199.79,-335.59C1229.96,-329.64 1265.29,-321.31 1288.44,-314.45"/>
<polygon fill="#63b8ff" stroke="#63b8ff" points="1199.16,-332.15 1190,-337.46 1200.48,-339.02 1199.16,-332.15"/>
</a>
</g>
</g>
<!-- Node38&#45;&gt;Node30 -->
<g id="edge56_Node000038_Node000030" class="edge">
<title>Node38&#45;&gt;Node30</title>
<g id="a_edge56_Node000038_Node000030"><a xlink:title=" ">
<path fill="none" stroke="#63b8ff" d="M1082.17,-342C1064.76,-342 1045.91,-342 1029.48,-342"/>
<polygon fill="#63b8ff" stroke="#63b8ff" points="1081.86,-345.5 1091.86,-342 1081.86,-338.5 1081.86,-345.5"/>
</a>
</g>
</g>
<!-- Node39&#45;&gt;Node3 -->
<g id="edge63_Node000039_Node000003" class="edge">
<title>Node39&#45;&gt;Node3</title>
<g id="a_edge63_Node000039_Node000003"><a xlink:title=" ">
<path fill="none" stroke="#63b8ff" d="M1584.97,-67C1576.95,-67 1568.91,-67 1561.11,-67"/>
<polygon fill="#63b8ff" stroke="#63b8ff" points="1584.76,-70.5 1594.76,-67 1584.76,-63.5 1584.76,-70.5"/>
</a>
</g>
</g>
<!-- Node39&#45;&gt;Node4 -->
<g id="edge64_Node000039_Node000004" class="edge">
<title>Node39&#45;&gt;Node4</title>
<g id="a_edge64_Node000039_Node000004"><a xlink:title=" ">
<path fill="none" stroke="#63b8ff" d="M1606.07,-54.64C1591.18,-52.19 1575.46,-49.81 1560.75,-48 1496.93,-40.15 1423.34,-34.96 1373.53,-32.02"/>
<polygon fill="#63b8ff" stroke="#63b8ff" points="1605.32,-58.07 1615.76,-56.28 1606.48,-51.17 1605.32,-58.07"/>
</a>
</g>
</g>
</g>
</svg>
