<?xml version="1.0" encoding="UTF-8" standalone="no"?>
<!DOCTYPE svg PUBLIC "-//W3C//DTD SVG 1.1//EN"
 "http://www.w3.org/Graphics/SVG/1.1/DTD/svg11.dtd">
<!-- Generated by graphviz version 13.1.0 (20250701.0955)
 -->
<!-- Title: SDL&#45;main/include/SDL3/SDL_metal.h Pages: 1 -->
<svg width="1133pt" height="432pt"
 viewBox="0.00 0.00 1133.00 432.00" xmlns="http://www.w3.org/2000/svg" xmlns:xlink="http://www.w3.org/1999/xlink">
<g id="graph0" class="graph" transform="scale(1 1) rotate(0) translate(4 428)">
<title>SDL&#45;main/include/SDL3/SDL_metal.h</title>
<!-- Node1 -->
<g id="Node000001" class="node">
<title>Node1</title>
<g id="a_Node000001"><a xlink:title=" ">
<polygon fill="#999999" stroke="#666666" points="1124.5,-424 1003.5,-424 1003.5,-392 1124.5,-392 1124.5,-424"/>
<text xml:space="preserve" text-anchor="start" x="1011.5" y="-410.5" font-family="Helvetica,sans-Serif" font-size="10.00">SDL&#45;main/include/SDL3</text>
<text xml:space="preserve" text-anchor="middle" x="1064" y="-398.5" font-family="Helvetica,sans-Serif" font-size="10.00">/SDL_metal.h</text>
</a>
</g>
</g>
<!-- Node2 -->
<g id="Node000002" class="node">
<title>Node2</title>
<g id="a_Node000002"><a xlink:href="../../d3/d91/SDL__video_8h.html" target="_top" xlink:title=" ">
<polygon fill="white" stroke="#666666" points="610,-356 510,-356 510,-336 610,-336 610,-356"/>
<text xml:space="preserve" text-anchor="middle" x="560" y="-342.5" font-family="Helvetica,sans-Serif" font-size="10.00">SDL3/SDL_video.h</text>
</a>
</g>
</g>
<!-- Node1&#45;&gt;Node2 -->
<g id="edge1_Node000001_Node000002" class="edge">
<title>Node1&#45;&gt;Node2</title>
<g id="a_edge1_Node000001_Node000002"><a xlink:title=" ">
<path fill="none" stroke="#63b8ff" d="M1003.21,-399.76C906.6,-388.26 719.03,-365.93 621.8,-354.36"/>
<polygon fill="#63b8ff" stroke="#63b8ff" points="622.25,-350.89 611.9,-353.18 621.42,-357.84 622.25,-350.89"/>
</a>
</g>
</g>
<!-- Node9 -->
<g id="Node000009" class="node">
<title>Node9</title>
<g id="a_Node000009"><a xlink:href="../../d8/d5f/SDL__begin__code_8h.html" target="_top" xlink:title=" ">
<polygon fill="white" stroke="#666666" points="899.12,-20 772.88,-20 772.88,0 899.12,0 899.12,-20"/>
<text xml:space="preserve" text-anchor="middle" x="836" y="-6.5" font-family="Helvetica,sans-Serif" font-size="10.00">SDL3/SDL_begin_code.h</text>
</a>
</g>
</g>
<!-- Node1&#45;&gt;Node9 -->
<g id="edge53_Node000001_Node000009" class="edge">
<title>Node1&#45;&gt;Node9</title>
<g id="a_edge53_Node000001_Node000009"><a xlink:title=" ">
<path fill="none" stroke="#63b8ff" d="M1072.43,-391.76C1083.63,-370.07 1102,-328.72 1102,-291 1102,-291 1102,-291 1102,-121 1102,-37.76 989.4,-16.27 910.72,-11.42"/>
<polygon fill="#63b8ff" stroke="#63b8ff" points="911.06,-7.93 900.89,-10.9 910.69,-14.92 911.06,-7.93"/>
</a>
</g>
</g>
<!-- Node10 -->
<g id="Node000010" class="node">
<title>Node10</title>
<g id="a_Node000010"><a xlink:href="../../d9/d73/SDL__close__code_8h.html" target="_top" xlink:title=" ">
<polygon fill="white" stroke="#666666" points="666.12,-20 539.88,-20 539.88,0 666.12,0 666.12,-20"/>
<text xml:space="preserve" text-anchor="middle" x="603" y="-6.5" font-family="Helvetica,sans-Serif" font-size="10.00">SDL3/SDL_close_code.h</text>
</a>
</g>
</g>
<!-- Node1&#45;&gt;Node10 -->
<g id="edge54_Node000001_Node000010" class="edge">
<title>Node1&#45;&gt;Node10</title>
<g id="a_edge54_Node000001_Node000010"><a xlink:title=" ">
<path fill="none" stroke="#63b8ff" d="M1064,-391.61C1064,-369.4 1064,-327.05 1064,-291 1064,-291 1064,-291 1064,-177 1064,-95.89 808.21,-43.51 677.7,-22.06"/>
<polygon fill="#63b8ff" stroke="#63b8ff" points="678.54,-18.65 668.11,-20.51 677.42,-25.56 678.54,-18.65"/>
</a>
</g>
</g>
<!-- Node3 -->
<g id="Node000003" class="node">
<title>Node3</title>
<g id="a_Node000003"><a xlink:href="../../d2/d5b/SDL__stdinc_8h.html" target="_top" xlink:title=" ">
<polygon fill="white" stroke="#666666" points="382.5,-76 279.5,-76 279.5,-56 382.5,-56 382.5,-76"/>
<text xml:space="preserve" text-anchor="middle" x="331" y="-62.5" font-family="Helvetica,sans-Serif" font-size="10.00">SDL3/SDL_stdinc.h</text>
</a>
</g>
</g>
<!-- Node2&#45;&gt;Node3 -->
<g id="edge2_Node000002_Node000003" class="edge">
<title>Node2&#45;&gt;Node3</title>
<g id="a_edge2_Node000002_Node000003"><a xlink:title=" ">
<path fill="none" stroke="#63b8ff" d="M509.75,-337.28C435.57,-322.86 299.38,-284.07 242,-188 231.65,-170.67 242.22,-128.27 254,-112 263.79,-98.48 278.99,-88.36 293.31,-81.18"/>
<polygon fill="#63b8ff" stroke="#63b8ff" points="294.52,-84.48 302.12,-77.1 291.57,-78.13 294.52,-84.48"/>
</a>
</g>
</g>
<!-- Node2&#45;&gt;Node9 -->
<g id="edge51_Node000002_Node000009" class="edge">
<title>Node2&#45;&gt;Node9</title>
<g id="a_edge51_Node000002_Node000009"><a xlink:title=" ">
<path fill="none" stroke="#63b8ff" d="M610.31,-343.71C730.81,-339.25 1026,-319.68 1026,-235 1026,-235 1026,-235 1026,-121 1026,-64.57 962.45,-36.62 908.86,-23.08"/>
<polygon fill="#63b8ff" stroke="#63b8ff" points="909.96,-19.74 899.42,-20.83 908.34,-26.55 909.96,-19.74"/>
</a>
</g>
</g>
<!-- Node2&#45;&gt;Node10 -->
<g id="edge52_Node000002_Node000010" class="edge">
<title>Node2&#45;&gt;Node10</title>
<g id="a_edge52_Node000002_Node000010"><a xlink:title=" ">
<path fill="none" stroke="#63b8ff" d="M509.81,-345.71C372.36,-346.32 0,-338.41 0,-235 0,-235 0,-235 0,-121 0,56.43 48.79,-67.19 528.3,-20.11"/>
<polygon fill="#63b8ff" stroke="#63b8ff" points="528.6,-23.6 538.2,-19.12 527.9,-16.63 528.6,-23.6"/>
</a>
</g>
</g>
<!-- Node11 -->
<g id="Node000011" class="node">
<title>Node11</title>
<g id="a_Node000011"><a xlink:href="../../da/d16/SDL__error_8h.html" target="_top" xlink:title=" ">
<polygon fill="white" stroke="#666666" points="646.12,-132 549.88,-132 549.88,-112 646.12,-112 646.12,-132"/>
<text xml:space="preserve" text-anchor="middle" x="598" y="-118.5" font-family="Helvetica,sans-Serif" font-size="10.00">SDL3/SDL_error.h</text>
</a>
</g>
</g>
<!-- Node2&#45;&gt;Node11 -->
<g id="edge10_Node000002_Node000011" class="edge">
<title>Node2&#45;&gt;Node11</title>
<g id="a_edge10_Node000002_Node000011"><a xlink:title=" ">
<path fill="none" stroke="#63b8ff" d="M579.6,-335.53C593.76,-327.77 612.36,-315.55 624,-300 639.75,-278.96 638.72,-269.93 643,-244 646.04,-225.59 644.04,-177.5 640,-168 635.45,-157.31 627.2,-147.59 619.2,-139.94"/>
<polygon fill="#63b8ff" stroke="#63b8ff" points="621.75,-137.52 611.94,-133.5 617.1,-142.76 621.75,-137.52"/>
</a>
</g>
</g>
<!-- Node12 -->
<g id="Node000012" class="node">
<title>Node12</title>
<g id="a_Node000012"><a xlink:href="../../d9/d3f/SDL__pixels_8h.html" target="_top" xlink:title=" ">
<polygon fill="white" stroke="#666666" points="918.12,-188 815.88,-188 815.88,-168 918.12,-168 918.12,-188"/>
<text xml:space="preserve" text-anchor="middle" x="867" y="-174.5" font-family="Helvetica,sans-Serif" font-size="10.00">SDL3/SDL_pixels.h</text>
</a>
</g>
</g>
<!-- Node2&#45;&gt;Node12 -->
<g id="edge14_Node000002_Node000012" class="edge">
<title>Node2&#45;&gt;Node12</title>
<g id="a_edge14_Node000002_Node000012"><a xlink:title=" ">
<path fill="none" stroke="#63b8ff" d="M610.41,-340.75C672.13,-334.69 772.15,-321.8 802,-300 836.07,-275.12 854.09,-226.84 861.98,-199.39"/>
<polygon fill="#63b8ff" stroke="#63b8ff" points="865.32,-200.42 864.52,-189.86 858.56,-198.62 865.32,-200.42"/>
</a>
</g>
</g>
<!-- Node14 -->
<g id="Node000014" class="node">
<title>Node14</title>
<g id="a_Node000014"><a xlink:href="../../d6/d40/SDL__properties_8h.html" target="_top" xlink:title=" ">
<polygon fill="white" stroke="#666666" points="531.75,-188 412.25,-188 412.25,-168 531.75,-168 531.75,-188"/>
<text xml:space="preserve" text-anchor="middle" x="472" y="-174.5" font-family="Helvetica,sans-Serif" font-size="10.00">SDL3/SDL_properties.h</text>
</a>
</g>
</g>
<!-- Node2&#45;&gt;Node14 -->
<g id="edge23_Node000002_Node000014" class="edge">
<title>Node2&#45;&gt;Node14</title>
<g id="a_edge23_Node000002_Node000014"><a xlink:title=" ">
<path fill="none" stroke="#63b8ff" d="M540.25,-335.64C526.02,-327.93 507.39,-315.74 496,-300 474.31,-270.02 470.96,-225.38 471.08,-199.53"/>
<polygon fill="#63b8ff" stroke="#63b8ff" points="474.58,-199.8 471.33,-189.71 467.58,-199.62 474.58,-199.8"/>
</a>
</g>
</g>
<!-- Node15 -->
<g id="Node000015" class="node">
<title>Node15</title>
<g id="a_Node000015"><a xlink:href="../../d0/d18/SDL__rect_8h.html" target="_top" xlink:title=" ">
<polygon fill="white" stroke="#666666" points="355.62,-188 262.38,-188 262.38,-168 355.62,-168 355.62,-188"/>
<text xml:space="preserve" text-anchor="middle" x="309" y="-174.5" font-family="Helvetica,sans-Serif" font-size="10.00">SDL3/SDL_rect.h</text>
</a>
</g>
</g>
<!-- Node2&#45;&gt;Node15 -->
<g id="edge28_Node000002_Node000015" class="edge">
<title>Node2&#45;&gt;Node15</title>
<g id="a_edge28_Node000002_Node000015"><a xlink:title=" ">
<path fill="none" stroke="#63b8ff" d="M542.46,-335.63C526.26,-326.84 501.66,-313.11 481,-300 425.12,-264.55 362.15,-218.64 330.14,-194.86"/>
<polygon fill="#63b8ff" stroke="#63b8ff" points="332.56,-192.3 322.45,-189.13 328.38,-197.91 332.56,-192.3"/>
</a>
</g>
</g>
<!-- Node16 -->
<g id="Node000016" class="node">
<title>Node16</title>
<g id="a_Node000016"><a xlink:href="../../db/dac/SDL__surface_8h.html" target="_top" xlink:title=" ">
<polygon fill="white" stroke="#666666" points="614.5,-300 505.5,-300 505.5,-280 614.5,-280 614.5,-300"/>
<text xml:space="preserve" text-anchor="middle" x="560" y="-286.5" font-family="Helvetica,sans-Serif" font-size="10.00">SDL3/SDL_surface.h</text>
</a>
</g>
</g>
<!-- Node2&#45;&gt;Node16 -->
<g id="edge33_Node000002_Node000016" class="edge">
<title>Node2&#45;&gt;Node16</title>
<g id="a_edge33_Node000002_Node000016"><a xlink:title=" ">
<path fill="none" stroke="#63b8ff" d="M560,-335.59C560,-329.01 560,-319.96 560,-311.73"/>
<polygon fill="#63b8ff" stroke="#63b8ff" points="563.5,-311.81 560,-301.81 556.5,-311.81 563.5,-311.81"/>
</a>
</g>
</g>
<!-- Node4 -->
<g id="Node000004" class="node">
<title>Node4</title>
<g id="a_Node000004"><a xlink:href="../../d3/d8b/SDL__platform__defines_8h.html" target="_top" xlink:title=" ">
<polygon fill="white" stroke="#666666" points="521.38,-20 372.62,-20 372.62,0 521.38,0 521.38,-20"/>
<text xml:space="preserve" text-anchor="middle" x="447" y="-6.5" font-family="Helvetica,sans-Serif" font-size="10.00">SDL3/SDL_platform_defines.h</text>
</a>
</g>
</g>
<!-- Node3&#45;&gt;Node4 -->
<g id="edge3_Node000003_Node000004" class="edge">
<title>Node3&#45;&gt;Node4</title>
<g id="a_edge3_Node000003_Node000004"><a xlink:title=" ">
<path fill="none" stroke="#63b8ff" d="M351.21,-55.59C369.23,-47.21 395.87,-34.8 416.48,-25.21"/>
<polygon fill="#63b8ff" stroke="#63b8ff" points="417.68,-28.51 425.26,-21.12 414.72,-22.17 417.68,-28.51"/>
</a>
</g>
</g>
<!-- Node5 -->
<g id="Node000005" class="node">
<title>Node5</title>
<g id="a_Node000005"><a xlink:title=" ">
<polygon fill="#e0e0e0" stroke="#999999" points="153.62,-20 102.38,-20 102.38,0 153.62,0 153.62,-20"/>
<text xml:space="preserve" text-anchor="middle" x="128" y="-6.5" font-family="Helvetica,sans-Serif" font-size="10.00">stdarg.h</text>
</a>
</g>
</g>
<!-- Node3&#45;&gt;Node5 -->
<g id="edge4_Node000003_Node000005" class="edge">
<title>Node3&#45;&gt;Node5</title>
<g id="a_edge4_Node000003_Node000005"><a xlink:title=" ">
<path fill="none" stroke="#63b8ff" d="M295.64,-55.59C258.99,-45.84 201.97,-30.68 164.8,-20.79"/>
<polygon fill="#63b8ff" stroke="#63b8ff" points="165.97,-17.48 155.4,-18.29 164.17,-24.24 165.97,-17.48"/>
</a>
</g>
</g>
<!-- Node6 -->
<g id="Node000006" class="node">
<title>Node6</title>
<g id="a_Node000006"><a xlink:title=" ">
<polygon fill="#e0e0e0" stroke="#999999" points="220.12,-20 171.88,-20 171.88,0 220.12,0 220.12,-20"/>
<text xml:space="preserve" text-anchor="middle" x="196" y="-6.5" font-family="Helvetica,sans-Serif" font-size="10.00">stdint.h</text>
</a>
</g>
</g>
<!-- Node3&#45;&gt;Node6 -->
<g id="edge5_Node000003_Node000006" class="edge">
<title>Node3&#45;&gt;Node6</title>
<g id="a_edge5_Node000003_Node000006"><a xlink:title=" ">
<path fill="none" stroke="#63b8ff" d="M307.48,-55.59C286.13,-47.05 254.37,-34.35 230.2,-24.68"/>
<polygon fill="#63b8ff" stroke="#63b8ff" points="231.69,-21.51 221.1,-21.04 229.09,-28.01 231.69,-21.51"/>
</a>
</g>
</g>
<!-- Node7 -->
<g id="Node000007" class="node">
<title>Node7</title>
<g id="a_Node000007"><a xlink:title=" ">
<polygon fill="#e0e0e0" stroke="#999999" points="286.12,-20 237.88,-20 237.88,0 286.12,0 286.12,-20"/>
<text xml:space="preserve" text-anchor="middle" x="262" y="-6.5" font-family="Helvetica,sans-Serif" font-size="10.00">string.h</text>
</a>
</g>
</g>
<!-- Node3&#45;&gt;Node7 -->
<g id="edge6_Node000003_Node000007" class="edge">
<title>Node3&#45;&gt;Node7</title>
<g id="a_edge6_Node000003_Node000007"><a xlink:title=" ">
<path fill="none" stroke="#63b8ff" d="M318.98,-55.59C308.99,-47.77 294.54,-36.46 282.69,-27.19"/>
<polygon fill="#63b8ff" stroke="#63b8ff" points="285.11,-24.64 275.07,-21.23 280.79,-30.15 285.11,-24.64"/>
</a>
</g>
</g>
<!-- Node8 -->
<g id="Node000008" class="node">
<title>Node8</title>
<g id="a_Node000008"><a xlink:title=" ">
<polygon fill="#e0e0e0" stroke="#999999" points="354.25,-20 303.75,-20 303.75,0 354.25,0 354.25,-20"/>
<text xml:space="preserve" text-anchor="middle" x="329" y="-6.5" font-family="Helvetica,sans-Serif" font-size="10.00">wchar.h</text>
</a>
</g>
</g>
<!-- Node3&#45;&gt;Node8 -->
<g id="edge7_Node000003_Node000008" class="edge">
<title>Node3&#45;&gt;Node8</title>
<g id="a_edge7_Node000003_Node000008"><a xlink:title=" ">
<path fill="none" stroke="#63b8ff" d="M330.65,-55.59C330.41,-49.01 330.07,-39.96 329.77,-31.73"/>
<polygon fill="#63b8ff" stroke="#63b8ff" points="333.27,-31.67 329.4,-21.81 326.27,-31.93 333.27,-31.67"/>
</a>
</g>
</g>
<!-- Node3&#45;&gt;Node9 -->
<g id="edge8_Node000003_Node000009" class="edge">
<title>Node3&#45;&gt;Node9</title>
<g id="a_edge8_Node000003_Node000009"><a xlink:title=" ">
<path fill="none" stroke="#63b8ff" d="M382.67,-59.47C472.44,-49.88 657.52,-30.08 761.29,-18.99"/>
<polygon fill="#63b8ff" stroke="#63b8ff" points="761.53,-22.48 771.1,-17.94 760.78,-15.52 761.53,-22.48"/>
</a>
</g>
</g>
<!-- Node3&#45;&gt;Node10 -->
<g id="edge9_Node000003_Node000010" class="edge">
<title>Node3&#45;&gt;Node10</title>
<g id="a_edge9_Node000003_Node000010"><a xlink:title=" ">
<path fill="none" stroke="#63b8ff" d="M378.69,-55.53C424.77,-46.38 494.68,-32.5 544.19,-22.68"/>
<polygon fill="#63b8ff" stroke="#63b8ff" points="544.75,-26.13 553.88,-20.75 543.39,-19.27 544.75,-26.13"/>
</a>
</g>
</g>
<!-- Node11&#45;&gt;Node3 -->
<g id="edge11_Node000011_Node000003" class="edge">
<title>Node11&#45;&gt;Node3</title>
<g id="a_edge11_Node000011_Node000003"><a xlink:title=" ">
<path fill="none" stroke="#63b8ff" d="M551.19,-111.53C506.05,-102.4 437.62,-88.56 389.04,-78.74"/>
<polygon fill="#63b8ff" stroke="#63b8ff" points="389.74,-75.31 379.24,-76.76 388.35,-82.17 389.74,-75.31"/>
</a>
</g>
</g>
<!-- Node11&#45;&gt;Node9 -->
<g id="edge12_Node000011_Node000009" class="edge">
<title>Node11&#45;&gt;Node9</title>
<g id="a_edge12_Node000011_Node000009"><a xlink:title=" ">
<path fill="none" stroke="#63b8ff" d="M631.89,-111.55C658.81,-103.53 697.1,-90.95 729,-76 759.44,-61.73 792.16,-40.97 813.29,-26.78"/>
<polygon fill="#63b8ff" stroke="#63b8ff" points="815.12,-29.76 821.42,-21.25 811.19,-23.98 815.12,-29.76"/>
</a>
</g>
</g>
<!-- Node11&#45;&gt;Node10 -->
<g id="edge13_Node000011_Node000010" class="edge">
<title>Node11&#45;&gt;Node10</title>
<g id="a_edge13_Node000011_Node000010"><a xlink:title=" ">
<path fill="none" stroke="#63b8ff" d="M598.43,-111.62C599.23,-94.01 600.97,-55.59 602.06,-31.65"/>
<polygon fill="#63b8ff" stroke="#63b8ff" points="605.55,-32.02 602.51,-21.87 598.56,-31.7 605.55,-32.02"/>
</a>
</g>
</g>
<!-- Node12&#45;&gt;Node3 -->
<g id="edge15_Node000012_Node000003" class="edge">
<title>Node12&#45;&gt;Node3</title>
<g id="a_edge15_Node000012_Node000003"><a xlink:title=" ">
<path fill="none" stroke="#63b8ff" d="M838.34,-167.59C789.15,-151.54 690.52,-119.86 655,-112 565.42,-92.18 459.87,-79.45 394.19,-72.76"/>
<polygon fill="#63b8ff" stroke="#63b8ff" points="394.6,-69.29 384.3,-71.77 393.9,-76.25 394.6,-69.29"/>
</a>
</g>
</g>
<!-- Node12&#45;&gt;Node9 -->
<g id="edge21_Node000012_Node000009" class="edge">
<title>Node12&#45;&gt;Node9</title>
<g id="a_edge21_Node000012_Node000009"><a xlink:title=" ">
<path fill="none" stroke="#63b8ff" d="M887.44,-167.61C901.1,-160.11 918,-148.16 926,-132 929.94,-124.03 928.61,-120.5 926,-112 914.83,-75.66 881.8,-44.89 859.02,-27.18"/>
<polygon fill="#63b8ff" stroke="#63b8ff" points="861.3,-24.51 851.2,-21.32 857.1,-30.12 861.3,-24.51"/>
</a>
</g>
</g>
<!-- Node12&#45;&gt;Node10 -->
<g id="edge22_Node000012_Node000010" class="edge">
<title>Node12&#45;&gt;Node10</title>
<g id="a_edge22_Node000012_Node000010"><a xlink:title=" ">
<path fill="none" stroke="#63b8ff" d="M867.89,-167.9C868.71,-154.2 868.23,-128.16 855,-112 811.19,-58.49 734.82,-33.14 677.61,-21.25"/>
<polygon fill="#63b8ff" stroke="#63b8ff" points="678.41,-17.84 667.92,-19.34 677.05,-24.71 678.41,-17.84"/>
</a>
</g>
</g>
<!-- Node12&#45;&gt;Node11 -->
<g id="edge16_Node000012_Node000011" class="edge">
<title>Node12&#45;&gt;Node11</title>
<g id="a_edge16_Node000012_Node000011"><a xlink:title=" ">
<path fill="none" stroke="#63b8ff" d="M819.84,-167.53C774.26,-158.38 705.13,-144.5 656.16,-134.68"/>
<polygon fill="#63b8ff" stroke="#63b8ff" points="657.09,-131.29 646.59,-132.75 655.71,-138.15 657.09,-131.29"/>
</a>
</g>
</g>
<!-- Node13 -->
<g id="Node000013" class="node">
<title>Node13</title>
<g id="a_Node000013"><a xlink:href="../../d6/de1/SDL__endian_8h.html" target="_top" xlink:title=" ">
<polygon fill="white" stroke="#666666" points="845.62,-132 740.38,-132 740.38,-112 845.62,-112 845.62,-132"/>
<text xml:space="preserve" text-anchor="middle" x="793" y="-118.5" font-family="Helvetica,sans-Serif" font-size="10.00">SDL3/SDL_endian.h</text>
</a>
</g>
</g>
<!-- Node12&#45;&gt;Node13 -->
<g id="edge17_Node000012_Node000013" class="edge">
<title>Node12&#45;&gt;Node13</title>
<g id="a_edge17_Node000012_Node000013"><a xlink:title=" ">
<path fill="none" stroke="#63b8ff" d="M854.11,-167.59C843.29,-159.7 827.59,-148.24 814.81,-138.92"/>
<polygon fill="#63b8ff" stroke="#63b8ff" points="817.11,-136.26 806.96,-133.19 812.98,-141.91 817.11,-136.26"/>
</a>
</g>
</g>
<!-- Node13&#45;&gt;Node3 -->
<g id="edge18_Node000013_Node000003" class="edge">
<title>Node13&#45;&gt;Node3</title>
<g id="a_edge18_Node000013_Node000003"><a xlink:title=" ">
<path fill="none" stroke="#63b8ff" d="M739.98,-113.78C735.26,-113.16 730.54,-112.56 726,-112 608.82,-97.46 471.84,-82.25 393.87,-73.77"/>
<polygon fill="#63b8ff" stroke="#63b8ff" points="394.62,-70.33 384.31,-72.73 393.87,-77.29 394.62,-70.33"/>
</a>
</g>
</g>
<!-- Node13&#45;&gt;Node9 -->
<g id="edge19_Node000013_Node000009" class="edge">
<title>Node13&#45;&gt;Node9</title>
<g id="a_edge19_Node000013_Node000009"><a xlink:title=" ">
<path fill="none" stroke="#63b8ff" d="M796.67,-111.62C803.62,-93.84 818.85,-54.88 828.18,-31"/>
<polygon fill="#63b8ff" stroke="#63b8ff" points="831.41,-32.35 831.79,-21.76 824.89,-29.8 831.41,-32.35"/>
</a>
</g>
</g>
<!-- Node13&#45;&gt;Node10 -->
<g id="edge20_Node000013_Node000010" class="edge">
<title>Node13&#45;&gt;Node10</title>
<g id="a_edge20_Node000013_Node000010"><a xlink:title=" ">
<path fill="none" stroke="#63b8ff" d="M776.8,-111.62C743.85,-92.54 668.77,-49.08 628.94,-26.02"/>
<polygon fill="#63b8ff" stroke="#63b8ff" points="630.88,-23.09 620.47,-21.11 627.37,-29.15 630.88,-23.09"/>
</a>
</g>
</g>
<!-- Node14&#45;&gt;Node3 -->
<g id="edge24_Node000014_Node000003" class="edge">
<title>Node14&#45;&gt;Node3</title>
<g id="a_edge24_Node000014_Node000003"><a xlink:title=" ">
<path fill="none" stroke="#63b8ff" d="M459.98,-167.62C435.94,-148.87 381.7,-106.55 351.78,-83.21"/>
<polygon fill="#63b8ff" stroke="#63b8ff" points="354.22,-80.68 344.18,-77.29 349.92,-86.2 354.22,-80.68"/>
</a>
</g>
</g>
<!-- Node14&#45;&gt;Node9 -->
<g id="edge26_Node000014_Node000009" class="edge">
<title>Node14&#45;&gt;Node9</title>
<g id="a_edge26_Node000014_Node000009"><a xlink:title=" ">
<path fill="none" stroke="#63b8ff" d="M479.53,-167.72C491.3,-153.8 515.35,-127.47 541,-112 616.93,-66.2 716.47,-37.66 778.32,-23.04"/>
<polygon fill="#63b8ff" stroke="#63b8ff" points="778.99,-26.48 787.94,-20.82 777.41,-19.66 778.99,-26.48"/>
</a>
</g>
</g>
<!-- Node14&#45;&gt;Node10 -->
<g id="edge27_Node000014_Node000010" class="edge">
<title>Node14&#45;&gt;Node10</title>
<g id="a_edge27_Node000014_Node000010"><a xlink:title=" ">
<path fill="none" stroke="#63b8ff" d="M468.47,-167.72C460.81,-145.89 445.26,-90.48 470,-56 479.41,-42.89 514.65,-31.3 546.5,-23.17"/>
<polygon fill="#63b8ff" stroke="#63b8ff" points="547.23,-26.6 556.1,-20.81 545.56,-19.8 547.23,-26.6"/>
</a>
</g>
</g>
<!-- Node14&#45;&gt;Node11 -->
<g id="edge25_Node000014_Node000011" class="edge">
<title>Node14&#45;&gt;Node11</title>
<g id="a_edge25_Node000014_Node000011"><a xlink:title=" ">
<path fill="none" stroke="#63b8ff" d="M493.95,-167.59C513.7,-159.13 542.99,-146.58 565.47,-136.94"/>
<polygon fill="#63b8ff" stroke="#63b8ff" points="566.68,-140.23 574.49,-133.08 563.92,-133.8 566.68,-140.23"/>
</a>
</g>
</g>
<!-- Node15&#45;&gt;Node3 -->
<g id="edge29_Node000015_Node000003" class="edge">
<title>Node15&#45;&gt;Node3</title>
<g id="a_edge29_Node000015_Node000003"><a xlink:title=" ">
<path fill="none" stroke="#63b8ff" d="M309.87,-167.67C311.14,-154.98 313.83,-131.61 318,-112 319.75,-103.75 322.22,-94.8 324.53,-87.07"/>
<polygon fill="#63b8ff" stroke="#63b8ff" points="327.83,-88.24 327.47,-77.65 321.15,-86.16 327.83,-88.24"/>
</a>
</g>
</g>
<!-- Node15&#45;&gt;Node9 -->
<g id="edge31_Node000015_Node000009" class="edge">
<title>Node15&#45;&gt;Node9</title>
<g id="a_edge31_Node000015_Node000009"><a xlink:title=" ">
<path fill="none" stroke="#63b8ff" d="M328.84,-167.65C376.7,-145.41 502.74,-88.78 613,-56 662.11,-41.4 718.7,-30.04 762.59,-22.39"/>
<polygon fill="#63b8ff" stroke="#63b8ff" points="762.99,-25.87 772.25,-20.73 761.8,-18.97 762.99,-25.87"/>
</a>
</g>
</g>
<!-- Node15&#45;&gt;Node10 -->
<g id="edge32_Node000015_Node000010" class="edge">
<title>Node15&#45;&gt;Node10</title>
<g id="a_edge32_Node000015_Node000010"><a xlink:title=" ">
<path fill="none" stroke="#63b8ff" d="M262.07,-175.55C196.51,-172.43 82.64,-162.63 57,-132 51.29,-125.18 52.37,-119.59 57,-112 132.24,11.24 416.29,-27.43 528.46,-19.88"/>
<polygon fill="#63b8ff" stroke="#63b8ff" points="528.54,-23.39 538.2,-19.03 527.93,-16.42 528.54,-23.39"/>
</a>
</g>
</g>
<!-- Node15&#45;&gt;Node11 -->
<g id="edge30_Node000015_Node000011" class="edge">
<title>Node15&#45;&gt;Node11</title>
<g id="a_edge30_Node000015_Node000011"><a xlink:title=" ">
<path fill="none" stroke="#63b8ff" d="M356.08,-168.2C405.8,-158.91 484.34,-144.24 538.36,-134.14"/>
<polygon fill="#63b8ff" stroke="#63b8ff" points="538.82,-137.62 548.01,-132.34 537.54,-130.74 538.82,-137.62"/>
</a>
</g>
</g>
<!-- Node16&#45;&gt;Node3 -->
<g id="edge34_Node000016_Node000003" class="edge">
<title>Node16&#45;&gt;Node3</title>
<g id="a_edge34_Node000016_Node000003"><a xlink:title=" ">
<path fill="none" stroke="#63b8ff" d="M523.21,-279.53C445.21,-259.08 269.02,-210.82 253,-188 227.1,-151.11 276.4,-106.15 307.8,-82.79"/>
<polygon fill="#63b8ff" stroke="#63b8ff" points="309.57,-85.83 315.64,-77.15 305.48,-80.15 309.57,-85.83"/>
</a>
</g>
</g>
<!-- Node16&#45;&gt;Node9 -->
<g id="edge49_Node000016_Node000009" class="edge">
<title>Node16&#45;&gt;Node9</title>
<g id="a_edge49_Node000016_Node000009"><a xlink:title=" ">
<path fill="none" stroke="#63b8ff" d="M614.67,-281.15C706.29,-266.87 884.95,-233.83 927,-188 966.89,-144.53 953.33,-99.05 913,-56 900.99,-43.18 884.5,-32.88 869.86,-25.39"/>
<polygon fill="#63b8ff" stroke="#63b8ff" points="871.51,-22.3 860.98,-21.1 868.46,-28.6 871.51,-22.3"/>
</a>
</g>
</g>
<!-- Node16&#45;&gt;Node10 -->
<g id="edge50_Node000016_Node000010" class="edge">
<title>Node16&#45;&gt;Node10</title>
<g id="a_edge50_Node000016_Node000010"><a xlink:title=" ">
<path fill="none" stroke="#63b8ff" d="M592.74,-279.57C610.57,-272.68 631.32,-261.43 643,-244 675.79,-195.06 668.87,-169.25 655,-112 647.55,-81.27 629.04,-49.42 616.24,-29.9"/>
<polygon fill="#63b8ff" stroke="#63b8ff" points="619.18,-27.99 610.67,-21.67 613.38,-31.91 619.18,-27.99"/>
</a>
</g>
</g>
<!-- Node16&#45;&gt;Node11 -->
<g id="edge35_Node000016_Node000011" class="edge">
<title>Node16&#45;&gt;Node11</title>
<g id="a_edge35_Node000016_Node000011"><a xlink:title=" ">
<path fill="none" stroke="#63b8ff" d="M584.1,-279.6C599.11,-272.33 617.19,-260.68 626,-244 643.55,-210.79 624.25,-166.74 610.12,-141.99"/>
<polygon fill="#63b8ff" stroke="#63b8ff" points="613.26,-140.42 605.11,-133.66 607.27,-144.03 613.26,-140.42"/>
</a>
</g>
</g>
<!-- Node16&#45;&gt;Node12 -->
<g id="edge40_Node000016_Node000012" class="edge">
<title>Node16&#45;&gt;Node12</title>
<g id="a_edge40_Node000016_Node000012"><a xlink:title=" ">
<path fill="none" stroke="#63b8ff" d="M602.56,-279.54C636.46,-271.51 684.88,-258.93 726,-244 766.26,-229.38 810.87,-207.86 838.91,-193.65"/>
<polygon fill="#63b8ff" stroke="#63b8ff" points="840.5,-196.77 847.81,-189.1 837.31,-190.54 840.5,-196.77"/>
</a>
</g>
</g>
<!-- Node16&#45;&gt;Node14 -->
<g id="edge41_Node000016_Node000014" class="edge">
<title>Node16&#45;&gt;Node14</title>
<g id="a_edge41_Node000016_Node000014"><a xlink:title=" ">
<path fill="none" stroke="#63b8ff" d="M539.48,-279.51C524.91,-271.81 505.91,-259.68 494,-244 484.07,-230.92 478.46,-213.09 475.39,-199.41"/>
<polygon fill="#63b8ff" stroke="#63b8ff" points="478.86,-198.91 473.52,-189.75 471.98,-200.24 478.86,-198.91"/>
</a>
</g>
</g>
<!-- Node16&#45;&gt;Node15 -->
<g id="edge42_Node000016_Node000015" class="edge">
<title>Node16&#45;&gt;Node15</title>
<g id="a_edge42_Node000016_Node000015"><a xlink:title=" ">
<path fill="none" stroke="#63b8ff" d="M538.6,-279.62C494.33,-260.22 392.49,-215.59 340.62,-192.86"/>
<polygon fill="#63b8ff" stroke="#63b8ff" points="342.3,-189.77 331.73,-188.96 339.49,-196.18 342.3,-189.77"/>
</a>
</g>
</g>
<!-- Node17 -->
<g id="Node000017" class="node">
<title>Node17</title>
<g id="a_Node000017"><a xlink:href="../../d0/dad/SDL__blendmode_8h.html" target="_top" xlink:title=" ">
<polygon fill="white" stroke="#666666" points="190,-132 66,-132 66,-112 190,-112 190,-132"/>
<text xml:space="preserve" text-anchor="middle" x="128" y="-118.5" font-family="Helvetica,sans-Serif" font-size="10.00">SDL3/SDL_blendmode.h</text>
</a>
</g>
</g>
<!-- Node16&#45;&gt;Node17 -->
<g id="edge36_Node000016_Node000017" class="edge">
<title>Node16&#45;&gt;Node17</title>
<g id="a_edge36_Node000016_Node000017"><a xlink:title=" ">
<path fill="none" stroke="#63b8ff" d="M505.08,-282.15C458.66,-275.39 390.84,-263.25 334,-244 280.53,-225.89 268.54,-216.82 220,-188 194.75,-173 167.46,-153.23 149.22,-139.45"/>
<polygon fill="#63b8ff" stroke="#63b8ff" points="151.36,-136.68 141.28,-133.39 147.11,-142.24 151.36,-136.68"/>
</a>
</g>
</g>
<!-- Node18 -->
<g id="Node000018" class="node">
<title>Node18</title>
<g id="a_Node000018"><a xlink:href="../../d8/d35/SDL__iostream_8h.html" target="_top" xlink:title=" ">
<polygon fill="white" stroke="#666666" points="617.12,-244 502.88,-244 502.88,-224 617.12,-224 617.12,-244"/>
<text xml:space="preserve" text-anchor="middle" x="560" y="-230.5" font-family="Helvetica,sans-Serif" font-size="10.00">SDL3/SDL_iostream.h</text>
</a>
</g>
</g>
<!-- Node16&#45;&gt;Node18 -->
<g id="edge43_Node000016_Node000018" class="edge">
<title>Node16&#45;&gt;Node18</title>
<g id="a_edge43_Node000016_Node000018"><a xlink:title=" ">
<path fill="none" stroke="#63b8ff" d="M560,-279.59C560,-273.01 560,-263.96 560,-255.73"/>
<polygon fill="#63b8ff" stroke="#63b8ff" points="563.5,-255.81 560,-245.81 556.5,-255.81 563.5,-255.81"/>
</a>
</g>
</g>
<!-- Node17&#45;&gt;Node3 -->
<g id="edge37_Node000017_Node000003" class="edge">
<title>Node17&#45;&gt;Node3</title>
<g id="a_edge37_Node000017_Node000003"><a xlink:title=" ">
<path fill="none" stroke="#63b8ff" d="M163.36,-111.59C196.92,-102.67 247.57,-89.19 284.41,-79.39"/>
<polygon fill="#63b8ff" stroke="#63b8ff" points="285.14,-82.82 293.9,-76.87 283.34,-76.06 285.14,-82.82"/>
</a>
</g>
</g>
<!-- Node17&#45;&gt;Node9 -->
<g id="edge38_Node000017_Node000009" class="edge">
<title>Node17&#45;&gt;Node9</title>
<g id="a_edge38_Node000017_Node000009"><a xlink:title=" ">
<path fill="none" stroke="#63b8ff" d="M143.51,-111.69C168.92,-96.94 221.45,-68.62 270,-56 316.33,-43.96 618.2,-24.28 761.16,-15.49"/>
<polygon fill="#63b8ff" stroke="#63b8ff" points="761.14,-19 770.9,-14.89 760.71,-12.01 761.14,-19"/>
</a>
</g>
</g>
<!-- Node17&#45;&gt;Node10 -->
<g id="edge39_Node000017_Node000010" class="edge">
<title>Node17&#45;&gt;Node10</title>
<g id="a_edge39_Node000017_Node000010"><a xlink:title=" ">
<path fill="none" stroke="#63b8ff" d="M134.54,-111.95C145.7,-97.32 169.94,-68.81 198,-56 329.72,4.12 380.1,-35.06 528.38,-20.09"/>
<polygon fill="#63b8ff" stroke="#63b8ff" points="528.63,-23.58 538.19,-19.03 527.87,-16.62 528.63,-23.58"/>
</a>
</g>
</g>
<!-- Node18&#45;&gt;Node3 -->
<g id="edge44_Node000018_Node000003" class="edge">
<title>Node18&#45;&gt;Node3</title>
<g id="a_edge44_Node000018_Node000003"><a xlink:title=" ">
<path fill="none" stroke="#63b8ff" d="M502.68,-227.05C470.69,-221.32 431.64,-210.07 403,-188 368.75,-161.6 347.45,-113.91 337.56,-86.95"/>
<polygon fill="#63b8ff" stroke="#63b8ff" points="340.9,-85.91 334.31,-77.61 334.29,-88.21 340.9,-85.91"/>
</a>
</g>
</g>
<!-- Node18&#45;&gt;Node9 -->
<g id="edge47_Node000018_Node000009" class="edge">
<title>Node18&#45;&gt;Node9</title>
<g id="a_edge47_Node000018_Node000009"><a xlink:title=" ">
<path fill="none" stroke="#63b8ff" d="M608.15,-223.53C684.03,-207.53 825.81,-172.85 855,-132 876.75,-101.56 859.63,-55.8 846.79,-30.16"/>
<polygon fill="#63b8ff" stroke="#63b8ff" points="850,-28.75 842.22,-21.55 843.82,-32.03 850,-28.75"/>
</a>
</g>
</g>
<!-- Node18&#45;&gt;Node10 -->
<g id="edge48_Node000018_Node000010" class="edge">
<title>Node18&#45;&gt;Node10</title>
<g id="a_edge48_Node000018_Node000010"><a xlink:title=" ">
<path fill="none" stroke="#63b8ff" d="M557.52,-223.73C551.13,-199.22 535.02,-133.18 541,-112 550,-80.13 572.19,-48.41 587.43,-29.25"/>
<polygon fill="#63b8ff" stroke="#63b8ff" points="590.06,-31.56 593.69,-21.61 584.65,-27.12 590.06,-31.56"/>
</a>
</g>
</g>
<!-- Node18&#45;&gt;Node11 -->
<g id="edge45_Node000018_Node000011" class="edge">
<title>Node18&#45;&gt;Node11</title>
<g id="a_edge45_Node000018_Node000011"><a xlink:title=" ">
<path fill="none" stroke="#63b8ff" d="M563.24,-223.62C569.38,-205.84 582.84,-166.88 591.09,-143"/>
<polygon fill="#63b8ff" stroke="#63b8ff" points="594.32,-144.38 594.27,-133.79 587.7,-142.09 594.32,-144.38"/>
</a>
</g>
</g>
<!-- Node18&#45;&gt;Node14 -->
<g id="edge46_Node000018_Node000014" class="edge">
<title>Node18&#45;&gt;Node14</title>
<g id="a_edge46_Node000018_Node000014"><a xlink:title=" ">
<path fill="none" stroke="#63b8ff" d="M544.67,-223.59C531.5,-215.51 512.27,-203.71 496.89,-194.27"/>
<polygon fill="#63b8ff" stroke="#63b8ff" points="499.09,-191.52 488.74,-189.27 495.43,-197.48 499.09,-191.52"/>
</a>
</g>
</g>
</g>
</svg>
