<?xml version="1.0" encoding="UTF-8" standalone="no"?>
<!DOCTYPE svg PUBLIC "-//W3C//DTD SVG 1.1//EN"
 "http://www.w3.org/Graphics/SVG/1.1/DTD/svg11.dtd">
<!-- Generated by graphviz version 13.1.0 (20250701.0955)
 -->
<!-- Title: SDL&#45;main/src/locale/SDL_syslocale.h Pages: 1 -->
<svg width="1688pt" height="108pt"
 viewBox="0.00 0.00 1688.00 108.00" xmlns="http://www.w3.org/2000/svg" xmlns:xlink="http://www.w3.org/1999/xlink">
<g id="graph0" class="graph" transform="scale(1 1) rotate(0) translate(4 104)">
<title>SDL&#45;main/src/locale/SDL_syslocale.h</title>
<!-- Node1 -->
<g id="Node000001" class="node">
<title>Node1</title>
<g id="a_Node000001"><a xlink:title=" ">
<polygon fill="#999999" stroke="#666666" points="906.5,-100 802,-100 802,-68 906.5,-68 906.5,-100"/>
<text xml:space="preserve" text-anchor="start" x="810" y="-86.5" font-family="Helvetica,sans-Serif" font-size="10.00">SDL&#45;main/src/locale</text>
<text xml:space="preserve" text-anchor="middle" x="854.25" y="-74.5" font-family="Helvetica,sans-Serif" font-size="10.00">/SDL_syslocale.h</text>
</a>
</g>
</g>
<!-- Node2 -->
<g id="Node000002" class="node">
<title>Node2</title>
<g id="a_Node000002"><a xlink:href="../../d9/d8f/SDL__locale_8c.html" target="_top" xlink:title=" ">
<polygon fill="white" stroke="#666666" points="104.5,-32 0,-32 0,0 104.5,0 104.5,-32"/>
<text xml:space="preserve" text-anchor="start" x="8" y="-18.5" font-family="Helvetica,sans-Serif" font-size="10.00">SDL&#45;main/src/locale</text>
<text xml:space="preserve" text-anchor="middle" x="52.25" y="-6.5" font-family="Helvetica,sans-Serif" font-size="10.00">/SDL_locale.c</text>
</a>
</g>
</g>
<!-- Node1&#45;&gt;Node2 -->
<g id="edge1_Node000001_Node000002" class="edge">
<title>Node1&#45;&gt;Node2</title>
<g id="a_edge1_Node000001_Node000002"><a xlink:title=" ">
<path fill="none" stroke="#63b8ff" d="M790.62,-82.31C661.93,-80.09 361.83,-70.82 113.25,-32 110.45,-31.56 107.59,-31.06 104.71,-30.51"/>
<polygon fill="#63b8ff" stroke="#63b8ff" points="790.23,-85.8 800.29,-82.46 790.34,-78.8 790.23,-85.8"/>
</a>
</g>
</g>
<!-- Node3 -->
<g id="Node000003" class="node">
<title>Node3</title>
<g id="a_Node000003"><a xlink:href="../../d7/dc1/android_2SDL__syslocale_8c.html" target="_top" xlink:title=" ">
<polygon fill="white" stroke="#666666" points="250.12,-32 122.38,-32 122.38,0 250.12,0 250.12,-32"/>
<text xml:space="preserve" text-anchor="start" x="130.38" y="-18.5" font-family="Helvetica,sans-Serif" font-size="10.00">SDL&#45;main/src/locale</text>
<text xml:space="preserve" text-anchor="middle" x="186.25" y="-6.5" font-family="Helvetica,sans-Serif" font-size="10.00">/android/SDL_syslocale.c</text>
</a>
</g>
</g>
<!-- Node1&#45;&gt;Node3 -->
<g id="edge2_Node000001_Node000003" class="edge">
<title>Node1&#45;&gt;Node3</title>
<g id="a_edge2_Node000001_Node000003"><a xlink:title=" ">
<path fill="none" stroke="#63b8ff" d="M790.43,-79.99C681.19,-74.28 451.55,-59.9 259.25,-32 256.31,-31.57 253.3,-31.1 250.27,-30.6"/>
<polygon fill="#63b8ff" stroke="#63b8ff" points="790.21,-83.48 800.37,-80.5 790.56,-76.49 790.21,-83.48"/>
</a>
</g>
</g>
<!-- Node4 -->
<g id="Node000004" class="node">
<title>Node4</title>
<g id="a_Node000004"><a xlink:href="../../db/d0e/dummy_2SDL__syslocale_8c.html" target="_top" xlink:title=" ">
<polygon fill="white" stroke="#666666" points="396.5,-32 268,-32 268,0 396.5,0 396.5,-32"/>
<text xml:space="preserve" text-anchor="start" x="276" y="-18.5" font-family="Helvetica,sans-Serif" font-size="10.00">SDL&#45;main/src/locale</text>
<text xml:space="preserve" text-anchor="middle" x="332.25" y="-6.5" font-family="Helvetica,sans-Serif" font-size="10.00">/dummy/SDL_syslocale.c</text>
</a>
</g>
</g>
<!-- Node1&#45;&gt;Node4 -->
<g id="edge3_Node000001_Node000004" class="edge">
<title>Node1&#45;&gt;Node4</title>
<g id="a_edge3_Node000001_Node000004"><a xlink:title=" ">
<path fill="none" stroke="#63b8ff" d="M790.2,-77.54C702.87,-69.69 541.68,-53.72 405.25,-32 402.44,-31.55 399.57,-31.07 396.68,-30.56"/>
<polygon fill="#63b8ff" stroke="#63b8ff" points="789.73,-81.02 800,-78.42 790.35,-74.04 789.73,-81.02"/>
</a>
</g>
</g>
<!-- Node5 -->
<g id="Node000005" class="node">
<title>Node5</title>
<g id="a_Node000005"><a xlink:href="../../d3/d5c/emscripten_2SDL__syslocale_8c.html" target="_top" xlink:title=" ">
<polygon fill="white" stroke="#666666" points="558.38,-32 414.12,-32 414.12,0 558.38,0 558.38,-32"/>
<text xml:space="preserve" text-anchor="start" x="422.12" y="-18.5" font-family="Helvetica,sans-Serif" font-size="10.00">SDL&#45;main/src/locale</text>
<text xml:space="preserve" text-anchor="middle" x="486.25" y="-6.5" font-family="Helvetica,sans-Serif" font-size="10.00">/emscripten/SDL_syslocale.c</text>
</a>
</g>
</g>
<!-- Node1&#45;&gt;Node5 -->
<g id="edge4_Node000001_Node000005" class="edge">
<title>Node1&#45;&gt;Node5</title>
<g id="a_edge4_Node000001_Node000005"><a xlink:title=" ">
<path fill="none" stroke="#63b8ff" d="M790.34,-71.69C732.37,-61.41 644.56,-45.78 568.25,-32 565.12,-31.43 561.92,-30.85 558.68,-30.27"/>
<polygon fill="#63b8ff" stroke="#63b8ff" points="789.58,-75.11 800.03,-73.41 790.8,-68.21 789.58,-75.11"/>
</a>
</g>
</g>
<!-- Node6 -->
<g id="Node000006" class="node">
<title>Node6</title>
<g id="a_Node000006"><a xlink:href="../../d5/d11/SDL__syslocale_8cc.html" target="_top" xlink:title=" ">
<polygon fill="white" stroke="#666666" points="701.62,-32 576.88,-32 576.88,0 701.62,0 701.62,-32"/>
<text xml:space="preserve" text-anchor="start" x="584.88" y="-18.5" font-family="Helvetica,sans-Serif" font-size="10.00">SDL&#45;main/src/locale</text>
<text xml:space="preserve" text-anchor="middle" x="639.25" y="-6.5" font-family="Helvetica,sans-Serif" font-size="10.00">/haiku/SDL_syslocale.cc</text>
</a>
</g>
</g>
<!-- Node1&#45;&gt;Node6 -->
<g id="edge5_Node000001_Node000006" class="edge">
<title>Node1&#45;&gt;Node6</title>
<g id="a_edge5_Node000001_Node000006"><a xlink:title=" ">
<path fill="none" stroke="#63b8ff" d="M793.05,-64.21C760.36,-54.18 720.61,-41.98 689.71,-32.49"/>
<polygon fill="#63b8ff" stroke="#63b8ff" points="791.81,-67.49 802.4,-67.08 793.86,-60.8 791.81,-67.49"/>
</a>
</g>
</g>
<!-- Node7 -->
<g id="Node000007" class="node">
<title>Node7</title>
<g id="a_Node000007"><a xlink:href="../../dd/db5/SDL__syslocale_8m.html" target="_top" xlink:title=" ">
<polygon fill="white" stroke="#666666" points="848.5,-32 720,-32 720,0 848.5,0 848.5,-32"/>
<text xml:space="preserve" text-anchor="start" x="728" y="-18.5" font-family="Helvetica,sans-Serif" font-size="10.00">SDL&#45;main/src/locale</text>
<text xml:space="preserve" text-anchor="middle" x="784.25" y="-6.5" font-family="Helvetica,sans-Serif" font-size="10.00">/macos/SDL_syslocale.m</text>
</a>
</g>
</g>
<!-- Node1&#45;&gt;Node7 -->
<g id="edge6_Node000001_Node000007" class="edge">
<title>Node1&#45;&gt;Node7</title>
<g id="a_edge6_Node000001_Node000007"><a xlink:title=" ">
<path fill="none" stroke="#63b8ff" d="M829.84,-59.99C820.09,-50.79 809.13,-40.46 800.4,-32.22"/>
<polygon fill="#63b8ff" stroke="#63b8ff" points="827.24,-62.34 836.91,-66.65 832.04,-57.25 827.24,-62.34"/>
</a>
</g>
</g>
<!-- Node8 -->
<g id="Node000008" class="node">
<title>Node8</title>
<g id="a_Node000008"><a xlink:href="../../dd/dd8/n3ds_2SDL__syslocale_8c.html" target="_top" xlink:title=" ">
<polygon fill="white" stroke="#666666" points="983.88,-32 866.62,-32 866.62,0 983.88,0 983.88,-32"/>
<text xml:space="preserve" text-anchor="start" x="874.62" y="-18.5" font-family="Helvetica,sans-Serif" font-size="10.00">SDL&#45;main/src/locale</text>
<text xml:space="preserve" text-anchor="middle" x="925.25" y="-6.5" font-family="Helvetica,sans-Serif" font-size="10.00">/n3ds/SDL_syslocale.c</text>
</a>
</g>
</g>
<!-- Node1&#45;&gt;Node8 -->
<g id="edge7_Node000001_Node000008" class="edge">
<title>Node1&#45;&gt;Node8</title>
<g id="a_edge7_Node000001_Node000008"><a xlink:title=" ">
<path fill="none" stroke="#63b8ff" d="M879.01,-59.99C888.9,-50.79 900.02,-40.46 908.87,-32.22"/>
<polygon fill="#63b8ff" stroke="#63b8ff" points="876.77,-57.29 871.83,-66.66 881.53,-62.42 876.77,-57.29"/>
</a>
</g>
</g>
<!-- Node9 -->
<g id="Node000009" class="node">
<title>Node9</title>
<g id="a_Node000009"><a xlink:href="../../d9/dda/SDL__syslocale_8cpp.html" target="_top" xlink:title=" ">
<polygon fill="white" stroke="#666666" points="1134.75,-32 1001.75,-32 1001.75,0 1134.75,0 1134.75,-32"/>
<text xml:space="preserve" text-anchor="start" x="1009.75" y="-18.5" font-family="Helvetica,sans-Serif" font-size="10.00">SDL&#45;main/src/locale</text>
<text xml:space="preserve" text-anchor="middle" x="1068.25" y="-6.5" font-family="Helvetica,sans-Serif" font-size="10.00">/ngage/SDL_syslocale.cpp</text>
</a>
</g>
</g>
<!-- Node1&#45;&gt;Node9 -->
<g id="edge8_Node000001_Node000009" class="edge">
<title>Node1&#45;&gt;Node9</title>
<g id="a_edge8_Node000001_Node000009"><a xlink:title=" ">
<path fill="none" stroke="#63b8ff" d="M915.17,-64.21C947.7,-54.18 987.27,-41.98 1018.02,-32.49"/>
<polygon fill="#63b8ff" stroke="#63b8ff" points="914.39,-60.79 905.87,-67.08 916.46,-67.48 914.39,-60.79"/>
</a>
</g>
</g>
<!-- Node10 -->
<g id="Node000010" class="node">
<title>Node10</title>
<g id="a_Node000010"><a xlink:href="../../da/d3a/psp_2SDL__syslocale_8c.html" target="_top" xlink:title=" ">
<polygon fill="white" stroke="#666666" points="1265.25,-32 1153.25,-32 1153.25,0 1265.25,0 1265.25,-32"/>
<text xml:space="preserve" text-anchor="start" x="1161.25" y="-18.5" font-family="Helvetica,sans-Serif" font-size="10.00">SDL&#45;main/src/locale</text>
<text xml:space="preserve" text-anchor="middle" x="1209.25" y="-6.5" font-family="Helvetica,sans-Serif" font-size="10.00">/psp/SDL_syslocale.c</text>
</a>
</g>
</g>
<!-- Node1&#45;&gt;Node10 -->
<g id="edge9_Node000001_Node000010" class="edge">
<title>Node1&#45;&gt;Node10</title>
<g id="a_edge9_Node000001_Node000010"><a xlink:title=" ">
<path fill="none" stroke="#63b8ff" d="M918.15,-72.76C977.03,-63.08 1066.76,-47.74 1144.25,-32 1147.09,-31.42 1149.99,-30.82 1152.92,-30.19"/>
<polygon fill="#63b8ff" stroke="#63b8ff" points="917.59,-69.3 908.29,-74.37 918.72,-76.21 917.59,-69.3"/>
</a>
</g>
</g>
<!-- Node11 -->
<g id="Node000011" class="node">
<title>Node11</title>
<g id="a_Node000011"><a xlink:href="../../d3/df0/unix_2SDL__syslocale_8c.html" target="_top" xlink:title=" ">
<polygon fill="white" stroke="#666666" points="1397.38,-32 1283.12,-32 1283.12,0 1397.38,0 1397.38,-32"/>
<text xml:space="preserve" text-anchor="start" x="1291.12" y="-18.5" font-family="Helvetica,sans-Serif" font-size="10.00">SDL&#45;main/src/locale</text>
<text xml:space="preserve" text-anchor="middle" x="1340.25" y="-6.5" font-family="Helvetica,sans-Serif" font-size="10.00">/unix/SDL_syslocale.c</text>
</a>
</g>
</g>
<!-- Node1&#45;&gt;Node11 -->
<g id="edge10_Node000001_Node000011" class="edge">
<title>Node1&#45;&gt;Node11</title>
<g id="a_edge10_Node000001_Node000011"><a xlink:title=" ">
<path fill="none" stroke="#63b8ff" d="M918.35,-77.28C1000.97,-69.44 1148.93,-53.79 1274.25,-32 1277.03,-31.52 1279.87,-30.99 1282.73,-30.44"/>
<polygon fill="#63b8ff" stroke="#63b8ff" points="918.02,-73.8 908.39,-78.22 918.68,-80.77 918.02,-73.8"/>
</a>
</g>
</g>
<!-- Node12 -->
<g id="Node000012" class="node">
<title>Node12</title>
<g id="a_Node000012"><a xlink:href="../../d7/dfe/vita_2SDL__syslocale_8c.html" target="_top" xlink:title=" ">
<polygon fill="white" stroke="#666666" points="1527.25,-32 1415.25,-32 1415.25,0 1527.25,0 1527.25,-32"/>
<text xml:space="preserve" text-anchor="start" x="1423.25" y="-18.5" font-family="Helvetica,sans-Serif" font-size="10.00">SDL&#45;main/src/locale</text>
<text xml:space="preserve" text-anchor="middle" x="1471.25" y="-6.5" font-family="Helvetica,sans-Serif" font-size="10.00">/vita/SDL_syslocale.c</text>
</a>
</g>
</g>
<!-- Node1&#45;&gt;Node12 -->
<g id="edge11_Node000001_Node000012" class="edge">
<title>Node1&#45;&gt;Node12</title>
<g id="a_edge11_Node000001_Node000012"><a xlink:title=" ">
<path fill="none" stroke="#63b8ff" d="M918.12,-79.9C1021.3,-74.26 1230.81,-60.22 1406.25,-32 1409.11,-31.54 1412.03,-31.03 1414.97,-30.48"/>
<polygon fill="#63b8ff" stroke="#63b8ff" points="917.99,-76.4 908.19,-80.43 918.36,-83.39 917.99,-76.4"/>
</a>
</g>
</g>
<!-- Node13 -->
<g id="Node000013" class="node">
<title>Node13</title>
<g id="a_Node000013"><a xlink:href="../../d8/d34/windows_2SDL__syslocale_8c.html" target="_top" xlink:title=" ">
<polygon fill="white" stroke="#666666" points="1679.5,-32 1545,-32 1545,0 1679.5,0 1679.5,-32"/>
<text xml:space="preserve" text-anchor="start" x="1553" y="-18.5" font-family="Helvetica,sans-Serif" font-size="10.00">SDL&#45;main/src/locale</text>
<text xml:space="preserve" text-anchor="middle" x="1612.25" y="-6.5" font-family="Helvetica,sans-Serif" font-size="10.00">/windows/SDL_syslocale.c</text>
</a>
</g>
</g>
<!-- Node1&#45;&gt;Node13 -->
<g id="edge12_Node000001_Node000013" class="edge">
<title>Node1&#45;&gt;Node13</title>
<g id="a_edge12_Node000001_Node000013"><a xlink:title=" ">
<path fill="none" stroke="#63b8ff" d="M917.89,-80.8C1038.84,-76.04 1310,-62.67 1536.25,-32 1539.05,-31.62 1541.9,-31.2 1544.78,-30.75"/>
<polygon fill="#63b8ff" stroke="#63b8ff" points="918.04,-77.29 908.18,-81.17 918.31,-84.28 918.04,-77.29"/>
</a>
</g>
</g>
</g>
</svg>
