<?xml version="1.0" encoding="UTF-8" standalone="no"?>
<!DOCTYPE svg PUBLIC "-//W3C//DTD SVG 1.1//EN"
 "http://www.w3.org/Graphics/SVG/1.1/DTD/svg11.dtd">
<!-- Generated by graphviz version 13.1.0 (20250701.0955)
 -->
<!-- Title: SDL&#45;main/src/SDL_error_c.h Pages: 1 -->
<svg width="1363pt" height="244pt"
 viewBox="0.00 0.00 1363.00 244.00" xmlns="http://www.w3.org/2000/svg" xmlns:xlink="http://www.w3.org/1999/xlink">
<g id="graph0" class="graph" transform="scale(1 1) rotate(0) translate(4 240)">
<title>SDL&#45;main/src/SDL_error_c.h</title>
<!-- Node1 -->
<g id="Node000001" class="node">
<title>Node1</title>
<g id="a_Node000001"><a xlink:title=" ">
<polygon fill="#999999" stroke="#666666" points="787,-236 645,-236 645,-216 787,-216 787,-236"/>
<text xml:space="preserve" text-anchor="middle" x="716" y="-222.5" font-family="Helvetica,sans-Serif" font-size="10.00">SDL&#45;main/src/SDL_error_c.h</text>
</a>
</g>
</g>
<!-- Node2 -->
<g id="Node000002" class="node">
<title>Node2</title>
<g id="a_Node000002"><a xlink:href="../../d9/d63/SDL__error_8c.html" target="_top" xlink:title=" ">
<polygon fill="white" stroke="#666666" points="644.75,-174 513.25,-174 513.25,-154 644.75,-154 644.75,-174"/>
<text xml:space="preserve" text-anchor="middle" x="579" y="-160.5" font-family="Helvetica,sans-Serif" font-size="10.00">SDL&#45;main/src/SDL_error.c</text>
</a>
</g>
</g>
<!-- Node1&#45;&gt;Node2 -->
<g id="edge1_Node000001_Node000002" class="edge">
<title>Node1&#45;&gt;Node2</title>
<g id="a_edge1_Node000001_Node000002"><a xlink:title=" ">
<path fill="none" stroke="#63b8ff" d="M684.2,-211.07C658.39,-199.77 622.72,-184.15 600.26,-174.31"/>
<polygon fill="#63b8ff" stroke="#63b8ff" points="682.64,-214.21 693.21,-215.02 685.45,-207.8 682.64,-214.21"/>
</a>
</g>
</g>
<!-- Node3 -->
<g id="Node000003" class="node">
<title>Node3</title>
<g id="a_Node000003"><a xlink:href="../../de/de3/SDL__thread_8c.html" target="_top" xlink:title=" ">
<polygon fill="white" stroke="#666666" points="1355,-38 1249,-38 1249,-6 1355,-6 1355,-38"/>
<text xml:space="preserve" text-anchor="start" x="1257" y="-24.5" font-family="Helvetica,sans-Serif" font-size="10.00">SDL&#45;main/src/thread</text>
<text xml:space="preserve" text-anchor="middle" x="1302" y="-12.5" font-family="Helvetica,sans-Serif" font-size="10.00">/SDL_thread.c</text>
</a>
</g>
</g>
<!-- Node1&#45;&gt;Node3 -->
<g id="edge2_Node000001_Node000003" class="edge">
<title>Node1&#45;&gt;Node3</title>
<g id="a_edge2_Node000001_Node000003"><a xlink:title=" ">
<path fill="none" stroke="#63b8ff" d="M754.84,-211.91C816.86,-190.97 942.08,-148.58 1048,-112 1121.98,-86.45 1207.89,-56.23 1258.44,-38.39"/>
<polygon fill="#63b8ff" stroke="#63b8ff" points="753.8,-208.56 745.45,-215.08 756.04,-215.19 753.8,-208.56"/>
</a>
</g>
</g>
<!-- Node4 -->
<g id="Node000004" class="node">
<title>Node4</title>
<g id="a_Node000004"><a xlink:href="../../dc/d04/SDL__thread__c_8h.html" target="_top" xlink:title=" ">
<polygon fill="white" stroke="#666666" points="769,-180 663,-180 663,-148 769,-148 769,-180"/>
<text xml:space="preserve" text-anchor="start" x="671" y="-166.5" font-family="Helvetica,sans-Serif" font-size="10.00">SDL&#45;main/src/thread</text>
<text xml:space="preserve" text-anchor="middle" x="716" y="-154.5" font-family="Helvetica,sans-Serif" font-size="10.00">/SDL_thread_c.h</text>
</a>
</g>
</g>
<!-- Node1&#45;&gt;Node4 -->
<g id="edge3_Node000001_Node000004" class="edge">
<title>Node1&#45;&gt;Node4</title>
<g id="a_edge3_Node000001_Node000004"><a xlink:title=" ">
<path fill="none" stroke="#63b8ff" d="M716,-204.31C716,-196.37 716,-187.46 716,-180.14"/>
<polygon fill="#63b8ff" stroke="#63b8ff" points="712.5,-204.11 716,-214.11 719.5,-204.11 712.5,-204.11"/>
</a>
</g>
</g>
<!-- Node4&#45;&gt;Node3 -->
<g id="edge16_Node000004_Node000003" class="edge">
<title>Node4&#45;&gt;Node3</title>
<g id="a_edge16_Node000004_Node000003"><a xlink:title=" ">
<path fill="none" stroke="#63b8ff" d="M780.31,-150.62C879.68,-131 1076.17,-90.21 1240,-44 1245.91,-42.33 1252.08,-40.44 1258.14,-38.48"/>
<polygon fill="#63b8ff" stroke="#63b8ff" points="779.88,-147.14 770.75,-152.51 781.24,-154.01 779.88,-147.14"/>
</a>
</g>
</g>
<!-- Node5 -->
<g id="Node000005" class="node">
<title>Node5</title>
<g id="a_Node000005"><a xlink:href="../../df/d78/SDL_8c.html" target="_top" xlink:title=" ">
<polygon fill="white" stroke="#666666" points="607.38,-106 500.62,-106 500.62,-86 607.38,-86 607.38,-106"/>
<text xml:space="preserve" text-anchor="middle" x="554" y="-92.5" font-family="Helvetica,sans-Serif" font-size="10.00">SDL&#45;main/src/SDL.c</text>
</a>
</g>
</g>
<!-- Node4&#45;&gt;Node5 -->
<g id="edge4_Node000004_Node000005" class="edge">
<title>Node4&#45;&gt;Node5</title>
<g id="a_edge4_Node000004_Node000005"><a xlink:title=" ">
<path fill="none" stroke="#63b8ff" d="M667.38,-143.19C637.52,-131.03 600.65,-116 577.22,-106.46"/>
<polygon fill="#63b8ff" stroke="#63b8ff" points="666.04,-146.42 676.62,-146.95 668.68,-139.94 666.04,-146.42"/>
</a>
</g>
</g>
<!-- Node6 -->
<g id="Node000006" class="node">
<title>Node6</title>
<g id="a_Node000006"><a xlink:href="../../d8/dfa/SDL__systhread_8h.html" target="_top" xlink:title=" ">
<polygon fill="white" stroke="#666666" points="769,-112 663,-112 663,-80 769,-80 769,-112"/>
<text xml:space="preserve" text-anchor="start" x="671" y="-98.5" font-family="Helvetica,sans-Serif" font-size="10.00">SDL&#45;main/src/thread</text>
<text xml:space="preserve" text-anchor="middle" x="716" y="-86.5" font-family="Helvetica,sans-Serif" font-size="10.00">/SDL_systhread.h</text>
</a>
</g>
</g>
<!-- Node4&#45;&gt;Node6 -->
<g id="edge5_Node000004_Node000006" class="edge">
<title>Node4&#45;&gt;Node6</title>
<g id="a_edge5_Node000004_Node000006"><a xlink:title=" ">
<path fill="none" stroke="#63b8ff" d="M716,-136.31C716,-128.12 716,-119.38 716,-112.22"/>
<polygon fill="#63b8ff" stroke="#63b8ff" points="712.5,-136.18 716,-146.18 719.5,-136.18 712.5,-136.18"/>
</a>
</g>
</g>
<!-- Node13 -->
<g id="Node000013" class="node">
<title>Node13</title>
<g id="a_Node000013"><a xlink:href="../../d4/d22/pthread_2SDL__systhread_8c.html" target="_top" xlink:title=" ">
<polygon fill="white" stroke="#666666" points="130,-38 0,-38 0,-6 130,-6 130,-38"/>
<text xml:space="preserve" text-anchor="start" x="8" y="-24.5" font-family="Helvetica,sans-Serif" font-size="10.00">SDL&#45;main/src/thread</text>
<text xml:space="preserve" text-anchor="middle" x="65" y="-12.5" font-family="Helvetica,sans-Serif" font-size="10.00">/pthread/SDL_systhread.c</text>
</a>
</g>
</g>
<!-- Node4&#45;&gt;Node13 -->
<g id="edge18_Node000004_Node000013" class="edge">
<title>Node4&#45;&gt;Node13</title>
<g id="a_edge18_Node000004_Node000013"><a xlink:title=" ">
<path fill="none" stroke="#63b8ff" d="M651.63,-147.52C424.11,-97.46 362.39,-98.17 139,-44 131.99,-42.3 124.65,-40.38 117.42,-38.42"/>
<polygon fill="#63b8ff" stroke="#63b8ff" points="650.6,-150.88 661.12,-149.62 652.11,-144.04 650.6,-150.88"/>
</a>
</g>
</g>
<!-- Node14 -->
<g id="Node000014" class="node">
<title>Node14</title>
<g id="a_Node000014"><a xlink:href="../../d3/d6b/pthread_2SDL__systls_8c.html" target="_top" xlink:title=" ">
<polygon fill="white" stroke="#666666" points="261.75,-38 148.25,-38 148.25,-6 261.75,-6 261.75,-38"/>
<text xml:space="preserve" text-anchor="start" x="156.25" y="-24.5" font-family="Helvetica,sans-Serif" font-size="10.00">SDL&#45;main/src/thread</text>
<text xml:space="preserve" text-anchor="middle" x="205" y="-12.5" font-family="Helvetica,sans-Serif" font-size="10.00">/pthread/SDL_systls.c</text>
</a>
</g>
</g>
<!-- Node4&#45;&gt;Node14 -->
<g id="edge19_Node000004_Node000014" class="edge">
<title>Node4&#45;&gt;Node14</title>
<g id="a_edge19_Node000004_Node000014"><a xlink:title=" ">
<path fill="none" stroke="#63b8ff" d="M688.62,-140.59C677.81,-131.72 665.3,-121.4 654,-112 637.03,-97.88 636.32,-88.64 616,-80 474.12,-19.69 421.91,-75.54 271,-44 263.94,-42.52 256.56,-40.59 249.4,-38.48"/>
<polygon fill="#63b8ff" stroke="#63b8ff" points="686.11,-143.06 696.06,-146.7 690.55,-137.65 686.11,-143.06"/>
</a>
</g>
</g>
<!-- Node16 -->
<g id="Node000016" class="node">
<title>Node16</title>
<g id="a_Node000016"><a xlink:href="../../d3/d46/generic_2SDL__systls_8c.html" target="_top" xlink:title=" ">
<polygon fill="white" stroke="#666666" points="899.38,-112 786.62,-112 786.62,-80 899.38,-80 899.38,-112"/>
<text xml:space="preserve" text-anchor="start" x="794.62" y="-98.5" font-family="Helvetica,sans-Serif" font-size="10.00">SDL&#45;main/src/thread</text>
<text xml:space="preserve" text-anchor="middle" x="843" y="-86.5" font-family="Helvetica,sans-Serif" font-size="10.00">/generic/SDL_systls.c</text>
</a>
</g>
</g>
<!-- Node4&#45;&gt;Node16 -->
<g id="edge17_Node000004_Node000016" class="edge">
<title>Node4&#45;&gt;Node16</title>
<g id="a_edge17_Node000004_Node000016"><a xlink:title=" ">
<path fill="none" stroke="#63b8ff" d="M755.76,-142.34C774.41,-132.65 796.25,-121.3 813.41,-112.38"/>
<polygon fill="#63b8ff" stroke="#63b8ff" points="754.38,-139.11 747.12,-146.83 757.61,-145.32 754.38,-139.11"/>
</a>
</g>
</g>
<!-- Node6&#45;&gt;Node3 -->
<g id="edge11_Node000006_Node000003" class="edge">
<title>Node6&#45;&gt;Node3</title>
<g id="a_edge11_Node000006_Node000003"><a xlink:title=" ">
<path fill="none" stroke="#63b8ff" d="M780.67,-79.76C983.51,-49.02 1041.88,-84.61 1240,-44 1246.9,-42.59 1254.1,-40.62 1261.04,-38.46"/>
<polygon fill="#63b8ff" stroke="#63b8ff" points="780.16,-76.3 770.82,-81.29 781.24,-83.21 780.16,-76.3"/>
</a>
</g>
</g>
<!-- Node7 -->
<g id="Node000007" class="node">
<title>Node7</title>
<g id="a_Node000007"><a xlink:href="../../d6/d9b/SDL__audio_8c.html" target="_top" xlink:title=" ">
<polygon fill="white" stroke="#666666" points="972.12,-38 869.88,-38 869.88,-6 972.12,-6 972.12,-38"/>
<text xml:space="preserve" text-anchor="start" x="877.88" y="-24.5" font-family="Helvetica,sans-Serif" font-size="10.00">SDL&#45;main/src/audio</text>
<text xml:space="preserve" text-anchor="middle" x="921" y="-12.5" font-family="Helvetica,sans-Serif" font-size="10.00">/SDL_audio.c</text>
</a>
</g>
</g>
<!-- Node6&#45;&gt;Node7 -->
<g id="edge6_Node000006_Node000007" class="edge">
<title>Node6&#45;&gt;Node7</title>
<g id="a_edge6_Node000006_Node000007"><a xlink:title=" ">
<path fill="none" stroke="#63b8ff" d="M770.47,-75.87C803.81,-64.16 845.9,-49.38 877.1,-38.42"/>
<polygon fill="#63b8ff" stroke="#63b8ff" points="769.68,-72.44 761.41,-79.05 772,-79.04 769.68,-72.44"/>
</a>
</g>
</g>
<!-- Node8 -->
<g id="Node000008" class="node">
<title>Node8</title>
<g id="a_Node000008"><a xlink:href="../../db/d6b/SDL__camera_8c.html" target="_top" xlink:title=" ">
<polygon fill="white" stroke="#666666" points="1101.62,-38 990.38,-38 990.38,-6 1101.62,-6 1101.62,-38"/>
<text xml:space="preserve" text-anchor="start" x="998.38" y="-24.5" font-family="Helvetica,sans-Serif" font-size="10.00">SDL&#45;main/src/camera</text>
<text xml:space="preserve" text-anchor="middle" x="1046" y="-12.5" font-family="Helvetica,sans-Serif" font-size="10.00">/SDL_camera.c</text>
</a>
</g>
</g>
<!-- Node6&#45;&gt;Node8 -->
<g id="edge7_Node000006_Node000008" class="edge">
<title>Node6&#45;&gt;Node8</title>
<g id="a_edge7_Node000006_Node000008"><a xlink:title=" ">
<path fill="none" stroke="#63b8ff" d="M780.58,-79.56C869.69,-61.56 895.56,-65.27 981,-44 987.44,-42.4 994.18,-40.49 1000.77,-38.49"/>
<polygon fill="#63b8ff" stroke="#63b8ff" points="779.96,-76.11 770.87,-81.56 781.37,-82.97 779.96,-76.11"/>
</a>
</g>
</g>
<!-- Node9 -->
<g id="Node000009" class="node">
<title>Node9</title>
<g id="a_Node000009"><a xlink:href="../../dd/d4a/SDL__camera__android_8c.html" target="_top" xlink:title=" ">
<polygon fill="white" stroke="#666666" points="1230.62,-44 1119.38,-44 1119.38,0 1230.62,0 1230.62,-44"/>
<text xml:space="preserve" text-anchor="start" x="1127.38" y="-30.5" font-family="Helvetica,sans-Serif" font-size="10.00">SDL&#45;main/src/camera</text>
<text xml:space="preserve" text-anchor="start" x="1127.38" y="-18.5" font-family="Helvetica,sans-Serif" font-size="10.00">/android/SDL_camera</text>
<text xml:space="preserve" text-anchor="middle" x="1175" y="-6.5" font-family="Helvetica,sans-Serif" font-size="10.00">_android.c</text>
</a>
</g>
</g>
<!-- Node6&#45;&gt;Node9 -->
<g id="edge8_Node000006_Node000009" class="edge">
<title>Node6&#45;&gt;Node9</title>
<g id="a_edge8_Node000006_Node000009"><a xlink:title=" ">
<path fill="none" stroke="#63b8ff" d="M780.52,-79.72C926.71,-55.43 969.03,-74.61 1111,-44 1113.63,-43.43 1116.3,-42.8 1118.99,-42.11"/>
<polygon fill="#63b8ff" stroke="#63b8ff" points="780.1,-76.24 770.83,-81.38 781.28,-83.14 780.1,-76.24"/>
</a>
</g>
</g>
<!-- Node10 -->
<g id="Node000010" class="node">
<title>Node10</title>
<g id="a_Node000010"><a xlink:href="../../d5/d4b/SDL__windowsdialog_8c.html" target="_top" xlink:title=" ">
<polygon fill="white" stroke="#666666" points="436.5,-38 279.5,-38 279.5,-6 436.5,-6 436.5,-38"/>
<text xml:space="preserve" text-anchor="start" x="287.5" y="-24.5" font-family="Helvetica,sans-Serif" font-size="10.00">SDL&#45;main/src/dialog</text>
<text xml:space="preserve" text-anchor="middle" x="358" y="-12.5" font-family="Helvetica,sans-Serif" font-size="10.00">/windows/SDL_windowsdialog.c</text>
</a>
</g>
</g>
<!-- Node6&#45;&gt;Node10 -->
<g id="edge9_Node000006_Node000010" class="edge">
<title>Node6&#45;&gt;Node10</title>
<g id="a_edge9_Node000006_Node000010"><a xlink:title=" ">
<path fill="none" stroke="#63b8ff" d="M651.51,-80.51C650.67,-80.34 649.83,-80.17 649,-80 558.72,-61.94 535.13,-62.81 445,-44 436.94,-42.32 428.49,-40.43 420.15,-38.5"/>
<polygon fill="#63b8ff" stroke="#63b8ff" points="650.67,-83.91 661.17,-82.52 652.09,-77.05 650.67,-83.91"/>
</a>
</g>
</g>
<!-- Node11 -->
<g id="Node000011" class="node">
<title>Node11</title>
<g id="a_Node000011"><a xlink:href="../../d6/df7/hidapi__thread__sdl_8h.html" target="_top" xlink:title=" ">
<polygon fill="white" stroke="#666666" points="585.75,-38 454.25,-38 454.25,-6 585.75,-6 585.75,-38"/>
<text xml:space="preserve" text-anchor="start" x="462.25" y="-24.5" font-family="Helvetica,sans-Serif" font-size="10.00">SDL&#45;main/src/hidapi</text>
<text xml:space="preserve" text-anchor="middle" x="520" y="-12.5" font-family="Helvetica,sans-Serif" font-size="10.00">/libusb/hidapi_thread_sdl.h</text>
</a>
</g>
</g>
<!-- Node6&#45;&gt;Node11 -->
<g id="edge10_Node000006_Node000011" class="edge">
<title>Node6&#45;&gt;Node11</title>
<g id="a_edge10_Node000006_Node000011"><a xlink:title=" ">
<path fill="none" stroke="#63b8ff" d="M663.51,-75.72C631.7,-64.03 591.67,-49.33 561.98,-38.42"/>
<polygon fill="#63b8ff" stroke="#63b8ff" points="661.94,-78.87 672.53,-79.03 664.35,-72.3 661.94,-78.87"/>
</a>
</g>
</g>
<!-- Node12 -->
<g id="Node000012" class="node">
<title>Node12</title>
<g id="a_Node000012"><a xlink:href="../../d2/d66/generic_2SDL__systhread_8c.html" target="_top" xlink:title=" ">
<polygon fill="white" stroke="#666666" points="732.62,-38 603.38,-38 603.38,-6 732.62,-6 732.62,-38"/>
<text xml:space="preserve" text-anchor="start" x="611.38" y="-24.5" font-family="Helvetica,sans-Serif" font-size="10.00">SDL&#45;main/src/thread</text>
<text xml:space="preserve" text-anchor="middle" x="668" y="-12.5" font-family="Helvetica,sans-Serif" font-size="10.00">/generic/SDL_systhread.c</text>
</a>
</g>
</g>
<!-- Node6&#45;&gt;Node12 -->
<g id="edge12_Node000006_Node000012" class="edge">
<title>Node6&#45;&gt;Node12</title>
<g id="a_edge12_Node000006_Node000012"><a xlink:title=" ">
<path fill="none" stroke="#63b8ff" d="M699.64,-70.47C692.52,-59.78 684.4,-47.6 678.16,-38.25"/>
<polygon fill="#63b8ff" stroke="#63b8ff" points="696.52,-72.09 704.98,-78.47 702.35,-68.21 696.52,-72.09"/>
</a>
</g>
</g>
<!-- Node6&#45;&gt;Node13 -->
<g id="edge13_Node000006_Node000013" class="edge">
<title>Node6&#45;&gt;Node13</title>
<g id="a_edge13_Node000006_Node000013"><a xlink:title=" ">
<path fill="none" stroke="#63b8ff" d="M651.5,-84.61C639.71,-82.92 627.5,-81.29 616,-80 404.73,-56.22 348.32,-81.21 139,-44 130.85,-42.55 122.3,-40.57 114.04,-38.4"/>
<polygon fill="#63b8ff" stroke="#63b8ff" points="650.74,-88.04 661.14,-86.03 651.76,-81.11 650.74,-88.04"/>
</a>
</g>
</g>
<!-- Node6&#45;&gt;Node14 -->
<g id="edge14_Node000006_Node000014" class="edge">
<title>Node6&#45;&gt;Node14</title>
<g id="a_edge14_Node000006_Node000014"><a xlink:title=" ">
<path fill="none" stroke="#63b8ff" d="M651.53,-80.41C650.68,-80.27 649.84,-80.13 649,-80 482.33,-53.51 436.35,-77.78 271,-44 263.81,-42.53 256.3,-40.57 249.03,-38.44"/>
<polygon fill="#63b8ff" stroke="#63b8ff" points="650.77,-83.83 661.23,-82.17 652.02,-76.94 650.77,-83.83"/>
</a>
</g>
</g>
<!-- Node15 -->
<g id="Node000015" class="node">
<title>Node15</title>
<g id="a_Node000015"><a xlink:href="../../d7/d6c/SDL__timer_8c.html" target="_top" xlink:title=" ">
<polygon fill="white" stroke="#666666" points="851.38,-38 750.62,-38 750.62,-6 851.38,-6 851.38,-38"/>
<text xml:space="preserve" text-anchor="start" x="758.62" y="-24.5" font-family="Helvetica,sans-Serif" font-size="10.00">SDL&#45;main/src/timer</text>
<text xml:space="preserve" text-anchor="middle" x="801" y="-12.5" font-family="Helvetica,sans-Serif" font-size="10.00">/SDL_timer.c</text>
</a>
</g>
</g>
<!-- Node6&#45;&gt;Node15 -->
<g id="edge15_Node000006_Node000015" class="edge">
<title>Node6&#45;&gt;Node15</title>
<g id="a_edge15_Node000006_Node000015"><a xlink:title=" ">
<path fill="none" stroke="#63b8ff" d="M742.61,-72.46C755.64,-61.42 771.01,-48.4 782.71,-38.5"/>
<polygon fill="#63b8ff" stroke="#63b8ff" points="740.55,-69.62 735.18,-78.75 745.07,-74.96 740.55,-69.62"/>
</a>
</g>
</g>
</g>
</svg>
