<?xml version="1.0" encoding="UTF-8" standalone="no"?>
<!DOCTYPE svg PUBLIC "-//W3C//DTD SVG 1.1//EN"
 "http://www.w3.org/Graphics/SVG/1.1/DTD/svg11.dtd">
<!-- Generated by graphviz version 13.1.0 (20250701.0955)
 -->
<!-- Title: SDL_SetWindowSize Pages: 1 -->
<svg width="711pt" height="85pt"
 viewBox="0.00 0.00 711.00 85.00" xmlns="http://www.w3.org/2000/svg" xmlns:xlink="http://www.w3.org/1999/xlink">
<g id="graph0" class="graph" transform="scale(1 1) rotate(0) translate(4 81)">
<title>SDL_SetWindowSize</title>
<!-- Node1 -->
<g id="Node000001" class="node">
<title>Node1</title>
<g id="a_Node000001"><a xlink:title=" ">
<polygon fill="#999999" stroke="#666666" points="110.5,-39 0,-39 0,-19 110.5,-19 110.5,-39"/>
<text xml:space="preserve" text-anchor="middle" x="55.25" y="-25.5" font-family="Helvetica,sans-Serif" font-size="10.00">SDL_SetWindowSize</text>
</a>
</g>
</g>
<!-- Node2 -->
<g id="Node000002" class="node">
<title>Node2</title>
<g id="a_Node000002"><a xlink:href="../../d3/d02/SDL__stdlib_8c.html#a1254f3a8fee9c352daa9bcffedd1abfc" target="_top" xlink:title=" ">
<polygon fill="white" stroke="#666666" points="234.5,-58 166.75,-58 166.75,-38 234.5,-38 234.5,-58"/>
<text xml:space="preserve" text-anchor="middle" x="200.62" y="-44.5" font-family="Helvetica,sans-Serif" font-size="10.00">SDL_roundf</text>
</a>
</g>
</g>
<!-- Node1&#45;&gt;Node2 -->
<g id="edge1_Node000001_Node000002" class="edge">
<title>Node1&#45;&gt;Node2</title>
<g id="a_edge1_Node000001_Node000002"><a xlink:title=" ">
<path fill="none" stroke="#63b8ff" d="M110.86,-36.24C125.45,-38.17 141.05,-40.24 155.03,-42.09"/>
<polygon fill="#63b8ff" stroke="#63b8ff" points="154.46,-45.55 164.83,-43.39 155.38,-38.61 154.46,-45.55"/>
</a>
</g>
</g>
<!-- Node7 -->
<g id="Node000007" class="node">
<title>Node7</title>
<g id="a_Node000007"><a xlink:href="../../d6/d3d/SDL__video_8c.html#a9502e75835ea8d15ed28063f0d071207" target="_top" xlink:title=" ">
<polygon fill="white" stroke="#666666" points="254.75,-20 146.5,-20 146.5,0 254.75,0 254.75,-20"/>
<text xml:space="preserve" text-anchor="middle" x="200.62" y="-6.5" font-family="Helvetica,sans-Serif" font-size="10.00">SDL_SyncIfRequired</text>
</a>
</g>
</g>
<!-- Node1&#45;&gt;Node7 -->
<g id="edge7_Node000001_Node000007" class="edge">
<title>Node1&#45;&gt;Node7</title>
<g id="a_edge7_Node000001_Node000007"><a xlink:title=" ">
<path fill="none" stroke="#63b8ff" d="M110.86,-21.76C118.72,-20.72 126.86,-19.64 134.89,-18.58"/>
<polygon fill="#63b8ff" stroke="#63b8ff" points="135.16,-22.07 144.61,-17.29 134.24,-15.13 135.16,-22.07"/>
</a>
</g>
</g>
<!-- Node3 -->
<g id="Node000003" class="node">
<title>Node3</title>
<g id="a_Node000003"><a xlink:href="../../d3/d02/SDL__stdlib_8c.html#a6aa2d7674e36a88baf05ed1fae599bdb" target="_top" xlink:title=" ">
<polygon fill="white" stroke="#666666" points="372.38,-58 307.62,-58 307.62,-38 372.38,-38 372.38,-58"/>
<text xml:space="preserve" text-anchor="middle" x="340" y="-44.5" font-family="Helvetica,sans-Serif" font-size="10.00">SDL_round</text>
</a>
</g>
</g>
<!-- Node2&#45;&gt;Node3 -->
<g id="edge2_Node000002_Node000003" class="edge">
<title>Node2&#45;&gt;Node3</title>
<g id="a_edge2_Node000002_Node000003"><a xlink:title=" ">
<path fill="none" stroke="#63b8ff" d="M234.88,-48C253.25,-48 276.27,-48 295.99,-48"/>
<polygon fill="#63b8ff" stroke="#63b8ff" points="295.95,-51.5 305.95,-48 295.95,-44.5 295.95,-51.5"/>
</a>
</g>
</g>
<!-- Node4 -->
<g id="Node000004" class="node">
<title>Node4</title>
<g id="a_Node000004"><a xlink:href="../../d3/d02/SDL__stdlib_8c.html#a697b0197d0b0798c81ee242f114aace8" target="_top" xlink:title=" ">
<polygon fill="white" stroke="#666666" points="481,-77 425.25,-77 425.25,-57 481,-57 481,-77"/>
<text xml:space="preserve" text-anchor="middle" x="453.12" y="-63.5" font-family="Helvetica,sans-Serif" font-size="10.00">SDL_ceil</text>
</a>
</g>
</g>
<!-- Node3&#45;&gt;Node4 -->
<g id="edge3_Node000003_Node000004" class="edge">
<title>Node3&#45;&gt;Node4</title>
<g id="a_edge3_Node000003_Node000004"><a xlink:title=" ">
<path fill="none" stroke="#63b8ff" d="M372.84,-53.44C385.54,-55.62 400.28,-58.13 413.57,-60.41"/>
<polygon fill="#63b8ff" stroke="#63b8ff" points="412.86,-63.84 423.31,-62.07 414.04,-56.94 412.86,-63.84"/>
</a>
</g>
</g>
<!-- Node5 -->
<g id="Node000005" class="node">
<title>Node5</title>
<g id="a_Node000005"><a xlink:href="../../d3/d02/SDL__stdlib_8c.html#a8c898f41276f7bc9cbd3e89c726c2d0a" target="_top" xlink:title=" ">
<polygon fill="white" stroke="#666666" points="576.5,-58 517,-58 517,-38 576.5,-38 576.5,-58"/>
<text xml:space="preserve" text-anchor="middle" x="546.75" y="-44.5" font-family="Helvetica,sans-Serif" font-size="10.00">SDL_floor</text>
</a>
</g>
</g>
<!-- Node3&#45;&gt;Node5 -->
<g id="edge6_Node000003_Node000005" class="edge">
<title>Node3&#45;&gt;Node5</title>
<g id="a_edge6_Node000003_Node000005"><a xlink:title=" ">
<path fill="none" stroke="#63b8ff" d="M372.54,-48C408.23,-48 466.43,-48 505.39,-48"/>
<polygon fill="#63b8ff" stroke="#63b8ff" points="505.31,-51.5 515.31,-48 505.31,-44.5 505.31,-51.5"/>
</a>
</g>
</g>
<!-- Node4&#45;&gt;Node5 -->
<g id="edge4_Node000004_Node000005" class="edge">
<title>Node4&#45;&gt;Node5</title>
<g id="a_edge4_Node000004_Node000005"><a xlink:title=" ">
<path fill="none" stroke="#63b8ff" d="M481.12,-61.4C488.81,-59.81 497.36,-58.03 505.66,-56.31"/>
<polygon fill="#63b8ff" stroke="#63b8ff" points="506.15,-59.79 515.23,-54.33 504.73,-52.93 506.15,-59.79"/>
</a>
</g>
</g>
<!-- Node6 -->
<g id="Node000006" class="node">
<title>Node6</title>
<g id="a_Node000006"><a xlink:href="../../d3/dcc/s__floor_8c.html#a70f5eb094fdaee73475597eee76f67f1" target="_top" xlink:title=" ">
<polygon fill="white" stroke="#666666" points="702.75,-58 612.5,-58 612.5,-38 702.75,-38 702.75,-58"/>
<text xml:space="preserve" text-anchor="middle" x="657.62" y="-44.5" font-family="Helvetica,sans-Serif" font-size="10.00">SDL_uclibc_floor</text>
</a>
</g>
</g>
<!-- Node5&#45;&gt;Node6 -->
<g id="edge5_Node000005_Node000006" class="edge">
<title>Node5&#45;&gt;Node6</title>
<g id="a_edge5_Node000005_Node000006"><a xlink:title=" ">
<path fill="none" stroke="#63b8ff" d="M576.93,-48C584.37,-48 592.63,-48 600.93,-48"/>
<polygon fill="#63b8ff" stroke="#63b8ff" points="600.69,-51.5 610.69,-48 600.69,-44.5 600.69,-51.5"/>
</a>
</g>
</g>
<!-- Node8 -->
<g id="Node000008" class="node">
<title>Node8</title>
<g id="a_Node000008"><a xlink:href="../../d6/d3d/SDL__video_8c.html#a9841972a80aaa76befaedf533146a195" target="_top" xlink:title=" ">
<polygon fill="white" stroke="#666666" points="389.25,-20 290.75,-20 290.75,0 389.25,0 389.25,-20"/>
<text xml:space="preserve" text-anchor="middle" x="340" y="-6.5" font-family="Helvetica,sans-Serif" font-size="10.00">SDL_SyncWindow</text>
</a>
</g>
</g>
<!-- Node7&#45;&gt;Node8 -->
<g id="edge8_Node000007_Node000008" class="edge">
<title>Node7&#45;&gt;Node8</title>
<g id="a_edge8_Node000007_Node000008"><a xlink:title=" ">
<path fill="none" stroke="#63b8ff" d="M255.13,-10C262.93,-10 271,-10 278.91,-10"/>
<polygon fill="#63b8ff" stroke="#63b8ff" points="278.83,-13.5 288.83,-10 278.83,-6.5 278.83,-13.5"/>
</a>
</g>
</g>
</g>
</svg>
