<?xml version="1.0" encoding="UTF-8" standalone="no"?>
<!DOCTYPE svg PUBLIC "-//W3C//DTD SVG 1.1//EN"
 "http://www.w3.org/Graphics/SVG/1.1/DTD/svg11.dtd">
<!-- Generated by graphviz version 13.1.0 (20250701.0955)
 -->
<!-- Title: SDL_GetWindowFromID Pages: 1 -->
<svg width="312pt" height="78pt"
 viewBox="0.00 0.00 312.00 78.00" xmlns="http://www.w3.org/2000/svg" xmlns:xlink="http://www.w3.org/1999/xlink">
<g id="graph0" class="graph" transform="scale(1 1) rotate(0) translate(4 74)">
<title>SDL_GetWindowFromID</title>
<!-- Node1 -->
<g id="Node000001" class="node">
<title>Node1</title>
<g id="a_Node000001"><a xlink:title=" ">
<polygon fill="#999999" stroke="#666666" points="303.5,-42 178.75,-42 178.75,-22 303.5,-22 303.5,-42"/>
<text xml:space="preserve" text-anchor="middle" x="241.12" y="-28.5" font-family="Helvetica,sans-Serif" font-size="10.00">SDL_GetWindowFromID</text>
</a>
</g>
</g>
<!-- Node2 -->
<g id="Node000002" class="node">
<title>Node2</title>
<g id="a_Node000002"><a xlink:href="../../dd/df3/SDL__render_8c.html#a1df63543e96c180200d30b82d4a5afb7" target="_top" xlink:title=" ">
<polygon fill="white" stroke="#666666" points="142.75,-70 0,-70 0,-38 142.75,-38 142.75,-70"/>
<text xml:space="preserve" text-anchor="start" x="8" y="-56.5" font-family="Helvetica,sans-Serif" font-size="10.00">SDL_ConvertEventToRender</text>
<text xml:space="preserve" text-anchor="middle" x="71.38" y="-44.5" font-family="Helvetica,sans-Serif" font-size="10.00">Coordinates</text>
</a>
</g>
</g>
<!-- Node1&#45;&gt;Node2 -->
<g id="edge1_Node000001_Node000002" class="edge">
<title>Node1&#45;&gt;Node2</title>
<g id="a_edge1_Node000001_Node000002"><a xlink:title=" ">
<path fill="none" stroke="#63b8ff" d="M167.41,-41.54C159.39,-42.59 151.24,-43.66 143.25,-44.71"/>
<polygon fill="#63b8ff" stroke="#63b8ff" points="167.65,-45.03 177.11,-40.26 166.74,-38.09 167.65,-45.03"/>
</a>
</g>
</g>
<!-- Node3 -->
<g id="Node000003" class="node">
<title>Node3</title>
<g id="a_Node000003"><a xlink:href="../../dc/dd9/SDL__categories_8c.html#a344f0756c960d62fe9a1daaed42dc260" target="_top" xlink:title=" ">
<polygon fill="white" stroke="#666666" points="141.25,-20 1.5,-20 1.5,0 141.25,0 141.25,-20"/>
<text xml:space="preserve" text-anchor="middle" x="71.38" y="-6.5" font-family="Helvetica,sans-Serif" font-size="10.00">SDL_GetWindowFromEvent</text>
</a>
</g>
</g>
<!-- Node1&#45;&gt;Node3 -->
<g id="edge2_Node000001_Node000003" class="edge">
<title>Node1&#45;&gt;Node3</title>
<g id="a_edge2_Node000001_Node000003"><a xlink:title=" ">
<path fill="none" stroke="#63b8ff" d="M167.43,-22.47C158.84,-21.34 150.08,-20.19 141.53,-19.07"/>
<polygon fill="#63b8ff" stroke="#63b8ff" points="166.74,-25.91 177.11,-23.74 167.65,-18.97 166.74,-25.91"/>
</a>
</g>
</g>
</g>
</svg>
