<?xml version="1.0" encoding="UTF-8" standalone="no"?>
<!DOCTYPE svg PUBLIC "-//W3C//DTD SVG 1.1//EN"
 "http://www.w3.org/Graphics/SVG/1.1/DTD/svg11.dtd">
<!-- Generated by graphviz version 13.1.0 (20250701.0955)
 -->
<!-- Title: eglGetConfigs Pages: 1 -->
<svg width="414pt" height="28pt"
 viewBox="0.00 0.00 414.00 28.00" xmlns="http://www.w3.org/2000/svg" xmlns:xlink="http://www.w3.org/1999/xlink">
<g id="graph0" class="graph" transform="scale(1 1) rotate(0) translate(4 24)">
<title>eglGetConfigs</title>
<!-- Node1 -->
<g id="Node000001" class="node">
<title>Node1</title>
<g id="a_Node000001"><a xlink:title=" ">
<polygon fill="#999999" stroke="#666666" points="406,-20 327.75,-20 327.75,0 406,0 406,-20"/>
<text xml:space="preserve" text-anchor="middle" x="366.88" y="-6.5" font-family="Helvetica,sans-Serif" font-size="10.00">eglGetConfigs</text>
</a>
</g>
</g>
<!-- Node2 -->
<g id="Node000002" class="node">
<title>Node2</title>
<g id="a_Node000002"><a xlink:href="../../d8/dd8/SDL__qnxgl_8c.html#a082e3db7e8c415d561c758bafae4a184" target="_top" xlink:title=" ">
<polygon fill="white" stroke="#666666" points="291.75,-20 224,-20 224,0 291.75,0 291.75,-20"/>
<text xml:space="preserve" text-anchor="middle" x="257.88" y="-6.5" font-family="Helvetica,sans-Serif" font-size="10.00">glGetConfig</text>
</a>
</g>
</g>
<!-- Node1&#45;&gt;Node2 -->
<g id="edge1_Node000001_Node000002" class="edge">
<title>Node1&#45;&gt;Node2</title>
<g id="a_edge1_Node000001_Node000002"><a xlink:title=" ">
<path fill="none" stroke="#63b8ff" d="M316.13,-10C307.94,-10 299.63,-10 291.98,-10"/>
<polygon fill="#63b8ff" stroke="#63b8ff" points="316.03,-13.5 326.03,-10 316.03,-6.5 316.03,-13.5"/>
</a>
</g>
</g>
<!-- Node3 -->
<g id="Node000003" class="node">
<title>Node3</title>
<g id="a_Node000003"><a xlink:href="../../db/dff/SDL__qnxvideo_8c.html#a94f205a4c90155a1d012a7bf4b1e7ba6" target="_top" xlink:title=" ">
<polygon fill="white" stroke="#666666" points="188,-20 109.75,-20 109.75,0 188,0 188,-20"/>
<text xml:space="preserve" text-anchor="middle" x="148.88" y="-6.5" font-family="Helvetica,sans-Serif" font-size="10.00">createWindow</text>
</a>
</g>
</g>
<!-- Node2&#45;&gt;Node3 -->
<g id="edge2_Node000002_Node000003" class="edge">
<title>Node2&#45;&gt;Node3</title>
<g id="a_edge2_Node000002_Node000003"><a xlink:title=" ">
<path fill="none" stroke="#63b8ff" d="M212.25,-10C204.32,-10 196.11,-10 188.37,-10"/>
<polygon fill="#63b8ff" stroke="#63b8ff" points="212.09,-13.5 222.09,-10 212.09,-6.5 212.09,-13.5"/>
</a>
</g>
</g>
<!-- Node4 -->
<g id="Node000004" class="node">
<title>Node4</title>
<g id="a_Node000004"><a xlink:href="../../db/dff/SDL__qnxvideo_8c.html#ae6d41c8ecd96e19777886580f3274ce1" target="_top" xlink:title=" ">
<polygon fill="white" stroke="#666666" points="73.75,-20 0,-20 0,0 73.75,0 73.75,-20"/>
<text xml:space="preserve" text-anchor="middle" x="36.88" y="-6.5" font-family="Helvetica,sans-Serif" font-size="10.00">createDevice</text>
</a>
</g>
</g>
<!-- Node3&#45;&gt;Node4 -->
<g id="edge3_Node000003_Node000004" class="edge">
<title>Node3&#45;&gt;Node4</title>
<g id="a_edge3_Node000003_Node000004"><a xlink:title=" ">
<path fill="none" stroke="#63b8ff" d="M98.08,-10C89.94,-10 81.65,-10 73.93,-10"/>
<polygon fill="#63b8ff" stroke="#63b8ff" points="97.89,-13.5 107.89,-10 97.89,-6.5 97.89,-13.5"/>
</a>
</g>
</g>
</g>
</svg>
