<?xml version="1.0" encoding="UTF-8" standalone="no"?>
<!DOCTYPE svg PUBLIC "-//W3C//DTD SVG 1.1//EN"
 "http://www.w3.org/Graphics/SVG/1.1/DTD/svg11.dtd">
<!-- Generated by graphviz version 13.1.0 (20250701.0955)
 -->
<!-- Title: SDL&#45;main/src/video/qnx/SDL_qnx.h Pages: 1 -->
<svg width="382pt" height="108pt"
 viewBox="0.00 0.00 382.00 108.00" xmlns="http://www.w3.org/2000/svg" xmlns:xlink="http://www.w3.org/1999/xlink">
<g id="graph0" class="graph" transform="scale(1 1) rotate(0) translate(4 104)">
<title>SDL&#45;main/src/video/qnx/SDL_qnx.h</title>
<!-- Node1 -->
<g id="Node000001" class="node">
<title>Node1</title>
<g id="a_Node000001"><a xlink:title=" ">
<polygon fill="#999999" stroke="#666666" points="234.25,-100 132,-100 132,-68 234.25,-68 234.25,-100"/>
<text xml:space="preserve" text-anchor="start" x="140" y="-86.5" font-family="Helvetica,sans-Serif" font-size="10.00">SDL&#45;main/src/video</text>
<text xml:space="preserve" text-anchor="middle" x="183.12" y="-74.5" font-family="Helvetica,sans-Serif" font-size="10.00">/qnx/SDL_qnx.h</text>
</a>
</g>
</g>
<!-- Node2 -->
<g id="Node000002" class="node">
<title>Node2</title>
<g id="a_Node000002"><a xlink:href="../../d8/dd8/SDL__qnxgl_8c.html" target="_top" xlink:title=" ">
<polygon fill="white" stroke="#666666" points="102.25,-32 0,-32 0,0 102.25,0 102.25,-32"/>
<text xml:space="preserve" text-anchor="start" x="8" y="-18.5" font-family="Helvetica,sans-Serif" font-size="10.00">SDL&#45;main/src/video</text>
<text xml:space="preserve" text-anchor="middle" x="51.12" y="-6.5" font-family="Helvetica,sans-Serif" font-size="10.00">/qnx/SDL_qnxgl.c</text>
</a>
</g>
</g>
<!-- Node1&#45;&gt;Node2 -->
<g id="edge1_Node000001_Node000002" class="edge">
<title>Node1&#45;&gt;Node2</title>
<g id="a_edge1_Node000001_Node000002"><a xlink:title=" ">
<path fill="none" stroke="#63b8ff" d="M142.07,-62.47C122.63,-52.75 99.8,-41.34 81.88,-32.38"/>
<polygon fill="#63b8ff" stroke="#63b8ff" points="140.31,-65.51 150.82,-66.85 143.44,-59.25 140.31,-65.51"/>
</a>
</g>
</g>
<!-- Node3 -->
<g id="Node000003" class="node">
<title>Node3</title>
<g id="a_Node000003"><a xlink:href="../../da/de6/SDL__qnxkeyboard_8c.html" target="_top" xlink:title=" ">
<polygon fill="white" stroke="#666666" points="246.25,-32 120,-32 120,0 246.25,0 246.25,-32"/>
<text xml:space="preserve" text-anchor="start" x="128" y="-18.5" font-family="Helvetica,sans-Serif" font-size="10.00">SDL&#45;main/src/video</text>
<text xml:space="preserve" text-anchor="middle" x="183.12" y="-6.5" font-family="Helvetica,sans-Serif" font-size="10.00">/qnx/SDL_qnxkeyboard.c</text>
</a>
</g>
</g>
<!-- Node1&#45;&gt;Node3 -->
<g id="edge2_Node000001_Node000003" class="edge">
<title>Node1&#45;&gt;Node3</title>
<g id="a_edge2_Node000001_Node000003"><a xlink:title=" ">
<path fill="none" stroke="#63b8ff" d="M183.12,-56.31C183.12,-48.12 183.12,-39.38 183.12,-32.22"/>
<polygon fill="#63b8ff" stroke="#63b8ff" points="179.63,-56.18 183.13,-66.18 186.63,-56.18 179.63,-56.18"/>
</a>
</g>
</g>
<!-- Node4 -->
<g id="Node000004" class="node">
<title>Node4</title>
<g id="a_Node000004"><a xlink:href="../../db/dff/SDL__qnxvideo_8c.html" target="_top" xlink:title=" ">
<polygon fill="white" stroke="#666666" points="374,-32 264.25,-32 264.25,0 374,0 374,-32"/>
<text xml:space="preserve" text-anchor="start" x="272.25" y="-18.5" font-family="Helvetica,sans-Serif" font-size="10.00">SDL&#45;main/src/video</text>
<text xml:space="preserve" text-anchor="middle" x="319.12" y="-6.5" font-family="Helvetica,sans-Serif" font-size="10.00">/qnx/SDL_qnxvideo.c</text>
</a>
</g>
</g>
<!-- Node1&#45;&gt;Node4 -->
<g id="edge3_Node000001_Node000004" class="edge">
<title>Node1&#45;&gt;Node4</title>
<g id="a_edge3_Node000001_Node000004"><a xlink:title=" ">
<path fill="none" stroke="#63b8ff" d="M225.15,-62.61C245.24,-52.86 268.89,-41.38 287.44,-32.38"/>
<polygon fill="#63b8ff" stroke="#63b8ff" points="223.84,-59.35 216.37,-66.87 226.9,-65.65 223.84,-59.35"/>
</a>
</g>
</g>
</g>
</svg>
