<?xml version="1.0" encoding="UTF-8" standalone="no"?>
<!DOCTYPE svg PUBLIC "-//W3C//DTD SVG 1.1//EN"
 "http://www.w3.org/Graphics/SVG/1.1/DTD/svg11.dtd">
<!-- Generated by graphviz version 13.1.0 (20250701.0955)
 -->
<!-- Title: QueueCmdDrawPoints Pages: 1 -->
<svg width="830pt" height="85pt"
 viewBox="0.00 0.00 830.00 85.00" xmlns="http://www.w3.org/2000/svg" xmlns:xlink="http://www.w3.org/1999/xlink">
<g id="graph0" class="graph" transform="scale(1 1) rotate(0) translate(4 81)">
<title>QueueCmdDrawPoints</title>
<!-- Node1 -->
<g id="Node000001" class="node">
<title>Node1</title>
<g id="a_Node000001"><a xlink:title=" ">
<polygon fill="#999999" stroke="#666666" points="822,-39 705.5,-39 705.5,-19 822,-19 822,-39"/>
<text xml:space="preserve" text-anchor="middle" x="763.75" y="-25.5" font-family="Helvetica,sans-Serif" font-size="10.00">QueueCmdDrawPoints</text>
</a>
</g>
</g>
<!-- Node2 -->
<g id="Node000002" class="node">
<title>Node2</title>
<g id="a_Node000002"><a xlink:href="../../dd/df3/SDL__render_8c.html#a0d57d32a5ee4139bc874fe9a8c126803" target="_top" xlink:title=" ">
<polygon fill="white" stroke="#666666" points="669.5,-58 554.5,-58 554.5,-38 669.5,-38 669.5,-58"/>
<text xml:space="preserve" text-anchor="middle" x="612" y="-44.5" font-family="Helvetica,sans-Serif" font-size="10.00">RenderLineBresenham</text>
</a>
</g>
</g>
<!-- Node1&#45;&gt;Node2 -->
<g id="edge1_Node000001_Node000002" class="edge">
<title>Node1&#45;&gt;Node2</title>
<g id="a_edge1_Node000001_Node000002"><a xlink:title=" ">
<path fill="none" stroke="#63b8ff" d="M693.88,-37.74C685.75,-38.77 677.51,-39.81 669.57,-40.82"/>
<polygon fill="#63b8ff" stroke="#63b8ff" points="694.3,-41.21 703.78,-36.48 693.42,-34.27 694.3,-41.21"/>
</a>
</g>
</g>
<!-- Node8 -->
<g id="Node000008" class="node">
<title>Node8</title>
<g id="a_Node000008"><a xlink:href="../../dd/df3/SDL__render_8c.html#ac605fa86b6595d13bfcf96b4141944d9" target="_top" xlink:title=" ">
<polygon fill="white" stroke="#666666" points="662,-20 562,-20 562,0 662,0 662,-20"/>
<text xml:space="preserve" text-anchor="middle" x="612" y="-6.5" font-family="Helvetica,sans-Serif" font-size="10.00">SDL_RenderPoints</text>
</a>
</g>
</g>
<!-- Node1&#45;&gt;Node8 -->
<g id="edge7_Node000001_Node000008" class="edge">
<title>Node1&#45;&gt;Node8</title>
<g id="a_edge7_Node000001_Node000008"><a xlink:title=" ">
<path fill="none" stroke="#63b8ff" d="M694.17,-20.3C683.41,-18.93 672.48,-17.55 662.27,-16.25"/>
<polygon fill="#63b8ff" stroke="#63b8ff" points="693.42,-23.73 703.78,-21.52 694.3,-16.79 693.42,-23.73"/>
</a>
</g>
</g>
<!-- Node3 -->
<g id="Node000003" class="node">
<title>Node3</title>
<g id="a_Node000003"><a xlink:href="../../dd/df3/SDL__render_8c.html#ad5eee5fa74c4a69c00bab883ce68bb3a" target="_top" xlink:title=" ">
<polygon fill="white" stroke="#666666" points="518.5,-58 395.25,-58 395.25,-38 518.5,-38 518.5,-58"/>
<text xml:space="preserve" text-anchor="middle" x="456.88" y="-44.5" font-family="Helvetica,sans-Serif" font-size="10.00">RenderLinesWithRectsF</text>
</a>
</g>
</g>
<!-- Node2&#45;&gt;Node3 -->
<g id="edge2_Node000002_Node000003" class="edge">
<title>Node2&#45;&gt;Node3</title>
<g id="a_edge2_Node000002_Node000003"><a xlink:title=" ">
<path fill="none" stroke="#63b8ff" d="M543.12,-48C535.04,-48 526.83,-48 518.85,-48"/>
<polygon fill="#63b8ff" stroke="#63b8ff" points="542.9,-51.5 552.9,-48 542.9,-44.5 542.9,-51.5"/>
</a>
</g>
</g>
<!-- Node4 -->
<g id="Node000004" class="node">
<title>Node4</title>
<g id="a_Node000004"><a xlink:href="../../dd/df3/SDL__render_8c.html#a41bf6d76dd063b3dca132fa3f730ad9e" target="_top" xlink:title=" ">
<polygon fill="white" stroke="#666666" points="359.25,-58 263.75,-58 263.75,-38 359.25,-38 359.25,-58"/>
<text xml:space="preserve" text-anchor="middle" x="311.5" y="-44.5" font-family="Helvetica,sans-Serif" font-size="10.00">SDL_RenderLines</text>
</a>
</g>
</g>
<!-- Node3&#45;&gt;Node4 -->
<g id="edge3_Node000003_Node000004" class="edge">
<title>Node3&#45;&gt;Node4</title>
<g id="a_edge3_Node000003_Node000004"><a xlink:title=" ">
<path fill="none" stroke="#63b8ff" d="M383.83,-48C375.56,-48 367.3,-48 359.48,-48"/>
<polygon fill="#63b8ff" stroke="#63b8ff" points="383.56,-51.5 393.56,-48 383.56,-44.5 383.56,-51.5"/>
</a>
</g>
</g>
<!-- Node5 -->
<g id="Node000005" class="node">
<title>Node5</title>
<g id="a_Node000005"><a xlink:href="../../dd/df3/SDL__render_8c.html#a67366756da458745c1828919d035d7d6" target="_top" xlink:title=" ">
<polygon fill="white" stroke="#666666" points="226.25,-77 136,-77 136,-57 226.25,-57 226.25,-77"/>
<text xml:space="preserve" text-anchor="middle" x="181.12" y="-63.5" font-family="Helvetica,sans-Serif" font-size="10.00">SDL_RenderLine</text>
</a>
</g>
</g>
<!-- Node4&#45;&gt;Node5 -->
<g id="edge4_Node000004_Node000005" class="edge">
<title>Node4&#45;&gt;Node5</title>
<g id="a_edge4_Node000004_Node000005"><a xlink:title=" ">
<path fill="none" stroke="#63b8ff" d="M252.25,-56.62C243.65,-57.89 234.9,-59.19 226.63,-60.41"/>
<polygon fill="#63b8ff" stroke="#63b8ff" points="252.55,-60.12 261.93,-55.19 251.52,-53.19 252.55,-60.12"/>
</a>
</g>
</g>
<!-- Node6 -->
<g id="Node000006" class="node">
<title>Node6</title>
<g id="a_Node000006"><a xlink:href="../../dd/df3/SDL__render_8c.html#a4d4cd6b8864b2f6ae29e2da880d43edd" target="_top" xlink:title=" ">
<polygon fill="white" stroke="#666666" points="227.75,-39 134.5,-39 134.5,-19 227.75,-19 227.75,-39"/>
<text xml:space="preserve" text-anchor="middle" x="181.12" y="-25.5" font-family="Helvetica,sans-Serif" font-size="10.00">SDL_RenderRect</text>
</a>
</g>
</g>
<!-- Node4&#45;&gt;Node6 -->
<g id="edge5_Node000004_Node000006" class="edge">
<title>Node4&#45;&gt;Node6</title>
<g id="a_edge5_Node000004_Node000006"><a xlink:title=" ">
<path fill="none" stroke="#63b8ff" d="M252.09,-39.36C243.98,-38.16 235.74,-36.94 227.91,-35.78"/>
<polygon fill="#63b8ff" stroke="#63b8ff" points="251.52,-42.81 261.93,-40.81 252.55,-35.88 251.52,-42.81"/>
</a>
</g>
</g>
<!-- Node7 -->
<g id="Node000007" class="node">
<title>Node7</title>
<g id="a_Node000007"><a xlink:href="../../dd/df3/SDL__render_8c.html#a8ddfe94cbc45d570696bc2833cc44920" target="_top" xlink:title=" ">
<polygon fill="white" stroke="#666666" points="98.5,-39 0,-39 0,-19 98.5,-19 98.5,-39"/>
<text xml:space="preserve" text-anchor="middle" x="49.25" y="-25.5" font-family="Helvetica,sans-Serif" font-size="10.00">SDL_RenderRects</text>
</a>
</g>
</g>
<!-- Node6&#45;&gt;Node7 -->
<g id="edge6_Node000006_Node000007" class="edge">
<title>Node6&#45;&gt;Node7</title>
<g id="a_edge6_Node000006_Node000007"><a xlink:title=" ">
<path fill="none" stroke="#63b8ff" d="M123.03,-29C114.92,-29 106.64,-29 98.71,-29"/>
<polygon fill="#63b8ff" stroke="#63b8ff" points="122.82,-32.5 132.82,-29 122.82,-25.5 122.82,-32.5"/>
</a>
</g>
</g>
<!-- Node9 -->
<g id="Node000009" class="node">
<title>Node9</title>
<g id="a_Node000009"><a xlink:href="../../dd/df3/SDL__render_8c.html#a99478156af38e2174c67567c46bbb9ef" target="_top" xlink:title=" ">
<polygon fill="white" stroke="#666666" points="504.25,-20 409.5,-20 409.5,0 504.25,0 504.25,-20"/>
<text xml:space="preserve" text-anchor="middle" x="456.88" y="-6.5" font-family="Helvetica,sans-Serif" font-size="10.00">SDL_RenderPoint</text>
</a>
</g>
</g>
<!-- Node8&#45;&gt;Node9 -->
<g id="edge8_Node000008_Node000009" class="edge">
<title>Node8&#45;&gt;Node9</title>
<g id="a_edge8_Node000008_Node000009"><a xlink:title=" ">
<path fill="none" stroke="#63b8ff" d="M550.32,-10C535.15,-10 519.11,-10 504.73,-10"/>
<polygon fill="#63b8ff" stroke="#63b8ff" points="550.19,-13.5 560.19,-10 550.19,-6.5 550.19,-13.5"/>
</a>
</g>
</g>
</g>
</svg>
