<?xml version="1.0" encoding="UTF-8" standalone="no"?>
<!DOCTYPE svg PUBLIC "-//W3C//DTD SVG 1.1//EN"
 "http://www.w3.org/Graphics/SVG/1.1/DTD/svg11.dtd">
<!-- Generated by graphviz version 13.1.0 (20250701.0955)
 -->
<!-- Title: QueueCmdSetDrawColor Pages: 1 -->
<svg width="1878pt" height="460pt"
 viewBox="0.00 0.00 1878.00 460.00" xmlns="http://www.w3.org/2000/svg" xmlns:xlink="http://www.w3.org/1999/xlink">
<g id="graph0" class="graph" transform="scale(1 1) rotate(0) translate(4 456)">
<title>QueueCmdSetDrawColor</title>
<!-- Node1 -->
<g id="Node000001" class="node">
<title>Node1</title>
<g id="a_Node000001"><a xlink:title=" ">
<polygon fill="#999999" stroke="#666666" points="1869.5,-305 1742.5,-305 1742.5,-285 1869.5,-285 1869.5,-305"/>
<text xml:space="preserve" text-anchor="middle" x="1806" y="-291.5" font-family="Helvetica,sans-Serif" font-size="10.00">QueueCmdSetDrawColor</text>
</a>
</g>
</g>
<!-- Node2 -->
<g id="Node000002" class="node">
<title>Node2</title>
<g id="a_Node000002"><a xlink:href="../../dd/df3/SDL__render_8c.html#a0f6eac3ab9ced36b9bee4fdf02696a64" target="_top" xlink:title=" ">
<polygon fill="white" stroke="#666666" points="1706.5,-305 1597.5,-305 1597.5,-285 1706.5,-285 1706.5,-305"/>
<text xml:space="preserve" text-anchor="middle" x="1652" y="-291.5" font-family="Helvetica,sans-Serif" font-size="10.00">PrepQueueCmdDraw</text>
</a>
</g>
</g>
<!-- Node1&#45;&gt;Node2 -->
<g id="edge1_Node000001_Node000002" class="edge">
<title>Node1&#45;&gt;Node2</title>
<g id="a_edge1_Node000001_Node000002"><a xlink:title=" ">
<path fill="none" stroke="#63b8ff" d="M1730.89,-295C1722.77,-295 1714.63,-295 1706.83,-295"/>
<polygon fill="#63b8ff" stroke="#63b8ff" points="1730.78,-298.5 1740.78,-295 1730.78,-291.5 1730.78,-298.5"/>
</a>
</g>
</g>
<!-- Node3 -->
<g id="Node000003" class="node">
<title>Node3</title>
<g id="a_Node000003"><a xlink:href="../../dd/df3/SDL__render_8c.html#ae4254b176ff12e6c141fc015ecc378b8" target="_top" xlink:title=" ">
<polygon fill="white" stroke="#666666" points="1549.88,-96 1461.12,-96 1461.12,-76 1549.88,-76 1549.88,-96"/>
<text xml:space="preserve" text-anchor="middle" x="1505.5" y="-82.5" font-family="Helvetica,sans-Serif" font-size="10.00">QueueCmdCopy</text>
</a>
</g>
</g>
<!-- Node2&#45;&gt;Node3 -->
<g id="edge2_Node000002_Node000003" class="edge">
<title>Node2&#45;&gt;Node3</title>
<g id="a_edge2_Node000002_Node000003"><a xlink:title=" ">
<path fill="none" stroke="#63b8ff" d="M1640.84,-274.37C1625.55,-244.21 1594.85,-186.89 1561.5,-143 1548.02,-125.26 1529.58,-107.15 1517.85,-96.24"/>
<polygon fill="#63b8ff" stroke="#63b8ff" points="1637.63,-275.79 1645.24,-283.16 1643.89,-272.65 1637.63,-275.79"/>
</a>
</g>
</g>
<!-- Node19 -->
<g id="Node000019" class="node">
<title>Node19</title>
<g id="a_Node000019"><a xlink:href="../../dd/df3/SDL__render_8c.html#a9a761d8da39ae2e34efd360cdfa99c00" target="_top" xlink:title=" ">
<polygon fill="white" stroke="#666666" points="1555.88,-267 1455.12,-267 1455.12,-247 1555.88,-247 1555.88,-267"/>
<text xml:space="preserve" text-anchor="middle" x="1505.5" y="-253.5" font-family="Helvetica,sans-Serif" font-size="10.00">QueueCmdCopyEx</text>
</a>
</g>
</g>
<!-- Node2&#45;&gt;Node19 -->
<g id="edge20_Node000002_Node000019" class="edge">
<title>Node2&#45;&gt;Node19</title>
<g id="a_edge20_Node000002_Node000019"><a xlink:title=" ">
<path fill="none" stroke="#63b8ff" d="M1600.12,-281.62C1582.44,-276.97 1562.88,-271.83 1546.24,-267.45"/>
<polygon fill="#63b8ff" stroke="#63b8ff" points="1599.11,-284.97 1609.67,-284.13 1600.89,-278.2 1599.11,-284.97"/>
</a>
</g>
</g>
<!-- Node20 -->
<g id="Node000020" class="node">
<title>Node20</title>
<g id="a_Node000020"><a xlink:href="../../dd/df3/SDL__render_8c.html#a1a3f16ae4b57104814f5abc98890ab56" target="_top" xlink:title=" ">
<polygon fill="white" stroke="#666666" points="1561.5,-452 1449.5,-452 1449.5,-432 1561.5,-432 1561.5,-452"/>
<text xml:space="preserve" text-anchor="middle" x="1505.5" y="-438.5" font-family="Helvetica,sans-Serif" font-size="10.00">QueueCmdDrawLines</text>
</a>
</g>
</g>
<!-- Node2&#45;&gt;Node20 -->
<g id="edge22_Node000002_Node000020" class="edge">
<title>Node2&#45;&gt;Node20</title>
<g id="a_edge22_Node000002_Node000020"><a xlink:title=" ">
<path fill="none" stroke="#63b8ff" d="M1636.35,-314.21C1619.42,-335.86 1590.2,-371.62 1561.5,-399 1548.7,-411.22 1532.61,-423.48 1521.15,-431.77"/>
<polygon fill="#63b8ff" stroke="#63b8ff" points="1638.94,-316.58 1642.29,-306.53 1633.41,-312.3 1638.94,-316.58"/>
</a>
</g>
</g>
<!-- Node25 -->
<g id="Node000025" class="node">
<title>Node25</title>
<g id="a_Node000025"><a xlink:href="../../dd/df3/SDL__render_8c.html#a590399709302ee5247179bdfaa870fe0" target="_top" xlink:title=" ">
<polygon fill="white" stroke="#666666" points="1403.38,-362 1286.88,-362 1286.88,-342 1403.38,-342 1403.38,-362"/>
<text xml:space="preserve" text-anchor="middle" x="1345.12" y="-348.5" font-family="Helvetica,sans-Serif" font-size="10.00">QueueCmdDrawPoints</text>
</a>
</g>
</g>
<!-- Node2&#45;&gt;Node25 -->
<g id="edge27_Node000002_Node000025" class="edge">
<title>Node2&#45;&gt;Node25</title>
<g id="a_edge27_Node000002_Node000025"><a xlink:title=" ">
<path fill="none" stroke="#63b8ff" d="M1585.9,-307.17C1531.3,-317.38 1454.14,-331.81 1402.23,-341.51"/>
<polygon fill="#63b8ff" stroke="#63b8ff" points="1586.52,-310.62 1595.71,-305.34 1585.24,-303.73 1586.52,-310.62"/>
</a>
</g>
</g>
<!-- Node30 -->
<g id="Node000030" class="node">
<title>Node30</title>
<g id="a_Node000030"><a xlink:href="../../dd/df3/SDL__render_8c.html#a991345d9019041e94d4acc8b224cd7f8" target="_top" xlink:title=" ">
<polygon fill="white" stroke="#666666" points="1557.75,-390 1453.25,-390 1453.25,-370 1557.75,-370 1557.75,-390"/>
<text xml:space="preserve" text-anchor="middle" x="1505.5" y="-376.5" font-family="Helvetica,sans-Serif" font-size="10.00">QueueCmdFillRects</text>
</a>
</g>
</g>
<!-- Node2&#45;&gt;Node30 -->
<g id="edge33_Node000002_Node000030" class="edge">
<title>Node2&#45;&gt;Node30</title>
<g id="a_edge33_Node000002_Node000030"><a xlink:title=" ">
<path fill="none" stroke="#63b8ff" d="M1623.66,-311.09C1594.34,-328.33 1548.68,-355.19 1523.91,-369.76"/>
<polygon fill="#63b8ff" stroke="#63b8ff" points="1625.13,-314.28 1631.98,-306.19 1621.58,-308.24 1625.13,-314.28"/>
</a>
</g>
</g>
<!-- Node36 -->
<g id="Node000036" class="node">
<title>Node36</title>
<g id="a_Node000036"><a xlink:href="../../dd/df3/SDL__render_8c.html#aa8c32c3fac7b83e26aec4b96e9f39a19" target="_top" xlink:title=" ">
<polygon fill="white" stroke="#666666" points="1559.62,-172 1451.38,-172 1451.38,-152 1559.62,-152 1559.62,-172"/>
<text xml:space="preserve" text-anchor="middle" x="1505.5" y="-158.5" font-family="Helvetica,sans-Serif" font-size="10.00">QueueCmdGeometry</text>
</a>
</g>
</g>
<!-- Node2&#45;&gt;Node36 -->
<g id="edge43_Node000002_Node000036" class="edge">
<title>Node2&#45;&gt;Node36</title>
<g id="a_edge43_Node000002_Node000036"><a xlink:title=" ">
<path fill="none" stroke="#63b8ff" d="M1631.45,-277.01C1600.78,-248.78 1542.32,-194.97 1517.79,-172.39"/>
<polygon fill="#63b8ff" stroke="#63b8ff" points="1628.82,-279.34 1638.55,-283.54 1633.56,-274.19 1628.82,-279.34"/>
</a>
</g>
</g>
<!-- Node4 -->
<g id="Node000004" class="node">
<title>Node4</title>
<g id="a_Node000004"><a xlink:href="../../dd/df3/SDL__render_8c.html#a30fbebc832594226a2a7e9e4c1f1d14a" target="_top" xlink:title=" ">
<polygon fill="white" stroke="#666666" points="1413.5,-58 1276.75,-58 1276.75,-38 1413.5,-38 1413.5,-58"/>
<text xml:space="preserve" text-anchor="middle" x="1345.12" y="-44.5" font-family="Helvetica,sans-Serif" font-size="10.00">SDL_RenderTextureInternal</text>
</a>
</g>
</g>
<!-- Node3&#45;&gt;Node4 -->
<g id="edge3_Node000003_Node000004" class="edge">
<title>Node3&#45;&gt;Node4</title>
<g id="a_edge3_Node000003_Node000004"><a xlink:title=" ">
<path fill="none" stroke="#63b8ff" d="M1449.84,-72.88C1430.17,-68.17 1408.27,-62.91 1389.68,-58.45"/>
<polygon fill="#63b8ff" stroke="#63b8ff" points="1448.79,-76.23 1459.33,-75.16 1450.42,-69.43 1448.79,-76.23"/>
</a>
</g>
</g>
<!-- Node5 -->
<g id="Node000005" class="node">
<title>Node5</title>
<g id="a_Node000005"><a xlink:href="../../dd/df3/SDL__render_8c.html#adefbd9b4df43575cde0ac34bfe31ec79" target="_top" xlink:title=" ">
<polygon fill="white" stroke="#666666" points="1216.38,-134 1111.88,-134 1111.88,-114 1216.38,-114 1216.38,-134"/>
<text xml:space="preserve" text-anchor="middle" x="1164.12" y="-120.5" font-family="Helvetica,sans-Serif" font-size="10.00">SDL_RenderTexture</text>
</a>
</g>
</g>
<!-- Node4&#45;&gt;Node5 -->
<g id="edge4_Node000004_Node000005" class="edge">
<title>Node4&#45;&gt;Node5</title>
<g id="a_edge4_Node000004_Node000005"><a xlink:title=" ">
<path fill="none" stroke="#63b8ff" d="M1313.56,-63.47C1293.17,-73.55 1265.64,-86.69 1240.75,-97 1226.45,-102.92 1210.34,-108.79 1196.67,-113.53"/>
<polygon fill="#63b8ff" stroke="#63b8ff" points="1315.06,-66.64 1322.45,-59.05 1311.94,-60.37 1315.06,-66.64"/>
</a>
</g>
</g>
<!-- Node17 -->
<g id="Node000017" class="node">
<title>Node17</title>
<g id="a_Node000017"><a xlink:href="../../dd/df3/SDL__render_8c.html#afab750bf901b49420602d5f6e011b89c" target="_top" xlink:title=" ">
<polygon fill="white" stroke="#666666" points="1226.88,-34 1101.38,-34 1101.38,-2 1226.88,-2 1226.88,-34"/>
<text xml:space="preserve" text-anchor="start" x="1109.38" y="-20.5" font-family="Helvetica,sans-Serif" font-size="10.00">SDL_RenderTextureTiled</text>
<text xml:space="preserve" text-anchor="middle" x="1164.12" y="-8.5" font-family="Helvetica,sans-Serif" font-size="10.00">_Iterate</text>
</a>
</g>
</g>
<!-- Node4&#45;&gt;Node17 -->
<g id="edge17_Node000004_Node000017" class="edge">
<title>Node4&#45;&gt;Node17</title>
<g id="a_edge17_Node000004_Node000017"><a xlink:title=" ">
<path fill="none" stroke="#63b8ff" d="M1270.18,-35.61C1255.85,-33.21 1240.98,-30.71 1227.09,-28.39"/>
<polygon fill="#63b8ff" stroke="#63b8ff" points="1269.59,-39.06 1280.03,-37.26 1270.74,-32.15 1269.59,-39.06"/>
</a>
</g>
</g>
<!-- Node6 -->
<g id="Node000006" class="node">
<title>Node6</title>
<g id="a_Node000006"><a xlink:href="../../dd/df3/SDL__render_8c.html#a27f2d6409bf2ef0e406ee84cbe1400c0" target="_top" xlink:title=" ">
<polygon fill="white" stroke="#666666" points="1037.25,-172 926.75,-172 926.75,-152 1037.25,-152 1037.25,-172"/>
<text xml:space="preserve" text-anchor="middle" x="982" y="-158.5" font-family="Helvetica,sans-Serif" font-size="10.00">DrawDebugCharacter</text>
</a>
</g>
</g>
<!-- Node5&#45;&gt;Node6 -->
<g id="edge5_Node000005_Node000006" class="edge">
<title>Node5&#45;&gt;Node6</title>
<g id="a_edge5_Node000005_Node000006"><a xlink:title=" ">
<path fill="none" stroke="#63b8ff" d="M1102.2,-136.85C1079.52,-141.64 1054.07,-147.01 1032.53,-151.55"/>
<polygon fill="#63b8ff" stroke="#63b8ff" points="1102.89,-140.29 1111.95,-134.8 1101.44,-133.44 1102.89,-140.29"/>
</a>
</g>
</g>
<!-- Node9 -->
<g id="Node000009" class="node">
<title>Node9</title>
<g id="a_Node000009"><a xlink:href="../../dd/df3/SDL__render_8c.html#a00ff4c00fc3f0f1cd18c189c47362fe8" target="_top" xlink:title=" ">
<polygon fill="white" stroke="#666666" points="876.5,-210 716.5,-210 716.5,-190 876.5,-190 876.5,-210"/>
<text xml:space="preserve" text-anchor="middle" x="796.5" y="-196.5" font-family="Helvetica,sans-Serif" font-size="10.00">SDL_RenderApplyWindowShape</text>
</a>
</g>
</g>
<!-- Node5&#45;&gt;Node9 -->
<g id="edge8_Node000005_Node000009" class="edge">
<title>Node5&#45;&gt;Node9</title>
<g id="a_edge8_Node000005_Node000009"><a xlink:title=" ">
<path fill="none" stroke="#63b8ff" d="M1101.05,-136.46C1096.33,-138.34 1091.76,-140.51 1087.5,-143 1067.42,-154.75 1072.51,-171.02 1051.5,-181 997.18,-206.81 928.89,-210.56 876.8,-208.4"/>
<polygon fill="#63b8ff" stroke="#63b8ff" points="1101.84,-139.89 1110.11,-133.27 1099.52,-133.29 1101.84,-139.89"/>
</a>
</g>
</g>
<!-- Node11 -->
<g id="Node000011" class="node">
<title>Node11</title>
<g id="a_Node000011"><a xlink:href="../../d6/d3d/SDL__video_8c.html#af9c2e408ee20cc71dbff39d4fb0f7594" target="_top" xlink:title=" ">
<polygon fill="white" stroke="#666666" points="494.25,-153 354.5,-153 354.5,-133 494.25,-133 494.25,-153"/>
<text xml:space="preserve" text-anchor="middle" x="424.38" y="-139.5" font-family="Helvetica,sans-Serif" font-size="10.00">SDL_UpdateWindowTexture</text>
</a>
</g>
</g>
<!-- Node5&#45;&gt;Node11 -->
<g id="edge16_Node000005_Node000011" class="edge">
<title>Node5&#45;&gt;Node11</title>
<g id="a_edge16_Node000005_Node000011"><a xlink:title=" ">
<path fill="none" stroke="#63b8ff" d="M1101.53,-111.61C1085.33,-108.87 1067.81,-106.38 1051.5,-105 848.3,-87.83 607.38,-116.11 492.63,-132.54"/>
<polygon fill="#63b8ff" stroke="#63b8ff" points="1100.57,-114.99 1111.02,-113.27 1101.77,-108.1 1100.57,-114.99"/>
</a>
</g>
</g>
<!-- Node14 -->
<g id="Node000014" class="node">
<title>Node14</title>
<g id="a_Node000014"><a xlink:href="../../dd/df3/SDL__render_8c.html#a0e67500547e7c04b9537a1f3a5043aa9" target="_top" xlink:title=" ">
<polygon fill="white" stroke="#666666" points="1045.88,-134 918.12,-134 918.12,-114 1045.88,-114 1045.88,-134"/>
<text xml:space="preserve" text-anchor="middle" x="982" y="-120.5" font-family="Helvetica,sans-Serif" font-size="10.00">SDL_RenderTexture9Grid</text>
</a>
</g>
</g>
<!-- Node5&#45;&gt;Node14 -->
<g id="edge13_Node000005_Node000014" class="edge">
<title>Node5&#45;&gt;Node14</title>
<g id="a_edge13_Node000005_Node000014"><a xlink:title=" ">
<path fill="none" stroke="#63b8ff" d="M1100.24,-124C1082.72,-124 1063.68,-124 1046.15,-124"/>
<polygon fill="#63b8ff" stroke="#63b8ff" points="1099.99,-127.5 1109.99,-124 1099.99,-120.5 1099.99,-127.5"/>
</a>
</g>
</g>
<!-- Node15 -->
<g id="Node000015" class="node">
<title>Node15</title>
<g id="a_Node000015"><a xlink:href="../../dd/df3/SDL__render_8c.html#a49b9002213c3ff97b44cf0102bdbbc90" target="_top" xlink:title=" ">
<polygon fill="white" stroke="#666666" points="870.88,-39 722.12,-39 722.12,-19 870.88,-19 870.88,-39"/>
<text xml:space="preserve" text-anchor="middle" x="796.5" y="-25.5" font-family="Helvetica,sans-Serif" font-size="10.00">SDL_RenderTexture9GridTiled</text>
</a>
</g>
</g>
<!-- Node5&#45;&gt;Node15 -->
<g id="edge14_Node000005_Node000015" class="edge">
<title>Node5&#45;&gt;Node15</title>
<g id="a_edge14_Node000005_Node000015"><a xlink:title=" ">
<path fill="none" stroke="#63b8ff" d="M1117.08,-109.75C1107.11,-106.07 1096.79,-101.78 1087.5,-97 1070.18,-88.09 1069.54,-79.36 1051.5,-72 993.63,-48.39 923.25,-37.74 871.26,-32.94"/>
<polygon fill="#63b8ff" stroke="#63b8ff" points="1115.66,-112.96 1126.25,-113 1117.99,-106.36 1115.66,-112.96"/>
</a>
</g>
</g>
<!-- Node16 -->
<g id="Node000016" class="node">
<title>Node16</title>
<g id="a_Node000016"><a xlink:href="../../dd/df3/SDL__render_8c.html#a5e93c2d8d7f28f4e3bc0e8d9b5df170a" target="_top" xlink:title=" ">
<polygon fill="white" stroke="#666666" points="1051.5,-248 912.5,-248 912.5,-228 1051.5,-228 1051.5,-248"/>
<text xml:space="preserve" text-anchor="middle" x="982" y="-234.5" font-family="Helvetica,sans-Serif" font-size="10.00">SDL_RenderTextureRotated</text>
</a>
</g>
</g>
<!-- Node5&#45;&gt;Node16 -->
<g id="edge15_Node000005_Node000016" class="edge">
<title>Node5&#45;&gt;Node16</title>
<g id="a_edge15_Node000005_Node000016"><a xlink:title=" ">
<path fill="none" stroke="#63b8ff" d="M1101.19,-134.68C1096.29,-136.95 1091.65,-139.69 1087.5,-143 1059.85,-165.08 1078.12,-190.69 1051.5,-214 1044.86,-219.81 1036.74,-224.24 1028.43,-227.61"/>
<polygon fill="#63b8ff" stroke="#63b8ff" points="1102.07,-138.09 1110.12,-131.2 1099.53,-131.57 1102.07,-138.09"/>
</a>
</g>
</g>
<!-- Node7 -->
<g id="Node000007" class="node">
<title>Node7</title>
<g id="a_Node000007"><a xlink:href="../../dd/df3/SDL__render_8c.html#abea8c4ab0178e48c260dbf830cf7fd17" target="_top" xlink:title=" ">
<polygon fill="white" stroke="#666666" points="856.25,-172 736.75,-172 736.75,-152 856.25,-152 856.25,-172"/>
<text xml:space="preserve" text-anchor="middle" x="796.5" y="-158.5" font-family="Helvetica,sans-Serif" font-size="10.00">SDL_RenderDebugText</text>
</a>
</g>
</g>
<!-- Node6&#45;&gt;Node7 -->
<g id="edge6_Node000006_Node000007" class="edge">
<title>Node6&#45;&gt;Node7</title>
<g id="a_edge6_Node000006_Node000007"><a xlink:title=" ">
<path fill="none" stroke="#63b8ff" d="M915.11,-162C896.02,-162 875.3,-162 856.65,-162"/>
<polygon fill="#63b8ff" stroke="#63b8ff" points="914.93,-165.5 924.93,-162 914.93,-158.5 914.93,-165.5"/>
</a>
</g>
</g>
<!-- Node8 -->
<g id="Node000008" class="node">
<title>Node8</title>
<g id="a_Node000008"><a xlink:href="../../dd/df3/SDL__render_8c.html#a9088b0bec7523287068b9391ab923dc8" target="_top" xlink:title=" ">
<polygon fill="white" stroke="#666666" points="680.5,-172 530.25,-172 530.25,-152 680.5,-152 680.5,-172"/>
<text xml:space="preserve" text-anchor="middle" x="605.38" y="-158.5" font-family="Helvetica,sans-Serif" font-size="10.00">SDL_RenderDebugTextFormat</text>
</a>
</g>
</g>
<!-- Node7&#45;&gt;Node8 -->
<g id="edge7_Node000007_Node000008" class="edge">
<title>Node7&#45;&gt;Node8</title>
<g id="a_edge7_Node000007_Node000008"><a xlink:title=" ">
<path fill="none" stroke="#63b8ff" d="M725.03,-162C710.55,-162 695.27,-162 680.66,-162"/>
<polygon fill="#63b8ff" stroke="#63b8ff" points="724.92,-165.5 734.92,-162 724.92,-158.5 724.92,-165.5"/>
</a>
</g>
</g>
<!-- Node10 -->
<g id="Node000010" class="node">
<title>Node10</title>
<g id="a_Node000010"><a xlink:href="../../dd/df3/SDL__render_8c.html#a0e1304d4ab1c78d549d9018cda3a85d4" target="_top" xlink:title=" ">
<polygon fill="white" stroke="#666666" points="658.38,-210 552.38,-210 552.38,-190 658.38,-190 658.38,-210"/>
<text xml:space="preserve" text-anchor="middle" x="605.38" y="-196.5" font-family="Helvetica,sans-Serif" font-size="10.00">SDL_RenderPresent</text>
</a>
</g>
</g>
<!-- Node9&#45;&gt;Node10 -->
<g id="edge9_Node000009_Node000010" class="edge">
<title>Node9&#45;&gt;Node10</title>
<g id="a_edge9_Node000009_Node000010"><a xlink:title=" ">
<path fill="none" stroke="#63b8ff" d="M704.67,-200C688.88,-200 672.95,-200 658.65,-200"/>
<polygon fill="#63b8ff" stroke="#63b8ff" points="704.6,-203.5 714.6,-200 704.6,-196.5 704.6,-203.5"/>
</a>
</g>
</g>
<!-- Node10&#45;&gt;Node11 -->
<g id="edge10_Node000010_Node000011" class="edge">
<title>Node10&#45;&gt;Node11</title>
<g id="a_edge10_Node000010_Node000011"><a xlink:title=" ">
<path fill="none" stroke="#63b8ff" d="M549.69,-186.62C543.11,-184.82 536.51,-182.93 530.25,-181 503.23,-172.66 472.92,-161.48 451.86,-153.4"/>
<polygon fill="#63b8ff" stroke="#63b8ff" points="548.64,-189.97 559.21,-189.16 550.45,-183.2 548.64,-189.97"/>
</a>
</g>
</g>
<!-- Node12 -->
<g id="Node000012" class="node">
<title>Node12</title>
<g id="a_Node000012"><a xlink:href="../../d6/d3d/SDL__video_8c.html#ae6c55eb5cc6ca81ba6faa17eab3af85b" target="_top" xlink:title=" ">
<polygon fill="white" stroke="#666666" points="318.5,-153 161.5,-153 161.5,-133 318.5,-133 318.5,-153"/>
<text xml:space="preserve" text-anchor="middle" x="240" y="-139.5" font-family="Helvetica,sans-Serif" font-size="10.00">SDL_CreateWindowFramebuffer</text>
</a>
</g>
</g>
<!-- Node11&#45;&gt;Node12 -->
<g id="edge11_Node000011_Node000012" class="edge">
<title>Node11&#45;&gt;Node12</title>
<g id="a_edge11_Node000011_Node000012"><a xlink:title=" ">
<path fill="none" stroke="#63b8ff" d="M342.9,-143C334.86,-143 326.71,-143 318.7,-143"/>
<polygon fill="#63b8ff" stroke="#63b8ff" points="342.65,-146.5 352.65,-143 342.65,-139.5 342.65,-146.5"/>
</a>
</g>
</g>
<!-- Node13 -->
<g id="Node000013" class="node">
<title>Node13</title>
<g id="a_Node000013"><a xlink:href="../../d6/d3d/SDL__video_8c.html#a155d3f01bb23f59e2c724973e020ebe6" target="_top" xlink:title=" ">
<polygon fill="white" stroke="#666666" points="125.5,-153 0,-153 0,-133 125.5,-133 125.5,-153"/>
<text xml:space="preserve" text-anchor="middle" x="62.75" y="-139.5" font-family="Helvetica,sans-Serif" font-size="10.00">SDL_GetWindowSurface</text>
</a>
</g>
</g>
<!-- Node12&#45;&gt;Node13 -->
<g id="edge12_Node000012_Node000013" class="edge">
<title>Node12&#45;&gt;Node13</title>
<g id="a_edge12_Node000012_Node000013"><a xlink:title=" ">
<path fill="none" stroke="#63b8ff" d="M149.74,-143C141.68,-143 133.64,-143 125.89,-143"/>
<polygon fill="#63b8ff" stroke="#63b8ff" points="149.6,-146.5 159.6,-143 149.6,-139.5 149.6,-146.5"/>
</a>
</g>
</g>
<!-- Node18 -->
<g id="Node000018" class="node">
<title>Node18</title>
<g id="a_Node000018"><a xlink:href="../../dd/df3/SDL__render_8c.html#ab7d2bba22d1613b8b52bb6cb558c62e6" target="_top" xlink:title=" ">
<polygon fill="white" stroke="#666666" points="1044.75,-20 919.25,-20 919.25,0 1044.75,0 1044.75,-20"/>
<text xml:space="preserve" text-anchor="middle" x="982" y="-6.5" font-family="Helvetica,sans-Serif" font-size="10.00">SDL_RenderTextureTiled</text>
</a>
</g>
</g>
<!-- Node17&#45;&gt;Node18 -->
<g id="edge18_Node000017_Node000018" class="edge">
<title>Node17&#45;&gt;Node18</title>
<g id="a_edge18_Node000017_Node000018"><a xlink:title=" ">
<path fill="none" stroke="#63b8ff" d="M1089.74,-14.74C1074.97,-14.08 1059.59,-13.4 1045.24,-12.76"/>
<polygon fill="#63b8ff" stroke="#63b8ff" points="1089.23,-18.22 1099.37,-15.17 1089.54,-11.23 1089.23,-18.22"/>
</a>
</g>
</g>
<!-- Node18&#45;&gt;Node15 -->
<g id="edge19_Node000018_Node000015" class="edge">
<title>Node18&#45;&gt;Node15</title>
<g id="a_edge19_Node000018_Node000015"><a xlink:title=" ">
<path fill="none" stroke="#63b8ff" d="M907.58,-17.6C895.64,-18.84 883.26,-20.12 871.3,-21.36"/>
<polygon fill="#63b8ff" stroke="#63b8ff" points="907.78,-21.1 917.37,-16.59 907.06,-14.14 907.78,-21.1"/>
</a>
</g>
</g>
<!-- Node19&#45;&gt;Node16 -->
<g id="edge21_Node000019_Node000016" class="edge">
<title>Node19&#45;&gt;Node16</title>
<g id="a_edge21_Node000019_Node000016"><a xlink:title=" ">
<path fill="none" stroke="#63b8ff" d="M1443.52,-254.78C1345.7,-251.21 1154.35,-244.24 1051.8,-240.51"/>
<polygon fill="#63b8ff" stroke="#63b8ff" points="1443.34,-258.27 1453.46,-255.14 1443.59,-251.28 1443.34,-258.27"/>
</a>
</g>
</g>
<!-- Node21 -->
<g id="Node000021" class="node">
<title>Node21</title>
<g id="a_Node000021"><a xlink:href="../../dd/df3/SDL__render_8c.html#a41bf6d76dd063b3dca132fa3f730ad9e" target="_top" xlink:title=" ">
<polygon fill="white" stroke="#666666" points="844.25,-419 748.75,-419 748.75,-399 844.25,-399 844.25,-419"/>
<text xml:space="preserve" text-anchor="middle" x="796.5" y="-405.5" font-family="Helvetica,sans-Serif" font-size="10.00">SDL_RenderLines</text>
</a>
</g>
</g>
<!-- Node20&#45;&gt;Node21 -->
<g id="edge23_Node000020_Node000021" class="edge">
<title>Node20&#45;&gt;Node21</title>
<g id="a_edge23_Node000020_Node000021"><a xlink:title=" ">
<path fill="none" stroke="#63b8ff" d="M1438.03,-443.68C1328.29,-445.73 1102.46,-446.87 912.5,-428 890.05,-425.77 865.34,-421.88 844.6,-418.2"/>
<polygon fill="#63b8ff" stroke="#63b8ff" points="1437.8,-447.19 1447.73,-443.49 1437.66,-440.19 1437.8,-447.19"/>
</a>
</g>
</g>
<!-- Node22 -->
<g id="Node000022" class="node">
<title>Node22</title>
<g id="a_Node000022"><a xlink:href="../../dd/df3/SDL__render_8c.html#a67366756da458745c1828919d035d7d6" target="_top" xlink:title=" ">
<polygon fill="white" stroke="#666666" points="650.5,-400 560.25,-400 560.25,-380 650.5,-380 650.5,-400"/>
<text xml:space="preserve" text-anchor="middle" x="605.38" y="-386.5" font-family="Helvetica,sans-Serif" font-size="10.00">SDL_RenderLine</text>
</a>
</g>
</g>
<!-- Node21&#45;&gt;Node22 -->
<g id="edge24_Node000021_Node000022" class="edge">
<title>Node21&#45;&gt;Node22</title>
<g id="a_edge24_Node000021_Node000022"><a xlink:title=" ">
<path fill="none" stroke="#63b8ff" d="M737.07,-403.13C709.24,-400.33 676.49,-397.04 650.74,-394.46"/>
<polygon fill="#63b8ff" stroke="#63b8ff" points="736.46,-406.59 746.76,-404.1 737.16,-399.62 736.46,-406.59"/>
</a>
</g>
</g>
<!-- Node23 -->
<g id="Node000023" class="node">
<title>Node23</title>
<g id="a_Node000023"><a xlink:href="../../dd/df3/SDL__render_8c.html#a4d4cd6b8864b2f6ae29e2da880d43edd" target="_top" xlink:title=" ">
<polygon fill="white" stroke="#666666" points="652,-438 558.75,-438 558.75,-418 652,-418 652,-438"/>
<text xml:space="preserve" text-anchor="middle" x="605.38" y="-424.5" font-family="Helvetica,sans-Serif" font-size="10.00">SDL_RenderRect</text>
</a>
</g>
</g>
<!-- Node21&#45;&gt;Node23 -->
<g id="edge25_Node000021_Node000023" class="edge">
<title>Node21&#45;&gt;Node23</title>
<g id="a_edge25_Node000021_Node000023"><a xlink:title=" ">
<path fill="none" stroke="#63b8ff" d="M736.92,-414.89C709.7,-417.62 677.81,-420.82 652.36,-423.38"/>
<polygon fill="#63b8ff" stroke="#63b8ff" points="737.16,-418.38 746.76,-413.9 736.46,-411.41 737.16,-418.38"/>
</a>
</g>
</g>
<!-- Node24 -->
<g id="Node000024" class="node">
<title>Node24</title>
<g id="a_Node000024"><a xlink:href="../../dd/df3/SDL__render_8c.html#a8ddfe94cbc45d570696bc2833cc44920" target="_top" xlink:title=" ">
<polygon fill="white" stroke="#666666" points="473.62,-438 375.12,-438 375.12,-418 473.62,-418 473.62,-438"/>
<text xml:space="preserve" text-anchor="middle" x="424.38" y="-424.5" font-family="Helvetica,sans-Serif" font-size="10.00">SDL_RenderRects</text>
</a>
</g>
</g>
<!-- Node23&#45;&gt;Node24 -->
<g id="edge26_Node000023_Node000024" class="edge">
<title>Node23&#45;&gt;Node24</title>
<g id="a_edge26_Node000023_Node000024"><a xlink:title=" ">
<path fill="none" stroke="#63b8ff" d="M547.01,-428C523.42,-428 496.39,-428 473.82,-428"/>
<polygon fill="#63b8ff" stroke="#63b8ff" points="546.76,-431.5 556.76,-428 546.76,-424.5 546.76,-431.5"/>
</a>
</g>
</g>
<!-- Node26 -->
<g id="Node000026" class="node">
<title>Node26</title>
<g id="a_Node000026"><a xlink:href="../../dd/df3/SDL__render_8c.html#a0d57d32a5ee4139bc874fe9a8c126803" target="_top" xlink:title=" ">
<polygon fill="white" stroke="#666666" points="1221.62,-400 1106.62,-400 1106.62,-380 1221.62,-380 1221.62,-400"/>
<text xml:space="preserve" text-anchor="middle" x="1164.12" y="-386.5" font-family="Helvetica,sans-Serif" font-size="10.00">RenderLineBresenham</text>
</a>
</g>
</g>
<!-- Node25&#45;&gt;Node26 -->
<g id="edge28_Node000025_Node000026" class="edge">
<title>Node25&#45;&gt;Node26</title>
<g id="a_edge28_Node000025_Node000026"><a xlink:title=" ">
<path fill="none" stroke="#63b8ff" d="M1283.58,-364.85C1261.04,-369.64 1235.75,-375.01 1214.35,-379.55"/>
<polygon fill="#63b8ff" stroke="#63b8ff" points="1284.2,-368.3 1293.26,-362.8 1282.75,-361.45 1284.2,-368.3"/>
</a>
</g>
</g>
<!-- Node28 -->
<g id="Node000028" class="node">
<title>Node28</title>
<g id="a_Node000028"><a xlink:href="../../dd/df3/SDL__render_8c.html#ac605fa86b6595d13bfcf96b4141944d9" target="_top" xlink:title=" ">
<polygon fill="white" stroke="#666666" points="1214.12,-362 1114.12,-362 1114.12,-342 1214.12,-342 1214.12,-362"/>
<text xml:space="preserve" text-anchor="middle" x="1164.12" y="-348.5" font-family="Helvetica,sans-Serif" font-size="10.00">SDL_RenderPoints</text>
</a>
</g>
</g>
<!-- Node25&#45;&gt;Node28 -->
<g id="edge31_Node000025_Node000028" class="edge">
<title>Node25&#45;&gt;Node28</title>
<g id="a_edge31_Node000025_Node000028"><a xlink:title=" ">
<path fill="none" stroke="#63b8ff" d="M1275.13,-352C1254.93,-352 1233.24,-352 1214.52,-352"/>
<polygon fill="#63b8ff" stroke="#63b8ff" points="1274.99,-355.5 1284.99,-352 1274.99,-348.5 1274.99,-355.5"/>
</a>
</g>
</g>
<!-- Node27 -->
<g id="Node000027" class="node">
<title>Node27</title>
<g id="a_Node000027"><a xlink:href="../../dd/df3/SDL__render_8c.html#ad5eee5fa74c4a69c00bab883ce68bb3a" target="_top" xlink:title=" ">
<polygon fill="white" stroke="#666666" points="1043.62,-419 920.38,-419 920.38,-399 1043.62,-399 1043.62,-419"/>
<text xml:space="preserve" text-anchor="middle" x="982" y="-405.5" font-family="Helvetica,sans-Serif" font-size="10.00">RenderLinesWithRectsF</text>
</a>
</g>
</g>
<!-- Node26&#45;&gt;Node27 -->
<g id="edge29_Node000026_Node000027" class="edge">
<title>Node26&#45;&gt;Node27</title>
<g id="a_edge29_Node000026_Node000027"><a xlink:title=" ">
<path fill="none" stroke="#63b8ff" d="M1094.77,-397.21C1078.07,-398.97 1060.31,-400.84 1043.98,-402.57"/>
<polygon fill="#63b8ff" stroke="#63b8ff" points="1095.05,-400.7 1104.63,-396.17 1094.32,-393.74 1095.05,-400.7"/>
</a>
</g>
</g>
<!-- Node27&#45;&gt;Node21 -->
<g id="edge30_Node000027_Node000021" class="edge">
<title>Node27&#45;&gt;Node21</title>
<g id="a_edge30_Node000027_Node000021"><a xlink:title=" ">
<path fill="none" stroke="#63b8ff" d="M908.5,-409C887.04,-409 864.11,-409 844.7,-409"/>
<polygon fill="#63b8ff" stroke="#63b8ff" points="908.38,-412.5 918.38,-409 908.38,-405.5 908.38,-412.5"/>
</a>
</g>
</g>
<!-- Node29 -->
<g id="Node000029" class="node">
<title>Node29</title>
<g id="a_Node000029"><a xlink:href="../../dd/df3/SDL__render_8c.html#a99478156af38e2174c67567c46bbb9ef" target="_top" xlink:title=" ">
<polygon fill="white" stroke="#666666" points="1029.38,-362 934.62,-362 934.62,-342 1029.38,-342 1029.38,-362"/>
<text xml:space="preserve" text-anchor="middle" x="982" y="-348.5" font-family="Helvetica,sans-Serif" font-size="10.00">SDL_RenderPoint</text>
</a>
</g>
</g>
<!-- Node28&#45;&gt;Node29 -->
<g id="edge32_Node000028_Node000029" class="edge">
<title>Node28&#45;&gt;Node29</title>
<g id="a_edge32_Node000028_Node000029"><a xlink:title=" ">
<path fill="none" stroke="#63b8ff" d="M1102.52,-352C1078.75,-352 1051.9,-352 1029.68,-352"/>
<polygon fill="#63b8ff" stroke="#63b8ff" points="1102.39,-355.5 1112.39,-352 1102.39,-348.5 1102.39,-355.5"/>
</a>
</g>
</g>
<!-- Node30&#45;&gt;Node27 -->
<g id="edge34_Node000030_Node000027" class="edge">
<title>Node30&#45;&gt;Node27</title>
<g id="a_edge34_Node000030_Node000027"><a xlink:title=" ">
<path fill="none" stroke="#63b8ff" d="M1468.34,-394.35C1451.89,-400.14 1432,-406.12 1413.5,-409 1283.15,-429.27 1127.9,-421.59 1044.05,-414.86"/>
<polygon fill="#63b8ff" stroke="#63b8ff" points="1469.51,-397.65 1477.7,-390.94 1467.11,-391.08 1469.51,-397.65"/>
</a>
</g>
</g>
<!-- Node31 -->
<g id="Node000031" class="node">
<title>Node31</title>
<g id="a_Node000031"><a xlink:href="../../dd/df3/SDL__render_8c.html#a63671c2179c0c3092f6a4c9797f5b36f" target="_top" xlink:title=" ">
<polygon fill="white" stroke="#666666" points="1406,-400 1284.25,-400 1284.25,-380 1406,-380 1406,-400"/>
<text xml:space="preserve" text-anchor="middle" x="1345.12" y="-386.5" font-family="Helvetica,sans-Serif" font-size="10.00">RenderPointsWithRects</text>
</a>
</g>
</g>
<!-- Node30&#45;&gt;Node31 -->
<g id="edge35_Node000030_Node000031" class="edge">
<title>Node30&#45;&gt;Node31</title>
<g id="a_edge35_Node000030_Node000031"><a xlink:title=" ">
<path fill="none" stroke="#63b8ff" d="M1441.66,-383.97C1430.04,-384.7 1417.92,-385.47 1406.38,-386.2"/>
<polygon fill="#63b8ff" stroke="#63b8ff" points="1441.81,-387.47 1451.57,-383.34 1441.37,-380.48 1441.81,-387.47"/>
</a>
</g>
</g>
<!-- Node32 -->
<g id="Node000032" class="node">
<title>Node32</title>
<g id="a_Node000032"><a xlink:href="../../dd/df3/SDL__render_8c.html#a138567dea7fbdd6d6de9d4ecd701bc22" target="_top" xlink:title=" ">
<polygon fill="white" stroke="#666666" points="1400.75,-286 1289.5,-286 1289.5,-266 1400.75,-266 1400.75,-286"/>
<text xml:space="preserve" text-anchor="middle" x="1345.12" y="-272.5" font-family="Helvetica,sans-Serif" font-size="10.00">SDL_RenderFillRects</text>
</a>
</g>
</g>
<!-- Node30&#45;&gt;Node32 -->
<g id="edge38_Node000030_Node000032" class="edge">
<title>Node30&#45;&gt;Node32</title>
<g id="a_edge38_Node000030_Node000032"><a xlink:title=" ">
<path fill="none" stroke="#63b8ff" d="M1479.31,-363.46C1446.27,-341.76 1389.29,-304.35 1361.83,-286.31"/>
<polygon fill="#63b8ff" stroke="#63b8ff" points="1477.19,-366.25 1487.47,-368.82 1481.03,-360.4 1477.19,-366.25"/>
</a>
</g>
</g>
<!-- Node31&#45;&gt;Node26 -->
<g id="edge36_Node000031_Node000026" class="edge">
<title>Node31&#45;&gt;Node26</title>
<g id="a_edge36_Node000031_Node000026"><a xlink:title=" ">
<path fill="none" stroke="#63b8ff" d="M1272.57,-390C1255.77,-390 1238.1,-390 1222.04,-390"/>
<polygon fill="#63b8ff" stroke="#63b8ff" points="1272.51,-393.5 1282.51,-390 1272.51,-386.5 1272.51,-393.5"/>
</a>
</g>
</g>
<!-- Node31&#45;&gt;Node28 -->
<g id="edge37_Node000031_Node000028" class="edge">
<title>Node31&#45;&gt;Node28</title>
<g id="a_edge37_Node000031_Node000028"><a xlink:title=" ">
<path fill="none" stroke="#63b8ff" d="M1283.58,-377.15C1261.04,-372.36 1235.75,-366.99 1214.35,-362.45"/>
<polygon fill="#63b8ff" stroke="#63b8ff" points="1282.75,-380.55 1293.26,-379.2 1284.2,-373.7 1282.75,-380.55"/>
</a>
</g>
</g>
<!-- Node33 -->
<g id="Node000033" class="node">
<title>Node33</title>
<g id="a_Node000033"><a xlink:href="../../dd/df3/SDL__render_8c.html#abf8a2272808ea6beb049f2648151c316" target="_top" xlink:title=" ">
<polygon fill="white" stroke="#666666" points="1217.12,-286 1111.12,-286 1111.12,-266 1217.12,-266 1217.12,-286"/>
<text xml:space="preserve" text-anchor="middle" x="1164.12" y="-272.5" font-family="Helvetica,sans-Serif" font-size="10.00">SDL_RenderFillRect</text>
</a>
</g>
</g>
<!-- Node32&#45;&gt;Node33 -->
<g id="edge39_Node000032_Node000033" class="edge">
<title>Node32&#45;&gt;Node33</title>
<g id="a_edge39_Node000032_Node000033"><a xlink:title=" ">
<path fill="none" stroke="#63b8ff" d="M1278.18,-276C1258.12,-276 1236.35,-276 1217.32,-276"/>
<polygon fill="#63b8ff" stroke="#63b8ff" points="1277.93,-279.5 1287.93,-276 1277.93,-272.5 1277.93,-279.5"/>
</a>
</g>
</g>
<!-- Node34 -->
<g id="Node000034" class="node">
<title>Node34</title>
<g id="a_Node000034"><a xlink:href="../../dd/df3/SDL__render_8c.html#a71fe6332a259664be8cc6cbb54e7a53f" target="_top" xlink:title=" ">
<polygon fill="white" stroke="#666666" points="1050.38,-286 913.62,-286 913.62,-266 1050.38,-266 1050.38,-286"/>
<text xml:space="preserve" text-anchor="middle" x="982" y="-272.5" font-family="Helvetica,sans-Serif" font-size="10.00">SDL_RenderLogicalBorders</text>
</a>
</g>
</g>
<!-- Node33&#45;&gt;Node34 -->
<g id="edge40_Node000033_Node000034" class="edge">
<title>Node33&#45;&gt;Node34</title>
<g id="a_edge40_Node000033_Node000034"><a xlink:title=" ">
<path fill="none" stroke="#63b8ff" d="M1099.73,-276C1083.88,-276 1066.81,-276 1050.76,-276"/>
<polygon fill="#63b8ff" stroke="#63b8ff" points="1099.51,-279.5 1109.51,-276 1099.51,-272.5 1099.51,-279.5"/>
</a>
</g>
</g>
<!-- Node35 -->
<g id="Node000035" class="node">
<title>Node35</title>
<g id="a_Node000035"><a xlink:href="../../dd/df3/SDL__render_8c.html#aae751603e2b23ed76f13305bdc535cfc" target="_top" xlink:title=" ">
<polygon fill="white" stroke="#666666" points="875.38,-267 717.62,-267 717.62,-247 875.38,-247 875.38,-267"/>
<text xml:space="preserve" text-anchor="middle" x="796.5" y="-253.5" font-family="Helvetica,sans-Serif" font-size="10.00">SDL_RenderLogicalPresentation</text>
</a>
</g>
</g>
<!-- Node34&#45;&gt;Node35 -->
<g id="edge41_Node000034_Node000035" class="edge">
<title>Node34&#45;&gt;Node35</title>
<g id="a_edge41_Node000034_Node000035"><a xlink:title=" ">
<path fill="none" stroke="#63b8ff" d="M901.95,-267.81C893.3,-266.92 884.51,-266.01 875.87,-265.12"/>
<polygon fill="#63b8ff" stroke="#63b8ff" points="901.38,-271.27 911.69,-268.82 902.1,-264.31 901.38,-271.27"/>
</a>
</g>
</g>
<!-- Node35&#45;&gt;Node10 -->
<g id="edge42_Node000035_Node000010" class="edge">
<title>Node35&#45;&gt;Node10</title>
<g id="a_edge42_Node000035_Node000010"><a xlink:title=" ">
<path fill="none" stroke="#63b8ff" d="M749.94,-243.27C716.5,-233.19 671.76,-219.71 641.16,-210.48"/>
<polygon fill="#63b8ff" stroke="#63b8ff" points="748.78,-246.57 759.36,-246.11 750.8,-239.87 748.78,-246.57"/>
</a>
</g>
</g>
<!-- Node36&#45;&gt;Node4 -->
<g id="edge48_Node000036_Node000004" class="edge">
<title>Node36&#45;&gt;Node4</title>
<g id="a_edge48_Node000036_Node000004"><a xlink:title=" ">
<path fill="none" stroke="#63b8ff" d="M1486.69,-143.54C1462.65,-118.78 1421.88,-77.26 1413.5,-72 1404.67,-66.45 1394.38,-61.96 1384.54,-58.43"/>
<polygon fill="#63b8ff" stroke="#63b8ff" points="1484.17,-145.98 1493.64,-150.73 1489.2,-141.11 1484.17,-145.98"/>
</a>
</g>
</g>
<!-- Node36&#45;&gt;Node16 -->
<g id="edge49_Node000036_Node000016" class="edge">
<title>Node36&#45;&gt;Node16</title>
<g id="a_edge49_Node000036_Node000016"><a xlink:title=" ">
<path fill="none" stroke="#63b8ff" d="M1446.63,-174.75C1435.66,-176.98 1424.25,-179.17 1413.5,-181 1286.41,-202.65 1137.02,-220.81 1051.83,-230.48"/>
<polygon fill="#63b8ff" stroke="#63b8ff" points="1447.3,-178.19 1456.38,-172.74 1445.88,-171.34 1447.3,-178.19"/>
</a>
</g>
</g>
<!-- Node36&#45;&gt;Node21 -->
<g id="edge46_Node000036_Node000021" class="edge">
<title>Node36&#45;&gt;Node21</title>
<g id="a_edge46_Node000036_Node000021"><a xlink:title=" ">
<path fill="none" stroke="#63b8ff" d="M1490.15,-181.12C1478.84,-196.35 1462.83,-218.3 1449.5,-238 1432.71,-262.82 1439.17,-279.55 1413.5,-295 1317.83,-352.56 1018.13,-296.84 912.5,-333 870.16,-347.49 828.31,-381.37 808.83,-398.57"/>
<polygon fill="#63b8ff" stroke="#63b8ff" points="1492.74,-183.5 1495.91,-173.39 1487.13,-179.32 1492.74,-183.5"/>
</a>
</g>
</g>
<!-- Node37 -->
<g id="Node000037" class="node">
<title>Node37</title>
<g id="a_Node000037"><a xlink:href="../../dd/df3/SDL__render_8c.html#afcc36bbe28e998126adf1ff2cb5d097f" target="_top" xlink:title=" ">
<polygon fill="white" stroke="#666666" points="1412.75,-172 1277.5,-172 1277.5,-152 1412.75,-152 1412.75,-172"/>
<text xml:space="preserve" text-anchor="middle" x="1345.12" y="-158.5" font-family="Helvetica,sans-Serif" font-size="10.00">SDL_RenderGeometryRaw</text>
</a>
</g>
</g>
<!-- Node36&#45;&gt;Node37 -->
<g id="edge44_Node000036_Node000037" class="edge">
<title>Node36&#45;&gt;Node37</title>
<g id="a_edge44_Node000036_Node000037"><a xlink:title=" ">
<path fill="none" stroke="#63b8ff" d="M1439.6,-162C1430.88,-162 1421.92,-162 1413.17,-162"/>
<polygon fill="#63b8ff" stroke="#63b8ff" points="1439.37,-165.5 1449.37,-162 1439.37,-158.5 1439.37,-165.5"/>
</a>
</g>
</g>
<!-- Node39 -->
<g id="Node000039" class="node">
<title>Node39</title>
<g id="a_Node000039"><a xlink:href="../../dd/df3/SDL__render_8c.html#afe36527f99f6ecadc56ce660ed1b0b65" target="_top" xlink:title=" ">
<polygon fill="white" stroke="#666666" points="1409.75,-134 1280.5,-134 1280.5,-114 1409.75,-114 1409.75,-134"/>
<text xml:space="preserve" text-anchor="middle" x="1345.12" y="-120.5" font-family="Helvetica,sans-Serif" font-size="10.00">SDL_RenderTextureAffine</text>
</a>
</g>
</g>
<!-- Node36&#45;&gt;Node39 -->
<g id="edge47_Node000036_Node000039" class="edge">
<title>Node36&#45;&gt;Node39</title>
<g id="a_edge47_Node000036_Node000039"><a xlink:title=" ">
<path fill="none" stroke="#63b8ff" d="M1449.84,-148.88C1430.17,-144.17 1408.27,-138.91 1389.68,-134.45"/>
<polygon fill="#63b8ff" stroke="#63b8ff" points="1448.79,-152.23 1459.33,-151.16 1450.42,-145.43 1448.79,-152.23"/>
</a>
</g>
</g>
<!-- Node40 -->
<g id="Node000040" class="node">
<title>Node40</title>
<g id="a_Node000040"><a xlink:href="../../dd/df3/SDL__render_8c.html#ac40fca3db59785d01c35f5fe2b87530f" target="_top" xlink:title=" ">
<polygon fill="white" stroke="#666666" points="1240.75,-88 1087.5,-88 1087.5,-68 1240.75,-68 1240.75,-88"/>
<text xml:space="preserve" text-anchor="middle" x="1164.12" y="-74.5" font-family="Helvetica,sans-Serif" font-size="10.00">SDL_RenderTextureTiled_Wrap</text>
</a>
</g>
</g>
<!-- Node36&#45;&gt;Node40 -->
<g id="edge50_Node000036_Node000040" class="edge">
<title>Node36&#45;&gt;Node40</title>
<g id="a_edge50_Node000036_Node000040"><a xlink:title=" ">
<path fill="none" stroke="#63b8ff" d="M1483.37,-144.86C1465.79,-131.6 1439.51,-114.02 1413.5,-105 1357.87,-85.7 1291.4,-79.28 1241.23,-77.5"/>
<polygon fill="#63b8ff" stroke="#63b8ff" points="1480.95,-147.41 1491,-150.78 1485.24,-141.88 1480.95,-147.41"/>
</a>
</g>
</g>
<!-- Node38 -->
<g id="Node000038" class="node">
<title>Node38</title>
<g id="a_Node000038"><a xlink:href="../../dd/df3/SDL__render_8c.html#a137b71331f040d5071d6f6957a90675e" target="_top" xlink:title=" ">
<polygon fill="white" stroke="#666666" points="1221.62,-172 1106.62,-172 1106.62,-152 1221.62,-152 1221.62,-172"/>
<text xml:space="preserve" text-anchor="middle" x="1164.12" y="-158.5" font-family="Helvetica,sans-Serif" font-size="10.00">SDL_RenderGeometry</text>
</a>
</g>
</g>
<!-- Node37&#45;&gt;Node38 -->
<g id="edge45_Node000037_Node000038" class="edge">
<title>Node37&#45;&gt;Node38</title>
<g id="a_edge45_Node000037_Node000038"><a xlink:title=" ">
<path fill="none" stroke="#63b8ff" d="M1266.01,-162C1251.2,-162 1235.98,-162 1221.98,-162"/>
<polygon fill="#63b8ff" stroke="#63b8ff" points="1265.7,-165.5 1275.7,-162 1265.7,-158.5 1265.7,-165.5"/>
</a>
</g>
</g>
<!-- Node40&#45;&gt;Node18 -->
<g id="edge51_Node000040_Node000018" class="edge">
<title>Node40&#45;&gt;Node18</title>
<g id="a_edge51_Node000040_Node000018"><a xlink:title=" ">
<path fill="none" stroke="#63b8ff" d="M1127.08,-63.39C1105.28,-54.65 1076.89,-43.45 1051.5,-34 1039.1,-29.39 1025.35,-24.52 1013.44,-20.38"/>
<polygon fill="#63b8ff" stroke="#63b8ff" points="1125.53,-66.53 1136.11,-67.02 1128.14,-60.04 1125.53,-66.53"/>
</a>
</g>
</g>
</g>
</svg>
