<?xml version="1.0" encoding="UTF-8" standalone="no"?>
<!DOCTYPE svg PUBLIC "-//W3C//DTD SVG 1.1//EN"
 "http://www.w3.org/Graphics/SVG/1.1/DTD/svg11.dtd">
<!-- Generated by graphviz version 13.1.0 (20250701.0955)
 -->
<!-- Title: QueueCmdCopy Pages: 1 -->
<!--zoomable 256 -->

<svg id="main" version="1.1" xmlns="http://www.w3.org/2000/svg" xmlns:xlink="http://www.w3.org/1999/xlink" xml:space="preserve" onload="init(evt)">

<style type="text/css"><![CDATA[
.node, .edge {opacity: 0.7;}
.node.selected, .edge.selected {opacity: 1;}
.edge:hover path { stroke: red; }
.edge:hover polygon { stroke: red; fill: red; }
]]></style>

<defs>
  <circle id="rim" cx="0" cy="0" r="7"/>
  <circle id="rim2" cx="0" cy="0" r="3.5"/>
  <g id="zoomPlus">
    <use xlink:href="#rim" fill="#404040"><set attributeName="fill" to="#808080" begin="zoomplus.mouseover" end="zoomplus.mouseout"/></use>
    <path d="M-4,0h8M0,-4v8" fill="none" stroke="white" stroke-width="1.5" pointer-events="none"/>
  </g>
  <g id="zoomMin">
    <use xlink:href="#rim" fill="#404040"><set attributeName="fill" to="#808080" begin="zoomminus.mouseover" end="zoomminus.mouseout"/></use>
    <path d="M-4,0h8" fill="none" stroke="white" stroke-width="1.5" pointer-events="none"/>
  </g>
  <g id="arrowUp" transform="translate(30 24)">
    <use xlink:href="#rim"/>
    <path pointer-events="none" fill="none" stroke="white" stroke-width="1.5" d="M0,-3.0v7 M-2.5,-0.5L0,-3.0L2.5,-0.5"/>
  </g>
  <g id="arrowRight" transform="rotate(90) translate(36 -43)">
    <use xlink:href="#rim"/>
    <path pointer-events="none" fill="none" stroke="white" stroke-width="1.5" d="M0,-3.0v7 M-2.5,-0.5L0,-3.0L2.5,-0.5"/>
  </g>
  <g id="arrowDown" transform="rotate(180) translate(-30 -48)">
    <use xlink:href="#rim"/>
    <path pointer-events="none" fill="none" stroke="white" stroke-width="1.5" d="M0,-3.0v7 M-2.5,-0.5L0,-3.0L2.5,-0.5"/>
  </g>
  <g id="arrowLeft" transform="rotate(270) translate(-36 17)">
    <use xlink:href="#rim"/>
    <path pointer-events="none" fill="none" stroke="white" stroke-width="1.5" d="M0,-3.0v7 M-2.5,-0.5L0,-3.0L2.5,-0.5"/>
  </g>
  <g id="resetDef">
    <use xlink:href="#rim2" fill="#404040"><set attributeName="fill" to="#808080" begin="reset.mouseover" end="reset.mouseout"/></use>
  </g>
</defs>
<script type="application/ecmascript">
var viewWidth = 1353;
var viewHeight = 256;
var sectionId = 'dynsection-24';
</script>
<script type="application/ecmascript" xlink:href="../../svg.min.js"/>
<svg id="graph" class="graph">
<g id="viewport">
<title>QueueCmdCopy</title>
<!-- Node1 -->
<g id="Node000001" class="node">
<title>Node1</title>
<g id="a_Node000001"><a xlink:title=" ">
<polygon fill="#999999" stroke="#666666" points="1344.5,-77 1255.75,-77 1255.75,-57 1344.5,-57 1344.5,-77"/>
<text xml:space="preserve" text-anchor="middle" x="1300.12" y="-63.5" font-family="Helvetica,sans-Serif" font-size="10.00">QueueCmdCopy</text>
</a>
</g>
</g>
<!-- Node2 -->
<g id="Node000002" class="node">
<title>Node2</title>
<g id="a_Node000002"><a xlink:href="../../dd/df3/SDL__render_8c.html#a30fbebc832594226a2a7e9e4c1f1d14a" target="_top" xlink:title=" ">
<polygon fill="white" stroke="#666666" points="1219.75,-77 1083,-77 1083,-57 1219.75,-57 1219.75,-77"/>
<text xml:space="preserve" text-anchor="middle" x="1151.38" y="-63.5" font-family="Helvetica,sans-Serif" font-size="10.00">SDL_RenderTextureInternal</text>
</a>
</g>
</g>
<!-- Node1&#45;&gt;Node2 -->
<g id="edge1_Node000001_Node000002" class="edge">
<title>Node1&#45;&gt;Node2</title>
<g id="a_edge1_Node000001_Node000002"><a xlink:title=" ">
<path fill="none" stroke="#63b8ff" d="M1244.2,-67C1236.32,-67 1228.13,-67 1220.04,-67"/>
<polygon fill="#63b8ff" stroke="#63b8ff" points="1243.98,-70.5 1253.98,-67 1243.98,-63.5 1243.98,-70.5"/>
</a>
</g>
</g>
<!-- Node3 -->
<g id="Node000003" class="node">
<title>Node3</title>
<g id="a_Node000003"><a xlink:href="../../dd/df3/SDL__render_8c.html#adefbd9b4df43575cde0ac34bfe31ec79" target="_top" xlink:title=" ">
<polygon fill="white" stroke="#666666" points="1036.5,-134 932,-134 932,-114 1036.5,-114 1036.5,-134"/>
<text xml:space="preserve" text-anchor="middle" x="984.25" y="-120.5" font-family="Helvetica,sans-Serif" font-size="10.00">SDL_RenderTexture</text>
</a>
</g>
</g>
<!-- Node2&#45;&gt;Node3 -->
<g id="edge2_Node000002_Node000003" class="edge">
<title>Node2&#45;&gt;Node3</title>
<g id="a_edge2_Node000002_Node000003"><a xlink:title=" ">
<path fill="none" stroke="#63b8ff" d="M1109.45,-81.13C1080.38,-91.16 1041.99,-104.41 1015.62,-113.52"/>
<polygon fill="#63b8ff" stroke="#63b8ff" points="1110.35,-84.52 1118.66,-77.95 1108.06,-77.9 1110.35,-84.52"/>
</a>
</g>
</g>
<!-- Node15 -->
<g id="Node000015" class="node">
<title>Node15</title>
<g id="a_Node000015"><a xlink:href="../../dd/df3/SDL__render_8c.html#afab750bf901b49420602d5f6e011b89c" target="_top" xlink:title=" ">
<polygon fill="white" stroke="#666666" points="1047,-61 921.5,-61 921.5,-29 1047,-29 1047,-61"/>
<text xml:space="preserve" text-anchor="start" x="929.5" y="-47.5" font-family="Helvetica,sans-Serif" font-size="10.00">SDL_RenderTextureTiled</text>
<text xml:space="preserve" text-anchor="middle" x="984.25" y="-35.5" font-family="Helvetica,sans-Serif" font-size="10.00">_Iterate</text>
</a>
</g>
</g>
<!-- Node2&#45;&gt;Node15 -->
<g id="edge15_Node000002_Node000015" class="edge">
<title>Node2&#45;&gt;Node15</title>
<g id="a_edge15_Node000002_Node000015"><a xlink:title=" ">
<path fill="none" stroke="#63b8ff" d="M1071.43,-56.48C1063.39,-55.41 1055.3,-54.33 1047.47,-53.29"/>
<polygon fill="#63b8ff" stroke="#63b8ff" points="1070.86,-59.94 1081.24,-57.79 1071.79,-53 1070.86,-59.94"/>
</a>
</g>
</g>
<!-- Node4 -->
<g id="Node000004" class="node">
<title>Node4</title>
<g id="a_Node000004"><a xlink:href="../../dd/df3/SDL__render_8c.html#a27f2d6409bf2ef0e406ee84cbe1400c0" target="_top" xlink:title=" ">
<polygon fill="white" stroke="#666666" points="860.75,-248 750.25,-248 750.25,-228 860.75,-228 860.75,-248"/>
<text xml:space="preserve" text-anchor="middle" x="805.5" y="-234.5" font-family="Helvetica,sans-Serif" font-size="10.00">DrawDebugCharacter</text>
</a>
</g>
</g>
<!-- Node3&#45;&gt;Node4 -->
<g id="edge3_Node000003_Node000004" class="edge">
<title>Node3&#45;&gt;Node4</title>
<g id="a_edge3_Node000003_Node000004"><a xlink:title=" ">
<path fill="none" stroke="#63b8ff" d="M968.69,-143.4C951.3,-165.16 920.19,-199.89 885.5,-219 877.96,-223.15 869.53,-226.4 861.06,-228.95"/>
<polygon fill="#63b8ff" stroke="#63b8ff" points="971.37,-145.66 974.74,-135.62 965.84,-141.36 971.37,-145.66"/>
</a>
</g>
</g>
<!-- Node7 -->
<g id="Node000007" class="node">
<title>Node7</title>
<g id="a_Node000007"><a xlink:href="../../dd/df3/SDL__render_8c.html#a00ff4c00fc3f0f1cd18c189c47362fe8" target="_top" xlink:title=" ">
<polygon fill="white" stroke="#666666" points="885.5,-210 725.5,-210 725.5,-190 885.5,-190 885.5,-210"/>
<text xml:space="preserve" text-anchor="middle" x="805.5" y="-196.5" font-family="Helvetica,sans-Serif" font-size="10.00">SDL_RenderApplyWindowShape</text>
</a>
</g>
</g>
<!-- Node3&#45;&gt;Node7 -->
<g id="edge6_Node000003_Node000007" class="edge">
<title>Node3&#45;&gt;Node7</title>
<g id="a_edge6_Node000003_Node000007"><a xlink:title=" ">
<path fill="none" stroke="#63b8ff" d="M956.22,-140.21C936.97,-151.3 910.23,-165.78 885.5,-176 873.05,-181.15 859.09,-185.75 846.41,-189.51"/>
<polygon fill="#63b8ff" stroke="#63b8ff" points="957.91,-143.28 964.78,-135.21 954.38,-137.23 957.91,-143.28"/>
</a>
</g>
</g>
<!-- Node9 -->
<g id="Node000009" class="node">
<title>Node9</title>
<g id="a_Node000009"><a xlink:href="../../d6/d3d/SDL__video_8c.html#af9c2e408ee20cc71dbff39d4fb0f7594" target="_top" xlink:title=" ">
<polygon fill="white" stroke="#666666" points="499.5,-191 359.75,-191 359.75,-171 499.5,-171 499.5,-191"/>
<text xml:space="preserve" text-anchor="middle" x="429.62" y="-177.5" font-family="Helvetica,sans-Serif" font-size="10.00">SDL_UpdateWindowTexture</text>
</a>
</g>
</g>
<!-- Node3&#45;&gt;Node9 -->
<g id="edge14_Node000003_Node000009" class="edge">
<title>Node3&#45;&gt;Node9</title>
<g id="a_edge14_Node000003_Node000009"><a xlink:title=" ">
<path fill="none" stroke="#63b8ff" d="M924.22,-136.54C911.49,-138.95 898.08,-141.26 885.5,-143 749.5,-161.84 589.25,-172.58 499.85,-177.56"/>
<polygon fill="#63b8ff" stroke="#63b8ff" points="924.56,-140.04 933.71,-134.71 923.23,-133.17 924.56,-140.04"/>
</a>
</g>
</g>
<!-- Node12 -->
<g id="Node000012" class="node">
<title>Node12</title>
<g id="a_Node000012"><a xlink:href="../../dd/df3/SDL__render_8c.html#a0e67500547e7c04b9537a1f3a5043aa9" target="_top" xlink:title=" ">
<polygon fill="white" stroke="#666666" points="869.38,-134 741.62,-134 741.62,-114 869.38,-114 869.38,-134"/>
<text xml:space="preserve" text-anchor="middle" x="805.5" y="-120.5" font-family="Helvetica,sans-Serif" font-size="10.00">SDL_RenderTexture9Grid</text>
</a>
</g>
</g>
<!-- Node3&#45;&gt;Node12 -->
<g id="edge11_Node000003_Node000012" class="edge">
<title>Node3&#45;&gt;Node12</title>
<g id="a_edge11_Node000003_Node000012"><a xlink:title=" ">
<path fill="none" stroke="#63b8ff" d="M920.49,-124C904.02,-124 886.26,-124 869.77,-124"/>
<polygon fill="#63b8ff" stroke="#63b8ff" points="920.14,-127.5 930.14,-124 920.14,-120.5 920.14,-127.5"/>
</a>
</g>
</g>
<!-- Node13 -->
<g id="Node000013" class="node">
<title>Node13</title>
<g id="a_Node000013"><a xlink:href="../../dd/df3/SDL__render_8c.html#a49b9002213c3ff97b44cf0102bdbbc90" target="_top" xlink:title=" ">
<polygon fill="white" stroke="#666666" points="689.5,-58 540.75,-58 540.75,-38 689.5,-38 689.5,-58"/>
<text xml:space="preserve" text-anchor="middle" x="615.12" y="-44.5" font-family="Helvetica,sans-Serif" font-size="10.00">SDL_RenderTexture9GridTiled</text>
</a>
</g>
</g>
<!-- Node3&#45;&gt;Node13 -->
<g id="edge12_Node000003_Node000013" class="edge">
<title>Node3&#45;&gt;Node13</title>
<g id="a_edge12_Node000003_Node000013"><a xlink:title=" ">
<path fill="none" stroke="#63b8ff" d="M921.49,-111.21C849.82,-96.38 733.01,-72.2 666.56,-58.44"/>
<polygon fill="#63b8ff" stroke="#63b8ff" points="920.6,-114.61 931.11,-113.21 922.02,-107.75 920.6,-114.61"/>
</a>
</g>
</g>
<!-- Node14 -->
<g id="Node000014" class="node">
<title>Node14</title>
<g id="a_Node000014"><a xlink:href="../../dd/df3/SDL__render_8c.html#a5e93c2d8d7f28f4e3bc0e8d9b5df170a" target="_top" xlink:title=" ">
<polygon fill="white" stroke="#666666" points="875,-58 736,-58 736,-38 875,-38 875,-58"/>
<text xml:space="preserve" text-anchor="middle" x="805.5" y="-44.5" font-family="Helvetica,sans-Serif" font-size="10.00">SDL_RenderTextureRotated</text>
</a>
</g>
</g>
<!-- Node3&#45;&gt;Node14 -->
<g id="edge13_Node000003_Node000014" class="edge">
<title>Node3&#45;&gt;Node14</title>
<g id="a_edge13_Node000003_Node000014"><a xlink:title=" ">
<path fill="none" stroke="#63b8ff" d="M956.22,-107.79C936.97,-96.7 910.23,-82.22 885.5,-72 873.05,-66.85 859.09,-62.25 846.41,-58.49"/>
<polygon fill="#63b8ff" stroke="#63b8ff" points="954.38,-110.77 964.78,-112.79 957.91,-104.72 954.38,-110.77"/>
</a>
</g>
</g>
<!-- Node5 -->
<g id="Node000005" class="node">
<title>Node5</title>
<g id="a_Node000005"><a xlink:href="../../dd/df3/SDL__render_8c.html#abea8c4ab0178e48c260dbf830cf7fd17" target="_top" xlink:title=" ">
<polygon fill="white" stroke="#666666" points="674.88,-248 555.38,-248 555.38,-228 674.88,-228 674.88,-248"/>
<text xml:space="preserve" text-anchor="middle" x="615.12" y="-234.5" font-family="Helvetica,sans-Serif" font-size="10.00">SDL_RenderDebugText</text>
</a>
</g>
</g>
<!-- Node4&#45;&gt;Node5 -->
<g id="edge4_Node000004_Node000005" class="edge">
<title>Node4&#45;&gt;Node5</title>
<g id="a_edge4_Node000004_Node000005"><a xlink:title=" ">
<path fill="none" stroke="#63b8ff" d="M738.27,-238C717.75,-238 695.29,-238 675.28,-238"/>
<polygon fill="#63b8ff" stroke="#63b8ff" points="738.25,-241.5 748.25,-238 738.25,-234.5 738.25,-241.5"/>
</a>
</g>
</g>
<!-- Node6 -->
<g id="Node000006" class="node">
<title>Node6</title>
<g id="a_Node000006"><a xlink:href="../../dd/df3/SDL__render_8c.html#a9088b0bec7523287068b9391ab923dc8" target="_top" xlink:title=" ">
<polygon fill="white" stroke="#666666" points="504.75,-248 354.5,-248 354.5,-228 504.75,-228 504.75,-248"/>
<text xml:space="preserve" text-anchor="middle" x="429.62" y="-234.5" font-family="Helvetica,sans-Serif" font-size="10.00">SDL_RenderDebugTextFormat</text>
</a>
</g>
</g>
<!-- Node5&#45;&gt;Node6 -->
<g id="edge5_Node000005_Node000006" class="edge">
<title>Node5&#45;&gt;Node6</title>
<g id="a_edge5_Node000005_Node000006"><a xlink:title=" ">
<path fill="none" stroke="#63b8ff" d="M543.64,-238C531,-238 517.79,-238 505.05,-238"/>
<polygon fill="#63b8ff" stroke="#63b8ff" points="543.54,-241.5 553.54,-238 543.54,-234.5 543.54,-241.5"/>
</a>
</g>
</g>
<!-- Node8 -->
<g id="Node000008" class="node">
<title>Node8</title>
<g id="a_Node000008"><a xlink:href="../../dd/df3/SDL__render_8c.html#a0e1304d4ab1c78d549d9018cda3a85d4" target="_top" xlink:title=" ">
<polygon fill="white" stroke="#666666" points="668.12,-210 562.12,-210 562.12,-190 668.12,-190 668.12,-210"/>
<text xml:space="preserve" text-anchor="middle" x="615.12" y="-196.5" font-family="Helvetica,sans-Serif" font-size="10.00">SDL_RenderPresent</text>
</a>
</g>
</g>
<!-- Node7&#45;&gt;Node8 -->
<g id="edge7_Node000007_Node000008" class="edge">
<title>Node7&#45;&gt;Node8</title>
<g id="a_edge7_Node000007_Node000008"><a xlink:title=" ">
<path fill="none" stroke="#63b8ff" d="M713.89,-200C698.36,-200 682.69,-200 668.59,-200"/>
<polygon fill="#63b8ff" stroke="#63b8ff" points="713.64,-203.5 723.64,-200 713.64,-196.5 713.64,-203.5"/>
</a>
</g>
</g>
<!-- Node8&#45;&gt;Node9 -->
<g id="edge8_Node000008_Node000009" class="edge">
<title>Node8&#45;&gt;Node9</title>
<g id="a_edge8_Node000008_Node000009"><a xlink:title=" ">
<path fill="none" stroke="#63b8ff" d="M550.91,-193.45C534.49,-191.75 516.71,-189.91 499.99,-188.18"/>
<polygon fill="#63b8ff" stroke="#63b8ff" points="550.22,-196.9 560.53,-194.45 550.94,-189.94 550.22,-196.9"/>
</a>
</g>
</g>
<!-- Node10 -->
<g id="Node000010" class="node">
<title>Node10</title>
<g id="a_Node000010"><a xlink:href="../../d6/d3d/SDL__video_8c.html#ae6c55eb5cc6ca81ba6faa17eab3af85b" target="_top" xlink:title=" ">
<polygon fill="white" stroke="#666666" points="318.5,-191 161.5,-191 161.5,-171 318.5,-171 318.5,-191"/>
<text xml:space="preserve" text-anchor="middle" x="240" y="-177.5" font-family="Helvetica,sans-Serif" font-size="10.00">SDL_CreateWindowFramebuffer</text>
</a>
</g>
</g>
<!-- Node9&#45;&gt;Node10 -->
<g id="edge9_Node000009_Node000010" class="edge">
<title>Node9&#45;&gt;Node10</title>
<g id="a_edge9_Node000009_Node000010"><a xlink:title=" ">
<path fill="none" stroke="#63b8ff" d="M348.06,-181C338.39,-181 328.53,-181 318.9,-181"/>
<polygon fill="#63b8ff" stroke="#63b8ff" points="347.78,-184.5 357.78,-181 347.78,-177.5 347.78,-184.5"/>
</a>
</g>
</g>
<!-- Node11 -->
<g id="Node000011" class="node">
<title>Node11</title>
<g id="a_Node000011"><a xlink:href="../../d6/d3d/SDL__video_8c.html#a155d3f01bb23f59e2c724973e020ebe6" target="_top" xlink:title=" ">
<polygon fill="white" stroke="#666666" points="125.5,-191 0,-191 0,-171 125.5,-171 125.5,-191"/>
<text xml:space="preserve" text-anchor="middle" x="62.75" y="-177.5" font-family="Helvetica,sans-Serif" font-size="10.00">SDL_GetWindowSurface</text>
</a>
</g>
</g>
<!-- Node10&#45;&gt;Node11 -->
<g id="edge10_Node000010_Node000011" class="edge">
<title>Node10&#45;&gt;Node11</title>
<g id="a_edge10_Node000010_Node000011"><a xlink:title=" ">
<path fill="none" stroke="#63b8ff" d="M149.74,-181C141.68,-181 133.64,-181 125.89,-181"/>
<polygon fill="#63b8ff" stroke="#63b8ff" points="149.6,-184.5 159.6,-181 149.6,-177.5 149.6,-184.5"/>
</a>
</g>
</g>
<!-- Node16 -->
<g id="Node000016" class="node">
<title>Node16</title>
<g id="a_Node000016"><a xlink:href="../../dd/df3/SDL__render_8c.html#ab7d2bba22d1613b8b52bb6cb558c62e6" target="_top" xlink:title=" ">
<polygon fill="white" stroke="#666666" points="868.25,-20 742.75,-20 742.75,0 868.25,0 868.25,-20"/>
<text xml:space="preserve" text-anchor="middle" x="805.5" y="-6.5" font-family="Helvetica,sans-Serif" font-size="10.00">SDL_RenderTextureTiled</text>
</a>
</g>
</g>
<!-- Node15&#45;&gt;Node16 -->
<g id="edge16_Node000015_Node000016" class="edge">
<title>Node15&#45;&gt;Node16</title>
<g id="a_edge16_Node000015_Node000016"><a xlink:title=" ">
<path fill="none" stroke="#63b8ff" d="M910.37,-30.57C893.32,-27.19 875.47,-23.66 859.47,-20.49"/>
<polygon fill="#63b8ff" stroke="#63b8ff" points="909.46,-33.96 919.95,-32.46 910.82,-27.09 909.46,-33.96"/>
</a>
</g>
</g>
<!-- Node16&#45;&gt;Node13 -->
<g id="edge17_Node000016_Node000013" class="edge">
<title>Node16&#45;&gt;Node13</title>
<g id="a_edge17_Node000016_Node000013"><a xlink:title=" ">
<path fill="none" stroke="#63b8ff" d="M741.43,-22.72C717.55,-27.54 690.66,-32.96 667.93,-37.55"/>
<polygon fill="#63b8ff" stroke="#63b8ff" points="741.93,-26.19 751.04,-20.78 740.55,-19.33 741.93,-26.19"/>
</a>
</g>
</g>
</g>
</svg>

<g id="navigator" transform="translate(0 0)" fill="#404254">
  <rect fill="#f2f5e9" fill-opacity="0.5" stroke="#606060" stroke-width=".5" x="0" y="0" width="60" height="60"/>
  <use id="zoomplus" xlink:href="#zoomPlus" x="17" y="9" onmousedown="handleZoom(evt,'in')"/>
  <use id="zoomminus" xlink:href="#zoomMin" x="42" y="9" onmousedown="handleZoom(evt,'out')"/>
  <use id="reset" xlink:href="#resetDef" x="30" y="36" onmousedown="handleReset()"/>
   <use id="arrowup" xlink:href="#arrowUp" x="0" y="0" onmousedown="handlePan(0,-1)"/>
  <use id="arrowright" xlink:href="#arrowRight" x="0" y="0" onmousedown="handlePan(1,0)"/>
  <use id="arrowdown" xlink:href="#arrowDown" x="0" y="0" onmousedown="handlePan(0,1)"/>
  <use id="arrowleft" xlink:href="#arrowLeft" x="0" y="0" onmousedown="handlePan(-1,0)"/>
</g>
<svg viewBox="0 0 15 15" width="100%" height="30px" preserveAspectRatio="xMaxYMin meet">
 <g id="arrow_out" transform="scale(0.3 0.3)">
  <a xlink:href="SDL__render_8c_ae4254b176ff12e6c141fc015ecc378b8_icgraph_org.svg" target="_base">
   <rect id="button" ry="5" rx="5" y="6" x="6" height="38" width="38"
        fill="#f2f5e9" fill-opacity="0.5" stroke="#606060" stroke-width="1.0"/>
   <path id="arrow"
     d="M 11.500037,31.436501 C 11.940474,20.09759 22.043105,11.32322 32.158766,21.979434 L 37.068811,17.246167 C 37.068811,17.246167 37.088388,32 37.088388,32 L 22.160133,31.978069 C 22.160133,31.978069 26.997745,27.140456 26.997745,27.140456 C 18.528582,18.264221 13.291696,25.230495 11.500037,31.436501 z"
     style="fill:#404040;"/>
  </a>
 </g>
</svg>

<style type='text/css'>
<![CDATA[
[data-mouse-over-selected='false'] { opacity: 0.7; }
[data-mouse-over-selected='true']  { opacity: 1.0; }
]]>
</style>
<script type="application/ecmascript"><![CDATA[
document.addEventListener('DOMContentLoaded', (event) => {
  highlightEdges();
  highlightAdjacentNodes();
});
]]></script>
</svg>
