<?xml version="1.0" encoding="UTF-8" standalone="no"?>
<!DOCTYPE svg PUBLIC "-//W3C//DTD SVG 1.1//EN"
 "http://www.w3.org/Graphics/SVG/1.1/DTD/svg11.dtd">
<!-- Generated by graphviz version 13.1.0 (20250701.0955)
 -->
<!-- Title: QueueCmdGeometry Pages: 1 -->
<svg width="1389pt" height="357pt"
 viewBox="0.00 0.00 1389.00 357.00" xmlns="http://www.w3.org/2000/svg" xmlns:xlink="http://www.w3.org/1999/xlink">
<g id="graph0" class="graph" transform="scale(1 1) rotate(0) translate(4 353)">
<title>QueueCmdGeometry</title>
<!-- Node1 -->
<g id="Node000001" class="node">
<title>Node1</title>
<g id="a_Node000001"><a xlink:title=" ">
<polygon fill="#999999" stroke="#666666" points="1380.5,-251 1272.25,-251 1272.25,-231 1380.5,-231 1380.5,-251"/>
<text xml:space="preserve" text-anchor="middle" x="1326.38" y="-237.5" font-family="Helvetica,sans-Serif" font-size="10.00">QueueCmdGeometry</text>
</a>
</g>
</g>
<!-- Node2 -->
<g id="Node000002" class="node">
<title>Node2</title>
<g id="a_Node000002"><a xlink:href="../../dd/df3/SDL__render_8c.html#afcc36bbe28e998126adf1ff2cb5d097f" target="_top" xlink:title=" ">
<polygon fill="white" stroke="#666666" points="1227.25,-347 1092,-347 1092,-327 1227.25,-327 1227.25,-347"/>
<text xml:space="preserve" text-anchor="middle" x="1159.62" y="-333.5" font-family="Helvetica,sans-Serif" font-size="10.00">SDL_RenderGeometryRaw</text>
</a>
</g>
</g>
<!-- Node1&#45;&gt;Node2 -->
<g id="edge1_Node000001_Node000002" class="edge">
<title>Node1&#45;&gt;Node2</title>
<g id="a_edge1_Node000001_Node000002"><a xlink:title=" ">
<path fill="none" stroke="#63b8ff" d="M1308.56,-259.49C1291.83,-276.79 1264.63,-302.14 1236.25,-317 1228.91,-320.84 1220.78,-323.99 1212.64,-326.55"/>
<polygon fill="#63b8ff" stroke="#63b8ff" points="1310.95,-262.05 1315.26,-252.37 1305.86,-257.25 1310.95,-262.05"/>
</a>
</g>
</g>
<!-- Node4 -->
<g id="Node000004" class="node">
<title>Node4</title>
<g id="a_Node000004"><a xlink:href="../../dd/df3/SDL__render_8c.html#a41bf6d76dd063b3dca132fa3f730ad9e" target="_top" xlink:title=" ">
<polygon fill="white" stroke="#666666" points="1207.38,-308 1111.88,-308 1111.88,-288 1207.38,-288 1207.38,-308"/>
<text xml:space="preserve" text-anchor="middle" x="1159.62" y="-294.5" font-family="Helvetica,sans-Serif" font-size="10.00">SDL_RenderLines</text>
</a>
</g>
</g>
<!-- Node1&#45;&gt;Node4 -->
<g id="edge3_Node000001_Node000004" class="edge">
<title>Node1&#45;&gt;Node4</title>
<g id="a_edge3_Node000001_Node000004"><a xlink:title=" ">
<path fill="none" stroke="#63b8ff" d="M1293.42,-256.07C1276.65,-263.61 1255.61,-272.49 1236.25,-279 1226.88,-282.15 1216.71,-285.05 1206.95,-287.59"/>
<polygon fill="#63b8ff" stroke="#63b8ff" points="1294.75,-259.31 1302.39,-251.97 1291.84,-252.94 1294.75,-259.31"/>
</a>
</g>
</g>
<!-- Node8 -->
<g id="Node000008" class="node">
<title>Node8</title>
<g id="a_Node000008"><a xlink:href="../../dd/df3/SDL__render_8c.html#afe36527f99f6ecadc56ce660ed1b0b65" target="_top" xlink:title=" ">
<polygon fill="white" stroke="#666666" points="1224.25,-270 1095,-270 1095,-250 1224.25,-250 1224.25,-270"/>
<text xml:space="preserve" text-anchor="middle" x="1159.62" y="-256.5" font-family="Helvetica,sans-Serif" font-size="10.00">SDL_RenderTextureAffine</text>
</a>
</g>
</g>
<!-- Node1&#45;&gt;Node8 -->
<g id="edge7_Node000001_Node000008" class="edge">
<title>Node1&#45;&gt;Node8</title>
<g id="a_edge7_Node000001_Node000008"><a xlink:title=" ">
<path fill="none" stroke="#63b8ff" d="M1260.67,-248.46C1248.77,-249.84 1236.35,-251.27 1224.47,-252.64"/>
<polygon fill="#63b8ff" stroke="#63b8ff" points="1260.85,-251.96 1270.38,-247.34 1260.05,-245.01 1260.85,-251.96"/>
</a>
</g>
</g>
<!-- Node9 -->
<g id="Node000009" class="node">
<title>Node9</title>
<g id="a_Node000009"><a xlink:href="../../dd/df3/SDL__render_8c.html#a30fbebc832594226a2a7e9e4c1f1d14a" target="_top" xlink:title=" ">
<polygon fill="white" stroke="#666666" points="1228,-191 1091.25,-191 1091.25,-171 1228,-171 1228,-191"/>
<text xml:space="preserve" text-anchor="middle" x="1159.62" y="-177.5" font-family="Helvetica,sans-Serif" font-size="10.00">SDL_RenderTextureInternal</text>
</a>
</g>
</g>
<!-- Node1&#45;&gt;Node9 -->
<g id="edge8_Node000001_Node000009" class="edge">
<title>Node1&#45;&gt;Node9</title>
<g id="a_edge8_Node000001_Node000009"><a xlink:title=" ">
<path fill="none" stroke="#63b8ff" d="M1292.64,-225.93C1275.95,-218.53 1255.22,-209.78 1236.25,-203 1224.53,-198.81 1211.59,-194.82 1199.77,-191.42"/>
<polygon fill="#63b8ff" stroke="#63b8ff" points="1291.02,-229.04 1301.58,-229.94 1293.89,-222.65 1291.02,-229.04"/>
</a>
</g>
</g>
<!-- Node21 -->
<g id="Node000021" class="node">
<title>Node21</title>
<g id="a_Node000021"><a xlink:href="../../dd/df3/SDL__render_8c.html#a5e93c2d8d7f28f4e3bc0e8d9b5df170a" target="_top" xlink:title=" ">
<polygon fill="white" stroke="#666666" points="875,-20 736,-20 736,0 875,0 875,-20"/>
<text xml:space="preserve" text-anchor="middle" x="805.5" y="-6.5" font-family="Helvetica,sans-Serif" font-size="10.00">SDL_RenderTextureRotated</text>
</a>
</g>
</g>
<!-- Node1&#45;&gt;Node21 -->
<g id="edge25_Node000001_Node000021" class="edge">
<title>Node1&#45;&gt;Node21</title>
<g id="a_edge25_Node000001_Node000021"><a xlink:title=" ">
<path fill="none" stroke="#63b8ff" d="M1308.42,-222.27C1291.59,-204.64 1264.31,-178.54 1236.25,-162 1108.08,-86.45 936.39,-39.89 854.23,-20.49"/>
<polygon fill="#63b8ff" stroke="#63b8ff" points="1305.8,-224.6 1315.18,-229.52 1310.92,-219.82 1305.8,-224.6"/>
</a>
</g>
</g>
<!-- Node24 -->
<g id="Node000024" class="node">
<title>Node24</title>
<g id="a_Node000024"><a xlink:href="../../dd/df3/SDL__render_8c.html#ac40fca3db59785d01c35f5fe2b87530f" target="_top" xlink:title=" ">
<polygon fill="white" stroke="#666666" points="1236.25,-232 1083,-232 1083,-212 1236.25,-212 1236.25,-232"/>
<text xml:space="preserve" text-anchor="middle" x="1159.62" y="-218.5" font-family="Helvetica,sans-Serif" font-size="10.00">SDL_RenderTextureTiled_Wrap</text>
</a>
</g>
</g>
<!-- Node1&#45;&gt;Node24 -->
<g id="edge26_Node000001_Node000024" class="edge">
<title>Node1&#45;&gt;Node24</title>
<g id="a_edge26_Node000001_Node000024"><a xlink:title=" ">
<path fill="none" stroke="#63b8ff" d="M1260.56,-233.52C1252.69,-232.62 1244.6,-231.68 1236.59,-230.76"/>
<polygon fill="#63b8ff" stroke="#63b8ff" points="1260.05,-236.99 1270.38,-234.66 1260.85,-230.04 1260.05,-236.99"/>
</a>
</g>
</g>
<!-- Node3 -->
<g id="Node000003" class="node">
<title>Node3</title>
<g id="a_Node000003"><a xlink:href="../../dd/df3/SDL__render_8c.html#a137b71331f040d5071d6f6957a90675e" target="_top" xlink:title=" ">
<polygon fill="white" stroke="#666666" points="1041.75,-349 926.75,-349 926.75,-329 1041.75,-329 1041.75,-349"/>
<text xml:space="preserve" text-anchor="middle" x="984.25" y="-335.5" font-family="Helvetica,sans-Serif" font-size="10.00">SDL_RenderGeometry</text>
</a>
</g>
</g>
<!-- Node2&#45;&gt;Node3 -->
<g id="edge2_Node000002_Node000003" class="edge">
<title>Node2&#45;&gt;Node3</title>
<g id="a_edge2_Node000002_Node000003"><a xlink:title=" ">
<path fill="none" stroke="#63b8ff" d="M1080.4,-337.9C1067.55,-338.05 1054.45,-338.2 1042.25,-338.34"/>
<polygon fill="#63b8ff" stroke="#63b8ff" points="1080.12,-341.41 1090.08,-337.79 1080.04,-334.41 1080.12,-341.41"/>
</a>
</g>
</g>
<!-- Node5 -->
<g id="Node000005" class="node">
<title>Node5</title>
<g id="a_Node000005"><a xlink:href="../../dd/df3/SDL__render_8c.html#a67366756da458745c1828919d035d7d6" target="_top" xlink:title=" ">
<polygon fill="white" stroke="#666666" points="1029.38,-273 939.12,-273 939.12,-253 1029.38,-253 1029.38,-273"/>
<text xml:space="preserve" text-anchor="middle" x="984.25" y="-259.5" font-family="Helvetica,sans-Serif" font-size="10.00">SDL_RenderLine</text>
</a>
</g>
</g>
<!-- Node4&#45;&gt;Node5 -->
<g id="edge4_Node000004_Node000005" class="edge">
<title>Node4&#45;&gt;Node5</title>
<g id="a_edge4_Node000004_Node000005"><a xlink:title=" ">
<path fill="none" stroke="#63b8ff" d="M1100.65,-286.3C1077.55,-281.63 1051.38,-276.35 1029.82,-272"/>
<polygon fill="#63b8ff" stroke="#63b8ff" points="1099.73,-289.68 1110.22,-288.23 1101.11,-282.82 1099.73,-289.68"/>
</a>
</g>
</g>
<!-- Node6 -->
<g id="Node000006" class="node">
<title>Node6</title>
<g id="a_Node000006"><a xlink:href="../../dd/df3/SDL__render_8c.html#a4d4cd6b8864b2f6ae29e2da880d43edd" target="_top" xlink:title=" ">
<polygon fill="white" stroke="#666666" points="1030.88,-311 937.62,-311 937.62,-291 1030.88,-291 1030.88,-311"/>
<text xml:space="preserve" text-anchor="middle" x="984.25" y="-297.5" font-family="Helvetica,sans-Serif" font-size="10.00">SDL_RenderRect</text>
</a>
</g>
</g>
<!-- Node4&#45;&gt;Node6 -->
<g id="edge5_Node000004_Node000006" class="edge">
<title>Node4&#45;&gt;Node6</title>
<g id="a_edge5_Node000004_Node000006"><a xlink:title=" ">
<path fill="none" stroke="#63b8ff" d="M1100.25,-299.01C1077.78,-299.4 1052.46,-299.84 1031.3,-300.2"/>
<polygon fill="#63b8ff" stroke="#63b8ff" points="1100.26,-302.51 1110.19,-298.84 1100.13,-295.51 1100.26,-302.51"/>
</a>
</g>
</g>
<!-- Node7 -->
<g id="Node000007" class="node">
<title>Node7</title>
<g id="a_Node000007"><a xlink:href="../../dd/df3/SDL__render_8c.html#a8ddfe94cbc45d570696bc2833cc44920" target="_top" xlink:title=" ">
<polygon fill="white" stroke="#666666" points="854.75,-311 756.25,-311 756.25,-291 854.75,-291 854.75,-311"/>
<text xml:space="preserve" text-anchor="middle" x="805.5" y="-297.5" font-family="Helvetica,sans-Serif" font-size="10.00">SDL_RenderRects</text>
</a>
</g>
</g>
<!-- Node6&#45;&gt;Node7 -->
<g id="edge6_Node000006_Node000007" class="edge">
<title>Node6&#45;&gt;Node7</title>
<g id="a_edge6_Node000006_Node000007"><a xlink:title=" ">
<path fill="none" stroke="#63b8ff" d="M925.97,-301C903.07,-301 876.98,-301 855.03,-301"/>
<polygon fill="#63b8ff" stroke="#63b8ff" points="925.76,-304.5 935.76,-301 925.76,-297.5 925.76,-304.5"/>
</a>
</g>
</g>
<!-- Node10 -->
<g id="Node000010" class="node">
<title>Node10</title>
<g id="a_Node000010"><a xlink:href="../../dd/df3/SDL__render_8c.html#adefbd9b4df43575cde0ac34bfe31ec79" target="_top" xlink:title=" ">
<polygon fill="white" stroke="#666666" points="1036.5,-134 932,-134 932,-114 1036.5,-114 1036.5,-134"/>
<text xml:space="preserve" text-anchor="middle" x="984.25" y="-120.5" font-family="Helvetica,sans-Serif" font-size="10.00">SDL_RenderTexture</text>
</a>
</g>
</g>
<!-- Node9&#45;&gt;Node10 -->
<g id="edge9_Node000009_Node000010" class="edge">
<title>Node9&#45;&gt;Node10</title>
<g id="a_edge9_Node000009_Node000010"><a xlink:title=" ">
<path fill="none" stroke="#63b8ff" d="M1116.06,-167.01C1085.49,-156.96 1044.94,-143.63 1017.14,-134.48"/>
<polygon fill="#63b8ff" stroke="#63b8ff" points="1114.79,-170.27 1125.39,-170.07 1116.98,-163.62 1114.79,-170.27"/>
</a>
</g>
</g>
<!-- Node22 -->
<g id="Node000022" class="node">
<title>Node22</title>
<g id="a_Node000022"><a xlink:href="../../dd/df3/SDL__render_8c.html#afab750bf901b49420602d5f6e011b89c" target="_top" xlink:title=" ">
<polygon fill="white" stroke="#666666" points="1047,-197 921.5,-197 921.5,-165 1047,-165 1047,-197"/>
<text xml:space="preserve" text-anchor="start" x="929.5" y="-183.5" font-family="Helvetica,sans-Serif" font-size="10.00">SDL_RenderTextureTiled</text>
<text xml:space="preserve" text-anchor="middle" x="984.25" y="-171.5" font-family="Helvetica,sans-Serif" font-size="10.00">_Iterate</text>
</a>
</g>
</g>
<!-- Node9&#45;&gt;Node22 -->
<g id="edge22_Node000009_Node000022" class="edge">
<title>Node9&#45;&gt;Node22</title>
<g id="a_edge22_Node000009_Node000022"><a xlink:title=" ">
<path fill="none" stroke="#63b8ff" d="M1079.87,-181C1069.02,-181 1058,-181 1047.5,-181"/>
<polygon fill="#63b8ff" stroke="#63b8ff" points="1079.58,-184.5 1089.58,-181 1079.58,-177.5 1079.58,-184.5"/>
</a>
</g>
</g>
<!-- Node11 -->
<g id="Node000011" class="node">
<title>Node11</title>
<g id="a_Node000011"><a xlink:href="../../dd/df3/SDL__render_8c.html#a27f2d6409bf2ef0e406ee84cbe1400c0" target="_top" xlink:title=" ">
<polygon fill="white" stroke="#666666" points="860.75,-134 750.25,-134 750.25,-114 860.75,-114 860.75,-134"/>
<text xml:space="preserve" text-anchor="middle" x="805.5" y="-120.5" font-family="Helvetica,sans-Serif" font-size="10.00">DrawDebugCharacter</text>
</a>
</g>
</g>
<!-- Node10&#45;&gt;Node11 -->
<g id="edge10_Node000010_Node000011" class="edge">
<title>Node10&#45;&gt;Node11</title>
<g id="a_edge10_Node000010_Node000011"><a xlink:title=" ">
<path fill="none" stroke="#63b8ff" d="M920.23,-124C900.95,-124 879.92,-124 861.24,-124"/>
<polygon fill="#63b8ff" stroke="#63b8ff" points="920.14,-127.5 930.14,-124 920.14,-120.5 920.14,-127.5"/>
</a>
</g>
</g>
<!-- Node14 -->
<g id="Node000014" class="node">
<title>Node14</title>
<g id="a_Node000014"><a xlink:href="../../dd/df3/SDL__render_8c.html#a00ff4c00fc3f0f1cd18c189c47362fe8" target="_top" xlink:title=" ">
<polygon fill="white" stroke="#666666" points="885.5,-96 725.5,-96 725.5,-76 885.5,-76 885.5,-96"/>
<text xml:space="preserve" text-anchor="middle" x="805.5" y="-82.5" font-family="Helvetica,sans-Serif" font-size="10.00">SDL_RenderApplyWindowShape</text>
</a>
</g>
</g>
<!-- Node10&#45;&gt;Node14 -->
<g id="edge13_Node000010_Node000014" class="edge">
<title>Node10&#45;&gt;Node14</title>
<g id="a_edge13_Node000010_Node000014"><a xlink:title=" ">
<path fill="none" stroke="#63b8ff" d="M923.47,-111.15C901.21,-106.36 876.24,-100.99 855.11,-96.45"/>
<polygon fill="#63b8ff" stroke="#63b8ff" points="922.49,-114.52 933,-113.2 923.96,-107.67 922.49,-114.52"/>
</a>
</g>
</g>
<!-- Node16 -->
<g id="Node000016" class="node">
<title>Node16</title>
<g id="a_Node000016"><a xlink:href="../../d6/d3d/SDL__video_8c.html#af9c2e408ee20cc71dbff39d4fb0f7594" target="_top" xlink:title=" ">
<polygon fill="white" stroke="#666666" points="499.5,-77 359.75,-77 359.75,-57 499.5,-57 499.5,-77"/>
<text xml:space="preserve" text-anchor="middle" x="429.62" y="-63.5" font-family="Helvetica,sans-Serif" font-size="10.00">SDL_UpdateWindowTexture</text>
</a>
</g>
</g>
<!-- Node10&#45;&gt;Node16 -->
<g id="edge21_Node000010_Node000016" class="edge">
<title>Node10&#45;&gt;Node16</title>
<g id="a_edge21_Node000010_Node000016"><a xlink:title=" ">
<path fill="none" stroke="#63b8ff" d="M961.5,-106.74C942.63,-92.94 913.95,-74.69 885.5,-67 750.75,-30.58 585.24,-44.45 495.67,-56.53"/>
<polygon fill="#63b8ff" stroke="#63b8ff" points="959.36,-109.51 969.45,-112.75 963.58,-103.93 959.36,-109.51"/>
</a>
</g>
</g>
<!-- Node19 -->
<g id="Node000019" class="node">
<title>Node19</title>
<g id="a_Node000019"><a xlink:href="../../dd/df3/SDL__render_8c.html#a0e67500547e7c04b9537a1f3a5043aa9" target="_top" xlink:title=" ">
<polygon fill="white" stroke="#666666" points="869.38,-172 741.62,-172 741.62,-152 869.38,-152 869.38,-172"/>
<text xml:space="preserve" text-anchor="middle" x="805.5" y="-158.5" font-family="Helvetica,sans-Serif" font-size="10.00">SDL_RenderTexture9Grid</text>
</a>
</g>
</g>
<!-- Node10&#45;&gt;Node19 -->
<g id="edge18_Node000010_Node000019" class="edge">
<title>Node10&#45;&gt;Node19</title>
<g id="a_edge18_Node000010_Node000019"><a xlink:title=" ">
<path fill="none" stroke="#63b8ff" d="M923.47,-136.85C901.21,-141.64 876.24,-147.01 855.11,-151.55"/>
<polygon fill="#63b8ff" stroke="#63b8ff" points="923.96,-140.33 933,-134.8 922.49,-133.48 923.96,-140.33"/>
</a>
</g>
</g>
<!-- Node20 -->
<g id="Node000020" class="node">
<title>Node20</title>
<g id="a_Node000020"><a xlink:href="../../dd/df3/SDL__render_8c.html#a49b9002213c3ff97b44cf0102bdbbc90" target="_top" xlink:title=" ">
<polygon fill="white" stroke="#666666" points="689.5,-229 540.75,-229 540.75,-209 689.5,-209 689.5,-229"/>
<text xml:space="preserve" text-anchor="middle" x="615.12" y="-215.5" font-family="Helvetica,sans-Serif" font-size="10.00">SDL_RenderTexture9GridTiled</text>
</a>
</g>
</g>
<!-- Node10&#45;&gt;Node20 -->
<g id="edge19_Node000010_Node000020" class="edge">
<title>Node10&#45;&gt;Node20</title>
<g id="a_edge19_Node000010_Node000020"><a xlink:title=" ">
<path fill="none" stroke="#63b8ff" d="M951.34,-139.54C941.62,-144.54 930.99,-150.28 921.5,-156 904.82,-166.06 903.64,-173.89 885.5,-181 822.4,-205.73 745.4,-214.68 689.91,-217.76"/>
<polygon fill="#63b8ff" stroke="#63b8ff" points="952.74,-142.76 960.09,-135.12 949.59,-136.51 952.74,-142.76"/>
</a>
</g>
</g>
<!-- Node10&#45;&gt;Node21 -->
<g id="edge20_Node000010_Node000021" class="edge">
<title>Node10&#45;&gt;Node21</title>
<g id="a_edge20_Node000010_Node000021"><a xlink:title=" ">
<path fill="none" stroke="#63b8ff" d="M965.22,-105.55C942.12,-82.26 902.99,-44 885.5,-34 875.67,-28.38 864.38,-23.94 853.48,-20.49"/>
<polygon fill="#63b8ff" stroke="#63b8ff" points="962.64,-107.92 972.15,-112.58 967.62,-103 962.64,-107.92"/>
</a>
</g>
</g>
<!-- Node12 -->
<g id="Node000012" class="node">
<title>Node12</title>
<g id="a_Node000012"><a xlink:href="../../dd/df3/SDL__render_8c.html#abea8c4ab0178e48c260dbf830cf7fd17" target="_top" xlink:title=" ">
<polygon fill="white" stroke="#666666" points="674.88,-134 555.38,-134 555.38,-114 674.88,-114 674.88,-134"/>
<text xml:space="preserve" text-anchor="middle" x="615.12" y="-120.5" font-family="Helvetica,sans-Serif" font-size="10.00">SDL_RenderDebugText</text>
</a>
</g>
</g>
<!-- Node11&#45;&gt;Node12 -->
<g id="edge11_Node000011_Node000012" class="edge">
<title>Node11&#45;&gt;Node12</title>
<g id="a_edge11_Node000011_Node000012"><a xlink:title=" ">
<path fill="none" stroke="#63b8ff" d="M738.27,-124C717.75,-124 695.29,-124 675.28,-124"/>
<polygon fill="#63b8ff" stroke="#63b8ff" points="738.25,-127.5 748.25,-124 738.25,-120.5 738.25,-127.5"/>
</a>
</g>
</g>
<!-- Node13 -->
<g id="Node000013" class="node">
<title>Node13</title>
<g id="a_Node000013"><a xlink:href="../../dd/df3/SDL__render_8c.html#a9088b0bec7523287068b9391ab923dc8" target="_top" xlink:title=" ">
<polygon fill="white" stroke="#666666" points="504.75,-134 354.5,-134 354.5,-114 504.75,-114 504.75,-134"/>
<text xml:space="preserve" text-anchor="middle" x="429.62" y="-120.5" font-family="Helvetica,sans-Serif" font-size="10.00">SDL_RenderDebugTextFormat</text>
</a>
</g>
</g>
<!-- Node12&#45;&gt;Node13 -->
<g id="edge12_Node000012_Node000013" class="edge">
<title>Node12&#45;&gt;Node13</title>
<g id="a_edge12_Node000012_Node000013"><a xlink:title=" ">
<path fill="none" stroke="#63b8ff" d="M543.64,-124C531,-124 517.79,-124 505.05,-124"/>
<polygon fill="#63b8ff" stroke="#63b8ff" points="543.54,-127.5 553.54,-124 543.54,-120.5 543.54,-127.5"/>
</a>
</g>
</g>
<!-- Node15 -->
<g id="Node000015" class="node">
<title>Node15</title>
<g id="a_Node000015"><a xlink:href="../../dd/df3/SDL__render_8c.html#a0e1304d4ab1c78d549d9018cda3a85d4" target="_top" xlink:title=" ">
<polygon fill="white" stroke="#666666" points="668.12,-96 562.12,-96 562.12,-76 668.12,-76 668.12,-96"/>
<text xml:space="preserve" text-anchor="middle" x="615.12" y="-82.5" font-family="Helvetica,sans-Serif" font-size="10.00">SDL_RenderPresent</text>
</a>
</g>
</g>
<!-- Node14&#45;&gt;Node15 -->
<g id="edge14_Node000014_Node000015" class="edge">
<title>Node14&#45;&gt;Node15</title>
<g id="a_edge14_Node000014_Node000015"><a xlink:title=" ">
<path fill="none" stroke="#63b8ff" d="M713.89,-86C698.36,-86 682.69,-86 668.59,-86"/>
<polygon fill="#63b8ff" stroke="#63b8ff" points="713.64,-89.5 723.64,-86 713.64,-82.5 713.64,-89.5"/>
</a>
</g>
</g>
<!-- Node15&#45;&gt;Node16 -->
<g id="edge15_Node000015_Node000016" class="edge">
<title>Node15&#45;&gt;Node16</title>
<g id="a_edge15_Node000015_Node000016"><a xlink:title=" ">
<path fill="none" stroke="#63b8ff" d="M550.91,-79.45C534.49,-77.75 516.71,-75.91 499.99,-74.18"/>
<polygon fill="#63b8ff" stroke="#63b8ff" points="550.22,-82.9 560.53,-80.45 550.94,-75.94 550.22,-82.9"/>
</a>
</g>
</g>
<!-- Node17 -->
<g id="Node000017" class="node">
<title>Node17</title>
<g id="a_Node000017"><a xlink:href="../../d6/d3d/SDL__video_8c.html#ae6c55eb5cc6ca81ba6faa17eab3af85b" target="_top" xlink:title=" ">
<polygon fill="white" stroke="#666666" points="318.5,-77 161.5,-77 161.5,-57 318.5,-57 318.5,-77"/>
<text xml:space="preserve" text-anchor="middle" x="240" y="-63.5" font-family="Helvetica,sans-Serif" font-size="10.00">SDL_CreateWindowFramebuffer</text>
</a>
</g>
</g>
<!-- Node16&#45;&gt;Node17 -->
<g id="edge16_Node000016_Node000017" class="edge">
<title>Node16&#45;&gt;Node17</title>
<g id="a_edge16_Node000016_Node000017"><a xlink:title=" ">
<path fill="none" stroke="#63b8ff" d="M348.06,-67C338.39,-67 328.53,-67 318.9,-67"/>
<polygon fill="#63b8ff" stroke="#63b8ff" points="347.78,-70.5 357.78,-67 347.78,-63.5 347.78,-70.5"/>
</a>
</g>
</g>
<!-- Node18 -->
<g id="Node000018" class="node">
<title>Node18</title>
<g id="a_Node000018"><a xlink:href="../../d6/d3d/SDL__video_8c.html#a155d3f01bb23f59e2c724973e020ebe6" target="_top" xlink:title=" ">
<polygon fill="white" stroke="#666666" points="125.5,-77 0,-77 0,-57 125.5,-57 125.5,-77"/>
<text xml:space="preserve" text-anchor="middle" x="62.75" y="-63.5" font-family="Helvetica,sans-Serif" font-size="10.00">SDL_GetWindowSurface</text>
</a>
</g>
</g>
<!-- Node17&#45;&gt;Node18 -->
<g id="edge17_Node000017_Node000018" class="edge">
<title>Node17&#45;&gt;Node18</title>
<g id="a_edge17_Node000017_Node000018"><a xlink:title=" ">
<path fill="none" stroke="#63b8ff" d="M149.74,-67C141.68,-67 133.64,-67 125.89,-67"/>
<polygon fill="#63b8ff" stroke="#63b8ff" points="149.6,-70.5 159.6,-67 149.6,-63.5 149.6,-70.5"/>
</a>
</g>
</g>
<!-- Node23 -->
<g id="Node000023" class="node">
<title>Node23</title>
<g id="a_Node000023"><a xlink:href="../../dd/df3/SDL__render_8c.html#ab7d2bba22d1613b8b52bb6cb558c62e6" target="_top" xlink:title=" ">
<polygon fill="white" stroke="#666666" points="868.25,-248 742.75,-248 742.75,-228 868.25,-228 868.25,-248"/>
<text xml:space="preserve" text-anchor="middle" x="805.5" y="-234.5" font-family="Helvetica,sans-Serif" font-size="10.00">SDL_RenderTextureTiled</text>
</a>
</g>
</g>
<!-- Node22&#45;&gt;Node23 -->
<g id="edge23_Node000022_Node000023" class="edge">
<title>Node22&#45;&gt;Node23</title>
<g id="a_edge23_Node000022_Node000023"><a xlink:title=" ">
<path fill="none" stroke="#63b8ff" d="M924.94,-201.01C911.98,-205.37 898.29,-209.9 885.5,-214 871.17,-218.6 855.3,-223.46 841.57,-227.6"/>
<polygon fill="#63b8ff" stroke="#63b8ff" points="925.83,-204.41 934.18,-197.89 923.59,-197.77 925.83,-204.41"/>
</a>
</g>
</g>
<!-- Node23&#45;&gt;Node20 -->
<g id="edge24_Node000023_Node000020" class="edge">
<title>Node23&#45;&gt;Node20</title>
<g id="a_edge24_Node000023_Node000020"><a xlink:title=" ">
<path fill="none" stroke="#63b8ff" d="M731.06,-230.59C717.48,-229.22 703.3,-227.79 689.72,-226.42"/>
<polygon fill="#63b8ff" stroke="#63b8ff" points="730.49,-234.05 740.79,-231.57 731.19,-227.09 730.49,-234.05"/>
</a>
</g>
</g>
<!-- Node24&#45;&gt;Node23 -->
<g id="edge27_Node000024_Node000023" class="edge">
<title>Node24&#45;&gt;Node23</title>
<g id="a_edge27_Node000024_Node000023"><a xlink:title=" ">
<path fill="none" stroke="#63b8ff" d="M1071.54,-225.96C1008.52,-228.82 924.88,-232.62 868.55,-235.18"/>
<polygon fill="#63b8ff" stroke="#63b8ff" points="1071.31,-229.47 1081.14,-225.52 1070.99,-222.48 1071.31,-229.47"/>
</a>
</g>
</g>
</g>
</svg>
