<?xml version="1.0" encoding="UTF-8" standalone="no"?>
<!DOCTYPE svg PUBLIC "-//W3C//DTD SVG 1.1//EN"
 "http://www.w3.org/Graphics/SVG/1.1/DTD/svg11.dtd">
<!-- Generated by graphviz version 13.1.0 (20250701.0955)
 -->
<!-- Title: VkDeviceImageSubresourceInfoKHR Pages: 1 -->
<svg width="282pt" height="188pt"
 viewBox="0.00 0.00 282.00 188.00" xmlns="http://www.w3.org/2000/svg" xmlns:xlink="http://www.w3.org/1999/xlink">
<g id="graph0" class="graph" transform="scale(1 1) rotate(0) translate(4 184)">
<title>VkDeviceImageSubresourceInfoKHR</title>
<!-- Node1 -->
<g id="Node000001" class="node">
<title>Node1</title>
<g id="a_Node000001"><a xlink:title=" ">
<polygon fill="#999999" stroke="#666666" points="188.62,-32 48.12,-32 48.12,0 188.62,0 188.62,-32"/>
<text xml:space="preserve" text-anchor="start" x="56.12" y="-18.5" font-family="Helvetica,sans-Serif" font-size="10.00">VkDeviceImageSubresource</text>
<text xml:space="preserve" text-anchor="middle" x="118.38" y="-6.5" font-family="Helvetica,sans-Serif" font-size="10.00">InfoKHR</text>
</a>
</g>
</g>
<!-- Node2 -->
<g id="Node000002" class="node">
<title>Node2</title>
<g id="a_Node000002"><a xlink:href="../../dd/d05/structVkImageCreateInfo.html" target="_top" xlink:title=" ">
<polygon fill="white" stroke="#666666" points="100.75,-106 0,-106 0,-86 100.75,-86 100.75,-106"/>
<text xml:space="preserve" text-anchor="middle" x="50.38" y="-92.5" font-family="Helvetica,sans-Serif" font-size="10.00">VkImageCreateInfo</text>
</a>
</g>
</g>
<!-- Node2&#45;&gt;Node1 -->
<g id="edge1_Node000001_Node000002" class="edge">
<title>Node2&#45;&gt;Node1</title>
<g id="a_edge1_Node000001_Node000002"><a xlink:title=" ">
<path fill="none" stroke="#9a32cd" stroke-dasharray="5,2" d="M65.8,-77.3C77.59,-63.78 93.67,-45.34 104.93,-32.42"/>
<polygon fill="#9a32cd" stroke="#9a32cd" points="63.37,-74.77 59.44,-84.61 68.65,-79.37 63.37,-74.77"/>
</a>
</g>
<text xml:space="preserve" text-anchor="start" x="91.45" y="-55.5" font-family="Helvetica,sans-Serif" font-size="10.00" fill="grey">pCreateInfo</text>
</g>
<!-- Node3 -->
<g id="Node000003" class="node">
<title>Node3</title>
<g id="a_Node000003"><a xlink:href="../../d0/d02/structVkExtent3D.html" target="_top" xlink:title=" ">
<polygon fill="white" stroke="#666666" points="85,-180 15.75,-180 15.75,-160 85,-160 85,-180"/>
<text xml:space="preserve" text-anchor="middle" x="50.38" y="-166.5" font-family="Helvetica,sans-Serif" font-size="10.00">VkExtent3D</text>
</a>
</g>
</g>
<!-- Node3&#45;&gt;Node2 -->
<g id="edge2_Node000002_Node000003" class="edge">
<title>Node3&#45;&gt;Node2</title>
<g id="a_edge2_Node000002_Node000003"><a xlink:title=" ">
<path fill="none" stroke="#9a32cd" stroke-dasharray="5,2" d="M50.38,-148.18C50.38,-134.29 50.38,-116.71 50.38,-106.19"/>
<polygon fill="#9a32cd" stroke="#9a32cd" points="46.88,-148.07 50.38,-158.07 53.88,-148.07 46.88,-148.07"/>
</a>
</g>
<text xml:space="preserve" text-anchor="start" x="53.38" y="-129.5" font-family="Helvetica,sans-Serif" font-size="10.00" fill="grey">extent</text>
</g>
<!-- Node4 -->
<g id="Node000004" class="node">
<title>Node4</title>
<g id="a_Node000004"><a xlink:href="../../d7/dd1/structVkImageSubresource2KHR.html" target="_top" xlink:title=" ">
<polygon fill="white" stroke="#666666" points="255.75,-106 119,-106 119,-86 255.75,-86 255.75,-106"/>
<text xml:space="preserve" text-anchor="middle" x="187.38" y="-92.5" font-family="Helvetica,sans-Serif" font-size="10.00">VkImageSubresource2KHR</text>
</a>
</g>
</g>
<!-- Node4&#45;&gt;Node1 -->
<g id="edge3_Node000001_Node000004" class="edge">
<title>Node4&#45;&gt;Node1</title>
<g id="a_edge3_Node000001_Node000004"><a xlink:title=" ">
<path fill="none" stroke="#9a32cd" stroke-dasharray="5,2" d="M172.35,-76.76C165.45,-68.5 157.1,-58.67 149.38,-50 144.15,-44.13 138.27,-37.81 133.06,-32.29"/>
<polygon fill="#9a32cd" stroke="#9a32cd" points="169.61,-78.94 178.69,-84.4 175,-74.47 169.61,-78.94"/>
</a>
</g>
<text xml:space="preserve" text-anchor="start" x="167.23" y="-55.5" font-family="Helvetica,sans-Serif" font-size="10.00" fill="grey">pSubresource</text>
</g>
<!-- Node5 -->
<g id="Node000005" class="node">
<title>Node5</title>
<g id="a_Node000005"><a xlink:href="../../d7/d32/structVkImageSubresource.html" target="_top" xlink:title=" ">
<polygon fill="white" stroke="#666666" points="242.25,-180 132.5,-180 132.5,-160 242.25,-160 242.25,-180"/>
<text xml:space="preserve" text-anchor="middle" x="187.38" y="-166.5" font-family="Helvetica,sans-Serif" font-size="10.00">VkImageSubresource</text>
</a>
</g>
</g>
<!-- Node5&#45;&gt;Node4 -->
<g id="edge4_Node000004_Node000005" class="edge">
<title>Node5&#45;&gt;Node4</title>
<g id="a_edge4_Node000004_Node000005"><a xlink:title=" ">
<path fill="none" stroke="#9a32cd" stroke-dasharray="5,2" d="M187.38,-148.18C187.38,-134.29 187.38,-116.71 187.38,-106.19"/>
<polygon fill="#9a32cd" stroke="#9a32cd" points="183.88,-148.07 187.38,-158.07 190.88,-148.07 183.88,-148.07"/>
</a>
</g>
<text xml:space="preserve" text-anchor="start" x="190.38" y="-129.5" font-family="Helvetica,sans-Serif" font-size="10.00" fill="grey">imageSubresource</text>
</g>
</g>
</svg>
