<?xml version="1.0" encoding="UTF-8" standalone="no"?>
<!DOCTYPE svg PUBLIC "-//W3C//DTD SVG 1.1//EN"
 "http://www.w3.org/Graphics/SVG/1.1/DTD/svg11.dtd">
<!-- Generated by graphviz version 13.1.0 (20250701.0955)
 -->
<!-- Title: VkSparseImageFormatProperties2 Pages: 1 -->
<svg width="174pt" height="176pt"
 viewBox="0.00 0.00 174.00 176.00" xmlns="http://www.w3.org/2000/svg" xmlns:xlink="http://www.w3.org/1999/xlink">
<g id="graph0" class="graph" transform="scale(1 1) rotate(0) translate(4 172)">
<title>VkSparseImageFormatProperties2</title>
<!-- Node1 -->
<g id="Node000001" class="node">
<title>Node1</title>
<g id="a_Node000001"><a xlink:title=" ">
<polygon fill="#999999" stroke="#666666" points="166,-20 0,-20 0,0 166,0 166,-20"/>
<text xml:space="preserve" text-anchor="middle" x="83" y="-6.5" font-family="Helvetica,sans-Serif" font-size="10.00">VkSparseImageFormatProperties2</text>
</a>
</g>
</g>
<!-- Node2 -->
<g id="Node000002" class="node">
<title>Node2</title>
<g id="a_Node000002"><a xlink:href="../../dc/d20/structVkSparseImageFormatProperties.html" target="_top" xlink:title=" ">
<polygon fill="white" stroke="#666666" points="163.38,-94 2.62,-94 2.62,-74 163.38,-74 163.38,-94"/>
<text xml:space="preserve" text-anchor="middle" x="83" y="-80.5" font-family="Helvetica,sans-Serif" font-size="10.00">VkSparseImageFormatProperties</text>
</a>
</g>
</g>
<!-- Node2&#45;&gt;Node1 -->
<g id="edge1_Node000001_Node000002" class="edge">
<title>Node2&#45;&gt;Node1</title>
<g id="a_edge1_Node000001_Node000002"><a xlink:title=" ">
<path fill="none" stroke="#9a32cd" stroke-dasharray="5,2" d="M83,-62.18C83,-48.29 83,-30.71 83,-20.19"/>
<polygon fill="#9a32cd" stroke="#9a32cd" points="79.5,-62.07 83,-72.07 86.5,-62.07 79.5,-62.07"/>
</a>
</g>
<text xml:space="preserve" text-anchor="start" x="86" y="-43.5" font-family="Helvetica,sans-Serif" font-size="10.00" fill="grey">properties</text>
</g>
<!-- Node3 -->
<g id="Node000003" class="node">
<title>Node3</title>
<g id="a_Node000003"><a xlink:href="../../d0/d02/structVkExtent3D.html" target="_top" xlink:title=" ">
<polygon fill="white" stroke="#666666" points="117.62,-168 48.38,-168 48.38,-148 117.62,-148 117.62,-168"/>
<text xml:space="preserve" text-anchor="middle" x="83" y="-154.5" font-family="Helvetica,sans-Serif" font-size="10.00">VkExtent3D</text>
</a>
</g>
</g>
<!-- Node3&#45;&gt;Node2 -->
<g id="edge2_Node000002_Node000003" class="edge">
<title>Node3&#45;&gt;Node2</title>
<g id="a_edge2_Node000002_Node000003"><a xlink:title=" ">
<path fill="none" stroke="#9a32cd" stroke-dasharray="5,2" d="M83,-136.18C83,-122.29 83,-104.71 83,-94.19"/>
<polygon fill="#9a32cd" stroke="#9a32cd" points="79.5,-136.07 83,-146.07 86.5,-136.07 79.5,-136.07"/>
</a>
</g>
<text xml:space="preserve" text-anchor="start" x="86" y="-117.5" font-family="Helvetica,sans-Serif" font-size="10.00" fill="grey">imageGranularity</text>
</g>
</g>
</svg>
